<?xml version="1.0"?>
<svg xmlns="http://www.w3.org/2000/svg" xmlns:xlink="http://www.w3.org/1999/xlink" version="1.1" id="Capa_1" x="0px" y="0px" viewBox="0 0 512.016 512.016" style="enable-background:new 0 0 512.016 512.016;" xml:space="preserve" width="512px" height="512px" class=""><g><g>
	<g>
		<g>
			<circle cx="64.005" cy="155.429" r="9.143" data-original="#000000" class="active-path" data-old_color="#000000" fill="#FFFFFF"/>
			<circle cx="64.005" cy="45.714" r="9.143" data-original="#000000" class="active-path" data-old_color="#000000" fill="#FFFFFF"/>
			<path d="M340.485,289.152l57.234-57.225c-5.028-7.749-13.62-12.447-22.857-12.498H309.29c1.19,11.692-0.131,23.503-3.877,34.642     L340.485,289.152z" data-original="#000000" class="active-path" data-old_color="#000000" fill="#FFFFFF"/>
			<path d="M27.434,91.429h347.429c15.148,0,27.429-12.28,27.429-27.429V27.429C402.291,12.28,390.011,0,374.863,0H27.434     C12.286,0,0.005,12.28,0.005,27.429V64C0.005,79.148,12.286,91.429,27.434,91.429z M347.434,36.571h18.286     c5.049,0,9.143,4.093,9.143,9.143s-4.093,9.143-9.143,9.143h-18.286c-5.049,0-9.143-4.093-9.143-9.143     S342.384,36.571,347.434,36.571z M292.577,36.571h18.286c5.049,0,9.143,4.093,9.143,9.143s-4.093,9.143-9.143,9.143h-18.286     c-5.049,0-9.143-4.093-9.143-9.143S287.527,36.571,292.577,36.571z M64.005,18.286c15.148,0,27.429,12.28,27.429,27.429     s-12.28,27.429-27.429,27.429s-27.429-12.28-27.429-27.429S48.857,18.286,64.005,18.286z" data-original="#000000" class="active-path" data-old_color="#000000" fill="#FFFFFF"/>
			<path d="M215.685,252.617c-9.702,0.018-19.008-3.843-25.847-10.725l-22.519-22.464h-3.319c-3,22.769,6.43,45.4,24.71,59.302     c18.28,13.902,42.607,16.944,63.748,7.971c3.439-1.462,7.421-0.683,10.057,1.966l21.184,21.184     c10.352-4.687,22.522-2.505,30.601,5.486l13.303-13.303l-39.25-39.25c-2.626-2.629-3.4-6.587-1.957-10.011     c9.195-21.647,5.789-46.592-8.872-64.983c-14.661-18.39-38.221-27.268-61.373-23.127l25.39,25.509     c10.469,10.457,13.605,26.193,7.944,39.865S230.483,252.621,215.685,252.617z" data-original="#000000" class="active-path" data-old_color="#000000" fill="#FFFFFF"/>
			<path d="M340.12,341.257l19.758-19.749l83.648-83.648c0.192-0.183,0.43-0.247,0.631-0.421s0.302-0.393,0.521-0.549l43.886-31.397     l20.791-31.141l-15.269-15.269l-31.113,20.754l-31.387,43.886c-0.155,0.21-0.393,0.311-0.558,0.512     c-0.126,0.219-0.267,0.43-0.421,0.631L327.183,328.311L340.12,341.257z" data-original="#000000" class="active-path" data-old_color="#000000" fill="#FFFFFF"/>
			<path d="M506.648,481.161L366.36,340.882l-13.303,13.303c8.021,8.068,10.229,20.25,5.55,30.62l121.097,121.097     c6.954,7.351,18.389,8.123,26.267,1.774c3.747-3.38,5.931-8.157,6.034-13.202C512.13,489.487,510.191,484.671,506.648,481.161z" data-original="#000000" class="active-path" data-old_color="#000000" fill="#FFFFFF"/>
			<path d="M27.434,201.143h122.304c0.622-1.829,1.088-3.657,1.829-5.486c1.184-2.8,3.682-4.829,6.665-5.413     c2.987-0.579,6.067,0.356,8.229,2.496l36.297,36.206c7.221,6.933,18.626,6.933,25.847,0c3.455-3.406,5.4-8.054,5.4-12.905     s-1.945-9.5-5.4-12.905l-36.242-36.334c-2.145-2.153-3.081-5.231-2.496-8.213c0.585-2.982,2.613-5.479,5.413-6.662     c21.029-8.958,44.842-8.74,65.703,0.601c20.862,9.342,36.882,26.961,44.203,48.615h69.678c15.148,0,27.429-12.28,27.429-27.429     v-36.571c0-15.148-12.28-27.429-27.429-27.429H27.434c-15.148,0-27.429,12.28-27.429,27.429v36.571     C0.005,188.863,12.286,201.143,27.434,201.143z M347.434,146.286h18.286c5.049,0,9.143,4.093,9.143,9.143     s-4.093,9.143-9.143,9.143h-18.286c-5.049,0-9.143-4.093-9.143-9.143S342.384,146.286,347.434,146.286z M64.005,128     c15.148,0,27.429,12.28,27.429,27.429s-12.28,27.429-27.429,27.429s-27.429-12.28-27.429-27.429S48.857,128,64.005,128z" data-original="#000000" class="active-path" data-old_color="#000000" fill="#FFFFFF"/>
			<circle cx="64.005" cy="265.143" r="9.143" data-original="#000000" class="active-path" data-old_color="#000000" fill="#FFFFFF"/>
			<path d="M228.577,310.089c-23.474,0.284-45.958-9.445-61.82-26.751c-15.862-17.306-23.602-40.549-21.279-63.91H27.434     c-15.148,0-27.429,12.28-27.429,27.429v36.571c0,15.148,12.28,27.429,27.429,27.429h201.143V310.089z M64.005,292.571     c-15.148,0-27.429-12.28-27.429-27.429s12.28-27.429,27.429-27.429s27.429,12.28,27.429,27.429S79.154,292.571,64.005,292.571z" data-original="#000000" class="active-path" data-old_color="#000000" fill="#FFFFFF"/>
			<path d="M333.738,360.713h-0.055l-25.874-25.874v-0.055l-6.4-6.4c-3.57-3.569-9.358-3.569-12.928,0l-7.57,7.57     c-1.721,1.71-2.685,4.038-2.679,6.464v12.873c0,15.148-12.28,27.429-27.429,27.429h-13.001c-2.427-0.01-4.756,0.956-6.464,2.679     l-72.229,72.229c-3.569,3.57-3.569,9.358,0,12.928l38.793,38.784c3.57,3.569,9.358,3.569,12.928,0l72.229-72.229     c1.715-1.714,2.678-4.039,2.679-6.464v-12.928c0-15.148,12.28-27.429,27.429-27.429h12.937c2.423,0.002,4.748-0.958,6.464-2.67     l7.57-7.579c3.569-3.57,3.569-9.358,0-12.928L333.738,360.713z" data-original="#000000" class="active-path" data-old_color="#000000" fill="#FFFFFF"/>
		</g>
	</g>
</g></g> </svg>
