<?xml version="1.0"?>
<svg xmlns="http://www.w3.org/2000/svg" height="512px" viewBox="-21 -21 682.66669 682.66669" width="512px"><g><path d="m365.710938 91.429688h-365.710938v68.570312h365.710938zm-342.855469 45.714843c-6.3125 0-11.425781-5.117187-11.425781-11.433593 0-6.304688 5.113281-11.421876 11.425781-11.421876 6.316406 0 11.433593 5.117188 11.433593 11.421876 0 6.316406-5.117187 11.433593-11.433593 11.433593zm45.714843 0c-6.308593 0-11.425781-5.117187-11.425781-11.433593 0-6.304688 5.117188-11.421876 11.425781-11.421876 6.3125 0 11.429688 5.117188 11.429688 11.421876 0 6.316406-5.117188 11.433593-11.429688 11.433593zm45.71875 0c-6.316406 0-11.433593-5.117187-11.433593-11.433593 0-6.304688 5.117187-11.421876 11.433593-11.421876 6.304688 0 11.421876 5.117188 11.421876 11.421876 0 6.316406-5.117188 11.433593-11.421876 11.433593zm0 0" data-original="#000000" class="active-path" data-old_color="#000000" fill="#FFFFFF"/><path d="m125.710938 262.855469c-31.554688 0-57.140626 25.585937-57.140626 57.144531s25.585938 57.144531 57.140626 57.144531c31.5625 0 57.144531-25.585937 57.144531-57.144531-.039063-31.542969-25.597657-57.105469-57.144531-57.144531zm0 91.433593c-18.933594 0-34.28125-15.351562-34.28125-34.289062s15.347656-34.289062 34.28125-34.289062c18.9375 0 34.289062 15.351562 34.289062 34.289062s-15.351562 34.289062-34.289062 34.289062zm0 0" data-original="#000000" class="active-path" data-old_color="#000000" fill="#FFFFFF"/><path d="m137.144531 320c0 6.3125-5.117187 11.429688-11.433593 11.429688-6.304688 0-11.421876-5.117188-11.421876-11.429688s5.117188-11.429688 11.421876-11.429688c6.316406 0 11.433593 5.117188 11.433593 11.429688zm0 0" data-original="#000000" class="active-path" data-old_color="#000000" fill="#FFFFFF"/><path d="m309.710938 607.339844c-4.28125 4.285156-10.097657 6.691406-16.160157 6.691406-6.066406 0-11.878906-2.40625-16.167969-6.691406l-16.164062-16.164063c-4.285156-4.285156-6.691406-10.101562-6.691406-16.167969 0-6.0625 2.40625-11.875 6.691406-16.160156l10.53125-10.519531c-14.03125-20.484375-23.671875-43.660156-28.320312-68.054687l-14.859376-.273438c-12.625 0-22.859374-10.234375-22.859374-22.855469v-22.855469c0-12.628906 10.234374-22.859374 22.859374-22.859374h14.859376c4.578124-24.398438 14.148437-47.59375 28.113281-68.113282l-10.289063-10.734375c-4.285156-4.285156-6.691406-10.101562-6.691406-16.167969 0-6.0625 2.40625-11.878906 6.691406-16.164062l16.164063-16.15625c4.285156-4.289062 10.101562-6.703125 16.167969-6.703125 6.0625 0 11.878906 2.414063 16.164062 6.703125l10.515625 10.523438c14.03125-9.515626 29.328125-17.015626 45.445313-22.273438v-89.488281h-365.710938v274.289062h171.429688c6.308593 0 11.425781 5.117188 11.425781 11.425781 0 6.3125-5.117188 11.429688-11.425781 11.429688h-171.429688v68.570312h171.429688c31.542968.039063 57.105468 25.601563 57.140624 57.140626-.039062 12.410156-4.160156 24.453124-11.726562 34.289062h171.726562v-14.859375c-24.398437-4.578125-47.589843-14.15625-68.109374-28.125zm-111.265626-230.769532c4.464844 4.464844 4.460938 11.707032-.003906 16.167969-4.464844 4.457031-11.703125 4.457031-16.167968-.007812l-8.742188-8.742188c-10.671875 8.003907-23.183594 13.199219-36.386719 15.097657v12.34375c0 6.308593-5.117187 11.425781-11.433593 11.425781-6.304688 0-11.421876-5.117188-11.421876-11.425781v-12.34375c-13.203124-1.898438-25.71875-7.085938-36.394531-15.085938l-8.738281 8.742188c-4.46875 4.464843-11.710938 4.464843-16.171875 0-4.46875-4.464844-4.46875-11.707032 0-16.171876l8.738281-8.753906c-8.003906-10.667968-13.191406-23.183594-15.089844-36.386718h-12.34375c-6.316406 0-11.433593-5.117188-11.433593-11.429688s5.117187-11.429688 11.433593-11.429688h12.34375c1.890626-13.203124 7.078126-25.714843 15.082032-36.386718l-8.742188-8.753906c-2.890625-2.886719-4.011718-7.101563-2.957031-11.042969 1.058594-3.945313 4.140625-7.027344 8.085937-8.082031 3.945313-1.054688 8.152344.074218 11.039063 2.964843l8.746094 8.742188c10.671875-8.007813 23.191406-13.199219 36.402343-15.097657v-12.34375c0-6.308593 5.117188-11.425781 11.421876-11.425781 6.316406 0 11.433593 5.117188 11.433593 11.425781v12.34375c13.203125 1.898438 25.714844 7.085938 36.386719 15.085938l8.742188-8.742188c4.464843-4.464843 11.703124-4.46875 16.167968-.007812 4.464844 4.464844 4.46875 11.699219.003906 16.167969l-8.742187 8.753906c8.007813 10.675781 13.195313 23.1875 15.097656 36.398437h12.34375c6.3125 0 11.425781 5.117188 11.425781 11.429688s-5.113281 11.429688-11.425781 11.429688h-12.34375c-1.894531 13.203124-7.085937 25.714843-15.089843 36.386718zm0 0" data-original="#000000" class="active-path" data-old_color="#000000" fill="#FFFFFF"/><path d="m0 571.429688v34.28125c0 18.9375 15.351562 34.289062 34.289062 34.289062h91.722657c-15.628907-20.1875-15.628907-48.390625 0-68.570312zm0 0" data-original="#000000" class="active-path" data-old_color="#000000" fill="#FFFFFF"/><path d="m434.289062 445.710938c0 6.316406-5.117187 11.433593-11.433593 11.433593-6.3125 0-11.425781-5.117187-11.425781-11.433593 0-6.304688 5.113281-11.421876 11.425781-11.421876 6.316406 0 11.433593 5.117188 11.433593 11.421876zm0 0" data-original="#000000" class="active-path" data-old_color="#000000" fill="#FFFFFF"/><path d="m422.855469 331.429688c-63.113281 0-114.285157 51.167968-114.285157 114.28125 0 63.121093 51.171876 114.289062 114.285157 114.289062 63.121093 0 114.289062-51.167969 114.289062-114.289062-.070312-63.085938-51.199219-114.210938-114.289062-114.28125zm0 148.570312c-18.933594 0-34.285157-15.351562-34.285157-34.289062 0-18.933594 15.351563-34.28125 34.285157-34.28125 18.9375 0 34.289062 15.347656 34.289062 34.28125 0 18.9375-15.351562 34.289062-34.289062 34.289062zm0 0" data-original="#000000" class="active-path" data-old_color="#000000" fill="#FFFFFF"/><path d="m205.710938 605.710938c0 18.9375-15.34375 34.289062-34.28125 34.289062-18.933594 0-34.285157-15.351562-34.285157-34.289062 0-18.933594 15.351563-34.28125 34.285157-34.28125 18.9375 0 34.28125 15.347656 34.28125 34.28125zm0 0" data-original="#000000" class="active-path" data-old_color="#000000" fill="#FFFFFF"/><path d="m579.804688 415.472656c-4.039063-21.246094-12.402344-41.433594-24.570313-59.308594-6.246094-9.097656-5.171875-21.34375 2.558594-29.214843l10.527343-10.511719-16.164062-16.171875-10.519531 10.519531c-7.867188 7.738282-20.109375 8.820313-29.199219 2.574219-17.886719-12.164063-38.070312-20.53125-59.316406-24.578125-10.859375-2.015625-18.761719-11.453125-18.832032-22.496094v-14.855468h-22.859374v14.855468c-.09375 11.027344-7.988282 20.449219-18.835938 22.460938-21.242188 4.046875-41.421875 12.410156-59.304688 24.570312-9.089843 6.257813-21.34375 5.183594-29.207031-2.566406l-10.519531-10.519531-16.171875 16.171875 10.53125 10.511718c7.726563 7.867188 8.800781 20.101563 2.570313 29.199219-12.171876 17.878907-20.539063 38.074219-24.585938 59.324219-2.007812 10.859375-11.4375 18.765625-22.476562 18.851562h-14.859376v22.855469h14.859376c11.019531.089844 20.433593 7.972657 22.453124 18.808594 4.042969 21.25 12.402344 41.445313 24.578126 59.324219 6.238281 9.097656 5.167968 21.34375-2.566407 29.214844l-10.519531 10.511718 16.15625 16.171875 10.527344-10.527343c4.265625-4.246094 10.050781-6.625 16.078125-6.601563 4.675781 0 9.246093 1.40625 13.121093 4.035156 17.878907 12.160157 38.070313 20.53125 59.316407 24.578125 10.863281 2.003906 18.773437 11.4375 18.855469 22.480469v14.859375h22.859374v-14.859375c.085938-11.03125 7.984376-20.449219 18.832032-22.453125 21.238281-4.050781 41.417968-12.414062 59.300781-24.570312 9.09375-6.261719 21.347656-5.1875 29.214844 2.554687l10.511719 10.53125 16.171874-16.171875-10.527343-10.515625c-7.722657-7.871094-8.804688-20.105469-2.566407-29.203125 12.171876-17.882812 20.535157-38.070312 24.578126-59.328125 2.011718-10.851563 11.441406-18.757813 22.480468-18.839844h14.859375v-22.855469h-14.859375c-11.03125-.085937-20.453125-7.96875-22.480468-18.816406zm-156.949219 167.382813c-55.46875 0-105.472657-33.410157-126.703125-84.65625-21.226563-51.25-9.492188-110.234375 29.730468-149.457031 39.226563-39.226563 98.210938-50.960938 149.460938-29.734376 51.242188 21.230469 84.65625 71.234376 84.65625 126.703126-.082031 75.710937-61.4375 137.0625-137.144531 137.144531zm0 0" data-original="#000000" class="active-path" data-old_color="#000000" fill="#FFFFFF"/><path d="m365.710938 34.289062c0-18.9375-15.34375-34.289062-34.28125-34.289062h-297.140626c-18.9375 0-34.289062 15.351562-34.289062 34.289062v34.28125h365.710938zm-194.28125 11.421876c-6.3125 0-11.429688-5.117188-11.429688-11.421876 0-6.316406 5.117188-11.433593 11.429688-11.433593 6.308593 0 11.425781 5.117187 11.425781 11.433593 0 6.304688-5.117188 11.421876-11.425781 11.421876zm0 0" data-original="#000000" class="active-path" data-old_color="#000000" fill="#FFFFFF"/><path d="m548.570312 148.570312c0 6.3125-5.113281 11.429688-11.425781 11.429688-6.316406 0-11.433593-5.117188-11.433593-11.429688 0-6.308593 5.117187-11.425781 11.433593-11.425781 6.3125 0 11.425781 5.117188 11.425781 11.425781zm0 0" data-original="#000000" class="active-path" data-old_color="#000000" fill="#FFFFFF"/><path d="m628.570312 137.144531h-12.339843c-1.839844-13.230469-7.035157-25.769531-15.089844-36.425781l8.710937-8.71875c4.460938-4.464844 4.460938-11.703125-.007812-16.164062-4.460938-4.464844-11.699219-4.464844-16.164062.003906l-8.710938 8.710937c-10.648438-8.042969-23.175781-13.226562-36.398438-15.0625v-12.34375c0-6.316406-5.113281-11.433593-11.425781-11.433593-6.316406 0-11.433593 5.117187-11.433593 11.433593v12.34375c-13.226563 1.835938-25.765626 7.03125-36.417969 15.082031l-8.710938-8.707031c-4.464843-4.464843-11.699219-4.464843-16.164062-.003906-4.464844 4.457031-4.464844 11.699219-.007813 16.164063l8.710938 8.71875c-8.042969 10.648437-13.230469 23.183593-15.066406 36.402343h-12.34375c-6.304688 0-11.421876 5.117188-11.421876 11.425781 0 6.3125 5.117188 11.429688 11.421876 11.429688h12.34375c1.84375 13.226562 7.03125 25.765625 15.089843 36.421875l-8.710937 8.71875c-4.464844 4.46875-4.457032 11.703125.003906 16.167969 4.46875 4.464844 11.703125 4.457031 16.167969-.003906l8.710937-8.710938c10.648438 8.039062 23.179688 13.226562 36.394532 15.0625v12.34375c0 6.3125 5.117187 11.429688 11.433593 11.429688 6.3125 0 11.425781-5.117188 11.425781-11.429688v-12.34375c13.230469-1.835938 25.769532-7.03125 36.425782-15.082031l8.707031 8.707031c4.460937 4.464844 11.703125 4.464844 16.164063.003906 4.46875-4.464844 4.46875-11.699218.007812-16.164062l-8.707031-8.71875c8.042969-10.65625 13.226562-23.183594 15.0625-36.402344h12.339843c6.3125 0 11.429688-5.117188 11.429688-11.429688 0-6.308593-5.117188-11.425781-11.429688-11.425781zm-57.140624 11.425781c0 18.933594-15.351563 34.285157-34.285157 34.285157-18.9375 0-34.289062-15.351563-34.289062-34.285157 0-18.9375 15.351562-34.28125 34.289062-34.28125 18.910157.050782 34.226563 15.367188 34.285157 34.28125zm0 0" data-original="#000000" class="active-path" data-old_color="#000000" fill="#FFFFFF"/></g> </svg>
