<svg xmlns="http://www.w3.org/2000/svg" viewBox="0 0 45.21 47.96"><defs><style>.cls-1{fill:#006eb6;}.cls-2{fill:#fff;}</style></defs><g id="Layer_2" data-name="Layer 2"><g id="Layer_1-2" data-name="Layer 1"><path class="cls-1" d="M22.93,11.65c-1.16-.52-2-1.24-1.84-2.51.11-1.07.82-1.7,2.09-1.95L20.91,4.46c-1.06-1.26-1.15-2.37-.27-3.36A2.51,2.51,0,0,1,24,.86a2.47,2.47,0,0,0,3.2-.13,2.43,2.43,0,0,1,3.47,0,2.4,2.4,0,0,0,3.18.13A2.52,2.52,0,0,1,36.78.67a2.19,2.19,0,0,1,.58,3.4c-.8,1-1.64,2-2.54,3.06,1.17.36,2,.92,2,2.18s-.72,1.85-1.82,2.32c.7.61,1.32,1.12,1.89,1.67,2.63,2.5,4.84,5.27,5.55,9a10.14,10.14,0,0,1,.09,2.4c0,.23-.35.44-.54.65-.23-.21-.65-.43-.65-.65,0-5.1-3.1-8.41-6.54-11.53-.17-.15-.41-.27-.49-.46-.57-1.23-1.61-1.22-2.74-1.19-2.12,0-4.25,0-6.37,0a2,2,0,0,0-1.06.56c-.47.39-.84.89-1.3,1.29a20.45,20.45,0,0,0-5.44,6.94,8.78,8.78,0,0,0,1.2,9.58c.19.24.12.66.16,1-.38-.07-.92,0-1.13-.23a9.2,9.2,0,0,1-2.24-5.13,11.19,11.19,0,0,1,2.48-8.47A61.4,61.4,0,0,1,22,12.49C22.29,12.22,22.59,12,22.93,11.65Zm6-4.36c1.16,0,2.32,0,3.48,0A1.33,1.33,0,0,0,33.3,7a45.26,45.26,0,0,0,2.87-3.63,1.64,1.64,0,0,0,0-1.45c-.3-.54-.91-.46-1.44-.12C32.84,3,31.61,3,29.87,1.71a1.32,1.32,0,0,0-1.82,0,3.67,3.67,0,0,1-4.78.16A1.1,1.1,0,0,0,21.64,2c-.51.53-.29,1,.12,1.54.91,1.08,1.8,2.19,2.73,3.25a1.42,1.42,0,0,0,.89.5C26.57,7.32,27.76,7.29,29,7.29Z"/><path class="cls-1" d="M29,29A7.39,7.39,0,1,1,29,14.2,7.39,7.39,0,1,1,29,29Z"/><path class="cls-1" d="M15.29,41.57l-6.73-7L8,34c-.79-.8-.79-.8-.2-1.72a9.8,9.8,0,0,1,12.51-3.57,8,8,0,0,0,2.85.67c2.78.12,5.57.09,8.36.14a2.29,2.29,0,1,1-.12,4.56L23.8,34a1.6,1.6,0,0,0-.58,0,3.69,3.69,0,0,0-.59.41c.2.17.38.48.58.48,2.88.06,5.77.17,8.65.09a3,3,0,0,0,2.89-3.62,1.18,1.18,0,0,1,.44-1.17c2-1.84,4-3.71,5.93-5.57a2.46,2.46,0,0,1,2.24-.77,2.24,2.24,0,0,1,1.35,3.62c-3.18,3.85-6.39,7.67-9.59,11.49a2,2,0,0,1-1.7.64c-4.17-.06-8.33-.07-12.5-.19a6.37,6.37,0,0,0-5.24,2,.75.75,0,0,1-.17.14A1.11,1.11,0,0,1,15.29,41.57Z"/><path class="cls-1" d="M0,38a6.76,6.76,0,0,1,.76-1.3c1-1,2-2,3-3a1.86,1.86,0,0,1,2.73,0q3.9,3.95,7.75,7.94a1.88,1.88,0,0,1-.06,2.79c-1,1-1.92,1.91-2.92,2.83a1.87,1.87,0,0,1-2.88-.06C5.84,44.66,3.3,42.07.8,39.44A6.3,6.3,0,0,1,0,38Zm6.42-.25A1.26,1.26,0,0,0,5.3,36.44a1.22,1.22,0,1,0,1.12,1.29Z"/><path class="cls-2" d="M26.73,18.19h5.1a7.43,7.43,0,0,1-.51.74H30a1.75,1.75,0,0,1,.38.8h1.45s0,0,0,0c-.33.49-.49.73-.5.73h-.94a2.18,2.18,0,0,1-.36.91,2.24,2.24,0,0,1-.83.69,3.28,3.28,0,0,1-1.42.36h0a2.17,2.17,0,0,0,.33.44l2.52,3v.15s0,0,0,0H29.48l-3-3.5v-.73a5.54,5.54,0,0,0,.62,0c1.12,0,1.81-.37,2.09-1.09a1,1,0,0,0,.06-.33h-3s0,0,0,0c.33-.49.5-.73.51-.73h2.41a1.41,1.41,0,0,0-.8-.65,2.29,2.29,0,0,0-.77-.14H26.23v0C26.55,18.43,26.72,18.19,26.73,18.19Z"/></g></g></svg>