<svg xmlns="http://www.w3.org/2000/svg" version="1.1" xmlns:xlink="http://www.w3.org/1999/xlink" width="512" height="512" x="0" y="0" viewBox="0 0 512 512" style="enable-background:new 0 0 512 512" xml:space="preserve"><rect width="512" height="512" rx="102.4" ry="102.4" fill="#bac8d3" shape="rounded"></rect><g transform="matrix(0.6699999999999999,0,0,0.6699999999999999,79.48000503540041,79.46350151062015)"><linearGradient id="a" x1="256" x2="256" y1="50" y2="461.9" gradientUnits="userSpaceOnUse"><stop offset="0" stop-color="#f704fe"></stop><stop offset="1" stop-color="#24bce3"></stop></linearGradient><path fill="url(#a)" d="m424.1 358.1-36.4 36.4c-1.9 1.9-5 1.9-6.9 0l-6.1-6.1c-1.1-1.1-2.7-1.8-4.3-1.8s-3.2.6-4.4 1.8c-2.4 2.4-2.4 6.4 0 8.8l16.8 16.8c.8.8 2.2.8 3 0l47.1-47.1c2.4-2.4 2.4-6.4 0-8.8-2.3-2.3-6.3-2.3-8.8 0zm1.2-33.9c-.3-.1-.7-.2-1-.4-7.7-3.1-16.1-4.8-24.9-4.8-4.6 0-9.2.5-13.5 1.4-.6.3-1.2.4-1.9.4-15.9 3.8-29.6 13.2-38.8 26.1-7.9 10.9-12.5 24.4-12.5 38.8 0 36.8 29.9 66.7 66.7 66.7s66.7-29.9 66.7-66.7c0-27.7-16.8-51.4-40.8-61.5zm14.6 49.8-47.1 47c-2.3 2.3-5.4 3.5-8.4 3.5s-6.1-1.2-8.4-3.5l-16.8-16.8c-6.2-6.2-6.2-16.4 0-22.6s16.4-6.2 22.6 0l2.6 2.6 32.9-32.9c6.2-6.2 16.4-6.2 22.6 0s6.2 16.5 0 22.7zM238.6 59.8c48.9 0 94.9 19 129.5 53.6C402.6 148 421.8 194 421.8 243v69.5c3.4 1 6.6 2.3 9.8 3.8V243c0-51.6-20.1-100-56.5-136.4-36.5-36.5-85-56.6-136.5-56.6-106.2 0-192.7 86.6-192.7 193v118.6c0 2.7 2.2 4.9 4.9 4.9 2.6 0 4.8-2.1 4.8-4.8V243c0-101 82-183.2 183-183.2zm0 42.8c37.5 0 72.8 14.6 99.3 41.1S379 205.5 379 243v68.9c3.2-.9 6.5-1.6 9.8-2V243c0-40.1-15.6-77.8-44-106.2s-66.1-44-106.2-44c-82.8 0-150.1 67.3-150.1 150.1v163.6c0 2.7 2.2 4.9 4.9 4.9s4.8-2.1 4.8-4.7V243c.1-77.4 63.1-140.4 140.4-140.4zm97.7 240.1c2.9-4.2 6.2-8.1 9.8-11.7v-88.1c0-28.6-11.1-55.6-31.4-75.9-20.4-20.3-47.3-31.5-76-31.5-59.2 0-107.4 48.2-107.4 107.4v191c0 2.7 2.2 4.9 4.9 4.9s4.9-2.1 4.7-4.8V243c0-53.9 43.8-97.7 97.7-97.7 26.1 0 50.6 10.2 69.1 28.6 18.4 18.5 28.6 43 28.6 69.1zm-97.7-164.5c-35.7 0-64.7 29-64.7 64.7v207c0 2.7 2.2 4.9 4.9 4.9s4.9-2.2 4.9-4.9V243c0-30.3 24.7-55 55-55 14.7 0 28.5 5.7 38.9 16.1s16.1 24.2 16.1 38.9v207c0 2.7 2.2 4.9 4.9 4.9 2.6 0 4.8-2.2 4.6-5v-207c0-17.2-6.7-33.5-18.9-45.7s-28.4-19-45.7-19zm21.8 64.8c0-5.8-2.3-11.4-6.4-15.5s-9.6-6.4-15.5-6.4c-12.1 0-21.9 9.8-21.9 21.9v214c0 2.7 2.2 4.9 4.9 4.9s4.9-2.2 4.9-4.9V242.8c0-6.7 5.5-12.2 12.2-12.2 3.3 0 6.4 1.3 8.7 3.6 2.3 2.4 3.6 5.4 3.6 8.7V457c0 2.7 2.2 4.9 4.9 4.9s4.9-2.1 4.6-4.8z" opacity="1" data-original="url(#a)"></path></g></svg>