<svg xmlns="http://www.w3.org/2000/svg" version="1.1" xmlns:xlink="http://www.w3.org/1999/xlink" width="512" height="512" x="0" y="0" viewBox="0 0 90 90" style="enable-background:new 0 0 512 512" xml:space="preserve" class=""><rect width="90" height="90" rx="18" ry="18" fill="#bac8d3" shape="rounded"></rect><g transform="matrix(0.65,0,0,0.65,15.750000000000004,15.225000000000001)"><linearGradient id="a" x1="7" x2="83" y1="43.5" y2="43.5" gradientUnits="userSpaceOnUse"><stop offset="0" stop-color="#5adbf9"></stop><stop offset="1" stop-color="#f761ec"></stop></linearGradient><path fill="url(#a)" d="M81 25h-6v-9.4c0-4.19-3.41-7.6-7.6-7.6H22.6c-4.19 0-7.6 3.41-7.6 7.6V25H9c-1.1 0-2 .9-2 2v14c0 1.1.9 2 2 2s2-.9 2-2V29h4v34.4c0 3.64 2.58 6.69 6 7.43V75c0 2.21 1.79 4 4 4h6c2.21 0 4-1.79 4-4v-4h19v4c0 2.21 1.79 4 4 4h6c2.21 0 4-1.79 4-4v-4.03c3.91-.31 7-3.58 7-7.57V29h4v13c0 1.1.9 2 2 2s2-.9 2-2V27c0-1.1-.9-2-2-2zm-62-3h24v27H32.35L36 45.25V46c0 1.1.9 2 2 2s2-.9 2-2V33c0-1.1-.9-2-2-2s-2 .9-2 2v6.51L26.78 49H19zm52 35H60v7h10.94a3.6 3.6 0 0 1-3.54 3H52.88L52 60H38l-.88 7H22.6a3.6 3.6 0 0 1-3.54-3H30v-7H19v-4h52zm0-8h-7.64L54 39.37V33c0-1.1-.9-2-2-2s-2 .9-2 2v13c0 1.1.9 2 2 2s2-.9 2-2v-.89L57.78 49H47V22h24z" opacity="1" data-original="url(#a)"></path></g></svg>