<svg xmlns="http://www.w3.org/2000/svg" version="1.1" xmlns:xlink="http://www.w3.org/1999/xlink" width="512" height="512" x="0" y="0" viewBox="0 0 512 512" style="enable-background:new 0 0 512 512" xml:space="preserve"><rect width="512" height="512" rx="102.4" ry="102.4" fill="#bac8d3" shape="rounded"></rect><g transform="matrix(0.5599999999999998,0,0,0.5599999999999998,112.64483734130863,102.65363104850056)"><linearGradient id="a" x1="256.011" x2="256.012" y1="512.006" y2=".015" gradientUnits="userSpaceOnUse"><stop offset="0" stop-color="#6c54a3"></stop><stop offset="1" stop-color="#00b1d2"></stop></linearGradient><path fill="url(#a)" fill-rule="evenodd" d="M197.369 165.06h117.237a59.017 59.017 0 0 0-16.229-31.109l119.36-119.393a8.507 8.507 0 0 0-12.03-12.031l-121.059 121.03a59.644 59.644 0 0 0-57.274.015L106.363 2.527a8.524 8.524 0 0 0-12.078 12.031l119.36 119.393a59.491 59.491 0 0 0-16.276 31.109zm223.387 218a8.535 8.535 0 1 1 0-17.07h19.626a8.535 8.535 0 0 1 0 17.07zm0 39.5a8.535 8.535 0 1 1 0-17.069h19.626a8.535 8.535 0 0 1 0 17.069zm0 39.5a8.535 8.535 0 1 1 0-17.069h19.626a8.535 8.535 0 0 1 0 17.069zm18.352-220.632a8.539 8.539 0 0 1-17.078 0v-.34a8.539 8.539 0 0 1 17.078 0zm0 40.153a8.539 8.539 0 1 1-17.078 0v-.33a8.539 8.539 0 1 1 17.078 0zm0 40.158a8.539 8.539 0 0 1-17.078 0v-.34a8.539 8.539 0 0 1 17.078 0zM92.257 232.4h279.67v229.35H92.257zM75.225 470.277a8.538 8.538 0 0 0 8.54 8.544h296.7a8.537 8.537 0 0 0 8.539-8.544V223.858a8.534 8.534 0 0 0-8.539-8.53h-296.7a8.535 8.535 0 0 0-8.54 8.53zm382.8-288.148H54a14.175 14.175 0 0 0-14.111 14.111V497.9A14.15 14.15 0 0 0 54 512.006h404.027a14.15 14.15 0 0 0 14.106-14.106V196.24a14.175 14.175 0 0 0-14.106-14.111z" opacity="1" data-original="url(#a)"></path></g></svg>