<svg xmlns="http://www.w3.org/2000/svg" version="1.1" xmlns:xlink="http://www.w3.org/1999/xlink" width="512" height="512" x="0" y="0" viewBox="0 0 512 512" style="enable-background:new 0 0 512 512" xml:space="preserve"><rect width="512" height="512" rx="102.4" ry="102.4" fill="#bac8d3" shape="rounded"></rect><g transform="matrix(0.6499999999999998,0,0,0.6499999999999998,89.60000000000005,89.60000534057622)"><linearGradient id="a" x1="143.465" x2="368.535" y1="368.74" y2="143.67" gradientTransform="matrix(1 0 0 -1 0 513.65)" gradientUnits="userSpaceOnUse"><stop offset="0" stop-color="#24c724"></stop><stop offset="1" stop-color="#007d00"></stop></linearGradient><path fill="url(#a)" d="m0 299.9 164.8 95.2v26.1L0 326zm512-111L169.8 386.4 0 288.4 342.2 90.8zm-52.2 14.8c-2.8-.8-5.5-1.8-7.8-3.2-11-6.3-10.9-16.7.1-23.1 2.3-1.4 5-2.4 7.8-3.2l-92.5-53.4c-1.4 1.6-3.2 3.2-5.5 4.5-11.1 6.4-29 6.4-40 .1-2.3-1.3-4.1-2.9-5.5-4.5L52.2 273.5c2.8.8 5.5 1.8 7.8 3.2 11 6.4 10.9 16.7-.2 23.1-2.3 1.4-5 2.4-7.8 3.2l92.5 53.4c1.4-1.6 3.2-3.2 5.6-4.5 11.1-6.4 29-6.4 39.9-.1 2.3 1.3 4.1 2.9 5.5 4.5zm-32.9-29.2c-8.8 9.1-8.9 20.2-.2 29.2L195.4 337.2c-15.6-5-34.8-5-50.5.1l-59.8-34.5c8.8-9.1 8.8-20.1.2-29.2L316.6 140c15.6 5 34.8 5 50.5-.1zM186.7 305.4l-.1-.1-29.5-1.7.6-.7c2-2.3 3-4.4 2.9-6.4s-1.3-4-3.5-5.9l-.4-.4 4.8-2.8-4.6-4.6-6.4 3.7-.6-.3c-1.7-.7-3.6-1.2-5.5-1.5l-1.5-.3 6.8-3.9-4.6-4.6-30.1 17.5 6.3 5.9 8.4-4.8c2.6-1.4 5.3-2 8.1-1.6l1.7.2-12.8 7.4 4.6 4.6 14.6-8.4.5.7c1.5 2 .8 4-2.1 5.7l-7.4 4.3 5.9 3.4 32.1 1.6zM322.8 200c-25.6-14.8-76.4-9.5-113.3 11.8s-46 50.6-20.4 65.4 76.4 9.5 113.3-11.8 46.1-50.5 20.4-65.4zm71.7-14.6-.1-.1-29.5-1.7.6-.7c2-2.3 3-4.4 2.9-6.4s-1.3-4-3.5-5.9l-.4-.4 4.8-2.8-4.6-4.6-6.4 3.7-.6-.3c-1.7-.7-3.6-1.2-5.5-1.5l-1.5-.3 6.8-3.9-4.6-4.6-29.9 17.3 6.3 5.9 8.4-4.9c2.6-1.4 5.3-1.9 8.1-1.6l1.7.2-12.8 7.4 4.6 4.6 14.6-8.4.5.7c1.5 2 .8 4-2.1 5.7l-7.4 4.3 5.9 3.4 32.1 1.6zM174.8 421.2 512 226.5v-26.1L174.8 395.1zm69.9-218.9-48.3 27.9 10.5 9.9 13.8-8c4.5-2.4 9.1-3.2 13.9-2.2l-19.9 11.5 7.9 7.8 23.1-13.3c3 3.4 2.1 6.5-2.7 9.4l-12.1 7 9.9 5.6 51.5 2.5 19.3-11.1-.8-.4-46.2-2.6c3.7-4 5.5-7.6 5.3-11-.1-3.4-2.2-6.7-6.1-9.8l7.5-4.4-7.9-7.8-10.3 5.9c-3.4-1.5-7.1-2.5-11-3l10.4-6z" opacity="1" data-original="url(#a)"></path></g></svg>