<svg xmlns="http://www.w3.org/2000/svg" version="1.1" xmlns:xlink="http://www.w3.org/1999/xlink" width="512" height="512" x="0" y="0" viewBox="0 0 64 64" style="enable-background:new 0 0 512 512" xml:space="preserve" class=""><rect width="64" height="64" rx="12.8" ry="12.8" fill="#bac8d3" shape="rounded"></rect><g transform="matrix(0.6499999999999998,0,0,0.6499999999999998,11.199991488456739,11.200065088272098)"><linearGradient id="a" x1="4" x2="60" y1="32" y2="32" gradientUnits="userSpaceOnUse"><stop offset="0" stop-color="#7f00ff"></stop><stop offset="1" stop-color="#e100ff"></stop></linearGradient><path fill="url(#a)" d="M39.91 14.702a3.573 3.573 0 0 1 3.14-5.28c6.003.408 3.702 9.211-1.73 6.69l-4.12 4.13 1.01 1.01a1.001 1.001 0 0 1-.71 1.7.96.96 0 0 1-.7-.29l-1.72-1.72-1.72-1.72a.997.997 0 0 1 1.41-1.41l1.02 1.02zm-12.26 26.26a21.27 21.27 0 0 1-10.51-8.45L5.75 49.592h21.9zM59 51.592H5a.994.994 0 0 0-1 1v6.23a.99.99 0 0 0 1 1h54a.997.997 0 0 0 1-1v-6.23a1.003 1.003 0 0 0-1-1zm-40.3-20.34c6.341 10.453 21.775 12.176 30.26 3.38.291-.318 1.37-1.306 1.6-1.65 2.63-3.33 1.07-9.72-3.63-16a5.22 5.22 0 0 1-1.67 1.12c4.28 5.69 5.89 11.51 3.49 13.91-2.97 2.97-11.14-.19-17.85-6.89a30.375 30.375 0 0 1-7.2-10.69c-4.009-12.259 8.494-8.405 14.22-3.68a5.362 5.362 0 0 1 1.12-1.65 27.73 27.73 0 0 0-7.2-4.01c-3.74-1.34-6.83-1.2-8.81.38-7.578 6.25-9.674 17.477-4.33 25.78z" opacity="1" data-original="url(#a)"></path></g></svg>