<svg xmlns="http://www.w3.org/2000/svg" version="1.1" xmlns:xlink="http://www.w3.org/1999/xlink" width="512" height="512" x="0" y="0" viewBox="0 0 512 512" style="enable-background:new 0 0 512 512" xml:space="preserve" fill-rule="evenodd"><rect width="512" height="512" rx="102.4" ry="102.4" fill="#bac8d3" shape="rounded"></rect><g transform="matrix(0.57,0,0,0.57,110.08000000000001,105.13374999999999)"><linearGradient id="a" x1="501.515" x2="10.482" y1="255.999" y2="255.999" gradientUnits="userSpaceOnUse"><stop offset="0" stop-color="#f071ab"></stop><stop offset="1" stop-color="#22abe2"></stop></linearGradient><path fill="url(#a)" d="M245 217c-1 0-1-1-2-1L38 138c-2-1-3-3-3-5s1-5 3-5l205-78c1-1 3-1 4 0l205 78h1v1h1v1h1v97c13 3 22 14 22 27 0 15-12 28-27 28-16 0-28-13-28-28 0-13 9-24 22-27v-86l-197 75c-1 0-1 1-2 1zm251 246H73c-34 0-63-29-63-63 0-35 29-63 63-63h423c3 0 6 3 6 6v29H109c-3 0-6 3-6 6s3 6 6 6h393v32H109c-3 0-6 2-6 6 0 3 3 5 6 5h393v30c0 3-3 6-6 6zM384 310H106c-3 0-6-2-6-5v-42h290v42c0 3-3 5-6 5zm-284-58v-77l139 52c2 1 4 2 6 2s4-1 6-2l139-52v77z" opacity="1" data-original="url(#a)"></path></g></svg>