<svg xmlns="http://www.w3.org/2000/svg" version="1.1" xmlns:xlink="http://www.w3.org/1999/xlink" width="512" height="512" x="0" y="0" viewBox="0 0 512 512" style="enable-background:new 0 0 512 512" xml:space="preserve" class=""><rect width="512" height="512" rx="102.4" ry="102.4" fill="#bac8d3" shape="rounded"></rect><g transform="matrix(0.6499999999999998,0,0,0.6499999999999998,89.59974098205572,89.59964885711673)"><linearGradient id="a" x1="361.874" x2="121.084" y1="18.246" y2="435.306" gradientUnits="userSpaceOnUse"><stop offset="0" stop-color="#2aa3ff"></stop><stop offset="1" stop-color="#ce3fff"></stop></linearGradient><path fill="url(#a)" d="M377.677 199.265c0 24.293-7.115 46.885-19.36 65.877-17.461 27.042-36.114 22.762-36.114 56.778v18.482c0 10.715-8.759 19.474-19.474 19.474h-40.734v23.556h34.214c10.602 0 19.248 8.646 19.248 19.219v43.767h-22.224v39.089c0 5.726-4.677 10.403-10.403 10.403s-10.403-4.677-10.403-10.403v-39.089h-33.193v39.089c0 5.726-4.677 10.403-10.403 10.403s-10.403-4.677-10.403-10.403v-39.089h-22.224v-43.767c0-10.573 8.646-19.219 19.219-19.219h34.583v-23.556H209.3c-10.715 0-19.474-8.759-19.474-19.474V321.92c0-34.016-18.68-29.735-36.113-56.778-12.274-18.992-19.361-41.584-19.361-65.877 0-42.69 21.997-80.221 55.276-101.934l-4.96 12.473a12.913 12.913 0 0 0 1.36 12.075c2.438 3.6 6.406 5.698 10.743 5.698h46.63l-33.902 85.776c-2.381 5.953.028 12.812 5.584 16.016 5.584 3.232 12.671 1.871 16.696-3.175l98.05-123.619c29.083 22.224 47.849 57.26 47.849 96.69zM196.77 117.57h61.342l-39.316 99.439a2.985 2.985 0 0 0 1.275 3.713 3.017 3.017 0 0 0 3.855-.737L337.425 76.863c.737-.907.851-2.098.34-3.146-.51-1.077-1.502-1.701-2.693-1.701h-55.984l40.507-51.052a2.935 2.935 0 0 0 .312-3.203c-.539-1.077-1.559-1.701-2.778-1.672l-83.735 2.607a2.916 2.916 0 0 0-2.693 1.871l-36.708 92.92c-.397.935-.283 1.927.284 2.778.595.85 1.474 1.304 2.494 1.304zM80.493 204.197a5.998 5.998 0 0 0-7.342-4.252l-32.372 8.674a5.998 5.998 0 0 0-4.252 7.342c.85 3.203 4.139 5.103 7.342 4.252l32.372-8.702c3.203-.851 5.102-4.139 4.252-7.313zm14.202 79.427-23.698 23.698a6.005 6.005 0 0 0 0 8.504c2.324 2.324 6.123 2.324 8.476 0l23.698-23.726c2.353-2.324 2.353-6.123 0-8.476-2.353-2.324-6.151-2.324-8.476 0zM60.877 119.611l32.372 8.674a6 6 0 0 0 7.342-4.252c.85-3.204-1.049-6.492-4.252-7.342l-32.372-8.674c-3.204-.85-6.492 1.049-7.342 4.252-.851 3.203 1.049 6.492 4.252 7.342zm97.171-54.936c2.353-2.324 2.353-6.123 0-8.476L134.35 32.502c-2.353-2.353-6.151-2.353-8.476 0-2.353 2.324-2.353 6.123 0 8.476l23.698 23.697c2.353 2.353 6.151 2.353 8.476 0zm260.731 63.61 32.372-8.674a5.96 5.96 0 0 0 4.224-7.342c-.851-3.203-4.139-5.102-7.313-4.252l-32.4 8.674c-3.175.85-5.074 4.138-4.224 7.342a6 6 0 0 0 7.342 4.252zm-41.131-95.783L353.95 56.199c-2.324 2.353-2.324 6.151 0 8.476a6.005 6.005 0 0 0 8.504 0l23.698-23.697c2.325-2.353 2.325-6.151 0-8.476a6.005 6.005 0 0 0-8.504 0zm39.685 251.121a6.058 6.058 0 0 0-8.504 0c-2.324 2.353-2.324 6.151 0 8.476l23.726 23.726c2.324 2.324 6.123 2.324 8.476 0a6.005 6.005 0 0 0 0-8.504zm53.887-75.005-32.372-8.674c-3.203-.851-6.463 1.049-7.342 4.252-.851 3.175 1.049 6.463 4.252 7.313l32.372 8.702a5.998 5.998 0 0 0 7.342-4.252 6 6 0 0 0-4.252-7.342z" opacity="1" data-original="url(#a)"></path></g></svg>