<svg xmlns="http://www.w3.org/2000/svg" version="1.1" xmlns:xlink="http://www.w3.org/1999/xlink" width="512" height="512" x="0" y="0" viewBox="0 0 3873 3873" style="enable-background:new 0 0 512 512" xml:space="preserve"><rect width="3873" height="3873" rx="774.6" ry="774.6" fill="#bac8d3" shape="rounded"></rect><g transform="matrix(0.7,0,0,0.7,601.5649780273438,582.6899780273438)"><linearGradient id="a" x1="447.7" x2="2967.3" y1="892.3" y2="3411.9" gradientUnits="userSpaceOnUse"><stop offset="0" stop-color="#fc00ff"></stop><stop offset="1" stop-color="#00dbde"></stop></linearGradient><path fill="url(#a)" fill-rule="evenodd" d="M3593.5 1934.3v151.4H3425v-151.4zm-468.1 151.4h208.9v-151.4h-208.9zm-90.7-151.4h-172.5v151.4h172.5zm-263.2 0h-208.9v151.4h208.9zm-299.6 0h-168.5v151.4h168.5zm-715.3 231.1H954.4c57.8 72.9 92.3 165 92.3 265.1 0 33.2-8.6 75.3-23.2 122.9h733.1zm-766.4-408h518.6v-392.8H990.2zm1222.5 67.4c0-43.5-35.2-78.7-78.7-78.7s-78.7 35.2-78.7 78.7v990.3h157.4v-990.3zM784.8 3063h2531.4v-157.2H869.7c-28.7 55.3-57.8 108.8-84.9 157.2zm21.8-230.1c47.5-92.9 149.4-299.5 149.5-402.3 0-92.9-37.7-177-98.5-237.8-130.4-130.4-343.2-132.3-475.5 0-60.9 60.9-98.5 144.9-98.5 237.8 0 159 240.7 577.7 336.2 737.6 59.9-100.2 124.6-214.7 179.5-321 1.5-5 4.1-10.1 7.3-14.3zM716.4 2516c-53.4 53.4-139.8 53.3-193.1 0-24.7-24.7-40-58.8-40-96.5 0-75.4 61.1-136.5 136.5-136.5s136.5 61.1 136.5 136.5c0 37.7-15.3 71.8-39.9 96.5zM1875.3 716.4H623.6v233.1h1251.7zM915.2 2815h841.4v-170.9H991.3c-21.5 54.5-47.8 112.7-76.1 170.9zM742.3 1040.3v981.2c40.7 12.2 78.8 30.3 113.4 53.2 16 .1 885.1.1 900.9.1V1040.3zm857 762.5c0 25-20.3 45.3-45.3 45.3H944.8c-25 0-45.3-20.3-45.3-45.3v-483.5c0-25 20.3-45.3 45.3-45.3H1554c25 0 45.3 20.3 45.3 45.3z" clip-rule="evenodd" opacity="1" data-original="url(#a)"></path></g></svg>