<svg xmlns="http://www.w3.org/2000/svg" version="1.1" xmlns:xlink="http://www.w3.org/1999/xlink" width="512" height="512" x="0" y="0" viewBox="0 0 512 512" style="enable-background:new 0 0 512 512" xml:space="preserve" class=""><rect width="512" height="512" rx="102.4" ry="102.4" fill="#bac8d3" shape="rounded"></rect><g transform="matrix(0.7499999999999999,0,0,0.7499999999999999,63.987771987915096,64.000002861023)"><linearGradient id="a" x1="255.951" x2="255.951" y1="50.7" y2="461.3" gradientUnits="userSpaceOnUse"><stop offset="0" stop-color="#f704fe"></stop><stop offset="1" stop-color="#24bce3"></stop></linearGradient><path fill="url(#a)" d="M367.3 405.8c.1 8.5-3.2 16.6-9.3 22.7s-14.2 9.5-22.9 9.5H176.9c-17.8 0-32.3-14.5-32.3-32.3v-26.3h222.7zm-222.7-54h222.7v17.8H144.6zm222.7-145.9V342H144.6V205.9zm-75.5 77.9c.9-14.8-7.5-25.9-7.9-26.4-.9-1.1-2.2-1.8-3.6-1.9s-2.8.5-3.8 1.5l-1.6 1.7c-1.4-11-7.8-23.6-25.6-30.1-2-.7-4.2-.1-5.5 1.6-1.3 1.6-1.4 3.9-.2 5.7.3.4 7.4 11.3.2 17.6-.7.7-2.9 2.7-4.4 7.1l-3-3.4c-.9-1.1-2.3-1.7-3.7-1.7s-2.8.6-3.7 1.7c-.4.4-9.9 11.6-8.9 26.6.1 19.7 16.2 35.7 35.9 35.7s35.8-16 35.8-35.7zM144.6 178.2h222.7v17.9H144.6zm191-125.8v9.2c0 1-.8 1.7-1.7 1.7H178.1c-1 0-1.7-.8-1.7-1.7v-9.2c0-1 .8-1.7 1.7-1.7h155.8c1 0 1.7.8 1.7 1.7zM312.2 73h11.2v27.1h-11.2zm10.7 374.7v2.9c0 5.9-5.8 10.7-12.9 10.7H201.9c-7.1 0-12.9-4.8-12.9-10.7v-2.9zM302.4 73v27.1h-41.5v-8.2h5.9c2.7 0 4.8-2.2 4.9-4.9 0-2.7-2.2-4.9-4.9-4.9h-21.5c-2.7 0-4.9 2.2-4.9 4.9s2.2 4.9 4.9 4.9h5.8v8.2h-41.5V73zm-52.2 187.9c5.6-5 6.9-11.4 6.3-17.1 4.2 3.5 6.9 8 8.1 13.4 1.6 7-.1 13.1-.1 13.2-.6 2.2.4 4.5 2.3 5.6 2 1.1 4.4.7 6-.9l6.4-6.6c1.6 3.7 3.3 8.9 2.9 14.9v.3c0 14.4-11.7 26.1-26.1 26.1s-26.1-11.7-26.1-26.1v-.4c-.4-5.9 1.5-11.2 3.4-14.8l5.4 6.5c1.3 1.6 3.5 2.1 5.4 1.4s3.2-2.6 3.2-4.6c0-7.6 2.6-10.6 2.8-10.8.1 0 .1-.1.1-.1zM188.6 73h11.2v27.1h-11.2zm178.7 69.1v26.3H144.6v-26.2c0-17.8 14.5-32.3 32.3-32.3v-.1H335c17.8 0 32.3 14.5 32.3 32.3z" opacity="1" data-original="url(#a)"></path></g></svg>