<svg xmlns="http://www.w3.org/2000/svg" version="1.1" xmlns:xlink="http://www.w3.org/1999/xlink" width="512" height="512" x="0" y="0" viewBox="0 0 57.15 57.15" style="enable-background:new 0 0 512 512" xml:space="preserve" class=""><rect width="57.15" height="57.15" rx="11.43" ry="11.43" fill="#bac8d3" shape="rounded"></rect><g transform="matrix(0.5900000000000001,0,0,0.5900000000000001,11.715750312805174,11.715700263977048)"><linearGradient id="a" x1="0" x2="57.15" y1="25.039" y2="25.039" gradientTransform="matrix(1 0 0 -1 0 53.614)" gradientUnits="userSpaceOnUse"><stop offset="0" stop-color="#e10613"></stop><stop offset="1" stop-color="#c9b99e"></stop></linearGradient><path fill="url(#a)" d="M57.15 31.973v3.04H45.3v-3.04zm-54.12 5.04v18.33h8.82v-18.33zM0 31.973v3.04h11.85v-3.04zm45.3 5.04v18.33h8.82v-18.33zm-19.81 12.15v6.18h6.17v-6.18zm17.81-37.1v43.28h-9.64v-8.18H23.49v8.18h-9.64v-43.28h6.49s.01.04.02.06l.01.02c3.04 7.19 13.37 7.2 16.41 0 .01-.02.01-.05.03-.08zm-9.67 21.01H23.48v10.1h10.15zm0-14H23.48v10.1h10.15zm1.71-9.01s-.01.06-.02.08c-.15.69-.4 1.33-.73 1.92-.02.03-.03.06-.05.08-2.52 4.53-9.41 4.53-11.92 0a.218.218 0 0 1-.05-.08c-.34-.59-.59-1.23-.74-1.92-.01-.02-.01-.05-.02-.08-.2-.98-.19-2.08.07-3.04 1.74-6.95 11.66-6.96 13.39 0 .26.96.27 2.06.07 3.04zm-2.45-2.52h-3.37v-3.37h-2v3.37h-3.35v2h3.35v3.37h2v-3.37h3.37zm4.44-.52c.19.98.2 2.05.04 3.04h8.9v-3.04zm-17.51 0h-8.94v3.04h8.9c-.16-.99-.15-2.06.04-3.04zm5.66 28.05v6.1h6.15v-6.1zm0-14v6.1h6.15v-6.1z" opacity="1" data-original="url(#a)"></path></g></svg>