<svg xmlns="http://www.w3.org/2000/svg" version="1.1" xmlns:xlink="http://www.w3.org/1999/xlink" width="512" height="512" x="0" y="0" viewBox="0 0 512 512" style="enable-background:new 0 0 512 512" xml:space="preserve" class=""><rect width="512" height="512" rx="102.4" ry="102.4" fill="#bac8d3" shape="rounded"></rect><g transform="matrix(0.5800000000000001,0,0,0.5800000000000001,107.51999999999998,102.51999839782718)"><linearGradient id="a" x1="256" x2="256" y1="477.051" y2="34.949" gradientUnits="userSpaceOnUse"><stop offset="0" stop-color="#ff6100"></stop><stop offset="1" stop-color="#fdb82e"></stop></linearGradient><path fill="url(#a)" d="M114.709 254.917v-65.736a5 5 0 0 0-5-5h-41.22a5 5 0 0 0-5 5v65.736H37.448v-128.19h103.301v79.184h-5.244a5 5 0 0 0-5 5v27.767a5 5 0 0 0 5 5h5.244v11.239h-26.041zm-10 0v-60.736h-31.22v60.736zm36.041-152.615H16v14.425h124.75zm153.172 344.125v-99.749a5 5 0 0 0-5-5h-65.844a5 5 0 0 0-5 5v99.749H150.75v-202.75h210.5v202.749h-67.328zm12.362-137.747a5 5 0 0 0 5-5v-22.004a5 5 0 0 0-5-5H205.716a5 5 0 0 0-5 5v22.004a5 5 0 0 0 5 5zm-78.206 137.747v-94.749h55.844v94.749zm5.856-44.974a5 5 0 0 0 10 0v-4.8a5 5 0 0 0-10 0zM16 477.051h480v-20.625H16zm88.709-30.625v-65.872h-31.22v65.872zm36.041 0V292.683H37.449v153.743H63.49v-70.872a5 5 0 0 1 5-5h41.22a5 5 0 0 1 5 5v70.872h26.041zm0-181.51H27.114v17.767H140.75zm87.328-59.006v-90.665h55.843v90.666h-55.843zm5.856-42.933a5 5 0 0 0 10 0v-4.8a5 5 0 0 0-10 0zm127.315 42.933V65.574H150.75v140.337h67.328v-95.666a5 5 0 0 1 5-5h65.843a5 5 0 0 1 5 5v95.666h67.329zm20.25-170.961H130.5v20.625h251V34.949zm93.052 219.967V126.727H371.249v79.184h5.244a5 5 0 0 1 5 5v27.767a5 5 0 0 1-5 5h-5.244v11.239h26.041v-65.736a5 5 0 0 1 5-5h41.22a5 5 0 0 1 5 5v65.736h26.041zm-36.041 0V194.18h-31.22v60.736zm0 191.51v-65.872h-31.22v65.872zM210.715 298.679h90.568v-12.004h-90.568zm263.836 147.747V292.683H371.249v153.743h26.041v-70.872a5 5 0 0 1 5-5h41.22a5 5 0 0 1 5 5v70.872zM140.506 233.677h230.988V215.91H140.506zm230.744 49.006h113.637v-17.767H371.25zm0-165.957H496v-14.425H371.25z" opacity="1" data-original="url(#a)"></path></g></svg>