<svg xmlns="http://www.w3.org/2000/svg" version="1.1" xmlns:xlink="http://www.w3.org/1999/xlink" width="512" height="512" x="0" y="0" viewBox="0 0 32 32" style="enable-background:new 0 0 512 512" xml:space="preserve" fill-rule="evenodd"><rect width="32" height="32" rx="6.4" ry="6.4" fill="#bac8d3" shape="rounded"></rect><g transform="matrix(0.6499999999999998,0,0,0.6499999999999998,5.600000000000003,5.600070762634278)"><linearGradient id="a" x1="0" x2="1" y1="0" y2="0" gradientTransform="matrix(32 32 -32 32 0 96)" gradientUnits="userSpaceOnUse"><stop offset="0" stop-color="#ae76da"></stop><stop offset="1" stop-color="#251ee5"></stop></linearGradient><path fill="url(#a)" d="M16.55 98.165a1 1 0 0 0-1.1 0c-3.188 2.098-6.745 3.312-10.587 3.844A1 1 0 0 0 4 103c0 8.913 1.103 13.806 3.775 17.225 1.799 2.302 4.321 3.955 7.781 5.671.28.139.608.139.888 0 3.46-1.716 5.982-3.369 7.781-5.671C26.897 116.806 28 111.913 28 103a1 1 0 0 0-.863-.991c-3.842-.532-7.399-1.746-10.587-3.844zm-5.257 15.542 3 3a.999.999 0 0 0 1.555-.177l5-8a1 1 0 0 0-1.696-1.06l-4.334 6.934-2.111-2.111a1 1 0 0 0-1.414 1.414z" transform="translate(0 -96)" opacity="1" data-original="url(#a)"></path></g></svg>