<svg xmlns="http://www.w3.org/2000/svg" version="1.1" xmlns:xlink="http://www.w3.org/1999/xlink" width="512" height="512" x="0" y="0" viewBox="0 0 512 512" style="enable-background:new 0 0 512 512" xml:space="preserve" class=""><rect width="512" height="512" rx="102.4" ry="102.4" fill="#bac8d3" shape="rounded"></rect><g transform="matrix(0.5499999999999999,0,0,0.5499999999999999,115.20540291611107,115.21304969787599)"><linearGradient id="a" x1="256.011" x2="256.011" y1="485.337" y2="26.721" gradientUnits="userSpaceOnUse"><stop offset="0" stop-color="#6c54a3"></stop><stop offset="1" stop-color="#00b1d2"></stop></linearGradient><path fill="url(#a)" fill-rule="evenodd" d="M347.347 386.641a8.823 8.823 0 0 1 0-17.645h26.231a8.823 8.823 0 1 1 0 17.645zm101.905 0a8.823 8.823 0 1 1 0-17.645h26.183a8.823 8.823 0 1 1 0 17.645zm-203.809 0a8.823 8.823 0 0 1 0-17.645h26.231a8.823 8.823 0 0 1 0 17.645zm101.9-67.087a8.823 8.823 0 0 1 0-17.645h26.231a8.823 8.823 0 1 1 0 17.645zm101.905 0a8.823 8.823 0 1 1 0-17.645h26.183a8.823 8.823 0 1 1 0 17.645zm-203.809 0a8.823 8.823 0 0 1 0-17.645h26.231a8.823 8.823 0 0 1 0 17.645zm101.9-67.087a8.823 8.823 0 0 1 0-17.645h26.231a8.823 8.823 0 1 1 0 17.645zm101.905 0a8.823 8.823 0 1 1 0-17.645h26.183a8.823 8.823 0 1 1 0 17.645zm-203.809 0a8.823 8.823 0 0 1 0-17.645h26.231a8.823 8.823 0 0 1 0 17.645zm-1.7-145.685h223.01a12.242 12.242 0 0 1 12.313 12.266v58.359a12.242 12.242 0 0 1-12.313 12.313h-223a12.242 12.242 0 0 1-12.314-12.313v-58.359a12.225 12.225 0 0 1 3.586-8.681c.33-.283.613-.566.943-.8a12.359 12.359 0 0 1 7.785-2.783zm217.679 17.644H249.076v47.65h212.348v-47.65zM198.5 76.352v359.307h295.665A17.88 17.88 0 0 0 512 417.778V94.232a17.879 17.879 0 0 0-17.833-17.88zM48.522 435.659V76.352H17.9A17.877 17.877 0 0 0 .024 94.232v323.546A17.879 17.879 0 0 0 17.9 435.659zm132.334 34.487V41.865a15.219 15.219 0 0 0-15.191-15.144H81.358a15.221 15.221 0 0 0-15.191 15.144v428.281a15.3 15.3 0 0 0 15.191 15.191h84.307a15.207 15.207 0 0 0 10.71-4.482 15.009 15.009 0 0 0 4.481-10.709z" opacity="1" data-original="url(#a)"></path></g></svg>