<svg xmlns="http://www.w3.org/2000/svg" version="1.1" xmlns:xlink="http://www.w3.org/1999/xlink" width="512" height="512" x="0" y="0" viewBox="0 0 512 512" style="enable-background:new 0 0 512 512" xml:space="preserve"><rect width="512" height="512" rx="102.4" ry="102.4" fill="#bac8d3" shape="rounded"></rect><g transform="matrix(0.65,0,0,0.65,89.60002002716064,89.5998785018921)"><linearGradient id="a" x1="174.551" x2="434.127" y1="513.238" y2="63.639" gradientUnits="userSpaceOnUse"><stop offset=".016" stop-color="#e65233"></stop><stop offset="1" stop-color="#f9a82d"></stop></linearGradient><path fill="url(#a)" fill-rule="evenodd" d="m183.345 456.252-46.962 32.536a3.65 3.65 0 0 1-5.075-.92l-69.021-99.6a3.65 3.65 0 0 1 .921-5.075l46.957-32.54a3.645 3.645 0 0 1 5.068.92l69.032 99.607a3.655 3.655 0 0 1-.92 5.072zm265.072-105.3c-6.475-9.88-27.057-16.894-44.579-5.4-5.724 3.753-62.681 40.814-62.862 41.412a31.923 31.923 0 0 1-39.215 21.292L225.332 386.6a6.564 6.564 0 1 1 3.578-12.63l76.43 21.661a18.712 18.712 0 0 0 23.06-12.41 18.536 18.536 0 0 0-12.427-22.974 611.667 611.667 0 0 1-64.2-23.078c-38.88-16.066-40.107-16.565-114.685 22.892l48.212 69.58.477-.713a16.672 16.672 0 0 1 18.923-6.718l90.818 28.136c24.317 7.53 83.755-36.436 119.271-62.7 10.931-8.087 20.378-15.073 27.561-19.785 7.958-5.225 10.001-10.913 6.067-16.906zM150.366 455a6.56 6.56 0 1 0-10.752 7.517l.358.521a6.561 6.561 0 0 0 5.386 2.805 6.492 6.492 0 0 0 3.753-1.19 6.558 6.558 0 0 0 1.616-9.139zm226.006-341.746a5.334 5.334 0 0 0 0-10.667h-94.544a5.334 5.334 0 0 0 0 10.667zm-108.2-75.568c1.693 15.216 10.1 34.683 22.476 51.773h78.17c10.817-15.967 18.717-34.936 21.013-50.332a114.14 114.14 0 0 1-10.639-6.668c-5.508-3.737-11.742-7.972-15.721-8.072-3.462-.054-7.533 3.256-11.851 6.8-5.7 4.686-12.147 9.99-20.514 9.782-7.829-.2-15.418-5.349-22.755-10.329-5.508-3.737-11.748-7.972-15.731-8.076-3.446-.071-7.529 3.26-11.846 6.8-3.745 3.084-7.839 6.442-12.6 8.322zm16.524 142.7a11.589 11.589 0 1 0 11.59-11.589 11.6 11.6 0 0 0-11.586 11.584zm77.214 54.068a11.589 11.589 0 1 0 11.59 11.589 11.6 11.6 0 0 0-11.588-11.594zm-79.431-108.07c-40.131 41.028-71.57 112.29-52.645 145.077 14.142 24.492 53.323 40.322 99.814 40.326 46.421 0 85.552-15.828 99.7-40.326 15.982-27.68-10.565-102.5-50.957-145.194a18.672 18.672 0 0 1-2.021.117zM294.561 258.9l57.707-99.946c4.307-7.467 15.676-.911 11.365 6.56l-57.7 99.952c-4.284 7.4-15.729.986-11.371-6.566zm42.64-12.854a24.711 24.711 0 1 1 24.711 24.706 24.739 24.739 0 0 1-24.712-24.709zm-65.625-65.662a24.712 24.712 0 1 1 24.712 24.712 24.744 24.744 0 0 1-24.712-24.715z" opacity="1" data-original="url(#a)"></path></g></svg>