<svg xmlns="http://www.w3.org/2000/svg" version="1.1" xmlns:xlink="http://www.w3.org/1999/xlink" width="512" height="512" x="0" y="0" viewBox="0 0 32 32" style="enable-background:new 0 0 512 512" xml:space="preserve"><rect width="32" height="32" rx="6.4" ry="6.4" fill="#bac8d3" shape="rounded"></rect><g transform="matrix(0.6199999999999999,0,0,0.6199999999999999,6.08057054758072,6.0799112582206725)"><linearGradient id="a" x1="7.371" x2="24.629" y1="30.946" y2="1.054" gradientUnits="userSpaceOnUse"><stop offset="0" stop-color="#3cacb6"></stop><stop offset="1" stop-color="#8ccead"></stop></linearGradient><path fill="url(#a)" d="M2 5a1 1 0 0 1 1-1h22.7l-.252-.168a1 1 0 0 1 1.11-1.664l3 2A1 1 0 0 1 29 6H3a1 1 0 0 1-1-1zm27 21H3a1 1 0 0 0-.555 1.832l3 2a1 1 0 0 0 1.11-1.664L6.3 28H29a1 1 0 0 0 0-2zm-2.1-15.677a2.992 2.992 0 0 1 1.1 2.328v7.894a2.987 2.987 0 0 1-2.187 2.889 16.579 16.579 0 0 1-3.781.566c-.178 0-.357.008-.536.008a16.507 16.507 0 0 1-5.85-1.072 14.52 14.52 0 0 0-8.058-.649A2.991 2.991 0 0 1 4 19.349v-7.894a2.987 2.987 0 0 1 2.187-2.889 16.494 16.494 0 0 1 10.167.5 14.519 14.519 0 0 0 5.614.934 14.6 14.6 0 0 0 2.444-.287 2.968 2.968 0 0 1 2.488.61zM9 14a1 1 0 0 0-2 0v2a1 1 0 0 0 2 0zm10 2a3 3 0 1 0-3 3 3 3 0 0 0 3-3zm6 0a1 1 0 0 0-2 0v2a1 1 0 0 0 2 0zm-9-1a1 1 0 1 0 1 1 1 1 0 0 0-1-1z" data-name="Layer 2" opacity="1" data-original="url(#a)"></path></g></svg>