<svg xmlns="http://www.w3.org/2000/svg" version="1.1" xmlns:xlink="http://www.w3.org/1999/xlink" width="512" height="512" x="0" y="0" viewBox="0 0 64 64" style="enable-background:new 0 0 512 512" xml:space="preserve"><rect width="64" height="64" rx="12.8" ry="12.8" fill="#bac8d3" shape="rounded"></rect><g transform="matrix(0.6399999999999998,0,0,0.6399999999999998,11.520000000000007,11.519981460571302)"><linearGradient id="a" x1="4" x2="60" y1="32" y2="32" gradientUnits="userSpaceOnUse"><stop offset="0" stop-color="#00c0ff"></stop><stop offset="1" stop-color="#5558ff"></stop></linearGradient><path fill="url(#a)" d="M60 57v2a1.003 1.003 0 0 1-1 1H5a1.003 1.003 0 0 1-1-1v-2a1.003 1.003 0 0 1 1-1h54a1.003 1.003 0 0 1 1 1zM16 27a1.003 1.003 0 0 0-1-1H7a1.003 1.003 0 0 0-1 1v27h10zm10 5h-7v22h7zm9.5 22V32h-7v22zm2.5 0h7V32h-7zm20-27a1.003 1.003 0 0 0-1-1h-8a1.003 1.003 0 0 0-1 1v27h10zm-25-8.95v-5.02c4.113.321 5.323 2.013 9.9 1.97a.996.996 0 0 0 1-1V7a.997.997 0 0 0-1-1 14.167 14.167 0 0 1-5.13-.95A16.06 16.06 0 0 0 32 4a1.003 1.003 0 0 0-1 1v13.05A12.974 12.974 0 0 0 19.05 30h25.91A12.992 12.992 0 0 0 33 18.05z" opacity="1" data-original="url(#a)"></path></g></svg>