<svg xmlns="http://www.w3.org/2000/svg" version="1.1" xmlns:xlink="http://www.w3.org/1999/xlink" width="512" height="512" x="0" y="0" viewBox="0 0 32 32" style="enable-background:new 0 0 512 512" xml:space="preserve" fill-rule="evenodd" class=""><rect width="32" height="32" rx="6.4" ry="6.4" fill="#bac8d3" shape="rounded"></rect><g transform="matrix(0.66,0,0,0.66,5.4399999999999995,5.609998703002928)"><linearGradient id="a" x1="0" x2="1" y1="0" y2="0" gradientTransform="matrix(32 32 -32 32 192 96)" gradientUnits="userSpaceOnUse"><stop offset="0" stop-color="#ae76da"></stop><stop offset="1" stop-color="#251ee5"></stop></linearGradient><path fill="url(#a)" d="M222 104.2c0-.583-.232-1.143-.644-1.556A2.205 2.205 0 0 0 219.8 102h-23.6c-.583 0-1.143.232-1.556.644A2.205 2.205 0 0 0 194 104.2v16.6c0 .583.232 1.143.644 1.556.413.412.973.644 1.556.644h23.6c.583 0 1.143-.232 1.556-.644.412-.413.644-.973.644-1.556zm-21.92 9.023a4.533 4.533 0 0 0-2.08 3.813c0 .595.276 1.127.826 1.544.757.573 2.226.92 3.71.92s2.954-.347 3.711-.92c.549-.417.825-.949.825-1.544a4.531 4.531 0 0 0-2.08-3.813 3.001 3.001 0 1 0-5.456-1.723c0 .641.202 1.235.544 1.723zM210 119h6a1 1 0 0 0 0-2h-6a1 1 0 0 0 0 2zm-4.929-2.05a2.576 2.576 0 0 1-.449.246c-.568.209-1.328.304-2.086.304s-1.517-.095-2.086-.304a2.561 2.561 0 0 1-.448-.246 2.536 2.536 0 0 1 5.069 0zM210 115h4a1 1 0 0 0 0-2h-4a1 1 0 0 0 0 2zm-7.464-4.5a1 1 0 1 1 0 2 1 1 0 0 1 0-2zm7.464.5h7a1 1 0 0 0 0-2h-7a1 1 0 0 0 0 2zm10-5h-24v-1.8c0-.053.021-.104.059-.141a.197.197 0 0 1 .141-.059h23.6c.053 0 .104.021.141.059a.197.197 0 0 1 .059.141z" transform="translate(-192 -96)" opacity="1" data-original="url(#a)" class=""></path></g></svg>