<svg xmlns="http://www.w3.org/2000/svg" version="1.1" xmlns:xlink="http://www.w3.org/1999/xlink" width="512" height="512" x="0" y="0" viewBox="0 0 512 512" style="enable-background:new 0 0 512 512" xml:space="preserve"><rect width="512" height="512" rx="102.4" ry="102.4" fill="#bac8d3" shape="rounded"></rect><g transform="matrix(0.63,0,0,0.63,94.72,94.72)"><linearGradient id="a" x1="256.621" x2="255.364" y1="417.873" y2="90.283" gradientUnits="userSpaceOnUse"><stop offset="0" stop-color="#8786c0"></stop><stop offset="1" stop-color="#f58c80"></stop></linearGradient><path fill="url(#a)" fill-rule="evenodd" d="M512 127.492v46.223H0v-46.223a33.574 33.574 0 0 1 33.524-33.523h444.952A33.574 33.574 0 0 1 512 127.492zm0 62.477v63.492H0v-63.492zm0 79.746v114.793a33.576 33.576 0 0 1-33.524 33.523H33.524A33.576 33.576 0 0 1 0 384.508V269.715zM80.5 361.651h142.224a8.127 8.127 0 1 0 0-16.253H80.5a8.127 8.127 0 1 0 0 16.253z" opacity="1" data-original="url(#a)"></path></g></svg>