<svg xmlns="http://www.w3.org/2000/svg" version="1.1" xmlns:xlink="http://www.w3.org/1999/xlink" width="512" height="512" x="0" y="0" viewBox="0 0 64 64" style="enable-background:new 0 0 512 512" xml:space="preserve" class=""><rect width="64" height="64" rx="12.8" ry="12.8" fill="#bac8d3" shape="rounded"></rect><g transform="matrix(0.7399999999999999,0,0,0.7399999999999999,8.320000991821296,8.319870009422306)"><linearGradient id="a" x1="18.097" x2="45.903" y1="32" y2="32" gradientUnits="userSpaceOnUse"><stop offset="0" stop-color="#00c0ff"></stop><stop offset="1" stop-color="#5558ff"></stop></linearGradient><path fill="url(#a)" d="M45.903 45.807v1.757a6.026 6.026 0 0 1-6.015 6.035H24.121a6.035 6.035 0 0 1-6.024-6.035v-1.757h27.806zm0-23.713v21.782c-3.694-.004-27.806 0-27.806 0V20.665a8.3 8.3 0 0 1 5.6-7.83V5.93h-.91a.966.966 0 0 1 0-1.931h18.428a.966.966 0 0 1 0 1.931h-.902c-.002 1.413.002 5.545 0 6.903a8.29 8.29 0 0 1 5.571 7.329H25.531a.966.966 0 0 0 0 1.93c1.069.003 20.372 0 20.372 0zM25.628 12.41c.42-.059 4.879-.017 5.406-.03.002-.723-.001-2.391 0-3.099h-1.431a.966.966 0 0 1 0-1.931h4.796a.966.966 0 0 1 0 1.931h-1.433c.001.713-.003 2.37 0 3.1.517.016 5.014-.036 5.416.029V5.93H25.628zm-3.119 7.772a.946.946 0 0 0 0 1.892.946.946 0 0 0 0-1.892zm14.956 12.06a1.003 1.003 0 0 0-1.815.25c-.753 2.669-1.986 2.592-2.202 2.414a1.47 1.47 0 0 1 .097-.86 32.911 32.911 0 0 0 1.535-3.716c.782-3.486-2.404-5.89-2.54-5.987a1.007 1.007 0 0 0-1.592.753 8.604 8.604 0 0 1-.367 2.8c-.792 1.826-3.034 3.515-4.171 5.31a4.874 4.874 0 0 0-.715 4.355 6.009 6.009 0 0 0 4.5 4.046 6.86 6.86 0 0 0 7.212-2.404c2.481-2.878.164-6.798.058-6.962zm1.65 23.288h-14.23a12.03 12.03 0 0 1-1.932-.087v1.699A2.864 2.864 0 0 0 25.811 60h12.378a2.864 2.864 0 0 0 2.858-2.858v-1.7a12.035 12.035 0 0 1-1.931.088zM33.11 36.914c-2.023-.477-1.832-2.785-1.4-3.659 1.078-2.763 2.123-3.609 1.043-5.667-.427 2.316-2.455 3.998-3.94 5.735l-.772 1.033c-.93 1.722-.53 2.263-.434 2.597a3.966 3.966 0 0 0 2.983 2.694 4.713 4.713 0 0 0 5.185-1.613 3.032 3.032 0 0 0 .724-2.645 3.42 3.42 0 0 1-3.389 1.525z" opacity="1" data-original="url(#a)"></path></g></svg>