<svg xmlns="http://www.w3.org/2000/svg" version="1.1" xmlns:xlink="http://www.w3.org/1999/xlink" width="512" height="512" x="0" y="0" viewBox="0 0 64 64" style="enable-background:new 0 0 512 512" xml:space="preserve"><rect width="64" height="64" rx="12.8" ry="12.8" fill="#bac8d3" shape="rounded"></rect><g transform="matrix(0.6699999999999999,0,0,0.6699999999999999,10.559875924587256,10.563960027694701)"><linearGradient id="a" x1="4" x2="60" y1="32" y2="32" gradientUnits="userSpaceOnUse"><stop offset="0" stop-color="#00c0ff"></stop><stop offset="1" stop-color="#5558ff"></stop></linearGradient><path fill="url(#a)" d="M59.89 54.47c-1.51-2.86-5.25-7.06-13.47-3.01a26.024 26.024 0 0 1-7.81 2.06A23.988 23.988 0 1 0 28 56h2.87c4.2 0 11.62-.37 16.44-2.75 5.1-2.51 8.74-1.79 10.8 2.15a.996.996 0 0 0 1.35.42 1.009 1.009 0 0 0 .43-1.35zM37.9 16.6a5.5 5.5 0 1 1-5.5 5.5 5.51 5.51 0 0 1 5.5-5.5zM18.1 47.4a5.5 5.5 0 1 1 5.5-5.5 5.51 5.51 0 0 1-5.5 5.5zm0-19.8a5.5 5.5 0 1 1 5.5-5.5 5.51 5.51 0 0 1-5.5 5.5zM28 36a4 4 0 1 1 4-4 3.999 3.999 0 0 1-4 4zm4.4 5.9a5.5 5.5 0 1 1 5.5 5.5 5.51 5.51 0 0 1-5.5-5.5zm9 0a3.5 3.5 0 1 1-3.5-3.5 3.504 3.504 0 0 1 3.5 3.5zm-19.8 0a3.5 3.5 0 1 1-3.5-3.5 3.504 3.504 0 0 1 3.5 3.5zM30 32a2 2 0 1 1-2-2 2.006 2.006 0 0 1 2 2zm-8.4-9.9a3.5 3.5 0 1 1-3.5-3.5 3.504 3.504 0 0 1 3.5 3.5zm12.8 0a3.5 3.5 0 1 1 3.5 3.5 3.504 3.504 0 0 1-3.5-3.5z" opacity="1" data-original="url(#a)"></path></g></svg>