<svg xmlns="http://www.w3.org/2000/svg" version="1.1" xmlns:xlink="http://www.w3.org/1999/xlink" width="512" height="512" x="0" y="0" viewBox="0 0 64 64" style="enable-background:new 0 0 512 512" xml:space="preserve"><rect width="64" height="64" rx="12.8" ry="12.8" fill="#bac8d3" shape="rounded"></rect><g transform="matrix(0.7,0,0,0.7,9.599557685852051,9.600099563598633)"><linearGradient id="a" x1="12.086" x2="51.914" y1="32" y2="32" gradientUnits="userSpaceOnUse"><stop offset="0" stop-color="#ff81ff"></stop><stop offset="1" stop-color="#a93aff"></stop></linearGradient><path fill="url(#a)" d="M18.817 40.72h26.218a4.654 4.654 0 0 0 4.655-4.654V15.292a4.654 4.654 0 0 0-4.655-4.655H18.817a4.66 4.66 0 0 0-4.655 4.655v20.774a4.66 4.66 0 0 0 4.655 4.655zm4.222-3.671a3.242 3.242 0 1 1-1.294-6.215 3.256 3.256 0 0 1 1.294 6.215zm12.375-2.057h-6.977a.918.918 0 0 1 0-1.836h6.977a.918.918 0 0 1 0 1.836zm7.987 2.057a3.242 3.242 0 1 1-1.294-6.215 3.255 3.255 0 0 1 1.294 6.215zM18.302 15.558a.92.92 0 0 1 .918-.918h25.411a.915.915 0 0 1 .918.918v12.118a.915.915 0 0 1-.918.918h-25.41a.92.92 0 0 1-.919-.918zM43.585 8.8H20.11l2.873-3.865A2.226 2.226 0 0 1 24.756 4H38.95a2.21 2.21 0 0 1 1.762.936zm8.234 49.876-7.968-16.12c-1.847.002-4.379-.002-6.224 0l.953 2.677H25.418l.954-2.677h-6.224l-7.969 16.12A.926.926 0 0 0 13.005 60h6.472a.923.923 0 0 0 .863-.605l.358-1.01H43.3c.233.576.372 1.646 1.221 1.615h6.472a.926.926 0 0 0 .826-1.322zM24.757 47.07c0 .003 14.49-.007 14.485.004l1.368 3.81c.014.007-17.235.007-17.222 0zm-3.398 9.478 1.376-3.825h18.529l1.375 3.825zm9.722-29.79H20.138V16.476h10.943zm12.632 0H32.917V16.476h10.796zm-21.968 8.73a1.41 1.41 0 0 1 0-2.818 1.41 1.41 0 0 1 0 2.818zm20.362 0a1.41 1.41 0 0 1 0-2.818 1.41 1.41 0 0 1 0 2.818z" opacity="1" data-original="url(#a)"></path></g></svg>