<svg xmlns="http://www.w3.org/2000/svg" version="1.1" xmlns:xlink="http://www.w3.org/1999/xlink" width="512" height="512" x="0" y="0" viewBox="0 0 100 100" style="enable-background:new 0 0 512 512" xml:space="preserve"><rect width="100" height="100" rx="20" ry="20" fill="#bac8d3" shape="rounded"></rect><g transform="matrix(0.7,0,0,0.7,15,14.999920034408575)"><linearGradient id="a" x1="-.121" x2="99.501" y1="3.74" y2="106.77" gradientUnits="userSpaceOnUse"><stop offset="0" stop-color="#97e0ff"></stop><stop offset="1" stop-color="#1075ff"></stop></linearGradient><path fill="url(#a)" d="M54.444 4.557a5.828 5.828 0 0 0-8.888 0c-9.28 10.924-29.861 37.035-29.861 53.737C15.695 79.857 30.887 97.5 50 97.5s34.305-17.643 34.305-39.206c0-16.702-20.582-42.813-29.861-53.737zM50 87.7c-13.722 0-24.504-13.232-24.504-29.405s9.802 20.583 28.915 28.914c1.47.49-2.94.49-4.411.49z" opacity="1" data-original="url(#a)"></path></g></svg>