<svg xmlns="http://www.w3.org/2000/svg" version="1.1" xmlns:xlink="http://www.w3.org/1999/xlink" width="512" height="512" x="0" y="0" viewBox="0 0 512 512" style="enable-background:new 0 0 512 512" xml:space="preserve" class=""><rect width="512" height="512" rx="102.4" ry="102.4" fill="#bac8d3" shape="rounded"></rect><g transform="matrix(0.53,0,0,0.53,120.32,120.32)"><linearGradient id="a" x1="11.832" x2="500.168" y1="500.168" y2="11.832" gradientUnits="userSpaceOnUse"><stop offset="0" stop-color="#fcc60e"></stop><stop offset="1" stop-color="#e92e29"></stop></linearGradient><path fill="url(#a)" d="M99.197 151.483c30.577-62.352 92.662-102.268 162.025-104.17.062-.004.127-.004.192-.004a6.842 6.842 0 0 1 .182 13.68c-64.263 1.768-121.782 38.749-150.114 96.517a6.843 6.843 0 0 1-9.156 3.132 6.843 6.843 0 0 1-3.129-9.155zM64.075 394.66a6.846 6.846 0 0 0 8.848-3.92c16.051-41.573 22.96-91.537 21.114-152.749-.111-3.777-3.314-6.762-7.045-6.633a6.835 6.835 0 0 0-6.63 7.042c1.786 59.354-4.822 107.573-20.205 147.413a6.844 6.844 0 0 0 3.918 8.847zM331.974 73.874c62.916 25.947 104.776 86.66 106.644 154.673a6.842 6.842 0 0 0 6.835 6.655c.065 0 .129 0 .192-.004a6.841 6.841 0 0 0 6.653-7.025c-2.018-73.412-47.201-138.945-115.107-166.95a6.852 6.852 0 0 0-8.933 3.715 6.838 6.838 0 0 0 3.716 8.936zm113.495 214.362c-3.826-.16-6.96 2.784-7.114 6.561-2.254 55.506-9.682 106.286-22.708 155.248a6.842 6.842 0 0 0 6.617 8.602 6.847 6.847 0 0 0 6.608-5.082c13.285-49.942 20.86-101.693 23.154-158.215a6.844 6.844 0 0 0-6.557-7.114zm-297.429-58.61a6.843 6.843 0 0 0-6.646 7.033c1.929 67.862-6.011 123.84-24.276 171.141a308.374 308.374 0 0 1-10.682 24.45 6.844 6.844 0 0 0 3.136 9.154 6.839 6.839 0 0 0 3.004.695 6.838 6.838 0 0 0 6.149-3.835 322.067 322.067 0 0 0 11.158-25.537c18.929-49.025 27.169-106.744 25.189-176.46-.108-3.782-3.366-6.891-7.032-6.641zm232.043 116.018c-3.735-.459-7.165 2.196-7.63 5.951-4.156 33.63-10.833 66.294-19.846 97.078a6.841 6.841 0 0 0 6.568 8.766c2.96 0 5.69-1.933 6.564-4.918 9.221-31.497 16.049-64.887 20.296-99.252a6.841 6.841 0 0 0-5.952-7.625zM266.365 108.298c-1.154 0-2.31.013-3.468.049-42.423 1.167-81.02 23.519-103.25 59.795a6.844 6.844 0 0 0 2.258 9.412c3.225 1.969 7.437.958 9.408-2.258 19.804-32.321 54.181-52.232 91.958-53.274 61.354-1.604 112.551 46.9 114.315 108.295.661 22.967.483 45.399-.523 66.673a6.838 6.838 0 0 0 6.51 7.158c.109.004.218.009.327.009a6.842 6.842 0 0 0 6.829-6.517c1.025-21.621 1.205-44.406.537-67.715-1.949-67.77-57.644-121.627-124.901-121.627zm-64.296 244.553c-3.715-.704-7.287 1.759-7.978 5.474-4.866 26.174-12.036 51.305-21.31 74.7a6.843 6.843 0 0 0 12.722 5.042c9.597-24.214 17.013-50.201 22.04-77.239a6.84 6.84 0 0 0-5.474-7.977zm62.506-183.471c-17.065.468-32.927 7.528-44.664 19.884-11.76 12.374-17.969 28.593-17.486 45.662.57 20.062.356 39.399-.635 57.479a6.844 6.844 0 0 0 6.457 7.207c3.735.134 7-2.686 7.205-6.459 1.013-18.454 1.232-38.178.653-58.619-.381-13.399 4.494-26.129 13.726-35.849 9.225-9.711 21.697-15.261 35.118-15.63 27.586-.762 50.804 21.23 51.604 49.016 2.209 76.704-5.644 143.493-24.005 204.184a6.842 6.842 0 0 0 13.096 3.964c18.797-62.125 26.84-130.339 24.588-208.54-1.016-35.318-30.497-63.452-65.657-62.299zm1.329 48.829a6.841 6.841 0 0 0-6.644 7.033c2 69.715-2.771 125.386-15.016 175.19a6.846 6.846 0 0 0 5.011 8.281 6.844 6.844 0 0 0 8.276-5.011c12.548-51.038 17.443-107.867 15.408-178.852-.108-3.777-3.342-6.788-7.035-6.641zM502.309 404.5a6.842 6.842 0 0 0-6.842 6.842v67.176c0 9.345-7.604 16.949-16.949 16.949h-67.176a6.842 6.842 0 0 0 0 13.684h67.176c16.891 0 30.633-13.742 30.633-30.633v-67.176a6.843 6.843 0 0 0-6.842-6.842zM478.518 2.85h-67.176a6.842 6.842 0 0 0 0 13.684h67.176c9.345 0 16.949 7.604 16.949 16.949v67.176a6.842 6.842 0 0 0 13.684 0V33.482C509.15 16.591 495.409 2.85 478.518 2.85zM9.691 107.5a6.842 6.842 0 0 0 6.842-6.842V33.482c0-9.345 7.604-16.949 16.949-16.949h67.174a6.842 6.842 0 0 0 0-13.684H33.482C16.591 2.85 2.85 16.591 2.85 33.482v67.176a6.841 6.841 0 0 0 6.841 6.842zm90.965 387.967H33.482c-9.345 0-16.949-7.604-16.949-16.949v-67.176a6.842 6.842 0 0 0-13.684 0v67.176c0 16.891 13.742 30.633 30.633 30.633h67.174a6.842 6.842 0 0 0 0-13.684z" opacity="1" data-original="url(#a)"></path></g></svg>