<svg xmlns="http://www.w3.org/2000/svg" version="1.1" xmlns:xlink="http://www.w3.org/1999/xlink" width="512" height="512" x="0" y="0" viewBox="0 0 512 512" style="enable-background:new 0 0 512 512" xml:space="preserve" class=""><rect width="512" height="512" rx="102.4" ry="102.4" fill="#bac8d3" shape="rounded"></rect><g transform="matrix(0.61,0,0,0.61,99.83981552124024,99.84038829803467)"><linearGradient id="a" x1="77.29" x2="434.71" y1="430.178" y2="72.758" gradientUnits="userSpaceOnUse"><stop offset="0" stop-color="#57ffd9"></stop><stop offset="1" stop-color="#2a6eff"></stop></linearGradient><path fill="url(#a)" d="M124.171 300.237h263.657c15.716 0 28.026-9.726 28.026-22.142V115.886c0-15.258-18.256-19.909-26.052-21.895-102.12-26.01-162.131-26.013-267.547-.015-7.141 1.761-26.111 6.439-26.111 21.909v162.209c.001 12.417 12.312 22.143 28.027 22.143zm-12.026-22.142v-52.52c.011-31.409 30.483-56.961 67.927-56.961 37.449 0 67.916 25.551 67.927 56.961v58.662h-10c.168-.875.238-1.863.166-2.992l-.291-4.521c-1.359-21.11-14.498-38.968-32.879-47.598 6.242-6.328 10.104-15.011 10.104-24.581 0-19.314-15.713-35.027-35.027-35.027s-35.027 15.713-35.027 35.027c0 9.593 3.879 18.294 10.147 24.626-19.374 9.201-32.904 28.77-33.117 51.372-.004.385-.006 1.89-.007 3.578-6.038-.626-9.923-3.827-9.923-6.026zm96.979 6.142c-2.299 0-4.241-1.942-4.241-4.241s1.942-4.241 4.241-4.241h12.605c.076.661.136 1.327.179 1.997l.06.924.14 2.173a9.162 9.162 0 0 0-.028.729c0 .57.06 1.125.173 1.662.036.345.091.676.159.997zm-71.058 0c.001-1.669.003-3.16.007-3.541a40.89 40.89 0 0 1 .358-4.941h12.59c2.299 0 4.242 1.942 4.242 4.241s-1.942 4.241-4.242 4.241zm22.978-79.693c0-10.492 8.536-19.027 19.027-19.027s19.027 8.536 19.027 19.027-8.536 19.027-19.027 19.027-19.027-8.535-19.027-19.027zm19.028 35.028c15.325 0 28.86 8.082 36.172 20.183h-7.12c-.774 0-1.535.053-2.287.138-6.143-8.476-16.121-13.731-26.765-13.731-10.691 0-20.634 5.243-26.769 13.73-.75-.085-1.51-.138-2.282-.138h-6.931c7.372-12.071 20.772-20.182 35.982-20.182zm-12.802 28.405c3.187-3.629 7.841-5.815 12.802-5.815 5.025 0 9.632 2.152 12.809 5.807-2.5 3.367-3.999 7.52-3.999 12.027 0 1.455.162 2.872.455 4.241h-18.53c.293-1.369.455-2.786.455-4.241 0-4.503-1.496-8.653-3.992-12.019zm232.584 10.118c0 2.445-4.796 6.142-12.026 6.142H263.999v-58.646c0-31.417 30.472-56.977 67.928-56.977 37.444 0 67.917 25.552 67.927 56.961zm0-162.209v66.923c-15.269-18.277-40.023-30.194-67.927-30.194-27.907 0-52.661 11.916-67.928 30.191V90.405c37.181.688 74.579 7.05 121.854 19.091 13.841 3.526 14.001 6.361 14.001 6.39zm-287.709 0c0-.029.159-2.976 13.942-6.375 47.784-11.785 85.406-18.131 121.912-19.05v92.344c-15.268-18.275-40.021-30.19-67.927-30.19-27.904 0-52.659 11.917-67.927 30.194zm-5.209 238.645c6.935 6.217 15.878 8.021 26.208 8.021 6.732 0 14.054-.766 21.792-1.576 5.053-.529 10.277-1.076 15.57-1.427a8.001 8.001 0 0 0 7.039-5.391c2.206-6.44.702-13.108-4.235-18.775-13.313-15.282-53.474-23.145-70.693-19.793a8.001 8.001 0 0 0-6.471 7.891c.068 14.446 3.598 24.602 10.79 31.05zm52.807-10.131c-2.189.214-4.346.44-6.474.663-15.821 1.656-29.484 3.086-35.653-2.445-2.566-2.3-4.238-6.266-4.999-11.83 14.448.135 38.094 5.698 47.126 13.612zm249.641-28.81c-17.216-3.351-57.38 4.511-70.693 19.793-4.937 5.667-6.441 12.334-4.235 18.775a8.001 8.001 0 0 0 7.039 5.391c5.292.351 10.517.898 15.57 1.427 7.739.81 15.059 1.576 21.792 1.576 10.328 0 19.274-1.804 26.208-8.021 7.192-6.448 10.722-16.604 10.791-31.05a8.003 8.003 0 0 0-6.472-7.891zm-15.001 27.028c-6.17 5.531-19.833 4.101-35.654 2.445a924.165 924.165 0 0 0-6.473-.663c9.033-7.915 32.678-13.479 47.125-13.612-.759 5.565-2.432 9.53-4.998 11.83zm105.505-190.434h-7.992v-18.926a8 8 0 0 0-8-8h-42.725V102.9c0-10.229-5.047-23.916-29.094-31.036C360.311 56.533 307.798 48.76 256 48.76S151.689 56.533 99.922 71.864l-1.386.409C86.843 75.71 70.828 80.417 70.828 102.9v22.358H28.104a8 8 0 0 0-8 8v18.926h-7.992C5.985 152.184 1 157.168 1 163.296v90.599c0 6.127 4.985 11.113 11.112 11.113h32.505c6.127 0 11.112-4.985 11.112-11.113v-90.599c0-6.127-4.985-11.112-11.112-11.112h-8.513v-10.926h34.724v238.399a7.993 7.993 0 0 0-4.6 7.234v13.602c0 11.911 9.69 21.601 21.601 21.601h11.968v23.148c0 9.925 8.075 18 18 18h28.146c9.925 0 18-8.075 18-18v-23.148h184.113v23.148c0 9.925 8.075 18 18 18h28.146c9.925 0 18-8.075 18-18v-23.148h11.967c11.911 0 21.601-9.69 21.601-21.601V386.89a7.993 7.993 0 0 0-4.6-7.234V141.257h34.725v10.926h-8.513c-6.127 0-11.113 4.985-11.113 11.112v90.599c0 6.127 4.985 11.113 11.113 11.113h32.505c6.127 0 11.112-4.985 11.112-11.113v-90.599c.001-6.127-4.984-11.111-11.111-11.111zM39.729 249.008H17v-80.824h22.729zm47.1-146.109c0-10.031 3.898-11.655 16.219-15.277l1.417-.418c100.553-29.777 202.52-29.777 303.069 0 17.637 5.222 17.637 13.104 17.637 15.694v275.99H314.367v-3.517a8 8 0 0 0-8-8H205.632a8 8 0 0 0-8 8v3.517H86.829zm126.803 280.474h84.735v22.72h-84.735zM82.229 400.492v-5.602h115.404v11.203H87.83a5.607 5.607 0 0 1-5.601-5.601zm65.714 44.749c0 1.084-.916 2-2 2h-28.146c-1.084 0-2-.916-2-2v-23.148h32.146zm248.26 0c0 1.084-.916 2-2 2h-28.146c-1.084 0-2-.916-2-2v-23.148h32.146zm33.568-44.749a5.608 5.608 0 0 1-5.601 5.601H314.367V394.89h115.404zM495 249.008h-22.73v-80.824H495zM305.731 315.46c-11.58 0-21 9.42-21 21s9.42 21 21 21 21-9.42 21-21-9.42-21-21-21zm0 26c-2.757 0-5-2.243-5-5s2.243-5 5-5 5 2.243 5 5-2.243 5-5 5zm-51.08-26c-11.58 0-21 9.42-21 21s9.42 21 21 21 21-9.42 21-21-9.421-21-21-21zm0 26c-2.757 0-5-2.243-5-5s2.243-5 5-5 5 2.243 5 5-2.243 5-5 5zm-51.081-26c-11.58 0-21 9.42-21 21s9.42 21 21 21 21-9.42 21-21-9.42-21-21-21zm0 26c-2.757 0-5-2.243-5-5s2.243-5 5-5 5 2.243 5 5-2.243 5-5 5z" opacity="1" data-original="url(#a)"></path></g></svg>