<svg xmlns="http://www.w3.org/2000/svg" version="1.1" xmlns:xlink="http://www.w3.org/1999/xlink" width="512" height="512" x="0" y="0" viewBox="0 0 64 64" style="enable-background:new 0 0 512 512" xml:space="preserve"><rect width="64" height="64" rx="12.8" ry="12.8" fill="#bac8d3" shape="rounded"></rect><g transform="matrix(0.62,0,0,0.62,12.16,12.162444725036622)"><linearGradient id="a" x1="4" x2="60" y1="32" y2="32" gradientUnits="userSpaceOnUse"><stop offset="0" stop-color="#ffa68d"></stop><stop offset="1" stop-color="#fd3a84"></stop></linearGradient><path fill="url(#a)" d="M56 13.48H35.613l5.195-7.126a1 1 0 0 0-1.616-1.177l-6.054 8.303h-2.276l-6.054-8.303a1 1 0 0 0-1.616 1.178l5.195 7.125H8a4.004 4.004 0 0 0-4 4v32.572a3.996 3.996 0 0 0 3 3.858v2.91a2.418 2.418 0 0 0 2.415 2.414h5.17A2.418 2.418 0 0 0 17 56.82v-2.767h30v2.767a2.417 2.417 0 0 0 2.415 2.415h5.17A2.417 2.417 0 0 0 57 56.82v-2.91a3.996 3.996 0 0 0 3-3.857V17.48a4.004 4.004 0 0 0-4-4zM15 56.82a.416.416 0 0 1-.415.414h-5.17A.416.416 0 0 1 9 56.82v-2.767h6zm39.585.414h-5.17A.416.416 0 0 1 49 56.82v-2.767h6v2.767a.416.416 0 0 1-.415.415zM58 50.052a2.003 2.003 0 0 1-2 2H8a2.002 2.002 0 0 1-2-2V17.48a2.002 2.002 0 0 1 2-2h48a2.003 2.003 0 0 1 2 2zM41.49 18.56H13.516a5.006 5.006 0 0 0-5 5v20.41a5.006 5.006 0 0 0 5 5h27.972a5.006 5.006 0 0 0 5-5v-20.41a5.006 5.006 0 0 0-5-5zm3 25.41a3.003 3.003 0 0 1-3 3H13.516a3.003 3.003 0 0 1-3-3v-20.41a3.003 3.003 0 0 1 3-3h27.972a3.003 3.003 0 0 1 3 3zM52.244 21.7a3.5 3.5 0 0 0 0 7 3.5 3.5 0 0 0 0-7zm0 5a1.5 1.5 0 0 1 0-3 1.5 1.5 0 0 1 0 3zm0 3.782a3.5 3.5 0 0 0 0 7 3.5 3.5 0 0 0 0-7zm0 5a1.5 1.5 0 0 1 0-3 1.5 1.5 0 0 1 0 3zm2.5 6.176h-5a1 1 0 0 1 0-2h5a1 1 0 0 1 0 2zm0 4.175h-5a1 1 0 0 1 0-2h5a1 1 0 0 1 0 2zM38.24 28.315H22.233l9.671-3.66a1 1 0 0 0-.708-1.872l-14.68 5.558a2.757 2.757 0 0 0-2.513 2.737V42.05a2.766 2.766 0 0 0 2.763 2.762H38.24a2.766 2.766 0 0 0 2.763-2.762V31.078a2.766 2.766 0 0 0-2.763-2.763zm.763 13.735a.763.763 0 0 1-.763.763H16.766a.764.764 0 0 1-.763-.763V31.078a.764.764 0 0 1 .763-.763H38.24a.763.763 0 0 1 .763.763zm-5.762-9.37a3.884 3.884 0 0 0 0 7.768 3.884 3.884 0 0 0 0-7.768zm0 5.768a1.884 1.884 0 0 1 0-3.768 1.884 1.884 0 0 1 0 3.768zm-6.469-3.159H18.88a1 1 0 0 1 0-2h7.892a1 1 0 0 1 0 2zm-2.983 4.28H18.88a1 1 0 0 1 0-2h4.91a1 1 0 0 1 0 2z" opacity="1" data-original="url(#a)"></path></g></svg>