<svg xmlns="http://www.w3.org/2000/svg" version="1.1" xmlns:xlink="http://www.w3.org/1999/xlink" width="512" height="512" x="0" y="0" viewBox="0 0 512 512" style="enable-background:new 0 0 512 512" xml:space="preserve" class=""><rect width="512" height="512" rx="102.4" ry="102.4" fill="#bac8d3" shape="rounded"></rect><g transform="matrix(0.6,0,0,0.6,102.40184722393755,102.40217590332031)"><linearGradient id="a" x2="512" y1="256" y2="256" gradientUnits="userSpaceOnUse"><stop offset="0" stop-color="#55d6ff"></stop><stop offset="1" stop-color="#ce55ff"></stop></linearGradient><path fill="url(#a)" d="m489.286 153.362-3.873-1.038v-25.2a30.675 30.675 0 0 0-30.641-30.64H277L105.289 50.471a30.671 30.671 0 0 0-37.526 21.665l-6.524 24.345H57.23a30.675 30.675 0 0 0-30.641 30.64V225.8L1.05 321.112a30.709 30.709 0 0 0 21.665 37.527l3.874 1.038v25.2A30.675 30.675 0 0 0 57.23 415.52H235l171.712 46.01a30.629 30.629 0 0 0 37.528-21.666l6.522-24.344h4.01a30.675 30.675 0 0 0 30.641-30.64V286.2l25.54-95.315a30.676 30.676 0 0 0-21.667-37.523zM41.1 180.967h429.8V229.3H41.1zM81.779 75.891a16.147 16.147 0 0 1 19.755-11.4l119.406 31.99H76.262zM57.23 110.99h397.542a16.15 16.15 0 0 1 16.128 16.131v39.337H41.1v-39.337a16.15 16.15 0 0 1 16.13-16.131zM26.47 344.623a16.2 16.2 0 0 1-11.4-19.755l11.523-43.006v62.793zm403.754 91.486a16.15 16.15 0 0 1-19.757 11.406l-119.406-32h144.68zm24.548-35.1H57.23A16.149 16.149 0 0 1 41.1 384.88V243.812h429.8V384.88a16.149 16.149 0 0 1-16.128 16.13zm42.165-213.876-11.524 43.008v-62.8l.118.032a16.149 16.149 0 0 1 11.406 19.761zM90.154 290.638a7.255 7.255 0 0 1 7.255-7.255h83.228a7.255 7.255 0 0 1 0 14.51H97.409a7.255 7.255 0 0 1-7.255-7.255zm167.629 52.285a7.255 7.255 0 0 1-7.255 7.255H97.409a7.255 7.255 0 0 1 0-14.51h153.119a7.255 7.255 0 0 1 7.255 7.255zm162.39-70.354h-65.238a21.117 21.117 0 0 0-21.093 21.093V324.3a21.117 21.117 0 0 0 21.093 21.1h65.238a21.116 21.116 0 0 0 21.092-21.1v-30.638a21.117 21.117 0 0 0-21.092-21.093zm6.582 51.735a6.59 6.59 0 0 1-6.582 6.583h-65.238a6.59 6.59 0 0 1-6.583-6.583v-30.642a6.59 6.59 0 0 1 6.583-6.583h65.238a6.59 6.59 0 0 1 6.582 6.583z" opacity="1" data-original="url(#a)"></path></g></svg>