<svg xmlns="http://www.w3.org/2000/svg" version="1.1" xmlns:xlink="http://www.w3.org/1999/xlink" width="512" height="512" x="0" y="0" viewBox="0 0 64 64" style="enable-background:new 0 0 512 512" xml:space="preserve" class=""><rect width="64" height="64" rx="12.8" ry="12.8" fill="#bac8d3" shape="rounded"></rect><g transform="matrix(0.5599999999999999,0,0,0.5599999999999999,14.300000839233398,14.0800008392334)"><linearGradient id="a" x1="32.5" x2="32.5" y1="64" y2="0" gradientUnits="userSpaceOnUse"><stop offset=".001" stop-color="#ffd255"></stop><stop offset=".999" stop-color="#ff78dc"></stop></linearGradient><path fill="url(#a)" d="M52.41 22.89c-.442.333-.531.96-.2 1.401 5.01 6.664 5.733 10.291 5.013 11.012-.448.449-2.373.502-6.747-2.12-3.943-2.365-8.577-6.132-13.05-10.61-4.477-4.472-8.244-9.106-10.609-13.049-2.624-4.375-2.567-6.3-2.12-6.747.72-.72 4.336.011 11 5.028.436.32.894.672 1.37 1.048l-4.33 1.182a1 1 0 0 0 .527 1.93l17.293-4.72c.088.173.17.348.276.508l-5.639 5.639c-.49-.48-.979-.951-1.456-1.388-.39-.381-.771-.73-1.16-1.08a1 1 0 1 0-1.335 1.491c.37.331.73.661 1.121 1.042.472.433.944.887 1.416 1.349l-3.487 3.487a1 1 0 1 0 1.414 1.414l10.54-10.54c.16.106.335.188.507.276l-2.527 9.26a82.465 82.465 0 0 0-1.152-1.29c-.276-.31-.51-.559-1.05-1.14a.997.997 0 0 0-1.412-.058.998.998 0 0 0-.058 1.412c.653.707.783.844 1.036 1.127a86.506 86.506 0 0 1 2 2.28l-1.556 5.702a1 1 0 0 0 1.93.528l4.72-17.296c.106.007.207.032.315.032 2.757 0 5-2.243 5-5s-2.243-5-5-5-5 2.243-5 5c0 .108.025.209.032.315L39.438 8.206a60.464 60.464 0 0 0-2.546-2.005C32.962 3.243 25.97-1.32 23.283 1.363c-8.031 8.032-9.438 20.21-4.235 29.702a6.91 6.91 0 0 0-1.977 3.982C11.991 35.517 8 39.8 8 45v7a1 1 0 0 0-1 1v9H6a1 1 0 1 0 0 2h32a1 1 0 1 0 0-2h-1v-9a1 1 0 0 0-1-1h-4.33l-4.111-9.982c.496-.295.96-.649 1.376-1.066a25.019 25.019 0 0 0 12.025 3.075c6.401 0 12.804-2.436 17.677-7.31 2.69-2.69-1.87-9.693-4.827-13.627a1.002 1.002 0 0 0-1.4-.2zM55 2c1.654 0 3 1.346 3 3s-1.346 3-3 3-3-1.346-3-3 1.346-3 3-3zM10 45c0-4.103 3.106-7.49 7.088-7.944.105.685.307 1.336.596 1.94l-3.547 8.614v.001L12.33 52H10zm25 17H9v-8h26zM14.493 52l1.235-3h12.543l1.236 3H14.493zm12.954-5H16.552l2.495-6.06A6.978 6.978 0 0 0 24 43c.586 0 1.158-.078 1.71-.216zm-1.536-6.387c-.004.001-.008 0-.012.002l-.01.008A4.969 4.969 0 0 1 24 41c-2.757 0-5-2.243-5-5 0-1.167.4-2.268 1.122-3.148a25.017 25.017 0 0 0 7.026 7.026c-.375.308-.793.55-1.237.735zm-1.214-5.31c-8.223-8.224-8.882-21.165-2.022-30.173.348 1.483 1.145 3.285 2.428 5.424 2.446 4.078 6.32 8.85 10.91 13.433 4.584 4.59 9.355 8.464 13.433 10.91 2.13 1.277 3.934 2.086 5.414 2.436-9.008 6.851-21.943 6.19-30.163-2.03zM19 57a1 1 0 0 1-1 1h-6a1 1 0 1 1 0-2h6a1 1 0 0 1 1 1zm6 0a1 1 0 0 1-1 1h-2a1 1 0 1 1 0-2h2a1 1 0 0 1 1 1zm14-19a1 1 0 0 1-1 1h-2a1 1 0 1 1 0-2h2a1 1 0 0 1 1 1zm-4-4a1 1 0 0 1-1 1h-2a1 1 0 1 1 0-2h2a1 1 0 0 1 1 1z" opacity="1" data-original="url(#a)"></path></g></svg>