<svg xmlns="http://www.w3.org/2000/svg" version="1.1" xmlns:xlink="http://www.w3.org/1999/xlink" width="512" height="512" x="0" y="0" viewBox="0 0 512 512" style="enable-background:new 0 0 512 512" xml:space="preserve"><rect width="512" height="512" rx="102.4" ry="102.4" fill="#bac8d3" shape="rounded"></rect><g transform="matrix(0.6,0,0,0.6,102.39644241333008,102.39957427978516)"><linearGradient id="a" x1="16.081" x2="495.919" y1="256" y2="256" gradientUnits="userSpaceOnUse"><stop offset=".016" stop-color="#e65233"></stop><stop offset="1" stop-color="#f9a82d"></stop></linearGradient><path fill="url(#a)" fill-rule="evenodd" d="m416.21 167.636-89.57 28.711a5.447 5.447 0 0 1-3.358 0l-94.128-30.172v45.4h166.473a5.5 5.5 0 0 1 0 10.99H229.154v5.734c0 6.031 4.546 11.539 10.783 11.539h165.49c6.237 0 10.783-5.508 10.783-11.539zM164.427 415.412V460.5l13.762-16.836a5.5 5.5 0 0 1 8.558-.07l13.819 16.9v-45.082zm205.545-10.99H102.91a5.495 5.495 0 0 0 0 10.99h50.527v21.613h-44.015a30.747 30.747 0 0 1-20.991-8.1 25.467 25.467 0 0 1 0-38.026 30.749 30.749 0 0 1 20.992-8.1h283.552v54.218h-181.42v-21.605h158.417a5.495 5.495 0 1 0 0-10.99zM49.73 159.163l-20.2 18.9a7.62 7.62 0 0 0-2.433 4.62 4.115 4.115 0 0 0 .886 3.317l104.311 111.517 29.773-27.849L57.756 158.152a4.106 4.106 0 0 0-3.255-1.116 7.62 7.62 0 0 0-4.771 2.127zm93.591 143.012 23.067-21.575 4.979 27.9-28.046-6.327zm-12.487 8.414 45.984 10.374a5.492 5.492 0 0 0 6.571-6.443c-2.574-16.455-4.894-29.391-8.229-45.689a5.445 5.445 0 0 0-1.593-2.875l-93.66-100.129v-95.6a27.438 27.438 0 0 1 9-20.084 32.431 32.431 0 0 1 22.144-8.543h270.24a11.715 11.715 0 0 1 11.684 11.684v47.8L326.65 79.822a5.447 5.447 0 0 0-3.358 0l-165.454 53.033a5.486 5.486 0 0 0-.038 10.445l60.365 19.35v65.645a22.859 22.859 0 0 0 6.305 15.805 21.353 21.353 0 0 0 15.467 6.721h153.038v120.996H109.422A41.666 41.666 0 0 0 79.907 383.9V257.517l47.9 51.208a5.457 5.457 0 0 0 3.028 1.864zm340.815-106.216-6.019-6.019-6.019 6.019 6.019 6.019zm-.524-54.34v38.277l12.175 12.178a5.5 5.5 0 0 1 0 7.77l-13.789 13.789a5.5 5.5 0 0 1-7.77 0l-13.788-13.789a5.494 5.494 0 0 1 0-7.77l12.178-12.178v-34.754L427.2 164.113v64.181a22.857 22.857 0 0 1-6.306 15.808 21.353 21.353 0 0 1-15.467 6.721h-1.462v191.7a5.5 5.5 0 0 1-5.495 5.5H211.555V475.9a5.5 5.5 0 0 1-9.879 3.313L182.5 455.746l-19.315 23.627a5.5 5.5 0 0 1-9.741-3.477v-27.881h-44.022a41.727 41.727 0 0 1-28.461-11.058 36.89 36.89 0 0 1-12.044-27.04V245.768L20 193.471a14.886 14.886 0 0 1-3.807-12.036 18.629 18.629 0 0 1 5.867-11.36l20.2-18.9a18.628 18.628 0 0 1 11.726-5.089 14.888 14.888 0 0 1 11.755 4.593l3.176 3.4V70.225A38.351 38.351 0 0 1 81.44 42.113a43.411 43.411 0 0 1 29.611-11.5h270.24a22.711 22.711 0 0 1 22.674 22.674v51.322l88.168 28.262a5.486 5.486 0 0 1-.04 10.444l-20.968 6.722zm1.388-11.95-147.547 47.3-147.547-47.3 147.547-47.3z" opacity="1" data-original="url(#a)"></path></g></svg>