<svg xmlns="http://www.w3.org/2000/svg" version="1.1" xmlns:xlink="http://www.w3.org/1999/xlink" width="512" height="512" x="0" y="0" viewBox="0 0 491.5 491.5" style="enable-background:new 0 0 512 512" xml:space="preserve"><rect width="491.5" height="491.5" rx="98.3" ry="98.3" fill="#bac8d3" shape="rounded"></rect><g transform="matrix(0.6499999999999998,0,0,0.6499999999999998,76.01711626052861,96.02237873077394)"><linearGradient id="a" x1="245.76" x2="245.76" y1="25.925" y2="465.595" gradientUnits="userSpaceOnUse"><stop offset="0" stop-color="#f704fe"></stop><stop offset="1" stop-color="#24bce3"></stop></linearGradient><path fill="url(#a)" d="M56.9 274.8c-.4 0-.5.1-.8.3l-20.3 20.3c-.3.3-.4.6-.3 1s.3.7.7.8l108.1 44c2.7 1.1 4.8 3.2 5.9 5.9l44 108.1c.2.4.4.6.8.7s.7 0 1-.3l20.3-20.3c.2-.3.3-.4.3-.8l-.1-101.5c0-1.3.5-2.6 1.5-3.5l83-79.6c1.1-1.1 2.8-1.6 4.3-1.2 1.5.3 2.8 1.4 3.4 2.8l77.6 184.6 37.6-37.6L356.1 201c-.6-1.8-.1-3.7 1.2-5l73-69.9c1.6-1.7 39.6-42.9 20.3-83.1-.4-.9-1-1.5-1.9-1.9-40.3-19.3-81.4 18.6-83.1 20.3l-69.9 73c-1.3 1.4-3.3 1.8-5 1.2L93 67.5l-37.7 37.7L240 182.8c1.4.6 2.5 1.9 2.8 3.5.3 1.5-.2 3.2-1.2 4.3l-79.6 83c-.9.9-2.2 1.5-3.5 1.5zm138.5 190.8c-.7 0-1.5-.1-2.2-.2-3.6-.7-6.4-3.1-7.8-6.5l-44-108.2c-.1-.3-.3-.5-.6-.6l-108.1-44c-3.4-1.4-5.7-4.2-6.5-7.8-.7-3.6.3-7.1 2.9-9.7l20.3-20.3c2.1-2 4.7-3.1 7.6-3.1l99.5.2 73.3-76.5-184.7-77.6c-1.5-.6-2.5-1.9-2.9-3.5-.3-1.6.2-3.2 1.3-4.3l44.8-44.8c1.3-1.3 3.2-1.8 5-1.2l197.4 67.9 67.9-70.8c.1 0 .1-.1.1-.1.5-.5 11.8-11.3 28.8-19.5 23.1-11.1 45.6-12 65.2-2.6 2.9 1.4 5.1 3.5 6.4 6.4 9.4 19.6 8.5 42.1-2.6 65.2-8.2 17.1-19 28.4-19.5 28.9l-.1.1-70.8 67.9L434 398.2c.6 1.7.1 3.7-1.1 5L388.1 448c-1.1 1.1-2.8 1.6-4.3 1.3-1.6-.3-2.9-1.4-3.5-2.9l-77.7-184.7-76.5 73.3.2 99.5c0 2.9-1.1 5.5-3.1 7.6l-20.3 20.3c-2.1 2.1-4.7 3.2-7.5 3.2zm238.2-331.3c-1.2 0-2.5-.5-3.4-1.4l-71.6-71.6c-1.9-1.9-1.9-4.9 0-6.8s4.9-1.9 6.8 0l71.6 71.6c1.9 1.9 1.9 4.9 0 6.8-.9.9-2.1 1.4-3.4 1.4zm-44.2 153.6c-1.2 0-2.5-.5-3.4-1.4-1.9-1.9-1.9-4.9 0-6.8l27-27c.9-.9 1.2-1.8 1.2-3v-15.1c0-2.3-1.9-4.2-4.2-4.2h-15.1c-1.2 0-2.1.4-3 1.2L378.5 245c-1.9 1.9-4.9 1.9-6.8 0s-1.9-4.9 0-6.8l13.4-13.4c2.6-2.6 6-4 9.8-4H410c7.6 0 13.8 6.2 13.8 13.8v15.1c0 3.7-1.4 7.1-4 9.8l-27 27c-1 .9-2.2 1.4-3.4 1.4zm27.5 79.9c-1.2 0-2.5-.5-3.4-1.4-1.9-1.9-1.9-4.9 0-6.8l27.2-27.2c.9-.8 1.2-1.8 1.2-3v-15.1c0-2.3-1.9-4.2-4.2-4.2h-15.1c-1.2 0-2.1.4-3 1.2L406 325c-1.9 1.9-4.9 1.9-6.8 0s-1.9-4.9 0-6.8l13.6-13.6c2.6-2.6 6-4 9.8-4h15.1c7.6 0 13.8 6.2 13.8 13.8v15.1c0 3.7-1.4 7.1-4 9.8l-27.2 27.2c-1 .9-2.2 1.3-3.4 1.3zm-167-246.6c-1.2 0-2.5-.5-3.4-1.4-1.9-1.9-1.9-4.9 0-6.8l13.4-13.4c.9-.8 1.2-1.8 1.2-3V81.5c0-2.3-1.9-4.2-4.2-4.2h-15.1c-1.2 0-2.1.4-3 1.2l-27 27c-1.9 1.9-4.9 1.9-6.8 0s-1.9-4.9 0-6.8l27-27c2.6-2.6 6-4 9.8-4h15.1c7.6 0 13.8 6.2 13.8 13.8v15.1c0 3.7-1.4 7.1-4 9.8l-13.4 13.4c-1 .9-2.2 1.4-3.4 1.4zm-80-27.5c-1.2 0-2.5-.5-3.4-1.4-1.9-1.9-1.9-4.9 0-6.8l13.9-13.9c.7-.7 1-1.2 1-2.7V53.8c0-2.3-1.9-4.2-4.2-4.2h-15.1c-1.2 0-2.1.4-3 1.2L131.9 78c-1.9 1.9-4.9 1.9-6.8 0s-1.9-4.9 0-6.8L152.3 44c2.7-2.6 6-4 9.8-4h15.1c7.6 0 13.8 6.2 13.8 13.8v15.1c0 3.9-1.2 6.9-3.8 9.5l-13.9 13.9c-.9.9-2.1 1.4-3.4 1.4zm51.4 244.1c-1.2 0-2.5-.5-3.4-1.4l-62.8-62.8c-1.9-1.9-1.9-4.9 0-6.8s4.9-1.9 6.8 0l62.8 62.8c1.9 1.9 1.9 4.9 0 6.8-1 .9-2.2 1.4-3.4 1.4z" opacity="1" data-original="url(#a)"></path></g></svg>