<svg xmlns="http://www.w3.org/2000/svg" version="1.1" xmlns:xlink="http://www.w3.org/1999/xlink" width="512" height="512" x="0" y="0" viewBox="0 0 64 64" style="enable-background:new 0 0 512 512" xml:space="preserve"><rect width="64" height="64" rx="12.8" ry="12.8" fill="#bac8d3" shape="rounded"></rect><g transform="matrix(0.7,0,0,0.7,9.600450325012208,9.60028238296509)"><linearGradient id="a" x1="2.002" x2="62" y1="32.001" y2="32.001" gradientUnits="userSpaceOnUse"><stop offset="0" stop-color="#00c0ff"></stop><stop offset="1" stop-color="#5558ff"></stop></linearGradient><path fill="url(#a)" d="M58.121 26.047H44.252l-27.58-14.569a4.005 4.005 0 0 0-5.398 1.67L2.459 29.897A4.012 4.012 0 0 0 4.137 35.3l6.462 3.41v10.394a3.883 3.883 0 0 0 3.879 3.878H58.12A3.883 3.883 0 0 0 62 49.104V29.926a3.884 3.884 0 0 0-3.879-3.88zM60 29.926v8.589h-9.597c1.05-.642 1.928-1.444 2.234-2.426.758-1.91-1.804-4.739-3.779-4.115-1.145.273-2.1 1.346-2.856 2.593v-6.52h12.12A1.88 1.88 0 0 1 60 29.926zm-15.998-1.88v6.521c-.755-1.247-1.71-2.32-2.857-2.593-1.975-.638-4.544 2.24-3.778 4.115.306.982 1.183 1.784 2.234 2.426H12.599v-8.59a1.88 1.88 0 0 1 1.879-1.878h29.524zm2.556 9.99c.841-2 2.308-5.37 3.737-3.615 1.641 1.602-1.723 2.877-3.737 3.615zm-7.282-2.542c-.034-.112-.14-.451.433-1.073 1.428-1.754 2.896 1.613 3.737 3.616-1.888-.632-3.876-1.603-4.17-2.543zM5.07 33.53a2.009 2.009 0 0 1-.84-2.705l8.814-16.745a1.999 1.999 0 0 1 2.696-.833L39.97 26.047H14.478a3.884 3.884 0 0 0-3.88 3.879v6.523L5.07 33.531zm7.53 15.573v-8.59h29.258c-.87.699-3.18 4.341-.93 4.794a1 1 0 0 0 1.056-.94c.078-1.326 1.107-2.385 2.019-3.07v9.684H14.478a1.88 1.88 0 0 1-1.88-1.878zm45.522 1.878h-12.12V41.3c.913.685 1.941 1.743 2.02 3.07a1 1 0 0 0 1.056.939c2.244-.456-.05-4.08-.93-4.793H60v8.589a1.88 1.88 0 0 1-1.879 1.878zm-33.838-5.911h-8.112c-1.316-.023-1.312-1.979 0-2h8.112c1.316.022 1.312 1.978 0 2zm-3.758 3.466h-4.354a1 1 0 0 1 0-2h4.354c1.316.022 1.314 1.978 0 2z" opacity="1" data-original="url(#a)"></path></g></svg>