<svg xmlns="http://www.w3.org/2000/svg" version="1.1" xmlns:xlink="http://www.w3.org/1999/xlink" width="512" height="512" x="0" y="0" viewBox="0 0 64 64" style="enable-background:new 0 0 512 512" xml:space="preserve"><rect width="64" height="64" rx="12.8" ry="12.8" fill="#bac8d3" shape="rounded"></rect><g transform="matrix(0.7,0,0,0.7,9.600008010864258,9.599965381622315)"><linearGradient id="a" x1="6.101" x2="57.899" y1="32" y2="32" gradientUnits="userSpaceOnUse"><stop offset="0" stop-color="#ffde00"></stop><stop offset="1" stop-color="#fd5900"></stop></linearGradient><path fill="url(#a)" d="M57.072 14.441a1.002 1.002 0 0 0-.61-.733l-24.09-9.637a1.007 1.007 0 0 0-.744 0l-24.09 9.637a1.002 1.002 0 0 0-.61.733C2.937 33.194 13.735 52.925 32 60c18.266-7.074 29.063-26.808 25.072-45.559zM32 57.9C15.217 50.78 5.34 32.867 8.785 15.363L31.993 6.08c-.426-.19 22.738 9.1 23.216 9.28-.01-.032.153.65.185 1.008C58.282 33.592 48.452 50.906 32 57.9zM19 32a13 13 0 0 0 26 0c-.711-17.241-25.286-17.246-26 0zm2 0a11 11 0 0 1 22 0c-.602 14.589-21.396 14.593-22 0zm16.745-3.408-5.879 8a1 1 0 0 1-1.512.115l-4-4a1 1 0 0 1 1.414-1.414l3.176 3.177 5.19-7.062a1 1 0 0 1 1.611 1.184z" opacity="1" data-original="url(#a)"></path></g></svg>