<svg xmlns="http://www.w3.org/2000/svg" version="1.1" xmlns:xlink="http://www.w3.org/1999/xlink" width="512" height="512" x="0" y="0" viewBox="0 0 64 64" style="enable-background:new 0 0 512 512" xml:space="preserve"><rect width="64" height="64" rx="12.8" ry="12.8" fill="#bac8d3" shape="rounded"></rect><g transform="matrix(0.65,0,0,0.65,11.2,11.199825930595399)"><linearGradient id="a" x1="4" x2="60" y1="32" y2="32" gradientUnits="userSpaceOnUse"><stop offset="0" stop-color="#00c0ff"></stop><stop offset="1" stop-color="#5558ff"></stop></linearGradient><path fill="url(#a)" d="M35.344 42.047a5 5 0 1 0-5 5 5.006 5.006 0 0 0 5-5zm-8 0a3 3 0 1 1 3 3 3.003 3.003 0 0 1-3-3zM57 15.062h-1.717a11.01 11.01 0 0 0-10.276-7.11H15A11.015 11.015 0 0 0 4 18.955v4.46a3.07 3.07 0 0 0 3.066 3.066h8.329a3.07 3.07 0 0 0 3.066-3.066v-4.132a1.066 1.066 0 0 1 1.065-1.066H40.48a1.067 1.067 0 0 1 1.066 1.066v4.132a3.07 3.07 0 0 0 3.066 3.066l8.33-.001a3.07 3.07 0 0 0 3.065-3.065v-4.461a10.98 10.98 0 0 0-.174-1.891H57a1.001 1.001 0 0 1 1 1v10.851a3.46 3.46 0 0 0-1.5-.351 3.495 3.495 0 0 0-2.442 6 3.487 3.487 0 0 0 3.934 5.653A6.003 6.003 0 0 1 52 46.062h-.66v-2.71a9.18 9.18 0 0 0-3.917-7.52l-5.173-3.62c-.047-1.248.291-3.277-.812-4.186a2.828 2.828 0 0 0-4.818 1.976v1.73H24.07v-1.73a2.82 2.82 0 1 0-5.64 0v2.21l-5.173 3.62a9.178 9.178 0 0 0-3.917 7.52v3.7a1 1 0 0 0 2 0v-3.7a7.179 7.179 0 0 1 3.063-5.88l5.6-3.92a1 1 0 0 0 .427-.82v-2.73a.83.83 0 0 1 1.404-.562c.408.269.182 1.802.236 2.382a1.912 1.912 0 0 0 1.91 1.91h12.73a1.912 1.912 0 0 0 1.91-1.91v-1.82a.815.815 0 0 1 1.393-.573.796.796 0 0 1 .237.573v2.73a1 1 0 0 0 .427.82l5.6 3.92a7.18 7.18 0 0 1 3.063 5.88v7.56c0 .024.012.044.014.067-.002.024-.014.044-.014.068a1 1 0 0 0 1 1h2.004a1 1 0 0 1 0 2h-44a1 1 0 0 1 0-2H46.34a1 1 0 1 0 0-2H8.344a3 3 0 0 0 0 6h44a3 3 0 0 0 0-6H51.34v-1.985H52a8.01 8.01 0 0 0 8-8v-22a3.003 3.003 0 0 0-3-3zm-40.54 8.352a1.067 1.067 0 0 1-1.065 1.066h-8.33A1.067 1.067 0 0 1 6 23.414v-1.066h10.46zm37.547 0a1.067 1.067 0 0 1-1.066 1.065l-8.329.001a1.067 1.067 0 0 1-1.066-1.066v-1.066h10.461zm0-3.066h-10.46v-1.066a3.07 3.07 0 0 0-3.067-3.066H19.526a3.069 3.069 0 0 0-3.065 3.066v1.066H6v-1.394a9.012 9.012 0 0 1 9-9.001h30.007a9.01 9.01 0 0 1 9 9zM56.5 38.562a1.5 1.5 0 1 1 1.5-1.5 1.502 1.502 0 0 1-1.5 1.5zm0-5a1.5 1.5 0 1 1 1.5-1.5 1.502 1.502 0 0 1-1.5 1.5z" opacity="1" data-original="url(#a)"></path></g></svg>