<svg xmlns="http://www.w3.org/2000/svg" version="1.1" xmlns:xlink="http://www.w3.org/1999/xlink" width="512" height="512" x="0" y="0" viewBox="0 0 512 512" style="enable-background:new 0 0 512 512" xml:space="preserve" class=""><rect width="512" height="512" rx="102.4" ry="102.4" fill="#bac8d3" shape="rounded"></rect><g transform="matrix(0.8,0,0,0.8,51.19983978271483,51.20000762939452)"><linearGradient id="a" x1="121.607" x2="416.82" y1="424.269" y2="129.056" gradientUnits="userSpaceOnUse"><stop offset="0" stop-color="#ff506a"></stop><stop offset="1" stop-color="#ffe28f"></stop></linearGradient><path fill="url(#a)" d="m138.594 431.529 35.616-8.76c7.639-1.879 12.325-9.623 10.446-17.264l-1.012-4.113c90.433 2.247 171.189-23.675 227.403-94.954 8.485-10.765 5.99-26.26-4.728-34.215-10.423-7.738-24.91-5.963-32.986 4.025-28.377 35.095-69.546 55.331-122.357 60.147-5.372.47-10.637-1.135-14.622-4.669-7.604-6.901-7.823-19.634-.483-27.803l24.212-26.937c4.065-4.521 5.794-10.549 4.751-16.537-2.267-13.014-16.406-20.053-28.104-14.259l-81.374 40.224-1.397-5.679c-1.879-7.635-9.598-12.323-17.264-10.446l-35.613 8.76c-7.639 1.879-12.325 9.625-10.446 17.266l30.693 124.769c1.876 7.618 9.597 12.323 17.265 10.445zM241.08 254.99c5.848-2.889 12.948.603 14.085 7.146a9.801 9.801 0 0 1-2.381 8.287l-24.212 26.939c-11.067 12.317-10.534 30.994 1.177 41.625.019.015.303.272.322.288 5.775 5.117 13.701 7.629 21.796 6.895 55.557-5.064 98.992-26.513 129.098-63.75 4.763-5.888 13.333-6.893 19.503-2.316 6.459 4.795 7.807 13.999 2.872 20.257-50.138 63.565-124.83 94.231-222.108 91.223l-23.473-95.408zm-137.65 33.592 35.613-8.76a4.452 4.452 0 0 1 5.384 3.259l30.697 124.769a4.455 4.455 0 0 1-3.259 5.386l-35.616 8.76a4.454 4.454 0 0 1-5.384-3.259L100.172 293.97a4.454 4.454 0 0 1 3.258-5.388zm226.346-24.523c50.729 0 92.001-41.271 92.001-92s-41.273-92.001-92.001-92.001-91.998 41.273-91.998 92.001 41.269 92 91.998 92zm0-174.184c45.318 0 82.185 36.868 82.185 82.185s-36.867 82.183-82.185 82.183c-45.314 0-82.181-36.867-82.181-82.183s36.866-82.185 82.181-82.185zm0 147.715c36.134 0 65.531-29.397 65.531-65.531s-29.397-65.531-65.531-65.531-65.531 29.397-65.531 65.531 29.396 65.531 65.531 65.531zm0-121.245c30.72 0 55.714 24.992 55.714 55.714s-24.994 55.714-55.714 55.714-55.714-24.992-55.714-55.714 24.994-55.714 55.714-55.714zm-25.8 33.517h21.428c-2.447-2.414-4.842-4.896-6.271-7.61h-15.158a4.908 4.908 0 1 1 0-9.816h51.603a4.908 4.908 0 1 1 0 9.816h-23.907c2.284 2.287 4.998 4.812 6.896 7.61h17.011a4.908 4.908 0 1 1 0 9.816h-14.732c-.941 15.402-13.36 20.07-20.624 19.854l30.796 32.995a4.91 4.91 0 0 1-7.179 6.699l-41.825-44.812c-1.538-1.647-1.756-4.13-.529-6.02s3.585-2.7 5.714-1.971c11.984 4.113 22.613 5.871 23.834-6.745h-27.059a4.908 4.908 0 1 1 .002-9.816z" opacity="1" data-original="url(#a)"></path></g></svg>