<svg xmlns="http://www.w3.org/2000/svg" version="1.1" xmlns:xlink="http://www.w3.org/1999/xlink" width="512" height="512" x="0" y="0" viewBox="0 0 64 64" style="enable-background:new 0 0 512 512" xml:space="preserve" class=""><rect width="64" height="64" rx="12.8" ry="12.8" fill="#bac8d3" shape="rounded"></rect><g transform="matrix(0.81,0,0,0.81,6.079999999999998,6.078887081146238)"><linearGradient id="a" x1="10" x2="54" y1="32" y2="32" gradientUnits="userSpaceOnUse"><stop offset="0" stop-color="#29abe2"></stop><stop offset=".994" stop-color="#2e3192"></stop></linearGradient><path fill="url(#a)" d="M32 23.65A8.35 8.35 0 1 0 40.35 32 8.36 8.36 0 0 0 32 23.65zm0 14.7A6.35 6.35 0 1 1 38.35 32 6.358 6.358 0 0 1 32 38.35zm12.6-8.9A2.554 2.554 0 1 0 47.153 32a2.556 2.556 0 0 0-2.553-2.554zm0 3.108a.554.554 0 1 1 .553-.558.554.554 0 0 1-.553.554zm-25.2-3.112A2.554 2.554 0 1 0 21.954 32a2.556 2.556 0 0 0-2.554-2.554zm0 3.108a.554.554 0 1 1 .554-.554.554.554 0 0 1-.554.554zM53 19.975H11a1 1 0 0 0-1 1v22.05a1 1 0 0 0 1 1h42a1 1 0 0 0 1-1v-22.05a1 1 0 0 0-1-1zm-7.014 22.05H18.014A7.1 7.1 0 0 0 12 36.011v-8.022a7.1 7.1 0 0 0 6.014-6.014h27.972A7.1 7.1 0 0 0 52 27.989v8.022a7.1 7.1 0 0 0-6.014 6.014zM52 21.975v3.995a5.109 5.109 0 0 1-3.994-3.995zm-40 0h3.994A5.109 5.109 0 0 1 12 25.97zm0 20.05V38.03a5.109 5.109 0 0 1 3.994 3.995zm40 0h-3.994A5.109 5.109 0 0 1 52 38.03zm-35.7-27.35a1 1 0 0 1 .294-.709L19.563 11a1 1 0 0 1 1.415 1.414l-1.264 1.263H46.7a1 1 0 0 1 0 2H19.714l1.263 1.263a1 1 0 0 1-1.415 1.414l-2.968-2.969a1.009 1.009 0 0 1-.294-.708zm31.323 35.032a1 1 0 0 1-.217.327L44.437 53a1 1 0 0 1-1.414-1.414l1.263-1.263H17.3a1 1 0 1 1 0-2h26.986l-1.263-1.262a1 1 0 0 1 1.414-1.415l2.969 2.969a.99.99 0 0 1 .217.326 1 1 0 0 1 0 .766z" data-name="Layer 41" opacity="1" data-original="url(#a)"></path></g></svg>