<svg xmlns="http://www.w3.org/2000/svg" version="1.1" xmlns:xlink="http://www.w3.org/1999/xlink" width="512" height="512" x="0" y="0" viewBox="0 0 512 512" style="enable-background:new 0 0 512 512" xml:space="preserve" class=""><rect width="512" height="512" rx="102.4" ry="102.4" fill="#bac8d3" shape="rounded"></rect><g transform="matrix(0.5100000000000001,0,0,0.5100000000000001,125.44,115.43999999999997)"><linearGradient id="a" x1="59.997" x2="470.328" y1="562.96" y2="152.629" gradientUnits="userSpaceOnUse"><stop offset="0" stop-color="#57ffd9"></stop><stop offset="1" stop-color="#2a6eff"></stop></linearGradient><path fill="url(#a)" d="M499 268.238c6.617 0 12-5.383 12-12v-21.324c0-6.617-5.383-12-12-12H394.516v-1.911c0-12.427-8.14-22.983-19.366-26.632-3.856-55.516-46.221-100.896-100.193-109.637V72.406h51.385a8 8 0 0 0 6.976-11.916l-10.274-18.31 10.274-18.31a8 8 0 0 0-6.976-11.915h-53.18C270.138 5.496 263.592 1 256.001 1c-10.453 0-18.957 8.503-18.957 18.956v64.778c-53.971 8.741-96.336 54.122-100.193 109.637-11.227 3.648-19.367 14.205-19.367 26.632v1.911H13c-6.617 0-12 5.383-12 12v21.324c0 6.617 5.383 12 12 12h7.215v197.438H13c-6.617 0-12 5.383-12 12V499c0 6.617 5.383 12 12 12h486c6.617 0 12-5.383 12-12v-21.324c0-6.617-5.383-12-12-12h-7.214V268.238zm-140.012-75.235h-44.236c-1.052-27.45-6.559-53.117-15.757-72.967-2.559-5.521-5.35-10.457-8.334-14.794 37.007 13.307 64.525 47.233 68.327 87.761zM256.001 99.204c19.083 0 40.501 38.121 42.755 93.799h-85.511c2.253-55.678 23.672-93.799 42.756-93.799zm50.893-53.108 5.785 10.31h-37.722v-28.45h37.722l-5.785 10.31a7.998 7.998 0 0 0 0 7.83zm-53.85-26.14c0-1.603 1.354-2.956 2.957-2.956s2.956 1.354 2.956 2.956v63.286a116.32 116.32 0 0 0-5.913 0zm-31.704 85.286c-2.984 4.337-5.775 9.273-8.334 14.794-9.2 19.85-14.707 45.517-15.758 72.967h-44.235c3.802-40.527 31.32-74.454 68.327-87.761zm-87.856 115.761c0-6.617 5.383-12 12-12h221.032c6.616 0 11.999 5.383 11.999 12v1.911H133.484zM17 238.914h478v13.324H17zM495 495H17v-13.324h478zm-369.715-29.324h-53.78v-96.859c0-14.827 12.062-26.89 26.89-26.89s26.891 12.063 26.891 26.89v96.859zm105.07 0h-53.78v-96.859c0-14.827 12.062-26.89 26.89-26.89s26.891 12.063 26.891 26.89v96.859zm105.07 0h-53.779v-96.859c0-14.827 12.062-26.89 26.89-26.89s26.89 12.063 26.89 26.89v96.859zm105.071 0h-53.78v-96.859c0-14.827 12.062-26.89 26.89-26.89s26.891 12.063 26.891 26.89v96.859zm16 0v-96.859c0-23.65-19.24-42.89-42.891-42.89-23.649 0-42.89 19.24-42.89 42.89v96.859h-19.291v-96.859c0-23.65-19.24-42.89-42.89-42.89s-42.89 19.24-42.89 42.89v96.859h-19.29v-96.859c0-23.65-19.24-42.89-42.891-42.89-23.649 0-42.89 19.24-42.89 42.89v96.859h-19.29v-96.859c0-23.65-19.24-42.89-42.891-42.89-23.649 0-42.89 19.24-42.89 42.89v96.859h-19.29v-162.42h439.571v162.419h-19.287zm19.29-178.42H36.215v-19.018h439.571z" opacity="1" data-original="url(#a)" class=""></path></g></svg>