<svg xmlns="http://www.w3.org/2000/svg" version="1.1" xmlns:xlink="http://www.w3.org/1999/xlink" width="512" height="512" x="0" y="0" viewBox="0 0 32 32" style="enable-background:new 0 0 512 512" xml:space="preserve"><rect width="32" height="32" rx="6.4" ry="6.4" fill="#bac8d3" shape="rounded"></rect><g transform="matrix(0.7,0,0,0.7,4.800000000000001,4.800000000000001)"><linearGradient id="a" x1="8.286" x2="23.714" y1="29.361" y2="2.639" gradientUnits="userSpaceOnUse"><stop offset="0" stop-color="#3cacb6"></stop><stop offset="1" stop-color="#8ccead"></stop></linearGradient><path fill="url(#a)" d="M13.793 16.855A3.986 3.986 0 0 0 15 14c0-2.206-1.794-4-4-4s-4 1.794-4 4c0 1.119.464 2.128 1.207 2.855A5 5 0 0 0 6 21a1 1 0 1 0 2 0c0-1.654 1.346-3 3-3s3 1.346 3 3a1 1 0 1 0 2 0 4.999 4.999 0 0 0-2.207-4.145zM11 16c-1.103 0-2-.897-2-2s.897-2 2-2 2 .897 2 2-.897 2-2 2zm12 4a1 1 0 0 1-1 1h-3a1 1 0 1 1 0-2h3a1 1 0 0 1 1 1zm4-15H5C3.346 5 2 6.346 2 8v16c0 1.654 1.346 3 3 3h22c1.654 0 3-1.346 3-3V8c0-1.654-1.346-3-3-3zm1 19c0 .552-.449 1-1 1H5c-.551 0-1-.448-1-1V8c0-.552.449-1 1-1h22c.551 0 1 .448 1 1zm-2-12a1 1 0 0 1-1 1h-6a1 1 0 1 1 0-2h6a1 1 0 0 1 1 1zm0 4a1 1 0 0 1-1 1h-6a1 1 0 1 1 0-2h6a1 1 0 0 1 1 1z" opacity="1" data-original="url(#a)"></path></g></svg>