<svg xmlns="http://www.w3.org/2000/svg" version="1.1" xmlns:xlink="http://www.w3.org/1999/xlink" width="512" height="512" x="0" y="0" viewBox="0 0 512 512" style="enable-background:new 0 0 512 512" xml:space="preserve"><rect width="512" height="512" rx="102.4" ry="102.4" fill="#bac8d3" shape="rounded"></rect><g transform="matrix(0.6,0,0,0.6,102.39899597167968,97.40001220703124)"><linearGradient id="a" x1="255.999" x2="256" y1="512.001" y2=".003" gradientUnits="userSpaceOnUse"><stop offset="0" stop-color="#6c54a3"></stop><stop offset="1" stop-color="#00b1d2"></stop></linearGradient><path fill="url(#a)" fill-rule="evenodd" d="M305.111 364.9a8 8 0 0 1-8 8h-82.223a8 8 0 1 1 0-16h82.222a8 8 0 0 1 8 8zm-90.223-46.277a8 8 0 1 1 0-16h82.222a8 8 0 0 1 0 16zM317.1 337.759a8 8 0 0 1-8 8H202.9a8 8 0 1 1 0-16h106.2a8 8 0 0 1 8 8zm-191.713 85.293h43.05L132.817 496h-59.09l51.66-72.951zm-46.716-58.784a42.823 42.823 0 0 0 42.777 42.781h269.1a42.827 42.827 0 0 0 42.781-42.781V116.5A100.609 100.609 0 0 0 332.828 16H179.17a100.606 100.606 0 0 0-100.5 100.5v247.768zM379.18 496l-35.619-72.951h43.05L438.271 496zm-53.424-72.951 8.105 16.588h-155.72l8.1-16.588zm-162.617 47.322h185.72l-7.19-14.729H170.328zM51.148 507.67a8.017 8.017 0 0 0 7.109 4.33h79.561a7.991 7.991 0 0 0 7.19-4.491l10.318-21.141h201.341l10.323 21.142a7.991 7.991 0 0 0 7.189 4.49h79.561a8 8 0 0 0 6.53-12.62l-55.321-78.122a58.881 58.881 0 0 0 44.38-56.991V116.5A116.628 116.628 0 0 0 332.828 0H179.17a116.627 116.627 0 0 0-116.5 116.5v247.768a58.875 58.875 0 0 0 44.38 56.991l-55.322 78.122a7.989 7.989 0 0 0-.58 8.289zm314.261-143.19a26.719 26.719 0 1 1 26.717-26.721 26.752 26.752 0 0 1-26.717 26.721zm0-69.441a42.72 42.72 0 1 1-42.719 42.72 42.768 42.768 0 0 1 42.719-42.72zm-245.542 42.72a26.726 26.726 0 1 1 26.722 26.721 26.755 26.755 0 0 1-26.722-26.721zm69.451 0a42.725 42.725 0 1 1-42.729-42.72 42.77 42.77 0 0 1 42.729 42.72zM128.18 105.672a6.95 6.95 0 0 1 6.949-6.94H248v147.28H135.129a6.95 6.95 0 0 1-6.949-6.94zm255.638 0v133.4a6.951 6.951 0 0 1-6.949 6.94H264V98.732h112.869a6.951 6.951 0 0 1 6.949 6.94zM135.129 262.01a22.976 22.976 0 0 1-22.952-22.938v-133.4a22.976 22.976 0 0 1 22.952-22.942h241.74a22.976 22.976 0 0 1 22.952 22.942v133.4a22.976 22.976 0 0 1-22.952 22.938z" opacity="1" data-original="url(#a)"></path></g></svg>