<svg xmlns="http://www.w3.org/2000/svg" version="1.1" xmlns:xlink="http://www.w3.org/1999/xlink" width="512" height="512" x="0" y="0" viewBox="0 0 64 64" style="enable-background:new 0 0 512 512" xml:space="preserve" class=""><rect width="64" height="64" rx="12.8" ry="12.8" fill="#bac8d3" shape="rounded"></rect><g transform="matrix(-0.8,-9.797174393178826e-17,9.797174393178826e-17,-0.8,57.6,57.473884677886964)"><linearGradient id="a" x1="4" x2="60" y1="31.93" y2="31.93" gradientUnits="userSpaceOnUse"><stop offset="0" stop-color="#ffde00"></stop><stop offset="1" stop-color="#fd5900"></stop></linearGradient><path fill="url(#a)" d="M49.674 40.316c.632.626.11 1.769-.754 1.74-.275 0-.55-.109-.754-.326L32 24.493 15.834 41.73a1.034 1.034 0 0 1-1.508-1.414l16.92-18.041c.392-.417 1.116-.417 1.508 0l16.92 18.04zM60 32.002c-1.531 37.021-54.463 37.032-56 0C4 16.611 16.56 4.088 32 4.088s28 12.523 28 27.914zm-2.068 0c-1.418-34.278-50.441-34.288-51.864 0C6.068 46.254 17.7 57.85 32 57.85s25.932-11.595 25.932-25.846z" opacity="1" data-original="url(#a)"></path></g></svg>