<svg xmlns="http://www.w3.org/2000/svg" version="1.1" xmlns:xlink="http://www.w3.org/1999/xlink" width="512" height="512" x="0" y="0" viewBox="0 0 512 512" style="enable-background:new 0 0 512 512" xml:space="preserve" class=""><rect width="512" height="512" rx="102.4" ry="102.4" fill="#bac8d3" shape="rounded"></rect><g transform="matrix(0.6,0,0,0.6,102.40020141601562,97.4000057220459)"><linearGradient id="a" x1="161.935" x2="439.768" y1="398.765" y2="120.933" gradientUnits="userSpaceOnUse"><stop offset="0" stop-color="#ff506a"></stop><stop offset="1" stop-color="#ffe28f"></stop></linearGradient><path fill="url(#a)" d="M95.727 123.56c-26.184 0-47.486 21.197-47.486 47.25v94.79c0 26.053 21.303 47.25 47.486 47.25 23.793 0 43.498-17.521 46.909-40.265h38.769c34.3 47.562 105.663 47.696 140.056 0h33.353v36.545c0 8.773 7.166 15.909 15.974 15.909h68.574c8.809 0 15.974-7.136 15.974-15.909v-59.515c0-42.485-34.744-77.049-77.449-77.049h-56.391c-11.411-15.86-27.744-27.145-46.16-32.427V78.12c4.41-3.171 8.067-7.221 10.851-11.818h42.697c12.893 0 23.382-10.424 23.382-23.277 0-12.836-10.489-23.277-23.382-23.277h-46.709c-15.883-18.338-44.579-18.318-60.441 0h-46.709c-12.744 0-23.233 10.311-23.382 22.983v.335c0 12.813 10.489 23.236 23.382 23.236h42.697c2.783 4.597 6.439 8.647 10.85 11.818v61.744c-18.826 5.155-35.558 16.555-47.197 32.702h-38.159v-1.755c-.003-26.054-21.305-47.251-47.489-47.251zm0 180.929c-21.574 0-39.125-17.446-39.125-38.889v-94.79c0-21.443 17.552-38.889 39.125-38.889s39.125 17.446 39.125 38.889v94.79c0 21.443-17.551 38.889-39.125 38.889zM234.992 72.373c-4.77-3.029-8.64-7.239-11.191-12.173-.711-1.375-2.599-2.26-3.713-2.26h-45.065c-8.283 0-15.02-6.673-15.02-15.112.095-8.116 6.833-14.72 15.02-14.72h48.682a4.186 4.186 0 0 0 3.297-1.609c12.612-16.171 37.279-16.185 49.9-.002a4.181 4.181 0 0 0 3.297 1.61h48.684c8.283 0 15.021 6.69 15.021 14.957 0 8.203-6.738 14.875-15.021 14.875h-45.065c-1.449 0-3.151 1.169-3.713 2.26-2.552 4.933-6.423 9.143-11.193 12.173a4.182 4.182 0 0 0-1.938 3.529v62.253c-9.987-1.815-19.983-1.864-30.043-.156V75.902a4.186 4.186 0 0 0-1.939-3.529zm-51.447 108.554a4.176 4.176 0 0 0 3.452-1.824c30.895-45.268 98.024-45.294 128.866-.003a4.18 4.18 0 0 0 3.455 1.827h58.566c38.095 0 69.088 30.813 69.088 68.688v59.515c0 4.163-3.415 7.548-7.613 7.548h-68.574c-4.198 0-7.613-3.385-7.613-7.548v-40.726a4.18 4.18 0 0 0-4.181-4.181h-39.707a4.18 4.18 0 0 0-3.452 1.824c-30.806 45.134-97.906 45.269-128.804 0a4.18 4.18 0 0 0-3.452-1.824h-40.365v-83.297h40.334zm224.873 176.617a4.187 4.187 0 0 0-4.857 0c-2.26 1.613-55.341 40.099-55.341 92.117 0 31.065 25.916 56.337 57.77 56.337s57.77-25.273 57.77-56.337c0-52.018-53.081-90.504-55.342-92.117zm-2.428 140.093c-27.244 0-49.409-21.522-49.409-47.976 0-41.645 39.155-75.344 49.409-83.452 10.254 8.108 49.409 41.807 49.409 83.452 0 26.455-22.165 47.976-49.409 47.976z" opacity="1" data-original="url(#a)"></path></g></svg>