<?xml version="1.0"?>
<svg xmlns="http://www.w3.org/2000/svg" height="512px" version="1.1" viewBox="0 0 512 512" width="512px"><g><g id="surface1">
<path d="M 204.566406 108.5 C 198.382812 108.5 192.558594 110.910156 188.175781 115.285156 L 115.445312 188.015625 C 111.070312 192.398438 108.660156 198.222656 108.660156 204.40625 L 108.660156 307.273438 C 108.660156 307.902344 108.679688 308.53125 108.730469 309.152344 L 309.3125 108.570312 C 308.691406 108.519531 308.0625 108.5 307.433594 108.5 Z M 204.566406 108.5 " data-original="#000000" class="active-path" data-old_color="#000000" fill="#F41616"/>
<path d="M 490.992188 128.957031 L 383.042969 21.007812 C 369.492188 7.464844 351.488281 0 332.332031 0 L 179.667969 0 C 160.511719 0 142.507812 7.464844 128.957031 21.007812 L 21.007812 128.957031 C 7.464844 142.496094 0 160.511719 0 179.667969 L 0 332.332031 C 0 351.488281 7.464844 369.492188 21.007812 383.042969 L 128.957031 490.992188 C 142.507812 504.535156 160.511719 512 179.667969 512 L 332.332031 512 C 351.488281 512 369.492188 504.535156 383.042969 490.992188 L 490.992188 383.042969 C 504.535156 369.492188 512 351.488281 512 332.332031 L 512 179.667969 C 512 160.511719 504.535156 142.496094 490.992188 128.957031 Z M 117.257812 343.082031 C 113.984375 346.355469 109.5 348.207031 104.875 348.207031 C 104.6875 348.207031 104.484375 348.207031 104.296875 348.195312 C 99.472656 348.035156 94.886719 345.855469 91.726562 342.230469 C 83.277344 332.5625 78.632812 320.144531 78.632812 307.273438 L 78.632812 204.40625 C 78.632812 190.195312 84.167969 176.835938 94.21875 166.785156 L 166.945312 94.058594 C 176.996094 84.007812 190.355469 78.472656 204.566406 78.472656 L 307.433594 78.472656 C 320.304688 78.472656 332.722656 83.117188 342.390625 91.566406 C 346.015625 94.726562 348.195312 99.3125 348.355469 104.136719 C 348.515625 108.960938 346.65625 113.683594 343.242188 117.097656 Z M 433.367188 307.273438 C 433.367188 321.484375 427.832031 334.84375 417.78125 344.894531 L 345.054688 417.621094 C 335.003906 427.671875 321.644531 433.207031 307.433594 433.207031 L 204.566406 433.207031 C 191.695312 433.207031 179.285156 428.5625 169.609375 420.113281 C 165.984375 416.953125 163.804688 412.367188 163.644531 407.542969 C 163.484375 402.71875 165.34375 397.996094 168.757812 394.582031 L 394.742188 168.597656 C 398.15625 165.183594 402.878906 163.3125 407.703125 163.484375 C 412.527344 163.644531 417.113281 165.824219 420.273438 169.449219 C 428.722656 179.117188 433.367188 191.539062 433.367188 204.40625 Z M 433.367188 307.273438 " data-original="#000000" class="active-path" data-old_color="#000000" fill="#F41616"/>
<path d="M 202.6875 403.109375 C 203.308594 403.160156 203.9375 403.179688 204.566406 403.179688 L 307.433594 403.179688 C 313.617188 403.179688 319.441406 400.769531 323.824219 396.394531 L 396.554688 323.664062 C 400.929688 319.28125 403.339844 313.457031 403.339844 307.273438 L 403.339844 204.40625 C 403.339844 203.777344 403.320312 203.148438 403.269531 202.527344 Z M 202.6875 403.109375 " data-original="#000000" class="active-path" data-old_color="#000000" fill="#F41616"/>
</g></g> </svg>
