<?xml version="1.0" encoding="iso-8859-1"?>
<!-- Generator: Adobe Illustrator 19.0.0, SVG Export Plug-In . SVG Version: 6.00 Build 0)  -->
<svg version="1.1" id="Layer_1" xmlns="http://www.w3.org/2000/svg" xmlns:xlink="http://www.w3.org/1999/xlink" x="0px" y="0px"
	 viewBox="0 0 512 512" style="enable-background:new 0 0 512 512;" xml:space="preserve">
<g>
	<g>
		<g>
			<path d="M456.313,85.333H395.96l-19.147-4.792l10.833-18.063c2.521-4.198,1.854-9.573-1.604-13.031l-30.167-30.167
				c-3.5-3.49-8.854-4.104-13.042-1.604L324.792,28.51l-5.104-20.438C318.5,3.333,314.229,0,309.333,0h-42.667
				c-4.896,0-9.167,3.333-10.354,8.073l-5.104,20.438l-18.042-10.833c-4.167-2.5-9.563-1.865-13.042,1.604l-30.167,30.167
				c-3.458,3.458-4.125,8.833-1.604,13.031l10.833,18.063l-19.147,4.792h-74.26l-3.488-11.958
				C97,55.292,80.167,42.667,61.333,42.667H32c-5.896,0-10.667,4.771-10.667,10.667C21.333,59.229,26.104,64,32,64h29.333
				c9.417,0,17.833,6.323,20.479,15.365L148.208,307l-34.021,42.521c-4.854,6.073-7.521,13.688-7.521,21.458
				c0,18.948,15.417,34.354,34.354,34.354h296.313c5.896,0,10.667-4.771,10.667-10.667S443.229,384,437.333,384H141.021
				c-7.188,0-13.021-5.844-13.021-13.021c0-2.948,1.021-5.844,2.854-8.135L165.133,320h209.221c16.458,0,31.625-9.615,38.604-24.5
				l74.458-158.177c2.125-4.552,3.25-9.604,3.25-14.615v-3.021C490.667,100.74,475.25,85.333,456.313,85.333z M192,104.323
				l18.313-4.583c3.479-0.865,6.292-3.417,7.479-6.792c0.958-2.74,2-5.417,3.271-8.01c1.563-3.25,1.396-7.063-0.458-10.156
				l-9.667-16.135l18.375-18.385l16.125,9.677c3.104,1.854,6.917,2.031,10.167,0.448c2.583-1.26,5.25-2.302,7.979-3.25
				c3.396-1.188,5.958-4,6.833-7.479L275,21.333h26l4.583,18.323c0.875,3.479,3.438,6.292,6.833,7.479
				c2.729,0.948,5.396,1.99,7.979,3.25c3.229,1.573,7.063,1.396,10.167-0.448l16.125-9.677l18.375,18.385l-9.667,16.135
				c-1.854,3.094-2.021,6.906-0.458,10.156c1.271,2.594,2.313,5.271,3.271,8.01c1.188,3.375,4,5.927,7.479,6.792L384,104.323v26.021
				l-18.313,4.583c-3.479,0.865-6.292,3.417-7.479,6.792c-0.958,2.74-2,5.417-3.271,8.01c-1.563,3.25-1.396,7.063,0.458,10.156
				l9.667,16.135l-18.375,18.385l-16.125-9.677c-3.104-1.854-6.917-2.021-10.167-0.448c-2.583,1.26-5.25,2.302-7.979,3.25
				c-3.396,1.188-5.958,4-6.833,7.479L301,213.333h-26l-4.583-18.323c-0.875-3.479-3.438-6.292-6.833-7.479
				c-2.729-0.948-5.396-1.99-7.979-3.25c-3.25-1.583-7.083-1.406-10.167,0.448l-16.125,9.677l-18.375-18.385l9.667-16.135
				c1.854-3.094,2.021-6.906,0.458-10.156c-1.271-2.594-2.313-5.271-3.271-8.01c-1.188-3.375-4-5.927-7.479-6.792L192,130.344
				V104.323z M469.333,122.708c0,1.906-0.438,3.823-1.229,5.542l-74.438,158.177c-3.5,7.438-11.083,12.24-19.313,12.24H168.01
				l-56.008-192h58.664v32c0,4.896,3.333,9.156,8.083,10.344l20.438,5.115l-10.833,18.063c-2.521,4.198-1.854,9.573,1.604,13.031
				l30.167,30.167c3.479,3.49,8.875,4.104,13.042,1.604l18.042-10.833l5.104,20.438c1.188,4.74,5.458,8.073,10.354,8.073h42.667
				c4.896,0,9.167-3.333,10.354-8.073l5.104-20.438l18.042,10.833c4.188,2.5,9.542,1.854,13.042-1.604l30.167-30.167
				c3.458-3.458,4.125-8.833,1.604-13.031l-10.833-18.063l20.438-5.115c4.75-1.188,8.083-5.448,8.083-10.344v-32h50.979
				c7.188,0,13.021,5.844,13.021,13.021V122.708z"/>
			<path d="M149.333,426.667c-23.521,0-42.667,19.135-42.667,42.667S125.813,512,149.333,512C172.854,512,192,492.865,192,469.333
				S172.854,426.667,149.333,426.667z M149.333,490.667c-11.771,0-21.333-9.573-21.333-21.333c0-11.76,9.563-21.333,21.333-21.333
				c11.771,0,21.333,9.573,21.333,21.333C170.667,481.094,161.104,490.667,149.333,490.667z"/>
			<path d="M405.333,426.667c-23.521,0-42.667,19.135-42.667,42.667S381.813,512,405.333,512C428.854,512,448,492.865,448,469.333
				S428.854,426.667,405.333,426.667z M405.333,490.667c-11.771,0-21.333-9.573-21.333-21.333c0-11.76,9.563-21.333,21.333-21.333
				c11.771,0,21.333,9.573,21.333,21.333C426.667,481.094,417.104,490.667,405.333,490.667z"/>
			<path d="M288,170.667c29.417,0,53.333-23.927,53.333-53.333S317.417,64,288,64s-53.333,23.927-53.333,53.333
				S258.583,170.667,288,170.667z M288,85.333c17.646,0,32,14.354,32,32c0,17.646-14.354,32-32,32s-32-14.354-32-32
				C256,99.688,270.354,85.333,288,85.333z"/>
		</g>
	</g>
</g>
<g>
</g>
<g>
</g>
<g>
</g>
<g>
</g>
<g>
</g>
<g>
</g>
<g>
</g>
<g>
</g>
<g>
</g>
<g>
</g>
<g>
</g>
<g>
</g>
<g>
</g>
<g>
</g>
<g>
</g>
</svg>
