<svg xmlns="http://www.w3.org/2000/svg" version="1.1" xmlns:xlink="http://www.w3.org/1999/xlink" width="512" height="512" x="0" y="0" viewBox="0 0 64 64" style="enable-background:new 0 0 512 512" xml:space="preserve"><rect width="64" height="64" rx="12.8" ry="12.8" fill="#bac8d3" shape="rounded"></rect><g transform="matrix(0.7899999999999999,0,0,0.7899999999999999,6.720000000000002,6.720000000000002)"><linearGradient id="a" x1="4" x2="60" y1="32" y2="32" gradientUnits="userSpaceOnUse"><stop offset="0" stop-color="#00c0ff"></stop><stop offset="1" stop-color="#5558ff"></stop></linearGradient><path fill="url(#a)" d="M55.34 53.05a3.002 3.002 0 0 1-3 3h-44a3 3 0 0 1 0-6h44a2.996 2.996 0 0 1 3 3zM15.4 26.48a3.069 3.069 0 0 0 3.06-3.07v-1.06H4v1.06a3.077 3.077 0 0 0 3.07 3.07zm29.21 0h8.33a3.077 3.077 0 0 0 3.07-3.07v-1.06H41.55v1.06a3.069 3.069 0 0 0 3.06 3.07zM30.34 38.05a3 3 0 1 0 3 3 3.002 3.002 0 0 0-3-3zM60 18.06v22a8.01 8.01 0 0 1-8 8l-42.66-.01v-5.7a9.204 9.204 0 0 1 3.92-7.52l5.17-3.62V29a2.83 2.83 0 0 1 2.82-2.82A2.834 2.834 0 0 1 24.07 29v1.73h12.55V29a2.821 2.821 0 0 1 2.81-2.82A2.834 2.834 0 0 1 42.25 29v2.21l5.18 3.62a9.195 9.195 0 0 1 3.91 7.52v3.71H52a6.003 6.003 0 0 0 5.992-5.847 3.46 3.46 0 0 1-1.492.347 3.495 3.495 0 0 1-2.442-6A3.487 3.487 0 0 1 58 28.911V18.06a1.001 1.001 0 0 0-1-1h-1.165a10.958 10.958 0 0 1 .175 1.89v1.4H41.55v-1.07a1.071 1.071 0 0 0-1.07-1.07H19.53a1.071 1.071 0 0 0-1.07 1.07v1.07H4v-1.4a11.013 11.013 0 0 1 11-11h30.01a11.016 11.016 0 0 1 10.275 7.11H57a3.003 3.003 0 0 1 3 3zM35.34 41.05a5 5 0 1 0-5 5 5.002 5.002 0 0 0 5-5zM58 37.06a1.5 1.5 0 1 0-1.5 1.5 1.502 1.502 0 0 0 1.5-1.5zm0-5a1.5 1.5 0 1 0-1.5 1.5 1.502 1.502 0 0 0 1.5-1.5z" opacity="1" data-original="url(#a)"></path></g></svg>