<svg xmlns="http://www.w3.org/2000/svg" version="1.1" xmlns:xlink="http://www.w3.org/1999/xlink" width="512" height="512" x="0" y="0" viewBox="0 0 496 496" style="enable-background:new 0 0 512 512" xml:space="preserve" class=""><rect width="496" height="496" rx="99.2" ry="99.2" fill="#bac8d3" shape="rounded"></rect><g transform="matrix(0.65,0,0,0.65,86.80000000000001,86.80000000000001)"><linearGradient id="a" x1="248" x2="248" y1="496" y2="0" gradientUnits="userSpaceOnUse"><stop offset="0" stop-color="#9f2fff"></stop><stop offset="1" stop-color="#0bb1d3"></stop></linearGradient><path fill="url(#a)" d="M400 32H240v80h160zm-16 64H256V48h128zm80-80h-33.376C427.321 6.689 418.429 0 408 0H232c-10.429 0-19.321 6.689-22.624 16H176c-17.645 0-32 14.355-32 32v.022A39.788 39.788 0 0 0 120 40H88c-22.056 0-40 17.944-40 40v3.056l-32 16V288c0 .457.016.911.041 1.362C6.709 292.653 0 301.556 0 312c0 6.142 2.322 11.75 6.131 16C2.322 332.25 0 337.858 0 344s2.322 11.75 6.131 16C2.322 364.25 0 369.858 0 376s2.322 11.75 6.131 16C2.322 396.25 0 401.858 0 408s2.322 11.75 6.131 16C2.322 428.25 0 433.858 0 440c0 10.446 6.711 19.35 16.046 22.639-.026.453-.046.906-.046 1.361 0 13.233 10.767 24 24 24 4.278 0 8.295-1.131 11.777-3.101C56.046 491.567 63.513 496 72 496s15.954-4.433 20.223-11.101A23.844 23.844 0 0 0 104 488c13.233 0 24-10.767 24-24 0-6.142-2.322-11.75-6.131-16 3.809-4.25 6.131-9.858 6.131-16s-2.322-11.75-6.131-16c3.809-4.25 6.131-9.858 6.131-16s-2.322-11.75-6.131-16c3.809-4.25 6.131-9.858 6.131-16 0-10.429-6.689-19.321-16-22.624V328h8c8.998 0 17.31-2.988 24-8.022V368c0 17.645 14.355 32 32 32h288c17.645 0 32-14.355 32-32V192c0-9.551-4.211-18.132-10.868-24 6.657-5.868 10.868-14.449 10.868-24V48c0-17.645-14.355-32-32-32zm-240 8c0-4.411 3.589-8 8-8h176c4.411 0 8 3.589 8 8v96c0 4.411-3.589 8-8 8H232c-4.411 0-8-3.589-8-8zM48 100.944v164.432c-2.504-.888-5.196-1.376-8-1.376s-5.496.488-8 1.376V108.944zM16 408c0-4.411 3.589-8 8-8s8 3.589 8 8-3.589 8-8 8-8-3.589-8-8zm0-32c0-4.411 3.589-8 8-8s8 3.589 8 8-3.589 8-8 8-8-3.589-8-8zm0-32c0-4.411 3.589-8 8-8s8 3.589 8 8-3.589 8-8 8-8-3.589-8-8zm24-48c-4.411 0-8-3.589-8-8s3.589-8 8-8 8 3.589 8 8-3.589 8-8 8zm-17.702 8.187a24.072 24.072 0 0 0 9.558 6.388c.085.467.144.94.144 1.425 0 4.411-3.589 8-8 8s-8-3.589-8-8c0-3.827 2.702-7.031 6.298-7.813zM24 432c4.411 0 8 3.589 8 8s-3.589 8-8 8-8-3.589-8-8 3.589-8 8-8zm16 40c-4.411 0-8-3.589-8-8 0-.485.059-.958.145-1.425a24.079 24.079 0 0 0 9.557-6.388C45.298 456.969 48 460.173 48 464c0 4.411-3.589 8-8 8zm32 8c-4.411 0-8-3.589-8-8s3.589-8 8-8 8 3.589 8 8-3.589 8-8 8zm24-112c0-4.411 3.589-8 8-8s8 3.589 8 8-3.589 8-8 8-8-3.589-8-8zm16 32c0 4.411-3.589 8-8 8s-8-3.589-8-8 3.589-8 8-8 8 3.589 8 8zm0 32c0 4.411-3.589 8-8 8s-8-3.589-8-8 3.589-8 8-8 8 3.589 8 8zm-8 40c-4.411 0-8-3.589-8-8s3.589-8 8-8 8 3.589 8 8-3.589 8-8 8zm-8-126.624c-9.311 3.302-16 12.195-16 22.624 0 6.142 2.322 11.75 6.131 16-3.809 4.25-6.131 9.858-6.131 16s2.322 11.75 6.131 16C82.322 420.25 80 425.858 80 432s2.322 11.75 6.131 16a24.21 24.21 0 0 0-2.354 3.101C80.295 449.131 76.278 448 72 448s-8.295 1.131-11.777 3.101a24.108 24.108 0 0 0-12.264-9.738c.025-.452.041-.906.041-1.363 0-6.142-2.322-11.75-6.131-16 3.809-4.25 6.131-9.858 6.131-16s-2.322-11.75-6.131-16c3.809-4.25 6.131-9.858 6.131-16s-2.322-11.75-6.131-16c3.809-4.25 6.131-9.858 6.131-16s-2.322-11.75-6.131-16c3.809-4.25 6.131-9.858 6.131-16 0-.455-.02-.908-.046-1.361a23.914 23.914 0 0 0 5.391-2.703C60.263 319.915 73.201 328 88 328h8zM120 312H88c-13.233 0-24-10.767-24-24V80c0-13.233 10.767-24 24-24h32c13.233 0 24 10.767 24 24v208c0 13.233-10.767 24-24 24zm360-120v176c0 8.822-7.178 16-16 16H176c-8.822 0-16-7.178-16-16V176h304c8.822 0 16 7.178 16 16zm-320-32V48c0-8.822 7.178-16 16-16h32v88c0 13.233 10.767 24 24 24h176c13.233 0 24-10.767 24-24V32h32c8.822 0 16 7.178 16 16v96c0 8.822-7.178 16-16 16zm32-104a8 8 0 1 1-16 0 8 8 0 0 1 16 0zm0 32a8 8 0 1 1-16 0 8 8 0 0 1 16 0zm0 32a8 8 0 1 1-16 0 8 8 0 0 1 16 0zm272-64a8 8 0 1 1-16 0 8 8 0 0 1 16 0zm0 32a8 8 0 1 1-16 0 8 8 0 0 1 16 0zm0 32a8 8 0 1 1-16 0 8 8 0 0 1 16 0zm-40 152c22.056 0 40-17.944 40-40s-17.944-40-40-40-40 17.944-40 40 17.944 40 40 40zm0-64c13.233 0 24 10.767 24 24s-10.767 24-24 24-24-10.767-24-24 10.767-24 24-24zm0 160c22.056 0 40-17.944 40-40s-17.944-40-40-40-40 17.944-40 40 17.944 40 40 40zm0-64c13.233 0 24 10.767 24 24s-10.767 24-24 24-24-10.767-24-24 10.767-24 24-24zm-200 16h-48v48h48zm-16 32h-16v-16h16zm16-96h-48v48h48zm-16 32h-16v-16h16zm16-96h-48v48h48zm-16 32h-16v-16h16zm80 96h-48v48h48zm-16 32h-16v-16h16zm16-96h-48v48h48zm-16 32h-16v-16h16zm16-96h-48v48h48zm-16 32h-16v-16h16zm80 96h-48v48h48zm-16 32h-16v-16h16zm16-96h-48v48h48zm-16 32h-16v-16h16zm16-96h-48v48h48zm-16 32h-16v-16h16z" opacity="1" data-original="url(#a)"></path></g></svg>