<svg xmlns="http://www.w3.org/2000/svg" version="1.1" xmlns:xlink="http://www.w3.org/1999/xlink" width="512" height="512" x="0" y="0" viewBox="0 0 491.5 491.5" style="enable-background:new 0 0 512 512" xml:space="preserve" class=""><rect width="491.5" height="491.5" rx="98.3" ry="98.3" fill="#bac8d3" shape="rounded"></rect><g transform="matrix(0.7,0,0,0.7,73.71013469696047,63.73999633789063)"><linearGradient id="a" x1="245.759" x2="245.759" y1="25.909" y2="465.611" gradientUnits="userSpaceOnUse"><stop offset="0" stop-color="#f704fe"></stop><stop offset="1" stop-color="#24bce3"></stop></linearGradient><path fill="url(#a)" d="M321.3 94.8c16.9 9.3 18.5 23.7 19.7 35.2v.1c.2 2.2.5 4.3.7 6.4.4 3.2.8 6.4 1.1 9.7 1.5 16.5 8.4 20.7 33.3 20.4h52.1c5.7 0 10-.9 11.6-1.8 12.9-7.1 11.9-39.2 2.3-63.2-8.1-20.1-32.3-37.1-70.1-49-34.8-11-79.7-17.1-126.2-17.1s-91.4 6.1-126.2 17.1c-37.8 11.9-62 28.9-70.1 49.1-9.6 24-10.7 56.1 2.3 63.2 1.6.9 5.9 1.8 11.6 1.8h52c25 .3 31.8-3.9 33.3-20.4.3-3.3.7-6.5 1.1-9.7.3-2.1.5-4.2.7-6.4v-.1c1.2-11.5 2.8-25.9 19.7-35.2 14.3-7.9 48.4-10.7 75.5-10.7S307 87 321.3 94.8zm52 81.5c-20 0-37.6-3.1-39.9-29.2-.3-3.1-.7-6.2-1-9.4-.3-2.1-.5-4.3-.8-6.5v-.1c-1.2-10.8-2.3-20.9-14.8-27.8-23.2-12.8-118.7-12.8-141.9 0-12.6 6.9-13.7 17.1-14.8 27.8v.1c-.2 2.2-.5 4.4-.8 6.5-.4 3.2-.8 6.3-1 9.4-2.5 27.4-21.8 29.4-43 29.2H63.4c-6.8 0-12.7-1.1-16.2-3-18.6-10.2-17.9-47-6.6-75.2 9.2-22.9 35.5-41.8 76.1-54.6C152.5 32.2 198.3 26 245.8 26s93.3 6.2 129.1 17.5c40.6 12.8 67 31.7 76.1 54.6 11.3 28.2 12 65-6.6 75.2-3.5 1.9-9.4 3-16.2 3h-54.9zM49 400.8c-4.6 0-8.3 3.7-8.3 8.3v38.6c0 4.6 3.7 8.3 8.3 8.3h393.4c4.6 0 8.3-3.7 8.3-8.3v-38.6c0-4.6-3.7-8.3-8.3-8.3zm393.5 64.8H49c-9.9 0-17.9-8-17.9-17.9v-38.6c0-9.9 8-17.9 17.9-17.9h393.4c9.9 0 17.9 8 17.9 17.9v38.6c.1 9.9-8 17.9-17.8 17.9zM245.8 178.1c-52.1 0-94.4 42.4-94.4 94.4 0 52.1 42.3 94.4 94.4 94.4s94.4-42.4 94.4-94.4-42.4-94.4-94.4-94.4zm0 198.5c-57.4 0-104-46.7-104-104 0-57.4 46.7-104 104-104 57.4 0 104 46.7 104 104s-46.7 104-104 104zm0-130c-14.3 0-25.9 11.6-25.9 25.9s11.6 25.9 25.9 25.9 26-11.6 26-25.9c-.1-14.2-11.7-25.9-26-25.9zm0 61.5c-19.6 0-35.5-15.9-35.5-35.5s15.9-35.5 35.5-35.5 35.6 15.9 35.6 35.5c-.1 19.6-16 35.5-35.6 35.5zM54.3 400.8c-2.7 0-4.8-2.1-4.8-4.8v-76.8c0-.8.2-1.5.5-2.2l64.6-122.9c.8-1.6 2.5-2.6 4.2-2.6h63.4c2.7 0 4.8 2.2 4.8 4.8s-2.1 4.8-4.8 4.8h-60.5L59.1 320.4V396c0 2.7-2.2 4.8-4.8 4.8zm382.9 0c-2.7 0-4.8-2.1-4.8-4.8v-75.6l-62.7-119.3h-60.5c-2.7 0-4.8-2.1-4.8-4.8s2.2-4.8 4.8-4.8h63.4c1.8 0 3.4 1 4.2 2.6L441.5 317c.4.7.5 1.5.5 2.2V396c0 2.7-2.1 4.8-4.8 4.8zm-191.4-203c-5.4 0-9.8 4.4-9.8 9.8s4.4 9.8 9.8 9.8 9.8-4.4 9.8-9.8-4.4-9.8-9.8-9.8zm0 29.2c-10.7 0-19.4-8.7-19.4-19.4s8.7-19.4 19.4-19.4 19.4 8.7 19.4 19.4-8.7 19.4-19.4 19.4zm56.2 3.3c-1.7 0-3.4.4-4.9 1.3-2.3 1.3-3.9 3.4-4.6 6-.7 2.5-.3 5.2 1 7.4 1.3 2.3 3.4 3.9 6 4.6 2.5.7 5.2.3 7.4-1 2.3-1.3 3.9-3.4 4.6-6 .7-2.5.3-5.2-1-7.4-1.8-3.2-5.1-4.9-8.5-4.9zm.1 29.2c-1.7 0-3.4-.2-5-.7-5-1.3-9.2-4.6-11.8-9-2.6-4.5-3.3-9.7-1.9-14.7 1.3-5 4.5-9.2 9-11.8 9.3-5.4 21.2-2.2 26.5 7.1 2.6 4.5 3.3 9.7 1.9 14.7-1.3 5-4.5 9.2-9 11.8-3 1.7-6.4 2.6-9.7 2.6zm0 35.7c-.9 0-1.7.1-2.6.3-2.5.7-4.6 2.3-6 4.6-1.3 2.3-1.7 4.9-1 7.4s2.3 4.6 4.6 6c4.7 2.7 10.7 1.1 13.4-3.6s1.1-10.7-3.6-13.4c-1.5-.8-3.1-1.3-4.8-1.3zm-.1 29.3c-3.3 0-6.6-.8-9.7-2.6-4.5-2.6-7.7-6.8-9-11.8s-.6-10.2 1.9-14.7c2.6-4.5 6.8-7.7 11.8-9s10.2-.7 14.7 1.9c9.3 5.4 12.5 17.2 7.1 26.5-3.5 6.2-10.1 9.7-16.8 9.7zm-56.2 3.2c-5.4 0-9.8 4.4-9.8 9.8s4.4 9.8 9.8 9.8 9.8-4.4 9.8-9.8-4.4-9.8-9.8-9.8zm0 29.3c-10.7 0-19.4-8.7-19.4-19.4s8.7-19.4 19.4-19.4 19.4 8.7 19.4 19.4-8.7 19.4-19.4 19.4zm-56.3-61.8c-1.7 0-3.4.4-4.9 1.3-4.7 2.7-6.3 8.7-3.6 13.4s8.7 6.3 13.4 3.6 6.3-8.7 3.6-13.4a9.86 9.86 0 0 0-8.5-4.9zm0 29.3c-6.7 0-13.3-3.5-16.9-9.7-5.3-9.3-2.2-21.2 7.1-26.5 9.3-5.4 21.2-2.2 26.5 7.1 5.4 9.3 2.2 21.2-7.1 26.5-3 1.7-6.3 2.6-9.6 2.6zm0-94.2c-3.4 0-6.7 1.8-8.5 4.9-2.7 4.7-1.1 10.7 3.6 13.4 2.3 1.3 4.9 1.7 7.5 1 2.5-.7 4.6-2.3 6-4.6 2.7-4.7 1.1-10.7-3.6-13.4-1.7-.9-3.3-1.3-5-1.3zm0 29.2c-3.4 0-6.7-.9-9.7-2.6-9.3-5.4-12.5-17.2-7.1-26.5s17.2-12.5 26.5-7.1 12.5 17.2 7.1 26.5c-2.6 4.5-6.8 7.7-11.8 9-1.7.5-3.4.7-5 .7z" opacity="1" data-original="url(#a)"></path></g></svg>