<svg xmlns="http://www.w3.org/2000/svg" version="1.1" xmlns:xlink="http://www.w3.org/1999/xlink" width="512" height="512" x="0" y="0" viewBox="0 0 64 64" style="enable-background:new 0 0 512 512" xml:space="preserve" class=""><rect width="64" height="64" rx="12.8" ry="12.8" fill="#bac8d3" shape="rounded"></rect><g transform="matrix(0.9,0,0,0.9,3.1999999999999993,3.1999999999999993)"><linearGradient id="a" x1="16" x2="48" y1="32" y2="32" gradientUnits="userSpaceOnUse"><stop offset="0" stop-color="#00c0ff"></stop><stop offset="1" stop-color="#5558ff"></stop></linearGradient><path fill="url(#a)" d="M45 4H19c-1.654 0-3 1.346-3 3v50c0 1.654 1.346 3 3 3h26c1.654 0 3-1.346 3-3V7c0-1.654-1.346-3-3-3zm1 53c0 .552-.449 1-1 1H19c-.551 0-1-.448-1-1V7c0-.551.449-1 1-1h26c.551 0 1 .449 1 1zM29 8h6c1.316.022 1.313 1.978 0 2h-6c-1.316-.022-1.313-1.978 0-2zm11 0c1.314.022 1.314 1.978 0 2-1.314-.022-1.314-1.978 0-2zm.397 27.405c-1.251-1.25-3.432-1.25-4.682 0l-.817.817c-.05.05-.167.051-.219 0l-4.901-4.902c-.051-.051-.05-.167 0-.218l.817-.817c1.284-1.232 1.284-3.45 0-4.681L28.96 23.97c-1.25-1.251-3.431-1.251-4.681 0l-1.634 1.634c-2.18 2.092-2.18 5.856 0 7.948l9.802 9.802C33.51 44.415 34.921 45 36.422 45s2.913-.585 3.974-1.646l1.634-1.634a3.313 3.313 0 0 0 0-4.68l-1.633-1.635zm.22 4.9-1.635 1.634c-1.368 1.368-3.752 1.368-5.12 0l-9.801-9.801c-1.405-1.348-1.405-3.773 0-5.12l1.633-1.634c.247-.248.577-.384.927-.384s.679.136.926.384l1.634 1.634c.508.488.508 1.365 0 1.853l-.817.816c-.836.802-.836 2.247 0 3.048l4.9 4.9c.814.815 2.234.815 3.049 0l.816-.816c.495-.493 1.358-.495 1.853 0l1.634 1.634c.508.488.509 1.365 0 1.853z" opacity="1" data-original="url(#a)" class=""></path></g></svg>