<svg height="682pt" viewBox="-103 -21 682 682.66669" width="682pt" xmlns="http://www.w3.org/2000/svg"><path d="m403.769531 249.335938v-78.9375c0-93.957032-76.445312-170.398438-170.402343-170.398438-93.957032 0-170.402344 76.441406-170.402344 170.398438v78.9375c-37.609375.527343-68.046875 31.269531-68.046875 69.003906v252.632812c0 38.058594 30.964843 69.027344 69.027343 69.027344h338.84375c38.058594 0 69.027344-30.96875 69.027344-69.027344v-252.632812c0-37.734375-30.441406-68.476563-68.046875-69.003906zm-170.402343-211.835938c73.28125 0 132.902343 59.617188 132.902343 132.898438v78.914062h-36.734375v-78.789062c0-53.0625-43.140625-96.230469-96.171875-96.230469-53.027343 0-96.167969 43.167969-96.167969 96.230469v78.789062h-36.730468v-78.914062c0-73.28125 59.617187-132.898438 132.902344-132.898438zm58.667968 211.8125h-117.339844v-78.789062c0-32.382813 26.320313-58.730469 58.671876-58.730469 32.351562 0 58.667968 26.347656 58.667968 58.730469zm142.28125 321.660156c0 17.382813-14.144531 31.527344-31.527344 31.527344h-338.84375c-17.382812 0-31.527343-14.144531-31.527343-31.527344v-252.632812c0-17.382813 14.140625-31.527344 31.527343-31.527344h338.84375c17.382813 0 31.527344 14.144531 31.527344 31.527344zm0 0"/><path d="m330.203125 358-137.195313 148.59375-56.878906-57.898438c-7.261718-7.382812-19.132812-7.488281-26.519531-.234374-7.382813 7.261718-7.492187 19.132812-.234375 26.519531l70.683594 71.933593c3.523437 3.59375 8.34375 5.609376 13.375 5.609376h.285156c5.132812-.082032 10.007812-2.257813 13.488281-6.03125l150.546875-163.058594c7.027344-7.609375 6.550782-19.46875-1.054687-26.496094-7.609375-7.019531-19.472657-6.546875-26.496094 1.0625zm0 0"/></svg>