<?xml version="1.0" encoding="utf-8"?>
<svg version="1.1" id="Layer_1"
xmlns="http://www.w3.org/2000/svg"
xmlns:xlink="http://www.w3.org/1999/xlink"
width="84px" height="84px"
xml:space="preserve">
<g id="PathID_1" transform="matrix(0.554761, 0, 0, 0.554761, 0, 0)" opacity="1">
<path style="fill:#ff0000;fill-opacity:1" d="M149.85 76.4L148.35 91.15Q144 111.85 127.9 128.05Q106.05 150 75 150Q44 150 21.95 128.05Q5.85 112.2 1.35 91.15L0 76.4L0 74.9Q0 43.95 21.95 22.1Q44 0 75 0Q106.05 0 127.9 22.1Q149.85 43.95 149.85 74.9L149.85 76.4M116.8 16.25L16.35 117Q22.95 126.8 32.9 133.9L133.75 33.05Q126.85 23.35 116.8 16.25" />
</g>
<g id="PathID_2" transform="matrix(0.554761, 0, 0, 0.554761, 0, 0)" opacity="1">
</g>
</svg>
