<?xml version="1.0" encoding="iso-8859-1"?>
<!-- Generator: Adobe Illustrator 19.0.0, SVG Export Plug-In . SVG Version: 6.00 Build 0)  -->
<svg version="1.1" id="Capa_1" xmlns="http://www.w3.org/2000/svg" xmlns:xlink="http://www.w3.org/1999/xlink" x="0px" y="0px"
	 viewBox="0 0 446 446" style="enable-background:new 0 0 446 446;" xml:space="preserve">
<g>
	<g>
		<path d="M436.343,181.9l-39-3.8c-4.3-16.4-10.9-32.2-19.6-46.7l24.9-30.1c3.3-4,3-9.7-0.6-13.4l-43.4-44c-3.6-3.7-9.5-4-13.5-0.7
			l-30.1,24.9c-14.6-8.7-30.3-15.4-46.7-19.7l-3.8-39.2c-0.5-5.2-4.8-9.1-10-9.2h-62.4c-5.2,0.1-9.5,4-10,9.2l-3.8,39.2
			c-16.4,4.3-32.2,11-46.8,19.7l-30-24.9c-4-3.3-9.8-3-13.4,0.6l-44,44c-3.7,3.6-3.9,9.5-0.6,13.5l24.9,30.1
			c-8.7,14.6-15.4,30.3-19.7,46.7l-38.9,3.8c-5.1,0.5-8.9,4.8-8.8,10v62.3c-0.1,5.1,3.7,9.4,8.8,10l39,3.8
			c4.3,16.4,10.9,32.2,19.6,46.7l-24.9,30.1c-3.3,4-3,9.8,0.6,13.4l44,44c3.6,3.6,9.5,3.9,13.4,0.6l30.1-24.9
			c14.6,8.7,30.3,15.4,46.7,19.7l3.8,39.2c0.5,5.2,4.8,9.1,10,9.2h62.4c5.2-0.1,9.5-4,10-9.2l3.8-39.2c16.4-4.3,32.2-11,46.8-19.7
			l30,24.9c4,3.3,9.8,3,13.4-0.6l44-44c3.7-3.6,3.9-9.5,0.6-13.5l-25-30.1c8.7-14.6,15.4-30.3,19.7-46.7l38.3-3.8
			c5.1-0.5,8.9-4.9,8.8-10v-62.3C445.243,186.7,441.443,182.4,436.343,181.9z M425.443,245.1h-0.3l-36.4,3.6
			c-4.3,0.4-7.8,3.6-8.7,7.8c-4.2,19-11.8,37.1-22.5,53.4c-2.4,3.7-2.1,8.5,0.7,11.8l23.8,28.6l-31.1,31.1l-28.6-23.7
			c-3.4-2.8-8.2-3.1-11.9-0.6c-16.3,10.7-34.4,18.4-53.4,22.5c-4.3,1-7.4,4.6-7.8,8.9l-3.6,37.3h-44.2l-3.6-37.3
			c-0.4-4.3-3.6-7.9-7.8-8.9c-19.1-4.3-37.2-12-53.5-22.6c-3.7-2.4-8.4-2.1-11.8,0.7l-28.6,23.7l-31.1-31.1l23.7-28.7
			c2.8-3.4,3.1-8.2,0.6-11.9c-10.7-16.2-18.3-34.3-22.5-53.3c-0.8-4.2-4.3-7.4-8.6-7.8l-37-3.6v-44.1l37-3.6
			c4.3-0.4,7.8-3.6,8.7-7.8c4.2-19,11.8-37.1,22.5-53.4c2.4-3.7,2.1-8.4-0.7-11.8l-23.7-28.6l31.1-31.1l28.6,23.7
			c3.4,2.8,8.2,3.1,11.9,0.6c16.3-10.7,34.4-18.4,53.4-22.5c4.3-1,7.4-4.6,7.8-8.9l3.6-37.3h44.2l3.6,37.3c0.4,4.3,3.6,7.9,7.8,8.9
			c19.1,4.3,37.2,12,53.5,22.6c3.7,2.4,8.4,2.1,11.8-0.7l28.6-23.7l30.7,31l-23.7,28.7c-2.8,3.4-3.1,8.2-0.6,11.9
			c10.7,16.2,18.3,34.3,22.5,53.3c0.8,4.2,4.3,7.4,8.6,7.8l37,3.6V245.1z"/>
	</g>
</g>
<g>
	<g>
		<path d="M223.143,92.2c-72.1,0-130.8,58.7-130.8,130.8s58.7,130.8,130.8,130.8s130.8-58.7,130.8-130.8S295.243,92.2,223.143,92.2z
			 M223.143,333.8c-61.2,0-110.8-49.6-110.8-110.8s49.6-110.8,110.8-110.8s110.8,49.6,110.8,110.8S284.343,333.8,223.143,333.8z"/>
	</g>
</g>
<g>
	<g>
		<path d="M262.243,191.9h-13.4c-1.1-5-3-9.7-5.8-14h19.2v0.1c5.5,0,10-4.5,10-10s-4.5-10-10-10h-78.1c-5.5,0-10,4.5-10,10
			s4.5,10,10,10h22.4c9.4,0,17.5,6,21.3,14h-43.6c-5.5,0-10,4.5-10,10s4.5,10,10,10h43.7c-1.3,2.3-2.8,4.5-4.7,6.4
			c-4.4,4.4-10.4,6.7-16.6,6.6h-22.4c-5.6,0.1-10.1,4.7-10,10.4c0,2.7,1.2,5.3,3.1,7.1l55.9,52.9c4,3.8,10.3,3.6,14.1-0.4
			c3.8-4,3.6-10.3-0.4-14.1l-37.8-35.7c10.6-0.6,20.6-5.1,28.1-12.6c5.8-5.6,9.8-12.8,11.6-20.7h13.4c5.5,0,10-4.5,10-10
			S267.743,191.9,262.243,191.9z"/>
	</g>
</g>
<g>
</g>
<g>
</g>
<g>
</g>
<g>
</g>
<g>
</g>
<g>
</g>
<g>
</g>
<g>
</g>
<g>
</g>
<g>
</g>
<g>
</g>
<g>
</g>
<g>
</g>
<g>
</g>
<g>
</g>
</svg>
