<svg xmlns="http://www.w3.org/2000/svg" version="1.1" xmlns:xlink="http://www.w3.org/1999/xlink" width="512" height="512" x="0" y="0" viewBox="0 0 510 510" style="enable-background:new 0 0 512 512" xml:space="preserve" fill-rule="evenodd" class=""><rect width="510" height="510" rx="102" ry="102" fill="#bac8d3" shape="rounded"></rect><g transform="matrix(0.51,0,0,0.51,124.94999999999999,124.94999999999999)"><linearGradient id="a" x1="0" x2="1" y1="0" y2="0" gradientTransform="scale(714.527) rotate(-44.234 .858 .35)" gradientUnits="userSpaceOnUse"><stop offset="0" stop-color="#fcc60e"></stop><stop offset="1" stop-color="#e92e29"></stop></linearGradient><path fill="url(#a)" d="M359.2 290.082a628.281 628.281 0 0 0-.701-65.723v-.003c-3.218-51.602-48.171-91.249-99.772-87.995l-.006.001c-33.535 2.087-62.001 21.807-76.964 49.541-2.096 3.886-6.953 5.338-10.839 3.242a8.004 8.004 0 0 1-3.242-10.84c17.503-32.44 50.822-55.47 90.048-57.912 60.379-3.805 112.977 42.586 116.744 102.966a644.649 644.649 0 0 1 .745 66.762 87.292 87.292 0 0 1 32.428 9.607c.165-3.073.308-6.147.431-9.223.176-4.411 3.901-7.85 8.313-7.674s7.85 3.901 7.674 8.312c-.25 6.288-.587 12.57-1.01 18.844 19.529 16.18 32.01 40.598 32.01 67.819 0 48.48-39.588 88.067-88.067 88.067-48.48 0-88.067-39.587-88.067-88.067 0-26.247 11.603-49.888 29.94-66.051a575.97 575.97 0 0 0 .896-84.325c-1.566-24.816-23.185-43.86-47.969-42.33-24.816 1.567-43.859 23.189-42.326 47.973a487.22 487.22 0 0 1 .311 55.982 8.003 8.003 0 0 1-8.407 7.571c-4.409-.231-7.802-3.998-7.571-8.407.943-18.038.83-36.113-.302-54.151l-.001-.007c-2.074-33.547 23.704-62.811 57.294-64.93l.01-.001c33.546-2.074 62.811 23.704 64.93 57.294v.005a593.041 593.041 0 0 1 .034 73.604 87.325 87.325 0 0 1 33.436-9.951zm7.792 159.791c39.672 0 72.067-32.395 72.067-72.067s-32.395-72.067-72.067-72.067-72.067 32.395-72.067 72.067 32.395 72.067 72.067 72.067zm-43.304-64.17a8.004 8.004 0 0 1 0-11.314 8.003 8.003 0 0 1 11.313 0l16.575 16.575 47.686-43.287c3.269-2.967 8.333-2.723 11.3.547a8.003 8.003 0 0 1-.546 11.3l-53.329 48.411a8 8 0 0 1-11.034-.267zM256.61 230.731a8.004 8.004 0 0 1 7.481-8.487 8.004 8.004 0 0 1 8.487 7.481c3.313 52.529-.629 111.136-17.112 171.654a8.005 8.005 0 0 1-9.822 5.616c-4.26-1.16-6.776-5.561-5.616-9.821 15.983-58.68 19.794-115.509 16.582-166.443zM101.467 388.194a8.004 8.004 0 0 1-10.227 4.838 8.004 8.004 0 0 1-4.838-10.228c16.327-45.642 22.621-94.027 19.58-142.597a8.003 8.003 0 0 1 7.485-8.484 8.003 8.003 0 0 1 8.484 7.484c3.177 50.748-3.425 101.298-20.484 148.987zm33.497-218.116a8.003 8.003 0 0 1-10.621 3.896 8.003 8.003 0 0 1-3.896-10.622c24.449-52.778 75.934-88.099 134.208-91.736a8.004 8.004 0 0 1 8.483 7.486 8.004 8.004 0 0 1-7.486 8.483c-52.403 3.271-98.702 35.032-120.688 82.493zm181.418-73.082a8.003 8.003 0 0 1-4.558-10.355 8.004 8.004 0 0 1 10.355-4.557c57.585 22.387 97.186 76.214 101.065 138.204a8.004 8.004 0 0 1-7.484 8.484 8.004 8.004 0 0 1-8.485-7.485c-3.488-55.749-39.105-104.157-90.893-124.291zM138.596 427.357a8.004 8.004 0 0 1-10.496 4.223c-4.062-1.73-5.954-6.433-4.224-10.495a393.427 393.427 0 0 0 26.027-88.837c5.272-31.405 6.813-63.375 4.855-95.119-.272-4.407 3.086-8.205 7.493-8.477s8.205 3.085 8.477 7.492c2.033 32.958.428 66.15-5.046 98.756l-.001.007a409.516 409.516 0 0 1-27.085 92.45zm54.856-6.19a8.004 8.004 0 0 1-10.233 4.827 8.004 8.004 0 0 1-4.826-10.233c8.782-24.461 15.339-49.713 19.673-75.418a8.004 8.004 0 0 1 9.219-6.559c4.354.735 7.293 4.865 6.559 9.219-4.493 26.641-11.29 52.813-20.392 78.164zM99.834 487c4.416 0 8 3.585 8 8s-3.584 8-8 8H15a8 8 0 0 1-8-8v-84.834c0-4.416 3.585-8 8-8s8 3.584 8 8V487zm310.332 16c-4.416 0-8-3.585-8-8s3.584-8 8-8H487v-76.834c0-4.416 3.585-8 8-8s8 3.584 8 8V495a8 8 0 0 1-8 8zm0-480c-4.416 0-8-3.585-8-8s3.584-8 8-8H495a8 8 0 0 1 8 8v84.834c0 4.416-3.585 8-8 8s-8-3.584-8-8V23zM23 99.834c0 4.416-3.585 8-8 8s-8-3.584-8-8V15a8 8 0 0 1 8-8h84.834c4.416 0 8 3.585 8 8s-3.584 8-8 8H23zM15 263c-4.415 0-8-3.585-8-8s3.585-8 8-8h75.294c4.416 0 8 3.585 8 8s-3.584 8-8 8zm403.142 0c-4.416 0-8-3.585-8-8s3.584-8 8-8h75.294c4.415 0 8 3.585 8 8s-3.585 8-8 8z" opacity="1" data-original="url(#a)"></path></g></svg>