<svg xmlns="http://www.w3.org/2000/svg" version="1.1" xmlns:xlink="http://www.w3.org/1999/xlink" width="512" height="512" x="0" y="0" viewBox="0 0 64 64" style="enable-background:new 0 0 512 512" xml:space="preserve"><rect width="64" height="64" rx="12.8" ry="12.8" fill="#bac8d3" shape="rounded"></rect><g transform="matrix(0.6399999999999999,0,0,0.6399999999999999,11.520000000000003,11.520000514984133)"><linearGradient id="a" x1="4" x2="60" y1="32" y2="32" gradientUnits="userSpaceOnUse"><stop offset="0" stop-color="#00c0ff"></stop><stop offset="1" stop-color="#5558ff"></stop></linearGradient><path fill="url(#a)" d="M56 34.01H25v-1.25a3.002 3.002 0 0 0-3-3h-1V7.495a3 3 0 0 0-6 0V29.76h-1a3.002 3.002 0 0 0-3 3v1.25H8a3.999 3.999 0 0 0-4 4v13a4.005 4.005 0 0 0 4 4h3v2.495a2.002 2.002 0 0 0 2 2h2a2.002 2.002 0 0 0 2-2V55.01h30v2.495a2.002 2.002 0 0 0 2 2h2a2.002 2.002 0 0 0 2-2V55.01h3a4.005 4.005 0 0 0 4-4v-13a3.999 3.999 0 0 0-4-4zM17 7.495a1 1 0 0 1 2 0V29.76h-2zm-2 50.01h-2V55.01h2zm36 0h-2V55.01h2zm7-6.495a2.006 2.006 0 0 1-2 2h-3.977c.006.017-3.987-.012-4 0-2.146.004-35.264-.003-36.046 0H8a2.006 2.006 0 0 1-2-2v-13a2 2 0 0 1 2-2h4a1.003 1.003 0 0 0 1-1v-2.25a.997.997 0 0 1 1-1h2c1.35-.002 4.701.001 6 0a.997.997 0 0 1 1 1v2.25a1.003 1.003 0 0 0 1 1h32a2 2 0 0 1 2 2zm-22-9.75a1.5 1.5 0 0 1 0-3 1.5 1.5 0 0 1 0 3zm8 0a1.5 1.5 0 0 1 0-3 1.5 1.5 0 0 1 0 3zm8 0a1.5 1.5 0 0 1 0-3 1.5 1.5 0 0 1 0 3zm-3.868-17.53a5.85 5.85 0 0 0-8.265 0 1 1 0 0 1-1.414-.004C36.91 21.792 42.548 19.775 44 20.02a7.818 7.818 0 0 1 5.541 2.29 1 1 0 1 1-1.409 1.42zm3.65-3.662a11.074 11.074 0 0 0-15.565 0 1 1 0 0 1-1.414-1.414 13.083 13.083 0 0 1 18.394 0 1 1 0 1 1-1.414 1.414zm-19.808-5.245a17.11 17.11 0 0 1 24.052 0 1 1 0 0 1-1.412 1.416 15.101 15.101 0 0 0-21.228 0 1 1 0 0 1-1.412-1.416zM41.5 26.851a2.5 2.5 0 0 0 5 0 2.5 2.5 0 0 0-5 0zm3 0a.5.5 0 0 1-1 0 .5.5 0 0 1 1 0z" opacity="1" data-original="url(#a)"></path></g></svg>