<svg xmlns="http://www.w3.org/2000/svg" version="1.1" xmlns:xlink="http://www.w3.org/1999/xlink" width="512" height="512" x="0" y="0" viewBox="0 0 512 512" style="enable-background:new 0 0 512 512" xml:space="preserve"><rect width="512" height="512" rx="102.4" ry="102.4" fill="#bac8d3" shape="rounded"></rect><g transform="matrix(0.69,0,0,0.69,79.35984035491944,79.3601868438721)"><linearGradient id="a" x1="87.412" x2="423.887" y1="460.133" y2="123.658" gradientUnits="userSpaceOnUse"><stop offset="0" stop-color="#0176fe"></stop><stop offset="1" stop-color="#f5a218"></stop></linearGradient><path fill="url(#a)" d="M313.976 94.338H198.024c-11.308 0-20.506 9.199-20.506 20.504 0 11.308 9.199 20.506 20.506 20.506h115.952c11.308 0 20.506-9.199 20.506-20.506 0-11.305-9.199-20.504-20.506-20.504zm0 27.976H198.024c-4.12 0-7.472-3.352-7.472-7.472 0-4.118 3.352-7.47 7.472-7.47h115.952c4.12 0 7.472 3.352 7.472 7.47 0 4.12-3.352 7.472-7.472 7.472zM141.478 314.68c-9.23-1.627-17.706 5.501-17.706 14.882v20.519c0 8.331 6.776 15.107 15.109 15.107h33.303c13.802 0 25.034-11.229 25.034-25.034a18.702 18.702 0 0 0-15.512-18.455zm42.706 25.475c0 6.617-5.384 11.999-11.999 11.999h-33.303a2.075 2.075 0 0 1-2.075-2.073v-20.519c0-1.188.975-2.075 2.062-2.075.455 0-1.091-.21 40.597 7.052a5.691 5.691 0 0 1 4.718 5.616zm186.338-25.475-40.228 7.02a18.701 18.701 0 0 0-15.512 18.455c0 13.805 11.231 25.034 25.034 25.034h33.303c8.333 0 15.109-6.776 15.109-15.107v-20.519c0-9.369-8.449-16.502-17.706-14.883zm4.671 14.882v20.519a2.075 2.075 0 0 1-2.075 2.073h-33.303c-6.615 0-11.999-5.382-11.999-11.999a5.692 5.692 0 0 1 4.718-5.616l40.228-7.02a2.072 2.072 0 0 1 2.431 2.043zm-77.536-6.299c0 3.6-2.919 6.517-6.517 6.517h-70.28a6.517 6.517 0 0 1 0-13.034h70.281a6.517 6.517 0 0 1 6.516 6.517zm0 38.015c0 3.6-2.919 6.517-6.517 6.517h-70.28a6.517 6.517 0 0 1 0-13.034h70.281a6.517 6.517 0 0 1 6.516 6.517zm-252.38-85.557h28.258c7.188 0 13.034-5.847 13.034-13.034V211.93c0-7.185-5.847-13.032-13.034-13.032h-7.612v-16.887a4.68 4.68 0 0 1 4.676-4.676h23.582l.017 207.84c0 10.709 8.694 19.42 19.378 19.42h.458v28.377h-38.05a6.517 6.517 0 0 0 0 13.034h360.033a6.517 6.517 0 0 0 0-13.034h-38.051v-28.377h.458c10.684 0 19.378-8.711 19.378-19.42v-44.231a6.517 6.517 0 0 0-13.034 0v44.231c0 3.522-2.847 6.386-6.343 6.386H113.576c-3.496 0-6.343-2.864-6.343-6.386V282.997c103.396 15.826 200.373 14.514 297.534.019v24.471a6.517 6.517 0 0 0 13.034 0v-31.972c.001-.033.017-.061.017-.094v-98.087H441.4a4.68 4.68 0 0 1 4.676 4.676v16.887h-7.612c-7.188 0-13.034 5.847-13.034 13.032v50.757c0 7.188 5.847 13.034 13.034 13.034h28.258c7.188 0 13.034-5.847 13.034-13.034V211.93c0-7.185-5.847-13.032-13.034-13.032h-7.612v-16.887c0-9.765-7.943-17.71-17.71-17.71h-23.582l-.017-22.305c0-24.159-14.07-45.264-35.004-52.513-89.365-31.109-175.315-31.313-255.478-.628-19.81 7.595-33.121 28.373-33.121 51.707l-.017 23.739H70.599c-9.767 0-17.71 7.945-17.71 17.71v16.887h-7.612c-7.188 0-13.034 5.847-13.034 13.032v50.757c0 7.187 5.847 13.034 13.034 13.034zM349.91 404.595h35.021v28.377H349.91zm-174.785 0h161.75v28.377h-161.75zm-48.056 0h35.021v28.377h-35.021zm325.525-192.663.011-.001 14.118-.001v50.757h-28.258v-50.754l14.118-.001h.011zm-47.827 57.915c-46.937 7.144-102.579 10.518-142.25 11.367V161.871l142.25-.07zM107.233 140.561c0-17.973 9.946-33.861 24.749-39.534 77.214-29.554 160.159-29.298 246.538.768 15.453 5.35 26.247 21.881 26.247 40.2v6.77H107.233zm0 21.238h142.25v119.487a969.988 969.988 0 0 1-142.25-11.429zm-61.956 50.133 14.087-.004c.014 0 .028.004.042.004.015 0 .028-.004.042-.004l14.087-.004v50.763H45.277z" opacity="1" data-original="url(#a)"></path></g></svg>