<svg xmlns="http://www.w3.org/2000/svg" version="1.1" xmlns:xlink="http://www.w3.org/1999/xlink" width="512" height="512" x="0" y="0" viewBox="0 0 3873 3873" style="enable-background:new 0 0 512 512" xml:space="preserve"><rect width="3873" height="3873" rx="774.6" ry="774.6" fill="#bac8d3" shape="rounded"></rect><g transform="matrix(0.69,0,0,0.69,600.9194895935061,602.1129583740235)"><linearGradient id="a" x1="616.905" x2="3260.029" y1="2762.226" y2="119.102" gradientTransform="matrix(1 0 0 -1 0 3382.983)" gradientUnits="userSpaceOnUse"><stop offset="0" stop-color="#d33230"></stop><stop offset="1" stop-color="#fd8f04"></stop></linearGradient><path fill="url(#a)" fill-rule="evenodd" d="M3674.9 1102.7c0-89.4-72.7-162.2-162.2-162.2H364.2c-89.4 0-162.2 72.7-162.2 162.2v1679.2c0 89.5 72.7 162.2 162.2 162.2h3148.5c89.5 0 162.2-72.7 162.2-162.2zm-79.5 1679.2c0 45.7-37.1 82.7-82.7 82.7H364.3c-45.6 0-82.7-37.1-82.7-82.7V1102.7c0-45.6 37.1-82.7 82.7-82.7h3148.4c45.7 0 82.7 37.1 82.7 82.7zM1553.8 1329.6H548c-22 0-39.8 17.8-39.8 39.8v1145.7c0 22 17.8 39.8 39.8 39.8h1005.9c22 0 39.8-17.8 39.8-39.8V1369.5c-.2-22-18-39.9-39.9-39.9zm-755.7 993.3c0-111.8 131.1-162.7 252.8-162.7 68.4 0 134.1 16.3 180.3 44.7 48.1 29.6 72.5 69.3 72.5 118v152.4H798.1zm715.9 152.4h-130.8v-152.4c0-166.4-172.2-242.2-332.3-242.2s-332.3 75.8-332.3 242.2v152.4H587.7V1409.2h926.2zm1776.1-1105.8c0 22-17.8 39.8-39.8 39.8H1938.5c-22 0-39.8-17.8-39.8-39.8s17.8-39.8 39.8-39.8h1311.9c22 0 39.7 17.8 39.7 39.8zm0 396.5c0 22-17.8 39.8-39.8 39.8H1938.5c-22 0-39.8-17.8-39.8-39.8s17.8-39.8 39.8-39.8h1311.9c22 0 39.7 17.7 39.7 39.8zm0 396.4c0 22-17.8 39.8-39.8 39.8H1938.5c-22 0-39.8-17.8-39.8-39.8s17.8-39.8 39.8-39.8h1311.9c22 .1 39.7 17.9 39.7 39.8zm0 396.5c0 22-17.8 39.8-39.8 39.8H1938.5c-22 0-39.8-17.8-39.8-39.8s17.8-39.8 39.8-39.8h1311.9c22 0 39.7 17.9 39.7 39.8zm-2239.3-569.4c120.8 0 219-98.2 219-219s-98.2-219-219-219-219 98.2-219 219c.1 120.8 98.3 219 219 219zm0-358.4c76.9 0 139.4 62.6 139.4 139.4 0 76.9-62.6 139.4-139.4 139.4-76.9 0-139.4-62.6-139.4-139.4s62.6-139.4 139.4-139.4z" clip-rule="evenodd" opacity="1" data-original="url(#a)"></path></g></svg>