<svg xmlns="http://www.w3.org/2000/svg" version="1.1" xmlns:xlink="http://www.w3.org/1999/xlink" width="512" height="512" x="0" y="0" viewBox="0 0 2000 2000" style="enable-background:new 0 0 512 512" xml:space="preserve"><rect width="2000" height="2000" rx="400" ry="400" fill="#bac8d3" shape="rounded"></rect><g transform="matrix(0.8200000000000001,0,0,0.8200000000000001,180.00002197265633,155.0002416992188)"><linearGradient id="a" x1="388.945" x2="1611.055" y1="1000.001" y2="1000.001" gradientUnits="userSpaceOnUse"><stop offset="0" stop-color="#0ff"></stop><stop offset="1" stop-color="#0071bc"></stop></linearGradient><path fill="url(#a)" d="M1138.601 696.817H658.13c-99.483 0-180.417 80.934-180.417 180.417v411.556c0 99.482 80.934 180.417 180.417 180.417H1138.6c99.482 0 180.418-80.935 180.418-180.417V877.234c0-99.483-80.936-180.417-180.418-180.417zm125.418 591.973c0 69.155-56.263 125.417-125.418 125.417H658.13c-69.155 0-125.417-56.262-125.417-125.417V877.234c0-69.155 56.262-125.417 125.417-125.417H1138.6c69.155 0 125.418 56.262 125.418 125.417zm171.919-403.945c-44.457 0-80.625 36.168-80.625 80.624s36.168 80.624 80.625 80.624c44.456 0 80.624-36.168 80.624-80.624s-36.168-80.624-80.624-80.624zm0 106.248c-14.13 0-25.625-11.494-25.625-25.624s11.496-25.624 25.625-25.624 25.624 11.495 25.624 25.624-11.495 25.624-25.624 25.624zm50.055 267.865h-106.249c-15.188 0-27.5 12.312-27.5 27.5s12.312 27.5 27.5 27.5h106.249c15.188 0 27.5-12.312 27.5-27.5s-12.312-27.5-27.5-27.5zm3.069-178.498h-106.249c-15.188 0-27.5 12.312-27.5 27.5s12.312 27.5 27.5 27.5h106.249c15.188 0 27.5-12.312 27.5-27.5s-12.312-27.5-27.5-27.5zm-14.382-472.411h-272.688v-13.196c0-42.659-34.705-77.364-77.364-77.364h-35.266l100.428-101.777c10.667-10.811 10.55-28.223-.26-38.89-10.811-10.668-28.223-10.552-38.89.26l-138.546 140.407h-38.1L748.537 281.023c-10.481-10.992-27.889-11.405-38.88-.926-10.992 10.48-11.407 27.887-.927 38.88l189.271 198.512h-22.629c-42.659 0-77.364 34.705-77.364 77.364v13.196H525.32c-75.198 0-136.375 61.177-136.375 136.374V1421.6c0 73.759 58.86 134.02 132.076 136.3l.742 142.244a27.5 27.5 0 0 0 50.414 15.06l104.316-157.23h647.014l104.316 157.23a27.502 27.502 0 0 0 22.916 12.298 27.5 27.5 0 0 0 27.498-27.358l.742-142.244c73.216-2.28 132.076-62.541 132.076-136.3V744.423c0-75.197-61.177-136.374-136.375-136.374zm-621.672-13.196c0-12.332 10.033-22.364 22.364-22.364h249.256c12.331 0 22.364 10.032 22.364 22.364v13.196H853.008zM576.291 1609.519l-.269-51.544h34.467zm847.418 0-34.198-51.544h34.467zm132.346-187.919c0 44.87-36.505 81.375-81.375 81.375H525.32c-44.87 0-81.375-36.505-81.375-81.375V744.423c0-44.87 36.505-81.374 81.375-81.374h949.36c44.87 0 81.375 36.504 81.375 81.374zm-68.528-251.891H1381.28c-15.188 0-27.5 12.312-27.5 27.5s12.312 27.5 27.5 27.5h106.248c15.188 0 27.5-12.312 27.5-27.5s-12.312-27.5-27.5-27.5z" opacity="1" data-original="url(#a)"></path></g></svg>