<svg xmlns="http://www.w3.org/2000/svg" version="1.1" xmlns:xlink="http://www.w3.org/1999/xlink" width="512" height="512" x="0" y="0" viewBox="0 0 128 128" style="enable-background:new 0 0 512 512" xml:space="preserve" class=""><rect width="128" height="128" rx="25.6" ry="25.6" fill="#bac8d3" shape="rounded"></rect><g transform="matrix(0.7499999999999999,0,0,0.7499999999999999,15.997500896453857,16.000000476837165)"><linearGradient id="a" x1="102.871" x2="25.114" y1="106.335" y2="28.578" gradientUnits="userSpaceOnUse"><stop offset="0" stop-color="#fd5c70"></stop><stop offset="1" stop-color="#ffce64"></stop></linearGradient><path fill="url(#a)" d="M108.99 42.81h-1.543v-5.4a1.749 1.749 0 0 0-1.75-1.75h-1.861v-5.4a1.749 1.749 0 0 0-1.75-1.75H25.9a1.749 1.749 0 0 0-1.75 1.75v5.4h-1.858a1.75 1.75 0 0 0-1.75 1.75v5.4H18.99a1.75 1.75 0 0 0-1.75 1.75v53.18a1.75 1.75 0 0 0 1.75 1.75h51.86a1.75 1.75 0 0 0 0-3.5H20.74V46.31h86.5v49.68H94.05a1.75 1.75 0 0 0 0 3.5h14.94a1.75 1.75 0 0 0 1.75-1.75V44.56a1.75 1.75 0 0 0-1.75-1.75zm-81.337-10.8h72.683v3.647H27.653zm-3.611 7.147h79.905v3.653h-79.9zM86.68 97.74a1.75 1.75 0 0 1-1.75 1.75h-4.97a1.75 1.75 0 0 1 0-3.5h4.97a1.75 1.75 0 0 1 1.75 1.75zm7.47-8.347a6.736 6.736 0 0 1 6.692-6.728 1.747 1.747 0 0 0 1.9-1.744V61.375a1.772 1.772 0 0 0-1.868-1.744A6.735 6.735 0 0 1 94.15 52.9a1.749 1.749 0 0 0-1.75-1.75H35.472a1.75 1.75 0 0 0-1.75 1.75A6.735 6.735 0 0 1 27 59.631a1.749 1.749 0 0 0-1.75 1.75v19.534a1.749 1.749 0 0 0 1.75 1.75 6.735 6.735 0 0 1 6.727 6.728 1.751 1.751 0 0 0 1.75 1.75H92.4a1.75 1.75 0 0 0 1.75-1.75zm-57.078-1.75a10.254 10.254 0 0 0-8.327-8.328V62.981a10.254 10.254 0 0 0 8.327-8.328H90.8A10.254 10.254 0 0 0 99.245 63v16.3a10.254 10.254 0 0 0-8.445 8.343zM64 58.522a12.626 12.626 0 1 0 12.62 12.625A12.639 12.639 0 0 0 64 58.522zm0 21.751a9.126 9.126 0 1 1 9.125-9.126A9.136 9.136 0 0 1 64 80.273z" opacity="1" data-original="url(#a)"></path></g></svg>