<svg xmlns="http://www.w3.org/2000/svg" version="1.1" xmlns:xlink="http://www.w3.org/1999/xlink" width="512" height="512" x="0" y="0" viewBox="0 0 512 512" style="enable-background:new 0 0 512 512" xml:space="preserve" class=""><rect width="512" height="512" rx="102.4" ry="102.4" fill="#bac8d3" shape="rounded"></rect><g transform="matrix(0.5800000000000001,0,0,0.5800000000000001,107.5208333864808,107.51958343505856)"><linearGradient id="a" x1="256.002" x2="256.002" y1="427.78" y2="84.22" gradientUnits="userSpaceOnUse"><stop offset="0" stop-color="#6c54a3"></stop><stop offset="1" stop-color="#00b1d2"></stop></linearGradient><path fill="url(#a)" fill-rule="evenodd" d="M202.691 385.013H65.97V369.93h136.721zm5.992-27.08H59.978a6 6 0 0 0-5.992 6v27.08a6 6 0 0 0 5.992 6h148.7a6 6 0 0 0 5.991-6v-27.08a5.994 5.994 0 0 0-5.991-6zm281.557 57.849a9.783 9.783 0 0 0 9.766-9.77V207.789H12v198.223a9.784 9.784 0 0 0 9.766 9.77zm9.766-243.263v23.268H12v-23.268zM21.764 96.218H490.24a9.787 9.787 0 0 1 9.766 9.775v54.529H12v-54.529a9.787 9.787 0 0 1 9.766-9.775zm468.476-12H21.764A21.791 21.791 0 0 0 .015 105.993v300.019a21.793 21.793 0 0 0 21.749 21.768H490.24a21.792 21.792 0 0 0 21.749-21.768V105.993a21.79 21.79 0 0 0-21.749-21.772z" opacity="1" data-original="url(#a)"></path></g></svg>