<svg xmlns="http://www.w3.org/2000/svg" version="1.1" xmlns:xlink="http://www.w3.org/1999/xlink" width="512" height="512" x="0" y="0" viewBox="0 0 24 24" style="enable-background:new 0 0 512 512" xml:space="preserve" class=""><rect width="24" height="24" rx="4.8" ry="4.8" fill="#bac8d3" shape="rounded"></rect><g transform="matrix(0.6799999999999999,0,0,0.6799999999999999,3.840022430419923,3.803722343444825)"><linearGradient id="a" x1="12" x2="12" y1="-.25" y2="24.023" gradientUnits="userSpaceOnUse"><stop offset="0" stop-color="#ce9ffc"></stop><stop offset=".979" stop-color="#7367f0"></stop></linearGradient><path fill="url(#a)" d="m12.506 3.623-1.023 1.772c-2.91-.879-5.514-.45-6.411 1.105-1.178 2.04.79 5.652 4.678 7.897s8 2.142 9.178.103c.898-1.555-.033-4.024-2.25-6.105l1.024-1.772c3.082 2.709 4.463 6.27 2.958 8.877-1.86 3.222-7.19 3.355-11.91.63C4.029 13.402 1.48 8.721 3.34 5.5c1.505-2.607 5.28-3.192 9.166-1.877zm3.378-1.85 1.732 1-5 8.66-1.732-1zM6.732 20H17v2H5.017A.994.994 0 0 1 4 21c0-.175.046-.348.133-.5l2.25-3.897 1.732 1z" opacity="1" data-original="url(#a)"></path></g></svg>