<svg xmlns="http://www.w3.org/2000/svg" version="1.1" xmlns:xlink="http://www.w3.org/1999/xlink" width="512" height="512" x="0" y="0" viewBox="0 0 496 495" style="enable-background:new 0 0 512 512" xml:space="preserve"><rect width="496" height="495" rx="99.2" ry="99.2" fill="#bac8d3" shape="rounded"></rect><g transform="matrix(0.57,0,0,0.57,101.64000000000001,106.84983934879304)"><linearGradient id="a" x1="248" x2="248" y1="496.478" y2=".499" gradientUnits="userSpaceOnUse"><stop offset="0" stop-color="#9f2fff"></stop><stop offset="1" stop-color="#0bb1d3"></stop></linearGradient><path fill="url(#a)" d="M192 400.477h96v-64h-96zm16-48h64v32h-64zm-16-48h96v16h-96zm96-32v16h-96v-16zm48 32h96v16h-96zm0 32h96v16h-96zm0 32h96v16h-96zM91.742 94.352l-6.62-14.563 85.589-38.902 6.625 14.558zM11.97 115.07 48 131.445v97.563l3.879 2.328c1.273.758 24.465 14.262 76.121 21.148v211.993h144.809c3.718 18.234 19.87 32 39.191 32s35.48-13.766 39.191-32H496v-224h-32v-48h-65.473A23.977 23.977 0 0 0 384 177.949v-55.976l-18.625-3.88 6.648-3.023C379.297 111.766 384 104.47 384 96.477c0-7.993-4.703-15.286-11.969-18.59L210.594 4.504c-11.77-5.34-25.426-5.34-37.188 0L11.976 77.887C4.704 81.19 0 88.484 0 96.477c0 7.992 4.703 15.289 11.969 18.593zM64 138.72l109.406 49.734c5.883 2.672 12.13 4.024 18.594 4.024s12.71-1.352 18.594-4.024L320 138.72v80.84c-12.008 5.543-52.176 20.918-128 20.918-75.855 0-116.031-15.391-128-20.918zm112 277.758V256.23c5.168.153 10.473.247 16 .247 53.266 0 89.64-7.247 112-13.973v173.973zm304-160v192H336v8c0 13.234-10.77 24-24 24s-24-10.766-24-24v-8H144V254.309c5.09.48 10.441.882 16 1.218v176.95h304v-176zm-116.809-35.774c3.711 2.36 8.09 3.774 12.809 3.774s9.098-1.415 12.809-3.774L400 265.461v7.016h-48v-7.016zM376 192.477c4.414 0 8 3.593 8 8 0 4.41-3.586 8-8 8s-8-3.59-8-8c0-4.407 3.586-8 8-8zm-8-57.497v42.97c-8.793 3.136-15.168 11.198-15.832 20.898l-15.922 63.695-.246 25.934h80v-24l-13.793-56H448v208H320V236.98c7.64-3.054 11.617-5.343 12.121-5.644l3.879-2.328v-97.563l4.719-2.144zM18.594 92.453 180.03 19.078c3.785-1.726 7.809-2.601 11.969-2.601s8.184.875 11.969 2.593l161.445 73.383A4.428 4.428 0 0 1 368 96.477a4.428 4.428 0 0 1-2.594 4.027l-26.543 12.062-153.23-31.93-3.266 15.665 131.84 27.465-110.238 50.113c-7.563 3.445-16.375 3.437-23.938 0L18.586 100.504a4.422 4.422 0 0 1 .008-8.05zm0 0" opacity="1" data-original="url(#a)"></path></g></svg>