<svg xmlns="http://www.w3.org/2000/svg" version="1.1" xmlns:xlink="http://www.w3.org/1999/xlink" width="512" height="512" x="0" y="0" viewBox="0 0 512 512" style="enable-background:new 0 0 512 512" xml:space="preserve"><rect width="512" height="512" rx="102.4" ry="102.4" fill="#bac8d3" shape="rounded"></rect><g transform="matrix(0.6499999999999998,0,0,0.6499999999999998,89.60176372528082,89.59942321777348)"><linearGradient id="a" x1="362.338" x2="117.566" y1="17.483" y2="441.44" gradientUnits="userSpaceOnUse"><stop offset="0" stop-color="#2aa3ff"></stop><stop offset="1" stop-color="#ce3fff"></stop></linearGradient><path fill="url(#a)" d="m331.725 95.379 15.016-18.934a6.986 6.986 0 0 0-5.475-11.329h-47.729l35.515-44.768c1.69-2.131 1.991-5.049.771-7.479s-3.727-3.945-6.459-3.849l-92.154 2.835a6.988 6.988 0 0 0-6.283 4.415l-27.013 68.309a128.92 128.92 0 0 0-50.239 45.355c-13.296 20.7-20.323 44.714-20.323 69.443s7.07 48.891 20.447 69.636c7.079 10.975 14.453 17.294 20.378 22.37 9.445 8.094 14.648 12.553 14.648 30.621v18.482c0 14.591 11.871 26.461 26.462 26.461h39.728v9.581H215.41c-14.45 0-26.206 11.769-26.206 26.234v43.768a6.987 6.987 0 0 0 6.987 6.987h15.236v32.074c0 9.589 7.802 17.39 17.391 17.39s17.391-7.801 17.391-17.39v-32.074h19.219v32.074c0 9.589 7.802 17.39 17.391 17.39s17.391-7.801 17.391-17.39v-32.074h15.236a6.987 6.987 0 0 0 6.987-6.987v-43.768c0-14.466-11.769-26.234-26.234-26.234h-33.208v-9.581h39.728c14.591 0 26.461-11.87 26.461-26.461v-18.482c0-18.075 5.199-22.533 14.638-30.628 5.918-5.075 13.284-11.393 20.36-22.363 13.396-20.774 20.477-44.854 20.477-69.636 0-41.467-19.648-79.792-52.926-104zm-99.493 390.215c0 1.852-1.564 3.415-3.416 3.415s-3.416-1.563-3.416-3.415V453.52h6.832zm54 0c0 1.852-1.564 3.415-3.416 3.415s-3.416-1.563-3.416-3.415V453.52h6.832zm22.224-82.829v36.78H203.177v-36.78c0-6.76 5.487-12.26 12.231-12.26h80.788c6.76 0 12.26 5.5 12.26 12.26zM236.231 25.683l72.52-2.23-35.15 44.308a6.987 6.987 0 0 0 5.474 11.33h47.732l-10.663 13.445a.915.915 0 0 0-.029.036l-80.929 102.044 29.41-74.361a6.988 6.988 0 0 0-6.498-9.558h-55.486l7.168-18.125c.108-.233.2-.472.282-.715l26.169-66.174zM352.43 261.44c-5.974 9.261-11.941 14.38-17.714 19.33-10.036 8.606-19.515 16.735-19.515 41.235v18.482c0 6.885-5.602 12.486-12.486 12.486h-93.43c-6.886 0-12.487-5.602-12.487-12.486v-18.482c0-24.498-9.486-32.627-19.53-41.232-5.777-4.951-11.752-10.07-17.727-19.333-11.917-18.481-18.217-39.942-18.217-62.062 0-37.2 18.39-72.048 48.108-93.357l-3.596 9.093a6.986 6.986 0 0 0 6.498 9.557h55.486l-42.993 108.704a6.99 6.99 0 0 0 11.973 6.913l106.229-133.946c29.945 21.562 47.646 55.884 47.646 93.037 0 22.09-6.31 43.551-18.246 62.062zM148.874 65.481l-23.726-23.697a6.987 6.987 0 0 1 9.875-9.887l23.726 23.697a6.987 6.987 0 0 1-9.875 9.887zm-93.229 46.625a6.98 6.98 0 0 1 8.558-4.94l32.371 8.674a6.986 6.986 0 0 1 4.94 8.558 6.99 6.99 0 0 1-6.745 5.181 6.96 6.96 0 0 1-1.812-.24l-32.371-8.674a6.986 6.986 0 0 1-4.94-8.558zM76.504 212.59l-32.371 8.675a7.009 7.009 0 0 1-1.812.24 6.99 6.99 0 0 1-1.805-13.739l32.371-8.675a6.988 6.988 0 0 1 3.618 13.498zm27.34 70.431a6.986 6.986 0 0 1 0 9.881l-23.697 23.697c-1.364 1.365-3.152 2.047-4.94 2.047s-3.576-.682-4.94-2.047a6.986 6.986 0 0 1 0-9.881l23.697-23.697a6.984 6.984 0 0 1 9.881 0zM386.829 31.9a6.987 6.987 0 0 1 0 9.882l-23.698 23.697c-1.364 1.363-3.152 2.046-4.94 2.046s-3.576-.682-4.941-2.047a6.987 6.987 0 0 1 0-9.882l23.698-23.697a6.99 6.99 0 0 1 9.882 0zm23.629 92.497a6.987 6.987 0 0 1 4.94-8.558l32.371-8.674a6.984 6.984 0 0 1 8.558 4.94 6.987 6.987 0 0 1-4.94 8.558l-32.371 8.674a7.009 7.009 0 0 1-1.812.24 6.99 6.99 0 0 1-6.745-5.181zm65.967 91.928a6.99 6.99 0 0 1-6.745 5.181 6.998 6.998 0 0 1-1.812-.24l-32.371-8.675a6.986 6.986 0 1 1 3.618-13.498l32.371 8.675a6.986 6.986 0 0 1 4.94 8.558zm-34.719 90.394a6.986 6.986 0 0 1 0 9.881c-1.364 1.365-3.152 2.047-4.94 2.047s-3.576-.682-4.94-2.047l-23.697-23.697a6.986 6.986 0 0 1 0-9.881 6.984 6.984 0 0 1 9.881 0l23.697 23.697z" opacity="1" data-original="url(#a)"></path></g></svg>