<svg xmlns="http://www.w3.org/2000/svg" version="1.1" xmlns:xlink="http://www.w3.org/1999/xlink" width="512" height="512" x="0" y="0" viewBox="0 0 64 64" style="enable-background:new 0 0 512 512" xml:space="preserve"><rect width="64" height="64" rx="12.8" ry="12.8" fill="#bac8d3" shape="rounded"></rect><g transform="matrix(0.67,0,0,0.67,10.559999999999999,10.561650352478026)"><linearGradient id="a" x1="4" x2="60" y1="32.005" y2="32.005" gradientUnits="userSpaceOnUse"><stop offset="0" stop-color="#ff81ff"></stop><stop offset="1" stop-color="#a93aff"></stop></linearGradient><path fill="url(#a)" d="M35.401 36.875v8.76a3.003 3.003 0 0 0 3 3h12.786a3.003 3.003 0 0 0 3-3v-8.76a2.66 2.66 0 0 0-.826-5.184H52.08c3.242-5.014-4.426-9.33-7.31-3.984-2.774-5.333-10.702-.972-7.238 3.984h-1.304a2.661 2.661 0 0 0-.826 5.184zm6.139 9.76h-3.139a1.001 1.001 0 0 1-1-1V37.02h4.139zm10.646-1a1.001 1.001 0 0 1-1 1H48.04V43.83a1 1 0 0 0-2 0v2.8h-2.5v-9.61h2.5v2.81a1 1 0 0 0 2 0v-2.81h4.146zm-6.418-14.272c-.136-2.407 2.186-5.562 4.464-3.443a1.997 1.997 0 0 1-.663 3.302 10.151 10.151 0 0 1-3.8.444zm-7.049-2.409a2.308 2.308 0 0 1 2.207-1.723c1.946.068 2.954 2.632 2.843 4.453a9.426 9.426 0 0 1-3.71-.417 2.263 2.263 0 0 1-1.34-2.313zm-2.492 4.737H53.36a.673.673 0 1 1-.175 1.328H36.401a.673.673 0 1 1-.174-1.328zM57 11.43H31.25a1 1 0 0 0 0 2H57a1.001 1.001 0 0 1 1 1v7.093H23.504a4.593 4.593 0 0 0-3.324-3.705V13.43h7.07a1 1 0 0 0 0-2s-20.18.004-20.25 0a3.003 3.003 0 0 0-3 3v35.15a3.003 3.003 0 0 0 3 3h50a3.003 3.003 0 0 0 3-3V14.43a3.003 3.003 0 0 0-3-3zm-51 3a1.001 1.001 0 0 1 1-1h11.18v4.386a4.593 4.593 0 0 0-3.328 3.707H6zm12.18 36.15H7a1.001 1.001 0 0 1-1-1V23.523h8.909a4.737 4.737 0 0 0 1.82 2.799 5.674 5.674 0 0 0-1.776 5.189 3.334 3.334 0 0 1-.855 3.132 2.54 2.54 0 0 1-2.162.795 1 1 0 0 0-.32 1.975 4.522 4.522 0 0 0 3.903-1.362 5.384 5.384 0 0 0 1.439-4.72 3.613 3.613 0 0 1 1.222-3.63zM16.77 22.402c.088-3.587 4.731-3.586 4.818 0-.087 3.587-4.73 3.587-4.818 0zM58 49.58a1.001 1.001 0 0 1-1 1H20.18V27.704a3.602 3.602 0 0 1 1.212 3.66c-.594 2.917 1.713 6.133 4.704 6.1.741.073 1.618-.332 1.472-1.198a.996.996 0 0 0-1.147-.828c-1.875.298-3.467-1.899-3.065-3.7a5.647 5.647 0 0 0-1.729-5.416 4.737 4.737 0 0 0 1.82-2.799H58z" opacity="1" data-original="url(#a)"></path></g></svg>