<svg xmlns="http://www.w3.org/2000/svg" version="1.1" xmlns:xlink="http://www.w3.org/1999/xlink" width="512" height="512" x="0" y="0" viewBox="0 0 512 512" style="enable-background:new 0 0 512 512" xml:space="preserve" class=""><rect width="512" height="512" rx="102.4" ry="102.4" fill="#bac8d3" shape="rounded"></rect><g transform="matrix(0.53,0,0,0.53,120.31976333618164,120.32000425815582)"><linearGradient id="a" x1="37.676" x2="527.984" y1="528.01" y2="37.702" gradientUnits="userSpaceOnUse"><stop offset="0" stop-color="#8b0006"></stop><stop offset="1" stop-color="#ff1e22"></stop></linearGradient><path fill="url(#a)" d="M492.583 7.85H279.136c-7.4 0-13.422 6.019-13.422 13.419v29.62c0 7.4 6.022 13.422 13.422 13.422h6.055v57.046h-15.379v-16.985c0-8.554-6.955-15.511-15.506-15.511H46.588c-8.552 0-15.506 6.957-15.506 15.511v16.985H17.749C11.273 121.358 6 126.628 6 133.105v32.965c0 6.476 5.273 11.747 11.749 11.747h12.28v276.131h-4.61c-7.964 0-14.445 6.479-14.445 14.44v30.911a4.85 4.85 0 0 0 4.851 4.851h480.348a4.85 4.85 0 0 0 4.851-4.851v-30.911c0-7.962-6.476-14.44-14.44-14.44h-.057V64.311h6.055c7.4 0 13.417-6.022 13.417-13.422V21.27c.001-7.401-6.016-13.42-13.416-13.42zM40.784 104.373a5.814 5.814 0 0 1 5.804-5.808h207.719a5.814 5.814 0 0 1 5.804 5.808v16.985H40.784zm-23.035 63.741a2.048 2.048 0 0 1-2.047-2.044v-32.965c0-1.128.919-2.044 2.047-2.044h267.442v37.034l-267.442.019zm144.717 180.922c-29.179 0-52.92 23.738-52.92 52.915v51.996H39.732v-276.13h245.459v276.131h-69.81v-51.996c.001-29.178-23.735-52.916-52.915-52.916zm43.213 52.915v51.996H119.25v-51.996c0-23.828 19.387-43.212 43.217-43.212 23.825 0 43.212 19.384 43.212 43.212zm280.906 61.699a4.745 4.745 0 0 1 4.738 4.738v26.06H20.677v-26.06a4.745 4.745 0 0 1 4.742-4.738h9.438c.008 0 .015.005.023.005l446.796-.005zM294.894 126.209V64.311h181.931v389.636H294.899l-.005-327.738zm201.403-75.32a3.722 3.722 0 0 1-3.714 3.719H279.136a3.723 3.723 0 0 1-3.719-3.719V21.27a3.722 3.722 0 0 1 3.719-3.717h213.446a3.72 3.72 0 0 1 3.714 3.717v29.619zM102.952 217.352h-35.21c-6.367 0-11.546 5.178-11.546 11.546v35.21c0 6.367 5.178 11.546 11.546 11.546h35.21c6.367 0 11.546-5.178 11.546-11.546v-35.21c-.001-6.367-5.179-11.546-11.546-11.546zm1.843 46.757a1.847 1.847 0 0 1-1.843 1.843h-35.21a1.847 1.847 0 0 1-1.843-1.843v-35.21c0-1.016.829-1.843 1.843-1.843h35.21c1.014 0 1.843.827 1.843 1.843zm75.277-46.757h-35.21c-6.367 0-11.546 5.178-11.546 11.546v35.21c0 6.367 5.178 11.546 11.546 11.546h35.21c6.367 0 11.546-5.178 11.546-11.546v-35.21c-.001-6.367-5.179-11.546-11.546-11.546zm1.843 46.757a1.847 1.847 0 0 1-1.843 1.843h-35.21a1.847 1.847 0 0 1-1.843-1.843v-35.21c0-1.016.829-1.843 1.843-1.843h35.21c1.014 0 1.843.827 1.843 1.843zm40.061 11.545h35.21c6.367 0 11.546-5.178 11.546-11.546v-35.21c0-6.367-5.178-11.546-11.546-11.546h-35.21c-6.367 0-11.546 5.178-11.546 11.546v35.21c.001 6.368 5.179 11.546 11.546 11.546zm-1.843-46.756c0-1.016.829-1.843 1.843-1.843h35.21c1.014 0 1.843.827 1.843 1.843v35.21a1.847 1.847 0 0 1-1.843 1.843h-35.21a1.847 1.847 0 0 1-1.843-1.843zm37.054 123.054c6.367 0 11.546-5.178 11.546-11.543v-35.213c0-6.365-5.178-11.543-11.546-11.543h-35.21c-6.367 0-11.546 5.178-11.546 11.543v35.213c0 6.365 5.178 11.543 11.546 11.543zm-37.054-11.543v-35.213c0-1.014.829-1.841 1.843-1.841h35.21c1.014 0 1.843.827 1.843 1.841v35.213a1.846 1.846 0 0 1-1.843 1.841h-35.21a1.848 1.848 0 0 1-1.843-1.841zm-117.181-46.756h-35.21c-6.367 0-11.546 5.178-11.546 11.543v35.213c0 6.365 5.178 11.543 11.546 11.543h35.21c6.367 0 11.546-5.178 11.546-11.543v-35.213c-.001-6.365-5.179-11.543-11.546-11.543zm1.843 46.756a1.846 1.846 0 0 1-1.843 1.841h-35.21a1.846 1.846 0 0 1-1.843-1.841v-35.213c0-1.014.829-1.841 1.843-1.841h35.21c1.014 0 1.843.827 1.843 1.841zm260.112-236.171h-35.215c-6.363 0-11.541 5.178-11.541 11.543v35.213c0 6.367 5.178 11.546 11.541 11.546h35.215c6.363 0 11.541-5.178 11.541-11.546v-35.213c0-6.365-5.178-11.543-11.541-11.543zm1.839 46.756a1.842 1.842 0 0 1-1.838 1.843h-35.215a1.842 1.842 0 0 1-1.838-1.843v-35.213c0-1.014.824-1.841 1.838-1.841h35.215c1.014 0 1.838.827 1.838 1.841zm75.276-46.756h-35.21c-6.367 0-11.546 5.178-11.546 11.543v35.213c0 6.367 5.178 11.546 11.546 11.546h35.21c6.367 0 11.546-5.178 11.546-11.546v-35.213c0-6.365-5.178-11.543-11.546-11.543zm1.843 46.756a1.847 1.847 0 0 1-1.843 1.843h-35.21a1.847 1.847 0 0 1-1.843-1.843v-35.213c0-1.014.829-1.841 1.843-1.841h35.21c1.014 0 1.843.827 1.843 1.841zm-78.958 34.843h-35.215c-6.363 0-11.541 5.178-11.541 11.543v35.213c0 6.365 5.178 11.543 11.541 11.543h35.215c6.363 0 11.541-5.178 11.541-11.543V197.38c0-6.364-5.178-11.543-11.541-11.543zm1.839 46.757a1.842 1.842 0 0 1-1.838 1.841h-35.215a1.842 1.842 0 0 1-1.838-1.841v-35.213c0-1.014.824-1.841 1.838-1.841h35.215c1.014 0 1.838.827 1.838 1.841zm75.276-46.757h-35.21c-6.367 0-11.546 5.178-11.546 11.543v35.213c0 6.365 5.178 11.543 11.546 11.543h35.21c6.367 0 11.546-5.178 11.546-11.543V197.38c0-6.364-5.178-11.543-11.546-11.543zm1.843 46.757a1.846 1.846 0 0 1-1.843 1.841h-35.21a1.846 1.846 0 0 1-1.843-1.841v-35.213c0-1.014.829-1.841 1.843-1.841h35.21c1.014 0 1.843.827 1.843 1.841zm-78.958 34.843h-35.215c-6.363 0-11.541 5.178-11.541 11.543v35.213c0 6.365 5.178 11.543 11.541 11.543h35.215c6.363 0 11.541-5.178 11.541-11.543V278.98c0-6.365-5.178-11.543-11.541-11.543zm1.839 46.756a1.842 1.842 0 0 1-1.838 1.841h-35.215a1.842 1.842 0 0 1-1.838-1.841V278.98c0-1.014.824-1.841 1.838-1.841h35.215c1.014 0 1.838.827 1.838 1.841zm75.276-46.756h-35.21c-6.367 0-11.546 5.178-11.546 11.543v35.213c0 6.365 5.178 11.543 11.546 11.543h35.21c6.367 0 11.546-5.178 11.546-11.543V278.98c0-6.365-5.178-11.543-11.546-11.543zm1.843 46.756a1.846 1.846 0 0 1-1.843 1.841h-35.21a1.846 1.846 0 0 1-1.843-1.841V278.98c0-1.014.829-1.841 1.843-1.841h35.21c1.014 0 1.843.827 1.843 1.841zm-78.958 34.843h-35.215c-6.363 0-11.541 5.178-11.541 11.543v35.213c0 6.365 5.178 11.543 11.541 11.543h35.215c6.363 0 11.541-5.178 11.541-11.543v-35.213c0-6.365-5.178-11.543-11.541-11.543zm1.839 46.756a1.842 1.842 0 0 1-1.838 1.841h-35.215a1.842 1.842 0 0 1-1.838-1.841v-35.213c0-1.014.824-1.841 1.838-1.841h35.215c1.014 0 1.838.827 1.838 1.841zm75.276-46.756h-35.21c-6.367 0-11.546 5.178-11.546 11.543v35.213c0 6.365 5.178 11.543 11.546 11.543h35.21c6.367 0 11.546-5.178 11.546-11.543v-35.213c0-6.365-5.178-11.543-11.546-11.543zm1.843 46.756a1.846 1.846 0 0 1-1.843 1.841h-35.21a1.846 1.846 0 0 1-1.843-1.841v-35.213c0-1.014.829-1.841 1.843-1.841h35.21c1.014 0 1.843.827 1.843 1.841z" opacity="1" data-original="url(#a)"></path></g></svg>