<svg xmlns="http://www.w3.org/2000/svg" version="1.1" xmlns:xlink="http://www.w3.org/1999/xlink" width="512" height="512" x="0" y="0" viewBox="0 0 512 512" style="enable-background:new 0 0 512 512" xml:space="preserve"><rect width="512" height="512" rx="102.4" ry="102.4" fill="#bac8d3" shape="rounded"></rect><g transform="matrix(0.69,0,0,0.69,79.36001300811768,79.35983887672427)"><linearGradient id="a" x1="111.492" x2="400.517" y1="373.921" y2="84.896" gradientUnits="userSpaceOnUse"><stop offset="0" stop-color="#696eff"></stop><stop offset="1" stop-color="#f8acff"></stop></linearGradient><path fill="url(#a)" d="M263.487 6.004h-14.974c-4.627 0-8.389 3.763-8.389 8.392v13.181C138.593 31.609 57.227 115.424 57.227 217.924a4.901 4.901 0 0 0 4.902 4.902h188.969v25.548c-27.316 33.441-61.511 52.984-104.512 59.665a4.903 4.903 0 0 0-4.15 4.844c0 79.143 42.578 152.887 111.121 192.457a4.921 4.921 0 0 0 4.906 0c68.538-39.569 111.116-113.318 111.116-192.457a4.897 4.897 0 0 0-4.05-4.825c-41.957-7.419-77.139-27.535-104.627-59.762v-25.471h188.969a4.9 4.9 0 0 0 4.902-4.902c0-102.502-81.367-186.317-182.897-190.348v-13.18c0-4.629-3.763-8.391-8.389-8.391zm-13.559 9.803h12.145v11.575h-12.145zm-80.872 197.215H67.095C69.48 123.833 136.808 50.599 223.397 38.87c-31.427 25.898-53.482 92.986-54.341 174.152zm190.681 103.926c-1.412 73.155-40.814 141.006-103.732 178.464-62.892-37.444-102.286-105.257-103.725-178.383 41.649-7.377 76.527-27.3 103.806-59.287 27.688 31.193 62.511 51.083 103.651 59.206zm85.168-103.926H342.947c-.859-81.166-22.914-148.255-54.343-174.152 86.59 11.728 153.916 84.963 156.301 174.152zm-111.739 0h-154.33c1.101-95.812 34.395-175.836 73.679-175.836h6.97c39.287 0 72.58 80.024 73.681 175.836zM177.8 330.96a4.9 4.9 0 0 0-3.672 5.208c5.098 54.241 33.947 102.782 79.146 133.165a4.907 4.907 0 0 0 5.469 0c45.302-30.45 74.16-79.105 79.175-133.486a4.898 4.898 0 0 0-3.6-5.18c-28.346-7.674-53.468-21.699-74.67-41.69a4.904 4.904 0 0 0-6.781.053c-21.068 20.508-46.324 34.615-75.067 41.93zm78.537-31.709c20.627 18.521 44.608 31.872 71.398 39.742-5.644 48.703-31.563 92.207-71.726 120.326-40.05-28.047-65.955-71.412-71.685-119.953 27.236-7.597 51.422-21.073 72.013-40.115zm-29.535 76.434a4.9 4.9 0 0 1 6.932 0l16.618 16.62 37.195-37.2c1.915-1.915 5.017-1.915 6.932 0s1.915 5.017 0 6.932l-40.661 40.666a4.902 4.902 0 0 1-6.932 0l-20.084-20.086a4.9 4.9 0 0 1 0-6.932z" opacity="1" data-original="url(#a)"></path></g></svg>