<svg xmlns="http://www.w3.org/2000/svg" version="1.1" xmlns:xlink="http://www.w3.org/1999/xlink" width="512" height="512" x="0" y="0" viewBox="0 0 64 64" style="enable-background:new 0 0 512 512" xml:space="preserve" class=""><rect width="64" height="64" rx="12.8" ry="12.8" fill="#bac8d3" shape="rounded"></rect><g transform="matrix(0.63,0,0,0.63,11.84,11.8405179977417)"><linearGradient id="a" x1="4" x2="60" y1="32.001" y2="32.001" gradientUnits="userSpaceOnUse"><stop offset="0" stop-color="#7f00ff"></stop><stop offset="1" stop-color="#e100ff"></stop></linearGradient><path fill="url(#a)" d="M53 23a2.003 2.003 0 0 0-2-2H37a2.003 2.003 0 0 0-2 2v6a2.003 2.003 0 0 0 2 2h14a2.003 2.003 0 0 0 2-2zm-16 6v-6h14l.002 6zm8 9h-2a1 1 0 0 1 0-2h2a1 1 0 0 1 0 2zm7 0h-2a1 1 0 0 1 0-2h2a1 1 0 0 1 0 2zm-16-2h2a1 1 0 0 1 0 2h-2a1 1 0 0 1 0-2zm9 8.5h-2a1 1 0 0 1 0-2h2a1 1 0 0 1 0 2zm7 0h-2a1 1 0 0 1 0-2h2a1 1 0 0 1 0 2zm-16-2h2a1 1 0 0 1 0 2h-2a1 1 0 0 1 0-2zm9 8.5h-2a1 1 0 0 1 0-2h2a1 1 0 0 1 0 2zm7 0h-2a1 1 0 0 1 0-2h2a1 1 0 0 1 0 2zm-16-2h2a1 1 0 0 1 0 2h-2a1 1 0 0 1 0-2zm24-31v36a3.003 3.003 0 0 1-3 3c-1.054.011-48.945-.015-50 0a3.003 3.003 0 0 1-3-3V18a3.003 3.003 0 0 1 3-3h4v-5a3.003 3.003 0 0 1 3-3h12a3.003 3.003 0 0 1 3 3v8a1 1 0 0 1-.105.447L27 22.237v13.527c.041.16 2.202 4.186 2 4.236v8a3.003 3.003 0 0 1-3 3H14a3.003 3.003 0 0 1-3-3v-8a1 1 0 0 1 .105-.447L13 35.763V33a1 1 0 0 1 2 0v3a41.112 41.112 0 0 1-2 4.236V48a1 1 0 0 0 1 1h12a1 1 0 0 0 1-1v-7.764c-.065-.216-2.17-4.11-2-4.236V22a1 1 0 0 1 .105-.447L27 17.763V10a1 1 0 0 0-1-1H14a1 1 0 0 0-1 1v7.764l1.895 3.789A1 1 0 0 1 15 22v6a1 1 0 0 1-2 0v-5.764c.018-.053-2.282-4.333-2-4.236v-1H7a1 1 0 0 0-1 1v36a1 1 0 0 0 1 1h50a1 1 0 0 0 1-1V18a1 1 0 0 0-1-1H33a1 1 0 0 1 0-2h24a3.003 3.003 0 0 1 3 3z" opacity="1" data-original="url(#a)"></path></g></svg>