<svg xmlns="http://www.w3.org/2000/svg" version="1.1" xmlns:xlink="http://www.w3.org/1999/xlink" width="512" height="512" x="0" y="0" viewBox="0 0 512 512" style="enable-background:new 0 0 512 512" xml:space="preserve"><rect width="512" height="512" rx="102.4" ry="102.4" fill="#bac8d3" shape="rounded"></rect><g transform="matrix(0.7,0,0,0.7,75.60000000000002,76.80000000000001)"><linearGradient id="a" x1="88.21" x2="389.444" y1="394.136" y2="92.902" gradientUnits="userSpaceOnUse"><stop offset="0" stop-color="#240b36"></stop><stop offset="1" stop-color="#c31432"></stop></linearGradient><path fill="url(#a)" d="M296 120H184c-13.2 0-24 10.8-24 24v72c0 13.2 10.8 24 24 24h112c13.2 0 24-10.8 24-24v-72c0-13.2-10.8-24-24-24zm8 96c0 4.4-3.6 8-8 8H184c-4.4 0-8-3.6-8-8v-72c0-4.4 3.6-8 8-8h112c4.4 0 8 3.6 8 8zm0-152H176c-8.8 0-16 7.2-16 16v8c0 8.8 7.2 16 16 16h128c8.8 0 16-7.2 16-16v-8c0-8.8-7.2-16-16-16zm0 24H176v-8h128zM192 256h-16c-8.8 0-16 7.2-16 16v16c0 8.8 7.2 16 16 16h16c8.8 0 16-7.2 16-16v-16c0-8.8-7.2-16-16-16zm0 32h-16v-16h16zm56-32h-16c-8.8 0-16 7.2-16 16v16c0 8.8 7.2 16 16 16h16c8.8 0 16-7.2 16-16v-16c0-8.8-7.2-16-16-16zm0 32h-16v-16h16zm56-32h-16c-8.8 0-16 7.2-16 16v16c0 8.8 7.2 16 16 16h16c8.8 0 16-7.2 16-16v-16c0-8.8-7.2-16-16-16zm0 32h-16v-16h16zm-112 24h-16c-8.8 0-16 7.2-16 16v16c0 8.8 7.2 16 16 16h16c8.8 0 16-7.2 16-16v-16c0-8.8-7.2-16-16-16zm0 32h-16v-16h16zm56-32h-16c-8.8 0-16 7.2-16 16v16c0 8.8 7.2 16 16 16h16c8.8 0 16-7.2 16-16v-16c0-8.8-7.2-16-16-16zm0 32h-16v-16h16zm56-32h-16c-8.8 0-16 7.2-16 16v16c0 8.8 7.2 16 16 16h16c8.8 0 16-7.2 16-16v-16c0-8.8-7.2-16-16-16zm0 32h-16v-16h16zm48-272c0-22.1-17.9-40-40-40H160c-17.6 0-32 14.4-32 32v304c0 17.6 14.4 32 32 32v56c0 13.2 10.8 24 24 24h112c13.2 0 24-10.8 24-24v-56c17.6 0 32-14.4 32-32 13.2 0 24-10.8 24-24V96c0-13.2-10.8-24-24-24zM176 456v-56h64v64h-56c-4.4 0-8-3.6-8-8zm96-56v64h-16v-64zm32 56c0 4.4-3.6 8-8 8h-8v-64h16zm16-72H160c-8.8 0-16-7.2-16-16V64c0-8.8 7.2-16 16-16h152c13.2 0 24 10.8 24 24v296c0 8.8-7.2 16-16 16zm40-40c0 4.4-3.6 8-8 8V88c4.4 0 8 3.6 8 8z" opacity="1" data-original="url(#a)"></path></g></svg>