<svg xmlns="http://www.w3.org/2000/svg" version="1.1" xmlns:xlink="http://www.w3.org/1999/xlink" width="512" height="512" x="0" y="0" viewBox="0 0 32 32" style="enable-background:new 0 0 512 512" xml:space="preserve" class=""><rect width="32" height="32" rx="6.4" ry="6.4" fill="#bac8d3" shape="rounded"></rect><g transform="matrix(0.6,0,0,0.6,6.400000810623169,6.3999822616577156)"><linearGradient id="a" x1="7.371" x2="24.629" y1="30.946" y2="1.054" gradientUnits="userSpaceOnUse"><stop offset="0" stop-color="#3cacb6"></stop><stop offset="1" stop-color="#8ccead"></stop></linearGradient><path fill="url(#a)" d="M16 12c-2.206 0-4 1.794-4 4s1.794 4 4 4 4-1.794 4-4-1.794-4-4-4zm0 6c-1.103 0-2-.897-2-2s.897-2 2-2 2 .897 2 2-.897 2-2 2zM2 5a1 1 0 0 1 1-1h22.697l-.252-.168a1 1 0 0 1 1.11-1.664l3 2A1 1 0 0 1 29 6H3a1 1 0 0 1-1-1zm28 22a1 1 0 0 1-1 1H6.303l.252.168a1 1 0 0 1-1.11 1.664l-3-2A1 1 0 0 1 3 26h26a1 1 0 0 1 1 1zM7 8c-1.654 0-3 1.346-3 3v10c0 1.654 1.346 3 3 3h18c1.654 0 3-1.346 3-3V11c0-1.654-1.346-3-3-3zm19 3v10c0 .551-.449 1-1 1H7c-.551 0-1-.449-1-1V11c0-.551.449-1 1-1h18c.551 0 1 .449 1 1zm-16 4v2a1 1 0 0 1-2 0v-2a1 1 0 0 1 2 0zm14 0v2a1 1 0 0 1-2 0v-2a1 1 0 0 1 2 0z" opacity="1" data-original="url(#a)"></path></g></svg>