<svg xmlns="http://www.w3.org/2000/svg" version="1.1" xmlns:xlink="http://www.w3.org/1999/xlink" width="512" height="512" x="0" y="0" viewBox="0 0 512 512" style="enable-background:new 0 0 512 512" xml:space="preserve"><rect width="512" height="512" rx="102.4" ry="102.4" fill="#bac8d3" shape="rounded"></rect><g transform="matrix(0.5399999999999999,0,0,0.5399999999999999,117.76000000000002,107.75999999999999)"><linearGradient id="a" x1="-13.98" x2="492.84" y1="256" y2="256" gradientUnits="userSpaceOnUse"><stop offset="0" stop-color="#7738c8"></stop><stop offset="1" stop-color="#461d93"></stop></linearGradient><path fill="url(#a)" d="M504.5 467h-11v-22.5a7.5 7.5 0 0 0-7.5-7.5h-12.5V315H486a7.5 7.5 0 0 0 7.5-7.5v-30a7.5 7.5 0 0 0-7.5-7.5H353.5v-52H366a7.5 7.5 0 0 0 7.5-7.5v-30a7.5 7.5 0 0 0-7.5-7.5h-12.79a97.64 97.64 0 0 0-89.71-89.71V65H336a7.5 7.5 0 0 0 7.5-7.5v-50A7.5 7.5 0 0 0 336 0h-80a7.5 7.5 0 0 0-7.5 7.5v75.79A97.64 97.64 0 0 0 158.79 173H146a7.5 7.5 0 0 0-7.5 7.5v30a7.5 7.5 0 0 0 7.5 7.5h12.5v52H26a7.5 7.5 0 0 0-7.5 7.5v30A7.5 7.5 0 0 0 26 315h12.5v122H26a7.5 7.5 0 0 0-7.5 7.5V467h-11a7.5 7.5 0 0 0-7.5 7.5v30a7.5 7.5 0 0 0 7.5 7.5h497a7.5 7.5 0 0 0 7.5-7.5v-30a7.5 7.5 0 0 0-7.5-7.5zm-46-30h-15V315h15zm-70 0h-45v-32.5a22.5 22.5 0 0 1 45 0zM366 367a37.54 37.54 0 0 0-37.5 37.5V437h-35v-62.5a37.5 37.5 0 0 0-75 0V437h-35v-32.5a37.5 37.5 0 0 0-75 0V437h-25V315h345v122h-25v-32.5A37.54 37.54 0 0 0 366 367zm-87.5 70h-45v-62.5a22.5 22.5 0 0 1 45 0zm-110 0h-45v-32.5a22.5 22.5 0 0 1 45 0zm170-167h-15v-52h15zm-105-52v52h-30v-52zm15 0h15v52h-15zm30 0h30v52h-30zm-15-203h65v35h-65zM256 98a82.59 82.59 0 0 1 82.14 75H173.86A82.59 82.59 0 0 1 256 98zm-102.5 90h205v15h-205zm20 30h15v52h-15zm-140 67h445v15h-445zm20 30h15v122h-15zm-20 137h445v15h-445zM497 497H15v-15h482z" opacity="1" data-original="url(#a)"></path></g></svg>