<svg xmlns="http://www.w3.org/2000/svg" version="1.1" xmlns:xlink="http://www.w3.org/1999/xlink" width="512" height="512" x="0" y="0" viewBox="0 0 32 32" style="enable-background:new 0 0 512 512" xml:space="preserve" class=""><rect width="32" height="32" rx="6.4" ry="6.4" fill="#bac8d3" shape="rounded"></rect><g transform="matrix(0.7,0,0,0.7,4.800000000000001,4.800000000000001)"><linearGradient id="a" x1="8.741" x2="23.259" y1="28.572" y2="3.428" gradientUnits="userSpaceOnUse"><stop offset="0" stop-color="#4c46c8"></stop><stop offset="1" stop-color="#87bfff"></stop></linearGradient><path fill="url(#a)" d="M26.879 6H5.121A3.124 3.124 0 0 0 2 9.121v13.758A3.124 3.124 0 0 0 5.121 26h21.758A3.124 3.124 0 0 0 30 22.879V9.121A3.124 3.124 0 0 0 26.879 6zM28 22.879A1.122 1.122 0 0 1 26.879 24H5.121A1.122 1.122 0 0 1 4 22.879V9.121A1.122 1.122 0 0 1 5.121 8h21.758A1.122 1.122 0 0 1 28 9.121zM26 12a1 1 0 0 1-1 1h-7a1 1 0 0 1 0-2h7a1 1 0 0 1 1 1zm0 4a1 1 0 0 1-1 1h-7a1 1 0 0 1 0-2h7a1 1 0 0 1 1 1zm0 4a1 1 0 0 1-1 1h-7a1 1 0 0 1 0-2h7a1 1 0 0 1 1 1zm-12.91-3.168A3.468 3.468 0 0 0 14 14.5a3.5 3.5 0 0 0-7 0 3.468 3.468 0 0 0 .91 2.332A4.489 4.489 0 0 0 6 20.5a1 1 0 0 0 2 0 2.5 2.5 0 0 1 5 0 1 1 0 0 0 2 0 4.489 4.489 0 0 0-1.91-3.668zM10.5 16a1.5 1.5 0 1 1 1.5-1.5 1.5 1.5 0 0 1-1.5 1.5z" data-name="Layer 2" opacity="1" data-original="url(#a)"></path></g></svg>