<svg xmlns="http://www.w3.org/2000/svg" version="1.1" xmlns:xlink="http://www.w3.org/1999/xlink" width="512" height="512" x="0" y="0" viewBox="0 0 512 512" style="enable-background:new 0 0 512 512" xml:space="preserve" class=""><rect width="512" height="512" rx="102.4" ry="102.4" fill="#bac8d3" shape="rounded"></rect><g transform="matrix(0.5499999999999999,0,0,0.5499999999999999,115.20000000000002,116.0446563720703)"><linearGradient id="a" x1="-.001" x2="511.998" y1="257.878" y2="257.878" gradientUnits="userSpaceOnUse"><stop offset="0" stop-color="#58c8df"></stop><stop offset="1" stop-color="#53a7dd"></stop></linearGradient><path fill="url(#a)" fill-rule="evenodd" d="M166.245 381.347H69.459v-61.392h96.786zm5.067-77.39H64.392a10.946 10.946 0 0 0-10.93 10.931v71.522a10.944 10.944 0 0 0 10.93 10.935h106.92a10.949 10.949 0 0 0 10.936-10.935v-71.522a10.951 10.951 0 0 0-10.936-10.931zM491.1 420.038a4.907 4.907 0 0 0 4.9-4.9v-173.89H16v173.888a4.908 4.908 0 0 0 4.9 4.9zm4.9-234.809v40.016H16v-40.016zM20.9 95.718h470.2a4.907 4.907 0 0 1 4.9 4.9v68.606H16V100.62a4.908 4.908 0 0 1 4.9-4.9zm470.2-16H20.9A20.925 20.925 0 0 0 0 100.62v314.516a20.925 20.925 0 0 0 20.9 20.9h470.2a20.922 20.922 0 0 0 20.9-20.9V100.62a20.922 20.922 0 0 0-20.9-20.9z" opacity="1" data-original="url(#a)"></path></g></svg>