<svg xmlns="http://www.w3.org/2000/svg" version="1.1" xmlns:xlink="http://www.w3.org/1999/xlink" width="512" height="512" x="0" y="0" viewBox="0 0 64 64" style="enable-background:new 0 0 512 512" xml:space="preserve" class=""><rect width="64" height="64" rx="12.8" ry="12.8" fill="#bac8d3" shape="rounded"></rect><g transform="matrix(0.68,0,0,0.68,10.240066833496094,10.240376281738278)"><linearGradient id="a" x1="4" x2="60" y1="32" y2="32" gradientUnits="userSpaceOnUse"><stop offset="0" stop-color="#9cffac"></stop><stop offset="1" stop-color="#00b59c"></stop></linearGradient><path fill="url(#a)" d="M60 24.847a3.981 3.981 0 1 0-7.55 1.757L44 33.89l-8.881-14.22a3.984 3.984 0 1 0-6.867-2.747 3.959 3.959 0 0 0 1.048 2.672l-9.243 14.144-8.599-8.166a3.98 3.98 0 1 0-3.702 2.038l4.539 22.651a1 1 0 0 0 .98.804h37.456a1 1 0 0 0 .979-.795l4.487-21.454A3.984 3.984 0 0 0 60 24.847zm-27.76-9.912a1.988 1.988 0 0 1 0 3.977 1.988 1.988 0 0 1 0-3.977zM20.238 36.29a1.002 1.002 0 0 0 .837-.454l9.9-15.15a3.722 3.722 0 0 0 2.438.03l9.508 15.222a1.007 1.007 0 0 0 1.502.229l9.326-8.042a3.996 3.996 0 0 0 .492.277L50.748 45.1H13.3L9.718 27.223a3.987 3.987 0 0 0 .364-.198l9.467 8.99a1.002 1.002 0 0 0 .689.275zM6 23.647a1.988 1.988 0 0 1 3.976 0 1.988 1.988 0 0 1-3.976 0zm8.095 25.419L13.7 47.1h36.63l-.412 1.966zm41.917-22.23a1.988 1.988 0 0 1 0-3.977 1.988 1.988 0 0 1 0 3.976zm-24.577 16.19a1.006 1.006 0 0 0 1.61 0l3.028-4.11a.996.996 0 0 0 0-1.186l-3.028-4.111a1.036 1.036 0 0 0-1.61 0l-3.028 4.111a1 1 0 0 0 0 1.186zm.805-7.128 1.786 2.425-1.786 2.425-1.786-2.425z" opacity="1" data-original="url(#a)"></path></g></svg>