<svg xmlns="http://www.w3.org/2000/svg" version="1.1" xmlns:xlink="http://www.w3.org/1999/xlink" width="512" height="512" x="0" y="0" viewBox="0 0 128 128" style="enable-background:new 0 0 512 512" xml:space="preserve" class=""><rect width="128" height="128" rx="25.6" ry="25.6" fill="#bac8d3" shape="rounded"></rect><g transform="matrix(-0.7499999999999999,-9.184850993605147e-17,9.184850993605147e-17,-0.7499999999999999,111.9511353969574,112.02186965942383)"><linearGradient id="a" x1="64" x2="64" y1="36.054" y2="92" gradientUnits="userSpaceOnUse"><stop offset="0" stop-color="#f44369"></stop><stop offset="1" stop-color="#3e3b92"></stop></linearGradient><path fill="url(#a)" d="M108 92H20c-1.6 0-3-.9-3.7-2.4-.6-1.4-.4-3.1.7-4.3l44-48c1.5-1.7 4.4-1.7 5.9 0l44 48c1.1 1.2 1.4 2.9.7 4.3-.6 1.5-2 2.4-3.6 2.4zm-78.9-8h69.8L64 45.9z" opacity="1" data-original="url(#a)"></path></g></svg>