<svg xmlns="http://www.w3.org/2000/svg" version="1.1" xmlns:xlink="http://www.w3.org/1999/xlink" width="512" height="512" x="0" y="0" viewBox="0 0 491.5 491.5" style="enable-background:new 0 0 512 512" xml:space="preserve" class=""><rect width="491.5" height="491.5" rx="98.3" ry="98.3" fill="#bac8d3" shape="rounded"></rect><g transform="matrix(0.6,0,0,0.6,103.30000534057618,92.34027557373048)"><linearGradient id="a" x1="245.76" x2="245.76" y1="37.143" y2="449.565" gradientUnits="userSpaceOnUse"><stop offset="0" stop-color="#f704fe"></stop><stop offset="1" stop-color="#24bce3"></stop></linearGradient><path fill="url(#a)" d="M433.7 155.2c-4.3 0-7.8 3.5-7.8 7.8v92.5c0 4.3 3.5 7.8 7.8 7.8h11.8c4.3 0 7.8-3.5 7.8-7.8V163c0-4.3-3.5-7.8-7.8-7.8zm11.8 117.6h-11.8c-9.5 0-17.2-7.7-17.2-17.2v-92.5c0-9.5 7.7-17.2 17.2-17.2h11.8c9.5 0 17.2 7.7 17.2 17.2v92.5c0 9.4-7.7 17.2-17.2 17.2zm-129.8-94.7h-65.1c-2.6 0-4.7-2.1-4.7-4.7s2.1-4.7 4.7-4.7h65.1c2.6 0 4.7 2.1 4.7 4.7.1 2.6-2 4.7-4.7 4.7zm105.5 0h-77.9c-2.6 0-4.7-2.1-4.7-4.7s2.1-4.7 4.7-4.7h77.9c2.6 0 4.7 2.1 4.7 4.7.1 2.6-2.1 4.7-4.7 4.7zm-105.5 71.8h-65.1c-2.6 0-4.7-2.1-4.7-4.7s2.1-4.7 4.7-4.7h65.1c2.6 0 4.7 2.1 4.7 4.7.1 2.6-2 4.7-4.7 4.7zm105.5 0h-77.9c-2.6 0-4.7-2.1-4.7-4.7s2.1-4.7 4.7-4.7h77.9c2.6 0 4.7 2.1 4.7 4.7.1 2.6-2.1 4.7-4.7 4.7zM41.6 287c-2.6 0-4.7-2.1-4.7-4.7v-74.2c0-21.7 17.7-39.4 39.4-39.4h75.5c2.6 0 4.7 2.1 4.7 4.7s-2.1 4.7-4.7 4.7H76.3c-16.5 0-29.9 13.4-29.9 29.9v74.2c-.1 2.7-2.2 4.8-4.8 4.8zm69.3 0c-2.6 0-4.7-2.1-4.7-4.7v-19.8c0-12.2 9.9-22.1 22.1-22.1h23.5c2.6 0 4.7 2.1 4.7 4.7s-2.1 4.7-4.7 4.7h-23.5c-6.9 0-12.6 5.6-12.6 12.6v19.8c-.1 2.7-2.2 4.8-4.8 4.8zm-71.5 0c-.6 0-1.2.5-1.2 1.2v11.7c0 .6.5 1.2 1.2 1.2H113c.6 0 1.2-.5 1.2-1.2v-11.7c0-.6-.5-1.2-1.2-1.2zm73.6 23.5H39.4c-5.9 0-10.6-4.8-10.6-10.6v-11.7c0-5.9 4.8-10.7 10.6-10.7h73.5c5.9 0 10.6 4.8 10.6 10.7v11.7c.1 5.8-4.6 10.6-10.5 10.6zm117.9-146c-2.6 0-4.7-2.1-4.7-4.7v-19.2c0-1.1-.9-2-2-2h-45.9c-1.1 0-2 .9-2 2v19.2c0 2.6-2.1 4.7-4.7 4.7s-4.7-2.1-4.7-4.7v-19.2c0-6.3 5.2-11.5 11.5-11.5h45.9c6.3 0 11.5 5.2 11.5 11.5v19.2c-.2 2.6-2.3 4.7-4.9 4.7zm-43.3-26c-2.6 0-4.7-2.1-4.7-4.7V84.5c0-2.6 2.1-4.7 4.7-4.7s4.7 2.1 4.7 4.7v49.3c0 2.6-2.1 4.7-4.7 4.7zm27.2 0c-2.6 0-4.7-2.1-4.7-4.7V84.5c0-2.6 2.1-4.7 4.7-4.7s4.7 2.1 4.7 4.7v49.3c0 2.6-2.1 4.7-4.7 4.7zm-13.6-91.9c-10.4 0-18.8 8.4-18.8 18.8s8.4 18.8 18.8 18.8c10.3 0 18.8-8.4 18.8-18.8-.1-10.4-8.5-18.8-18.8-18.8zm0 47c-15.6 0-28.2-12.7-28.2-28.2 0-15.6 12.7-28.2 28.2-28.2 15.6 0 28.2 12.7 28.2 28.2s-12.7 28.2-28.2 28.2zm-73-4.1c-13.3 0-24.2-10.8-24.2-24.2 0-13.3 10.8-24.2 24.2-24.2 5.5 0 10.7 1.8 15 5.2h39.3c2.6 0 4.7 2.1 4.7 4.7s-2.1 4.7-4.7 4.7h-41c-1.2 0-2.3-.5-3.2-1.3-2.7-2.5-6.3-3.9-10-3.9-8.1 0-14.7 6.6-14.7 14.7s6.6 14.7 14.7 14.7c3.7 0 7.3-1.4 10-3.9.9-.8 2-1.3 3.2-1.3h41c2.6 0 4.7 2.1 4.7 4.7s-2.1 4.7-4.7 4.7h-39.3c-4.3 3.6-9.5 5.4-15 5.4zm145.9 0c-5.5 0-10.7-1.8-15-5.2h-39.3c-2.6 0-4.7-2.1-4.7-4.7s2.1-4.7 4.7-4.7h41c1.2 0 2.3.5 3.2 1.3 2.7 2.5 6.3 3.9 10 3.9 8.1 0 14.7-6.6 14.7-14.7s-6.6-14.7-14.7-14.7c-3.7 0-7.3 1.4-10 3.9-.9.8-2 1.3-3.2 1.3h-41c-2.6 0-4.7-2.1-4.7-4.7s2.1-4.7 4.7-4.7h39.3c4.3-3.4 9.5-5.2 15-5.2 13.3 0 24.2 10.8 24.2 24.2 0 13.2-10.9 24-24.2 24zm51 74.3c-2.6 0-4.6 2.1-4.6 4.6v81.7c0 2.6 2.1 4.6 4.6 4.6h8.8c2.6 0 4.6-2.1 4.6-4.6v-81.7c0-2.6-2.1-4.6-4.6-4.6zm8.8 100.4h-8.8c-7.8 0-14.1-6.3-14.1-14.1v-81.7c0-7.8 6.3-14.1 14.1-14.1h8.8c7.8 0 14.1 6.3 14.1 14.1v81.7c0 7.8-6.3 14.1-14.1 14.1zm-172.3-99.7c-2.9 0-5.2 2.3-5.2 5.2v79.1c0 2.9 2.3 5.2 5.2 5.2h79.1c2.9 0 5.2-2.3 5.2-5.2v-79.1c0-2.9-2.3-5.2-5.2-5.2zm79.1 99h-79.1c-8.1 0-14.7-6.6-14.7-14.6v-79.1c0-8.1 6.6-14.7 14.7-14.7h79.1c8.1 0 14.6 6.6 14.6 14.7v79.1c.1 8-6.5 14.6-14.6 14.6zM69.1 397.2c-11.9 15.4-14.6 26.6-12.6 33.8 1.7 6.1 7.2 9.1 12.6 9.1 5.5 0 11-3 12.6-9.1 2-7.2-.7-18.4-12.6-33.8zm-21.8 36.3c-2.9-10.5.7-26.1 17.9-46.6 1.8-2.5 5.5-2.6 7.4-.3 17.4 20.6 21 36.3 18.1 46.8-3 10.7-12.4 16.1-21.7 16.1-9.3.1-18.7-5.3-21.7-16zm40-97.6c-8.4 11.2-10.4 19.3-8.9 24.5 1.2 4.3 5 6.4 8.9 6.4s7.7-2.1 8.9-6.4c1.4-5.2-.5-13.3-8.9-24.5zm-18.1 27c-2.3-8.5.5-21.1 14.2-37.4 1.8-2.5 5.5-2.6 7.4-.3 13.9 16.4 16.8 29.1 14.4 37.6-2.5 8.9-10.3 13.4-18 13.4s-15.5-4.4-18-13.3z" opacity="1" data-original="url(#a)"></path></g></svg>