<svg xmlns="http://www.w3.org/2000/svg" version="1.1" xmlns:xlink="http://www.w3.org/1999/xlink" width="512" height="512" x="0" y="0" viewBox="0 0 64 64" style="enable-background:new 0 0 512 512" xml:space="preserve"><rect width="64" height="64" rx="12.8" ry="12.8" fill="#bac8d3" shape="rounded"></rect><g transform="matrix(0.5499999999999999,0,0,0.5499999999999999,14.400000000000002,14.400000000000002)"><linearGradient id="a" x1="4.001" x2="59.999" y1="32" y2="32" gradientUnits="userSpaceOnUse"><stop offset="0" stop-color="#00c0ff"></stop><stop offset="1" stop-color="#5558ff"></stop></linearGradient><path fill="url(#a)" d="M32 4.001A19.06 19.06 0 0 1 49.5 15.612a1 1 0 0 1-1.843.778A17.048 17.048 0 0 0 32 6a1 1 0 0 1 0-2zM32 58A17.033 17.033 0 0 1 16.342 47.61a1 1 0 0 0-1.843.778A19.042 19.042 0 0 0 32 59.999a1 1 0 0 0 0-2zm-17-3v4a1 1 0 0 1-1 1H5a1 1 0 0 1-1-1v-9a1 1 0 0 1 1-1h4a1 1 0 0 1 1 1v4h4a1 1 0 0 1 1 1zm-2 1H9a1 1 0 0 1-1-1v-4H6v7h7zm47-6v9a1 1 0 0 1-1 1h-9a1 1 0 0 1-1-1c.093-5.982-.979-4.906 5-5 .096-5.975-.99-4.907 5-5a1 1 0 0 1 1 1zm-2 1h-2c-.098 5.97.99 4.908-5 5v2h7zm2-45.999v9a1 1 0 0 1-1 1h-4a1 1 0 0 1-1-1v-4c-5.975-.097-4.908.988-5-5a1 1 0 0 1 1-1h9a1 1 0 0 1 1 1zm-2 1h-7v2h4a1 1 0 0 1 1 1v4h2zm-54 8V5a1 1 0 0 1 1-1h9a1 1 0 0 1 1 1c-.093 5.981.979 4.906-5 5-.096 5.974.99 4.907-5 5a1 1 0 0 1-1-1zm2-1h2c.098-5.971-.99-4.909 5-5v-2H6zm30.22 46.524a1 1 0 0 1-.44-1.951 17.037 17.037 0 0 0 12.973-13.731A19.93 19.93 0 0 0 49 40h-2c.802 12.838-14.145 20.82-24.268 12.786a1 1 0 0 1 1.236-1.572C32.81 58.219 45.778 51.18 45 40h-2a11.495 11.495 0 0 1-6.587 11.06 1 1 0 0 1-.826-1.82A9.617 9.617 0 0 0 41 40h-2c.633 10.474-14.509 10.652-14 0h-2a9.15 9.15 0 0 0 9 10 1 1 0 0 1 0 2 11.142 11.142 0 0 1-11-12h-2a13.522 13.522 0 0 0 1.746 7.5 1 1 0 0 1-1.732 1A15.475 15.475 0 0 1 17 40h-2v1a16.357 16.357 0 0 0 .246 2.827 1 1 0 0 1-1.971.346A21.73 21.73 0 0 1 13 40H5a1 1 0 0 1 0-2h8V23A19.1 19.1 0 0 1 27.78 4.477a1 1 0 0 1 .44 1.95 17.04 17.04 0 0 0-12.974 13.739c-.47 1.737-.17 15.753-.246 17.835h2V23a14.92 14.92 0 0 1 2.014-7.499c4.254-7.765 15.42-9.956 22.254-4.286a1 1 0 0 1-1.236 1.572c-5.924-4.919-15.598-3.011-19.286 3.714A12.906 12.906 0 0 0 19 23v15h2v-6a1 1 0 0 1 2 0v6h2v-6a1 1 0 0 1 2 0v6h2v-6a1 1 0 0 1 2 0v6h2V23a1 1 0 0 0-1-1 1 1 0 0 1 0-2 3.003 3.003 0 0 1 3 3v15h2V23.21a5.35 5.35 0 0 0-1.684-3.9 1.001 1.001 0 0 1-.047-1.414c1.878-1.603 3.978 3.82 3.73 5.314V38h2V23c.189-6.273-6.918-10.949-12.588-8.24a9.518 9.518 0 0 0-5.41 8.59V26a1 1 0 0 0 2 0v-3a6.958 6.958 0 0 1 2.336-5.21c.89-.992 5.41-3.074 5.663-.79a1 1 0 0 1-1 1 5.039 5.039 0 0 0-5 5v3a3 3 0 0 1-6 0v-2.65a11.395 11.395 0 0 1 6.587-10.41C34.588 9.628 43.177 15.278 43 23v15h2c-.092-1.974.262-16.185-.298-17.788a13.158 13.158 0 0 0-1.448-3.712 1 1 0 0 1 .366-1.366c1.684-.957 2.692 3.486 3.035 4.648.656 2.087.235 15.802.345 18.217h2c-.07-2.002.208-16.18-.246-17.826a1.001 1.001 0 0 1 .813-1.159c1.723-.2 1.286 2.844 1.433 3.986v15h8a1 1 0 0 1 0 2h-8a19.169 19.169 0 0 1-14.78 19.524zM31 41a1 1 0 1 0 2 0v-1h-2zm6-1h-2v1a3 3 0 0 1-6 0v-1h-2c-.582 7.288 9.476 8.242 10 1z" opacity="1" data-original="url(#a)"></path></g></svg>