<svg xmlns="http://www.w3.org/2000/svg" version="1.1" xmlns:xlink="http://www.w3.org/1999/xlink" width="512" height="512" x="0" y="0" viewBox="0 0 50 50" style="enable-background:new 0 0 512 512" xml:space="preserve"><rect width="50" height="50" rx="10" ry="10" fill="#bac8d3" shape="rounded"></rect><g transform="matrix(0.54,0,0,0.54,11.499999999999998,11.499999999999998)"><linearGradient id="a" x1="25" x2="25" y1="50" y2="0" gradientUnits="userSpaceOnUse"><stop offset="0" stop-color="#0fb2d8"></stop><stop offset="1" stop-color="#1dffe4"></stop></linearGradient><path fill="url(#a)" d="M39.75 47H46v3h-4zM4 50h4l2.25-3H4zm26-13v-1h-2v1c0 .55-.45 1-1 1h-1v2h6v-2h-1c-.55 0-1-.45-1-1zm-15-1c-.55 0-1 .45-1 1s.45 1 1 1 1-.45 1-1-.45-1-1-1zm-8 0c-.55 0-1 .45-1 1s.45 1 1 1 1-.45 1-1-.45-1-1-1zm42-5v14H1V31zm-39 6c0-1.65-1.35-3-3-3s-3 1.35-3 3 1.35 3 3 3 3-1.35 3-3zm8 0c0-1.65-1.35-3-3-3s-3 1.35-3 3 1.35 3 3 3 3-1.35 3-3zm16 0c0-.55-.45-1-1-1h-1v-1c0-.55-.45-1-1-1h-4c-.55 0-1 .45-1 1v1h-1c-.55 0-1 .45-1 1v4c0 .55.45 1 1 1h8c.55 0 1-.45 1-1zm12 0c0-.55-.45-1-1-1h-1v-1c0-.55-.45-1-1-1h-4c-.55 0-1 .45-1 1v1h-1c-.55 0-1 .45-1 1v4c0 .55.45 1 1 1h8c.55 0 1-.45 1-1zm-4 0v-1h-2v1c0 .55-.45 1-1 1h-1v2h6v-2h-1c-.55 0-1-.45-1-1zM24.29 23.29a.996.996 0 1 0 1.41 1.41.996.996 0 1 0-1.41-1.41zm4.25-1.42a.996.996 0 0 0 0-1.41 5.003 5.003 0 0 0-7.07 0 .996.996 0 1 0 1.41 1.41 3 3 0 0 1 4.24 0c.39.39 1.03.39 1.42 0zm2.82-2.83a.996.996 0 0 0 0-1.41c-3.51-3.51-9.22-3.51-12.73 0a.996.996 0 1 0 1.41 1.41 7.007 7.007 0 0 1 9.9 0c.4.39 1.03.39 1.42 0zm-14.14-2.82c4.29-4.29 11.27-4.29 15.56 0a.996.996 0 1 0 1.41-1.41c-5.07-5.07-13.32-5.07-18.38 0a.996.996 0 1 0 1.41 1.41zM46 11h-5v18h5zm0-8.5a2.5 2.5 0 0 0-5 0V9h5zM9 11H4v18h5zm0-8.5a2.5 2.5 0 0 0-5 0V9h5z" opacity="1" data-original="url(#a)"></path></g></svg>