<svg xmlns="http://www.w3.org/2000/svg" version="1.1" xmlns:xlink="http://www.w3.org/1999/xlink" width="512" height="512" x="0" y="0" viewBox="0 0 512 512" style="enable-background:new 0 0 512 512" xml:space="preserve"><rect width="512" height="512" rx="102.4" ry="102.4" fill="#bac8d3" shape="rounded"></rect><g transform="matrix(0.72,0,0,0.72,71.66599914550784,71.68)"><linearGradient id="a" x1="255.95" x2="255.95" y1="142.5" y2="369.5" gradientUnits="userSpaceOnUse"><stop offset="0" stop-color="#f704fe"></stop><stop offset="1" stop-color="#24bce3"></stop></linearGradient><path fill="url(#a)" d="M461.2 325.8v7.1c0 4.2-3.4 7.6-7.6 7.6h-26c.1-.9.1-1.8.1-2.7 0-4.2-.6-8.2-1.8-12zm0-49v10.8h-13c-3 0-5.4-2.4-5.4-5.4s2.4-5.4 5.4-5.4zm-54.5-99.3 18 52.6h-83.6v-52.6zm11.2 160.3c0 2.3-.2 4.5-.7 6.6-3 14.3-15.7 25.1-31 25.1-15.2 0-28-10.8-31-25.3-.4-2.1-.7-4.2-.7-6.4 0-5.2 1.2-10 3.4-14.3l.3-.6c5.4-9.9 15.8-16.6 27.8-16.6s22.4 6.7 27.8 16.6v.1c.1.3.2.5.4.8v.1c2.5 4 3.7 8.8 3.7 13.9zm-11.8 0c0-10.9-8.9-19.8-19.8-19.8s-19.8 8.9-19.8 19.8 8.9 19.8 19.8 19.8 19.8-8.8 19.8-19.8zm-9.8 0c0 5.6-4.5 10.1-10.1 10.1s-10.1-4.5-10.1-10.1 4.5-10.1 10.1-10.1 10.1 4.5 10.1 10.1zm-231-12h181.3c-1.2 3.8-1.8 7.8-1.8 12 0 .9 0 1.7.1 2.6H167c.4-5-.2-9.9-1.7-14.6zm110.8-148.3H310v52.4h-33.9zm-65.2 0h33.9v52.4h-33.9zm-65.4 0h33.9v52.4h-33.9zm8.5 146c2.9 5.8 4 12.3 3.1 18.8l-.3 1.8c0 .1 0 .2-.1.2-3.4 16.2-18.9 27.2-35.4 24.8-8.4-1.1-15.8-5.6-20.9-12.3-2.7-3.6-4.6-7.7-5.6-12 0-.4-.1-.8-.2-1.2-.3-1.9-.5-3.8-.5-5.8 0-1.5.1-3 .3-4.6.5-3.3 1.4-6.5 2.9-9.5.3-.4.6-.9.8-1.5 2.1-3.8 5.1-7.2 8.7-9.9 5.5-4.2 12.1-6.4 18.9-6.4 1.6 0 3 .1 4.6.3 8.4 1.2 15.8 5.6 20.9 12.3 1 1.3 1.8 2.6 2.6 4-.1.5 0 .8.2 1zm-8.5 14.3c0-10.9-8.9-19.8-19.8-19.8-11 0-19.8 8.9-19.8 19.8s8.9 19.8 19.8 19.8 19.8-8.8 19.8-19.8zm-19.8-10.1c5.6 0 10.1 4.5 10.1 10.1s-4.5 10.1-10.1 10.1-10.1-4.5-10.1-10.1 4.5-10.1 10.1-10.1zM80.2 177.5h33.9v52.4H80.2zM50.8 325.8H86c-.6 2-1.1 4.1-1.4 6.2-.4 2.8-.5 5.6-.4 8.4h-26c-4.1 0-7.5-3.4-7.5-7.6v-7zm8-49c3 0 5.4 2.4 5.4 5.4s-2.4 5.4-5.4 5.4h-8.1v-10.8zm402.4 20.5V316h-39.7c-7.3-11.8-20.4-19.7-35.2-19.7s-27.9 7.9-35.2 19.7H160.9c-.6-1-1.3-2.1-2.1-3-6.7-8.9-16.3-14.6-27.3-16.2-10.9-1.6-21.8 1.2-30.7 7.9-4.2 3.2-7.7 7-10.4 11.4H50.8v-18.7h8.1c8.4 0 15.1-6.8 15.1-15.1s-6.8-15.1-15.1-15.1h-8.1V150.1c0-4.2 3.4-7.6 7.5-7.6h350.4c6.9 0 13.2 4.3 15.7 10.7l33 83.4c2.5 6.4 3.8 13.1 3.8 20V267h-13c-8.3 0-15.1 6.8-15.1 15.1s6.8 15.1 15.1 15.1zm-28.1-61.2c1.7-2.4 2.1-5.5 1.2-8.2L415.8 174v-.1c-1.3-3.6-4.8-6.1-8.6-6.1h-69.3c-3.6 0-6.5 2.9-6.5 6.5v59c0 3.6 2.9 6.5 6.5 6.5h87.8c2.9.1 5.7-1.4 7.4-3.7zm-85.6 21.2c0-2.7-2.2-4.9-4.9-4.9h-6.4c-2.7 0-4.9 2.2-4.9 4.9s2.2 4.9 4.9 4.9h6.4c2.7-.1 4.9-2.2 4.9-4.9zm-27.7-25v-57.1c0-4.1-3.4-7.4-7.5-7.4h-38.6c-4.1 0-7.4 3.4-7.4 7.4v57c0 4.1 3.4 7.5 7.4 7.5h38.6c4.1 0 7.5-3.3 7.5-7.4zm-65.2-.1v-57.1c0-4.1-3.4-7.4-7.4-7.4h-38.7c-2 0-4 .9-5.4 2.4-1.3 1.4-2 3.3-1.9 5.2v57c0 4.1 3.4 7.5 7.5 7.5h38.6c4-.1 7.3-3.4 7.3-7.6zm-65.4.1v-57.1c0-4.1-3.4-7.4-7.4-7.4h-38.6c-4.1 0-7.4 3.4-7.4 7.4v57c0 4.1 3.4 7.5 7.4 7.5h38.6c4.1 0 7.4-3.3 7.4-7.4zm-65.2 0v-57.1c0-4.1-3.4-7.4-7.5-7.4H77.9c-4.1 0-7.5 3.4-7.5 7.4v57c0 4.1 3.4 7.5 7.5 7.5h38.6c4.1 0 7.5-3.3 7.5-7.4z" opacity="1" data-original="url(#a)"></path></g></svg>