<svg xmlns="http://www.w3.org/2000/svg" version="1.1" xmlns:xlink="http://www.w3.org/1999/xlink" width="512" height="512" x="0" y="0" viewBox="0 0 64 64" style="enable-background:new 0 0 512 512" xml:space="preserve"><rect width="64" height="64" rx="12.8" ry="12.8" fill="#bac8d3" shape="rounded"></rect><g transform="matrix(0.6399999999999998,0,0,0.6399999999999998,11.520000000000007,11.520536270141616)"><linearGradient id="a" x1="4" x2="60" y1="32.003" y2="32.003" gradientUnits="userSpaceOnUse"><stop offset="0" stop-color="#ffa68d"></stop><stop offset="1" stop-color="#fd3a84"></stop></linearGradient><path fill="url(#a)" d="M57 8.5H7a3.009 3.009 0 0 0-3 3v29.97a3.009 3.009 0 0 0 3 3h20v7.085a33.542 33.542 0 0 0-7.357 2.01 1 1 0 0 0 .714 1.867 31.023 31.023 0 0 1 22.73-.213l.556.213a1 1 0 1 0 .714-1.868A33.537 33.537 0 0 0 37 51.554V44.47h20a3.009 3.009 0 0 0 3-3V11.5a3.009 3.009 0 0 0-3-3zM42.53 22.85l-3.02 7.57a1.718 1.718 0 0 1-3.16 0l-3.02-7.57a.994.994 0 0 1 .56-1.3 1.015 1.015 0 0 1 1.3.56l2.74 6.87 2.75-6.87a.996.996 0 0 1 1.85.74zm-20.14.63a1 1 0 0 1 0-2h8a1 1 0 0 1 0 2h-3v7a1 1 0 0 1-2 0v-7zM7 10.5h50a1.003 1.003 0 0 1 1 1v1.65H6c.08-.905-.4-2.58 1-2.65zm28 40.802a32.891 32.891 0 0 0-6 0V44.47h6zm22-8.832H7a1.003 1.003 0 0 1-1-1v-1.65h52c-.08.905.4 2.58-1 2.65z" opacity="1" data-original="url(#a)"></path></g></svg>