<svg xmlns="http://www.w3.org/2000/svg" version="1.1" xmlns:xlink="http://www.w3.org/1999/xlink" width="512" height="512" x="0" y="0" viewBox="0 0 64 64" style="enable-background:new 0 0 512 512" xml:space="preserve" class=""><rect width="64" height="64" rx="12.8" ry="12.8" fill="#bac8d3" shape="rounded"></rect><g transform="matrix(0.68,0,0,0.68,10.240005187988281,10.240014038085938)"><linearGradient id="a" x1="4" x2="60" y1="32" y2="32" gradientUnits="userSpaceOnUse"><stop offset="0" stop-color="#7f00ff"></stop><stop offset="1" stop-color="#e100ff"></stop></linearGradient><path fill="url(#a)" d="M56.001 13H8.02a3.998 3.998 0 0 0-3.999 4v20c0 1.48.8 2.77 2 3.46.59.34 1.269.54 1.999.54H56c2.172 0 4.005-1.772 3.999-4V17c0-2.21-1.79-4-3.999-4zm0 19c0 .55-.45 1-1 1a3.008 3.008 0 0 0-2.998 3c0 .55-.45 1-1 1H13.018c-.55 0-1-.45-1-1 0-1.65-1.35-3-2.999-3-.55 0-1-.45-1-1V22c0-.55.45-1 1-1 1.65 0 3-1.35 3-3 0-.55.449-1 .999-1h37.985c.55 0 1 .45 1 1 0 1.65 1.35 3 2.999 3 .55 0 1 .45 1 1zm0 16A5.991 5.991 0 0 0 60 46.46V47c0 2.21-1.79 4-3.999 4H8.02c-2.444.016-4.229-2.155-3.999-4.54A5.99 5.99 0 0 0 8.02 48H56zm0-5A5.991 5.991 0 0 0 60 41.46V42c.006 2.228-1.827 4-3.999 4H8.02c-2.406.02-4.238-2.141-3.999-4.54A5.99 5.99 0 0 0 8.02 43H56zm-23.99-13c-3.953-.109-3.954-5.89 0-6 3.952.109 3.953 5.89 0 6zm18.093-11H13.917c-.4 1.96-1.939 3.5-3.898 3.9v8.2c1.96.4 3.498 1.94 3.898 3.9h36.187c.4-1.96 1.939-3.5 3.898-3.9v-8.2a5.009 5.009 0 0 1-3.898-3.9zm-29.09 9h-4.997c-1.312-.025-1.315-1.975 0-2h4.998c1.311.025 1.314 1.975 0 2zm10.997 4c-6.607-.206-6.605-9.795 0-10 6.606.206 6.604 9.795 0 10zm15.994-4h-4.999c-1.311-.025-1.314-1.975 0-2h4.999c1.311.025 1.314 1.975 0 2z" opacity="1" data-original="url(#a)"></path></g></svg>