<svg xmlns="http://www.w3.org/2000/svg" version="1.1" xmlns:xlink="http://www.w3.org/1999/xlink" width="512" height="512" x="0" y="0" viewBox="0 0 1706.66 1706.66" style="enable-background:new 0 0 512 512" xml:space="preserve" fill-rule="evenodd"><rect width="1706.66" height="1706.66" rx="341.332" ry="341.332" fill="#bac8d3" shape="rounded"></rect><g transform="matrix(0.58,0,0,0.58,358.4007348632813,358.3965051269532)"><linearGradient id="a" x1=".07" x2="1706.59" y1="853.33" y2="853.33" gradientUnits="userSpaceOnUse"><stop offset="0" stop-color="#ffb800"></stop><stop offset="1" stop-color="#ff5329"></stop></linearGradient><path fill="url(#a)" d="M1620.24 1509.15H321.45c-47.62 0-86.35-38.73-86.35-86.36V942.18c5.96 2.3 12.43 3.57 19.19 3.57h1431.49c7.39 0 14.43-1.5 20.83-4.23v481.27c-.01 47.63-38.76 86.36-86.37 86.36zM201.77 1280.37H86.42c-47.63 0-86.36-38.75-86.36-86.37V283.85c0-47.62 38.73-86.35 86.36-86.35h1298.79c47.62 0 86.36 38.73 86.36 86.35v109.1H321.45c-66.02 0-119.69 53.67-119.69 119.69v767.73zm1484.01-367.96H254.29c-11.04 0-20-8.97-20-20V698.08c0-11.04 8.96-20 20-20h1431.5c11.04 0 20 8.96 20 20V892.4c0 11.04-8.98 20.01-20.01 20.01zm-175.94 306.99h-97.16c-26.33 0-26.32-40 0-40h97.16c26.33 0 26.33 40 0 40zm-446.93 0h-97.18c-26.33 0-26.31-40 0-40h97.18c26.32 0 26.33 40 0 40zm223.46 0h-97.16c-26.33 0-26.31-40 0-40h97.16c26.33 0 26.33 40 0 40zm-470.54 156.13H448.5c-20.22 0-36.67-16.45-36.67-36.68v-274.3c0-20.22 16.44-36.68 36.67-36.68h367.33c20.22 0 36.66 16.46 36.66 36.68v274.3c-.01 20.22-16.45 36.68-36.66 36.68zm-364-40.01h61.61v-74.3h-61.61zm101.61 0h50.71v-74.3h-50.71zm90.71 0h50.72v-74.3h-50.72zm90.72 0h77.63v-74.3h-77.63zm77.63-114.3v-39.01H451.83v39.01zm0-79.01v-74.33h-77.63v74.33zm-117.63-74.33h-50.72v74.33h50.72zm-90.72 0h-50.71v74.33h50.71zm-90.71 0h-61.61v74.33h61.61zM235.1 648.32V512.63c0-47.62 38.73-86.35 86.35-86.35h1298.79c47.62 0 86.37 38.75 86.37 86.35v136.34c-6.39-2.72-13.43-4.22-20.81-4.22H254.3c-6.76 0-13.24 1.27-19.19 3.57z" opacity="1" data-original="url(#a)"></path></g></svg>