<svg xmlns="http://www.w3.org/2000/svg" version="1.1" xmlns:xlink="http://www.w3.org/1999/xlink" width="512" height="512" x="0" y="0" viewBox="0 0 512 512" style="enable-background:new 0 0 512 512" xml:space="preserve" class=""><rect width="512" height="512" rx="102.4" ry="102.4" fill="#bac8d3" shape="rounded"></rect><g transform="matrix(0.57,0,0,0.57,110.08000000000001,95.0802173423767)"><linearGradient id="a" x1="256" x2="256" y1="518.58" y2="-6.58" gradientUnits="userSpaceOnUse"><stop offset="0" stop-color="#236bff"></stop><stop offset="1" stop-color="#00cef2"></stop></linearGradient><path fill="url(#a)" d="M475.645 493.521v22.046a3.022 3.022 0 0 1-3.013 3.013H39.368a3.022 3.022 0 0 1-3.013-3.013v-22.046a3.022 3.022 0 0 1 3.013-3.013h433.265a3.022 3.022 0 0 1 3.013 3.013zm25.354-110.185V471c0 3.01-2.462 5.472-5.472 5.472H16.472c-3.01 0-5.472-2.462-5.472-5.472v-87.664c0-3.01 2.462-5.472 5.472-5.472h479.056c3.01 0 5.472 2.462 5.472 5.472zm-421.654 22.6h-28.2v42.465h28.2zm56.399 0h-28.2v42.465h28.2zm247.92 0H170.36v42.465h213.304zm77.189 21.232c0-11.756-9.53-21.286-21.286-21.286s-21.286 9.53-21.286 21.286 9.53 21.286 21.286 21.286 21.286-9.53 21.286-21.286zM233.125 261.592v57.594h45.748v-35.951c21.109 0 38.889 0 53.727-.033a119.663 119.663 0 0 1-5.399-1.724c-29.144-10.053-56.925-30.479-78.592-52.146s-42.092-49.448-52.146-78.592a121.642 121.642 0 0 1-1.725-5.405c-.032 14.82-.031 32.595-.031 53.732 0 13.884 4.384 25.823 13.369 36.407a299.832 299.832 0 0 0 25.05 26.116zm-28.759 70.719a2.968 2.968 0 0 0-2.959 2.959v26.509a2.968 2.968 0 0 0 2.959 2.959h103.266a2.968 2.968 0 0 0 2.959-2.959V335.27a2.968 2.968 0 0 0-2.959-2.959zm52.727-111.462c20.273 20.273 46.692 39.86 74.02 49.287 14.439 4.981 37.281 9.488 49.533-2.765 12.253-12.253 7.746-35.094 2.765-49.534-6.254-18.13-16.981-35.86-29.412-51.661l-29.544 45.596c-2.622 4.046-6.7 6.724-11.454 7.521s-9.483-.404-13.28-3.372c-7.013-5.483-13.68-11.433-19.974-17.727a221.26 221.26 0 0 1-15.786-17.531c-3.055-3.788-4.323-8.551-3.554-13.356.768-4.805 3.458-8.936 7.542-11.582l46.165-29.913c-16.383-13.222-34.975-24.718-54.009-31.284-14.439-4.981-37.281-9.488-49.533 2.765-12.253 12.252-7.746 35.094-2.765 49.533 9.427 27.328 29.014 53.748 49.287 74.02zm17.38-55.052c-1.232.798-1.987 1.957-2.218 3.407-.232 1.449.124 2.786 1.045 3.928a210.005 210.005 0 0 0 14.931 16.579c5.829 5.829 12.17 11.513 18.88 16.758 1.146.896 2.472 1.232 3.906.992 1.435-.24 2.578-.992 3.369-2.212l57.536-88.798a18.058 18.058 0 0 0 6.481 1.196c10.001 0 18.108-8.107 18.108-18.108s-8.107-18.108-18.108-18.108-18.108 8.107-18.108 18.108c0 3.306.886 6.405 2.434 9.073l-88.257 57.186zM383.716 9.42c22.661 0 43.947 8.817 59.969 24.839 16.023 16.022 24.839 37.307 24.839 59.969a8 8 0 0 0 16 0 100.82 100.82 0 0 0-29.527-71.281 100.823 100.823 0 0 0-71.281-29.526 8 8 0 0 0 0 16zm0 55.944c7.774 0 14.914 2.957 20.41 8.453 5.46 5.46 8.485 12.681 8.485 20.41a7.97 7.97 0 0 0 15.938 0c0-11.889-4.698-23.312-13.11-31.723-8.375-8.375-19.878-13.141-31.723-13.141a8 8 0 0 0 0 16zm0-43.941a7.97 7.97 0 0 0 0 15.938c15.173 0 29.466 5.954 40.19 16.678 10.723 10.723 16.678 25.016 16.678 40.189a7.97 7.97 0 0 0 15.938 0c0-19.333-7.629-37.828-21.303-51.502s-32.169-21.302-51.502-21.303z" opacity="1" data-original="url(#a)"></path></g></svg>