<svg xmlns="http://www.w3.org/2000/svg" version="1.1" xmlns:xlink="http://www.w3.org/1999/xlink" width="512" height="512" x="0" y="0" viewBox="0 0 512 512" style="enable-background:new 0 0 512 512" xml:space="preserve"><rect width="512" height="512" rx="102.4" ry="102.4" fill="#bac8d3" shape="rounded"></rect><g transform="matrix(0.5499999999999999,0,0,0.5499999999999999,110.20000000000002,115.20000171661377)"><linearGradient id="a" x1="437.21" x2="148.96" y1="-9.46" y2="489.81" gradientUnits="userSpaceOnUse"><stop offset="0" stop-color="#2aa3ff"></stop><stop offset="1" stop-color="#ce3fff"></stop></linearGradient><path fill="url(#a)" fill-rule="evenodd" d="m220.16 225.71-12.42 10.91h266.85V70.86H166.38v104.97l1.39-1.08c8.22-8.39 19.36-12.33 31.07-10.32 6.29 1.11 12.22 3.85 17.23 7.8 17.01 13.46 19.62 36.62 4.59 52.95l-.51.54zm114.49-42.49h-74.41c-3.86 0-7-3.12-7-7s3.15-7 7-7h74.41c3.86 0 7 3.15 7 7s-3.15 7-7 7zm90.14 0h-50.54c-3.88 0-7-3.12-7-7s3.12-7 7-7h50.54c3.88 0 7 3.15 7 7s-3.12 7-7 7zm0-39.8H298.65c-3.88 0-7-3.12-7-6.97s3.12-7 7-7h126.14c3.88 0 7 3.12 7 7s-3.12 6.97-7 6.97zM224.24 89.65h200.55c3.88 0 7 3.12 7 7s-3.12 7-7 7H224.24c-3.86 0-7-3.15-7-7s3.15-7 7-7zm0 53.77c-3.86 0-7-3.12-7-6.97s3.15-7 7-7h46.8c3.85 0 7 3.12 7 7s-3.15 6.97-7 6.97zm-32.43 107.21H496V283H164.77v-10.97c4.82-2.64 9.35-5.84 13.49-9.47zM496 24.48v32.37H149.46a76.318 76.318 0 0 0-4.48-5.16V24.48h351.01zM150.76 320.93c-4 5.16-7.11 11-9.18 17.35H16V209.93c0-23.73 16.13-43.88 37.98-50 11.34 7.63 25 12.08 39.69 12.08 11.11 0 21.6-2.52 30.98-7.09 10.37 6.01 18.51 15.48 22.79 26.79l-23.53 26.28c-2.58 2.86-2.32 7.26.54 9.84 2.86 2.55 7.29 2.32 9.84-.54 15.28-17.06 25.03-28.21 42.92-42.12 19.45-21.12 53.32 8.62 33.14 30.53-20.27 17.83-40.82 39.6-69.05 43.09-12.5 1.53-25.23.03-34.84-4.99l-37.93-19.87c-3.4-1.79-7.63-.45-9.41 2.95-1.79 3.4-.45 7.62 2.95 9.41L100 266.16c12.25 6.38 27.92 8.39 43 6.52 2.61-.31 5.22-.77 7.77-1.3v49.58zM36.58 100.9c0-31.44 25.63-57.09 57.09-57.09s57.09 25.65 57.09 57.09-25.65 57.12-57.09 57.12-57.09-25.65-57.09-57.12zm459.41 337.89v48.73H393.66v-48.73c0-14.77 8.22-27.69 20.3-34.44 8.9 5.7 19.5 9.01 30.87 9.01s21.97-3.32 30.87-9.01c12.08 6.75 20.3 19.67 20.3 34.44zm-124.33 0v48.73H269.3v-48.73c0-14.77 8.22-27.69 20.3-34.44 8.93 5.7 19.5 9.01 30.87 9.01s21.97-3.32 30.87-9.01c12.1 6.75 20.32 19.67 20.32 34.44zm-124.36 0v48.73H144.97v-48.73c0-14.77 8.19-27.69 20.3-34.44 8.9 5.7 19.5 9.01 30.87 9.01s21.94-3.32 30.87-9.01c12.08 6.75 20.3 19.67 20.3 34.44zm154.15-82.8c0-23.87 19.47-43.34 43.37-43.34s43.37 19.47 43.37 43.34-19.5 43.37-43.37 43.37-43.37-19.47-43.37-43.37zm-124.33 0c0-23.87 19.47-43.34 43.34-43.34s43.37 19.47 43.37 43.34-19.47 43.37-43.37 43.37-43.34-19.47-43.34-43.37zm-124.36 0c0-23.87 19.47-43.34 43.37-43.34s43.34 19.47 43.34 43.34-19.47 43.37-43.34 43.37-43.37-19.47-43.37-43.37z" opacity="1" data-original="url(#a)"></path></g></svg>