<svg xmlns="http://www.w3.org/2000/svg" version="1.1" xmlns:xlink="http://www.w3.org/1999/xlink" width="512" height="512" x="0" y="0" viewBox="0 0 64 64" style="enable-background:new 0 0 512 512" xml:space="preserve"><rect width="64" height="64" rx="12.8" ry="12.8" fill="#bac8d3" shape="rounded"></rect><g transform="matrix(0.72,0,0,0.72,8.959864883422856,8.960022163391116)"><linearGradient id="a" x1="14.041" x2="49.959" y1="32" y2="32" gradientUnits="userSpaceOnUse"><stop offset="0" stop-color="#00c0ff"></stop><stop offset="1" stop-color="#5558ff"></stop></linearGradient><path fill="url(#a)" d="M42.286 41.422V45.7h-20.37v-4.28h20.37zm-20.37 6.269v1.99a4.4 4.4 0 0 0 5.036 4.279c1.471-.082 10.903.19 12.13-.15a4.262 4.262 0 0 0 3.204-4.13v-1.99c-.995.002-17.586 0-20.37 0zM44.009 8.574c-10.664-9.724-28.31-3.01-29.853 11.354a17.925 17.925 0 0 0 4.826 14.409 10.514 10.514 0 0 1 2.757 5.094c2.077.004 5.066-.002 7.154 0V26.704H25.49a5.408 5.408 0 0 1-5.393-5.592c.252-7.138 10.535-7.139 10.786 0v3.602h1.871v-3.602c.176-7.182 11.007-7.178 11.185 0a5.408 5.408 0 0 1-5.393 5.592h-3.802v12.727c2.201-.017 5.496.012 7.683 0a8.944 8.944 0 0 1 2.408-4.856c7.179-7.016 6.737-19.44-.826-26.001zm-13.126 18.13v12.727h1.871V26.704zm11.066-5.393c.146-4.68-7.1-4.86-7.205-.2v3.603h3.802a3.408 3.408 0 0 0 3.403-3.403zm-16.459-3.602c-4.524.128-4.522 6.884 0 7.005h3.403v-3.602a3.408 3.408 0 0 0-3.403-3.403zM37.092 55.95h-10.14a8.661 8.661 0 0 1-1.99-.13c-.202 2.314 1.937 4.168 4.716 4.18h4.677c2.775-.012 4.916-1.851 4.727-4.15a10.462 10.462 0 0 1-1.99.1z" opacity="1" data-original="url(#a)"></path></g></svg>