<svg xmlns="http://www.w3.org/2000/svg" version="1.1" xmlns:xlink="http://www.w3.org/1999/xlink" width="512" height="512" x="0" y="0" viewBox="0 0 1706.66 1706.66" style="enable-background:new 0 0 512 512" xml:space="preserve" fill-rule="evenodd"><rect width="1706.66" height="1706.66" rx="341.332" ry="341.332" fill="#bac8d3" shape="rounded"></rect><g transform="matrix(0.6,0,0,0.6,341.3340087890625,341.3380249023437)"><linearGradient id="a" x1=".01" x2="1706.65" y1="853.33" y2="853.33" gradientUnits="userSpaceOnUse"><stop offset="0" stop-color="#ffb800"></stop><stop offset="1" stop-color="#ff5329"></stop></linearGradient><path fill="url(#a)" d="M378.14 1421.57V674.32H236.5v747.25zM736.46 727.8l73.44-163.2c-35.72 0-70.32 4.97-91.95-33.52l-70.53 156.65c70.67-25.09 60.87-29.66 89.03 40.07zM505.79 556.73c56.54-23.98 152.59-62.63 203.71-87.16v-98.05L505.79 285.1zm-20.98 52.75c-11.63 0-20.98-9.59-20.98-21.12V441.9H0v190.46h626.21l44.47-98.87c-43.08 18.62-174.32 75.98-185.87 75.98zm594.99 22.88h626.86V441.9h-463.68c0 20.45 2.31 145.34-1.85 154.75-9.21 20.83-28.4 10.41-37.35 6.79-35.33-13.57-114.06-47.23-171.49-71.98l47.51 100.91zm121.07-75.69V285.1L997.3 371.45v98.5l203.57 86.71zM751.62 484.6v.72-.72zm203.57-.44V342.81c0-13.12-10.64-23.61-23.61-23.61H775.23v-.15c-25.57 0-23.61 25.66-23.61 38.76V492.7c-.35 17.77 6.67 29 24.43 29.91 22 1.12 156.58 2.06 166.27-2.43 13.63-6.31 12.87-22.3 12.87-36.04zm15.15 243.79c27.05-70.53 16.84-65.73 88.31-41.68L987 534.23c-23.1 36.28-57.46 30.51-93.59 30.51l76.94 163.21zm-300.32 299.02h786.88c27.59 0 27.59 41.96 0 41.96H670.02c-27.63 0-27.63-41.96 0-41.96zm1036.65 394.61V674.33h-607.11l18.25 38.77c7.9 16.6-8.38 34.64-25.79 28.85l-72.57-24.48-27.39 71.55c-6.59 17.15-30.72 18.09-38.62 1.31L851.49 573.8l-97.24 216.09c-7.33 17.34-31.65 16.21-38.47-.58l-28.71-71.11-72.13 25.65c-17.14 6.06-33.8-11.32-26.08-28.42l18.48-41.09H420.11v747.25h1286.56zM670.02 1214.95h786.88c27.59 0 27.59 41.97 0 41.97H670.02c-27.63 0-27.63-41.97 0-41.97zm-475.49 206.63V674.33H0v747.25z" opacity="1" data-original="url(#a)"></path></g></svg>