<svg xmlns="http://www.w3.org/2000/svg" version="1.1" xmlns:xlink="http://www.w3.org/1999/xlink" width="512" height="512" x="0" y="0" viewBox="0 0 512 512" style="enable-background:new 0 0 512 512" xml:space="preserve" class=""><rect width="512" height="512" rx="102.4" ry="102.4" fill="#bac8d3" shape="rounded"></rect><g transform="matrix(0.6699999999999999,0,0,0.6699999999999999,84.48000000000002,84.48000000000002)"><linearGradient id="a" x1="395.424" x2="116.576" y1="116.576" y2="395.424" gradientUnits="userSpaceOnUse"><stop offset="0" stop-color="#ef3e3d"></stop><stop offset="1" stop-color="#ffc828"></stop></linearGradient><path fill="url(#a)" d="M94.17 216.994c9.983 9.983 16.158 23.774 16.158 39.006s-6.175 29.023-16.158 39.006-23.774 16.158-39.006 16.158-29.023-6.175-39.006-16.158S0 271.232 0 256s6.175-29.023 16.158-39.006 23.774-16.158 39.006-16.158c15.231 0 29.023 6.175 39.006 16.158zm401.672 0c-9.983-9.983-23.774-16.158-39.006-16.158-15.231 0-29.023 6.175-39.006 16.158S401.672 240.768 401.672 256s6.175 29.023 16.158 39.006 23.774 16.158 39.006 16.158 29.023-6.175 39.006-16.158S512 271.232 512 256s-6.175-29.023-16.158-39.006zM256 200.836c-15.232 0-29.023 6.175-39.006 16.158S200.836 240.768 200.836 256s6.175 29.023 16.158 39.006 23.774 16.158 39.006 16.158 29.023-6.175 39.006-16.158 16.158-23.774 16.158-39.006-6.175-29.023-16.158-39.006-23.774-16.158-39.006-16.158z" opacity="1" data-original="url(#a)"></path></g></svg>