<svg xmlns="http://www.w3.org/2000/svg" version="1.1" xmlns:xlink="http://www.w3.org/1999/xlink" width="512" height="512" x="0" y="0" viewBox="0 0 64 64" style="enable-background:new 0 0 512 512" xml:space="preserve"><rect width="64" height="64" rx="12.8" ry="12.8" fill="#bac8d3" shape="rounded"></rect><g transform="matrix(0.7,0,0,0.7,9.599999713897706,9.600000000000001)"><linearGradient id="a" x1="11.54" x2="52.46" y1="32" y2="32" gradientUnits="userSpaceOnUse"><stop offset="0" stop-color="#e6007e"></stop><stop offset="1" stop-color="#662483"></stop></linearGradient><path fill="url(#a)" d="M47.63 38.71v3.31h-3.32v-3.31zm-3.32-9.1v3.32h3.32v-3.32zm0-9.09v3.32h3.32v-3.32zm-12.17 0v3.32h3.32v-3.32zm0 9.09v3.32h3.32v-3.32zm0 9.1v3.31h3.32v-3.31zm-9.29-10.76v2.84h.77v-2.84zm-6.38 0v2.84h.77v-2.84zm0 10.25v2.85h.77V38.2zm35.99-22.17V56a1 1 0 0 1-1 1H28.24a1 1 0 0 1-1-1v-.26h-14.7a1 1 0 0 1-1-1v-31.9a1 1 0 0 1 1-1h14.7v-5.81a1 1 0 0 1 1-1h23.22a1 1 0 0 1 1 1zM19.24 37.2a1 1 0 0 0-1-1h-2.77a1 1 0 0 0-1 1v4.85a1 1 0 0 0 1 1h2.77a1 1 0 0 0 1-1zm0-10.25a1 1 0 0 0-1-1h-2.77a1 1 0 0 0-1 1v4.84a1 1 0 0 0 1 1h2.77a1 1 0 0 0 1-1zm6.38 10.25a1 1 0 0 0-1-1h-2.77a1 1 0 0 0-1 1v4.85a1 1 0 0 0 1 1h2.77a1 1 0 0 0 1-1zm0-10.25a.99.99 0 0 0-1-1h-2.77a1 1 0 0 0-1 1v4.84a1 1 0 0 0 1 1h2.77a1 1 0 0 0 1-1zm4.52-2.11a1 1 0 0 0 1 1h5.32a1 1 0 0 0 1-1v-5.32a1 1 0 0 0-1-1h-5.32a1 1 0 0 0-1 1zm0 9.09a1 1 0 0 0 1 1h5.32a1 1 0 0 0 1-1v-5.32a1 1 0 0 0-1-1h-5.32a1 1 0 0 0-1 1zm1 10.09h5.32a1 1 0 0 0 1-1v-5.31a1 1 0 0 0-1-1h-5.32a1 1 0 0 0-1 1v5.31a1 1 0 0 0 1 1zm13.04 1.18a1 1 0 0 0-1-1h-6.67a1 1 0 0 0-1 1V55h2v-8.8h4.67V55h2zm5.45-7.49a1 1 0 0 0-1-1h-5.32a1 1 0 0 0-1 1v5.31a1 1 0 0 0 1 1h5.32a1 1 0 0 0 1-1zm0-9.1a1 1 0 0 0-1-1h-5.32a1 1 0 0 0-1 1v5.32a1 1 0 0 0 1 1h5.32a1 1 0 0 0 1-1zm0-9.09a1 1 0 0 0-1-1h-5.32a1 1 0 0 0-1 1v5.32a1 1 0 0 0 1 1h5.32a1 1 0 0 0 1-1zM22.85 38.2v2.85h.77V38.2zM20.91 7a1 1 0 0 0-1 1v1.58H18.6V8a1 1 0 0 0-2 0v5.17a1 1 0 1 0 2 0v-1.59h1.31v1.59a1 1 0 0 0 2 0V8a1 1 0 0 0-1-1zm8.33 3.66a3.362 3.362 0 1 1-6.71 0 3.362 3.362 0 1 1 6.71 0zm-2 0a1.371 1.371 0 1 0-2.71 0 1.371 1.371 0 1 0 2.71 0zm13.08.96a1 1 0 0 0 0-2h-2.05v-.54h2.05a1 1 0 0 0 0-2h-3.05a1 1 0 0 0-1 1v5.09a1 1 0 0 0 1 1h3.05a1 1 0 0 0 0-2h-2.05v-.55zm7.08 1.545a1 1 0 0 0-1-1h-2.009V8a1 1 0 0 0-2 0v5.165a1 1 0 0 0 1 1H46.4a1 1 0 0 0 1-1zM34.97 7h-4.92a1 1 0 1 0 0 2h1.46v4.17a1 1 0 1 0 2 0V9h1.46a1 1 0 0 0 0-2z" opacity="1" data-original="url(#a)"></path></g></svg>