<svg xmlns="http://www.w3.org/2000/svg" version="1.1" xmlns:xlink="http://www.w3.org/1999/xlink" width="512" height="512" x="0" y="0" viewBox="0 0 512 512" style="enable-background:new 0 0 512 512" xml:space="preserve"><rect width="512" height="512" rx="102.4" ry="102.4" fill="#bac8d3" shape="rounded"></rect><g transform="matrix(0.58,0,0,0.58,107.52022911071776,97.52000080108641)"><linearGradient id="a" x1="256" x2="256" y1="499.718" y2="12.282" gradientUnits="userSpaceOnUse"><stop offset="0" stop-color="#1751ff"></stop><stop offset="1" stop-color="#5cc5ff"></stop></linearGradient><path fill="url(#a)" d="M172.01 459.338h51.824V356.862h-23.283a19.195 19.195 0 0 1-18.666-14.489 19.176 19.176 0 0 1 7.312-20.328v-38.373l21.562-3.325v29.685l21.839-11.966v-21.133l24.296-3.753v11.575l17.188-9.417V12.282L172.01 55.915zm84.885-212.467-24.296 4.573v-44.237l24.296-5.995zm0-71.967-24.296 6.815v-44.271l24.296-8.239v45.696zm0-114.8v42.833l-24.296 9.057-.007-41.463zm-67.697 29.022 21.575-9.248-.007 40.264-21.569 7.999V89.126zm0 63.04 21.569-7.305v43.026l-21.569 6.042v-41.762zm0 65.721 21.569-5.316v43.026l-21.569 4.053v-41.762zM394.154 58.48v211.225l-39.997-21.914c-9.451-5.178-20.348-5.178-29.799 0l-38.276 20.972V12.282zM59.541 178.261v281.077H160.01V135.313zm42.919 212.582H84.921v-33.652l17.543-1.713zm.01-55.487-17.549 2.403v-33.78l17.549-3.605zm0-55.061-17.549 4.316V250.83l17.549-5.517zm.006-55.082-17.554 6.207v-31.55l17.56-7.396-.005 32.739zm38.156 165.63h-20.211v-37.128l20.211-1.976v39.103zm0-60.755-20.211 2.785v-36.177l20.211-4.171zm0-59.215-20.211 4.979v-36.199l20.211-6.387zm0-59.237-20.217 7.196v-33.9l20.217-8.567zm340.826 119.586-133.065-72.907c-5.859-3.21-12.407-3.21-18.267 0L197.06 331.222c-2.95 1.616-4.383 4.917-3.548 8.176.834 3.259 3.677 5.465 7.041 5.465h35.283v114.475h26.977V387.93h-7.494a6 6 0 1 1 0-12h66.595a6 6 0 1 1 0 12h-7.494v71.408h128.264V344.863h35.282c3.365 0 6.207-2.206 7.041-5.465s-.598-6.56-3.549-8.176zm-160.983-25.216c0-10.374 8.41-18.784 18.784-18.784s18.784 8.41 18.784 18.784-8.41 18.784-18.784 18.784-18.784-8.41-18.784-18.784zm56.777 67.875h-26.454v-29.017h26.454zm38.453 0h-26.453v-29.017h26.453zM26.759 492.212v-13.368c0-4.128 3.378-7.506 7.506-7.506h434.454c4.128 0 7.506 3.378 7.506 7.506v13.368c0 4.128-3.378 7.506-7.506 7.506H34.265c-4.128 0-7.506-3.378-7.506-7.506z" opacity="1" data-original="url(#a)"></path></g></svg>