<svg xmlns="http://www.w3.org/2000/svg" version="1.1" xmlns:xlink="http://www.w3.org/1999/xlink" width="512" height="512" x="0" y="0" viewBox="0 0 64 64" style="enable-background:new 0 0 512 512" xml:space="preserve" class=""><rect width="64" height="64" rx="12.8" ry="12.8" fill="#bac8d3" shape="rounded"></rect><g transform="matrix(0.6,0,0,0.6,12.805241203308107,12.803923225402837)"><linearGradient id="a" x1="3.899" x2="60.126" y1="32.002" y2="32.002" gradientUnits="userSpaceOnUse"><stop offset="0" stop-color="#00c0ff"></stop><stop offset="1" stop-color="#5558ff"></stop></linearGradient><path fill="url(#a)" d="M48.96 12.6a46.603 46.603 0 0 0-5.04-3.95l1.44-3.24a1.003 1.003 0 0 0-1.83-.82l-1.37 3.07a35.073 35.073 0 0 0-7.71-2.19c-7.516-1.217-18.997-.535-30.26 9.67a1.007 1.007 0 0 0-.15 1.22.995.995 0 0 0 .86.49 6.396 6.396 0 0 1 5.72 4.88.998.998 0 0 0 1.15.7c.728-.097 6.825-.283 9.9 6.38a1.028 1.028 0 0 0 1.04.48 12.658 12.658 0 0 1 8.148 1.765L20.553 54.072c-2.409 4.934-9.707 1.705-7.608-3.406l.683-1.528a1 1 0 0 0-1.826-.817l-.683 1.529a6.168 6.168 0 1 0 11.26 5.039l10.134-22.637A15.117 15.117 0 0 1 35.5 35.73a.974.974 0 0 0 .713.409 14.3 14.3 0 0 1 13.437 4.9 1.022 1.022 0 0 0 1.25.271c.61-.24 4.64-1.71 6.49 1.05a1.03 1.03 0 0 0 1.03.56c2.12-.328 4.827-17.797-9.46-30.32zm-37.21 6.62a8.36 8.36 0 0 0-3.94-3.67c2.38-.98 6.2-2.08 9.92-1.17a19.99 19.99 0 0 0-5.98 4.84zm10.784 7.017A12 12 0 0 0 13.3 20.49c1.94-2.6 5.67-4.55 6.93-5.16a11.053 11.053 0 0 1 2.78 2.13c.348.33.598.32 1.11.3a26.19 26.19 0 0 1 4.89.51 33.795 33.795 0 0 0-6.476 7.967zm13.803 7.18a16.102 16.102 0 0 0-2.977-3.057l2.32-5.181a1 1 0 0 0-1.826-.817l-2.176 4.863A15.258 15.258 0 0 0 24.29 27.2a31.085 31.085 0 0 1 7.156-8.358 24.266 24.266 0 0 1 8.884 4.588 36.704 36.704 0 0 1-3.993 9.986zM50.06 38.55a16.002 16.002 0 0 0-11.699-4.59A38.455 38.455 0 0 0 42 24.98a21.24 21.24 0 0 1 3.081 4.011c.443.83.777.59 1.82.87a15.176 15.176 0 0 1 3.64 1.38 20.006 20.006 0 0 1-.48 7.31zm3.83.17a10.203 10.203 0 0 0-1.86.18 20.78 20.78 0 0 0 .63-6.28 12.041 12.041 0 0 1 4.24 6.74 6.773 6.773 0 0 0-3.01-.64zm-6.81 3.26-7.14-1.87a1.1 1.1 0 0 0-.51 0l-7.14 1.87a1.003 1.003 0 0 0-.71.7c-.03.13-3.64 13.59 7.8 17.27a.978.978 0 0 0 .61 0c11.45-3.68 7.84-17.14 7.8-17.27a1.003 1.003 0 0 0-.71-.7zm-2.85 6.19-4.43 4.25a.987.987 0 0 1-1.38 0l-2.28-2.17a.996.996 0 0 1-.04-1.41 1.009 1.009 0 0 1 1.42-.04l1.59 1.52 3.74-3.59a.997.997 0 0 1 1.38 1.44z" opacity="1" data-original="url(#a)"></path></g></svg>