<svg xmlns="http://www.w3.org/2000/svg" version="1.1" xmlns:xlink="http://www.w3.org/1999/xlink" width="512" height="512" x="0" y="0" viewBox="0 0 512 512" style="enable-background:new 0 0 512 512" xml:space="preserve"><rect width="512" height="512" rx="102.4" ry="102.4" fill="#bac8d3" shape="rounded"></rect><g transform="matrix(0.5499999999999999,0,0,0.5499999999999999,115.20000000000002,125.20093727111816)"><linearGradient id="a" x1="55.612" x2="416.893" y1="41.925" y2="403.206" gradientUnits="userSpaceOnUse"><stop offset="0" stop-color="#55d6ff"></stop><stop offset="1" stop-color="#ce55ff"></stop></linearGradient><path fill="url(#a)" d="M153.582 434.108h23.956l-1.49 4.105a92.348 92.348 0 0 1-31.077 41.887 89.759 89.759 0 0 1-54.259 18.125A90.815 90.815 0 0 1 0 407.508V219.232a91.456 91.456 0 0 1 43.059-77.106l4.673-2.9v27.05l-1.08.918a68.171 68.171 0 0 0-24.214 52.037v188.277a68.244 68.244 0 0 0 130.323 28.375zm2.04-10.2h23.39v-10.515h-23.39zm60.842-57.415-.032-.171a554.35 554.35 0 0 1-6.966-46.38l-.292-2.734h-88.742l-.292 2.734a555.195 555.195 0 0 1-6.965 46.38l-.033.17-.014.172c-.748 9.458 4.183 17.045 8.45 21.743 8.82 9.708 21.285 14.788 29.039 14.788h28.372c7.754 0 20.218-5.08 29.037-14.788 4.268-4.7 9.2-12.282 8.452-21.743zM512 57.813v232.075a44.084 44.084 0 0 1-44.034 44.035H221.429l-.347-2.665a535.459 535.459 0 0 1 5.441-171.891 5.47 5.47 0 0 0 .072-.5c1.015-10.556-2.795-20.925-11.019-29.978-9.7-10.673-24.742-18.129-36.587-18.129h-28.372c-11.846 0-26.89 7.456-36.586 18.129-8.225 9.052-12.034 19.422-11.018 29.988a4.491 4.491 0 0 0 .069.475 535.453 535.453 0 0 1 5.442 171.9l-.348 2.665h-6.207a44.085 44.085 0 0 1-44.035-44.035V57.813a44.084 44.084 0 0 1 44.035-44.034h366A44.083 44.083 0 0 1 512 57.813zM144.748 68.122a32.884 32.884 0 1 0-32.884 32.883 32.921 32.921 0 0 0 32.884-32.883zm70.788 0a5.1 5.1 0 0 0-5.1-5.1h-42.655a5.1 5.1 0 0 0 0 10.2h42.655a5.105 5.105 0 0 0 5.1-5.1zm63.143 10.628a26.066 26.066 0 0 0 26.037 26.037h149.248a26.037 26.037 0 0 0 0-52.073H304.716a26.066 26.066 0 0 0-26.037 26.036zm41.537 210.484a16.508 16.508 0 0 0-16.49-16.49h-10.878a16.491 16.491 0 1 0 0 32.981h10.878a16.51 16.51 0 0 0 16.49-16.491zm0-59.635a16.509 16.509 0 0 0-16.49-16.491h-10.878a16.491 16.491 0 1 0 0 32.981h10.878a16.508 16.508 0 0 0 16.49-16.489zm0-59.635a16.508 16.508 0 0 0-16.49-16.49h-10.878a16.491 16.491 0 1 0 0 32.981h10.878a16.509 16.509 0 0 0 16.49-16.491zm81.053 119.27a16.508 16.508 0 0 0-16.49-16.49H373.9a16.491 16.491 0 0 0 0 32.981h10.879a16.51 16.51 0 0 0 16.49-16.491zm0-59.635a16.509 16.509 0 0 0-16.49-16.491H373.9a16.491 16.491 0 0 0 0 32.981h10.879a16.508 16.508 0 0 0 16.49-16.489zm0-59.635a16.508 16.508 0 0 0-16.49-16.49H373.9a16.491 16.491 0 0 0 0 32.981h10.879a16.509 16.509 0 0 0 16.49-16.491zm81.053 119.27a16.508 16.508 0 0 0-16.49-16.49h-10.878a16.491 16.491 0 1 0 0 32.981h10.878a16.51 16.51 0 0 0 16.49-16.491zm0-59.635a16.509 16.509 0 0 0-16.49-16.491h-10.878a16.491 16.491 0 1 0 0 32.981h10.878a16.508 16.508 0 0 0 16.49-16.489zm0-59.635a16.508 16.508 0 0 0-16.49-16.49h-10.878a16.491 16.491 0 1 0 0 32.981h10.878a16.509 16.509 0 0 0 16.49-16.491zm-274.089 47.185h-86.86l.253 3.295a544.887 544.887 0 0 1 0 83.27l-.253 3.293h86.86l-.254-3.293a545.4 545.4 0 0 1 0-83.27zm257.6 65.794h-10.879a6.291 6.291 0 1 0 0 12.582h10.878a6.291 6.291 0 1 0 0-12.582zm-81.053 0H373.9a6.291 6.291 0 0 0 0 12.582h10.879a6.291 6.291 0 1 0 0-12.582zm-81.053 0h-10.879a6.291 6.291 0 1 0 0 12.582h10.878a6.291 6.291 0 1 0 0-12.582zm162.106-59.636h-10.879a6.292 6.292 0 1 0 0 12.583h10.878a6.292 6.292 0 0 0 0-12.583zm-81.053 0H373.9a6.292 6.292 0 0 0 0 12.583h10.879a6.292 6.292 0 0 0 0-12.583zm-81.053 0h-10.879a6.292 6.292 0 1 0 0 12.583h10.878a6.292 6.292 0 0 0 0-12.583zm-94.26-19.091c1.653-15.466 4-31.071 6.965-46.38l.032-.169.014-.172c.749-9.46-4.183-17.046-8.451-21.744-8.819-9.708-21.283-14.787-29.037-14.787h-28.373c-7.754 0-20.219 5.079-29.037 14.787-4.269 4.7-9.2 12.283-8.452 21.743l.014.172.033.169c2.966 15.3 5.309 30.9 6.965 46.381l.292 2.734h88.742zm256.366-40.543h-10.879a6.291 6.291 0 1 0 0 12.582h10.878a6.291 6.291 0 1 0 0-12.582zm-81.053 0H373.9a6.291 6.291 0 0 0 0 12.582h10.879a6.291 6.291 0 1 0 0-12.582zm-81.053 0h-10.879a6.291 6.291 0 1 0 0 12.582h10.878a6.291 6.291 0 1 0 0-12.582zm.99-69.085h149.247a15.838 15.838 0 0 0 0-31.675H304.716a15.838 15.838 0 1 0 0 31.675zm-192.853-49.15a22.684 22.684 0 1 0 22.685 22.684 22.71 22.71 0 0 0-22.685-22.684z" opacity="1" data-original="url(#a)"></path></g></svg>