<svg xmlns="http://www.w3.org/2000/svg" version="1.1" xmlns:xlink="http://www.w3.org/1999/xlink" width="512" height="512" x="0" y="0" viewBox="0 0 64 64" style="enable-background:new 0 0 512 512" xml:space="preserve" class=""><rect width="64" height="64" rx="12.8" ry="12.8" fill="#bac8d3" shape="rounded"></rect><g transform="matrix(0.72,0,0,0.72,8.959999465942385,8.96)"><linearGradient id="a" x1="15.01" x2="48.99" y1="32" y2="32" gradientUnits="userSpaceOnUse"><stop offset="0" stop-color="#00c0ff"></stop><stop offset="1" stop-color="#5558ff"></stop></linearGradient><path fill="url(#a)" d="M43.99 4H20.01a5.002 5.002 0 0 0-5 5v2.76h33.98V9a5.002 5.002 0 0 0-5-5zm-6.77 4.88H26.78a1 1 0 0 1 0-2h10.44a1 1 0 0 1 0 2zM15.01 52.57V55a5.002 5.002 0 0 0 5 5h23.98a5.002 5.002 0 0 0 5-5v-2.43zm14.82 2.71h4.34a1 1 0 0 1 0 2h-4.34a1 1 0 0 1 0-2zm19.16-41.52v36.81H15.01V13.76z" opacity="1" data-original="url(#a)" class=""></path></g></svg>