<svg xmlns="http://www.w3.org/2000/svg" version="1.1" xmlns:xlink="http://www.w3.org/1999/xlink" width="512" height="512" x="0" y="0" viewBox="0 0 64 64" style="enable-background:new 0 0 512 512" xml:space="preserve" class=""><rect width="64" height="64" rx="12.8" ry="12.8" fill="#bac8d3" shape="rounded"></rect><g transform="matrix(0.6,0,0,0.6,12.803338527679443,12.800141143798829)"><linearGradient id="a" x1="2.384" x2="57.834" y1="57.19" y2="25.176" gradientUnits="userSpaceOnUse"><stop offset="0" stop-color="#2979ff"></stop><stop offset=".975" stop-color="#18ffff"></stop></linearGradient><path fill="url(#a)" d="M8 55h10V32h-7.13l10.88-10H8L4 34h4zm5-4v-4h2v4zm2-6h-2v-4h2zm46 13c0 .55-.45 1-1 1H46c-4.607-.002-12.449.001-17 0-6.413.002-18.505-.001-25 0-1.291-.019-1.331-1.973 0-2h56c.55 0 1 .45 1 1zm-7.87-26H46v23h10V34h4l-4-12H42.25zM49 51v-4h2v4zm2-6h-2v-4h2zM29 55v-8h6v8zm13 0h2V32H20v23c1.285-.002 5.638.001 7 0v-9c0-.55.45-1 1-1h8c.55 0 1 .45 1 1v9zm-9-18v-2h6v2zm6 2v2h-6v-2zm-8-4v2h-6v-2zm-6 4h6v2h-6zm-9-9h32l-8.71-8L33 16.219v-2.335h8.852c.788.026 1.295-.958.811-1.584L41.009 10l1.654-2.3c.481-.625-.021-1.611-.812-1.584h-8.858C32.976 5.497 32.541 5 32 5c-.552 0-1 .516-1 1.153v.963c.012 2.117-.009 7.041 0 9.103C27.4 19.527 19.649 26.65 16 30zm22.966-19.416.935 1.3H33V8.116h6.901c-.391.677-1.578 1.626-.935 2.468z" opacity="1" data-original="url(#a)"></path></g></svg>