<svg xmlns="http://www.w3.org/2000/svg" version="1.1" xmlns:xlink="http://www.w3.org/1999/xlink" width="512" height="512" x="0" y="0" viewBox="0 0 450 450" style="enable-background:new 0 0 512 512" xml:space="preserve" class=""><rect width="450" height="450" rx="90" ry="90" fill="#bac8d3" shape="rounded"></rect><g transform="matrix(0.7,0,0,0.7,67.50000228881837,67.49999971389772)"><linearGradient id="a" x1="89.622" x2="360.378" y1="355.597" y2="84.84" gradientTransform="matrix(1 0 0 -1 0 450)" gradientUnits="userSpaceOnUse"><stop offset="0" stop-color="#00dbde"></stop><stop offset="1" stop-color="#fc00ff"></stop></linearGradient><path fill="url(#a)" d="M168 425.6h114V440H168zm176-58.5c-5.3 27.5-29.5 48.3-58.5 48.3h-121c-29 0-53.2-20.8-58.5-48.3zM231.4 233.4l9.2 22.5h-20.3l8.6-22.5zm113.7-63.3H104.9V357H345V171.1c.1-.3.1-.7.1-1zM183.9 284.5c0 1.5-.7 3-1.9 4-9.4 7.5-19.6 11.3-30.2 11.3-23 0-38.5-15.5-38.5-38.6 0-7.1 1.5-13.8 4.5-20 3.1-6.5 7.7-11.4 13.7-14.6 5.7-3.1 12.4-4.6 19.7-4.6 5.4 0 10.3.9 14.7 2.7 4.6 1.8 8.4 4.5 11.1 7.9 1.8 2.2 1.4 5.4-.8 7.2-2.2 1.7-5.4 1.4-7.2-.9-1.6-2-3.9-3.6-6.9-4.8-3.2-1.3-6.9-1.9-10.9-1.9-5.6 0-10.6 1.2-14.9 3.4-4.1 2.2-7.1 5.5-9.3 10-2.3 4.8-3.5 10.1-3.5 15.6 0 17.5 10.8 28.4 28.3 28.4 7.6 0 15-2.6 22-7.6v-16.6h-22.6c-2.8 0-5.1-2.3-5.1-5.1s2.3-5.1 5.1-5.1h27.7c1.4 0 2.6.5 3.6 1.5.9 1 1.5 2.3 1.5 3.6zm79.6 13.9c-2.6 1.1-5.6-.2-6.6-2.8l-12.1-29.5h-28.3l-11.3 29.4c-.8 2-2.7 3.3-4.8 3.3-.6 0-1.2-.1-1.8-.3-2.6-1-3.9-4-2.9-6.6l12.4-32.4c.1-.2.1-.3.2-.5l12.5-32.5c.8-2 2.6-3.3 4.8-3.3h9.3c2.1 0 3.9 1.3 4.7 3.2l13.3 32.6v.1l13.4 32.7c1.1 2.5-.2 5.5-2.8 6.6zm32.3-43.5c3.5 1.9 8.2 2.7 13.1 3.6 5.5 1 11.1 2 16 4.6 7.7 4 12 10.7 12 18.7 0 9-5.4 16.9-14.1 20.5-4.3 1.7-9.2 2.6-14.2 2.6-5.1 0-10.2-.9-14.5-2.8-9-3.8-14.5-11.7-14.9-21.7-.1-2.8 2.1-5.2 4.9-5.3s5.2 2.1 5.3 4.9c.2 5.9 3.3 10.5 8.6 12.7 6.1 2.6 14.7 2.6 20.9.1 5-2.1 7.8-6.1 7.8-11.1 0-4.2-2.1-7.4-6.5-9.7-3.5-1.9-8.1-2.7-13-3.6-5.5-1-11.1-2-16-4.6-7.7-4-12-10.7-12-18.7 0-9 5.4-16.9 14.1-20.5 8.6-3.5 20.2-3.5 28.8.1 9 3.8 14.5 11.7 14.9 21.7.1 2.8-2.1 5.2-4.9 5.3s-5.2-2.1-5.3-4.9c-.2-5.9-3.3-10.5-8.6-12.7-6.1-2.6-14.7-2.6-20.9-.1-5 2.1-7.8 6.1-7.8 11.1-.3 4.3 1.9 7.5 6.3 9.8zm48.2-95H106c5.2-27 28.6-47.6 56.9-48.3H287c28.4.7 51.8 21.3 57 48.3zM271.7 10h-93.4c-5.7 0-10.3 4.6-10.3 10.3v81.1h114V20.3c0-5.7-4.6-10.3-10.3-10.3zm-15.9 57.4h-61.6V44h61.6z" opacity="1" data-original="url(#a)"></path></g></svg>