<svg xmlns="http://www.w3.org/2000/svg" version="1.1" xmlns:xlink="http://www.w3.org/1999/xlink" width="512" height="512" x="0" y="0" viewBox="0 0 1707 1707" style="enable-background:new 0 0 512 512" xml:space="preserve" fill-rule="evenodd"><rect width="1707" height="1707" rx="341.4" ry="341.4" fill="#bac8d3" shape="rounded"></rect><g transform="matrix(0.57,0,0,0.57,367.00500000000005,356.7900000000001)"><linearGradient id="a" x1="1646.61" x2="60.043" y1="853.335" y2="853.335" gradientUnits="userSpaceOnUse"><stop offset="0" stop-color="#f071ab"></stop><stop offset="1" stop-color="#22abe2"></stop></linearGradient><path fill="url(#a)" d="M853 1587c-212 0-411-83-561-232-149-150-232-350-232-561 0-212 83-412 232-561C442 83 641 0 853 0s411 83 561 233c150 149 233 349 233 561 0 211-83 411-233 561-150 149-349 232-561 232zm774 119c-11 0-20-9-20-20v-535c15-33 29-67 40-101v636c0 11-9 20-20 20zM853 916c-67 0-122-55-122-122 0-68 55-123 122-123 68 0 123 55 123 123 0 67-55 122-123 122zm0-205c-45 0-82 37-82 83 0 45 37 82 82 82 46 0 83-37 83-82 0-46-37-83-83-83zM503 953c-88 0-159-71-159-159s71-160 159-160 160 72 160 160-72 159-160 159zm0-279c-66 0-119 54-119 120 0 65 53 119 119 119s120-54 120-119c0-66-54-120-120-120zm350 629c-88 0-159-71-159-159s71-160 159-160 160 72 160 160-72 159-160 159zm0-279c-66 0-119 54-119 120s53 119 119 119 120-53 120-119-54-120-120-120zm351-71c-88 0-160-71-160-159s72-160 160-160c87 0 159 72 159 160s-72 159-159 159zm0-279c-66 0-120 54-120 120 0 65 54 119 120 119 65 0 119-54 119-119 0-66-54-120-119-120zm-351-71c-88 0-159-72-159-160s71-159 159-159 160 71 160 159-72 160-160 160zm0-279c-66 0-119 54-119 119 0 66 53 120 119 120s120-54 120-120c0-65-54-119-120-119zm0 1103c-349 0-633-284-633-633 0-350 284-634 633-634 350 0 634 284 634 634 0 349-284 633-634 633zm0-1227c-327 0-593 266-593 594 0 327 266 593 593 593 328 0 594-266 594-593 0-328-266-594-594-594z" opacity="1" data-original="url(#a)"></path></g></svg>