<svg xmlns="http://www.w3.org/2000/svg" version="1.1" xmlns:xlink="http://www.w3.org/1999/xlink" width="512" height="512" x="0" y="0" viewBox="0 0 450 450" style="enable-background:new 0 0 512 512" xml:space="preserve"><rect width="450" height="450" rx="90" ry="90" fill="#bac8d3" shape="rounded"></rect><g transform="matrix(0.69,0,0,0.69,69.74999763488773,69.75154944419862)"><linearGradient id="a" x1="78.151" x2="371.85" y1="335.076" y2="41.378" gradientTransform="matrix(1 0 0 -1 0 450)" gradientUnits="userSpaceOnUse"><stop offset="0" stop-color="#00dbde"></stop><stop offset="1" stop-color="#fc00ff"></stop></linearGradient><path fill="url(#a)" d="m343.11 433.72-9.49-31.16a.076.076 0 0 1-.02-.05l-10-32.85c-.01-.04-.03-.09-.04-.14l-10.02-32.9-7.56-24.84H295.8l6.52 21.42H147.67l6.52-21.42h-10.18l-7.56 24.84-10.02 32.9c-.01.05-.03.1-.04.14l-10.01 32.87-9.49 31.19c-.78 2.58.67 5.29 3.24 6.07.47.15.95.21 1.42.21 2.08 0 4.01-1.35 4.65-3.44l8.43-27.72h200.74l8.43 27.72a4.872 4.872 0 0 0 6.07 3.23c2.57-.78 4.02-3.5 3.24-6.07zM144.7 342.93h160.6l7.07 23.23H137.63zm-17.1 56.18 7.07-23.22h180.66l7.07 23.22zm184.39-97.06c11.92 0 21.6-9.69 21.6-21.6v-61.3H116.41v61.3c0 11.91 9.68 21.6 21.6 21.6zm-146.76-28.74c-7.01 0-12.72-5.7-12.72-12.72 0-7 5.7-12.71 12.72-12.71 7 0 12.71 5.7 12.71 12.71-.01 7.02-5.71 12.72-12.71 12.72zm119.54 0c-7 0-12.71-5.7-12.71-12.72 0-7 5.7-12.71 12.71-12.71s12.72 5.7 12.72 12.71c0 7.02-5.7 12.72-12.72 12.72zm-54.91-165.3h103.73v101.41H229.86zm55.67-59.53H164.47c-26.5 0-48.06 21.56-48.06 48.06v1.75h217.18v-1.75c0-26.51-21.56-48.06-48.06-48.06zm-31.75 29.77h-57.55a4.859 4.859 0 1 1 0-9.72h57.55a4.859 4.859 0 1 1 0 9.72zm-137.37 29.76h103.73v101.41H116.41zM265.5 14.86c0 2.69-2.18 4.86-4.86 4.86h-12.8v19.02h-45.67V19.73h-12.8c-2.69 0-4.86-2.18-4.86-4.86 0-2.69 2.18-4.86 4.86-4.86h71.27a4.85 4.85 0 0 1 4.86 4.85z" opacity="1" data-original="url(#a)"></path></g></svg>