<svg xmlns="http://www.w3.org/2000/svg" version="1.1" xmlns:xlink="http://www.w3.org/1999/xlink" width="512" height="512" x="0" y="0" viewBox="0 0 491.5 491.5" style="enable-background:new 0 0 512 512" xml:space="preserve"><rect width="491.5" height="491.5" rx="98.3" ry="98.3" fill="#bac8d3" shape="rounded"></rect><g transform="matrix(0.68,0,0,0.68,73.64000244140624,83.63999755859373)"><linearGradient id="a" x1="245.75" x2="245.75" y1="35.1" y2="456.4" gradientUnits="userSpaceOnUse"><stop offset="0" stop-color="#f704fe"></stop><stop offset="1" stop-color="#24bce3"></stop></linearGradient><path fill="url(#a)" d="M72.2 155.9H45.9c-4.4 0-8 3.6-8 8v97.6c0 4.4 3.6 8 8 8h26.3c4.4 0 8-3.6 8-8v-97.6c0-4.4-3.6-8-8-8zM89.9 175H188v75.3H89.9zm210.4-17.6h-94.6c-4.4 0-8 3.6-8 8v91.2c0 4.4 3.6 8 8 8h94.6c4.4 0 8-3.6 8-8v-91.2c0-4.4-3.6-8-8-8zm-78.1-9.7h61.7v-14.4c0-4.6-3.8-8.4-8.4-8.4h-44.9c-4.6 0-8.4 3.8-8.4 8.4zm20.4-32.5h20.8V87.9c-3.3 1.1-6.8 1.7-10.4 1.7s-7.1-.6-10.4-1.7zM253 79.9c12.4 0 22.4-10.1 22.4-22.4 0-12.4-10-22.4-22.4-22.4s-22.4 10-22.4 22.4 10 22.4 22.4 22.4zm-83.4-12h53c-1.1-3.3-1.7-6.8-1.7-10.4s.6-7.1 1.7-10.4h-53c-5.7 0-10.4 4.7-10.4 10.4s4.7 10.4 10.4 10.4zm166.8 0c5.7 0 10.4-4.7 10.4-10.4s-4.7-10.4-10.4-10.4h-53c1.1 3.3 1.7 6.7 1.7 10.4 0 3.6-.6 7.1-1.7 10.4zm28.1 212.9v36.8H443v-93c0-27.4-22.3-49.7-49.7-49.7H318v75.3h16c16.8.1 30.5 13.8 30.5 30.6zm85.9 46.6H357c-1.7 0-3.2 1.5-3.2 3.2v15.7c0 1.7 1.5 3.2 3.2 3.2h93.4c1.7 0 3.2-1.4 3.2-3.2v-15.7c0-1.8-1.4-3.2-3.2-3.2zm-70.9 111.1c3.6 12 13.9 17.9 24.2 17.9s20.6-6 24.2-17.9c4.4-14.5-.4-37.4-24.2-69.2-23.8 31.8-28.6 54.7-24.2 69.2z" opacity="1" data-original="url(#a)"></path></g></svg>