<svg height="496pt" viewBox="0 0 496 496" width="496pt" xmlns="http://www.w3.org/2000/svg"><path d="m248 16c-66.273438 0-120 53.726562-120 120v64c0 40.183594 19.824219 75.671875 50.152344 97.449219 2.085937-.921875 4.382812-1.449219 6.816406-1.449219h.398438c8.519531 0 15.738281 6.007812 17.242187 14.304688.046875.246093.09375.542968.144531.800781 9.230469 3.757812 19.039063 6.34375 29.246094 7.703125v-150.808594c0-8.839844 7.160156-16 16-16s16 7.160156 16 16v96c0-8.839844 7.160156-16 16-16s16 7.160156 16 16v16c0-8.839844 7.160156-16 16-16s16 7.160156 16 16v9.265625c1.222656-1.097656 2.464844-2.160156 3.640625-3.304687.695313-.855469 1.464844-1.625 2.320313-2.320313 21.03125-21.617187 34.039062-51.097656 34.039062-83.640625v-64c0-66.273438-53.726562-120-120-120zm0 0" fill="#f0bc5e"/><path d="m448 320h-40v16h56v-56h-16zm0 0"/><path d="m48 280h-16v56h56v-16h-40zm0 0"/><path d="m48 16h40v-16h-56v56h16zm0 0"/><path d="m448 56h16v-56h-56v16h40zm0 0"/><path d="m480 144v16h-144v-24c0-15.457031-4.089844-30.671875-11.816406-44.007812l-13.839844 8.015624c6.320312 10.902344 9.65625 23.351563 9.65625 35.992188v24h-16v-16h-16v16h-17.472656c-3.3125-9.289062-12.113282-16-22.527344-16s-19.214844 6.710938-22.527344 16h-17.472656v-24c0-13.441406 6.6875-25.894531 17.886719-33.335938l-8.855469-13.328124c-15.671875 10.417968-25.03125 27.855468-25.03125 46.664062v24h-16v-16h-16v16h-144v-16h-16v48h16v-16h144v24c0 15.800781 4.257812 31.304688 12.3125 44.847656l13.75-8.167968c-6.582031-11.078126-10.0625-23.757813-10.0625-36.679688v-24h16v16h16v-16h16v55.9375c-8.070312-6.074219-13.726562-15.027344-15.449219-25.257812l-15.78125 2.640624c3.039063 18.121094 14.824219 33.398438 31.222657 41.183594v17.34375c-10.128907-3.582031-19.367188-9.382812-27.0625-17.136718l-11.363282 11.265624c10.753906 10.824219 23.929688 18.589844 38.425782 22.695313v87.96875c-1.503907-1.535156-2.578126-3.527344-2.992188-5.785156l-10.519531-57.984375c-2.199219-12.085938-12.761719-20.871094-25.511719-20.871094-6.671875 0-12.945312 2.601562-17.664062 7.320312s-7.3125 10.992188-7.304688 17.664063v5.566406c0 1.402344.121094 2.800781.34375 4.175781l14.398438 86.363282c1.128906 6.734375 3.960937 13.101562 8.210937 18.414062l19.78125 24.726563c3.402344 4.25 5.265625 9.570312 5.265625 14.992187v28.777344h128v-28.777344c0-5.429687 1.863281-10.75 5.265625-14.992187l17.964844-22.46875c5.648437-7.066407 8.769531-15.9375 8.769531-24.984375v-108.777344c0-13.230469-10.769531-24-24-24-3.160156 0-6.160156.648438-8.929688 1.761719-2.453124-9.074219-10.046874-15.96875-19.496093-17.402344 13.144531-15.640625 20.425781-35.359375 20.425781-56.359375v-24h144v16h16v-48zm-160 136v96h16v-80c0-4.414062 3.585938-8 8-8s8 3.585938 8 8v108.777344c0 5.429687-1.863281 10.75-5.265625 14.992187l-17.964844 22.46875c-5.648437 7.066407-8.769531 15.9375-8.769531 24.984375v12.777344h-96v-12.777344c0-9.046875-3.121094-17.917968-8.769531-24.992187l-19.789063-24.726563c-2.546875-3.175781-4.25-7-4.921875-11.039062l-14.398437-86.351563c-.082032-.511719-.121094-1.035156-.121094-1.5625v-5.574219c0-2.402343.929688-4.65625 2.625-6.351562s3.941406-2.625 6.742188-2.625c4.617187 0 8.554687 3.246094 9.367187 7.734375l10.53125 57.984375c2.351563 12.914062 13.589844 22.28125 26.734375 22.28125h8v-224c0-4.414062 3.585938-8 8-8s8 3.585938 8 8v208h16v-112c0-4.414062 3.585938-8 8-8s8 3.585938 8 8v112h16v-96c0-4.414062 3.585938-8 8-8s8 3.585938 8 8zm0-80c0 19.046875-7.40625 36.769531-20.480469 50.128906-4.359375-6.105468-11.464843-10.128906-19.519531-10.128906-2.816406 0-5.488281.574219-8 1.472656v-65.472656h16v24c0 7.0625-1.855469 14-5.382812 20.054688l13.832031 8.050781c4.941406-8.503907 7.550781-18.21875 7.550781-28.105469v-24h16zm0 0"/><path d="m248 64c19.457031 0 37.695312 7.671875 51.367188 21.601562l11.425781-11.203124c-16.714844-17.023438-39.007813-26.398438-62.792969-26.398438-45.414062 0-83.0625 34.054688-87.558594 79.199219l15.917969 1.59375c3.679687-36.945313 34.472656-64.792969 71.640625-64.792969zm0 0"/><path d="m248 80c-3.136719 0-6.265625.257812-9.328125.777344l2.65625 15.78125c2.175781-.375 4.433594-.558594 6.671875-.558594 19.617188 0 36.199219 14.015625 39.449219 33.328125l15.78125-2.65625c-4.542969-27.039063-27.765625-46.671875-55.230469-46.671875zm0 0"/></svg>