<?xml version="1.0"?>
<svg xmlns="http://www.w3.org/2000/svg" height="512px" viewBox="0 0 64 64" width="512px" class=""><g><g id="Armchair-3" data-name="Armchair"><path d="m58.362 31.137a7 7 0 0 0 -5.362-12.837v-9.3a7.008 7.008 0 0 0 -7-7h-28a7.008 7.008 0 0 0 -7 7v9.3a7 7 0 0 0 -5.362 12.837c-.2.926-.4 1.729-.6 2.511a26.349 26.349 0 0 0 -1.038 7.352c0 8.069 3.886 19.82 4.051 20.316a1 1 0 0 0 .949.684h5a1 1 0 0 0 .97-.757l.811-3.243h32.438l.811 3.243a1 1 0 0 0 .97.757h5a1 1 0 0 0 .949-.684c.165-.496 4.051-12.247 4.051-20.316a26.349 26.349 0 0 0 -1.038-7.352c-.197-.782-.4-1.585-.6-2.511zm-45.362-22.137a5.006 5.006 0 0 1 5-5h28a5.006 5.006 0 0 1 5 5v10.264a6.991 6.991 0 0 0 -3 5.736v6.026a4.948 4.948 0 0 0 -3-1.026h-26a4.948 4.948 0 0 0 -3 1.026v-6.026a6.991 6.991 0 0 0 -3-5.736zm35 32a1 1 0 0 1 -1 1h-30a1 1 0 0 1 -1-1v-6a3 3 0 0 1 3-3h26a3 3 0 0 1 3 3zm-32 3h32v6h-32zm-2.781 16h-3.49c-.829-2.638-3.729-12.328-3.729-19a24.384 24.384 0 0 1 .977-6.863c.244-.966.52-2.06.78-3.373a1 1 0 0 0 -.61-1.123 5 5 0 1 1 6.853-4.641v31.877zm2.781-8h32v4h-32zm38.271 8h-3.49l-.781-3.123v-31.877a5 5 0 1 1 6.853 4.641 1 1 0 0 0 -.61 1.123c.26 1.313.536 2.407.78 3.373a24.384 24.384 0 0 1 .977 6.863c0 6.668-2.9 16.361-3.729 19z" data-original="#000000" class="active-path" data-old_color="#000000" fill="#B9B5B5"/><path d="m55 22a3 3 0 0 0 -3 3v26h2v-26a1 1 0 0 1 2 0h2a3 3 0 0 0 -3-3z" data-original="#000000" class="active-path" data-old_color="#000000" fill="#B9B5B5"/><path d="m9 22a3 3 0 0 0 -3 3h2a1 1 0 0 1 2 0v26h2v-26a3 3 0 0 0 -3-3z" data-original="#000000" class="active-path" data-old_color="#000000" fill="#B9B5B5"/><path d="m23 26h2v-2h2v-2h-2v-2h-2v2h-2v2h2z" data-original="#000000" class="active-path" data-old_color="#000000" fill="#B9B5B5"/><path d="m23 16h2v-2h2v-2h-2v-2h-2v2h-2v2h2z" data-original="#000000" class="active-path" data-old_color="#000000" fill="#B9B5B5"/><path d="m39 26h2v-2h2v-2h-2v-2h-2v2h-2v2h2z" data-original="#000000" class="active-path" data-old_color="#000000" fill="#B9B5B5"/><path d="m39 16h2v-2h2v-2h-2v-2h-2v2h-2v2h2z" data-original="#000000" class="active-path" data-old_color="#000000" fill="#B9B5B5"/></g></g> </svg>
