<svg enable-background="new 0 0 36 36" height="512" viewBox="0 0 36 36" width="512" xmlns="http://www.w3.org/2000/svg"><g id="BG"><g><path d="m27.417 3.914c-6.915.129-11.732-3.365-15.064-3.302s-10.296 2.109-10.009 17.44 9.744 17.404 13.41 17.336c17.163-.321 23.911-31.703 11.663-31.474z" fill="#efefef"/></g></g><g id="effect"><g><g><path d="m3.644 3.055h1v2h-1z" fill="#a4afc1" transform="matrix(.707 -.707 .707 .707 -1.654 4.118)"/></g><g><path d="m2.967 7.621h2v1h-2z" fill="#a4afc1" transform="matrix(.707 -.707 .707 .707 -4.581 5.184)"/></g><g><path d="m7.033 3.555h2v1h-2z" fill="#a4afc1" transform="matrix(.707 -.707 .707 .707 -.515 6.868)"/></g></g><g><path d="m31 6.556c-.827 0-1.5-.673-1.5-1.5s.673-1.5 1.5-1.5 1.5.673 1.5 1.5-.673 1.5-1.5 1.5zm0-2c-.276 0-.5.224-.5.5s.224.5.5.5.5-.224.5-.5-.224-.5-.5-.5z" fill="#a4afc1"/></g></g><g id="color"><g><path d="m27.25 29.25h-18.5c-1.105 0-2-.895-2-2v-18.5c0-1.105.895-2 2-2h18.5c1.105 0 2 .895 2 2v18.5c0 1.105-.895 2-2 2z" fill="#f3f3f1"/></g><g><path d="m13.25 24.25h-1.5c-.552 0-1-.448-1-1v-6.5c0-.552.448-1 1-1h1.5c.552 0 1 .448 1 1v6.5c0 .552-.448 1-1 1z" fill="#2fdf84"/></g><g><path d="m22.27 16.27h-3.42s.56-.85.56-2.26c0-1.69-.84-2.26-1.41-2.26s-.85.28-.85 1.7c0 1.97-2.65 3.39-2.65 3.39l-.25.13v5.67l.25.2s1.8 1.41 6.04 1.41h1.03c.97 0 1.8-.7 1.97-1.65l.7-3.98c.22-1.22-.72-2.35-1.97-2.35z" fill="#2fdf84"/></g></g><g id="shadow"><g><path d="m9 27.25v-18.5c0-1.105.895-2 2-2h-2.25c-1.105 0-2 .895-2 2v18.5c0 1.105.895 2 2 2h2.25c-1.105 0-2-.895-2-2z" fill="#d5dbe1"/></g><g><path d="m13 23.25v-6.5c0-.419.259-.776.625-.924-.116-.047-.242-.076-.375-.076h-1.5c-.552 0-1 .448-1 1v6.5c0 .552.448 1 1 1h1.5c.133 0 .259-.029.375-.076-.366-.148-.625-.505-.625-.924z" fill="#00b871"/></g><g><path d="m16.75 22.84-.25-.2v-5.67l.25-.13s2.484-1.336 2.635-3.213c-.12-1.386-.862-1.877-1.385-1.877-.57 0-.85.28-.85 1.7 0 1.97-2.65 3.39-2.65 3.39l-.25.13v5.67l.25.2s1.8 1.41 6.04 1.41h1.03c.099 0 .195-.012.291-.026-3.572-.185-5.111-1.384-5.111-1.384z" fill="#00b871"/></g></g><g id="_x31_.5"><g><g><path d="m27.25 30h-18.5c-1.517 0-2.75-1.233-2.75-2.75v-18.5c0-1.517 1.233-2.75 2.75-2.75h18.5c1.517 0 2.75 1.233 2.75 2.75v18.5c0 1.517-1.233 2.75-2.75 2.75zm-18.5-22.5c-.689 0-1.25.561-1.25 1.25v18.5c0 .689.561 1.25 1.25 1.25h18.5c.689 0 1.25-.561 1.25-1.25v-18.5c0-.689-.561-1.25-1.25-1.25z"/></g></g><g><g><path d="m13.25 25h-1.5c-.965 0-1.75-.785-1.75-1.75v-6.5c0-.965.785-1.75 1.75-1.75h1.5c.965 0 1.75.785 1.75 1.75v6.5c0 .965-.785 1.75-1.75 1.75zm-1.5-8.5c-.138 0-.25.112-.25.25v6.5c0 .138.112.25.25.25h1.5c.138 0 .25-.112.25-.25v-6.5c0-.138-.112-.25-.25-.25z"/></g></g><g><g><path d="m21.57 25h-1.03c-4.448 0-6.421-1.506-6.502-1.57l-.256-.204.937-1.172.25.2c.005.004 1.698 1.246 5.572 1.246h1.03c.607 0 1.125-.434 1.232-1.032l.7-3.978c.066-.366-.033-.737-.271-1.021-.238-.285-.588-.449-.961-.449h-3.42c-.276 0-.529-.151-.66-.395-.131-.243-.118-.538.034-.768 0-.001.437-.705.437-1.848 0-1.141-.445-1.51-.66-1.51-.005 0-.009 0-.012-.001-.036.104-.09.362-.09.952 0 2.391-2.921 3.984-3.046 4.051l-.257.134-.693-1.33.25-.13c.619-.334 2.247-1.486 2.247-2.725 0-.795 0-2.45 1.6-2.45 1.041 0 2.16.942 2.16 3.01 0 .593-.085 1.101-.196 1.51h2.306c.818 0 1.588.36 2.112.987.523.626.741 1.445.597 2.246l-.7 3.977c-.237 1.316-1.376 2.27-2.71 2.27z"/></g></g></g></svg>