<?xml version="1.0"?>
<svg xmlns="http://www.w3.org/2000/svg" xmlns:xlink="http://www.w3.org/1999/xlink" version="1.1" id="Capa_1" x="0px" y="0px" viewBox="0 0 512.04 512.04" style="enable-background:new 0 0 512.04 512.04;" xml:space="preserve" width="512px" height="512px" class=""><g><g>
	<g>
		<g>
			<path d="M480.04,255.958h-47.915L179.251,3.083c-4.231-4.001-10.851-4.001-15.083,0L3.123,164.075     c-4.164,4.165-4.164,10.917,0,15.083l76.8,76.8H32.04c-17.673,0-32,14.327-32,32v192c0,17.673,14.327,32,32,32h352     c8.197,0,15.672-3.086,21.333-8.155c5.662,5.069,13.136,8.155,21.333,8.155h53.333c17.673,0,32-14.327,32-32v-192     C512.04,270.285,497.714,255.958,480.04,255.958z M405.374,264.113c-5.662-5.069-13.136-8.155-21.333-8.155H111.122     l145.419-145.419l151.462,151.462C407.09,262.66,406.211,263.363,405.374,264.113z M171.71,25.707l69.746,69.746L95.523,241.386     L25.79,171.627L171.71,25.707z M490.707,479.958c0,5.891-4.776,10.667-10.667,10.667h-53.333     c-5.891,0-10.667-4.776-10.667-10.667h-21.333c0,5.891-4.776,10.667-10.667,10.667h-352c-5.891,0-10.667-4.776-10.667-10.667     v-192c0-5.891,4.776-10.667,10.667-10.667h352c5.891,0,10.667,4.776,10.667,10.667h21.333c0-5.891,4.776-10.667,10.667-10.667     h53.333c5.891,0,10.667,4.776,10.667,10.667V479.958z" data-original="#000000" class="active-path" data-old_color="#000000" fill="#000"/>
			<rect x="394.707" y="309.291" width="21.333" height="21.333" data-original="#000000" class="active-path" data-old_color="#000000" fill="#000"/>
			<rect x="394.707" y="351.958" width="21.333" height="21.333" data-original="#000000" class="active-path" data-old_color="#000000" fill="#000"/>
			<rect x="394.707" y="394.625" width="21.333" height="21.333" data-original="#000000" class="active-path" data-old_color="#000000" fill="#000"/>
			<rect x="394.707" y="437.291" width="21.333" height="21.333" data-original="#000000" class="active-path" data-old_color="#000000" fill="#000"/>
			
				<rect x="244.991" y="175.951" transform="matrix(-0.7071 -0.7071 0.7071 -0.7071 350.637 518.4731)" width="75.414" height="21.333" data-original="#000000" class="active-path" data-old_color="#000000" fill="#000"/>
			
				<rect x="215.189" y="202.599" transform="matrix(-0.7071 -0.7071 0.7071 -0.7071 268.0532 537.563)" width="60.342" height="21.333" data-original="#000000" class="active-path" data-old_color="#000000" fill="#000"/>
			<path d="M341.374,298.625h-288c-5.891,0-10.667,4.776-10.667,10.667v128c0,5.891,4.776,10.667,10.667,10.667h33.828     c4.394,12.427,16.24,21.333,30.172,21.333c13.932,0,25.778-8.906,30.172-21.333h99.656c4.394,12.427,16.24,21.333,30.172,21.333     c13.932,0,25.778-8.906,30.172-21.333h33.828c5.891,0,10.667-4.776,10.667-10.667v-128     C352.04,303.4,347.265,298.625,341.374,298.625z M117.374,447.958c-5.891,0-10.667-4.776-10.667-10.667     c0-5.891,4.776-10.667,10.667-10.667c5.891,0,10.667,4.776,10.667,10.667C128.04,443.182,123.265,447.958,117.374,447.958z      M277.374,447.958c-5.891,0-10.667-4.776-10.667-10.667c0-5.891,4.776-10.667,10.667-10.667c5.891,0,10.667,4.776,10.667,10.667     C288.04,443.182,283.265,447.958,277.374,447.958z M307.546,426.625c-4.394-12.427-16.24-21.333-30.172-21.333     c-13.932,0-25.778,8.906-30.172,21.333h-99.656c-4.394-12.427-16.24-21.333-30.172-21.333c-13.932,0-25.778,8.906-30.172,21.333     H64.04v-64h53.333v-21.333H64.04v-21.333h266.667v21.333h-64v21.333h64v64H307.546z" data-original="#000000" class="active-path" data-old_color="#000000" fill="#000"/>
			<rect x="202.707" y="341.291" width="42.667" height="21.333" data-original="#000000" class="active-path" data-old_color="#000000" fill="#000"/>
			<rect x="138.707" y="341.291" width="42.667" height="21.333" data-original="#000000" class="active-path" data-old_color="#000000" fill="#000"/>
		</g>
	</g>
</g></g> </svg>
