<svg id="Capa_1" enable-background="new 0 0 512 512" height="512" viewBox="0 0 512 512" width="512" xmlns="http://www.w3.org/2000/svg"><g clip-rule="evenodd" fill-rule="evenodd"><path d="m79.638 232.994h416.681v63.756h-416.681z" fill="#fff4f4"/><path d="m256.574 232.994h239.745v63.756h-239.745z" fill="#f6efea"/><path d="m496.319 168.374h-438.383v-9.12c0-30.174 24.461-54.635 54.635-54.635h383.748z" fill="#fff4f4"/><path d="m256.574 104.618h239.745v63.756h-239.745z" fill="#f6efea"/></g><path d="m212.355 175.495c-8.284 0-15-6.716-15-15v-47.999c0-8.284 6.716-15 15-15s15 6.716 15 15v47.999c0 8.284-6.716 15-15 15z" fill="#07485e"/><path d="m299.646 175.495c-8.284 0-15-6.716-15-15v-47.999c0-8.284 6.716-15 15-15s15 6.716 15 15v47.999c0 8.284-6.716 15-15 15z" fill="#03232e"/><path d="m125.064 175.495c-8.284 0-15-6.716-15-15v-47.999c0-8.284 6.716-15 15-15s15 6.716 15 15v47.999c0 8.284-6.716 15-15 15z" fill="#07485e"/><path d="m386.937 175.495c-8.284 0-15-6.716-15-15v-47.999c0-8.284 6.716-15 15-15s15 6.716 15 15v47.999c0 8.284-6.716 15-15 15z" fill="#03232e"/><path d="m467 91.495h-328c-76.645 0-139 62.355-139 139v3.002c0 8.284 6.716 15 15 15h482c8.284 0 15-6.716 15-15v-97.001c0-24.814-20.187-45.001-45-45.001zm-328 30h328c8.271 0 15 6.729 15 15v33.501h-433.627c19.572-29.224 52.89-48.501 90.627-48.501z" fill="#ff3f5c"/><path d="m467 91.495h-210.426v30h210.426c8.271 0 15 6.729 15 15v33.501h-225.426v78.501h240.426c8.284 0 15-6.716 15-15v-97.001c0-24.814-20.187-45.001-45-45.001z" fill="#d20763"/><path d="m497 218.495h-482c-8.284 0-15 6.716-15 15v136c0 8.284 6.716 15 15 15h452c24.813 0 45-20.187 45-45v-106c0-8.284-6.716-15-15-15zm-15 30v45.993h-452v-45.993z" fill="#ff3f5c"/><path d="m497 218.495h-240.426v30h225.426v45.993h-225.426v90.007h210.426c24.813 0 45-20.187 45-45v-106c0-8.284-6.716-15-15-15z" fill="#d20763"/><path clip-rule="evenodd" d="m15 233.496h60v135.999h-60z" fill="#fff4f4" fill-rule="evenodd"/><ellipse clip-rule="evenodd" cx="416.5" cy="372.506" fill="#f6efea" fill-rule="evenodd" rx="33" ry="33" transform="matrix(.707 -.707 .707 .707 -141.411 403.614)"/><path d="m416.5 420.505c-26.467 0-48-21.533-48-48s21.533-48 48-48 48 21.533 48 48c0 26.468-21.533 48-48 48zm0-66c-9.925 0-18 8.075-18 18s8.075 18 18 18 18-8.075 18-18c0-9.924-8.075-18-18-18z" fill="#03232e"/><ellipse clip-rule="evenodd" cx="154.787" cy="372.506" fill="#fff4f4" fill-rule="evenodd" rx="33" ry="33" transform="matrix(.707 -.707 .707 .707 -218.065 218.556)"/><path d="m154.787 420.505c-26.467 0-48-21.533-48-48s21.533-48 48-48 48 21.533 48 48c0 26.468-21.533 48-48 48zm0-66c-9.925 0-18 8.075-18 18s8.075 18 18 18 18-8.075 18-18c0-9.924-8.075-18-18-18z" fill="#07485e"/><path d="m512 233.496v-15h-432.001c-8.284 0-15 6.716-15 15s6.716 15 15 15h94.251v29.999h-94.251c-8.284 0-15 6.716-15 15s6.716 15 15 15h432.001v-19.032zm-109.25 15v29.999h-84.25v-29.999zm-198.5 0h84.25v29.999h-84.25zm277.75 29.999h-49.25v-29.999h49.25z" fill="#07485e"/><path d="m482 151.497h-418.01-.13l-.682.792c-4.764 4.62-9.12 9.658-12.983 15.074l-12.174 14.135h443.979z" fill="#07485e"/><path d="m256.574 151.497h225.426v30h-225.426z" fill="#03232e"/><path d="m512 233.496v-15h-255.426v30h31.926v29.999h-31.926v30h255.426v-19.032zm-109.25 44.999h-84.25v-29.999h84.25zm79.25 0h-49.25v-29.999h49.25z" fill="#03232e"/><path d="m75 384.495h-60c-8.284 0-15-6.716-15-15v-135.999c0-8.284 6.716-15 15-15h60c8.284 0 15 6.716 15 15v135.999c0 8.284-6.716 15-15 15zm-45-30h30v-105.999h-30z" fill="#07485e"/></svg>