<svg viewBox="0 0 512 512" xmlns="http://www.w3.org/2000/svg"><path d="m0 512h512v-512h-512zm30-241h211v211h-211zm241 211v-211h211v211zm211-241h-211v-211h211zm-241-211v211h-211v-211zm0 0"/><path d="m121 211h30v-60h60v-30h-60v-60h-30v60h-60v30h60zm0 0"/><path d="m301 121h150v30h-150zm0 0"/><path d="m301 331h150v30h-150zm0 0"/><path d="m301 391h150v30h-150zm0 0"/><path d="m199.640625 333.574219-21.214844-21.214844-42.425781 42.425781-42.425781-42.425781-21.214844 21.214844 42.425781 42.425781-42.425781 42.425781 21.214844 21.214844 42.425781-42.425781 42.425781 42.425781 21.214844-21.214844-42.425781-42.425781zm0 0"/></svg>