<svg id="filled_outline" height="512" viewBox="0 0 512 512" width="512" xmlns="http://www.w3.org/2000/svg" data-name="filled outline"><path d="m344 80h144v88h-144z" fill="#b6caf0"/><path d="m440 240v-120h-32v96h-32v24z" fill="#d1e4ff"/><path d="m352 240h-136a32 32 0 0 1 -32-32v-32a32 32 0 0 1 32-32h65.824a32 32 0 0 1 29.96257 20.764l16.21343 43.236h24z" fill="#548aff"/><path d="m24 72h128v368h-128z" fill="#c78640"/><path d="m184 240h272a32 32 0 0 1 32 32v168a0 0 0 0 1 0 0h-336a0 0 0 0 1 0 0v-168a32 32 0 0 1 32-32z" fill="#b1712c"/><path d="m240 288h160v96h-160z" fill="#e3a15b"/><path d="m232 112h48a0 0 0 0 1 0 0v24a24 24 0 0 1 -24 24 24 24 0 0 1 -24-24v-24a0 0 0 0 1 0 0z" fill="#ffceb6"/><path d="m232 112v-16l19.359-12.906a18.42223 18.42223 0 0 1 10.21879-3.094 18.42218 18.42218 0 0 1 18.42221 18.42219v13.57781z" fill="#b1712c"/><path d="m264 208h16a24 24 0 0 1 24 24v8h-40z" fill="#ffceb6"/><path d="m352 208h16a24 24 0 0 1 24 24v8h-40z" fill="#ffceb6"/><path d="m232 288v96a8.00039 8.00039 0 0 0 8 8h160a8.00039 8.00039 0 0 0 8-8v-96a8.00039 8.00039 0 0 0 -8-8h-160a8.00039 8.00039 0 0 0 -8 8zm16 8h144v80h-144z"/><path d="m488 72h-144a8.00039 8.00039 0 0 0 -8 8v88a8.00039 8.00039 0 0 0 8 8h56v32h-10.86816a31.85872 31.85872 0 0 0 -21.13184-8h-34.456l-14.26758-38.04492a40.22159 40.22159 0 0 0 -31.28858-25.4707c.00244-.16187.01221-.322.01221-.48438v-37.57812a26.42195 26.42195 0 0 0 -41.07817-21.98438l-19.35938 12.90625a7.99943 7.99943 0 0 0 -3.5625 6.65625v40h-8a40.04584 40.04584 0 0 0 -40 40v32a39.79015 39.79015 0 0 0 8.022 24h-.022a39.79015 39.79015 0 0 0 -24 8.022v-168.022a8.00039 8.00039 0 0 0 -8-8h-128a8.00039 8.00039 0 0 0 -8 8v368a8.00039 8.00039 0 0 0 8 8h464a8.00039 8.00039 0 0 0 8-8v-168a40.04584 40.04584 0 0 0 -40-40h-8v-56h40a8.00039 8.00039 0 0 0 8-8v-88a8.00039 8.00039 0 0 0 -8-8zm-104 160h-24v-16h8a16.01833 16.01833 0 0 1 16 16zm-128.20215-142.251a10.42284 10.42284 0 0 1 16.20215 8.67288v5.57812h-32v-3.71875zm16.20215 30.251v16a16 16 0 0 1 -32 0v-16zm-80 88v-32a24.0275 24.0275 0 0 1 24-24h12.30518a31.96906 31.96906 0 0 0 55.34838.07178 24.12508 24.12508 0 0 1 20.64234 15.50049l16.21387 43.23632a7.99873 7.99873 0 0 0 7.49023 5.19141h16v16h-32a32.03667 32.03667 0 0 0 -32-32h-42.23438l-6.17578-18.53027-15.17968 5.06054 8 24a8.00026 8.00026 0 0 0 7.58984 5.46973h24v16h-40a24.0275 24.0275 0 0 1 -24-24zm88 8a16.01833 16.01833 0 0 1 16 16h-24v-16zm-248 88v-104h27.05566l5.78907 11.57812a8.00022 8.00022 0 0 0 7.15527 4.42188h32a8.00022 8.00022 0 0 0 7.15527-4.42188l5.78907-11.57812h27.05566v104zm0-224h27.05566l5.78907 11.57812a8.00022 8.00022 0 0 0 7.15527 4.42188h32a8.00022 8.00022 0 0 0 7.15527-4.42188l5.78907-11.57812h27.05566v104h-112zm0 240h27.05566l5.78907 11.57812a8.00022 8.00022 0 0 0 7.15527 4.42188h32a8.00022 8.00022 0 0 0 7.15527-4.42188l5.78907-11.57812h27.05566v112h-112zm448-48v160h-320v-160a24.0275 24.0275 0 0 1 24-24h272a24.0275 24.0275 0 0 1 24 24zm-80-40a31.95275 31.95275 0 0 0 -1.0127-8h9.0127a8.00039 8.00039 0 0 0 8-8v-88h16v104zm80-72h-32v-40a8.00039 8.00039 0 0 0 -8-8h-32a8.00039 8.00039 0 0 0 -8 8v40h-48v-72h128z"/><path d="m280 312h32v16h-32z"/><path d="m328 312h32v16h-32z"/><path d="m304 344h72v16h-72z"/><path d="m264 344h24v16h-24z"/></svg>