<?xml version="1.0"?>
<svg xmlns="http://www.w3.org/2000/svg" xmlns:xlink="http://www.w3.org/1999/xlink" version="1.1" id="Capa_1" x="0px" y="0px" viewBox="0 0 89 89" style="enable-background:new 0 0 89 89;" xml:space="preserve" width="512px" height="512px"><g><g>
	<path d="M50,1H6C2.686,1,0,3.687,0,7v75c0,3.313,2.686,6,6,6h44c3.313,0,6-2.687,6-6V7C56,3.687,53.313,1,50,1z M18,79   c0,1.104-0.896,2-2,2H8c-1.105,0-2-0.896-2-2v-6c0-1.104,0.895-2,2-2h8c1.104,0,2,0.896,2,2V79z M18,65c0,1.104-0.896,2-2,2H8   c-1.105,0-2-0.896-2-2v-6c0-1.104,0.895-2,2-2h8c1.104,0,2,0.896,2,2V65z M18,51c0,1.104-0.896,2-2,2H8c-1.105,0-2-0.896-2-2v-6   c0-1.104,0.895-2,2-2h8c1.104,0,2,0.896,2,2V51z M18,37c0,1.104-0.896,2-2,2H8c-1.105,0-2-0.896-2-2v-6c0-1.104,0.895-2,2-2h8   c1.104,0,2,0.896,2,2V37z M34,79c0,1.104-0.896,2-2,2h-8c-1.105,0-2-0.896-2-2v-6c0-1.104,0.895-2,2-2h8c1.104,0,2,0.896,2,2V79z    M34,65c0,1.104-0.896,2-2,2h-8c-1.105,0-2-0.896-2-2v-6c0-1.104,0.895-2,2-2h8c1.104,0,2,0.896,2,2V65z M34,51   c0,1.104-0.896,2-2,2h-8c-1.105,0-2-0.896-2-2v-6c0-1.104,0.895-2,2-2h8c1.104,0,2,0.896,2,2V51z M34,37c0,1.104-0.896,2-2,2h-8   c-1.105,0-2-0.896-2-2v-6c0-1.104,0.895-2,2-2h8c1.104,0,2,0.896,2,2V37z M50,79c0,1.104-0.896,2-2,2h-8c-1.105,0-2-0.896-2-2V59   c0-1.104,0.895-2,2-2h8c1.104,0,2,0.896,2,2V79z M50,51c0,1.104-0.896,2-2,2h-8c-1.105,0-2-0.896-2-2v-6c0-1.104,0.895-2,2-2h8   c1.104,0,2,0.896,2,2V51z M50,37c0,1.104-0.896,2-2,2h-8c-1.105,0-2-0.896-2-2v-6c0-1.104,0.895-2,2-2h8c1.104,0,2,0.896,2,2V37z    M50,21c0,1.104-0.896,2-2,2H8c-1.105,0-2-0.896-2-2V10c0-1.104,0.895-2,2-2h40c1.104,0,2,0.896,2,2V21z" data-original="#000000" class="active-path" data-old_color="#000000" fill="#FFFFFF"/>
	<path d="M60,46h27c1.104,0,2-0.896,2-2V23H60V46z M79,26.938C79,26.42,79.42,26,79.937,26h5.125C85.58,26,86,26.42,86,26.938v5.125   C86,32.58,85.58,33,85.062,33h-5.125C79.42,33,79,32.58,79,32.063V26.938z" data-original="#000000" class="active-path" data-old_color="#000000" fill="#FFFFFF"/>
	<path d="M87,10H60v7h29v-5C89,10.896,88.104,10,87,10z" data-original="#000000" class="active-path" data-old_color="#000000" fill="#FFFFFF"/>
</g></g> </svg>
