<?xml version="1.0"?>
<svg xmlns="http://www.w3.org/2000/svg" xmlns:xlink="http://www.w3.org/1999/xlink" version="1.1" id="Layer_1" x="0px" y="0px" viewBox="0 0 490.667 490.667" style="enable-background:new 0 0 490.667 490.667;" xml:space="preserve" width="512px" height="512px"><g><g>
	<g>
		<path d="M255.915,73.259C255.189,67.947,250.667,64,245.333,64s-9.856,3.947-10.581,9.259    c-2.176,16.32-21.419,159.936-21.419,172.075c0,17.643,14.357,32,32,32s32-14.357,32-32    C277.333,233.195,258.091,89.579,255.915,73.259z" data-original="#000000" class="active-path" data-old_color="#000000" fill="#FFFFFF"/>
	</g>
</g><g>
	<g>
		<path d="M480,213.333h-64c-5.888,0-10.667,4.779-10.667,10.667v42.667c0,5.888,4.779,10.667,10.667,10.667h64    c5.888,0,10.667-4.779,10.667-10.667V224C490.667,218.112,485.888,213.333,480,213.333z" data-original="#000000" class="active-path" data-old_color="#000000" fill="#FFFFFF"/>
	</g>
</g><g>
	<g>
		<path d="M74.667,213.333h-64C4.779,213.333,0,218.112,0,224v42.667c0,5.888,4.779,10.667,10.667,10.667h64    c5.888,0,10.667-4.779,10.667-10.667V224C85.333,218.112,80.555,213.333,74.667,213.333z" data-original="#000000" class="active-path" data-old_color="#000000" fill="#FFFFFF"/>
	</g>
</g><g>
	<g>
		<path d="M266.667,0H224c-5.888,0-10.667,4.779-10.667,10.667v64c0,5.888,4.779,10.667,10.667,10.667h42.667    c5.888,0,10.667-4.779,10.667-10.667v-64C277.333,4.779,272.555,0,266.667,0z" data-original="#000000" class="active-path" data-old_color="#000000" fill="#FFFFFF"/>
	</g>
</g><g>
	<g>
		<path d="M266.667,405.333H224c-5.888,0-10.667,4.779-10.667,10.667v64c0,5.888,4.779,10.667,10.667,10.667h42.667    c5.888,0,10.667-4.779,10.667-10.667v-64C277.333,410.112,272.555,405.333,266.667,405.333z" data-original="#000000" class="active-path" data-old_color="#000000" fill="#FFFFFF"/>
	</g>
</g><g>
	<g>
		<path d="M158.571,73.728l-21.333-36.949c-2.965-5.12-9.493-6.848-14.571-3.904c-5.099,2.944-6.848,9.451-3.925,14.571    l21.333,36.949c1.984,3.435,5.568,5.333,9.259,5.333c1.813,0,3.648-0.469,5.333-1.429    C159.765,85.333,161.515,78.827,158.571,73.728z" data-original="#000000" class="active-path" data-old_color="#000000" fill="#FFFFFF"/>
	</g>
</g><g>
	<g>
		<path d="M371.883,443.221l-21.333-36.949c-2.944-5.12-9.493-6.848-14.571-3.904c-5.099,2.944-6.848,9.472-3.904,14.571    l21.333,36.949c1.984,3.435,5.568,5.333,9.259,5.333c1.813,0,3.648-0.448,5.312-1.429    C373.077,454.848,374.827,448.32,371.883,443.221z" data-original="#000000" class="active-path" data-old_color="#000000" fill="#FFFFFF"/>
	</g>
</g><g>
	<g>
		<path d="M84.395,140.096l-36.949-21.333c-5.099-2.965-11.627-1.216-14.571,3.904c-2.965,5.099-1.216,11.627,3.904,14.571    l36.949,21.333c1.664,0.981,3.499,1.429,5.312,1.429c3.691,0,7.275-1.899,9.259-5.333    C91.243,149.568,89.493,143.04,84.395,140.096z" data-original="#000000" class="active-path" data-old_color="#000000" fill="#FFFFFF"/>
	</g>
</g><g>
	<g>
		<path d="M453.888,353.429l-36.949-21.333c-5.099-2.965-11.627-1.216-14.571,3.904c-2.944,5.099-1.195,11.627,3.904,14.571    l36.949,21.333c1.685,0.981,3.52,1.429,5.333,1.429c3.691,0,7.275-1.899,9.237-5.333    C460.736,362.901,458.987,356.373,453.888,353.429z" data-original="#000000" class="active-path" data-old_color="#000000" fill="#FFFFFF"/>
	</g>
</g><g>
	<g>
		<path d="M88.299,336c-2.965-5.12-9.515-6.869-14.592-3.904l-36.949,21.333c-5.099,2.944-6.848,9.472-3.904,14.571    c1.984,3.435,5.568,5.333,9.259,5.333c1.813,0,3.648-0.448,5.333-1.429l36.949-21.333C89.493,347.627,91.243,341.099,88.299,336z" data-original="#000000" class="active-path" data-old_color="#000000" fill="#FFFFFF"/>
	</g>
</g><g>
	<g>
		<path d="M457.792,122.667c-2.965-5.12-9.515-6.869-14.571-3.904l-36.949,21.333c-5.099,2.944-6.848,9.472-3.904,14.571    c1.984,3.435,5.568,5.333,9.259,5.333c1.813,0,3.648-0.448,5.312-1.429l36.949-21.333    C458.987,134.293,460.736,127.765,457.792,122.667z" data-original="#000000" class="active-path" data-old_color="#000000" fill="#FFFFFF"/>
	</g>
</g><g>
	<g>
		<path d="M154.667,402.368c-5.12-2.944-11.627-1.216-14.571,3.904l-21.333,36.949c-2.944,5.099-1.195,11.627,3.904,14.571    c1.685,0.981,3.52,1.429,5.333,1.429c3.669,0,7.253-1.899,9.237-5.333l21.333-36.949    C161.515,411.84,159.765,405.312,154.667,402.368z" data-original="#000000" class="active-path" data-old_color="#000000" fill="#FFFFFF"/>
	</g>
</g><g>
	<g>
		<path d="M368,32.875c-5.12-2.944-11.605-1.216-14.571,3.904l-21.333,36.949c-2.944,5.099-1.195,11.627,3.904,14.571    c1.685,0.981,3.52,1.429,5.333,1.429c3.669,0,7.253-1.92,9.237-5.333l21.333-36.949C374.848,42.347,373.099,35.819,368,32.875z" data-original="#000000" class="active-path" data-old_color="#000000" fill="#FFFFFF"/>
	</g>
</g><g>
	<g>
		<path d="M359.531,344.469l-90.667-90.667c-4.16-4.16-10.923-4.16-15.083,0c-4.16,4.16-4.16,10.923,0,15.083l90.667,90.667    c2.091,2.069,4.821,3.115,7.552,3.115s5.461-1.045,7.531-3.115C363.691,355.392,363.691,348.629,359.531,344.469z" data-original="#000000" class="active-path" data-old_color="#000000" fill="#FFFFFF"/>
	</g>
</g></g> </svg>
