<?xml version="1.0"?>
<svg xmlns="http://www.w3.org/2000/svg" id="Capa_1" enable-background="new 0 0 512 512" height="512px" viewBox="0 0 512 512" width="512px" class=""><g><g><path d="m265.226 338.923c4.142 0 7.5-3.358 7.5-7.5s-3.358-7.5-7.5-7.5-7.5 3.358-7.5 7.5c0 4.143 3.358 7.5 7.5 7.5zm52.5 2.859c4.142 0 7.5-3.358 7.5-7.5s-3.358-7.5-7.5-7.5-7.5 3.358-7.5 7.5 3.358 7.5 7.5 7.5zm-33.364 38.097c4.142 0 7.5-3.358 7.5-7.5s-3.358-7.5-7.5-7.5-7.5 3.358-7.5 7.5 3.358 7.5 7.5 7.5zm220.138 97.121c-22.425 0-34.249 5.709-44.68 10.746-9.855 4.759-19.164 9.254-38.157 9.254s-28.302-4.495-38.157-9.254c-10.431-5.037-22.255-10.746-44.68-10.746-22.424 0-34.247 5.709-44.678 10.746-9.855 4.759-19.163 9.254-38.155 9.254-18.991 0-28.299-4.495-38.154-9.254-10.43-5.037-22.253-10.746-44.676-10.746-22.424 0-34.247 5.709-44.678 10.746-9.854 4.759-19.162 9.254-38.154 9.254s-28.3-4.495-38.154-9.254c-10.431-5.037-22.253-10.746-44.677-10.746-4.142 0-7.5 3.357-7.5 7.5s3.358 7.5 7.5 7.5c18.992 0 28.3 4.495 38.154 9.254 10.431 5.037 22.253 10.746 44.677 10.746s34.246-5.709 44.677-10.746c9.855-4.759 19.163-9.254 38.155-9.254s28.3 4.495 38.154 9.254c10.431 5.037 22.253 10.746 44.676 10.746 22.424 0 34.247-5.709 44.678-10.746 9.855-4.759 19.163-9.254 38.155-9.254 18.993 0 28.302 4.495 38.157 9.254 10.431 5.037 22.254 10.746 44.68 10.746s34.249-5.709 44.68-10.746c9.855-4.759 19.164-9.254 38.157-9.254 4.142 0 7.5-3.357 7.5-7.5s-3.358-7.5-7.5-7.5zm-348.741-35.45c0 4.142 3.358 7.5 7.5 7.5s7.5-3.358 7.5-7.5-3.358-7.5-7.5-7.5-7.5 3.358-7.5 7.5zm89.432 12.732c0 4.142 3.358 7.5 7.5 7.5s7.5-3.358 7.5-7.5-3.358-7.5-7.5-7.5-7.5 3.358-7.5 7.5zm-194.799-7.5c0 4.142 3.358 7.5 7.5 7.5s7.5-3.358 7.5-7.5-3.358-7.5-7.5-7.5-7.5 3.358-7.5 7.5zm285.311-7.5c0 4.142 3.358 7.5 7.5 7.5s7.5-3.358 7.5-7.5-3.358-7.5-7.5-7.5-7.5 3.358-7.5 7.5zm-162.54-55.988c-22.424 0-34.247 5.709-44.678 10.746-9.854 4.759-19.162 9.254-38.154 9.254s-28.3-4.495-38.154-9.254c-10.431-5.037-22.253-10.746-44.677-10.746-4.142 0-7.5 3.357-7.5 7.5s3.358 7.5 7.5 7.5c18.992 0 28.3 4.495 38.154 9.254 10.431 5.037 22.253 10.746 44.677 10.746s34.246-5.709 44.677-10.746c9.855-4.759 19.163-9.254 38.155-9.254s28.3 4.495 38.154 9.254c10.431 5.037 22.253 10.746 44.676 10.746 22.424 0 34.247-5.709 44.678-10.746 9.855-4.759 19.163-9.254 38.155-9.254 18.993 0 28.302 4.495 38.157 9.254 10.431 5.037 22.254 10.746 44.68 10.746s34.249-5.709 44.68-10.746c9.855-4.759 19.164-9.254 38.157-9.254 4.142 0 7.5-3.357 7.5-7.5s-3.358-7.5-7.5-7.5c-22.425 0-34.249 5.709-44.68 10.746-9.855 4.759-19.164 9.254-38.157 9.254s-28.302-4.495-38.157-9.254c-3.001-1.449-6.12-2.954-9.571-4.362 6.199-15.215 6.258-27.774 3.12-42.366-1.616-7.514-3.142-14.609-1.65-24.437.954-6.285 3.004-12.462 6.082-18.411 10.153-2.172 17.79-11.209 17.79-22v-32.299c0-10.608-7.382-19.52-17.278-21.882v-51.359c20.629-1.852 39.782-10.765 54.606-25.589 35.058-35.057 34.141-91.228 0-125.37-34.707-34.708-90.882-34.489-125.37 0-2.068 2.068-4.02 4.222-5.855 6.452-19.517-9.909-41.269-15.136-63.331-15.136h-89.594c-2.36-9.897-11.272-17.281-21.881-17.281h-32.299c-10.61 0-19.521 7.384-21.882 17.28h-68.893c-4.142 0-7.5 3.357-7.5 7.5s3.358 7.5 7.5 7.5h68.275v125h-68.275c-4.142 0-7.5 3.357-7.5 7.5s3.358 7.5 7.5 7.5h68.895c2.364 9.892 11.274 17.271 21.88 17.271h32.299c10.606 0 19.516-7.379 21.88-17.271h71.046c1.93 0 3.5 1.57 3.5 3.5v52.504c-9.894 2.363-17.274 11.274-17.274 21.881v32.299c0 9.212 5.567 17.145 13.512 20.621-1.681 6.674-2.258 13.328-1.667 19.866 1.253 13.885 7.544 18.943 9.41 29.728 1.813 10.481-4.909 23.321-19.94 38.178-9.031-3.988-20.135-7.563-37.878-7.563zm252.837-242.566c-13.911 13.911-32.406 21.572-52.078 21.572-17.151 0-33.404-5.826-46.507-16.536l103.62-103.62c23.415 28.413 21.316 72.231-5.035 98.584zm-104.157-104.156c26.622-26.623 69.269-29.004 98.585-5.036l-103.62 103.62c-23.744-29.046-21.538-72.01 5.035-98.584zm-98.343 120.708h-70.426v-68.541c0-4.143-3.358-7.5-7.5-7.5s-7.5 3.357-7.5 7.5v78.312c0 4.136-3.364 7.5-7.5 7.5h-32.299c-4.136 0-7.5-3.364-7.5-7.5v-144.551c0-4.136 3.364-7.5 7.5-7.5h32.299c4.136 0 7.5 3.364 7.5 7.5 0 .076-.004 2.211-.004 2.28 0 .026.004.051.004.077v28.882c0 4.143 3.358 7.5 7.5 7.5s7.5-3.357 7.5-7.5v-21.459h88.976c19.033 0 37.806 4.342 54.761 12.609-19.499 33.893-13.702 78.319 14.425 106.446 15.101 15.1 34.694 24.056 55.764 25.674v50.656h-125v-51.885c0-10.201-8.299-18.5-18.5-18.5zm22.261 192.848c-1.984-11.468-8.158-16.406-9.251-28.521-.489-5.413.11-10.993 1.749-16.643h59.467c4.142 0 7.5-3.357 7.5-7.5s-3.358-7.5-7.5-7.5h-64.879c-.064 0-.129-.002-.193 0h-.428c-4.136 0-7.5-3.364-7.5-7.5v-32.299c0-4.136 3.364-7.5 7.5-7.5h144.552c4.135 0 7.5 3.364 7.5 7.5v32.299c0 4.136-3.365 7.5-7.5 7.5h-44.052c-4.142 0-7.5 3.357-7.5 7.5s3.358 7.5 7.5 7.5h32.094c-2.003 5.111-3.438 10.344-4.244 15.66-1.905 12.544.072 21.733 1.815 29.842 2.612 12.148 2.648 22.082-2.864 34.789-5.795-1.204-12.544-1.961-20.701-1.961-22.424 0-34.247 5.709-44.678 10.746-9.855 4.759-19.163 9.254-38.155 9.254-14.136 0-22.905-2.492-30.53-5.728 16.185-17.186 22.838-32.761 20.298-47.438zm172.572 104.154c0 4.142 3.358 7.5 7.5 7.5s7.5-3.358 7.5-7.5-3.358-7.5-7.5-7.5-7.5 3.358-7.5 7.5z" data-original="#000000" class="active-path" data-old_color="#000000" fill="#FFFFFF"/></g></g> </svg>
