<?xml version="1.0"?>
<svg xmlns="http://www.w3.org/2000/svg" xmlns:xlink="http://www.w3.org/1999/xlink" version="1.1" id="Capa_1" x="0px" y="0px" viewBox="0 0 512 512" style="enable-background:new 0 0 512 512;" xml:space="preserve" width="512px" height="512px"><g><g>
	<g>
		<path d="M446.906,261.969c-1.792-3.656-5.5-5.969-9.573-5.969h-96V10.667C341.333,4.771,336.563,0,330.667,0H181.333    c-5.896,0-10.667,4.771-10.667,10.667V256h-96c-4.073,0-7.781,2.313-9.573,5.969c-1.792,3.646-1.354,8,1.135,11.219    l181.333,234.667c2.021,2.615,5.135,4.146,8.438,4.146s6.417-1.531,8.438-4.146l181.333-234.667    C448.26,269.969,448.698,265.615,446.906,261.969z" data-original="#000000" class="active-path" data-old_color="#000000" fill="#FFFFFF"/>
	</g>
</g></g> </svg>
