<?xml version="1.0"?>
<svg xmlns="http://www.w3.org/2000/svg" id="Layer_1_1_" enable-background="new 0 0 64 64" height="512px" viewBox="0 0 64 64" width="512px" class=""><g><path d="m18 23.25c-.965 0-1.75.785-1.75 1.75s.785 1.75 1.75 1.75 1.75-.785 1.75-1.75-.785-1.75-1.75-1.75zm-.25 1.75c0-.138.112-.25.25-.25s.25.112.25.25c0 .275-.5.275-.5 0z" data-original="#000000" class="active-path" data-old_color="#000000" fill="#FFFFFF"/><path d="m28 23.25c-.965 0-1.75.785-1.75 1.75s.785 1.75 1.75 1.75 1.75-.785 1.75-1.75-.785-1.75-1.75-1.75zm-.25 1.75c0-.138.112-.25.25-.25s.25.112.25.25c0 .275-.5.275-.5 0z" data-original="#000000" class="active-path" data-old_color="#000000" fill="#FFFFFF"/><path d="m23 31.25c-1.24 0-2.25-1.01-2.25-2.25h-1.5c0 2.067 1.683 3.75 3.75 3.75s3.75-1.683 3.75-3.75h-1.5c0 1.24-1.01 2.25-2.25 2.25z" data-original="#000000" class="active-path" data-old_color="#000000" fill="#FFFFFF"/><path d="m61.97 22.242c.122-.484-.134-.985-.599-1.171l-7.371-2.948v-4.123c0-.553-.447-1-1-1h-4c-.553 0-1 .447-1 1v4.123l-7.371 2.948c-.465.186-.721.687-.599 1.171l1.637 6.548c-.557-.354-1.18-.614-1.857-.725l-2.225-9.639c-.31-1.343-.501-2.755-.687-4.12l-.027-.205c-.934-6.898-6.898-12.101-13.871-12.101s-12.937 5.203-13.872 12.102l-.027.205c-.186 1.365-.377 2.777-.687 4.12l-2.225 9.639c-2.373.388-4.189 2.453-4.189 4.934 0 2.439 1.756 4.476 4.069 4.913.29 1.888 1.47 3.473 3.089 4.35-1.557.862-2.868 2.138-3.793 3.737h-2.365c-.553 0-1 .447-1 1v14c0 .553.447 1 1 1h22 16c.553 0 1-.447 1-1v-3h6v3c0 .553.447 1 1 1h4c.553 0 1-.447 1-1v-3h7c.553 0 1-.447 1-1v-3.938c0-5.313-1.359-10.562-3.934-15.206zm-12.599-2.513c.38-.153.629-.52.629-.929v-3.8h2v3.8c0 .409.249.776.629.929l3 1.2-4.629 1.983-4.629-1.984zm-5.437 18.127c-1.454 2.624-2.505 5.443-3.158 8.355-.909-1.659-2.276-3.031-3.928-3.951 1.616-.878 2.794-2.462 3.083-4.348 1.459-.276 2.693-1.189 3.408-2.436zm-31.934 3.144c-2.206 0-4-1.794-4-4 0-.553-.447-1-1-1-1.654 0-3-1.346-3-3s1.346-3 3-3c.466 0 .87-.321.975-.775l2.389-10.349c.33-1.433.527-2.891.719-4.301l.028-.204c.801-5.913 5.912-10.371 11.889-10.371s11.088 4.458 11.89 10.371l.028.204c.191 1.41.389 2.868.719 4.301l2.389 10.349c.104.454.508.775.974.775 1.654 0 3 1.346 3 3s-1.346 3-3 3c-.553 0-1 .447-1 1 0 2.206-1.794 4-4 4h-5v-5.623c3.581-2.079 6-5.946 6-10.377v-4c0-.553-.447-1-1-1h-1c-5.754 0-10.749-3.694-12.431-9.193-.132-.43-.491-.716-.984-.708-.449.013-.836.324-.943.762-.9 3.673-3.527 6.741-7.028 8.208-.372.155-.614.528-.614.931v5c0 4.43 2.419 8.298 6 10.377v5.623zm15 .391c-2.515 1.304-5.485 1.304-8 0v-5.091c1.253.445 2.596.7 4 .7s2.747-.255 4-.7zm-4-6.391c-5.514 0-10-4.486-10-10v-4.362c2.948-1.406 5.31-3.808 6.678-6.731 2.535 4.931 7.604 8.093 13.322 8.093v3c0 5.514-4.486 10-10 10zm-9 8v3h-6.226c1.499-1.874 3.753-3 6.226-3zm10 17h-20v-12h20zm-8-14v-3h1.764c1.631.915 3.43 1.389 5.236 1.389s3.605-.474 5.236-1.389h1.764v17h-4v-13c0-.553-.447-1-1-1zm24 14h-8v-17c4.411 0 8 3.589 8 8v2.063 3.937zm12 0h-2v-2h2zm8-6.937v2.937h-18v-2.938c0-5.101 1.338-10.138 3.868-14.566.128-.224.164-.488.102-.738l-3.788-15.153 1.564-.626 6.254 2.68v6.341h2v-6.341l6.254-2.68 1.564.626-3.788 15.153c-.063.25-.026.515.102.738 2.53 4.429 3.868 9.466 3.868 14.567z" data-original="#000000" class="active-path" data-old_color="#000000" fill="#FFFFFF"/><path d="m14 58c2.206 0 4-1.794 4-4s-1.794-4-4-4-4 1.794-4 4 1.794 4 4 4zm0-6c1.103 0 2 .897 2 2s-.897 2-2 2-2-.897-2-2 .897-2 2-2z" data-original="#000000" class="active-path" data-old_color="#000000" fill="#FFFFFF"/></g> </svg>
