<?xml version="1.0" encoding="iso-8859-1"?>
<!-- Generator: Adobe Illustrator 19.0.0, SVG Export Plug-In . SVG Version: 6.00 Build 0)  -->
<svg version="1.1" id="Capa_1" xmlns="http://www.w3.org/2000/svg" xmlns:xlink="http://www.w3.org/1999/xlink" x="0px" y="0px"
	 viewBox="0 0 512 512" style="enable-background:new 0 0 512 512;" xml:space="preserve">
<path style="fill:#CFD8DC;" d="M53.333,85.333h405.333c29.455,0,53.333,23.878,53.333,53.333v234.667
	c0,29.455-23.878,53.333-53.333,53.333H53.333C23.878,426.667,0,402.789,0,373.333V138.667C0,109.211,23.878,85.333,53.333,85.333z"
	/>
<g>
	<path style="fill:#455A64;" d="M160,320H74.667C68.776,320,64,315.224,64,309.333s4.776-10.667,10.667-10.667H160
		c5.891,0,10.667,4.776,10.667,10.667S165.891,320,160,320z"/>
	<path style="fill:#455A64;" d="M224,362.667H74.667C68.776,362.667,64,357.891,64,352c0-5.891,4.776-10.667,10.667-10.667H224
		c5.891,0,10.667,4.776,10.667,10.667C234.667,357.891,229.891,362.667,224,362.667z"/>
</g>
<g>
	<path style="fill:#F44336;" d="M309.333,256c-51.831-0.222-97.453-34.231-112.469-83.84c-4.771-16.931,5.086-34.525,22.017-39.296
		c5.65-1.592,11.629-1.592,17.279,0c49.613,15.01,83.625,60.636,83.84,112.469C320,251.224,315.224,256,309.333,256z
		 M227.349,152.896c-2.741,0.078-5.346,1.209-7.275,3.157c-2.714,2.56-3.782,6.414-2.773,10.005l0,0
		c11.079,36.604,42.705,63.228,80.661,67.904c-4.671-37.959-31.297-69.587-67.904-80.661
		C229.18,153.034,228.267,152.897,227.349,152.896z"/>
	<path style="fill:#F44336;" d="M309.333,256c-5.891,0-10.667-4.776-10.667-10.667c0.222-51.831,34.231-97.453,83.84-112.469
		c16.931-4.771,34.525,5.086,39.296,22.017c1.592,5.65,1.592,11.629,0,17.279l0,0C406.787,221.769,361.165,255.778,309.333,256z
		 M391.317,152.896c-0.925,0.004-1.844,0.141-2.731,0.405c-36.604,11.092-63.225,42.723-67.904,80.683
		c37.956-4.676,69.583-31.3,80.661-67.904l0,0c1.009-3.591-0.06-7.446-2.773-10.005C396.65,154.124,394.053,152.986,391.317,152.896
		z"/>
	<rect x="298.667" y="85.333" style="fill:#F44336;" width="21.333" height="341.333"/>
	<path style="fill:#F44336;" d="M245.333,320c-5.891,0.011-10.675-4.757-10.686-10.648c-0.005-2.84,1.123-5.565,3.134-7.571l64-64
		c4.237-4.092,10.99-3.975,15.083,0.262c3.992,4.134,3.992,10.687,0,14.82l-64,64C250.868,318.866,248.16,319.994,245.333,320z"/>
	<path style="fill:#F44336;" d="M373.333,320c-2.831,0.005-5.548-1.115-7.552-3.115l-64-64c-4.092-4.237-3.975-10.99,0.262-15.083
		c4.134-3.992,10.687-3.992,14.82,0l64,64c4.159,4.172,4.149,10.926-0.024,15.085C378.847,318.875,376.148,319.994,373.333,320z"/>
	<rect y="234.667" style="fill:#F44336;" width="512" height="21.333"/>
</g>
<path d="M458.667,426.667H53.333C23.878,426.667,0,402.789,0,373.333V138.667c0-29.455,23.878-53.333,53.333-53.333h405.333
	c29.455,0,53.333,23.878,53.333,53.333v234.667C512,402.789,488.122,426.667,458.667,426.667z M53.333,106.667
	c-17.673,0-32,14.327-32,32v234.667c0,17.673,14.327,32,32,32h405.333c17.673,0,32-14.327,32-32V138.667c0-17.673-14.327-32-32-32
	H53.333z"/>
<path d="M160,320H74.667C68.776,320,64,315.224,64,309.333s4.776-10.667,10.667-10.667H160c5.891,0,10.667,4.776,10.667,10.667
	S165.891,320,160,320z"/>
<path d="M224,362.667H74.667C68.776,362.667,64,357.891,64,352c0-5.891,4.776-10.667,10.667-10.667H224
	c5.891,0,10.667,4.776,10.667,10.667C234.667,357.891,229.891,362.667,224,362.667z"/>
<g>
</g>
<g>
</g>
<g>
</g>
<g>
</g>
<g>
</g>
<g>
</g>
<g>
</g>
<g>
</g>
<g>
</g>
<g>
</g>
<g>
</g>
<g>
</g>
<g>
</g>
<g>
</g>
<g>
</g>
</svg>
