<?xml version="1.0"?>
<svg xmlns="http://www.w3.org/2000/svg" height="512px" viewBox="0 0 496 496" width="512px" class=""><g><path d="m216 336c0 13.230469 10.769531 24 24 24s24-10.769531 24-24-10.769531-24-24-24-24 10.769531-24 24zm24-8c4.40625 0 8 3.585938 8 8s-3.59375 8-8 8-8-3.585938-8-8 3.59375-8 8-8zm0 0" data-original="#000000" class="active-path" data-old_color="#000000" fill="#FFFFFF"/><path d="m128 336c0 13.230469 10.769531 24 24 24s24-10.769531 24-24-10.769531-24-24-24-24 10.769531-24 24zm24-8c4.40625 0 8 3.585938 8 8s-3.59375 8-8 8-8-3.585938-8-8 3.59375-8 8-8zm0 0" data-original="#000000" class="active-path" data-old_color="#000000" fill="#FFFFFF"/><path d="m125.222656 264.183594c-7.925781 3.976562-13.222656 12.0625-13.222656 21.367187v18.449219c0 4.425781 3.585938 8 8 8h152v-16h-144v-10.449219c0-3.925781 2.808594-7.246093 6.6875-7.886719l130.632812-21.777343c3.847657-.640625 6.679688-3.976563 6.679688-7.886719v-56c0-4.425781-3.585938-8-8-8h-146.710938l-5.648437-18.351562c-1.023437-3.359376-4.128906-5.648438-7.640625-5.648438h-40v16h34.089844zm58.777344-10.960938-16.839844 2.808594-6.222656-56.03125h23.0625zm16-53.222656h22.9375l-5.96875 47.726562-16.96875 2.832032zm56 41.222656-22.558594 3.761719 5.621094-44.984375h16.9375zm-111.160156-41.222656 6.519531 58.664062-10.550781 1.761719-18.59375-60.425781zm0 0" data-original="#000000" class="active-path" data-old_color="#000000" fill="#FFFFFF"/><path d="m384 0c-56.3125 0-102.921875 41.816406-110.71875 96h-265.28125c-4.414062 0-8 3.574219-8 8v304c0 4.425781 3.585938 8 8 8h192v32h-72c-4.414062 0-8 3.574219-8 8v32c0 4.425781 3.585938 8 8 8h240c4.414062 0 8-3.574219 8-8v-32c0-4.425781-3.585938-8-8-8h-72v-32h192c4.414062 0 8-3.574219 8-8v-296c0-61.761719-50.238281-112-112-112zm96 112c0 40.9375-25.800781 75.871094-61.953125 89.648438 5.953125-8.953126 11-20.320313 14.753906-33.726563 12.855469-.433594 23.199219-10.960937 23.199219-23.921875 0-10.535156-6.871094-19.40625-16.328125-22.632812.121094-3.121094.328125-6.214844.328125-9.367188 0-37.175781-8.664062-69.480469-22.207031-89.742188 36.285156 13.710938 62.207031 48.710938 62.207031 89.742188zm-96 112c23.792969 0 45.839844-7.511719 64-20.214844v164.214844h-400v-224h228.71875c13.808594 46.199219 56.648438 80 107.28125 80zm-48-152c4.40625 0 8 3.585938 8 8s-3.59375 8-8 8-8-3.585938-8-8 3.59375-8 8-8zm8.335938 30.425781c9.121093-3.410156 15.664062-12.136719 15.664062-22.425781 0-7.785156-3.785156-14.648438-9.542969-19.03125 5.925781-21.511719 15.421875-37.167969 25.542969-42.738281v187.433593c-16.398438-9.105468-32-45.007812-32-93.664062 0-3.222656.199219-6.390625.335938-9.574219zm87.664062 49.574219c-4.40625 0-8-3.585938-8-8s3.59375-8 8-8 8 3.585938 8 8-3.59375 8-8 8zm-8.335938-30.425781c-9.121093 3.410156-15.664062 12.136719-15.664062 22.425781 0 7.785156 3.785156 14.648438 9.542969 19.03125-5.925781 21.511719-15.421875 37.167969-25.542969 42.730469v-187.433594c16.398438 9.113281 32 45.007813 32 93.671875 0 3.222656-.199219 6.390625-.335938 9.574219zm-73.710937-99.222657c-5.953125 8.953126-11 20.320313-14.753906 33.726563-12.855469.433594-23.199219 10.960937-23.199219 23.921875 0 10.535156 6.871094 19.40625 16.328125 22.632812-.121094 3.121094-.328125 6.207032-.328125 9.367188 0 37.175781 8.664062 69.480469 22.207031 89.742188-36.285156-13.710938-62.207031-48.710938-62.207031-89.742188 0-40.9375 25.800781-75.871094 61.953125-89.648438zm10.046875 457.648438h-224v-16h224zm-80-32h-64v-32h64zm200-48h-464v-288h256c0 5.449219.519531 10.761719 1.28125 16h-233.28125c-4.414062 0-8 3.574219-8 8v240c0 4.425781 3.585938 8 8 8h416c4.414062 0 8-3.574219 8-8v-185.769531c6.128906-6.261719 11.464844-13.285157 16-20.839844zm0 0" data-original="#000000" class="active-path" data-old_color="#000000" fill="#FFFFFF"/></g> </svg>
