<?xml version="1.0"?>
<svg xmlns="http://www.w3.org/2000/svg" id="Layer_3" enable-background="new 0 0 64 64" height="512px" viewBox="0 0 64 64" width="512px" class=""><g><g><path d="m62 31h-1v-6.056c0-3.277-2.667-5.944-5.944-5.944-1.503 0-2.855-.836-3.528-2.181l-.306-.612c2.242-1.168 3.778-3.51 3.778-6.207v-2c0-3.859-3.14-7-7-7s-7 3.141-7 7v2c0 2.697 1.536 5.039 3.778 6.208l-.306.612c-.672 1.344-2.024 2.18-3.528 2.18-3.277 0-5.944 2.667-5.944 5.944v6.056h-8v-1c0-1.654-1.346-3-3-3h-1v-2h8c1.654 0 3-1.346 3-3v-14c0-1.654-1.346-3-3-3h-24c-1.654 0-3 1.346-3 3v14c0 1.654 1.346 3 3 3h1v1c0 .552-.449 1-1 1-1.654 0-3 1.346-3 3v1h-2c-.552 0-1 .447-1 1v6c0 .553.448 1 1 1h1v23c0 .553.448 1 1 1h56c.552 0 1-.447 1-1v-23h1c.552 0 1-.447 1-1v-6c0-.553-.448-1-1-1zm-9.285-10.48-1.159 2.897-2.034-1.525 2.038-2.038c.361.262.744.491 1.155.666zm-9.715-10.52v-2c0-2.757 2.243-5 5-5s5 2.243 5 5v2c0 2.757-2.243 5-5 5s-5-2.243-5-5zm5 7c.451 0 .89-.047 1.318-.129l.421.842c.125.25.266.487.42.713l-2.159 2.16-2.159-2.159c.154-.226.296-.463.42-.713l.421-.842c.428.081.867.128 1.318.128zm-3.56 2.854 2.038 2.038-2.034 1.525-1.159-2.897c.411-.175.794-.404 1.155-.666zm-7.44 5.09c0-2.174 1.77-3.944 3.944-3.944.125 0 .245-.018.368-.026l1.759 4.397c.116.289.359.508.659.592.089.024.18.037.27.037.214 0 .425-.068.6-.2l3.4-2.55 3.4 2.55c.175.132.386.2.6.2.09 0 .181-.013.27-.037.299-.084.543-.303.659-.592l1.759-4.397c.122.008.243.026.368.026 2.174 0 3.944 1.77 3.944 3.944v6.056h-3v-4h-2v4h-12v-4h-2v4h-3zm-12 5.056v1h-12v-1c0-.552.449-1 1-1h10c.551 0 1 .448 1 1zm-8-3v-8c0-1.103.897-2 2-2s2 .897 2 2v8zm-11-5v-14c0-.552.449-1 1-1h24c.551 0 1 .448 1 1v14c0 .552-.449 1-1 1h-8v-4c0-2.206-1.794-4-4-4s-4 1.794-4 4v4h-8c-.551 0-1-.448-1-1zm0 8c0-.552.449-1 1-1 1.654 0 3-1.346 3-3v-1h5v2h-1c-1.654 0-3 1.346-3 3v1h-5zm-1 31v-2h54v2zm54-4h-54v-18h54zm2-20h-58v-4h58z" data-original="#000000" class="active-path" data-old_color="#000000" fill="#555"/><path d="m20 55h24c.552 0 1-.447 1-1v-12c0-.553-.448-1-1-1h-24c-.552 0-1 .447-1 1v12c0 .553.448 1 1 1zm1-12h22v10h-22z" data-original="#000000" class="active-path" data-old_color="#000000" fill="#555"/><path d="m23 45h18v2h-18z" data-original="#000000" class="active-path" data-old_color="#000000" fill="#555"/><path d="m23 49h18v2h-18z" data-original="#000000" class="active-path" data-old_color="#000000" fill="#555"/></g></g> </svg>
