<?xml version="1.0"?>
<svg xmlns="http://www.w3.org/2000/svg" id="outline" viewBox="0 0 512 512" width="512" height="512"><path d="M488,176H472V155.8291a69.89171,69.89171,0,0,0-35.13916-60.55127,88.74993,88.74993,0,0,0-58.45459-10.45556,72.77,72.77,0,0,1-34.84375-2.73389l-25.82141-8.6073A32.148,32.148,0,0,0,304.4375,54.67725l-10.49512-6.99707A45.72846,45.72846,0,0,0,241.13916,49.146L221.59229,63.80609A97.54775,97.54775,0,0,0,91.36768,121.0874L74.71191,168.27893A56.06506,56.06506,0,0,0,24,136a7.99977,7.99977,0,0,0-8,8V272a79.7486,79.7486,0,0,0,23.73413,56.80542L16.12158,462.60986A7.99965,7.99965,0,0,0,24,472H40a7.99975,7.99975,0,0,0,7.42773-5.02881L93.44214,351.93506C94.29358,351.962,95.14221,352,96,352h50.58374l45.98853,114.97119A7.99975,7.99975,0,0,0,200,472h16a8.00053,8.00053,0,0,0,7.84473-9.56885L201.75854,352H216a7.99977,7.99977,0,0,0,8-8,55.82364,55.82364,0,0,0-16.86169-40h27.663L296,441.69775V464a7.99977,7.99977,0,0,0,8,8H488a7.99977,7.99977,0,0,0,8-8V184A7.99977,7.99977,0,0,0,488,176Zm-8,40H220.42078l-39.22693-12.2583L190,192H480ZM350.88428,410.97461l-24.32764-85.14722,61.93848,87.74622-17.74341,10.64612ZM313.2395,279.21741,311.17725,272h85.926L440,307.74731V433.052l-34.32324-22.88208ZM440,286.91943,422.0968,272H440ZM440,256H305.985a39.85855,39.85855,0,0,0-24.07923-20.78613L271.62134,232H440ZM236.68652,176H202l14.86548-19.821Zm136.13379-40A35.21979,35.21979,0,0,1,408,171.17969V176H360V136ZM317.43372,90.2439l21.06921,7.02319a88.83262,88.83262,0,0,0,42.53369,3.3374,72.70817,72.70817,0,0,1,47.88574,8.56494A53.85809,53.85809,0,0,1,456,155.8291V176H424v-4.82031A51.23748,51.23748,0,0,0,372.82031,120H286.42188l18.01562-12.01025A31.791,31.791,0,0,0,317.43372,90.2439Zm-43.40149,18.7868L256.78076,89.31494c-.38867-.44427-.78638-.87866-1.18225-1.31494H268.686l14.75708,14.75677ZM250.73877,61.9458a29.72976,29.72976,0,0,1,34.32812-.95312l10.49561,6.99755a16.033,16.033,0,0,1,1.38672,25.64545L277.65674,74.34326A7.99877,7.99877,0,0,0,272,72H237.333Zm-144.2832,64.4668A81.55637,81.55637,0,0,1,244.73975,99.85107l29.23974,33.417A8.00028,8.00028,0,0,0,280,136h64v40H272.56836a31.79176,31.79176,0,0,1-22.62744-9.37256l-52.28418-52.28418-11.31348,11.31348,19.094,19.09393L164.00024,200H80.48364ZM34.5835,456H33.53516l20.4624-115.95166a79.5394,79.5394,0,0,0,23.09692,9.67493Zm171.6582,0h-.8252L163.81616,352h21.62537Zm.95459-120H96a64.0727,64.0727,0,0,1-64-64V152.80371A40.07061,40.07061,0,0,1,64,192v40a72.08124,72.08124,0,0,0,72,72h32A40.07061,40.07061,0,0,1,207.19629,336Zm40.11426-43.249A8,8,0,0,0,240,288H136a56.06353,56.06353,0,0,1-56-56V216h86.77942L277.1333,250.48535a23.93376,23.93376,0,0,1,15.918,16.31445l41.57056,145.49756-26.98389,16.19019ZM384,456H312V444.52954l31.775-19.06494L384,452.28125Zm1.48193-21.96,14.29285-8.57568L440,452.28125V456H400v-8a7.99943,7.99943,0,0,0-3.5625-6.65625ZM480,456H456V232h24Z"/></svg>
