<svg id="Capa_1" enable-background="new 0 0 512 512" height="512" viewBox="0 0 512 512" width="512" xmlns="http://www.w3.org/2000/svg"><g><path d="m496.527 24.571h-481.054c-8.545 0-15.473 6.928-15.473 15.473v328.218c0 8.545 6.927 15.473 15.473 15.473h53.204c4.436 0 8.032 3.596 8.032 8.032v87.613c0 7.156 8.652 10.74 13.712 5.68l98.973-98.973c1.506-1.506 3.549-2.353 5.68-2.353h301.455c8.545 0 15.473-6.927 15.473-15.473v-328.217c-.002-8.545-6.929-15.473-15.475-15.473z" fill="#ebfbd9"/><path d="m496.527 24.571h-25.735v198.42c0 77.397-62.743 140.14-140.14 140.14h-330.652v5.131c0 8.545 6.927 15.473 15.473 15.473h53.204c4.436 0 8.032 3.596 8.032 8.032v87.613c0 7.156 8.652 10.74 13.712 5.68l98.973-98.973c1.506-1.506 3.549-2.353 5.68-2.353h301.455c8.545 0 15.473-6.927 15.473-15.473v-328.217c-.002-8.545-6.93-15.473-15.475-15.473z" fill="#e0f8c5"/><circle cx="256" cy="204.153" fill="#b3e59f" r="124.933"/><path d="m290.257 83.975c30.058 22.815 49.469 58.928 49.469 99.574 0 68.999-55.934 124.933-124.933 124.933-11.879 0-23.371-1.658-34.257-4.755 20.966 15.914 47.112 25.359 75.464 25.359 68.999 0 124.933-55.934 124.933-124.933 0-57.119-38.332-105.285-90.676-120.178z" fill="#95d6a4"/><path d="m320.555 224.497c-3.296 0-6.591 1.257-9.106 3.772-14.811 14.811-34.503 22.968-55.449 22.968s-40.638-8.156-55.449-22.968c-5.029-5.029-13.182-5.029-18.211 0s-5.029 13.182 0 18.211c19.675 19.676 45.835 30.511 73.66 30.511s53.985-10.836 73.66-30.511c5.029-5.029 5.029-13.183 0-18.211-2.514-2.514-5.81-3.772-9.105-3.772z" fill="#6ec186"/><path d="m330.915 229.724c-4.238 10.649-9.899 20.578-16.748 29.552 5.504-3.72 10.692-7.995 15.493-12.796 4.569-4.569 4.987-11.716 1.255-16.756z" fill="#63af7d"/><path d="m225.653 194.789c-7.112 0-12.877-5.766-12.877-12.877 0-5.163-4.201-9.364-9.364-9.364s-9.364 4.201-9.364 9.364c0 7.112-5.766 12.877-12.877 12.877-7.112 0-12.877-5.766-12.877-12.877 0-19.365 15.754-35.119 35.119-35.119 19.364 0 35.118 15.754 35.118 35.119 0 7.112-5.766 12.877-12.878 12.877z" fill="#6ec186"/><path d="m286.347 194.789c7.112 0 12.877-5.766 12.877-12.877 0-5.163 4.201-9.364 9.364-9.364s9.364 4.201 9.364 9.364c0 7.112 5.766 12.877 12.877 12.877s12.877-5.766 12.877-12.877c0-19.365-15.754-35.119-35.119-35.119-19.364 0-35.118 15.754-35.118 35.119.001 7.112 5.766 12.877 12.878 12.877z" fill="#6ec186"/><path d="m343.707 181.912c0-7.068-2.099-13.655-5.706-19.17 1.134 6.767 1.726 13.718 1.726 20.808 0 2.654-.083 5.288-.246 7.901 2.595-2.356 4.226-5.757 4.226-9.539z" fill="#63af7d"/></g></svg>