<svg id="Flat" height="512" viewBox="0 0 512 512" width="512" xmlns="http://www.w3.org/2000/svg"><path d="m56 104h272a32 32 0 0 1 32 32v320a32 32 0 0 1 -32 32h-272a0 0 0 0 1 0 0v-384a0 0 0 0 1 0 0z" fill="#6a7073"/><path d="m120 24h176v432h-176z" fill="#e9eef2"/><path d="m120 24h48v432h-48z" fill="#c3c6c7"/><g fill="#dcdee0"><path d="m232 112a8 8 0 0 1 -8-8v-32a8 8 0 0 1 16 0v32a8 8 0 0 1 -8 8z"/><path d="m200 80a8 8 0 0 1 -8-8l.01-16.008a8 8 0 0 1 8-8 8 8 0 0 1 8 8.005l-.01 16.008a8 8 0 0 1 -8 7.995z"/><path d="m264 112a8 8 0 0 1 -8-8v-16a8 8 0 0 1 16 0v16a8 8 0 0 1 -8 8z"/><circle cx="200" cy="104" r="8"/><circle cx="264" cy="56" r="8"/></g><path d="m216.21 39.061h176v432h-176z" fill="#e9eef2" transform="matrix(.866 .5 -.5 .866 168.287 -117.933)"/><path d="m216.21 39.061h176v432h-176z" fill="#e9eef2" transform="matrix(.866 .5 -.5 .866 168.287 -117.933)"/><path d="m32.786 199.06h431.998v48.001h-431.998z" fill="#c3c6c7" transform="matrix(.5 -.866 .866 .5 -68.784 326.983)"/><path d="m392.987 157.284a8 8 0 0 1 -6.92-12l16-27.713a8 8 0 1 1 13.856 8l-16 27.713a8 8 0 0 1 -6.936 4z" fill="#dcdee0"/><path d="m381.274 113.571a8 8 0 0 1 -6.918-12.006l8.012-13.858a8 8 0 0 1 13.852 8.008l-8.012 13.858a8 8 0 0 1 -6.934 3.998z" fill="#dcdee0"/><path d="m420.7 173.284a8 8 0 0 1 -6.92-12l8-13.856a8 8 0 0 1 13.856 8l-8 13.856a8 8 0 0 1 -6.936 4z" fill="#dcdee0"/><path d="m348.21 76.994h16v176h-16z" fill="#c3c6c7" transform="matrix(.5 -.866 .866 .5 35.216 390.985)"/><circle cx="365.282" cy="133.282" fill="#dcdee0" r="8"/><circle cx="444.708" cy="123.713" fill="#dcdee0" r="8"/><path d="m310.851 199.846h32v192h-32z" fill="#dcdee0" transform="matrix(.866 .5 -.5 .866 191.713 -123.79)"/><path d="m237.274 362.986a8 8 0 0 1 -6.92-12l96-166.276a8 8 0 1 1 13.856 8l-96 166.276a8 8 0 0 1 -6.936 4z" fill="#dcdee0"/><path d="m24 104h272a32 32 0 0 1 32 32v320a32 32 0 0 1 -32 32h-272a0 0 0 0 1 0 0v-384a0 0 0 0 1 0 0z" fill="#9aa3a8"/><path d="m232 416h-112a8 8 0 0 1 0-16h112a8 8 0 0 1 0 16z" fill="#6a7073"/><path d="m256 160h-160a8 8 0 0 1 0-16h160a8 8 0 0 1 0 16z" fill="#6a7073"/><path d="m264 280a88.15 88.15 0 0 0 -70.4-86.23h-.012l-.046-.008a88.374 88.374 0 0 0 -35.069 0c-.032.006-.064.011-.1.018a88.01 88.01 0 0 0 .15 172.483c.042.008.083.017.125.024a88.348 88.348 0 0 0 34.89-.039l.046-.008h.012a88.15 88.15 0 0 0 70.404-86.24zm-32.371-8a87.426 87.426 0 0 0 -5.784-24.192 96.738 96.738 0 0 0 11.7-5.146 71.5 71.5 0 0 1 10 29.338zm-16.093 0h-31.536v-16.206a154.238 154.238 0 0 0 26.422-3.486 71.611 71.611 0 0 1 5.114 19.692zm-31.536-32.222v-19.63a72.5 72.5 0 0 1 18.149 17.5 141.864 141.864 0 0 1 -18.149 2.13zm-16-19.63v19.63a141.864 141.864 0 0 1 -18.149-2.131 72.5 72.5 0 0 1 18.149-17.499zm0 35.646v16.206h-31.536a71.611 71.611 0 0 1 5.114-19.692 154.238 154.238 0 0 0 26.422 3.486zm-47.621 16.206h-15.924a71.5 71.5 0 0 1 10-29.338 96.676 96.676 0 0 0 11.688 5.143 87.462 87.462 0 0 0 -5.764 24.195zm0 16a87.462 87.462 0 0 0 5.768 24.195 96.676 96.676 0 0 0 -11.688 5.143 71.5 71.5 0 0 1 -10-29.338zm16.085 0h31.536v16.206a154.238 154.238 0 0 0 -26.422 3.486 71.611 71.611 0 0 1 -5.114-19.692zm31.536 32.222v19.63a72.5 72.5 0 0 1 -18.149-17.5 141.864 141.864 0 0 1 18.149-2.13zm16 19.63v-19.63a141.864 141.864 0 0 1 18.149 2.131 72.5 72.5 0 0 1 -18.149 17.499zm0-35.646v-16.206h31.536a71.611 71.611 0 0 1 -5.114 19.692 154.238 154.238 0 0 0 -26.422-3.486zm47.629-16.206h15.916a71.5 71.5 0 0 1 -10 29.338 96.738 96.738 0 0 0 -11.7-5.146 87.426 87.426 0 0 0 5.784-24.192zm-4.112-58.228a86.048 86.048 0 0 1 -8.946 3.615 88.844 88.844 0 0 0 -18.7-21.3 72.148 72.148 0 0 1 27.646 17.685zm-75.4-17.682a88.818 88.818 0 0 0 -18.678 21.3 85.923 85.923 0 0 1 -8.951-3.616 72.166 72.166 0 0 1 27.624-17.684zm-27.634 118.138a85.923 85.923 0 0 1 8.951-3.616 88.818 88.818 0 0 0 18.678 21.3 72.166 72.166 0 0 1 -27.629-17.684zm75.389 17.687a88.844 88.844 0 0 0 18.7-21.3 86.048 86.048 0 0 1 8.946 3.615 72.148 72.148 0 0 1 -27.646 17.685z" fill="#6a7073"/><path d="m192 448h-32a8 8 0 0 1 0-16h32a8 8 0 0 1 0 16z" fill="#6a7073"/></svg>