<?xml version="1.0"?>
<svg xmlns="http://www.w3.org/2000/svg" xmlns:xlink="http://www.w3.org/1999/xlink" version="1.1" id="Capa_1" x="0px" y="0px" viewBox="0 0 512.002 512.002" style="enable-background:new 0 0 512.002 512.002;" xml:space="preserve" width="512px" height="512px" class=""><g><g>
	<g>
		<path d="M512,32.55c0.093-8.627-3.339-17.06-9.413-23.134C496.603,3.432,488.295,0,479.795,0c-8.677,0-16.712,3.398-22.624,9.569    l-22.199,23.172l-9.135,9.673l-95.783-29.18c-3.533-1.076-7.373-0.118-9.985,2.495l-20.327,20.328    c-2.174,2.174-3.228,5.227-2.855,8.28c0.372,3.052,2.127,5.764,4.76,7.353l73.011,44.061l-14.38,15.1    C321.297,80.839,273.2,64.408,223.797,64.408c-59.778,0-115.979,23.279-158.248,65.548c-0.536,0.536-1.055,1.083-1.584,1.624    c-0.049,0.045-0.102,0.084-0.149,0.131c-0.137,0.133-0.258,0.276-0.385,0.416C22.511,174.141,0,229.44,0,288.205    c0,58.774,22.518,114.079,63.448,156.096c0.122,0.132,0.236,0.269,0.367,0.397c0.046,0.044,0.096,0.081,0.142,0.125    c0.532,0.542,1.054,1.092,1.592,1.63c42.27,42.27,98.47,65.548,158.248,65.548c59.778,0,115.978-23.279,158.248-65.548    c0.538-0.539,1.061-1.089,1.593-1.632c0.046-0.043,0.095-0.08,0.14-0.124c0.127-0.124,0.239-0.258,0.358-0.387    c40.936-42.018,63.458-97.328,63.458-156.106c0-49.398-16.432-97.495-46.443-136.479l15.101-14.38l44.061,73.011    c1.589,2.633,4.3,4.388,7.353,4.76c3.052,0.372,6.104-0.681,8.28-2.856l20.327-20.328c2.607-2.607,3.568-6.439,2.5-9.968    l-29.007-95.838l32.668-31.296C508.511,49.006,511.909,41.094,512,32.55z M213.797,85.31v107.765    c-27.329-1.368-54.089-8.311-78.549-20.098c4.088-11.076,8.796-21.501,14.094-31.126    C167.256,109.306,189.843,89.613,213.797,85.31z M158.657,95.084c-9.757,10.066-18.78,22.487-26.836,37.122    c-5.333,9.689-10.104,20.114-14.299,31.132c-11.515-7.016-22.358-15.178-32.318-24.4    C106.101,119.521,131.06,104.417,158.657,95.084z M71.225,153.255c12.149,11.337,25.419,21.203,39.687,29.524    c-8.797,29.165-13.84,61.632-14.672,95.426H55.302c0.96-16.278,4.258-32.271,9.853-47.665c1.887-5.191-0.792-10.928-5.982-12.814    c-5.195-1.889-10.929,0.792-12.814,5.982c-6.395,17.591-10.104,35.88-11.084,54.497H20.249    C22.569,230.411,41.437,186.894,71.225,153.255z M20.249,298.205H96.24c0.832,33.794,5.875,66.259,14.672,95.424    c-14.268,8.322-27.538,18.188-39.688,29.525C41.437,389.516,22.569,345.999,20.249,298.205z M85.203,437.473    c9.96-9.223,20.803-17.386,32.319-24.401c4.194,11.018,8.966,21.443,14.299,31.133c8.056,14.634,17.079,27.055,26.836,37.122    C131.058,471.993,106.101,456.89,85.203,437.473z M213.797,491.101c-23.954-4.304-46.541-23.996-64.455-56.541    c-5.298-9.625-10.006-20.051-14.095-31.127c24.462-11.787,51.221-18.731,78.55-20.098V491.101z M213.797,363.313    c-26.501,1.169-52.323,6.974-76.893,17.326c-2.68,1.129-5.321,2.321-7.944,3.545c-7.568-26.337-11.934-55.535-12.718-85.979    h97.555V363.313z M213.798,278.205h-97.555c0.784-30.445,5.149-59.643,12.719-85.981c2.622,1.225,5.264,2.417,7.943,3.546    c24.569,10.352,50.392,16.158,76.893,17.326V278.205z M344.202,123.783l-22.201-1.597c-2.89-0.209-5.737,0.851-7.789,2.903    l-1.594,1.594c-7.186-12.188-15.117-22.742-23.715-31.577C308.615,101.752,327.293,111.397,344.202,123.783z M233.797,85.335    c23.734,4.377,46.503,24.171,64.163,56.006l-0.857,0.857c-2,1.999-3.046,4.737-2.919,7.526c0.019,0.398,0.061,0.798,0.127,1.196    c0.534,3.188,2.575,5.921,5.48,7.338l8.313,4.053c1.477,3.51,2.868,7.126,4.214,10.795c-24.523,11.846-51.147,18.64-78.521,19.972    V85.335z M233.797,213.097c29.497-1.306,58.219-8.378,84.764-20.807c7.569,26.47,11.973,55.852,12.774,85.915h-97.538V213.097z     M233.797,298.205h97.555c-0.784,30.444-5.149,59.643-12.718,85.98c-2.623-1.225-5.264-2.417-7.944-3.546    c-24.569-10.352-50.392-16.158-76.893-17.326V298.205z M233.797,491.101V383.335c27.329,1.368,54.09,8.311,78.549,20.098    c-4.088,11.076-8.796,21.502-14.094,31.127C280.338,467.105,257.751,486.797,233.797,491.101z M288.938,481.327    c9.757-10.067,18.78-22.488,26.836-37.122c5.333-9.689,10.104-20.114,14.299-31.132c11.515,7.016,22.358,15.178,32.318,24.4    C341.494,456.89,316.536,471.993,288.938,481.327z M376.37,423.155c-12.149-11.337-25.419-21.203-39.687-29.525    c8.797-29.165,13.84-61.631,14.672-95.425h75.991C425.026,346,406.158,389.516,376.37,423.155z M427.339,278.205h-75.984    c-0.822-33.815-5.819-66.153-14.68-95.429c0.705-0.412,1.405-0.834,2.107-1.254l14.963,30.689c1.416,2.905,4.149,4.947,7.337,5.48    c0.551,0.092,1.102,0.137,1.651,0.137c2.63,0,5.181-1.038,7.071-2.929l17.109-17.11c2.052-2.052,3.111-4.894,2.903-7.788    l-1.597-22.199C411.732,199.905,425.374,238.378,427.339,278.205z M488.597,40.388L451.5,75.929    c-2.719,2.604-3.744,6.514-2.653,10.118l29.049,95.979l-7.06,7.06l-43.897-72.74c-1.566-2.596-4.227-4.341-7.231-4.744    c-3.015-0.406-6.031,0.579-8.227,2.669l-40.723,38.781c-2.163,2.06-3.292,4.979-3.078,7.959l1.86,25.867l-3.963,3.963    l-13.049-26.762c-0.978-2.007-2.6-3.628-4.605-4.606l-26.762-13.047l3.963-3.963l25.868,1.86c2.96,0.215,5.898-0.915,7.958-3.078    l38.781-40.723c2.092-2.196,3.073-5.222,2.67-8.227c-0.403-3.005-2.148-5.665-4.744-7.231l-72.74-43.898l7.051-7.051    l95.971,29.237c3.631,1.108,7.578,0.061,10.185-2.7l35.49-37.247c2.104-2.196,5.01-3.406,8.183-3.406    c3.235,0,6.388,1.297,8.648,3.559c2.296,2.295,3.592,5.495,3.557,8.778C491.967,35.458,490.758,38.317,488.597,40.388z" data-original="#000000" class="active-path" data-old_color="#000000" fill="#FFFFFF"/>
	</g>
</g><g>
	<g>
		<path d="M73.978,190.159c-4.775-2.776-10.895-1.151-13.67,3.624l-0.287,0.5c-2.745,4.794-1.083,10.903,3.71,13.647    c1.566,0.897,3.274,1.323,4.958,1.323c3.47,0,6.842-1.808,8.689-5.034l0.225-0.39C80.376,199.053,78.754,192.933,73.978,190.159z" data-original="#000000" class="active-path" data-old_color="#000000" fill="#FFFFFF"/>
	</g>
</g></g> </svg>
