<?xml version="1.0"?>
<svg xmlns="http://www.w3.org/2000/svg" id="Capa_1" enable-background="new 0 0 512 512" height="512px" viewBox="0 0 512 512" width="512px"><g><g><path d="m360.191 223.57c-4.151 0-7.515 3.364-7.515 7.515v18.731c0 10.901-4.746 21.251-13.021 28.395-16.83 14.532-37.739 38.896-41.772 72.44-.265 2.209-2 3.813-4.125 3.813h-75.517c-2.125 0-3.859-1.604-4.125-3.813-1.13-9.396-3.701-18.706-7.643-27.671-1.671-3.799-6.104-5.524-9.904-3.854-3.799 1.671-5.524 6.105-3.854 9.904 3.346 7.611 5.526 15.488 6.48 23.415 1.091 9.073 8.301 16.059 17.138 16.948v51.145c0 8.397 5.728 15.463 13.476 17.546v66.402c0 4.15 3.364 7.515 7.515 7.515h37.353c4.151 0 7.515-3.365 7.515-7.515v-66.401c7.748-2.083 13.477-9.149 13.477-17.546v-51.145c8.838-.889 16.048-7.875 17.138-16.947 3.46-28.769 21.852-50.062 36.672-62.859 11.584-10.001 18.228-24.498 18.228-39.771v-18.731c-.002-4.151-3.366-7.516-7.516-7.516zm-79.553 153.698h-11.791c-4.151 0-7.515 3.365-7.515 7.515s3.364 7.515 7.515 7.515h11.791v8.184h-11.791c-4.151 0-7.515 3.365-7.515 7.515s3.364 7.515 7.515 7.515h11.791v5.026c0 1.741-1.417 3.158-3.158 3.158h-42.961c-1.741 0-3.158-1.416-3.158-3.158v-5.026h11.79c4.15 0 7.515-3.365 7.515-7.515s-3.364-7.515-7.515-7.515h-11.79v-8.184h11.79c4.15 0 7.515-3.364 7.515-7.515s-3.364-7.515-7.515-7.515h-11.79v-7.775h49.276v7.775zm-35.8 119.703v-58.246h22.323v58.246z" data-original="#000000" class="active-path" data-old_color="#000000" fill="#B9B5B5"/><path d="m390.18 159.052c0-13.067-10.631-23.697-23.698-23.697h-17.083v-75.958c0-13.702-11.147-24.849-24.848-24.849s-24.848 11.147-24.848 24.849v75.958h-22.025v-113.676c0-11.954-9.725-21.679-21.678-21.679-11.954 0-21.679 9.725-21.679 21.679v113.676h-22.024v-25.738c0-4.15-3.364-7.515-7.515-7.515-4.15 0-7.515 3.364-7.515 7.515v25.738h-19.638v-75.958c0-5.414 4.405-9.819 9.819-9.819s9.819 4.405 9.819 9.819v20.161c0 4.15 3.364 7.515 7.515 7.515 4.15 0 7.515-3.365 7.515-7.515v-20.161c0-13.702-11.147-24.849-24.848-24.849-13.702 0-24.849 11.147-24.849 24.849v75.958h-17.083c-13.067 0-23.697 10.631-23.697 23.697 0 12.656 9.974 23.027 22.474 23.666v67.098c0 15.273 6.644 29.769 18.227 39.77 5.647 4.877 10.804 10.136 15.329 15.633 1.486 1.805 3.638 2.739 5.806 2.739 1.681 0 3.372-.561 4.771-1.713 3.204-2.638 3.663-7.373 1.026-10.578-5.064-6.152-10.82-12.024-17.11-17.456-8.275-7.145-13.021-17.494-13.021-28.395v-67.067h193.352v18.277c0 4.15 3.364 7.515 7.515 7.515s7.515-3.365 7.515-7.515v-18.309c12.502-.638 22.476-11.009 22.476-23.665zm-75.448-99.655c0-5.414 4.405-9.819 9.819-9.819s9.819 4.405 9.819 9.819v75.958h-19.638zm-65.382-37.718c0-3.666 2.983-6.649 6.649-6.649s6.649 2.983 6.649 6.649v113.676h-13.298zm117.132 146.041h-220.965c-4.779 0-8.668-3.888-8.668-8.668 0-4.779 3.888-8.668 8.668-8.668h220.965c4.78 0 8.668 3.888 8.668 8.668 0 4.779-3.888 8.668-8.668 8.668z" data-original="#000000" class="active-path" data-old_color="#000000" fill="#B9B5B5"/></g></g> </svg>
