<?xml version="1.0"?>
<svg xmlns="http://www.w3.org/2000/svg" id="Layer_1" enable-background="new 0 0 512.006 512.006" height="512px" viewBox="0 0 512.006 512.006" width="512px" class=""><g><g><path d="m486.293 256.003 24.46-58.08c2.83-6.73.75-14.53-5.07-18.95l-50.19-38.13-7.95-62.53c-.92-7.23-6.62-12.93-13.85-13.85l-62.53-7.95-38.12-50.19c-4.42-5.81-12.21-7.9-18.95-5.07l-58.09 24.46-58.08-24.46c-6.74-2.83-14.53-.75-18.95 5.07l-38.13 50.19-62.53 7.95c-7.23.92-12.93 6.62-13.85 13.85l-7.95 62.53-50.19 38.12c-5.82 4.42-7.9 12.21-5.07 18.95l24.46 58.09-24.46 58.08c-2.83 6.73-.75 14.53 5.07 18.95l50.19 38.13 7.95 62.53c.92 7.23 6.62 12.93 13.85 13.85l62.53 7.95 38.12 50.19c3.1 4.08 7.86 6.32 12.75 6.32 4.585 0 2.008.515 64.29-25.71l58.08 24.46c6.74 2.83 14.53.75 18.95-5.07l38.13-50.19 62.53-7.95c7.23-.92 12.93-6.62 13.85-13.85l7.95-62.53 50.19-38.12c5.82-4.42 7.9-12.21 5.07-18.95zm-54.29 0c0 97.05-78.95 176-176 176s-176-78.95-176-176 78.95-176 176-176 176 78.95 176 176z" data-original="#000000" class="active-path" data-old_color="#000000" fill="#555555"/><path d="m256.003 112.003c-79.4 0-144 64.6-144 144s64.6 144 144 144 144-64.6 144-144-64.6-144-144-144zm-88 96c0-17.65 14.36-32 32-32s32 14.35 32 32-14.36 32-32 32-32-14.35-32-32zm44.63 137.82c-5.396 6.955-15.452 8.25-22.45 2.81-6.98-5.43-8.23-15.48-2.81-22.45l112-144c5.43-6.98 15.48-8.23 22.45-2.81 6.98 5.43 8.23 15.48 2.81 22.45zm99.37 6.18c-17.64 0-32-14.35-32-32s14.36-32 32-32 32 14.35 32 32-14.36 32-32 32z" data-original="#000000" class="active-path" data-old_color="#000000" fill="#555555"/></g></g> </svg>
