<?xml version="1.0"?>
<svg xmlns="http://www.w3.org/2000/svg" id="Layer_1" data-name="Layer 1" viewBox="0 0 512 512" width="512" height="512"><title>School bus</title><path d="M205.647,367H306.353c9.66,0,17.647-6.076,17.647-14.115V342H188v10.885C188,360.924,195.987,367,205.647,367Z"/><path d="M365.064,466H370.3A15.449,15.449,0,0,0,386,450.312V423.064a46.094,46.094,0,0,1-8.934.936H349v26.312A15.757,15.757,0,0,0,365.064,466Z"/><path d="M141.967,368.052a13.4,13.4,0,1,0-13.4-13.4A13.418,13.418,0,0,0,141.967,368.052Z"/><path d="M146.936,466A15.757,15.757,0,0,0,163,450.312V424H134.934a46.094,46.094,0,0,1-8.934-.936v27.248A15.449,15.449,0,0,0,141.7,466Z"/><rect x="321" y="44" width="23" height="6"/><rect x="42" y="155" width="23" height="54" rx="4"/><rect x="168" y="44" width="23" height="6"/><path d="M197,230.437c-22.075,0-40.4,15.563-43.525,37.563h87.05C237.4,246,219.075,230.437,197,230.437Z"/><rect x="447" y="155" width="23" height="54" rx="4"/><path d="M97,261.908V373.79A38.058,38.058,0,0,0,134.934,412H377.066A38.058,38.058,0,0,0,415,373.79V261.908A49.657,49.657,0,0,1,377.066,280H134.934A49.657,49.657,0,0,1,97,261.908Zm273.033,67.339a25.4,25.4,0,1,1-25.4,25.4A25.432,25.432,0,0,1,370.033,329.247ZM176,335.834A5.972,5.972,0,0,1,182.127,330H329.872A5.972,5.972,0,0,1,336,335.834v17.051C336,367.541,322.629,379,306.353,379H205.647C189.37,379,176,367.541,176,352.885Zm-8.629,18.815a25.4,25.4,0,1,1-25.4-25.4A25.432,25.432,0,0,1,167.371,354.649Z"/><path d="M370.033,368.052a13.4,13.4,0,1,0-13.4-13.4A13.418,13.418,0,0,0,370.033,368.052Z"/><path d="M55,149.466a6,6,0,0,0,6-6V126.25C61,120.066,67.045,115,74.284,115h20.2A8.423,8.423,0,0,0,97,114.58V229.409C97,250.447,113.9,268,134.934,268h6.447a55.989,55.989,0,0,1,111.238,0H377.066C398.1,268,415,250.447,415,229.409V114.62a8.707,8.707,0,0,0,2.4.38h20.316c7.239,0,13.283,5.066,13.283,11.25v17.216a6,6,0,0,0,12,0V126.25c0-12.8-11.427-23.25-25.283-23.25H417.4a9.1,9.1,0,0,0-2.4.451v-2.966a38.235,38.235,0,0,0-.33-5.794,5.941,5.941,0,0,1-.494-2.5c0-.085.036-.333.04-.417A38.329,38.329,0,0,0,377.066,62H134.934A38.358,38.358,0,0,0,97.757,91.776c0,.084.013.249.013.334a6.114,6.114,0,0,1-.44,2.54,38.771,38.771,0,0,0-.33,5.835v3.007A8.692,8.692,0,0,0,94.487,103h-20.2C60.428,103,49,113.45,49,126.25v17.216A6,6,0,0,0,55,149.466Z"/></svg>
