<?xml version="1.0"?>
<svg xmlns="http://www.w3.org/2000/svg" id="Capa_1" enable-background="new 0 0 512.01 512.01" height="512px" viewBox="0 0 512.01 512.01" width="512px" class=""><g><g><path d="m511.381 293.356c-.998-3.925-3.604-8.925-10.138-12.37-.034-6.731-1.604-22.018-13.869-34.716-14.023-14.519-36.952-20.709-68.152-18.397-71.505 5.291-149.74-53.317-168.242-71.518-.214-.24-.438-.464-.674-.67-1.085-1.096-1.931-2.028-2.504-2.757-6.711-8.529-20.675-26.276-39.258-28.416-9.213-1.063-18.121 1.793-26.483 8.482-20 15.999-20.664 16.25-28.799 19.325-1.611.609-3.474 1.313-5.748 2.223-15.191 6.074-38.202-5.229-64.803-31.831-7.762-7.762-17.173-8.86-25.177-2.936-14.66 10.851-22.65 44.854-25.239 73.059-2.932 31.939-.025 61.788 7.786 82.384-18.93 18.69-40.081 47.598-40.081 83.468 0 5.811 2.404 11.162 6.951 15.476 19.581 18.575 79.904 18.036 136.329 15.059 5.453-.288 9.761-.515 11.708-.515 10.116 0 18.075-6.935 25.772-13.642 5.07-4.418 9.961-8.667 15.282-11.14.16-.067.318-.135.471-.212 2.799-1.239 5.717-1.987 8.851-1.987 7.155 0 12.215 5.283 19.698 13.983 7.837 9.112 16.721 19.44 31.598 19.44 2.122 0 5.496.109 9.769.248 8.038.261 18.98.615 31.878.615 11.14 0 23.74-.264 37.184-1.082 4.134-.252 7.282-3.807 7.031-7.942-.252-4.134-3.785-7.28-7.942-7.031-28.311 1.723-52.947.925-67.665.448-4.408-.143-7.89-.255-10.254-.255-7.456 0-12.615-5.373-20.226-14.222-7.741-9-16.515-19.202-31.07-19.202-5.074 0-9.667 1.109-13.874 2.851-45.823 2.042-123.788 2.722-142.105-14.777-2.607-2.49-2.908-4.57-2.908-5.917 0-13.831 3.136-27.774 9.311-41.5 7.039-1.087 24.679-3.122 51.024-1.525 32.016 1.943 83.784 9.805 148.59 36.226 31.611 12.888 61.953 17.6 89.427 17.599 31.871 0 59.882-6.342 81.525-13.618 32.672-10.985 56.149-25.544 66.324-32.511 3.617 1.333 4.028 2.946 4.168 3.5.598 2.351.689 11.961-23.252 36.91-21.346 22.246-58.186 36.807-109.496 43.277-4.109.518-7.021 4.27-6.502 8.379.478 3.791 3.707 6.563 7.432 6.563.313 0 .629-.02.948-.06 54.806-6.912 94.656-22.985 118.442-47.773 21.534-22.444 30.102-38.648 26.962-50.993zm-401.878 71.221c11.254.732 23.612 1.097 37.271 1.097 7.064 0 14.476-.098 22.26-.293-5.175 4.469-10.03 8.326-14.046 8.326-2.343 0-6.602.225-12.499.536-16.232.857-43.403 2.29-69.245 1.199-39.295-1.66-51.934-8.332-55.971-12.161-2.016-1.913-2.274-3.46-2.274-4.594 0-20.648 8.477-38.896 19.144-53.696-1.767 7.942-2.668 15.922-2.668 23.892 0 6.25 2.61 12.046 7.547 16.763 10.848 10.361 33.902 16.554 70.481 18.931zm311.558-52.559c-24.096 8.047-48.485 12.329-72.491 12.728-29.908.487-59.35-5.072-87.507-16.551-77.331-31.528-137.026-38.022-173.104-38.022-15.467 0-26.599 1.195-32.907 2.124-6.589-15.656-9.718-39.484-8.656-65.432 5.402-.803 15.858-1.976 30.896-1.984 4.142-.002 7.498-3.362 7.496-7.504-.002-4.141-3.359-7.496-7.5-7.496h-.004c-13.285.008-23.314.883-29.793 1.699 3.321-32.473 11.958-54.558 18.968-59.747 1.23-.91 2.392-1.77 5.646 1.486 39.876 39.875 66.048 41.126 80.98 35.151 2.168-.867 3.944-1.538 5.48-2.119 9.925-3.752 11.724-4.73 32.866-21.644 5.196-4.157 10.233-5.891 15.395-5.293 11.389 1.312 21.909 13.633 27.767 20.995l-20.661 16.642c-3.226 2.598-3.735 7.319-1.136 10.545 1.481 1.84 3.654 2.796 5.846 2.796 1.651 0 3.313-.543 4.7-1.66l21.702-17.479c4.554 4.057 10.485 8.909 17.539 14.152l-11.288 9.092c-3.226 2.598-3.735 7.319-1.136 10.545 1.482 1.84 3.654 2.796 5.846 2.796 1.651 0 3.314-.543 4.7-1.66l14.603-11.762c6.738 4.55 14.134 9.211 22.056 13.762l-4.567 3.678c-3.226 2.598-3.735 7.319-1.136 10.545 1.481 1.84 3.654 2.796 5.846 2.796 1.651 0 3.313-.543 4.7-1.66l9.44-7.603c20.43 10.472 43.423 19.545 67.046 24.115-36.128 6.951-80.542 7.047-127.846-12.238-49.202-20.06-97-32.322-142.067-36.448-4.124-.381-7.775 2.66-8.152 6.785-.378 4.125 2.66 7.775 6.785 8.152 43.589 3.991 89.942 15.901 137.771 35.4 31.493 12.84 61.745 17.637 89.39 17.637 35.356 0 66.426-7.857 90.315-16.777 24.034-1.119 41.367 3.572 51.544 13.972 8.123 8.301 9.611 18.274 9.807 23.211-7.839 5.519-31.596 21.061-65.179 32.275z" data-original="#000000" class="active-path" data-old_color="#000000" fill="#FFFFFF"/></g></g> </svg>
