<?xml version="1.0"?>
<svg xmlns="http://www.w3.org/2000/svg" height="512px" viewBox="0 0 480 480" width="512px" class=""><g><path d="m464 64c0-35.347656-28.652344-64-64-64s-64 28.652344-64 64v80h-4.183594c-4.664062-6-8.820312-12.375-12.425781-19.0625-6.257813-19.914062-10.929687-40.289062-13.976563-60.9375h6.585938c4.417969 0 8-3.582031 8-8v-48c0-4.417969-3.582031-8-8-8h-96c-4.417969 0-8 3.582031-8 8v48c0 4.417969 3.582031 8 8 8h6.585938c-3.046876 20.652344-7.71875 41.03125-13.976563 60.945312-3.609375 6.683594-7.765625 13.058594-12.425781 19.054688h-68.183594v64h-88c-4.417969 0-8 3.582031-8 8v29.601562l-30.65625 45.957032c-.296875.519531-.5625 1.054687-.800781 1.601562-.265625.929688-.449219 1.878906-.542969 2.839844v176c0 4.417969 3.582031 8 8 8h472v-336h-16zm-112 0c0-26.507812 21.492188-48 48-48s48 21.492188 48 48v80h-96zm72 350.398438 33.054688 49.601562h-66.109376zm-8-16.796876-32 48v-285.601562h32zm-400-93.601562h144v97.601562c-4.539062 2.085938-8.472656 5.285157-11.441406 9.300782-3.199219 3.882812-4.503906 5.128906-7.199219 5.128906s-4-1.246094-7.199219-5.128906c-4.363281-6.578125-11.636718-10.640625-19.527344-10.902344-7.867187.265625-15.125 4.316406-19.480468 10.871094-3.199219 3.882812-4.496094 5.128906-7.199219 5.128906-2.707031 0-3.960937-1.246094-7.199219-5.128906-4.351562-6.550782-11.597656-10.601563-19.457031-10.871094-7.871094.261719-15.128906 4.316406-19.480469 10.878906-3.199218 3.875-4.496094 5.121094-7.199218 5.121094-2.570313 0-3.769532-1.03125-7.203126-5.121094-2.953124-4.027344-6.878906-7.238281-11.414062-9.335937zm176-38.113281 11.054688 22.113281h-22.109376zm96 38.113281c-19-.019531-35.375-13.386719-39.199219-32h7.199219c19 .019531 35.375 13.386719 39.199219 32zm8 16c39.765625 0 72 32.234375 72 72s-32.234375 72-72 72-72-32.234375-72-72c.042969-39.746094 32.253906-71.957031 72-72zm-72-304h16v16h16v-16h16v16h16v-16h16v32h-80zm-.609375 115.0625c6.953125-21.898438 12.113281-44.328125 15.425781-67.0625h50.398438c3.3125 22.734375 8.472656 45.160156 15.425781 67.054688 2.164063 4.507812 4.683594 8.835937 7.535156 12.945312h-96.351562c2.855469-4.105469 5.386719-8.433594 7.566406-12.9375zm-79.390625 28.9375h224v16h-72v16h72v16h-32v16h32v117.601562c-13.128906-18.757812-33.039062-31.667968-55.519531-36 1.597656-13.089843 8.535156-41.601562 39.519531-41.601562v-16c-21.824219-.71875-41.691406 12.507812-49.449219 32.921875-10.378906-15.5625-27.84375-24.910156-46.550781-24.921875h-16c-4.417969 0-8 3.582031-8 8 .03125 19.734375 10.449219 37.992188 27.414062 48.0625-14.207031 6.542969-26.425781 16.734375-35.414062 29.539062v-45.601562c-.105469-.929688-.289062-1.851562-.550781-2.753906-.074219-.175782-.242188-.726563-.289063-.796875l-23.160156-46.335938v-30.113281c0-4.417969-3.582031-8-8-8h-48zm-96 64h136v16h-136zm-3.71875 32h134.773438l-16 32h-140.109376zm-28.28125 208v-41.894531c4.285156 6.074219 11.199219 9.746093 18.632812 9.894531 7.867188-.265625 15.121094-4.316406 19.480469-10.871094 3.199219-3.882812 4.488281-5.128906 7.199219-5.128906s3.960938 1.246094 7.199219 5.121094c4.351562 6.566406 11.613281 10.621094 19.488281 10.878906 7.871094-.265625 15.128906-4.316406 19.488281-10.871094 3.199219-3.882812 4.488281-5.128906 7.199219-5.128906s4 1.246094 7.199219 5.128906c4.359375 6.546875 11.605469 10.597656 19.464843 10.871094 7.433594-.148438 14.351563-3.8125 18.648438-9.878906v41.878906zm160 0v-160h32v160zm48 0v-21.558594c5.902344 8.378906 13.207031 15.671875 21.601562 21.558594zm122.441406 0c8.375-5.890625 15.667969-13.183594 21.558594-21.558594v21.558594zm117.558594-18.398438-32-48v-237.601562h32zm0 0" data-original="#000000" class="active-path" data-old_color="#000000" fill="#FFFFFF"/><path d="m373.46875 80.414062 48-16.015624 5.0625 15.171874-48 16.015626zm0 0" data-original="#000000" class="active-path" data-old_color="#000000" fill="#FFFFFF"/><path d="m373.476562 120.414062 47.996094-16.015624 5.0625 15.167968-48 16.019532zm0 0" data-original="#000000" class="active-path" data-old_color="#000000" fill="#FFFFFF"/><path d="m32 344c0 22.398438 24.601562 40 56 40s56-17.601562 56-40-24.601562-40-56-40-56 17.601562-56 40zm56-24c21.679688 0 40 10.992188 40 24s-18.320312 24-40 24-40-10.992188-40-24 18.320312-24 40-24zm0 0" data-original="#000000" class="active-path" data-old_color="#000000" fill="#FFFFFF"/><path d="m240 392.449219c1.0625 19.199219 15.816406 55.550781 64 55.550781v-16c-44.128906 0-47.753906-36.335938-48-40.480469zm0 0" data-original="#000000" class="active-path" data-old_color="#000000" fill="#FFFFFF"/><path d="m248 360h16v16h-16zm0 0" data-original="#000000" class="active-path" data-old_color="#000000" fill="#FFFFFF"/><path d="m272 336h16v16h-16zm0 0" data-original="#000000" class="active-path" data-old_color="#000000" fill="#FFFFFF"/><path d="m240 192h16v16h-16zm0 0" data-original="#000000" class="active-path" data-old_color="#000000" fill="#FFFFFF"/></g> </svg>
