<?xml version="1.0"?>
<svg xmlns="http://www.w3.org/2000/svg" xmlns:xlink="http://www.w3.org/1999/xlink" version="1.1" id="Capa_1" x="0px" y="0px" viewBox="0 0 512 512" style="enable-background:new 0 0 512 512;" xml:space="preserve" width="512px" height="512px" class=""><g><g>
	<g>
		<path d="M321.759,127.345V97.211c0-22.583-18.373-40.956-40.958-40.956h-49.598c-22.583,0-40.957,18.373-40.957,40.956v30.134    h-47.326v328.401h226.164V127.345H321.759z M291.465,127.344h-70.921V97.21h-0.001c0-5.878,4.783-10.661,10.662-10.661h49.598    c5.878,0,10.662,4.783,10.662,10.661V127.344z" data-original="#000000" class="active-path" data-old_color="#000000" fill="#666666"/>
	</g>
</g><g>
	<g>
		<path d="M441.087,127.345H399.38v328.401h41.707c39.101,0,70.913-31.811,70.913-70.913V198.257    C512,159.156,480.189,127.345,441.087,127.345z" data-original="#000000" class="active-path" data-old_color="#000000" fill="#666666"/>
	</g>
</g><g>
	<g>
		<path d="M112.626,127.345H70.913C31.811,127.345,0,159.156,0,198.257v186.576c0,39.101,31.811,70.913,70.913,70.913h41.714    L112.626,127.345L112.626,127.345z" data-original="#000000" class="active-path" data-old_color="#000000" fill="#666666"/>
	</g>
</g></g> </svg>
