<?xml version="1.0"?>
<svg xmlns="http://www.w3.org/2000/svg" xmlns:xlink="http://www.w3.org/1999/xlink" version="1.1" id="Capa_1" x="0px" y="0px" viewBox="0 0 512 512" style="enable-background:new 0 0 512 512;" xml:space="preserve" width="512px" height="512px"><g><g>
	<g>
		<path d="M331,422v30c0,16.538-13.462,30-30,30c-16.538,0-30-13.462-30-30V312.83c-4.98-0.595-9.904-1.459-15-1.459    s-10.02,0.864-15,1.459V452c0,33.091,26.909,60,60,60s60-26.909,60-60v-30H331z" data-original="#000000" class="active-path" data-old_color="#000000" fill="#FFFFFF"/>
	</g>
</g><g>
	<g>
		<path d="M271,31.76V0h-30v31.76C107.384,39.591,0,150.453,0,286v28.052l34.38-22.954c15.015-10.005,34.457-12.393,51.522-6.533    c17.095,5.859,30.161,19.043,35.874,36.182l7.661,23.027l17.168-17.168c60.322-60.322,158.467-60.322,218.789,0l14.692,14.692    l11.382-22.676c8.496-17.007,24.023-29.092,42.583-33.179c18.604-4.058,38.749,0.381,53.573,12.275L512,317.216V286    C512,150.453,404.616,39.591,271,31.76z M301,181h-30v30h-30v-30h-30v-30h30v-30h30v30h30V181z" data-original="#000000" class="active-path" data-old_color="#000000" fill="#FFFFFF"/>
	</g>
</g></g> </svg>
