<svg id="Layer_1" height="512" viewBox="0 0 512 512" width="512" xmlns="http://www.w3.org/2000/svg" data-name="Layer 1"><path d="m318 187v-92.731c-15-2.906-25.432-16.269-27.271-35.269h-69.422c-1.839 19-12.307 32.379-27.307 35.273v92.727h27.685c-1.357-3-2.077-7.715-2.077-11.869a36.393 36.393 0 0 1 72.784 0c0 4.151-.718 8.869-2.074 11.869z"/><path d="m256 148.845a26.332 26.332 0 0 0 -26.392 26.286c0 4.239 1.02 8.869 2.939 11.869h46.908c1.919-3 2.937-7.685 2.937-11.921a26.288 26.288 0 0 0 -26.392-26.234z"/><path d="m352 99.672v87.328h24v-95.831z"/><path d="m342 187v-160h-172v160h14v-97.168a4.938 4.938 0 0 1 4.595-5.089c13.784-.631 22.7-12.713 22.991-30.636a5.164 5.164 0 0 1 5-5.107h78.864a5.082 5.082 0 0 1 4.9 5.108c.288 17.907 9.287 30.084 23.075 30.729a4.837 4.837 0 0 1 4.575 4.995v97.168z"/><path d="m160 167.833-54.26 19.167h54.26z"/><path d="m430.591 197h-349.182a25.743 25.743 0 0 0 -25.409 25.42v237.289a25.631 25.631 0 0 0 25.409 25.291h349.182a25.631 25.631 0 0 0 25.409-25.291v-54.709h-74.463a44.529 44.529 0 0 1 -44.537-44.85v-38.171a44.64 44.64 0 0 1 44.537-44.979h74.463v-54.58a25.743 25.743 0 0 0 -25.409-25.42z"/><path d="m347 321.979v38.171a34.519 34.519 0 0 0 34.537 34.85h74.463v-108h-74.463a34.629 34.629 0 0 0 -34.537 34.979zm56 0a5 5 0 0 1 10 0v38.171a5 5 0 0 1 -10 0zm-20 38.171a5 5 0 0 1 -10 0v-38.171a5 5 0 0 1 10 0z"/></svg>