<svg id="Solid" height="512" viewBox="0 0 512 512" width="512" xmlns="http://www.w3.org/2000/svg"><path d="m32 448h448v16h-448z"/><path d="m392.454 272h-28.454l-16.8 22.4 19.049 14.287z"/><path d="m412.117 272-37.607 52.65a8 8 0 0 1 -11.31 1.75l-27.2-20.4v94h104a8 8 0 0 1 8 8 39.788 39.788 0 0 1 -8.022 24h24.022v-120a40.045 40.045 0 0 0 -40-40z"/><path d="m344 248h-8v34.666l16-21.333v-13.788a72.383 72.383 0 0 1 -8 .455z"/><path d="m400 176v-40h-128v40a55.319 55.319 0 0 0 10.048 32h13.952a40.051 40.051 0 0 1 36.65 24h11.35a56.063 56.063 0 0 0 56-56zm-104 0a8 8 0 1 1 8-8 8 8 0 0 1 -8 8zm80 0a8 8 0 1 1 8-8 8 8 0 0 1 -8 8z"/><path d="m184 320a24 24 0 0 1 8 46.624v8.7a47.991 47.991 0 0 0 0-94.642v8.7a24.039 24.039 0 0 1 16 22.618 8 8 0 0 1 -16 0 8 8 0 1 0 -8 8z"/><path d="m176 375.321v-8.7a24.039 24.039 0 0 1 -16-22.621 8 8 0 0 1 16 0 8 8 0 1 0 8-8 24 24 0 0 1 -8-46.624v-8.7a47.991 47.991 0 0 0 0 94.642z"/><path d="m263.513 208a72.25 72.25 0 0 1 -7.513-32v-48a8 8 0 0 1 8-8h16v-24a8 8 0 0 1 16 0v24h16v-24a8 8 0 0 1 16 0v24h16v-24a8 8 0 0 1 16 0v24h16v-24a8 8 0 0 1 16 0v24h16a8 8 0 0 1 8 8v48a72.115 72.115 0 0 1 -48 67.872v12.128h24c30.879 0 56-26.111 56-58.207v-57.931c0-59.475-46.654-107.862-104-107.862h-16c-57.346 0-104 48.387-104 107.862v57.931a60.927 60.927 0 0 0 .859 10.207z"/><path d="m430.629 416h-95.429a39.835 39.835 0 0 1 -7.217 16h80.017a24.042 24.042 0 0 0 22.629-16z"/><path d="m72 432h224a24.027 24.027 0 0 0 24-24v-160a24.027 24.027 0 0 0 -24-24h-224a24.027 24.027 0 0 0 -24 24v160a24.027 24.027 0 0 0 24 24zm112-168a64 64 0 1 1 -64 64 64.072 64.072 0 0 1 64-64z"/></svg>