<?xml version="1.0"?>
<svg xmlns="http://www.w3.org/2000/svg" id="Outline" viewBox="0 0 512 512" width="512" height="512"><circle cx="296" cy="168" r="8"/><circle cx="376" cy="168" r="8"/><path d="M488,432h-8V312a56.1,56.1,0,0,0-44.809-54.875A74.911,74.911,0,0,0,464,197.793V139.862C464,71.564,410.168,16,344,16H328c-66.168,0-120,55.564-120,123.862v57.931A77.143,77.143,0,0,0,208.678,208H72a40.045,40.045,0,0,0-40,40V408a39.788,39.788,0,0,0,8.022,24H24a8,8,0,0,0-8,8v32a8,8,0,0,0,8,8H488a8,8,0,0,0,8-8V440A8,8,0,0,0,488,432ZM464,312V432H439.978A39.788,39.788,0,0,0,448,408a8,8,0,0,0-8-8H336V306l27.2,20.4a8,8,0,0,0,11.31-1.75L412.117,272H424A40.045,40.045,0,0,1,464,312ZM282.048,208A55.319,55.319,0,0,1,272,176V136H400v40a56.063,56.063,0,0,1-56,56H332.65A40.051,40.051,0,0,0,296,208Zm110.406,64-26.2,36.687L347.2,294.4,364,272ZM352,261.333l-16,21.333V248h8a72.383,72.383,0,0,0,8-.455ZM335.2,416h95.434A24.042,24.042,0,0,1,408,432H327.978A39.835,39.835,0,0,0,335.2,416ZM224,197.793V139.862C224,80.387,270.654,32,328,32h16c57.346,0,104,48.387,104,107.862v57.931c0,32.1-25.121,58.207-56,58.207H368V243.872A72.115,72.115,0,0,0,416,176V128a8,8,0,0,0-8-8H392V96a8,8,0,0,0-16,0v24H360V96a8,8,0,0,0-16,0v24H328V96a8,8,0,0,0-16,0v24H296V96a8,8,0,0,0-16,0v24H264a8,8,0,0,0-8,8v48a72.25,72.25,0,0,0,7.513,32H224.859A60.927,60.927,0,0,1,224,197.793ZM48,408V248a24.027,24.027,0,0,1,24-24H296a24.027,24.027,0,0,1,24,24V408a24.027,24.027,0,0,1-24,24H72A24.027,24.027,0,0,1,48,408Zm432,56H32V448H480Z"/><path d="M184,264a64,64,0,1,0,64,64A64.072,64.072,0,0,0,184,264Zm-48,64a48.07,48.07,0,0,1,40-47.321v8.7A24,24,0,0,0,184,336a8,8,0,1,1-8,8,8,8,0,0,0-16,0,24.039,24.039,0,0,0,16,22.624v8.7A48.07,48.07,0,0,1,136,328Zm56,47.321v-8.7A24,24,0,0,0,184,320a8,8,0,1,1,8-8,8,8,0,0,0,16,0,24.039,24.039,0,0,0-16-22.624v-8.7a47.991,47.991,0,0,1,0,94.642Z"/></svg>
