<svg xmlns="http://www.w3.org/2000/svg" version="1.1" xmlns:xlink="http://www.w3.org/1999/xlink" width="512" height="512" x="0" y="0" viewBox="0 0 512 512" style="enable-background:new 0 0 512 512" xml:space="preserve"><rect width="512" height="512" rx="102.4" ry="102.4" fill="#bac8d3" shape="rounded"></rect><g transform="matrix(0.58,0,0,0.58,107.51988784790038,117.52011175155639)"><linearGradient id="a" x1="256" x2="256" y1="504.242" y2="7.758" gradientUnits="userSpaceOnUse"><stop offset="0" stop-color="#9345ff"></stop><stop offset="0" stop-color="#8e4aff"></stop><stop offset="1" stop-color="#00c1ff"></stop></linearGradient><path fill="url(#a)" fill-rule="evenodd" d="M157.176 288.691v-79.606c0-15.539 12.632-28.191 28.205-28.191s28.157 12.652 28.157 28.191v60.239a26.294 26.294 0 0 1 10.462-2.16c8.968 0 16.875 4.469 21.696 11.297 4.098-2.84 9.112-4.498 14.512-4.498 8.582 0 16.248 4.262 20.925 10.771a24.787 24.787 0 0 1 11.048-4.073c.117-1.076.178-2.169.178-3.275V130.968c0-16.713-13.674-30.387-30.387-30.387H108.775c-16.713 0-30.387 13.674-30.387 30.387v146.418c0 16.713 13.674 30.387 30.387 30.387h4.372c3.444-13.087 15.373-22.759 29.517-22.759 5.255 0 10.173 1.34 14.512 3.679zm-17.237-51.741a7.968 7.968 0 0 1-10.437-4.25c-3.64-8.623-5.273-18.008-4.693-27.383a60.492 60.492 0 0 1 7.717-26.031c.177-.371.383-.726.613-1.062 8.396-14.226 21.719-23.785 36.537-27.756 14.798-3.965 31.101-2.35 45.489 5.761.433.207.844.452 1.229.73a60.444 60.444 0 0 1 26.492 32.818c4.592 13.693 4.302 28.965-1.635 42.955a7.981 7.981 0 1 1-14.688-6.25c4.371-10.3 4.582-21.55 1.197-31.643-3.303-9.849-10.023-18.589-19.633-24.261a7.366 7.366 0 0 1-.408-.221c-10.678-6.165-22.859-7.415-33.919-4.451-11.051 2.961-20.973 10.136-27.145 20.823l-.004.007c-3.57 6.183-5.493 12.859-5.905 19.518a45 45 0 0 0 3.443 20.258 7.968 7.968 0 0 1-4.25 10.437zm174.923-95.289a8.016 8.016 0 0 1-6.798-12.218c6.316-10.202 8.678-22.54 6.991-36.691-.531-4.392 2.603-8.37 6.991-8.891s8.389 2.599 8.92 6.991c2.121 17.839-1.013 33.658-9.305 47.019-1.495 2.44-4.098 3.79-6.798 3.79zm141.267-11.109c10.8-26.32 9.161-50.813-4.58-67.172-10.27-12.232-25.65-17.859-40.21-14.676-16.248 3.539-28.35 17.126-34.184 38.277-1.157 4.262-5.593 6.76-9.835 5.588-4.243-1.167-6.75-5.569-5.593-9.826 7.377-26.773 24.203-44.883 46.189-49.685 20.395-4.436 41.801 3.23 55.88 20.042 17.695 21.07 20.298 51.522 7.136 83.531-1.253 3.091-4.243 4.961-7.377 4.961a7.851 7.851 0 0 1-3.038-.603c-4.098-1.678-6.027-6.35-4.387-10.438zm-125.211 34.97a8.076 8.076 0 0 1-4.822 1.591 8.062 8.062 0 0 1-6.412-3.211c-2.604-3.529-1.88-8.553 1.639-11.19 22.178-16.61 20.973-35.919 19.527-58.272-1.639-26.098-3.52-55.678 36.305-77.658 3.857-2.131 8.727-.728 10.848 3.139 2.122 3.871.724 8.741-3.134 10.872-30.954 17.077-29.652 37.178-28.061 62.63 1.495 23.581 3.23 50.307-25.891 72.099zM398.272 17.24a7.961 7.961 0 0 1 6.991-8.867 89.974 89.974 0 0 1 12.005-.603 8.036 8.036 0 0 1 7.907 8.129c-.096 4.373-3.664 7.873-8.003 7.873h-.145a73.694 73.694 0 0 0-9.884.487 7.245 7.245 0 0 1-.964.053c-3.954 0-7.425-3.004-7.907-7.073zm38.137-2.522c1.205-4.248 5.641-6.716 9.884-5.506 30.375 8.606 53.951 35.919 61.521 71.27.916 4.32-1.832 8.568-6.123 9.498a8.417 8.417 0 0 1-1.688.178c-3.712 0-7.039-2.565-7.811-6.316-6.365-29.55-25.602-52.25-50.239-59.241-4.243-1.21-6.75-5.631-5.544-9.884zm61.762 131.783c-4.918 12.709-15.38 26.552-31.918 42.298a7.91 7.91 0 0 1-5.497 2.213c-2.121 0-4.242-.829-5.785-2.483-3.086-3.201-2.941-8.269.241-11.311 14.802-14.098 24.01-26.045 28.061-36.527 1.591-4.113 6.268-6.152 10.366-4.552 4.098 1.61 6.171 6.253 4.532 10.361zm-106.553 7.3c-3.52-2.661-4.243-7.671-1.543-11.2 10.028-13.37 16.923-27.771 20.491-42.799 1.012-4.301 5.303-6.962 9.643-5.94 4.291 1.022 6.943 5.328 5.93 9.628-4.098 17.193-11.909 33.581-23.287 48.72a8.059 8.059 0 0 1-6.412 3.192 8.02 8.02 0 0 1-4.822-1.601zm117.353-46.059c-.338 5.039-1.061 10.101-2.073 15.029-.771 3.78-4.098 6.379-7.811 6.379a7.848 7.848 0 0 1-1.639-.169c-4.339-.887-7.087-5.12-6.22-9.45.916-4.238 1.495-8.587 1.832-12.941.289-4.407 4.146-7.709 8.534-7.401 4.387.313 7.714 4.141 7.377 8.553zm-51.541 57.24c-8.678 14.701-24.251 26.677-32.737 32.511a8.075 8.075 0 0 1-4.532 1.408 7.978 7.978 0 0 1-6.605-3.481 7.971 7.971 0 0 1 2.073-11.118c5.93-4.098 20.635-14.971 28.012-27.463 2.266-3.794 7.184-5.058 10.993-2.806 3.761 2.247 5.063 7.15 2.796 10.949zm-14.271-28.118c-10.848 21.937-41.078 53.696-65.957 69.346-1.302.844-2.796 1.229-4.243 1.229a8.049 8.049 0 0 1-6.798-3.737c-2.314-3.741-1.205-8.678 2.507-11.031 22.419-14.103 50.528-43.513 60.171-62.929 5.786-11.663 10.848-34.941 4.87-46.551-1.977-3.828-5.014-5.949-9.546-6.663-6.412-.988-13.211 2.305-17.791 8.611-4.966 6.871-9.113 17.863-13.934 30.601-8.293 22.01-18.659 49.4-39.584 70.402a8.02 8.02 0 0 1-11.33.01 7.98 7.98 0 0 1 0-11.311c18.514-18.562 27.771-43.099 35.968-64.761 5.207-13.809 9.691-25.727 15.959-34.338 8.1-11.191 20.829-16.952 33.171-15.019 9.595 1.495 16.971 6.726 21.262 15.115 9.546 18.384 2.169 47.182-4.725 61.025zm-75.416 90.575V323.5c0 19.739-9.98 37.892-26.759 48.561a8 8 0 0 1-11.041-2.449c-2.363-3.732-1.302-8.678 2.458-11.051 12.102-7.709 19.334-20.819 19.334-35.061v-96.061c0-4.417 3.616-7.999 8.004-7.999a7.991 7.991 0 0 1 8.003 7.999zM102.664 373.021c0 4.421-3.616 7.999-8.004 7.999H60.525c-31.725 0-57.52-25.799-57.52-57.52V84.851c0-31.72 25.795-57.519 57.52-57.519h249.7c4.436 0 8.004 3.582 8.004 7.999s-3.568 7.999-8.004 7.999H60.524c-22.902 0-41.512 18.625-41.512 41.522v238.65c0 22.892 18.611 41.522 41.512 41.522h34.135c4.387 0 8.004 3.582 8.004 7.999zm201.565-67.368v98.94c0 12.751-5.105 33.822-13.794 49.169H172.739c-2.519-9.439-7.667-17.726-15.321-24.7l-17.405-15.771c-7.907-7.15-11.861-16.166-11.861-26.807v-70.942c0-8.008 6.509-14.527 14.512-14.527s14.512 6.518 14.512 14.527v38.672c0 4.421 3.568 7.999 8.003 7.999s8.004-3.577 8.004-7.999V209.085c0-6.721 5.448-12.193 12.198-12.193 6.702 0 12.198 5.472 12.198 12.193v84.548c0 4.412 3.568 7.999 7.955 7.999a7.995 7.995 0 0 0 8.004-7.999c0-5.771 4.725-10.472 10.462-10.472 5.786 0 10.462 4.701 10.462 10.472v6.051c0 4.416 3.616 7.999 8.003 7.999a7.991 7.991 0 0 0 8.003-7.999c0-5.361 4.388-9.72 9.739-9.72s9.691 4.359 9.691 9.72v5.969c0 4.421 3.616 7.998 8.004 7.998a7.988 7.988 0 0 0 8.003-7.998c0-5.048 4.098-9.161 9.161-9.161s9.161 4.113 9.161 9.161zm-3.471 172.111v18.479c0 4.406-3.594 8-8 8H174.626c-4.406 0-8-3.594-8-8v-18.479c0-4.406 3.594-8 8-8h118.132c4.406 0 8 3.594 8 8z" opacity="1" data-original="url(#a)"></path></g></svg>