<svg xmlns="http://www.w3.org/2000/svg" version="1.1" xmlns:xlink="http://www.w3.org/1999/xlink" width="512" height="512" x="0" y="0" viewBox="0 0 512 512" style="enable-background:new 0 0 512 512" xml:space="preserve" class=""><rect width="512" height="512" rx="102.4" ry="102.4" fill="#bac8d3" shape="rounded"></rect><g transform="matrix(0.58,0,0,0.58,117.52000000000001,97.52707519531248)"><linearGradient id="a" x1="256.001" x2="256.002" y1="491.041" y2="20.956" gradientUnits="userSpaceOnUse"><stop offset="0" stop-color="#6c54a3"></stop><stop offset="1" stop-color="#00b1d2"></stop></linearGradient><path fill="url(#a)" fill-rule="evenodd" d="M205.173 330.19H65.082a16 16 0 0 0-16 16v36.01a15.994 15.994 0 0 0 16 16h140.091a15.992 15.992 0 0 0 16-16v-36.015a16 16 0 0 0-16-16zm229.288 5.537a28.472 28.472 0 1 0 28.468 28.473 28.511 28.511 0 0 0-28.468-28.468zm-72.888 0a28.472 28.472 0 1 0 28.468 28.473 28.5 28.5 0 0 0-28.468-28.468zm-72.9 0a28.472 28.472 0 1 0 28.479 28.473 28.5 28.5 0 0 0-28.475-28.468zM480 409.18a13.049 13.049 0 0 1-13.038 13.03H45.029A13.048 13.048 0 0 1 32 409.18v-89.962a13.054 13.054 0 0 1 13.03-13.038h421.935A13.056 13.056 0 0 1 480 319.218zm-13.038-135A45.086 45.086 0 0 1 512 319.218v89.962a45.083 45.083 0 0 1-42.9 44.977v11.359a25.553 25.553 0 0 1-25.517 25.525h-50.835a25.547 25.547 0 0 1-25.51-25.525v-11.308H144.772v11.308a25.554 25.554 0 0 1-25.518 25.525H68.418A25.553 25.553 0 0 1 42.9 465.516v-11.359A45.088 45.088 0 0 1 0 409.18v-89.962a45.08 45.08 0 0 1 45.027-45.035h.344v-26.3a15.99 15.99 0 0 1 15.994-16H98.2V106.017a44.021 44.021 0 1 1 32 .014v125.86h36.834a15.991 15.991 0 0 1 15.995 16v26.3z" opacity="1" data-original="url(#a)"></path></g></svg>