<svg xmlns="http://www.w3.org/2000/svg" version="1.1" xmlns:xlink="http://www.w3.org/1999/xlink" width="512" height="512" x="0" y="0" viewBox="0 0 64 64" style="enable-background:new 0 0 512 512" xml:space="preserve"><rect width="64" height="64" rx="12.8" ry="12.8" fill="#bac8d3" shape="rounded"></rect><g transform="matrix(0.7,0,0,0.7,9.600000000000001,9.600075387954714)"><linearGradient id="a" x1="4" x2="60" y1="32" y2="32" gradientUnits="userSpaceOnUse"><stop offset="0" stop-color="#ffde00"></stop><stop offset="1" stop-color="#fd5900"></stop></linearGradient><path fill="url(#a)" d="M39.76 48.339a.982.982 0 0 0-.98-.98H25.22a.982.982 0 0 0-.98.98v4.94h15.52zm-12.27.98h9.02a1 1 0 0 1 0 2h-9.02a1 1 0 0 1 0-2zm-2.07-7.79a.246.246 0 0 1-.1.21.278.278 0 0 1-.22.07c-1.48-.25-2.72-.46-2.87-.5-.98-.21-2-.48-3.21-.84a.978.978 0 0 1-.69-.94c.046-.455-.163-1.26.27-1.24 1.922.553 3.645 1.028 5.24 1.33a1.966 1.966 0 0 1 1.58 1.91zm19.56-1.06a36.982 36.982 0 0 1-6.08 1.34c-.198-.005-.297-.072-.32-.28a1.956 1.956 0 0 1 1.58-1.91 52.47 52.47 0 0 0 5.16-1.32c.53-.111.306.715.35 1.23a.99.99 0 0 1-.69.94zm-19.52 14.81v1.71a1.246 1.246 0 0 1-1.24 1.24h-4.89a1.246 1.246 0 0 1-1.24-1.24v-1.72c.161.013 7.37.01 7.37.01zm20.45-.01v1.72a1.246 1.246 0 0 1-1.24 1.24h-4.89a1.24 1.24 0 0 1-1.24-1.24v-1.71s7.209.003 7.37-.01zM58 21.479h-.06v-1.93a2.99 2.99 0 0 0-2.99-2.98h-3.27v-3.32a6.12 6.12 0 0 0-4.87-5.97 73.502 73.502 0 0 0-29.62 0 6.12 6.12 0 0 0-4.87 5.97v3.32H9.05a2.99 2.99 0 0 0-2.99 2.98v1.93H6a2.006 2.006 0 0 0-2 2v4.66a2.006 2.006 0 0 0 2 2h2.13a2.006 2.006 0 0 0 2-2v-4.66a2.009 2.009 0 0 0-2.07-2v-1.93a.984.984 0 0 1 .99-.98h3.27v28.57a6.148 6.148 0 0 0 6.14 6.14h3.78v-4.94a2.981 2.981 0 0 1 2.98-2.98h13.56a2.987 2.987 0 0 1 2.98 2.98c.017.09-.012 4.967 0 4.94h3.78a6.154 6.154 0 0 0 6.14-6.14v-28.57h3.27a.984.984 0 0 1 .99.98v1.93a2.009 2.009 0 0 0-2.07 2v4.66a2.006 2.006 0 0 0 2 2H58a2.006 2.006 0 0 0 2-2v-4.66a2.006 2.006 0 0 0-2-2zm-15.49-.84a1.008 1.008 0 0 0-1.42 0s-14.98 15.03-15.03 15.15c-1.1-.15-2.2-.36-3.29-.61l2.65-2.65a1 1 0 0 0-1.41-1.42s-3.41 3.42-3.45 3.5c-.862-.201-2.183-.698-3.04-.95a1.909 1.909 0 0 1-1.34-1.82v-15.69a1.917 1.917 0 0 1 1.53-1.88 72.023 72.023 0 0 1 23.92-.78l-14.55 14.55a1 1 0 1 0 1.41 1.42l15.3-15.3a1.061 1.061 0 0 0 .21-.31c1.024.244 2.21.185 3.09.8l-2.92 2.92a.997.997 0 0 0 1.41 1.41l2.23-2.24v15.1a1.9 1.9 0 0 1-1.33 1.82 42.648 42.648 0 0 1-17.99 2.41l14.02-14.02a.996.996 0 0 0 0-1.41zm-2.25-11.03a.998.998 0 0 1-1.1.88 68.54 68.54 0 0 0-14.32 0 .996.996 0 0 1-.21-1.98 68.518 68.518 0 0 1 14.74 0 .994.994 0 0 1 .89 1.1zm-13.65 33.66a2.265 2.265 0 0 1-1.84.51 41.815 41.815 0 0 1-6.32-1.39 2.994 2.994 0 0 1-2.12-2.86 2.963 2.963 0 0 1 .92-2.8 2.253 2.253 0 0 1 2.01-.35 50.929 50.929 0 0 0 4.97 1.28c2.396.367 4.378 3.744 2.38 5.61zm12.61.51c-4.267.15-2.801-5.673.55-6.12 1.51-.3 3.13-.72 4.97-1.28a2.29 2.29 0 0 1 2.93 2.18v.97a2.994 2.994 0 0 1-2.12 2.86 41.55 41.55 0 0 1-6.33 1.39z" opacity="1" data-original="url(#a)"></path></g></svg>