<svg xmlns="http://www.w3.org/2000/svg" version="1.1" xmlns:xlink="http://www.w3.org/1999/xlink" width="512" height="512" x="0" y="0" viewBox="0 0 512 512" style="enable-background:new 0 0 512 512" xml:space="preserve"><rect width="512" height="512" rx="102.4" ry="102.4" fill="#bac8d3" shape="rounded"></rect><g transform="matrix(0.65,0,0,0.65,74.59749593734742,89.60424308776857)"><linearGradient id="a" x1="256" x2="256" y1="67.888" y2="444.112" gradientUnits="userSpaceOnUse"><stop offset=".104" stop-color="#f26922"></stop><stop offset=".886" stop-color="#febc20"></stop></linearGradient><path fill="url(#a)" d="M322.6 270.8c-5.1-5.1-12.2-8.3-19.9-8.3s-14.8 3.1-19.9 8.3c-5.1 5.1-8.3 12.2-8.3 19.9 0 7.8 3.1 14.8 8.3 19.9 5.1 5.1 12.1 8.3 19.9 8.3s14.8-3.2 19.9-8.3 8.3-12.1 8.3-19.9c0-7.7-3.2-14.8-8.3-19.9zm15.9 77.7c-9.2-9.2-21.8-14.8-35.8-14.8s-26.6 5.7-35.8 14.8c-7.6 7.6-12.7 17.5-14.3 28.6h100.3c-1.7-11.1-6.9-21-14.4-28.6zm143.6-152.9H123.3c-6.3 0-12 2.6-16.2 6.7-4.2 4.2-6.7 9.9-6.7 16.2v202.7c0 6.3 2.6 12 6.7 16.2 4.1 4.1 9.9 6.7 16.2 6.7h358.8c6.3 0 12-2.6 16.2-6.7 4.1-4.2 6.7-9.9 6.7-16.2V218.5c0-6.3-2.6-12-6.7-16.2-4.2-4.1-9.9-6.7-16.2-6.7zm-358.8-14.4h138.2l101-40.7c3.7-1.5 7.8.3 9.3 4s-.3 7.9-4 9.3l-67.9 27.4h123.3l-43.5-99.6c-2.5-5.7-7.2-10-12.7-12.1s-11.8-2.2-17.5.3L20.7 213.4c-5.8 2.5-10 7.2-12.1 12.7-2.2 5.5-2.2 11.8.3 17.6L86 420.1V267.4l-14.5 5.8c-3.7 1.5-7.9-.3-9.3-4-1.5-3.7.3-7.9 4-9.4l19.8-8v-33.4c0-10.3 4.2-19.6 11-26.4 6.7-6.6 16-10.8 26.3-10.8zm243.3 48.3H238.8c-2.5 0-4.8 1-6.5 2.7s-2.7 4-2.7 6.5V401c0 2.5 1 4.8 2.7 6.5s4 2.7 6.5 2.7h127.8c2.5 0 4.8-1 6.5-2.7s2.7-4 2.7-6.5V238.7c0-2.5-1-4.8-2.7-6.5s-4-2.7-6.5-2.7zm-127.8-14.4h127.8c6.5 0 12.4 2.7 16.7 6.9 4.3 4.3 6.9 10.2 6.9 16.7V401c0 6.5-2.7 12.4-6.9 16.7-4.3 4.3-10.2 6.9-16.7 6.9H238.8c-6.5 0-12.4-2.7-16.7-6.9-4.3-4.3-6.9-10.2-6.9-16.7V238.7c0-6.5 2.7-12.4 6.9-16.7 4.3-4.3 10.2-6.9 16.7-6.9zm63.9 33.1c11.8 0 22.4 4.8 30.1 12.5s12.5 18.3 12.5 30.1-4.8 22.4-12.5 30.1c-1.3 1.3-2.7 2.6-4.2 3.7 7.6 3.3 14.4 8 20.1 13.7 11.8 11.8 19.1 28.1 19.1 46 0 4-3.2 7.2-7.2 7.2H244.8c-4 0-7.2-3.2-7.2-7.2 0-18 7.3-34.2 19-46 5.7-5.7 12.6-10.4 20.1-13.7-1.5-1.1-2.9-2.4-4.3-3.7-7.7-7.7-12.5-18.4-12.5-30.1 0-11.8 4.8-22.4 12.5-30.1 7.9-7.7 18.5-12.5 30.3-12.5z" opacity="1" data-original="url(#a)"></path></g></svg>