<svg xmlns="http://www.w3.org/2000/svg" version="1.1" xmlns:xlink="http://www.w3.org/1999/xlink" width="512" height="512" x="0" y="0" viewBox="0 0 64 64" style="enable-background:new 0 0 512 512" xml:space="preserve"><rect width="64" height="64" rx="12.8" ry="12.8" fill="#bac8d3" shape="rounded"></rect><g transform="matrix(0.62,0,0,0.62,12.16,12.159994926452637)"><linearGradient id="a" x1="4" x2="60" y1="32" y2="32" gradientUnits="userSpaceOnUse"><stop offset="0" stop-color="#7f00ff"></stop><stop offset="1" stop-color="#e100ff"></stop></linearGradient><path fill="url(#a)" d="M9.86 19.22h36.57v28.85H9.86zm43.35 2.66a1 1 0 0 0 0 2 1 1 0 0 0 0-2zm0 8.53a1 1 0 0 0 0 2 1 1 0 0 0 0-2zm-1 9v6h2.01l-.01-6zM60 18.36v30.57a5.002 5.002 0 0 1-5 5H9a5.002 5.002 0 0 1-5-5V18.36a5.002 5.002 0 0 1 5-5h20.82l-6.58-7.64a1 1 0 0 1 1.52-1.3L32 12.83l7.24-8.41a1 1 0 0 1 1.52 1.3l-6.58 7.64H55a5.002 5.002 0 0 1 5 5zm-11.57.86a2 2 0 0 0-2-2H9.86a1.993 1.993 0 0 0-2 2v28.85a1.993 1.993 0 0 0 2 2h36.57a2 2 0 0 0 2-2zm7.78 20.19a2 2 0 0 0-2-2h-2a2.006 2.006 0 0 0-2 2v6a2 2 0 0 0 2 2h2a1.993 1.993 0 0 0 2-2zm-3-11a3 3 0 0 0 0 6 3 3 0 0 0 0-6zm0-8.53a3 3 0 0 0 0 6 3 3 0 0 0 0-6zm-40.61 38a2.978 2.978 0 0 0 2.84 2.05h33.12a2.978 2.978 0 0 0 2.84-2.05l.65-1.95h-40.1z" opacity="1" data-original="url(#a)"></path></g></svg>