<svg xmlns="http://www.w3.org/2000/svg" version="1.1" xmlns:xlink="http://www.w3.org/1999/xlink" width="512" height="512" x="0" y="0" viewBox="0 0 64 64" style="enable-background:new 0 0 512 512" xml:space="preserve"><rect width="64" height="64" rx="12.8" ry="12.8" fill="#bac8d3" shape="rounded"></rect><g transform="matrix(0.73,0,0,0.73,8.639423410892494,8.639453601837165)"><linearGradient id="a" x1="3.998" x2="59.999" y1="31.998" y2="31.998" gradientUnits="userSpaceOnUse"><stop offset="0" stop-color="#ff81ff"></stop><stop offset="1" stop-color="#a93aff"></stop></linearGradient><path fill="url(#a)" d="m59.96 29.75-1.37 8.22v-4.38a5.013 5.013 0 0 0-5-5H15.85l1.01-6.04a2.55 2.55 0 0 1 2.94-2.08l38.08 6.35a2.534 2.534 0 0 1 2.08 2.93zm-47.07 7.4c.96-.003 2.885.002 3.84 0a5.578 5.578 0 0 0 5.57-5.56v-1h-6.41a2.996 2.996 0 0 0-3 3zm40.7-6.56h-6.41a5.712 5.712 0 0 0 5.56 6.56h3.85v-3.56a3.002 3.002 0 0 0-3-3zm-.85 15.86a5.712 5.712 0 0 0-5.56 6.56h6.41a3.002 3.002 0 0 0 3-3v-3.56c-.962.003-2.892-.002-3.85 0zm-36.01 0h-3.84v3.56a2.996 2.996 0 0 0 3 3h6.41a5.716 5.716 0 0 0-5.57-6.56zm39.86-7.3v5.3h-3.85a7.704 7.704 0 0 0-7.56 8.56H24.3v-1a7.59 7.59 0 0 0-7.57-7.56h-3.84v-5.3h3.84a7.709 7.709 0 0 0 7.57-8.56h20.88a7.704 7.704 0 0 0 7.56 8.56c.967-.002 2.875.002 3.85 0zm-21.85-5.28c-10.516.398-10.519 15.46 0 15.86a7.93 7.93 0 0 0 0-15.86zM14.89 22.22a4.552 4.552 0 0 1 5.25-3.72l28.7 4.79-1.69-10.17a2.538 2.538 0 0 0-2.92-2.1l-38.1 6.31a2.558 2.558 0 0 0-2.1 2.92l2.84 17.11a2.554 2.554 0 0 0 2.92 2.1l1.1-.18v-5.69a5.006 5.006 0 0 1 2.86-4.52zM28.8 41.8c.253 7.832 11.622 7.84 11.87 0-.249-7.841-11.618-7.83-11.87 0z" opacity="1" data-original="url(#a)"></path></g></svg>