<svg xmlns="http://www.w3.org/2000/svg" version="1.1" xmlns:xlink="http://www.w3.org/1999/xlink" width="512" height="512" x="0" y="0" viewBox="0 0 512 512" style="enable-background:new 0 0 512 512" xml:space="preserve" fill-rule="evenodd" class=""><rect width="512" height="512" rx="102.4" ry="102.4" fill="#bac8d3" shape="rounded"></rect><g transform="matrix(0.6,0,0,0.6,102.39999389648438,97.39979858398439)"><linearGradient id="a" x1="102.883" x2="412.37" y1="-10.291" y2="522.291" gradientUnits="userSpaceOnUse"><stop offset="0" stop-color="#f06"></stop><stop offset="1" stop-color="#f96"></stop></linearGradient><path fill="url(#a)" d="M90.565 434.779v-3.484c0-13.364 10.872-24.237 24.235-24.237h195.164c13.364 0 24.236 10.874 24.236 24.237v3.484H90.565zm269.57 77.22H64.632c-2.763 0-5-2.239-5-5.001v-28.61c0-2.763 2.237-5.001 5-5.001h295.503a5 5 0 0 1 5 5v28.61a5 5 0 0 1-5 5.001zM71.95 463.387v-13.61c0-2.763 2.238-5 5-5h270.862c2.762 0 5 2.237 5 5v13.61H71.95zM415.86 66.582a33.039 33.039 0 0 1-16.634-6.35L328.99 130.47l66.364 66.364 20.508-130.251zm-23.703-13.425a33.22 33.22 0 0 1-6.322-16.488L256.083 57.562l65.836 65.834 70.239-70.239zm-5.765-26.707a33.166 33.166 0 0 1 9.035-16.678C401.73 3.47 410.11 0 419.02 0c8.912 0 17.29 3.47 23.592 9.773 13.008 13.008 13.008 34.175 0 47.185-4.603 4.603-10.316 7.695-16.533 9.027L404.1 205.58l38.174 38.173a12.687 12.687 0 0 1 3.74 9.03 12.686 12.686 0 0 1-3.743 9.03l-12.723 12.724a12.677 12.677 0 0 1-9.028 3.74 12.685 12.685 0 0 1-9.03-3.74L178.59 41.634c-4.98-4.977-4.98-13.079-.003-18.058l12.727-12.725a12.687 12.687 0 0 1 9.028-3.74c3.41 0 6.618 1.328 9.03 3.74L247.36 48.84l139.033-22.39zm-95.189 278.064c-37.144 0-73.673-13.7-101.283-41.31-53.64-53.643-54.78-140.972-4.919-201.018l205.939 205.94c-29.141 24.2-64.71 36.388-99.736 36.388zm-158.48 92.544 47.547-129.434c.848.89 1.704 1.774 2.58 2.65 17.77 17.772 39.289 30.418 62.685 37.52l44.76 89.264H132.725z" opacity="1" data-original="url(#a)"></path></g></svg>