<svg xmlns="http://www.w3.org/2000/svg" version="1.1" xmlns:xlink="http://www.w3.org/1999/xlink" width="512" height="512" x="0" y="0" viewBox="0 0 64 64" style="enable-background:new 0 0 512 512" xml:space="preserve" class=""><rect width="64" height="64" rx="12.8" ry="12.8" fill="#bac8d3" shape="rounded"></rect><g transform="matrix(0.65,0,0,0.65,11.2,11.19999966621399)"><linearGradient id="a" x1="4" x2="60" y1="32" y2="32" gradientUnits="userSpaceOnUse"><stop offset="0" stop-color="#ff81ff"></stop><stop offset="1" stop-color="#a93aff"></stop></linearGradient><path fill="url(#a)" d="M60 14.425v7.09H23.51a4.577 4.577 0 0 0-3.33-3.71v-6.38H57a3.002 3.002 0 0 1 3 3zm0 9.09v26.06a3.009 3.009 0 0 1-3 3H20.18v-24.87a3.564 3.564 0 0 1 1.27 3.39c-.855 3.203 1.952 6.87 5.29 6.31a.998.998 0 0 0-.32-1.97c-1.987.3-3.577-2.097-3.01-3.96a5.654 5.654 0 0 0-1.77-5.16 4.761 4.761 0 0 0 1.82-2.8zm-6.64 9.29h-1.27c3.202-4.997-4.363-9.319-7.32-4.02-2.946-5.306-10.62-.93-7.24 4.02h-1.3a2.67 2.67 0 0 0-.83 5.2v8.74a3.002 3.002 0 0 0 3 3h12.79a3.002 3.002 0 0 0 3-3v-8.74a2.67 2.67 0 0 0-.83-5.2zm-31.78-10.25c.119-3.671-4.707-3.868-4.81-.16.07 3.473 4.552 3.655 4.81.16zm-6.73-1.04a4.577 4.577 0 0 1 3.33-3.71v-6.38H7a3.002 3.002 0 0 0-3 3v7.09c1.224-.003 9.428.002 10.85 0zm2.07 9.62c.73 3-1.574 6.35-4.66 6.32-.741.078-1.618-.337-1.47-1.19a.998.998 0 0 1 1.15-.83 2.547 2.547 0 0 0 2.16-.8 3.32 3.32 0 0 0 .85-3.13 5.74 5.74 0 0 1 1.76-5.2 4.723 4.723 0 0 1-1.81-2.79c-1.457-.003-9.635.002-10.9 0v26.06a3.009 3.009 0 0 0 3 3h11.18v-24.88a3.606 3.606 0 0 0-1.26 3.44zm31.12 16.61h3.15a1.003 1.003 0 0 0 1-1v-8.61h-4.15zm-10.64-1a1.003 1.003 0 0 0 1 1h3.14v-9.61H37.4zm15.96-11.94H36.23a.665.665 0 0 0 0 1.33h17.13a.665.665 0 0 0 0-1.33zm-2.54-4.74a2.354 2.354 0 0 0-2.21-1.72c-1.94.059-2.945 2.612-2.84 4.43 2.751-.04 5.22-.021 5.05-2.71zm-10.76 2.31a9.331 9.331 0 0 0 3.71.42c.112-1.816-.902-4.386-2.84-4.45a2.083 2.083 0 0 0-.87 4.03zm3.48 15.37h2.5v-9.61h-2.5z" opacity="1" data-original="url(#a)"></path></g></svg>