<svg xmlns="http://www.w3.org/2000/svg" version="1.1" xmlns:xlink="http://www.w3.org/1999/xlink" width="512" height="512" x="0" y="0" viewBox="0 0 512 512" style="enable-background:new 0 0 512 512" xml:space="preserve"><rect width="512" height="512" rx="102.4" ry="102.4" fill="#bac8d3" shape="rounded"></rect><g transform="matrix(0.68,0,0,0.68,81.93599731445312,72.56000244140623)"><linearGradient id="a" x1="79.317" x2="432.757" y1="132.329" y2="485.77" gradientUnits="userSpaceOnUse"><stop offset=".104" stop-color="#df299f"></stop><stop offset=".842" stop-color="#a708e1"></stop></linearGradient><path fill="url(#a)" d="M53.7 411h85.8v49.1H53.7zm129.8-124h22.8v-22.8h-22.8zm122.2-64.4h22.8v-22.7h-22.8zm-252 174.6h85.8V232.3H53.7zm252-110.2h22.8v-22.8h-22.8zm66.8 173.1h85.9V411h-85.9zm0-227.8v164.9h85.9V232.3zm-127.9-9.7h22.8v-22.7h-22.8zM403 131.1h-30.5v87.4H403zm-44.2-70.9v399.9h-43V327.2c0-3.8-3.1-6.9-6.9-6.9H203.1c-3.8 0-6.9 3.1-6.9 6.9v132.9h-43V60.2c0-2.4 1.9-4.3 4.3-4.3h196.8c2.6 0 4.5 1.9 4.5 4.3zm-155.7 70.4c0 6.7 5.4 12.1 12.1 12.1H235v19.9c0 6.6 5.4 12 12.1 12H265c6.6 0 12-5.4 12-12v-19.9h19.9c6.6 0 12-5.4 12-12.1v-17.9c0-6.6-5.4-12-12-12H277V80.8c0-6.6-5.4-12-12-12h-17.9c-6.7 0-12.1 5.4-12.1 12v19.9h-19.7c-6.7 0-12.1 5.4-12.1 12v17.9zM220 257.3c0-3.8-3.1-6.9-6.9-6.9h-36.6c-3.8 0-6.9 3.1-6.9 6.9v36.6c0 3.8 3.1 6.9 6.9 6.9h36.6c3.8 0 6.9-3.1 6.9-6.9zm0-64.3c0-3.8-3.1-6.9-6.9-6.9h-36.6c-3.8 0-6.9 3.1-6.9 6.9v36.5c0 3.8 3.1 6.9 6.9 6.9h36.6c3.8 0 6.9-3.1 6.9-6.9zm61.2 64.3c0-3.8-3.1-6.9-6.9-6.9h-36.6c-3.8 0-6.9 3.1-6.9 6.9v36.6c0 3.8 3.1 6.9 6.9 6.9h36.6c3.8 0 6.9-3.1 6.9-6.9zm0-64.3c0-3.8-3.1-6.9-6.9-6.9h-36.6c-3.8 0-6.9 3.1-6.9 6.9v36.5c0 3.8 3.1 6.9 6.9 6.9h36.6c3.8 0 6.9-3.1 6.9-6.9zm61.1 64.3c0-3.8-3.1-6.9-6.9-6.9h-36.6c-3.8 0-6.9 3.1-6.9 6.9v36.6c0 3.8 3.1 6.9 6.9 6.9h36.6c3.8 0 6.9-3.1 6.9-6.9zm0-64.3c0-3.8-3.1-6.9-6.9-6.9h-36.6c-3.8 0-6.9 3.1-6.9 6.9v36.5c0 3.8 3.1 6.9 6.9 6.9h36.6c3.8 0 6.9-3.1 6.9-6.9zm-93.5-57.2v25h14.5v-25c0-3.8 3.1-6.9 6.9-6.9h25v-14.5h-25c-3.8 0-6.9-3.1-6.9-6.9v-25h-14.5v25c0 3.8-3.1 6.9-6.9 6.9h-25v14.5h25c3.8 0 6.9 3.1 6.9 6.9zM210 460.1h92v-126h-92zM109.1 218.5h30.3v-87.4h-30.3zM244.6 287h22.8v-22.8h-22.8zm-61.1-64.4h22.8v-22.7h-22.8z" opacity="1" data-original="url(#a)"></path></g></svg>