<svg xmlns="http://www.w3.org/2000/svg" version="1.1" xmlns:xlink="http://www.w3.org/1999/xlink" width="512" height="512" x="0" y="0" viewBox="0 0 3873 3873" style="enable-background:new 0 0 512 512" xml:space="preserve" class=""><rect width="3873" height="3873" rx="774.6" ry="774.6" fill="#bac8d3" shape="rounded"></rect><g transform="matrix(0.67,0,0,0.67,639.7214758300781,620.9755322265626)"><linearGradient id="a" x1="631.187" x2="3245.844" y1="1032.3" y2="3646.956" gradientUnits="userSpaceOnUse"><stop offset="0" stop-color="#fc00ff"></stop><stop offset="1" stop-color="#00dbde"></stop></linearGradient><path fill="url(#a)" fill-rule="evenodd" d="M2755.1 613.2H1122l139.2-195.3h1354.6zm173.2 188.4c0-53.4-43.6-97.3-97-97.7H1045.7c-53.4.4-97 44.3-97 97.7v97.7h1979.6zM283.5 1420.3v97.9h867.8v-195.8H381.4c-53.7 0-97.9 44.1-97.9 97.9zM1242 3466.7h345v-644.5h-90.9c-25 0-45.3-20.3-45.3-45.3v-223.5c0-25 20.3-45.3 45.3-45.3H2381c25 0 45.3 20.3 45.3 45.3v223.5c0 25-20.3 45.3-45.3 45.3h-90.9v644.5h345V989.9H1242zm771.3-2101.8c-.1-67.7 27.6-129.3 72.2-173.8 96.4-96.4 251.4-96.3 347.7 0 44.6 44.6 72.2 106.1 72.2 173.8v373.9c0 25-20.3 45.3-45.3 45.3h-401.5c-25 0-45.3-20.3-45.3-45.3zm-641.6 0c0-67.7 27.7-129.3 72.2-173.8 96.4-96.4 251.4-96.3 347.7 0 44.6 44.6 72.2 106.1 72.2 173.8v373.9c0 25-20.3 45.3-45.3 45.3H1417c-25 0-45.3-20.3-45.3-45.3zm-1.9 623.8c-.1-25 20.2-45.3 45.3-45.3h1047c25 0 45.3 20.3 45.3 45.3v314.9c0 25-20.3 45.3-45.3 45.3h-1047c-25 0-45.3-20.3-45.3-45.3zm2125.9-666.2h-769.9v195.8h867.8v-97.9c-.1-53.8-44.2-97.9-97.9-97.9zm-770 2144.2h700.4V1608.9h-700.4zm157.8-1684c0-25 20.3-45.3 45.3-45.3h294.3c25 0 45.3 20.3 45.3 45.3V2077c0 25-20.3 45.3-45.3 45.3h-294.3c-25 0-45.3-20.3-45.3-45.3zm0 608c0-25 20.3-45.3 45.3-45.3 17.3-.1 276.9-.1 294.3-.1 25 0 45.3 20.3 45.3 45.3V2685c0 25-20.3 45.3-45.3 45.3h-294.3c-25 0-45.3-20.3-45.3-45.3zm0 607.8c-.1-25 20.2-45.3 45.3-45.3h294.3c25 0 45.3 20.3 45.3 45.3v294.3c0 25-20.3 45.3-45.3 45.3h-294.3c-25 0-45.3-20.3-45.3-45.3zm294.2 45.4h-203.6v203.6h203.6zm0-607.9h-203.6v203.6h203.6zm0-607.9h-203.6v203.6h203.6zm-761 206h-956.3v224.2h956.3zm-81.1 564.7h-794.2v132.8h794.2zm-351.7 868h215.5v-644.5h-215.5zm-306.2 0h215.5v-644.5h-215.5zm95.5-2101.9c0-69.2-46.2-128.9-110-148.6v477.2h110zm-200.8-148.6c-63.8 19.6-110.1 79.3-110.1 148.6v328.6h110.1zm842.3 148.6c0-69.2-46.2-128.9-110.1-148.6v477.2h110.1zM2214 1216.3c-63.8 19.6-110 79.3-110 148.6v328.6h110zM902.9 1828.1H699.3v203.6h203.6zM451 3466.7h700.3V1608.9H451zm157.7-1684c0-25 20.3-45.3 45.3-45.3h294.3c25 0 45.3 20.3 45.3 45.3V2077h.1c0 25-20.3 45.3-45.3 45.3H654c-25 0-45.3-20.3-45.3-45.3zm0 608c0-25 20.3-45.3 45.3-45.3h294.3v-.1c25 0 45.3 20.3 45.3 45.3V2685c0 25-20.3 45.3-45.3 45.3H654c-25 0-45.3-20.3-45.3-45.3zm0 607.8c-.1-25 20.2-45.3 45.3-45.3h294.3c25 0 45.3 20.3 45.3 45.3v294.3c0 25-20.3 45.3-45.3 45.3H654c-25 0-45.3-20.3-45.3-45.3zM902.9 2436H699.3v203.6h203.6zm0 607.9H699.3v203.6h203.6z" clip-rule="evenodd" opacity="1" data-original="url(#a)"></path></g></svg>