<svg xmlns="http://www.w3.org/2000/svg" version="1.1" xmlns:xlink="http://www.w3.org/1999/xlink" width="512" height="512" x="0" y="0" viewBox="0 0 64 64" style="enable-background:new 0 0 512 512" xml:space="preserve" class=""><rect width="64" height="64" rx="12.8" ry="12.8" fill="#bac8d3" shape="rounded"></rect><g transform="matrix(0.6,0,0,0.6,12.79980010986328,12.8)"><linearGradient id="a" x1="5.424" x2="58.576" y1="32" y2="32" gradientUnits="userSpaceOnUse"><stop offset="0" stop-color="#00c0ff"></stop><stop offset="1" stop-color="#5558ff"></stop></linearGradient><path fill="url(#a)" d="M56.621 60H22.565a.95.95 0 0 1 0-1.898h34.056a.95.95 0 0 1 0 1.898zm-7.346-38.81h6.682a.95.95 0 0 0 0-1.9h-6.682a.95.95 0 0 0 0 1.9zm9.301 11.636v2.676a.952.952 0 0 1-.949.95H55.9v19.751H45.63V43.836a.946.946 0 0 0-.95-.95H34.507a.946.946 0 0 0-.95.95v12.367H23.278V36.452H21.56a.952.952 0 0 1-.949-.95v-2.676a.959.959 0 0 1 .408-.779c1.007-.72 15.697-11.037 16.136-11.351l1.898-1.339a.957.957 0 0 1 1.092 0l9.187 6.464v-2.734H55.9v7.356l2.278 1.604a.976.976 0 0 1 .398.779zm-18.983-3.332a4.039 4.039 0 0 0 0 8.078 4.039 4.039 0 0 0 0-8.078zm0 1.899a2.14 2.14 0 0 0 0 4.28 2.14 2.14 0 0 0 0-4.28zm-4.138 13.392v11.418h8.277V44.785zm-4.338-31.834h5.486l-8.4-8.4v5.476a2.923 2.923 0 0 0 2.914 2.924zM21.38 38.34v9.32H10.843a5.424 5.424 0 0 1-5.42-5.42V9.42A5.424 5.424 0 0 1 10.844 4h15.462v6.027a4.826 4.826 0 0 0 4.812 4.822h6.037v3.53c-.651.46-2.334 1.618-2.99 2.089L19.927 30.49c-1.653 1.055-1.144 3.371-1.215 5.011a2.84 2.84 0 0 0 2.667 2.838zm-11.21-17.047a.95.95 0 0 0 0 1.898h18.879a.95.95 0 0 0 0-1.898zm0-3.797h11.599a.95.95 0 0 0 0-1.898H10.17a.95.95 0 0 0 0 1.898zm0 11.39h10.783a.95.95 0 0 0 0-1.898H10.169a.95.95 0 0 0 0 1.898zm6.645 9.491H10.17a.95.95 0 0 0 0 1.899h6.644a.95.95 0 0 0 0-1.899zm0-5.695H10.17a.95.95 0 0 0 0 1.899h6.644a.95.95 0 0 0 0-1.899z" opacity="1" data-original="url(#a)"></path></g></svg>