<svg xmlns="http://www.w3.org/2000/svg" version="1.1" xmlns:xlink="http://www.w3.org/1999/xlink" width="512" height="512" x="0" y="0" viewBox="0 0 512 512" style="enable-background:new 0 0 512 512" xml:space="preserve" class=""><rect width="512" height="512" rx="102.4" ry="102.4" fill="#bac8d3" shape="rounded"></rect><g transform="matrix(0.73,0,0,0.73,69.12001441955567,64.11998661041264)"><linearGradient id="a" x1="132.126" x2="395.419" y1="404.087" y2="140.794" gradientUnits="userSpaceOnUse"><stop offset="0" stop-color="#fc4422"></stop><stop offset="1" stop-color="#ffbb32"></stop></linearGradient><path fill="url(#a)" d="m284.494 404.343.622 9.548H141.931l.113-2.107c2.67-49.771 44.041-88.933 93.897-88.933 17.564 0 33.46 4.628 48.552 13.498v67.994zm-4.163-131.878c0-24.476-19.913-44.389-44.389-44.389s-44.389 19.914-44.389 44.389c0 24.473 19.916 44.389 44.389 44.389 24.473.001 44.389-19.915 44.389-44.389zm140.199 64.633v67.245c0 35.322-30.084 69.98-64.59 77.578h-.859c-34.488-7.594-64.585-42.263-64.585-77.578v-67.245l65.015-13.701zm-27.683 28.321-49.094 49.099-23.496-23.491c-2.797-2.797-7.031 1.458-4.242 4.247l25.612 25.608a3.008 3.008 0 0 0 4.242 0l51.22-51.22c2.79-2.79-1.447-7.037-4.242-4.243zm-20.523-187.598c3.431 2.695 8.455-.033 8.068-4.378-6.487-72.817-66.36-129.455-139.449-131.953v-6.41a5.003 5.003 0 0 0-5.001-5.001 5.006 5.006 0 0 0-5.001 5.001v6.41c-73.086 2.499-132.963 59.134-139.45 131.953-.385 4.325 4.646 7.067 8.072 4.378 25.436-19.964 61.807-16.991 83.688 6.499 1.969 2.114 5.333 2.115 7.309 0 10.563-11.317 25.06-18.261 40.381-19.516v35.408c0 6.582 10.001 6.585 10.001 0v-35.408c15.321 1.255 29.817 8.199 40.38 19.516 1.975 2.119 5.335 2.109 7.309 0 22.029-23.527 58.301-26.446 83.693-6.499z" opacity="1" data-original="url(#a)"></path></g></svg>