<svg xmlns="http://www.w3.org/2000/svg" version="1.1" xmlns:xlink="http://www.w3.org/1999/xlink" width="512" height="512" x="0" y="0" viewBox="0 0 512 512" style="enable-background:new 0 0 512 512" xml:space="preserve"><rect width="512" height="512" rx="102.4" ry="102.4" fill="#bac8d3" shape="rounded"></rect><g transform="matrix(0.6200000000000002,0,0,0.6200000000000002,97.27999999999994,97.2800057983398)"><linearGradient id="a" x1="71.435" x2="440.565" y1="440.565" y2="71.435" gradientUnits="userSpaceOnUse"><stop offset="0" stop-color="#6acad8"></stop><stop offset="1" stop-color="#ae6bac"></stop></linearGradient><path fill="url(#a)" d="M178.56 170.21v171.58l29.56 10.95v89.47c0 17.25-14.04 31.29-31.29 31.29H131.4c-17.25 0-31.29-14.04-31.29-31.29v-89.47l29.56-10.95V170.21l-29.56-10.95V69.79c0-17.25 14.04-31.29 31.29-31.29h45.43c17.25 0 31.29 14.04 31.29 31.29v89.47zm-103.45 6.45V93.37H66c-22 0-40 18-40 40v245.26c0 22 18 40 40 40h9.11v-83.29l29.56-10.95V187.61zM486 133.37v245.26c0 22-18 40-40 40H233.12v-83.29l-29.561-10.95V187.61l29.561-10.95V93.37H446c22 0 40 18 40 40zm-204 97.16h164v-79H282zm40 117.43h-44v25h44zm0-40.92h-44v25h44zm0-40.93h-44v25h44zm64 81.85h-44v25h44zm0-40.92h-44v25h44zm0-40.93h-44v25h44zm64 81.85h-44v25h44zm0-40.92h-44v25h44zm0-40.93h-44v25h44z" opacity="1" data-original="url(#a)"></path></g></svg>