<svg xmlns="http://www.w3.org/2000/svg" version="1.1" xmlns:xlink="http://www.w3.org/1999/xlink" width="512" height="512" x="0" y="0" viewBox="0 0 512 512" style="enable-background:new 0 0 512 512" xml:space="preserve"><rect width="512" height="512" rx="102.4" ry="102.4" fill="#bac8d3" shape="rounded"></rect><g transform="matrix(0.6499999999999998,0,0,0.6499999999999998,89.8852508544922,89.72950563430794)"><linearGradient id="a" x1="256.816" x2="256.816" y1="22.374" y2="490.374" gradientUnits="userSpaceOnUse"><stop offset="0" stop-color="#a03a8d"></stop><stop offset="1" stop-color="#1f3c8d"></stop></linearGradient><path fill="url(#a)" fill-rule="evenodd" d="M366.17 22.37c15.08 0 27.34 12.27 27.34 27.34v27.35h-54.68V49.72c0-15.07 12.26-27.35 27.34-27.35zM326.83 143.2V49.72c0-10.61 4.23-20.26 11.09-27.34H198.7c-18.13 0-32.87 14.75-32.87 32.87v87.95zm-30.9-63.05h-99.21c-3.31 0-6 2.69-6 6 0 3.32 2.69 6 6 6h99.21c3.31 0 6-2.68 6-6s-2.69-6-6-6zM196.72 112c-3.31 0-6 2.68-6 6 0 3.31 2.69 6 6 6h99.21c3.31 0 6-2.69 6-6 0-3.32-2.69-6-6-6zm99.21-63.7h-99.21c-3.31 0-6 2.69-6 6s2.69 6 6 6h99.21c3.31 0 6-2.69 6-6s-2.69-6-6-6zm56.85 106.9h-212.9c-3.32 0-6-2.68-6-6 0-3.31 2.68-6 6-6h13.95v-31.28c-21.35 1.1-38.37 18.81-38.37 40.42v242.47c0 22.32 18.15 40.48 40.47 40.48h181.09c22.32 0 40.47-18.16 40.47-40.48V152.33c0-21.71-17.18-39.48-38.66-40.43v31.29h13.95a6.005 6.005 0 0 1 0 12.01zm0 19.33h-212.9c-3.32 0-6 2.69-6 6v55.29c0 3.31 2.68 6 6 6h212.9c3.31 0 6-2.69 6-6v-55.29c0-3.3-2.69-6-6-6zm-36.98 78.16c-3.31 0-6 2.69-6 6v32.86c0 3.32 2.69 6 6 6h36.98c3.31 0 6-2.68 6-6v-32.86c0-3.31-2.69-6-6-6zm0 57.11c-3.31 0-6 2.69-6 6v32.86c0 3.32 2.69 6 6 6h36.98c3.31 0 6-2.68 6-6V315.8c0-3.31-2.69-6-6-6zm0 57.13c-3.31 0-6 2.69-6 6v32.87c0 3.31 2.69 6 6 6h36.98c3.31 0 6-2.69 6-6v-32.87c0-3.31-2.69-6-6-6zm-15.57-51.12c0-3.31-2.68-6-6-6h-36.97c-3.31 0-6 2.69-6 6v32.86c0 3.32 2.69 6 6 6h36.97c3.32 0 6-2.68 6-6zm-42.97 51.12c-3.31 0-6 2.69-6 6v32.87c0 3.31 2.69 6 6 6h36.97c3.32 0 6-2.69 6-6v-32.87c0-3.31-2.68-6-6-6zm42.97-108.24c0-3.31-2.68-6-6-6h-36.97c-3.31 0-6 2.69-6 6v32.86c0 3.32 2.69 6 6 6h36.97c3.32 0 6-2.68 6-6zm-64.54 108.24h-36.97c-3.32 0-6 2.69-6 6v32.87c0 3.31 2.68 6 6 6h36.97c3.31 0 6-2.69 6-6v-32.87c0-3.32-2.69-6-6-6zm6-108.24c0-3.31-2.69-6-6-6h-36.97c-3.32 0-6 2.69-6 6v32.86c0 3.32 2.68 6 6 6h36.97c3.31 0 6-2.68 6-6zm-42.97 51.11c-3.32 0-6 2.69-6 6v32.86c0 3.32 2.68 6 6 6h36.97c3.31 0 6-2.68 6-6V315.8c0-3.31-2.69-6-6-6zm-15.57 38.87v-32.86c0-3.31-2.69-6-6-6h-36.98c-3.31 0-6 2.69-6 6v32.86c0 3.32 2.69 6 6 6h36.98c3.31 0 6-2.68 6-6zm-42.98 18.26c-3.31 0-6 2.69-6 6v32.87c0 3.31 2.69 6 6 6h36.98c3.31 0 6-2.69 6-6v-32.87c0-3.31-2.69-6-6-6zm36.98-114.24h-36.98c-3.31 0-6 2.69-6 6v32.86c0 3.32 2.69 6 6 6h36.98c3.31 0 6-2.68 6-6v-32.86c0-3.32-2.69-6-6-6zm169.63-66.15h-200.9v43.29h200.9zm42.71-11.15v196.35h4.34c2.4 0 4.34-1.94 4.34-4.34V179.73c0-2.39-1.94-4.34-4.34-4.34zm-57.9 271.89h-21.97v43.09h13.66c4.58 0 8.31-3.73 8.31-8.31zm-33.97 43.09v-43.09h-25.19v43.09zm-37.19 0v-43.09h-49.97v18.91c0 3.31-2.69 6-6 6s-6-2.69-6-6v-18.91h-37.1v34.78c0 4.58 3.73 8.31 8.31 8.31zm-89.28-90.58v-20.87h-24.98v20.87zm33.57-20.86v20.87h24.97v-20.87zm58.54 0v20.87h24.97v-20.87zm58.54 0v20.87h24.98v-20.87zm0-36.27h24.98V321.8H321.8zm-33.57 0V321.8h-24.97v20.86zm-58.54 0V321.8h-24.97v20.86zm-58.54 0V321.8h-24.98v20.86zm-24.98-57.11h24.98v-20.86h-24.98zm58.55-20.87v20.86h24.97v-20.86zm58.54 0v20.86h24.97v-20.86zm58.54 0v20.86h24.98v-20.86z" clip-rule="evenodd" opacity="1" data-original="url(#a)"></path></g></svg>