<svg xmlns="http://www.w3.org/2000/svg" version="1.1" xmlns:xlink="http://www.w3.org/1999/xlink" width="512" height="512" x="0" y="0" viewBox="0 0 512 512" style="enable-background:new 0 0 512 512" xml:space="preserve" class=""><rect width="512" height="512" rx="102.4" ry="102.4" fill="#bac8d3" shape="rounded"></rect><g transform="matrix(0.6499999999999998,0,0,0.6499999999999998,89.59999465942388,89.60000600814828)"><linearGradient id="a" x1="111.452" x2="400.548" y1="256" y2="256" gradientUnits="userSpaceOnUse"><stop offset="0" stop-color="#617fc0"></stop><stop offset="1" stop-color="#20c4f4"></stop></linearGradient><path fill="url(#a)" fill-rule="evenodd" d="M276.5 25.229a6 6 0 1 1 6.01 5.992h-.01a6 6 0 0 1-6-5.992zm-53.009 0a6 6 0 0 1 6-5.991h33.59a5.992 5.992 0 1 1 0 11.983h-33.59a6 6 0 0 1-6-5.992zM256 457.756a18.188 18.188 0 1 0 18.192 18.164A18.208 18.208 0 0 0 256 457.756zm-115.968-5.9h231.945a6.884 6.884 0 0 0 6.9-6.888V45.374a6.925 6.925 0 0 0-6.9-6.935H140.032a6.933 6.933 0 0 0-6.912 6.935v399.6a6.892 6.892 0 0 0 6.912 6.888zM123.449 28.579v454.842a16.577 16.577 0 0 0 16.583 16.56h231.945a16.569 16.569 0 0 0 16.574-16.56V28.579a16.568 16.568 0 0 0-16.574-16.559H140.032a16.577 16.577 0 0 0-16.583 16.559zm16.583 483.432h231.945a28.618 28.618 0 0 0 28.571-28.59V28.579a28.618 28.618 0 0 0-28.571-28.59H140.032a28.62 28.62 0 0 0-28.58 28.59v454.842a28.62 28.62 0 0 0 28.58 28.59z" opacity="1" data-original="url(#a)"></path></g></svg>