<svg xmlns="http://www.w3.org/2000/svg" version="1.1" xmlns:xlink="http://www.w3.org/1999/xlink" width="512" height="512" x="0" y="0" viewBox="0 0 48 48" style="enable-background:new 0 0 512 512" xml:space="preserve" fill-rule="evenodd" class=""><rect width="48" height="48" rx="9.6" ry="9.6" fill="#bac8d3" shape="rounded"></rect><g transform="matrix(0.73,0,0,0.73,6.4800000000000075,6.4800000000000075)"><linearGradient id="a" x1="0" x2="1" y1="0" y2="0" gradientTransform="rotate(-31.026 380.858 -158.835) scale(48.382)" gradientUnits="userSpaceOnUse"><stop offset="0" stop-color="#0056e0"></stop><stop offset=".01" stop-color="#0056e0"></stop><stop offset="1" stop-color="#00e5b8"></stop></linearGradient><path fill="url(#a)" d="M180 152.001a3 3 0 0 0-3-3h-34a3 3 0 0 0-3 3v16a3 3 0 0 0 3 3h34a3 3 0 0 0 3-3zm-38 12.083v3.917a1 1 0 0 0 1 1h3.917a6.007 6.007 0 0 0-4.917-4.917zm36-.046a6.007 6.007 0 0 0-5.243 4.963H177a1.002 1.002 0 0 0 1-1zm-14-2.037h-9.987a1 1 0 0 0 0 2H164l-1.121 1.121a.999.999 0 1 0 1.414 1.414l2.828-2.828a.999.999 0 0 0 0-1.414l-2.828-2.829a1 1 0 0 0-1.414 1.414zm-8-4h9.987a1 1 0 0 0 0-2H156l1.121-1.122a.999.999 0 1 0-1.414-1.414l-2.828 2.829a.999.999 0 0 0 0 1.414l2.828 2.828a1 1 0 0 0 1.414-1.414zm16.757-7a6.006 6.006 0 0 0 5.243 4.962v-3.962a.997.997 0 0 0-1-1zm-25.84 0H143a.997.997 0 0 0-1 1v3.917a6.01 6.01 0 0 0 4.917-4.917z" transform="translate(-136 -136.001)" opacity="1" data-original="url(#a)"></path></g></svg>