<svg xmlns="http://www.w3.org/2000/svg" version="1.1" xmlns:xlink="http://www.w3.org/1999/xlink" width="512" height="512" x="0" y="0" viewBox="0 0 512 512" style="enable-background:new 0 0 512 512" xml:space="preserve" fill-rule="evenodd"><rect width="512" height="512" rx="102.4" ry="102.4" fill="#bac8d3" shape="rounded"></rect><g transform="matrix(0.57,0,0,0.57,110.08000000000001,95.13374999999999)"><linearGradient id="a" x1="512.234" x2="-.231" y1="256" y2="256" gradientUnits="userSpaceOnUse"><stop offset="0" stop-color="#f071ab"></stop><stop offset="1" stop-color="#22abe2"></stop></linearGradient><path fill="url(#a)" d="M311 176c-3-39-13-71-26-89 41 11 73 46 81 89zM250 65V15c0-2 1-4 3-5s4-1 6 0l49 25c2 1 3 3 3 5s-1 4-3 5l-46 23v17c1 0 2 0 2 1h1l1 1h1v1h1l1 1 1 1 1 1 1 1 1 1v1h1v1h1v1l1 1v1l1 1 1 1v1h1v1l1 1v1l1 1v1l1 1c0 1 0 1 1 2v1l1 1v2h1v2l1 1v2c7 16 11 36 13 58h-86c2-22 6-42 13-58v-2l1-1v-2h1v-2l1-1v-1l1-1v-1l1-1v-1l1-1v-1h1v-2h1v-1l1-1 1-1v-1l1-1v-1h1v-1h1v-1l1-1 1-1 1-1h1v-1c1 0 1-1 1-1h1v-1h1l1-1h1v-1h2zm117 164H145c-7 0-12-5-12-11v-19c0-6 5-11 12-11h222c7 0 12 5 12 11v19c0 6-5 11-12 11zm0 274h-23v-21c0-8-6-15-14-15h-5v-75h14c3 0 6-3 6-6 0-2-1-4-3-5l-82-64c-2-2-6-2-8 0l-82 64c-2 2-3 4-2 7 0 2 3 4 5 4h14v75h-5c-8 0-14 7-14 15v21h-23c-4 0-6-3-6-6V241h234v256c0 3-2 6-6 6zm139 0H385V265h121c4 0 6 3 6 6v226c0 3-2 6-6 6zm-379 0H6c-4 0-6-3-6-6V271c0-3 2-6 6-6h121zm-27-135H26c-3 0-6-3-6-6v-61c0-4 3-6 6-6h74c3 0 6 2 6 6v61c0 3-3 6-6 6zm-43 93v-49H32v49zm12-49v49h25v-49zm31 61H26c-3 0-6-3-6-6v-61c0-4 3-6 6-6h74c3 0 6 2 6 6v61c0 3-3 6-6 6zM57 356v-49H32v49zm12-49v49h25v-49zm417 61h-74c-3 0-6-3-6-6v-61c0-4 3-6 6-6h74c3 0 6 2 6 6v61c0 3-3 6-6 6zm-43 93v-49h-25v49zm12-49v49h25v-49zm31 61h-74c-3 0-6-3-6-6v-61c0-4 3-6 6-6h74c3 0 6 2 6 6v61c0 3-3 6-6 6zm-43-117v-49h-25v49zm12-49v49h25v-49zm-109-11c-5 0-9-2-13-5-3 3-7 5-12 5s-10-2-13-5c-4 3-8 5-13 5s-10-2-13-5c-4 3-8 5-13 5s-10-2-13-5c-3 3-8 5-13 5s-9-2-13-5c-3 3-8 5-13 5s-9-2-13-5c-3 3-8 5-13 5s-9-2-12-5c-4 3-8 5-13 5-11 0-19-8-19-18 0-9 8-17 19-17 5 0 9 2 13 5 3-3 7-5 12-5s10 2 13 5c4-3 8-5 13-5s10 2 13 5c4-3 8-5 13-5s10 2 13 5c3-3 8-5 13-5s9 2 13 5c3-3 8-5 13-5s9 2 13 5c3-3 8-5 13-5s9 2 12 5c4-3 8-5 13-5 11 0 19 8 19 17 0 10-8 18-19 18zm-173-18c0-3-3-6-7-6s-8 3-8 6c0 4 4 7 8 7s7-3 7-7zm26 0c0-3-4-6-8-6s-7 3-7 6c0 4 3 7 7 7s8-3 8-7zm18-6c-4 0-7 3-7 6 0 4 3 7 7 7s8-3 8-7c0-3-4-6-8-6zm33 6c0-3-3-6-7-6s-7 3-7 6c0 4 3 7 7 7s7-3 7-7zm26 0c0-3-3-6-7-6s-7 3-7 6c0 4 3 7 7 7s7-3 7-7zm26 0c0-3-3-6-7-6s-8 3-8 6c0 4 4 7 8 7s7-3 7-7zm19-6c-4 0-8 3-8 6 0 4 4 7 8 7s7-3 7-7c0-3-3-6-7-6zm25 0c-4 0-7 3-7 6 0 4 3 7 7 7s8-3 8-7c0-3-4-6-8-6zm-14 231H180v-21c0-1 1-3 2-3h148c1 0 2 2 2 3zm-46-36v-75h-60v75zm-87 0h15v-75h-15zm99 0h15v-75h-15zm-107-87h130l-65-51zm-45-204c8-43 40-78 81-89-13 18-23 50-26 89z" opacity="1" data-original="url(#a)"></path></g></svg>