<svg xmlns="http://www.w3.org/2000/svg" version="1.1" xmlns:xlink="http://www.w3.org/1999/xlink" width="512" height="512" x="0" y="0" viewBox="0 0 32 32" style="enable-background:new 0 0 512 512" xml:space="preserve" fill-rule="evenodd" class=""><rect width="32" height="32" rx="6.4" ry="6.4" fill="#bac8d3" shape="rounded"></rect><g transform="matrix(0.6399999999999999,0,0,0.6399999999999999,5.759999935626984,5.760000000000002)"><linearGradient id="a" x1="0" x2="1" y1="0" y2="0" gradientTransform="matrix(0 21.878 -29.833 0 19.281 5)" gradientUnits="userSpaceOnUse"><stop offset="0" stop-color="#9bffaf"></stop><stop offset="1" stop-color="#03b79d"></stop></linearGradient><path fill="url(#a)" d="M31 8c0-.796-.316-1.559-.879-2.121A2.996 2.996 0 0 0 28 5H4c-.796 0-1.559.316-2.121.879A2.996 2.996 0 0 0 1 8v16c0 .796.316 1.559.879 2.121A2.996 2.996 0 0 0 4 27h24c.796 0 1.559-.316 2.121-.879A2.996 2.996 0 0 0 31 24zm-14 3a2 2 0 0 0-2-2H7a2 2 0 0 0-2 2v10a2 2 0 0 0 2 2h8a2 2 0 0 0 2-2zm3 10.01h6a1 1 0 0 0 0-2h-6a1 1 0 0 0 0 2zM14.874 21l-.002-.006C14.426 19.273 12.86 18 11 18s-3.426 1.273-3.872 2.994L7.126 21zM7 17.53c.43-.386.916-.71 1.444-.959a3.001 3.001 0 1 1 5.112 0A5.981 5.981 0 0 1 15 17.53V11H7zm13-.52h6a1 1 0 0 0 0-2h-6a1 1 0 0 0 0 2zM11 14a1 1 0 1 1 0 2 1 1 0 0 1 0-2zm9-.99h6a1 1 0 0 0 0-2h-6a1 1 0 0 0 0 2z" opacity="1" data-original="url(#a)"></path></g></svg>