<svg xmlns="http://www.w3.org/2000/svg" version="1.1" xmlns:xlink="http://www.w3.org/1999/xlink" width="512" height="512" x="0" y="0" viewBox="0 0 64 64" style="enable-background:new 0 0 512 512" xml:space="preserve"><rect width="64" height="64" rx="12.8" ry="12.8" fill="#bac8d3" shape="rounded"></rect><g transform="matrix(0.69,0,0,0.69,9.919930229187013,9.920793790817264)"><linearGradient id="a" x1="4" x2="60" y1="32" y2="32" gradientUnits="userSpaceOnUse"><stop offset="0" stop-color="#9cffac"></stop><stop offset="1" stop-color="#00b59c"></stop></linearGradient><path fill="url(#a)" d="M4 49.184a3.009 3.009 0 0 0 3 3h39.996a3.009 3.009 0 0 0 3-3V33.186H4zm4-7a2.006 2.006 0 0 1 2-1.999h6.999a2.006 2.006 0 0 1 2 2v4a2.006 2.006 0 0 1-2 2h-7a2.006 2.006 0 0 1-2-2zm41.995-17.997v2H4v-2a3.008 3.008 0 0 1 3-3h39.996a3.008 3.008 0 0 1 3 3zM4 28.187h45.995v2.999H4zm55.994 11.358a3.036 3.036 0 0 1-2.79 3.21l-5.209.36V24.187a5.001 5.001 0 0 0-5-5H12.46l-.1-1.36a3.008 3.008 0 0 1 2.78-3.21l39.906-2.79a3.02 3.02 0 0 1 3.2 2.79zM17 46.185h-7v-4h7z" opacity="1" data-original="url(#a)"></path></g></svg>