<svg xmlns="http://www.w3.org/2000/svg" version="1.1" xmlns:xlink="http://www.w3.org/1999/xlink" width="512" height="512" x="0" y="0" viewBox="0 0 491.5 491.5" style="enable-background:new 0 0 512 512" xml:space="preserve"><rect width="491.5" height="491.5" rx="98.3" ry="98.3" fill="#bac8d3" shape="rounded"></rect><g transform="matrix(0.71,0,0,0.71,71.28199645996094,71.28199867248537)"><linearGradient id="a" x1="245.8" x2="245.8" y1="35.6" y2="456" gradientUnits="userSpaceOnUse"><stop offset="0" stop-color="#f704fe"></stop><stop offset="1" stop-color="#24bce3"></stop></linearGradient><path fill="url(#a)" d="M146.7 429.2v16c0 5.9 6 10.8 13 10.8h172.2c7.1 0 13-4.9 13-10.8v-16c-26.6 8.7-62.9 12.7-99.1 12.7s-72.6-4.1-99.1-12.7zm-31-35.7c0 35.6 116.6 38.8 130 38.8s130-3.3 130-38.8v-7.2h-260zm272.1-30.7h-284c-3.8 0-7 3.1-7 7 0 3.8 3.1 7 7 7h284c3.8 0 7-3.1 7-7 0-3.8-3.1-7-7-7zm-143.3-29.5c16.1 0 25.2-11 28.2-25.5 3.3-16-4.1-37.3-17.1-51.3 2 25-2.9 40-15 45.7-2.8 1.3-6.2-.3-6.8-3.4-1.9-9.8-4.4-15-10.4-19.4.7 7.2-1.2 13.5-3 19.3-2.4 7.9-4.3 14.2.6 21.8 5.2 8 13.9 12.8 23.5 12.8zm131.3 19.9V229.7H115.7v123.5zm-164.4-81.5c-2-4 2.3-8.4 6.3-6.5 13.6 6.3 20 12.5 23.7 24.2 5.3-7.4 6.5-22.4 3.3-43.9-.6-4.1 4-7 7.5-4.7 22.2 15.3 35.6 47.9 29.4 71.3-3.3 17.9-18.7 30.8-36.9 30.8-12.8 0-24.6-6.4-31.6-17.2-7.4-11.4-4.4-21.2-1.8-29.8 2.4-8.1 4.6-15.1.1-24.2zm-107.6-51.5h284c3.8 0 7-3.1 7-7 0-3.8-3.1-7-7-7h-284c-3.8 0-7 3.1-7 7 0 3.8 3.1 7 7 7zm51.9-164h180c5.7 0 10.3-4.6 10.3-10.3s-4.6-10.3-10.3-10.3h-180c-5.7 0-10.3 4.6-10.3 10.3s4.6 10.3 10.3 10.3zm30 88.8V65.8h-17.5v82.3c5.6-1.2 11.5-2.2 17.5-3.1zm66.8-4v-20.6h-13.6V141c4.6-.1 9.2-.1 13.6 0zm123.4 48.4c-.1-32.5-96.8-38.8-130.1-38.8s-130 6.3-130 38.8v7.2h260.1zM270.6 104c0-3.9-3.1-7-6.9-6.9h-35.8c-3.8 0-6.9 3.1-6.9 6.9s3.1 6.9 6.9 6.9h35.8c3.8 0 6.9-3.1 6.9-6.9zm52.7 44.1V65.8h-17.5V145c6 .9 11.9 1.9 17.5 3.1z" opacity="1" data-original="url(#a)"></path></g></svg>