<svg xmlns="http://www.w3.org/2000/svg" version="1.1" xmlns:xlink="http://www.w3.org/1999/xlink" width="512" height="512" x="0" y="0" viewBox="0 0 64 64" style="enable-background:new 0 0 512 512" xml:space="preserve" class=""><rect width="64" height="64" rx="12.8" ry="12.8" fill="#bac8d3" shape="rounded"></rect><g transform="matrix(0.6699999999999999,0,0,0.6699999999999999,10.560157985687258,10.560030841827395)"><linearGradient id="a" x1="4" x2="60" y1="32" y2="32" gradientUnits="userSpaceOnUse"><stop offset="0" stop-color="#00c0ff"></stop><stop offset="1" stop-color="#5558ff"></stop></linearGradient><path fill="url(#a)" d="M27.333 6.91c-31.111 1.295-31.11 45.627 0 46.92A23.51 23.51 0 0 0 42.1 48.585C59.068 34.831 49.462 7.01 27.333 6.91zm0 42.807A19.378 19.378 0 0 1 7.982 30.365c1.07-25.661 37.646-25.653 38.706 0a19.372 19.372 0 0 1-19.353 19.352zm-9.618-16.479a4.94 4.94 0 0 0 0-6.173 3.088 3.088 0 0 1 0 6.173zm42.19 17.621-2.74 5.68a.979.979 0 0 1-.647.523.948.948 0 0 1-.803-.165c-3.271-2.448-11.95-3.077-18.376-3.183a24.826 24.826 0 0 0 3.435-1.83 24.097 24.097 0 0 0 4.558-3.609 47.928 47.928 0 0 1 13.953 1.23.964.964 0 0 1 .63.532.976.976 0 0 1-.01.822zM29.84 17.94a3.124 3.124 0 0 1 .01 4.819 3.078 3.078 0 0 1-.01-4.819zm-2.506-4.983A17.435 17.435 0 0 0 9.916 30.365c.956 23.107 33.888 23.1 34.835 0a17.43 17.43 0 0 0-17.417-17.408zm.58 2.419a4.984 4.984 0 0 1 4.974 4.973c-.222 6.594-9.749 6.553-9.947 0a4.972 4.972 0 0 1 4.973-4.973zm-10.237 19.75a4.998 4.998 0 0 1-4.984-4.974c.22-6.587 9.76-6.559 9.957 0a4.984 4.984 0 0 1-4.973 4.973zm9.802 10.247a5.026 5.026 0 0 1-4.974-4.984 4.974 4.974 0 1 1 4.974 4.984zm12.686-10.46a4.972 4.972 0 1 1-2.449-9.3 5 5 0 0 1 2.449 9.3zm-12.309-17.65a4.978 4.978 0 0 0 0 6.173 3.088 3.088 0 0 1 0-6.173zM15.751 32.56a3.096 3.096 0 0 1 0-4.819 3.087 3.087 0 0 1 0 4.819zm9.802 10.238a3.114 3.114 0 0 1 0-4.82 3.087 3.087 0 0 1 0 4.82zm1.984.677a4.987 4.987 0 0 0-.01-6.174 3.088 3.088 0 0 1 .01 6.174zm12.105-10.48a3.086 3.086 0 0 1 0-4.818 3.114 3.114 0 0 1 0 4.818zM37.658 27.5a4.972 4.972 0 0 0 0 6.174 3.087 3.087 0 0 1 0-6.174z" opacity="1" data-original="url(#a)"></path></g></svg>