<svg xmlns="http://www.w3.org/2000/svg" version="1.1" xmlns:xlink="http://www.w3.org/1999/xlink" width="512" height="512" x="0" y="0" viewBox="0 0 512 512" style="enable-background:new 0 0 512 512" xml:space="preserve"><rect width="512" height="512" rx="102.4" ry="102.4" fill="#bac8d3" shape="rounded"></rect><g transform="matrix(0.4699999999999999,0,0,0.4699999999999999,135.56118783116344,130.68289520263676)"><linearGradient id="a" x1="256" x2="256" y1="512.011" y2="-.011" gradientUnits="userSpaceOnUse"><stop offset="0" stop-color="#6c54a3"></stop><stop offset="1" stop-color="#00b1d2"></stop></linearGradient><path fill="url(#a)" fill-rule="evenodd" d="M500.277 227.717a39.981 39.981 0 0 1 0 56.566l-216 215.981a39.911 39.911 0 0 1-56.557 0l-216-215.981a40 40 0 1 1 56.557-56.566L216 375.431V40a40 40 0 1 1 80 0v335.431l147.715-147.714a40 40 0 0 1 56.562 0z" opacity="1" data-original="url(#a)"></path></g></svg>