<svg xmlns="http://www.w3.org/2000/svg" version="1.1" xmlns:xlink="http://www.w3.org/1999/xlink" width="512" height="512" x="0" y="0" viewBox="0 0 64 64" style="enable-background:new 0 0 512 512" xml:space="preserve"><rect width="64" height="64" rx="12.8" ry="12.8" fill="#bac8d3" shape="rounded"></rect><g transform="matrix(0.69,0,0,0.69,9.920176792144776,9.920085587501529)"><linearGradient id="a" x1="5.97" x2="58.03" y1="32" y2="32" gradientUnits="userSpaceOnUse"><stop offset="0" stop-color="#c0392b"></stop><stop offset="1" stop-color="#8e44ad"></stop></linearGradient><path fill="url(#a)" d="M36.946 22.426c-3.827-7.141-10.922-17.808-11.133-18.02a1.034 1.034 0 0 0-1.642 0c-.75 1.08-18.2 26.46-18.2 36.611C6.101 59.7 30.096 67.001 40.64 51.82c6.545-9.686 2.395-17.946-3.694-29.393zM21.888 52.671a1 1 0 0 1-1.281.6 13.05 13.05 0 0 1-8.63-12.254 1.001 1.001 0 1 1 2.002 0 11.054 11.054 0 0 0 7.299 10.372 1 1 0 0 1 .61 1.282zM58.03 39.015a14.95 14.95 0 0 1-15.458 15.007c-1.402.056-.849-.24-.29-1.061a20.833 20.833 0 0 0 3.734-11.944c.388-3.937-4.302-14.731-9-22.556 2.052-3.373 5.126-8.289 5.746-8.45a.995.995 0 0 1 1.082.401c.58.841 14.186 20.644 14.186 28.603z" opacity="1" data-original="url(#a)"></path></g></svg>