<svg xmlns="http://www.w3.org/2000/svg" version="1.1" xmlns:xlink="http://www.w3.org/1999/xlink" width="512" height="512" x="0" y="0" viewBox="0 0 512 512" style="enable-background:new 0 0 512 512" xml:space="preserve"><rect width="512" height="512" rx="102.4" ry="102.4" fill="#bac8d3" shape="rounded"></rect><g transform="matrix(0.6599999999999998,0,0,0.6599999999999998,82.03992218017581,87.03991683006294)"><linearGradient id="a" x1="111.388" x2="412.357" y1="430.405" y2="129.436" gradientUnits="userSpaceOnUse"><stop offset="0" stop-color="#545aff"></stop><stop offset="1" stop-color="#03bdff"></stop></linearGradient><path fill="url(#a)" d="M238.956 490.824a5.726 5.726 0 0 1-5.725 5.725c-96.279 0-174.608-110.028-174.608-245.27S136.952 6.013 233.231 6.013c96.282 0 174.611 110.024 174.611 245.266a5.726 5.726 0 0 1-11.45 0c0-128.928-73.193-233.816-163.162-233.816-89.965 0-163.158 104.888-163.158 233.816s73.193 233.82 163.158 233.82a5.727 5.727 0 0 1 5.726 5.725zm-5.714-76.592c-62.418 0-113.2-73.107-113.2-162.968a5.726 5.726 0 0 0-11.45 0c0 96.174 55.918 174.417 124.649 174.417 5.276 0 7.489-2.824 7.238-6.191-.246-3.277-2.444-5.208-7.237-5.258zm115.474-122.156a5.729 5.729 0 0 0 6.519-4.804c1.763-11.636 2.657-23.753 2.657-36.008 0-96.152-55.918-174.376-124.649-174.376a5.726 5.726 0 0 0 0 11.45c62.418 0 113.2 73.089 113.2 162.927 0 11.684-.85 23.22-2.531 34.293a5.724 5.724 0 0 0 4.804 6.518zm-42.735-35.068a5.726 5.726 0 0 0 5.725-5.725c0-60.055-35.203-108.914-78.474-108.914s-78.474 48.859-78.474 108.914 35.203 108.91 78.474 108.91a5.726 5.726 0 0 0 0-11.45c-36.958 0-67.025-43.719-67.025-97.46s30.067-97.464 67.025-97.464 67.025 43.723 67.025 97.464a5.725 5.725 0 0 0 5.724 5.725zm-72.75 37.331c-15.807 0-28.669-19.314-28.669-43.056a5.726 5.726 0 0 0-11.45 0c0 30.055 17.998 54.505 40.119 54.505s40.119-24.45 40.119-54.505-17.998-54.509-40.119-54.509a5.726 5.726 0 0 0 0 11.45c15.807 0 28.669 19.318 28.669 43.059s-12.862 43.056-28.669 43.056zm194.712 177.488c-37.067 41.903-100.996 45.771-142.845 8.744-41.911-37.067-45.809-100.953-8.744-142.845 37.074-41.918 100.962-45.802 142.845-8.744 41.911 37.067 45.809 100.953 8.744 142.845zm-16.329-134.269c-37.165-32.88-93.843-29.372-126.684 7.752-32.88 37.168-29.412 93.808 7.752 126.684 37.162 32.875 93.812 29.403 126.684-7.756 32.884-37.163 29.408-93.808-7.752-126.68zm-.753 18.3c6.633 6.448 6.769 17.057.317 23.678l-70.461 72.354c-7.023 7.203-18.763 6.744-25.184-1.032l-25.288-30.614c-5.904-7.139-4.882-17.688 2.247-23.578 7.307-6.034 17.818-4.718 23.574 2.251l13.086 15.844a.624.624 0 0 0 .932.037l57.096-58.631c6.44-6.611 17.066-6.757 23.681-.309zm-7.987 8.204c-2.313-2.262-5.638-1.809-7.495.097l-57.096 58.631c-5.125 5.253-13.48 4.688-17.957-.738l-13.086-15.844a5.31 5.31 0 0 0-7.458-.712 5.294 5.294 0 0 0-.712 7.458l25.288 30.614c2.039 2.462 5.813 2.733 8.159.332l70.457-72.351c2.045-2.106 1.988-5.461-.1-7.487z" opacity="1" data-original="url(#a)"></path></g></svg>