<svg xmlns="http://www.w3.org/2000/svg" version="1.1" xmlns:xlink="http://www.w3.org/1999/xlink" width="512" height="512" x="0" y="0" viewBox="0 0 512 512" style="enable-background:new 0 0 512 512" xml:space="preserve"><rect width="512" height="512" rx="102.4" ry="102.4" fill="#bac8d3" shape="rounded"></rect><g transform="matrix(0.65,0,0,0.65,89.59982376098634,74.6000467300415)"><linearGradient id="a" x1="112.932" x2="493.058" y1="513.078" y2="132.952" gradientUnits="userSpaceOnUse"><stop offset="0" stop-color="#696eff"></stop><stop offset="1" stop-color="#f8acff"></stop></linearGradient><path fill="url(#a)" d="M65.282 366.97a4.612 4.612 0 0 1-2.652-.838 4.632 4.632 0 0 1-1.146-6.453c13.244-18.962 34.907-30.279 57.951-30.279 2.561 0 4.637 2.074 4.637 4.637s-2.076 4.637-4.637 4.637c-20.017 0-38.838 9.836-50.347 26.312a4.631 4.631 0 0 1-3.806 1.984zm54.154-60.757h204.536l10.118-143.125c-10.327-5.646-17.348-16.599-17.348-29.163 0-18.346 14.926-33.272 33.272-33.272 18.323 0 33.227 14.926 33.227 33.272 0 12.576-7.023 23.539-17.351 29.18l10.117 143.108h16.554c51.745 0 93.838 42.094 93.838 93.834 0 34.264-27.874 62.138-62.138 62.138h-2.631v14.673c0 8.632-7.024 15.656-15.656 15.656h-36.225c-8.632 0-15.656-7.024-15.656-15.656v-14.673H157.902v14.673c0 8.632-7.022 15.656-15.653 15.656h-36.227c-8.632 0-15.653-7.024-15.653-15.656v-14.673h-2.631c-34.264 0-62.138-27.874-62.138-62.138 0-51.74 42.094-93.834 93.836-93.834zm29.192 155.972H99.643v14.673a6.387 6.387 0 0 0 6.379 6.381h36.227a6.387 6.387 0 0 0 6.379-6.381zm263.729 0H363.37v14.673a6.388 6.388 0 0 0 6.381 6.381h36.225a6.388 6.388 0 0 0 6.381-6.381zm-19.795-146.697H119.436c-46.627 0-84.561 37.932-84.561 84.559 0 29.151 23.714 52.863 52.863 52.863h336.525c29.151 0 52.863-23.712 52.863-52.863 0-46.627-37.937-84.559-84.564-84.559zm-42.547-157.611c13.206 0 23.952-10.747 23.952-23.952 0-13.233-10.746-23.997-23.952-23.997-13.233 0-23.997 10.765-23.997 23.997 0 13.205 10.764 23.952 23.997 23.952zm-16.747 148.336h33.444l-9.88-139.771c-2.201.461-4.48.709-6.817.709a33.34 33.34 0 0 1-6.866-.72zm-175.339 77.988c0 11.888-9.671 21.556-21.559 21.556h-24.443c-11.888 0-21.559-9.669-21.559-21.556s9.671-21.561 21.559-21.561h24.443c11.889 0 21.559 9.674 21.559 21.561zm-9.274 0c0-6.775-5.511-12.286-12.284-12.286h-24.443c-6.773 0-12.284 5.511-12.284 12.286 0 6.77 5.511 12.282 12.284 12.282h24.443c6.772 0 12.284-5.511 12.284-12.282zm97.174 0c0 11.888-9.673 21.556-21.559 21.556h-24.441c-11.888 0-21.561-9.669-21.561-21.556s9.673-21.561 21.561-21.561h24.441c11.885 0 21.559 9.674 21.559 21.561zm-9.275 0c0-6.775-5.511-12.286-12.284-12.286h-24.441c-6.775 0-12.286 5.511-12.286 12.286 0 6.77 5.511 12.282 12.286 12.282h24.441c6.773 0 12.284-5.511 12.284-12.282zm97.176 0c0 11.888-9.673 21.556-21.561 21.556h-24.441c-11.888 0-21.561-9.669-21.561-21.556s9.673-21.561 21.561-21.561h24.441c11.888 0 21.561 9.674 21.561 21.561zm-9.275 0c0-6.775-5.511-12.286-12.286-12.286h-24.441c-6.775 0-12.286 5.511-12.286 12.286 0 6.77 5.511 12.282 12.286 12.282h24.441c6.775 0 12.286-5.511 12.286-12.282zm51.174-21.561h24.441c11.888 0 21.561 9.673 21.561 21.561s-9.673 21.556-21.561 21.556h-24.441c-11.888 0-21.561-9.669-21.561-21.556s9.673-21.561 21.561-21.561zm-12.286 21.561c0 6.77 5.511 12.282 12.286 12.282h24.441c6.775 0 12.286-5.511 12.286-12.282 0-6.775-5.511-12.286-12.286-12.286h-24.441c-6.775 0-12.286 5.511-12.286 12.286zm37.158-337.249a4.637 4.637 0 0 0 0-6.558c-27.874-27.874-73.141-27.88-101.021 0a4.637 4.637 0 1 0 6.558 6.558c24.249-24.249 63.653-24.253 87.906 0a4.636 4.636 0 0 0 6.557 0zm-18.939 18.939a4.637 4.637 0 0 0 0-6.558c-17.408-17.404-45.735-17.413-63.143 0a4.637 4.637 0 1 0 6.558 6.558c13.79-13.794 36.229-13.799 50.028 0a4.636 4.636 0 0 0 6.557 0zm-44.205 12.381a4.637 4.637 0 1 0 6.558 6.558c3.238-3.233 8.921-3.229 12.15 0a4.636 4.636 0 1 0 6.558-6.558c-6.73-6.739-18.536-6.743-25.266 0z" opacity="1" data-original="url(#a)"></path></g></svg>