<svg xmlns="http://www.w3.org/2000/svg" version="1.1" xmlns:xlink="http://www.w3.org/1999/xlink" width="512" height="512" x="0" y="0" viewBox="0 0 512 512" style="enable-background:new 0 0 512 512" xml:space="preserve"><rect width="512" height="512" rx="102.4" ry="102.4" fill="#bac8d3" shape="rounded"></rect><g transform="matrix(0.6299999999999998,0,0,0.6299999999999998,94.72000000000006,94.72000000000006)"><linearGradient id="a" x1="-.001" x2="511.998" y1="256" y2="256" gradientUnits="userSpaceOnUse"><stop offset="0" stop-color="#00c2f3"></stop><stop offset="1" stop-color="#4764af"></stop></linearGradient><path fill="url(#a)" fill-rule="evenodd" d="M474.538 348.87a8 8 0 0 1-8 8H289.11a8 8 0 1 1 0-16h177.427a7.993 7.993 0 0 1 8 8zm0-46.428a8 8 0 0 1-8 8H289.11a8 8 0 1 1 0-16h177.427a8 8 0 0 1 8 8zm0-46.442a8 8 0 0 1-8 8H289.11a8 8 0 1 1 0-16h177.427a8 8 0 0 1 8 8zm0-46.442a7.993 7.993 0 0 1-8 8H289.11a8 8 0 1 1 0-16h177.427a8 8 0 0 1 8 8zM281.1 163.131a8 8 0 0 1 8.006-8h87.058a8 8 0 0 1 0 16H289.11a8 8 0 0 1-8.006-8zm-57.9 177.742H53.452V171.132H223.2zm8-185.744H45.455a8 8 0 0 0-8 8V348.87a8 8 0 0 0 8 8H231.2a8 8 0 0 0 8-8V163.131a8 8 0 0 0-8-8zm-92.87 108.91a55.925 55.925 0 0 0-55.491 48.051h110.977a55.924 55.924 0 0 0-55.486-48.051zm0-64.129a21.83 21.83 0 1 0 21.829 21.83 21.854 21.854 0 0 0-21.829-21.83zM77.107 328.093h122.446a10.766 10.766 0 0 0 10.747-11.252 71.854 71.854 0 0 0-49.017-65.058 37.828 37.828 0 1 0-45.923 0 71.846 71.846 0 0 0-49.01 65.067 10.765 10.765 0 0 0 10.757 11.243zM496 379.691V132.309a24.479 24.479 0 0 0-24.447-24.457H40.454A24.485 24.485 0 0 0 16 132.309v247.382a24.486 24.486 0 0 0 24.457 24.462h431.1A24.48 24.48 0 0 0 496 379.691zM471.552 91.849H40.454A40.5 40.5 0 0 0 0 132.309v247.382a40.5 40.5 0 0 0 40.455 40.46h431.1A40.5 40.5 0 0 0 512 379.691V132.309a40.5 40.5 0 0 0-40.448-40.46z" opacity="1" data-original="url(#a)"></path></g></svg>