<svg xmlns="http://www.w3.org/2000/svg" version="1.1" xmlns:xlink="http://www.w3.org/1999/xlink" width="512" height="512" x="0" y="0" viewBox="0 0 512 512" style="enable-background:new 0 0 512 512" xml:space="preserve"><rect width="512" height="512" rx="102.4" ry="102.4" fill="#bac8d3" shape="rounded"></rect><g transform="matrix(0.65,0,0,0.65,89.60011749267579,84.61312980651857)"><linearGradient id="a" x1="256" x2="256" y1="65.975" y2="446.1" gradientUnits="userSpaceOnUse"><stop offset="0" stop-color="#f704fe"></stop><stop offset="1" stop-color="#24bce3"></stop></linearGradient><path fill="url(#a)" d="M446.7 446.1H65.4c-13.4 0-24.4-11-24.4-24.4V160.4C41 147 52 136 65.4 136h381.2c13.4 0 24.4 11 24.4 24.4v261.2c.1 13.5-10.9 24.5-24.3 24.5zM65.4 145.7c-8 0-14.7 6.5-14.7 14.7v261.2c0 8 6.5 14.7 14.7 14.7h381.2c8 0 14.7-6.5 14.7-14.7V160.4c0-8-6.5-14.7-14.7-14.7zm297.1 267.7H85.4c-6.5 0-11.8-5.3-11.8-11.8V180.4c0-6.5 5.3-11.8 11.8-11.8h277.1c6.5 0 11.8 5.3 11.8 11.8v221.3c-.1 6.4-5.3 11.7-11.8 11.7zm-277.1-235c-1.1 0-1.9.9-1.9 1.9v221.3c0 1.1.9 1.9 1.9 1.9h277.1c1.1 0 1.9-.9 1.9-1.9V180.4c0-1.1-.9-1.9-1.9-1.9H85.4zm349.4 150.5h-35c-2.7 0-4.9-2.2-4.9-4.9s2.2-4.9 4.9-4.9h35c2.7 0 4.9 2.2 4.9 4.9-.1 2.7-2.3 4.9-4.9 4.9zm0-25.8h-35c-2.7 0-4.9-2.2-4.9-4.9s2.2-4.9 4.9-4.9h35c2.7 0 4.9 2.2 4.9 4.9s-2.3 4.9-4.9 4.9zm0-25.8h-35c-2.7 0-4.9-2.2-4.9-4.9s2.2-4.9 4.9-4.9h35c2.7 0 4.9 2.2 4.9 4.9-.1 2.7-2.3 4.9-4.9 4.9zm-2.7-36.3h-29.9c-4.1 0-7.4-3.4-7.4-7.4v-44.3c0-4.1 3.4-7.4 7.4-7.4h29.9c4.1 0 7.4 3.4 7.4 7.4v44.2c.1 1.9-.6 3.8-1.9 5.2-1.4 1.4-3.5 2.3-5.5 2.3zm-27.6-9.8h25.2v-39.6h-25.2zm12.8 169.1c-12.4 0-22.4-10.1-22.4-22.4s10.1-22.4 22.4-22.4 22.4 10.1 22.4 22.4c-.1 12.3-10.2 22.4-22.4 22.4zm0-35c-7 0-12.6 5.7-12.6 12.6s5.7 12.6 12.6 12.6 12.6-5.7 12.6-12.6c-.1-7-5.7-12.6-12.6-12.6zM205.9 329c-.8 0-1.6-.2-2.3-.6-1.6-.9-2.6-2.5-2.6-4.3v-66.3c0-1.8.9-3.4 2.4-4.2 1.5-.9 3.4-.9 4.9 0l54.8 30.8c1.5.8 2.5 2.4 2.5 4.1.1 1.7-.8 3.4-2.2 4.2l-54.8 35.4c-.8.7-1.8.9-2.7.9zm4.9-62.8v49l40.5-26.2zm13.2 99.7c-41.3 0-74.9-33.6-74.9-74.9s33.6-74.9 74.9-74.9 74.9 33.6 74.9 74.9-33.7 74.9-74.9 74.9zm0-140c-35.9 0-65.1 29.2-65.1 65.1s29.2 65.1 65.1 65.1 65.1-29.2 65.1-65.1-29.3-65.1-65.1-65.1zm28.7-80.2c-2.7 0-4.9-2.2-4.9-4.9 0-13.2-10.7-23.9-23.9-23.9S200 127.6 200 140.8c0 2.7-2.2 4.9-4.9 4.9s-4.9-2.2-4.9-4.9c0-18.6 15.1-33.6 33.6-33.6s33.6 15.1 33.6 33.6c.2 2.8-2 4.9-4.7 4.9zm-49.1-20.3c-1.2 0-2.5-.4-3.4-1.4l-49.8-49.7c-1.9-1.9-1.9-5 0-6.9s5-1.9 6.9 0l49.8 49.7c1.9 1.9 1.9 5 0 6.9-.9.9-2.2 1.4-3.5 1.4zm40.7 0c-1.2 0-2.5-.4-3.4-1.4-1.9-1.9-1.9-5 0-6.9l49.7-49.7c1.9-1.9 5-1.9 6.9 0s1.9 5 0 6.9L247.7 124c-.8.9-2.2 1.4-3.4 1.4z" opacity="1" data-original="url(#a)"></path></g></svg>