<svg xmlns="http://www.w3.org/2000/svg" version="1.1" xmlns:xlink="http://www.w3.org/1999/xlink" width="512" height="512" x="0" y="0" viewBox="0 0 512 512" style="enable-background:new 0 0 512 512" xml:space="preserve"><rect width="512" height="512" rx="102.4" ry="102.4" fill="#bac8d3" shape="rounded"></rect><g transform="matrix(0.68,0,0,0.68,81.91982116699216,81.91999877929689)"><linearGradient id="a" x1="108.692" x2="403.282" y1="403.295" y2="108.705" gradientUnits="userSpaceOnUse"><stop offset="0" stop-color="#ff506a"></stop><stop offset="1" stop-color="#ffe28f"></stop></linearGradient><path fill="url(#a)" d="M326.451 31.874c-12.667-12.667-33.18-12.678-45.849 0L31.859 280.613c-12.638 12.642-12.638 33.211 0 45.849l153.668 153.664c12.663 12.672 33.18 12.673 45.844 0l248.743-248.738c12.672-12.672 12.673-33.175 0-45.849L326.451 31.874zm67.115 80.071L111.934 393.577l-42.551-42.548L351.019 69.398zM38.337 287.091 287.08 38.352c9.091-9.091 23.803-9.09 32.893 0l24.568 24.568L62.905 344.552l-24.569-24.568c-9.067-9.068-9.067-23.821.001-32.893zm435.3-62.182L224.894 473.648c-9.092 9.092-23.798 9.091-32.889 0l-73.594-73.592 281.633-281.633 73.593 73.593c9.068 9.068 9.068 23.826 0 32.893zM245.074 400.328a4.58 4.58 0 0 1 0 6.478l-40.096 40.096a4.58 4.58 0 1 1-6.478-6.478l40.096-40.096a4.579 4.579 0 0 1 6.478 0zm67.272-67.273a4.58 4.58 0 0 1 0 6.478l-40.096 40.096a4.58 4.58 0 1 1-6.478-6.478l40.096-40.096a4.58 4.58 0 0 1 6.478 0zm67.272-67.272a4.58 4.58 0 0 1 0 6.478l-40.096 40.096a4.58 4.58 0 1 1-6.478-6.478l40.096-40.096a4.58 4.58 0 0 1 6.478 0zm67.268-67.272a4.58 4.58 0 0 1 0 6.478l-40.096 40.096a4.58 4.58 0 1 1-6.478-6.478l40.096-40.096a4.58 4.58 0 0 1 6.478 0zM207.313 369.045l-40.096 40.096a4.58 4.58 0 1 1-6.478-6.478l40.096-40.096a4.58 4.58 0 1 1 6.478 6.478zm211.81-191.546-13.984-13.993c-5.109-5.1-13.42-5.095-18.529.004l-31.721 31.717c-5.1 5.109-5.1 13.42.004 18.529l13.989 13.984c5.141 5.141 13.426 5.099 18.525 0l31.717-31.717c5.101-5.101 5.138-13.385-.001-18.524zm-6.477 12.047-31.717 31.717a3.937 3.937 0 0 1-5.569 0l-13.984-13.984a3.945 3.945 0 0 1-.004-5.574l31.717-31.712a3.946 3.946 0 0 1 5.574-.004l13.984 13.989a3.945 3.945 0 0 1-.001 5.568z" opacity="1" data-original="url(#a)"></path></g></svg>