<svg xmlns="http://www.w3.org/2000/svg" version="1.1" xmlns:xlink="http://www.w3.org/1999/xlink" width="512" height="512" x="0" y="0" viewBox="0 0 200 200" style="enable-background:new 0 0 512 512" xml:space="preserve" class=""><rect width="200" height="200" rx="40" ry="40" fill="#bac8d3" shape="rounded"></rect><g transform="matrix(0.7999999999999998,0,0,0.7999999999999998,20.400000000000034,20.400000000000034)"><linearGradient id="a" x1="65.06" x2="140.74" y1="67.112" y2="142.793" gradientUnits="userSpaceOnUse"><stop offset="0" stop-color="#66adff"></stop><stop offset="1" stop-color="#8f37fa"></stop></linearGradient><path fill="url(#a)" d="M152 94.171V59.809c5.112-.944 9-5.427 9-10.809 0-6.065-4.935-11-11-11-5.382 0-9.865 3.888-10.809 9h-34.362l-8.415-8.414a2 2 0 0 0-2.828 0c-14.709 14.708-17.865 35.958-9.481 53.48l-3.029 3.029c-3.86 3.86-5.102 9.678-3.237 14.754l-6.81 13.613-.744-.498a17.479 17.479 0 0 0-9.755-2.965C50.864 120 43 127.864 43 137.53V162c0 2.206 1.794 4 4 4h68.088a5.919 5.919 0 0 0 5.912-5.912c0-1.976-.98-3.812-2.622-4.912L99 142.197v-21.093a13.988 13.988 0 0 0 4.904-3.18l3.029-3.029a46.458 46.458 0 0 0 20.066 4.572c12.023 0 24.046-4.684 33.414-14.053a2 2 0 0 0 0-2.828zM129.829 72l13.943-13.943a10.938 10.938 0 0 0 4.229 1.752v30.362zM150 42c3.86 0 7 3.14 7 7s-3.14 7-7 7-7-3.14-7-7 3.14-7 7-7zm-10.809 9a10.95 10.95 0 0 0 1.752 4.229L127 69.171 108.829 51zM117 160.088a1.913 1.913 0 0 1-1.912 1.912H47v-24.47c0-7.46 6.069-13.53 13.53-13.53 2.69 0 5.293.791 7.529 2.288l48.093 32.211c.531.356.848.95.848 1.589zm-42.622-34.381 5.861-11.716c.264.314.542.62.836.914l3.02 3.02c2.652 2.652 6.261 4.099 9.939 4.099.321 0 .643-.038.965-.06v17.555zm26.698-10.611a9.927 9.927 0 0 1-4.572 2.617 10.064 10.064 0 0 1-9.579-2.617l-3.02-3.02a9.926 9.926 0 0 1-2.051-2.957c-1.698-3.771-.874-8.271 2.051-11.195l2.169-2.169c2.032 3.431 4.533 6.68 7.512 9.659s6.229 5.48 9.659 7.513zm-4.662-12.51c-16.677-16.677-17.138-42.542-1.383-59.727l61.11 61.11c-17.185 15.755-43.05 15.293-59.727-1.383zM52 141c0 5.514 4.486 10 10 10s10-4.486 10-10-4.486-10-10-10-10 4.486-10 10zm16 0c0 3.309-2.691 6-6 6s-6-2.691-6-6 2.691-6 6-6 6 2.691 6 6z" opacity="1" data-original="url(#a)"></path></g></svg>