<svg xmlns="http://www.w3.org/2000/svg" version="1.1" xmlns:xlink="http://www.w3.org/1999/xlink" width="512" height="512" x="0" y="0" viewBox="0 0 512 512" style="enable-background:new 0 0 512 512" xml:space="preserve"><rect width="512" height="512" rx="102.4" ry="102.4" fill="#bac8d3" shape="rounded"></rect><g transform="matrix(0.6,0,0,0.6,102.40140075683593,92.39970385539345)"><linearGradient id="a" x1="37.096" x2="474.907" y1="255.998" y2="255.998" gradientUnits="userSpaceOnUse"><stop offset="0" stop-color="#58c8df"></stop><stop offset="1" stop-color="#53a7dd"></stop></linearGradient><path fill="url(#a)" fill-rule="evenodd" d="M256 26.389 362.011 96.6 256 166.8 149.993 96.6zm77.089 142.752v-24.59L262.607 191.2a11.907 11.907 0 0 1-13.21 0l-70.437-46.64v24.581L256 220.17zM160.325 185.59l89.075 58.98a11.911 11.911 0 0 0 13.21 0l89.072-58.98a12.014 12.014 0 0 0 5.378-10v-46.93l33.308-22.06a12 12 0 0 0 0-20.01L262.607 2A11.894 11.894 0 0 0 249.4 2L121.639 86.59c0 .012-.047.02-.047.02a11.626 11.626 0 0 0-1.085.82c-.094.091-.189.17-.283.26-.236.22-.472.441-.708.681-.094.11-.189.218-.283.338a6.663 6.663 0 0 0-.613.762c-.095.1-.142.189-.236.289a11.278 11.278 0 0 0-1.274 2.39.744.744 0 0 0-.094.31 7.22 7.22 0 0 0-.331.989c-.047.131-.047.251-.094.382a7.305 7.305 0 0 0-.188 1.01.976.976 0 0 0-.048.369 13.63 13.63 0 0 0-.094 1.391v57.409a11.983 11.983 0 1 0 23.966 0v-35.07l14.72 9.72v46.931a12.012 12.012 0 0 0 5.378 10zM450.894 488H299.547c34.487-15.67 74.3-21.79 119.03-18.2a12.008 12.008 0 0 0 12.974-11.96V290.5h19.343zM61.11 290.5h19.343v167.34a12.008 12.008 0 0 0 12.974 11.96c44.724-3.59 84.543 2.53 118.982 18.2H61.11zm43.309-42.889c54.444-2.471 101.291 9.97 139.6 37v192.868c-36.28-21.729-78.551-32.679-126.107-32.679-4.434 0-8.916.09-13.493.279zm303.118 0v197.468c-53.075-2.229-99.875 8.631-139.552 32.391V284.61c38.308-27.04 85.156-39.46 139.552-37zm55.34 18.889a12.009 12.009 0 0 1 12.03 12V500a12.009 12.009 0 0 1-12.03 12H49.079A12 12 0 0 1 37.1 500V278.5a12 12 0 0 1 11.983-12h31.37v-30.161a12.005 12.005 0 0 1 11.04-11.958c64.02-5.16 119.312 8.07 164.509 39.32 45.2-31.24 100.489-44.471 164.509-39.32a12.005 12.005 0 0 1 11.04 11.958V266.5z" opacity="1" data-original="url(#a)"></path></g></svg>