<svg xmlns="http://www.w3.org/2000/svg" version="1.1" xmlns:xlink="http://www.w3.org/1999/xlink" width="512" height="512" x="0" y="0" viewBox="0 0 512 512" style="enable-background:new 0 0 512 512" xml:space="preserve"><rect width="512" height="512" rx="102.4" ry="102.4" fill="#bac8d3" shape="rounded"></rect><g transform="matrix(0.5499999999999998,0,0,0.5499999999999998,110.20662516355517,115.18749446868898)"><linearGradient id="a" x1="60.464" x2="514.428" y1="526.058" y2="72.094" gradientUnits="userSpaceOnUse"><stop offset="0" stop-color="#faac1e"></stop><stop offset="1" stop-color="#eb1b45"></stop></linearGradient><path fill="url(#a)" d="M492.013 435.529V234.653a15.374 15.374 0 0 0-15.358-15.353h-14.512a15.373 15.373 0 0 0-15.357 15.356v200.42H160.734v-34.118a7 7 0 0 0-7-7H151.2V206.329L472.971 73.047a21.689 21.689 0 1 0-16.6-40.075L144.22 162.387a17.111 17.111 0 0 0-10.147-3.342H43.488a17.145 17.145 0 0 0-17.125 17.125v217.788h-2.006a7 7 0 0 0-7 7v35.276a22.8 22.8 0 0 0 7.16 44.446h462.966a22.8 22.8 0 0 0 4.53-45.151zm-31.227-200.876a1.358 1.358 0 0 1 1.357-1.356h14.512a1.359 1.359 0 0 1 1.358 1.356v200.423h-17.227zM31.357 435.076v-27.118h115.377v27.118zM461.728 45.905a7.689 7.689 0 0 1 5.885 14.208L116.625 205.5a28.473 28.473 0 0 0-7.2-13.528zm-358.437 165.7a14.51 14.51 0 1 1-14.51-14.51 14.526 14.526 0 0 1 14.51 14.512zM40.363 176.17a3.129 3.129 0 0 1 3.125-3.125h75.025l-25.148 10.426a28.509 28.509 0 1 0 22.315 37.57l21.518-8.913v181.83H40.363zm447.12 290.51H24.517a8.8 8.8 0 1 1 0-17.6h462.966a8.8 8.8 0 1 1 0 17.6zm-376.2-199.727H67.429a12.729 12.729 0 0 0-12.715 12.714V352a12.729 12.729 0 0 0 12.715 12.714h43.857A12.728 12.728 0 0 0 124 352v-72.333a12.728 12.728 0 0 0-12.714-12.714zM110 350.712H68.714v-69.759H110z" opacity="1" data-original="url(#a)"></path></g></svg>