<svg xmlns="http://www.w3.org/2000/svg" version="1.1" xmlns:xlink="http://www.w3.org/1999/xlink" width="512" height="512" x="0" y="0" viewBox="0 0 512 512" style="enable-background:new 0 0 512 512" xml:space="preserve" class=""><rect width="512" height="512" rx="102.4" ry="102.4" fill="#bac8d3" shape="rounded"></rect><g transform="matrix(0.5599999999999999,0,0,0.5599999999999999,107.64027715682985,117.6399979019165)"><linearGradient id="a" x1="52.77" x2="503.141" y1="457.562" y2="7.191" gradientUnits="userSpaceOnUse"><stop offset="0" stop-color="#f803fe"></stop><stop offset="1" stop-color="#0ecbde"></stop></linearGradient><path fill="url(#a)" d="M450.448 7.504c-17.559 6.936-36.318 17.981-44.609 26.276l-69.035 69.035C86.147 21.62 110.531 29.455 105.573 28.058c-.163-.069-.331-.085-.497-.143-35.131-9.711-68.715.378-88.431 27.034-2.822 3.811-1.718 9.239 2.355 11.638 5.176 3.064 114.077 66.515 223.661 130.372L127.035 312.585l-64.25-12.61c-14.181-2.812-28.948 1.398-39.434 11.295L4.233 329.266a8.016 8.016 0 0 0-2.406 7.155 8.007 8.007 0 0 0 4.612 5.968l75.132 33.726c-10.743 20.542-18.578 42.167-14.239 55.591L52.779 446.26c-3.124 3.124-3.124 8.186 0 11.31s8.186 3.125 11.31 0l14.436-14.437c14.99 5.209 39.292-5.918 53.523-13.167l29.035 76.806a8.005 8.005 0 0 0 5.683 4.968c2.736.608 5.404-.206 7.284-1.968l19.129-18.012c10.557-9.975 15.649-24.472 13.63-38.712l-9.308-69.47 115.855-115.855c46.153 79.056 126.872 217.575 130.301 223.56 2.366 4.131 7.839 5.314 11.709 2.445 27.792-20.645 37.677-56.294 25.796-93.038l-73.589-227.184 68.996-68.996c8.291-8.288 19.34-27.05 26.273-44.609 6.846-17.341 12.455-40.555.309-52.701-12.144-12.154-35.358-6.546-52.703.304zm-265.671 137.21 56.143-56.143 28.279 9.16-60.764 60.767zm-75.973-44.274 41.291-41.291 28.367 9.19-45.926 45.932-23.732-13.831zM70.856 78.324l33.872-33.872 28.281 9.161-38.497 38.498-23.656-13.787zm15.078-37.698L56.566 69.994c-8.812-5.138-16.061-9.365-21.175-12.35 12.857-12.776 30.875-18.725 50.543-17.018zm60.894 81.973 48.72-48.726 28.286 9.163-53.349 53.349-5.426-3.162c-6.077-3.541-12.169-7.09-18.231-10.624zm75.899 44.228 63.557-63.56 37.818 12.251-69.742 69.742zM23.925 332.703l10.4-9.787c6.737-6.358 16.22-9.069 25.359-7.249l54.102 10.622c-5.342 6.57-15.073 20.103-24.384 35.807zM182.2 480.121l-10.389 9.787-25.58-67.67c15.003-8.667 28.991-18.227 36.978-24.853l7.751 57.85c1.301 9.17-1.976 18.481-8.76 24.886zM421.816 269.39l-56.186 56.186-13.795-23.651 60.82-60.816zm14.695 45.369-48.759 48.756-13.789-23.65 53.387-53.387zm14.723 45.453-41.321 41.321-13.83-23.729 45.963-45.96zm14.696 45.371-33.903 33.903-13.785-23.661 38.526-38.526zm-13.256 69.367c-2.984-5.132-7.198-12.372-12.321-21.169l29.383-29.383c1.67 19.635-4.292 37.657-17.062 50.552zm-45.553-250.928-63.62 63.617c-6.67-11.431-12.916-22.133-18.45-31.611l69.822-69.822zm80.84-169.995c-6.635 16.809-16.954 33.424-22.703 39.173C154.643 403.737 146.701 416.19 93.585 428.073l34.77-34.772c3.124-3.124 3.124-8.186 0-11.31s-8.186-3.124-11.31 0l-34.781 34.784c12.868-57.644 37.927-74.679 334.886-371.683 5.753-5.749 22.367-16.067 39.173-22.707 8.19-3.234 29.286-10.105 35.517-3.874 3.354 3.358 4.35 14.668-3.879 35.516zm-44.32 39.719a8 8 0 0 1-7.799 6.257c-5.145 0-8.925-4.758-7.815-9.74 1.062-4.742-3.119-8.967-7.936-7.944-4.288.984-8.584-1.75-9.553-6.061-.961-4.304 1.75-8.584 6.061-9.545 16.101-3.634 30.675 10.763 27.042 27.033z" opacity="1" data-original="url(#a)"></path></g></svg>