<svg xmlns="http://www.w3.org/2000/svg" version="1.1" xmlns:xlink="http://www.w3.org/1999/xlink" width="512" height="512" x="0" y="0" viewBox="0 0 512 512" style="enable-background:new 0 0 512 512" xml:space="preserve" fill-rule="evenodd" class=""><rect width="512" height="512" rx="102.4" ry="102.4" fill="#bac8d3" shape="rounded"></rect><g transform="matrix(0.67,0,0,0.67,84.47999999999999,84.47999999999999)"><linearGradient id="a" x1="104.148" x2="407.851" y1="256" y2="256" gradientUnits="userSpaceOnUse"><stop offset="0" stop-color="#f071ab"></stop><stop offset="1" stop-color="#22abe2"></stop></linearGradient><path fill="url(#a)" d="M251 372c-22 0-39-24-40-25-21-31-7-52 8-74 10-15 20-30 23-52 0-2 1-4 3-5 3 0 5 0 7 2 23 20 68 74 58 115-4 19-18 31-43 38-2 1-5-1-7-3-1-3 0-6 2-8 16-11 19-34 15-51-1-1-1-3-2-5-1 13-7 27-20 33-2 1-5 1-6 0-2-2-3-4-3-6 1-6 0-11-1-14-2 2-3 4-3 6-3 12 5 30 13 38 2 1 2 3 2 5 0 3-2 6-6 6zm92 104h-4v24c0 6-5 12-12 12H185c-7 0-12-6-12-12v-24h-4c-36 0-65-29-65-65V177c0-36 29-65 65-65h19V47h-12c-13 0-23-10-23-23s10-24 23-24h160c13 0 23 11 23 24s-10 23-23 23h-12v65h19c36 0 65 29 65 65v234c0 36-29 65-65 65zM169 124c-29 0-53 24-53 53v16h280v-16c0-29-24-53-53-53H194zm-53 271v16c0 29 24 53 53 53h174c29 0 53-24 53-53v-16zm69 81v24h142v-24zm9-441h142c6 0 11-5 11-11 0-7-5-12-11-12H176c-6 0-11 5-11 12 0 6 5 11 11 11zm6 77h50V97h-8c-4 0-6-2-6-6 0-3 2-6 6-6h28c4 0 6 3 6 6 0 4-2 6-6 6h-8v15h50V47H200zm-84 271h280V205H116zm135-149c-4 18-14 33-22 46-15 22-24 36-8 60 0 0 6 9 15 15-5-11-8-24-6-34 2-9 7-15 15-18 3-1 6 0 7 2 1 1 4 6 6 14 4-5 5-12 5-17 0-6-2-11-4-12-3-1-5-4-4-7s4-5 7-5c12 1 22 12 26 28 4 13 3 30-3 44 7-5 12-12 14-19 6-30-25-74-48-97z" opacity="1" data-original="url(#a)"></path></g></svg>