<svg xmlns="http://www.w3.org/2000/svg" version="1.1" xmlns:xlink="http://www.w3.org/1999/xlink" width="512" height="512" x="0" y="0" viewBox="0 0 512 512" style="enable-background:new 0 0 512 512" xml:space="preserve"><rect width="512" height="512" rx="102.4" ry="102.4" fill="#bac8d3" shape="rounded"></rect><g transform="matrix(0.6,0,0,0.6,102.40020141601565,97.39982528686522)"><linearGradient id="a" x1="58.285" x2="453.715" y1="484.579" y2="89.15" gradientUnits="userSpaceOnUse"><stop offset="0" stop-color="#ff506a"></stop><stop offset="1" stop-color="#ffe28f"></stop></linearGradient><path fill="url(#a)" d="M446.219 120.252h-57.341c27.041-25.656 27.482-68.508 1.166-94.773-25.928-25.977-67.885-25.895-93.677-.043-10.586 10.582-27.455 35.088-40.378 62.256-12.916-27.159-29.766-51.666-40.352-62.251-25.837-25.896-67.79-25.903-93.682.038-26.769 26.718-25.384 69.789 1.159 94.773H65.777c-22.296 0-40.432 18.141-40.432 40.436 0 20.224 14.939 36.977 34.353 39.924v271.281c0 18.797 15.288 34.085 34.085 34.085h324.435c18.797 0 34.085-15.288 34.085-34.085V200.612c19.413-2.949 34.353-19.7 34.353-39.923-.001-22.296-18.142-40.437-40.437-40.437zm-142.916-87.89c22.002-22.041 57.743-22.069 79.81.048l.01.01c21.669 21.63 25.403 60.616-9.239 87.833H339.81c12.776-7.628 23.767-15.463 29.839-21.535 14.621-14.631 14.63-38.194 0-52.834-14.647-14.647-38.341-14.589-52.881-.048-14.888 14.888-33.859 48.613-43.313 74.416h-20.013c1.833-5.828 4.183-12.104 7.066-18.787 12.764-29.863 31.575-57.888 42.795-69.103zm7.84 158.956H200.852v-61.263h110.291zm-119.029-71.066c-18.055-9.443-35.036-20.669-42.832-28.465-10.79-10.79-10.796-28.175 0-38.972 10.953-10.953 28.456-10.611 39.02-.048 13.809 13.809 30.551 44.215 39.657 67.485h-35.845zm170.604-28.465c-7.795 7.795-24.772 19.023-42.825 28.465h-35.852c9.107-23.271 25.847-53.675 39.657-67.485 10.576-10.576 28.079-10.893 39.02.048a27.502 27.502 0 0 1 0 38.972zM128.887 32.41c22.004-22.053 57.744-22.154 79.815-.043 10.986 10.986 29.235 38.093 41.966 67.24-2.756 6.546-5.359 13.56-7.431 20.645h-4.716c-9.446-25.805-28.394-59.525-43.288-74.416-14.53-14.53-38.223-14.61-52.881.048-14.621 14.621-14.63 38.204 0 52.834 6.068 6.068 17.034 13.907 29.794 21.535h-34.043c-34.048-26.769-31.47-65.628-9.216-87.843zM35.148 160.689c0-16.892 13.742-30.634 30.629-30.634H191.05v61.263H65.777c-16.887 0-30.629-13.742-30.629-30.629zm34.353 311.205V201.121h138.871v295.055H93.783c-13.388 0-24.282-10.894-24.282-24.282zm148.674 24.282V201.121h75.651v295.055zm224.324-24.282c0 13.388-10.894 24.282-24.282 24.282H303.628V201.121h138.871zm3.72-280.576H320.946v-61.263h125.273c16.892 0 30.634 13.742 30.634 30.634-.001 16.887-13.743 30.629-30.634 30.629z" opacity="1" data-original="url(#a)"></path></g></svg>