<svg xmlns="http://www.w3.org/2000/svg" version="1.1" xmlns:xlink="http://www.w3.org/1999/xlink" width="512" height="512" x="0" y="0" viewBox="0 0 512 512" style="enable-background:new 0 0 512 512" xml:space="preserve"><rect width="512" height="512" rx="102.4" ry="102.4" fill="#bac8d3" shape="rounded"></rect><g transform="matrix(0.6199999999999999,0,0,0.6199999999999999,97.34046803138685,97.3377282714844)"><linearGradient id="a" x1="256" x2="256" y1="400.004" y2="111.995" gradientUnits="userSpaceOnUse"><stop offset="0" stop-color="#6c54a3"></stop><stop offset="1" stop-color="#00b1d2"></stop></linearGradient><path fill="url(#a)" fill-rule="evenodd" d="M9.369 390.616a32 32 0 0 1 0-45.243l224-224a32 32 0 0 1 45.263 0l224 224a32 32 0 1 1-45.258 45.243L256 189.261 54.631 390.616a32 32 0 0 1-45.262 0zm5.658-5.655a23.993 23.993 0 0 0 33.948 0L256 177.948l207.026 207.011a24 24 0 1 0 33.945-33.93l-224-224a24 24 0 0 0-33.949 0l-224 224a23.99 23.99 0 0 0 .005 33.932z" opacity="1" data-original="url(#a)"></path></g></svg>