<svg xmlns="http://www.w3.org/2000/svg" version="1.1" xmlns:xlink="http://www.w3.org/1999/xlink" width="512" height="512" x="0" y="0" viewBox="0 0 512 512" style="enable-background:new 0 0 512 512" xml:space="preserve"><rect width="512" height="512" rx="102.4" ry="102.4" fill="#bac8d3" shape="rounded"></rect><g transform="matrix(0.6,0,0,0.6,102.400004991889,97.39947967529298)"><linearGradient id="a" x1="57.61" x2="426.012" y1="531.325" y2="162.923" gradientUnits="userSpaceOnUse"><stop offset="0" stop-color="#fcc60e"></stop><stop offset="1" stop-color="#e92e29"></stop></linearGradient><path fill="url(#a)" d="M505.081 463.93h-35.162V209.696a6.92 6.92 0 0 0-6.919-6.919h-87.428v-49.838a6.915 6.915 0 0 0-3.95-6.248L269.023 97.917V41.151a6.926 6.926 0 0 0-3.104-5.773 6.9 6.9 0 0 0-6.527-.592L152.838 80.201a6.922 6.922 0 0 0-4.207 6.365v59.455H49a6.92 6.92 0 0 0-6.919 6.919v310.99H6.919a6.92 6.92 0 0 0 0 13.838h498.162a6.92 6.92 0 0 0 0-13.838zm-49-181.934h-40.869V263.96h40.869zm0 67.297h-40.869v-18.038h40.869zm0 67.297h-40.869v-18.038h40.869zm0-199.975v33.507h-47.788a6.92 6.92 0 0 0-6.919 6.919v31.874a6.92 6.92 0 0 0 6.919 6.919h47.788v21.583h-47.788a6.92 6.92 0 0 0-6.919 6.919v31.876a6.92 6.92 0 0 0 6.919 6.919h47.788v21.583h-47.788a6.92 6.92 0 0 0-6.919 6.919v31.876a6.92 6.92 0 0 0 6.919 6.919h47.788v33.502h-80.509V216.615zM361.734 463.93h-21.68V147.004l21.68 10.307zm-35.518 0H304.54l-.004-333.812 21.68 10.307zm-35.518-340.39.004 340.391h-21.68V113.234zm-128.23-32.402 92.716-39.516V463.93h-92.716zm-106.549 68.72h92.712V463.93H55.919zm125.266-20.599a6.92 6.92 0 0 1 6.919-6.919h46.045a6.92 6.92 0 0 1 0 13.838h-46.045a6.92 6.92 0 0 1-6.919-6.919zm0 46.631a6.92 6.92 0 0 1 6.919-6.919h46.045a6.92 6.92 0 0 1 0 13.838h-46.045a6.92 6.92 0 0 1-6.919-6.919zm0 46.628a6.92 6.92 0 0 1 6.919-6.919h46.045a6.92 6.92 0 0 1 0 13.838h-46.045a6.92 6.92 0 0 1-6.919-6.919zm0 46.631a6.92 6.92 0 0 1 6.919-6.919h46.045a6.92 6.92 0 0 1 0 13.838h-46.045a6.92 6.92 0 0 1-6.919-6.919zm0 46.628a6.92 6.92 0 0 1 6.919-6.919h46.045a6.92 6.92 0 0 1 0 13.838h-46.045a6.92 6.92 0 0 1-6.919-6.919zm0 46.631a6.92 6.92 0 0 1 6.919-6.919h46.045a6.92 6.92 0 0 1 0 13.838h-46.045a6.92 6.92 0 0 1-6.919-6.919zm0 46.631a6.92 6.92 0 0 1 6.919-6.919h46.045a6.92 6.92 0 0 1 0 13.838h-46.045a6.92 6.92 0 0 1-6.919-6.919zm-55.726-238.748H79.09a6.92 6.92 0 0 0-6.919 6.919v231.831a6.92 6.92 0 0 0 6.919 6.919h46.369a6.92 6.92 0 0 0 6.919-6.919V187.21a6.92 6.92 0 0 0-6.919-6.919zm-39.45 92.743v-32.529h32.532v32.529zm32.532 13.838v32.529H86.009v-32.529zm-32.532 46.367h32.532v32.529H86.009zm32.532-139.11v32.538H86.009v-32.538zM86.009 412.122v-32.516h32.532v32.516z" opacity="1" data-original="url(#a)"></path></g></svg>