<svg xmlns="http://www.w3.org/2000/svg" version="1.1" xmlns:xlink="http://www.w3.org/1999/xlink" width="512" height="512" x="0" y="0" viewBox="0 0 64 64" style="enable-background:new 0 0 512 512" xml:space="preserve"><rect width="64" height="64" rx="12.8" ry="12.8" fill="#bac8d3" shape="rounded"></rect><g transform="matrix(0.57,0,0,0.57,13.760000000000002,13.759700180292132)"><linearGradient id="a" x1="5.444" x2="52.285" y1="64.541" y2="4.895" gradientUnits="userSpaceOnUse"><stop offset="0" stop-color="#fff200"></stop><stop offset="1" stop-color="#cd118c"></stop></linearGradient><path fill="url(#a)" d="M17 16h-6a1 1 0 0 0-1 1v10a1 1 0 0 0 1 1h6a1 1 0 0 0 1-1V17a1 1 0 0 0-1-1zm-5 2h4v5h-4zm4 8h-4v-1h4zm15 1V17a1 1 0 0 0-1-1h-6a1 1 0 0 0-1 1v10a1 1 0 0 0 1 1h6a1 1 0 0 0 1-1zm-6-9h4v5h-4zm4 8h-4v-1h4zm32-1h-.5l-5.7-7.6a1.014 1.014 0 0 0-.8-.4H37v-2.42l1.78.4A1.635 1.635 0 0 0 39 15a.994.994 0 0 0 1-1v-3a1.015 1.015 0 0 0-.78-.98l-36-8a1.037 1.037 0 0 0-.85.2A1.022 1.022 0 0 0 2 3v3a1.015 1.015 0 0 0 .78.98L4 7.25V61a1 1 0 0 0 1 1h54a1 1 0 0 0 1-1V31h1a1 1 0 0 0 1-1v-4a1 1 0 0 0-1-1zm-7.5-6 4.5 6H37v-6zM4 5.2v-.95l34 7.55v.95zM9 60H6v-2h3zm12 0H11v-2h10zm-9-4V38h8v18zm46 4H23v-2h35zm0-4H22V37a1 1 0 0 0-1-1H11a1 1 0 0 0-1 1v19H6V7.69l29 6.45V30a1 1 0 0 0 1 1h22zm2-27H37v-2h23zm-5 7H43a1 1 0 0 0-1 1v11a1 1 0 0 0 1 1h12a1 1 0 0 0 1-1V37a1 1 0 0 0-1-1zm-11 2h4v6h-4zm10 9H44v-1h10zm0-3h-4v-6h4zm-15-8H27a1 1 0 0 0-1 1v11a1 1 0 0 0 1 1h12a1 1 0 0 0 1-1V37a1 1 0 0 0-1-1zm-11 2h4v6h-4zm10 9H28v-1h10zm0-3h-4v-6h4z" opacity="1" data-original="url(#a)"></path></g></svg>