<svg xmlns="http://www.w3.org/2000/svg" version="1.1" xmlns:xlink="http://www.w3.org/1999/xlink" width="512" height="512" x="0" y="0" viewBox="0 0 512 512" style="enable-background:new 0 0 512 512" xml:space="preserve" class=""><rect width="512" height="512" rx="102.4" ry="102.4" fill="#bac8d3" shape="rounded"></rect><g transform="matrix(0.6699999999999999,0,0,0.6699999999999999,84.47983005523682,84.4798489379883)"><linearGradient id="a" x1="87.296" x2="424.705" y1="377.899" y2="40.49" gradientUnits="userSpaceOnUse"><stop offset="0" stop-color="#fc4422"></stop><stop offset="1" stop-color="#ffbb32"></stop></linearGradient><path fill="url(#a)" d="m449.801 66.733-192.77-40.626a5.014 5.014 0 0 0-2.063 0L62.199 66.733a5.001 5.001 0 0 0-3.969 4.893v188.09c0 52.116 21.106 104.639 59.429 147.894 37.12 41.897 87.261 70.447 137.566 78.33a5.038 5.038 0 0 0 1.549-.001c50.305-7.882 100.446-36.433 137.566-78.33 38.323-43.255 59.429-95.778 59.429-147.894V71.626a5 5 0 0 0-3.968-4.893zm-6.031 192.983c0 101.002-85.904 199.833-187.77 216.221C154.134 459.549 68.23 360.719 68.23 259.716V75.682L256 36.11l187.77 39.572zM254.969 71.073l-148.77 31.353a5.001 5.001 0 0 0-3.969 4.893v152.397c0 40.104 16.337 81.3 46.002 115.997C176.99 409.351 215.905 433.219 255 441.2a5.026 5.026 0 0 0 2 0c39.095-7.981 78.01-31.85 106.768-65.487 29.665-34.697 46.002-75.893 46.002-115.997V107.319a5.001 5.001 0 0 0-3.969-4.893l-148.77-31.353a5.044 5.044 0 0 0-2.062 0zm144.801 40.302v148.341c0 76.715-65.736 154.997-143.77 171.479-78.034-16.482-143.77-94.764-143.77-171.479V111.375L256 81.076zM228.444 284.173l106.687-106.688a5.001 5.001 0 0 1 7.071 7.071L231.98 294.78c-.977.976-2.256 1.464-3.536 1.464s-2.559-.488-3.536-1.464l-55.111-55.111a5 5 0 1 1 7.071-7.071z" opacity="1" data-original="url(#a)"></path></g></svg>