<svg xmlns="http://www.w3.org/2000/svg" version="1.1" xmlns:xlink="http://www.w3.org/1999/xlink" width="512" height="512" x="0" y="0" viewBox="0 0 64 64" style="enable-background:new 0 0 512 512" xml:space="preserve" class=""><rect width="64" height="64" rx="12.8" ry="12.8" fill="#bac8d3" shape="rounded"></rect><g transform="matrix(0.65,0,0,0.65,11.19999966621399,11.19825096130371)"><linearGradient id="a" x1="5.105" x2="58.895" y1="32" y2="32" gradientUnits="userSpaceOnUse"><stop offset="0" stop-color="#ffa68d"></stop><stop offset="1" stop-color="#fd3a84"></stop></linearGradient><path fill="url(#a)" d="M55.893 12.034H29.945V7a3.003 3.003 0 0 0-3-3H14.22a3.003 3.003 0 0 0-3 3v5.034H8.107a3.005 3.005 0 0 0-3.002 3.001v37.501a3.005 3.005 0 0 0 3.002 3.001h10.966v.942a3.511 3.511 0 1 0 7.022 0v-.942h29.798a3.005 3.005 0 0 0 3.002-3V15.034a3.005 3.005 0 0 0-3.002-3zM14.221 6h12.724a1.001 1.001 0 0 1 1 1v6.003a.102.102 0 0 0 0 .063v34.316a1.001 1.001 0 0 1-1 1h-6.838a.108.108 0 0 0-.068 0H14.22a1.001 1.001 0 0 1-1-1v-34.31a.123.123 0 0 0 0-.077V7a1.001 1.001 0 0 1 1-1zM8.107 53.537a1.002 1.002 0 0 1-1.002-1V15.034a1.002 1.002 0 0 1 1.002-1h3.114v33.347a3.003 3.003 0 0 0 3 3h4.852v3.155zm15.988 2.942a1.511 1.511 0 0 1-3.022 0v-.942h3.022zm32.8-3.943a1.002 1.002 0 0 1-1.002 1.001h-34.82v-3.155h5.872a3.003 3.003 0 0 0 3-3V14.034h25.948a1.002 1.002 0 0 1 1.002 1.001zM51.618 18.15H35.055a1 1 0 0 0-1 1v8.845a1 1 0 0 0 1 1h16.563a1 1 0 0 0 1-1V19.15a1 1 0 0 0-1-1zm-1 8.845H36.055V20.15h14.563zm-13.285 8.593a2.001 2.001 0 0 1 0-4.002 2.001 2.001 0 0 1 0 4.002zm6.004 0a2.001 2.001 0 0 1 0-4.002 2.001 2.001 0 0 1 0 4.002zm6.003 0a2.001 2.001 0 0 1 0-4.002 2.001 2.001 0 0 1 0 4.002zm-12.007 6.004a2.001 2.001 0 0 1 0-4.002 2.001 2.001 0 0 1 0 4.002zm6.004 0a2.001 2.001 0 0 1 0-4.002 2.001 2.001 0 0 1 0 4.002zm6.003 0a2.001 2.001 0 0 1 0-4.002 2.001 2.001 0 0 1 0 4.002zm-12.007 6.003a2.001 2.001 0 0 1 0-4.002 2.001 2.001 0 0 1 0 4.002zm6.004 0a2.001 2.001 0 0 1 0-4.002 2.001 2.001 0 0 1 0 4.002zm6.003 0a2.001 2.001 0 0 1 0-4.002 2.001 2.001 0 0 1 0 4.002z" opacity="1" data-original="url(#a)"></path></g></svg>