<svg xmlns="http://www.w3.org/2000/svg" version="1.1" xmlns:xlink="http://www.w3.org/1999/xlink" width="512" height="512" x="0" y="0" viewBox="0 0 64 64" style="enable-background:new 0 0 512 512" xml:space="preserve"><rect width="64" height="64" rx="12.8" ry="12.8" fill="#bac8d3" shape="rounded"></rect><g transform="matrix(0.7,0,0,0.7,9.600000572204593,9.600000000000001)"><linearGradient id="a" x1="15.047" x2="48.953" y1="32" y2="32" gradientUnits="userSpaceOnUse"><stop offset="0" stop-color="#9cffac"></stop><stop offset="1" stop-color="#00b59c"></stop></linearGradient><path fill="url(#a)" d="M44.953 4H19.047a4.004 4.004 0 0 0-4 4v48a4.004 4.004 0 0 0 4 4h25.906a4.004 4.004 0 0 0 4-4V8a4.004 4.004 0 0 0-4-4zm-7.571 2-1 2h-8.764l-1-2zm9.571 50a2.002 2.002 0 0 1-2 2H19.047a2.002 2.002 0 0 1-2-2V8a2.002 2.002 0 0 1 2-2h5.335l1.724 3.447A1 1 0 0 0 27 10h10a1 1 0 0 0 .895-.553L39.618 6h5.335a2.002 2.002 0 0 1 2 2zM39 29.25h-5.727l3.199-13.125a1 1 0 0 0-1.834-.744l-10.5 17.862A1.007 1.007 0 0 0 25 34.75h5.727l-3.199 13.125a1 1 0 0 0 1.834.744l10.5-17.862A1.007 1.007 0 0 0 39 29.25zm-7.92 12.501 1.892-7.764A1.007 1.007 0 0 0 32 32.75h-5.252l6.173-10.501-1.893 7.764A1 1 0 0 0 32 31.25h5.252z" opacity="1" data-original="url(#a)"></path></g></svg>