<svg xmlns="http://www.w3.org/2000/svg" version="1.1" xmlns:xlink="http://www.w3.org/1999/xlink" width="512" height="512" x="0" y="0" viewBox="0 0 32 32" style="enable-background:new 0 0 512 512" xml:space="preserve" class=""><rect width="32" height="32" rx="6.4" ry="6.4" fill="#bac8d3" shape="rounded"></rect><g transform="matrix(0.6199999999999999,0,0,0.6199999999999999,6.0799998188018805,6.079983148574831)"><linearGradient id="a" x1="7.621" x2="24.379" y1="30.513" y2="1.487" gradientUnits="userSpaceOnUse"><stop offset="0" stop-color="#515fab"></stop><stop offset="1" stop-color="#5db9bf"></stop></linearGradient><path fill="url(#a)" d="M26 8H6a3 3 0 0 0-3 3v10a3 3 0 0 0 3 3h20a3 3 0 0 0 3-3V11a3 3 0 0 0-3-3zm1 13a1 1 0 0 1-1 1H6a1 1 0 0 1-1-1V11a1 1 0 0 1 1-1h20a1 1 0 0 1 1 1zM3 5a1 1 0 0 1 1-1h20.7l-.252-.168a1 1 0 0 1 1.11-1.664l3 2A1 1 0 0 1 28 6H4a1 1 0 0 1-1-1zm26 22a1 1 0 0 1-1 1H7.3l.252.168a1 1 0 0 1-1.11 1.664l-3-2A1 1 0 0 1 4 26h24a1 1 0 0 1 1 1zM16 12a4 4 0 1 0 4 4 4 4 0 0 0-4-4zm0 6a2 2 0 1 1 2-2 2 2 0 0 1-2 2zm-6-5a1 1 0 0 1-1 1H8a1 1 0 0 1 0-2h1a1 1 0 0 1 1 1zm15 6a1 1 0 0 1-1 1h-1a1 1 0 0 1 0-2h1a1 1 0 0 1 1 1z" data-name="Layer 2" opacity="1" data-original="url(#a)"></path></g></svg>