<svg xmlns="http://www.w3.org/2000/svg" version="1.1" xmlns:xlink="http://www.w3.org/1999/xlink" width="512" height="512" x="0" y="0" viewBox="0 0 512 512" style="enable-background:new 0 0 512 512" xml:space="preserve"><rect width="512" height="512" rx="102.4" ry="102.4" fill="#bac8d3" shape="rounded"></rect><g transform="matrix(0.65,0,0,0.65,79.60019726753237,74.59995727539064)"><linearGradient id="a" x1="129.841" x2="433.235" y1="447.049" y2="143.655" gradientUnits="userSpaceOnUse"><stop offset="0" stop-color="#696eff"></stop><stop offset="1" stop-color="#f8acff"></stop></linearGradient><path fill="url(#a)" d="M479.339 213.841h-63.943L346.311 59.074c-5.624-12.605-20.452-18.281-33.06-12.655L22.467 176.22c-12.629 5.633-18.295 20.424-12.655 33.06l83.092 186.146c5.624 12.603 20.403 18.311 33.063 12.655l9.902-4.42v39.061c0 13.804 11.229 25.032 25.032 25.032H479.34c13.804 0 25.032-11.229 25.032-25.032V238.873c-.001-13.804-11.23-25.032-25.033-25.032zm15.292 25.032v22.54H145.607v-22.54c0-8.432 6.86-15.292 15.292-15.292h318.439c8.433 0 15.293 6.86 15.293 15.292zm0 65.162H145.607v-32.882h349.024zm-372.636 95.152c-7.718 3.443-16.753-.012-20.198-7.733L18.705 205.309c-3.443-7.713.012-16.751 7.733-20.196L317.222 55.312c7.631-3.411 16.732-.029 20.196 7.733l67.312 150.796H160.9c-13.804 0-25.032 11.229-25.032 25.032v154.122zm357.344 58.828H160.9c-8.432 0-15.292-6.86-15.292-15.292V313.775h349.024v128.947c-.001 8.432-6.861 15.293-15.293 15.293zM455.41 346.942h-61.35c-9.985 0-18.108 8.123-18.108 18.108v32.934c0 9.985 8.123 18.11 18.108 18.11h61.35c9.985 0 18.108-8.125 18.108-18.11V365.05c-.001-9.985-8.124-18.108-18.108-18.108zm8.367 51.042c0 4.616-3.755 8.37-8.368 8.37h-61.35c-4.613 0-8.368-3.755-8.368-8.37V365.05c0-4.613 3.755-8.368 8.368-8.368h61.35c4.613 0 8.368 3.755 8.368 8.368zm-107.415-34.87a4.87 4.87 0 0 1-4.87 4.87H166.695a4.87 4.87 0 0 1 0-9.74h184.798a4.87 4.87 0 0 1 4.869 4.87zm-166.904 36.808a4.87 4.87 0 0 1-4.87 4.87h-17.894a4.87 4.87 0 0 1 0-9.74h17.894a4.87 4.87 0 0 1 4.87 4.87zm43.966 0a4.87 4.87 0 0 1-4.87 4.87H210.66a4.87 4.87 0 0 1 0-9.74h17.894a4.87 4.87 0 0 1 4.87 4.87zm43.968 0a4.87 4.87 0 0 1-4.87 4.87h-17.894a4.87 4.87 0 0 1 0-9.74h17.894a4.87 4.87 0 0 1 4.87 4.87zm43.965 0a4.87 4.87 0 0 1-4.87 4.87h-17.891a4.87 4.87 0 0 1 0-9.74h17.891a4.87 4.87 0 0 1 4.87 4.87z" opacity="1" data-original="url(#a)"></path></g></svg>