<svg xmlns="http://www.w3.org/2000/svg" version="1.1" xmlns:xlink="http://www.w3.org/1999/xlink" width="512" height="512" x="0" y="0" viewBox="0 0 512 512" style="enable-background:new 0 0 512 512" xml:space="preserve"><rect width="512" height="512" rx="102.4" ry="102.4" fill="#bac8d3" shape="rounded"></rect><g transform="matrix(0.72,0,0,0.72,71.69399658203128,71.67999679565432)"><linearGradient id="a" x1="256.05" x2="256.05" y1="41" y2="471" gradientUnits="userSpaceOnUse"><stop offset="0" stop-color="#f704fe"></stop><stop offset="1" stop-color="#24bce3"></stop></linearGradient><path fill="url(#a)" d="M310.1 113.1c-2.7 0-4.9-2.2-4.9-4.9V69.5c0-2.7 2.2-4.9 4.9-4.9s4.9 2.2 4.9 4.9v38.7c0 2.7-2.2 4.9-4.9 4.9zm22.2 0c-2.7 0-4.9-2.2-4.9-4.9V69.5c0-2.7 2.2-4.9 4.9-4.9s4.9 2.2 4.9 4.9v38.7c0 2.7-2.2 4.9-4.9 4.9zm-152.6 0c-2.7 0-4.9-2.2-4.9-4.9V69.5c0-2.7 2.2-4.9 4.9-4.9s4.9 2.2 4.9 4.9v38.7c0 2.7-2.2 4.9-4.9 4.9zm22.2 0c-2.7 0-4.9-2.2-4.9-4.9V69.5c0-2.7 2.2-4.9 4.9-4.9s4.9 2.2 4.9 4.9v38.7c-.1 2.7-2.2 4.9-4.9 4.9zM313.1 471H198.9c-13 0-23.7-9.6-23.7-21.3v-8.1c0-2.7 2.2-4.9 4.9-4.9s4.9 2.2 4.9 4.9v8.1c0 6.4 6.2 11.5 13.9 11.5H313c7.7 0 13.9-5.2 13.9-11.5v-8.1c0-2.7 2.2-4.9 4.9-4.9s4.9 2.2 4.9 4.9v8.1c0 11.7-10.6 21.3-23.6 21.3zm25.2-396.7H173.8c-6.5 0-11.8-5.3-11.8-11.8v-9.7c0-6.5 5.3-11.8 11.8-11.8h164.4c6.5 0 11.8 5.1 11.9 11.7V62.5c0 6.5-5.3 11.8-11.8 11.8zM173.8 50.8c-1.1 0-2.1.9-2.1 2.1v9.7c0 1.1.9 2.1 2.1 2.1h164.5c1.1 0 2.1-.9 2.1-2.1V53c-.1-1.2-1-2.1-2.2-2.1H173.8zm82.2 62.3c-2.7 0-4.9-2.2-4.9-4.9v-19c0-2.7 2.2-4.9 4.9-4.9s4.9 2.2 4.9 4.9v19c0 2.7-2.2 4.9-4.9 4.9zm11.3-18.9h-22.7c-2.7 0-4.9-2.2-4.9-4.9s2.2-4.9 4.9-4.9h22.7c2.7 0 4.9 2.2 4.9 4.9s-2.2 4.9-4.9 4.9zm72.2 352.3h-167c-24.3 0-44.1-19.8-44.1-44.1V147.5c0-24.3 19.8-44.1 44.1-44.1h166.9c24.3 0 44.1 19.8 44.1 44.1v254.9c.1 11.7-4.5 22.7-12.8 31.1s-19.4 13-31.2 13zm-167-333.3c-18.9 0-34.3 15.4-34.3 34.3v254.9c0 18.9 15.4 34.3 34.3 34.3h166.9c9.2 0 17.9-3.6 24.4-10.1 6.4-6.5 10-15.1 9.9-24.2V147.5c0-18.9-15.4-34.3-34.3-34.3zM378.7 164H133.3c-2.7 0-4.9-2.2-4.9-4.9s2.2-4.9 4.9-4.9h245.5c2.7 0 4.9 2.2 4.9 4.9s-2.3 4.9-5 4.9zm0 231.6H133.3c-2.7 0-4.9-2.2-4.9-4.9s2.2-4.9 4.9-4.9h245.5c2.7 0 4.9 2.2 4.9 4.9-.1 2.7-2.3 4.9-5 4.9zM256 325.9c-21.9 0-39.8-17.8-39.9-39.7-1.1-16.7 9.4-29.1 9.9-29.7.9-1.1 2.3-1.7 3.7-1.7s2.8.6 3.7 1.7l4.1 4.8c1.7-5.6 4.4-8.2 5.1-8.8 8.6-7.5.3-20.2-.1-20.8-1.2-1.8-1.1-4.1.2-5.7 1.3-1.7 3.5-2.3 5.5-1.6 21.8 8 27.5 23.5 28.5 35l2.9-3.1c1-1 2.4-1.6 3.8-1.5s2.7.8 3.6 1.9c.4.5 9.7 12.9 8.7 29.4.1 22-17.8 39.8-39.7 39.8zm-25.8-58.2c-2.3 4.1-4.9 10.6-4.3 17.9v.4c0 16.6 13.5 30.1 30.1 30.1s30.1-13.5 30.1-30.1v-.3c.5-7.4-1.7-13.8-3.8-17.9l-7.8 8.1c-1.6 1.6-4 2-6 .9-1.9-1.1-2.9-3.4-2.3-5.6.3-1 5.2-19.6-10.5-31.7 1.1 6.8 0 14.5-6.8 20.4-.2.2-3.3 3.6-3.3 12.7 0 2-1.3 3.9-3.2 4.6s-4.1.2-5.4-1.4zm18.9-7.8c-.1 0-.1 0 0 0zm6.9 98.6c-46.1 0-83.6-37.5-83.6-83.6s37.5-83.6 83.6-83.6 83.6 37.5 83.6 83.6-37.5 83.6-83.6 83.6zm0-157.3c-40.7 0-73.8 33.1-73.8 73.8s33.1 73.8 73.8 73.8 73.8-33.1 73.8-73.8-33.1-73.8-73.8-73.8z" opacity="1" data-original="url(#a)"></path></g></svg>