<svg xmlns="http://www.w3.org/2000/svg" version="1.1" xmlns:xlink="http://www.w3.org/1999/xlink" width="512" height="512" x="0" y="0" viewBox="0 0 4335 4335" style="enable-background:new 0 0 512 512" xml:space="preserve" fill-rule="evenodd"><rect width="4335" height="4335" rx="867" ry="867" fill="#bac8d3" shape="rounded"></rect><g transform="matrix(0.65,0,0,0.65,758.625,748.625)"><linearGradient id="a" x1="696.53" x2="3638.4" y1="2167.47" y2="2167.47" gradientUnits="userSpaceOnUse"><stop offset="0" stop-color="#f071ab"></stop><stop offset="1" stop-color="#22abe2"></stop></linearGradient><path fill="url(#a)" d="M3218 3139h-220l78 291v2l130 482v2l95 355c7 27-9 55-36 62-4 1-9 2-13 2-22 0-43-15-49-38l-85-318H1217l-85 318c-6 23-27 38-49 38-4 0-9-1-13-2-27-7-43-35-36-62l95-355v-2l130-482v-2l78-291h-220c-232 0-420-188-420-420V809c0-232 188-421 420-421h103l375-373c10-10 23-15 36-15h1073c13 0 26 5 36 15l375 373h103c232 0 420 189 420 421v1910c0 232-188 420-420 420zm-146-1184H1263c-82 0-149-67-149-150v-719c0-83 67-150 149-150h1809c82 0 149 67 149 150v719c0 83-67 150-149 150zm-1809-917c-26 0-48 21-48 48v719c0 27 22 48 48 48h854v-815zm955 815h854c26 0 48-21 48-48v-719c0-27-22-48-48-48h-854zm532-1089H1585c-28 0-51-23-51-51s23-51 51-51h1165c28 0 51 23 51 51s-23 51-51 51zm-919 1980h-354c-57 0-104-46-104-103v-290c0-57 47-103 104-103h354c57 0 104 46 104 103v290c0 57-47 103-104 103zm-354-394c-1 0-2 1-2 1v290c0 1 1 2 2 2h354c1 0 2-1 2-2v-290s-1-1-2-1zm1381 394h-354c-57 0-104-46-104-103v-290c0-57 47-103 104-103h354c57 0 104 46 104 103v290c0 57-47 103-104 103zm-354-394c-1 0-2 1-2 1v290c0 1 1 2 2 2h354c1 0 2-1 2-2v-290s-1-1-2-1zM1364 388h1607l-288-286H1652zm1624 3107H1347l-103 382h1847zm-1614-101h1587l-68-255H1442zM1117 490c-176 0-319 143-319 319v1910c0 176 143 319 319 319h2101c176 0 319-143 319-319V809c0-176-143-319-319-319H1241z" opacity="1" data-original="url(#a)"></path></g></svg>