<svg xmlns="http://www.w3.org/2000/svg" version="1.1" xmlns:xlink="http://www.w3.org/1999/xlink" width="512" height="512" x="0" y="0" viewBox="0 0 3873 3873" style="enable-background:new 0 0 512 512" xml:space="preserve"><rect width="3873" height="3873" rx="774.6" ry="774.6" fill="#bac8d3" shape="rounded"></rect><g transform="matrix(0.7,0,0,0.7,580.9200439453125,596.6699981689453)"><linearGradient id="a" x1="826.505" x2="3046.479" y1="1060.955" y2="3280.929" gradientUnits="userSpaceOnUse"><stop offset="0" stop-color="#ee0979"></stop><stop offset="1" stop-color="#ff6a00"></stop></linearGradient><path fill="url(#a)" d="m2656.7 1110.4-251.6-269c-1.2-1.3-2.5-2.6-3.9-3.8-7.2-6.4-14.7-12.4-22.4-18V472.3c0-106.7-88.3-193.4-196.9-193.4H1691c-108.6 0-196.9 86.8-196.9 193.4v353.1c-5 3.9-9.8 7.9-14.6 12.1-1.1 1-2.2 2-3.2 3.1L1216.6 1110c-55 50.1-86.6 119.9-86.6 192v2203.4c0 106.7 88.4 193.5 197 193.5h1218.8c108.6 0 197-86.8 197-193.5V1302.1c.1-72-31.3-141.7-86.1-191.7zm-34.8 1712.1H1251.1v-996.9h1370.8zm0-1117.9H1251.1v-152.7h1370.8zm-1370.8 1239h1370.8v152.7H1251.1zm364-2471.3c0-39.9 34-72.4 75.9-72.4h491c41.8 0 75.9 32.5 75.9 72.4v296.3c-17.2-3-34.7-4.6-52.5-4.6h-529.9c-20.5 0-40.7 2-60.3 6V472.3zM1299 1198.7c1.1-1 2.2-2 3.2-3.1l259.5-269.1c30.7-26.7 71-41.4 113.7-41.4h529.9c42.6 0 82.8 14.6 113.4 41.1l251.3 268.7c1.2 1.3 2.5 2.6 3.9 3.8 30.5 27.2 48 64.9 48 103.4v128.8H1251.1v-128.8c0-38.5 17.5-76.2 47.9-103.4zM2545.9 3578H1327.1c-41.9 0-76-32.5-76-72.5v-288.1h1370.8v288.1c0 39.9-34.1 72.5-76 72.5zm-609.4-874.5c152.5 0 276.5-124.1 276.5-276.5 0-61.4-38.1-155.2-116.6-286.6-54.7-91.6-108.5-167.1-110.7-170.3-11.4-15.9-29.7-25.3-49.2-25.3s-37.9 9.4-49.2 25.3c-2.3 3.2-56.1 78.7-110.7 170.3-78.4 131.5-116.6 225.2-116.6 286.6-.1 152.4 124 276.5 276.5 276.5zM1880 2203c19.6-32.9 39.4-64 56.4-90.1 17 26 36.8 57.1 56.4 90.1 91.9 154.2 99.1 210.4 99.1 223.9 0 85.8-69.8 155.5-155.5 155.5-85.8 0-155.5-69.8-155.5-155.5.1-13.5 7.2-69.7 99.1-223.9z" opacity="1" data-original="url(#a)"></path></g></svg>