<svg xmlns="http://www.w3.org/2000/svg" version="1.1" xmlns:xlink="http://www.w3.org/1999/xlink" width="512" height="512" x="0" y="0" viewBox="0 0 62 62" style="enable-background:new 0 0 512 512" xml:space="preserve" class=""><rect width="62" height="62" rx="12.4" ry="12.4" fill="#bac8d3" shape="rounded"></rect><g transform="matrix(0.5499999999999999,0,0,0.5499999999999999,13.950337429961657,13.95)"><linearGradient id="a" x1="31" x2="31" y1="62" y2="0" gradientUnits="userSpaceOnUse"><stop offset="0" stop-color="#9f2fff"></stop><stop offset="1" stop-color="#0bb1d3"></stop></linearGradient><path fill="url(#a)" d="M45 0c2.988 0 5.928.787 8.501 2.275l-1.002 1.731A14.997 14.997 0 0 0 45 2a15.059 15.059 0 0 0-12.994 7.5l-1.73-1.002A17.061 17.061 0 0 1 45 0zm10.625 3.729-1.25 1.561A14.94 14.94 0 0 1 60 17v8h2v-8a16.927 16.927 0 0 0-6.375-13.271zM60 31c0 5.786-3.233 10.956-8.438 13.493l.877 1.798C58.336 43.416 62 37.557 62 31v-4h-2zm-2-14A12.961 12.961 0 0 0 47.166 4.18l-.332 1.973A10.964 10.964 0 0 1 56 17zm-4 12V17c0-4.962-4.037-9-9-9-4.529 0-8.368 3.386-8.93 7.876l1.984.248A7.009 7.009 0 0 1 45 10c3.859 0 7 3.14 7 7v12zm-7.502 4.598 1.004 1.73A5.019 5.019 0 0 0 50 31V17c0-2.757-2.243-5-5-5-.879 0-1.743.232-2.501.671l1.002 1.73A3.004 3.004 0 0 1 48 17v14a3.011 3.011 0 0 1-1.502 2.598zM11 35.697c0-.396-.039-.795-.117-1.185L8.071 20.457A3.7 3.7 0 0 1 8 19.734C8 17.654 9.653 16 11.687 16a3.665 3.665 0 0 1 3.646 3.14l2.521 16.8c.116.062.148.028.147-.011V16c0-2.206 1.794-4 4-4s4 1.794 4 4v19.929a.07.07 0 0 0 .07.071L28 22.817V17c0-2.204.416-4.349 1.236-6.375l1.854.751a14.88 14.88 0 0 0-1.033 4.427 3.657 3.657 0 0 1 2.117-.788C33.141 8.762 38.582 4 45 4v2c-5.488 0-10.129 4.118-10.873 9.493C35.24 16.126 36 17.309 36 18.678v.156c0 .152-.01.304-.028.455L34.087 34.37c-.058.457-.087.925-.087 1.391.001.266.303.29.371.119v-.001l3.102-7.749A3.36 3.36 0 0 1 40 26.064V17c0-.879.232-1.744.672-2.502l1.73 1.004A2.986 2.986 0 0 0 42 17v9.307a3.361 3.361 0 0 1 2 3.082V17a1 1 0 1 1 2 0v14a1 1 0 1 1-2 0v-1.469c0 .441-.085.872-.252 1.281l-.913 2.233A2.98 2.98 0 0 0 45 34v2a4.987 4.987 0 0 1-2.97-.987l-.768 1.876A6.894 6.894 0 0 0 45 38c3.859 0 7-3.14 7-7h2c0 4.962-4.037 9-9 9a9.023 9.023 0 0 1-4.51-1.222l-.763 1.864A10.92 10.92 0 0 0 45 42c6.065 0 11-4.935 11-11V19h2v12c0 7.168-5.832 13-13 13-2.11 0-4.171-.521-6.032-1.502l-.753 1.84c3.548 1.802 7.749 2.139 11.473.915l.625 1.9a16.968 16.968 0 0 1-12.866-.937L35 52.197V62H9v-9.764L.361 34.96A3.431 3.431 0 0 1 3.427 30c1.946 0 3.753.967 4.832 2.586l2.187 3.279c.149.223.554.101.554-.168zm2 0A2.305 2.305 0 0 1 10.697 38a2.296 2.296 0 0 1-1.916-1.026l-2.187-3.279A3.798 3.798 0 0 0 3.427 32a1.428 1.428 0 0 0-1.276 2.067L11 51.764V60h22v-8.197l8.896-21.748c.069-.167.104-.344.104-.524v-.143c0-.371-.145-.719-.406-.98s-.608-.405-.978-.405h-.002c-.569 0-1.073.342-1.284.87l-3.102 7.748A2.179 2.179 0 0 1 34.192 38 2.195 2.195 0 0 1 32 35.807c0-.596.034-1.148.103-1.687l1.885-15.079c.008-.068.012-.138.012-.208v-.156A1.68 1.68 0 0 0 32.322 17c-.829 0-1.543.619-1.66 1.44l-2.54 17.782A2.083 2.083 0 0 1 26.071 38 2.073 2.073 0 0 1 24 35.929V16c0-1.103-.897-2-2-2s-2 .897-2 2v19.929A2.073 2.073 0 0 1 17.929 38a2.087 2.087 0 0 1-2.055-1.765l-2.521-16.799A1.675 1.675 0 0 0 11.687 18c-.93 0-1.687.756-1.687 1.687 0 .16.012.271.033.381l2.811 14.053c.103.518.156 1.048.156 1.576zM40 50v2h2v-2zm18 0H44v2h14zm-18 6h18v-2H40z" opacity="1" data-original="url(#a)"></path></g></svg>