<svg xmlns="http://www.w3.org/2000/svg" version="1.1" xmlns:xlink="http://www.w3.org/1999/xlink" width="512" height="512" x="0" y="0" viewBox="0 0 496 496" style="enable-background:new 0 0 512 512" xml:space="preserve" class=""><rect width="496" height="496" rx="99.2" ry="99.2" fill="#bac8d3" shape="rounded"></rect><g transform="matrix(0.57,0,0,0.57,106.64000000000001,106.64000000000001)"><linearGradient id="a" x1="248" x2="248" y1="496" y2="0" gradientUnits="userSpaceOnUse"><stop offset="0" stop-color="#9f2fff"></stop><stop offset="1" stop-color="#0bb1d3"></stop></linearGradient><path fill="url(#a)" d="M472 128c-13.233 0-24 10.767-24 24v136h-16c0-17.645-14.355-32-32-32V24c0-13.233-10.767-24-24-24h-32c-13.233 0-24 10.767-24 24v232h-32V24c0-13.233-10.767-24-24-24h-32c-13.233 0-24 10.767-24 24v232h-32V24c0-13.233-10.767-24-24-24h-32c-13.233 0-24 10.767-24 24v232c-17.645 0-32 14.355-32 32H48V152c0-13.233-10.767-24-24-24S0 138.767 0 152v208c0 13.233 10.767 24 24 24 10.429 0 19.321-6.689 22.624-16H64v72c0 30.879 25.121 56 56 56h256c30.879 0 56-25.121 56-56v-72h17.376c3.303 9.311 12.195 16 22.624 16 13.233 0 24-10.767 24-24V152c0-13.233-10.767-24-24-24zM336 24c0-4.411 3.589-8 8-8h32c4.411 0 8 3.589 8 8v16c0 4.411-3.589 8-8 8h-32c-4.411 0-8-3.589-8-8zm0 38.624A23.885 23.885 0 0 0 344 64h32c2.805 0 5.496-.488 8-1.376V256h-16V112h-16v144h-16zM224 24c0-4.411 3.589-8 8-8h32c4.411 0 8 3.589 8 8v16c0 4.411-3.589 8-8 8h-32c-4.411 0-8-3.589-8-8zm0 38.624A23.885 23.885 0 0 0 232 64h32c2.805 0 5.496-.488 8-1.376V256h-16V112h-16v144h-16zM112 24c0-4.411 3.589-8 8-8h32c4.411 0 8 3.589 8 8v16c0 4.411-3.589 8-8 8h-32c-4.411 0-8-3.589-8-8zm0 38.624A23.885 23.885 0 0 0 120 64h32c2.805 0 5.496-.488 8-1.376V256h-16V112h-16v144h-16zM32 360c0 4.411-3.589 8-8 8s-8-3.589-8-8V152c0-4.411 3.589-8 8-8s8 3.589 8 8zm16-8v-48h16v48zm328 128H120c-19.339 0-35.515-13.797-39.207-32.065C90.903 457.862 104.745 464 120 464h256c15.255 0 29.097-6.138 39.207-16.065C411.515 466.203 395.339 480 376 480zm0-32H120c-22.056 0-40-17.944-40-40V288c0-8.822 7.178-16 16-16h304c8.822 0 16 7.178 16 16v120c0 22.056-17.944 40-40 40zm56-144h16v48h-16zm48 56c0 4.411-3.589 8-8 8s-8-3.589-8-8V152c0-4.411 3.589-8 8-8s8 3.589 8 8zM144 96h-16V80h16zm112 0h-16V80h16zm112 0h-16V80h16zm-35.146 227.146L321.54 334.46c-40.549-40.549-106.529-40.549-147.078 0l-11.314-11.314c46.788-46.787 122.916-46.787 169.706 0zm-22.628 22.628-11.314 11.314c-28.072-28.074-73.75-28.074-101.822 0l-11.314-11.314c34.311-34.31 90.137-34.31 124.45 0zM248 352c14.958 0 29.021 5.825 39.599 16.401l-11.314 11.314c-15.596-15.598-40.973-15.598-56.568 0l-11.314-11.314C218.979 357.825 233.042 352 248 352zm0 32c-13.233 0-24 10.767-24 24s10.767 24 24 24 24-10.767 24-24-10.767-24-24-24zm0 32c-4.411 0-8-3.589-8-8s3.589-8 8-8 8 3.589 8 8-3.589 8-8 8zm136 8a8 8 0 1 1-16 0 8 8 0 0 1 16 0zm-32 0a8 8 0 1 1-16 0 8 8 0 0 1 16 0z" opacity="1" data-original="url(#a)"></path></g></svg>