<svg xmlns="http://www.w3.org/2000/svg" version="1.1" xmlns:xlink="http://www.w3.org/1999/xlink" width="512" height="512" x="0" y="0" viewBox="0 0 64 64" style="enable-background:new 0 0 512 512" xml:space="preserve" class=""><rect width="64" height="64" rx="12.8" ry="12.8" fill="#bac8d3" shape="rounded"></rect><g transform="matrix(0.61,0,0,0.61,12.48,12.48)"><linearGradient id="a" x1="4" x2="60" y1="32" y2="32" gradientUnits="userSpaceOnUse"><stop offset="0" stop-color="#7f00ff"></stop><stop offset="1" stop-color="#e100ff"></stop></linearGradient><path fill="url(#a)" d="M56.86 15.603h-2.116v-1.596a.063.063 0 0 0 0-.039v-3.697a5.006 5.006 0 0 0-5-5H14.256a5.006 5.006 0 0 0-5 5c-.014 1.178.01 4.216 0 5.332H7.14A3.143 3.143 0 0 0 4 18.743v2.139a1 1 0 0 0 2 0v-2.14a1.14 1.14 0 0 1 1.14-1.14h2.116c-.002 4.587.002 23.42 0 27.622v3.611a3.003 3.003 0 0 0 3 3h1.05v3.894a3.003 3.003 0 0 0 3 3h3.12a3.003 3.003 0 0 0 3-3v-3.894h19.147v3.894a3.003 3.003 0 0 0 3 3h3.122a3.003 3.003 0 0 0 3-3v-3.894h1.049a3.003 3.003 0 0 0 3-3v-3.592c.006-4.122-.004-23.134 0-27.64h2.116a1.14 1.14 0 0 1 1.14 1.14v2.139a1 1 0 0 0 2 0v-2.14a3.143 3.143 0 0 0-3.14-3.14zm-4.116 28.62H47.4c-2.661-.027-2.662-4.202 0-4.23h5.343zm-41.488-4.23h5.347c2.661.028 2.662 4.203 0 4.23h-5.347zm0-25.005h41.488v14.525a77.11 77.11 0 0 1-41.488 0zm3-7.717h35.488a3.003 3.003 0 0 1 3 3v2.717H11.256V10.27a3.003 3.003 0 0 1 3-3zm6.17 48.458a1.001 1.001 0 0 1-1 1h-3.12a1.001 1.001 0 0 1-1-1v-3.894h5.12zm28.269 0a1.001 1.001 0 0 1-1 1h-3.122a1.001 1.001 0 0 1-1-1v-3.894h5.122zm3.049-5.894c-6.121 0-38.162.002-39.488 0a1.001 1.001 0 0 1-1-1v-2.611h5.347a4.117 4.117 0 0 0 0-8.23h-5.347V31.58a78.645 78.645 0 0 0 41.488 0v6.413H47.4c-5.314.12-5.3 8.117 0 8.23h5.343v2.612a1.001 1.001 0 0 1-1 1zm-13.94-11.714H26.196a3.003 3.003 0 0 0-3 3v1.975a3.003 3.003 0 0 0 3 3h11.608a3.003 3.003 0 0 0 3-3v-1.975a3.003 3.003 0 0 0-3-3zm1 4.975a1.001 1.001 0 0 1-1 1H26.196a1.001 1.001 0 0 1-1-1v-1.975a1.001 1.001 0 0 1 1-1h11.608a1.001 1.001 0 0 1 1 1z" opacity="1" data-original="url(#a)"></path></g></svg>