<svg xmlns="http://www.w3.org/2000/svg" version="1.1" xmlns:xlink="http://www.w3.org/1999/xlink" width="512" height="512" x="0" y="0" viewBox="0 0 450 450" style="enable-background:new 0 0 512 512" xml:space="preserve"><rect width="450" height="450" rx="90" ry="90" fill="#bac8d3" shape="rounded"></rect><g transform="matrix(0.6199999999999999,0,0,0.6199999999999999,85.51900695800782,85.51900405883791)"><linearGradient id="a" x1="55.643" x2="394.412" y1="394.357" y2="55.588" gradientTransform="matrix(1 0 0 -1 0 450)" gradientUnits="userSpaceOnUse"><stop offset="0" stop-color="#00dbde"></stop><stop offset="1" stop-color="#fc00ff"></stop></linearGradient><path fill="url(#a)" d="M425.3 355.7H24.7c-10.8 0-19.7-9.4-19.7-20.9V115.3c0-11.5 8.8-20.9 19.7-20.9h400.7c10.8 0 19.7 9.4 19.7 20.9v219.5c-.1 11.5-8.9 20.9-19.8 20.9zM24.7 104.3c-5.3 0-9.7 4.9-9.7 10.9v219.5c0 6 4.3 10.9 9.7 10.9h400.7c5.3 0 9.7-4.9 9.7-10.9V115.3c0-6-4.3-10.9-9.7-10.9H24.7zm359 98.2H253.9c-2.8 0-5-2.2-5-5s2.2-5 5-5h129.8c2.8 0 5 2.2 5 5s-2.2 5-5 5zm0-46.4H253.9c-2.8 0-5-2.2-5-5s2.2-5 5-5h129.8c2.8 0 5 2.2 5 5s-2.2 5-5 5zm0 147.8H66.3c-2.8 0-5-2.2-5-5s2.2-5 5-5h317.5c2.8 0 5 2.2 5 5s-2.3 5-5.1 5zM208.3 262h-142c-2.8 0-5-2.2-5-5V151.1c0-2.8 2.2-5 5-5h142.1c2.8 0 5 2.2 5 5V257c-.1 2.8-2.3 5-5.1 5zm-137-10h132.1v-95.9H71.3zm66-29.2c-15.8 0-28.6-12.8-28.6-28.6s12.8-28.6 28.6-28.6 28.6 12.8 28.6 28.6-12.8 28.6-28.6 28.6zm0-47.2c-10.3 0-18.6 8.3-18.6 18.6s8.3 18.6 18.6 18.6 18.6-8.3 18.6-18.6-8.3-18.6-18.6-18.6zM174 262c-2.8 0-5-2.2-5-5v-2.5c0-17.5-14.2-31.7-31.7-31.7s-31.7 14.2-31.7 31.7v2.5c0 2.8-2.2 5-5 5s-5-2.2-5-5v-2.5c0-23 18.7-41.7 41.7-41.7s41.7 18.7 41.7 41.7v2.5c0 2.8-2.3 5-5 5zm108.3 7.4c-1.6 0-3.1-.7-4.1-2.1-1.6-2.3-1-5.4 1.2-7l12-8.4c5.9-4.1 13.8-4.4 19.9-.6l2 1.2c2.8 1.8 6.4 1.6 9.1-.4l5.6-4.1c3.1-2.3 6.9-3.5 10.7-3.5h16.6c2.8 0 5 2.2 5 5s-2.2 5-5 5h-16.6c-1.7 0-3.4.5-4.8 1.6l-5.6 4.1c-6 4.4-14 4.7-20.3.8l-2-1.2a8.18 8.18 0 0 0-9 .3l-12 8.4c-.7.6-1.7.9-2.7.9z" opacity="1" data-original="url(#a)"></path></g></svg>