<svg xmlns="http://www.w3.org/2000/svg" version="1.1" xmlns:xlink="http://www.w3.org/1999/xlink" width="512" height="512" x="0" y="0" viewBox="0 0 450 450" style="enable-background:new 0 0 512 512" xml:space="preserve" class=""><rect width="450" height="450" rx="90" ry="90" fill="#bac8d3" shape="rounded"></rect><g transform="matrix(0.5499999999999999,0,0,0.5499999999999999,101.25000257492066,96.24437572956087)"><linearGradient id="a" x1="44.145" x2="405.864" y1="400.015" y2="38.296" gradientTransform="matrix(1 0 0 -1 0 452)" gradientUnits="userSpaceOnUse"><stop offset="0" stop-color="#00dbde"></stop><stop offset="1" stop-color="#fc00ff"></stop></linearGradient><path fill="url(#a)" d="M426.6 386.8H23.4c-8.3 0-15-6.7-15-15V94c0-8.3 6.7-15 15-15h403.2c8.3 0 15 6.7 15 15v277.8c0 8.2-6.7 15-15 15zM23.4 90.9c-1.7 0-3 1.4-3 3v277.8c0 1.7 1.4 3 3 3h403.2c1.7 0 3-1.4 3-3V94c0-1.7-1.4-3-3-3H23.4zM397 348.2H52.9c-3.3 0-6-2.7-6-6V123.5c0-3.3 2.7-6 6-6H397c3.3 0 6 2.7 6 6v218.7c0 3.3-2.6 6-6 6zm-338.1-12H391V129.5H58.9zM225 298.3c-36.1 0-65.5-29.4-65.5-65.5s29.4-65.5 65.5-65.5 65.5 29.4 65.5 65.5-29.4 65.5-65.5 65.5zm0-118.9c-29.5 0-53.5 24-53.5 53.5s24 53.5 53.5 53.5 53.5-24 53.5-53.5-24-53.5-53.5-53.5zm19.1-88.5c-1.5 0-3.1-.6-4.2-1.8-2.3-2.3-2.3-6.1 0-8.5l74.9-74.9c2.3-2.3 6.1-2.3 8.5 0s2.3 6.1 0 8.5l-74.9 74.9c-1.2 1.2-2.7 1.8-4.3 1.8zm-38.2 0c-1.5 0-3.1-.6-4.2-1.8l-74.9-74.9c-2.3-2.3-2.3-6.1 0-8.5 2.3-2.3 6.1-2.3 8.5 0l74.9 74.9c2.3 2.3 2.3 6.1 0 8.5-1.3 1.2-2.8 1.8-4.3 1.8zM201.2 446c-3.3 0-6-2.7-6-6v-59.3c0-3.3 2.7-6 6-6s6 2.7 6 6V440c0 3.3-2.7 6-6 6zm47.6 0c-3.3 0-6-2.7-6-6v-59.3c0-3.3 2.7-6 6-6s6 2.7 6 6V440c0 3.3-2.7 6-6 6zm49.7 0h-147c-3.3 0-6-2.7-6-6s2.7-6 6-6h147c3.3 0 6 2.7 6 6s-2.7 6-6 6zm-88-180.8c-1 0-2.1-.3-3-.8-1.9-1.1-3-3-3-5.2v-52.7c0-2.1 1.1-4.1 3-5.2s4.1-1.1 6 0l45.7 26.4c1.9 1.1 3 3 3 5.2s-1.1 4.1-3 5.2l-45.7 26.4c-.9.4-1.9.7-3 .7zm6-48.3v31.9l27.7-16z" opacity="1" data-original="url(#a)"></path></g></svg>