<svg xmlns="http://www.w3.org/2000/svg" version="1.1" xmlns:xlink="http://www.w3.org/1999/xlink" width="512" height="512" x="0" y="0" viewBox="0 0 512 512" style="enable-background:new 0 0 512 512" xml:space="preserve"><rect width="512" height="512" rx="102.4" ry="102.4" fill="#bac8d3" shape="rounded"></rect><g transform="matrix(0.6,0,0,0.6,102.4,102.4)"><linearGradient id="a" x1="256.632" x2="255.353" y1="419.324" y2="88.797" gradientUnits="userSpaceOnUse"><stop offset="0" stop-color="#8786c0"></stop><stop offset="1" stop-color="#f58c80"></stop></linearGradient><path fill="url(#a)" fill-rule="evenodd" d="M235.245 352a12.007 12.007 0 0 1-12.029 12H83.259a12 12 0 1 1 0-24h139.957a12.017 12.017 0 0 1 12.029 12zm239.77 43.5a12.989 12.989 0 0 0 12.972-13v-109H24.012v109a12.989 12.989 0 0 0 12.972 13zm-438.031-279h438.031a12.989 12.989 0 0 1 12.972 13V171H24.012v-41.5a12.989 12.989 0 0 1 12.972-13zM24.012 195h463.975v54.5H24.012zm451-102.5H36.984A37.04 37.04 0 0 0 0 129.5v253a37.043 37.043 0 0 0 36.982 37h438.033a37.043 37.043 0 0 0 36.985-37v-253a37.04 37.04 0 0 0-36.985-37z" opacity="1" data-original="url(#a)"></path></g></svg>