<svg xmlns="http://www.w3.org/2000/svg" version="1.1" xmlns:xlink="http://www.w3.org/1999/xlink" width="512" height="512" x="0" y="0" viewBox="0 0 512 512" style="enable-background:new 0 0 512 512" xml:space="preserve" class=""><rect width="512" height="512" rx="102.4" ry="102.4" fill="#bac8d3" shape="rounded"></rect><g transform="matrix(0.66,0,0,0.66,87.0400311279297,87.03998022079466)"><linearGradient id="a" x1="49.533" x2="440.575" y1="438.348" y2="47.306" gradientUnits="userSpaceOnUse"><stop offset="0" stop-color="#b429f9"></stop><stop offset=".996" stop-color="#26c5f3"></stop></linearGradient><path fill="url(#a)" d="M412.884 85.263c18.154-18.149 18.153-47.501 0-65.649-18.139-18.149-47.498-18.158-65.651 0-12.764 12.761-16.58 31.003-11.293 47.235l-82.477 36.978-72.115-72.116c-17.606-17.611-46.923-14.334-60.345 6.592-49.732 77.568-38.482 181.206 26.75 246.438 7.889 7.89 16.365 14.943 25.263 21.241v91.962h-33.487c-29.792 0-54.028 24.236-54.028 54.031 0 29.789 24.236 54.026 54.028 54.026h149.878c29.792 0 54.028-24.236 54.028-54.026v-.005c0-29.789-24.236-54.026-54.028-54.026H255.92v-58.165c50.206 8.134 98.985-3.058 138.293-28.259 20.999-13.457 24.147-42.799 6.596-60.345l-72.111-72.111 36.964-82.5c16.33 5.314 34.537 1.391 47.222-11.301zm-58.719-58.717c14.312-14.317 37.469-14.324 51.788 0 14.321 14.316 14.319 37.461 0 51.785-14.312 14.317-37.469 14.324-51.788 0-14.31-14.314-14.324-37.465 0-51.785zm-20.534 425.428c0 24.385-19.84 44.222-44.224 44.222H139.529c-24.385 0-44.224-19.842-44.224-44.227s19.84-44.222 44.224-44.222h149.878c24.385 0 44.224 19.842 44.224 44.227zm-87.515-54.03H182.82V312.48c19.625 12.189 41.08 20.716 63.296 25.457zm142.807-94.677c-73.719 47.262-172.233 36.544-234.239-25.457-61.996-61.996-72.69-160.498-25.428-234.212 10.073-15.711 32.014-18.095 45.16-4.955l219.461 219.464c13.167 13.171 10.725 35.108-4.954 45.16zm-67.644-131.623-60.397-60.398 79.09-35.46c1.994 3.41 4.394 6.611 7.262 9.478 2.871 2.872 6.076 5.275 9.49 7.271z" opacity="1" data-original="url(#a)"></path></g></svg>