<svg xmlns="http://www.w3.org/2000/svg" version="1.1" xmlns:xlink="http://www.w3.org/1999/xlink" width="512" height="512" x="0" y="0" viewBox="0 0 512 512" style="enable-background:new 0 0 512 512" xml:space="preserve" fill-rule="evenodd"><rect width="512" height="512" rx="102.4" ry="102.4" fill="#bac8d3" shape="rounded"></rect><g transform="matrix(1.19,0,0,1.19,99.70373859405518,99.65472957611087)"><linearGradient id="a" x1="0" x2="1" y1="0" y2="0" gradientTransform="matrix(56 -56 56 56 4 221.77)" gradientUnits="userSpaceOnUse"><stop offset="0" stop-color="#9e30ff"></stop><stop offset="1" stop-color="#0bb1d3"></stop></linearGradient><path fill="url(#a)" d="m60.301 206.643-.018-.006c-.304-.09-.568-.312-.788-.605-.426-.568-.675-1.389-.675-2.31 0-.925.251-1.759.679-2.337.219-.296.481-.522.784-.612l.009-.003a1 1 0 0 0-.009-1.915c-.927-.274-1.604-1.199-1.791-2.645-.115-.887.288-1.794.802-2.456.255-.327.726-.643 1.107-.806a.996.996 0 0 0 .599-.927.999.999 0 0 0-1.013-1.021L47 187.876v-4.084l7.997-3.209-.006 1.128c-.35.532-1.119 1.745-1.632 2.863-.349.762-.568 1.497-.568 2.015 0 1.771 1.438 3.209 3.209 3.209s3.209-1.438 3.209-3.209c0-.518-.219-1.253-.568-2.015-.522-1.137-1.309-2.372-1.65-2.889.004-.619.006-1.267.008-1.906l3.373-1.354a1 1 0 0 0-.068-1.881l-3.342-1.066-.001-.014c-.182-4.027-5.363-5.624-7.751-2.545a1.061 1.061 0 0 0-.049.068l-16.916-5.4a.997.997 0 0 0-.609.001l-27.972 8.957a.998.998 0 0 0-.036 1.892L17 183.291v7.627l-11.269 4.931c-1.543.499-2.83 2.428-2.83 4.846 0 1.614.57 2.992 1.408 3.88-.837.899-1.408 2.292-1.408 3.903 0 2.457 1.322 4.368 2.897 4.833l.051.014 27.857 6.648c.211.05.433.03.633-.057l26.062-11.404a1 1 0 0 0-.1-1.869zM10 206.533l-3.845-.918c-.216.115-.407.3-.574.526-.428.578-.68 1.412-.68 2.337 0 .921.25 1.742.676 2.31.214.285.47.504.767.599l27.5 6.563 24.18-10.581c-.725-.887-1.204-2.168-1.204-3.647 0-.527.061-1.03.172-1.5l-22.653 9.912a.998.998 0 0 1-.633.056L17 208.203v3.297a1 1 0 0 1-1.77.638l-1.945-2.351-1.759 1.088a1.001 1.001 0 0 1-1.526-.851zm7-.386 16.844 4.02 24.049-10.523c-.694-.736-1.205-1.791-1.385-3.177a4.75 4.75 0 0 1 .157-1.885l-22.326 9.769a.999.999 0 0 1-.633.057l-27.551-6.575c-.216.115-.407.3-.574.526-.428.578-.68 1.411-.68 2.336 0 .921.25 1.742.676 2.31.214.286.47.505.767.599l3.656.873v-1.59c0-.951.599-1.886 1.873-2.049a1 1 0 1 1 .254 1.983c-.065.009-.127.017-.127.066v5.343l.974-.602a1 1 0 0 1 1.296.213l.73.882v-4.507c0-.764.559-2.01 2.053-2.207a1 1 0 1 1 .262 1.982c-.192.026-.315.127-.315.225zm30-16.214v3.855a1 1 0 0 1-1.123.993c-5.176-.641-9.284-.643-13.704 1.65a.998.998 0 0 1-.894.013c-5.096-2.449-8.86-2.339-13.123-1.668a1 1 0 0 1-1.156-.988v-.687l-7.784 3.406 24.628 5.878 23.03-10.077zm-28-8.406c7.718-2.768 18.598-2.724 26-.006v11.145c-4.931-.527-8.995-.345-13.303 1.765-4.87-2.242-8.633-2.343-12.697-1.799zm37 2.341c.179.302.368.635.544.973.339.651.665 1.308.665 1.748a1.21 1.21 0 0 1-2.418 0c0-.44.326-1.097.665-1.748.176-.338.365-.671.544-.973zm-1.007-6.92-23.052-7.358-24.878 7.966L17 181.164v-.331c0-.413.253-.783.638-.932 8.391-3.257 20.72-3.194 28.733.003a1 1 0 0 1 .629.929v.804l8-3.211c-.001-.533-.003-1.035-.007-1.478zm-.189-2.159c-.271-.692-.849-1.178-1.51-1.388s-1.403-.144-2.001.267z" transform="translate(0 -674.043) scale(4.167)" opacity="1" data-original="url(#a)"></path></g></svg>