<svg xmlns="http://www.w3.org/2000/svg" version="1.1" xmlns:xlink="http://www.w3.org/1999/xlink" width="512" height="512" x="0" y="0" viewBox="0 0 64 64" style="enable-background:new 0 0 512 512" xml:space="preserve"><rect width="64" height="64" rx="12.8" ry="12.8" fill="#bac8d3" shape="rounded"></rect><g transform="matrix(0.7,0,0,0.7,9.600000000000001,9.600000000000001)"><linearGradient id="a" x1="5.227" x2="58.773" y1="32" y2="32" gradientUnits="userSpaceOnUse"><stop offset="0" stop-color="#ff81ff"></stop><stop offset="1" stop-color="#a93aff"></stop></linearGradient><path fill="url(#a)" d="M21.248 45.018a5.908 5.908 0 0 1 2.35 4.701v5.052A5.235 5.235 0 0 0 28.829 60h6.344a5.235 5.235 0 0 0 5.228-5.229v-5.052a5.899 5.899 0 0 1 2.344-4.697c8.816-6.31 9.593-20.034 1.583-27.315-11.282-10.847-30.28-2.485-30.243 13.09a17.763 17.763 0 0 0 7.164 14.221zM35.172 58h-6.344a3.233 3.233 0 0 1-3.23-3.229v-3.526H38.4v3.526A3.232 3.232 0 0 1 35.172 58zm-4.038-43.186c8.84-.68 16.99 7.013 16.782 15.894a15.765 15.765 0 0 1-6.372 12.715 7.902 7.902 0 0 0-3.115 5.822H25.57a7.912 7.912 0 0 0-3.12-5.827 15.776 15.776 0 0 1-6.366-12.63 16.08 16.08 0 0 1 15.05-15.974zM31 9.3V5a1 1 0 0 1 2 0v4.299a1 1 0 1 1-2 0zM13.055 13.26a1 1 0 0 1 1.414-1.414l3.04 3.04a1 1 0 0 1-1.414 1.414zM6.208 29.792h4.299a1 1 0 0 1 0 2H6.208a1 1 0 0 1 0-2zm11.3 16.905-3.038 3.04a1 1 0 0 1-1.414-1.414l3.039-3.04a1 1 0 0 1 1.414 1.414zm33.437 1.626a1 1 0 1 1-1.414 1.414l-3.04-3.04a1 1 0 0 1 1.414-1.414zm2.548-18.531h4.299a1 1 0 0 1 0 2h-4.299a1 1 0 0 1 0-2zm-7.002-14.905 3.04-3.04a1 1 0 0 1 1.413 1.414l-3.039 3.04a1 1 0 1 1-1.414-1.414zM24.988 35.645h5.026v5.825a2.138 2.138 0 0 0 2.162 2.145 2.103 2.103 0 0 0 1.885-1.168l6.858-13.39a2.156 2.156 0 0 0-1.907-3.118h-5.026v-5.825a2.148 2.148 0 0 0-4.048-.976l-6.857 13.39a2.156 2.156 0 0 0 1.907 3.117zm-.127-2.206 6.858-13.39c.046-.12.29-.095.267.065v6.825a1 1 0 0 0 1 1h6.026a.142.142 0 0 1 .127.206l-6.859 13.39a.118.118 0 0 1-.158.073.12.12 0 0 1-.108-.138v-6.825a1 1 0 0 0-1-1h-6.026a.142.142 0 0 1-.127-.206z" opacity="1" data-original="url(#a)"></path></g></svg>