<svg xmlns="http://www.w3.org/2000/svg" version="1.1" xmlns:xlink="http://www.w3.org/1999/xlink" width="512" height="512" x="0" y="0" viewBox="0 0 100 100" style="enable-background:new 0 0 512 512" xml:space="preserve"><rect width="100" height="100" rx="20" ry="20" fill="#bac8d3" shape="rounded"></rect><g transform="matrix(0.6399999999999999,0,0,0.6399999999999999,23.000177841186527,17.999999828338627)"><linearGradient id="a" x1="1.131" x2="73.742" y1="86.329" y2="13.718" gradientUnits="userSpaceOnUse"><stop offset="0" stop-color="#009efd"></stop><stop offset="1" stop-color="#2af598"></stop></linearGradient><path fill="url(#a)" d="M54.498 89.549a1 1 0 0 1-1 1H42.294a1 1 0 1 1 0-2h11.204a1 1 0 0 1 1 1zm3.555-1a1 1 0 1 0 0 2h4.026a1 1 0 1 0 0-2zM51.43 65.653c-.89 0-1.614-.725-1.614-1.615v-6.557a1 1 0 1 0-2 0v6.557a3.619 3.619 0 0 0 3.614 3.615 1 1 0 1 0 0-2zm6.503 0h-3.227a1 1 0 1 0 0 2h3.227a1 1 0 1 0 0-2zm34.672-28.318v10.81a1 1 0 0 1-1 1h-2.55v21.508a1 1 0 0 1-1 1H67.437v19.296a3.96 3.96 0 0 1-3.951 3.962h-52.15c-2.173 0-3.94-1.777-3.94-3.962V9.041a3.95 3.95 0 0 1 3.94-3.952h52.139a3.966 3.966 0 0 1 3.962 3.962v15.312a8.486 8.486 0 0 1 6.501-3.033c4.688 0 8.502 3.814 8.502 8.502a8.484 8.484 0 0 1-3.035 6.502h12.2a1 1 0 0 1 1 1zm-25.168-7.541v.037l-.002.01v6.494h6.503c3.585 0 6.502-2.917 6.502-6.502s-2.917-6.502-6.502-6.502-6.48 2.896-6.501 6.464zm2.274 8.541h-6.552v8.81h6.552zm-8.552 31.318V49.145H45.815v20.508zm0-22.508v-8.81H42.265v8.81zm-2.227-10.81h6.502v-6.502c0-3.585-2.917-6.502-6.502-6.502s-6.503 2.917-6.503 6.502 2.917 6.502 6.503 6.502zM32.611 7.095H21.202v85.807h11.409zM11.336 92.911h7.866V7.089h-7.866c-1.07 0-1.94.875-1.94 1.952v81.908c0 1.082.87 1.962 1.94 1.962zm54.101-21.258H44.816a1 1 0 0 1-1-1V49.145h-2.55a1 1 0 0 1-1-1v-10.81a1 1 0 0 1 1-1h12.2a8.483 8.483 0 0 1-3.036-6.502c0-4.688 3.814-8.502 8.503-8.502a8.486 8.486 0 0 1 6.504 3.037V9.051c0-1.082-.88-1.962-1.962-1.962H34.612v85.822h28.874c1.076 0 1.951-.88 1.951-1.962zm4.274-2V49.145h-6.552v20.508h3.256c.008 0 .014-.004.022-.004s.014.004.022.004h3.253zm17.344-20.508H71.711v20.508h15.344zm3.55-10.81H71.711v8.81h18.894zM69.711 33.06v-3.227c0-2.331 1.896-4.227 4.227-4.227s4.227 1.896 4.227 4.227-1.896 4.227-4.227 4.227h-3.227a1 1 0 0 1-1-1zm2-1h2.227c1.228 0 2.227-.999 2.227-2.227s-.999-2.227-2.227-2.227-2.227.999-2.227 2.227zm-9.552 2h-3.227c-2.33 0-4.227-1.896-4.227-4.227s1.896-4.227 4.227-4.227 4.227 1.896 4.227 4.227v3.227a1 1 0 0 1-1 1zm-1-4.227c0-1.228-.999-2.227-2.227-2.227s-2.227.999-2.227 2.227.999 2.227 2.227 2.227h2.227zm14.144 34.458a3.367 3.367 0 0 1 3.363-3.364h4.341c1.854 0 3.363 1.509 3.363 3.364s-1.509 3.363-3.363 3.363h-4.341a3.367 3.367 0 0 1-3.363-3.363zm2 0c0 .752.611 1.363 1.363 1.363h4.341a1.364 1.364 0 0 0 0-2.727h-4.341c-.752 0-1.363.612-1.363 1.364z" opacity="1" data-original="url(#a)"></path></g></svg>