<svg xmlns="http://www.w3.org/2000/svg" version="1.1" xmlns:xlink="http://www.w3.org/1999/xlink" width="512" height="512" x="0" y="0" viewBox="0 0 512 512" style="enable-background:new 0 0 512 512" xml:space="preserve" class=""><rect width="512" height="512" rx="102.4" ry="102.4" fill="#bac8d3" shape="rounded"></rect><g transform="matrix(0.5499999999999999,0,0,0.5499999999999999,115.20000085830688,115.19999313354492)"><linearGradient id="a" x1="54.809" x2="451.009" y1="532.469" y2="136.268" gradientUnits="userSpaceOnUse"><stop offset="0" stop-color="#fd3c84"></stop><stop offset="1" stop-color="#ffa48d"></stop></linearGradient><path fill="url(#a)" d="M335.457 360.415v-19.233c0-6.189-5.035-11.222-11.222-11.222H187.763c-6.187 0-11.218 5.033-11.218 11.222v19.233c0 6.189 5.031 11.222 11.218 11.222h136.472c6.187 0 11.222-5.033 11.222-11.222zM187.763 341.41h136.249l.224 18.778-136.241.227zm-48.772-102.507a5.724 5.724 0 0 1-5.725 5.725H81.058a5.724 5.724 0 0 1-5.725-5.725 5.724 5.724 0 0 1 5.725-5.725h52.208a5.724 5.724 0 0 1 5.725 5.725zm0 43.049a5.724 5.724 0 0 1-5.725 5.725H81.058a5.724 5.724 0 0 1-5.725-5.725 5.724 5.724 0 0 1 5.725-5.725h52.208a5.725 5.725 0 0 1 5.725 5.725zm0 43.048a5.724 5.724 0 0 1-5.725 5.725H81.058c-3.162 0-5.725-2.562-5.725-5.725s2.562-5.725 5.725-5.725h52.208a5.725 5.725 0 0 1 5.725 5.725zm0 43.048a5.724 5.724 0 0 1-5.725 5.725H81.058c-3.162 0-5.725-2.562-5.725-5.725s2.562-5.725 5.725-5.725h52.208a5.725 5.725 0 0 1 5.725 5.725zm0 43.049a5.724 5.724 0 0 1-5.725 5.725H81.058a5.724 5.724 0 0 1-5.725-5.725 5.724 5.724 0 0 1 5.725-5.725h52.208a5.725 5.725 0 0 1 5.725 5.725zm0 43.048a5.724 5.724 0 0 1-5.725 5.725H81.058c-3.162 0-5.725-2.562-5.725-5.725s2.562-5.725 5.725-5.725h52.208a5.725 5.725 0 0 1 5.725 5.725zm297.674-215.242a5.725 5.725 0 0 1-5.725 5.725h-52.207a5.725 5.725 0 0 1 0-11.45h52.207a5.725 5.725 0 0 1 5.725 5.725zm0 43.049a5.725 5.725 0 0 1-5.725 5.725h-52.207a5.725 5.725 0 0 1 0-11.45h52.207a5.726 5.726 0 0 1 5.725 5.725zm0 43.048a5.725 5.725 0 0 1-5.725 5.725h-52.207a5.725 5.725 0 0 1 0-11.45h52.207a5.726 5.726 0 0 1 5.725 5.725zm0 43.048a5.725 5.725 0 0 1-5.725 5.725h-52.207a5.725 5.725 0 0 1 0-11.45h52.207a5.725 5.725 0 0 1 5.725 5.725zm0 43.049a5.725 5.725 0 0 1-5.725 5.725h-52.207a5.725 5.725 0 0 1 0-11.45h52.207a5.726 5.726 0 0 1 5.725 5.725zm0 43.048a5.725 5.725 0 0 1-5.725 5.725h-52.207a5.725 5.725 0 0 1 0-11.45h52.207a5.726 5.726 0 0 1 5.725 5.725zM286.914 48.901h-17.379V31.522a5.725 5.725 0 0 0-5.725-5.725h-27.985a5.725 5.725 0 0 0-5.725 5.725v17.379h-17.379a5.725 5.725 0 0 0-5.725 5.725V82.61a5.725 5.725 0 0 0 5.725 5.725H230.1v17.379a5.725 5.725 0 0 0 5.725 5.725h27.985a5.725 5.725 0 0 0 5.725-5.725v-17.38h17.379a5.725 5.725 0 0 0 5.725-5.725V54.625a5.726 5.726 0 0 0-5.725-5.724zm-5.725 27.983H263.81a5.725 5.725 0 0 0-5.725 5.725v17.379H241.55V82.609a5.725 5.725 0 0 0-5.725-5.725h-17.379V60.35h17.379a5.725 5.725 0 0 0 5.725-5.725V37.247h16.536v17.379a5.725 5.725 0 0 0 5.725 5.725h17.379v16.533zM30.683 505.972h450.634a5.725 5.725 0 0 0 0-11.45h-21.296V214.555c0-15.152-12.325-27.479-27.475-27.479h-71.445V128.96c4.901-2.832 8.244-8.07 8.244-14.126V96.285c0-9.028-7.346-16.372-16.372-16.372h-2.631a5.725 5.725 0 0 0 0 11.45h2.631a4.93 4.93 0 0 1 4.923 4.923v18.549a4.93 4.93 0 0 1-4.923 4.923h-19.805V27.171c0-11.658-9.485-21.143-21.143-21.143H187.61c-11.658 0-21.143 9.485-21.143 21.143v92.586H148.95a4.928 4.928 0 0 1-4.923-4.923V96.285c0-2.715 2.208-4.923 5.268-4.923 3.162 0 5.551-2.562 5.551-5.725 0-3.162-2.734-5.725-5.896-5.725-9.028 0-16.372 7.344-16.372 16.372v18.549c0 9.028 7.344 16.372 16.372 16.372h1.945v55.87h-71.44c-15.152 0-27.479 12.327-27.479 27.479v279.968H30.683a5.725 5.725 0 1 0 0 11.45zm330.419-307.447h71.445c8.837 0 16.026 7.191 16.026 16.029v279.968h-87.471zM177.916 27.171c0-5.344 4.349-9.694 9.694-9.694h124.416c5.344 0 9.694 4.349 9.694 9.694v92.586H177.916zm-15.571 104.035h187.307v363.317h-29.081V388.811a5.725 5.725 0 0 0-11.45 0v105.712h-47.399V388.811a5.725 5.725 0 0 0-11.45 0v105.712h-47.399V388.811a5.725 5.725 0 0 0-11.45 0v105.712h-29.081c.003-42.956.003-320.322.003-363.317zm-98.919 83.349c0-8.838 7.191-16.029 16.029-16.029h71.441v295.997h-87.47zm120.159-23.586h25.302c6.407 0 11.621-5.212 11.621-11.621v-25.302c0-6.408-5.214-11.621-11.621-11.621h-25.302c-6.407 0-11.621 5.212-11.621 11.621v25.302c.001 6.409 5.215 11.621 11.621 11.621zm0-37.094h25.302c.097 0 .171.075.171.171l-.171 25.473-25.473-.171zm59.765 37.094h25.302c6.407 0 11.621-5.212 11.621-11.621v-25.302c0-6.408-5.214-11.621-11.621-11.621H243.35c-6.407 0-11.621 5.212-11.621 11.621v25.302c0 6.409 5.214 11.621 11.621 11.621zm0-37.094h25.302c.097 0 .171.075.171.171l-.171 25.473-25.473-.171zm59.765 37.094h25.302c6.407 0 11.621-5.212 11.621-11.621v-25.302c0-6.408-5.214-11.621-11.621-11.621h-25.302c-6.407 0-11.621 5.212-11.621 11.621v25.302c0 6.409 5.214 11.621 11.621 11.621zm0-37.094h25.302c.093 0 .171.076.171.171l-.171 25.473-25.473-.171zm-119.53 100.981h25.302c6.407 0 11.621-5.212 11.621-11.621v-25.304c0-6.408-5.214-11.621-11.621-11.621h-25.302c-6.407 0-11.621 5.212-11.621 11.621v25.304c.001 6.409 5.215 11.621 11.621 11.621zm0-37.096h25.302c.093 0 .171.076.171.171l-.171 25.475-25.473-.171zm59.765 37.096h25.302c6.407 0 11.621-5.212 11.621-11.621v-25.304c0-6.408-5.214-11.621-11.621-11.621H243.35c-6.407 0-11.621 5.212-11.621 11.621v25.304c0 6.409 5.214 11.621 11.621 11.621zm0-37.096h25.302c.093 0 .171.076.171.171l-.171 25.475-25.473-.171zm59.765 37.096h25.302c6.407 0 11.621-5.212 11.621-11.621v-25.304c0-6.408-5.214-11.621-11.621-11.621h-25.302c-6.407 0-11.621 5.212-11.621 11.621v25.304c0 6.409 5.214 11.621 11.621 11.621zm0-37.096h25.302c.093 0 .171.078.171.171l-.171 25.475-25.473-.171zm-94.228 100.981c6.407 0 11.621-5.212 11.621-11.621v-25.302c0-6.408-5.214-11.621-11.621-11.621h-25.302c-6.407 0-11.621 5.212-11.621 11.621v25.302c0 6.408 5.214 11.621 11.621 11.621zm-25.302-37.094h25.302c.097 0 .171.075.171.171l-.171 25.473-25.473-.171zm59.765 37.094h25.302c6.407 0 11.621-5.212 11.621-11.621v-25.302c0-6.408-5.214-11.621-11.621-11.621H243.35c-6.407 0-11.621 5.212-11.621 11.621v25.302c0 6.409 5.214 11.621 11.621 11.621zm0-37.094h25.302c.097 0 .171.075.171.171l-.171 25.473-25.473-.171zm59.765 37.094h25.302c6.407 0 11.621-5.212 11.621-11.621v-25.302c0-6.408-5.214-11.621-11.621-11.621h-25.302c-6.407 0-11.621 5.212-11.621 11.621v25.302c0 6.409 5.214 11.621 11.621 11.621zm0-37.094h25.302c.093 0 .171.076.171.171l-.171 25.473-25.473-.171z" opacity="1" data-original="url(#a)"></path></g></svg>