<svg xmlns="http://www.w3.org/2000/svg" version="1.1" xmlns:xlink="http://www.w3.org/1999/xlink" width="512" height="512" x="0" y="0" viewBox="0 0 32 32" style="enable-background:new 0 0 512 512" xml:space="preserve"><rect width="32" height="32" rx="6.4" ry="6.4" fill="#bac8d3" shape="rounded"></rect><g transform="matrix(0.7,0,0,0.7,4.799099922180176,4.80805335044861)"><linearGradient id="a" x1="8.575" x2="21.64" y1="26.046" y2="3.417" gradientUnits="userSpaceOnUse"><stop offset="0" stop-color="#3cacb6"></stop><stop offset="1" stop-color="#8ccead"></stop></linearGradient><path fill="url(#a)" d="M25.183 5.676A15 15 0 0 1 21.35 4.8a14.971 14.971 0 0 1-4.118-2.34 1.965 1.965 0 0 0-2.464 0A14.971 14.971 0 0 1 10.65 4.8a15 15 0 0 1-3.833.881A1.994 1.994 0 0 0 5 7.666v8.35a11.941 11.941 0 0 0 4.5 9.37l5.247 4.2a1.989 1.989 0 0 0 2.5 0l5.247-4.2a11.941 11.941 0 0 0 4.5-9.37v-8.35a1.994 1.994 0 0 0-1.811-1.99zM25 16.016a9.952 9.952 0 0 1-3.753 7.809L16 28.022l-5.247-4.2A9.952 9.952 0 0 1 7 16.016l.007-8.349a17.089 17.089 0 0 0 4.343-1 16.392 16.392 0 0 0 4.634-2.645 17.019 17.019 0 0 0 4.666 2.647 17.029 17.029 0 0 0 4.35 1zm-4.709-4.722a1 1 0 0 1 1.418 1.412l-6 6.024a1 1 0 0 1-.709.294 1 1 0 0 1-.708-.3l-4-4.024a1 1 0 1 1 1.418-1.41L15 16.606z" data-name="Layer 2" opacity="1" data-original="url(#a)"></path></g></svg>