<svg xmlns="http://www.w3.org/2000/svg" version="1.1" xmlns:xlink="http://www.w3.org/1999/xlink" width="512" height="512" x="0" y="0" viewBox="0 0 96 96" style="enable-background:new 0 0 512 512" xml:space="preserve"><rect width="96" height="96" rx="19.2" ry="19.2" fill="#bac8d3" shape="rounded"></rect><g transform="matrix(0.5499999999999999,0,0,0.5499999999999999,21.49880293607711,21.599962341785435)"><linearGradient id="a" x1="47.774" x2="47.774" y1="-.714" y2="97.524" gradientUnits="userSpaceOnUse"><stop offset="0" stop-color="#f9a825"></stop><stop offset="1" stop-color="#e53935"></stop></linearGradient><path fill="url(#a)" d="m87.962 82.612-9.5-48A2 2 0 0 0 76.5 33H67v-2c0-3.309-2.691-6-6-6h-1c-3.309 0-6 2.691-6 6v2H42v-2c0-3.309-2.691-6-6-6h-1c-3.309 0-6 2.691-6 6v2h-9.5a2 2 0 0 0-1.962 1.612l-9.5 48c-.06.3-.046.607.03.896-.04.159-.068.321-.068.492v8a2 2 0 0 0 2 2h76a2 2 0 0 0 2-2v-8c0-.17-.028-.333-.068-.492.076-.29.09-.595.03-.896zM58 31c0-1.103.897-2 2-2h1c1.103 0 2 .897 2 2v2h-5zm-25 0c0-1.103.897-2 2-2h1c1.103 0 2 .897 2 2v2h-5zm-11.857 6h53.714l8.708 44h-71.13zM84 90H12v-5h72zM48 51c-4.411 0-8 3.589-8 8s3.589 8 8 8 8-3.589 8-8-3.589-8-8-8zm0 12c-2.206 0-4-1.794-4-4s1.794-4 4-4 4 1.794 4 4-1.794 4-4 4zm-2-16a2 2 0 1 1 4 0 2 2 0 0 1-4 0zm4 24a2 2 0 1 1-4 0 2 2 0 0 1 4 0zm10-14a2 2 0 1 1 0 4 2 2 0 0 1 0-4zm-24 4a2 2 0 1 1 0-4 2 2 0 0 1 0 4zm22.414-8.586a2 2 0 1 1-2.828-2.828 2 2 0 0 1 2.828 2.828zm-18 13.172a2 2 0 1 1-2.828 2.828 2 2 0 0 1 2.828-2.828zm-2.828-13.172a2 2 0 1 1 2.828-2.828 2 2 0 0 1-2.828 2.828zm55.163-40.063c-.205-2.909-2.414-5.244-5.253-5.552a225.672 225.672 0 0 0-80.097 5.6c-2.768.702-4.63 3.321-4.428 6.23l.787 11.28a4.028 4.028 0 0 0 1.518 2.879 3.946 3.946 0 0 0 3.083.79l16.46-2.773c1.919-.324 3.29-1.977 3.3-3.913l1.136-5.75c13.558-2.263 24.076-3 37.816-2.643l1.925 5.535c.278 1.915 1.867 3.361 3.812 3.415l16.685.456a3.98 3.98 0 0 0 2.942-1.211 4.026 4.026 0 0 0 1.104-3.064zM24.155 26.86 7.749 29.63l-.138-1.973 16.825-2.76-.285 1.438c-.034.173-.008.35.004.525zm46.24-10.98a2 2 0 0 0-1.828-1.341c-15.175-.465-26.38.318-41.345 2.89a2 2 0 0 0-1.623 1.584l-.335 1.694L7.33 23.649l-.37-5.299c-.067-.975.53-1.847 1.42-2.073a221.673 221.673 0 0 1 78.682-5.502h.001c.913.1 1.626.88 1.694 1.855l.397 5.3-18.192-.418zm2.559 7.567a2 2 0 0 0-.106-.518l-.482-1.385 17.09.393.147 1.969zM4 9.96A2 2 0 0 1 2.788 6.37 21.27 21.27 0 0 1 15.274 2c1.111-.014 2.02.851 2.045 1.955A2 2 0 0 1 15.363 6 17.293 17.293 0 0 0 5.211 9.552a1.992 1.992 0 0 1-1.21.408zM48 39c-11.028 0-20 8.972-20 20s8.972 20 20 20c4.079 0 7.947-1.227 11.271-3.517.262.041.525.075.79.075 1.28 0 2.56-.487 3.535-1.461a4.998 4.998 0 0 0 1.362-4.523A19.84 19.84 0 0 0 68 59c0-11.028-8.972-20-20-20zm12.768 32.268c-.39.39-1.024.39-1.414 0l-2.122-2.122a1.001 1.001 0 0 1 1.414-1.414l2.122 2.122c.39.39.39 1.024 0 1.414zm1.675-5.396-.968-.968a5.006 5.006 0 0 0-7.072 0 5.006 5.006 0 0 0 0 7.07l1.12 1.12A15.746 15.746 0 0 1 48 75c-8.822 0-16-7.178-16-16s7.178-16 16-16 16 7.178 16 16c0 2.406-.536 4.74-1.557 6.872z" opacity="1" data-original="url(#a)"></path></g></svg>