<svg xmlns="http://www.w3.org/2000/svg" version="1.1" xmlns:xlink="http://www.w3.org/1999/xlink" width="512" height="512" x="0" y="0" viewBox="0 0 1706.66 1706.66" style="enable-background:new 0 0 512 512" xml:space="preserve" fill-rule="evenodd" class=""><rect width="1706.66" height="1706.66" rx="341.332" ry="341.332" fill="#bac8d3" shape="rounded"></rect><g transform="matrix(0.65,0,0,0.65,298.66549530029295,298.66198520660396)"><linearGradient id="a" x1="479.68" x2="1226.97" y1="853.33" y2="853.33" gradientUnits="userSpaceOnUse"><stop offset="0" stop-color="#ffb800"></stop><stop offset="1" stop-color="#ff5329"></stop></linearGradient><path fill="url(#a)" d="M1164.76 1333.71h-27.91v301.09c0 39.57-32.22 71.79-71.8 71.79H641.47c-39.58 0-71.8-32.22-71.8-71.8V1333.7h-27.91c-34.17 0-62.08-27.78-62.08-62.08V234.48c0-34.17 27.78-62.08 62.08-62.08h81.52V20.05c0-11.11 8.89-20 20-20h418.02c10.97 0 20 8.89 20 20v152.34h83.6c34.17 0 62.08 27.78 62.08 62.08v1037.14c-.14 34.16-27.91 62.08-62.22 62.08zM961.58 1666.6v-332.89h-40.83v332.89zm40-332.89v332.89h63.61c17.5 0 31.8-14.31 31.8-31.8v-301.09zM880.75 1666.6v-332.89H609.66v301.09c0 17.5 14.31 31.8 31.8 31.8zm-293.57-372.88 577.71-.01c12.22 0 22.08-9.86 22.08-22.08V234.49c0-12.22-9.86-22.08-22.08-22.08h-83.46v78.05h26.94c26.3 0 26.42 40-.14 40H598.28c-26.36 0-26.37-40 0-40h25v-78.05h-81.52c-12.22 0-22.08 9.86-22.08 22.09v1037.14c0 28.97 37.47 22.08 67.51 22.08zM912.83 253.8H700.9c-26.36 0-26.37-40 0-40h211.79c26.29 0 26.35 40 .14 40zm-60.56-64.72H700.9c-26.36 0-26.37-40 0-40h151.24c26.29 0 26.35 40 .13 40zm103.33-64.72H700.9c-26.36 0-26.37-40 0-40h254.7c26.26 0 26.43 40 0 40zm-292.34 67.53.01 98.56h378.02V40.06H663.27v151.83zm-69.42 217.02 518.73-.03c18.44 2.11 32.87 17.84 32.87 36.83v184.71c-.13 20.42-16.66 37.08-37.22 37.08H598.27c-20.41 0-37.08-16.66-37.08-37.08v-184.7c0-18.91 14.31-34.61 32.65-36.81zm493.55 767.03h-69.72c-26.29 0-26.3-40 0-40h69.72c26.23 0 26.39 40 0 40zm0-127.49h-69.72c-26.29 0-26.3-40 0-40h69.72c26.23 0 26.4 40 0 40zm0-127.49h-69.72c-26.29 0-26.3-40 0-40h69.72c26.23 0 26.4 40 0 40zm0-127.49h-69.72c-26.33 0-26.33-40 0-40h69.72c26.27 0 26.43 40 0 40zm-197.9 382.47h-69.72c-26.33 0-26.33-40 0-40h69.72c26.3 0 26.3 40 0 40zm0-127.49h-69.72c-26.33 0-26.33-40 0-40h69.72c26.29 0 26.3 40 0 40zm0-127.63h-69.72c-26.33 0-26.33-40 0-40l69.72.01c26.29 0 26.3 39.99 0 39.99zm0-127.48h-69.72c-26.36 0-26.37-40 0-40l69.72.01c26.33 0 26.33 40 0 40zm-197.9 382.47h-69.72c-26.33 0-26.33-40 0-40h69.72c26.33 0 26.33 40 0 40zm0-127.63h-69.72c-26.33 0-26.33-40 0-40h69.72c26.33 0 26.33 40 0 40zm0-127.49h-69.72c-26.33 0-26.33-40 0-40h69.72c26.33 0 26.33 40 0 40zm0-127.49h-69.72c-26.36 0-26.37-40 0-40h69.72c26.36 0 26.37 40 0 40zm-90.41-165.68h504.26V448.51H601.18z" opacity="1" data-original="url(#a)"></path></g></svg>