<svg xmlns="http://www.w3.org/2000/svg" version="1.1" xmlns:xlink="http://www.w3.org/1999/xlink" width="512" height="512" x="0" y="0" viewBox="0 0 3873 3873" style="enable-background:new 0 0 512 512" xml:space="preserve"><rect width="3873" height="3873" rx="774.6" ry="774.6" fill="#bac8d3" shape="rounded"></rect><g transform="matrix(0.6799999999999999,0,0,0.6799999999999999,639.6848974609377,609.6638281250002)"><linearGradient id="a" x1="695.88" x2="3018.049" y1="830.345" y2="3152.514" gradientUnits="userSpaceOnUse"><stop offset="0" stop-color="#ee0979"></stop><stop offset="1" stop-color="#ff6a00"></stop></linearGradient><path fill="url(#a)" d="M2887.8 1253.1H348.5c-100.5 0-182.3 81.8-182.3 182.3v1589.7c0 100.5 81.8 182.3 182.3 182.3h2539.2c100.6 0 182.4-81.8 182.4-182.3V1435.4c0-100.5-81.8-182.3-182.3-182.3zM287.2 1759.6h2661.9v131.2H287.2zm61.3-385.5h2539.3c33.8 0 61.3 27.5 61.3 61.3v203.2H287.2v-203.2c0-33.8 27.5-61.3 61.3-61.3zm2539.3 1712.3H348.5c-33.8 0-61.3-27.5-61.3-61.3V2011.8h2661.9v1013.3c0 33.8-27.5 61.3-61.3 61.3zm-156.4-652.5h-1100c-33.4 0-60.5 27.1-60.5 60.5v310.1c0 33.4 27.1 60.5 60.5 60.5h1100c33.4 0 60.5-27.1 60.5-60.5v-310.1c0-33.4-27.1-60.5-60.5-60.5zm-60.5 310h-979v-189.1h979zm-1645.6-400H615.7c-94.5 0-171.4 76.9-171.4 171.4v268.1c0 94.5 76.9 171.4 171.4 171.4h409.5c94.5 0 171.4-76.9 171.5-171.4v-268.1c0-94.5-76.9-171.4-171.4-171.4zm50.4 171.4v73.6H881V2465h144.3c27.8 0 50.4 22.5 50.4 50.3zm-460-50.3H760v123.9H565.3v-73.6c0-27.7 22.6-50.3 50.4-50.3zm-50.4 318.4v-73.5H760v123.8H615.7c-27.8 0-50.4-22.5-50.4-50.3zm460 50.3H881v-123.8h194.7v73.5c0 27.7-22.6 50.3-50.4 50.3zm2291.4-1523.2c-.5 32.2-26.3 59.8-61.3 59.8-33.4-.4-60.2-27.8-59.8-61.2.8-71.8-56.6-131.7-129.7-132.3-33.4-.3-60.3-27.6-60-61 .3-32.5 26.3-60 61-60 139.8 1 251.5 115.5 249.8 254.7zm187.9 1.6c-.2 32.3-25.9 60-61 60-33.4-.4-60.2-27.7-59.9-61.2 1.9-176.4-139.6-320.9-316.1-322.3-33.4-.3-60.3-27.6-60-61.1.3-32.4 26.3-60 61-60 243.1 2.1 438.7 201 436 444.6zm202.2 2.1c-.3 33.2-27.4 59.9-60.5 59.9h-.6c-33.4-.3-60.2-27.7-59.9-61.1 2.9-288.2-227.9-523.7-516.2-526.4-33.4-.3-60.3-27.6-60-61.1.3-33.4 27.7-60.2 61.1-60 355.2 3.4 639.5 293.5 636.1 648.7z" opacity="1" data-original="url(#a)"></path></g></svg>