<svg xmlns="http://www.w3.org/2000/svg" version="1.1" xmlns:xlink="http://www.w3.org/1999/xlink" width="512" height="512" x="0" y="0" viewBox="0 0 512 512" style="enable-background:new 0 0 512 512" xml:space="preserve" class=""><rect width="512" height="512" rx="102.4" ry="102.4" fill="#bac8d3" shape="rounded"></rect><g transform="matrix(0.5499999999999999,0,0,0.5499999999999999,115.19999227523803,115.20011672973632)"><linearGradient id="a" x1="56.439" x2="455.561" y1="455.986" y2="56.865" gradientUnits="userSpaceOnUse"><stop offset="0" stop-color="#aa3bff"></stop><stop offset="1" stop-color="#fd7fff"></stop></linearGradient><path fill="url(#a)" d="M501.736 103.993a5.886 5.886 0 0 0-6.614 2.275L388.195 260.905 260.907 70.607c-2.19-3.274-7.624-3.274-9.815 0L123.805 261.028 16.881 106.268c-1.468-2.114-4.143-3.067-6.614-2.275a5.9 5.9 0 0 0-4.146 5.634v269.116c0 35.9 29.206 65.106 65.106 65.106h369.55c35.896 0 65.102-29.206 65.102-65.106V109.627a5.904 5.904 0 0 0-4.143-5.634zm-7.663 274.75c0 29.39-23.91 53.301-53.297 53.301H71.227c-29.39 0-53.301-23.91-53.301-53.301V128.557l101.102 146.329c1.111 1.599 2.963 2.229 4.904 2.544a5.907 5.907 0 0 0 4.861-2.621L256 84.51l127.207 190.176a5.917 5.917 0 0 0 4.861 2.621c1.845-.208 3.789-.938 4.9-2.544l101.106-146.221v250.201zM256.05 259.952h-.015c-35.257 0-63.8 28.558-63.792 63.73 0 35.232 28.532 63.776 63.776 63.776h.015c35.139 0 63.73-28.614 63.73-63.792.001-35.169-28.533-63.714-63.714-63.714zm-.015 115.702h-.015c-28.705 0-51.971-23.251-51.971-51.971 0-28.661 23.263-51.925 51.986-51.925h.015c28.639 0 51.909 23.244 51.909 51.909 0 28.668-23.291 51.987-51.924 51.987z" opacity="1" data-original="url(#a)"></path></g></svg>