<svg xmlns="http://www.w3.org/2000/svg" version="1.1" xmlns:xlink="http://www.w3.org/1999/xlink" width="512" height="512" x="0" y="0" viewBox="0 0 491.5 491.5" style="enable-background:new 0 0 512 512" xml:space="preserve"><rect width="491.5" height="491.5" rx="98.3" ry="98.3" fill="#bac8d3" shape="rounded"></rect><g transform="matrix(0.6399999999999999,0,0,0.6399999999999999,83.47000000000006,84.35200164794927)"><linearGradient id="a" x1="245.75" x2="245.75" y1="31.2" y2="465.2" gradientUnits="userSpaceOnUse"><stop offset="0" stop-color="#f704fe"></stop><stop offset="1" stop-color="#24bce3"></stop></linearGradient><path fill="url(#a)" d="M193.5 178.9H87.1c-2.6 0-4.8-2.1-4.8-4.8 0-2.6 2.1-4.8 4.8-4.8h106.4c2.6 0 4.8 2.1 4.8 4.8 0 2.6-2.1 4.8-4.8 4.8zm0 83.9H87.1c-2.6 0-4.8-2.1-4.8-4.8 0-2.6 2.1-4.8 4.8-4.8h106.4c2.6 0 4.8 2.1 4.8 4.8 0 2.6-2.1 4.8-4.8 4.8zm164.6 66.4c-2.6 0-4.8-2.1-4.8-4.8v-41.1c0-11.3-9.2-20.5-20.5-20.5h-20.6c-2.7 0-4.8-2.1-4.8-4.8 0-2.6 2.1-4.8 4.8-4.8h20.6c16.6 0 30.1 13.5 30.1 30.1v41.1c0 2.7-2.1 4.8-4.8 4.8zm87.1 0c-2.6 0-4.8-2.1-4.8-4.8v-96.5c0-27-22-49-49-49h-79.1c-2.7 0-4.8-2.1-4.8-4.8 0-2.6 2.1-4.8 4.8-4.8h79.1c32.3 0 58.6 26.3 58.6 58.6v96.5c0 2.7-2.2 4.8-4.8 4.8zM288.1 161.5c-2.6 0-4.8-2.1-4.8-4.8v-19c0-4.6-3.7-8.3-8.3-8.3h-44.3c-4.6 0-8.3 3.7-8.3 8.3v19c0 2.6-2.1 4.8-4.8 4.8s-4.8-2.1-4.8-4.8v-19c0-9.8 8-17.9 17.8-17.9h44.3c9.8 0 17.8 8 17.8 17.9v19c.2 2.6-2 4.8-4.6 4.8zm-50.2-32.1c-2.6 0-4.8-2.1-4.8-4.8V85.2c0-2.6 2.1-4.8 4.8-4.8 2.6 0 4.8 2.1 4.8 4.8v39.4c-.1 2.7-2.2 4.8-4.8 4.8zm30 0c-2.6 0-4.8-2.1-4.8-4.8V85.2c0-2.6 2.1-4.8 4.8-4.8 2.6 0 4.8 2.1 4.8 4.8v39.4c0 2.7-2.1 4.8-4.8 4.8zm-15-88.6c-12.2 0-22.1 9.9-22.1 22.1S240.7 85 252.9 85 275 75.1 275 62.9s-9.9-22.1-22.1-22.1zm0 53.8c-17.5 0-31.7-14.2-31.7-31.7s14.2-31.7 31.7-31.7 31.7 14.2 31.7 31.7-14.2 31.7-31.7 31.7zm-22.3-11.9h-60c-10.9 0-19.8-8.9-19.8-19.8s8.9-19.8 19.8-19.8h60c2.7 0 4.8 2.1 4.8 4.8 0 2.6-2.1 4.8-4.8 4.8h-60c-5.6 0-10.2 4.6-10.2 10.2s4.6 10.2 10.2 10.2h60c2.7 0 4.8 2.1 4.8 4.8s-2.2 4.8-4.8 4.8zm104.6 0h-60c-2.6 0-4.8-2.1-4.8-4.8 0-2.6 2.1-4.8 4.8-4.8h60c5.6 0 10.2-4.6 10.2-10.2s-4.6-10.2-10.2-10.2h-60c-2.6 0-4.8-2.1-4.8-4.8s2.1-4.8 4.8-4.8h60c10.9 0 19.8 8.9 19.8 19.8s-8.9 19.8-19.8 19.8zm20.4 246.5c-1.7 0-3.1 1.4-3.1 3.1v15.4c0 1.7 1.4 3.1 3.1 3.1h92.2c1.7 0 3.1-1.4 3.1-3.1v-15.4c0-1.7-1.4-3.1-3.1-3.1zm92.2 31.3h-92.2c-7 0-12.7-5.7-12.7-12.7v-15.4c0-7 5.7-12.7 12.7-12.7h92.2c7 0 12.7 5.7 12.7 12.7v15.4c0 7-5.7 12.7-12.7 12.7zM48.5 160c-4.3 0-7.9 3.5-7.9 7.9v96.4c0 4.3 3.5 7.9 7.9 7.9h26c4.3 0 7.9-3.5 7.9-7.9v-96.4c0-4.3-3.5-7.9-7.9-7.9zm26 121.7h-26c-9.6 0-17.5-7.8-17.5-17.5v-96.4c0-9.6 7.8-17.5 17.5-17.5h26c9.6 0 17.5 7.8 17.5 17.5v96.4c-.1 9.6-7.9 17.5-17.5 17.5zm131.7-120.2c-4.3 0-7.9 3.5-7.9 7.9v90c0 4.3 3.5 7.9 7.9 7.9h93.4c4.4 0 7.9-3.5 7.9-7.9v-90c0-4.3-3.5-7.9-7.9-7.9zm93.4 115.3h-93.4c-9.6 0-17.5-7.8-17.5-17.5v-90c0-9.6 7.8-17.5 17.5-17.5h93.4c9.6 0 17.5 7.8 17.5 17.5v90c-.1 9.7-7.9 17.5-17.5 17.5zm102.1 106.7c-19.7 26.3-23.7 45.2-20 57.2 3 9.9 11.5 14.8 20 14.8s17-4.9 20-14.8c3.7-12-.3-31-20-57.2zm-29.2 60c-4.7-15.3.1-39 25.2-70.5 1.8-2.6 5.7-2.8 7.7-.3 14.1 17.6 32.7 46.9 25.4 70.8-4.4 14.4-16.8 21.7-29.2 21.7-12.3-.1-24.7-7.3-29.1-21.7z" opacity="1" data-original="url(#a)"></path></g></svg>