<?xml version="1.0" encoding="iso-8859-1"?>
<!-- Generator: Adobe Illustrator 19.0.0, SVG Export Plug-In . SVG Version: 6.00 Build 0)  -->
<svg version="1.1" id="Layer_1" xmlns="http://www.w3.org/2000/svg" xmlns:xlink="http://www.w3.org/1999/xlink" x="0px" y="0px"
	 viewBox="0 0 512 512" style="enable-background:new 0 0 512 512;" xml:space="preserve">
<path style="fill:#415E72;" d="M176.952,0h198c35.344,0,64,28.656,64,64v384c0,35.344-28.656,64-64,64h-198
	c-35.344,0-64-28.656-64-64V64C112.952,28.656,141.608,0,176.952,0z"/>
<g>
	<circle style="fill:#AAC1CE;" cx="275.952" cy="30.176" r="12"/>
	<path style="fill:#AAC1CE;" d="M303.088,488.272H248.8c-7.488,0.544-14.008-5.08-14.552-12.576s5.08-14.008,12.576-14.552
		c0.656-0.048,1.32-0.048,1.976,0h54.264c7.488,0.544,13.12,7.064,12.576,14.552c-0.488,6.728-5.84,12.088-12.576,12.576H303.088z"
		/>
</g>
<g>
	<polygon style="fill:#25B6D2;" points="319.288,312.24 319.288,396.504 212.544,312.24 	"/>
	<path style="fill:#25B6D2;" d="M88.728,111.088h268.48c8.656,0,15.68,7.024,15.68,15.68v184.216c0,8.656-7.024,15.68-15.68,15.68
		H88.728c-8.656,0-15.68-7.024-15.68-15.68V126.768C73.048,118.112,80.072,111.088,88.728,111.088z"/>
</g>
<g>
	<circle style="fill:#FFFFFF;" cx="149.12" cy="218.88" r="22.48"/>
	<circle style="fill:#FFFFFF;" cx="222.968" cy="218.88" r="22.48"/>
	<circle style="fill:#FFFFFF;" cx="296.8" cy="218.88" r="22.48"/>
</g>
<g>
</g>
<g>
</g>
<g>
</g>
<g>
</g>
<g>
</g>
<g>
</g>
<g>
</g>
<g>
</g>
<g>
</g>
<g>
</g>
<g>
</g>
<g>
</g>
<g>
</g>
<g>
</g>
<g>
</g>
</svg>
