<svg height="384pt" viewBox="0 0 384.00091 384" width="384pt" xmlns="http://www.w3.org/2000/svg"><path d="m208 0c-1.597656 0-3.296875.0078125-4.320312.0820312-.007813 0-.023438 0-.03125 0-1.214844-.0507812-2.464844-.0820312-3.648438-.0820312-101.457031 0-184 82.535156-184 184 0 31.167969 7.929688 61.570312 22.863281 88.601562l-35.476562 65.101563c-.203125.371094-.386719.753906-.5625 1.136719-5.464844 12.226562-2.8632815 26.25 6.609375 35.730468 6.175781 6.175782 14.296875 9.4375 22.582031 9.429688 4.417969 0 8.890625-.917969 13.144531-2.824219.382813-.167969.761719-.359375 1.136719-.558593l65.105469-35.480469c27.03125 14.929687 57.4375 22.863281 88.597656 22.863281 101.457031 0 184-82.535156 184-184 0-1.367188-.03125-2.742188-.085938-4.113281.054688-1.292969.085938-2.613281.085938-3.886719 0-97.046875-78.949219-176-176-176zm-8 336c-28.375 0-56.015625-7.871094-79.933594-22.785156-.160156-.101563-.34375-.148438-.503906-.246094-.523438-.296875-1.058594-.550781-1.609375-.792969-.433594-.191406-.863281-.375-1.3125-.527343-.511719-.167969-1.039063-.296876-1.566406-.40625-.488281-.113282-.96875-.226563-1.464844-.28125-.527344-.066407-1.046875-.082032-1.585937-.097657-.496094-.015625-.984376-.03125-1.480469 0-.527344.03125-1.046875.121094-1.566407.210938-.503906.085937-1.007812.167969-1.503906.300781-.472656.128906-.929687.296875-1.390625.464844-.554687.199218-1.097656.425781-1.625.6875-.167969.089844-.351562.128906-.519531.21875l-71.847656 39.160156 39.160156-71.851562c.09375-.183594.144531-.375.230469-.558594.25-.503906.457031-1.023438.65625-1.550782.175781-.480468.351562-.945312.480469-1.433593.128906-.496094.214843-.992188.304687-1.496094.085937-.519531.175781-1.03125.207031-1.558594.03125-.503906.015625-1.015625 0-1.527343-.015625-.511719-.023437-1.015626-.089844-1.519532-.0625-.523437-.183593-1.027344-.292968-1.539062-.113282-.503906-.234375-1-.394532-1.488282-.152343-.46875-.351562-.917968-.550781-1.382812-.230469-.527344-.472656-1.039062-.761719-1.535156-.09375-.175782-.148437-.359375-.261718-.527344-14.90625-23.914062-22.777344-51.5625-22.777344-79.9375 0-83.816406 68.183594-152 152-152 .847656-.007812 1.785156-.007812 2.640625.046875.34375.027344 1.089844.035156 1.441406.035156.167969 0 .328125-.050781.496094-.050781.160156-.007812.3125.035156.472656.015625.957031-.0625 1.972657-.046875 2.949219-.046875 79.402344 0 144 64.601562 144 144 0 .960938.007812 1.984375-.046875 2.945312-.015625.320313.039063.625.039063.941407 0 .320312-.054688.632812-.039063.960937.054687 1.039063.046875 2.097656.046875 3.152344 0 83.816406-68.183594 152-152 152zm0 0"/><path d="m272 168h-18.359375c-1.113281-3.710938-2.566406-7.273438-4.382813-10.625l12.976563-12.972656c6.246094-6.25 6.246094-16.386719 0-22.625-6.25-6.25-16.378906-6.25-22.632813 0l-12.96875 12.976562c-3.351562-1.816406-6.910156-3.28125-10.625-4.394531v-18.359375c0-8.832031-7.167968-16-16-16-8.832031 0-16 7.167969-16 16v18.359375c-3.710937 1.113281-7.277343 2.570313-10.621093 4.394531l-12.96875-12.976562c-6.25-6.25-16.378907-6.25-22.632813 0-6.25 6.238281-6.25 16.375 0 22.625l12.976563 12.972656c-1.816407 3.351562-3.28125 6.914062-4.386719 10.625h-18.375c-8.832031 0-16 7.167969-16 16s7.167969 16 16 16h18.359375c1.113281 3.710938 2.570313 7.273438 4.386719 10.625l-12.976563 12.976562c-6.25 6.246094-6.25 16.382813 0 22.621094 3.128907 3.128906 7.214844 4.691406 11.3125 4.691406 4.09375 0 8.191407-1.5625 11.320313-4.691406l12.964844-12.972656c3.355468 1.816406 6.914062 3.277344 10.625 4.390625v18.359375c0 8.832031 7.167968 16 16 16 8.832031 0 16-7.167969 16-16v-18.359375c3.710937-1.113281 7.28125-2.566406 10.625-4.390625l12.96875 12.972656c3.128906 3.128906 7.214843 4.691406 11.320312 4.691406 4.09375 0 8.183594-1.5625 11.3125-4.691406 6.246094-6.238281 6.246094-16.375 0-22.621094l-12.976562-12.976562c1.816406-3.351562 3.277343-6.914062 4.382812-10.625h18.375c8.832031 0 16-7.167969 16-16s-7.167969-16-16-16zm-96 16c0-13.230469 10.769531-24 24-24 13.234375 0 24 10.769531 24 24 0 13.234375-10.765625 24-24 24-13.230469 0-24-10.765625-24-24zm0 0"/></svg>