<?xml version="1.0"?>
<svg xmlns="http://www.w3.org/2000/svg" xmlns:xlink="http://www.w3.org/1999/xlink" version="1.1" id="Capa_1" x="0px" y="0px" viewBox="0 0 512 512" style="enable-background:new 0 0 512 512;" xml:space="preserve" width="512px" height="512px" class=""><g><g>
	<g>
		<path d="M378.5,167h-246c-8.284,0-15,6.716-15,15v212.78c0,8.284,6.716,15,15,15h19V467c0,24.813,20.187,45,45,45s45-20.187,45-45    v-57.22h30V467c0,24.813,20.187,45,45,45s45-20.187,45-45v-57.22h17c8.284,0,15-6.716,15-15V182    C393.5,173.716,386.784,167,378.5,167z M363.5,379.78h-17c-8.284,0-15,6.716-15,15V467c0,8.271-6.729,15-15,15s-15-6.729-15-15    v-72.22c0-8.284-6.716-15-15-15h-60c-8.284,0-15,6.716-15,15V467c0,8.271-6.729,15-15,15s-15-6.729-15-15v-72.22    c0-8.284-6.716-15-15-15h-19V197h216V379.78z" data-original="#000000" class="active-path" data-old_color="#000000" fill="#FFFFFF"/>
	</g>
</g><g>
	<g>
		<path d="M454.5,167c-24.813,0-45,20.187-45,45v89c0,24.813,20.187,45,45,45s45-20.187,45-45v-89    C499.5,187.187,479.313,167,454.5,167z M469.5,301c0,8.271-6.729,15-15,15s-15-6.729-15-15v-89c0-8.271,6.729-15,15-15    s15,6.729,15,15V301z" data-original="#000000" class="active-path" data-old_color="#000000" fill="#FFFFFF"/>
	</g>
</g><g>
	<g>
		<path d="M57.5,167c-24.813,0-45,20.187-45,45v89c0,24.813,20.187,45,45,45s45-20.187,45-45v-89C102.5,187.187,82.313,167,57.5,167    z M72.5,301c0,8.271-6.729,15-15,15s-15-6.729-15-15v-89c0-8.271,6.729-15,15-15s15,6.729,15,15V301z" data-original="#000000" class="active-path" data-old_color="#000000" fill="#FFFFFF"/>
	</g>
</g><g>
	<g>
		<path d="M390.107,25.606c5.857-5.857,5.857-15.354,0-21.212c-5.857-5.858-15.355-5.858-21.213,0l-26.491,26.491    C318.66,11.586,288.41,0,255.5,0c-32.4,0-62.223,11.229-85.795,29.992L144.107,4.394c-5.857-5.858-15.355-5.858-21.213,0    c-5.858,5.858-5.858,15.355,0,21.213l25.491,25.491C129.086,74.84,117.5,105.091,117.5,138c0,8.284,6.716,15,15,15h246    c8.284,0,15-6.716,15-15c0-32.4-11.229-62.223-29.992-85.795L390.107,25.606z M148.538,123c7.323-52.478,52.499-93,106.962-93    s99.639,40.522,106.962,93H148.538z" data-original="#000000" class="active-path" data-old_color="#000000" fill="#FFFFFF"/>
	</g>
</g></g> </svg>
