<svg viewBox="0 0 318 212" fill="none" xmlns="http://www.w3.org/2000/svg"><g clip-path="url(#a)"><mask id="b" style="mask-type:alpha" maskUnits="userSpaceOnUse" x="0" y="0" width="318" height="212"><path fill="#fff" stroke="#DEE4EA" d="M.5.5h317v211H.5z"/></mask><g mask="url(#b)" fill="#DEE4EA"><g opacity=".3"><path d="m107.338 344.23-64.94-134.191a.468.468 0 0 1 .216-.612.486.486 0 0 1 .625.182L108.177 343.8l-.85.41.01.02Z"/><path d="M47.066 207.725c.994 2.1.038 4.66-2.14 5.731-2.177 1.071-4.737.24-5.73-1.861-.995-2.1-.04-4.661 2.138-5.731 2.178-1.071 4.738-.24 5.732 1.861ZM156.996 191.302c.994 2.1.038 4.661-2.139 5.732-2.178 1.071-4.738.239-5.732-1.861-.994-2.101-.039-4.661 2.139-5.732 2.186-1.052 4.747-.22 5.732 1.861ZM189.464 163.453c.994 2.101.039 4.661-2.139 5.732-2.177 1.071-4.738.24-5.731-1.861-.994-2.1-.039-4.661 2.139-5.732 2.177-1.07 4.737-.239 5.731 1.861ZM243.716 199.859c.994 2.1.039 4.66-2.139 5.731-2.177 1.071-4.738.24-5.732-1.861-.993-2.1-.038-4.66 2.14-5.731 2.177-1.071 4.737-.24 5.731 1.861ZM50.005 142.773c.994 2.101.039 4.661-2.139 5.732-2.177 1.071-4.737.239-5.731-1.861-.994-2.101-.039-4.661 2.139-5.732 2.177-1.071 4.737-.239 5.731 1.861ZM87.312 159.987c.994 2.1.038 4.661-2.139 5.732-2.177 1.07-4.738.239-5.732-1.861-.994-2.101-.038-4.661 2.14-5.732 2.177-1.071 4.737-.24 5.731 1.861ZM160.188 89.907l-24.005-50.983L77.96 36.27 43.742 84.598l24.005 50.983 58.223 2.654 34.218-48.328Zm-25.156-49.372 23.2 49.272-33.067 46.718-56.267-2.555-23.2-49.272 33.076-46.699 56.258 2.536Z"/><path d="M130.596 136.498c.986 2.092.017 4.652-2.168 5.732-2.186 1.079-4.746.262-5.732-1.83-.986-2.092-.017-4.652 2.168-5.732 2.195-1.06 4.755-.243 5.732 1.83ZM73.915 132.33c.985 2.092.017 4.652-2.169 5.732-2.185 1.079-4.746.262-5.731-1.83-.986-2.092-.018-4.653 2.168-5.732 2.185-1.079 4.746-.262 5.731 1.83ZM48.981 80.624c.986 2.092.017 4.652-2.168 5.731-2.186 1.08-4.746.262-5.732-1.83-.986-2.092-.017-4.652 2.168-5.731 2.195-1.06 4.755-.243 5.732 1.83ZM81.233 34.106c.986 2.092.017 4.653-2.168 5.732-2.186 1.08-4.746.262-5.732-1.83-.986-2.092-.017-4.652 2.168-5.732 2.186-1.08 4.746-.262 5.732 1.83ZM137.991 38.48c.986 2.092.017 4.652-2.169 5.732-2.185 1.08-4.745.262-5.731-1.83-.986-2.092-.018-4.652 2.168-5.732s4.746-.262 5.732 1.83ZM162.459 89.634c.986 2.092.018 4.652-2.168 5.732-2.185 1.08-4.746.262-5.732-1.83-.985-2.092-.017-4.653 2.169-5.732 2.185-1.08 4.746-.262 5.731 1.83ZM176.894 137.384c.994 2.101.038 4.661-2.139 5.732-2.177 1.071-4.738.24-5.732-1.861-.994-2.1-.038-4.661 2.139-5.731 2.178-1.071 4.738-.24 5.732 1.86ZM201.638 81.782c.994 2.1.039 4.661-2.139 5.732-2.177 1.07-4.738.24-5.732-1.861-.994-2.1-.038-4.66 2.139-5.732 2.187-1.051 4.747-.22 5.732 1.861ZM261.361-5.658c.994 2.1.038 4.66-2.139 5.732-2.178 1.07-4.738.24-5.732-1.861-.994-2.1-.038-4.661 2.139-5.732 2.187-1.052 4.747-.22 5.732 1.861ZM251.929 37.649c.994 2.1.039 4.66-2.139 5.731-2.177 1.071-4.738.24-5.732-1.86-.994-2.101-.038-4.662 2.139-5.732 2.178-1.071 4.738-.24 5.732 1.86ZM234.591 1.686c.994 2.1.039 4.66-2.139 5.732-2.177 1.07-4.738.24-5.731-1.861-.994-2.101-.039-4.661 2.139-5.732 2.177-1.071 4.737-.24 5.731 1.86ZM312.556 98.562c.994 2.1.039 4.661-2.139 5.731-2.177 1.071-4.738.24-5.732-1.86-.994-2.101-.038-4.661 2.139-5.732 2.178-1.071 4.738-.24 5.732 1.86ZM25.903 372.436l.845-.411-72.454-151.487 12.998-18.171-.74-.485-13.327 18.597 72.678 151.957Z"/><path d="m215.457 233.893 22.642-32.506-14.651-31.074 71.601-102.424-33.858-71.81-.826.408 33.64 71.347-71.602 102.424 14.651 31.074-22.319 32.085.722.476ZM170.205 228.739l.831-.41-16.794-35.559-.258-.016-57.637-3.327-12.532-26.533-.83.409 12.742 26.979.257.017 57.637 3.326 16.584 35.114ZM387.51 27.615l.096-.904-81.088-3.8-29.325-62.224-.828.409L305.9 23.764l.257.016 81.353 3.835ZM415.166 167.652l.098.261-28.3 40.036-1.655.816 28.929-40.917-49.421-104.776 52.279-73.987.742.467-51.983 73.556 49.311 104.544Z"/><path d="m464.261 170.21-90.454-4.251-.259-.016L293.685-2.618l.836-.41 79.641 168.093 91.77 4.324-1.671.821ZM172.564 139.531l.85-.41 45.444 94.32-.85.411-45.444-94.321ZM238.797 202.045l71.529-101.33-.712-.47-71.539 101.311.722.489ZM170.608 228.403l.085-.876-88.252-5.076-35.953-76.186-.829.409 36.163 76.631.277.006 88.509 5.092Z"/><path d="m272.618 239.468 83.85-118.807-.73-.458-83.53 118.346-54.696-4.396-.122.878 55.228 4.437ZM126.232 138.671l.85-.411 32.297 67.054-.85.411-32.297-67.054ZM184.562 165.771a.453.453 0 0 0 .174-.157l31.8-44.907a.452.452 0 0 0 .037-.446l-17.323-36.74a.449.449 0 0 0-.595-.206c-.222.11-.341.383-.232.615l17.214 36.507-31.643 44.711a.444.444 0 0 0 .094.62.512.512 0 0 0 .474.003Z"/><path d="M294.185 208.042c.226-.111.348-.387.236-.621l-48.77-102.369 20.86-29.86a.456.456 0 0 0 .037-.452l-16.849-35.366a.457.457 0 0 0-.821.401l16.747 35.151-20.86 29.861a.454.454 0 0 0-.037.451L293.6 207.822c.071.255.36.33.585.22Z"/><path d="M244.637 104.906c.224-.11.345-.385.234-.619l-33.354-70.368 20.828-29.606c.148-.217.099-.48-.116-.615a.463.463 0 0 0-.635.144l-20.986 29.804a.456.456 0 0 0-.038.45l33.475 70.621c.081.224.368.299.592.189ZM345.331 211.983l.104-.873-50.054-3.239-.123.883 50.073 3.229Z"/></g><g opacity=".7"><path d="m423.428 181.097.235-.326 44.743-63.171-31.51-66.935-.395-.014-76.094-3.424-.236.325-44.743 63.172 31.51 66.935.396.013 76.094 3.425Zm43.369-63.56-44.045 62.177-74.9-3.366-30.846-65.523 44.046-62.177 74.9 3.365 30.845 65.524ZM398.691 218.631a.357.357 0 0 0 .186-.279.305.305 0 0 0-.306-.338l-78.665-3.58-31.081-65.872c-.071-.151-.272-.215-.431-.137-.158.078-.235.279-.163.431l31.161 66.042c.045.095.149.16.274.168l78.868 3.596a.422.422 0 0 0 .157-.031Z"/><path d="M348.944 175.059a.357.357 0 0 0 .186-.278.305.305 0 0 0-.305-.339l-86.6-3.933-28.702-60.91c-.071-.151-.272-.215-.43-.137-.158.078-.234.279-.163.43l28.773 61.061c.044.095.148.16.274.168l86.793 3.931a.192.192 0 0 0 .174.007ZM318.476 111.853c-1.801.889-3.919.212-4.732-1.512-.812-1.724-.012-3.843 1.789-4.732 1.8-.889 3.919-.212 4.731 1.512.813 1.725.012 3.843-1.788 4.732Z"/><path d="M289.752 149.658c-1.486.734-3.234.175-3.905-1.248-.671-1.423-.01-3.171 1.476-3.905 1.486-.733 3.234-.175 3.905 1.248.671 1.423.01 3.172-1.476 3.905ZM234.469 110.59c1.492-.737 2.141-2.495 1.476-3.905-.674-1.429-2.432-1.975-3.905-1.248-1.493.737-2.141 2.494-1.476 3.905.654 1.439 2.412 1.985 3.905 1.248ZM322.115 216.775c-1.486.734-3.234.176-3.905-1.247-.67-1.423-.01-3.172 1.476-3.906 1.486-.733 3.235-.175 3.905 1.248.671 1.423.01 3.172-1.476 3.905Z"/><path d="m317.785 208.489.61-.294L350 273.796l-.609.294-31.606-65.601Z"/><g opacity=".2"><path d="m423.428 181.097.235-.326 44.743-63.171-31.51-66.935-.395-.014-76.094-3.424-.236.325-44.743 63.172 31.51 66.935.396.013 76.094 3.425Zm43.369-63.56-44.045 62.177-74.9-3.366-30.846-65.523 44.046-62.177 74.9 3.365 30.845 65.524ZM398.691 218.631a.357.357 0 0 0 .186-.279.305.305 0 0 0-.306-.338l-78.665-3.58-31.081-65.872c-.071-.151-.272-.215-.431-.137-.158.078-.235.279-.163.431l31.161 66.042c.045.095.149.16.274.168l78.868 3.596a.422.422 0 0 0 .157-.031Z"/><path d="M348.944 175.059a.357.357 0 0 0 .186-.278.305.305 0 0 0-.305-.339l-86.6-3.933-28.702-60.91c-.071-.151-.272-.215-.43-.137-.158.078-.234.279-.163.43l28.773 61.061c.044.095.148.16.274.168l86.793 3.931a.192.192 0 0 0 .174.007ZM318.476 111.853c-1.801.889-3.919.212-4.732-1.512-.812-1.724-.012-3.843 1.789-4.732 1.8-.889 3.919-.212 4.731 1.512.813 1.725.012 3.843-1.788 4.732Z"/><path d="M289.752 149.658c-1.486.734-3.234.175-3.905-1.248-.671-1.423-.01-3.171 1.476-3.905 1.486-.733 3.234-.175 3.905 1.248.671 1.423.01 3.172-1.476 3.905ZM322.115 216.775c-1.486.734-3.234.176-3.905-1.247-.67-1.423-.01-3.172 1.476-3.906 1.486-.733 3.235-.175 3.905 1.248.671 1.423.01 3.172-1.476 3.905Z"/><path d="m317.785 208.489.61-.294L350 273.796l-.609.294-31.606-65.601Z"/></g></g><g opacity=".7"><path d="M352.61 209.503c.246-.119.358-.411.247-.641l-41.206-85.551c-.111-.231-.409-.324-.655-.205-.246.119-.359.41-.247.641l41.185 85.561a.527.527 0 0 0 .676.195Z"/><path d="m342.636 125.785.318-.458 51.875-73.333-36.723-77.907-.549-.03-88.367-4.085-52.193 73.79 36.723 77.908.549.031 88.367 4.084Zm50.036-73.888-50.924 72.004-86.759-4.019-35.826-76.004 50.924-72.003 86.759 4.019 35.826 76.003Z"/><path d="M217.082 37.671c-2.18 1.077-3.169 3.651-2.185 5.739.984 2.087 3.549 2.907 5.748 1.82 2.18-1.076 3.169-3.65 2.185-5.738-.983-2.087-3.549-2.907-5.748-1.82ZM255.098 116.52c-2.18 1.076-3.17 3.651-2.186 5.738.984 2.088 3.549 2.907 5.749 1.821 2.18-1.076 3.169-3.651 2.185-5.738-.984-2.088-3.549-2.907-5.748-1.821ZM337.864 232.181l-49.598 70.166-.904.446-.385-.25 49.771-70.415-26.053-55.323 35.447-50.158.778.52-35.129 49.7 26.073 55.314Z"/><path d="M257.074 119.713a.483.483 0 0 0 .276-.392c.021-.266-.173-.472-.433-.507l-54.842-2.535-12.23-25.945a.466.466 0 0 0-.629-.2c-.237.116-.345.402-.238.628l12.346 26.19a.435.435 0 0 0 .385.252l55.142 2.549a.43.43 0 0 0 .223-.04Z"/><path d="M186.721 90.875c.665 1.41 2.404 1.966 3.896 1.23 1.473-.728 2.15-2.476 1.485-3.887-.665-1.41-2.403-1.966-3.896-1.229-1.492.737-2.149 2.476-1.485 3.886ZM307.483 177.349c.665 1.41 2.403 1.966 3.896 1.229 1.473-.727 2.149-2.476 1.485-3.886-.665-1.41-2.404-1.966-3.896-1.229-1.493.737-2.15 2.476-1.485 3.886ZM253.889 120.802c.665 1.411 2.404 1.966 3.896 1.229 1.473-.727 2.15-2.475 1.485-3.885-.665-1.411-2.403-1.966-3.896-1.229-1.501.718-2.149 2.475-1.485 3.885Z"/><path d="m390.141 252.846-8.368-17.673-73.057-3.361-.294.003-54.283-114.642.899-.442 54.049 114.147 73.057 3.362.273.006 8.603 18.167-.879.433Z"/><path d="m379.558 257.784-87.831-4.148a.439.439 0 0 1-.388-.253l-37.767-80.695c-.107-.227.002-.514.24-.632.237-.117.525-.025.632.202l37.651 80.449 88.411 4.189a.437.437 0 0 1 .388.253l-1.328.654-.008-.019ZM240.497 143.207a.447.447 0 0 0 .188-.162l16.601-23.309a.458.458 0 0 0-.117-.655c-.214-.148-.514-.069-.675.148l-16.601 23.31a.44.44 0 0 0 .108.637c.16.082.36.098.496.031Z"/><path d="M293.367 251.34a.488.488 0 0 0 .277-.393.46.46 0 0 0-.434-.508l-88.078-4.159-25.797-55.328a.467.467 0 0 0-.631-.202c-.237.117-.345.404-.238.63l25.913 55.574a.434.434 0 0 0 .387.252l88.348 4.165a.334.334 0 0 0 .253-.031Z"/><path d="M231.796 297.456a.49.49 0 0 0 .278-.395c.021-.267-.175-.474-.436-.509l-58.479-2.716 50.744-72.512a.457.457 0 0 0 .048-.468l-24.842-52.636c-.107-.228-.395-.32-.633-.202-.237.117-.346.404-.239.632l24.735 52.409-51.063 72.974a.453.453 0 0 0-.048.467.436.436 0 0 0 .388.253l59.302 2.753a.453.453 0 0 0 .245-.05ZM250.997 171.189c.665 1.41 2.403 1.966 3.896 1.229 1.472-.727 2.149-2.476 1.484-3.886-.664-1.41-2.403-1.966-3.895-1.229-1.493.737-2.15 2.475-1.485 3.886ZM175.973 190.937c.665 1.41 2.404 1.966 3.896 1.229 1.473-.727 2.15-2.476 1.485-3.886-.665-1.41-2.403-1.966-3.896-1.229-1.473.727-2.149 2.476-1.485 3.886ZM133.596 161.691c.665 1.41 2.404 1.965 3.896 1.228 1.473-.727 2.15-2.475 1.485-3.885-.665-1.411-2.403-1.966-3.896-1.229-1.492.737-2.149 2.475-1.485 3.886ZM109.608 236.824l23.32-32.981-16.407-34.807-39.737-1.846-23.32 32.981 16.408 34.807 39.736 1.846Zm21.732-33.056-22.379 31.633-38.119-1.761-15.75-33.413 22.378-31.633 38.12 1.761 15.75 33.413Z"/><path d="M129.106 206.211c.665 1.41 2.404 1.965 3.896 1.229 1.473-.728 2.15-2.476 1.485-3.886-.665-1.411-2.404-1.966-3.896-1.229-1.501.718-2.158 2.456-1.485 3.886ZM112.157 171.056c.665 1.41 2.403 1.965 3.896 1.229 1.472-.728 2.149-2.476 1.484-3.886-.664-1.411-2.403-1.966-3.895-1.229-1.493.737-2.15 2.475-1.485 3.886ZM73.747 168.527c.665 1.411 2.403 1.966 3.896 1.229 1.472-.727 2.15-2.475 1.484-3.886-.664-1.41-2.403-1.966-3.895-1.229-1.502.719-2.159 2.457-1.485 3.886ZM51.989 200.586c.665 1.41 2.403 1.966 3.896 1.229 1.473-.727 2.15-2.475 1.485-3.886-.665-1.41-2.404-1.966-3.896-1.229-1.493.737-2.15 2.476-1.485 3.886ZM36.837 216.591c.664 1.411 2.403 1.966 3.895 1.229 1.473-.727 2.15-2.475 1.485-3.885-.665-1.411-2.403-1.966-3.896-1.229-1.492.737-2.15 2.475-1.484 3.885ZM6.717 207.459c.665 1.41 2.404 1.966 3.896 1.229 1.473-.727 2.15-2.475 1.485-3.886-.665-1.41-2.403-1.966-3.896-1.229-1.492.737-2.15 2.476-1.485 3.886ZM193.954 169.777c.665 1.41 2.403 1.966 3.896 1.229 1.472-.727 2.149-2.476 1.484-3.886-.664-1.41-2.403-1.966-3.895-1.229-1.493.737-2.15 2.476-1.485 3.886ZM181.798 144.565c.664 1.41 2.403 1.965 3.895 1.229 1.473-.728 2.15-2.476 1.485-3.886-.665-1.411-2.403-1.966-3.896-1.229-1.492.737-2.149 2.475-1.484 3.886ZM289.083 302.486l-30.023-1.506-37.103-78.184.903-.443 36.877 77.707 29.306 1.457-30.673-64.635.903-.443 31.053 65.436-1.243.611Z"/><path d="m223.843 166.391.889-.438-10.04-21.29-30.161-1.315-.087.952 29.59 1.293 9.809 20.798ZM125.32 318.925l.116-.942-26.055-1.421-10.774-22.847-83.637-4.309-22.029-46.716-.888.438 22.252 47.188 83.646 4.328 10.774 22.848 26.595 1.433ZM242.139 324.632l.895-.44-12.107-25.622 34.336-48.663-39.068-82.677 17.124-24.193-.808-.515-17.444 24.655 39.068 82.677-34.336 48.663 12.34 26.115ZM138.559 299.107l39.001-56.23-39.089-82.719-.875.431 38.864 82.244-38.7 55.778.799.496ZM103.185 273.757a.491.491 0 0 0 .28-.395.452.452 0 0 0-.429-.492l-36.883-1.683-26.166-55.323c-.108-.229-.397-.321-.637-.203-.239.118-.348.406-.24.634l26.283 55.571a.438.438 0 0 0 .39.253l37.176 1.679a.376.376 0 0 0 .226-.041Z"/><path d="M40.443 270.589c.246-.119.358-.41.247-.641L9.868 205.936c-.111-.231-.409-.324-.655-.205-.246.119-.358.41-.247.641l30.822 64.012c.111.231.409.324.655.205ZM352.61 209.503c.246-.119.358-.411.247-.641l-41.206-85.551c-.111-.231-.409-.324-.655-.205-.246.119-.359.41-.247.641l41.185 85.561a.527.527 0 0 0 .676.195Z"/><path d="m342.636 125.785.318-.458 51.875-73.333-36.723-77.907-.549-.03-88.367-4.085-52.193 73.79 36.723 77.908.549.031 88.367 4.084Zm50.036-73.888-50.924 72.004-86.759-4.019-35.826-76.004 50.924-72.003 86.759 4.019 35.826 76.003Z"/><path d="M217.082 37.671c-2.18 1.077-3.169 3.651-2.185 5.739.984 2.087 3.549 2.907 5.748 1.82 2.18-1.076 3.169-3.65 2.185-5.738-.983-2.087-3.549-2.907-5.748-1.82ZM255.098 116.52c-2.18 1.076-3.17 3.651-2.186 5.738.984 2.088 3.549 2.907 5.749 1.821 2.18-1.076 3.169-3.651 2.185-5.738-.984-2.088-3.549-2.907-5.748-1.821ZM337.864 232.181l-49.598 70.166-.904.446-.385-.25 49.771-70.415-26.053-55.323 35.447-50.158.778.52-35.129 49.7 26.073 55.314Z"/><path d="M257.074 119.713a.483.483 0 0 0 .276-.392c.021-.266-.173-.472-.433-.507l-54.842-2.535-12.23-25.945a.466.466 0 0 0-.629-.2c-.237.116-.345.402-.238.628l12.346 26.19a.435.435 0 0 0 .385.252l55.142 2.549a.43.43 0 0 0 .223-.04Z"/><path d="M186.721 90.875c.665 1.41 2.404 1.966 3.896 1.23 1.473-.728 2.15-2.476 1.485-3.887-.665-1.41-2.403-1.966-3.896-1.229-1.492.737-2.149 2.476-1.485 3.886ZM307.483 177.349c.665 1.41 2.403 1.966 3.896 1.229 1.473-.727 2.149-2.476 1.485-3.886-.665-1.41-2.404-1.966-3.896-1.229-1.493.737-2.15 2.476-1.485 3.886ZM253.889 120.802c.665 1.411 2.404 1.966 3.896 1.229 1.473-.727 2.15-2.475 1.485-3.885-.665-1.411-2.403-1.966-3.896-1.229-1.501.718-2.149 2.475-1.485 3.885Z"/><path d="m390.141 252.846-8.368-17.673-73.057-3.361-.294.003-54.283-114.642.899-.442 54.049 114.147 73.057 3.362.273.006 8.603 18.167-.879.433Z"/><path d="m379.558 257.784-87.831-4.148a.439.439 0 0 1-.388-.253l-37.767-80.695c-.107-.227.002-.514.24-.632.237-.117.525-.025.632.202l37.651 80.449 88.411 4.189a.437.437 0 0 1 .388.253l-1.328.654-.008-.019ZM240.497 143.207a.447.447 0 0 0 .188-.162l16.601-23.309a.458.458 0 0 0-.117-.655c-.214-.148-.514-.069-.675.148l-16.601 23.31a.44.44 0 0 0 .108.637c.16.082.36.098.496.031Z"/><path d="M293.367 251.34a.488.488 0 0 0 .277-.393.46.46 0 0 0-.434-.508l-88.078-4.159-25.797-55.328a.467.467 0 0 0-.631-.202c-.237.117-.345.404-.238.63l25.913 55.574a.434.434 0 0 0 .387.252l88.348 4.165a.334.334 0 0 0 .253-.031Z"/><path d="M231.796 297.456a.49.49 0 0 0 .278-.395c.021-.267-.175-.474-.436-.509l-58.479-2.716 50.744-72.512a.457.457 0 0 0 .048-.468l-24.842-52.636c-.107-.228-.395-.32-.633-.202-.237.117-.346.404-.239.632l24.735 52.409-51.063 72.974a.453.453 0 0 0-.048.467.436.436 0 0 0 .388.253l59.302 2.753a.453.453 0 0 0 .245-.05ZM250.997 171.189c.665 1.41 2.403 1.966 3.896 1.229 1.472-.727 2.149-2.476 1.484-3.886-.664-1.41-2.403-1.966-3.895-1.229-1.493.737-2.15 2.475-1.485 3.886ZM175.973 190.937c.665 1.41 2.404 1.966 3.896 1.229 1.473-.727 2.15-2.476 1.485-3.886-.665-1.41-2.403-1.966-3.896-1.229-1.473.727-2.149 2.476-1.485 3.886ZM133.596 161.691c.665 1.41 2.404 1.965 3.896 1.228 1.473-.727 2.15-2.475 1.485-3.885-.665-1.411-2.403-1.966-3.896-1.229-1.492.737-2.149 2.475-1.485 3.886ZM109.608 236.824l23.32-32.981-16.407-34.807-39.737-1.846-23.32 32.981 16.408 34.807 39.736 1.846Zm21.732-33.056-22.379 31.633-38.119-1.761-15.75-33.413 22.378-31.633 38.12 1.761 15.75 33.413Z"/><path d="M129.106 206.211c.665 1.41 2.404 1.965 3.896 1.229 1.473-.728 2.15-2.476 1.485-3.886-.665-1.411-2.404-1.966-3.896-1.229-1.501.718-2.158 2.456-1.485 3.886ZM112.157 171.056c.665 1.41 2.403 1.965 3.896 1.229 1.472-.728 2.149-2.476 1.484-3.886-.664-1.411-2.403-1.966-3.895-1.229-1.493.737-2.15 2.475-1.485 3.886ZM73.747 168.527c.665 1.411 2.403 1.966 3.896 1.229 1.472-.727 2.15-2.475 1.484-3.886-.664-1.41-2.403-1.966-3.895-1.229-1.502.719-2.159 2.457-1.485 3.886ZM51.989 200.586c.665 1.41 2.403 1.966 3.896 1.229 1.473-.727 2.15-2.475 1.485-3.886-.665-1.41-2.404-1.966-3.896-1.229-1.493.737-2.15 2.476-1.485 3.886ZM36.837 216.591c.664 1.411 2.403 1.966 3.895 1.229 1.473-.727 2.15-2.475 1.485-3.885-.665-1.411-2.403-1.966-3.896-1.229-1.492.737-2.15 2.475-1.484 3.885ZM193.954 169.777c.665 1.41 2.403 1.966 3.896 1.229 1.472-.727 2.149-2.476 1.484-3.886-.664-1.41-2.403-1.966-3.895-1.229-1.493.737-2.15 2.476-1.485 3.886ZM181.798 144.565c.664 1.41 2.403 1.965 3.895 1.229 1.473-.728 2.15-2.476 1.485-3.886-.665-1.411-2.403-1.966-3.896-1.229-1.492.737-2.149 2.475-1.484 3.886ZM289.083 302.486l-30.023-1.506-37.103-78.184.903-.443 36.877 77.707 29.306 1.457-30.673-64.635.903-.443 31.053 65.436-1.243.611Z"/><path d="m223.843 166.391.889-.438-10.04-21.29-30.161-1.315-.087.952 29.59 1.293 9.809 20.798ZM125.32 318.925l.116-.942-26.055-1.421-10.774-22.847-83.637-4.309-22.029-46.716-.888.438 22.252 47.188 83.646 4.328 10.774 22.848 26.595 1.433ZM242.139 324.632l.895-.44-12.107-25.622 34.336-48.663-39.068-82.677 17.124-24.193-.808-.515-17.444 24.655 39.068 82.677-34.336 48.663 12.34 26.115ZM138.559 299.107l39.001-56.23-39.089-82.719-.875.431 38.864 82.244-38.7 55.778.799.496ZM103.185 273.757a.491.491 0 0 0 .28-.395.452.452 0 0 0-.429-.492l-36.883-1.683-26.166-55.323c-.108-.229-.397-.321-.637-.203-.239.118-.348.406-.24.634l26.283 55.571a.438.438 0 0 0 .39.253l37.176 1.679a.376.376 0 0 0 .226-.041Z"/><path d="M40.443 270.589c.246-.119.358-.41.247-.641L9.868 205.936c-.111-.231-.409-.324-.655-.205-.246.119-.358.41-.247.641l30.822 64.012c.111.231.409.324.655.205ZM352.61 209.503c.246-.119.358-.411.247-.641l-41.206-85.551c-.111-.231-.409-.324-.655-.205-.246.119-.359.41-.247.641l41.185 85.561a.527.527 0 0 0 .676.195Z"/><path d="m342.636 125.785.318-.458 51.875-73.333-36.723-77.907-.549-.03-88.367-4.085-52.193 73.79 36.723 77.908.549.031 88.367 4.084Zm50.036-73.888-50.924 72.004-86.759-4.019-35.826-76.004 50.924-72.003 86.759 4.019 35.826 76.003Z"/><path d="M217.082 37.671c-2.18 1.077-3.169 3.651-2.185 5.739.984 2.087 3.549 2.907 5.748 1.82 2.18-1.076 3.169-3.65 2.185-5.738-.983-2.087-3.549-2.907-5.748-1.82ZM255.098 116.52c-2.18 1.076-3.17 3.651-2.186 5.738.984 2.088 3.549 2.907 5.749 1.821 2.18-1.076 3.169-3.651 2.185-5.738-.984-2.088-3.549-2.907-5.748-1.821ZM337.864 232.181l-49.598 70.166-.904.446-.385-.25 49.771-70.415-26.053-55.323 35.447-50.158.778.52-35.129 49.7 26.073 55.314Z"/><path d="M257.074 119.713a.483.483 0 0 0 .276-.392c.021-.266-.173-.472-.433-.507l-54.842-2.535-12.23-25.945a.466.466 0 0 0-.629-.2c-.237.116-.345.402-.238.628l12.346 26.19a.435.435 0 0 0 .385.252l55.142 2.549a.43.43 0 0 0 .223-.04Z"/><path d="M186.721 90.875c.665 1.41 2.404 1.966 3.896 1.23 1.473-.728 2.15-2.476 1.485-3.887-.665-1.41-2.403-1.966-3.896-1.229-1.492.737-2.149 2.476-1.485 3.886ZM307.483 177.349c.665 1.41 2.403 1.966 3.896 1.229 1.473-.727 2.149-2.476 1.485-3.886-.665-1.41-2.404-1.966-3.896-1.229-1.493.737-2.15 2.476-1.485 3.886ZM253.889 120.802c.665 1.411 2.404 1.966 3.896 1.229 1.473-.727 2.15-2.475 1.485-3.885-.665-1.411-2.403-1.966-3.896-1.229-1.501.718-2.149 2.475-1.485 3.885Z"/><path d="m390.141 252.846-8.368-17.673-73.057-3.361-.294.003-54.283-114.642.899-.442 54.049 114.147 73.057 3.362.273.006 8.603 18.167-.879.433Z"/><path d="m379.558 257.784-87.831-4.148a.439.439 0 0 1-.388-.253l-37.767-80.695c-.107-.227.002-.514.24-.632.237-.117.525-.025.632.202l37.651 80.449 88.411 4.189a.437.437 0 0 1 .388.253l-1.328.654-.008-.019ZM240.497 143.207a.447.447 0 0 0 .188-.162l16.601-23.309a.458.458 0 0 0-.117-.655c-.214-.148-.514-.069-.675.148l-16.601 23.31a.44.44 0 0 0 .108.637c.16.082.36.098.496.031Z"/><path d="M293.367 251.34a.488.488 0 0 0 .277-.393.46.46 0 0 0-.434-.508l-88.078-4.159-25.797-55.328a.467.467 0 0 0-.631-.202c-.237.117-.345.404-.238.63l25.913 55.574a.434.434 0 0 0 .387.252l88.348 4.165a.334.334 0 0 0 .253-.031Z"/><path d="M231.796 297.456a.49.49 0 0 0 .278-.395c.021-.267-.175-.474-.436-.509l-58.479-2.716 50.744-72.512a.457.457 0 0 0 .048-.468l-24.842-52.636c-.107-.228-.395-.32-.633-.202-.237.117-.346.404-.239.632l24.735 52.409-51.063 72.974a.453.453 0 0 0-.048.467.436.436 0 0 0 .388.253l59.302 2.753a.453.453 0 0 0 .245-.05ZM250.997 171.189c.665 1.41 2.403 1.966 3.896 1.229 1.472-.727 2.149-2.476 1.484-3.886-.664-1.41-2.403-1.966-3.895-1.229-1.493.737-2.15 2.475-1.485 3.886ZM175.973 190.937c.665 1.41 2.404 1.966 3.896 1.229 1.473-.727 2.15-2.476 1.485-3.886-.665-1.41-2.403-1.966-3.896-1.229-1.473.727-2.149 2.476-1.485 3.886ZM133.596 161.691c.665 1.41 2.404 1.965 3.896 1.228 1.473-.727 2.15-2.475 1.485-3.885-.665-1.411-2.403-1.966-3.896-1.229-1.492.737-2.149 2.475-1.485 3.886ZM109.608 236.824l23.32-32.981-16.407-34.807-39.737-1.846-23.32 32.981 16.408 34.807 39.736 1.846Zm21.732-33.056-22.379 31.633-38.119-1.761-15.75-33.413 22.378-31.633 38.12 1.761 15.75 33.413Z"/><path d="M129.106 206.211c.665 1.41 2.404 1.965 3.896 1.229 1.473-.728 2.15-2.476 1.485-3.886-.665-1.411-2.404-1.966-3.896-1.229-1.501.718-2.158 2.456-1.485 3.886ZM112.157 171.056c.665 1.41 2.403 1.965 3.896 1.229 1.472-.728 2.149-2.476 1.484-3.886-.664-1.411-2.403-1.966-3.895-1.229-1.493.737-2.15 2.475-1.485 3.886ZM73.747 168.527c.665 1.411 2.403 1.966 3.896 1.229 1.472-.727 2.15-2.475 1.484-3.886-.664-1.41-2.403-1.966-3.895-1.229-1.502.719-2.159 2.457-1.485 3.886ZM51.989 200.586c.665 1.41 2.403 1.966 3.896 1.229 1.473-.727 2.15-2.475 1.485-3.886-.665-1.41-2.404-1.966-3.896-1.229-1.493.737-2.15 2.476-1.485 3.886ZM36.837 216.591c.664 1.411 2.403 1.966 3.895 1.229 1.473-.727 2.15-2.475 1.485-3.885-.665-1.411-2.403-1.966-3.896-1.229-1.492.737-2.15 2.475-1.484 3.885ZM193.954 169.777c.665 1.41 2.403 1.966 3.896 1.229 1.472-.727 2.149-2.476 1.484-3.886-.664-1.41-2.403-1.966-3.895-1.229-1.493.737-2.15 2.476-1.485 3.886ZM181.798 144.565c.664 1.41 2.403 1.965 3.895 1.229 1.473-.728 2.15-2.476 1.485-3.886-.665-1.411-2.403-1.966-3.896-1.229-1.492.737-2.149 2.475-1.484 3.886ZM289.083 302.486l-30.023-1.506-37.103-78.184.903-.443 36.877 77.707 29.306 1.457-30.673-64.635.903-.443 31.053 65.436-1.243.611Z"/><path d="m223.843 166.391.889-.438-10.04-21.29-30.161-1.315-.087.952 29.59 1.293 9.809 20.798ZM125.32 318.925l.116-.942-26.055-1.421-10.774-22.847-83.637-4.309-22.029-46.716-.888.438 22.252 47.188 83.646 4.328 10.774 22.848 26.595 1.433ZM242.139 324.632l.895-.44-12.107-25.622 34.336-48.663-39.068-82.677 17.124-24.193-.808-.515-17.444 24.655 39.068 82.677-34.336 48.663 12.34 26.115ZM138.559 299.107l39.001-56.23-39.089-82.719-.875.431 38.864 82.244-38.7 55.778.799.496ZM103.185 273.757a.491.491 0 0 0 .28-.395.452.452 0 0 0-.429-.492l-36.883-1.683-26.166-55.323c-.108-.229-.397-.321-.637-.203-.239.118-.348.406-.24.634l26.283 55.571a.438.438 0 0 0 .39.253l37.176 1.679a.376.376 0 0 0 .226-.041Z"/></g></g></g><defs><clipPath id="a"><path fill="#fff" d="M0 0h318v212H0z"/></clipPath></defs></svg>