<svg xmlns="http://www.w3.org/2000/svg" version="1.1" xmlns:xlink="http://www.w3.org/1999/xlink" width="512" height="512" x="0" y="0" viewBox="0 0 1.707 1.707" style="enable-background:new 0 0 512 512" xml:space="preserve" class=""><g><path fill="#ffffff" d="M.827 1.513a.66.66 0 1 1 .618-.428.02.02 0 0 1-.036.003.3.3 0 0 0-.057-.075.085.085 0 0 0-.082 0c-.035.02-.2.317-.262.428l-.026.047a.02.02 0 0 1-.013.01.664.664 0 0 1-.142.015z" opacity="1" data-original="#ffffff" class=""></path><g fill="#5e5e5e"><path d="M.827.405A.084.084 0 0 1 .742.321v-.15c0-.01.009-.02.02-.02a.71.71 0 0 1 .13 0C.901.15.91.16.91.17v.15a.084.084 0 0 1-.084.084zM1.203.561a.084.084 0 0 1-.084-.084c0-.023.009-.044.024-.06L1.25.312A.021.021 0 0 1 1.278.31a.716.716 0 0 1 .091.092.021.021 0 0 1 0 .029l-.107.105a.083.083 0 0 1-.06.025zM1.508.937h-.15a.084.084 0 0 1 0-.168h.15c.011 0 .02.009.022.02a.718.718 0 0 1 0 .129.021.021 0 0 1-.022.02zM.827 1.56a.718.718 0 0 1-.065-.003.021.021 0 0 1-.02-.022v-.15a.084.084 0 0 1 .169 0v.15c0 .011-.009.02-.02.022a.723.723 0 0 1-.064.002zM.389 1.401a.021.021 0 0 1-.014-.005.716.716 0 0 1-.091-.091.021.021 0 0 1 0-.029l.107-.106c.016-.016.037-.024.06-.024s.043.008.059.024a.083.083 0 0 1 .024.06.084.084 0 0 1-.024.06l-.106.105a.021.021 0 0 1-.015.006zM.294.937h-.15a.021.021 0 0 1-.02-.02.722.722 0 0 1 0-.128.021.021 0 0 1 .02-.02h.15a.084.084 0 0 1 0 .168zM.45.561A.083.083 0 0 1 .39.536L.286.431A.021.021 0 0 1 .284.4a.715.715 0 0 1 .091-.09.021.021 0 0 1 .029 0L.51.418a.084.084 0 0 1 .024.06A.083.083 0 0 1 .45.56z" fill="#5e5e5e" opacity="1" data-original="#5e5e5e" class=""></path></g><g fill="#535353"><path d="M.742.226V.17c0-.01.009-.02.02-.02a.71.71 0 0 1 .13 0C.901.15.91.16.91.17v.055a.636.636 0 0 0-.169 0zM1.21.35l.04-.038A.021.021 0 0 1 1.277.31a.716.716 0 0 1 .091.092.021.021 0 0 1 0 .029l-.04.038A.639.639 0 0 0 1.212.35zM1.508.937h-.054a.637.637 0 0 0 0-.168h.054c.011 0 .02.009.022.02a.718.718 0 0 1 0 .129.021.021 0 0 1-.022.02zM.827 1.56a.718.718 0 0 1-.065-.003.021.021 0 0 1-.02-.022v-.054a.636.636 0 0 0 .169 0v.054c0 .011-.009.02-.02.022a.723.723 0 0 1-.064.002zM.389 1.401a.021.021 0 0 1-.014-.005.716.716 0 0 1-.091-.091.021.021 0 0 1 0-.029l.04-.039a.64.64 0 0 0 .118.12l-.038.038a.021.021 0 0 1-.015.006zM.199.937H.145a.021.021 0 0 1-.022-.02.722.722 0 0 1 0-.128.021.021 0 0 1 .022-.02h.054a.636.636 0 0 0 0 .168zM.324.47.284.43a.021.021 0 0 1 0-.028A.715.715 0 0 1 .375.31a.021.021 0 0 1 .029.002L.442.35a.639.639 0 0 0-.118.12z" fill="#535353" opacity="1" data-original="#535353" class=""></path></g><path fill="#5e5e5e" d="M.635.964A.021.021 0 0 1 .63.92L.799.876a.021.021 0 1 1 .01.042L.642.963H.635zM.88.82A.021.021 0 0 1 .858.799v-.31a.021.021 0 0 1 .043 0V.8C.901.81.891.82.88.82z" opacity="1" data-original="#5e5e5e" class=""></path><path fill="#5e5e5e" d="M.876.968a.093.093 0 1 1 0-.186.093.093 0 0 1 0 .186z" opacity="1" data-original="#5e5e5e" class=""></path><path fill="#c4c4c4" d="M.827 1.68a.827.827 0 0 1 0-1.653.827.827 0 0 1 .72 1.232.02.02 0 0 1-.035 0 3.764 3.764 0 0 0-.106-.176l.003.005a.02.02 0 0 0 .036-.004.66.66 0 1 0-.475.413.02.02 0 0 0 .012-.008l-.016.027a.083.083 0 0 0 .028.111.02.02 0 0 1-.007.037.83.83 0 0 1-.16.016z" opacity="1" data-original="#c4c4c4" class=""></path><path fill="#d33030" d="M1.584 1.68h-.547a.12.12 0 0 1-.105-.061.121.121 0 0 1 0-.123 6.24 6.24 0 0 0 .041-.074c.143-.258.24-.422.277-.444a.124.124 0 0 1 .123.001c.037.022.133.186.276.443l.041.074a.123.123 0 0 1-.106.183z" opacity="1" data-original="#919191" class=""></path><g fill="#ededee"><path d="M1.311 1.431a.07.07 0 0 1-.07-.07v-.173a.07.07 0 0 1 .14 0v.173a.07.07 0 0 1-.07.07zM1.311 1.591a.07.07 0 1 1 0-.14.07.07 0 0 1 0 .14z" fill="#ededee" opacity="1" data-original="#ededee"></path></g></g></svg>