<?xml version="1.0"?>
<svg xmlns="http://www.w3.org/2000/svg" id="Layer_1_1_" enable-background="new 0 0 64 64" height="512px" viewBox="0 0 64 64" width="512px" class=""><g><path d="m44 9v-1.172c0-.62-.473-.863-.617-.924-.146-.061-.651-.222-1.09.217l-2.059 2.059c-.59.59-1.403.905-2.237.877-.832-.032-1.62-.413-2.162-1.046l-3.075-3.589c-.387-.449-1.133-.449-1.52 0l-3.076 3.589c-.541.633-1.329 1.014-2.161 1.046-.831.029-1.647-.287-2.237-.877l-2.059-2.059c-.231-.231-.482-.296-.688-.296-.185 0-.333.051-.401.079-.145.061-.618.304-.618.924v1.172c0 5.172 3.295 9.577 7.891 11.26-1.802-2.029-2.523-4.853-1.861-7.502l1.939.484c-.531 2.129.102 4.415 1.652 5.966l1.761 1.761c.074.004.148.009.223.011l.859-.859c1.636-1.635 2.536-3.808 2.536-6.121h2c0 2.47-.837 4.81-2.373 6.701 5.356-1.202 9.373-5.987 9.373-11.701z" data-original="#000000" class="active-path" data-old_color="#000000" fill="#FFFFFF"/><path d="m18 37c0 .034-.002.068-.005.103l-1.469 14.205c-.004.553-.066 1.104-.187 1.64-.383 1.724.032 3.505 1.139 4.884 1.106 1.377 2.754 2.168 4.522 2.168h20c1.768 0 3.416-.791 4.521-2.169 1.106-1.379 1.521-3.16 1.138-4.886-.119-.533-.182-1.085-.186-1.638l-1.469-14.205c-.002-.034-.004-.068-.004-.102 0-7.013-5.189-12.821-11.926-13.829-.755-.933-1.206-1.668-1.217-1.687-.264-.437-.815-.607-1.276-.393-3.4 1.57-12.858 4.689-15.749.354l-1.664 1.109c2.104 3.156 6.207 3.441 9.994 2.852-3.715 2.52-6.162 6.776-6.162 11.594zm9 9h2v.5c0 1.379 1.121 2.5 2.5 2.5h1c1.379 0 2.5-1.121 2.5-2.5s-1.121-2.5-2.5-2.5h-1c-2.481 0-4.5-2.019-4.5-4.5 0-2.31 1.756-4.197 4-4.449v-3.051h2v3.051c2.244.252 4 2.139 4 4.449v.5h-2v-.5c0-1.379-1.121-2.5-2.5-2.5h-1c-1.379 0-2.5 1.121-2.5 2.5s1.121 2.5 2.5 2.5h1c2.481 0 4.5 2.019 4.5 4.5 0 2.31-1.756 4.197-4 4.449v3.051h-2v-3.051c-2.244-.252-4-2.139-4-4.449z" data-original="#000000" class="active-path" data-old_color="#000000" fill="#FFFFFF"/></g> </svg>
