<svg class="ldi-2b5x3q" width="200px"  height="200px"  xmlns="http://www.w3.org/2000/svg" xmlns:xlink="http://www.w3.org/1999/xlink" viewBox="0 0 100 100" preserveAspectRatio="xMidYMid" style="background: none;"><!--?xml version="1.0" encoding="utf-8"?--><!--Generator: Adobe Illustrator 21.0.0, SVG Export Plug-In . SVG Version: 6.00 Build 0)--><svg version="1.1" id="圖層_1" xmlns="http://www.w3.org/2000/svg" xmlns:xlink="http://www.w3.org/1999/xlink" x="0px" y="0px" viewBox="0 0 100 100" style="transform-origin: 50px 50px 0px;" xml:space="preserve"><g style="transform-origin: 50px 50px 0px;"><g style="transform-origin: 50px 50px 0px; transform: scale(0.6);"><g style="transform-origin: 50px 50px 0px;"><g><g style="transform-origin: 50px 50px 0px;"><g><g class="ld ld-fade" style="transform-origin: 50px 50px 0px; animation-duration: 1s; animation-delay: -1s; animation-direction: normal;"><path style="fill:#e0e0e0" d="M20,27.235c-6.904,0-12.5-3.858-12.5-8.617v48.308c0,4.759,5.596,8.617,12.5,8.617 s12.5-3.858,12.5-8.617V18.617C32.5,23.377,26.904,27.235,20,27.235z" fill="rgb(224, 224, 224)"></path></g><g class="ld ld-fade" style="transform-origin: 50px 50px 0px; animation-duration: 1s; animation-delay: -0.962963s; animation-direction: normal;"><ellipse style="fill:#ccc" cx="20" cy="18.617" rx="12.5" ry="8.617" fill="rgb(204, 204, 204)"></ellipse></g></g></g><g style="transform-origin: 50px 50px 0px;"><g><g class="ld ld-fade" style="transform-origin: 50px 50px 0px; animation-duration: 1s; animation-delay: -0.925926s; animation-direction: normal;"><path style="fill:#f8b26a" d="M20,75.543c-6.904,0-12.5-3.858-12.5-8.617v0v14.457C7.5,86.142,13.096,90,20,90 s12.5-3.858,12.5-8.617V66.925v0C32.5,71.685,26.904,75.543,20,75.543z" fill="rgb(248, 178, 106)"></path></g><g class="ld ld-fade" style="transform-origin: 50px 50px 0px; animation-duration: 1s; animation-delay: -0.888889s; animation-direction: normal;"><ellipse style="fill:#f47e60" cx="20" cy="66.925" rx="12.5" ry="8.617" fill="rgb(244, 126, 96)"></ellipse></g></g></g><g style="transform-origin: 50px 50px 0px;"><g><g class="ld ld-fade" style="transform-origin: 50px 50px 0px; animation-duration: 1s; animation-delay: -0.851852s; animation-direction: normal;"><path style="fill:#e0e0e0" d="M50,27.235c-6.904,0-12.5-3.858-12.5-8.617v33.308c0,4.759,5.596,8.617,12.5,8.617 s12.5-3.858,12.5-8.617V18.617C62.5,23.377,56.904,27.235,50,27.235z" fill="rgb(224, 224, 224)"></path></g><g class="ld ld-fade" style="transform-origin: 50px 50px 0px; animation-duration: 1s; animation-delay: -0.814815s; animation-direction: normal;"><ellipse style="fill:#ccc" cx="50" cy="18.617" rx="12.5" ry="8.617" fill="rgb(204, 204, 204)"></ellipse></g></g></g><g style="transform-origin: 50px 50px 0px;"><g><g class="ld ld-fade" style="transform-origin: 50px 50px 0px; animation-duration: 1s; animation-delay: -0.777778s; animation-direction: normal;"><path style="fill:#abbd81" d="M50,60.543c-6.904,0-12.5-3.858-12.5-8.617v0v29.457C37.5,86.142,43.096,90,50,90 s12.5-3.858,12.5-8.617V51.925v0C62.5,56.685,56.904,60.543,50,60.543z" fill="rgb(171, 189, 129)"></path></g><g class="ld ld-fade" style="transform-origin: 50px 50px 0px; animation-duration: 1s; animation-delay: -0.740741s; animation-direction: normal;"><ellipse style="fill:#849b87" cx="50" cy="51.925" rx="12.5" ry="8.617" fill="rgb(132, 155, 135)"></ellipse></g></g></g><g style="transform-origin: 50px 50px 0px;"><g><g class="ld ld-fade" style="transform-origin: 50px 50px 0px; animation-duration: 1s; animation-delay: -0.703704s; animation-direction: normal;"><path style="fill:#e0e0e0" d="M80,27.235c-6.904,0-12.5-3.858-12.5-8.617v19.308c0,4.759,5.596,8.617,12.5,8.617 s12.5-3.858,12.5-8.617V18.617C92.5,23.377,86.904,27.235,80,27.235z" fill="rgb(224, 224, 224)"></path></g><g class="ld ld-fade" style="transform-origin: 50px 50px 0px; animation-duration: 1s; animation-delay: -0.666667s; animation-direction: normal;"><ellipse style="fill:#ccc" cx="80" cy="18.617" rx="12.5" ry="8.617" fill="rgb(204, 204, 204)"></ellipse></g></g></g><g style="transform-origin: 50px 50px 0px;"><g><g class="ld ld-fade" style="transform-origin: 50px 50px 0px; animation-duration: 1s; animation-delay: -0.62963s; animation-direction: normal;"><path style="fill:#a0c8d7" d="M80,46.543c-6.904,0-12.5-3.858-12.5-8.617v0v43.457C67.5,86.142,73.096,90,80,90 s12.5-3.858,12.5-8.617V37.925v0C92.5,42.685,86.904,46.543,80,46.543z" fill="rgb(160, 200, 215)"></path></g><g class="ld ld-fade" style="transform-origin: 50px 50px 0px; animation-duration: 1s; animation-delay: -0.592593s; animation-direction: normal;"><ellipse style="fill:#77a4bd" cx="80" cy="37.925" rx="12.5" ry="8.617" fill="rgb(119, 164, 189)"></ellipse></g></g></g><metadata xmlns:d="https://loading.io/stock/" class="ld ld-fade" style="transform-origin: 50px 50px 0px; animation-duration: 1s; animation-delay: -0.555556s; animation-direction: normal;">
<d:name class="ld ld-fade" style="transform-origin: 50px 50px 0px; animation-duration: 1s; animation-delay: -0.518519s; animation-direction: normal;">bar</d:name>
<d:tags class="ld ld-fade" style="transform-origin: 50px 50px 0px; animation-duration: 1s; animation-delay: -0.481481s; animation-direction: normal;">bar,column,cylinder,percent,progress</d:tags>
<d:license class="ld ld-fade" style="transform-origin: 50px 50px 0px; animation-duration: 1s; animation-delay: -0.444444s; animation-direction: normal;">cc-by</d:license>
<d:slug class="ld ld-fade" style="transform-origin: 50px 50px 0px; animation-duration: 1s; animation-delay: -0.407407s; animation-direction: normal;">2b5x3q</d:slug>
</metadata></g></g></g></g><style type="text/css" class="ld ld-fade" style="transform-origin: 50px 50px 0px; animation-duration: 1s; animation-delay: -0.37037s; animation-direction: normal;">path,ellipse,circle,rect,polygon,polyline,line { stroke-width: 0; }@keyframes ld-fade {
  0% {
    opacity: 1;
  }
  100% {
    opacity: 0;
  }
}
@-webkit-keyframes ld-fade {
  0% {
    opacity: 1;
  }
  100% {
    opacity: 0;
  }
}
.ld.ld-fade {
  -webkit-animation: ld-fade 1s infinite linear;
  animation: ld-fade 1s infinite linear;
}
</style></svg></svg>