<svg class="ldi-ys5chf" width="128px"  height="128px"  xmlns="http://www.w3.org/2000/svg" xmlns:xlink="http://www.w3.org/1999/xlink" viewBox="0 0 100 100" preserveAspectRatio="xMidYMid" style="background: none;"><!--?xml version="1.0" encoding="utf-8"?--><!--Generator: Adobe Illustrator 21.0.0, SVG Export Plug-In . SVG Version: 6.00 Build 0)--><svg version="1.1" id="圖層_1" xmlns="http://www.w3.org/2000/svg" xmlns:xlink="http://www.w3.org/1999/xlink" x="0px" y="0px" viewBox="0 0 100 100" style="transform-origin: 50px 50px 0px;" xml:space="preserve"><g style="transform-origin: 50px 50px 0px;"><g style="transform-origin: 50px 50px 0px; transform: scale(0.79);"><g class="ld ld-breath" style="transform-origin: 50px 50px 0px; animation-duration: 1.4s; animation-delay: 0.195856s; animation-direction: reverse;"><g><style type="text/css" style="transform-origin: 50px 50px 0px;">.st0{fill:#333333;} .st1{fill:#FFFFFF;stroke:#333333;stroke-width:3.5;stroke-miterlimit:10;} .st2{fill:#F5E6C8;stroke:#333333;stroke-width:3.5;stroke-linejoin:round;stroke-miterlimit:10;} .st3{fill:#E0E0E0;stroke:#333333;stroke-width:3.5;stroke-miterlimit:10;} .st4{fill:#F5E169;stroke:#333333;stroke-width:3.5;stroke-miterlimit:10;} .st5{opacity:0.2;stroke:#000000;stroke-width:3.5;stroke-linecap:round;stroke-linejoin:round;stroke-miterlimit:10;} .st6{fill:#F5E6C8;stroke:#333333;stroke-width:3.5;stroke-miterlimit:10;} .st7{fill:#F5E6C8;stroke:#FFFFFF;stroke-width:3.5;stroke-linecap:round;stroke-miterlimit:10;} .st8{fill:#F8B26A;stroke:#333333;stroke-width:3.5;stroke-linecap:round;stroke-miterlimit:10;} .st9{fill:none;stroke:#FFFFFF;stroke-width:3.5;stroke-linecap:round;stroke-miterlimit:10;} .st10{fill:none;stroke:#333333;stroke-width:3.5;stroke-linecap:round;stroke-linejoin:round;stroke-miterlimit:10;} .st11{fill:#E15B64;stroke:#333333;stroke-width:3.1815;stroke-miterlimit:10;} .st12{fill:#F47E60;stroke:#333333;stroke-width:3.5;stroke-miterlimit:10;} .st13{fill:none;stroke:#333333;stroke-width:3.5;stroke-linecap:round;stroke-linejoin:round;} .st14{fill:none;stroke:#849B87;stroke-width:3.5;stroke-miterlimit:10;} .st15{fill:none;stroke:#E15B64;stroke-width:3.5;stroke-miterlimit:10;} .st16{fill:none;stroke:#E15B64;stroke-width:3.726;stroke-miterlimit:10;} .st17{fill:#849B87;} .st18{fill:#666666;} .st19{fill:#F47E60;} .st20{fill:#C33737;} .st21{fill:none;stroke:#333333;stroke-width:3.5;stroke-linecap:round;stroke-miterlimit:10;} .st22{fill:#F5E6C8;stroke:#333333;stroke-width:3.1815;stroke-miterlimit:10;} .st23{fill:#E15B64;stroke:#333333;stroke-width:3.1644;stroke-miterlimit:10;} .st24{fill:#77A4BD;} .st25{fill:#FFFFFF;} .st26{fill:#F5E6C8;stroke:#333333;stroke-width:3.3063;stroke-miterlimit:10;} .st27{fill:none;} .st28{fill:none;stroke:#333333;stroke-width:3.0621;stroke-linecap:round;stroke-linejoin:round;} .st29{fill:none;stroke:#333333;stroke-width:3.5;stroke-miterlimit:10;} .st30{fill:#F8B26A;stroke:#333333;stroke-width:3.5;stroke-miterlimit:10;} .st31{fill:#F47E60;stroke:#333333;stroke-width:3.5;stroke-linejoin:round;stroke-miterlimit:10;} .st32{fill:#E15B64;} .st33{opacity:0.2;} .st34{fill:#F5E6C8;stroke:#333333;stroke-width:3.1644;stroke-miterlimit:10;} .st35{fill:#849B87;stroke:#333333;stroke-width:3.5;stroke-miterlimit:10;} .st36{fill:#66503A;stroke:#333333;stroke-width:3.5;stroke-miterlimit:10;} .st37{fill:#F8B26A;} .st38{fill:#FFFFFF;stroke:#E0E0E0;stroke-width:3.5;stroke-linecap:round;stroke-miterlimit:10;} .st39{fill:none;stroke:#E0E0E0;stroke-width:3.5;stroke-linecap:round;stroke-miterlimit:10;} .st40{fill:none;stroke:#333333;stroke-width:3.5;stroke-linecap:round;stroke-linejoin:round;stroke-dasharray:9.0185,9.0185;} .st41{fill:none;stroke:#849B87;stroke-width:3.5;stroke-linecap:round;stroke-linejoin:round;stroke-miterlimit:10;} .st42{fill:#FFFFFF;stroke:#F47E60;stroke-width:3.5;stroke-miterlimit:10;} .st43{fill:none;stroke:#F47E60;stroke-width:3.5;stroke-linecap:round;stroke-miterlimit:10;} .st44{fill:none;stroke:#C33737;stroke-width:3.5;stroke-linecap:round;stroke-linejoin:round;stroke-miterlimit:10;} .st45{fill:#FFFFFF;stroke:#333333;stroke-width:3.5;stroke-linecap:round;stroke-linejoin:round;stroke-miterlimit:10;} .st46{fill:#333333;stroke:#333333;stroke-width:3.5;stroke-linecap:round;stroke-linejoin:round;stroke-miterlimit:10;} .st47{fill:#E0E0E0;} .st48{fill:none;stroke:#C33737;stroke-width:3.5;stroke-linecap:round;stroke-linejoin:round;} .st49{fill:none;stroke:#FFFFFF;stroke-width:3.5;stroke-linecap:round;stroke-linejoin:round;} .st50{fill:none;stroke:#FFFFFF;stroke-width:3.5;stroke-linecap:round;stroke-linejoin:round;stroke-dasharray:8.0279,8.0279;} .st51{fill:none;stroke:#FFFFFF;stroke-width:3.5;stroke-linecap:round;stroke-linejoin:round;stroke-miterlimit:10;} .st52{fill:none;stroke:#FFFFFF;stroke-width:3.5;stroke-miterlimit:10;}</style><g style="transform-origin: 50px 50px 0px;"><path class="st29" d="M68.401,13.627H31.599c-1.608,0-3.094,0.858-3.898,2.25L9.299,47.75c-0.804,1.393-0.804,3.108,0,4.501 l18.401,31.872c0.804,1.393,2.29,2.25,3.898,2.25h36.803c1.608,0,3.094-0.858,3.898-2.25L90.701,52.25 c0.804-1.393,0.804-3.108,0-4.501L72.299,15.877C71.495,14.485,70.009,13.627,68.401,13.627z" stroke="#bfbebe" style="stroke: rgb(191, 190, 190);"></path></g><g style="transform-origin: 50px 50px 0px;"><path class="st0" d="M64.485,64.683h-2.737v-2.89c0-3.13-1.88-6.067-5.029-7.856c-1.457-0.828-2.327-2.15-2.327-3.538v-0.797 c0-1.387,0.87-2.71,2.328-3.538c3.149-1.789,5.029-4.726,5.029-7.856v-2.89h2.737c0.62,0,1.19-0.273,1.562-0.75 c0.35-0.449,0.473-1.019,0.337-1.563l-0.324-1.299C65.663,30.113,64.182,29,62.457,29H37.542c-1.724,0-3.206,1.113-3.603,2.705 l-0.324,1.298c-0.136,0.546-0.013,1.116,0.337,1.564c0.372,0.477,0.942,0.75,1.562,0.75h2.737v2.89c0,3.13,1.88,6.067,5.029,7.856 c1.457,0.829,2.327,2.151,2.327,3.538v0.797c0,1.387-0.87,2.71-2.327,3.538c-3.149,1.79-5.029,4.727-5.029,7.856v2.89h-2.737 c-0.62,0-1.19,0.273-1.562,0.75c-0.35,0.448-0.473,1.018-0.337,1.564l0.324,1.298C34.337,69.887,35.818,71,37.542,71h24.915 c1.724,0,3.206-1.113,3.604-2.705l0.323-1.298c0.136-0.545,0.013-1.115-0.337-1.564C65.675,64.956,65.106,64.683,64.485,64.683z M60.292,64.683h-2.433v-1.048c0-1.872-1.152-3.6-3.161-4.742l-0.057-0.033c-2.863-1.654-6.42-1.653-9.286,0.003l-0.056,0.032 c-2.006,1.14-3.157,2.868-3.157,4.74v1.048h-2.433v-2.89c0-2.599,1.604-5.063,4.292-6.59c1.919-1.09,3.065-2.887,3.065-4.805v-0.797 c0-1.918-1.146-3.714-3.065-4.805c-2.687-1.527-4.292-3.99-4.292-6.59v-2.89h20.584v2.89c0,2.599-1.604,5.062-4.292,6.59 c-1.919,1.09-3.064,2.886-3.064,4.805v0.797c0,1.918,1.145,3.714,3.064,4.805c2.688,1.527,4.293,3.99,4.293,6.59V64.683z" fill="#bfbebe" style="fill: rgb(191, 190, 190);"></path></g><g style="transform-origin: 50px 50px 0px;"><path class="st0" d="M50,48.496c0.335,0,0.626-0.227,0.706-0.552c0.512-2.049,1.931-3.824,3.996-4.997 c1.669-0.949,2.756-2.321,3.062-3.863c0.042-0.214-0.013-0.434-0.152-0.603c-0.139-0.169-0.344-0.266-0.563-0.266h-14.1 c-0.219,0-0.424,0.097-0.563,0.266c-0.139,0.169-0.194,0.389-0.152,0.603c0.306,1.542,1.393,2.914,3.062,3.863 c2.065,1.174,3.484,2.948,3.996,4.997C49.374,48.268,49.665,48.496,50,48.496z" fill="#bfbebe" style="fill: rgb(191, 190, 190);"></path></g><g style="transform-origin: 50px 50px 0px;"><path class="st0" d="M50,52.615c0.401,0,0.728-0.327,0.728-0.728v-1.053c0-0.401-0.327-0.728-0.728-0.728 c-0.401,0-0.728,0.327-0.728,0.728v1.053C49.271,52.288,49.598,52.615,50,52.615z" fill="#bfbebe" style="fill: rgb(191, 190, 190);"></path></g><g style="transform-origin: 50px 50px 0px;"><path class="st0" d="M50.001,54.285c-0.2,0-0.388,0.073-0.516,0.2c-0.134,0.135-0.212,0.323-0.212,0.516s0.077,0.382,0.212,0.517 c0.168,0.167,0.398,0.242,0.663,0.199c0.044-0.013,0.091-0.026,0.137-0.043c0.032-0.017,0.079-0.04,0.127-0.069 c0.024-0.02,0.065-0.051,0.1-0.087c0.138-0.138,0.217-0.326,0.217-0.517s-0.08-0.378-0.217-0.516 C50.387,54.358,50.217,54.296,50.001,54.285z" fill="#bfbebe" style="fill: rgb(191, 190, 190);"></path></g><metadata xmlns:d="https://loading.io/stock/" style="transform-origin: 50px 50px 0px;">
<d:name style="transform-origin: 50px 50px 0px;">hourglass</d:name>
<d:tags style="transform-origin: 50px 50px 0px;">hourglass,sandglass,timer,countdown,elapse,flow,pass by,temporal,hexagon</d:tags>
<d:license style="transform-origin: 50px 50px 0px;">cc-by</d:license>
<d:slug style="transform-origin: 50px 50px 0px;">ys5chf</d:slug>
</metadata></g></g></g></g><style type="text/css" style="transform-origin: 50px 50px 0px;">path,ellipse,circle,rect,polygon,polyline,line { stroke-width: 0; }@keyframes ld-breath {
  0% {
    -webkit-transform: scale(0.86);
    transform: scale(0.86);
  }
  50% {
    -webkit-transform: scale(1.06);
    transform: scale(1.06);
  }
  100% {
    -webkit-transform: scale(0.86);
    transform: scale(0.86);
  }
}
@-webkit-keyframes ld-breath {
  0% {
    -webkit-transform: scale(0.86);
    transform: scale(0.86);
  }
  50% {
    -webkit-transform: scale(1.06);
    transform: scale(1.06);
  }
  100% {
    -webkit-transform: scale(0.86);
    transform: scale(0.86);
  }
}
.ld.ld-breath {
  -webkit-animation: ld-breath 1s infinite;
  animation: ld-breath 1s infinite;
}
</style></svg></svg>