<svg xmlns="http://www.w3.org/2000/svg" version="1.1" xmlns:xlink="http://www.w3.org/1999/xlink" width="512" height="512" x="0" y="0" viewBox="0 0 512 512" style="enable-background:new 0 0 512 512" xml:space="preserve"><rect width="512" height="512" rx="102.4" ry="102.4" fill="#bac8d3" shape="rounded"></rect><g transform="matrix(0.51,0,0,0.51,125.44,125.44)"><linearGradient id="a" x1="86.377" x2="425.602" y1="549.801" y2="-37.754" gradientUnits="userSpaceOnUse"><stop offset=".207" stop-color="#9b33fe"></stop><stop offset=".838" stop-color="#0eaed4"></stop></linearGradient><path fill="url(#a)" d="M18.43 93.854c0 3.44-2.701 6.266-6.152 6.266C8.713 100.12 6 97.293 6 93.854V12.273C6 8.834 8.713 6 12.277 6h81.445C97.168 6 100 8.834 100 12.273c0 3.45-2.832 6.277-6.277 6.277H18.43zm119.221 247.021c3.81 4.189 3.559 10.836-.624 14.789-4.177 3.797-10.703 3.684-14.637-.623-16.976-18.082-30.263-39.752-38.754-63.602-7.996-22.764-11.687-47.494-9.966-73.08 0-.494 0-.868.125-1.236 3.688-49.952 27.187-93.75 62.374-124.138 35.06-30.507 81.695-47.607 131.642-44.168 5.658 0 10.335 4.671 10.335 10.46 0 5.659-4.677 10.335-10.461 10.335h-.737c-44.411-3.2-85.997 11.937-117.241 39.122-31.13 26.938-52.041 65.945-55.241 110.482-1.6 22.878 1.595 45.025 8.854 65.326 7.383 21.036 19.195 40.231 34.331 56.333zm87.718-112.31c-.375 5.665-5.421 9.955-11.074 9.593-5.789-.364-10.086-5.409-9.716-11.062.982-13.418 7.009-25.228 16.112-33.844 9.104-8.485 21.409-13.649 34.82-13.649 13.41 0 25.585 5.165 34.81 13.649a51.27 51.27 0 0 1 16.117 33.712v1.727c-1.595 22.642-8.24 40.841-15.25 60.162-13.162 36.16-28.055 76.889-9.961 160.428 1.227 5.662-2.343 11.191-7.877 12.43a10.44 10.44 0 0 1-12.436-8.01c-19.428-89.436-3.439-133.109 10.71-171.863 6.521-17.838 12.543-34.45 14.023-54.009-.73-7.633-4.302-14.393-9.472-19.32-5.534-5.04-12.799-8.11-20.665-8.11-7.878 0-15.138 3.07-20.671 8.11-5.293 5.049-8.862 12.06-9.47 20.056zm-60.037 191.443c-3.201-4.805-1.851-11.326 2.951-14.402 4.677-3.195 11.192-1.852 14.394 2.826 1.35 2.219 2.951 4.057 4.67 5.652 4.56 4.189 9.973 6.521 14.888 7.391 4.184.738 7.629.363 9.474-.744v-.125c3.444-3.561 3.818-14.871 2.831-28.162-1.844-23.623-8.733-51.184-12.668-61.889-4.552-12.672-11.322-24.109-17.845-35.059-14.392-24-27.923-46.635-21.776-81.32 3.814-22.275 14.519-40.239 29.036-53.281 13.905-12.543 31.13-20.541 49.088-23.493 18.089-2.956 37.034-.987 54.135 6.517 17.72 7.877 33.469 21.539 44.293 41.579.119.125.119.38.244.5 19.688 36.664 9.966 76.275-.244 117.73-8.366 33.848-16.982 68.906-8.366 102.006 1.476 5.529-1.845 11.188-7.385 12.664-5.538 1.484-11.196-1.846-12.673-7.379-9.966-38.266-.733-75.912 8.242-112.207 9.228-37.527 18.087-73.449 2.094-102.978-.126-.239-.126-.364-.249-.489-8.486-15.625-20.667-26.325-34.441-32.357-13.292-5.897-28.054-7.503-42.328-5.17-14.149 2.458-27.68 8.617-38.504 18.458-11.073 10.091-19.439 24.122-22.515 41.46-4.802 27.197 6.766 46.506 19.064 67.057 7.146 11.93 14.398 24.115 19.688 38.619 4.308 11.934 11.816 42.094 13.775 67.43 1.48 18.457-.244 35.303-8.116 43.918-1.231 1.244-2.458 2.328-3.935 3.332-6.151 4.059-15.137 5.533-24.49 3.922-8.484-1.477-17.713-5.527-25.341-12.66-2.952-2.715-5.658-5.782-7.991-9.346zm-27.561-188.986c0 5.666-4.677 10.337-10.342 10.337-5.777 0-10.449-4.671-10.449-10.337 0-35.915 13.65-68.896 36.291-93.62 22.639-24.858 54.26-41.465 90.056-44.656 27.441-2.349 53.884 3.44 76.768 15.495 23.504 12.305 43.186 31.375 56.348 54.872 13.536 24.111 19.564 57.335 19.564 92.395 0 37.156-6.892 76.652-19.071 109.373-1.969 5.41-7.99 8.248-13.406 6.277-5.295-1.969-8.121-8.008-6.151-13.42 11.436-30.621 17.839-67.535 17.839-102.23 0-31.739-5.171-61.395-16.982-82.309-11.192-19.933-27.929-36.051-47.856-46.625-19.439-10.209-41.949-15.142-65.326-13.162-30.387 2.702-57.204 16.851-76.405 37.891-19.317 21.039-30.878 49.094-30.878 79.719zM182.677 382.6c-.732 5.654-6.028 9.594-11.691 8.844-5.653-.844-9.718-6.014-8.854-11.811 1.845-12.912-.126-27.799-5.902-44.287-6.033-17.221-16.124-36.16-30.268-56.955-3.327-4.801-2.089-11.186 2.707-14.52 4.676-3.199 11.192-1.967 14.393 2.709 15.251 22.385 26.079 42.932 32.721 62.006 6.894 19.678 9.227 37.648 6.894 54.014zM314.805 80.437c-5.278-2.089-7.996-8.121-5.903-13.411 2.09-5.415 8.122-7.998 13.538-5.903 31.369 12.3 58.311 33.219 78.363 59.423 19.693 26.074 32.606 57.449 36.057 91.28 4.666 46.144 1.226 115.041-22.89 169.169-17.84 40.232-46.869 72.578-91.899 82.438-5.664 1.219-11.198-2.346-12.426-7.877-1.236-5.66 2.334-11.205 7.868-12.426 37.651-8.25 62.131-35.926 77.512-70.496 22.39-50.449 25.591-115.158 21.159-158.583-3.077-30.144-14.514-57.948-31.983-80.956-17.6-23.247-41.472-41.715-69.396-52.658zM493.45 418.273c0-3.445 2.826-6.277 6.267-6.277 3.451 0 6.283 2.832 6.283 6.277v81.455c0 3.561-2.832 6.271-6.283 6.271h-81.564c-3.444 0-6.271-2.711-6.271-6.271 0-3.461 2.827-6.158 6.271-6.158h75.298v-75.297zm-475.02 0c0-3.445-2.701-6.277-6.152-6.277-3.564 0-6.277 2.832-6.277 6.277v81.455C6 503.289 8.713 506 12.277 506h81.445c3.445 0 6.277-2.711 6.277-6.271 0-3.461-2.832-6.158-6.277-6.158H18.43zM493.45 93.854c0 3.44 2.826 6.266 6.267 6.266 3.451 0 6.283-2.826 6.283-6.266V12.273C506 8.834 503.168 6 499.717 6h-81.564c-3.444 0-6.271 2.833-6.271 6.272 0 3.45 2.827 6.277 6.271 6.277h75.298v75.305z" opacity="1" data-original="url(#a)"></path></g></svg>