<svg xmlns="http://www.w3.org/2000/svg" version="1.1" xmlns:xlink="http://www.w3.org/1999/xlink" width="512" height="512" x="0" y="0" viewBox="0 0 512 512" style="enable-background:new 0 0 512 512" xml:space="preserve" class=""><rect width="512" height="512" rx="102.4" ry="102.4" fill="#bac8d3" shape="rounded"></rect><g transform="matrix(0.57,0,0,0.57,110.08000000000001,110.07999753952026)"><linearGradient id="a" x1="99.385" x2="522.3" y1="502.845" y2="79.93" gradientUnits="userSpaceOnUse"><stop offset="0" stop-color="#6acad8"></stop><stop offset="1" stop-color="#ae6bac"></stop></linearGradient><path fill="url(#a)" d="M439.75 287.71h-380c-22 0-40 18-40 40v70c0 22 18 40 40 40h380c22 0 40-18 40-40v-70c0-22-18-40-40-40zm-327.63 87.5h-25v-25h25zm51.33 0h-25v-25h25zm51.34 0h-25v-25h25zm197.6 0H249.75v-25h162.64zm.4 87.5v27.47h-28.04l-10.47-27.47zm-326.07 0h38.5l-10.47 27.47H86.72zM450.17 94.64c0 15.34-4.59 30.13-13.26 42.79l-20.62-14.13c5.81-8.48 8.88-18.39 8.88-28.66s-3.07-20.17-8.88-28.65l20.62-14.13c8.67 12.65 13.26 27.45 13.26 42.78zm-173.57 0c0 20.69 7.7 40.63 21.68 56.14l-18.57 16.74c-18.12-20.11-28.11-45.99-28.11-72.88 0-26.86 9.97-52.72 28.07-72.82l18.58 16.72c-13.96 15.51-21.65 35.43-21.65 56.1zm119.49 148.37h16.7v19.7h-81.72v-19.7h16.7l14.16-212.83h20zm96.16-148.37c0 26.89-9.98 52.77-28.1 72.88l-18.57-16.74c13.98-15.51 21.67-35.45 21.67-56.14 0-20.67-7.68-40.59-21.64-56.1l18.58-16.72c18.1 20.1 28.06 45.96 28.06 72.82zM327.57 65.99c-5.81 8.48-8.88 18.38-8.88 28.65s3.07 20.18 8.88 28.66l-20.62 14.13c-8.67-12.66-13.26-27.45-13.26-42.79 0-15.33 4.59-30.13 13.26-42.78z" opacity="1" data-original="url(#a)"></path></g></svg>