<svg xmlns="http://www.w3.org/2000/svg" version="1.1" xmlns:xlink="http://www.w3.org/1999/xlink" width="512" height="512" x="0" y="0" viewBox="0 0 100 100" style="enable-background:new 0 0 512 512" xml:space="preserve"><rect width="100" height="100" rx="20" ry="20" fill="#bac8d3" shape="rounded"></rect><g transform="matrix(0.6399999999999999,0,0,0.6399999999999999,18.00017998695374,18.00000137329102)"><linearGradient id="a" x1="-3.8" x2="105.04" y1="-3.668" y2="102.52" gradientUnits="userSpaceOnUse"><stop offset=".184" stop-color="#29abe2"></stop><stop offset=".821" stop-color="#6200d2"></stop></linearGradient><path fill="url(#a)" d="M88.594 48.063h2.969a5.938 5.938 0 0 0 0-11.876h-2.97V18.375c0-6.558-5.316-11.875-11.874-11.875H23.28c-6.558 0-11.875 5.317-11.875 11.875v17.813H8.437a5.937 5.937 0 1 0 0 11.874h2.97V69.75a11.875 11.875 0 0 0 5.937 10.227v7.585A5.937 5.937 0 0 0 23.28 93.5h2.938a5.937 5.937 0 0 0 5.937-5.938v-5.937h32.719v5.938a5.937 5.937 0 0 0 5.938 5.937h2.937a5.938 5.938 0 0 0 5.938-5.938V81.21a11.875 11.875 0 0 0 8.906-11.459zM29.219 66.78a5.937 5.937 0 1 1 0-11.875 5.937 5.937 0 0 1 0 11.875zm41.562 0a5.937 5.937 0 1 1 0-11.875 5.937 5.937 0 0 1 0 11.875zm2.923-21.687H26.296a3.015 3.015 0 0 1-3.015-3.015v-20.69a3.015 3.015 0 0 1 3.015-3.014h47.408a3.015 3.015 0 0 1 3.015 3.015v20.689a3.015 3.015 0 0 1-3.015 3.015z" opacity="1" data-original="url(#a)"></path></g></svg>