<svg xmlns="http://www.w3.org/2000/svg" version="1.1" xmlns:xlink="http://www.w3.org/1999/xlink" width="512" height="512" x="0" y="0" viewBox="0 0 64 64" style="enable-background:new 0 0 512 512" xml:space="preserve"><rect width="64" height="64" rx="12.8" ry="12.8" fill="#bac8d3" shape="rounded"></rect><g transform="matrix(0.68,0,0,0.68,10.240000228881836,10.24000030517578)"><linearGradient id="a" x1="4" x2="60" y1="32" y2="32" gradientUnits="userSpaceOnUse"><stop offset="0" stop-color="#9cffac"></stop><stop offset="1" stop-color="#00b59c"></stop></linearGradient><path fill="url(#a)" d="M60 18.403v3.167H4v-3.167a4.191 4.191 0 0 1 4.086-4.29h47.828A4.191 4.191 0 0 1 60 18.403zm-2.043 13.7H60v13.494a4.191 4.191 0 0 1-4.086 4.29H8.086A4.191 4.191 0 0 1 4 45.597V32.102zM40.101 44.237a1.025 1.025 0 0 0 1.021 1.021h14.68a1.025 1.025 0 0 0 1.021-1.021V39.1a1.018 1.018 0 0 0-1.021-1.022h-14.68a1.018 1.018 0 0 0-1.021 1.022zM8.454 36.035h11.288a1.022 1.022 0 0 0 0-2.043H8.454a1.022 1.022 0 0 0 0 2.043zm0 4.086h13.892a1.022 1.022 0 0 0 0-2.043H8.455a1.022 1.022 0 0 0 0 2.043zM6.043 23.613H4v6.446h56v-6.446zM54.78 40.121H42.144v3.095H54.78z" opacity="1" data-original="url(#a)"></path></g></svg>