<svg xmlns="http://www.w3.org/2000/svg" version="1.1" xmlns:xlink="http://www.w3.org/1999/xlink" width="512" height="512" x="0" y="0" viewBox="0 0 24 24" style="enable-background:new 0 0 512 512" xml:space="preserve"><rect width="24" height="24" rx="4.8" ry="4.8" fill="#bac8d3" shape="rounded"></rect><g transform="matrix(0.68,0,0,0.68,3.8400000000000016,3.835407562255858)"><linearGradient id="a" x1="3.87" x2="20.13" y1="20.93" y2="4.66" gradientUnits="userSpaceOnUse"><stop offset="0" stop-color="#6d03a8"></stop><stop offset="1" stop-color="#fd60c4"></stop></linearGradient><path fill="url(#a)" d="M14.25 10v5a.25.25 0 0 1-.25.25H7a.25.25 0 0 1-.25-.25v-5A.25.25 0 0 1 7 9.75h7a.25.25 0 0 1 .25.25zm7.5-3v11A1.76 1.76 0 0 1 20 19.75h-.79l.46.91a.74.74 0 0 1-.34 1 .76.76 0 0 1-.33.08.75.75 0 0 1-.67-.41l-.79-1.59H6.46l-.79 1.59a.75.75 0 0 1-.67.41.76.76 0 0 1-.33-.08.74.74 0 0 1-.34-1l.46-.91H4A1.76 1.76 0 0 1 2.25 18V7A1.76 1.76 0 0 1 4 5.25h6.19L8.47 3.53a.75.75 0 1 1 1.06-1.06L12 4.94l2.47-2.47a.75.75 0 0 1 1.06 1.06l-1.72 1.72H20A1.76 1.76 0 0 1 21.75 7zm-6 3A1.76 1.76 0 0 0 14 8.25H7A1.76 1.76 0 0 0 5.25 10v5A1.76 1.76 0 0 0 7 16.75h7A1.76 1.76 0 0 0 15.75 15zm3.5 5.5a.76.76 0 0 0-.75-.75h-1a.75.75 0 0 0 0 1.5h1a.76.76 0 0 0 .75-.75zm0-3a.76.76 0 0 0-.75-.75h-1a.75.75 0 0 0 0 1.5h1a.76.76 0 0 0 .75-.75zm0-3a.76.76 0 0 0-.75-.75h-1a.75.75 0 0 0 0 1.5h1a.76.76 0 0 0 .75-.75z" opacity="1" data-original="url(#a)"></path></g></svg>