<svg xmlns="http://www.w3.org/2000/svg" version="1.1" xmlns:xlink="http://www.w3.org/1999/xlink" width="512" height="512" x="0" y="0" viewBox="0 0 64 64" style="enable-background:new 0 0 512 512" xml:space="preserve" class=""><rect width="64" height="64" rx="12.8" ry="12.8" fill="#bac8d3" shape="rounded"></rect><g transform="matrix(0.7,0,0,0.7,9.600000000000001,9.59999942779541)"><linearGradient id="a" x1="6" x2="58" y1="32" y2="32" gradientUnits="userSpaceOnUse"><stop offset="0" stop-color="#00c0ff"></stop><stop offset="1" stop-color="#5558ff"></stop></linearGradient><path fill="url(#a)" d="M52.12 21.39H7a1 1 0 0 0-1 1v23.88a1 1 0 0 0 1 1h45.12a1 1 0 0 0 1-1V22.39a1 1 0 0 0-1-1zM12.48 37.82a3.49 3.49 0 1 1 0-7 3.49 3.49 0 1 1 0 7zm17.08 4.43C26 42.25 23 38.7 23 34.33c.32-10.5 12.73-10.5 13 0 .08 4.37-2.84 7.92-6.44 7.92zm17.09-4.43a3.49 3.49 0 1 1 0-7 3.49 3.49 0 1 1 0 7zm-17.09 2.43c-6-.25-6-11.6 0-11.85 5.97.25 5.98 11.6 0 11.85zm-17.08-4.43a1.49 1.49 0 1 1 0-3 1.49 1.49 0 1 1 0 3zm34.17 0a1.49 1.49 0 1 1 0-3 1.49 1.49 0 1 1 0 3zM58 17.73v23.89a1 1 0 0 1-1 1h-1.88V22.39a3 3 0 0 0-3-3H10.85v-1.66a1 1 0 0 1 1-1H57a1 1 0 0 1 1 1z" opacity="1" data-original="url(#a)"></path></g></svg>