<svg xmlns="http://www.w3.org/2000/svg" version="1.1" xmlns:xlink="http://www.w3.org/1999/xlink" width="512" height="512" x="0" y="0" viewBox="0 0 64 64" style="enable-background:new 0 0 512 512" xml:space="preserve"><rect width="64" height="64" rx="12.8" ry="12.8" fill="#bac8d3" shape="rounded"></rect><g transform="matrix(0.7,0,0,0.7,9.600000000000001,9.600000000000001)"><linearGradient id="a" x1="4" x2="60" y1="32" y2="32" gradientUnits="userSpaceOnUse"><stop offset="0" stop-color="#ff81ff"></stop><stop offset="1" stop-color="#a93aff"></stop></linearGradient><path fill="url(#a)" d="M60 20v3H4v-3a5.002 5.002 0 0 1 5-5h46a5.002 5.002 0 0 1 5 5zm0 5v19a5.002 5.002 0 0 1-5 5H9a5.002 5.002 0 0 1-5-5V25zM43 41.79a2.006 2.006 0 0 0 2 2h8.77a2.006 2.006 0 0 0 2-2v-6.02a2 2 0 0 0-2-2H45a2 2 0 0 0-2 2zM16.94 41h4a1 1 0 0 0 0-2h-4a1 1 0 1 0 0 2zm7.98 0h4a1 1 0 0 0 0-2h-4a1 1 0 1 0 0 2zm8.04 0h4a1 1 0 0 0 0-2h-4a1 1 0 0 0 0 2zm-24-8h21.48a1 1 0 0 0 0-2H8.96a1 1 0 0 0 0 2zm0 8h4a1 1 0 0 0 0-2h-4a1 1 0 0 0 0 2zm44.81-5.23H45v6.02h8.77z" opacity="1" data-original="url(#a)"></path></g></svg>