<svg xmlns="http://www.w3.org/2000/svg" version="1.1" xmlns:xlink="http://www.w3.org/1999/xlink" width="512" height="512" x="0" y="0" viewBox="0 0 64 64" style="enable-background:new 0 0 512 512" xml:space="preserve"><rect width="64" height="64" rx="12.8" ry="12.8" fill="#bac8d3" shape="rounded"></rect><g transform="matrix(0.64,0,0,0.64,11.52,11.51999965667725)"><linearGradient id="a" x1="4.095" x2="59.905" y1="32" y2="32" gradientUnits="userSpaceOnUse"><stop offset="0" stop-color="#00c0ff"></stop><stop offset="1" stop-color="#5558ff"></stop></linearGradient><path fill="url(#a)" d="M11.53 35.423C5.37 28.965 4.173 19.01 8.27 10.967c1.532 6.121 6.647 11.496 11.312 15.926 5.264 4.604 11.872 9.726 18.657 10.364-3.648 2.721-8.043 4.186-12.508 4.186-3.903-.04-2.049-.031-2.003-2.98.074-5.653-7.035-8.613-10.983-4.654a6.424 6.424 0 0 0-1.216 1.614zm45.385 16.375H7.165c-1.672-.044-3.073 1.316-3.07 2.99v3.219A2 2 0 0 0 6.088 60h51.824a2 2 0 0 0 1.993-1.993v-3.22a2.999 2.999 0 0 0-2.99-2.99zm-20.042-7.136c-1.444 1.094-.933 3.602-1.016 5.143h18.537v-1.246a3.006 3.006 0 0 0-2.601-2.97l-12.558-1.645a2.971 2.971 0 0 0-2.362.718zm-26.48-33.476c.818 2.99 3.379 6.777 6.658 10.374.87-.898 1.95-2.02 3.12-2.481a6.446 6.446 0 0 1 4.524-.2s4.238-4.282 4.933-4.992c-6.209-5.163-12.577-8.382-16.175-8.113-2.91.208-3.912 2.646-3.06 5.412zm12.319 9.368c-1.785-.077-3.159 1.225-4.286 2.452.359.378.728.747 1.106 1.106l3.498-3.548c-.11-.01-.209-.01-.319-.01zm2.61 8.491 1.236-1.236a4.734 4.734 0 0 0 .728-2.262c.13-1.692-.745-3.366-2.153-4.276l-4.156 4.206c.504.427 3.383 2.862 4.346 3.568zm1.227-9.209c3.393 2.34 3.709 7.84.408 10.395 4.046 2.8 7.873 4.604 10.674 4.973 1.497.238 3.347-.08 4.166-1.305 2.302-3.15-1.914-9.996-7.774-15.966a62.383 62.383 0 0 0-1.415-1.396l4.445-4.504a5.274 5.274 0 0 1-1.405-1.415c-2.878 2.917-6.233 6.317-9.1 9.218zm13.145-8.86c4.85.433 5.284-6.786.438-6.976-4.283.082-4.675 6.342-.438 6.976zM11.3 41.044l-3.996 8.76h14.79l-1.286-5.93c-3.216 2.245-8.051.742-9.508-2.83zm5.95 1.904c5.919-.191 5.933-8.776 0-8.97-5.904.157-5.925 8.806 0 8.97z" opacity="1" data-original="url(#a)"></path></g></svg>