<svg xmlns="http://www.w3.org/2000/svg" version="1.1" xmlns:xlink="http://www.w3.org/1999/xlink" width="512" height="512" x="0" y="0" viewBox="0 0 64 64" style="enable-background:new 0 0 512 512" xml:space="preserve"><rect width="64" height="64" rx="12.8" ry="12.8" fill="#bac8d3" shape="rounded"></rect><g transform="matrix(0.7,0,0,0.7,9.627228498458862,9.516024398803712)"><linearGradient id="a" x1="4.093" x2="60.093" y1="31.733" y2="31.733" gradientUnits="userSpaceOnUse"><stop offset="0" stop-color="#00c0ff"></stop><stop offset="1" stop-color="#5558ff"></stop></linearGradient><path fill="url(#a)" d="M60.038 35.816a1.127 1.127 0 0 0-.23-.378c-2.372-2.731-2.442-7.784-2.392-9.459l1.944-.967a1.015 1.015 0 0 0 .548-.887 1 1 0 0 0-.548-.897L37.402 12.045a5.987 5.987 0 0 0-4.824-.249c-9.757 3.708-21.18 10.495-25.645 13.246a5.936 5.936 0 0 0-2.84 5.083v5.761a5.967 5.967 0 0 0 3.05 5.193l5.611 3.16c.116-2.238.225-5.551.329-7.795a2.05 2.05 0 1 1 1.535-3.797l14.592 6.957a1.003 1.003 0 0 0 .877 0l25.336-12.628a21.258 21.258 0 0 0 .279 3.369L29.06 43.93l-4.017-1.894-.209 2.103c.16.033 4.226 2.078 4.246 1.894a1.069 1.069 0 0 0 .459-.11L56.12 32.358a11.806 11.806 0 0 0 1.475 3.419L30.036 49.65a3.967 3.967 0 0 1-3.707-.08l-1.934-1.126-.229 2.183a6.455 6.455 0 0 0 6.768.797l28.515-14.353a1.011 1.011 0 0 0 .589-1.256zM35.16 18.583a1 1 0 0 1 1.355-.398l4.206 2.312a.995.995 0 1 1-.956 1.744l-4.206-2.312a.989.989 0 0 1-.4-1.346zm6.837 7.864a1.002 1.002 0 0 1-1.355.4l-11.851-6.51a.995.995 0 1 1 .957-1.744l11.85 6.509a.989.989 0 0 1 .4 1.345zM23.31 39.385l-.18 1.764c-.314 3.171-.747 7.307-1.066 10.465a.125.125 0 0 1-.23.05l-2.69-4.306-4.416 1.565a.13.13 0 0 1-.169-.12c.178-4.17.374-8.994.548-13.156a.135.135 0 0 1 .18-.11l7.953 3.728a.108.108 0 0 1 .07.12z" opacity="1" data-original="url(#a)"></path></g></svg>