<svg xmlns="http://www.w3.org/2000/svg" version="1.1" xmlns:xlink="http://www.w3.org/1999/xlink" width="512" height="512" x="0" y="0" viewBox="0 0 1707 1707" style="enable-background:new 0 0 512 512" xml:space="preserve" fill-rule="evenodd"><rect width="1707" height="1707" rx="341.4" ry="341.4" fill="#bac8d3" shape="rounded"></rect><g transform="matrix(0.6499999999999998,0,0,0.6499999999999998,298.7191547393801,298.72500000000014)"><linearGradient id="a" x1="1623.26" x2="83.413" y1="853.331" y2="853.331" gradientUnits="userSpaceOnUse"><stop offset="0" stop-color="#f071ab"></stop><stop offset="1" stop-color="#22abe2"></stop></linearGradient><path fill="url(#a)" d="M1106 1462H601c-39 0-71-32-71-71 0-187-46-259-90-329-41-65-79-126-79-260 0-272 221-492 492-492 272 0 493 220 493 492 0 134-39 195-79 260-45 70-90 142-90 329 0 39-32 71-71 71zM496 287c-7 0-14-4-17-10l-76-131c-5-10-2-22 7-27 10-6 22-3 28 7l75 131c6 9 3 22-7 27-3 2-7 3-10 3zM234 548c-3 0-6 0-10-2L93 470c-9-5-12-18-7-27 6-10 18-13 27-7l131 75c10 6 13 18 8 27-4 7-11 10-18 10zm1238 0c-7 0-13-3-17-10-6-9-2-21 7-27l131-75c10-6 22-3 28 7 5 9 2 22-8 27l-131 76c-3 2-6 2-10 2zm-261-261c-4 0-7-1-10-3-10-5-13-18-8-27l76-131c6-10 18-13 27-7 10 5 13 17 8 27l-76 131c-4 6-10 10-17 10zm-358-96c-11 0-20-9-20-20V20c0-11 9-20 20-20s20 9 20 20v151c0 11-9 20-20 20zm37 1516h-73c-46 0-83-38-83-83v-4h239v4c0 45-38 83-83 83zm168-127H649c-27 0-49-21-49-48v-30h506v30c0 27-21 48-48 48zm-232-281c-2 0-3 0-5-1-9-2-15-10-15-19V975H619c-7 0-14-4-18-10-3-7-3-14 1-21l275-462c5-7 14-11 23-9 9 3 15 11 15 20v305h173c7 0 14 4 17 10 4 6 4 14 0 20l-262 461c-3 6-10 10-17 10zM654 935h172c11 0 20 9 20 20v248l208-365H895c-11 0-20-9-20-20V565z" opacity="1" data-original="url(#a)"></path></g></svg>