<svg xmlns="http://www.w3.org/2000/svg" version="1.1" xmlns:xlink="http://www.w3.org/1999/xlink" width="512" height="512" x="0" y="0" viewBox="0 0 64 64" style="enable-background:new 0 0 512 512" xml:space="preserve" class=""><rect width="64" height="64" rx="12.8" ry="12.8" fill="#bac8d3" shape="rounded"></rect><g transform="matrix(0.7,0,0,0.7,9.599999713897706,9.599344682693484)"><linearGradient id="a" x1="7" x2="57" y1="32" y2="32" gradientUnits="userSpaceOnUse"><stop offset="0" stop-color="#00c0ff"></stop><stop offset="1" stop-color="#5558ff"></stop></linearGradient><path fill="url(#a)" d="M24.61 39.98 9 44.53v1.241a1 1 0 0 1-2 0V38.16a.985.985 0 0 1 .39-.79l16.47-12.675.05 1.05zm32-2.611L40.13 24.694c-.023.604-.701 14.458-.73 15.285L55 44.521v1.25a1 1 0 1 0 2 0V38.16a.985.985 0 0 0-.39-.79zM41.28 51.623a1.023 1.023 0 0 1 .3.72v6.653a1.004 1.004 0 0 1-1 1 1.023 1.023 0 0 1-.42-.09L32 56.065l-8.16 3.84a1.01 1.01 0 0 1-1.42-.91v-6.652a.992.992 0 0 1 .307-.717l4.253-4.054-.5-10.223c-.268-5.392-.736-15.336-1-20.637a13.967 13.967 0 0 1 3.643-2.873.996.996 0 0 0-1.005-1.72 21.368 21.368 0 0 0-2.768 1.902l-.11-2.22c-.276-4.182 3.538-8.486 7.85-7.71a7.592 7.592 0 0 1 5.67 7.66l-.11 2.27a21.368 21.368 0 0 0-2.768-1.901.995.995 0 0 0-1.003 1.718 14.354 14.354 0 0 1 3.641 2.854l-.32 6.512c-.337 6.887-.835 17.46-1.18 24.318zM33 45.991a1 1 0 0 0-2 0v3.962a1 1 0 0 0 2 0z" opacity="1" data-original="url(#a)"></path></g></svg>