<svg xmlns="http://www.w3.org/2000/svg" version="1.1" xmlns:xlink="http://www.w3.org/1999/xlink" width="512" height="512" x="0" y="0" viewBox="0 0 491.5 491.5" style="enable-background:new 0 0 512 512" xml:space="preserve" class=""><rect width="491.5" height="491.5" rx="98.3" ry="98.3" fill="#bac8d3" shape="rounded"></rect><g transform="matrix(0.71,0,0,0.71,71.26750000000004,71.29650177001955)"><linearGradient id="a" x1="245.75" x2="245.75" y1="131.6" y2="360.1" gradientUnits="userSpaceOnUse"><stop offset="0" stop-color="#f704fe"></stop><stop offset="1" stop-color="#24bce3"></stop></linearGradient><path fill="url(#a)" d="M193.8 158.2c6.6-2.8 20.4-4.9 26.6 7.1.2.3.3.7.4 1.1.9 3.7 2 7.7 3.2 11.3h232v-43c0-1.7-1.4-3.1-3.1-3.1H185.8v30.2c2.6-1.4 5.3-2.6 8-3.6zm-33 40.7v-11c0-.6 0-1.2-.1-1.8 0-.2-.1-.3-.1-.5-1.1-5.4-5.8-9.3-11.4-9.3-5.3 0-9.7 3.5-11.1 8.3 0 .1 0 .2-.1.3-.3 1-.4 2-.4 3V199c0 5.4 3.6 9.9 8.7 11.2 1 .2 1.9.4 2.9.4s1.9-.1 2.9-.4c5-1.5 8.7-6 8.7-11.3zM132 175.5c3.8-5.4 10.1-8.9 17.2-8.9s13.4 3.5 17.2 8.9c2.8-2.4 6.1-5.1 9.8-7.7v-36.2h-54v36.2c3.7 2.5 7 5.2 9.8 7.7zm-61.9 11.8H35.5v47.3h62.1l7.7-28.7c-8.1 1.5-20.1 5.3-28.5 5.3-5.2 0-8.9-1.6-10.9-4.9-4.1-6.8 2.1-16.2 4.2-19zm79.1 32.7h-.5l-3.9 14.6h8.8l-3.9-14.6h-.5zM456 234.6v-47.3H228.3c.1.1.1.2.2.3 2.2 3 8 12.2 4 18.8-2 3.2-5.6 4.9-10.9 4.9-8.4 0-20.3-3.8-28.5-5.3l7.7 28.7zm-231.7-33.3c.2-1.3-1.2-4.5-3-7.2-19.1-7.9-35.2-13.1-51-6.2v5.5c5 .2 10.9.9 16.9 1.9h.2c14.3 2.2 28.9 5.6 30.9 6.1 4 .5 5.6 0 6-.1zm-9.3-20.1c-1.6-4.7-2.8-9.4-3.4-11.9-5.5-9.2-22.7 1.3-29.2 5.9 11.4-.9 22.5 2.2 32.6 6zm-128.1-12c-.6 2.6-1.8 7.2-3.4 11.9 10.2-3.8 21.2-6.8 32.6-6-5.5-3.8-23.6-15.3-29.2-5.9zm95.9 35c-4.6-.7-9-1.1-12.8-1.3-1.2 6.4-5.4 11.8-11 14.7l7.6 28.4 5.9-14.4c.6-1.4 1.8-2.4 3.2-2.8s3-.1 4.2.8l12.3 9.5zm-17.1 61.6h-.3c-2.1-.1-3.8-1.6-4.3-3.5l-4.8-18.1h-14l-4.8 18.1c-.5 2-2.3 3.4-4.3 3.6h-.3c-1.9 0-3.7-1.2-4.4-3l-6.1-14.9v112.1h54V248l-6.1 14.9c-.9 1.8-2.7 2.9-4.6 2.9zM456 244.2H203.4l1.7 6.3c.5 2-.3 4.1-2 5.2s-4 1.1-5.6-.2l-11.7-9.1V360h267.1c1.7 0 3.1-1.4 3.1-3.1zM416.5 337h-82.3c-2.7 0-4.8-2.1-4.8-4.8s2.1-4.8 4.8-4.8h82.3c2.7 0 4.8 2.1 4.8 4.8s-2.2 4.8-4.8 4.8zm0-31.6h-61.2c-2.7 0-4.8-2.1-4.8-4.8s2.1-4.8 4.8-4.8h61.3c2.7 0 4.8 2.2 4.8 4.8-.1 2.7-2.3 4.8-4.9 4.8zM128 187.8c-15.8-6.9-31.9-1.6-51 6.2-1.8 2.7-3.1 6-2.9 7.2.4.2 2 .7 6 .1 2.9-.7 31-7.2 47.9-8zm-2.1 43.9 5.9 14.4 2-7.6c0-.2.1-.3.1-.5l5.4-20.3c-5.6-2.9-9.7-8.3-11-14.7-3.7.2-8.2.6-12.8 1.3l-9.4 35 8-6.2c.1-.1.2-.1.2-.2l4-3.1c1.2-.9 2.7-1.2 4.2-.8 1.7.2 2.9 1.3 3.4 2.7zm-48.2-65.3c.1-.4.2-.7.4-1.1 6.2-12 20-9.9 26.6-7.1 2.7 1 5.4 2.2 7.9 3.6v-30.2h-74c-1.7 0-3.1 1.4-3.1 3.1v43h39c1.1-3.6 2.3-7.7 3.2-11.3zm17.6 89.3c-1.7-1.1-2.5-3.2-2-5.2l1.7-6.3H35.5v112.7c0 1.7 1.4 3.1 3.1 3.1h74V246.4l-11.7 9.1c-1.6 1.3-3.9 1.4-5.6.2z" opacity="1" data-original="url(#a)"></path></g></svg>