<svg xmlns="http://www.w3.org/2000/svg" version="1.1" xmlns:xlink="http://www.w3.org/1999/xlink" width="512" height="512" x="0" y="0" viewBox="0 0 512 512" style="enable-background:new 0 0 512 512" xml:space="preserve"><rect width="512" height="512" rx="102.4" ry="102.4" fill="#bac8d3" shape="rounded"></rect><g transform="matrix(0.6,0,0,0.6,102.4,92.39999542236328)"><linearGradient id="a" x1="256" x2="256" y1="504.951" y2="7.049" gradientUnits="userSpaceOnUse"><stop offset="0" stop-color="#9d31fe"></stop><stop offset="1" stop-color="#0dafd4"></stop></linearGradient><path fill="url(#a)" d="M237.265 86.155h-43.039v-34.7h43.039V7.049h37.471v44.408h43.005v34.7h-43v44.408h-37.476zM489 474.951v30H23v-30h28.292V208.083h42.537v266.868h30V87.486h40.4v28.669h43.039v44.408h97.471v-44.408h43.005V87.486h40.426v387.465h30V208.083h42.538v266.868zM236.4 237.9h39.2v-30h-39.2zm0 69.786h39.2v-30h-39.2zM158.041 237.9h39.164v-30h-39.164zm0 69.786h39.164v-30h-39.164zM353.959 348.4H158.041v30h11.877v96.548h30V378.4h41.066v96.548h30V378.4h41.065v96.548h30V378.4h11.909zm0-70.713h-39.165v30h39.165zm0-69.786h-39.165v30h39.165z" opacity="1" data-original="url(#a)"></path></g></svg>