<svg xmlns="http://www.w3.org/2000/svg" version="1.1" xmlns:xlink="http://www.w3.org/1999/xlink" width="512" height="512" x="0" y="0" viewBox="0 0 491.5 491.5" style="enable-background:new 0 0 512 512" xml:space="preserve"><rect width="491.5" height="491.5" rx="98.3" ry="98.3" fill="#bac8d3" shape="rounded"></rect><g transform="matrix(0.6,0,0,0.6,98.30000000000001,93.29999542236328)"><linearGradient id="a" x1="245.75" x2="245.75" y1="47.2" y2="444.3" gradientUnits="userSpaceOnUse"><stop offset="0" stop-color="#f704fe"></stop><stop offset="1" stop-color="#24bce3"></stop></linearGradient><path fill="url(#a)" d="M160.9 136H53.3v278.9h107.6zm-20 260.3H73.3c-2.7 0-4.8-2.1-4.8-4.8v-51.6c0-2.6 2.1-4.8 4.8-4.8h67.6c2.7 0 4.8 2.2 4.8 4.8v51.6c0 2.7-2.1 4.8-4.8 4.8zm0-90.3H73.3c-2.7 0-4.8-2.1-4.8-4.8v-51.6c0-2.7 2.1-4.8 4.8-4.8h67.6c2.7 0 4.8 2.1 4.8 4.8v51.6c0 2.7-2.1 4.8-4.8 4.8zm0-90.3H73.3c-2.7 0-4.8-2.1-4.8-4.8v-51.6c0-2.7 2.1-4.8 4.8-4.8h67.6c2.7 0 4.8 2.2 4.8 4.8v51.6c0 2.7-2.1 4.8-4.8 4.8zm297.3 199.2V136H330.6v278.9zm-92.4-255.5c0-2.7 2.1-4.8 4.8-4.8h67.6c2.7 0 4.8 2.2 4.8 4.8V211c0 2.6-2.2 4.8-4.8 4.8h-67.6c-2.7 0-4.8-2.1-4.8-4.8zm0 90.3c0-2.7 2.1-4.8 4.8-4.8h67.6c2.7 0 4.8 2.1 4.8 4.8v51.6c0 2.6-2.2 4.8-4.8 4.8h-67.6c-2.7 0-4.8-2.1-4.8-4.8zm0 90.3c0-2.6 2.1-4.8 4.8-4.8h67.6c2.7 0 4.8 2.2 4.8 4.8v51.6c0 2.7-2.2 4.8-4.8 4.8h-67.6c-2.7 0-4.8-2.1-4.8-4.8zM35.5 424.5H456v19.8H35.5zm255.6-97.9h29.8v88.3h-29.8zm-40.5 0h31v88.3h-31zm-40.6 0h31v88.3h-31zm-39.5 0h29.8v88.3h-29.8zm-58.6 43.9h24.2v16.2h-24.2zm-33.8-25.7h24.2V361H78.1zm33.8 0h24.2V361h-24.2zm-33.8 25.7h24.2v16.2H78.1zm0-90.3h24.2v16.2H78.1zm0-25.7h24.2v16.2H78.1zm33.8 0h24.2v16.2h-24.2zm0 25.7h24.2v16.2h-24.2zm0-90.3h24.2v16.2h-24.2zm0-25.7h24.2v16.2h-24.2zm-33.8 0h24.2v16.2H78.1zm0 25.7h24.2v16.2H78.1zm277.3 154.9h24.2V361h-24.2zm0 25.7h24.2v16.2h-24.2zm33.8 0h24.2v16.2h-24.2zm0-25.7h24.2V361h-24.2zm0-64.6h24.2v16.2h-24.2zm0-25.7h24.2v16.2h-24.2zm-33.8 0h24.2v16.2h-24.2zm0 25.7h24.2v16.2h-24.2zM321 91.6H170.5V317h150.4c.1-75.1.1-150.3.1-225.4zm-92.9 23.6 8.1-3.7 6-6.6c1.9-2.1 5.2-2.1 7.1 0l6 6.6 8.1 3.7c2.6 1.2 3.6 4.3 2.2 6.7l-4.4 7.8-1 8.9c-.3 2.9-3 4.7-5.7 4.2l-8.7-1.8-8.7 1.8c-2.8.6-5.4-1.4-5.8-4.2l-1-8.9-4.4-7.8c-1.4-2.4-.4-5.6 2.2-6.7zm-38 27.5c-2.8.6-5.4-1.4-5.7-4.2l-1-8.9-4.4-7.8c-1.4-2.5-.4-5.6 2.2-6.7l8.1-3.7 6-6.6c1.9-2.1 5.2-2.1 7.1 0l6 6.6 8.1 3.7c2.6 1.2 3.6 4.3 2.2 6.7l-4.4 7.8-1 8.9c-.3 2.9-3 4.7-5.7 4.2l-8.7-1.8zm94.3 158.5c0 2.6-2.1 4.8-4.8 4.8H212c-2.6 0-4.8-2.1-4.8-4.8v-51.6c0-2.7 2.1-4.8 4.8-4.8h67.6c2.6 0 4.8 2.1 4.8 4.8zm0-90.3c0 2.6-2.1 4.8-4.8 4.8H212c-2.6 0-4.8-2.1-4.8-4.8v-51.6c0-2.7 2.1-4.8 4.8-4.8h67.6c2.6 0 4.8 2.2 4.8 4.8zm28.1-89-4.4 7.8-1 8.9c-.3 2.9-3 4.7-5.7 4.2l-8.7-1.8-8.7 1.8c-2.8.6-5.4-1.4-5.7-4.2l-1-8.9-4.4-7.8c-1.4-2.4-.4-5.6 2.2-6.7l8.1-3.7 6-6.6c1.9-2.1 5.2-2.1 7.1 0l6 6.6 8.1 3.7c2.5 1.1 3.5 4.3 2.1 6.7zm42.9 42.3h24.2v16.2h-24.2zm33.8 0h24.2v16.2h-24.2zm0 25.7h24.2v16.2h-24.2zm-33.8 0h24.2v16.2h-24.2zm-104.8 0h24.2v16.2h-24.2zm0-25.7h24.2v16.2h-24.2zm-33.9 0h24.2v16.2h-24.2zm0 25.7h24.2v16.2h-24.2zm0 64.6h24.2v16.2h-24.2zm33.9 0h24.2v16.2h-24.2zm0 25.7h24.2v16.2h-24.2zm-33.9 0h24.2v16.2h-24.2zM330 58.9H161.5V82H330zm-126.4 60.9c-.6-.3-1.1-.7-1.6-1.1l-3.1-3.4-3.1 3.4c-.4.5-1 .9-1.6 1.1l-4.2 1.9 2.3 4c.3.6.5 1.2.6 1.8l.5 4.6 4.6-.9c.6-.1 1.3-.1 1.9 0l4.6.9.5-4.6c.1-.7.3-1.3.6-1.8l2.3-4zm36.1 7.8.5 4.6 4.6-.9c.6-.1 1.3-.1 1.9 0l4.6.9.5-4.6c.1-.7.3-1.3.6-1.8l2.3-4-4.2-1.9c-.6-.3-1.1-.7-1.6-1.1l-3.1-3.4-3.1 3.4c-.4.5-1 .9-1.6 1.1l-4.2 1.9 2.3 4c.2.6.4 1.2.5 1.8zm56.1-8.9-3.1-3.4-3.1 3.4c-.4.5-1 .9-1.6 1.1l-4.2 1.9 2.3 4c.3.6.5 1.2.6 1.8l.5 4.6 4.6-.9c.6-.1 1.3-.1 1.9 0l4.6.9.5-4.6c.1-.7.3-1.3.6-1.8l2.3-4-4.3-1.9c-.6-.2-1.2-.6-1.6-1.1zm75.5-41-1 12.8 11.8-4.9c1.4-.6 3-.6 4.4 0l11.8 4.9-1-12.8c-.1-1.5.4-3.1 1.4-4.2l8.3-9.8-12.5-3c-1.5-.4-2.8-1.3-3.6-2.6l-6.7-10.9-6.7 10.9c-.8 1.3-2.1 2.2-3.6 2.6l-12.5 3 8.3 9.8c1.2 1.2 1.7 2.7 1.6 4.2zM94 77.7l-1 12.8 11.9-4.9c1.4-.6 3-.6 4.4 0l11.8 4.9-1-12.8c-.1-1.5.4-3.1 1.4-4.2l8.3-9.8-12.5-3c-1.5-.4-2.8-1.3-3.6-2.6L107 47.2l-6.7 10.9c-.8 1.3-2.1 2.2-3.6 2.6l-12.5 3 8.3 9.8c1.2 1.2 1.7 2.7 1.5 4.2z" opacity="1" data-original="url(#a)"></path></g></svg>