<svg xmlns="http://www.w3.org/2000/svg" version="1.1" xmlns:xlink="http://www.w3.org/1999/xlink" width="512" height="512" x="0" y="0" viewBox="0 0 512 512" style="enable-background:new 0 0 512 512" xml:space="preserve"><rect width="512" height="512" rx="102.4" ry="102.4" fill="#bac8d3" shape="rounded"></rect><g transform="matrix(0.6,0,0,0.6,107.39799957275392,102.40199661254883)"><linearGradient id="a" x1="51.96" x2="377.38" y1="79.72" y2="405.15" gradientUnits="userSpaceOnUse"><stop offset="0" stop-color="#0fafd1"></stop><stop offset="1" stop-color="#7d57a3"></stop></linearGradient><path fill="url(#a)" fill-rule="evenodd" d="M119.52 12.17h213.03v53.86c0 3.37 2.71 6.08 6.08 6.08h53.86v218.85l-38.39 30.5-4.26 3.43c-7.06-14.34-20.53-21.28-37.21-19.5h-60.02c-9.42-8.27-20.19-14.54-32.4-17.97-23.5-6.6-47.55-1.35-69.21 8.73-10.83 5.07-21.37 11.4-31.48 18.55zM12.15 374.53l111.77 125.31 37.38-33.32L49.53 341.21l-37.38 33.32zm343.61-38.76 5.9-4.78L426 279.9c26.84-22.9 58-16.91 73.84 2.79 0 0-53.88 50.57-161.62 151.66l-188.67-.14-65.52-73.44c67.25-65.98 123.78-82.19 163.78-43.17h65.49c16.79-2.1 23.96 7.55 27.04 16.19.58 2.65.98 5.62.98 8.67 0 4.2-.78 8.47-3.02 11.81-2.19 3.28-6.02 5.96-12.3 7.34-2.91.63-6.31.98-10.28.98H220.1c-4.12 0-7.43 3.34-7.43 7.46s3.31 7.43 7.43 7.43h95.62c5.04 0 9.5-.49 13.42-1.35 10.51-2.3 17.25-7.34 21.46-13.59 4.15-6.19 5.59-13.31 5.59-20.07 0-2.3-.17-4.55-.43-6.68zm22-275.84L344.73 26.9v33.03zM257.75 74.85l90.03 26.47a6.09 6.09 0 0 1 4.38 5.82c0 33.84-9.04 65.58-24.85 92.97-16.36 28.34-39.95 51.98-68.26 68.34a6.026 6.026 0 0 1-6.19-.06c-28.25-16.36-51.84-39.97-68.17-68.28-15.81-27.39-24.85-59.13-24.85-92.97 0-2.91 2.04-5.36 4.81-5.96l89.62-26.35c1.18-.35 2.39-.32 3.49.03zm82.17 36.81L256 87.01l-83.92 24.65c.78 29.98 9.1 58.06 23.13 82.4a174.953 174.953 0 0 0 60.8 62.06c25.14-15.23 46.11-36.63 60.8-62.06 14.05-24.34 22.35-52.42 23.13-82.4zm-126.89 60.91a7.17 7.17 0 0 1 0-10.08c2.79-2.76 7.29-2.76 10.05 0l22.03 22.03 54.4-54.4c2.79-2.79 7.29-2.79 10.05 0 2.79 2.76 2.79 7.29 0 10.05l-59.41 59.44a7.17 7.17 0 0 1-10.08 0z" opacity="1" data-original="url(#a)"></path></g></svg>