<svg xmlns="http://www.w3.org/2000/svg" version="1.1" xmlns:xlink="http://www.w3.org/1999/xlink" width="512" height="512" x="0" y="0" viewBox="0 0 7.111 7.111" style="enable-background:new 0 0 512 512" xml:space="preserve" fill-rule="evenodd"><rect width="7.111" height="7.111" rx="1.4222" ry="1.4222" fill="#bac8d3" shape="rounded"></rect><g transform="matrix(0.65,0,0,0.65,1.2444248020648958,1.2444250106811516)"><linearGradient id="a" x1="1.955" x2="5.156" y1="3.512" y2="3.512" gradientUnits="userSpaceOnUse"><stop offset="0" stop-color="#fc71c1"></stop><stop offset="1" stop-color="#5cadfe"></stop></linearGradient><path fill="url(#a)" fill-rule="nonzero" d="M2.582 4.706a.253.253 0 0 1 0-.506h.21a.253.253 0 0 1 0 .506zm.004 1.075v1.027c0 .167.136.303.303.303h.738v-1.33h.167v1.33h.25v-1.33h.167v1.33a.304.304 0 0 0 .296-.303V5.78h.346a.304.304 0 0 0 .303-.303v-4.09a.304.304 0 0 0-.303-.303h-.668V.694h-.083a.222.222 0 0 1-.223-.222V.256c0-.102.037-.19.094-.256h-.817a.23.23 0 0 0-.23.23v.855h-.668a.304.304 0 0 0-.303.303v4.09c0 .167.136.303.303.303h.328zm-.183-.916a.253.253 0 0 1 .18-.075h.209a.253.253 0 0 1 0 .507h-.21a.253.253 0 0 1-.179-.432zm1.782-3.333h.067a.083.083 0 0 1 0 .166H2.859a.083.083 0 0 1 0-.166h1.326zM2.403 3.684a.253.253 0 0 1 .18-.074h.209a.253.253 0 0 1 0 .506h-.21a.253.253 0 0 1-.179-.432zm1.048.516h.21a.253.253 0 0 1 0 .506h-.21a.253.253 0 0 1 0-.506zm.868.506a.253.253 0 0 1 0-.506h.21a.253.253 0 0 1 0 .506zm0 .084h.21a.253.253 0 0 1 0 .507h-.21a.253.253 0 0 1 0-.507zm-.868 0h.21a.253.253 0 0 1 0 .507h-.21a.253.253 0 0 1 0-.507zm.868-1.18h.21a.253.253 0 0 1 0 .506h-.21a.253.253 0 0 1 0-.506zm-.868 0h.21a.253.253 0 0 1 0 .506h-.21a.253.253 0 0 1 0-.506zm-.849-.318a.333.333 0 0 1-.332-.332v-.713c0-.182.15-.332.332-.332H4.51c.183 0 .332.15.332.332v.713c0 .183-.15.332-.332.332zM4.446.555h-.344a.083.083 0 0 1-.084-.083V.256a.256.256 0 0 1 .511 0v.216a.083.083 0 0 1-.083.083zm.083 4.402h-.21a.087.087 0 0 0 0 .173h.21a.087.087 0 0 0 0-.173zm-.869 0h-.21a.087.087 0 0 0 0 .173h.21a.087.087 0 0 0 0-.173zm-.868 0h-.21a.087.087 0 0 0 0 .173h.21a.087.087 0 0 0 0-.173zm1.737-.59h-.21a.087.087 0 0 0 0 .173h.21a.087.087 0 0 0 0-.173zm-.869 0h-.21a.087.087 0 0 0 0 .173h.21a.087.087 0 0 0 0-.173zm-.868 0h-.21a.087.087 0 0 0 0 .173h.21a.087.087 0 0 0 0-.173zm1.737-.59h-.21a.087.087 0 0 0 0 .173h.21a.087.087 0 0 0 0-.174zm-.869 0h-.21a.087.087 0 0 0 0 .173h.21a.087.087 0 0 0 0-.174zm-.868 0h-.21a.087.087 0 0 0 0 .173h.21a.087.087 0 0 0 0-.174zm1.717-1.695H2.602a.166.166 0 0 0-.165.165v.713c0 .091.074.166.165.166H4.51c.09 0 .165-.075.165-.166v-.713a.166.166 0 0 0-.165-.165z" opacity="1" data-original="url(#a)"></path></g></svg>