<svg xmlns="http://www.w3.org/2000/svg" version="1.1" xmlns:xlink="http://www.w3.org/1999/xlink" width="512" height="512" x="0" y="0" viewBox="0 0 512 512" style="enable-background:new 0 0 512 512" xml:space="preserve"><rect width="512" height="512" rx="102.4" ry="102.4" fill="#bac8d3" shape="rounded"></rect><g transform="matrix(0.65,0,0,0.65,89.6,89.6)"><linearGradient id="a" x1="59.465" x2="452.535" y1="454.535" y2="61.465" gradientTransform="matrix(1 0 0 -1 0 514)" gradientUnits="userSpaceOnUse"><stop offset="0" stop-color="#53ab46"></stop><stop offset="1" stop-color="#107300"></stop></linearGradient><path fill="url(#a)" d="M232.2 265.3h-9.7v26.4h-18V217h29.4c8.9 0 15.8 2 20.8 5.9s7.5 9.5 7.5 16.7c0 5.2-1 9.5-3.1 12.9s-5.4 6.2-9.9 8.3l15.6 30.1v.8h-19.3zm-9.8-13.8h11.4c3.4 0 6-.9 7.7-2.7s2.6-4.3 2.6-7.5-.9-5.8-2.6-7.6-4.3-2.8-7.7-2.8h-11.4zm71.8 24.6c0-1.5-.8-2.6-2.3-3.5s-4.5-1.8-8.8-2.8-7.9-2.2-10.7-3.8-4.9-3.4-6.4-5.7c-1.5-2.2-2.2-4.8-2.2-7.6 0-5.1 2.1-9.3 6.3-12.6s9.7-4.9 16.5-4.9c7.3 0 13.2 1.7 17.6 5s6.7 7.7 6.7 13.1h-17.3c0-4.4-2.3-6.7-7-6.7-1.8 0-3.3.5-4.6 1.5s-1.9 2.3-1.9 3.8.8 2.8 2.3 3.7c1.5 1 3.9 1.7 7.2 2.4s6.2 1.4 8.7 2.2c8.3 2.9 12.5 8 12.5 15.4 0 5.1-2.2 9.2-6.7 12.4s-10.3 4.8-17.5 4.8c-4.8 0-9-.9-12.7-2.6s-6.6-4-8.7-7c-2.1-2.9-3.1-6-3.1-9.3h16.2c.1 2.6.9 4.4 2.6 5.6 1.6 1.2 3.7 1.8 6.3 1.8 2.4 0 4.1-.5 5.3-1.4s1.7-2.2 1.7-3.8zM507 116H5c-2.8 0-5 2.2-5 5v270c0 2.8 2.2 5 5 5h502c2.8 0 5-2.2 5-5V121c0-2.8-2.2-5-5-5zm-25 250H30V146h452zm-25.8-160.3c-7.9 1.1-16.8-.9-25.6-7-7.2-9-9.5-18.6-8.3-27 .4-3-1.9-5.7-5-5.7H94.6c-3.1 0-5.4 2.7-4.9 5.7 1.2 8.4-1.1 18-8.3 27-8.9 6.1-17.7 8.1-25.6 7-3-.4-5.8 1.9-5.8 4.9v90.7c0 3.1 2.7 5.4 5.8 4.9 7.9-1.1 16.8.9 25.6 7 7.2 9 9.5 18.6 8.3 27-.4 3 1.9 5.7 4.9 5.7h322.7c3 0 5.4-2.7 5-5.7-1.2-8.4 1.1-18 8.3-27 8.9-6.1 17.7-8.1 25.6-7 3 .4 5.8-1.9 5.8-4.9v-90.7c0-3-2.7-5.3-5.8-4.9zM115.5 281c-13.8 0-25-11.2-25-25s11.2-25 25-25 25 11.2 25 25-11.2 25-25 25zM256 331c-41.4 0-75-33.6-75-75s33.6-75 75-75 75 33.6 75 75-33.6 75-75 75zm140.5-50c-13.8 0-25-11.2-25-25s11.2-25 25-25 25 11.2 25 25-11.2 25-25 25z" opacity="1" data-original="url(#a)"></path></g></svg>