<svg xmlns="http://www.w3.org/2000/svg" version="1.1" xmlns:xlink="http://www.w3.org/1999/xlink" width="512" height="512" x="0" y="0" viewBox="0 0 64 64" style="enable-background:new 0 0 512 512" xml:space="preserve"><rect width="64" height="64" rx="12.8" ry="12.8" fill="#bac8d3" shape="rounded"></rect><g transform="matrix(0.7,0,0,0.7,9.600000000000001,9.600000000000001)"><linearGradient id="a" x1="4" x2="60" y1="32" y2="32" gradientUnits="userSpaceOnUse"><stop offset="0" stop-color="#ffde00"></stop><stop offset="1" stop-color="#fd5900"></stop></linearGradient><path fill="url(#a)" d="M56.48 14.37H7.52A3.525 3.525 0 0 0 4 17.89v28.22a3.525 3.525 0 0 0 3.52 3.52h48.96A3.525 3.525 0 0 0 60 46.11V17.89a3.525 3.525 0 0 0-3.52-3.52zM16.83 34.53a1 1 0 0 1 1.56 1.25c-1.71 2.14-5.24 2.82-5.77 2.92-1.18.35-1.63 2.02-1.79 3.04 8.69 1.97 18.33.49 21.24-.04-.16-1.02-.61-2.66-1.77-3-.54-.1-4.07-.78-5.77-2.92a1 1 0 0 1 1.56-1.25c1.16 1.427 3.7 2.057 4.68 2.22 3.22.86 3.39 5.53 3.4 5.73a1 1 0 0 1-.79 1 63.884 63.884 0 0 1-12.69 1.27A45.982 45.982 0 0 1 9.5 43.48a1.007 1.007 0 0 1-.76-1c.01-.2.18-4.87 3.4-5.73.986-.163 3.532-.794 4.69-2.22zm-1.74-6.66v-2.66a6.064 6.064 0 0 1 6.79-5.95 5.958 5.958 0 0 1 5.95 5.95v2.66c-.121 7.96-12.626 7.959-12.74 0zm21.66 2.33h17.51a1 1 0 0 1 0 2H36.75a1 1 0 0 1 0-2zm-1-3.34a1.003 1.003 0 0 1 1-1h17.51a1 1 0 0 1 0 2H36.75a1.003 1.003 0 0 1-1-1zm1 7.68h17.51a1 1 0 0 1 0 2H36.75a1 1 0 0 1 0-2zm17.51-11.02H36.75a1 1 0 0 1 0-2h17.51a1 1 0 0 1 0 2zm-37.17 4.35v-2.66a3.958 3.958 0 0 1 3.95-3.95 4.096 4.096 0 0 1 4.79 3.95v2.66a4.097 4.097 0 0 1-4.79 3.95 3.958 3.958 0 0 1-3.95-3.95z" opacity="1" data-original="url(#a)"></path></g></svg>