<svg xmlns="http://www.w3.org/2000/svg" version="1.1" xmlns:xlink="http://www.w3.org/1999/xlink" width="512" height="512" x="0" y="0" viewBox="0 0 64 64" style="enable-background:new 0 0 512 512" xml:space="preserve"><rect width="64" height="64" rx="12.8" ry="12.8" fill="#bac8d3" shape="rounded"></rect><g transform="matrix(0.69,0,0,0.69,9.918845233917239,9.91936378479004)"><linearGradient id="a" x1="4" x2="60.001" y1="31.998" y2="31.998" gradientUnits="userSpaceOnUse"><stop offset="0" stop-color="#ff81ff"></stop><stop offset="1" stop-color="#a93aff"></stop></linearGradient><path fill="url(#a)" d="m57.59 34.25-2.02 1.07v-2.26a7.173 7.173 0 0 0-7-8.16h-1.8c1.268-.694 7.394-4.04 8.53-4.66l4.17 7.89a4.54 4.54 0 0 1-1.88 6.12zm-9.02-7.35H9a5.008 5.008 0 0 0-5 5v1.5h49.57v-1.5a5.008 5.008 0 0 0-5-5zm5 15.22v8.86a5.002 5.002 0 0 1-5 5H9a5.002 5.002 0 0 1-5-5v-8.86zM9.35 48.04h11.38a1 1 0 0 0 0-2H9.35a1 1 0 0 0 0 2zm0 4.02h6.16a1 1 0 0 0 0-2H9.35a1 1 0 0 0 0 2zM26.84 24.9l23.99-13.11c-.707-1.506-1.664-3.143-3.4-3.57a4.435 4.435 0 0 0-3.44.33L13.08 24.9zm4.16 0h11.61l11.76-6.43-2.6-4.91zM4 35.4v4.72h49.57V35.4z" opacity="1" data-original="url(#a)"></path></g></svg>