<svg xmlns="http://www.w3.org/2000/svg" version="1.1" xmlns:xlink="http://www.w3.org/1999/xlink" width="512" height="512" x="0" y="0" viewBox="0 0 1707 1707" style="enable-background:new 0 0 512 512" xml:space="preserve" fill-rule="evenodd"><rect width="1707" height="1707" rx="341.4" ry="341.4" fill="#bac8d3" shape="rounded"></rect><g transform="matrix(0.63,0,0,0.63,315.61287933349615,310.7950000000001)"><linearGradient id="a" x1="820.567" x2="886.102" y1="27.984" y2="1678.68" gradientUnits="userSpaceOnUse"><stop offset="0" stop-color="#a96f44"></stop><stop offset="1" stop-color="#f2ecb6"></stop></linearGradient><path fill="url(#a)" d="M1403 1480h61c52 0 52 79 0 79h-13l53 88c16 26-3 60-33 60-14 0-27-7-34-19l-79-129H348l-78 129c-7 12-20 19-34 19-31 0-50-34-34-60l54-88h-13c-52 0-52-79 0-79h61l53-87c-49-3-48-79 3-79h45l50-81h-66c-47 0-85-38-85-85V304c0-81 65-147 146-147h819c81 0 147 66 147 147v844c0 47-38 85-85 85h-79l50 81h45c51 0 52 76 3 79zM602 124l32-110c2-8 10-14 19-14h414c9 0 17 6 19 14l32 110zm-55 1109-50 81h712l-50-81zm677-510H496c-30 0-54-24-54-54V321c0-30 24-54 54-54h728c29 0 54 24 54 54v348c0 30-25 54-54 54zM496 307c-8 0-14 6-14 14v348c0 8 6 15 14 15h344V307zm384 377h344c8 0 14-7 14-15V321c0-8-6-14-14-14H880zm121 348H719c-27 0-27-40 0-40h282c26 0 26 40 0 40zm0-108H719c-27 0-27-39 0-39h282c26 0 26 39 0 39zm-488 133c-55 0-99-44-99-99 0-54 44-99 99-99 54 0 99 45 99 99 0 55-45 99-99 99zm0-158c-79 0-79 119 0 119 78 0 78-119 0-119zm694 158c-54 0-99-44-99-99 0-54 45-99 99-99 55 0 99 45 99 99 0 55-44 99-99 99zm0-158c-78 0-78 119 0 119s78-119 0-119zm103 581-53-86H449l-52 86z" opacity="1" data-original="url(#a)"></path></g></svg>