<svg xmlns="http://www.w3.org/2000/svg" version="1.1" xmlns:xlink="http://www.w3.org/1999/xlink" width="512" height="512" x="0" y="0" viewBox="0 0 491.5 491.5" style="enable-background:new 0 0 512 512" xml:space="preserve"><rect width="491.5" height="491.5" rx="98.3" ry="98.3" fill="#bac8d3" shape="rounded"></rect><g transform="matrix(0.6499999999999998,0,0,0.6499999999999998,96.01249465942391,86.0125000000001)"><linearGradient id="a" x1="245.75" x2="245.75" y1="41" y2="450.5" gradientUnits="userSpaceOnUse"><stop offset="0" stop-color="#f704fe"></stop><stop offset="1" stop-color="#24bce3"></stop></linearGradient><path fill="url(#a)" d="M200.6 79c10.5 0 19-8.5 19-19s-8.5-19-19-19-19 8.5-19 19 8.5 19 19 19zm-73.9-4.1c3.8 0 7.4-1.4 10.1-4 .9-.8 2.1-1.3 3.3-1.3h33.6c-1.1-3-1.7-6.2-1.7-9.6s.6-6.6 1.7-9.6h-33.6c-1.2 0-2.4-.5-3.3-1.3-2.8-2.6-6.3-4-10.1-4-8.2 0-14.9 6.7-14.9 14.9s6.7 14.9 14.9 14.9zm134.4-5.3c1.2 0 2.4.5 3.3 1.3 2.8 2.6 6.4 4 10.1 4 8.2 0 14.9-6.7 14.9-14.9s-6.7-14.9-14.9-14.9c-3.8 0-7.4 1.4-10.1 4-.9.8-2.1 1.3-3.3 1.3h-33.6c1.1 3 1.7 6.2 1.7 9.6s-.6 6.6-1.7 9.6zm-69.5 17.5v37.4h18V87.1c-2.8.9-5.9 1.4-9 1.4-3.2.1-6.2-.4-9-1.4zm34.3 49.1c0-1.1-.9-2-2.1-2h-46.5c-1.1 0-2.1.9-2.1 2v14.7h50.6zm14.8 24.2h-80.2c-2.9 0-5.2 2.4-5.2 5.2v80.2c0 2.9 2.3 5.2 5.2 5.2h80.2c2.9 0 5.2-2.3 5.2-5.2v-80.2c0-2.8-2.3-5.2-5.2-5.2zm14.8 13.8h56.3v63.1h-56.3zm79.6-14.5h-8.9c-2.6 0-4.7 2.1-4.7 4.7v82.8c0 2.6 2.1 4.7 4.7 4.7h8.9c2.6 0 4.7-2.1 4.7-4.7v-82.8c0-2.6-2.1-4.7-4.7-4.7zm14.3 14.5h69.4v63.1h-69.4zm98.7-23.2h-11.9c-4.3 0-7.9 3.5-7.9 7.9v93.8c0 4.3 3.5 7.9 7.9 7.9h11.9c4.3 0 7.9-3.5 7.9-7.9v-93.8c0-4.3-3.5-7.9-7.9-7.9zM43.7 204.5v70.4h60.6v-15.2c0-12.3 10-22.4 22.3-22.4h19v-63.1H73.9c-16.6 0-30.2 13.6-30.2 30.3zm67.5 80H36.7c-.6 0-1.2.5-1.2 1.2v16.6c0 .7.5 1.2 1.2 1.2h74.5c.6 0 1.2-.5 1.2-1.2v-16.6c0-.6-.5-1.2-1.2-1.2zm-39.6 79c1.8 6.5 7.7 9.8 13.6 9.8s11.8-3.3 13.6-9.8c2.2-7.9-.7-20.2-13.6-37.3-12.9 17.1-15.8 29.4-13.6 37.3zm-24.1 73.1c2.6 9.3 10.9 13.9 19.2 13.9s16.7-4.6 19.2-13.9c3-10.9-1.1-27.9-19.2-51.4-18.2 23.6-22.2 40.5-19.2 51.4z" opacity="1" data-original="url(#a)"></path></g></svg>