<svg xmlns="http://www.w3.org/2000/svg" version="1.1" xmlns:xlink="http://www.w3.org/1999/xlink" width="512" height="512" x="0" y="0" viewBox="0 0 24 24" style="enable-background:new 0 0 512 512" xml:space="preserve" fill-rule="evenodd"><rect width="24" height="24" rx="4.8" ry="4.8" fill="#bac8d3" shape="rounded"></rect><g transform="matrix(0.6699999999999999,0,0,0.6699999999999999,3.951752918958663,3.950751700401307)"><linearGradient id="a" x1="0" x2="1" y1="0" y2="0" gradientTransform="matrix(23.972 17.14 -12.225 17.098 136.043 8.463)" gradientUnits="userSpaceOnUse"><stop offset="0" stop-color="#00d7ff"></stop><stop offset="1" stop-color="#0096ff"></stop></linearGradient><path fill="url(#a)" d="M139.46 22.186h-2.504l-.971-13.601 1.703-.122.859 12.015h.913a2.604 2.604 0 0 1 2.603-2.562h11.875a2.604 2.604 0 0 1 2.602 2.562h.913l.859-12.015 1.703.122-.971 13.601h-2.504v2.563h-1.708v.854h-1.708v-.854h-10.248v.854h-1.708v-.854h-1.708zm5.978-1.708a.854.854 0 1 0 0 1.708.854.854 0 0 0 0-1.708zm-2.562 0a.854.854 0 1 0 0 1.708.854.854 0 0 0 0-1.708zm-.318-9.023c1.663-.743 3.504-1.157 5.442-1.157s3.779.414 5.442 1.157l-1.108 1.385c-1.34-.538-2.803-.834-4.334-.834s-2.994.296-4.334.834zm2.231 2.788.785-.238c.768-.234 1.582-.359 2.426-.359s1.658.125 2.426.359l.785.238-1.149 1.436-.132-.04a6.65 6.65 0 0 0-3.86 0l-.132.04z" transform="matrix(.878 0 0 .878 -117.969 -2.983)" opacity="1" data-original="url(#a)"></path></g></svg>