<svg xmlns="http://www.w3.org/2000/svg" version="1.1" xmlns:xlink="http://www.w3.org/1999/xlink" width="512" height="512" x="0" y="0" viewBox="0 0 64 64" style="enable-background:new 0 0 512 512" xml:space="preserve"><rect width="64" height="64" rx="12.8" ry="12.8" fill="#bac8d3" shape="rounded"></rect><g transform="matrix(0.6699999999999999,0,0,0.6699999999999999,10.560000629425051,10.559999370574953)"><linearGradient id="a" x1="4" x2="60" y1="32" y2="32" gradientUnits="userSpaceOnUse"><stop offset="0" stop-color="#00c0ff"></stop><stop offset="1" stop-color="#5558ff"></stop></linearGradient><path fill="url(#a)" d="M51 40.05v-15.1a2.996 2.996 0 0 0-3-3c-5.932-.004-35.737.003-41 0a3.002 3.002 0 0 0-3 3V48.1a3.002 3.002 0 0 0 3 3h41a2.996 2.996 0 0 0 3-3c.008-1.488-.006-6.67 0-8.05zM32 28.88h13.48a1 1 0 0 1 0 2H32a1 1 0 0 1 0-2zm-3.5 14.7a3.002 3.002 0 0 1-3 3H11.52a3.009 3.009 0 0 1-3-3V29.47a3.009 3.009 0 0 1 3-3H25.5a3.002 3.002 0 0 1 3 3zm16.98.59H32a1 1 0 0 1 0-2h13.48a1 1 0 0 1 0 2zm0-6.64H32a1 1 0 0 1 0-2h13.48a1 1 0 0 1 0 2zM60 16.16v22.63a3.258 3.258 0 0 1-3.25 3.26H53c-.005-.46.007-16.032 0-17.1a5.002 5.002 0 0 0-5-5H12.98v-3.79a3.258 3.258 0 0 1 3.25-3.26h40.52A3.258 3.258 0 0 1 60 16.16zM23.18 44.58h-9.34a4.765 4.765 0 0 1 9.34 0zm3.32-15.11v14.11a1.068 1.068 0 0 1-1.29 1 6.788 6.788 0 0 0-3.79-5.15 3.897 3.897 0 1 0-5.82 0 6.788 6.788 0 0 0-3.79 5.15h-.29a1.003 1.003 0 0 1-1-1V29.47a1.003 1.003 0 0 1 1-1H25.5a1.003 1.003 0 0 1 1 1zm-9.88 7.38a1.89 1.89 0 0 1 3.78 0 1.89 1.89 0 0 1-3.78 0z" opacity="1" data-original="url(#a)"></path></g></svg>