<svg xmlns="http://www.w3.org/2000/svg" version="1.1" xmlns:xlink="http://www.w3.org/1999/xlink" width="512" height="512" x="0" y="0" viewBox="0 0 491.5 491.5" style="enable-background:new 0 0 512 512" xml:space="preserve" class=""><rect width="491.5" height="491.5" rx="98.3" ry="98.3" fill="#bac8d3" shape="rounded"></rect><g transform="matrix(0.7,0,0,0.7,73.73999633789063,73.72562370300295)"><linearGradient id="a" x1="245.8" x2="245.8" y1="33.104" y2="458.4" gradientUnits="userSpaceOnUse"><stop offset="0" stop-color="#f704fe"></stop><stop offset="1" stop-color="#24bce3"></stop></linearGradient><path fill="url(#a)" d="m119.8 46.4 108.5 67.7h-11.1c-1.6 0-3 1.4-3 3v16.5c21-.5 42.1-.5 63.1 0v-16.5c0-1.6-1.4-3-3-3h-11.1l108.5-67.7c3.4-2.1 4.4-6.6 2.3-9.9-2.1-3.4-6.6-4.4-9.9-2.3L245.8 108 127.4 34.2c-3.4-2.1-7.8-1.1-9.9 2.3s-1.1 7.8 2.3 9.9zm255.2 139c-50.7-11.3-207.7-11.3-258.5 0-1.6.4-2.7 1.4-3.2 2.9-6 18.2-9.7 53.8-9.7 92.8s3.7 74.5 9.7 92.8c.5 1.6 1.6 2.6 3.2 2.9 50.7 11.3 207.7 11.3 258.4 0 1.6-.4 2.7-1.4 3.2-2.9 6.1-18.5 9.7-53.2 9.7-92.8 0-39-3.7-74.5-9.7-92.8-.4-1.6-1.5-2.6-3.1-2.9zm-146.4 72.1-36.1 36.1c-1.9 1.9-4.9 1.9-6.8 0s-1.9-4.9 0-6.8l36.1-36.1c1.9-1.9 4.9-1.9 6.8 0s1.9 4.9 0 6.8zm1.4-34.8-72.2 72.2c-1.9 1.9-4.9 1.9-6.8 0s-1.9-4.9 0-6.8l72.2-72.2c1.9-1.9 4.9-1.9 6.8 0 1.8 1.9 1.8 4.9 0 6.8zm169.8-65.3C381 145 285 142.8 245.8 142.8c-39.3 0-135.3 2.2-154 14.6C78.6 166.2 69 218.2 69 281.1S78.6 396 91.8 404.7c20.4 13.5 136.4 14.6 154 14.6 17.8 0 133.3-.9 154-14.6 13.2-8.8 22.8-60.8 22.8-123.7 0-62.8-9.6-114.8-22.8-123.6zm-12.5 219.4c-1.6 4.8-5.3 8.2-10.3 9.3-25.8 5.8-78.6 8.6-131.3 8.6-52.8 0-105.6-2.9-131.3-8.6-4.9-1.1-8.7-4.5-10.3-9.3-13.6-41.2-13.6-150.4 0-191.5 1.6-4.8 5.3-8.2 10.3-9.3 51.5-11.5 211.1-11.5 262.6 0 4.9 1.1 8.7 4.5 10.3 9.3 13.6 41.2 13.6 150.4 0 191.5zM129.9 451c0 4.8 7 7.4 13.6 7.4s13.6-2.6 13.6-7.4v-25.1c-9.6-.7-18.8-1.6-27.2-2.6zm204.5 0c0 4.8 7 7.4 13.6 7.4s13.6-2.6 13.6-7.4v-27.7c-8.4 1-17.6 1.9-27.2 2.6z" opacity="1" data-original="url(#a)"></path></g></svg>