<svg xmlns="http://www.w3.org/2000/svg" version="1.1" xmlns:xlink="http://www.w3.org/1999/xlink" width="512" height="512" x="0" y="0" viewBox="0 0 100 100" style="enable-background:new 0 0 512 512" xml:space="preserve"><rect width="100" height="100" rx="20" ry="20" fill="#bac8d3" shape="rounded"></rect><g transform="matrix(0.65,0,0,0.65,17.49998297691345,17.500021862983708)"><linearGradient id="a" x1="-1.073" x2="98.549" y1="-8.395" y2="102.59" gradientUnits="userSpaceOnUse"><stop offset="0" stop-color="#97e0ff"></stop><stop offset="1" stop-color="#1075ff"></stop></linearGradient><path fill="url(#a)" d="M76.54 23.4c6.629 0 11.973-6.423 10.056-13.294-.944-3.386-3.606-6.12-6.97-7.141C72.222.718 65.253 6.963 66.174 14.25l-.082.125-27.075 7.6L26.29 9.25a2.103 2.103 0 0 0-3.053.09C9.108 25.146 9.618 50.053 24.766 65.2c2.85 2.85 6.175 5.225 9.975 7.125L20.656 94.28c-.892 1.392.107 3.22 1.76 3.22h45.118c1.644 0 2.645-1.81 1.77-3.203L58.491 77.075c7.87-.875 15.741-4.164 21.759-9.869a2.1 2.1 0 0 0 .04-3.007L67.516 51.425l7.6-27.55c.95-.475 1.425-.475 1.425-.475zm-17.574 19L47.566 31l16.15-4.75z" opacity="1" data-original="url(#a)"></path></g></svg>