<svg xmlns="http://www.w3.org/2000/svg" version="1.1" xmlns:xlink="http://www.w3.org/1999/xlink" width="512" height="512" x="0" y="0" viewBox="0 0 64 64" style="enable-background:new 0 0 512 512" xml:space="preserve"><rect width="64" height="64" rx="12.8" ry="12.8" fill="#bac8d3" shape="rounded"></rect><g transform="matrix(0.5499999999999999,0,0,0.5499999999999999,14.400000000000002,14.399774694442751)"><linearGradient id="a" x1="4" x2="60" y1="32" y2="32" gradientUnits="userSpaceOnUse"><stop offset="0" stop-color="#9cffac"></stop><stop offset="1" stop-color="#00b59c"></stop></linearGradient><path fill="url(#a)" d="M53.63 48.31c.007-3.73-.006-33.376 0-36.232-3.052.319-13.027 1.715-20.76 7.06v35.509c3.69-2.138 14.096-7.664 20.76-6.337zM36.732 23.026h13.034a.87.87 0 0 1 0 1.741H36.733a.87.87 0 0 1 0-1.741zm13.034 21.258H36.733a.87.87 0 0 1 0-1.74h13.034a.87.87 0 0 1 0 1.74zm0-9.758H36.733a.87.87 0 0 1 0-1.742h13.034a.87.87 0 0 1 0 1.742zM60 19.983v38.414c-3.664-1.01-15.345-4.01-23.534-3.733 4.87-2.526 13.008-6.078 17.74-4.397a.867.867 0 0 0 1.165-.819V18.491zM30.06 54.87c-8.103-1.155-22 2.413-26.06 3.534V19.983l4.63-1.492v23.707a.871.871 0 0 0 .732.862c.147.026 13.586 2.302 20.698 11.81zM10.38 41.474c2.973.604 14.086 3.37 20.75 11.914V19.155L10.38 5.595zm2.586-23.06a.886.886 0 0 1 1.155-.448l13.974 6.206a.872.872 0 0 1-.707 1.595L13.414 19.56a.876.876 0 0 1-.448-1.146zm0 8.215a.874.874 0 0 1 1.155-.44l13.974 6.199a.872.872 0 0 1-.707 1.595l-13.974-6.207a.873.873 0 0 1-.448-1.147zm0 8.216a.874.874 0 0 1 1.155-.44l13.974 6.198a.874.874 0 0 1 .44 1.156.86.86 0 0 1-1.147.44L13.414 36a.886.886 0 0 1-.448-1.155z" opacity="1" data-original="url(#a)"></path></g></svg>