<svg xmlns="http://www.w3.org/2000/svg" version="1.1" xmlns:xlink="http://www.w3.org/1999/xlink" width="512" height="512" x="0" y="0" viewBox="0 0 64 64" style="enable-background:new 0 0 512 512" xml:space="preserve"><rect width="64" height="64" rx="12.8" ry="12.8" fill="#bac8d3" shape="rounded"></rect><g transform="matrix(0.68,0,0,0.68,10.239999999999998,10.239999999999998)"><linearGradient id="a" x1="4" x2="59.981" y1="32" y2="32" gradientUnits="userSpaceOnUse"><stop offset="0" stop-color="#00c0ff"></stop><stop offset="1" stop-color="#5558ff"></stop></linearGradient><path fill="url(#a)" d="M32 49.2a17.177 17.177 0 0 1-11.2-30.22h22.4C55.23 29.262 47.864 49.194 32 49.2zm9.1-41.5A3.704 3.704 0 0 0 37.4 4H26.6a3.704 3.704 0 0 0-3.7 3.7v1.79h18.2zm0 3.79H22.9v5.49h18.2zM32 52.6a1 1 0 0 0-1 1V59a1 1 0 0 0 2 0v-5.4a1 1 0 0 0-1-1zm11.666-2.394a1 1 0 0 0-1.732 1l2.7 4.677a1 1 0 1 0 1.732-1zm12.217-5.572-4.677-2.7a1 1 0 0 0-1 1.732c.27.092 4.96 3.027 5.176 2.834a1.006 1.006 0 0 0 .5-1.866zM59 31h-5.4a1 1 0 0 0 0 2H59a1 1 0 0 0 0-2zm-8.293-8.8c.196.204 4.924-2.752 5.176-2.834a1 1 0 0 0-1-1.732l-4.677 2.7a1.006 1.006 0 0 0 .501 1.866zM21.7 49.84a1 1 0 0 0-1.366.366l-2.7 4.677a1 1 0 0 0 1.732 1l2.7-4.677a1 1 0 0 0-.366-1.366zm-8.906-7.906-4.677 2.7a1.006 1.006 0 0 0 .501 1.866c.196.203 4.924-2.752 5.176-2.834a1 1 0 0 0-1-1.732zM11.4 32a1 1 0 0 0-1-1H5a1 1 0 0 0 0 2h5.4a1 1 0 0 0 1-1zm2.394-11.666-4.677-2.7a1 1 0 0 0-1 1.732c.27.092 4.961 3.028 5.176 2.834a1.006 1.006 0 0 0 .501-1.866z" opacity="1" data-original="url(#a)"></path></g></svg>