<svg xmlns="http://www.w3.org/2000/svg" version="1.1" xmlns:xlink="http://www.w3.org/1999/xlink" width="512" height="512" x="0" y="0" viewBox="0 0 64 64" style="enable-background:new 0 0 512 512" xml:space="preserve"><rect width="64" height="64" rx="12.8" ry="12.8" fill="#bac8d3" shape="rounded"></rect><g transform="matrix(0.7,0,0,0.7,9.600000000000001,9.599995851516724)"><linearGradient id="a" x1="4" x2="60" y1="32" y2="32" gradientUnits="userSpaceOnUse"><stop offset="0" stop-color="#00c0ff"></stop><stop offset="1" stop-color="#5558ff"></stop></linearGradient><path fill="url(#a)" d="M37.198 49.305c-.589 3.257-1.714 8.136-5.203 9.212-3.481-1.09-4.612-5.952-5.193-9.212-.712-3.337-.254-11.19-.284-14.519.072-6.073.216-17.129.293-23.133a6.797 6.797 0 0 1 4.929-6.17c1.907-.009 5.383 2.4 5.449 6.17.077 6.036.22 17.035.294 23.133-.022 3.308.414 11.213-.285 14.52zM24.812 19.424l-2.948 2.19a8.22 8.22 0 0 1 .143 2.255c.003.193.018 3.885-.029 3.961-.932 5.451-7.73 7.164-10.396 1.431l-5.535 4.104a4.872 4.872 0 0 0-1.961 3.828L4 43.08a.964.964 0 0 0 1.327.881l19.286-8.35.199-16.186zm35.103 17.77a4.871 4.871 0 0 0-1.962-3.83l-5.525-4.103c-2.713 5.731-9.453 4.022-10.406-1.421-.071.031-.007-3.823-.028-3.971a8.653 8.653 0 0 1 .142-2.256l-2.948-2.18c.038 2.697.166 13.36.209 16.187l19.276 8.34A.956.956 0 0 0 60 43.08zm-46.75-9.108c1.62 4.509 6.437 3.133 6.946-.616-.002-1.137.002-3.425 0-4.558.066-2.608-3.655-3.646-5.6-2.36a2.726 2.726 0 0 0-1.46 1.924c.031.356-.095 5.445.114 5.61zm34.079 2.9a3.97 3.97 0 0 0 3.705-3.516v-4.994c-.632-3.278-6.42-3.267-7.06 0 .006.24-.004 2.356 0 2.653v2.341c0 .038.01.085.01.123a4.113 4.113 0 0 0 3.345 3.393zM25.049 50.272a31.487 31.487 0 0 1-.313-1.99l-4.852 2.682a.97.97 0 0 0-.493.786l-.19 4.047a.966.966 0 0 0 .948.995.857.857 0 0 0 .266-.038l5.999-1.725a22.555 22.555 0 0 1-1.365-4.757zm19.068.692-4.853-2.682a24.934 24.934 0 0 1-1.649 6.757l5.97 1.715a.962.962 0 0 0 1.214-.957l-.2-4.047a.939.939 0 0 0-.482-.786z" opacity="1" data-original="url(#a)"></path></g></svg>