<svg xmlns="http://www.w3.org/2000/svg" version="1.1" xmlns:xlink="http://www.w3.org/1999/xlink" width="512" height="512" x="0" y="0" viewBox="0 0 512 512" style="enable-background:new 0 0 512 512" xml:space="preserve"><rect width="512" height="512" rx="102.4" ry="102.4" fill="#bac8d3" shape="rounded"></rect><g transform="matrix(0.5499999999999999,0,0,0.5499999999999999,115.20000042915348,110.19999721050266)"><linearGradient id="a" x1="31.837" x2="480.162" y1="529.888" y2="81.562" gradientUnits="userSpaceOnUse"><stop offset="0" stop-color="#011c49"></stop><stop offset="1" stop-color="#00b8e0"></stop></linearGradient><path fill="url(#a)" fill-rule="evenodd" d="M130.541 172.732V460.06h67.928v-95.098c0-15.827 6.472-30.213 16.894-40.635 10.424-10.424 24.809-16.896 40.637-16.896 15.827 0 30.213 6.472 40.636 16.896 10.422 10.424 16.894 24.809 16.894 40.635v95.096h67.928V47.674H130.541v98.192zm81.764 301.162H6.974v31.131h498.052v-31.131l-24.118.002-99.449-.002h-81.764zm-95.599-328.028H6.974v26.866h109.732zm388.32 0H395.293v26.866h109.732v-26.866zM130.541 33.84h275.034V6.975H106.423V33.84zm350.367 426.218V186.567h-85.614v273.491zM31.092 186.567V460.06h85.614V186.567zm268.603 178.395v95.096l-87.39.002v-95.098c0-12.011 4.918-22.935 12.838-30.855 7.921-7.92 18.847-12.84 30.857-12.84 12.007 0 22.933 4.92 30.855 12.84 7.92 7.922 12.84 18.846 12.84 30.855zm-67.602-181.756H184.28v-47.813h47.812V87.58h47.813v47.813h47.813v47.813h-47.813v47.813h-47.813v-47.813z" clip-rule="evenodd" opacity="1" data-original="url(#a)"></path></g></svg>