<svg xmlns="http://www.w3.org/2000/svg" version="1.1" xmlns:xlink="http://www.w3.org/1999/xlink" width="512" height="512" x="0" y="0" viewBox="0 0 64 64" style="enable-background:new 0 0 512 512" xml:space="preserve" class=""><rect width="64" height="64" rx="12.8" ry="12.8" fill="#bac8d3" shape="rounded"></rect><g transform="matrix(0.6,0,0,0.6,12.799999713897705,12.79988613128662)"><linearGradient id="a" x1="4" x2="60" y1="32" y2="32" gradientUnits="userSpaceOnUse"><stop offset="0" stop-color="#ffde00"></stop><stop offset="1" stop-color="#fd5900"></stop></linearGradient><path fill="url(#a)" d="M41.23 7.08a.997.997 0 0 0-1-1H23.62a1.003 1.003 0 0 0-1 1v3.15h-4.23v47.68c1.474.029 4.807-.02 6.31 0 .02-1.034-.014-11.398 0-12.73a1.003 1.003 0 0 1 1-1h12.41a1.003 1.003 0 0 1 1 1v12.73H45.46V10.23h-4.23zm-1 13.46c-6.197-.098-5.043 1.022-5.15-5.16a1.003 1.003 0 0 1 1-1h4.15a.997.997 0 0 1 1 1v4.16a.997.997 0 0 1-1 1zm1 4.19c-.107 6.191 1.048 5.06-5.15 5.16a1.003 1.003 0 0 1-1-1v-4.16a1.003 1.003 0 0 1 1-1h4.15a.997.997 0 0 1 1 1zm-12.45 13.5a1.003 1.003 0 0 1-1 1h-4.16a1.003 1.003 0 0 1-1-1v-4.16a1.003 1.003 0 0 1 1-1c6.199.103 5.056-1.033 5.16 5.16zm0-9.34a1.003 1.003 0 0 1-1 1h-4.16a1.003 1.003 0 0 1-1-1v-4.16a1.003 1.003 0 0 1 1-1c6.199.103 5.056-1.033 5.16 5.16zm0-9.35a1.003 1.003 0 0 1-1 1h-4.16a1.003 1.003 0 0 1-1-1v-4.16a1.003 1.003 0 0 1 1-1c6.199.103 5.056-1.033 5.16 5.16zm7.3 19.69a1.003 1.003 0 0 1-1-1v-4.16a1.003 1.003 0 0 1 1-1h4.15a.997.997 0 0 1 1 1c-.107 6.191 1.048 5.06-5.15 5.16zM59 16.46h-2V13a1.003 1.003 0 0 0-1-1h-8.54c.01 3.509-.008 39.483 0 43.91v2H59a.997.997 0 0 0 1-1V17.46a1.003 1.003 0 0 0-1-1zm-4 24.23c-6.548-.122-5.259 1.132-5.39-5.4a.997.997 0 0 1 1-1H55a1.003 1.003 0 0 1 1 1v4.4a1.003 1.003 0 0 1-1 1zm1 5.59c-.126 6.537 1.14 5.263-5.39 5.39a.99.99 0 0 1-1-1v-4.39a.997.997 0 0 1 1-1H55a1.003 1.003 0 0 1 1 1zM55 29.7c-6.536-.125-5.262 1.14-5.39-5.39a.99.99 0 0 1 1-1H55a.997.997 0 0 1 1 1v4.39a1.003 1.003 0 0 1-1 1zM7 13v3.46H5a1.003 1.003 0 0 0-1 1v39.45a.997.997 0 0 0 1 1h11.39V16.46c-.008-1.086.005-3.379 0-4.46H8a1.003 1.003 0 0 0-1 1zm6.25 27.69c-6.548-.122-5.259 1.132-5.39-5.4a.997.997 0 0 1 1-1h4.39a1.003 1.003 0 0 1 1 1v4.4a1.003 1.003 0 0 1-1 1zm1 5.59c-.126 6.537 1.14 5.263-5.39 5.39a.99.99 0 0 1-1-1v-4.39a.997.997 0 0 1 1-1h4.39a1.003 1.003 0 0 1 1 1zm-1-16.58c-6.536-.125-5.262 1.14-5.39-5.39a.99.99 0 0 1 1-1h4.39a.997.997 0 0 1 1 1v4.39a1.003 1.003 0 0 1-1 1zm17.73 28.21H26.7V46.18h4.23c.007 1.412.04 10.55.05 11.73zm1.95-11.73h4.18v11.73h-4.13l-.01-2zm18.68-20.87H54v2.39h-2.39zm0 10.98H54v2.4h-2.39zm0 10.99H54v2.39h-2.39zM37.08 35.07h2.15v2.16h-2.15zm0-9.34h2.15v2.16h-2.15zm0-9.35h2.15v2.16h-2.15zm-12.46 0h2.16v2.16h-2.16zm0 9.35h2.16v2.16h-2.16zm0 9.34h2.16v2.16h-2.16zM9.86 47.28h2.39v2.39H9.86zm0-10.99h2.39v2.4H9.86zm0-10.98h2.39v2.39H9.86z" opacity="1" data-original="url(#a)"></path></g></svg>