<svg xmlns="http://www.w3.org/2000/svg" version="1.1" xmlns:xlink="http://www.w3.org/1999/xlink" width="512" height="512" x="0" y="0" viewBox="0 0 64 64" style="enable-background:new 0 0 512 512" xml:space="preserve"><rect width="64" height="64" rx="12.8" ry="12.8" fill="#bac8d3" shape="rounded"></rect><g transform="matrix(0.6499999999999998,0,0,0.6499999999999998,11.199705600738529,11.199947845935828)"><linearGradient id="a" x1="4.003" x2="59.998" y1="32" y2="32" gradientUnits="userSpaceOnUse"><stop offset="0" stop-color="#ff81ff"></stop><stop offset="1" stop-color="#a93aff"></stop></linearGradient><path fill="url(#a)" d="M48.877 53.227c-.627-.003-1.38-.059-1.94.29l-7.722 4.501a14.49 14.49 0 0 1-13.532.58L6.239 49.387c-4.325-2.098-1.815-8.607 2.78-7.322l8.792 2.55c-1.465 4.06 1.813 8.618 6.131 8.522h7.342a1 1 0 0 0 0-2h-7.342c-5.91-.193-5.905-8.732 0-8.932h7.232c.6 0 1.18-.17 1.69-.49 2.448-1.535 5.513-3.92 8.572-3.72h7.431c-.06.27-.1.55-.12.83.01.409-.076 14.437.13 14.402zm11.12-15.145v15.046c0 1.1-.9 2-2 2h-4.252c-1.27 0-2.35-.79-2.79-1.9-.14-.34-.21-.71-.21-1.1V38.942c.02-.33.09-.65.21-.95a2.987 2.987 0 0 1 2.79-1.912h4.252c1.1 0 2 .9 2 2.001zm-4.631 2.221c-1.31.03-1.31 1.98 0 2 1.31-.02 1.32-1.97 0-2zM6.512 24.517h2.92c.381.03.733-.297 1.001-.53L25.39 11.523l14.955 12.464c.259.23.617.561 1 .53h2.911c2.295.06 3.441-3.019 1.61-4.451L27.48 4.74c-.6-.49-1.34-.74-2.09-.74s-1.5.25-2.101.74L4.9 20.066c-1.803 1.436-.702 4.51 1.61 4.451zm35.833 2.001v9.473c-.673-.004-1.634-.008-2.231.08-1.67.2-3.311.78-4.732 1.681l-3.571 2.27c-.2.12-.41.18-.63.18h-7.233c-2.06 0-3.971 1.001-5.172 2.612l-9.143-2.661c-.384-.125-.796-.175-1.2-.23V26.518c.99.04 2.152.014 2.92-.69L25.39 14.124l14.035 11.694c.774.715 1.919.743 2.92.7zm-18.287-2.46c-.11-4.448-5.852-4.448-5.962 0 .11 4.446 5.852 4.447 5.962 0zm6.582-1.871c.632-1.154-1.063-2.136-1.73-1l-8.773 15.185c-.648 1.155 1.046 2.125 1.73 1l8.773-15.185zm-.95 8.943c-3.936.134-3.937 6.607 0 6.742 3.936-.134 3.937-6.607 0-6.742zm0 2c-1.281.04-1.281 2.702 0 2.741 1.282-.04 1.281-2.7 0-2.74zm-7.633-9.073c-.04-1.799-1.92-1.798-1.96 0 .04 1.799 1.92 1.799 1.96 0z" opacity="1" data-original="url(#a)"></path></g></svg>