<svg xmlns="http://www.w3.org/2000/svg" version="1.1" xmlns:xlink="http://www.w3.org/1999/xlink" width="512" height="512" x="0" y="0" viewBox="0 0 64 64" style="enable-background:new 0 0 512 512" xml:space="preserve" class=""><rect width="64" height="64" rx="12.8" ry="12.8" fill="#bac8d3" shape="rounded"></rect><g transform="matrix(0.63,0,0,0.63,11.839998235702517,11.845557713508605)"><linearGradient id="a" x1="5.78" x2="58.22" y1="32.015" y2="32.015" gradientUnits="userSpaceOnUse"><stop offset="0" stop-color="#ffa68d"></stop><stop offset="1" stop-color="#fd3a84"></stop></linearGradient><path fill="url(#a)" d="M55.62 9.58a53.037 53.037 0 0 0-47.24 0 4.676 4.676 0 0 0-2.6 4.2v6.68a4.643 4.643 0 0 0 4.64 4.64h5.91a4.645 4.645 0 0 0 4.58-3.83l.87-4.94a1.711 1.711 0 0 1 1.16-1.34 28.794 28.794 0 0 1 18.12 0 1.711 1.711 0 0 1 1.16 1.34l.87 4.94a4.645 4.645 0 0 0 4.58 3.83h5.91a4.643 4.643 0 0 0 4.64-4.64v-6.68a4.676 4.676 0 0 0-2.6-4.2zM18.94 20.92a2.65 2.65 0 0 1-2.61 2.18h-5.91a2.644 2.644 0 0 1-2.64-2.64v-1.27h11.46zm34.64 2.18h-5.91a2.65 2.65 0 0 1-2.61-2.18l-.3-1.73h11.46v1.27a2.644 2.644 0 0 1-2.64 2.64zm-8.16 5.91a4.072 4.072 0 0 0-3.341-1.67v-1.649a2.01 2.01 0 0 0-2.009-2.008h-3.026a2.011 2.011 0 0 0-2.009 2.008v1.649h-6.07v-1.649a2.011 2.011 0 0 0-2.009-2.008H23.93a2.01 2.01 0 0 0-2.009 2.008v1.649a4.072 4.072 0 0 0-3.341 1.67l-7.5 10.36a4.002 4.002 0 0 0-.76 2.36v14.24A4.037 4.037 0 0 0 14.35 60h35.3a4.037 4.037 0 0 0 4.03-4.03V41.73a4.002 4.002 0 0 0-.76-2.36zm-2.33 6.51a3.02 3.02 0 0 1-6.04 0 3.02 3.02 0 0 1 6.04 0zm-3.02 11.17a3.02 3.02 0 0 1 0-6.04 3.02 3.02 0 0 1 0 6.04zm3.02 5.14a3.02 3.02 0 0 1-6.04 0 3.02 3.02 0 0 1 6.04 0zM32 46.69a3.02 3.02 0 0 1 0-6.04 3.02 3.02 0 0 1 0 6.04zm3.02 5.14a3.02 3.02 0 0 1-6.04 0 3.02 3.02 0 0 1 6.04 0zM32 38.53a3.015 3.015 0 0 1 0-6.03 3.015 3.015 0 0 1 0 6.03zm-8.07-6.03a3.015 3.015 0 0 1 0 6.03 3.015 3.015 0 0 1 0-6.03zm3.02 11.17a3.02 3.02 0 0 1-6.04 0 3.02 3.02 0 0 1 6.04 0zm-3.02 5.14a3.015 3.015 0 0 1 0 6.03 3.015 3.015 0 0 1 0-6.03zm13.114-23.127 3.035.008v1.649H37.04c-.004.003.005-1.657.004-1.657zm-13.114 0 3.035.008v1.649h-3.04zm0 8.817a1.015 1.015 0 0 1 0 2.03 1.015 1.015 0 0 1 0-2.03zM32 36.53a1.015 1.015 0 0 1 0-2.03 1.015 1.015 0 0 1 0 2.03zm9.09-1.01a1.02 1.02 0 0 1-2.04 0 1.02 1.02 0 0 1 2.04 0zm-17.16 9.17a1.02 1.02 0 0 1 0-2.04 1.02 1.02 0 0 1 0 2.04zm8.07 0a1.02 1.02 0 0 1 0-2.04 1.02 1.02 0 0 1 0 2.04zm8.07 0a1.02 1.02 0 0 1 0-2.04 1.02 1.02 0 0 1 0 2.04zm-16.14 6.12a1.015 1.015 0 0 1 0 2.03 1.015 1.015 0 0 1 0-2.03zM32 52.84a1.015 1.015 0 0 1 0-2.03 1.015 1.015 0 0 1 0 2.03zm8.07 0a1.015 1.015 0 0 1 0-2.03 1.015 1.015 0 0 1 0 2.03z" opacity="1" data-original="url(#a)"></path></g></svg>