<svg xmlns="http://www.w3.org/2000/svg" version="1.1" xmlns:xlink="http://www.w3.org/1999/xlink" width="512" height="512" x="0" y="0" viewBox="0 0 512 512" style="enable-background:new 0 0 512 512" xml:space="preserve"><rect width="512" height="512" rx="102.4" ry="102.4" fill="#bac8d3" shape="rounded"></rect><g transform="matrix(0.7499999999999999,0,0,0.7499999999999999,64.00000000000003,64.00000190734872)"><linearGradient id="a" x1="97.034" x2="414.966" y1="414.967" y2="97.034" gradientUnits="userSpaceOnUse"><stop offset="0" stop-color="#fc4422"></stop><stop offset="1" stop-color="#ffbb32"></stop></linearGradient><path fill="url(#a)" d="M128.49 426.996c0 25.902 21.06 46.962 46.962 46.962h161.096c25.902 0 46.962-21.06 46.962-46.962V399.76H128.49zm105.969 1.593h43.083c3.885 0 7.04 3.155 7.04 7.04s-3.155 7.04-7.04 7.04h-43.083c-3.885 0-7.04-3.155-7.04-7.04s3.155-7.04 7.04-7.04zM336.548 38.042H175.452c-25.897 0-46.962 21.06-46.962 46.957V385.68h255.02V84.999c0-25.898-21.065-46.957-46.962-46.957zM234.459 60.108h43.083c3.885 0 7.04 3.155 7.04 7.04s-3.155 7.04-7.04 7.04h-43.083c-3.885 0-7.04-3.155-7.04-7.04s3.155-7.04 7.04-7.04zm89.501 251.411H188.04a7.034 7.034 0 0 1-7.04-7.035c0-30.594 18.668-58.067 46.921-69.524l1.47-.596-1.209-1.026c-9.681-8.207-15.271-20.147-15.271-32.86 0-23.763 19.331-43.088 43.093-43.088 23.76 0 43.088 19.328 43.088 43.088 0 12.714-5.59 24.654-15.271 32.86l-1.21 1.026 1.47.596C312.335 246.416 331 273.888 331 304.484a7.034 7.034 0 0 1-7.04 7.035zm-7.578-15.162.146 1.087H195.472l.146-1.087c4.037-30.152 29.935-52.791 60.385-52.791 30.447-.001 56.343 22.641 60.379 52.791zm-89.392-95.88c0-16.002 13.011-29.008 29.013-29.008 15.992 0 29.008 13.015 29.008 29.008 0 15.99-13.019 29.008-29.008 29.008-16 .001-29.013-13.008-29.013-29.008z" opacity="1" data-original="url(#a)"></path></g></svg>