<svg xmlns="http://www.w3.org/2000/svg" version="1.1" xmlns:xlink="http://www.w3.org/1999/xlink" width="512" height="512" x="0" y="0" viewBox="0 0 512 512" style="enable-background:new 0 0 512 512" xml:space="preserve" class=""><rect width="512" height="512" rx="102.4" ry="102.4" fill="#bac8d3" shape="rounded"></rect><g transform="matrix(0.5800000000000002,0,0,0.5800000000000002,107.51999999999995,107.5178979492187)"><linearGradient id="a" x1="60.08" x2="451.92" y1="60.08" y2="451.92" gradientUnits="userSpaceOnUse"><stop offset="0" stop-color="#53ab46"></stop><stop offset="1" stop-color="#107300"></stop></linearGradient><path fill="url(#a)" d="M148.46 420.45a14.2 14.2 0 0 0 10.1 4.19c4.52 0 8.85-2.17 11.58-5.82.58-.78 1.25-1.52 1.97-2.2 3.04-2.84 7.05-4.4 11.3-4.4s8.02 1.48 11.01 4.17c.83.75 1.58 1.57 2.24 2.44 2.71 3.62 7.03 5.78 11.55 5.78 3.85 0 7.46-1.5 10.19-4.22l9.85-9.85h10.89l-55.75 55.75-55.75-55.75h10.89l9.92 9.92zm173.07-381.8c1.95-1.95 4.51-2.93 7.07-2.93s5.12.98 7.07 2.93l62.82 62.82h37.55L338.8 4.23C336.08 1.5 332.45 0 328.6 0s-7.48 1.5-10.2 4.23l-97.24 97.24h37.55zM211.34 413.31l2.78-2.78h-11.39c.69.74 1.35 1.5 1.94 2.29a4.426 4.426 0 0 0 6.67.49zm-20.87 60.04c-1.88 1.88-4.42 2.93-7.07 2.93s-5.2-1.05-7.07-2.93l-62.82-62.82H75.96l97.24 97.24c2.72 2.72 6.35 4.22 10.2 4.22s7.48-1.5 10.2-4.22l97.24-97.24h-37.55zM349.86 99.17c-.6.8-1.26 1.56-1.96 2.3h11.42l-2.85-2.85c-2-2-4.91-1.7-6.6.55zm23.6 2.3h10.89L328.6 45.72l-55.75 55.75h10.89l9.85-9.85c2.72-2.72 6.34-4.22 10.19-4.22 4.52 0 8.84 2.16 11.55 5.78.66.88 1.41 1.7 2.24 2.44 2.99 2.69 6.9 4.17 11.02 4.17 4.25 0 8.26-1.56 11.3-4.4.73-.68 1.39-1.42 1.97-2.2 2.81-3.75 7.02-5.89 11.55-5.89 3.78 0 7.38 1.51 10.13 4.26l9.92 9.92zm-72.8-2.78-2.78 2.78h11.4c-.7-.74-1.35-1.5-1.94-2.3a4.426 4.426 0 0 0-6.67-.49zM162.14 412.83c.6-.8 1.26-1.55 1.96-2.29h-11.41l2.85 2.85c1.9 1.9 4.99 1.59 6.6-.55zM38.83 150.3h434.34v211.41H38.83zm9.22 149.4c0 4.02 1.59 7.77 4.48 10.55 2.77 2.67 6.43 4.14 10.3 4.14.71 0 1.43-.05 2.14-.15.88-.13 1.79-.19 2.7-.19.22 0 .44 0 .66.01 9.66.32 17.62 8.12 18.14 17.76.07 1.27.01 2.53-.16 3.76-.61 4.26.66 8.56 3.47 11.81 2.81 3.24 6.88 5.1 11.17 5.1h310.11c4.29 0 8.36-1.86 11.17-5.1 2.82-3.25 4.08-7.55 3.47-11.81-.18-1.23-.23-2.5-.16-3.76.52-9.64 8.48-17.44 18.14-17.76.22 0 .44-.01.66-.01.91 0 1.82.06 2.7.19.71.1 1.42.15 2.14.15 8.15 0 14.78-6.59 14.78-14.69v-87.39c0-8.24-6.45-14.7-14.68-14.7-.74 0-1.49.05-2.23.16-.88.13-1.79.19-2.7.19-.22 0-.44 0-.66-.01-9.66-.32-17.62-8.12-18.14-17.75a19.7 19.7 0 0 1 .16-3.77c.61-4.26-.66-8.56-3.47-11.81-2.81-3.24-6.88-5.1-11.17-5.1H100.94c-4.29 0-8.36 1.86-11.17 5.1a14.795 14.795 0 0 0-3.47 11.81c.18 1.23.23 2.5.16 3.77-.52 9.64-8.49 17.44-18.14 17.76-.22 0-.44.01-.66.01-.91 0-1.81-.06-2.7-.19-.71-.1-1.42-.15-2.13-.15-8.15 0-14.78 6.59-14.78 14.69v87.39zM512 126.27v259.46c0 8.16-6.64 14.8-14.8 14.8H14.8c-8.16 0-14.8-6.64-14.8-14.8V126.27c0-8.16 6.64-14.8 14.8-14.8h482.4c8.16 0 14.8 6.64 14.8 14.8zm-28.83 24.02c0-5.52-4.48-10-10-10H38.83c-5.52 0-10 4.48-10 10V361.7c0 5.52 4.48 10 10 10h434.34c5.52 0 10-4.48 10-10V150.3zM58.05 299.7v-87.39c0-2.91 2.61-5.06 5.49-4.64 1.66.24 3.37.33 5.11.28 14.8-.49 27-12.43 27.79-27.22.1-1.95.02-3.86-.25-5.71-.41-2.9 1.82-5.49 4.75-5.49h310.12c2.93 0 5.16 2.59 4.75 5.49-.26 1.85-.35 3.76-.25 5.71.79 14.79 12.99 26.72 27.79 27.22 1.74.06 3.45-.04 5.11-.27 3.03-.44 5.49 1.58 5.49 4.64v87.39c0 2.91-2.61 5.06-5.49 4.64-1.66-.24-3.37-.33-5.11-.28-14.8.49-27 12.43-27.79 27.22-.1 1.95-.02 3.86.25 5.71.41 2.9-1.82 5.49-4.75 5.49H100.94c-2.93 0-5.16-2.59-4.75-5.49.26-1.85.35-3.76.25-5.71-.79-14.79-12.99-26.72-27.79-27.22-1.74-.06-3.45.04-5.11.28-2.88.41-5.49-1.73-5.49-4.64zM366.99 256c0 13.27 10.76 24.02 24.02 24.02s24.02-10.76 24.02-24.02-10.76-24.02-24.02-24.02-24.02 10.76-24.02 24.02zm-183.06 0c0 39.74 32.33 72.07 72.07 72.07s72.07-32.33 72.07-72.07-32.33-72.07-72.07-72.07-72.07 32.33-72.07 72.07zm-86.96 0c0 13.27 10.76 24.02 24.02 24.02s24.02-10.76 24.02-24.02-10.76-24.02-24.02-24.02S96.97 242.74 96.97 256zm294.05 14.02c7.73 0 14.02-6.29 14.02-14.02s-6.29-14.02-14.02-14.02S377 248.27 377 256s6.29 14.02 14.02 14.02zM193.94 256c0-34.28 27.79-62.07 62.07-62.07s62.07 27.79 62.07 62.07-27.79 62.07-62.07 62.07-62.07-27.79-62.07-62.07zm24.91-18.57-2.3 8.83a9.982 9.982 0 0 0 1.56 8.36c-.13.66-.2 1.33-.19 2.01l.06 11.23c.01 2.33.84 4.58 2.33 6.37l26.71 31.88c1.9 2.27 4.71 3.58 7.67 3.58h21.88c5.52 0 10-4.48 10-10v-.87c0-2.3-.79-4.53-2.25-6.32l-15.59-19.12c1.97-1.36 3.73-2.86 5.29-4.5 2.75-2.9 4.92-6.28 6.48-10.09h1.02c4.55 0 8.53-3.07 9.68-7.48l3.2-12.28c.78-3 .13-6.19-1.76-8.64-.36-.47-.77-.9-1.2-1.3l3.02-11.59c.78-3 .13-6.19-1.76-8.64s-4.82-3.89-7.91-3.89h-54.75c-4.64 0-8.67 3.19-9.73 7.7l-3.72 15.77c-.7 2.97 0 6.11 1.89 8.5.13.17.27.33.41.48zM121 270.02c7.73 0 14.02-6.29 14.02-14.02s-6.29-14.02-14.02-14.02-14.02 6.29-14.02 14.02 6.29 14.02 14.02 14.02zm163.75-55.05H230l-3.72 15.77h15.65c4.96.16 8.3 2.08 10.01 5.76h-22.52l-3.2 12.28h26.18c-1.63 5.08-5.22 7.68-10.76 7.8h-13.73l.06 11.23 26.71 31.88h21.88v-.87l-23.62-28.98c5.97-1.82 10.58-4.44 13.82-7.85s5.3-7.82 6.2-13.21h8.55l3.2-12.28h-11.64c-.5-3.43-1.61-6.51-3.32-9.25h11.81l3.2-12.28z" opacity="1" data-original="url(#a)" class=""></path></g></svg>