<svg xmlns="http://www.w3.org/2000/svg" version="1.1" xmlns:xlink="http://www.w3.org/1999/xlink" width="512" height="512" x="0" y="0" viewBox="0 0 3873 3873" style="enable-background:new 0 0 512 512" xml:space="preserve" class=""><rect width="3873" height="3873" rx="774.6" ry="774.6" fill="#bac8d3" shape="rounded"></rect><g transform="matrix(0.69,0,0,0.69,600.9504867553712,587.1128259277345)"><linearGradient id="a" x1="518.7" x2="3358.05" y1="750.5" y2="3589.85" gradientUnits="userSpaceOnUse"><stop offset="0" stop-color="#fc00ff"></stop><stop offset="1" stop-color="#00dbde"></stop></linearGradient><path fill="url(#a)" fill-rule="evenodd" d="M1369.8 1135.3v322.3h1136.8v-322.3l-568.4-574.5zm779.5-47.2c0 109-88.4 197.4-197.4 197.4-54.5 0-103.9-22.1-139.6-57.8-77.1-77.1-77.2-202 0-279.2 35.7-35.7 85.1-57.8 139.6-57.8 109 0 197.4 88.4 197.4 197.4zm-197.5 106.7c59 0 106.8-47.8 106.8-106.8 0-29.5-11.9-56.2-31.3-75.5-41.7-41.7-109.3-41.7-151 0s-41.7 109.3 0 151c19.3 19.3 46 31.3 75.5 31.3zm725.4-160.7c-.1-15.4-5.9-30.8-17.5-42.5-33.8-34.2-626.9-633.6-673.4-680.6h-.2c-1.2-.9-16.5-24-48.4-23.8-29.1.2-43.9 20.1-44.5 20.5-48.5 49-645.3 652.2-676.6 683.8l.1.1-.2.2c-23.6 23-22.9 61.3.2 84.3l.1-.1c23.5 23.5 61.2 23.3 84.4-.1L1906 464.8l-.1-.1c18.3-18.5 47.6-18.3 66.8 2.5l602.3 608.7c37.6 37.9 102 10.7 102.2-41.8zm19.7-133.5c9.1 13.2 82.7 60.3 69 154.8 10.3.1 718.1.1 742.6.1V900.6zm-1517.5 0H368.6v154.8h741.9c-9.7-66.7 20.3-110 68.9-154.8zm-19.9 245.5H525.8v2451.2H1279c.1-14 .1-2396.2.1-2414.8-42.9 5.8-86.6-7-119.6-36.4zm-471.1 200.2c0-25 20.3-45.3 45.3-45.3h337.6c25 0 45.3 20.3 45.3 45.3v337.6c0 25-20.3 45.3-45.3 45.3H733.7c-25 0-45.3-20.3-45.3-45.3zm0 571.1c0-25 20.3-45.3 45.3-45.3h337.6c25 0 45.3 20.3 45.3 45.3V2255c0 25-20.3 45.3-45.3 45.3H733.7c-25 0-45.3-20.3-45.3-45.3zm428.2 1479.8c0 25-20.3 45.3-45.3 45.3H733.7c-25 0-45.3-20.3-45.3-45.3v-337.6c-.1-25 20.2-45.3 45.3-45.3h337.6c25 0 45.3 20.3 45.3 45.3zm0-571.1c0 25-20.3 45.3-45.3 45.3H733.7c-25 0-45.3-20.3-45.3-45.3v-337.6c-.1-25 20.2-45.3 45.3-45.3h337.6c25 0 45.3 20.3 45.3 45.3zm-90.7-1434.5H779v246.9h246.9zm0 571.2H779v246.9h246.9zm-246.9 818h246.9v-246.9H779zm0 571.1h246.9V3105H779zm1021.8-964.3h-246.9v246.9h246.9zm0-552.4h-246.9v246.9h246.9zm521.7 0h-246.9v246.9h246.9zm0 552.4h-246.9v246.9h246.9zm-952.7 1209.8h267.3v-630.7c0-25 20.3-45.3 45.3-45.3h511.4c25 0 45.3 20.3 45.3 45.3v630.7h267.5V1548.3H1369.8zm615.1-1807.5c0-25 20.3-45.3 45.3-45.3h337.6c25 0 45.3 20.3 45.3 45.3v337.6c0 25-20.3 45.3-45.3 45.3h-337.6c-25 0-45.3-20.3-45.3-45.3zm0 552.4c0-25 20.3-45.3 45.3-45.3h337.6c25 0 45.3 20.3 45.3 45.3v337.6c0 25-20.3 45.3-45.3 45.3h-337.6c-25 0-45.3-20.3-45.3-45.3zm-521.7-552.4c0-25 20.3-45.3 45.3-45.3h337.6c25 0 45.3 20.3 45.3 45.3v337.6c0 25-20.3 45.3-45.3 45.3h-337.6c-25 0-45.3-20.3-45.3-45.3zm0 552.4c0-25 20.3-45.3 45.3-45.3h337.6c25-.1 45.3 20.2 45.3 45.3v337.6c0 25-20.3 45.3-45.3 45.3h-337.6c-25 0-45.3-20.3-45.3-45.3zm520.3 1255.1h165v-585.3h-165zm-255.7 0h165v-585.3h-165zm1369.5-2205.8h-246.9v246.9h246.9zm-500-209.1v2414.9h753.2V1146.1h-633.6c-33.7 29.9-77.7 42-119.6 36.4zM3188 3397.2c0 25-20.3 45.3-45.3 45.3h-337.6c-25 0-45.3-20.3-45.3-45.3v-337.6c-.1-25 20.2-45.3 45.3-45.3h337.6c25 0 45.3 20.3 45.3 45.3zm0-571.1c0 25-20.3 45.3-45.3 45.3h-337.6c-25 0-45.3-20.3-45.3-45.3v-337.6c-.1-25 20.2-45.3 45.3-45.3h337.6c25 0 45.3 20.3 45.3 45.3zm-428.2-1479.8c0-25 20.3-45.3 45.3-45.3h337.6c25 0 45.3 20.3 45.3 45.3v337.6c0 25-20.3 45.3-45.3 45.3h-337.6c-25 0-45.3-20.3-45.3-45.3zm-.1 571.1c0-25 20.3-45.3 45.3-45.3h337.6c25 0 45.3 20.3 45.3 45.3V2255c0 25-20.3 45.3-45.3 45.3H2805c-25 0-45.3-20.3-45.3-45.3zm337.6 45.4h-246.9v246.9h246.9zm-246.9 818h246.9v-246.9h-246.9zm0 571.1h246.9V3105h-246.9z" clip-rule="evenodd" opacity="1" data-original="url(#a)"></path></g></svg>