<svg xmlns="http://www.w3.org/2000/svg" version="1.1" xmlns:xlink="http://www.w3.org/1999/xlink" width="512" height="512" x="0" y="0" viewBox="0 0 64 64" style="enable-background:new 0 0 512 512" xml:space="preserve"><rect width="64" height="64" rx="12.8" ry="12.8" fill="#bac8d3" shape="rounded"></rect><g transform="matrix(0.69,0,0,0.69,9.920000000000002,9.920000591278079)"><linearGradient id="a" x1="4" x2="60" y1="32" y2="32" gradientUnits="userSpaceOnUse"><stop offset="0" stop-color="#ffa68d"></stop><stop offset="1" stop-color="#fd3a84"></stop></linearGradient><path fill="url(#a)" d="M55 14.42H9a5.002 5.002 0 0 0-5 5v25.16a5.002 5.002 0 0 0 5 5h46a5.002 5.002 0 0 0 5-5V19.42a5.002 5.002 0 0 0-5-5zM8.64 39.76a9.01 9.01 0 0 1 5.41-8.25c-4.28-3.254-1.857-10.424 3.59-10.36 5.447-.059 7.871 7.1 3.59 10.36a9.24 9.24 0 0 1 5.41 9.34 2.006 2.006 0 0 1-2 2h-14a2.006 2.006 0 0 1-2-2zM32 35h22.29a1 1 0 0 1 0 2H32a1 1 0 0 1 0-2zm-1.45-7.64a1.003 1.003 0 0 1 1-1h8a1 1 0 0 1 0 2h-8a.997.997 0 0 1-1-1zm9-4.11h-8a1 1 0 0 1 0-2h8a1 1 0 0 1 0 2zM32 42.85a1 1 0 0 1 0-2h22.29a1 1 0 0 1 0 2zm23.29-15.21a2 2 0 0 1-2 2H45a2.006 2.006 0 0 1-2-2v-5.66a2.006 2.006 0 0 1 2-2h8.29a2 2 0 0 1 2 2zM45 21.98h8.29v5.66H45zm-27.36 1.17c5.005.129 5.016 7.478 0 7.61-5.015-.131-5.006-7.48 0-7.61zm7 17.7h-14c-.762-9.994 13.433-11.053 14-1.09z" opacity="1" data-original="url(#a)"></path></g></svg>