<svg xmlns="http://www.w3.org/2000/svg" version="1.1" xmlns:xlink="http://www.w3.org/1999/xlink" width="512" height="512" x="0" y="0" viewBox="0 0 512 512" style="enable-background:new 0 0 512 512" xml:space="preserve"><rect width="512" height="512" rx="102.4" ry="102.4" fill="#bac8d3" shape="rounded"></rect><g transform="matrix(0.6499999999999998,0,0,0.6499999999999998,79.60423440933229,79.60423240661626)"><linearGradient id="a" x1="256" x2="256" y1="67.896" y2="444.104" gradientUnits="userSpaceOnUse"><stop offset=".104" stop-color="#f26922"></stop><stop offset=".886" stop-color="#febc20"></stop></linearGradient><path fill="url(#a)" d="M123.3 181.2c-10.3 0-19.6 4.2-26.4 10.9-6.7 6.8-10.9 16.1-10.9 26.4v201.6L8.9 243.6c-2.5-5.8-2.4-12.1-.3-17.6s6.4-10.1 12.1-12.7L349.5 69.8c5.8-2.5 12.1-2.4 17.6-.3s10.1 6.4 12.7 12.1l43.5 99.6zm374.9 21.2c-4.1-4.2-9.9-6.8-16.2-6.8H123.3c-6.3 0-12 2.6-16.2 6.8-4.2 4.1-6.7 9.9-6.7 16.2v46.9H505v-46.9c0-6.4-2.6-12.1-6.8-16.2zM467.4 395h-72v23.7h72zm-367-97.7H505v-17.5H100.4zm0 14.4H505v109.5c0 6.3-2.6 12-6.8 16.2-4.1 4.2-9.9 6.7-16.2 6.7H123.3c-6.3 0-12-2.6-16.2-6.7-4.2-4.2-6.7-9.9-6.7-16.2zm280.6 107c0 3.9 1.6 7.6 4.2 10.1 2.6 2.6 6.2 4.2 10.1 4.2h72c4 0 7.6-1.6 10.2-4.2 2.6-2.6 4.3-6.2 4.3-10.2V395c0-4-1.6-7.6-4.2-10.2s-6.2-4.2-10.2-4.2h-72c-3.9 0-7.5 1.6-10.1 4.2-2.6 2.6-4.2 6.2-4.2 10.2v23.7z" opacity="1" data-original="url(#a)"></path></g></svg>