<svg xmlns="http://www.w3.org/2000/svg" version="1.1" xmlns:xlink="http://www.w3.org/1999/xlink" width="512" height="512" x="0" y="0" viewBox="0 0 64 64" style="enable-background:new 0 0 512 512" xml:space="preserve"><rect width="64" height="64" rx="12.8" ry="12.8" fill="#bac8d3" shape="rounded"></rect><g transform="matrix(0.68,0,0,0.68,10.239949645996095,10.240001220703125)"><linearGradient id="a" x1="8.666" x2="55.334" y1="32" y2="32" gradientUnits="userSpaceOnUse"><stop offset="0" stop-color="#80cbc4"></stop><stop offset="1" stop-color="#1e88e5"></stop></linearGradient><path fill="url(#a)" d="M51.963 60.732A.997.997 0 0 1 51 62h-5a1 1 0 0 1-.963-.732L40.796 46H46c.624 0 1.228-.079 1.811-.215zM11.275 56l2.223-8h-2.165a1 1 0 0 0-.963.732l-1.667 6A.999.999 0 0 0 9.667 56zM52 14v24c0 3.309-2.691 6-6 6h-6v-7c0-1.654-1.346-3-3-3H27c-1.654 0-3 1.346-3 3v7h-6c-3.309 0-6-2.691-6-6V14c0-3.309 2.691-6 6-6h28c3.309 0 6 2.691 6 6zM22 37c0-1.654-1.346-3-3-3s-3 1.346-3 3 1.346 3 3 3 3-1.346 3-3zm9-23c0-1.103-.897-2-2-2H18c-1.103 0-2 .897-2 2v12c0 1.103.897 2 2 2h11c1.103 0 2-.897 2-2zm17 23c0-1.654-1.346-3-3-3s-3 1.346-3 3 1.346 3 3 3 3-1.346 3-3zm0-23c0-1.103-.897-2-2-2H35c-1.103 0-2 .897-2 2v12c0 1.103.897 2 2 2h11c1.103 0 2-.897 2-2zm7.297 40.732-1.667-6a1 1 0 0 0-.963-.732h-2.165l2.223 8h1.608a1 1 0 0 0 .964-1.268zM39.275 48h-14.55l-2.223 8h18.996zM20 19v-3h1a1 1 0 0 0 0-2h-2a1 1 0 0 0-1 1v4a1 1 0 0 0 2 0zm0 4a1 1 0 1 0-2 0 1 1 0 0 0 2 0zm17-4v-3h1a1 1 0 0 0 0-2h-2a1 1 0 0 0-1 1v4a1 1 0 0 0 2 0zm0 4a1 1 0 1 0-2 0 1 1 0 0 0 2 0zm0 13H27c-.551 0-1 .449-1 1v7h12v-7c0-.551-.449-1-1-1zm4-30V5c0-1.654-1.346-3-3-3H26c-1.654 0-3 1.346-3 3v1zM18 46a7.974 7.974 0 0 1-1.811-.215l-4.152 14.947A.997.997 0 0 0 13 62h5a1 1 0 0 0 .963-.732L23.204 46z" opacity="1" data-original="url(#a)"></path></g></svg>