<svg xmlns="http://www.w3.org/2000/svg" version="1.1" xmlns:xlink="http://www.w3.org/1999/xlink" width="512" height="512" x="0" y="0" viewBox="0 0 64 64" style="enable-background:new 0 0 512 512" xml:space="preserve"><rect width="64" height="64" rx="12.8" ry="12.8" fill="#bac8d3" shape="rounded"></rect><g transform="matrix(0.5499999999999999,0,0,0.5499999999999999,14.40000214576721,14.399527502059932)"><linearGradient id="a" x1="3.999" x2="60" y1="31.999" y2="31.999" gradientUnits="userSpaceOnUse"><stop offset="0" stop-color="#ff81ff"></stop><stop offset="1" stop-color="#a93aff"></stop></linearGradient><path fill="url(#a)" d="M60 23.76v5.96a1.033 1.033 0 0 1-.29.71l-27 27a1.009 1.009 0 0 1-1.42 0l-27-27a1.033 1.033 0 0 1-.29-.71v-5.96a1.008 1.008 0 0 1 1.71-.71L32 49.34l26.29-26.29a1.025 1.025 0 0 1 1.09-.22 1 1 0 0 1 .62.93zm-.62-17.41a1.006 1.006 0 0 0-1.09.22L32 32.86 5.71 6.57A1.007 1.007 0 0 0 4 7.28v5.96a1.033 1.033 0 0 0 .29.71l27 27a1.017 1.017 0 0 0 1.42 0l27-27a1.033 1.033 0 0 0 .29-.71V7.28a1 1 0 0 0-.62-.93z" opacity="1" data-original="url(#a)"></path></g></svg>