<svg xmlns="http://www.w3.org/2000/svg" version="1.1" xmlns:xlink="http://www.w3.org/1999/xlink" width="512" height="512" x="0" y="0" viewBox="0 0 64 64" style="enable-background:new 0 0 512 512" xml:space="preserve" class=""><rect width="64" height="64" rx="12.8" ry="12.8" fill="#bac8d3" shape="rounded"></rect><g transform="matrix(0.57,0,0,0.57,13.760000000000002,13.760000000000002)"><linearGradient id="a" x1="4" x2="60" y1="32" y2="32" gradientUnits="userSpaceOnUse"><stop offset="0" stop-color="#7f00ff"></stop><stop offset="1" stop-color="#e100ff"></stop></linearGradient><path fill="url(#a)" d="M56 32c.265-12.894-11.105-24.266-24-24C12.035 7.955.716 31.53 13.29 47.03 27.48 64.561 55.897 54.585 56 32zM24.37 49.1c-1.028.02-1.392-1.472-.43-1.9 1.78-.85 3.39-2 4.79-3.43 3.016-3.034 4.776-7.216 4.8-11.51.21-2.187-2.972-2.441-3.07-.25.09 6.366-4.746 12.248-10.97 13.45-.53.1-1.06-.24-1.17-.79a.992.992 0 0 1 .78-1.17c5.311-1.018 9.427-6.074 9.36-11.49.084-4.428 6.52-4.782 7.06-.37.276 7.3-4.324 14.781-11.15 17.46zm7.38 1.47c-1.03.805-2.267-.72-1.25-1.56 1.93-1.55 3.57-3.41 4.87-5.53 2.13-3.44 3.26-7.4 3.26-11.47.116-5.19-6.087-8.489-10.32-5.5a6.61 6.61 0 0 0-2.94 5.5c0 2.89-1.43 5.57-3.83 7.17a8.605 8.605 0 0 1-4.8 1.46c-.85.048-1.96-.116-1.84-1.18a1 1 0 0 1 1.12-.86c3.803.5 7.432-2.75 7.35-6.59a8.59 8.59 0 0 1 3.83-7.16c5.555-3.875 13.534.343 13.43 7.16.033 7.144-3.318 14.108-8.88 18.56zm13.92-17.38c-.2 5.55-2.02 10.93-5.26 15.5-.2.27-.51.42-.82.42-.78.015-1.299-.944-.82-1.58 5.641-7.797 8.41-22.512-2.87-26.56-5.048-1.946-11.414.385-14.04 5.21a11.539 11.539 0 0 0-1.58 5.83c0 1.96-1.59 3.55-3.54 3.55-2.092.021-3.75-1.855-3.53-3.93.348-1.446 2.238-.994 1.99.51.219 1.947 3.046 1.823 3.08-.13-.018-4.281 2.093-8.41 5.49-10.96 9.384-7.143 22.942.453 21.9 12.14zm3.11-2.01c-.307-9.098-8.561-16.526-17.61-15.95-4.176.194-8.226 2.014-11.16 5.02a16.635 16.635 0 0 0-3.22 4.61c-.23.5-.83.71-1.33.48-.5-.24-.71-.83-.48-1.33.9-1.92 2.11-3.66 3.61-5.16 5.385-5.68 14.452-7.253 21.43-3.84 6.873 3.207 11.2 10.416 10.75 18-.037.54-.54.978-1.07.91-1.374-.171-.768-1.797-.92-2.74zM4 15V7c0-1.654 1.346-3 3-3h8a1 1 0 0 1 0 2H7c-.551 0-1 .449-1 1v8a1 1 0 0 1-2 0zm11 45H7c-1.654 0-3-1.346-3-3v-8c.021-1.318 1.98-1.31 2 0v8c0 .552.449 1 1 1h8c1.318.023 1.311 1.978 0 2zM60 7v8a1 1 0 0 1-2 0V7c0-.551-.449-1-1-1h-8c-1.317-.024-1.311-1.977 0-2h8c1.654 0 3 1.346 3 3zm0 42v8c0 1.654-1.346 3-3 3h-8a1 1 0 1 1 0-2h8c.551 0 1-.448 1-1v-8a1 1 0 1 1 2 0z" opacity="1" data-original="url(#a)"></path></g></svg>