<svg xmlns="http://www.w3.org/2000/svg" version="1.1" xmlns:xlink="http://www.w3.org/1999/xlink" width="512" height="512" x="0" y="0" viewBox="0 0 512 512" style="enable-background:new 0 0 512 512" xml:space="preserve" class=""><rect width="512" height="512" rx="102.4" ry="102.4" fill="#bac8d3" shape="rounded"></rect><g transform="matrix(0.69,0,0,0.69,79.34449787139894,74.35073112487797)"><linearGradient id="a" x1="256" x2="256" y1="89.45" y2="422.55" gradientUnits="userSpaceOnUse"><stop offset="0" stop-color="#f704fe"></stop><stop offset="1" stop-color="#24bce3"></stop></linearGradient><path fill="url(#a)" d="M347.5 161.4c0 .1 0 .3-.2.5l-6.7 7.8c-.3.3-.7.3-1 .1-23-18.2-52.7-28.3-83.7-28.3s-60.7 10-83.7 28.3c-.3.1-.8.1-1-.1l-6.7-7.9c-.2-.2-.2-.3-.2-.5s0-.3.2-.4c24.9-20 57.4-31.1 91.4-31.1 34.1 0 66.6 11 91.4 31.2.2.1.2.1.2.4zm-28.3 37.4c0 .1 0 .3-.2.5l-6.7 7.8c-.3.3-.8.3-1 .1-15.5-11.9-34.7-18.2-55.4-18.2-20.6 0-39.8 6.2-55.2 18.4-.3.1-.8.2-1-.1l-6.7-7.8c-.1-.1-.2-.3-.2-.5s.1-.5.3-.7c17.3-13.3 39.6-20.7 62.9-20.7s45.7 7.3 63 20.7c.1.1.2.3.2.5zM284 244.9c0 .1-.1.1-.1.2-.1.1-.4.1-.7-.1-15.9-10.7-38.1-10.7-54 0-.4.2-.9.2-1.1 0l-6.8-7.8c-.2-.3-.2-.5-.2-.7s0-.3.2-.5c9.7-7 21.7-10.7 34.6-10.7 12.5 0 24.8 3.7 34.8 10.8.2.2.3.3.3.5s0 .3-.2.5zM95.3 95.7 139.9 274H120L83.2 98.7c-.1-.6-.2-1.4-.2-2.1 0-3.4 1.9-6.2 4.6-6.9 3.2-.8 6.7 2 7.7 6zm329.3-6c3.3.8 5.3 4.7 4.4 8.8l-36.9 175.6H372l44.8-178.4c.9-3.6 3.8-6.2 6.8-6.2.3-.1.4-.1 1 .2zm3.4 320.5V422c0 .3-.3.5-.5.5h-43.1c-.3 0-.5-.3-.5-.5v-11.8zm-122.9-89.1c3.8 0 6.8 3 6.8 6.8s-3 6.8-6.8 6.8h-98.3c-3.8 0-6.8-3-6.8-6.8s3-6.8 6.8-6.8zm156-22V372H50.8v-73c0-8.4 6.9-15.3 15.3-15.3h48.5c.8.2 1.6.3 2.4.1.1 0 .2-.1.3-.1h28.9l219.5.1H445.8c8.4.1 15.3 7 15.3 15.3zm-41.9 45.5c2.7 0 5-2.2 4.9-4.9v-23.5c0-2.7-2.2-4.9-4.9-4.9s-4.9 2.2-4.9 4.9v23.5c.1 2.8 2.2 4.9 4.9 4.9zm-27.8 0c2.8 0 5-2.2 4.9-4.9v-23.5c0-2.7-2.2-4.9-4.9-4.9s-4.9 2.2-4.9 4.9v23.5c0 2.8 2.1 4.9 4.9 4.9zm-22.9-4.8v-23.5c0-2.7-2.2-4.9-4.9-4.9s-4.9 2.2-4.9 4.9v23.5c0 2.7 2.2 4.9 4.9 4.9 2.8-.1 4.9-2.2 4.9-4.9zM321.8 328c0-9.1-7.4-16.6-16.6-16.6h-98.3c-9.1 0-16.6 7.5-16.6 16.6s7.4 16.6 16.6 16.6h98.3c9.2 0 16.6-7.5 16.6-16.6zm-168.6 11.8v-23.5c0-2.7-2.2-4.9-4.9-4.9s-4.9 2.2-4.9 4.9v23.5c0 2.7 2.2 4.9 4.9 4.9s4.9-2.2 4.9-4.9zm-27.8 0v-23.5c0-2.7-2.2-4.9-4.9-4.9s-4.9 2.2-4.9 4.9v23.5c0 2.7 2.2 4.9 4.9 4.9s4.9-2.2 4.9-4.9zm-27.7 0v-23.5c0-2.7-2.2-4.9-4.9-4.9s-4.9 2.2-4.9 4.9v23.5c0 2.7 2.2 4.9 4.9 4.9s4.9-2.2 4.9-4.9zm363.4 42.1v3.2c0 8.4-6.9 15.3-15.3 15.3H66.2c-8.4 0-15.3-6.9-15.3-15.3v-3.2zm-333 28.3V422c0 .3-.3.5-.5.5H84.5c-.3 0-.5-.3-.5-.5v-11.8z" opacity="1" data-original="url(#a)"></path></g></svg>