<svg xmlns="http://www.w3.org/2000/svg" version="1.1" xmlns:xlink="http://www.w3.org/1999/xlink" width="512" height="512" x="0" y="0" viewBox="0 0 24 24" style="enable-background:new 0 0 512 512" xml:space="preserve"><rect width="24" height="24" rx="4.8" ry="4.8" fill="#bac8d3" shape="rounded"></rect><g transform="matrix(0.69,0,0,0.69,3.7200000000000024,3.7200059127807634)"><linearGradient id="a" x1="6.393" x2="17.087" y1="21.248" y2="2.726" gradientUnits="userSpaceOnUse"><stop offset="0" stop-color="#5433ff"></stop><stop offset="1" stop-color="#20bdff"></stop></linearGradient><path fill="url(#a)" d="M17 20.25c.56 0 1.09-.11 1.58-.31a2.73 2.73 0 0 1-2.57 1.81c-1.08 0-2-.61-2.46-1.5zm-11.58-.31a2.737 2.737 0 0 0 2.59 1.81c1.06 0 1.99-.61 2.44-1.5H7c-.56 0-1.09-.11-1.58-.31zM19 6.25c.237 0 .464.04.684.096C19.362 4.038 17.395 2.25 15 2.25H9c-2.395 0-4.362 1.788-4.684 4.096.22-.057.446-.096.684-.096zm-14.75 7.5h15.5V16A2.752 2.752 0 0 1 17 18.75H7A2.752 2.752 0 0 1 4.25 16zm10 1.75c0 .414.336.75.75.75h1a.75.75 0 0 0 0-1.5h-1a.75.75 0 0 0-.75.75zm-7 0c0 .414.336.75.75.75h1a.75.75 0 0 0 0-1.5H8a.75.75 0 0 0-.75.75zM20 7.25h-.25v.776A1.221 1.221 0 0 0 19 7.75H5c-.287 0-.539.113-.75.276V7.25H4c-.96 0-1.75.79-1.75 1.75v4c0 .41.34.75.75.75s.75-.34.75-.75V9c0-.14.11-.25.25-.25h.25v3.5h15.5v-3.5H20c.14 0 .25.11.25.25v4c0 .41.34.75.75.75s.75-.34.75-.75V9c0-.96-.79-1.75-1.75-1.75z" opacity="1" data-original="url(#a)"></path></g></svg>