<svg xmlns="http://www.w3.org/2000/svg" version="1.1" xmlns:xlink="http://www.w3.org/1999/xlink" width="512" height="512" x="0" y="0" viewBox="0 0 512 512" style="enable-background:new 0 0 512 512" xml:space="preserve"><rect width="512" height="512" rx="102.4" ry="102.4" fill="#bac8d3" shape="rounded"></rect><g transform="matrix(0.6199999999999998,0,0,0.6199999999999998,97.28000000000006,97.27999710083012)"><linearGradient id="a" x1="256" x2="256" y1="87.92" y2="424.081" gradientUnits="userSpaceOnUse"><stop offset=".104" stop-color="#f26922"></stop><stop offset=".886" stop-color="#febc20"></stop></linearGradient><path fill="url(#a)" d="M127 233.4h39c15.7 0 30 6.4 40.4 16.8s16.8 24.7 16.8 40.4c0 4.7-1.9 9-5 12.1s-7.4 5-12.1 5H86.9c-4.7 0-9-1.9-12.1-5s-5-7.4-5-12.1c0-15.7 6.4-30.1 16.8-40.4 10.3-10.3 24.6-16.8 40.4-16.8zm-10-77.7c7.5-7.6 18-12.2 29.5-12.2s22 4.7 29.5 12.2c7.6 7.6 12.2 18 12.2 29.5s-4.7 21.9-12.2 29.5-18 12.2-29.5 12.2-22-4.7-29.5-12.2c-7.6-7.6-12.2-18-12.2-29.5-.1-11.5 4.6-21.9 12.2-29.5zm29.4 2.2c-7.6 0-14.4 3.1-19.3 8-5 5-8 11.8-8 19.3s3 14.3 8 19.3c4.9 4.9 11.8 8 19.3 8 7.6 0 14.4-3.1 19.3-8 5-5 8-11.8 8-19.3 0-7.6-3-14.4-8-19.3-4.9-4.9-11.7-8-19.3-8zm280.1-12.4c4 0 7.2 3.2 7.2 7.2s-3.2 7.2-7.2 7.2H345c-4 0-7.2-3.2-7.2-7.2s3.2-7.2 7.2-7.2zm0 48.6c4 0 7.2 3.2 7.2 7.2s-3.2 7.2-7.2 7.2H345c-4 0-7.2-3.2-7.2-7.2s3.2-7.2 7.2-7.2zm0 48.7c4 0 7.2 3.2 7.2 7.2s-3.2 7.2-7.2 7.2H345c-4 0-7.2-3.2-7.2-7.2s3.2-7.2 7.2-7.2zm0 48.6c4 0 7.2 3.2 7.2 7.2s-3.2 7.2-7.2 7.2H345c-4 0-7.2-3.2-7.2-7.2s3.2-7.2 7.2-7.2zM300.3 87.9v275.5h136.6c9.4 0 18.1-3.9 24.3-10.1s10.1-14.8 10.1-24.3V122.3c0-9.4-3.9-18-10.1-24.3-6.2-6.2-14.8-10.1-24.3-10.1zM40.7 377.8v11.9c0 9.4 3.9 18 10.1 24.3 6.2 6.2 14.8 10.1 24.3 10.1h395.5c9.4 0 18-3.8 24.3-10.1 6.2-6.2 10.1-14.8 10.1-24.3V183c0-8.3-3-15.9-7.9-21.8-3.1-3.8-7-6.9-11.4-9.1V329c0 13.4-5.5 25.6-14.3 34.5-8.8 8.8-21.1 14.3-34.5 14.3H40.7zm-6-15.1c.1 0 .2.1.3.1 2 .4 4.2.6 6.3.6h244.5V87.9H41.4c-9.4 0-18.1 3.8-24.3 10.1S7 112.8 7 122.3V329c0 9.4 3.9 18.1 10.1 24.3 4.7 4.7 10.8 8.1 17.6 9.4zm131.2-114.9h-39a42.3 42.3 0 0 0-30.2 12.6c-7.8 7.8-12.6 18.5-12.6 30.2a2.732 2.732 0 0 0 2.7 2.7h16.3v-13.7c0-4 3.2-7.2 7.2-7.2s7.2 3.2 7.2 7.2v13.7h57.7v-13.7c0-4 3.2-7.2 7.2-7.2s7.2 3.2 7.2 7.2v13.7H206a2.732 2.732 0 0 0 2.7-2.7c0-11.8-4.8-22.5-12.6-30.2-7.7-7.7-18.4-12.6-30.2-12.6z" opacity="1" data-original="url(#a)"></path></g></svg>