<svg xmlns="http://www.w3.org/2000/svg" version="1.1" xmlns:xlink="http://www.w3.org/1999/xlink" width="512" height="512" x="0" y="0" viewBox="0 0 512 512" style="enable-background:new 0 0 512 512" xml:space="preserve" class=""><rect width="512" height="512" rx="102.4" ry="102.4" fill="#bac8d3" shape="rounded"></rect><g transform="matrix(0.6,0,0,0.6,102.40019836425782,102.38193054199218)"><linearGradient id="a" x1="57.922" x2="454.078" y1="429.465" y2="33.308" gradientUnits="userSpaceOnUse"><stop offset="0" stop-color="#011c49"></stop><stop offset="1" stop-color="#00b8e0"></stop></linearGradient><path fill="url(#a)" fill-rule="evenodd" d="M485.9 72.596H26.1c-9.955 0-18.099 8.144-18.099 18.098v226.615H504V90.695c-.001-9.954-8.145-18.099-18.1-18.099zm-224.515 152.98-40.939 23.636V154.67l40.939 23.636 40.938 23.635zM8.001 372.079c0 9.954 8.144 18.098 18.099 18.098h64.227l-15.448 38.277a7.98 7.98 0 0 0 14.812 5.938l17.845-44.215h296.928l17.845 44.215a7.98 7.98 0 0 0 14.813-5.938l-15.448-38.277H485.9c9.955 0 18.099-8.144 18.099-18.098v-38.77H8.001zm183.796-22.881h128.408a8 8 0 0 1 0 16H191.797a8 8 0 0 1 0-16z" clip-rule="evenodd" opacity="1" data-original="url(#a)"></path></g></svg>