<svg xmlns="http://www.w3.org/2000/svg" version="1.1" xmlns:xlink="http://www.w3.org/1999/xlink" width="512" height="512" x="0" y="0" viewBox="0 0 64 64" style="enable-background:new 0 0 512 512" xml:space="preserve"><rect width="64" height="64" rx="12.8" ry="12.8" fill="#bac8d3" shape="rounded"></rect><g transform="matrix(0.7,0,0,0.7,9.600000000000001,9.599999713897706)"><linearGradient id="a" x1="4" x2="60" y1="32" y2="32" gradientUnits="userSpaceOnUse"><stop offset="0" stop-color="#9cffac"></stop><stop offset="1" stop-color="#00b59c"></stop></linearGradient><path fill="url(#a)" d="M19.87 46.44 4.6 31.36l15.08-9.42 1.85 1.83-9.91 6.13a1.014 1.014 0 0 0-.29 1.43 1.105 1.105 0 0 1 .21.66 1.15 1.15 0 0 1-.41.88 1.01 1.01 0 0 0-.02 1.5l7.29 6.66a1.014 1.014 0 0 0 1.31.04 1.214 1.214 0 0 1 .77-.28 1.12 1.12 0 0 1 .92.48 1.003 1.003 0 0 0 1.35.28l10.33-6.39 1.88 1.85zm-6.72-12.92a3.219 3.219 0 0 0 .27-2.38L23 25.22l8.61 8.49-9.23 5.72a3.219 3.219 0 0 0-3.17-.38zm4.49.12a2.96 2.96 0 0 0 3.15 2.71 2.966 2.966 0 0 0 3.15-2.71 2.966 2.966 0 0 0-3.15-2.72 2.96 2.96 0 0 0-3.15 2.72zm33.21-14.05a3.219 3.219 0 0 0-.27 2.38l-9.7 6.01-8.62-8.51 9.36-5.79a3.22 3.22 0 0 0 3.17.38zm-4.42-.03a3.184 3.184 0 0 0-6.3 0 3.186 3.186 0 0 0 6.3 0zm-2.3-12.89-15.22 9.51 1.88 1.85 10.46-6.47a1.001 1.001 0 0 1 1.35.28 1.12 1.12 0 0 0 .92.48 1.214 1.214 0 0 0 .77-.28 1.014 1.014 0 0 1 1.31.04l7.29 6.66a.998.998 0 0 1-.02 1.49 1.187 1.187 0 0 0-.41.89 1.104 1.104 0 0 0 .21.66 1.001 1.001 0 0 1-.29 1.42l-10.04 6.22 1.85 1.83 15.21-9.5zm1.41 26.09a26.035 26.035 0 0 1 .06 2.68l14.4-9v-2.71zm.06 7.74 14.4-9v-2.7l-14.4 9zM19.13 54.15a1.001 1.001 0 0 1-.7-.29L4 39.61v3.23l14.66 14.49 16.35-10.22v-2.69L19.66 54a.988.988 0 0 1-.53.15zm-.1-5.73L4 33.57v3.23l15.27 15.08 15.74-9.82v-2.72l-14.75 9.21a.997.997 0 0 1-1.23-.13zm17.98-2.55 6.59-4.12v-7.77l-6.59 4.11zm-9.84-28.61-5.75 3.59L36.7 35.92l5.75-3.58zm16.11 1.58c-.66 0-1.15.38-1.15.72 0 .33.49.71 1.15.71s1.15-.38 1.15-.71c0-.34-.49-.72-1.15-.72zM20.79 34.35c.65 0 1.15-.38 1.15-.71 0-.34-.5-.72-1.15-.72-.66 0-1.15.38-1.15.72 0 .33.49.71 1.15.71z" opacity="1" data-original="url(#a)"></path></g></svg>