<svg xmlns="http://www.w3.org/2000/svg" version="1.1" xmlns:xlink="http://www.w3.org/1999/xlink" width="512" height="512" x="0" y="0" viewBox="0 0 100 100" style="enable-background:new 0 0 512 512" xml:space="preserve"><rect width="100" height="100" rx="20" ry="20" fill="#bac8d3" shape="rounded"></rect><g transform="matrix(0.6799999999999998,0,0,0.6799999999999998,16.000000000000007,16.00000061035157)"><linearGradient id="a" x1="50" x2="50" y1="22.851" y2="77.149" gradientUnits="userSpaceOnUse"><stop offset="0" stop-color="#79005d"></stop><stop offset="1" stop-color="#ff9424"></stop></linearGradient><path fill="url(#a)" d="M90.764 22.851H9.236A4.241 4.241 0 0 0 5 27.088v45.825a4.241 4.241 0 0 0 4.236 4.236h81.528A4.241 4.241 0 0 0 95 72.913V27.088a4.241 4.241 0 0 0-4.236-4.237zM22.293 67.944H10.207a1.116 1.116 0 1 1 0-2.231h12.086a1.116 1.116 0 1 1 0 2.231zm8.182-5.764H10.207a1.116 1.116 0 0 1 0-2.232h20.268a1.116 1.116 0 0 1 0 2.232zm7.625-5.765H10.207a1.116 1.116 0 1 1 0-2.231H38.1a1.116 1.116 0 1 1 0 2.231zm54.67-11.436H7.231V34.752h85.538z" data-name="3" opacity="1" data-original="url(#a)"></path></g></svg>