<svg xmlns="http://www.w3.org/2000/svg" version="1.1" xmlns:xlink="http://www.w3.org/1999/xlink" width="512" height="512" x="0" y="0" viewBox="0 0 64 64" style="enable-background:new 0 0 512 512" xml:space="preserve" class=""><rect width="64" height="64" rx="12.8" ry="12.8" fill="#bac8d3" shape="rounded"></rect><g transform="matrix(0.6699999999999998,0,0,0.6699999999999998,10.560011014938365,10.55959858417512)"><linearGradient id="a" x1="11.31" x2="52.69" y1="31.999" y2="31.999" gradientUnits="userSpaceOnUse"><stop offset="0" stop-color="#9cffac"></stop><stop offset="1" stop-color="#00b59c"></stop></linearGradient><path fill="url(#a)" d="m37.52 51.56-2.66-10.85c-.208-.766-.616-2.569-.81-3.32-1.198-5.491-8.82-7.1-12.22-2.68a6.804 6.804 0 0 0-1.32 2.68l-3.47 14.17s19.595-.005 20.48 0zm-10.24-8.48a3.265 3.265 0 1 1 0-6.53 3.265 3.265 0 0 1 0 6.53zm25.11-9.95-3.86-3.8V14.01a4.71 4.71 0 0 0 1.9-7.8 4.806 4.806 0 0 0-6.71 0 4.621 4.621 0 0 0-1.13 1.76H26.8l-3.74-3.68a.984.984 0 0 0-1.4 0c-8.093 7.609-8.444 21.278-.87 29.33a8.509 8.509 0 0 1 14.72 3.41l.43 1.76.49 2.02a21.77 21.77 0 0 0 15.96-6.26.99.99 0 0 0 0-1.42zM38.45 19.42l6.04-5.94a4.719 4.719 0 0 0 2.04.72v13.17zm3.89-9.45a4.522 4.522 0 0 0 .73 2.1l-6.04 5.95-8.19-8.05zm.91 44.09V59a1.003 1.003 0 0 1-1 1H12.31a.997.997 0 0 1-1-1v-4.94a.997.997 0 0 1 1-1s27.336.003 29.94 0a1.003 1.003 0 0 1 1 1zM27.28 41.08a1.265 1.265 0 1 1 0-2.53 1.265 1.265 0 1 1 0 2.53z" opacity="1" data-original="url(#a)"></path></g></svg>