<svg xmlns="http://www.w3.org/2000/svg" version="1.1" xmlns:xlink="http://www.w3.org/1999/xlink" width="512" height="512" x="0" y="0" viewBox="0 0 450 450" style="enable-background:new 0 0 512 512" xml:space="preserve" class=""><rect width="450" height="450" rx="90" ry="90" fill="#bac8d3" shape="rounded"></rect><g transform="matrix(0.6,0,0,0.6,100,90.0199966430664)"><linearGradient id="a" x1="17.075" x2="349.863" y1="381.55" y2="48.763" gradientTransform="matrix(1 0 0 -1 0 450)" gradientUnits="userSpaceOnUse"><stop offset="0" stop-color="#00dbde"></stop><stop offset="1" stop-color="#fc00ff"></stop></linearGradient><path fill="url(#a)" d="M417.9 299.7h6.5v27h-6.5zm10.9-37.5c.7 0 1.3.6 1.3 1.3v24.3c0 .6-.5 1.2-1.1 1.3h-16c-.6-.1-1.1-.7-1.1-1.3v-24.3c0-.7.6-1.3 1.3-1.3zM287.2 225l-152.8-50.7 152.8-50.7L440 174.3zm93-19.7v17.9l-93 30.9-92.9-30.9v-17.9l91.3 30.3c.5.2 1.1.3 1.7.3s1.1-.1 1.6-.3zm0 28.9v39.3c-36.8 20.1-73.8 28.2-110.7 24.4-25.1-2.6-50.2-10.7-75.2-24.4v-39.3l91.3 30.3c.5.2 1.1.3 1.7.3s1.1-.1 1.6-.3zM263.6 335.4v21.2H45.4c-2.9 0-5.3 2.4-5.3 5.3s2.3 5.3 5.3 5.3h218.2v11c0 5.6-4.6 10.2-10.2 10.2H27c-9.4 0-17-7.6-17-17v-18.8c0-9.4 7.6-17 17-17zM56.9 61.7v263.2H27c-6.4 0-12.3 2.2-17 5.9V85.2c0-12.9 10.5-23.4 23.4-23.4zm126.9 214.9c0 1.9 1 3.7 2.7 4.6 25.6 14.4 51.4 23.3 77.2 26.7v17H67.4V61.7H257c3.7 0 6.7 3 6.7 6.7v52l-147.5 49c-2.1.7-3.6 2.7-3.6 5s1.4 4.3 3.6 5l67.6 22.5zm242.6-86.7v61.7h-10.5v-58.3z" opacity="1" data-original="url(#a)"></path></g></svg>