<svg xmlns="http://www.w3.org/2000/svg" version="1.1" xmlns:xlink="http://www.w3.org/1999/xlink" width="512" height="512" x="0" y="0" viewBox="0 0 512 512" style="enable-background:new 0 0 512 512" xml:space="preserve"><rect width="512" height="512" rx="102.4" ry="102.4" fill="#bac8d3" shape="rounded"></rect><g transform="matrix(0.62,0,0,0.62,97.27999456405641,97.2788613510132)"><linearGradient id="a" x1="256" x2="256" y1="512" gradientUnits="userSpaceOnUse"><stop offset="0" stop-color="#6a4999"></stop><stop offset="1" stop-color="#00acd3"></stop></linearGradient><path fill="url(#a)" fill-rule="evenodd" d="M75.792 86.064A8 8 0 0 1 87.1 74.752l36.5 36.5a8 8 0 1 1-11.306 11.312l-36.5-36.5zm-74.4 168.8a8 8 0 0 1 8-8H61a8 8 0 1 1 0 16H9.39a8 8 0 0 1-8-8zm122.56 143.471-36.5 36.5a8 8 0 1 1-11.321-11.312l36.5-36.5a8 8 0 0 1 11.321 11.317zM424.9 434.483l-36.5-36.5a8 8 0 0 1 11.311-11.312l36.5 36.5a8 8 0 1 1-11.311 11.312zM443 254.37a8 8 0 0 1 8-8h51.61a8 8 0 1 1 0 16H451a8 8 0 0 1-8-8zm-54.949-132.154a8.009 8.009 0 0 1 0-11.312l36.5-36.5a8 8 0 1 1 11.316 11.316l-36.5 36.5a8.007 8.007 0 0 1-11.321 0zm-140.292-62.6V8.005a8 8 0 1 1 16 0v51.614a8 8 0 1 1-16 0zM300.7 475.372h-3.377c-.349 0-.7.023-1.043.037a9.522 9.522 0 0 0-.821-.037h-79.408c-.269 0-.552.014-.821.037-.34-.014-.689-.037-1.037-.037h-3.383a3.541 3.541 0 0 1-3.538-3.543v-9.373h96.979v9.373a3.549 3.549 0 0 1-3.552 3.543zM235.1 496l-1.51-4.632h44.33L276.411 496zm-27.827-59.417h96.979v9.869h-96.98v-9.869zm99.149-28.911a68.467 68.467 0 0 0-2.033 12.911h-97.258a68.149 68.149 0 0 0-2.038-12.911zm-136.849-24.133a49.329 49.329 0 0 1 21.7 41.524v46.766a19.561 19.561 0 0 0 19.538 19.543h3.383a3.393 3.393 0 0 1 3.367 2.448l3.251 10A11.814 11.814 0 0 0 232.08 512h47.35a11.815 11.815 0 0 0 11.269-8.184l3.255-10a3.406 3.406 0 0 1 3.368-2.443h3.378a19.571 19.571 0 0 0 19.553-19.543v-46.767a49.308 49.308 0 0 1 21.689-41.524 151.19 151.19 0 0 0 64.818-124c0-83.266-67.738-151-151-151s-151.008 67.738-151.008 151a151.193 151.193 0 0 0 64.822 124zm76.719 8.132h-16v-101.1h-14.43a30.435 30.435 0 1 1 30.43-30.435v14.435h18.93v-14.437a30.435 30.435 0 1 1 30.43 30.435h-14.43v101.1h-16v-101.1h-18.93v101.1zm34.93-117.1v-14.437a14.435 14.435 0 1 1 14.43 14.435zm-50.93 0h-14.43a14.435 14.435 0 1 1 14.43-14.435z" opacity="1" data-original="url(#a)"></path></g></svg>