<svg xmlns="http://www.w3.org/2000/svg" version="1.1" xmlns:xlink="http://www.w3.org/1999/xlink" width="512" height="512" x="0" y="0" viewBox="0 0 512 512" style="enable-background:new 0 0 512 512" xml:space="preserve"><rect width="512" height="512" rx="102.4" ry="102.4" fill="#bac8d3" shape="rounded"></rect><g transform="matrix(0.6099999999999998,0,0,0.6099999999999998,98.98394565582277,99.93945785522467)"><linearGradient id="a" x1="253.806" x2="253.806" y1="75.417" y2="437.09" gradientUnits="userSpaceOnUse"><stop offset="0" stop-color="#a03a8d"></stop><stop offset="1" stop-color="#1f3c8d"></stop></linearGradient><path fill="url(#a)" fill-rule="evenodd" d="M24.8 75.42v37.27h219.49V75.42zm414.61 349.67H233.9v12h205.51zm12.05-105.41v117.41h31.35V319.68c0-8.64-7.03-15.67-15.67-15.67-8.65 0-15.68 7.03-15.68 15.67zm-205.05-53.05 26.68-36.09h-39.24v36.09zm53.51 0h-38.6L288 230.54h38.6zm53.52 0 26.68-36.09h-38.6l-26.68 36.09zm53.53 0h-38.6l26.68-36.09h38.6zm41.59-36.09-26.68 36.09h39.25v-36.09zM193.63 338.87H75.47v69.87h118.17v-69.87zm-36.02-62.3c0-12.62-10.26-22.88-22.87-22.88h-.37c-12.61 0-22.88 10.26-22.88 22.88v10.7h46.12zm36.02-124.49v135.18H169.6v-10.7c0-19.23-15.64-34.88-34.87-34.88h-.37c-19.23 0-34.88 15.65-34.88 34.88v10.7H75.47V152.08zm28.22-27.39v312.4H47.26v-312.4zM63.47 146.08c0-3.32 2.68-6 6-6h130.17c3.32 0 6 2.69 6 6v147.18c0 3.31-2.68 6-6 6H69.46c-3.32 0-6-2.69-6-6V146.08zm5.99 180.79h130.17c3.32 0 6 2.69 6 6v81.87c0 3.32-2.68 6-6 6H69.46c-3.32 0-6-2.68-6-6v-81.87c.01-3.31 2.69-6 6-6z" clip-rule="evenodd" opacity="1" data-original="url(#a)"></path></g></svg>