<svg xmlns="http://www.w3.org/2000/svg" version="1.1" xmlns:xlink="http://www.w3.org/1999/xlink" width="512" height="512" x="0" y="0" viewBox="0 0 2134 2134" style="enable-background:new 0 0 512 512" xml:space="preserve" fill-rule="evenodd"><rect width="2134" height="2134" rx="426.8" ry="426.8" fill="#bac8d3" shape="rounded"></rect><g transform="matrix(0.69,0,0,0.69,330.66582153320326,330.6661715698243)"><linearGradient id="a" x1="0" x2="1" y1="0" y2="0" gradientTransform="matrix(1842.33 0 0 5600 145.503 1066.67)" gradientUnits="userSpaceOnUse"><stop offset="0" stop-color="#f70000"></stop><stop offset="1" stop-color="#f7c800"></stop></linearGradient><path fill="url(#a)" d="m1283.33 1715.63 89.823 15.445c34.525 5.936 61.652 32.832 67.883 67.306l22.544 124.733a12.5 12.5 0 0 1-14.076 14.596l-203.239-29.161c22.284-48.896 37.065-107.298 37.065-175.217zm-396.267 192.919-203.24 29.161a12.5 12.5 0 0 1-14.076-14.596l22.545-124.733c6.231-34.474 33.357-61.37 67.883-67.306l89.822-15.445v17.702c0 67.919 14.781 126.321 37.066 175.217zm179.601-1775.22c34.135 0 133.333 43.778 133.333 353.395v1246.61c0 138.664-76.451 227.93-133.333 266.667-56.883-38.737-133.334-128.003-133.334-266.667V486.724c0-309.617 99.198-353.395 133.334-353.395zM849.997 979.116l-689.942 114.991a12.501 12.501 0 0 1-12.769-18.769l97.741-162.643a104.169 104.169 0 0 1 62.196-46.926l542.774-146.181zm433.333 0V719.588l542.775 146.181a104.167 104.167 0 0 1 62.195 46.926l97.741 162.643a12.5 12.5 0 0 1-12.769 18.769z" opacity="1" data-original="url(#a)"></path></g></svg>