<svg xmlns="http://www.w3.org/2000/svg" version="1.1" xmlns:xlink="http://www.w3.org/1999/xlink" width="512" height="512" x="0" y="0" viewBox="0 0 1707 1707" style="enable-background:new 0 0 512 512" xml:space="preserve" fill-rule="evenodd" class=""><rect width="1707" height="1707" rx="341.4" ry="341.4" fill="#bac8d3" shape="rounded"></rect><g transform="matrix(0.6499999999999998,0,0,0.6499999999999998,298.72500000000014,298.7438448905947)"><linearGradient id="a" x1="116.866" x2="1589.8" y1="335.402" y2="1371.27" gradientUnits="userSpaceOnUse"><stop offset="0" stop-color="#a96f44"></stop><stop offset="1" stop-color="#f2ecb6"></stop></linearGradient><path fill="url(#a)" d="M1248 1566H458c-58 0-105-48-105-106v-119h1001v119c0 58-47 106-106 106zM942 232h-69v152h274v-61h-70c-30 0-54-25-54-55V152c0-30 24-54 54-54h70V46c-194 47-391 47-588 0v55h71c29 0 54 25 54 54v117c0 30-25 54-54 54h-71v58h274V232h-68c-26 0-26-40 0-40h177c26 0 26 40 0 40zm336 1475H429c-33 0-23-58 0-108h849c22 50 32 108 0 108zm-90-1589v266h60c59 0 106 47 106 105v119H353V489c0-58 47-105 105-105h61V20c0-13 12-23 25-19 207 54 415 54 618 0 13-4 26 6 26 19zM853 1135c-69 0-125-56-125-125 0-50 80-135 108-185 7-14 27-14 35 0 26 49 107 135 107 185 0 69-56 125-125 125zm0-263c-24 36-85 112-85 138 0 112 170 112 170 0 0-25-60-102-85-138zm-500 429v-75h1001v75zm0-115V763h1001v423zm0-463v-75h1001v75z" opacity="1" data-original="url(#a)"></path></g></svg>