<svg xmlns="http://www.w3.org/2000/svg" version="1.1" xmlns:xlink="http://www.w3.org/1999/xlink" width="512" height="512" x="0" y="0" viewBox="0 0 64 64" style="enable-background:new 0 0 512 512" xml:space="preserve"><rect width="64" height="64" rx="12.8" ry="12.8" fill="#bac8d3" shape="rounded"></rect><g transform="matrix(0.7,0,0,0.7,9.600897502899173,9.600216293334963)"><linearGradient id="a" x1="4" x2="60" y1="32" y2="32" gradientUnits="userSpaceOnUse"><stop offset="0" stop-color="#00c0ff"></stop><stop offset="1" stop-color="#5558ff"></stop></linearGradient><path fill="url(#a)" d="m59.73 32.084-3.817 7.98a.944.944 0 0 1-.579.495V26.913c.047.018 3.09 1.465 3.09 1.465a2.775 2.775 0 0 1 1.418 1.578 2.805 2.805 0 0 1-.112 2.128zM8.087 23.917 4.27 31.916a2.798 2.798 0 0 0 1.316 3.705s3.033 1.437 3.08 1.447V23.422a.944.944 0 0 0-.579.495zm24.594 9.016c-1.206 2.206-5.237.025-6.17-.485a31.61 31.61 0 0 0 1.849 5.758.629.629 0 0 0 .97.271.544.544 0 0 0-.111-.821l-.598-.402a.932.932 0 0 1 1.036-1.549l.607.401a2.439 2.439 0 0 1 .457 3.612 2.496 2.496 0 0 1-4.06-.737 34.829 34.829 0 0 1-2.09-6.645h-.327a33.965 33.965 0 0 1-2.1 6.748 2.593 2.593 0 0 1-1.718 1.456 2.404 2.404 0 0 1-1.866-4.34l.588-.402a.93.93 0 0 1 1.045 1.54l-.597.411a.533.533 0 0 0 .373.98.708.708 0 0 0 .476-.42 32.005 32.005 0 0 0 1.867-5.861c-1.45.77-4.92 2.586-6.179.485 0 0-4.69-.002-5.6 0v9.11a2.697 2.697 0 0 0 2.697 2.688h10.24c-.004-1.941 0-4.864 0-6.842a.933.933 0 0 1 1.866 0v6.842h25.443a2.689 2.689 0 0 0 2.688-2.688v-9.11H32.681zm-17.425-1.867c-1.003-2.26-.181-8.011 2.912-7.653a10.87 10.87 0 0 1 4.685 1.82 2.147 2.147 0 0 1 .616-.234v-5.73H13.23a2.697 2.697 0 0 0-2.697 2.688v9.11c.917-.003 4.723 0 4.723 0zM50.779 19.27H25.336c.003.916 0 5.73 0 5.73.305.01.577.356.821.094a11.253 11.253 0 0 1 4.499-1.68c2.47-.46 4.124 4.279 2.921 7.653 2.713.002 17.495-.001 19.89 0v-9.11a2.689 2.689 0 0 0-2.688-2.687zm-19.731 12.75a5.873 5.873 0 0 0 .075-6.684.138.138 0 0 0-.159-.074 9.313 9.313 0 0 0-3.761 1.381 2.294 2.294 0 0 1 .158.859 13.09 13.09 0 0 1-.168 3.173 8.05 8.05 0 0 0 3.855 1.344zM17.86 25.25a.165.165 0 0 0-.159.084c-1.275 1.654-1.416 5.143.214 6.73a9.243 9.243 0 0 0 3.613-1.335c.168-.2-.154-.632-.075-.942a13.413 13.413 0 0 1 .159-3.146 9.125 9.125 0 0 0-3.752-1.39zm-3.622-7.85c1.366.002 20.386.001 22.933 0a.907.907 0 0 0-.364-.307L19.38 8.759a2.8 2.8 0 0 0-3.705 1.307l-3.566 7.466a9.739 9.739 0 0 1 2.128-.13zm35.533 29.206H26.82a.858.858 0 0 0 .355.298l17.454 8.335a2.79 2.79 0 0 0 3.705-1.306l3.565-7.467a8.524 8.524 0 0 1-2.128.14zM23.507 27.034a.61.61 0 0 0-.187.467v2.287a.934.934 0 0 0 .299.606c.136-.006.247.087.392.075a4.754 4.754 0 0 0 1.185-.075.964.964 0 0 0 .299-.606V27.5a.694.694 0 0 0-.691-.69c-.323.013-1.118-.09-1.297.223z" opacity="1" data-original="url(#a)"></path></g></svg>