<svg xmlns="http://www.w3.org/2000/svg" version="1.1" xmlns:xlink="http://www.w3.org/1999/xlink" width="512" height="512" x="0" y="0" viewBox="0 0 100 100" style="enable-background:new 0 0 512 512" xml:space="preserve" class=""><rect width="100" height="100" rx="20" ry="20" fill="#bac8d3" shape="rounded"></rect><g transform="matrix(0.6299999999999998,0,0,0.6299999999999998,18.500000000000007,18.500000000000007)"><linearGradient id="a" x1="-2.336" x2="102.927" y1="-3.745" y2="104.352" gradientUnits="userSpaceOnUse"><stop offset=".184" stop-color="#29abe2"></stop><stop offset=".821" stop-color="#6200d2"></stop></linearGradient><path fill="url(#a)" d="M65.2 34.8V6.828A4.328 4.328 0 0 0 60.872 2.5H39.128A4.328 4.328 0 0 0 34.8 6.828V34.8H6.828A4.328 4.328 0 0 0 2.5 39.128v21.744A4.328 4.328 0 0 0 6.828 65.2H34.8v27.972a4.328 4.328 0 0 0 4.328 4.328h21.744a4.328 4.328 0 0 0 4.328-4.328V65.2h27.972a4.328 4.328 0 0 0 4.328-4.328V39.128a4.328 4.328 0 0 0-4.328-4.328H65.2z" opacity="1" data-original="url(#a)"></path></g></svg>