<svg xmlns="http://www.w3.org/2000/svg" version="1.1" xmlns:xlink="http://www.w3.org/1999/xlink" width="512" height="512" x="0" y="0" viewBox="0 0 512 512" style="enable-background:new 0 0 512 512" xml:space="preserve"><rect width="512" height="512" rx="102.4" ry="102.4" fill="#bac8d3" shape="rounded"></rect><g transform="matrix(0.69,0,0,0.69,79.20500000000001,79.36000000000001)"><linearGradient id="a" x1="63.5" x2="447.5" y1="256" y2="256" gradientUnits="userSpaceOnUse"><stop offset="0" stop-color="#0ff"></stop><stop offset="1" stop-color="#0071bc"></stop></linearGradient><path fill="url(#a)" d="M404.648 168.275h-9.566c-3.996 0-7.243 3.314-7.243 7.393v14.963c0 4.078 3.247 7.392 7.243 7.392h9.566c3.995 0 7.242-3.314 7.242-7.392v-14.963c0-4.079-3.247-7.393-7.242-7.393zM429.34 75.54h-71.997c.252 1.577.388 3.235.388 4.961v329.803h71.61c10.012 0 18.159-8.85 18.159-19.725V95.266c0-10.875-8.147-19.726-18.16-19.726zm-7.75 304.92c-.23 2.586-2.496 4.493-5.04 4.493h-33.572c-2.684 0-4.86-2.222-4.86-4.962v-39.464c0-2.59 1.854-4.906 4.38-5.153 2.899-.285 5.341 2.037 5.341 4.937v32.819c0 1.05.834 1.9 1.862 1.9h27.05c2.834 0 5.104 2.469 4.84 5.43zm-31.89-83.42H408.1c2.693 0 4.86 2.222 4.86 4.96s-2.167 4.962-4.86 4.962H389.7c-1.028 0-1.862.85-1.862 1.9v6.122c0 1.05.834 1.9 1.862 1.9h26.839c2.538 0 4.806 1.893 5.049 4.472.278 2.958-1.997 5.45-4.838 5.45h-33.773c-2.684 0-4.86-2.22-4.86-4.96v-39.68c0-2.74 2.176-4.962 4.86-4.962h33.562c2.538 0 4.806 1.893 5.049 4.472.278 2.958-1.997 5.45-4.838 5.45H389.7c-1.028 0-1.862.852-1.862 1.9v6.113c0 1.05.834 1.9 1.862 1.9zm2.917-68.327h-8.922c-2.544 0-4.81-1.907-5.041-4.493-.264-2.96 2.006-5.43 4.84-5.43h32.742c2.834 0 5.104 2.47 4.84 5.43-.231 2.586-2.498 4.493-5.042 4.493h-9.972c-1.028 0-1.862.851-1.862 1.9v32.613c0 2.59-1.854 4.906-4.38 5.153-2.899.285-5.341-2.037-5.341-4.937v-32.829c0-1.049-.834-1.9-1.862-1.9zm28.995-38.082c0 9.545-7.612 17.315-16.964 17.315h-9.566c-9.353 0-16.964-7.77-16.964-17.315v-14.963c0-9.546 7.611-17.315 16.964-17.315h9.566c9.352 0 16.964 7.77 16.964 17.315zm0-45.822c0 2.748-2.178 4.96-4.861 4.96s-4.86-2.212-4.86-4.96v-12.992c0-1.05-.835-1.901-1.864-1.9l-20.328.016c-1.027.001-1.86.852-1.86 1.9v12.976c0 2.748-2.178 4.96-4.86 4.96s-4.861-2.212-4.861-4.96v-39.67c0-2.749 2.177-4.962 4.86-4.962s4.861 2.213 4.861 4.962v12.972c0 1.05.834 1.9 1.863 1.9l20.328-.017c1.027 0 1.86-.851 1.86-1.9v-12.955c0-2.749 2.178-4.962 4.86-4.962 2.684 0 4.862 2.213 4.862 4.962v39.67zm-19.356 291.284h-50.357V80.501c0-9.565-5.046-16.501-11.997-16.501H131.687c-6.951 0-11.997 6.936-11.997 16.501v355.592H69.333c-3.218 0-5.833 2.67-5.833 5.954S66.115 448 69.333 448h332.923c3.218 0 5.833-2.67 5.833-5.953 0-3.285-2.615-5.954-5.833-5.954zM213.318 111.31c0-6.142 4.511-11.153 10.052-11.153h24.849c5.54 0 10.052 5.011 10.052 11.153v28.468c0 6.152-4.511 11.153-10.052 11.153H223.37c-5.54 0-10.052-5.001-10.052-11.153zm0 80.065c0-6.152 4.511-11.153 10.052-11.153h24.849c5.54 0 10.052 5 10.052 11.153v28.468c0 6.141-4.511 11.142-10.052 11.142H223.37c-5.54 0-10.052-5-10.052-11.142zm0 80.054c0-6.142 4.511-11.142 10.052-11.142h24.849c5.54 0 10.052 5 10.052 11.142v28.478c0 6.142-4.511 11.143-10.052 11.143H223.37c-5.54 0-10.052-5.001-10.052-11.143zm-23.079 28.478c0 6.142-4.5 11.143-10.042 11.143H155.34c-5.541 0-10.052-5.001-10.052-11.143v-28.478c0-6.142 4.51-11.142 10.052-11.142h24.858c5.541 0 10.042 5 10.042 11.142zm0-80.064c0 6.141-4.5 11.142-10.042 11.142H155.34c-5.541 0-10.052-5-10.052-11.142v-28.468c0-6.152 4.51-11.153 10.052-11.153h24.858c5.541 0 10.042 5 10.042 11.153zm0-80.065c0 6.152-4.5 11.153-10.042 11.153H155.34c-5.541 0-10.052-5.001-10.052-11.153V111.31c0-6.142 4.51-11.153 10.052-11.153h24.858c5.541 0 10.042 5.011 10.042 11.153zm42.639 296.315h-33.84v-69.636c0-7.154 5.385-12.969 11.996-12.969h21.844zm39.674 0H238.71v-82.605h21.844c6.61 0 11.997 5.815 11.997 12.969zm53.74-136.186c0 6.142-4.501 11.143-10.042 11.143h-24.858c-5.541 0-10.052-5.001-10.052-11.143v-28.478c0-6.142 4.51-11.142 10.052-11.142h24.858c5.541 0 10.042 5 10.042 11.142zm0-80.064c0 6.141-4.501 11.142-10.042 11.142h-24.858c-5.541 0-10.052-5-10.052-11.142v-28.468c0-6.152 4.51-11.153 10.052-11.153h24.858c5.541 0 10.042 5 10.042 11.153zm0-80.065c0 6.152-4.501 11.153-10.042 11.153h-24.858c-5.541 0-10.052-5.001-10.052-11.153V111.31c0-6.142 4.51-11.153 10.052-11.153h24.858c5.541 0 10.042 5.011 10.042 11.153z" opacity="1" data-original="url(#a)"></path></g></svg>