<svg xmlns="http://www.w3.org/2000/svg" version="1.1" xmlns:xlink="http://www.w3.org/1999/xlink" width="512" height="512" x="0" y="0" viewBox="0 0 16 16" style="enable-background:new 0 0 512 512" xml:space="preserve"><rect width="16" height="16" rx="3.2" ry="3.2" fill="#bac8d3" shape="rounded"></rect><g transform="matrix(0.61,0,0,0.61,3.119999860525132,3.1234259909391406)"><linearGradient id="a" x1="2.763" x2="13.237" y1="5.057" y2="15.53" gradientUnits="userSpaceOnUse"><stop offset="0" stop-color="#1283ff"></stop><stop offset="1" stop-color="#d21aff"></stop></linearGradient><path fill="url(#a)" d="M10 10v5.5H6V10a.5.5 0 0 1 .5-.5h3a.5.5 0 0 1 .5.5zm5.14-2.92L9.17.99a1.685 1.685 0 0 0-2.34 0L.86 7.08A1.23 1.23 0 0 0 .6 8.44a1.204 1.204 0 0 0 1.13.76l.03 4.63a1.662 1.662 0 0 0 1.65 1.67H5V10a1.502 1.502 0 0 1 1.5-1.5h3A1.502 1.502 0 0 1 11 10v5.5h1.59a1.662 1.662 0 0 0 1.65-1.67V9.2h.03a1.204 1.204 0 0 0 1.13-.76 1.23 1.23 0 0 0-.26-1.36z" opacity="1" data-original="url(#a)"></path></g></svg>