<svg xmlns="http://www.w3.org/2000/svg" version="1.1" xmlns:xlink="http://www.w3.org/1999/xlink" width="512" height="512" x="0" y="0" viewBox="0 0 64 64" style="enable-background:new 0 0 512 512" xml:space="preserve"><rect width="64" height="64" rx="12.8" ry="12.8" fill="#bac8d3" shape="rounded"></rect><g transform="matrix(0.7,0,0,0.7,9.600000000000001,9.599027538299563)"><linearGradient id="a" x1="7.62" x2="56.38" y1="32.001" y2="32.001" gradientUnits="userSpaceOnUse"><stop offset="0" stop-color="#ffde00"></stop><stop offset="1" stop-color="#fd5900"></stop></linearGradient><path fill="url(#a)" d="M9.25 29.15a.978.978 0 0 1-1.06.13.993.993 0 0 1-.57-.9A24.42 24.42 0 0 1 26.17 4.71c-2.685 7.489-3.386 15.376-3.65 24.37-4.339-3.676-8.663-3.68-13.27.07zm30.6-1.13c-.694-8.995-1.527-16.57-4.76-23.82a24.17 24.17 0 0 0-6.57.05 32.05 32.05 0 0 0-1.86 5.72 91.589 91.589 0 0 0-2.13 18.76A13.817 13.817 0 0 1 31 26.62v27.553a3.84 3.84 0 0 1-6.529 2.7 3.79 3.79 0 0 1-1.112-2.7v-2.254a1 1 0 0 0-2 0v2.254a5.82 5.82 0 1 0 11.641 0V26.67a17.514 17.514 0 0 1 6.9 2.36c-.019-.335-.035-.675-.05-1.01zM37.47 4.63c2.917 7.372 3.847 15.198 4.42 24.18 4.35-3.04 8.57-2.91 12.88.36a1.01 1.01 0 0 0 1.61-.79A24.403 24.403 0 0 0 37.47 4.63z" opacity="1" data-original="url(#a)"></path></g></svg>