<svg xmlns="http://www.w3.org/2000/svg" version="1.1" xmlns:xlink="http://www.w3.org/1999/xlink" width="512" height="512" x="0" y="0" viewBox="0 0 64 64" style="enable-background:new 0 0 512 512" xml:space="preserve" class=""><rect width="64" height="64" rx="12.8" ry="12.8" fill="#bac8d3" shape="rounded"></rect><g transform="matrix(0.6299999999999998,0,0,0.6299999999999998,11.840000000000007,11.840000000000007)"><linearGradient id="a" x1="4" x2="60" y1="32" y2="32" gradientUnits="userSpaceOnUse"><stop offset="0" stop-color="#00c0ff"></stop><stop offset="1" stop-color="#5558ff"></stop></linearGradient><path fill="url(#a)" d="M57 10.5H25v30a5.002 5.002 0 0 1-5 5h-1v3h36v5a1.003 1.003 0 0 1-1 1H18a1.003 1.003 0 0 1-1-1v-10h3a3.009 3.009 0 0 0 3-3v-30a3.009 3.009 0 0 0-3-3h-8a3.009 3.009 0 0 0-3 3v30a3.009 3.009 0 0 0 3 3h3v10a3.002 3.002 0 0 0 3 3h36a3.009 3.009 0 0 0 3-3v-5a3.011 3.011 0 0 0 3-3v-32a3.009 3.009 0 0 0-3-3zM29.5 44a1.5 1.5 0 1 1 1.5-1.5 1.498 1.498 0 0 1-1.5 1.5zm0-7a1.5 1.5 0 1 1 1.5-1.5 1.498 1.498 0 0 1-1.5 1.5zm0-7a1.5 1.5 0 1 1 1.5-1.5 1.498 1.498 0 0 1-1.5 1.5zm8 14a1.5 1.5 0 1 1 1.5-1.5 1.498 1.498 0 0 1-1.5 1.5zm0-7a1.5 1.5 0 1 1 1.5-1.5 1.498 1.498 0 0 1-1.5 1.5zm0-7a1.5 1.5 0 1 1 1.5-1.5 1.498 1.498 0 0 1-1.5 1.5zm8 14a1.5 1.5 0 1 1 1.5-1.5 1.498 1.498 0 0 1-1.5 1.5zm0-7a1.5 1.5 0 1 1 1.5-1.5 1.498 1.498 0 0 1-1.5 1.5zm0-7a1.5 1.5 0 1 1 1.5-1.5 1.498 1.498 0 0 1-1.5 1.5zm9 13a1 1 0 0 1-2 0v-7.5a1 1 0 0 1 2 0zm-1-13a1.5 1.5 0 1 1 1.5-1.5 1.498 1.498 0 0 1-1.5 1.5zm2.5-9.5a2.006 2.006 0 0 1-2 2H29a2.006 2.006 0 0 1-2-2v-4a2.006 2.006 0 0 1 2-2h25a2.006 2.006 0 0 1 2 2zm-27-4h25v4H29zm-17 29h1v3H7a3.009 3.009 0 0 1-3-3v-32a3.009 3.009 0 0 1 3-3v30a5.002 5.002 0 0 0 5 5z" opacity="1" data-original="url(#a)"></path></g></svg>