<svg xmlns="http://www.w3.org/2000/svg" version="1.1" xmlns:xlink="http://www.w3.org/1999/xlink" width="512" height="512" x="0" y="0" viewBox="0 0 64 64" style="enable-background:new 0 0 512 512" xml:space="preserve"><rect width="64" height="64" rx="12.8" ry="12.8" fill="#bac8d3" shape="rounded"></rect><g transform="matrix(0.7,0,0,0.7,9.600025463104249,9.59999878406525)"><linearGradient id="a" x1="13.243" x2="50.757" y1="32" y2="32" gradientUnits="userSpaceOnUse"><stop offset="0" stop-color="#00c0ff"></stop><stop offset="1" stop-color="#5558ff"></stop></linearGradient><path fill="url(#a)" d="M42.44 7.315h-4.435c-.002 1.342.002 3.417 0 4.733h.486a.992.992 0 0 1 0 1.985H25.51a.995.995 0 0 1-.993-.992c.03-.845.749-1.067 1.479-.993-.002-1.332.002-3.393 0-4.734H21.56a3.314 3.314 0 0 0-3.305 3.305v30.337a5.882 5.882 0 0 0 .338 2.174l1.756 3.592a3.318 3.318 0 0 0 3.245 1.806s13.672-.006 16.811 0a3.318 3.318 0 0 0 3.245-1.806l1.757-3.592a5.89 5.89 0 0 0 .337-2.174V10.62a3.314 3.314 0 0 0-3.304-3.304zM24.489 44.22a2.977 2.977 0 0 1 0-5.954 2.977 2.977 0 0 1 0 5.954zm0-8.197a2.977 2.977 0 0 1 0-5.954 2.977 2.977 0 0 1 0 5.954zm7.513 8.197a2.977 2.977 0 0 1 0-5.954 2.977 2.977 0 0 1 0 5.954zm0-8.197a2.977 2.977 0 0 1 0-5.954 2.977 2.977 0 0 1 0 5.954zm8.554 7.999a2.968 2.968 0 1 1-1.042-5.756 2.968 2.968 0 0 1 1.042 5.756zm1.22-9.05a2.974 2.974 0 1 1-2.262-4.903 2.987 2.987 0 0 1 2.263 4.902zm.715-9.627a2.136 2.136 0 0 1-2.124 2.124H23.635a2.136 2.136 0 0 1-2.124-2.124V18.34a2.109 2.109 0 0 1 .715-1.578 2.078 2.078 0 0 1 1.409-.546h16.731a2.078 2.078 0 0 1 1.41.546 2.109 2.109 0 0 1 .714 1.578zm-1.985-7.006v7.006a.136.136 0 0 1-.139.139H23.635a.136.136 0 0 1-.139-.139V18.34a.142.142 0 0 1 .139-.139h16.731a.142.142 0 0 1 .14.139zm-16.017 15.7a.992.992 0 0 1 0-1.985.992.992 0 0 1 0 1.984zm15.025 0a.992.992 0 0 1 0-1.985.992.992 0 0 1 0 1.984zm-15.025 8.196a.992.992 0 0 1 0-1.984.992.992 0 0 1 0 1.984zm15.025 0a.992.992 0 0 1 0-1.984.992.992 0 0 1 0 1.984zm-7.512 0a.992.992 0 0 1 0-1.984.992.992 0 0 1 0 1.984zm0-8.197a.992.992 0 0 1 0-1.984.992.992 0 0 1 0 1.984zm4.019-21.99h-8.038c.002-.48 0-7.057 0-7.057A.989.989 0 0 1 28.974 4h6.053a.989.989 0 0 1 .993.992v7.056zM50.757 14.3v22.477a3.924 3.924 0 0 1-3.027 3.742V10.56l.585.218a3.772 3.772 0 0 1 2.442 3.523zM16.272 10.56v29.96a3.924 3.924 0 0 1-3.027-3.742c-.007.095.009-22.267 0-22.477a3.916 3.916 0 0 1 3.027-3.741zm11.342 39.953V60h-1.518a2.609 2.609 0 0 1-2.6-2.6v-6.887c1.023-.003 3.092.003 4.118 0zm12.891 0V57.4a2.609 2.609 0 0 1-2.6 2.6H33.57v-9.487h6.936zm-10.906 0h1.985V60h-1.985z" opacity="1" data-original="url(#a)"></path></g></svg>