<svg xmlns="http://www.w3.org/2000/svg" version="1.1" xmlns:xlink="http://www.w3.org/1999/xlink" width="512" height="512" x="0" y="0" viewBox="0 0 512 512" style="enable-background:new 0 0 512 512" xml:space="preserve" class=""><rect width="512" height="512" rx="102.4" ry="102.4" fill="#bac8d3" shape="rounded"></rect><g transform="matrix(0.5599999999999998,0,0,0.5599999999999998,112.64021652221686,102.63979732513428)"><linearGradient id="a" x1="11.271" x2="500.729" y1="256" y2="256" gradientUnits="userSpaceOnUse"><stop offset="0" stop-color="#00c0eb"></stop><stop offset="1" stop-color="#253a5a"></stop></linearGradient><path fill="url(#a)" fill-rule="evenodd" d="M163.605 425.668V272.455H53.394v153.213zm-42.52-136.885h16.781c3.317 0 6.01 2.693 6.01 6.01s-2.693 6.01-6.01 6.01h-16.781c-3.317 0-6.01-2.693-6.01-6.01s2.693-6.01 6.01-6.01zm0 37.786h16.781c3.317 0 6.01 2.665 6.01 5.981s-2.693 6.009-6.01 6.009h-16.781c-3.317 0-6.01-2.693-6.01-6.009s2.693-5.981 6.01-5.981zm0 37.758h16.781c3.317 0 6.01 2.693 6.01 6.009s-2.693 5.981-6.01 5.981h-16.781c-3.317 0-6.01-2.665-6.01-5.981s2.693-6.009 6.01-6.009zm0 37.757h16.781c3.317 0 6.01 2.693 6.01 6.01s-2.693 6.01-6.01 6.01h-16.781c-3.317 0-6.01-2.693-6.01-6.01s2.693-6.01 6.01-6.01zM79.132 288.783h16.781c3.316 0 5.981 2.693 5.981 6.01s-2.665 6.01-5.981 6.01H79.132c-3.316 0-6.009-2.693-6.009-6.01s2.693-6.01 6.009-6.01zm0 37.786h16.781c3.316 0 5.981 2.665 5.981 5.981s-2.665 6.009-5.981 6.009H79.132c-3.316 0-6.009-2.693-6.009-6.009s2.693-5.981 6.009-5.981zm0 37.758h16.781c3.316 0 5.981 2.693 5.981 6.009s-2.665 5.981-5.981 5.981H79.132c-3.316 0-6.009-2.665-6.009-5.981s2.693-6.009 6.009-6.009zm0 37.757h16.781c3.316 0 5.981 2.693 5.981 6.01s-2.665 6.01-5.981 6.01H79.132c-3.316 0-6.009-2.693-6.009-6.01s2.693-6.01 6.009-6.01zm84.472-141.619H37.661v-30.671h125.943zm184.819 165.203h110.183V272.455H348.423zm67.691-136.885h16.781c3.316 0 5.981 2.693 5.981 6.01s-2.665 6.01-5.981 6.01h-16.781c-3.316 0-6.009-2.693-6.009-6.01s2.693-6.01 6.009-6.01zm0 37.786h16.781c3.316 0 5.981 2.665 5.981 5.981s-2.665 6.009-5.981 6.009h-16.781c-3.316 0-6.009-2.693-6.009-6.009s2.693-5.981 6.009-5.981zm0 37.758h16.781c3.316 0 5.981 2.693 5.981 6.009s-2.665 5.981-5.981 5.981h-16.781c-3.316 0-6.009-2.665-6.009-5.981s2.693-6.009 6.009-6.009zm0 37.757h16.781c3.316 0 5.981 2.693 5.981 6.01s-2.665 6.01-5.981 6.01h-16.781c-3.316 0-6.009-2.693-6.009-6.01s2.693-6.01 6.009-6.01zm-41.981-113.301h16.781c3.317 0 6.01 2.693 6.01 6.01s-2.693 6.01-6.01 6.01h-16.781c-3.288 0-5.981-2.693-5.981-6.01s2.693-6.01 5.981-6.01zm0 37.786h16.781c3.317 0 6.01 2.665 6.01 5.981s-2.693 6.009-6.01 6.009h-16.781c-3.288 0-5.981-2.693-5.981-6.009s2.693-5.981 5.981-5.981zm0 37.758h16.781c3.317 0 6.01 2.693 6.01 6.009s-2.693 5.981-6.01 5.981h-16.781c-3.288 0-5.981-2.665-5.981-5.981s2.693-6.009 5.981-6.009zm0 37.757h16.781c3.317 0 6.01 2.693 6.01 6.01s-2.693 6.01-6.01 6.01h-16.781c-3.288 0-5.981-2.693-5.981-6.01s2.693-6.01 5.981-6.01zm100.205-141.619H348.423v-30.671h125.915zM256.014 77.743l-6.01 5.386V6.99c0-3.288 2.693-5.981 6.01-5.981s5.981 2.693 5.981 5.981v76.139zm80.39 347.924V211.198H175.595v214.469h38.551V351.91h83.707v73.757zm-46.828-190.913h16.781c3.316 0 6.01 2.693 6.01 6.01s-2.693 6.009-6.01 6.009h-16.781c-3.316 0-6.009-2.693-6.009-6.009s2.693-6.01 6.009-6.01zm0 37.786h16.781c3.316 0 6.01 2.665 6.01 5.981s-2.693 6.01-6.01 6.01h-16.781c-3.316 0-6.009-2.693-6.009-6.01s2.693-5.981 6.009-5.981zm-67.124 49.748h-16.81c-3.288 0-5.981-2.665-5.981-5.981s2.693-6.01 5.981-6.01h16.81c3.288 0 5.981 2.693 5.981 6.01s-2.693 5.981-5.981 5.981zm0-37.758h-16.81c-3.288 0-5.981-2.693-5.981-6.01s2.693-5.981 5.981-5.981h16.81c3.288 0 5.981 2.665 5.981 5.981s-2.693 6.01-5.981 6.01zm0-37.758h-16.81c-3.288 0-5.981-2.693-5.981-6.009s2.693-6.01 5.981-6.01h16.81c3.288 0 5.981 2.693 5.981 6.01s-2.693 6.009-5.981 6.009zm41.953 75.515h-16.781c-3.317 0-6.01-2.665-6.01-5.981s2.693-6.01 6.01-6.01h16.781c3.317 0 5.981 2.693 5.981 6.01s-2.665 5.981-5.981 5.981zm0-37.758h-16.781c-3.317 0-6.01-2.693-6.01-6.01s2.693-5.981 6.01-5.981h16.781c3.317 0 5.981 2.665 5.981 5.981s-2.665 6.01-5.981 6.01zm0-37.758h-16.781c-3.317 0-6.01-2.693-6.01-6.009s2.693-6.01 6.01-6.01h16.781c3.317 0 5.981 2.693 5.981 6.01s-2.665 6.009-5.981 6.009zm25.172 75.515c-3.316 0-6.009-2.665-6.009-5.981s2.693-6.01 6.009-6.01h16.781c3.316 0 6.01 2.693 6.01 6.01s-2.693 5.981-6.01 5.981zm63.468-123.08H158.956v-30.671h194.088v30.671zm-26.958-42.69H185.942l70.073-62.674zm-99.949 269.15v-61.767h59.726v61.767zm248.201 42.662H37.661v-30.671h436.678zm26.391 12.019v30.643H11.271v-30.643h489.458zM321.126 38.228h-47.112V6.99h47.112z" opacity="1" data-original="url(#a)"></path></g></svg>