<svg xmlns="http://www.w3.org/2000/svg" version="1.1" xmlns:xlink="http://www.w3.org/1999/xlink" width="512" height="512" x="0" y="0" viewBox="0 0 64 64" style="enable-background:new 0 0 512 512" xml:space="preserve"><rect width="64" height="64" rx="12.8" ry="12.8" fill="#bac8d3" shape="rounded"></rect><g transform="matrix(0.7,0,0,0.7,9.599999713897706,9.600000000000001)"><linearGradient id="a" x1="14.87" x2="49.13" y1="32" y2="32" gradientUnits="userSpaceOnUse"><stop offset="0" stop-color="#00c0ff"></stop><stop offset="1" stop-color="#5558ff"></stop></linearGradient><path fill="url(#a)" d="M14.87 30.2h34.26v10.09H14.87zm0 17.18a7.012 7.012 0 0 0 5.42 6.82 6.9 6.9 0 0 0 1.58.18c.33-.073 22.417.185 21.84-.18a7.012 7.012 0 0 0 5.42-6.82v-5.09H14.87zm5.42 8.86V59a1.003 1.003 0 0 0 1 1h21.42a1.003 1.003 0 0 0 1-1v-2.76c-1.978.244-21.444.244-23.42 0zM42.13 16.1H21.87a7.008 7.008 0 0 0-7 7v5.1h34.26v-5.1a7.008 7.008 0 0 0-7-7zM19.9 6h3.03v8.1H29v-.05h-.02a3 3 0 0 1 0-6h6.04A3.025 3.025 0 0 1 35 14.1h6.07V6h3.03a1 1 0 0 0 0-2H19.9a1 1 0 0 0 0 2zM33 14.1v-2.05h2.02a1 1 0 0 0 0-2h-6.04a1 1 0 0 0 0 2H31v2.05z" opacity="1" data-original="url(#a)"></path></g></svg>