<svg xmlns="http://www.w3.org/2000/svg" version="1.1" xmlns:xlink="http://www.w3.org/1999/xlink" width="512" height="512" x="0" y="0" viewBox="0 0 64 64" style="enable-background:new 0 0 512 512" xml:space="preserve"><rect width="64" height="64" rx="12.8" ry="12.8" fill="#bac8d3" shape="rounded"></rect><g transform="matrix(0.7,0,0,0.7,9.599982833862306,9.599946784973145)"><linearGradient id="a" x1="4" x2="60" y1="32" y2="32" gradientUnits="userSpaceOnUse"><stop offset="0" stop-color="#ffa68d"></stop><stop offset="1" stop-color="#fd3a84"></stop></linearGradient><path fill="url(#a)" d="M36.19 30.864a4.316 4.316 0 0 1-1.21.62c-1.737.608-3.933-.126-4.42-1.76-.717-2.23 1.736-4.305 3.88-4.22a12.468 12.468 0 0 1 1.75 5.36zm-12.48-6.11a3.243 3.243 0 0 0 2.97-2.91 4.453 4.453 0 0 0-.16-2.11 12.84 12.84 0 0 0-5.62.01c-.796 2.042.569 5.07 2.81 5.01zm8.34 13.63c-4.104-3.534-7.38 2.144-3.44 5.1a12.347 12.347 0 0 0 4.55-3.31 4.352 4.352 0 0 0-1.11-1.79zm-15.19-8.66c.726-2.219-1.734-4.307-3.87-4.22a12.572 12.572 0 0 0-1.75 5.36 4.318 4.318 0 0 0 1.21.62c1.735.607 3.935-.125 4.41-1.76zm6.85.22a2.01 2.01 0 0 0 0 4.02 2.01 2.01 0 0 0 0-4.02zM60 22.889v11.914a1.006 1.006 0 0 1-1.244.97c.09-.122-8.174-1.349-21.866 10.81C24.474 57.96 3.943 48.951 4 31.953c.974-25.578 37.235-26.385 39.39-.94a19.762 19.762 0 0 1 15.538-9.122A1 1 0 0 1 60 22.89zm-40.88.485a4.807 4.807 0 0 0 8.98.48c1.837-3.522-.483-8.47-4.39-8.42-3.652-.08-6.083 4.484-4.59 7.94zm-.87 3.01a6.235 6.235 0 0 0-7.51-2.44c-4.514 1.878-3.546 8.027 1.09 9.44 4.432 1.56 9.022-2.675 6.42-7zm-4.99 11.4c-4.261 6.25 3.66 11.866 8.18 5.85 4.156-6.323-3.778-11.677-8.18-5.85zm14.46-5.83a4.01 4.01 0 0 0-8.02 0 4.01 4.01 0 0 0 8.02 0zm-.95 4.21c-5.233 4.101 1.118 12.87 6.65 9.16 5.264-4.076-1.146-12.901-6.65-9.16zm5.72-12.35c-7.055 2.513-4.097 11.663 3.11 9.57 7.153-2.645 3.948-11.683-3.11-9.57zM45.636 37.69 44.54 32.86c-2.197 3.877-1.497 4.376-2.993 7.482q2.17-1.542 4.09-2.65zm5.494-2.627-1.245-8.05a17.91 17.91 0 0 0-3.807 3.592l1.383 6.09a33.54 33.54 0 0 1 3.67-1.632zM58 23.99a18.217 18.217 0 0 0-6.264 1.908l1.32 8.528a16.575 16.575 0 0 1 4.944-.73zM19.48 37.774c-1.944-1.366-4.63.332-5.22 2.4a12.516 12.516 0 0 0 4.56 3.31 4.165 4.165 0 0 0 .96-.96c1.113-1.463 1.108-3.773-.3-4.75z" opacity="1" data-original="url(#a)"></path></g></svg>