<svg xmlns="http://www.w3.org/2000/svg" version="1.1" xmlns:xlink="http://www.w3.org/1999/xlink" width="512" height="512" x="0" y="0" viewBox="0 0 64 64" style="enable-background:new 0 0 512 512" xml:space="preserve"><rect width="64" height="64" rx="12.8" ry="12.8" fill="#bac8d3" shape="rounded"></rect><g transform="matrix(0.7,0,0,0.7,9.600000572204593,9.597355842590332)"><linearGradient id="a" x1="11.99" x2="52.01" y1="32.003" y2="32.003" gradientUnits="userSpaceOnUse"><stop offset="0" stop-color="#ffa68d"></stop><stop offset="1" stop-color="#fd3a84"></stop></linearGradient><path fill="url(#a)" d="M52.01 19.38v19.48H33V19.38zM34.8 47.83c-.003-.962.002-2.9 0-3.86l-5.61.05c-.099-.115.014 3.312.01 3.81zM23.4 11.19V7a3.002 3.002 0 0 1 3-3h11.2a3.002 3.002 0 0 1 3 3v4.19a2.996 2.996 0 0 1-3 3H26.4a2.996 2.996 0 0 1-3-3zM33.9 9.1a.95.95 0 0 0 1.9 0 .95.95 0 0 0-1.9 0zm-5.14.95a.955.955 0 0 0 0-1.91.955.955 0 0 0 0 1.91zm23.09 7.33c-.79-5.04-4.57-8.98-9.25-9.52v3.33a5.02 5.02 0 0 1-5 5H26.4a5.02 5.02 0 0 1-5-5c-.015-.78.011-2.536 0-3.33-4.68.54-8.46 4.48-9.25 9.52zM31 38.86V19.38H11.99v19.48c.626-.01 17.882.008 19.01 0zm21.01 2v3.85a3.02 3.02 0 0 1-2.9 3.12H36.8v-3.86a1.953 1.953 0 0 0-1.95-1.95h-5.7a1.953 1.953 0 0 0-1.95 1.95v3.86H14.89a3.02 3.02 0 0 1-2.9-3.12v-3.85zm-31.42 3.11a.95.95 0 0 0 0-1.9.95.95 0 0 0 0 1.9zm-3.8 0a.95.95 0 0 0 0-1.9.95.95 0 0 0 0 1.9zm30.42 0a.95.95 0 0 0 0-1.9.95.95 0 0 0 0 1.9zm-3.8 0a.95.95 0 0 0 0-1.9.95.95 0 0 0 0 1.9zm.444 8.51h2.076a2.892 2.892 0 0 0 2.69-1.81l.34-.84s-28.364.002-33.92 0c.446 1.447 1.396 2.664 3.03 2.65h2.076l-5.063 5.867a1 1 0 0 0 1.514 1.306l6.19-7.173h18.425l6.19 7.173a1 1 0 0 0 1.514-1.306z" opacity="1" data-original="url(#a)"></path></g></svg>