<svg xmlns="http://www.w3.org/2000/svg" version="1.1" xmlns:xlink="http://www.w3.org/1999/xlink" width="512" height="512" x="0" y="0" viewBox="0 0 64 64" style="enable-background:new 0 0 512 512" xml:space="preserve" class=""><rect width="64" height="64" rx="12.8" ry="12.8" fill="#bac8d3" shape="rounded"></rect><g transform="matrix(0.7,0,0,0.7,9.600070095062257,9.599999856948855)"><linearGradient id="a" x1="4" x2="60" y1="32" y2="32" gradientUnits="userSpaceOnUse"><stop offset="0" stop-color="#00c0ff"></stop><stop offset="1" stop-color="#5558ff"></stop></linearGradient><path fill="url(#a)" d="M34.129 17.04a2.739 2.739 0 0 0-4.25 0c-3.99 4.98-10.66 14.06-10.66 18.97.695 15.877 24.864 15.879 25.56 0 0-4.91-6.67-13.99-10.65-18.97zm-2.13 25.63a8.735 8.735 0 0 1-7.23-3.69.999.999 0 1 1 1.64-1.14 6.73 6.73 0 0 0 5.59 2.83 1 1 0 0 1 0 2zM28.396 7.192l2.887-2.887a1.003 1.003 0 0 1 1.432 0l2.887 2.887a1 1 0 0 1-1.414 1.414l-1.19-1.189v5.767a1 1 0 0 1-2 0V7.417l-1.188 1.19a1 1 0 0 1-1.414-1.415zM17.005 11.91a1 1 0 0 1 0 2h-1.682l4.078 4.078a1 1 0 0 1-1.414 1.414l-4.078-4.077v1.681a1 1 0 0 1-2 0c.102-6.118-1.023-4.994 5.096-5.096zm-8.4 22.28a1 1 0 0 1-1.414 1.414c-4.253-4.4-4.256-2.807 0-7.208a1 1 0 0 1 1.414 1.414L7.416 31h5.767a1 1 0 1 1 0 2H7.416zm10.796 11.822-4.078 4.078h1.682a1 1 0 0 1 0 2h-4.084a1.001 1.001 0 0 1-1.012-1.012v-4.084a1 1 0 0 1 2 0v1.681l4.078-4.077a1 1 0 0 1 1.414 1.414zm16.201 10.796-2.887 2.887a1.003 1.003 0 0 1-1.432 0l-2.887-2.887a1 1 0 0 1 1.414-1.414l1.189 1.189v-5.767a1 1 0 0 1 2 0v5.767l1.189-1.19a1 1 0 0 1 1.414 1.415zm11.39-4.718a1 1 0 0 1 0-2h1.682l-4.077-4.078a1 1 0 0 1 1.414-1.414l4.077 4.077v-1.681a1 1 0 0 1 2 0c-.102 6.118 1.025 4.995-5.095 5.096zm12.7-19.373-2.885 2.887a1 1 0 0 1-1.415-1.414l1.19-1.19h-5.767a1 1 0 0 1 0-2h5.767l-1.19-1.19a1 1 0 0 1 1.415-1.414l2.886 2.887a.99.99 0 0 1 0 1.434zm-15.095-14.73 4.077-4.077h-1.681a1 1 0 0 1 0-2h4.083a1.003 1.003 0 0 1 1.013 1.012v4.084a1 1 0 0 1-2 0v-1.681l-4.078 4.077a1 1 0 1 1-1.414-1.414z" opacity="1" data-original="url(#a)"></path></g></svg>