<svg xmlns="http://www.w3.org/2000/svg" version="1.1" xmlns:xlink="http://www.w3.org/1999/xlink" width="512" height="512" x="0" y="0" viewBox="0 0 24 24" style="enable-background:new 0 0 512 512" xml:space="preserve"><rect width="24" height="24" rx="4.8" ry="4.8" fill="#bac8d3" shape="rounded"></rect><g transform="matrix(0.72,0,0,0.72,3.360000000000003,3.219979839324953)"><linearGradient id="a" x1="12" x2="12" y1="4" y2="19" gradientUnits="userSpaceOnUse"><stop offset="0" stop-color="#fd6700"></stop><stop offset="1" stop-color="#ffce00"></stop></linearGradient><path fill="url(#a)" fill-rule="evenodd" d="M9.21 4.386a1 1 0 0 1 1.404-.175L19.344 11h.088c.252 0 .498 0 .706.017.229.019.499.063.77.201a2 2 0 0 1 .874.874c.138.271.182.541.201.77.017.208.017.454.017.706v1.27c0 .528 0 .983-.03 1.357-.033.395-.104.789-.297 1.167a3 3 0 0 1-1.311 1.311c-.378.193-.772.264-1.167.297-.375.03-.83.03-1.357.03H6.161c-.527 0-.981 0-1.356-.03-.395-.033-.789-.104-1.167-.297a3 3 0 0 1-1.311-1.311c-.193-.378-.264-.772-.296-1.167C2 15.821 2 15.365 2 14.84v-1.27c0-.253 0-.499.017-.707.019-.229.063-.498.201-.77a2 2 0 0 1 .874-.874c.271-.138.541-.182.77-.201C4.07 11 4.316 11 4.568 11h11.517L9.386 5.79a1 1 0 0 1-.175-1.404zM18.99 13H4.6a8.205 8.205 0 0 0-.589.012v.013C4 13.14 4 13.304 4 13.6v1.2c0 .577 0 .949.024 1.232.022.272.06.373.085.422a1 1 0 0 0 .437.437c.05.025.15.063.422.085C5.25 17 5.623 17 6.2 17h11.6c.577 0 .949 0 1.232-.024.272-.022.373-.06.422-.085a1 1 0 0 0 .437-.437c.025-.05.063-.15.085-.422C20 15.75 20 15.377 20 14.8v-1.2a8.203 8.203 0 0 0-.012-.588l-.013-.002A8.207 8.207 0 0 0 19.4 13H18.989zM17 15a1 1 0 0 1 1-1h.01a1 1 0 0 1 0 2H18a1 1 0 0 1-1-1z" clip-rule="evenodd" opacity="1" data-original="url(#a)"></path></g></svg>