<svg xmlns="http://www.w3.org/2000/svg" version="1.1" xmlns:xlink="http://www.w3.org/1999/xlink" width="512" height="512" x="0" y="0" viewBox="0 0 512 512" style="enable-background:new 0 0 512 512" xml:space="preserve"><rect width="512" height="512" rx="102.4" ry="102.4" fill="#bac8d3" shape="rounded"></rect><g transform="matrix(0.68,0,0,0.68,81.93599487304687,81.92000366210937)"><linearGradient id="a" x1="256.05" x2="256.05" y1="51.8" y2="460.2" gradientUnits="userSpaceOnUse"><stop offset="0" stop-color="#f704fe"></stop><stop offset="1" stop-color="#24bce3"></stop></linearGradient><path fill="url(#a)" d="M415.2 422.7H96.8c-5.2 0-9.9-3.2-11.6-8.1l-14.3-38.4c-1.5-3.9-2.3-8.1-2.3-12.2V122c0-23.4 19-42.4 42.4-42.4h290c23.4 0 42.4 19 42.4 42.4v242c0 4.1-.8 8.3-2.3 12.2l-14.5 38.5c-1.6 4.7-6.3 8-11.4 8zM111.1 89.3c-18 0-32.7 14.6-32.7 32.7v242c0 2.9.6 5.9 1.6 8.7l14.3 38.5c.4 1 1.4 1.7 2.5 1.7H415c.9 0 2-.5 2.5-1.6v-.1l14.4-38.4c1-2.8 1.6-5.8 1.6-8.7V122c0-18-14.6-32.7-32.7-32.7zm228.7 32.6H172.2c-7.3 0-13.3-6-13.3-13.3V84.5c0-2.7 2.2-4.8 4.8-4.8s4.8 2.2 4.8 4.8v24.1c0 1.9 1.6 3.5 3.5 3.5h167.5c1.9 0 3.5-1.6 3.5-3.5V84.5c0-2.7 2.2-4.8 4.8-4.8s4.8 2.2 4.8 4.8v24.1c.5 7.3-5.5 13.3-12.8 13.3zm-40.5-32.5c-2.7 0-4.8-2.2-4.8-4.8V61.8c0-.1-.1-.2-.2-.2h-76.5c-.1 0-.2.1-.2.2v22.7c0 2.7-2.2 4.8-4.8 4.8s-4.8-2.2-4.8-4.8V61.8c0-5.5 4.5-10 10-10h76.5c5.5 0 10 4.5 10 10v22.8c-.4 2.6-2.5 4.8-5.2 4.8zM153.7 393.7c-12 0-21.7-9.7-21.7-21.7s9.7-21.7 21.7-21.7 21.7 9.7 21.7 21.7c.1 12-9.7 21.7-21.7 21.7zm0-33.6c-6.6 0-12 5.3-12 12 0 6.6 5.3 12 12 12 6.6 0 12-5.3 12-12s-5.3-12-12-12zm204.6 33.6c-12 0-21.7-9.7-21.7-21.7s9.7-21.7 21.7-21.7S380 360 380 372c-.1 12-9.8 21.7-21.7 21.7zm0-33.6c-6.6 0-12 5.3-12 12 0 6.6 5.3 12 12 12 6.6 0 12-5.3 12-12-.1-6.7-5.5-12-12-12zm-102.3-29c-2.7 0-4.8-2.2-4.8-4.8V150c0-2.7 2.2-4.8 4.8-4.8 2.7 0 4.8 2.2 4.8 4.8v176.3c0 2.6-2.1 4.8-4.8 4.8zM438.6 155H73.4c-2.7 0-4.8-2.2-4.8-4.8s2.2-4.8 4.8-4.8h365.1c2.7 0 4.8 2.2 4.8 4.8s-2 4.8-4.7 4.8zm0 176.1H73.4c-2.7 0-4.8-2.2-4.8-4.8 0-2.7 2.2-4.8 4.8-4.8h365.1c2.7 0 4.8 2.2 4.8 4.8.2 2.6-2 4.8-4.7 4.8zm-308.6 0c-1.7 0-3.4-.9-4.3-2.6-1.2-2.4-.4-5.3 2-6.6l41.7-22.5v-18.7c0-2.7 2.2-4.8 4.8-4.8 2.7 0 4.8 2.2 4.8 4.8v21.6c0 1.8-.9 3.4-2.6 4.3l-44.3 23.8c-.5.5-1.3.7-2.1.7zm3.3-30.8c-2 0-3.9-1.2-4.6-3.2-.9-2.6.4-5.3 2.9-6.3l66.2-23.6c2.6-.9 5.3.4 6.3 2.9s-.4 5.3-2.9 6.3L135 300.1c-.6.2-1.1.2-1.7.2zm14.9 159.9h-23.6c-11.1 0-20.1-9-20.1-20.1v-22.3c0-2.7 2.2-4.8 4.8-4.8s4.8 2.2 4.8 4.8V440c0 5.7 4.7 10.4 10.4 10.4h23.6c5.7 0 10.4-4.7 10.4-10.4v-22.3c0-2.7 2.2-4.8 4.8-4.8s4.8 2.2 4.8 4.8V440c.2 11.2-8.8 20.2-19.9 20.2zm239.1 0h-23.6c-11.1 0-20.1-9-20.1-20.1v-22.3c0-2.7 2.2-4.8 4.8-4.8 2.7 0 4.8 2.2 4.8 4.8V440c0 5.7 4.7 10.4 10.4 10.4h23.6c5.7 0 10.4-4.7 10.4-10.4v-22.3c0-2.7 2.2-4.8 4.8-4.8s4.8 2.2 4.8 4.8V440c.3 11.2-8.8 20.2-19.9 20.2zM73.4 246.5h-18c-7.9 0-14.3-6.5-14.3-14.3v-48.8c0-7.9 6.5-14.3 14.3-14.3h18c2.7 0 4.8 2.2 4.8 4.8s-2.2 4.8-4.8 4.8h-18c-2.6 0-4.6 2.1-4.6 4.6v48.8c0 2.6 2.1 4.6 4.6 4.6h18c2.7 0 4.8 2.2 4.8 4.8s-2.1 5-4.8 5zm383.3 0h-18c-2.7 0-4.8-2.2-4.8-4.8s2.2-4.8 4.8-4.8h18c2.6 0 4.6-2.1 4.6-4.6v-48.8c0-2.6-2.1-4.6-4.6-4.6h-18c-2.7 0-4.8-2.2-4.8-4.8s2.2-4.8 4.8-4.8h18c7.9 0 14.3 6.5 14.3 14.3v48.8c0 7.6-6.5 14.1-14.3 14.1zm-144.2 84.6c-1.7 0-3.4-.9-4.3-2.6-1.2-2.4-.4-5.3 2-6.6l41.7-22.5v-18.7c0-2.7 2.2-4.8 4.8-4.8 2.7 0 4.8 2.2 4.8 4.8v21.6c0 1.8-.9 3.4-2.6 4.3l-44.3 23.8c-.5.5-1.3.7-2.1.7zm3.4-30.8c-2 0-3.9-1.2-4.6-3.2-.9-2.6.4-5.3 2.9-6.3l66.1-23.6c2.6-.9 5.3.4 6.3 2.9s-.4 5.3-2.9 6.3L317.6 300c-.5.3-1.1.3-1.7.3zm-17.2 93.4h-85.6c-5.3 0-9.6-4.3-9.6-9.6v-24.2c0-5.3 4.3-9.6 9.6-9.6h85.6c5.3 0 9.6 4.3 9.6 9.6V384c.1 2.6-.9 4.9-2.6 6.7-1.8 2-4.4 3-7 3zm-85.3-9.8h85.1v-23.8h-85.1z" opacity="1" data-original="url(#a)"></path></g></svg>