<svg xmlns="http://www.w3.org/2000/svg" version="1.1" xmlns:xlink="http://www.w3.org/1999/xlink" width="512" height="512" x="0" y="0" viewBox="0 0 512 512" style="enable-background:new 0 0 512 512" xml:space="preserve"><rect width="512" height="512" rx="102.4" ry="102.4" fill="#bac8d3" shape="rounded"></rect><g transform="matrix(0.5999999999999999,0,0,0.5999999999999999,102.40000000000003,102.40001220703127)"><linearGradient id="a" x1="54.022" x2="457.978" y1="457.978" y2="54.022" gradientUnits="userSpaceOnUse"><stop offset="0" stop-color="#f803fe"></stop><stop offset="1" stop-color="#0ecbde"></stop></linearGradient><path fill="url(#a)" d="M483.361 90.036H28.639c-14.174 0-25.708 11.533-25.708 25.708v280.513c0 14.174 11.533 25.707 25.708 25.707h454.722c14.174 0 25.708-11.533 25.708-25.707V115.743c-.001-14.174-11.534-25.707-25.708-25.707zm15.424 306.221c0 8.506-6.919 15.424-15.424 15.424H28.639c-8.506 0-15.425-6.919-15.425-15.424V115.743c0-8.506 6.919-15.425 15.425-15.425h454.722c8.506 0 15.424 6.919 15.424 15.425zM153.13 136.309c0-2.839 2.3-5.142 5.141-5.142h195.457a5.14 5.14 0 0 1 5.142 5.142 5.14 5.14 0 0 1-5.142 5.141H158.271a5.138 5.138 0 0 1-5.141-5.141zm-13.537 53.479c-52.67 0-95.519 42.852-95.519 95.522 0 52.2 42.305 95.522 95.519 95.522 53.326 0 95.524-43.45 95.524-95.522.001-52.67-42.854-95.522-95.524-95.522zm0 180.761c-47.508 0-85.236-38.686-85.236-85.239 0-47.002 38.235-85.239 85.236-85.239s85.241 38.237 85.241 85.239c.001 46.468-37.664 85.239-85.241 85.239zm19.725-69.321c7.75-5.947 12.777-15.274 12.777-25.774v-20.641c0-17.925-14.586-32.506-32.511-32.506s-32.506 14.581-32.506 32.506v20.641c0 10.476 5.002 19.784 12.719 25.734-14.975 5.494-27.165 17.115-33.215 32.656a5.139 5.139 0 0 0 2.922 6.655 5.136 5.136 0 0 0 6.658-2.925c11.994-30.797 43.936-29.776 43.422-29.611 19.394 0 36.488 11.816 43.457 29.571 1.034 2.649 4.027 3.936 6.663 2.912a5.14 5.14 0 0 0 2.907-6.665c-5.95-15.179-17.969-26.899-33.293-32.553zm-41.958-25.774v-20.641c0-12.254 9.967-22.223 22.223-22.223s22.228 9.969 22.228 22.223v20.641c0 12.215-9.907 22.145-22.106 22.213-.026 0 .085-.002-.245 0-12.198-.068-22.1-9.999-22.1-22.213zm218.996-56.82c2.842 0 5.142 2.302 5.142 5.142s-2.3 5.141-5.142 5.141h-49.03a5.141 5.141 0 1 1 0-10.283zm131.58 46.165c0 2.839-2.3 5.142-5.142 5.142H287.326a5.14 5.14 0 0 1-5.142-5.142 5.14 5.14 0 0 1 5.142-5.141h175.469a5.14 5.14 0 0 1 5.141 5.141zm0 41.022a5.14 5.14 0 0 1-5.142 5.141H287.326a5.141 5.141 0 1 1 0-10.283h175.469a5.14 5.14 0 0 1 5.141 5.142zm0 41.024c0 2.839-2.3 5.142-5.142 5.142H287.326c-2.842 0-5.142-2.302-5.142-5.142s2.3-5.142 5.142-5.142h175.469a5.14 5.14 0 0 1 5.141 5.142z" opacity="1" data-original="url(#a)"></path></g></svg>