<svg xmlns="http://www.w3.org/2000/svg" version="1.1" xmlns:xlink="http://www.w3.org/1999/xlink" width="512" height="512" x="0" y="0" viewBox="0 0 512 512" style="enable-background:new 0 0 512 512" xml:space="preserve" class=""><rect width="512" height="512" rx="102.4" ry="102.4" fill="#bac8d3" shape="rounded"></rect><g transform="matrix(0.6099999999999999,0,0,0.6099999999999999,99.87309310913088,94.83923377156262)"><linearGradient id="a" x1="256" x2="256" y1="1.209" y2="510.791" gradientUnits="userSpaceOnUse"><stop offset="0" stop-color="#faac1e"></stop><stop offset="1" stop-color="#eb1b45"></stop></linearGradient><path fill="url(#a)" d="m197.967 290.453 13.789-13.789c45.278 34.259 94.435 47.292 122.347 52.168a262.368 262.368 0 0 0 44.684 4.051c27.556 0 49.769-5.221 59.462-14.915a4.981 4.981 0 0 0 1.465-3.535V183.948a5 5 0 0 0-5-5h-35.148l-22.607-22.608a5 5 0 0 0-7.07 0 33.2 33.2 0 0 0 46.954 46.96 5 5 0 0 0 0-7.071l-7.277-7.276h20.148v113.409L130.026 2.673a5 5 0 0 0-7.07 0c-13.479 13.48-17.653 56.867-9.925 103.164 4.452 26.667 16 72.289 45.532 115.228l-14.992 14.992a38.457 38.457 0 0 0 10.094 61.643v44.767h-8.991a17.962 17.962 0 0 0-17.735 15.489l-13.05 96.108h-13.242a28.362 28.362 0 0 0 0 56.723h310.707a28.362 28.362 0 0 0 0-56.723H233.122l-14.54-96.364a17.792 17.792 0 0 0-17.7-15.228h-11.51v-45.553a38.334 38.334 0 0 0 8.595-6.466zm178.992-94.229a23.243 23.243 0 0 1-3.151-28.893l32.045 32.045a23.244 23.244 0 0 1-28.894-3.152zM127.083 13.872 427.15 313.94c-13.968 8.318-48.085 12.6-91.326 5.041-32.093-5.606-93.267-22.348-142.4-71.481-48.675-48.675-65.081-110.681-70.527-143.31-6.873-41.155-3.335-76.423 4.186-90.318zm23.559 269.509a28.462 28.462 0 0 1 0-40.253l13.83-13.83a235.629 235.629 0 0 0 21.881 25.273c5.7 5.7 11.558 10.957 17.506 15.848L190.9 283.382c-.492.492-1 .956-1.524 1.407v-6.859a17.854 17.854 0 1 0-35.707 0v8.076a28.8 28.8 0 0 1-3.027-2.625zm28.73-5.451v87.552a7.854 7.854 0 0 1-15.707 0V277.93a7.854 7.854 0 1 1 15.707 0zm250.342 204.5a18.382 18.382 0 0 1-18.36 18.362H100.647a18.362 18.362 0 0 1 0-36.723h310.707a18.381 18.381 0 0 1 18.36 18.36zM200.885 352.471a7.85 7.85 0 0 1 7.808 6.72l14.316 94.877H123.98l12.868-94.762a7.926 7.926 0 0 1 7.826-6.835h8.991v13.011a17.854 17.854 0 0 0 35.707 0v-13.011zM269.53 23.5a5 5 0 0 1 9.819-1.9A127.486 127.486 0 0 0 322.2 94.619a127.482 127.482 0 0 0 79.224 29.856 5 5 0 0 1-.1 10h-.107a137.505 137.505 0 0 1-85.456-32.208A137.519 137.519 0 0 1 269.53 23.5zm33.4-6.5a5 5 0 0 1 9.818-1.9 93.385 93.385 0 0 0 31.389 53.487 93.39 93.39 0 0 0 58.033 21.871 5 5 0 0 1-.1 10h-.107a103.427 103.427 0 0 1-64.266-24.223A103.41 103.41 0 0 1 302.931 17zm33.381-6.5a5 5 0 0 1 9.816-1.9 58.536 58.536 0 0 0 19.947 33.955 58.532 58.532 0 0 0 36.844 13.9 5 5 0 0 1-.1 10h-.108A69.358 69.358 0 0 1 359.632 50.2a69.36 69.36 0 0 1-23.32-39.7z" opacity="1" data-original="url(#a)"></path></g></svg>