<svg xmlns="http://www.w3.org/2000/svg" version="1.1" xmlns:xlink="http://www.w3.org/1999/xlink" width="512" height="512" x="0" y="0" viewBox="0 0 512 512" style="enable-background:new 0 0 512 512" xml:space="preserve" class=""><rect width="512" height="512" rx="102.4" ry="102.4" fill="#bac8d3" shape="rounded"></rect><g transform="matrix(0.6499999999999998,0,0,0.6499999999999998,89.60000801086431,89.60000029206279)"><linearGradient id="a" x1="134.006" x2="374.94" y1="450.181" y2="32.87" gradientUnits="userSpaceOnUse"><stop offset="0" stop-color="#05f79e"></stop><stop offset="1" stop-color="#03b0f0"></stop></linearGradient><path fill="url(#a)" d="M97.884 147.593a7.497 7.497 0 0 1-10.245 2.745l-34.904-20.152a7.5 7.5 0 0 1 7.5-12.99l34.904 20.152a7.498 7.498 0 0 1 2.745 10.245zm-24.46 91.287a7.5 7.5 0 0 0-7.5-7.5H25.62a7.5 7.5 0 0 0 0 15h40.304a7.5 7.5 0 0 0 7.5-7.5zm14.215 88.544-34.904 20.151a7.5 7.5 0 0 0 7.5 12.99l34.904-20.151a7.5 7.5 0 0 0-7.5-12.99zm332.979-176.081a7.465 7.465 0 0 0 3.743-1.006l34.904-20.151a7.5 7.5 0 0 0-7.5-12.99l-34.904 20.151a7.5 7.5 0 0 0 3.757 13.996zm-73.33-70.579a7.497 7.497 0 0 0 10.245-2.745l20.152-34.904a7.5 7.5 0 0 0-12.99-7.5l-20.152 34.904a7.5 7.5 0 0 0 2.745 10.245zM256 56.303a7.5 7.5 0 0 0 7.5-7.5V8.5a7.5 7.5 0 0 0-15 0v40.303a7.5 7.5 0 0 0 7.5 7.5zM154.466 78.019a7.497 7.497 0 0 0 10.245 2.745 7.5 7.5 0 0 0 2.745-10.245l-20.151-34.904a7.5 7.5 0 0 0-12.99 7.5zM486.38 231.38h-40.304a7.5 7.5 0 0 0 0 15h40.304a7.5 7.5 0 0 0 0-15zm-27.115 116.195-34.904-20.152a7.5 7.5 0 0 0-7.5 12.99l34.904 20.152a7.497 7.497 0 0 0 10.245-2.745 7.498 7.498 0 0 0-2.745-10.245zm-110.667 4.646c-5.279 5.981-9.17 10.954-12.161 15.609 7.118 2.635 12.216 9.472 12.216 17.496v20.709c0 4.191-1.405 8.051-3.746 11.17 2.341 3.119 3.746 6.979 3.746 11.17v20.709c0 10.295-8.375 18.67-18.67 18.67h-15.715C307.127 493.156 283.593 511 256.018 511c-27.577 0-51.109-17.843-58.246-43.246h-15.753c-10.294 0-18.67-8.375-18.67-18.67v-20.709c0-4.191 1.405-8.051 3.746-11.17-2.341-3.119-3.746-6.979-3.746-11.17v-20.709c0-8.023 5.096-14.86 12.214-17.495-2.99-4.655-6.882-9.628-12.161-15.61-32.052-36.312-48.994-77.655-48.994-119.56 0-35.937 14.752-69.782 41.54-95.3 26.64-25.377 62.139-39.609 99.96-40.074h.185c37.821.465 73.321 14.697 99.96 40.074 26.787 25.518 41.54 59.363 41.54 95.3-.001 41.903-16.943 83.247-48.995 119.56zm-166.579 29.435c-1.989 0-3.67 1.681-3.67 3.67v20.709c0 1.989 1.681 3.67 3.67 3.67h147.964c1.989 0 3.67-1.681 3.67-3.67v-20.709c0-1.989-1.681-3.67-3.67-3.67zm116.445 86.098h-84.89C220.155 484.543 236.769 496 256.018 496c19.248 0 35.863-11.457 42.446-28.246zm35.188-39.379c0-1.989-1.681-3.67-3.67-3.67H182.019c-1.989 0-3.67 1.681-3.67 3.67v20.709c0 1.989 1.681 3.67 3.67 3.67h147.964c1.989 0 3.67-1.681 3.67-3.67v-20.709zm3.7-86.08c29.597-33.53 45.24-71.441 45.24-109.634 0-65.488-56.779-119.469-126.592-120.374-69.813.904-126.592 54.886-126.592 120.374 0 38.193 15.644 76.104 45.24 109.634 8.343 9.452 13.69 16.842 17.549 24.361h127.606c3.859-7.52 9.206-14.909 17.549-24.361zm-6.645-112.436c2.075 4.947 1.187 10.549-2.32 14.619l-83.734 97.191c-2.75 3.192-6.632 4.887-10.6 4.887-2.255 0-4.537-.547-6.655-1.676-5.847-3.117-8.707-9.745-6.953-16.118l19.058-69.261-46.154-3.014c-5.36-.351-9.98-3.641-12.055-8.587-2.076-4.947-1.188-10.549 2.319-14.619l83.735-97.193c4.314-5.008 11.41-6.327 17.257-3.209 5.846 3.117 8.705 9.745 6.952 16.116L272.5 218.257l46.152 3.015c5.36.35 9.979 3.64 12.055 8.587zm-14.915 6.258-53.455-3.492a7.501 7.501 0 0 1-6.743-9.474l20.39-74.107-79.777 92.598 53.457 3.491a7.498 7.498 0 0 1 6.743 9.474l-20.392 74.107z" opacity="1" data-original="url(#a)"></path></g></svg>