<svg xmlns="http://www.w3.org/2000/svg" version="1.1" xmlns:xlink="http://www.w3.org/1999/xlink" width="512" height="512" x="0" y="0" viewBox="0 0 64 64" style="enable-background:new 0 0 512 512" xml:space="preserve"><rect width="64" height="64" rx="12.8" ry="12.8" fill="#bac8d3" shape="rounded"></rect><g transform="matrix(0.69,0,0,0.69,9.920000295639042,9.920000000000002)"><linearGradient id="a" x1="16.403" x2="47.597" y1="32" y2="32" gradientUnits="userSpaceOnUse"><stop offset="0" stop-color="#ffa68d"></stop><stop offset="1" stop-color="#fd3a84"></stop></linearGradient><path fill="url(#a)" d="M41.035 12.346h-.425V5h2.54a1 1 0 0 0 0-2h-22.3a1 1 0 0 0 0 2h2.53v7.346h-.415a6.57 6.57 0 0 0-6.562 6.563V49.62a6.6 6.6 0 0 0 6.98 6.563V60a1 1 0 0 0 1 1h15.233a1 1 0 0 0 1-1v-3.816a6.6 6.6 0 0 0 6.981-6.563V18.91a6.57 6.57 0 0 0-6.562-6.563zm-2.425 0H33V9.693h1.632a1 1 0 0 0 0-2h-5.264a1 1 0 0 0 0 2H31v2.653h-5.61V5h13.22zm-15.645 2h18.07a4.567 4.567 0 0 1 4.562 4.563v6.22H18.403v-6.22a4.567 4.567 0 0 1 4.562-4.563zM44.938 27.13V41.4H19.062V27.13zM38.616 59H25.384v-2.816h13.232zm2.42-4.816H22.964a4.567 4.567 0 0 1-4.562-4.563V43.4h27.194v6.221a4.567 4.567 0 0 1-4.562 4.563zM20.637 34.833v-1.04a3.858 3.858 0 0 1 3.853-3.853h2.267a1 1 0 0 1 0 2H24.49a1.856 1.856 0 0 0-1.853 1.853v1.04a1.856 1.856 0 0 0 1.853 1.853h1.267v-1.373h-.808a1 1 0 1 1 0-2h1.808a1 1 0 0 1 1 1v3.373a1 1 0 0 1-1 1H24.49a3.858 3.858 0 0 1-3.853-3.853zm8.51 3.8a1 1 0 0 0 1.304-.546l.761-1.858h2.17l.762 1.858a1 1 0 0 0 1.85-.758c-.618-1.526-2.135-5.205-2.771-6.768a1.006 1.006 0 0 0-1.85 0l-1.754 4.28-1.018 2.488a1 1 0 0 0 .546 1.304zm3.417-4.404h-.533l.266-.65zm8.113.826h-1.07c-3.568-.094-3.51-5.61 0-5.689h1.551a2.254 2.254 0 0 1 2.203 2.297 1.044 1.044 0 0 1-1 1.23 1 1 0 0 1-1-1c.017-.177-.004-.527-.203-.527h-1.55a.76.76 0 0 0-.685.816c.018 1.139 1.034.837 1.754.873 3.538.094 3.54 5.535 0 5.631h-1.55a2.254 2.254 0 0 1-2.204-2.297 1 1 0 0 1 2 0c0 .17.108.297.203.297h1.55c.895-.002.894-1.629 0-1.631z" opacity="1" data-original="url(#a)"></path></g></svg>