<svg xmlns="http://www.w3.org/2000/svg" version="1.1" xmlns:xlink="http://www.w3.org/1999/xlink" width="512" height="512" x="0" y="0" viewBox="0 0 64 64" style="enable-background:new 0 0 512 512" xml:space="preserve" class=""><rect width="64" height="64" rx="12.8" ry="12.8" fill="#bac8d3" shape="rounded"></rect><g transform="matrix(0.7,0,0,0.7,9.600000000000001,9.600000572204593)"><linearGradient id="a" x1="4" x2="60" y1="32" y2="32" gradientUnits="userSpaceOnUse"><stop offset="0" stop-color="#ffa68d"></stop><stop offset="1" stop-color="#fd3a84"></stop></linearGradient><path fill="url(#a)" d="M57 13.643H7a3.003 3.003 0 0 0-3 3v30.714a3.003 3.003 0 0 0 3 3h50a3.003 3.003 0 0 0 3-3V16.643a3.003 3.003 0 0 0-3-3zM39.75 28.067c3.46-2.178 6.378-3.572 7.505-3.572a3.648 3.648 0 0 1 0 7.295c-1.127 0-4.045-1.394-7.505-3.572zm-2 20.29H7a1.001 1.001 0 0 1-1-1V29.143h18.7a5.646 5.646 0 0 0 5.545 4.648c1.516 0 4.087-1.248 6.336-2.535l-6.035 7.192a1 1 0 0 0 1.532 1.285l5.672-6.759zm0-20.139c-3.46 2.178-6.378 3.572-7.505 3.572a3.648 3.648 0 0 1 0-7.295c1.127 0 4.045 1.394 7.505 3.572zm0-2.502c-2.463-1.487-5.718-3.221-7.505-3.221a5.646 5.646 0 0 0-5.544 4.648H6v-10.5a1.001 1.001 0 0 1 1-1h30.75zM58 47.357a1.001 1.001 0 0 1-1 1H39.75V32.974l5.672 6.76a1 1 0 0 0 1.532-1.286l-6.035-7.192c2.25 1.286 4.82 2.535 6.336 2.535a5.646 5.646 0 0 0 5.544-4.648H58zm0-20.214h-5.2a5.646 5.646 0 0 0-5.545-4.648c-1.787 0-5.042 1.734-7.505 3.22V15.644H57a1.001 1.001 0 0 1 1 1zm-35.643 9.714H10.786a1 1 0 0 1 0-2h11.57a1 1 0 0 1 0 2zm0 3.857H10.786a1 1 0 0 1 0-2h11.57a1 1 0 0 1 0 2z" opacity="1" data-original="url(#a)" class=""></path></g></svg>