<svg xmlns="http://www.w3.org/2000/svg" version="1.1" xmlns:xlink="http://www.w3.org/1999/xlink" width="512" height="512" x="0" y="0" viewBox="0 0 64 64" style="enable-background:new 0 0 512 512" xml:space="preserve"><rect width="64" height="64" rx="12.8" ry="12.8" fill="#bac8d3" shape="rounded"></rect><g transform="matrix(0.6599999999999998,0,0,0.6599999999999998,10.880000000000006,10.880058689117437)"><linearGradient id="a" x1="4" x2="60" y1="32.001" y2="32.001" gradientUnits="userSpaceOnUse"><stop offset="0" stop-color="#ff81ff"></stop><stop offset="1" stop-color="#a93aff"></stop></linearGradient><path fill="url(#a)" d="M56.923 17.5h-6.23a1 1 0 0 0 0 2h6.23A1.079 1.079 0 0 1 58 20.577v32.23H47.538V12.27a3.08 3.08 0 0 0-3.076-3.078H19.538a3.08 3.08 0 0 0-3.076 3.078v5.23H7.077A3.081 3.081 0 0 0 4 20.577v33.23a1 1 0 0 0 1 1c12.925-.006 28.632.005 41.538 0H59a1 1 0 0 0 1-1v-33.23a3.081 3.081 0 0 0-3.077-3.077zM6 20.577A1.079 1.079 0 0 1 7.077 19.5h9.385v30.154a1 1 0 0 0 2 0V12.27a1.078 1.078 0 0 1 1.076-1.078h24.924a1.078 1.078 0 0 1 1.076 1.078v40.538H39.23V39.27a1 1 0 0 0-1-1H25.77a1 1 0 0 0-1 1v13.538H6zM26.77 40.27H31v12.538h-4.23zM33 52.808V40.27h4.23v12.538zM25.077 28.5h3.153v3.154a2.387 2.387 0 0 0 2.385 2.384h2.77a2.387 2.387 0 0 0 2.385-2.384V28.5h3.153a2.387 2.387 0 0 0 2.385-2.385v-2.77a2.387 2.387 0 0 0-2.385-2.383H35.77v-3.154a2.387 2.387 0 0 0-2.385-2.385h-2.77a2.387 2.387 0 0 0-2.385 2.385v3.154h-3.153a2.387 2.387 0 0 0-2.385 2.384v2.77a2.387 2.387 0 0 0 2.385 2.384zm-.385-5.154a.385.385 0 0 1 .385-.384h4.153a1 1 0 0 0 1-1v-4.154a.386.386 0 0 1 .385-.385h2.77a.386.386 0 0 1 .385.385v4.154a1 1 0 0 0 1 1h4.153a.385.385 0 0 1 .385.384v2.77a.386.386 0 0 1-.385.384H34.77a1 1 0 0 0-1 1v4.154a.385.385 0 0 1-.385.384h-2.77a.385.385 0 0 1-.385-.384V27.5a1 1 0 0 0-1-1h-4.153a.386.386 0 0 1-.385-.385z" opacity="1" data-original="url(#a)"></path></g></svg>