<svg xmlns="http://www.w3.org/2000/svg" version="1.1" xmlns:xlink="http://www.w3.org/1999/xlink" width="512" height="512" x="0" y="0" viewBox="0 0 512 512" style="enable-background:new 0 0 512 512" xml:space="preserve"><rect width="512" height="512" rx="102.4" ry="102.4" fill="#bac8d3" shape="rounded"></rect><g transform="matrix(0.6,0,0,0.6,102.39979629516603,97.40020484924315)"><linearGradient id="a" x1="41.61" x2="470.391" y1="497.932" y2="69.151" gradientUnits="userSpaceOnUse"><stop offset="0" stop-color="#545aff"></stop><stop offset="1" stop-color="#03bdff"></stop></linearGradient><path fill="url(#a)" d="M35.918 448.566a5.928 5.928 0 0 0-5.928 5.928v22.845c0 11.967 9.739 21.704 21.706 21.704h408.607c11.967 0 21.706-9.737 21.706-21.704v-22.845a5.927 5.927 0 0 0-5.926-5.927c2.131-3.589 3.429-7.731 3.429-12.199 0-12.62-9.767-23.001-22.142-23.978-.925-15.229-12.488-27.6-27.328-29.85V236.746a5.928 5.928 0 1 0-11.856 0v146.191c-13.781 3.076-24.273 14.977-25.152 29.453-12.374.977-22.142 11.358-22.142 23.978 0 4.47 1.306 8.608 3.439 12.198h-74.388v-71.364c0-24.233-19.715-43.945-43.945-43.945s-43.945 19.712-43.945 43.945v71.364H93.812V116.72h324.375v66.96a5.928 5.928 0 1 0 11.856 0v-66.964h6.363c8.498 0 15.412-6.914 15.412-15.412V74.322c0-8.498-6.914-15.412-15.412-15.412h-13.171V28.37c0-8.498-6.914-15.412-15.412-15.412H104.177c-8.498 0-15.412 6.914-15.412 15.412v30.54H75.589c-8.498 0-15.412 6.914-15.412 15.412v26.981c0 8.498 6.914 15.412 15.412 15.412h6.368v331.85H35.918zM100.62 28.37a3.563 3.563 0 0 1 3.557-3.557h303.646a3.562 3.562 0 0 1 3.557 3.557v30.54H100.62zm-28.588 72.933V74.322a3.563 3.563 0 0 1 3.557-3.557h360.818a3.562 3.562 0 0 1 3.557 3.557v26.981a3.563 3.563 0 0 1-3.557 3.557H75.589a3.562 3.562 0 0 1-3.557-3.557zm398.122 376.036c0 5.43-4.418 9.848-9.85 9.848H51.697c-5.432 0-9.85-4.418-9.85-9.848v-16.918h428.307zm-87.404-40.972c0-8.058 7.74-13.782 15.023-11.846a5.95 5.95 0 0 0 5.539-1.368 5.938 5.938 0 0 0 1.82-5.411c-2.174-11.958 7.192-23.746 20.071-23.746 12.878 0 22.246 11.786 20.071 23.746a5.942 5.942 0 0 0 1.815 5.409c1.491 1.373 3.585 1.892 5.539 1.373 7.267-1.94 15.028 3.763 15.028 11.844 0 6.727-5.474 12.198-12.198 12.198h-60.511c-6.723 0-12.197-5.472-12.197-12.199zm-158.839-59.165c0-17.693 14.394-32.089 32.089-32.089s32.089 14.396 32.089 32.089v71.364H223.91v-71.364zm-29.32-214.666c0-9.392-7.637-17.031-17.029-17.031H141.37c-9.387 0-17.029 7.639-17.029 17.031v36.19c0 9.392 7.641 17.031 17.029 17.031h36.192c9.392 0 17.029-7.639 17.029-17.031zm-11.856 36.191a5.18 5.18 0 0 1-5.173 5.175H141.37a5.18 5.18 0 0 1-5.173-5.175v-36.19a5.18 5.18 0 0 1 5.173-5.175h36.192a5.18 5.18 0 0 1 5.173 5.175zm108.392-35.998c0-9.392-7.641-17.031-17.033-17.031h-36.188c-9.392 0-17.033 7.639-17.033 17.031v36.19c0 9.392 7.641 17.031 17.033 17.031h36.188c9.392 0 17.033-7.639 17.033-17.031zm-11.855 36.19a5.184 5.184 0 0 1-5.178 5.175h-36.188a5.185 5.185 0 0 1-5.178-5.175v-36.19a5.184 5.184 0 0 1 5.178-5.175h36.188a5.185 5.185 0 0 1 5.178 5.175zm108.387-36.001c0-9.39-7.641-17.029-17.033-17.029h-36.188c-9.392 0-17.033 7.639-17.033 17.029v36.19c0 9.392 7.641 17.031 17.033 17.031h36.188c9.392 0 17.033-7.639 17.033-17.031zm-11.856 36.191a5.184 5.184 0 0 1-5.178 5.175h-36.188a5.185 5.185 0 0 1-5.178-5.175v-36.19a5.182 5.182 0 0 1 5.178-5.173h36.188a5.182 5.182 0 0 1 5.178 5.173zm-181.212 52.355c0-9.392-7.637-17.031-17.029-17.031H141.37c-9.387 0-17.029 7.639-17.029 17.031v36.19c0 9.392 7.641 17.031 17.029 17.031h36.192c9.392 0 17.029-7.639 17.029-17.031zm-11.856 36.19a5.18 5.18 0 0 1-5.173 5.175H141.37a5.18 5.18 0 0 1-5.173-5.175v-36.19a5.18 5.18 0 0 1 5.173-5.175h36.192a5.18 5.18 0 0 1 5.173 5.175zm91.359-53.029h-36.188c-9.392 0-17.033 7.639-17.033 17.031v36.19c0 9.39 7.641 17.029 17.033 17.029h36.188c9.392 0 17.033-7.639 17.033-17.029v-36.19c0-9.392-7.641-17.031-17.033-17.031zm5.178 53.221a5.182 5.182 0 0 1-5.178 5.173h-36.188a5.182 5.182 0 0 1-5.178-5.173v-36.19a5.184 5.184 0 0 1 5.178-5.175h36.188a5.185 5.185 0 0 1 5.178 5.175zm108.387-36c0-9.392-7.641-17.031-17.033-17.031h-36.188c-9.392 0-17.033 7.639-17.033 17.031v36.19c0 9.392 7.641 17.031 17.033 17.031h36.188c9.392 0 17.033-7.639 17.033-17.031zm-11.856 36.19a5.184 5.184 0 0 1-5.178 5.175h-36.188a5.185 5.185 0 0 1-5.178-5.175v-36.19a5.184 5.184 0 0 1 5.178-5.175h36.188a5.185 5.185 0 0 1 5.178 5.175zM177.562 323.36H141.37c-9.387 0-17.029 7.639-17.029 17.031v36.19c0 9.392 7.641 17.031 17.029 17.031h36.192c9.392 0 17.029-7.639 17.029-17.031v-36.19c0-9.392-7.637-17.031-17.029-17.031zm5.173 53.221a5.18 5.18 0 0 1-5.173 5.175H141.37a5.18 5.18 0 0 1-5.173-5.175v-36.19a5.18 5.18 0 0 1 5.173-5.175h36.192a5.18 5.18 0 0 1 5.173 5.175zm187.891-52.839h-36.188c-9.392 0-17.033 7.639-17.033 17.031v36.19c0 9.392 7.641 17.031 17.033 17.031h36.188c9.392 0 17.033-7.639 17.033-17.031v-36.19c0-9.392-7.641-17.031-17.033-17.031zm5.177 53.221a5.184 5.184 0 0 1-5.178 5.175h-36.188a5.185 5.185 0 0 1-5.178-5.175v-36.19a5.184 5.184 0 0 1 5.178-5.175h36.188a5.185 5.185 0 0 1 5.178 5.175z" opacity="1" data-original="url(#a)"></path></g></svg>