<svg xmlns="http://www.w3.org/2000/svg" version="1.1" xmlns:xlink="http://www.w3.org/1999/xlink" width="512" height="512" x="0" y="0" viewBox="0 0 48 48" style="enable-background:new 0 0 512 512" xml:space="preserve"><rect width="48" height="48" rx="9.6" ry="9.6" fill="#bac8d3" shape="rounded"></rect><g transform="matrix(0.68,0,0,0.68,7.679999656677246,7.680000000000003)"><linearGradient id="a" x1="1" x2="47" y1="24" y2="24" gradientUnits="userSpaceOnUse"><stop offset=".198" stop-color="#60d3fc"></stop><stop offset=".872" stop-color="#fc6bf8"></stop></linearGradient><path fill="url(#a)" d="m46.707 18.293-8-8A1 1 0 0 0 38 10H10a1.013 1.013 0 0 0-.708.294l-7.999 7.999A1 1 0 0 0 2 20h1v17a1 1 0 0 0 1 1h40a1 1 0 0 0 1-1V22a1 1 0 0 0-2 0v14H17V20h29a1 1 0 0 0 .707-1.707zM10 12.414 15.586 18H4.414zM8 36v-6h4v6zm7 0h-1v-7a1 1 0 0 0-1-1H7a1 1 0 0 0-1 1v7H5V20h10zm3.414-18-6-6h25.172l6 6zM21 24a1 1 0 0 0-1 1v6a1 1 0 0 0 1 1h6a1 1 0 0 0 1-1v-6a1 1 0 0 0-1-1zm5 6h-4v-4h4zm7-6a1 1 0 0 0-1 1v6a1 1 0 0 0 1 1h6a1 1 0 0 0 1-1v-6a1 1 0 0 0-1-1zm5 6h-4v-4h4z" data-name="Layer 2" opacity="1" data-original="url(#a)"></path></g></svg>