<svg xmlns="http://www.w3.org/2000/svg" version="1.1" xmlns:xlink="http://www.w3.org/1999/xlink" width="512" height="512" x="0" y="0" viewBox="0 0 511 512" style="enable-background:new 0 0 512 512" xml:space="preserve" class=""><rect width="511" height="512" rx="102.2" ry="102.2" fill="#bac8d3" shape="rounded"></rect><g transform="matrix(0.5900000000000001,0,0,0.5900000000000001,132.17952819824217,114.95999999999998)"><linearGradient id="a" x1="212.633" x2="212.633" y1="0" y2="512" gradientUnits="userSpaceOnUse"><stop offset="0" stop-color="#8df49b"></stop><stop offset="1" stop-color="#589cf9"></stop></linearGradient><path fill="url(#a)" d="m212.813 512-7.942-3.61C134.746 476.517 74.605 429.25 26.13 367.896 9.602 346.98.5 320.68.5 293.835V0l27.84 11.945C62.277 26.508 89.754 33.29 114.8 33.29c43.852 0 87.345-26.664 87.778-26.934L212.812.012l10.418 6.07c.426.246 45.543 26.223 89.227 26.223 31.57 0 61.828-10.922 84.664-20.442L424.766.343V296.66c0 25.336-7.825 49.567-22.625 70.082-45.204 62.63-106.196 110.367-181.282 141.88zM40.43 59.484v234.352c0 17.898 6.047 35.406 17.03 49.305 42.653 53.98 95.102 96.062 155.993 125.191 64.527-28.602 117.082-70.61 156.309-124.96 9.86-13.665 15.074-29.821 15.074-46.712V59.223c-21.367 7.18-46.05 13.011-72.379 13.011-40.992 0-80.754-17.078-99.039-26.183-18.008 9.488-57.125 27.168-98.617 27.168-27.114.004-52.903-6.36-74.371-13.735zm296.129 124.684-28.235-28.234L190.922 273.34l-64.996-64.996-28.239 28.234 93.235 93.23zm0 0" opacity="1" data-original="url(#a)"></path></g></svg>