<svg xmlns="http://www.w3.org/2000/svg" version="1.1" xmlns:xlink="http://www.w3.org/1999/xlink" width="512" height="512" x="0" y="0" viewBox="0 0 512 512" style="enable-background:new 0 0 512 512" xml:space="preserve" class=""><rect width="512" height="512" rx="102.4" ry="102.4" fill="#bac8d3" shape="rounded"></rect><g transform="matrix(0.7,0,0,0.7,76.80698204040527,71.81487503051758)"><linearGradient id="a" x1="256.023" x2="256.023" y1="67.599" y2="444.5" gradientUnits="userSpaceOnUse"><stop offset="0" stop-color="#f704fe"></stop><stop offset="1" stop-color="#24bce3"></stop></linearGradient><path fill="url(#a)" d="M423.9 444.5H88.3c-6.3 0-11.4-5.2-11.4-11.4v-24.4c0-.9.3-1.8.7-2.5l28.1-45.8c12.5-20.6 19.2-44.3 19.2-68.4v-51.7c0-8.2 6.7-14.8 14.9-14.8h232.6c8.2 0 14.9 6.7 14.9 14.8v51.6c0 24.2 6.7 47.9 19.2 68.4l28.1 45.8c.4.8.7 1.7.7 2.5v24.5c-.1 6.2-5.1 11.4-11.4 11.4zM86.6 410.1v23c0 .9.8 1.7 1.7 1.7h335.5c.9 0 1.7-.8 1.7-1.7v-23l-27.3-44.7c-13.5-22.1-20.7-47.5-20.7-73.5v-51.6c0-2.7-2.4-5.1-5.1-5.1H139.8c-2.7 0-5.1 2.4-5.1 5.1v51.6c0 25.9-7.1 51.4-20.7 73.5zm129.8-175c-2.7 0-4.9-2.2-4.9-4.9v-32c0-5-4.1-9.1-9.1-9.1s-9.1 4.1-9.1 9.1v32c0 2.7-2.2 4.9-4.9 4.9s-4.9-2.2-4.9-4.9v-32c0-10.4 8.5-18.8 18.8-18.8s18.8 8.5 18.8 18.8v32c.2 2.8-2 4.9-4.7 4.9zm107.4 0c-2.7 0-4.9-2.2-4.9-4.9v-32c0-5-4.1-9.1-9.1-9.1s-9.1 4.1-9.1 9.1v32c0 2.7-2.2 4.9-4.9 4.9s-4.9-2.2-4.9-4.9v-32c0-10.4 8.5-18.8 18.8-18.8s18.8 8.5 18.8 18.8v32c.2 2.8-2 4.9-4.7 4.9zm106.6 178.5H81.8c-2.7 0-4.9-2.2-4.9-4.9s2.2-4.9 4.9-4.9h348.7c2.7 0 4.9 2.2 4.9 4.9s-2.3 4.9-5 4.9zm-45.6-198c-12.4 0-22.6-10.2-22.6-22.6v-23.2c0-3.2-2.2-6.3-5.2-7.3-.1 0-.1 0-.2-.1-26.3-9.3-70.7-14.1-100.8-14.1-29.2 0-74.4 4.9-100.8 14.1-3.2 1.1-5.3 4-5.3 7.4v23.1c0 12.4-10.2 22.6-22.6 22.6H63.7c-6.8 0-13.2-3.1-17.6-8.4-4.3-5.3-6-12-4.6-18.6 8.3-42.1 33.5-73.8 74.6-94.3 35.8-17.6 82.8-26.6 140.1-26.6 57.2-.1 104.3 8.9 140 26.7 41.1 20.5 66.2 52.2 74.4 94.3 1.3 6.7-.4 13.5-4.7 18.7-4.3 5.3-10.7 8.2-17.4 8.2zM360 153.2c7 2.2 11.9 9 11.9 16.6V193c0 7.1 5.8 12.8 12.8 12.8l63.6-.1c3.9 0 7.5-1.7 9.9-4.6s3.4-6.8 2.7-10.6c-7.7-39-31-68.4-69.2-87.5-34.2-17-79.7-25.6-135.1-25.6h-.5c-55.7 0-101.3 8.7-135.7 25.8-38.3 19.1-61.6 48.5-69.4 87.5-.8 3.7.2 7.5 2.6 10.5 2.5 3.1 6.1 4.8 10 4.8h63.6c7.1 0 12.8-5.8 12.8-12.8V170c.2-7.5 4.9-14.1 11.9-16.6 27.7-9.6 73.3-14.6 104.1-14.6 31.1-.2 76.7 4.8 104 14.4zm-174.8 214h-18.4c-2.7 0-4.9-2.2-4.9-4.9s2.2-4.9 4.9-4.9h18.4c2.7 0 4.9 2.2 4.9 4.9.1 2.7-2.2 4.9-4.9 4.9zm160.2 0H327c-2.7 0-4.9-2.2-4.9-4.9s2.2-4.9 4.9-4.9h18.4c2.7 0 4.9 2.2 4.9 4.9s-2.2 4.9-4.9 4.9zm-151.2-42.7h-16.1c-2.7 0-4.9-2.2-4.9-4.9s2.2-4.9 4.9-4.9h16.1c2.7 0 4.9 2.2 4.9 4.9s-2.2 4.9-4.9 4.9zm46.7 0h-16.1c-2.7 0-4.9-2.2-4.9-4.9s2.2-4.9 4.9-4.9h16.1c2.7 0 4.9 2.2 4.9 4.9s-2.2 4.9-4.9 4.9zm46.6 0h-16.1c-2.7 0-4.9-2.2-4.9-4.9s2.2-4.9 4.9-4.9h16.1c2.7 0 4.9 2.2 4.9 4.9s-2.2 4.9-4.9 4.9zm-49.6 42.7h-16.1c-2.7 0-4.9-2.2-4.9-4.9s2.2-4.9 4.9-4.9h16.1c2.7 0 4.9 2.2 4.9 4.9s-2.2 4.9-4.9 4.9zm52.6 0h-16.1c-2.7 0-4.9-2.2-4.9-4.9s2.2-4.9 4.9-4.9h16.1c2.7 0 4.9 2.2 4.9 4.9s-2.2 4.9-4.9 4.9zm43.7-42.7H318c-2.7 0-4.9-2.2-4.9-4.9s2.2-4.9 4.9-4.9h16.1c2.7 0 4.9 2.2 4.9 4.9.1 2.7-2.1 4.9-4.8 4.9zm-132.7-42.8h-14.2c-2.7 0-4.9-2.2-4.9-4.9s2.2-4.9 4.9-4.9h14.2c2.7 0 4.9 2.2 4.9 4.9-.1 2.7-2.3 4.9-4.9 4.9zm41.2 0h-14.3c-2.7 0-4.9-2.2-4.9-4.9s2.2-4.9 4.9-4.9h14.3c2.7 0 4.9 2.2 4.9 4.9s-2.2 4.9-4.9 4.9zm41.2 0h-14.3c-2.7 0-4.9-2.2-4.9-4.9s2.2-4.9 4.9-4.9h14.3c2.7 0 4.9 2.2 4.9 4.9-.1 2.7-2.2 4.9-4.9 4.9zm41.1 0h-14.2c-2.7 0-4.9-2.2-4.9-4.9s2.2-4.9 4.9-4.9H325c2.7 0 4.9 2.2 4.9 4.9s-2.2 4.9-4.9 4.9z" opacity="1" data-original="url(#a)"></path></g></svg>