<svg xmlns="http://www.w3.org/2000/svg" version="1.1" xmlns:xlink="http://www.w3.org/1999/xlink" width="512" height="512" x="0" y="0" viewBox="0 0 64 64" style="enable-background:new 0 0 512 512" xml:space="preserve" class=""><rect width="64" height="64" rx="12.8" ry="12.8" fill="#bac8d3" shape="rounded"></rect><g transform="matrix(0.6399999999999999,0,0,0.6399999999999999,11.521746826171874,11.51823789596558)"><linearGradient id="a" x1="4" x2="60.01" y1="31.995" y2="31.995" gradientUnits="userSpaceOnUse"><stop offset="0" stop-color="#9cffac"></stop><stop offset="1" stop-color="#00b59c"></stop></linearGradient><path fill="url(#a)" d="M49.625 14.5h-3.892a5.17 5.17 0 0 1 1.041 2.219h2.851c1.318.022 1.31 1.98 0 2h-2.851a5.224 5.224 0 0 1-5.118 4.218h-.62l5.498 4.81a1 1 0 0 1-1.318 1.506l-7.5-6.563c-.695-.567-.235-1.784.66-1.753h3.28c1.424 0 2.62-.935 3.044-2.218h-6.325c-1.317-.023-1.311-1.979 0-2H44.7c-.423-1.284-1.62-2.219-3.044-2.219h-3.28a1 1 0 1 1 0-2h11.25a1 1 0 1 1 0 2zM44 36c12.85.11 20.59-14.889 13.034-25.272-.77-1.06-2.38.094-1.628 1.163A13.873 13.873 0 0 1 58 20c-.767 18.57-27.233 18.57-28 0 0-7.72 6.28-14 14-14 2.93 0 5.733.897 8.109 2.594 1.078.748 2.22-.848 1.162-1.627-10.38-7.56-25.384.186-25.27 13.033 0 8.822 7.177 16 16 16zM4 54.917a1 1 0 0 0 1 1h9.254a1 1 0 0 0 1-1v-1.688c.594-.014 1.283-.038 1.8.29l7.719 4.501a14.513 14.513 0 0 0 13.534.582l19.445-9.207c4.295-2.106 1.856-8.596-2.778-7.326l-10.537 3.057c.519-2.683-1.66-5.254-4.388-5.226h-7.228c-.601 0-1.187-.17-1.694-.493l-3.575-2.268a9.311 9.311 0 0 0-4.996-1.452h-7.302V34a1 1 0 0 0-1-1H5c-1.301.024-1.327 1.973 0 2h8.254v12.23c.027 1.316 1.975 1.314 2 0v-9.543h7.302c1.392 0 2.75.395 3.925 1.141 1.636.922 4.335 3.241 6.34 3.072h7.228c3.242.083 3.257 4.842 0 4.929H29.703c-1.316.022-1.313 1.979 0 2H40.05a4.44 4.44 0 0 0 3.071-1.24l12.411-3.599c2.236-.647 3.492 2.58 1.365 3.599L37.45 56.795a12.51 12.51 0 0 1-11.67-.502l-7.72-4.502a4.13 4.13 0 0 0-2.076-.562h-1.731a1 1 0 0 0-1 1v1.688H5a1 1 0 0 0-1 1zm6.627-15.477c-.022-1.315-1.978-1.314-2 0 .022 1.314 1.978 1.314 2 0z" opacity="1" data-original="url(#a)"></path></g></svg>