<svg xmlns="http://www.w3.org/2000/svg" version="1.1" xmlns:xlink="http://www.w3.org/1999/xlink" width="512" height="512" x="0" y="0" viewBox="0 0 64 64" style="enable-background:new 0 0 512 512" xml:space="preserve"><rect width="64" height="64" rx="12.8" ry="12.8" fill="#bac8d3" shape="rounded"></rect><g transform="matrix(0.6,0,0,0.6,12.8,12.799999809265138)"><linearGradient id="a" x1="4" x2="60" y1="32" y2="32" gradientUnits="userSpaceOnUse"><stop offset="0" stop-color="#9cffac"></stop><stop offset="1" stop-color="#00b59c"></stop></linearGradient><path fill="url(#a)" d="M4.293 11.332a1 1 0 0 1 0-1.414l5.625-5.625A1 1 0 0 1 11.625 5v1.813H23a1 1 0 0 1 0 2H10.625c-.772-.006-1.087-.714-1-1.399l-3.21 3.211 3.21 3.21v-.398a1 1 0 0 1 1-1H23a1 1 0 0 1 0 2H11.625v1.813a1 1 0 0 1-1.707.707zm49.789 35.711a1 1 0 0 0-1.707.707v1.813H41a1 1 0 0 0 0 2h12.375c.775-.009 1.085-.71 1-1.399l3.21 3.211-3.21 3.21v-.398a1 1 0 0 0-1-1H41a1 1 0 0 0 0 2h11.375V59a1 1 0 0 0 1.707.707l5.625-5.625a1 1 0 0 0 0-1.414zM60 22.62v9.43a.999.999 0 0 1-.47.848l-5.13 3.21a.995.995 0 0 1-.529.152 1.006 1.006 0 0 1-.531-1.847L58 31.497v-2.353l-13.27 8.29v2.353l5.13-3.205a1 1 0 0 1 1.06 1.696l-30.94 19.33a1.001 1.001 0 0 1-1.233-.136l-14.45-14.28A1.001 1.001 0 0 1 4 42.48V31.24a.625.625 0 0 1 .045-.221 1.1 1.1 0 0 1 .426-.627l4.95-3.09A1 1 0 0 1 10.479 29l-3.875 2.419L20.72 45.354l13.925-8.7-1.651-1.627-9.568 5.923a1 1 0 0 1-1.348-.281 1.027 1.027 0 0 0-1.48-.17 1 1 0 0 1-1.302-.04l-6.79-6.2a1.007 1.007 0 0 1 .022-1.497 1.016 1.016 0 0 0 .352-.772c.014-.492-.493-.84-.34-1.352a1.002 1.002 0 0 1 .454-.648l9.15-5.662-1.622-1.6-6.562 4.1a1 1 0 0 1-1.06-1.696l29.99-18.74a.998.998 0 0 1 1.233.137l15.58 15.38a.863.863 0 0 1 .253.495.957.957 0 0 1 .044.216zM31.529 33.582l-7.919-7.809-8.825 5.46a3.044 3.044 0 0 1-.253 2.167l5.57 5.086a3.059 3.059 0 0 1 2.944.347zm3.201 10.102-14.18 8.854a1 1 0 0 1-1.233-.137L6 39.253v2.81l13.59 13.43 15.14-9.458zm0-4.724-13.62 8.508a1 1 0 0 1-1.233-.136L6 33.632v2.81l14.16 13.981 14.57-9.097zm1.659-3.394 5.226-3.265-14.12-13.93-5.23 3.267zm13.08-15.106-5.57-5.085a3.059 3.059 0 0 1-2.945-.349l-8.604 5.325 7.923 7.815 8.943-5.539a3.04 3.04 0 0 1 .252-2.167zM42.73 33.963l-6 3.748v7.074l6-3.748zm14.667-11.52L43.28 8.506 29.238 17.28l1.646 1.624 9.69-5.995a.999.999 0 0 1 1.348.281.98.98 0 0 0 .808.42 1.075 1.075 0 0 0 .672-.25 1 1 0 0 1 1.302.04l6.79 6.201a1.007 1.007 0 0 1-.022 1.497 1.024 1.024 0 0 0-.172 1.35 1.006 1.006 0 0 1-.294 1.421s-7.534 4.666-9.268 5.74l1.622 1.6zm.603 1.98-13.27 8.29v2.363L58 26.786zm-12.497-4.009a3.03 3.03 0 0 1-6 0 3.03 3.03 0 0 1 6 0zm-2 0c0-.283-.427-.6-1-.6s-1 .317-1 .6.428.6 1 .6 1-.317 1-.6zM21.561 30.922a2.825 2.825 0 0 1 3 2.6 2.825 2.825 0 0 1-3 2.6 2.825 2.825 0 0 1-3-2.6 2.825 2.825 0 0 1 3-2.6zm0 2c-.573 0-1 .317-1 .6s.427.6 1 .6 1-.316 1-.6-.428-.6-1-.6z" opacity="1" data-original="url(#a)"></path></g></svg>