<svg xmlns="http://www.w3.org/2000/svg" version="1.1" xmlns:xlink="http://www.w3.org/1999/xlink" width="512" height="512" x="0" y="0" viewBox="0 0 32 32" style="enable-background:new 0 0 512 512" xml:space="preserve"><rect width="32" height="32" rx="6.4" ry="6.4" fill="#bac8d3" shape="rounded"></rect><g transform="matrix(0.69,0,0,0.69,4.960000000000001,4.960000000000001)"><linearGradient id="a" x1="8.719" x2="23.281" y1="28.611" y2="3.389" gradientUnits="userSpaceOnUse"><stop offset="0" stop-color="#4c46c8"></stop><stop offset="1" stop-color="#87bfff"></stop></linearGradient><path fill="url(#a)" d="M27 6H5a3 3 0 0 0-3 3v14a3 3 0 0 0 3 3h22a3 3 0 0 0 3-3V9a3 3 0 0 0-3-3zm1 17a1 1 0 0 1-1 1H5a1 1 0 0 1-1-1V9a1 1 0 0 1 1-1h22a1 1 0 0 1 1 1zm-15-7a1 1 0 0 1-1 1H7a1 1 0 0 1 0-2h5a1 1 0 0 1 1 1zm0-4a1 1 0 0 1-1 1H7a1 1 0 0 1 0-2h5a1 1 0 0 1 1 1zm0 8a1 1 0 0 1-1 1H7a1 1 0 0 1 0-2h5a1 1 0 0 1 1 1zm10.793-3.145a4 4 0 1 0-5.586 0A5 5 0 0 0 16 21a1 1 0 0 0 2 0 3 3 0 0 1 6 0 1 1 0 0 0 2 0 5 5 0 0 0-2.207-4.145zM21 16a2 2 0 1 1 2-2 2 2 0 0 1-2 2z" data-name="Layer 2" opacity="1" data-original="url(#a)"></path></g></svg>