<svg xmlns="http://www.w3.org/2000/svg" version="1.1" xmlns:xlink="http://www.w3.org/1999/xlink" width="512" height="512" x="0" y="0" viewBox="0 0 512 512" style="enable-background:new 0 0 512 512" xml:space="preserve" class=""><rect width="512" height="512" rx="102.4" ry="102.4" fill="#bac8d3" shape="rounded"></rect><g transform="matrix(0.6199999999999999,0,0,0.6199999999999999,97.27987533569339,87.27970138549807)"><linearGradient id="a" x1="60.822" x2="470.19" y1="481.635" y2="72.267" gradientUnits="userSpaceOnUse"><stop offset="0" stop-color="#8b0006"></stop><stop offset="1" stop-color="#ff1e22"></stop></linearGradient><path fill="url(#a)" d="M436.124 175.43c-2.942-22.704-23.764-38.791-46.507-35.839L60.748 182.192c-10.997 1.424-20.782 7.045-27.551 15.828-1.544 2.004-2.824 4.144-3.954 6.346-11.899 7.309-19.878 20.407-19.878 35.368v173.274c0 22.892 18.625 41.516 41.516 41.516h331.618c22.892 0 41.516-18.625 41.516-41.516v-19.495c10.391-1.72 19.617-7.178 26.08-15.564 6.77-8.784 9.712-19.682 8.288-30.674zM50.881 210.244h331.618c16.258 0 29.485 13.229 29.485 29.49v18.563H21.396v-18.563c0-16.26 13.227-29.49 29.485-29.49zm-29.485 60.085h390.589v22.553H21.396zm361.103 172.165H50.881c-16.258 0-29.485-13.229-29.485-29.485V304.913h390.589v108.096c-.001 16.256-13.228 29.485-29.486 29.485zm58.066-71.89c-4.179 5.424-9.976 9.142-16.55 10.69v-141.56c0-22.896-18.625-41.521-41.516-41.521H50.881c-.017 0-.033.003-.051.003 3.464-2.11 7.319-3.557 11.464-4.096l328.869-42.602a29.957 29.957 0 0 1 3.809-.244c14.585 0 27.298 10.856 29.22 25.697l22.26 171.846c1.012 7.811-1.079 15.551-5.887 21.787zm61.988-244.309a6.017 6.017 0 0 1-5.94 7.003 6.017 6.017 0 0 1-5.926-5.029c-6.361-38.231-42.63-64.173-80.885-57.805-3.266.522-6.375-1.673-6.92-4.949s1.668-6.377 4.946-6.923c44.803-7.424 87.276 22.926 94.725 67.703zm-24.001 3.995a6.017 6.017 0 0 1-5.94 7.003 6.017 6.017 0 0 1-5.926-5.029c-4.159-24.997-27.864-41.963-52.892-37.799-3.28.526-6.375-1.673-6.92-4.949s1.668-6.377 4.946-6.923c31.525-5.225 61.48 16.153 66.732 47.697zm-59.706-5.461c-3.269.526-6.375-1.673-6.92-4.949s1.668-6.377 4.946-6.923c14.818-2.472 28.853 7.58 31.318 22.384a6.017 6.017 0 0 1-5.94 7.003 6.017 6.017 0 0 1-5.926-5.029c-1.377-8.261-9.24-13.877-17.478-12.486zM306.093 380.544h-49.052c-13.187 0-23.914 10.724-23.914 23.912 0 13.187 10.727 23.912 23.914 23.912h49.052c13.187 0 23.914-10.724 23.914-23.912s-10.727-23.912-23.914-23.912zm0 35.792h-49.052c-6.551 0-11.883-5.329-11.883-11.881s5.332-11.881 11.883-11.881h49.052c6.551 0 11.883 5.329 11.883 11.881s-5.332 11.881-11.883 11.881zm63.774-35.792h-4.178c-13.187 0-23.914 10.724-23.914 23.912 0 13.187 10.727 23.912 23.914 23.912h4.178c13.185 0 23.912-10.724 23.912-23.912-.001-13.188-10.728-23.912-23.912-23.912zm0 35.792h-4.178c-6.551 0-11.883-5.329-11.883-11.881s5.332-11.881 11.883-11.881h4.178c6.551 0 11.881 5.329 11.881 11.881s-5.33 11.881-11.881 11.881z" opacity="1" data-original="url(#a)"></path></g></svg>