<svg xmlns="http://www.w3.org/2000/svg" version="1.1" xmlns:xlink="http://www.w3.org/1999/xlink" width="512" height="512" x="0" y="0" viewBox="0 0 512 512" style="enable-background:new 0 0 512 512" xml:space="preserve" class=""><rect width="512" height="512" rx="102.4" ry="102.4" fill="#bac8d3" shape="rounded"></rect><g transform="matrix(0.62,0,0,0.62,97.27979705810549,97.279814453125)"><linearGradient id="a" x1="91.705" x2="423.094" y1="438.639" y2="107.249" gradientUnits="userSpaceOnUse"><stop offset="0" stop-color="#0061ff"></stop><stop offset="1" stop-color="#60efff"></stop></linearGradient><path fill="url(#a)" d="M472.71 308.282h-3.756c3.849-16.825 5.951-34.308 5.951-52.283 0-129.265-105.178-234.429-234.462-234.429-129.265 0-234.427 105.164-234.427 234.429s105.162 234.43 234.427 234.43c70.768 0 134.262-31.555 177.287-81.279h54.979c18.295 0 33.188-14.839 33.274-33.112v-34.484c.001-18.345-14.927-33.272-33.273-33.272zM240.443 480.626c-123.859 0-224.624-100.768-224.624-224.627S116.584 31.374 240.443 31.374c123.878 0 224.659 100.766 224.659 224.625S364.321 480.626 240.443 480.626zm255.738-104.747c0 12.94-10.528 23.468-23.471 23.468h-46.94c18.507-23.865 32.504-51.371 40.726-81.262h6.214c12.943 0 23.471 10.528 23.471 23.47zM378.962 328.76l-30.836-17.239c-11.115-6.213-25.172-4.267-34.181 4.741l-13.224 13.226c-9.006 9.005-10.955 23.059-4.742 34.177l17.239 30.838c9.253 16.558 31.762 19.693 45.187 6.267l26.825-26.823c13.417-13.414 10.31-35.923-6.268-45.187zm-71.31 7.658 13.224-13.226c5.941-5.939 15.182-7.185 22.466-3.116l19.14 10.699c-11.817 19.237-27.967 35.504-47.194 47.337l-10.75-19.231c-4.085-7.306-2.802-16.543 3.114-22.463zm70.647 30.597-26.825 26.823c-8.811 8.818-23.612 6.774-29.697-4.12l-1.707-3.054c20.806-12.724 38.281-30.287 50.997-51.092l3.116 1.742c10.877 6.083 12.942 20.875 4.116 29.701zm-276.34-183.773 30.836 17.237c11.096 6.2 25.149 4.284 34.178-4.742l13.224-13.224c9.009-9.007 10.958-23.063 4.742-34.179L167.7 117.496c-9.253-16.558-31.755-19.7-45.187-6.267l-26.825 26.825c-13.417 13.413-10.31 35.919 6.271 45.188zm71.307-7.66-13.224 13.224c-5.92 5.92-15.152 7.198-22.466 3.116l-19.159-10.711c11.819-19.234 27.997-35.472 47.225-47.304l10.739 19.21c4.087 7.306 2.804 16.543-3.115 22.465zm-70.647-30.597 26.825-26.825c8.813-8.813 23.612-6.774 29.697 4.12l1.717 3.071c-20.801 12.726-38.284 30.272-50.998 51.078l-3.121-1.745c-10.881-6.084-12.946-20.873-4.12-29.699zm22.45 147.887c12.257-3.467 20.816-14.785 20.816-27.521v-18.703c0-12.736-8.559-24.052-20.816-27.519l-33.996-9.617c-18.261-5.168-36.386 8.531-36.386 27.521v37.935c0 18.978 18.114 32.682 36.386 27.521zm11.013-46.225v18.703c0 8.37-5.626 15.809-13.681 18.088l-21.281 6.02c-5.365-22.318-5.357-44.572.019-66.912l21.262 6.015c8.055 2.279 13.681 9.716 13.681 18.086zm-71.591 28.321v-37.935c0-12.45 11.879-21.489 23.915-18.088l3.32.939c-5.883 24.129-5.902 48.291-.061 72.249l-3.259.922c-11.999 3.395-23.915-5.608-23.915-18.087zm139.097-134.359c3.466 12.256 14.782 20.816 27.521 20.816h18.703c12.736 0 24.052-8.56 27.518-20.816l9.618-33.996c5.163-18.256-8.527-36.384-27.521-36.384H221.49c-18.973 0-32.688 18.111-27.521 36.384zm64.309-2.667c-2.279 8.055-9.714 13.681-18.084 13.681H231.11c-8.374 0-15.809-5.626-18.088-13.681l-6.011-21.247c22.341-5.385 44.807-5.377 66.914-.057zm-46.406-57.909h37.937c12.468 0 21.485 11.903 18.088 23.913l-.924 3.266c-23.13-5.636-47.454-6.006-72.258.021l-.93-3.287c-3.395-11.996 5.606-23.913 18.087-23.913zm-54.518 236.228c-9.006-9.005-23.063-10.955-34.181-4.741l-30.833 17.237c-16.565 9.257-19.702 31.761-6.271 45.189l26.825 26.823c13.414 13.414 35.918 10.306 45.187-6.267l17.239-30.838c6.216-11.116 4.267-25.172-4.742-34.177zm-37.529 77.578-26.825-26.823c-8.818-8.818-6.774-23.612 4.123-29.7l3.055-1.708c12.724 20.808 30.215 38.393 51.014 51.124l-1.67 2.987c-6.06 10.849-20.835 12.981-29.697 4.12zm46.936-34.958-10.755 19.239c-19.227-11.835-35.466-28.05-47.298-47.281l19.248-10.761c7.324-4.091 16.554-2.795 22.466 3.115l13.224 13.226c5.92 5.919 7.203 15.156 3.115 22.462zm137.565-163.144c9.034 9.034 23.097 10.938 34.178 4.742l30.843-17.239c16.554-9.258 19.694-31.76 6.264-45.187l-26.825-26.825c-13.446-13.449-35.943-10.274-45.187 6.267l-17.239 30.838c-6.213 11.116-4.263 25.172 4.742 34.179zm37.529-77.577 26.825 26.825c8.814 8.814 6.778 23.608-4.117 29.699l-3.046 1.702a154.294 154.294 0 0 0-51.061-51.062l1.702-3.044c6.077-10.88 20.875-12.945 29.697-4.12zm-46.936 34.957 10.737-19.207c19.232 11.826 35.444 28.057 47.286 47.268l-19.221 10.743c-7.305 4.085-16.54 2.803-22.463-3.116l-13.224-13.224c-5.917-5.919-7.2-15.158-3.115-22.464zM277.33 371.391c-3.466-12.256-14.782-20.816-27.518-20.816h-18.703c-12.739 0-24.055 8.559-27.521 20.814l-9.618 33.996c-5.166 18.271 8.543 36.386 27.521 36.386h37.937c18.973 0 32.689-18.11 27.521-36.386zm-64.309 2.666c2.278-8.055 9.714-13.679 18.088-13.679h18.703c8.37 0 15.806 5.626 18.084 13.681l6.006 21.226c-23.043 5.556-45.418 5.254-66.906.068zm46.406 57.91H221.49c-12.468 0-21.485-11.906-18.088-23.915l.92-3.252a152.184 152.184 0 0 0 72.271-.005l.921 3.257c3.396 12.001-5.605 23.915-18.087 23.915zm130.417-222.455-33.996 9.617c-12.257 3.467-20.816 14.783-20.816 27.519v18.703c0 12.736 8.559 24.053 20.816 27.521l33.996 9.617c18.227 5.16 36.386-8.507 36.386-27.521v-37.935c0-18.964-18.11-32.698-36.386-27.521zm-45.008 55.839v-18.703c0-8.37 5.626-15.807 13.681-18.086l21.236-6.007c5.401 22.305 5.423 44.47.026 66.899l-21.263-6.015c-8.054-2.279-13.68-9.718-13.68-18.088zm71.591 9.617c0 12.471-11.906 21.479-23.915 18.088l-3.228-.913c5.791-23.779 5.811-48.076-.121-72.25l3.349-.947c12.04-3.397 23.915 5.636 23.915 18.088zm-175.971-80.656c-34.015 0-61.689 27.672-61.689 61.687s27.674 61.689 61.689 61.689c34.018 0 61.695-27.674 61.695-61.689s-27.677-61.687-61.695-61.687zm0 113.573c-28.609 0-51.885-23.276-51.885-51.885s23.276-51.884 51.885-51.884c28.612 0 51.892 23.275 51.892 51.884s-23.28 51.885-51.892 51.885z" opacity="1" data-original="url(#a)"></path></g></svg>