<svg xmlns="http://www.w3.org/2000/svg" version="1.1" xmlns:xlink="http://www.w3.org/1999/xlink" width="512" height="512" x="0" y="0" viewBox="0 0 512 512" style="enable-background:new 0 0 512 512" xml:space="preserve"><rect width="512" height="512" rx="102.4" ry="102.4" fill="#bac8d3" shape="rounded"></rect><g transform="matrix(0.6,0,0,0.6,102.40025939941407,97.40010375976561)"><linearGradient id="a" x1="56.189" x2="455.811" y1="256" y2="256" gradientUnits="userSpaceOnUse"><stop offset="0" stop-color="#8b0006"></stop><stop offset="1" stop-color="#ff1e22"></stop></linearGradient><path fill="url(#a)" d="M127.672 237.349h256.655a6.033 6.033 0 0 0 6.033-6.033v-136.1a6.033 6.033 0 0 0-6.033-6.033H127.672a6.033 6.033 0 0 0-6.033 6.033v136.1a6.033 6.033 0 0 0 6.033 6.033zm250.623-12.066H262.033V101.249h116.261v124.034zm-244.59-124.034h116.261v124.034H133.705zm50.688-45.036a6.033 6.033 0 0 1 6.033-6.033h131.149a6.033 6.033 0 1 1 0 12.066H190.426a6.032 6.032 0 0 1-6.033-6.033zm165.195 222.472c-22.518 0-40.836 18.321-40.836 40.839 0 22.483 18.318 40.773 40.836 40.773 22.483 0 40.773-18.29 40.773-40.773 0-22.518-18.29-40.839-40.773-40.839zm0 69.545c-15.865 0-28.77-12.877-28.77-28.707 0-15.865 12.905-28.773 28.77-28.773 15.83 0 28.707 12.907 28.707 28.773 0 15.83-12.877 28.707-28.707 28.707zm-187.11 12.066c22.483 0 40.773-18.29 40.773-40.773 0-22.518-18.29-40.839-40.773-40.839-22.518 0-40.839 18.321-40.839 40.839 0 22.483 18.321 40.773 40.839 40.773zm0-69.545c15.83 0 28.707 12.907 28.707 28.773 0 15.83-12.877 28.707-28.707 28.707-15.865 0-28.773-12.877-28.773-28.707 0-15.865 12.908-28.773 28.773-28.773zm127.114 20.833a6.033 6.033 0 0 1-6.033 6.033h-55.115a6.033 6.033 0 1 1 0-12.066h55.115a6.033 6.033 0 0 1 6.033 6.033zm-11.305 34.766a6.033 6.033 0 0 1-6.033 6.033h-32.506a6.033 6.033 0 1 1 0-12.066h32.506c3.332 0 6.033 2.7 6.033 6.033zM56.784 500.744a6.038 6.038 0 0 0 5.439 3.42h70.142c2.039 0 3.94-1.03 5.055-2.738l13.389-20.538h210.383l13.389 20.538a6.036 6.036 0 0 0 5.055 2.738h70.141a6.03 6.03 0 0 0 4.708-9.804l-65.362-81.644h8.62c21.163 0 38.381-17.218 38.381-38.381V79.094c0-29.701-21.295-54.96-50.638-60.057-85.919-14.934-173.055-14.934-258.974 0-29.342 5.097-50.637 30.356-50.637 60.057v295.241c0 21.163 17.218 38.381 38.381 38.381h8.62L57.514 494.36a6.033 6.033 0 0 0-.73 6.384zm101.89-31.923 36.575-56.105h121.502l36.575 56.105zm278.544 23.277h-54.314l-51.748-79.382h42.512zM87.941 374.335V79.094c0-23.821 17.091-44.079 40.636-48.17 84.045-14.608 169.787-14.784 254.845 0 23.545 4.091 40.636 24.349 40.636 48.17v295.241c0 14.51-11.805 26.315-26.315 26.315h-21.064c-.042-.001-.083-.014-.125-.014H320.01c-.036 0-.069.014-.104.014H192.092c-.035-.001-.068-.014-.104-.014h-56.544c-.042 0-.083.013-.125.014h-21.064c-14.509 0-26.314-11.805-26.314-26.315zm50.391 38.381h42.512l-51.748 79.382H74.782z" opacity="1" data-original="url(#a)"></path></g></svg>