<svg xmlns="http://www.w3.org/2000/svg" version="1.1" xmlns:xlink="http://www.w3.org/1999/xlink" width="512" height="512" x="0" y="0" viewBox="0 0 512 512" style="enable-background:new 0 0 512 512" xml:space="preserve"><rect width="512" height="512" rx="102.4" ry="102.4" fill="#bac8d3" shape="rounded"></rect><g transform="matrix(0.69,0,0,0.69,79.37594558715824,79.36000000000001)"><linearGradient id="a" x1="256.051" x2="256.051" y1="84.5" y2="427.5" gradientUnits="userSpaceOnUse"><stop offset="0" stop-color="#f704fe"></stop><stop offset="1" stop-color="#24bce3"></stop></linearGradient><path fill="url(#a)" d="M447.2 385.8H64.9c-13.2 0-23.9-10.7-23.9-23.9v-62.6c0-13.2 10.7-23.9 23.9-23.9h382.3c13.2 0 23.9 10.7 23.9 23.9v62.6c.1 6.3-2.4 12.3-6.9 16.8-4.6 4.6-10.6 7.1-17 7.1zM64.9 285.3c-7.8 0-14.1 6.3-14.1 14.1V362c0 7.8 6.3 14.1 14.1 14.1h382.4c3.8 0 7.3-1.5 10-4.2 2.6-2.7 4.1-6.2 4-9.9v-62.6c0-7.8-6.3-14.1-14.1-14.1zm368.6 123H78.6c-8.8 0-16-7.2-16-16v-11.4c0-2.7 2.2-4.9 4.9-4.9s4.9 2.2 4.9 4.9v11.4c0 3.4 2.8 6.3 6.3 6.3h354.8c3.4 0 6.3-2.8 6.3-6.3v-11.4c0-2.7 2.2-4.9 4.9-4.9s4.9 2.2 4.9 4.9v11.4c-.1 8.9-7.3 16-16.1 16zm-305.4 19.2h-22.9c-4.2 0-7.5-3.4-7.5-7.5v-16.5c0-2.7 2.2-4.9 4.9-4.9s4.9 2.2 4.9 4.9v14.3h18.4v-14.3c0-2.7 2.2-4.9 4.9-4.9s4.9 2.2 4.9 4.9V420c-.1 4.1-3.5 7.5-7.6 7.5zm278.9 0h-22.9c-4.2 0-7.5-3.4-7.5-7.5v-16.5c0-2.7 2.2-4.9 4.9-4.9s4.9 2.2 4.9 4.9v14.3h18.4v-14.3c0-2.7 2.2-4.9 4.9-4.9s4.9 2.2 4.9 4.9V420c-.1 4.1-3.5 7.5-7.6 7.5zm-5.3-79.8H298.3c-9.4 0-17.1-7.7-17.1-17.1s7.7-17.1 17.1-17.1h103.4c9.4 0 17.1 7.7 17.1 17.1s-7.7 17.1-17.1 17.1zm-103.4-24.4c-4 0-7.3 3.3-7.3 7.3s3.3 7.3 7.3 7.3h103.4c4 0 7.3-3.3 7.3-7.3s-3.3-7.3-7.3-7.3zm-89.7 24.4c-9.4 0-17.1-7.7-17.1-17.1s7.7-17.1 17.1-17.1 17.1 7.7 17.1 17.1-7.6 17.1-17.1 17.1zm0-24.4c-4 0-7.3 3.3-7.3 7.3s3.3 7.3 7.3 7.3 7.3-3.3 7.3-7.3-3.2-7.3-7.3-7.3zm-49 24.4c-9.4 0-17.1-7.7-17.1-17.1s7.7-17.1 17.1-17.1 17.1 7.7 17.1 17.1-7.7 17.1-17.1 17.1zm0-24.4c-4 0-7.3 3.3-7.3 7.3s3.3 7.3 7.3 7.3 7.3-3.3 7.3-7.3-3.3-7.3-7.3-7.3zm-49.2 24.4c-9.4 0-17.1-7.7-17.1-17.1s7.7-17.1 17.1-17.1 17.1 7.7 17.1 17.1-7.7 17.1-17.1 17.1zm0-24.4c-4 0-7.3 3.3-7.3 7.3s3.3 7.3 7.3 7.3 7.3-3.3 7.3-7.3-3.3-7.3-7.3-7.3zm203.2-128a17 17 0 0 1-9.2-2.7c-13.7-8.9-30.1-13.7-47.5-13.7s-33.8 4.7-47.5 13.7c-7.6 4.9-17.8 3-23.1-4.2-2.8-3.8-3.9-8.6-3.1-13.3s3.4-8.7 7.4-11.4c19.1-12.8 42-19.6 66.3-19.6s47.3 6.8 66.4 19.6c3.9 2.6 6.6 6.8 7.4 11.5s-.4 9.4-3.2 13.2c-3.4 4.5-8.6 6.9-13.9 6.9zm-56.7-26.2c19.3 0 37.5 5.3 52.8 15.3 3.2 2.1 7.6 1.3 9.9-1.9 1.2-1.6 1.7-3.6 1.4-5.7s-1.5-3.8-3.2-5c-17.5-11.7-38.5-17.9-60.9-17.9s-43.4 6.2-60.9 17.9c-1.7 1.1-2.8 2.9-3.2 4.9-.4 2.1.1 4.1 1.4 5.8 2.3 3.1 6.7 3.9 10 1.8 15.2-9.9 33.5-15.2 52.7-15.2zm86.6-17.1c-3.4 0-6.9-1-10-3.2-21.8-15.5-48.3-23.7-76.6-23.7s-54.8 8.2-76.6 23.7c-7.6 5.4-18.3 3.7-23.8-3.8-2.8-3.8-3.9-8.4-3.2-13s3.2-8.6 7-11.2c27.3-19.9 60.7-30.4 96.6-30.4 36 0 69.4 10.5 96.6 30.5 3.8 2.8 6.3 6.9 7 11.6.7 4.5-.5 9.1-3.2 12.7-3.4 4.4-8.5 6.8-13.8 6.8zm-86.6-36.7c30.4 0 58.8 8.8 82.3 25.5 3.3 2.4 7.8 1.6 10.3-1.7 1.2-1.6 1.7-3.5 1.4-5.4-.3-2-1.4-3.9-3.1-5.1-25.2-18.4-57.5-28.6-90.8-28.6-33.8 0-65.2 9.9-90.9 28.6-1.7 1.2-2.8 2.9-3.1 4.9s.2 4 1.4 5.7c2.4 3.2 6.9 4 10.2 1.6 23.5-16.7 52-25.5 82.3-25.5zm-26.7 123.5c-5.3 0-10.5-2.5-13.8-6.9-.1-.2-.2-.3-.3-.5-2.8-3.9-3.8-8.8-2.8-13.6 1.1-5 4.3-9.3 8.9-11.7 10.4-5.6 22.4-8.5 34.9-8.5 12.4 0 24.5 2.9 34.9 8.5 4.4 2.3 7.6 6.4 8.8 11.3 1.1 4.8.2 9.8-2.7 13.9-.1.2-.3.5-.5.7-5.2 6.5-14.2 8.6-21.6 5-11.8-6-26.3-6-38 0-2.5 1.2-5.1 1.8-7.8 1.8zm-5.7-12.5c2.1 2.7 5.9 3.5 9 1.9 14.4-7.4 32.4-7.4 46.9 0 3.1 1.5 6.9.7 9.3-2 .1-.1.1-.2.2-.3 1.3-1.8 1.8-4.1 1.3-6.3-.5-2.1-1.9-3.9-3.8-4.9-9-4.8-19.5-7.4-30.3-7.4s-21.3 2.5-30.2 7.3c-2 1.1-3.4 3-3.9 5.2-.5 2.1 0 4.2 1.3 6 0 .2.1.4.2.5zm-104.3 59c-2.7 0-4.9-2.2-4.9-4.9v-31.2H87.9v31.2c0 2.7-2.2 4.9-4.9 4.9s-4.9-2.2-4.9-4.9v-32.2c0-4.9 3.9-8.8 8.8-8.8h29.3c4.9 0 8.8 3.9 8.8 8.8v32.2c.1 2.7-2.1 4.9-4.8 4.9zm-7.3-36.2c-2.7 0-4.9-2.2-4.9-4.9V100.7c0-1.7-.7-3.3-1.9-4.6a6.42 6.42 0 0 0-4.6-1.9c-3.6 0-6.5 2.9-6.5 6.5v143.5c0 2.7-2.2 4.9-4.9 4.9s-4.9-2.2-4.9-4.9V100.7c0-8.9 7.3-16.2 16.2-16.2 4.3 0 8.4 1.7 11.5 4.8s4.8 7.1 4.8 11.5v143.5c.1 2.6-2.1 4.8-4.8 4.8zm316.2 36.2c-2.7 0-4.9-2.2-4.9-4.9v-31.2h-27.4v31.2c0 2.7-2.2 4.9-4.9 4.9s-4.9-2.2-4.9-4.9v-32.2c0-4.9 3.9-8.8 8.8-8.8h29.3c4.9 0 8.8 3.9 8.8 8.8v32.2c.1 2.7-2.1 4.9-4.8 4.9zm-7.3-36.2c-2.7 0-4.9-2.2-4.9-4.9V100.7c0-1.7-.7-3.3-1.9-4.6a6.42 6.42 0 0 0-4.6-1.9c-3.6 0-6.5 2.9-6.5 6.5v143.5c0 2.7-2.2 4.9-4.9 4.9s-4.9-2.2-4.9-4.9V100.7c0-8.9 7.3-16.2 16.2-16.2 4.3 0 8.4 1.7 11.5 4.8s4.8 7.1 4.8 11.5v143.5c.1 2.6-2.1 4.8-4.8 4.8z" opacity="1" data-original="url(#a)"></path></g></svg>