<svg xmlns="http://www.w3.org/2000/svg" version="1.1" xmlns:xlink="http://www.w3.org/1999/xlink" width="512" height="512" x="0" y="0" viewBox="0 0 64 64" style="enable-background:new 0 0 512 512" xml:space="preserve"><rect width="64" height="64" rx="12.8" ry="12.8" fill="#bac8d3" shape="rounded"></rect><g transform="matrix(0.69,0,0,0.69,9.920000000000002,9.920000000000002)"><linearGradient id="a" x1="4" x2="60" y1="32" y2="32" gradientUnits="userSpaceOnUse"><stop offset="0" stop-color="#ffde00"></stop><stop offset="1" stop-color="#fd5900"></stop></linearGradient><path fill="url(#a)" d="M21 39h-2c-1.103 0-2 .897-2 2v2c0 1.103.897 2 2 2h2c1.103 0 2-.897 2-2v-2c0-1.103-.897-2-2-2zm0 4h-2v-2h2zm24-4h-2c-1.103 0-2 .897-2 2v2c0 1.103.897 2 2 2h2c1.103 0 2-.897 2-2v-2c0-1.103-.897-2-2-2zm0 4h-2v-2h2zm-8 2H27c-1.317-.022-1.311-1.979 0-2h10c1.317.022 1.311 1.979 0 2zm0-4H27c-1.317-.022-1.311-1.979 0-2h10c1.317.022 1.311 1.979 0 2zm21-14v-3c0-1.654-1.346-3-3-3h-4v-5c0-3.86-3.14-7-7-7H20c-3.86 0-7 3.14-7 7v5H9c-1.654 0-3 1.346-3 3v3c-1.103 0-2 .897-2 2v6c0 1.103.897 2 2 2h2c1.103 0 2-.897 2-2v-6c0-1.103-.897-2-2-2v-3c0-.551.448-1 1-1h4v23c0 1.654 1.346 3 3 3h1v3c0 1.654 1.346 3 3 3h2c1.654 0 3-1.346 3-3v-3h14v3c0 1.654 1.346 3 3 3h2c1.654 0 3-1.346 3-3v-3h1c1.654 0 3-1.346 3-3V23h4c.552 0 1 .449 1 1v3c-1.103 0-2 .897-2 2v6c0 1.103.897 2 2 2h2c1.103 0 2-.897 2-2v-6c0-1.103-.897-2-2-2zM8 35H6l-.001-6H8zm7-16h34v14.198a77.546 77.546 0 0 1-34 0V19zm34-3v1H33v-6h11c2.757 0 5 2.243 5 5zm-29-5h11v6H15c-.33-3.152 1.716-5.967 5-6zm3 41c0 .551-.448 1-1 1h-2c-.552 0-1-.449-1-1v-3h4zm22 0c0 .551-.448 1-1 1h-2c-.552 0-1-.449-1-1v-3h4zm3-5H16c-.552 0-1-.449-1-1V35.244a79.115 79.115 0 0 0 17 1.84c5.719 0 11.438-.614 17-1.84V46c0 .551-.448 1-1 1zm10-12h-2v-6h2z" opacity="1" data-original="url(#a)"></path></g></svg>