<svg xmlns="http://www.w3.org/2000/svg" version="1.1" xmlns:xlink="http://www.w3.org/1999/xlink" width="512" height="512" x="0" y="0" viewBox="0 0 512 512" style="enable-background:new 0 0 512 512" xml:space="preserve" class=""><rect width="512" height="512" rx="102.4" ry="102.4" fill="#bac8d3" shape="rounded"></rect><g transform="matrix(0.6399999999999999,0,0,0.6399999999999999,82.13270721435546,92.16862426757814)"><linearGradient id="a" x1="256" x2="256" y1="64.566" y2="447.434" gradientUnits="userSpaceOnUse"><stop offset=".104" stop-color="#f26922"></stop><stop offset=".886" stop-color="#febc20"></stop></linearGradient><path fill="url(#a)" d="M469.7 185.3h-40.8l-43.5-99.6c-7.8-17.8-28.6-26-46.5-18.2L28.1 203.2c-17.8 7.8-26 28.6-18.2 46.5l76.7 175.6c5.6 12.9 18.6 21.2 32.4 21.2.9 0 1.8 0 2.6-.1 2.8.7 5.8 1.1 8.9 1.1h339.1c19.5 0 35.3-15.8 35.3-35.3V220.6c.1-19.5-15.7-35.3-35.2-35.3zM22.4 244.2c-4.8-10.9.2-23.7 11.2-28.5L344.4 80c11-4.8 23.8.2 28.5 11.2l41.1 94.1H130.6c-19.5 0-35.3 15.8-35.3 35.3V411zm469 167.9c0 11.9-9.7 21.7-21.7 21.7H130.6c-2.1 0-4.2-.3-6.1-.9-.1 0-.3-.1-.4-.1-8.8-2.8-15.2-11-15.2-20.7V220.6c0-11.9 9.7-21.7 21.7-21.7H469.7c11.9 0 21.7 9.7 21.7 21.7zm-35.6-39.2h-68.1c-7.5 0-13.6 6.1-13.6 13.6v22.4c0 7.5 6.1 13.6 13.6 13.6h68.1c7.5 0 13.6-6.1 13.6-13.6v-22.4c.1-7.5-6-13.6-13.6-13.6zm0 35.9h-68.1v-22.4h68.1zM291.9 278c0-3.8 3-6.8 6.8-6.8h161.1c3.8 0 6.8 3 6.8 6.8s-3 6.8-6.8 6.8H298.7c-3.8 0-6.8-3-6.8-6.8zm0 25.6c0-3.8 3-6.8 6.8-6.8h161.1c3.8 0 6.8 3 6.8 6.8s-3 6.8-6.8 6.8H298.7c-3.8 0-6.8-3.1-6.8-6.8zm0 25.5c0-3.8 3-6.8 6.8-6.8h161.1c3.8 0 6.8 3 6.8 6.8s-3 6.8-6.8 6.8H298.7c-3.8 0-6.8-3-6.8-6.8zm167.9 32.4H298.7c-3.8 0-6.8-3-6.8-6.8s3-6.8 6.8-6.8h161.1c3.8 0 6.8 3 6.8 6.8s-3 6.8-6.8 6.8zm-220-119.2h-88.1c-10 0-18.1 8.1-18.1 18.1v111.9c0 10 8.1 18.1 18.1 18.1h88.1c10 0 18.1-8.1 18.1-18.1V260.4c0-10-8.1-18.1-18.1-18.1zm4.5 130c0 2.4-2.1 4.5-4.5 4.5h-88.1c-2.5 0-4.5-2-4.5-4.5V260.4c0-2.4 2.1-4.5 4.5-4.5h88.1c2.4 0 4.5 2.1 4.5 4.5zM217 319.2c6.2-5.7 10-13.9 10-22.9 0-17.2-14-31.2-31.2-31.2s-31.2 14-31.2 31.2c0 9 3.9 17.2 10 22.9-15.1 7.7-25.5 23.5-25.5 41.6 0 3.8 3 6.8 6.8 6.8h79.7c3.8 0 6.8-3 6.8-6.8.1-18.1-10.3-33.9-25.4-41.6zm-21.2-40.5c9.7 0 17.6 7.9 17.6 17.6s-7.9 17.6-17.6 17.6-17.6-7.9-17.6-17.6 7.9-17.6 17.6-17.6zM163.4 354c3.1-15 16.5-26.2 32.4-26.2S225 339 228.1 354zm128.5-113.6v-20.3c0-3.8 3-6.8 6.8-6.8s6.8 3 6.8 6.8v20.3c0 3.8-3 6.8-6.8 6.8s-6.8-3-6.8-6.8zm21.4 0v-20.3c0-3.8 3-6.8 6.8-6.8s6.8 3 6.8 6.8v20.3c0 3.8-3 6.8-6.8 6.8s-6.8-3-6.8-6.8zm21.4 0v-20.3c0-3.8 3-6.8 6.8-6.8s6.8 3 6.8 6.8v20.3c0 3.8-3 6.8-6.8 6.8s-6.8-3-6.8-6.8zm21.4 0v-20.3c0-3.8 3-6.8 6.8-6.8s6.8 3 6.8 6.8v20.3c0 3.8-3 6.8-6.8 6.8s-6.8-3-6.8-6.8zm21.4 0v-20.3c0-3.8 3-6.8 6.8-6.8s6.8 3 6.8 6.8v20.3c0 3.8-3 6.8-6.8 6.8s-6.8-3-6.8-6.8zm21.4 0v-20.3c0-3.8 3-6.8 6.8-6.8s6.8 3 6.8 6.8v20.3c0 3.8-3 6.8-6.8 6.8s-6.8-3-6.8-6.8zm54.1 0v-20.3c0-3.8 3-6.8 6.8-6.8s6.8 3 6.8 6.8v20.3c0 3.8-3 6.8-6.8 6.8-3.7 0-6.8-3-6.8-6.8z" opacity="1" data-original="url(#a)"></path></g></svg>