<svg xmlns="http://www.w3.org/2000/svg" version="1.1" xmlns:xlink="http://www.w3.org/1999/xlink" width="512" height="512" x="0" y="0" viewBox="0 0 128 128" style="enable-background:new 0 0 512 512" xml:space="preserve"><rect width="128" height="128" rx="25.6" ry="25.6" fill="#bac8d3" shape="rounded"></rect><g transform="matrix(0.57,0,0,0.57,27.520000000000003,22.519829611778263)"><linearGradient id="a" x1="113.328" x2="14.672" y1="122.628" y2="23.973" gradientUnits="userSpaceOnUse"><stop offset="0" stop-color="#fd5c70"></stop><stop offset="1" stop-color="#ffce64"></stop></linearGradient><path fill="url(#a)" d="M26.95 36.65a1.751 1.751 0 0 1 1.75-1.75h4.97a1.75 1.75 0 0 1 0 3.5H28.7a1.751 1.751 0 0 1-1.75-1.75zm64.29 59.11a1.75 1.75 0 0 0 1.75-1.75v-4.97a1.75 1.75 0 0 0-3.5 0v4.97a1.751 1.751 0 0 0 1.75 1.75zm34.51-53.4v64.76a7.469 7.469 0 0 1-7.46 7.46h-5.145l-.941 6.781a1.751 1.751 0 0 1-1.734 1.509h-7.552a1.75 1.75 0 0 1-1.733-1.509l-.942-6.781H27.757l-.942 6.781a1.75 1.75 0 0 1-1.733 1.509H17.53a1.751 1.751 0 0 1-1.734-1.509l-.941-6.781H9.71a7.469 7.469 0 0 1-7.46-7.46V42.36a7.469 7.469 0 0 1 7.46-7.46h9.87a1.75 1.75 0 0 1 0 3.5H9.71a3.964 3.964 0 0 0-3.96 3.96v64.76a3.964 3.964 0 0 0 3.96 3.96h79.78v-7.95a1.75 1.75 0 0 1 3.5 0v7.95c36.964-.009-8.237 0 25.3 0a3.964 3.964 0 0 0 3.96-3.96V42.36a3.964 3.964 0 0 0-3.96-3.96h-25.3v41.52a1.75 1.75 0 0 1-3.5 0V38.4H42.78a1.75 1.75 0 0 1 0-3.5h8.04a13.225 13.225 0 0 1 2.627-6.328L33 8.117a1.75 1.75 0 0 1 2.476-2.474L55.922 26.1a13.217 13.217 0 0 1 16.156 0L92.522 5.643A1.75 1.75 0 0 1 95 8.117L74.553 28.572A13.225 13.225 0 0 1 77.18 34.9h41.11a7.469 7.469 0 0 1 7.46 7.46zM64 26.84a9.775 9.775 0 0 0-6.929 2.874h-.006a9.794 9.794 0 0 0-2.718 5.186h19.306a9.794 9.794 0 0 0-2.714-5.176h-.006A9.775 9.775 0 0 0 64 26.84zm-39.777 87.74h-5.835l.666 4.79h4.5zm85.389 0h-5.835l.665 4.79h4.5zM12 42.9h71.235a1.756 1.756 0 0 1 1.75 1.75v60.177a1.756 1.756 0 0 1-1.75 1.75H12a1.757 1.757 0 0 1-1.75-1.75V44.649A1.757 1.757 0 0 1 12 42.9zm4.225 60.177h62.786l-4.427-4.427a260.26 260.26 0 0 1-29.564 1.41 1.75 1.75 0 0 1 .04-3.5 254.023 254.023 0 0 0 28.626-1.326A162.531 162.531 0 0 0 74.98 74.74a162.531 162.531 0 0 0-1.294-20.494 254.938 254.938 0 0 0-52.131 0 162.492 162.492 0 0 0 0 40.987c4.847.5 9.7.855 14.444 1.069a1.75 1.75 0 0 1-.158 3.5c-4.991-.225-10.1-.613-15.194-1.145zm65.26-2.475V48.874l-4.408 4.408a165.813 165.813 0 0 1 1.4 21.458 165.929 165.929 0 0 1-1.4 21.454zM79.011 46.4H16.225l4.431 4.432a256.588 256.588 0 0 1 53.924 0zM13.75 48.874V100.6l4.412-4.412a165.934 165.934 0 0 1 0-42.9zm85.013 45.972c0-7.237 3.889-12.906 8.855-12.906s8.854 5.669 8.854 12.906-3.889 12.906-8.854 12.906-8.855-5.669-8.855-12.906zm7.1 8.858V96.6h-3.5c.368 3.269 1.737 5.99 3.505 7.1zm7-7.108h-3.5v7.104c1.77-1.11 3.137-3.831 3.509-7.1zm-3.5-10.608V93.1h3.5c-.363-3.277-1.73-6-3.495-7.112zm-7 7.108h3.5v-7.108c-1.763 1.112-3.132 3.835-3.499 7.112zm-3.6-22.41a8.855 8.855 0 1 1 8.855 8.855 8.864 8.864 0 0 1-8.855-8.855zm3.5 0a5.355 5.355 0 1 0 10.709 0 5.289 5.289 0 0 0-.554-2.326l-3.563 3.563a1.75 1.75 0 0 1-2.475-2.474l3.564-3.564a5.3 5.3 0 0 0-2.326-.553 5.36 5.36 0 0 0-5.355 5.354zm-3.5-20.109a8.855 8.855 0 1 1 8.855 8.855 8.866 8.866 0 0 1-8.855-8.855zm8.855-5.354a5.289 5.289 0 0 0-2.326.554l3.563 3.563a1.75 1.75 0 1 1-2.475 2.474l-3.563-3.563a5.292 5.292 0 0 0-.554 2.326 5.355 5.355 0 1 0 5.355-5.354z" opacity="1" data-original="url(#a)"></path></g></svg>