<svg xmlns="http://www.w3.org/2000/svg" version="1.1" xmlns:xlink="http://www.w3.org/1999/xlink" width="512" height="512" x="0" y="0" viewBox="0 0 512 512" style="enable-background:new 0 0 512 512" xml:space="preserve" class=""><rect width="512" height="512" rx="102.4" ry="102.4" fill="#bac8d3" shape="rounded"></rect><g transform="matrix(0.6,0,0,0.6,102.4,102.39920654296876)"><linearGradient id="a" x1="256" x2="256" y1="422.465" y2="89.535" gradientUnits="userSpaceOnUse"><stop offset="0" stop-color="#6c54a3"></stop><stop offset="1" stop-color="#00b1d2"></stop></linearGradient><path fill="url(#a)" fill-rule="evenodd" d="M467.951 335.582a8 8 0 0 1-8 8h-31.983a8 8 0 0 1 0-16h31.982a8 8 0 0 1 8 8zm-69.639 0a8 8 0 0 1-8 8h-31.983a8 8 0 1 1 0-16h31.982a8 8 0 0 1 8 8zm-69.644 0a8 8 0 0 1-8 8H288.69a8 8 0 1 1 0-16h31.982a7.994 7.994 0 0 1 8 8zm-69.639 0a8 8 0 0 1-8 8H219.05a8 8 0 1 1 0-16h31.977a8 8 0 0 1 8 8zm-115.841-8H79.6v-63.588h63.586v63.591zm8-79.593H71.6a8 8 0 0 0-8 8v79.589a8 8 0 0 0 8 8h79.59a8 8 0 0 0 8-8v-79.585a8 8 0 0 0-8-8zM16 406.462h480V177.305H16zm480-300.929V161.3H16v-55.767zm8-16H8a8.006 8.006 0 0 0-8 8v316.93a8.013 8.013 0 0 0 8 8h496a8.006 8.006 0 0 0 8-8V97.536a8 8 0 0 0-8-8.001z" opacity="1" data-original="url(#a)"></path></g></svg>