<svg xmlns="http://www.w3.org/2000/svg" version="1.1" xmlns:xlink="http://www.w3.org/1999/xlink" width="512" height="512" x="0" y="0" viewBox="0 0 512 512" style="enable-background:new 0 0 512 512" xml:space="preserve" class=""><rect width="512" height="512" rx="102.4" ry="102.4" fill="#bac8d3" shape="rounded"></rect><g transform="matrix(0.65,0,0,0.65,94.6000747680664,84.5994432449341)"><linearGradient id="a" x1="256" x2="256" y1="475.727" y2="36.273" gradientUnits="userSpaceOnUse"><stop offset="0" stop-color="#ff506a"></stop><stop offset="1" stop-color="#ffe28f"></stop></linearGradient><path fill="url(#a)" d="m371.523 190.027 43.725-67.128c15.287 3.654 29.718-1.277 39.538-11.096 8.067-8.06 12.492-18.755 12.479-30.108-.013-11.272-4.419-21.847-12.372-29.746-16.168-16.277-43.006-16.794-59.881.08a42.23 42.23 0 0 0-11.195 39.787l-66.933 43.57-97.102-97.104a6.868 6.868 0 0 0-9.703-.007c-64.352 64.203-72.34 166.763-15.359 241.022-22.203 6.146-38.205 26.252-38.205 50.435v56.34h-11.037c-9.535 0-18.373 5.599-22.544 14.323l-28.779 61.597H48.329c-3.795 0-6.866 3.071-6.866 6.866s3.071 6.867 6.866 6.867h321.297c3.795 0 6.866-3.071 6.866-6.867s-3.071-6.866-6.866-6.866h-45.833l-28.766-61.584c-4.043-8.711-12.895-14.336-22.551-14.336h-11.044v-53.155c68.965 32.521 152.478 18.44 207.094-36.177a6.865 6.865 0 0 0 0-9.71zm33.2-128.288c11.232-11.232 29.333-11.278 40.461-.08 11.071 11.002 11.239 29.088-.107 40.435-11.363 11.363-29.486 10.868-40.354 0-11.206-11.206-11.142-29.213 0-40.355zm-15.443 42.909c6.27 8.173 4.253 6.278 13.009 12.989L361.6 180.099l-34.789-34.788zM282.574 406.204l26.058 55.79H109.316l26.038-55.737c1.904-3.976 5.78-6.451 10.125-6.451h126.997c4.331.001 8.294 2.508 10.098 6.398zm-112.325-20.13v-56.34c0-21.156 16.569-38.141 37.725-38.671 22.66-.621 39.724 18.043 39.724 38.671v56.34zm89.546-69.322c-.045-.18-.124-.348-.172-.528-6.011-22.658-26.261-38.29-48.926-38.988-54.595-63.631-54.684-160.537 4.325-224.294l238.839 238.845c-52.565 48.441-130.966 58.687-194.066 24.965zm-50.848-10.77c-14.9 0-27.017 12.124-27.017 27.023 0 14.947 12.117 27.104 27.017 27.104 14.947 0 27.111-12.157 27.111-27.104 0-14.899-12.164-27.023-27.111-27.023zm0 40.395c-7.322 0-13.284-6.001-13.284-13.371 0-7.329 5.961-13.29 13.284-13.29 7.376 0 13.378 5.961 13.378 13.29 0 7.369-6.002 13.371-13.378 13.371z" opacity="1" data-original="url(#a)"></path></g></svg>