<svg xmlns="http://www.w3.org/2000/svg" version="1.1" xmlns:xlink="http://www.w3.org/1999/xlink" width="512" height="512" x="0" y="0" viewBox="0 0 512 512" style="enable-background:new 0 0 512 512" xml:space="preserve" class=""><rect width="512" height="512" rx="102.4" ry="102.4" fill="#bac8d3" shape="rounded"></rect><g transform="matrix(0.58,0,0,0.58,107.52017804145814,107.519875831604)"><linearGradient id="a" x1="42.788" x2="464.672" y1="465.237" y2="43.353" gradientUnits="userSpaceOnUse"><stop offset="0" stop-color="#696eff"></stop><stop offset="1" stop-color="#f8acff"></stop></linearGradient><path fill="url(#a)" d="M111.965 443.388c12.518 0 22.705 10.187 22.705 22.707a4.9 4.9 0 0 0 4.902 4.902h223.694a4.901 4.901 0 0 0 4.902-4.902c0-12.521 10.187-22.707 22.71-22.707a4.901 4.901 0 0 0 4.902-4.902v-80.94a4.9 4.9 0 0 0-4.902-4.902c-12.523 0-22.71-10.184-22.71-22.705a4.9 4.9 0 0 0-4.902-4.902H139.572a4.901 4.901 0 0 0-4.902 4.902c0 12.521-10.187 22.705-22.705 22.705a4.901 4.901 0 0 0-4.902 4.902v80.94a4.9 4.9 0 0 0 4.902 4.902zm4.902-81.309c14.007-2.128 25.108-13.231 27.238-27.238h214.628c2.13 14.009 13.231 25.111 27.243 27.238v71.873c-14.012 2.128-25.118 13.229-27.243 27.241H144.105c-2.125-14.009-13.231-25.113-27.238-27.241zm134.554 81.447c18.698 0 33.907-20.417 33.907-45.511s-15.208-45.508-33.907-45.508-33.912 20.414-33.912 45.508 15.214 45.511 33.912 45.511zm0-81.214c13.289 0 24.103 16.018 24.103 35.704 0 19.689-10.814 35.707-24.103 35.707-13.294 0-24.108-16.018-24.108-35.707.001-19.687 10.815-35.704 24.108-35.704zm83.261 60.209c13.514 0 24.505-10.993 24.505-24.505s-10.991-24.503-24.505-24.503-24.505 10.991-24.505 24.503 10.992 24.505 24.505 24.505zm0-39.204c8.104 0 14.701 6.594 14.701 14.699 0 8.107-6.597 14.701-14.701 14.701s-14.701-6.594-14.701-14.701c0-8.105 6.597-14.699 14.701-14.699zm-166.527 39.204c13.514 0 24.505-10.993 24.505-24.505s-10.991-24.503-24.505-24.503c-13.509 0-24.5 10.991-24.5 24.503s10.991 24.505 24.5 24.505zm0-39.204c8.104 0 14.701 6.594 14.701 14.699 0 8.107-6.597 14.701-14.701 14.701s-14.696-6.594-14.696-14.701c0-8.105 6.592-14.699 14.696-14.699zM14.902 98.37l79.843 24.339v118.703c0 5.95 2.049 11.664 5.773 16.092 10.951 13.026 27.818 24.079 48.526 32.533H91.653c-10.804 0-19.593 8.791-19.593 19.596v176.769c0 10.807 8.789 19.598 19.593 19.598H411.18c10.804 0 19.598-8.791 19.598-19.598v-176.77c0-10.804-8.794-19.596-19.598-19.596h-58.731c20.74-8.479 37.624-19.573 48.573-32.65 3.705-4.426 5.749-10.127 5.749-16.056V125.416l61.514-18.476v71.825l-23.792 18.326a4.893 4.893 0 0 0-1.91 3.882v75.741a4.906 4.906 0 0 0 3.126 4.569 4.886 4.886 0 0 0 5.395-1.261l22.083-24.16 22.083 24.16a4.903 4.903 0 0 0 8.521-3.308v-75.741c0-1.52-.704-2.956-1.91-3.882l-23.792-18.326v-74.77l18.952-5.692a10.77 10.77 0 0 0 7.717-10.352c.01-4.797-3.073-8.959-7.659-10.357L266.433 7.279a29.403 29.403 0 0 0-17.08-.024L14.955 77.661c-4.605 1.381-7.702 5.541-7.712 10.347a10.746 10.746 0 0 0 7.659 10.362zm479.084 165.716-17.181-18.796a4.903 4.903 0 0 0-7.238 0l-17.181 18.796v-60.7l19.47-14.998c1.242.357 1.397.363 2.659 0l19.47 14.998v60.7zm-73.012 45.546v176.769c0 5.4-4.395 9.794-9.794 9.794H91.653c-5.4 0-9.79-4.395-9.79-9.794V309.632c0-5.4 4.39-9.792 9.79-9.792H411.18c5.399 0 9.794 4.393 9.794 9.792zm-27.468-58.541c-14.439 17.247-40.324 30.81-72.167 38.945H180.184c-31.823-8.119-57.703-21.645-72.159-38.842-2.24-2.664-3.475-6.137-3.475-9.782v-36.38c60.191 61.686 231.889 62.155 292.417-.065v36.364c0 3.628-1.23 7.096-3.461 9.76zm3.461-61.336c-47.507 69.14-244.739 69.151-292.417.101v-64.158l141.027 42.99a29.353 29.353 0 0 0 17.071.019l134.32-40.345v61.393zM17.779 87.049l234.393-70.403a19.626 19.626 0 0 1 11.398.012l230.67 70.314c.196.06.713.218.713.962-.005.761-.536.919-.737.981l-234.393 70.403a19.538 19.538 0 0 1-11.384-.01L17.76 88.992c-.196-.06-.713-.218-.713-.965 0-.758.531-.919.732-.978z" opacity="1" data-original="url(#a)"></path></g></svg>