<svg xmlns="http://www.w3.org/2000/svg" version="1.1" xmlns:xlink="http://www.w3.org/1999/xlink" width="512" height="512" x="0" y="0" viewBox="0 0 512 512" style="enable-background:new 0 0 512 512" xml:space="preserve"><rect width="512" height="512" rx="102.4" ry="102.4" fill="#bac8d3" shape="rounded"></rect><g transform="matrix(0.6699999999999999,0,0,0.6699999999999999,84.48016616821292,84.48016616821292)"><linearGradient id="a" x1="256" x2="256" y1="506" y2="6" gradientUnits="userSpaceOnUse"><stop offset="0" stop-color="#ff6100"></stop><stop offset="1" stop-color="#fdb82e"></stop></linearGradient><path fill="url(#a)" d="M142.849 42.658a5 5 0 1 1 8.66-5l21.726 37.629a4.999 4.999 0 0 1-4.325 7.5 4.996 4.996 0 0 1-4.335-2.5zm197.747 39.459a4.996 4.996 0 0 0 6.83-1.83l21.726-37.629a4.999 4.999 0 0 0-1.83-6.83 4.998 4.998 0 0 0-6.83 1.83l-21.726 37.629a4.999 4.999 0 0 0 1.83 6.83zM256 59.45a5 5 0 0 0 5-5V11a5 5 0 1 0-10 0v43.451a5 5 0 0 0 5 5zM81.809 223.643H38.358a5 5 0 0 0 0 10h43.451a5 5 0 0 0 0-10zm367.005-106.321a4.999 4.999 0 0 0-6.83-1.83l-37.63 21.726a4.999 4.999 0 0 0 2.505 9.331c.848 0 1.708-.216 2.495-.671l37.63-21.726a4.999 4.999 0 0 0 1.83-6.83zm-341.168 19.896-37.629-21.726a5 5 0 0 0-5 8.66l37.629 21.726a4.999 4.999 0 0 0 6.83-1.83 4.999 4.999 0 0 0-1.83-6.83zm365.997 86.426h-43.451a5 5 0 1 0 0 10h43.451a5 5 0 1 0 0-10zm-89.529-61.042c19.675 37.139 20.299 80.988 1.756 123.469-5.857 13.421-13.231 24.824-21.039 36.896-7.472 11.554-15.198 23.501-23.014 39.085-9.849 19.635-14.636 40.678-14.636 64.333v25.22c0 13.003-10.579 23.582-23.582 23.582h-11.097c-2.943 17.62-18.136 30.814-36.502 30.814s-33.558-13.194-36.501-30.814h-11.096c-13.003 0-23.582-10.579-23.582-23.582v-25.22c0-23.655-4.789-44.699-14.637-64.333-7.816-15.584-15.542-27.531-23.015-39.085-7.807-12.072-15.181-23.475-21.039-36.896-20.267-46.433-17.438-95.142 7.762-133.637 25.556-39.04 70.062-61.43 122.107-61.43 3.177 0 6.354.107 9.498.275l36.078-36.078a4.999 4.999 0 0 1 8.063 5.655l-16.054 34.31c39.768 9.167 72.536 33.477 90.528 67.438zm-95.595-80.203-92.287 92.288h52.283a5.002 5.002 0 0 1 4.529 7.119l-29.561 63.174 92.287-92.288h-52.283a5.002 5.002 0 0 1-4.529-7.119l29.561-63.175zm-6.203 392.788h-52.63c2.791 12.012 13.497 20.814 26.315 20.814s23.524-8.802 26.315-20.814zm34.865-23.582v-20.22h-122.36v20.22c0 7.489 6.093 13.582 13.582 13.582h95.195c7.489 0 13.582-6.093 13.582-13.582zM264.548 285.29c0-4.713-3.835-8.548-8.548-8.548s-8.547 3.835-8.547 8.548 3.834 8.548 8.547 8.548 8.548-3.834 8.548-8.548zm110.729-118.007c-16.936-31.968-48.15-54.715-86.027-62.852l-17.904 38.262h56.495a4.999 4.999 0 0 1 3.535 8.535L210.424 272.18a4.994 4.994 0 0 1-6.405.558 4.998 4.998 0 0 1-1.658-6.213l38.295-81.839h-56.495a5 5 0 0 1-3.536-8.535l75.145-75.145c-48.51.066-89.874 20.796-113.51 56.904-23.318 35.621-25.856 80.875-6.963 124.16 5.532 12.674 12.362 23.236 20.271 35.465 7.263 11.231 15.495 23.96 23.556 40.032 9.715 19.369 14.959 40.816 15.622 63.816h29.568v-74.87l-14.592-14.591a18.423 18.423 0 0 1-9.084 2.394c-10.227 0-18.547-8.32-18.547-18.547s8.32-18.548 18.547-18.548 18.548 8.321 18.548 18.548c0 3.3-.876 6.396-2.394 9.083l16.056 16.055a5 5 0 0 1 1.465 3.536v76.94h16.688V303.132c-7.802-2.19-13.547-9.351-13.547-17.844 0-10.228 8.32-18.548 18.547-18.548s18.548 8.321 18.548 18.548c0 8.493-5.745 15.654-13.548 17.844v118.251h16.688v-76.94c0-1.326.527-2.598 1.465-3.536l16.056-16.056a18.421 18.421 0 0 1-2.393-9.083c0-10.228 8.32-18.548 18.548-18.548s18.548 8.321 18.548 18.548-8.32 18.547-18.548 18.547c-3.301 0-6.396-.876-9.084-2.394l-14.592 14.592v74.869h29.568c.662-23 5.906-44.447 15.62-63.816 8.062-16.072 16.294-28.801 23.557-40.032 7.909-12.229 14.739-22.791 20.271-35.465 17.298-39.631 16.791-80.396-1.429-114.788zm-63.912 157.034c4.713 0 8.548-3.834 8.548-8.547s-3.835-8.548-8.548-8.548-8.548 3.834-8.548 8.548 3.835 8.547 8.548 8.547zm-102.179-8.547c0-4.714-3.835-8.548-8.548-8.548s-8.547 3.834-8.547 8.548 3.834 8.547 8.547 8.547 8.548-3.834 8.548-8.547z" opacity="1" data-original="url(#a)"></path></g></svg>