<svg xmlns="http://www.w3.org/2000/svg" version="1.1" xmlns:xlink="http://www.w3.org/1999/xlink" width="512" height="512" x="0" y="0" viewBox="0 0 2134 2134" style="enable-background:new 0 0 512 512" xml:space="preserve" fill-rule="evenodd"><rect width="2134" height="2134" rx="426.8" ry="426.8" fill="#bac8d3" shape="rounded"></rect><g transform="matrix(0.7,0,0,0.7,320.00072250366213,320.0009399414063)"><linearGradient id="a" x1="0" x2="1" y1="0" y2="0" gradientTransform="matrix(1950 0 0 5850 91.667 1066.67)" gradientUnits="userSpaceOnUse"><stop offset="0" stop-color="#78cbf7"></stop><stop offset="1" stop-color="#209cff"></stop></linearGradient><path fill="url(#a)" d="M1241.67 1014.42v651.771l196.054 33.711a41.67 41.67 0 0 1 33.942 33.653l36.006 199.21a41.665 41.665 0 0 1-46.92 48.655l-280.139-40.194c-28.14 42.472-61.624 73.558-90.49 93.216a41.665 41.665 0 0 1-46.906 0c-28.867-19.658-62.35-50.744-90.491-93.216l-280.139 40.194a41.665 41.665 0 0 1-46.92-48.655l36.006-199.21a41.67 41.67 0 0 1 33.942-33.653l196.055-33.711V1014.42l-751.484 125.247a41.664 41.664 0 0 1-41.299-17.662 41.664 41.664 0 0 1-1.264-44.9l133.333-221.868a41.661 41.661 0 0 1 24.878-18.771L891.67 665.222V486.731c0-202.007 42.474-299.107 81.558-345.138 35.739-42.092 73.076-49.923 93.442-49.923 20.365 0 57.703 7.831 93.442 49.923 39.083 46.031 81.558 143.131 81.558 345.138v178.491l635.835 171.244a41.661 41.661 0 0 1 24.878 18.771l133.334 221.868a41.668 41.668 0 0 1-42.564 62.562zm-83.334 686.238V486.728c0-143.508-21.211-225.729-48.156-271.752-17.186-29.354-33.419-39.976-43.51-39.976-10.092 0-26.324 10.622-43.51 39.976-26.945 46.023-48.157 128.244-48.157 271.752v1213.93c.004.457.004.913 0 1.369v31.309c0 102.175 47.175 173.784 91.667 213.745 44.492-39.961 91.666-111.57 91.666-213.745v-31.309c-.003-.456-.003-.912 0-1.369zm83.334-770.721 676.099 112.684-78.159-130.058-597.94-161.038zm-350-178.412L293.729 912.563l-78.159 130.058 676.1-112.684zm.36 999.161-153.541 26.401-20.54 113.638 195.504-28.051c-11.811-33.161-19.691-70.494-21.423-111.988zm327.856 111.988 195.504 28.051-20.54-113.638-153.54-26.401c-1.733 41.494-9.612 78.827-21.424 111.988z" opacity="1" data-original="url(#a)"></path></g></svg>