<svg xmlns="http://www.w3.org/2000/svg" version="1.1" xmlns:xlink="http://www.w3.org/1999/xlink" width="512" height="512" x="0" y="0" viewBox="0 0 512 512" style="enable-background:new 0 0 512 512" xml:space="preserve" class=""><rect width="512" height="512" rx="102.4" ry="102.4" fill="#bac8d3" shape="rounded"></rect><g transform="matrix(0.69,0,0,0.69,79.3599042129517,79.35985572814943)"><linearGradient id="a" x1="105.193" x2="406.787" y1="406.802" y2="105.208" gradientUnits="userSpaceOnUse"><stop offset="0" stop-color="#f803fe"></stop><stop offset="1" stop-color="#0ecbde"></stop></linearGradient><path fill="url(#a)" d="M85.522 375.321h140.525l123.845 66.397c13.876 7.432 31.23 2.184 38.651-11.701l29.3-54.696h8.622c15.748 0 28.564-12.817 28.564-28.564v-40.718l19.281-35.989c7.439-13.923 2.198-31.224-11.686-38.651l-7.595-4.096v-62.041c0-15.748-12.817-28.564-28.564-28.564H285.954L162.103 70.291c-6.732-3.6-14.453-4.352-21.751-2.15-7.312 2.217-13.315 7.134-16.901 13.851l-29.304 54.704h-8.626c-15.748 0-28.564 12.817-28.564 28.564v40.71l-19.288 35.99c-7.355 13.795-2.285 31.177 11.701 38.644l7.587 4.095v62.057c.001 15.748 12.817 28.565 28.565 28.565zm-17.139-28.565V231.197h57.092c-5.736 3.125-10.803 6.139-12.638 7.974h-.007c-6.263 6.278-6.263 16.491.007 22.777 6.266 6.251 16.479 6.269 22.77-.007 1.837-1.837 4.855-6.91 7.982-12.652v114.606H85.522c-9.447 0-17.139-7.692-17.139-17.139zm68.124-108.485c-4.039 7.773-7.639 14.186-8.978 15.584-1.815 1.83-4.79 1.822-6.606.007a4.689 4.689 0 0 1-.015-6.606c1.42-1.346 7.833-4.946 15.599-8.985zm241.964 186.353c-4.448 8.331-14.848 11.463-23.186 7.022l-105.052-56.325h154.646zm47.994-60.729H155.014V249.3c3.124 5.737 6.138 10.805 7.974 12.641v.007c6.266 6.251 16.479 6.269 22.77-.007 6.278-6.278 6.278-16.492 0-22.77-1.836-1.836-6.904-4.85-12.641-7.974h270.487v115.559c0 9.447-7.692 17.139-17.139 17.139zM162.088 238.271c7.773 4.039 14.186 7.639 15.591 8.978a4.675 4.675 0 0 1 0 6.606c-1.815 1.83-4.79 1.815-6.606.015-1.345-1.421-4.946-7.833-8.985-15.599zm295.129 3.191c8.336 4.46 11.486 14.851 7.022 23.194l-9.209 17.186v-41.558zm-13.613-76.201v54.51H173.109c5.74-3.127 10.812-6.145 12.649-7.982 6.278-6.278 6.278-16.492 0-22.777-6.286-6.271-16.499-6.248-22.77.007-1.836 1.836-4.85 6.905-7.974 12.644v-53.542h271.451c9.447.001 17.139 7.693 17.139 17.14zm-281.516 47.428c4.039-7.766 7.639-14.186 8.978-15.584 1.804-1.818 4.791-1.829 6.613-.007s1.822 4.783.007 6.606c-1.42 1.346-7.832 4.946-15.598 8.985zM133.531 87.385c2.15-4.032 5.743-6.977 10.131-8.309a16.964 16.964 0 0 1 13.047 1.287l105.06 56.333H107.113zm-48.009 60.737h58.066v53.549c-3.127-5.742-6.145-10.815-7.982-12.652-6.278-6.278-16.484-6.278-22.762 0s-6.278 16.491-.007 22.77c1.837 1.837 6.91 4.855 12.652 7.982H68.383v-54.51c0-9.447 7.692-17.139 17.139-17.139zm50.985 64.567c-7.766-4.039-14.178-7.639-15.584-8.978a4.684 4.684 0 0 1 0-6.613 4.67 4.67 0 0 1 6.598-.007c1.346 1.42 4.946 7.833 8.986 15.598zm-81.729 57.843c-8.331-4.441-11.478-14.848-7.03-23.179l9.209-17.186v41.542zm349.237 27.159a5.715 5.715 0 0 1-5.713 5.713h-44.26c-3.154 0-5.713-2.559-5.713-5.713s2.559-5.713 5.713-5.713h44.26a5.715 5.715 0 0 1 5.713 5.713zm0 30.283a5.715 5.715 0 0 1-5.713 5.713H286.276c-3.154 0-5.713-2.559-5.713-5.713s2.559-5.713 5.713-5.713h112.026a5.715 5.715 0 0 1 5.713 5.713z" opacity="1" data-original="url(#a)"></path></g></svg>