<svg xmlns="http://www.w3.org/2000/svg" version="1.1" xmlns:xlink="http://www.w3.org/1999/xlink" width="512" height="512" x="0" y="0" viewBox="0 0 24 24" style="enable-background:new 0 0 512 512" xml:space="preserve" class=""><rect width="24" height="24" rx="4.8" ry="4.8" fill="#bac8d3" shape="rounded"></rect><g transform="matrix(0.6399999999999999,0,0,0.6399999999999999,4.320000000000001,4.320000000000001)"><linearGradient id="a" x1="5.527" x2="18.205" y1="22.479" y2=".52" gradientUnits="userSpaceOnUse"><stop offset="0" stop-color="#5433ff"></stop><stop offset="1" stop-color="#20bdff"></stop></linearGradient><path fill="url(#a)" d="M19 6.25h-1.25v-2.5H21a.75.75 0 0 0 0-1.5H3a.75.75 0 0 0 0 1.5h3.25v2.5H5A2.752 2.752 0 0 0 2.25 9v10A2.752 2.752 0 0 0 5 21.75h14A2.752 2.752 0 0 0 21.75 19V9A2.752 2.752 0 0 0 19 6.25zM7.75 3.75h8.5v2.5h-8.5zM20.25 19c0 .689-.561 1.25-1.25 1.25H5c-.689 0-1.25-.561-1.25-1.25V9c0-.689.561-1.25 1.25-1.25h14c.689 0 1.25.561 1.25 1.25zm-5.139-7.083h-1.028v-1.028c0-.903-.735-1.639-1.639-1.639h-.889a1.64 1.64 0 0 0-1.639 1.639v1.028H8.888c-.903 0-1.639.735-1.639 1.639v.889c0 .903.735 1.639 1.639 1.639h1.028v1.028c0 .903.735 1.639 1.639 1.639h.889a1.64 1.64 0 0 0 1.639-1.639v-1.028h1.028c.903 0 1.639-.735 1.639-1.639v-.889a1.64 1.64 0 0 0-1.639-1.639zm.139 2.528a.14.14 0 0 1-.139.139h-1.778a.75.75 0 0 0-.75.75v1.778a.14.14 0 0 1-.139.139h-.889a.139.139 0 0 1-.139-.139v-1.778a.75.75 0 0 0-.75-.75H8.888a.139.139 0 0 1-.139-.139v-.889a.14.14 0 0 1 .139-.14h1.778a.75.75 0 0 0 .75-.75v-1.778c0-.077.062-.139.139-.139h.889c.077 0 .139.062.139.139v1.778c0 .415.336.75.75.75h1.778c.077 0 .139.062.139.14z" opacity="1" data-original="url(#a)" class=""></path></g></svg>