<svg xmlns="http://www.w3.org/2000/svg" version="1.1" xmlns:xlink="http://www.w3.org/1999/xlink" width="512" height="512" x="0" y="0" viewBox="0 0 512 512" style="enable-background:new 0 0 512 512" xml:space="preserve" class=""><rect width="512" height="512" rx="102.4" ry="102.4" fill="#bac8d3" shape="rounded"></rect><g transform="matrix(0.6699999999999999,0,0,0.6699999999999999,84.47999748229981,84.47998992919926)"><linearGradient id="a" x1="38.06" x2="473.94" y1="256" y2="256" gradientUnits="userSpaceOnUse"><stop offset="0" stop-color="#55d6ff"></stop><stop offset="1" stop-color="#ce55ff"></stop></linearGradient><path fill="url(#a)" d="M469.28 91.034a12.662 12.662 0 0 0-10.689-2.57A178.462 178.462 0 0 1 268.048 6.133 12.674 12.674 0 0 0 257.193 0h-2.387a12.674 12.674 0 0 0-10.855 6.133A178.464 178.464 0 0 1 53.408 88.464a12.674 12.674 0 0 0-15.348 12.527c1.115 101.468 7.491 177.264 35.792 241.518 15.2 34.521 36.231 64.447 64.278 91.488 29 27.962 65.681 53.028 112.129 76.628a12.671 12.671 0 0 0 11.481 0c46.448-23.6 83.126-48.666 112.129-76.628 28.047-27.041 49.073-56.967 64.279-91.488 28.3-64.254 34.677-140.05 35.792-241.518a12.673 12.673 0 0 0-4.66-9.957zM256 485.075C84.525 395.745 66.305 284.737 63.608 115.976A203.855 203.855 0 0 0 256 33.8a203.871 203.871 0 0 0 164.871 84.046 203.5 203.5 0 0 0 27.52-1.871C445.7 284.736 427.474 395.745 256 485.075zm67.739-315.53a109.832 109.832 0 1 0-67.98 196.285 111.989 111.989 0 0 0 13.472-.818 109.833 109.833 0 0 0 54.508-195.467zM322.5 308.107a84.486 84.486 0 1 1-76.678-135.957 86.223 86.223 0 0 1 10.368-.629 84.5 84.5 0 0 1 66.31 136.586zm-4.2-90.08a12.674 12.674 0 0 1 0 17.923l-59.71 59.708a12.672 12.672 0 0 1-8.961 3.712 12.673 12.673 0 0 1-8.962-3.712L202.813 257.8a12.673 12.673 0 1 1 17.923-17.923l28.893 28.893 50.747-50.747a12.674 12.674 0 0 1 17.924.004z" opacity="1" data-original="url(#a)"></path></g></svg>