<svg xmlns="http://www.w3.org/2000/svg" version="1.1" xmlns:xlink="http://www.w3.org/1999/xlink" width="512" height="512" x="0" y="0" viewBox="0 0 512 512" style="enable-background:new 0 0 512 512" xml:space="preserve" class=""><rect width="512" height="512" rx="102.4" ry="102.4" fill="#bac8d3" shape="rounded"></rect><g transform="matrix(0.63,0,0,0.63,99.71999858856202,79.71981510162354)"><linearGradient id="a" x1="256" x2="256" y1="503.25" y2="8.75" gradientUnits="userSpaceOnUse"><stop offset="0" stop-color="#0e4da3"></stop><stop offset=".838" stop-color="#c341ae"></stop></linearGradient><path fill="url(#a)" d="M427.02 91.326H164.109V57.719c10.041-3.327 17.354-12.693 17.354-23.836 0-13.862-11.317-25.133-25.225-25.133-13.854 0-25.126 11.271-25.126 25.133 0 11.165 7.313 20.546 17.347 23.855v33.587H135.3c-18.164 0-32.943 14.779-32.943 32.943v35.282H85.01c-18.141 0-32.897 14.764-32.897 32.905v277.897c0 18.141 14.756 32.897 32.897 32.897h90.179c18.141 0 32.897-14.756 32.897-32.897v-6.579h11.08c18.141 0 32.905-14.756 32.905-32.897v-12.54H427.02c18.126 0 32.867-14.741 32.867-32.867v-261.2c0-18.164-14.741-32.943-32.867-32.943zM156.238 24.4c5.28 0 9.575 4.256 9.575 9.483 0 5.273-4.295 9.567-9.575 9.567-5.227 0-9.476-4.295-9.476-9.567 0-5.226 4.249-9.483 9.476-9.483zm36.199 445.952c0 9.514-7.733 17.247-17.247 17.247H85.01c-9.514 0-17.247-7.733-17.247-17.247V192.456c0-9.514 7.733-17.255 17.247-17.255h17.347v210.268c0 18.126 14.779 32.867 32.943 32.867h13.159v12.54c0 18.141 14.756 32.897 32.897 32.897h11.08v6.579zm26.73-22.229h-37.811c-9.514 0-17.247-7.733-17.247-17.247V174.391c0-9.514 7.733-17.247 17.247-17.247h37.811c9.514 0 17.255 7.733 17.255 17.247v256.485c0 9.513-7.741 17.247-17.255 17.247zm225.07-62.654c0 9.491-7.726 17.217-17.217 17.217H252.072V174.391c0-18.141-14.764-32.897-32.905-32.897h-37.811c-18.141 0-32.897 14.756-32.897 32.897v228.295H135.3c-9.537 0-17.293-7.726-17.293-17.217v-261.2c0-9.537 7.756-17.293 17.293-17.293h291.72c9.491 0 17.217 7.756 17.217 17.293zm-54.982-243.975h-86.328c-13.533 0-24.545 11.012-24.545 24.545v29.535c0 13.533 11.012 24.545 24.545 24.545h86.328c13.533 0 24.545-11.012 24.545-24.545v-29.535c0-13.534-11.011-24.545-24.545-24.545zm8.895 54.08c0 4.906-3.989 8.895-8.895 8.895h-86.328c-4.906 0-8.895-3.989-8.895-8.895v-29.535c0-4.906 3.989-8.895 8.895-8.895h86.328c4.906 0 8.895 3.989 8.895 8.895zm-90.561 57.908a7.82 7.82 0 0 1-7.825 7.825h-8.734c-4.325 0-7.825-3.5-7.825-7.825s3.5-7.825 7.825-7.825h8.734a7.82 7.82 0 0 1 7.825 7.825zm50.695 0a7.82 7.82 0 0 1-7.825 7.825h-8.734c-4.325 0-7.825-3.5-7.825-7.825s3.5-7.825 7.825-7.825h8.734a7.82 7.82 0 0 1 7.825 7.825zm50.694 0a7.82 7.82 0 0 1-7.825 7.825h-8.734c-4.325 0-7.825-3.5-7.825-7.825s3.5-7.825 7.825-7.825h8.734a7.82 7.82 0 0 1 7.825 7.825zm-101.389 38.613a7.82 7.82 0 0 1-7.825 7.825h-8.734c-4.325 0-7.825-3.5-7.825-7.825s3.5-7.825 7.825-7.825h8.734a7.82 7.82 0 0 1 7.825 7.825zm50.695 0a7.82 7.82 0 0 1-7.825 7.825h-8.734c-4.325 0-7.825-3.5-7.825-7.825s3.5-7.825 7.825-7.825h8.734a7.82 7.82 0 0 1 7.825 7.825zm50.694 0a7.82 7.82 0 0 1-7.825 7.825h-8.734c-4.325 0-7.825-3.5-7.825-7.825s3.5-7.825 7.825-7.825h8.734a7.82 7.82 0 0 1 7.825 7.825zm-101.389 38.606a7.82 7.82 0 0 1-7.825 7.825h-8.734c-4.325 0-7.825-3.5-7.825-7.825s3.5-7.825 7.825-7.825h8.734a7.82 7.82 0 0 1 7.825 7.825zm50.695 0a7.82 7.82 0 0 1-7.825 7.825h-8.734c-4.325 0-7.825-3.5-7.825-7.825s3.5-7.825 7.825-7.825h8.734a7.82 7.82 0 0 1 7.825 7.825zm50.694 0a7.82 7.82 0 0 1-7.825 7.825h-8.734c-4.325 0-7.825-3.5-7.825-7.825s3.5-7.825 7.825-7.825h8.734a7.82 7.82 0 0 1 7.825 7.825zm-101.389 38.613a7.82 7.82 0 0 1-7.825 7.825h-8.734c-4.325 0-7.825-3.5-7.825-7.825s3.5-7.825 7.825-7.825h8.734a7.82 7.82 0 0 1 7.825 7.825zm50.695 0a7.82 7.82 0 0 1-7.825 7.825h-8.734c-4.325 0-7.825-3.5-7.825-7.825s3.5-7.825 7.825-7.825h8.734a7.82 7.82 0 0 1 7.825 7.825zm50.694 0a7.82 7.82 0 0 1-7.825 7.825h-8.734c-4.325 0-7.825-3.5-7.825-7.825s3.5-7.825 7.825-7.825h8.734a7.82 7.82 0 0 1 7.825 7.825zm-200.891-119.89V355.85c0 4.325-3.5 7.825-7.825 7.825s-7.825-3.5-7.825-7.825V249.424c0-4.325 3.5-7.825 7.825-7.825s7.825 3.5 7.825 7.825z" opacity="1" data-original="url(#a)"></path></g></svg>