<svg xmlns="http://www.w3.org/2000/svg" version="1.1" xmlns:xlink="http://www.w3.org/1999/xlink" width="512" height="512" x="0" y="0" viewBox="0 0 64 64" style="enable-background:new 0 0 512 512" xml:space="preserve"><rect width="64" height="64" rx="12.8" ry="12.8" fill="#bac8d3" shape="rounded"></rect><g transform="matrix(0.7,0,0,0.7,9.600000000000001,9.600000000000001)"><linearGradient id="a" x1="14.071" x2="49.929" y1="32" y2="32" gradientUnits="userSpaceOnUse"><stop offset="0" stop-color="#00c0ff"></stop><stop offset="1" stop-color="#5558ff"></stop></linearGradient><path fill="url(#a)" d="M44.929 4H19.07a5.006 5.006 0 0 0-5 5v46a5.006 5.006 0 0 0 5 5H44.93a5.006 5.006 0 0 0 5-5V9a5.006 5.006 0 0 0-5-5zm-3.736 2-2.032 6.105a2.993 2.993 0 0 1-2.846 2.052h-8.63a2.993 2.993 0 0 1-2.846-2.052L22.807 6zM19.071 6H20.7l2.241 6.736a4.993 4.993 0 0 0 4.745 3.421h8.63a4.993 4.993 0 0 0 4.745-3.42L43.3 6h1.628a3.003 3.003 0 0 1 3 3v40.326H16.07V9a3.003 3.003 0 0 1 3-3zM44.93 58H19.07a3.003 3.003 0 0 1-3-3v-3.674H47.93V55a3.003 3.003 0 0 1-3 3zm-10.997-2.337h-3.864a1 1 0 0 1 0-2h3.864a1 1 0 0 1 0 2zm-.779-11.738a11.196 11.196 0 0 0 11.184-11.183c-.614-14.836-21.754-14.833-22.366 0a11.195 11.195 0 0 0 11.182 11.183zm0-20.366a9.194 9.194 0 0 1 9.184 9.183c-.505 12.182-17.864 12.18-18.366 0a9.194 9.194 0 0 1 9.182-9.183zm-5.973 8.335a1 1 0 0 1 1.742-.983l1.758 3.117 7.008-4.84a1 1 0 0 1 1.137 1.646l-7.91 5.463a1.007 1.007 0 0 1-1.44-.332z" opacity="1" data-original="url(#a)"></path></g></svg>