<svg xmlns="http://www.w3.org/2000/svg" version="1.1" xmlns:xlink="http://www.w3.org/1999/xlink" width="512" height="512" x="0" y="0" viewBox="0 0 512 512" style="enable-background:new 0 0 512 512" xml:space="preserve"><rect width="512" height="512" rx="102.4" ry="102.4" fill="#bac8d3" shape="rounded"></rect><g transform="matrix(0.57,0,0,0.57,110.08025096893311,100.08000000000001)"><linearGradient id="a" x1="67.901" x2="456.905" y1="532.277" y2="143.273" gradientUnits="userSpaceOnUse"><stop offset="0" stop-color="#fcc60e"></stop><stop offset="1" stop-color="#e92e29"></stop></linearGradient><path fill="url(#a)" d="M479.568 192.096 264 81.712V64.341h47.148a7.999 7.999 0 0 0 6.405-12.793l-10.731-14.339 16.866-15.28A8 8 0 0 0 318.317 8H256a8 8 0 0 0-8 8v65.712L32.432 192.096a8.001 8.001 0 0 0 3.646 15.121h21.463v3.625c0 9.301 7.567 16.868 16.868 16.868h3.333v8.049c0 9.301 7.567 16.868 16.868 16.868h2.518v148.672H94.61c-9.301 0-16.868 7.567-16.868 16.868v8.049h-3.333c-9.301 0-16.868 7.567-16.868 16.868v3.625h-5.735c-9.301 0-16.868 7.567-16.868 16.868V496a8 8 0 0 0 8 8h426.124a8 8 0 0 0 8-8v-32.424c0-9.301-7.566-16.868-16.867-16.868h-5.736v-3.625c0-9.301-7.566-16.868-16.867-16.868h-3.333v-8.049c0-9.301-7.567-16.868-16.868-16.868h-2.518V252.626h2.518c9.301 0 16.868-7.567 16.868-16.868v-8.049h3.333c9.301 0 16.867-7.567 16.867-16.868v-3.625h21.464a8 8 0 0 0 3.645-15.12zM264 24h33.571l-6.89 6.242a8 8 0 0 0-1.034 10.722l5.521 7.377H264zm-8 71.591 186.747 95.626H69.253zM93.742 235.759v-8.049h51.429v8.049a.89.89 0 0 1-.867.868H94.61a.891.891 0 0 1-.868-.868zm273.954 16.867h2.518v148.672h-2.518c-9.301 0-16.868 7.567-16.868 16.868v8.049h-7.6v-8.049c0-9.301-7.566-16.868-16.867-16.868h-2.519V252.626h2.519c9.301 0 16.867-7.567 16.867-16.868v-8.049h7.6v8.049c0 9.302 7.568 16.868 16.868 16.868zm-59.853 0v148.672h-12.657V252.626zm18.518 164.673a.89.89 0 0 1 .867.868v8.049H275.8v-8.049a.89.89 0 0 1 .868-.868zm.868-181.54a.89.89 0 0 1-.867.868h-49.693a.89.89 0 0 1-.868-.868v-8.049h51.429v8.049zm-50.561 16.867h2.518v148.672h-2.518c-9.301 0-16.868 7.567-16.868 16.868v8.049h-7.6v-8.049c0-9.301-7.567-16.868-16.868-16.868h-2.519V252.626h2.519c9.301 0 16.868-7.567 16.868-16.868v-8.049h7.6v8.049c0 9.302 7.567 16.868 16.868 16.868zm-59.855 0v148.672h-12.657V252.626zm18.519 164.673a.89.89 0 0 1 .868.868v8.049h-51.43v-8.049a.89.89 0 0 1 .868-.868zm.868-181.54a.89.89 0 0 1-.868.868h-49.693a.89.89 0 0 1-.868-.868v-8.049h51.43v8.049zm-50.561 16.867h2.518v148.672h-2.518c-9.301 0-16.868 7.567-16.868 16.868v8.049h-7.6v-8.049c0-9.301-7.566-16.868-16.867-16.868h-2.519V252.626h2.519c9.301 0 16.867-7.567 16.867-16.868v-8.049h7.6v8.049c0 9.302 7.567 16.868 16.868 16.868zm-72.511 0h12.657v148.672h-12.657zM93.742 418.167a.89.89 0 0 1 .868-.868h49.693a.89.89 0 0 1 .867.868v8.049H93.742zm367.32 45.409V488H50.938v-24.424a.89.89 0 0 1 .868-.868h408.389c.461 0 .867.406.867.868zm-22.604-20.493v3.625H73.541v-3.625a.89.89 0 0 1 .868-.868h363.182a.89.89 0 0 1 .867.868zm-20.2-24.916v8.049h-51.43v-8.049a.89.89 0 0 1 .868-.868h49.693a.89.89 0 0 1 .869.868zm-19.386-16.868h-12.658V252.626h12.658zm19.386-165.54a.89.89 0 0 1-.868.868h-49.693a.89.89 0 0 1-.868-.868v-8.049h51.43v8.049zm20.2-24.917a.89.89 0 0 1-.867.868H74.409a.89.89 0 0 1-.868-.868v-3.625h364.917z" opacity="1" data-original="url(#a)"></path></g></svg>