<svg xmlns="http://www.w3.org/2000/svg" version="1.1" xmlns:xlink="http://www.w3.org/1999/xlink" width="512" height="512" x="0" y="0" viewBox="0 0 32 32" style="enable-background:new 0 0 512 512" xml:space="preserve"><rect width="32" height="32" rx="6.4" ry="6.4" fill="#bac8d3" shape="rounded"></rect><g transform="matrix(0.68,0,0,0.68,5.119999999999999,5.119999999999999)"><linearGradient id="a" x1="3" x2="29" y1="16" y2="16" gradientUnits="userSpaceOnUse"><stop offset="0" stop-color="#02beff"></stop><stop offset="1" stop-color="#535bff"></stop></linearGradient><path fill="url(#a)" d="M3 6v20h26V6zm2 2h22v16h-3.4c-.1-.1 0-.3-.2-.4-.3-.4-.9-.6-1.4-.6s-1.1.2-1.4.6c-.1.1-.1.3-.2.4h-8.8c-.1-.1 0-.3-.2-.4-.3-.4-.9-.6-1.4-.6s-1.1.2-1.4.6c-.1.1-.1.3-.2.4H5zm7 2c-2.2 0-4 1.8-4 4 0 1.1.5 2.1 1.2 2.8C7.9 17.7 7 19.3 7 21h2c0-1.7 1.3-3 3-3s3 1.3 3 3h2c0-1.7-.9-3.3-2.2-4.2.7-.7 1.2-1.7 1.2-2.8 0-2.2-1.8-4-4-4zm0 2c1.1 0 2 .9 2 2s-.9 2-2 2-2-.9-2-2 .9-2 2-2zm7 1v2h6v-2zm0 4v2h6v-2z" opacity="1" data-original="url(#a)"></path></g></svg>