<svg xmlns="http://www.w3.org/2000/svg" version="1.1" xmlns:xlink="http://www.w3.org/1999/xlink" width="512" height="512" x="0" y="0" viewBox="0 0 64 64" style="enable-background:new 0 0 512 512" xml:space="preserve"><rect width="64" height="64" rx="12.8" ry="12.8" fill="#bac8d3" shape="rounded"></rect><g transform="matrix(0.68,0,0,0.68,10.24002990722656,10.233599548339843)"><linearGradient id="a" x1="4" x2="60" y1="32" y2="32" gradientUnits="userSpaceOnUse"><stop offset="0" stop-color="#ffa68d"></stop><stop offset="1" stop-color="#fd3a84"></stop></linearGradient><path fill="url(#a)" d="M55.76 12.72h-41A4.24 4.24 0 0 0 10.48 17v2.4H8.24A4.24 4.24 0 0 0 4 23.6V47a4.24 4.24 0 0 0 4.24 4.24h41A4.24 4.24 0 0 0 53.52 47v-2.4h2.24A4.25 4.25 0 0 0 60 40.4V17a4.24 4.24 0 0 0-4.24-4.28zM8.24 21.36h41a2.24 2.24 0 0 1 2.24 2.24v2.08H6V23.6a2.24 2.24 0 0 1 2.24-2.24zM51.52 47a2.24 2.24 0 0 1-2.24 2.24h-41A2.24 2.24 0 0 1 6 47V27.68h45.52zM58 40.4a2.24 2.24 0 0 1-2.24 2.24h-2.24v-19a4.24 4.24 0 0 0-4.24-4.24h-36.8V17a2.24 2.24 0 0 1 2.24-2.24h41A2.24 2.24 0 0 1 58 17zm-29.24-4.82H11.48a1 1 0 0 1 0-2h17.28a1 1 0 0 1 0 2zm-13 4.69h-4.28a1 1 0 0 1 0-2h4.32a1 1 0 0 1 0 2zm0 4.69h-4.28a1 1 0 0 1 0-2h4.32a1 1 0 0 1 0 2.04zm8.64 0h-4.28a1 1 0 0 1 0-2h4.32a1 1 0 0 1 0 2.04zm0-4.69h-4.28a1 1 0 0 1 0-2h4.32a1 1 0 0 1 0 2zm19.44-4.36h-8.6a3.16 3.16 0 0 0-3.16 3.16v2.73a3.17 3.17 0 0 0 3.16 3.2h8.64A3.17 3.17 0 0 0 47 41.8v-2.73a3.16 3.16 0 0 0-3.12-3.16zM45 41.8a1.16 1.16 0 0 1-1.12 1.2h-8.64a1.16 1.16 0 0 1-1.16-1.16v-2.77a1.16 1.16 0 0 1 1.16-1.16h8.64A1.16 1.16 0 0 1 45 39.07z" opacity="1" data-original="url(#a)"></path></g></svg>