<svg xmlns="http://www.w3.org/2000/svg" version="1.1" xmlns:xlink="http://www.w3.org/1999/xlink" width="512" height="512" x="0" y="0" viewBox="0 0 64 64" style="enable-background:new 0 0 512 512" xml:space="preserve" class=""><rect width="64" height="64" rx="12.8" ry="12.8" fill="#bac8d3" shape="rounded"></rect><g transform="matrix(0.7,0,0,0.7,9.599700736999512,9.600000000000001)"><linearGradient id="a" x1="14.868" x2="49.132" y1="32" y2="32" gradientUnits="userSpaceOnUse"><stop offset="0" stop-color="#00c0ff"></stop><stop offset="1" stop-color="#5558ff"></stop></linearGradient><path fill="url(#a)" d="M42.132 16.098h-1.067V6H44.1a1 1 0 0 0 0-2H19.9a1 1 0 0 0 0 2h3.034v10.098h-1.067a7.008 7.008 0 0 0-7 7v24.285a7.008 7.008 0 0 0 5.427 6.815V59a1 1 0 0 0 1 1h21.41a1 1 0 0 0 1-1v-4.802a7.008 7.008 0 0 0 5.427-6.815V23.098a7.008 7.008 0 0 0-7-7zM24.935 6h14.13v10.098H33v-4.05h2.024a1 1 0 0 0 0-2h-6.048a1 1 0 0 0 0 2H31v4.05h-6.065zm16.77 52h-19.41v-3.617h19.41zm5.427-10.617a5.006 5.006 0 0 1-5 5H21.868a5.006 5.006 0 0 1-5-5v-5.088h30.264zm0-7.088H16.868V30.197h30.264zm0-12.098H16.868v-5.1a5.006 5.006 0 0 1 5-5h20.264a5.006 5.006 0 0 1 5 5z" opacity="1" data-original="url(#a)"></path></g></svg>