<svg xmlns="http://www.w3.org/2000/svg" version="1.1" xmlns:xlink="http://www.w3.org/1999/xlink" width="512" height="512" x="0" y="0" viewBox="0 0 64 64" style="enable-background:new 0 0 512 512" xml:space="preserve" class=""><rect width="64" height="64" rx="12.8" ry="12.8" fill="#bac8d3" shape="rounded"></rect><g transform="matrix(0.5799999999999998,0,0,0.5799999999999998,13.440000801086427,13.439546184539797)"><linearGradient id="a" x1="4" x2="60" y1="32" y2="32" gradientUnits="userSpaceOnUse"><stop offset="0" stop-color="#00c0ff"></stop><stop offset="1" stop-color="#5558ff"></stop></linearGradient><path fill="url(#a)" d="M60 32a28.031 28.031 0 0 1-28 28H5a1 1 0 0 1 0-2h16.666a27.798 27.798 0 0 1-7.941-4.804 1 1 0 1 1 1.31-1.511 26.033 26.033 0 1 0-2.72-2.72 1 1 0 1 1-1.511 1.31A27.995 27.995 0 1 1 60 32zM32 8a24.023 24.023 0 1 0 18.376 8.577 1 1 0 1 0-1.531 1.286 22.028 22.028 0 1 1-2.708-2.707 1 1 0 0 0 1.287-1.531A24.018 24.018 0 0 0 32 8zm5.695 11.554A5.695 5.695 0 1 1 32 13.858a5.702 5.702 0 0 1 5.695 5.696zm-2 0A3.695 3.695 0 1 0 32 23.25a3.7 3.7 0 0 0 3.695-3.696zm-16.14 6.75A5.696 5.696 0 1 1 13.858 32a5.702 5.702 0 0 1 5.697-5.696zm0 2A3.696 3.696 0 1 0 23.25 32a3.7 3.7 0 0 0-3.695-3.696zm18.14 16.141A5.695 5.695 0 1 1 32 38.75a5.702 5.702 0 0 1 5.695 5.695zm-2 0A3.695 3.695 0 1 0 32 48.142a3.699 3.699 0 0 0 3.695-3.697zm8.75-18.14A5.696 5.696 0 1 1 38.75 32a5.703 5.703 0 0 1 5.695-5.696zm0 2A3.696 3.696 0 1 0 48.142 32a3.7 3.7 0 0 0-3.697-3.696z" opacity="1" data-original="url(#a)"></path></g></svg>