<svg xmlns="http://www.w3.org/2000/svg" version="1.1" xmlns:xlink="http://www.w3.org/1999/xlink" width="512" height="512" x="0" y="0" viewBox="0 0 512 512" style="enable-background:new 0 0 512 512" xml:space="preserve"><rect width="512" height="512" rx="102.4" ry="102.4" fill="#bac8d3" shape="rounded"></rect><g transform="matrix(0.63,0,0,0.63,94.71999929428102,89.71986026763915)"><linearGradient id="a" x1="110.866" x2="401.136" y1="480.427" y2="190.157" gradientUnits="userSpaceOnUse"><stop offset="0" stop-color="#ff506a"></stop><stop offset="1" stop-color="#ffe28f"></stop></linearGradient><path fill="url(#a)" d="M373.101 278.214a118.901 118.901 0 0 0 1.369-18.024c0-63.407-109.2-204.515-113.848-210.491-2.218-2.853-7.023-2.853-9.24 0-4.648 5.976-113.85 147.083-113.85 210.491 0 6.127.468 12.147 1.369 18.026C65.085 294.954 16.052 327.259 16.052 365.2c0 55.648 105.399 99.24 239.949 99.24 134.549 0 239.947-43.591 239.947-99.24 0-37.941-49.031-70.249-122.847-86.986zM256.001 62.95c21.05 27.922 106.763 144.843 106.763 197.24 0 58.872-47.894 106.766-106.763 106.766-58.872 0-106.766-47.894-106.766-106.766.001-52.383 85.716-169.313 106.766-197.24zm0 315.711c37.674 0 71.27-17.698 92.984-45.193 32.706 8.281 52.246 20.372 52.246 31.732 0 19.866-59.644 42-145.229 42-85.587 0-145.232-22.134-145.232-42 0-11.359 19.548-23.447 52.25-31.728 21.714 27.493 55.309 45.189 92.981 45.189zm0 74.074c-123.722 0-228.245-40.085-228.245-87.535 0-31.55 46.222-59.839 113.561-75.259 3.107 11.967 8.064 23.189 14.51 33.381-33.401 9.04-56.763 23.135-56.763 41.878 0 34.881 80.857 53.705 156.936 53.705s156.934-18.824 156.934-53.705c0-18.741-23.378-32.823-56.771-41.864 6.448-10.192 11.407-21.415 14.515-33.383 67.333 15.42 113.564 43.699 113.564 75.247.001 47.451-104.519 87.535-228.241 87.535z" opacity="1" data-original="url(#a)"></path></g></svg>