<?xml version="1.0"?>
<svg xmlns="http://www.w3.org/2000/svg" xmlns:xlink="http://www.w3.org/1999/xlink" version="1.1" id="Capa_1" x="0px" y="0px" viewBox="0 0 512 512" style="enable-background:new 0 0 512 512;" xml:space="preserve" width="512px" height="512px" class=""><g transform="matrix(6.12323e-17, 1, 1, -6.12323e-17, 0, 3.1351e-14)"><g>
	<g>
		<path d="M460,304l-120-90c-4.544-3.408-10.626-3.957-15.708-1.417C319.21,215.125,316,220.318,316,226v45    c-43.377,0-85.003,13.256-120.053,37.817L195.995,151H241c5.671,0,10.856-3.198,13.403-8.265    c2.546-5.067,2.017-11.137-1.367-15.687l-90-121C160.205,2.243,155.742,0,151,0s-9.205,2.243-12.036,6.048l-90,121    c-3.384,4.55-3.913,10.62-1.367,15.687C50.144,147.802,55.329,151,61,151h45v346c0,8.284,6.716,15,15,15h60    c8.284,0,15-6.716,15-15v-15c0-66.719,53.832-121,120-121v45c0,5.682,3.21,10.875,8.292,13.417    c5.082,2.541,11.162,1.992,15.708-1.417l120-90c3.777-2.833,6-7.279,6-12S463.777,306.833,460,304z" data-original="#000000" class="active-path" fill="#000000"/>
	</g>
</g></g> </svg>
