<svg height="511pt" viewBox="0 -40 511.99956 511" width="511pt" xmlns="http://www.w3.org/2000/svg"><path d="m456.832031.5c-30.417969 0-55.167969 24.746094-55.167969 55.167969v31.265625c-7.550781-3.890625-16.101562-6.101563-25.164062-6.101563-30.421875 0-55.167969 24.75-55.167969 55.167969v31.269531c-7.550781-3.890625-16.105469-6.101562-25.167969-6.101562-30.417968 0-55.167968 24.75-55.167968 55.167969v31.265624c-7.550782-3.890624-16.101563-6.101562-25.164063-6.101562-30.421875 0-55.171875 24.75-55.171875 55.167969v120.503906c0 8.28125 6.71875 15 15 15h321.339844c8.285156 0 15-6.71875 15-15v-361.503906c0-30.421875-24.746094-55.167969-55.167969-55.167969zm-266.171875 296.167969c0-13.875 11.292969-25.167969 25.171875-25.167969 13.875 0 25.164063 11.292969 25.164063 25.167969v105.5h-50.335938zm80.335938 0v-80.332031c0-13.878907 11.289062-25.167969 25.167968-25.167969 13.878907 0 25.167969 11.289062 25.167969 25.167969v185.832031h-50.335937zm80.335937-80.332031v-80.335938c0-13.875 11.289063-25.167969 25.167969-25.167969 13.875 0 25.164062 11.292969 25.164062 25.167969v266.167969h-50.332031zm130.667969 185.832031h-50.335938v-346.5c0-13.878907 11.289063-25.167969 25.167969-25.167969 13.878907 0 25.167969 11.289062 25.167969 25.167969zm0 0"/><path d="m172.886719 55.855469c19.792969-15.007813 18.894531-28.710938 16.59375-35.542969-3.039063-9.039062-12.648438-19.8125-41.171875-19.8125h-105.957032c-28.523437 0-38.136718 10.773438-41.175781 19.8125-2.296875 6.832031-3.195312 20.535156 16.597657 35.542969l62.558593 47.429687v313.886719c0 8.285156 6.714844 15 15 15 8.28125 0 15-6.714844 15-15v-313.886719zm-138.28125-24.917969c2.066406-.257812 4.628906-.4375 7.746093-.4375h105.957032c3.113281 0 5.679687.179688 7.746094.4375-.398438.324219-.832032.660156-1.292969 1.011719l-59.433594 45.0625-59.429687-45.0625c-.464844-.351563-.894532-.6875-1.292969-1.011719zm0 0"/></svg>