<svg height="512pt" viewBox="-31 0 512 512" width="512pt" fill="#fff" xmlns="http://www.w3.org/2000/svg"><path d="m214.660156 290.617188c-4.140625 0-7.5 3.359374-7.5 7.5 0 4.144531 3.359375 7.503906 7.5 7.503906h12.53125c4.144532 0 7.5-3.359375 7.5-7.503906 0-4.140626-3.355468-7.5-7.5-7.5zm0 0"/><path d="m258.9375 290.617188c-4.140625 0-7.5 3.359374-7.5 7.5 0 4.144531 3.359375 7.503906 7.5 7.503906h12.527344c4.144531 0 7.503906-3.359375 7.503906-7.503906 0-4.140626-3.359375-7.5-7.503906-7.5zm0 0"/><path d="m303.214844 290.617188c-4.144532 0-7.5 3.359374-7.5 7.5 0 4.144531 3.355468 7.503906 7.5 7.503906h12.527344c4.144531 0 7.5-3.359375 7.5-7.503906 0-4.140626-3.355469-7.5-7.5-7.5zm0 0"/><path d="m347.492188 290.617188c-4.144532 0-7.5 3.359374-7.5 7.5 0 4.144531 3.355468 7.503906 7.5 7.503906h12.527343c4.140625 0 7.5-3.359375 7.5-7.503906 0-4.140626-3.359375-7.5-7.5-7.5zm0 0"/><path d="m391.765625 290.617188c-4.140625 0-7.5 3.359374-7.5 7.5 0 4.144531 3.359375 7.503906 7.5 7.503906h12.53125c4.140625 0 7.5-3.359375 7.5-7.503906 0-4.140626-3.359375-7.5-7.5-7.5zm0 0"/><path d="m227.191406 403.03125h-12.53125c-4.140625 0-7.5 3.355469-7.5 7.5 0 4.140625 3.359375 7.5 7.5 7.5h12.53125c4.144532 0 7.5-3.359375 7.5-7.5 0-4.144531-3.359375-7.5-7.5-7.5zm0 0"/><path d="m271.464844 403.03125h-12.527344c-4.140625 0-7.5 3.355469-7.5 7.5 0 4.140625 3.359375 7.5 7.5 7.5h12.527344c4.144531 0 7.503906-3.359375 7.503906-7.5 0-4.144531-3.359375-7.5-7.503906-7.5zm0 0"/><path d="m315.742188 403.03125h-12.527344c-4.144532 0-7.5 3.355469-7.5 7.5 0 4.140625 3.355468 7.5 7.5 7.5h12.527344c4.144531 0 7.5-3.359375 7.5-7.5 0-4.144531-3.355469-7.5-7.5-7.5zm0 0"/><path d="m360.019531 403.03125h-12.527343c-4.144532 0-7.5 3.355469-7.5 7.5 0 4.140625 3.355468 7.5 7.5 7.5h12.527343c4.140625 0 7.5-3.359375 7.5-7.5 0-4.144531-3.359375-7.5-7.5-7.5zm0 0"/><path d="m391.765625 418.03125h12.53125c4.140625 0 7.5-3.359375 7.5-7.5 0-4.144531-3.359375-7.5-7.5-7.5h-12.53125c-4.140625 0-7.5 3.355469-7.5 7.5 0 4.140625 3.359375 7.5 7.5 7.5zm0 0"/><path d="m430.417969 253.148438h-48.539063v-37.257813c0-10.609375-8.632812-19.242187-19.238281-19.242187h-25.941406v-50.890626c0-80.371093-65.390625-145.757812-145.761719-145.757812s-145.757812 65.386719-145.757812 145.757812v50.890626h-25.941407c-10.605469 0-19.238281 8.632812-19.238281 19.242187v82.226563 194.644531c0 10.605469 8.632812 19.238281 19.238281 19.238281h141.003907c4.140624 0 7.5-3.355469 7.5-7.5s-3.359376-7.5-7.5-7.5h-141.003907c-2.296875 0-4.238281-1.941406-4.238281-4.238281v-74.730469h155.242188v16.300781c0 11.972657 7.234374 21.167969 21.167968 21.167969h175.46875v37.261719c0 2.296875-1.941406 4.238281-4.242187 4.238281h-167.394531c-4.144532 0-7.5 3.355469-7.5 7.5s3.355468 7.5 7.5 7.5h167.398437c10.605469 0 19.238281-8.632812 19.238281-19.238281v-37.261719h48.539063c10.75 0 19.5-8.746094 19.5-19.5v-50.941406c0-10.75-8.75-19.5-19.5-19.5h-48.539063v-22.46875h48.539063c10.75 0 19.5-8.75 19.5-19.503906v-7.96875c0-4.140626-3.355469-7.5-7.5-7.5s-7.5 3.359374-7.5 7.5v7.96875c0 2.441406-2.0625 4.5-4.5 4.5-5.351563 0-235.96875 0-239.007813 0-3.402344 0-6.167968-2.765626-6.167968-6.164063v-47.605469c0-3.402344 2.765624-6.167968 6.167968-6.167968h239.007813c2.4375 0 4.5 2.058593 4.5 4.5v7.96875c0 4.144531 3.355469 7.5 7.5 7.5s7.5-3.355469 7.5-7.5v-7.96875c0-10.753907-8.75-19.5-19.5-19.5zm-370.234375-107.390626c0-72.097656 58.65625-130.757812 130.753906-130.757812 72.101562 0 130.761719 58.660156 130.761719 130.757812v50.890626h-30.558594v-50.890626c0-55.25-44.949219-100.199218-100.199219-100.199218-55.253906 0-100.203125 44.949218-100.203125 100.199218v50.890626h-30.554687zm45.554687 50.890626v-50.890626c0-46.980468 38.222657-85.199218 85.203125-85.199218 46.976563 0 85.199219 38.222656 85.199219 85.199218v50.890626zm329.179688 188.410156v50.941406c0 2.441406-2.0625 4.5-4.5 4.5-5.351563 0-235.96875 0-239.007813 0-3.402344 0-6.167968-2.765625-6.167968-6.167969 0-6.90625 0-40.703125 0-47.605469 0-3.398437 2.765624-6.167968 6.167968-6.167968h239.007813c2.4375 0 4.5 2.0625 4.5 4.5zm-68.039063-41.96875v22.46875h-175.46875c-12.058594 0-21.167968 7.3125-21.167968 21.167968v16.304688h-155.242188v-97.410156h155.242188v17.96875c0 9.414062 6.863281 19.5 21.167968 19.5zm-175.46875-89.941406c-14.207031 0-21.167968 10.019531-21.167968 19.5v17.96875h-155.242188v-74.726563c0-2.300781 1.941406-4.242187 4.238281-4.242187h343.398438c2.300781 0 4.242187 1.941406 4.242187 4.242187v37.257813zm0 0"/></svg>