<svg xmlns="http://www.w3.org/2000/svg" version="1.1" xmlns:xlink="http://www.w3.org/1999/xlink" width="512" height="512" x="0" y="0" viewBox="0 0 512 512" style="enable-background:new 0 0 512 512" xml:space="preserve" class=""><rect width="512" height="512" rx="102.4" ry="102.4" fill="#bac8d3" shape="rounded"></rect><g transform="matrix(0.53,0,0,0.53,120.3197705078125,120.31976423263549)"><linearGradient id="a" x1="425.393" x2="73.508" y1="527.386" y2="24.843" gradientUnits="userSpaceOnUse"><stop offset=".101" stop-color="#57ffd9"></stop><stop offset="1" stop-color="#2a64ff"></stop></linearGradient><path fill="url(#a)" fill-rule="evenodd" d="M479.309 470.119v19.514h-37.757l-3.983-19.514zM415.185 37.397v179.224h30.06V37.397c0-8.301-6.729-15.031-15.03-15.031s-15.03 6.73-15.03 15.031zM96.815 216.621V37.397c0-8.301-6.729-15.031-15.03-15.031s-15.03 6.729-15.03 15.031v179.224zm304.47 16h57.86c5.5 0 10 4.5 10 10v12.014h-77.859V242.62c-.001-5.5 4.499-9.999 9.999-9.999zm-348.43 0h57.86c5.5 0 10 4.5 10 10v12.014h-77.86V242.62c0-5.5 4.5-9.999 10-9.999zm181.384-23.828c0-12.018 9.743-21.76 21.76-21.76 12.018 0 21.761 9.743 21.761 21.76 0 12.018-9.742 21.76-21.761 21.76-12.017 0-21.76-9.742-21.76-21.76zm-23.835-36.294a8 8 0 0 1-11.313-11.312c15.716-15.716 36.313-23.573 56.909-23.573s41.193 7.858 56.908 23.573a8 8 0 0 1-11.312 11.313c-12.591-12.591-29.094-18.886-45.596-18.886-16.503 0-33.006 6.295-45.596 18.885zm-29.288-29.287c20.678-20.678 47.781-31.017 74.884-31.017s54.206 10.339 74.884 31.017a8 8 0 0 0 11.312-11.313c-23.803-23.802-55-35.704-86.196-35.704s-62.393 11.902-86.196 35.704a7.998 7.998 0 0 0 0 11.312 7.997 7.997 0 0 0 11.312.001zm-29.287-29.287a7.998 7.998 0 0 1-11.312 0 7.998 7.998 0 0 1 0-11.312c31.89-31.89 73.687-47.836 115.483-47.836s83.593 15.945 115.484 47.835a8 8 0 0 1-11.312 11.313C331.405 85.16 293.702 70.777 256 70.777c-37.703 0-75.406 14.383-104.171 43.148zM32.691 270.635h446.617c13.03 0 23.691 10.661 23.691 23.691v136.102c0 13.03-10.661 23.691-23.691 23.691H32.691C19.661 454.12 9 443.459 9 430.428V294.326c0-13.03 10.661-23.691 23.691-23.691zm388.237 66.313v50.859h17.655c10.225 0 18.591-8.366 18.591-18.591v-13.677c0-10.225-8.366-18.591-18.591-18.591zm-16 50.858v-50.859h-25.303v50.859zm-41.303 0v-50.859H345.97c-10.225 0-18.591 8.366-18.591 18.591v13.677c0 10.225 8.366 18.591 18.591 18.591zm-132.569-49.355c-13.214 0-23.927 10.712-23.927 23.927 0 13.214 10.712 23.927 23.927 23.927 13.214 0 23.927-10.712 23.927-23.927s-10.713-23.927-23.927-23.927zm-79.16 0c-13.214 0-23.927 10.712-23.927 23.927 0 13.214 10.712 23.927 23.927 23.927 13.214 0 23.926-10.712 23.926-23.927s-10.712-23.927-23.926-23.927zm-79.16 0c-13.214 0-23.927 10.712-23.927 23.927 0 13.214 10.712 23.927 23.927 23.927 13.214 0 23.927-10.712 23.927-23.927-.001-13.215-10.713-23.927-23.927-23.927zm1.694 131.668-3.983 19.514H32.691v-19.514z" clip-rule="evenodd" opacity="1" data-original="url(#a)"></path></g></svg>