<svg xmlns="http://www.w3.org/2000/svg" version="1.1" xmlns:xlink="http://www.w3.org/1999/xlink" width="512" height="512" x="0" y="0" viewBox="0 0 64 64" style="enable-background:new 0 0 512 512" xml:space="preserve"><rect width="64" height="64" rx="12.8" ry="12.8" fill="#bac8d3" shape="rounded"></rect><g transform="matrix(0.6499999999999998,0,0,0.6499999999999998,11.200000000000006,11.199825096130375)"><linearGradient id="a" x1="4" x2="60" y1="32" y2="32" gradientUnits="userSpaceOnUse"><stop offset="0" stop-color="#00c0ff"></stop><stop offset="1" stop-color="#5558ff"></stop></linearGradient><path fill="url(#a)" d="M23.564 52.282v2.079a2.844 2.844 0 0 1-2.832 2.842h-3.325a2.846 2.846 0 0 1-2.842-2.842v-2.09c.182.022 7.687.01 8.999.01zm16.872 0v2.079a2.844 2.844 0 0 0 2.832 2.842h3.325a2.846 2.846 0 0 0 2.842-2.842v-2.09c-.177.027-7.664.01-8.999.01zm4.8-34.166H18.764a.287.287 0 0 0-.281.28V35.37a.314.314 0 0 0 .17.272 32.367 32.367 0 0 0 26.866-.301V18.397a.287.287 0 0 0-.281-.281zM60 24.292v9.019a1.648 1.648 0 0 1-1.647 1.647h-2.009a1.64 1.64 0 0 1-1.637-1.647v-9.019a1.646 1.646 0 0 1 1.637-1.647v-1.326a1.1 1.1 0 0 0-1.094-1.104c-.868-.008-2.758.01-3.626 0v27.548a2.509 2.509 0 0 1-2.19 2.49c-5.715.059-34.557.02-34.557.02a2.511 2.511 0 0 1-2.501-2.51V20.215c-.886.002-2.75-.004-3.626 0a1.1 1.1 0 0 0-1.094 1.104v1.326a1.646 1.646 0 0 1 1.637 1.647v9.019a1.64 1.64 0 0 1-1.637 1.647H5.647A1.648 1.648 0 0 1 4 33.31v-9.019a1.655 1.655 0 0 1 1.647-1.647v-1.326a3.114 3.114 0 0 1 3.103-3.113c.868-.01 2.758.013 3.626 0v-2.19a9.241 9.241 0 0 1 9.23-9.219h20.788a9.241 9.241 0 0 1 9.23 9.22v2.189c.886.003 2.75-.005 3.626 0a3.114 3.114 0 0 1 3.103 3.113v1.326A1.655 1.655 0 0 1 60 24.292zM25.673 13.506h12.654a1.004 1.004 0 0 0 0-2.009H25.673a1.004 1.004 0 0 0 0 2.009zM20.2 40.14a3.602 3.602 0 1 0 .803 7.12 3.602 3.602 0 0 0-.803-7.12zm18.127 5.202H25.673a1.004 1.004 0 0 0 0 2.009h12.654a.95.95 0 0 0 .412-.09 1.007 1.007 0 0 0-.412-1.919zm5.474-5.202a3.602 3.602 0 1 0 .803 7.12 3.602 3.602 0 0 0-.803-7.12zm3.726-21.743a2.295 2.295 0 0 0-2.29-2.29H18.763a2.295 2.295 0 0 0-2.29 2.29v16.972a2.29 2.29 0 0 0 1.376 2.11 34.47 34.47 0 0 0 20.98 2.189 41.44 41.44 0 0 0 7.251-2.19 2.318 2.318 0 0 0 1.447-2.139zM20.199 42.149a1.597 1.597 0 0 0 0 3.193 1.597 1.597 0 0 0 0-3.193zm23.602 0a1.597 1.597 0 0 0 0 3.193 1.597 1.597 0 0 0 0-3.193z" opacity="1" data-original="url(#a)"></path></g></svg>