<svg xmlns="http://www.w3.org/2000/svg" version="1.1" xmlns:xlink="http://www.w3.org/1999/xlink" width="512" height="512" x="0" y="0" viewBox="0 0 512 512" style="enable-background:new 0 0 512 512" xml:space="preserve"><rect width="512" height="512" rx="102.4" ry="102.4" fill="#bac8d3" shape="rounded"></rect><g transform="matrix(0.69,0,0,0.69,69.36375077247621,69.37329193115235)"><linearGradient id="a" x1="256" x2="256" y1="67.892" y2="444.108" gradientUnits="userSpaceOnUse"><stop offset=".104" stop-color="#f26922"></stop><stop offset=".886" stop-color="#febc20"></stop></linearGradient><path fill="url(#a)" d="M205.4 285.5c-3.4-3.4-8-5.5-13.2-5.5-5.1 0-9.8 2.1-13.2 5.5s-5.5 8-5.5 13.2c0 5.1 2.1 9.8 5.5 13.2s8 5.5 13.2 5.5c5.1 0 9.8-2.1 13.2-5.5s5.5-8 5.5-13.2-2.1-9.8-5.5-13.2zm11.6 56.6c-6.3-6.3-15.1-10.2-24.7-10.2-9.7 0-18.4 3.9-24.7 10.2-4.7 4.7-8.1 10.8-9.5 17.5h68.5c-1.5-6.7-4.9-12.8-9.6-17.5zm84.2-55.6c-4 0-7.2-3.2-7.2-7.2s3.2-7.2 7.2-7.2h170.5c4 0 7.2 3.2 7.2 7.2s-3.2 7.2-7.2 7.2zm0 27c-4 0-7.2-3.2-7.2-7.2s3.2-7.2 7.2-7.2h170.5c4 0 7.2 3.2 7.2 7.2s-3.2 7.2-7.2 7.2zm0 27.1c-4 0-7.2-3.2-7.2-7.2s3.2-7.2 7.2-7.2h170.5c4 0 7.2 3.2 7.2 7.2s-3.2 7.2-7.2 7.2zm0 27c-4 0-7.2-3.2-7.2-7.2s3.2-7.2 7.2-7.2h170.5c4 0 7.2 3.2 7.2 7.2s-3.2 7.2-7.2 7.2zm180.9-172H123.3c-6.3 0-12 2.6-16.2 6.7-4.1 4.2-6.7 9.9-6.7 16.2v202.7c0 6.3 2.6 12 6.7 16.2 4.2 4.2 9.9 6.7 16.2 6.7h358.8c6.3 0 12-2.6 16.2-6.7 4.1-4.2 6.7-9.9 6.7-16.2V218.5c0-6.3-2.6-12-6.7-16.2-4.2-4.1-9.9-6.7-16.2-6.7zm-358.8-14.4h299.9l-43.5-99.5c-2.5-5.8-7.2-10-12.7-12.1-5.5-2.2-11.8-2.2-17.6.3L20.7 213.4c-5.8 2.5-10 7.2-12.1 12.7s-2.2 11.8.3 17.6L86 420.1V218.5c0-10.3 4.2-19.6 11-26.4 6.7-6.7 16-10.9 26.3-10.9zM467.4 394h-72v23.7h72zm-72-14.4h72c4 0 7.6 1.6 10.2 4.2s4.2 6.2 4.2 10.2v23.7c0 4-1.6 7.6-4.2 10.2-2.6 2.6-6.2 4.2-10.2 4.2h-72c-3.9 0-7.5-1.6-10.1-4.2-2.6-2.6-4.2-6.2-4.2-10.1V394c0-4 1.6-7.6 4.2-10.2 2.5-2.5 6.2-4.2 10.1-4.2zM238.9 255.9h-93.2c-1.3 0-2.5.5-3.4 1.4s-1.4 2.1-1.4 3.4V379c0 1.3.5 2.5 1.4 3.4s2 1.4 3.4 1.4h93.2c1.3 0 2.5-.5 3.4-1.4.9-.8 1.4-2 1.4-3.4V260.7c0-1.3-.5-2.5-1.4-3.4s-2.2-1.4-3.4-1.4zm-93.2-14.4h93.2c5.3 0 10.1 2.2 13.5 5.6 3.5 3.5 5.6 8.3 5.6 13.5V379c0 5.3-2.2 10.1-5.6 13.5-3.5 3.5-8.3 5.6-13.5 5.6h-93.2c-5.3 0-10.1-2.2-13.5-5.6-3.5-3.4-5.6-8.3-5.6-13.5V260.7c0-5.3 2.2-10.1 5.6-13.5 3.4-3.5 8.2-5.7 13.5-5.7zM294 218.1c0-4 3.2-7.2 7.2-7.2s7.2 3.2 7.2 7.2v21.4c0 4-3.2 7.2-7.2 7.2s-7.2-3.2-7.2-7.2zm22.6 0c0-4 3.2-7.2 7.2-7.2s7.2 3.2 7.2 7.2v21.4c0 4-3.2 7.2-7.2 7.2s-7.2-3.2-7.2-7.2zm22.6 0c0-4 3.2-7.2 7.2-7.2s7.2 3.2 7.2 7.2v21.4c0 4-3.2 7.2-7.2 7.2s-7.2-3.2-7.2-7.2zm22.7 0c0-4 3.2-7.2 7.2-7.2s7.2 3.2 7.2 7.2v21.4c0 4-3.2 7.2-7.2 7.2s-7.2-3.2-7.2-7.2zm22.6 0c0-4 3.2-7.2 7.2-7.2s7.2 3.2 7.2 7.2v21.4c0 4-3.2 7.2-7.2 7.2s-7.2-3.2-7.2-7.2zm22.7 0c0-4 3.2-7.2 7.2-7.2s7.2 3.2 7.2 7.2v21.4c0 4-3.2 7.2-7.2 7.2s-7.2-3.2-7.2-7.2zm57.2 0c0-4 3.2-7.2 7.2-7.2s7.2 3.2 7.2 7.2v21.4c0 4-3.2 7.2-7.2 7.2s-7.2-3.2-7.2-7.2zm-272.1 47.6c9.1 0 17.4 3.7 23.3 9.7 6 6 9.7 14.2 9.7 23.3s-3.7 17.4-9.7 23.3l-.9.9c4.6 2.4 8.8 5.4 12.5 9.1 8.9 8.9 14.5 21.3 14.5 34.9 0 4-3.2 7.2-7.2 7.2h-84.3c-4 0-7.2-3.2-7.2-7.2 0-13.6 5.5-26 14.5-34.9 3.6-3.6 7.8-6.7 12.5-9.1l-.9-.9c-6-5.9-9.7-14.2-9.7-23.3s3.7-17.4 9.7-23.3c5.8-6.1 14.1-9.7 23.2-9.7z" opacity="1" data-original="url(#a)"></path></g></svg>