<svg xmlns="http://www.w3.org/2000/svg" version="1.1" xmlns:xlink="http://www.w3.org/1999/xlink" width="512" height="512" x="0" y="0" viewBox="0 0 100 100" style="enable-background:new 0 0 512 512" xml:space="preserve" class=""><rect width="100" height="100" rx="20" ry="20" fill="#bac8d3" shape="rounded"></rect><g transform="matrix(0.5699999999999998,0,0,0.5699999999999998,21.500127227306375,21.488777751922612)"><linearGradient id="a" x1="-4.733" x2="100.53" y1="-1.411" y2="106.686" gradientUnits="userSpaceOnUse"><stop offset=".184" stop-color="#29abe2"></stop><stop offset=".821" stop-color="#6200d2"></stop></linearGradient><path fill="url(#a)" d="M94.621 29.213a10.285 10.285 0 0 0-10.076-8.033h-27.86l6.31-10.448a2.322 2.322 0 0 0-.789-3.204 2.322 2.322 0 0 0-3.157.79L51.248 21.18h-2.503L40.954 8.327a2.322 2.322 0 1 0-3.961 2.405l6.333 10.448h-27.86A10.285 10.285 0 0 0 5.39 29.213a114.88 114.88 0 0 0 0 51.215 10.294 10.294 0 0 0 10.076 7.987h2.675v2.173a2.322 2.322 0 0 0 4.643 0v-2.173H77.21v2.182a2.322 2.322 0 0 0 4.643 0v-2.182h2.693a10.294 10.294 0 0 0 10.076-7.987 115.674 115.674 0 0 0 2.879-25.63 115.26 115.26 0 0 0-2.879-25.585zm-7.43 13.14a2.322 2.322 0 0 1-2.32 2.322h-6.78a2.322 2.322 0 1 1 0-4.643h6.78a2.322 2.322 0 0 1 2.32 2.321zm.465 8.869a2.322 2.322 0 0 1-2.321 2.322h-6.826a2.322 2.322 0 1 1 0-4.644h6.826a2.322 2.322 0 0 1 2.321 2.322zm-11.33-20.106h6.78a2.322 2.322 0 0 1 0 4.644h-6.78a2.322 2.322 0 0 1 0-4.644zm-13.558-.882a6.881 6.881 0 0 1 6.78 5.572 108.714 108.714 0 0 1 0 37.983 6.835 6.835 0 0 1-6.78 5.572H20.003a6.789 6.789 0 0 1-6.733-5.572 105.826 105.826 0 0 1 0-37.983 6.789 6.789 0 0 1 6.733-5.572zm18.945 42.162a7.569 7.569 0 1 1-.093-15.137 7.569 7.569 0 0 1 .093 15.137zM32.586 56.655a2.322 2.322 0 0 1 0-3.297l4.969-4.968a2.331 2.331 0 1 1 3.297 3.296l-4.969 4.969a2.359 2.359 0 0 1-1.671.696 2.322 2.322 0 0 1-1.626-.696zm6.222 2.507 9.566-9.565a2.298 2.298 0 1 1 3.25 3.25l-9.565 9.565a2.243 2.243 0 0 1-3.25 0c-.91-.841-.982-2.24-.14-3.149a.32.32 0 0 1 .14-.1z" opacity="1" data-original="url(#a)"></path></g></svg>