<svg xmlns="http://www.w3.org/2000/svg" version="1.1" xmlns:xlink="http://www.w3.org/1999/xlink" width="512" height="512" x="0" y="0" viewBox="0 0 64 64" style="enable-background:new 0 0 512 512" xml:space="preserve"><rect width="64" height="64" rx="12.8" ry="12.8" fill="#bac8d3" shape="rounded"></rect><g transform="matrix(0.6199999999999999,0,0,0.6199999999999999,12.16016742706299,12.159034304618835)"><linearGradient id="a" x1="4" x2="60" y1="32" y2="32" gradientUnits="userSpaceOnUse"><stop offset="0" stop-color="#9cffac"></stop><stop offset="1" stop-color="#00b59c"></stop></linearGradient><path fill="url(#a)" d="M7.251 25.121c-6.695-6.608-2.333-18.3 6.95-19.039.022-.579-.174-1.67.52-1.96a.98.98 0 0 1 1.03.05l6.12 4.08a.982.982 0 0 1 .45.83.995.995 0 0 1-.45.83l-6.12 4.08a1.025 1.025 0 0 1-1.03.05c-.673-.306-.505-1.282-.52-1.87a9.213 9.213 0 0 0-7.97 7.11 9.09 9.09 0 0 0 2.44 4.43 1 1 0 0 1-1.42 1.41zm48.088 13.76a.996.996 0 0 0-.01 1.41 9.09 9.09 0 0 1 2.44 4.43 9.212 9.212 0 0 1-7.97 7.109v-.99a1.003 1.003 0 0 0-1.55-.83l-6.12 4.08a.998.998 0 0 0 0 1.66l6.12 4.08A1 1 0 0 0 49.8 59v-1.08a11.196 11.196 0 0 0 6.95-19.04.996.996 0 0 0-1.41 0zM4.6 31.36l15.27 15.08 15.09-9.43-1.88-1.85-10.33 6.39a1.003 1.003 0 0 1-1.35-.28 1.12 1.12 0 0 0-.92-.48 1.214 1.214 0 0 0-.77.28 1.014 1.014 0 0 1-1.31-.04l-7.29-6.66a1.01 1.01 0 0 1 .02-1.5 1.15 1.15 0 0 0 .41-.88 1.105 1.105 0 0 0-.21-.66 1.014 1.014 0 0 1 .29-1.43l9.91-6.13-1.85-1.83zm8.55 2.16a3.219 3.219 0 0 0 .27-2.38l9.58-5.92 8.61 8.49-9.23 5.72a3.219 3.219 0 0 0-3.17-.38zm4.49.12a2.96 2.96 0 0 0 3.15 2.71 2.966 2.966 0 0 0 3.15-2.71 2.966 2.966 0 0 0-3.15-2.72 2.96 2.96 0 0 0-3.15 2.72zm33.21-14.05a3.219 3.219 0 0 0-.27 2.38l-9.7 6.01-8.62-8.51 9.36-5.79a3.22 3.22 0 0 0 3.17.38zm-4.42-.03a3.184 3.184 0 0 0-6.3 0 3.186 3.186 0 0 0 6.3 0zm-5.18-8a1.001 1.001 0 0 1 1.35.28 1.12 1.12 0 0 0 .92.48 1.214 1.214 0 0 0 .77-.28 1.014 1.014 0 0 1 1.31.04l7.29 6.66a.998.998 0 0 1-.02 1.49 1.187 1.187 0 0 0-.41.89 1.104 1.104 0 0 0 .21.66 1.001 1.001 0 0 1-.29 1.42l-10.04 6.22 1.85 1.83 15.21-9.5-15.27-15.08-15.22 9.51 1.88 1.85zm4.29 21.2a26.035 26.035 0 0 1 .06 2.68l14.4-9v-2.71zm.06 7.74 14.4-9v-2.7l-14.4 9zm-26.47 13.65a1.001 1.001 0 0 1-.7-.29L4 39.611v3.23l14.66 14.49 16.35-10.22v-2.69l-15.35 9.58a.988.988 0 0 1-.53.15zm-.1-5.73L4 33.571v3.23l15.27 15.08 15.74-9.82v-2.72l-14.75 9.21a.997.997 0 0 1-1.23-.13zm24.57-14.44-6.59 4.11v7.78l6.59-4.12zm-16.43-16.72-5.75 3.59 15.28 15.07 5.75-3.58zm16.11 1.58c-.66 0-1.15.38-1.15.72 0 .33.49.71 1.15.71s1.15-.38 1.15-.71c0-.34-.49-.72-1.15-.72zm-22.49 15.51c.65 0 1.15-.38 1.15-.71 0-.34-.5-.72-1.15-.72-.66 0-1.15.38-1.15.72 0 .33.49.71 1.15.71z" opacity="1" data-original="url(#a)"></path></g></svg>