<svg xmlns="http://www.w3.org/2000/svg" version="1.1" xmlns:xlink="http://www.w3.org/1999/xlink" width="512" height="512" x="0" y="0" viewBox="0 0 491.5 491.5" style="enable-background:new 0 0 512 512" xml:space="preserve" class=""><rect width="491.5" height="491.5" rx="98.3" ry="98.3" fill="#bac8d3" shape="rounded"></rect><g transform="matrix(0.68,0,0,0.68,83.64060058593748,78.65617919921874)"><linearGradient id="a" x1="245.752" x2="245.752" y1="85.501" y2="406.1" gradientUnits="userSpaceOnUse"><stop offset="0" stop-color="#f704fe"></stop><stop offset="1" stop-color="#24bce3"></stop></linearGradient><path fill="url(#a)" d="M380.4 203.4c0-11-9-20-20-20H55.5c-11 0-20 9-20 20v28h344.9zm74.9 73.3-47.2-176.4c-2.8-10.6-13.8-17-24.5-14.1L89.1 165.1c-5 1.3-9.1 4.5-11.8 8.8h283.1c16.3 0 29.6 13.3 29.6 29.6v111.4l51.2-13.7c5.1-1.4 9.4-4.7 12.1-9.3 2.7-4.7 3.4-10.1 2-15.2zM288 372.1h46.6c2.8 0 5.1-2.3 5.1-5.1v-26.2c0-2.8-2.3-5.1-5.1-5.1H288c-2.8 0-5.1 2.3-5.1 5.1V367c0 2.8 2.3 5.1 5.1 5.1zm-252.5-131v145c0 11 8.9 20 20 20h305c11 0 20-9 20-20v-145zm126.7 140.6c-2.6 0-4.8-2.2-4.8-4.8v-17c0-2.7 2.1-4.8 4.8-4.8s4.8 2.2 4.8 4.8v17c0 2.7-2.2 4.8-4.8 4.8zm111.1-40.9c0-8.1 6.6-14.7 14.7-14.7h46.6c8.1 0 14.7 6.6 14.7 14.7V367c0 8.1-6.6 14.7-14.7 14.7H288c-8.1 0-14.7-6.6-14.7-14.7zm-34.5-67.1h17.8c2.7 0 4.8 2.1 4.8 4.8 0 2.6-2.2 4.8-4.8 4.8h-17.8c-2.7 0-4.8-2.2-4.8-4.8 0-2.7 2.2-4.8 4.8-4.8zm0 30.2h17.8c2.7 0 4.8 2.1 4.8 4.8 0 2.6-2.2 4.8-4.8 4.8h-17.8c-2.7 0-4.8-2.2-4.8-4.8s2.2-4.8 4.8-4.8zM197 273.7h17.7c2.7 0 4.8 2.1 4.8 4.8 0 2.6-2.1 4.8-4.8 4.8H197c-2.7 0-4.8-2.2-4.8-4.8 0-2.7 2.1-4.8 4.8-4.8zm0 30.2h17.8c2.7 0 4.8 2.1 4.8 4.8 0 2.6-2.1 4.8-4.8 4.8H197c-2.7 0-4.8-2.2-4.8-4.8s2.1-4.8 4.8-4.8zm-9.4 56.1c0-2.7 2.1-4.8 4.8-4.8s4.8 2.2 4.8 4.8v17c0 2.6-2.2 4.8-4.8 4.8s-4.8-2.2-4.8-4.8zm-32.5-86.3h17.8c2.7 0 4.8 2.1 4.8 4.8 0 2.6-2.2 4.8-4.8 4.8h-17.8c-2.7 0-4.8-2.2-4.8-4.8 0-2.7 2.2-4.8 4.8-4.8zm0 30.2h17.8c2.7 0 4.8 2.1 4.8 4.8 0 2.6-2.2 4.8-4.8 4.8h-17.8c-2.7 0-4.8-2.2-4.8-4.8s2.2-4.8 4.8-4.8zm-18.4 73c0 2.6-2.2 4.8-4.8 4.8s-4.8-2.2-4.8-4.8v-17c0-2.7 2.1-4.8 4.8-4.8s4.8 2.2 4.8 4.8zm-23.4-103.2H131c2.7 0 4.8 2.1 4.8 4.8 0 2.6-2.1 4.8-4.8 4.8h-17.8c-2.7 0-4.8-2.2-4.8-4.8.1-2.7 2.2-4.8 4.9-4.8zm0 30.2H131c2.7 0 4.8 2.1 4.8 4.8 0 2.6-2.1 4.8-4.8 4.8h-17.8c-2.7 0-4.8-2.2-4.8-4.8.1-2.6 2.2-4.8 4.9-4.8zM96.9 360c0-2.7 2.1-4.8 4.8-4.8s4.8 2.2 4.8 4.8v17c0 2.6-2.2 4.8-4.8 4.8-2.7 0-4.8-2.2-4.8-4.8zm-25.5-86.3h17.8c2.7 0 4.8 2.1 4.8 4.8 0 2.6-2.1 4.8-4.8 4.8H71.4c-2.7 0-4.8-2.2-4.8-4.8 0-2.7 2.2-4.8 4.8-4.8zm0 30.2h17.8c2.7 0 4.8 2.1 4.8 4.8 0 2.6-2.1 4.8-4.8 4.8H71.4c-2.7 0-4.8-2.2-4.8-4.8s2.2-4.8 4.8-4.8zM66.6 360c0-2.7 2.1-4.8 4.8-4.8s4.8 2.2 4.8 4.8v17c0 2.6-2.2 4.8-4.8 4.8-2.7 0-4.8-2.2-4.8-4.8z" opacity="1" data-original="url(#a)"></path></g></svg>