<svg xmlns="http://www.w3.org/2000/svg" version="1.1" xmlns:xlink="http://www.w3.org/1999/xlink" width="512" height="512" x="0" y="0" viewBox="0 0 512 512" style="enable-background:new 0 0 512 512" xml:space="preserve"><rect width="512" height="512" rx="102.4" ry="102.4" fill="#bac8d3" shape="rounded"></rect><g transform="matrix(0.57,0,0,0.57,115.07936191558838,105.08000000000001)"><linearGradient id="a" x1="256" x2="256.001" y1="512" gradientUnits="userSpaceOnUse"><stop offset="0" stop-color="#6c54a3"></stop><stop offset="1" stop-color="#00b1d2"></stop></linearGradient><path fill="url(#a)" fill-rule="evenodd" d="M370.113 483.91V512H38.714v-28.09A28.139 28.139 0 0 1 66.82 455.8h275.2a28.136 28.136 0 0 1 28.1 28.111zm-53.373-45.3H92.087v-10.917H316.74v10.918zM443.558 6.427a16.745 16.745 0 1 1-16.742 16.747 16.763 16.763 0 0 1 16.742-16.747zm-27.634 36.388a34.035 34.035 0 0 0 5.834 6.326l-42.288 89.365-53.231-53.246zM216.66 0a180.517 180.517 0 0 0-20.832 216.69A49.283 49.283 0 0 1 252.683 275c69.02 44.559 160.093 36.656 220.6-18.369zm-12.246 233.118a32.059 32.059 0 1 1-32.059 32.059 32.086 32.086 0 0 1 32.059-32.059zm-21.765 76.212a49.066 49.066 0 0 0 43.54 0l36.175 101.176h-115.9z" opacity="1" data-original="url(#a)"></path></g></svg>