<svg xmlns="http://www.w3.org/2000/svg" version="1.1" xmlns:xlink="http://www.w3.org/1999/xlink" width="512" height="512" x="0" y="0" viewBox="0 0 64 64" style="enable-background:new 0 0 512 512" xml:space="preserve"><rect width="64" height="64" rx="12.8" ry="12.8" fill="#bac8d3" shape="rounded"></rect><g transform="matrix(0.69,0,0,0.69,9.919999852180485,9.920042276382446)"><linearGradient id="a" x1="4" x2="60" y1="32" y2="32" gradientUnits="userSpaceOnUse"><stop offset="0" stop-color="#ff81ff"></stop><stop offset="1" stop-color="#a93aff"></stop></linearGradient><path fill="url(#a)" d="M28.61 46.931v-26.03a3.56 3.56 0 0 1 .46-1.95l-19.02-4.47a1.009 1.009 0 0 0-1.23.97v28.09a1.006 1.006 0 0 0 .77.98c3.667.861 15.565 3.66 19.03 4.47-.026-.557-.002-1.502-.01-2.06zm-1.01-13.13a1.028 1.028 0 0 1-1.22.74l-11.2-2.77a1.004 1.004 0 0 1 .48-1.95l11.2 2.77a1.01 1.01 0 0 1 .74 1.21zm0 5.92a1.008 1.008 0 0 1-1.22.73l-11.2-2.77a1 1 0 0 1 .48-1.94l11.2 2.77a1.006 1.006 0 0 1 .74 1.21zm-.32-12.27a1.003 1.003 0 0 1-1.21.73l-11.2-2.77a.998.998 0 1 1 .47-1.94l11.21 2.77a.995.995 0 0 1 .73 1.21zm5.83-6.76v28.09a1.008 1.008 0 0 1-1.62.79c-.53-.33-.352-1.283-.38-1.79v-27.09a1.074 1.074 0 0 1 .99-1.03h.01l.23.06a1.004 1.004 0 0 1 .77.97zm-12.05 29.09H5a1.003 1.003 0 0 1-1-1v-28.35a.999.999 0 0 1 1-1h1.32v24.11a3.497 3.497 0 0 0 2.7 3.41c2.37.557 9.547 2.246 12.04 2.83zm38.65-30.06c-.336-.435-1.207-.251-1.67-.29h-2.5v-4.21a1.005 1.005 0 0 0-.38-.79.968.968 0 0 0-.85-.18l-19.18 4.67c.72 1.046.429 3.3.48 4.52-.006 3.32.004 22.44 0 25.34a1.085 1.085 0 0 1-.01.18l4.83-1.18 14.35-3.5a.995.995 0 0 0 .76-.97v-21.88H58v22.4a3.494 3.494 0 0 1-2.62 2.88l-4.39 1.07-8.2 2H59a1.003 1.003 0 0 0 1-1v-28.35a1.033 1.033 0 0 0-.29-.71zm-11.22 11.7-11.21 2.77a1 1 0 0 1-.48-1.94l11.2-2.77a1 1 0 0 1 .49 1.94zm0 5.92-11.21 2.77a1 1 0 1 1-.48-1.94l11.2-2.77a1 1 0 0 1 .49 1.94zm.31-12.28-11.21 2.77a1 1 0 0 1-.48-1.94l11.21-2.77a1 1 0 0 1 .48 1.94z" opacity="1" data-original="url(#a)"></path></g></svg>