<svg xmlns="http://www.w3.org/2000/svg" version="1.1" xmlns:xlink="http://www.w3.org/1999/xlink" width="512" height="512" x="0" y="0" viewBox="0 0 64 64" style="enable-background:new 0 0 512 512" xml:space="preserve" class=""><rect width="64" height="64" rx="12.8" ry="12.8" fill="#bac8d3" shape="rounded"></rect><g transform="matrix(0.6,0,0,0.6,12.803345489501954,12.795782470703124)"><linearGradient id="a" x1="4.313" x2="59.698" y1="31.996" y2="31.996" gradientUnits="userSpaceOnUse"><stop offset="0" stop-color="#00c0ff"></stop><stop offset="1" stop-color="#5558ff"></stop></linearGradient><path fill="url(#a)" d="m56.048 16.87-27.85 26.05c-5.578 5.632-9.843 7.075-12.449 7.302-5.503-.355.437-9.477 2.24-11.664a1.537 1.537 0 0 0 .119-.161 38.853 38.853 0 0 1 2.455-2.875L46.625 8.049C50.329 4.754 53.689 4 55.994 4c1.428.008 2.907.118 3.338 1.583 1.702 6.462-3.08 11.092-3.284 11.286zM18.076 51.987l4.62 7.01a2.223 2.223 0 0 0 4.06-1.421l-.948-9.65a21.4 21.4 0 0 1-7.732 4.06zM6.316 37.62a1.882 1.882 0 0 0-1.217 3.404l6.601 4.641a24.237 24.237 0 0 1 3.748-7.312zm16.39-28.118a1.46 1.46 0 0 0-2.778-.894l-.786 2.434 3.026.119zM6.951 17.86l21.527 6.192 9.574-10.09c-2.64-.103-12.453-.499-15.27-.625-3.32-.122-11.588-.463-15.002-.603a2.618 2.618 0 0 0-.83 5.126zm27.354-8.357a1.454 1.454 0 0 0-2.768-.894l-.937 2.897 3.026.119zm21.527 31.22c-.76-.486-2.178.32-3.155.56l.14 3.015 2.789-.904a1.453 1.453 0 0 0 .226-2.671zm-5.094 4.943c-.138-2.95-.407-8.485-.527-11.448l-.399-8.561-10.09 9.434 6.396 21.829a2.605 2.605 0 0 0 5.094-.851l-.463-10.123a.807.807 0 0 1-.01-.28zm5.094-16.563a1.493 1.493 0 0 0-1.12-.086l-2.563.818.14 3.016 3.328-1.066a1.464 1.464 0 0 0 .215-2.682z" opacity="1" data-original="url(#a)"></path></g></svg>