<svg xmlns="http://www.w3.org/2000/svg" version="1.1" xmlns:xlink="http://www.w3.org/1999/xlink" width="512" height="512" x="0" y="0" viewBox="0 0 64 64" style="enable-background:new 0 0 512 512" xml:space="preserve"><rect width="64" height="64" rx="12.8" ry="12.8" fill="#bac8d3" shape="rounded"></rect><g transform="matrix(0.6699999999999999,0,0,0.6699999999999999,10.560006923675541,10.55999527931214)"><linearGradient id="a" x1="4" x2="60" y1="32" y2="32" gradientUnits="userSpaceOnUse"><stop offset="0" stop-color="#ff81ff"></stop><stop offset="1" stop-color="#a93aff"></stop></linearGradient><path fill="url(#a)" d="M7.72 12.66h12.16v10.51a6.787 6.787 0 0 0-4.39-1.85l-3.41-.15a1.004 1.004 0 0 0-1.04.96l-.15 3.42a6.79 6.79 0 0 0 2.25 5.33c-1.429.002-7.848-.003-9.14 0v-14.5a3.726 3.726 0 0 1 3.72-3.72zm50.76.73a3.634 3.634 0 0 0-2.2-.73h-34.4c.01 1.236-.007 9.097 0 10.52a6.797 6.797 0 0 1 4.39-1.86l3.42-.15a1.001 1.001 0 0 1 1.04.96l.14 3.42a6.79 6.79 0 0 1-2.25 5.33H60v-14.5a3.666 3.666 0 0 0-1.52-2.99zM14.53 41a1.007 1.007 0 0 1-.85-1.53l4.11-6.59H4v14.74a3.726 3.726 0 0 0 3.72 3.72h12.16V33.31l-4.5 7.22a1.014 1.014 0 0 1-.85.47zm.88-17.68L13 23.21l-.11 2.42a4.816 4.816 0 0 0 4.61 5.01l2.38.1v-3.76a4.79 4.79 0 0 0-4.47-3.66zm13.46 2.31-.1-2.42-2.42.11a4.796 4.796 0 0 0-4.47 3.69v3.73l2.37-.1a4.818 4.818 0 0 0 4.62-5.01zM58 32.88h2v14.74a3.741 3.741 0 0 1-3.72 3.72h-34.4c.009-.234-.012-17.064 0-18.03l4.5 7.22a1.002 1.002 0 0 0 1.7-1.06l-4.11-6.59zm-18.06 6.35h12.7a1 1 0 0 0 0-2h-12.7a1 1 0 0 0 0 2zm0 6.36h12.7a1 1 0 0 0 0-2h-12.7a1 1 0 0 0 0 2z" opacity="1" data-original="url(#a)"></path></g></svg>