<svg xmlns="http://www.w3.org/2000/svg" version="1.1" xmlns:xlink="http://www.w3.org/1999/xlink" width="512" height="512" x="0" y="0" viewBox="0 0 64 64" style="enable-background:new 0 0 512 512" xml:space="preserve" class=""><rect width="64" height="64" rx="12.8" ry="12.8" fill="#bac8d3" shape="rounded"></rect><g transform="matrix(0.6299999999999998,0,0,0.6299999999999998,11.840000000000007,11.840092449188248)"><linearGradient id="a" x1="4" x2="60" y1="32" y2="32" gradientUnits="userSpaceOnUse"><stop offset="0" stop-color="#ffa68d"></stop><stop offset="1" stop-color="#fd3a84"></stop></linearGradient><path fill="url(#a)" d="M26 46h5v14h-6V47c0-.55.45-1 1-1zm12 0h-5v14h6V47c0-.55-.45-1-1-1zm-5-28v-3h-2v3c0 .55-.45 1-1 1h-3v2h3c.55 0 1 .45 1 1v3h2v-3c0-.55.45-1 1-1h3v-2h-3c-.55 0-1-.45-1-1zm15-7.002V60h-7V47c0-1.65-1.35-3-3-3H26c-1.65 0-3 1.35-3 3v13h-7V10.998a1 1 0 0 1 .63-.93l15-6c.24-.09.5-.09.74 0l15 6a1 1 0 0 1 .63.93zM39 19c0-1.1-.9-2-2-2h-2v-2c0-1.1-.9-2-2-2h-2c-1.1 0-2 .9-2 2v2h-2c-1.1 0-2 .9-2 2v2c0 1.1.9 2 2 2h2v2c0 1.1.9 2 2 2h2c1.1 0 2-.9 2-2v-2h2c1.1 0 2-.9 2-2zM4 32v18h10V30H6c-1.1 0-2 .9-2 2zm0 27c0 .55.45 1 1 1h9v-8H4zm4.5-40v9H14V17h-3.5c-1.1 0-2 .9-2 2zm47 0c0-1.1-.9-2-2-2H50v11h5.5zM58 30h-8v20h10V32c0-1.1-.9-2-2-2zm-8 30h9c.55 0 1-.45 1-1v-7H50z" opacity="1" data-original="url(#a)"></path></g></svg>