<svg xmlns="http://www.w3.org/2000/svg" version="1.1" xmlns:xlink="http://www.w3.org/1999/xlink" width="512" height="512" x="0" y="0" viewBox="0 0 512 512" style="enable-background:new 0 0 512 512" xml:space="preserve" class=""><rect width="512" height="512" rx="102.4" ry="102.4" fill="#bac8d3" shape="rounded"></rect><g transform="matrix(0.59,0,0,0.59,104.96000000000001,94.96000469207766)"><linearGradient id="a" x1="54.207" x2="464.725" y1="518.108" y2="107.591" gradientUnits="userSpaceOnUse"><stop offset="0" stop-color="#011c49"></stop><stop offset="1" stop-color="#00b8e0"></stop></linearGradient><path fill="url(#a)" fill-rule="evenodd" d="M53.814 114.916v329.672H215.23V198.449zM16 476.588a8 8 0 0 1 0-16h480a8 8 0 0 1 0 16zM140.17 51.412a8 8 0 0 1 0-16h249.062a8 8 0 0 1 0 16H364.88v393.176H231.23V188.714l-66.708-34.521V51.412zm74.554 61.31h22.652V90.065h-22.652zm38.652 0h22.651V90.065h-22.651zm38.651 0h22.654V90.065h-22.654zm22.654 16h-22.654v22.651h22.654zm-38.654 0h-22.651v22.651h22.651zm-38.651 0v22.651h-22.652v-22.651zm16 61.302h22.651v-22.651h-22.651zm38.651 0h22.654v-22.651h-22.654zm22.654 16h-22.654v22.651h22.654zm-38.654 0h-22.651v22.651h22.651zm38.654 38.651h-22.654v22.651h22.654zm-38.654 0h-22.651v22.651h22.651zm16 38.651v22.652h22.654v-22.652zm0 38.653v22.654h22.654v-22.654zm0 38.653v22.651h22.654v-22.651zm-16 22.651v-22.651h-22.651v22.651zm0-38.651v-22.654h-22.651v22.654zm0-38.653v-22.652h-22.651v22.652zM380.88 203.307v241.281h93.306V219.307h14.628a8 8 0 0 0 0-16H380.88zm56.615 184.249v19.925H417.57v-19.925zm-19.925-16V351.63h19.926v19.925H417.57zm0-35.925v-19.925h19.926v19.925zm0-35.925v-19.925h19.926v19.925zm0-35.925v-19.924h19.926v19.924zm-275.049-19.106h22.653v22.651h-22.653zm0 38.651h22.653v22.652h-22.653zm0 38.653h22.653v22.654h-22.653zm0 38.653h22.653v22.652h-22.653zm-16 22.652H103.87v-22.652h22.651zm0-38.652H103.87v-22.654h22.651zm0-38.653H103.87v-22.652h22.651zm0-38.653H103.87v-22.651h22.651z" clip-rule="evenodd" opacity="1" data-original="url(#a)"></path></g></svg>