<svg xmlns="http://www.w3.org/2000/svg" version="1.1" xmlns:xlink="http://www.w3.org/1999/xlink" width="512" height="512" x="0" y="0" viewBox="0 0 512 512" style="enable-background:new 0 0 512 512" xml:space="preserve"><rect width="512" height="512" rx="102.4" ry="102.4" fill="#bac8d3" shape="rounded"></rect><g transform="matrix(0.7,0,0,0.7,76.80000343322754,71.79999771118165)"><linearGradient id="a" x1="256" x2="256" y1="71.6" y2="440.4" gradientUnits="userSpaceOnUse"><stop offset="0" stop-color="#f704fe"></stop><stop offset="1" stop-color="#24bce3"></stop></linearGradient><path fill="url(#a)" d="m460.7 220.1-37.4 7-164.4-122.6a4.8 4.8 0 0 0-5.8 0L88.5 227.2l-37.2-7.1L256 71.6l91.2 66.1c.4.4.8.7 1.3 1l42.2 30.6c.4.4.9.8 1.4 1zm-21.3 203.2v17.1H72.5v-17.1h144.1c.3.1.6.1.9.1s.6 0 .9-.1h203.7zm-50-328.2v61.2l-33.8-24.6V95.1zm-50.1 190.4h38v38h-38zm-49.8.6v127.5h-67V286.1c0-.3.2-.5.5-.5h66c.3 0 .5.2.5.5zm-13.3 63.4c0-.4 0-.6-.1-1l-.3-.9c-.1-.3-.3-.5-.5-.8s-.5-.6-.6-.7c-.2-.3-.5-.5-.7-.6-.3-.2-.6-.4-.8-.4l-.9-.3c-.6-.1-1.3-.1-1.9 0l-.9.3c-.3.1-.6.3-.8.4s-.5.4-.7.6c-.3.2-.5.5-.6.7-.2.3-.4.5-.5.8l-.3.9c-.1.4-.1.6-.1 1s0 .6.1 1l.3.9c.1.3.3.5.5.8s.4.5.6.7c.9.9 2.2 1.5 3.4 1.5 1.4 0 2.5-.5 3.4-1.5.3-.2.4-.5.6-.7.2-.3.4-.5.5-.8l.3-.9v-1zM256 178.9c14 0 25.4 11.4 25.4 25.4 0 13.9-11.3 25.4-25.4 25.4-14 0-25.4-11.4-25.4-25.4s11.4-25.4 25.4-25.4zM134.7 285.5h38v38h-38zm282.7-50.7v178.8H299.3V286.1c0-5.7-4.6-10.3-10.3-10.3h-66c-5.7 0-10.3 4.6-10.3 10.3v127.5h-118V234.8L256 114.5zm-30.3 88.8v-38.3c0-5.3-4.4-9.6-9.6-9.6h-38.3c-5.3 0-9.6 4.4-9.6 9.6v38.3c0 5.3 4.4 9.6 9.6 9.6h38.3c5.2 0 9.6-4.3 9.6-9.6zm-95.9-119.3c0-19.4-15.8-35.2-35.1-35.2-19.4 0-35.2 15.8-35.2 35.2s15.8 35.1 35.2 35.1c19.3.1 35.1-15.7 35.1-35.1zM182.4 323.8v-38.5c0-5.3-4.3-9.6-9.6-9.6h-38.3c-5.3 0-9.6 4.4-9.6 9.6v38.3c0 5.3 4.3 9.6 9.6 9.6h38.3c5.1 0 9.4-4.2 9.6-9.4z" opacity="1" data-original="url(#a)"></path></g></svg>