<svg xmlns="http://www.w3.org/2000/svg" version="1.1" xmlns:xlink="http://www.w3.org/1999/xlink" width="512" height="512" x="0" y="0" viewBox="0 0 512 512" style="enable-background:new 0 0 512 512" xml:space="preserve" class=""><rect width="512" height="512" rx="102.4" ry="102.4" fill="#bac8d3" shape="rounded"></rect><g transform="matrix(0.5499999999999999,0,0,0.5499999999999999,115.20000000000002,115.19977340698242)"><linearGradient id="a" x1="43.187" x2="467.295" y1="463.443" y2="39.335" gradientUnits="userSpaceOnUse"><stop offset="0" stop-color="#ec2aff"></stop><stop offset="1" stop-color="#6ac6ff"></stop></linearGradient><path fill="url(#a)" fill-rule="evenodd" d="M81.578 6.5h82.635c9.434 0 17.15 7.718 17.15 17.151v289.294c0 9.433-7.717 17.151-17.15 17.151H81.578c-9.434 0-17.15-7.719-17.15-17.151V23.651c0-9.433 7.717-17.151 17.15-17.151zM45.91 451.747h67.984v-87.201h-9.299v-16.449H81.578c-19.332 0-35.15-15.818-35.15-35.151V52.548h-.518C26.684 52.548 11 68.231 11 87.46v329.375c0 19.228 15.684 34.912 34.91 34.912zm219.09 0h201.086c19.23 0 34.914-15.684 34.914-34.912V87.46c0-19.229-15.684-34.912-34.914-34.912H199.363v260.397c0 19.333-15.816 35.151-35.15 35.151h-23.018v16.449h-9.301v87.201H247v4.753c0 17.063-13.938 31-31 31h-53.105c-17.063 0-31-13.937-31-31v-4.454h-18v4.454c0 26.999 22.002 49 49 49H216c26.998 0 49-22.001 49-49zm-30.812-218.71v-40.001c0-2.754 2.246-5 5-5h40c2.754 0 5 2.246 5 5v40.001a5.009 5.009 0 0 1-5 4.999h-40c-2.754 0-5-2.245-5-4.999zm0 163.99v-40.001a5.009 5.009 0 0 1 5-4.999h40c2.754 0 5 2.245 5 4.999v40.001c0 2.754-2.246 5-5 5h-40a5.01 5.01 0 0 1-5-5zm81.994 0v-40.001a5.009 5.009 0 0 1 5-4.999h40c2.754 0 5 2.245 5 4.999v40.001c0 2.754-2.246 5-5 5h-40a5.01 5.01 0 0 1-5-5zm81.994 0v-40.001a5.009 5.009 0 0 1 5-4.999h40c2.754 0 5 2.245 5 4.999v40.001c0 2.754-2.246 5-5 5h-40a5.01 5.01 0 0 1-5-5zm0-81.995v-40c0-2.754 2.246-5 5-5h40c2.754 0 5 2.246 5 5v40c0 2.754-2.246 5-5 5h-40a5.01 5.01 0 0 1-5-5zm-81.994 0v-40c0-2.754 2.246-5 5-5h40c2.754 0 5 2.246 5 5v40c0 2.754-2.246 5-5 5h-40a5.01 5.01 0 0 1-5-5zm-36.994 5h-40a5.01 5.01 0 0 1-5-5v-40c0-2.754 2.246-5 5-5h40c2.754 0 5 2.246 5 5v40c0 2.754-2.247 5-5 5zm81.994-81.996h-40c-2.754 0-5-2.245-5-4.999v-40.001c0-2.754 2.246-5 5-5h40c2.754 0 5 2.246 5 5v40.001a5.009 5.009 0 0 1-5 4.999zm36.994-4.999v-40.001c0-2.754 2.246-5 5-5h40c2.754 0 5 2.246 5 5v40.001a5.009 5.009 0 0 1-5 4.999h-40c-2.754 0-5-2.245-5-4.999zm45-91H239.188a5.01 5.01 0 0 1-5-5v-41.52c0-2.754 2.246-5 5-5h203.988c2.754 0 5 2.246 5 5v41.521a5.01 5.01 0 0 1-5 4.999z" clip-rule="evenodd" opacity="1" data-original="url(#a)"></path></g></svg>