<svg xmlns="http://www.w3.org/2000/svg" version="1.1" xmlns:xlink="http://www.w3.org/1999/xlink" width="512" height="512" x="0" y="0" viewBox="0 0 512 512" style="enable-background:new 0 0 512 512" xml:space="preserve"><rect width="512" height="512" rx="102.4" ry="102.4" fill="#bac8d3" shape="rounded"></rect><g transform="matrix(0.7499999999999999,0,0,0.7499999999999999,64.00124740600589,69.12763595581055)"><linearGradient id="a" x1="256" x2="256" y1="64.519" y2="448.519" gradientUnits="userSpaceOnUse"><stop offset="0" stop-color="#ccc"></stop><stop offset="1" stop-color="#29abe2"></stop></linearGradient><path fill="url(#a)" d="m392.16 115.88 19.53-50.54c.15-.4-.14-.83-.57-.83H120.41c-.25 0-.48.15-.57.39l-19.53 50.54c-.15.4.14.83.57.83h167.81c20.67 0 38.62 11.85 47.42 29.12.21.4-.1.89-.55.89H120.41c-.25 0-.48.15-.57.39l-19.53 50.54c-.15.4.14.83.57.83h211.51c.48 0 .78.54.51.94-9.55 14.43-25.8 27.68-44.21 27.68h-119.6c-9.59 0-18.66 5-23.27 13.42a25.884 25.884 0 0 0 4.38 30.76L303.29 439.9c5.05 5.05 22.09 16.55 36.59 0 11.86-13.53 10.1-26.49 0-36.59L212.05 279.44a.606.606 0 0 1 .42-1.04h56.22c47.81 0 88.25-36.11 100.86-79.94a.6.6 0 0 1 .58-.44h21.47c.25 0 .48-.15.57-.39l19.53-50.54c.15-.4-.14-.83-.57-.83h-39.6c-.28 0-.52-.19-.59-.47-2.36-10.19-6.2-19.81-11.29-28.63-.23-.4.05-.9.52-.9h31.43c.24.01.47-.14.56-.38z" opacity="1" data-original="url(#a)"></path></g></svg>