<svg xmlns="http://www.w3.org/2000/svg" version="1.1" xmlns:xlink="http://www.w3.org/1999/xlink" width="512" height="512" x="0" y="0" viewBox="0 0 64 64" style="enable-background:new 0 0 512 512" xml:space="preserve"><rect width="64" height="64" rx="12.8" ry="12.8" fill="#bac8d3" shape="rounded"></rect><g transform="matrix(0.58,0,0,0.58,13.440000000000001,13.44107385635376)"><linearGradient id="a" x1="4" x2="60" y1="32" y2="32" gradientUnits="userSpaceOnUse"><stop offset="0" stop-color="#9cffac"></stop><stop offset="1" stop-color="#00b59c"></stop></linearGradient><path fill="url(#a)" d="M58 25.267H6a2.006 2.006 0 0 0-2 2v30.31a2.006 2.006 0 0 0 2 2h52a2.006 2.006 0 0 0 2-2v-30.31a2.006 2.006 0 0 0-2-2zm-28 30.15H14.1a.997.997 0 0 1-1-1 5.109 5.109 0 0 0-5.1-5.1.997.997 0 0 1-1-1v-11.8a1.003 1.003 0 0 1 1-1 5.102 5.102 0 0 0 5.1-5.1 1.003 1.003 0 0 1 1-1H30a1 1 0 0 1 0 2H15.03A7.107 7.107 0 0 1 9 37.447v9.94a7.117 7.117 0 0 1 6.03 6.03H30a1 1 0 1 1 0 2zm-10-14h-8a1 1 0 0 1 0-2h8a1 1 0 0 1 0 2zm1 3a.997.997 0 0 1-1 1h-8a1 1 0 0 1 0-2h8a1.003 1.003 0 0 1 1 1zm2-2a9 9 0 1 1 9 9 9.014 9.014 0 0 1-9-9zm34 5.9a.997.997 0 0 1-1 1 5.109 5.109 0 0 0-5.1 5.1.997.997 0 0 1-1 1H34a1 1 0 0 1 0-2h14.97a7.117 7.117 0 0 1 6.03-6.03v-9.94a7.107 7.107 0 0 1-6.03-6.03H34a1 1 0 0 1 0-2h15.9a1.003 1.003 0 0 1 1 1 5.102 5.102 0 0 0 5.1 5.1 1.003 1.003 0 0 1 1 1zm-13-4.9h8a1 1 0 0 1 0 2h-8a1 1 0 0 1 0-2zm-1-3a1.003 1.003 0 0 1 1-1h8a1 1 0 0 1 0 2h-8a.997.997 0 0 1-1-1zm-4 2a7 7 0 1 1-7-7 7.008 7.008 0 0 1 7 7zM4.29 14.127a1.013 1.013 0 0 1 0-1.41l8-8a1.005 1.005 0 0 1 1.71.7v3h15a1.003 1.003 0 0 1 1 1v8a.997.997 0 0 1-1 1H14v3a1.008 1.008 0 0 1-1.71.71zM34 17.417v-8a1.003 1.003 0 0 1 1-1h15v-3a1.005 1.005 0 0 1 1.71-.7l8 8a1.009 1.009 0 0 1 .29.7 1.033 1.033 0 0 1-.29.71l-8 8a1.008 1.008 0 0 1-1.71-.71v-3H35a.997.997 0 0 1-1-1z" opacity="1" data-original="url(#a)"></path></g></svg>