<svg xmlns="http://www.w3.org/2000/svg" version="1.1" xmlns:xlink="http://www.w3.org/1999/xlink" width="512" height="512" x="0" y="0" viewBox="0 0 32 32" style="enable-background:new 0 0 512 512" xml:space="preserve"><rect width="32" height="32" rx="6.4" ry="6.4" fill="#bac8d3" shape="rounded"></rect><g transform="matrix(0.7,0,0,0.7,4.800000000000001,4.650002574920656)"><linearGradient id="a" x1=".203" x2="31.394" y1="31.917" y2="-.208" gradientUnits="userSpaceOnUse"><stop offset="0" stop-color="#0e5dd8"></stop><stop offset="1" stop-color="#eb55ff"></stop></linearGradient><path fill="url(#a)" d="M21.073 26.114c.773 1.105.901 2.413.922 3.379a.497.497 0 0 1-.5.507h-10.99a.497.497 0 0 1-.501-.506c.021-.966.15-2.275.923-3.38 1.69.256 3.39.386 5.073.386s3.383-.131 5.073-.386zM22 15.25h2v-4.966c0-.814-.497-1.542-1.247-1.859a18.99 18.99 0 0 0-2.003-.706V3H21a1 1 0 1 0 0-2H11a1 1 0 1 0 0 2h.25v4.719a19.22 19.22 0 0 0-2.003.706A2.024 2.024 0 0 0 8 10.284v4.966h2a.75.75 0 0 1 0 1.5H8v5.646c0 .962.687 1.783 1.631 1.971 4.246.845 8.491.845 12.737 0A2.018 2.018 0 0 0 24 22.396V16.75h-2a.75.75 0 0 1 0-1.5zM12.75 3h6.5v4.336a16.39 16.39 0 0 0-2.5-.297V5.5h.45a.3.3 0 0 0 .3-.3v-.9a.3.3 0 0 0-.3-.3h-2.4a.3.3 0 0 0-.3.3v.9a.3.3 0 0 0 .3.3h.45v1.54c-.833.039-1.667.127-2.5.297zm5.428 17.875c-.086.066-.204.011-.231-.094-.516-2.007-1.584-2.619-1.874-2.751a.129.129 0 0 0-.137.013c-.308.213-1.636 1.206-1.897 2.637-.024.129-.174.183-.26.084-.417-.485-1.279-1.69-1.279-3.365 0-2.928 2.646-4.665 3.634-5.211.188-.104.408.002.48.205.684 1.939 2.886 2.994 2.886 5.907 0 1.413-.924 2.271-1.322 2.575z" opacity="1" data-original="url(#a)"></path></g></svg>