<svg xmlns="http://www.w3.org/2000/svg" version="1.1" xmlns:xlink="http://www.w3.org/1999/xlink" width="512" height="512" x="0" y="0" viewBox="0 0 64 64" style="enable-background:new 0 0 512 512" xml:space="preserve"><rect width="64" height="64" rx="12.8" ry="12.8" fill="#bac8d3" shape="rounded"></rect><g transform="matrix(0.58,0,0,0.58,13.47045009613037,13.440000000000001)"><linearGradient id="a" x1="4.14" x2="60" y1="32" y2="32" gradientUnits="userSpaceOnUse"><stop offset="0" stop-color="#ff81ff"></stop><stop offset="1" stop-color="#a93aff"></stop></linearGradient><path fill="url(#a)" d="M32 10.34c4.28-.1 6.84 5.74 4.78 9.62a2.2 2.2 0 0 1-2 1.2h-5.57c-2.21 0-2.65-2.62-2.71-4.38 0-3.55 2.5-6.44 5.5-6.44zm12 16.88a2.2 2.2 0 0 0-1.2 2v5.58c0 2.21 2.61 2.65 4.38 2.71 3.55 0 6.44-2.47 6.44-5.5.14-4.29-5.7-6.85-9.62-4.79zM32 53.66c3 0 5.5-2.89 5.5-6.44-.06-1.76-.5-4.35-2.71-4.38h-5.58c-2.21 0-2.65 2.61-2.71 4.38 0 3.55 2.5 6.44 5.5 6.44zM20 36.78a2.2 2.2 0 0 0 1.2-2v-5.57c0-2.21-2.61-2.65-4.38-2.71-3.55 0-6.44 2.47-6.44 5.5-.14 4.28 5.7 6.84 9.62 4.78zm12-.28a4.5 4.5 0 0 0 0-9 4.5 4.5 0 0 0 0 9zM60 54v3a3 3 0 0 1-3 3H32C-5.14 58.47-5.14 5.54 32 4a28 28 0 0 1 20.55 47H57a3 3 0 0 1 3 3zM20.84 38.58a4.23 4.23 0 0 0 2.32-3.79v-5.58a4.23 4.23 0 0 0-2.32-3.79c-5.18-2.72-12.62.83-12.5 6.58-.13 5.75 7.32 9.3 12.5 6.58zm22.32-13.16a4.23 4.23 0 0 0-2.32 3.79v5.58a4.23 4.23 0 0 0 2.32 3.79c5.18 2.72 12.62-.83 12.5-6.58.13-5.75-7.32-9.3-12.5-6.58zM24.5 16.78c0 2.89 1.35 6.42 4.71 6.38h5.58c3.35 0 4.74-3.49 4.71-6.38-.39-11.18-14.61-11.19-15 0zm0 30.44c.39 11.18 14.61 11.19 15 0 0-2.89-1.35-6.42-4.71-6.38h-5.58c-3.35-.04-4.74 3.49-4.71 6.38zM32 38.5c8.6-.31 8.6-12.69 0-13a6.5 6.5 0 0 0 0 13zM58 54a1 1 0 0 0-1-1h-6.5a28 28 0 0 1-8.12 5H57a1 1 0 0 0 1-1z" opacity="1" data-original="url(#a)"></path></g></svg>