<svg xmlns="http://www.w3.org/2000/svg" version="1.1" xmlns:xlink="http://www.w3.org/1999/xlink" width="512" height="512" x="0" y="0" viewBox="0 0 64 64" style="enable-background:new 0 0 512 512" xml:space="preserve" class=""><rect width="64" height="64" rx="12.8" ry="12.8" fill="#bac8d3" shape="rounded"></rect><g transform="matrix(0.63,0,0,0.63,11.839999382495883,11.840045695304873)"><linearGradient id="a" x1="4" x2="60" y1="32" y2="32" gradientUnits="userSpaceOnUse"><stop offset="0" stop-color="#9cffac"></stop><stop offset="1" stop-color="#00b59c"></stop></linearGradient><path fill="url(#a)" d="M46.249 29.702a13.769 13.769 0 0 0-13.751 13.752c.757 18.242 26.747 18.236 27.502 0a13.769 13.769 0 0 0-13.751-13.752zM35.329 40a11.45 11.45 0 0 1 10.92-8.452 1.03 1.03 0 0 1 1.037 1.027 1.049 1.049 0 0 1-1.037 1.047 9.35 9.35 0 0 0-8.908 6.897A1.04 1.04 0 0 1 35.329 40zm1.773 6.585a1.035 1.035 0 0 1-.892-1.866 3.976 3.976 0 0 0 1.266-.934c.977-1.067.924-2.394 1.317-3.64.643-1.99 2.354-3.66 5.102-4.967a1.04 1.04 0 0 1 .892 1.877c-2.21 1.047-3.557 2.292-4.014 3.713-.373 2.145-1.17 4.777-3.67 5.817zm9.043 9.282c-1.97.717-2.207-4.38-2.26-5.6.144-1.15-.128-4.373 1.68-4.055a1.047 1.047 0 0 1 .756 1.265 11.546 11.546 0 0 0 .426 7.052 1.03 1.03 0 0 1-.602 1.338zm4.553-2.987a1.03 1.03 0 0 1-1.4-.415c-2.261-4.169-3.008-7.466-2.292-10.1.281-.843.662-2.592-.82-2.406-1.25.745-1.788 3.973-2.063 5.257-.185 1.065-2.646 6.458-4.345 4.947a1.033 1.033 0 0 1-.031-1.462 8.77 8.77 0 0 0 2.561-4.936c.187-1.499 1.436-5.509 3.35-5.808a3.032 3.032 0 0 1 3.08 1.037c1.006 1.286.518 3.039.3 3.785-.609 2.173.079 4.98 2.085 8.701a1.032 1.032 0 0 1-.425 1.4zm3.702-8.825a8.642 8.642 0 0 0-.321 5.196 1.036 1.036 0 1 1-2.002.539 10.372 10.372 0 0 1 .27-6.077 6.577 6.577 0 0 0-2.417-5.735 4.58 4.58 0 0 0-2.312-.954 1.04 1.04 0 0 1 .27-2.064c4.184.441 7.145 5.249 6.512 9.095zm2.105-.197a1.043 1.043 0 0 1-1.058-1.016 9.66 9.66 0 0 0-2.696-6.534 9.282 9.282 0 0 0-4.21-2.406 1.034 1.034 0 0 1-.737-1.265c.583-2.027 4.902.678 6.42 2.209A11.798 11.798 0 0 1 57.52 42.8a1.04 1.04 0 0 1-1.016 1.058zM46.25 27.628a15.653 15.653 0 0 1 7.902 2.126V10.092a3.229 3.229 0 0 0-3.225-3.225H7.215A3.22 3.22 0 0 0 4 10.092v29.286a3.218 3.218 0 0 0 3.215 3.215h23.23a15.881 15.881 0 0 1 15.804-14.965zM12.42 18.762c.309-8.795 12.99-8.8 13.295 0a6.632 6.632 0 0 1-3.454 5.817 8.335 8.335 0 0 1 5.403 7.799v3.94a1.033 1.033 0 0 1-1.037 1.038h-15.12a1.04 1.04 0 0 1-1.037-1.037v-3.941a8.284 8.284 0 0 1 5.102-7.664l.312-.124a6.645 6.645 0 0 1-3.464-5.828zm34.875-1.774h-18.22a1.037 1.037 0 0 1 0-2.074h18.22a1.037 1.037 0 0 1 0 2.074zm1.037 3.36a1.04 1.04 0 0 1-1.037 1.037h-18.22a1.037 1.037 0 1 1 0-2.074h18.22a1.033 1.033 0 0 1 1.037 1.037zm-19.257 5.424a1.037 1.037 0 0 1 0-2.074h18.22a1.037 1.037 0 0 1 0 2.074zm-14.581-7.01a4.574 4.574 0 0 1 9.146 0 4.574 4.574 0 0 1-9.146 0zm1.877 7.86 2.696-1.13 2.696 1.13a6.215 6.215 0 0 1 3.827 5.756v2.904H12.545v-2.904a6.23 6.23 0 0 1 3.827-5.756z" opacity="1" data-original="url(#a)"></path></g></svg>