<svg xmlns="http://www.w3.org/2000/svg" version="1.1" xmlns:xlink="http://www.w3.org/1999/xlink" width="512" height="512" x="0" y="0" viewBox="0 0 64 64" style="enable-background:new 0 0 512 512" xml:space="preserve" class=""><rect width="64" height="64" rx="12.8" ry="12.8" fill="#bac8d3" shape="rounded"></rect><g transform="matrix(0.6,0,0,0.6,12.799928283691408,12.800003242492675)"><linearGradient id="a" x1="4" x2="60" y1="32" y2="32" gradientUnits="userSpaceOnUse"><stop offset="0" stop-color="#9cffac"></stop><stop offset="1" stop-color="#00b59c"></stop></linearGradient><path fill="url(#a)" d="M29.477 37.296h5.03v4.621h-5.03v-4.621zm30.507 11.849a3.464 3.464 0 0 1-3.455 3.456H7.456A3.464 3.464 0 0 1 4 49.145v-8.394a3.464 3.464 0 0 1 3.456-3.455h19.977v4.621a2.05 2.05 0 0 0 2.044 2.045h5.03a2.05 2.05 0 0 0 2.045-2.045c.002-1.282-.003-3.353 0-4.621h19.977a3.476 3.476 0 0 1 3.312 2.454c.277.24.097 8.835.143 9.395zm-49.063-1.564a1.023 1.023 0 0 0-2.044 0 1.023 1.023 0 0 0 2.044 0zm3.16 0a1.023 1.023 0 0 0-2.045 0 1.023 1.023 0 0 0 2.045 0zm3.159 0a1.023 1.023 0 0 0-2.045 0 1.023 1.023 0 0 0 2.045 0zm31.55 0a1.023 1.023 0 0 0-2.045 0 1.023 1.023 0 0 0 2.045 0zm3.159 0a1.023 1.023 0 0 0-2.045 0 1.023 1.023 0 0 0 2.045 0zm3.159 0a1.023 1.023 0 0 0-2.045 0 1.023 1.023 0 0 0 2.045 0zm-29.802-1.023a1.023 1.023 0 0 0 0 2.045h13.372a1.023 1.023 0 0 0 0-2.045zM7.987 35.251c15.083.03 34.025-.057 49.094.03l-4.662-4.947a4.885 4.885 0 0 0-3.844-1.85H15.41a4.858 4.858 0 0 0-3.824 1.83l-4.682 4.968a9.974 9.974 0 0 1 1.083-.03zm10.122-8.813c1.108.003 4.249-.001 5.357 0l-6.4-18.382a2.188 2.188 0 1 0-4.15 1.36zm27.767 0 5.193-17.022a2.222 2.222 0 0 0-1.973-3.006 2.37 2.37 0 0 0-2.177 1.646l-6.4 18.382s4.851-.005 5.357 0zM25.103 12.744a9.799 9.799 0 0 1 13.778 0 1.022 1.022 0 0 0 1.446-1.446 11.852 11.852 0 0 0-16.67 0 1.022 1.022 0 0 0 1.446 1.446zm11.295 3.504a1.021 1.021 0 0 0 .727-.302c1.508-1.923-3.707-3.768-5.133-3.565a7.25 7.25 0 0 0-5.125 2.118 1.023 1.023 0 0 0 1.44 1.454 5.236 5.236 0 0 1 7.371 0 1.024 1.024 0 0 0 .72.295zm-6.329 1.46a1.022 1.022 0 0 0 1.444 1.448.675.675 0 0 1 .959 0 1.022 1.022 0 0 0 1.443-1.448 2.783 2.783 0 0 0-3.846 0zM8.601 54.645v1.595a1.355 1.355 0 0 0 1.35 1.35h4.927a1.328 1.328 0 0 0 1.084-.552l1.738-2.393zm37.684 0 1.738 2.393a1.328 1.328 0 0 0 1.084.552h4.927a1.355 1.355 0 0 0 1.35-1.35v-1.595z" opacity="1" data-original="url(#a)"></path></g></svg>