<svg xmlns="http://www.w3.org/2000/svg" version="1.1" xmlns:xlink="http://www.w3.org/1999/xlink" width="512" height="512" x="0" y="0" viewBox="0 0 24 24" style="enable-background:new 0 0 512 512" xml:space="preserve" class=""><rect width="24" height="24" rx="4.8" ry="4.8" fill="#bac8d3" shape="rounded"></rect><g transform="matrix(0.6699999999999999,0,0,0.6699999999999999,3.9600000000000026,3.960962705612184)"><linearGradient id="a" x1="4.23" x2="19.77" y1="19.42" y2="3.88" gradientUnits="userSpaceOnUse"><stop offset="0" stop-color="#6d03a8"></stop><stop offset="1" stop-color="#fd60c4"></stop></linearGradient><path fill="url(#a)" d="M19.75 5.25H4.25V5A2.75 2.75 0 0 1 7 2.25h10A2.75 2.75 0 0 1 19.75 5zM5.35 20.18a2.26 2.26 0 0 0 4.28.07H6a2.81 2.81 0 0 1-.65-.07zm-1.1-6.43h15.5V17A1.76 1.76 0 0 1 18 18.75H6A1.76 1.76 0 0 1 4.25 17zm10 1.75a.76.76 0 0 0 .75.75h1a.75.75 0 0 0 0-1.5h-1a.76.76 0 0 0-.75.75zm-7 0a.76.76 0 0 0 .75.75h1a.75.75 0 0 0 0-1.5H8a.76.76 0 0 0-.75.75zm12.5-8.13v-.62H4.25v.62a2.75 2.75 0 0 0-2 2.63v1a.75.75 0 0 0 1.5 0v-1a1.22 1.22 0 0 1 .5-1v3.22h15.5V9a1.22 1.22 0 0 1 .5 1v1a.75.75 0 0 0 1.5 0v-1a2.75 2.75 0 0 0-2-2.63zm-5.37 12.88a2.25 2.25 0 0 0 4.27-.07 2.81 2.81 0 0 1-.65.07z" opacity="1" data-original="url(#a)"></path></g></svg>