<svg xmlns="http://www.w3.org/2000/svg" version="1.1" xmlns:xlink="http://www.w3.org/1999/xlink" width="512" height="512" x="0" y="0" viewBox="0 0 491.5 491.5" style="enable-background:new 0 0 512 512" xml:space="preserve"><rect width="491.5" height="491.5" rx="98.3" ry="98.3" fill="#bac8d3" shape="rounded"></rect><g transform="matrix(0.7,0,0,0.7,73.7255630493164,63.740172576904314)"><linearGradient id="a" x1="245.752" x2="245.752" y1="85.501" y2="406.1" gradientUnits="userSpaceOnUse"><stop offset="0" stop-color="#f704fe"></stop><stop offset="1" stop-color="#24bce3"></stop></linearGradient><path fill="url(#a)" d="m455.3 276.7-47.2-176.4c-2.8-10.6-13.8-17-24.5-14.1L89.1 165.1c-5 1.3-9.1 4.5-11.8 8.7h283.1c16.3 0 29.6 13.3 29.6 29.6v111.4l51.2-13.7c5.1-1.4 9.4-4.7 12.1-9.3s3.4-10 2-15.1zm-374-23h46.6c2.8 0 5.1-2.3 5.1-5.1v-26.2c0-2.8-2.3-5.1-5.1-5.1H81.3c-2.8 0-5.1 2.3-5.1 5.1v26.2c0 2.8 2.3 5.1 5.1 5.1zm279.1-70.2H55.5c-11 0-20 9-20 20v182.6c0 11 8.9 20 20 20h305c11 0 20-9 20-20V203.5c-.1-11.1-9.1-20-20.1-20zm-51 43.6c0-2.7 2.1-4.8 4.8-4.8s4.8 2.1 4.8 4.8v17c0 2.7-2.2 4.8-4.8 4.8-2.7 0-4.8-2.1-4.8-4.8zm-30.2 0c0-2.7 2.1-4.8 4.8-4.8s4.8 2.1 4.8 4.8v17c0 2.7-2.1 4.8-4.8 4.8s-4.8-2.1-4.8-4.8zm1.5 72.8c0 2.7-2.2 4.8-4.8 4.8h-19.2c-2.7 0-4.8-2.1-4.8-4.8s2.2-4.8 4.8-4.8H276c2.5 0 4.7 2.2 4.7 4.8zm-62-72.8c0-2.7 2.2-4.8 4.8-4.8 2.7 0 4.8 2.1 4.8 4.8v17c0 2.7-2.2 4.8-4.8 4.8-2.7 0-4.8-2.1-4.8-4.8zm-52.8 68h19.3c2.7 0 4.8 2.1 4.8 4.8s-2.1 4.8-4.8 4.8h-19.3c-2.6 0-4.8-2.1-4.8-4.8 0-2.6 2.1-4.8 4.8-4.8zm0 30.3h19.3c2.7 0 4.8 2.1 4.8 4.8s-2.1 4.8-4.8 4.8h-19.3c-2.6 0-4.8-2.1-4.8-4.8s2.1-4.8 4.8-4.8zm-21.4-25.5c0 2.7-2.2 4.8-4.8 4.8h-19.3c-2.6 0-4.8-2.1-4.8-4.8s2.2-4.8 4.8-4.8h19.3c2.7 0 4.8 2.2 4.8 4.8zm-77.9-77.5c0-8.1 6.6-14.7 14.7-14.7h46.6c8.1 0 14.7 6.6 14.7 14.7v26.2c0 8.1-6.6 14.7-14.7 14.7H81.3c-8.1 0-14.7-6.6-14.7-14.7zM75.1 335c-2.7 0-4.8-2.1-4.8-4.8s2.1-4.8 4.8-4.8h19.3c2.7 0 4.8 2.1 4.8 4.8s-2.1 4.8-4.8 4.8zm19.3-30.3H75.1c-2.7 0-4.8-2.1-4.8-4.8s2.1-4.8 4.8-4.8h19.3c2.7 0 4.8 2.1 4.8 4.8s-2.2 4.8-4.8 4.8zm23.8 77H71.4c-2.7 0-4.8-2.1-4.8-4.8s2.1-4.8 4.8-4.8h46.8c2.7 0 4.8 2.2 4.8 4.8 0 2.7-2.2 4.8-4.8 4.8zm2.3-46.7c-2.6 0-4.8-2.1-4.8-4.8s2.2-4.8 4.8-4.8h19.3c2.6 0 4.8 2.1 4.8 4.8s-2.2 4.8-4.8 4.8zm73.6 46.7h-46.8c-2.6 0-4.8-2.1-4.8-4.8s2.2-4.8 4.8-4.8h46.8c2.6 0 4.8 2.2 4.8 4.8 0 2.7-2.2 4.8-4.8 4.8zm36.4-46.7h-19.2c-2.7 0-4.8-2.1-4.8-4.8s2.2-4.8 4.8-4.8h19.3c2.7 0 4.8 2.1 4.8 4.8-.1 2.6-2.3 4.8-4.9 4.8zm0-30.3h-19.2c-2.7 0-4.8-2.1-4.8-4.8s2.2-4.8 4.8-4.8h19.3c2.7 0 4.8 2.1 4.8 4.8-.1 2.7-2.3 4.8-4.9 4.8zm18.4-60.7v-17c0-2.7 2.1-4.8 4.8-4.8s4.8 2.1 4.8 4.8v17c0 2.7-2.2 4.8-4.8 4.8s-4.8-2.1-4.8-4.8zm2.9 86.2c0-2.7 2.2-4.8 4.8-4.8h19.3c2.7 0 4.8 2.1 4.8 4.8s-2.2 4.8-4.8 4.8h-19.2c-2.7 0-4.9-2.2-4.9-4.8zm92.7 51.5h-69.9c-2.7 0-4.8-2.1-4.8-4.8s2.2-4.8 4.8-4.8h69.9c2.7 0 4.8 2.2 4.8 4.8 0 2.7-2.2 4.8-4.8 4.8zm0-132.9c-2.7 0-4.8-2.1-4.8-4.8v-17c0-2.7 2.1-4.8 4.8-4.8s4.8 2.1 4.8 4.8v17c0 2.7-2.2 4.8-4.8 4.8z" opacity="1" data-original="url(#a)"></path></g></svg>