<svg xmlns="http://www.w3.org/2000/svg" version="1.1" xmlns:xlink="http://www.w3.org/1999/xlink" width="512" height="512" x="0" y="0" viewBox="0 0 43.349 43.349" style="enable-background:new 0 0 512 512" xml:space="preserve" fill-rule="evenodd"><rect width="43.349" height="43.349" rx="8.669799999999999" ry="8.669799999999999" fill="#bac8d3" shape="rounded"></rect><g transform="matrix(0.5499999999999999,0,0,0.5499999999999999,9.753525638580324,9.75330011844635)"><linearGradient id="a" x1="5.719" x2="37.63" y1="7.024" y2="36.175" gradientUnits="userSpaceOnUse"><stop offset="0" stop-color="#da1b61"></stop><stop offset="1" stop-color="#ff8604"></stop></linearGradient><path fill="url(#a)" d="M8.642 42.375H5.643c-.364 0-.612-.39-.458-.74L6.29 39.3h4.133L9.1 42.093c-.07.176-.247.282-.459.282zm32.732-4.092h-9.065V11.23h9.1c1.094 0 1.94.882 1.94 1.94v23.173c0 1.058-.881 1.94-1.975 1.94zm-3.545-17.495c-1.904 0-3.456-1.552-3.456-3.456s1.552-3.457 3.456-3.457c1.905 0 3.457 1.552 3.457 3.457s-1.552 3.456-3.457 3.456zm0-5.89c-1.34 0-2.433 1.093-2.433 2.434s1.093 2.434 2.433 2.434c1.34 0 2.434-1.094 2.434-2.434s-1.093-2.434-2.434-2.434zm2.328 11.992h-4.656a1.806 1.806 0 0 1-1.799-1.798c0-.988.812-1.8 1.8-1.8h4.655c.988 0 1.8.812 1.8 1.8 0 .987-.812 1.799-1.8 1.799zm-4.656-2.61c-1.02 0-1.02 1.552 0 1.552h4.656c1.02 0 1.02-1.552 0-1.552zm4.656 6.949h-4.656a1.806 1.806 0 0 1-1.799-1.799c0-.988.812-1.799 1.8-1.799h4.655c.988 0 1.8.811 1.8 1.8a1.784 1.784 0 0 1-1.8 1.798zm-4.656-2.575c-1.02 0-1.02 1.552 0 1.552h4.656c1.02 0 1.02-1.552 0-1.552zm4.656 6.949h-4.656a1.806 1.806 0 0 1-1.799-1.8c0-.987.812-1.798 1.8-1.798h4.655c.988 0 1.8.811 1.8 1.799 0 .987-.812 1.799-1.8 1.799zm-4.656-2.575c-1.02 0-1.02 1.552 0 1.552h4.656c1.02 0 1.02-1.552 0-1.552zm-7.319 2.046H4.162a.482.482 0 0 1-.494-.494V14.933c0-.282.212-.494.494-.494h24.055c.283 0 .494.212.494.494V34.58c-.035.282-.247.494-.529.494zm-23.526-.988h23.032V15.427H4.656zm2.398-8.924c-.448 0-.689-.54-.352-.846l6.807-6.808c.496-.495 1.177.276.706.706l-6.808 6.772c-.106.106-.247.176-.353.176zm1.27 4.832c-.448 0-.69-.539-.353-.846l10.406-10.405c.495-.495 1.176.275.705.705L8.677 29.853a.453.453 0 0 1-.353.141zm4.868 1.305c-.449 0-.69-.539-.353-.846l6.808-6.808c.51-.51 1.147.303.705.706l-6.808 6.772c-.105.106-.247.176-.352.176zm18.13 6.984H1.94A1.957 1.957 0 0 1 0 36.343V13.17c0-1.094.882-1.94 1.94-1.94h16.895L11.216 3.61a1.534 1.534 0 0 1 0-2.187c.6-.6 1.588-.6 2.187 0l8.713 8.712 6.207-6.208c.975-.974 2.646-.262 2.646 1.094 0 .423-.177.811-.459 1.093l-5.044 5.115h5.855zm6.384 4.092h-2.998c-.212 0-.388-.106-.459-.282L32.925 39.3h4.133l1.106 2.333a.517.517 0 0 1-.458.74z" opacity="1" data-original="url(#a)"></path></g></svg>