<svg xmlns="http://www.w3.org/2000/svg" version="1.1" xmlns:xlink="http://www.w3.org/1999/xlink" width="512" height="512" x="0" y="0" viewBox="0 0 64 64" style="enable-background:new 0 0 512 512" xml:space="preserve"><rect width="64" height="64" rx="12.8" ry="12.8" fill="#bac8d3" shape="rounded"></rect><g transform="matrix(0.66,0,0,0.66,10.879999918937685,10.880000324249266)"><linearGradient id="a" x1="4" x2="60" y1="32" y2="32" gradientUnits="userSpaceOnUse"><stop offset="0" stop-color="#ffa68d"></stop><stop offset="1" stop-color="#fd3a84"></stop></linearGradient><path fill="url(#a)" d="M7 20.38v-.46a3.999 3.999 0 0 1 4-4h42a4.052 4.052 0 0 1 4 4.46c-.529-.12-49.478-.12-50 0zm47-6.37a3.626 3.626 0 0 0-3.62-3.66H13.62A3.625 3.625 0 0 0 10 13.97v.04c.32-.06 43.467-.12 44 0zm6 12.28v23.36a3.999 3.999 0 0 1-4 4H8a3.999 3.999 0 0 1-4-4V26.29a3.999 3.999 0 0 1 4-4h48a3.999 3.999 0 0 1 4 4zm-4 17.17V32.48a1.003 1.003 0 0 0-1-1 3.002 3.002 0 0 1-3-3 1.003 1.003 0 0 0-1-1H13a1.003 1.003 0 0 0-1 1 3.002 3.002 0 0 1-3 3 1.003 1.003 0 0 0-1 1v10.98a1.003 1.003 0 0 0 1 1 3.009 3.009 0 0 1 3 3 1.003 1.003 0 0 0 1 1h18.51c.325.015.655.015.98 0H51a1.003 1.003 0 0 0 1-1 3.009 3.009 0 0 1 3-3 1.003 1.003 0 0 0 1-1zm-34.45-4.49h-2.12v7.49h6.38a10.514 10.514 0 0 1-4.26-7.49zm20.9-2h2.12v-7.49h-6.38a10.514 10.514 0 0 1 4.26 7.49zm7.65-7.49h-3.53v7.49a2 2 0 0 1-2 2h-2.12a10.514 10.514 0 0 1-4.26 7.49H50.1a5.01 5.01 0 0 1 3.9-3.9v-9.18a5.01 5.01 0 0 1-3.9-3.9zm-17.66 0a8.503 8.503 0 1 0 .05 16.98c10.638-.906 10.593-16.143-.05-16.98zm-10.89 7.49a10.514 10.514 0 0 1 4.26-7.49H13.9a5.01 5.01 0 0 1-3.9 3.9v9.18a5.01 5.01 0 0 1 3.9 3.9h3.53v-7.49a2 2 0 0 1 2-2z" opacity="1" data-original="url(#a)"></path></g></svg>