<svg xmlns="http://www.w3.org/2000/svg" version="1.1" xmlns:xlink="http://www.w3.org/1999/xlink" width="512" height="512" x="0" y="0" viewBox="0 0 64 64" style="enable-background:new 0 0 512 512" xml:space="preserve" class=""><rect width="64" height="64" rx="12.8" ry="12.8" fill="#bac8d3" shape="rounded"></rect><g transform="matrix(0.6599999999999998,0,0,0.6599999999999998,10.880000000000006,10.880000648498541)"><linearGradient id="a" x1="4" x2="60" y1="32" y2="32" gradientUnits="userSpaceOnUse"><stop offset="0" stop-color="#ffa68d"></stop><stop offset="1" stop-color="#fd3a84"></stop></linearGradient><path fill="url(#a)" d="M51.09 40.47h-7.68a1.91 1.91 0 0 0 0 3.82h7.68a1.91 1.91 0 0 0 0-3.82zm0 0h-7.68a1.91 1.91 0 0 0 0 3.82h7.68a1.91 1.91 0 0 0 0-3.82zm0 0h-7.68a1.91 1.91 0 0 0 0 3.82h7.68a1.91 1.91 0 0 0 0-3.82zm0 0h-7.68a1.91 1.91 0 0 0 0 3.82h7.68a1.91 1.91 0 0 0 0-3.82zm0 0h-7.68a1.91 1.91 0 0 0 0 3.82h7.68a1.91 1.91 0 0 0 0-3.82zm0 0h-7.68a1.91 1.91 0 0 0 0 3.82h7.68a1.91 1.91 0 0 0 0-3.82zm0 0h-7.68a1.91 1.91 0 0 0 0 3.82h7.68a1.91 1.91 0 0 0 0-3.82zm0 0h-7.68a1.91 1.91 0 0 0 0 3.82h7.68a1.91 1.91 0 0 0 0-3.82zm0 0h-7.68a1.91 1.91 0 0 0 0 3.82h7.68a1.91 1.91 0 0 0 0-3.82zm0 0h-7.68a1.91 1.91 0 0 0 0 3.82h7.68a1.91 1.91 0 0 0 0-3.82zm0 0h-7.68a1.91 1.91 0 0 0 0 3.82h7.68a1.91 1.91 0 0 0 0-3.82zM4 22.71v24.68a3.903 3.903 0 0 0 3.89 3.9h48.22a3.903 3.903 0 0 0 3.89-3.9V22.71zM44.74 31h2.31a1 1 0 0 1 0 2h-2.31a1 1 0 0 1 0-2zm-27.79 0h2.31a1 1 0 0 1 0 2h-2.31a1 1 0 0 1 0-2zM10 31h2.32a1 1 0 0 1 0 2H10a1 1 0 0 1 0-2zm14.4 15.27H12.97a1 1 0 0 1 0-2H24.4a1 1 0 0 1 0 2zm0-5.78H10a1 1 0 0 1 0-2h14.4a1 1 0 1 1 0 2zM26.21 33h-2.32a1 1 0 0 1 0-2h2.32a1 1 0 0 1 0 2zm6.95 0h-2.32a1 1 0 0 1 0-2h2.32a1 1 0 0 1 0 2zm4.63-2h2.32a1 1 0 1 1 0 2h-2.32a1 1 0 0 1 0-2zm13.3 15.29h-7.68a3.91 3.91 0 0 1 0-7.82h7.68a3.91 3.91 0 0 1 0 7.82zM54 33h-2.32a1 1 0 0 1 0-2H54a1 1 0 0 1 0 2zm-2.91 7.47h-7.68a1.91 1.91 0 0 0 0 3.82h7.68a1.91 1.91 0 0 0 0-3.82zm0 0h-7.68a1.91 1.91 0 0 0 0 3.82h7.68a1.91 1.91 0 0 0 0-3.82zm0 0h-7.68a1.91 1.91 0 0 0 0 3.82h7.68a1.91 1.91 0 0 0 0-3.82zm0 0h-7.68a1.91 1.91 0 0 0 0 3.82h7.68a1.91 1.91 0 0 0 0-3.82zm0 0h-7.68a1.91 1.91 0 0 0 0 3.82h7.68a1.91 1.91 0 0 0 0-3.82zm0 0h-7.68a1.91 1.91 0 0 0 0 3.82h7.68a1.91 1.91 0 0 0 0-3.82zm0 0h-7.68a1.91 1.91 0 0 0 0 3.82h7.68a1.91 1.91 0 0 0 0-3.82zm0 0h-7.68a1.91 1.91 0 0 0 0 3.82h7.68a1.91 1.91 0 0 0 0-3.82zm0 0h-7.68a1.91 1.91 0 0 0 0 3.82h7.68a1.91 1.91 0 0 0 0-3.82zm0 0h-7.68a1.91 1.91 0 0 0 0 3.82h7.68a1.91 1.91 0 0 0 0-3.82zm5.02-27.76H7.89A3.903 3.903 0 0 0 4 16.61v4.1h56v-4.1a3.903 3.903 0 0 0-3.89-3.9z" opacity="1" data-original="url(#a)"></path></g></svg>