<svg xmlns="http://www.w3.org/2000/svg" version="1.1" xmlns:xlink="http://www.w3.org/1999/xlink" width="512" height="512" x="0" y="0" viewBox="0 0 64 64" style="enable-background:new 0 0 512 512" xml:space="preserve" class=""><rect width="64" height="64" rx="12.8" ry="12.8" fill="#bac8d3" shape="rounded"></rect><g transform="matrix(0.6499999999999998,0,0,0.6499999999999998,11.200000000000006,11.200000000000006)"><linearGradient id="a" x1="6.522" x2="57.478" y1="32" y2="32" gradientUnits="userSpaceOnUse"><stop offset="0" stop-color="#00c0ff"></stop><stop offset="1" stop-color="#5558ff"></stop></linearGradient><path fill="url(#a)" d="m39.862 23.03 1.84-1.84a3.011 3.011 0 1 0-1.42-1.41l-1.83 1.84-12.95-12.95a1.027 1.027 0 0 0-1.42 0 20.332 20.332 0 0 0-2.34 25.91c6.841 10.25 22.354 11.796 31.07 2.81a1.004 1.004 0 0 0 0-1.41zm-14.02 8.31a1 1 0 0 1-1.67 1.1 17.049 17.049 0 0 1 .01-18.84 1.003 1.003 0 0 1 1.67 1.11 15.053 15.053 0 0 0-.01 16.63zm1.24 4.07a1 1 0 0 1 0-2 1 1 0 0 1 0 2zm23.721-24.735a9.018 9.018 0 0 1 2.653 6.39 1 1 0 0 1-2 .006 7.09 7.09 0 0 0-7.05-7.048 1 1 0 0 1 .009-2 9.023 9.023 0 0 1 6.388 2.652zm6.675 6.393a1 1 0 1 1-2 0A11.136 11.136 0 0 0 44.411 6a1 1 0 0 1 0-2 13.084 13.084 0 0 1 13.067 13.068zm-13.074-3.023a1 1 0 0 1 .014-2 5.052 5.052 0 0 1 5.015 5.015 1 1 0 0 1-2 .016 3.042 3.042 0 0 0-3.029-3.03zM39.862 49.93h-28.34a5.008 5.008 0 0 0-5 5V59a1.003 1.003 0 0 0 1 1h36.34a1.003 1.003 0 0 0 1-1v-4.07a5.002 5.002 0 0 0-5-5zm-4.07 6.03h-24.23a1 1 0 0 1 0-2h24.23a1 1 0 0 1 0 2zm4.05 0a1 1 0 0 1-.01-2 1 1 0 0 1 .01 2zM28.712 43.1v4.83h-6.97V37.82a22.344 22.344 0 0 0 6.97 5.28z" opacity="1" data-original="url(#a)"></path></g></svg>