<svg xmlns="http://www.w3.org/2000/svg" version="1.1" xmlns:xlink="http://www.w3.org/1999/xlink" width="512" height="512" x="0" y="0" viewBox="0 0 512 512" style="enable-background:new 0 0 512 512" xml:space="preserve"><rect width="512" height="512" rx="102.4" ry="102.4" fill="#bac8d3" shape="rounded"></rect><g transform="matrix(0.57,0,0,0.57,110.08000000000001,105.08000082015991)"><linearGradient id="a" x1="64.201" x2="462.484" y1="508.638" y2="110.355" gradientUnits="userSpaceOnUse"><stop offset="0" stop-color="#294074"></stop><stop offset="1" stop-color="#f494be"></stop></linearGradient><path fill="url(#a)" fill-rule="evenodd" d="M456 245.711c5.523 0 10 4.477 10 10s-4.477 10-10 10H105.988C84.017 265.711 66 283.726 66 305.699s18.015 39.988 39.988 39.988H456c5.523 0 10 4.477 10 10s-4.477 10-10 10H105.988C72.976 365.688 46 338.713 46 305.699s26.974-59.988 59.988-59.988zM255.512 91.691a4.986 4.986 0 0 1 .976-9.922L404.12 96.745c2.547.251 4.514 2.397 4.512 4.961v69c4.135 1.907 7.023 6.096 7.023 10.927v44.57c0 2.754-2.246 5-5 5h-14.047a5.01 5.01 0 0 1-5-5v-44.57c0-4.832 2.888-9.021 7.023-10.927v-64.497zm-3.063-74.677L76.332 83.926c-2.579.98-2.579 4.629 0 5.609l176.117 66.911c2.38.904 4.723.904 7.103 0l112.791-42.852-117.84-11.954c-8.191-.831-14.222-8.181-13.415-16.377.808-8.217 8.192-14.276 16.41-13.442L405.13 86.797a15.032 15.032 0 0 1 12.521 9.583l18.018-6.845c2.579-.98 2.579-4.629 0-5.609L259.552 17.014c-2.381-.904-4.723-.904-7.103 0zm117.033 176.037v-67.673l-106.379 40.416c-4.667 1.773-9.539 1.773-14.206 0l-106.379-40.416v67.673c0 3.255 1.402 6.057 4.008 8.007 22.29 16.676 62.975 27.838 109.473 27.838s87.183-11.162 109.473-27.838c2.608-1.951 4.01-4.752 4.01-8.007zm-43.506 107.648H446V275.71H105.988C89.536 275.711 76 289.247 76 305.699c0 16.453 13.535 29.989 29.988 29.989H446V310.7H325.976a5 5 0 0 1 0-10.001zm-58.957 23.33h-74.788a5 5 0 0 1 0-10h74.788a5 5 0 0 1 0 10zm0-26.659H116.816a5 5 0 0 1 0-10h150.203a5 5 0 0 1 0 10zm56.121 119.976H476v-11.659H75.988C59.535 405.688 46 419.223 46 435.676c0 16.454 13.535 29.989 29.988 29.989H476v-11.66h-77.444a5 5 0 0 1 0-10H476v-16.658H323.14a5 5 0 0 1 0-10.001zm-138.975 23.33H64.142a5 5 0 0 1 0-10h120.023a5 5 0 0 1 0 10zM486 375.688c5.523 0 10 4.477 10 10s-4.477 10-10 10H75.988C54.015 395.688 36 413.703 36 435.676s18.015 39.988 39.988 39.988H486c5.523 0 10 4.477 10 10s-4.477 10-10 10H75.988C42.974 495.664 16 468.69 16 435.676s26.974-59.988 59.988-59.988z" clip-rule="evenodd" opacity="1" data-original="url(#a)"></path></g></svg>