<svg xmlns="http://www.w3.org/2000/svg" version="1.1" xmlns:xlink="http://www.w3.org/1999/xlink" width="512" height="512" x="0" y="0" viewBox="0 0 512 512" style="enable-background:new 0 0 512 512" xml:space="preserve" class=""><rect width="512" height="512" rx="102.4" ry="102.4" fill="#bac8d3" shape="rounded"></rect><g transform="matrix(0.6,0,0,0.6,92.3998031616211,102.40000381469727)"><linearGradient id="a" x1="256" x2="256" y1="505.717" y2="6.283" gradientUnits="userSpaceOnUse"><stop offset="0" stop-color="#236bff"></stop><stop offset="1" stop-color="#00cef2"></stop></linearGradient><path fill="url(#a)" d="m139.081 384.205-48.358 48.358c3.667 8.225 2.15 18.201-4.597 24.949-8.744 8.744-22.92 8.744-31.664 0s-8.744-22.921 0-31.664c6.748-6.748 16.724-8.265 24.949-4.597l48.357-48.358 11.312 11.312zM82.67 264.019v-16H49.29c-3.214-8.341-11.3-14.261-20.774-14.261-12.294 0-22.261 9.967-22.261 22.261s9.967 22.261 22.261 22.261c9.473 0 17.559-5.92 20.774-14.261zM407.013 160l93.941-103.708h-49.063l26.139-45.274H434.4l-45.847 79.126h43.281l-24.82 69.855zM79.343 90.72l48.562 48.562 11.312-11.312-48.562-48.562c3.635-8.186 2.119-18.105-4.593-24.816-8.708-8.708-22.827-8.708-31.536 0-8.708 8.708-8.708 22.827 0 31.536 6.712 6.712 16.631 8.228 24.817 4.593zm168.612-41.323v33.529h16V49.397c8.362-3.216 14.299-11.32 14.299-20.815 0-12.316-9.984-22.299-22.299-22.299s-22.299 9.984-22.299 22.299c0 9.495 5.937 17.598 14.299 20.815zm16 413.287v-33.38h-16v33.38c-8.34 3.214-14.26 11.3-14.26 20.773 0 12.294 9.966 22.26 22.26 22.26s22.26-9.966 22.26-22.26c0-9.473-5.92-17.558-14.26-20.773zm219.437-229.015c-9.524 0-17.652 5.96-20.871 14.351h-33.282v16h33.282c3.219 8.392 11.347 14.352 20.871 14.352 12.344 0 22.352-10.007 22.352-22.352s-10.007-22.351-22.352-22.351zm-50.947 187.529-48.305-48.305-11.312 11.312 48.304 48.304c-3.693 8.256-2.176 18.276 4.6 25.052 8.772 8.771 22.993 8.771 31.765 0 8.771-8.771 8.771-22.993 0-31.764-6.776-6.776-16.796-8.294-25.052-4.601zM413.643 256.02c0 86.852-70.837 157.688-157.689 157.688S98.265 342.871 98.265 256.02s70.838-157.689 157.69-157.689 157.689 70.837 157.689 157.689zm-113.849-92.906a7.507 7.507 0 0 0 10.259-2.734l8.205-14.211a7.507 7.507 0 1 0-12.993-7.525l-8.206 14.211a7.508 7.508 0 0 0 2.734 10.259zm-51.365-18.839a7.525 7.525 0 1 0 15.05 0v-16.41a7.525 7.525 0 1 0-15.05 0zm-54.779 1.893 8.206 14.211a7.507 7.507 0 1 0 12.993-7.525l-8.206-14.211a7.507 7.507 0 1 0-12.993 7.525zm-12.308 44.375a7.491 7.491 0 0 0-2.763-10.229l-14.212-8.205a7.493 7.493 0 1 0-7.467 12.993l14.212 8.205a7.491 7.491 0 0 0 10.229-2.763zm90.127 195.037h-31.03v3.562c0 4.747 3.873 8.62 8.62 8.62h13.79c4.748 0 8.62-3.872 8.62-8.62zm14.223-21.822h-59.475v4.514c0 4.748 3.872 8.62 8.62 8.62h42.235c4.747 0 8.62-3.873 8.62-8.62zm9.077-23.001h-77.63v5.692c0 4.748 3.873 8.62 8.62 8.62h60.39c4.747 0 8.62-3.873 8.62-8.62zm-33.974-8.689V291.09a54.18 54.18 0 0 1-9.683 0v40.978h9.683zm72.789-98.693c0-46.362-38.815-69.543-77.63-69.543s-77.63 23.181-77.63 69.543c0 48.357 38.815 62.247 38.815 98.693h18.983c.01-14.862.052-29.77-.034-44.582a50.992 50.992 0 0 1-2.339-1.018c-9.416-4.391-17.455-11.74-22.263-22.049-5.513-11.82-5.345-21.529-2.25-27.576 5.568-10.876 17.802-10.049 25.921-2.488 6.92 6.444 13.591 19.792 15.465 41.538 3.529.484 7.135.484 10.663 0 1.873-21.746 8.545-35.094 15.465-41.538 8.119-7.561 20.354-8.388 25.921 2.488 3.095 6.047 3.263 15.756-2.25 27.576-4.808 10.309-12.847 17.657-22.263 22.049-.771.359-1.551.699-2.339 1.018-.086 14.812-.045 29.72-.035 44.582h18.984c0-36.446 38.815-50.336 38.815-98.693zm-56.49 36.363c25.756-18.552 6.755-44.619 0 0zm-42.253 0c-6.755-44.619-25.756-18.552 0 0zm122.93-94.867a7.493 7.493 0 0 0-10.23-2.763l-14.211 8.205a7.492 7.492 0 0 0-2.763 10.229 7.492 7.492 0 0 0 10.229 2.763l14.212-8.205a7.494 7.494 0 0 0 2.763-10.23z" opacity="1" data-original="url(#a)"></path></g></svg>