<svg xmlns="http://www.w3.org/2000/svg" version="1.1" xmlns:xlink="http://www.w3.org/1999/xlink" width="512" height="512" x="0" y="0" viewBox="0 0 64 64" style="enable-background:new 0 0 512 512" xml:space="preserve"><rect width="64" height="64" rx="12.8" ry="12.8" fill="#bac8d3" shape="rounded"></rect><g transform="matrix(0.6399999999999999,0,0,0.6399999999999999,11.520000000000003,11.520000000000003)"><linearGradient id="a" x1="4" x2="60" y1="32" y2="32" gradientUnits="userSpaceOnUse"><stop offset="0" stop-color="#00c0ff"></stop><stop offset="1" stop-color="#5558ff"></stop></linearGradient><path fill="url(#a)" d="M9 15h4v7H9zm9 7v32h41a1 1 0 0 1 0 2H5a1.003 1.003 0 0 1-1-1V11a3.009 3.009 0 0 1 3-3h8a3.009 3.009 0 0 1 3 3v2h40a2.006 2.006 0 0 1 2 2v5a2.006 2.006 0 0 1-2 2zm36.055-7-2.814 5H58v-5zm-9 0-2.814 5h6.704l2.814-5zm-9 0-2.814 5h6.704l2.814-5zm-9 0-2.814 5h6.704l2.814-5zM18 20h3.945l2.814-5H18zm-3 7a1.003 1.003 0 0 0-1-1H8a1 1 0 0 0 0 2h6a1.003 1.003 0 0 0 1-1zm0-13a1.003 1.003 0 0 0-1-1H8a1.003 1.003 0 0 0-1 1v9a1.003 1.003 0 0 0 1 1h6a1.003 1.003 0 0 0 1-1z" opacity="1" data-original="url(#a)"></path></g></svg>