<svg xmlns="http://www.w3.org/2000/svg" version="1.1" xmlns:xlink="http://www.w3.org/1999/xlink" width="512" height="512" x="0" y="0" viewBox="0 0 512 512" style="enable-background:new 0 0 512 512" xml:space="preserve" class=""><rect width="512" height="512" rx="102.4" ry="102.4" fill="#bac8d3" shape="rounded"></rect><g transform="matrix(0.52,0,0,0.52,122.87980133056641,122.8800732421875)"><linearGradient id="a" x1="256" x2="256" y1="0" y2="512" gradientTransform="matrix(1 0 0 -1 0 512)" gradientUnits="userSpaceOnUse"><stop offset=".049" stop-color="#00a683"></stop><stop offset="1" stop-color="#fff05d"></stop></linearGradient><path fill="url(#a)" d="M412.993 26.735a3.257 3.257 0 0 1 0-4.606C426.842 8.277 456.042 0 476.271 0a3.257 3.257 0 1 1 0 6.514c-18.903 0-46.017 7.564-58.672 20.22a3.256 3.256 0 0 1-4.606.001zm83.031-.731c13.049 13.049 2.315 56.256-10.266 68.893L275.616 305.012c-34.133 34.133-71.811 65.244-111.963 92.421l-61.388 41.482a13.68 13.68 0 0 1-7.686 2.371l29.626-29.652c3.804-3.804 3.804-10.006 0-13.81-3.903-3.903-10.119-3.744-13.81 0l-29.679 29.677c0-2.658.756-5.367 2.319-7.713l37.807-56.437c27.515-41.091 60.502-81.268 95.417-116.184L427.158 36.296c12.582-12.636 55.85-23.309 68.866-10.292zm-24.807 51.972c0-14.976-12.183-27.16-27.159-27.16a3.257 3.257 0 1 0 0 6.514c11.384 0 20.645 9.262 20.645 20.646a3.257 3.257 0 1 0 6.514 0zM257.863 340.554a449.38 449.38 0 0 1-6.411 5.714 3.258 3.258 0 0 0 4.283 4.909 450.738 450.738 0 0 0 6.503-5.796 3.257 3.257 0 1 0-4.375-4.827zM74.986 451.652l44.611-44.611a3.257 3.257 0 1 0-4.606-4.606L70.38 447.046a3.257 3.257 0 1 0 4.606 4.606zm40.437-91.922a709.827 709.827 0 0 1 6.254-9.172l-93.02-5.446c-3.804-.235-7.556 1.199-10.266 3.908l-3.908 3.908c-6.703 6.703-4.509 18.122 4.247 21.835l67.459 28.635zM17.87 98.57l173.403 79.576a99.267 99.267 0 0 1 28.949 20.115l17.875 17.875 90.154-90.154-299.515-55.63a13.422 13.422 0 0 0-11.934 3.7l-2.841 2.841C7.414 83.439 9.284 94.668 17.87 98.57zm276.168-8.233c4.247-4.247 4.247-11.151 0-15.373l-24.102-24.102c-4.247-4.247-11.126-4.247-15.373 0l-7.191 7.165c-18.689 18.689-27.272 35.616-30.668 40.621l57.167 10.605c9.502-7.745 14.863-13.754 20.167-18.916zm-87.689 301.182a765.57 765.57 0 0 0 36.97-29.556 3.256 3.256 0 0 0 .367-4.592 3.256 3.256 0 0 0-4.592-.367 759.122 759.122 0 0 1-36.651 29.302 3.258 3.258 0 0 0 3.906 5.213zm250.799-62.665c-4.653 4.874-13.84 12.875-24.337 27.099l10.006 53.936 14.539-8.989c22.618-13.997 34.69-28.369 39.266-32.57 4.247-4.247 4.247-11.152 0-15.373l-24.075-24.103c-4.246-4.248-11.151-4.248-15.399 0zM447.065 227.99c-4.147-4.201-11.09-4.282-15.373 0-5.139 5.279-11.075 10.553-18.891 20.141l10.605 57.167 8.494-5.237a177.707 177.707 0 0 0 32.102-25.405l7.165-7.191c4.247-4.221 4.247-11.126 0-15.373zM185.983 72.071l7.218-7.191c4.221-4.247 4.221-11.152 0-15.373l-24.102-24.102c-4.247-4.247-11.152-4.247-15.399 0l-7.165 7.165c-19.978 19.978-28.578 37.944-34.394 46.641l53.91 10.006a170.934 170.934 0 0 0 19.932-17.146zm119.936 211.888 17.848 17.848c8.39 8.416 15.165 18.135 20.115 28.949l79.576 173.429c3.893 8.508 15.084 10.477 21.679 3.882l2.84-2.841a13.4 13.4 0 0 0 3.7-11.933l-55.602-299.515zm-136.82 223.587 3.908-3.908a13.355 13.355 0 0 0 3.908-10.266l-5.446-93.411c-1.381.964-2.762 1.928-4.169 2.866l-48.699 32.909 28.662 67.563c3.71 8.747 15.172 10.979 21.836 4.247z" opacity="1" data-original="url(#a)"></path></g></svg>