<svg xmlns="http://www.w3.org/2000/svg" version="1.1" xmlns:xlink="http://www.w3.org/1999/xlink" width="512" height="512" x="0" y="0" viewBox="0 0 64 64" style="enable-background:new 0 0 512 512" xml:space="preserve"><rect width="64" height="64" rx="12.8" ry="12.8" fill="#bac8d3" shape="rounded"></rect><g transform="matrix(0.7399999999999999,0,0,0.7399999999999999,8.320259857177742,8.320003843307504)"><linearGradient id="a" x1="16.986" x2="47.014" y1="32" y2="32" gradientUnits="userSpaceOnUse"><stop offset="0" stop-color="#ff81ff"></stop><stop offset="1" stop-color="#a93aff"></stop></linearGradient><path fill="url(#a)" d="M22.319 4.001h19.29c1.847-.045 3.747 1.479 3.588 3.363a3.277 3.277 0 0 1-2.829 2.928v6.238a12.37 12.37 0 0 0-3.986-.39V8.81a2.027 2.027 0 0 0-2.124-1.907h-8.516A2.035 2.035 0 0 0 25.61 8.81v7.33a12.068 12.068 0 0 0-3.995.399v-6.292c-4.046-.946-3.354-6.183.705-6.246zM17.12 46.504a7.288 7.288 0 0 0 7.123 5.822h15.512a7.288 7.288 0 0 0 7.123-5.822H17.12zM46.88 23.78a7.296 7.296 0 0 0-7.123-5.83H24.244a7.296 7.296 0 0 0-7.123 5.83H46.88zm.135 1.808v19.11c-1.782-.001-29.122-.005-30.028 0v-19.11zM36.8 33.307a18.004 18.004 0 0 1-2.287-5.18.91.91 0 0 0-1.103-.642 7.084 7.084 0 0 0-4.6 4.62c-.41-.07-1.051-.31-1.411.008-.407.29-.994.95-1.41 3.327-1.261 8.119 10.262 10.31 12.031 2.667a6.143 6.143 0 0 0-1.22-4.8zm-3.751-3.752a6.281 6.281 0 0 0-2.73 3.797.915.915 0 0 1-1.058.687l-.967-.199a7.668 7.668 0 0 0-.524 1.907 4.665 4.665 0 0 0 .497 3.065 3.504 3.504 0 0 1 .054-.606c.038-.66.413-1.342 1.157-1.193l1.076.217a8.56 8.56 0 0 1 1.112-3.245.914.914 0 0 1 1.6.126c.703 2.11 2.174 3.029 2.458 5.008a4.126 4.126 0 0 0-.361-4.71 17.388 17.388 0 0 1-2.314-4.854zm-11.462 24.18v1.99A4.286 4.286 0 0 0 25.87 60H38.13a4.278 4.278 0 0 0 4.275-4.276v-1.988a8.857 8.857 0 0 1-2.648.397c-1.925-.144-16.676.383-18.17-.397zm14.967-37.594V8.359h-9.039v7.782h3.618c-.116-.049-.035-3.553-.058-3.714h-.643a1.004 1.004 0 0 1 0-2.005h3.205a1.005 1.005 0 0 1 0 2.005h-.643c-.023.171.06 3.652-.057 3.714zM32.16 38.387a1.135 1.135 0 0 1-1.333.866l-1.265-.25a2.538 2.538 0 0 0 2.097 2.563 4.536 4.536 0 0 0 1.755-.262 1.871 1.871 0 0 0 1.002-1.344c.23-1.479-1.15-2.48-1.766-3.806z" opacity="1" data-original="url(#a)"></path></g></svg>