<svg xmlns="http://www.w3.org/2000/svg" version="1.1" xmlns:xlink="http://www.w3.org/1999/xlink" width="512" height="512" x="0" y="0" viewBox="0 0 64 64" style="enable-background:new 0 0 512 512" xml:space="preserve"><rect width="64" height="64" rx="12.8" ry="12.8" fill="#bac8d3" shape="rounded"></rect><g transform="matrix(0.68,0,0,0.68,10.239999999999998,10.239999999999998)"><linearGradient id="a" x1="4" x2="60" y1="32" y2="32" gradientUnits="userSpaceOnUse"><stop offset="0" stop-color="#00c0ff"></stop><stop offset="1" stop-color="#5558ff"></stop></linearGradient><path fill="url(#a)" d="M25.17 45.12 27 42.97v7.39H7a3.009 3.009 0 0 1-3-3V16.64a3.009 3.009 0 0 1 3-3h20v13.17l-2.26-1.36c-4.077-2.642-9.91.67-9.74 5.53a6.472 6.472 0 0 0 8.83 5.97l-3.49 4.1a1.014 1.014 0 0 0 .85 1.65l2.04-.18.18 2.04a1.003 1.003 0 0 0 1.76.56zm6.42-10.17a4 4 0 1 0-2.76-6.42 4.01 4.01 0 0 0 2.76 6.42zm.3 2.01.11.13.11-.13a.547.547 0 0 1-.22 0zM40 31.97h-2.09a4.89 4.89 0 0 1-.33 1.19l2.71 1.62a4.434 4.434 0 1 0 0-7.61l-2.71 1.62a4.815 4.815 0 0 1 .33 1.18H40a1 1 0 0 1 0 2zm-16-2h2.09a4.89 4.89 0 0 1 .33-1.19l-2.71-1.62a4.374 4.374 0 0 0-4.46-.05c-5.083 3.04-.693 10.587 4.46 7.67l2.71-1.62a4.89 4.89 0 0 1-.33-1.19H24a1 1 0 0 1 0-2zm.05 10.47a1.001 1.001 0 0 1 1.09.91l.05.66c1.171-1.368 3.463-4.062 4.64-5.45a5.803 5.803 0 0 1-1.97-1.25l-4.42 5.19zM35 25.78V13.64h-6v12.14a6.002 6.002 0 0 1 6 0zm22-12.14H37v13.17l2.26-1.36c4.071-2.644 9.908.672 9.74 5.52a6.464 6.464 0 0 1-8.84 5.97l3.5 4.11a1.014 1.014 0 0 1-.85 1.65l-2.04-.18-.18 2.04a.998.998 0 0 1-1.76.56L37 42.97v7.39h20a3.009 3.009 0 0 0 3-3V16.64a3.009 3.009 0 0 0-3-3zM29 40.62v9.74h6v-9.74l-3-3.53zm9.81 1.39.05-.66a1 1 0 0 1 1.09-.91l.61.06-4.42-5.19a5.803 5.803 0 0 1-1.97 1.25c1.177 1.388 3.469 4.082 4.64 5.45z" opacity="1" data-original="url(#a)"></path></g></svg>