<svg xmlns="http://www.w3.org/2000/svg" version="1.1" xmlns:xlink="http://www.w3.org/1999/xlink" width="512" height="512" x="0" y="0" viewBox="0 0 512 512" style="enable-background:new 0 0 512 512" xml:space="preserve" class=""><rect width="512" height="512" rx="102.4" ry="102.4" fill="#bac8d3" shape="rounded"></rect><g transform="matrix(0.6,0,0,0.6,102.4,97.4000030517578)"><linearGradient id="a" x1="16.001" x2="495.999" y1="256" y2="256" gradientUnits="userSpaceOnUse"><stop offset="0" stop-color="#2f449c"></stop><stop offset="1" stop-color="#0dc2ee"></stop></linearGradient><path fill="url(#a)" fill-rule="evenodd" d="M366.05 126.75h110.19v30.42H366.05zM16 433.04h480v33.5H16zM145.74 45.46c42.68 0 77.27 34.6 77.27 77.27 0 42.68-34.6 77.27-77.27 77.27s-77.27-34.6-77.27-77.27c-.01-42.68 34.59-77.27 77.27-77.27zm14.98 41.11h-29.96v21.18h-21.18v29.96h21.18v21.18h29.96v-21.18h21.18v-29.96h-21.18zm39.64-34.45a89.703 89.703 0 0 1 23.21 26.87h144.2V52.12zm44.79 184.34v184.59h-55.7v-86.29h4.89c3.31 0 6-2.69 6-6v-20.18c0-3.31-2.69-6-6-6h-97.2c-3.31 0-6 2.69-6 6v20.18c0 3.31 2.69 6 6 6h4.89v86.29h-55.7V236.46zm-93.41 184.58h25.71v-86.29h-25.71zm-37.71 0h25.71v-86.29h-25.71zm74.3-106.47h-85.19v8.18h85.19zm17.11 42.7v26.2h17.72v-26.2zm-137.12 0v26.2h17.72v-26.2zm120.36-109.13v36.74h30.04v-36.74zm-57.97 0v36.74h30.04v-36.74zm-57.96 0v36.74h30.04v-36.74zm-46.29-68.56v44.88h238.55v-44.88h-50.45c-16.37 19.8-41.13 32.42-68.82 32.42s-52.45-12.62-68.83-32.42zM354.05 91H229.2a89.096 89.096 0 0 1 5.63 37.28h6.91v28.9h-13.62c-1.5 3.6-3.24 7.07-5.18 10.41h54.08v16.99h10.91v28.9h-10.91v22.99h-19.86v184.59h96.9V91zm-43.57 262.44h23.63v28.9h-23.63zm-46.18 0h23.63v28.9H264.3zm46.18-56.29h23.63v28.9h-23.63zm-46.18 0h23.63v28.9H264.3zm46.18-56.29h23.63v28.9h-23.63zm-46.18 0h23.63v28.9H264.3zm46.18-56.29h23.63v28.9h-23.63zm0-56.29h23.63v28.9h-23.63zm-46.18 0h23.63v28.9H264.3zm201.37 40.89v251.87h-99.63V169.17zm-44.53 15.4v28.9h23.63v-28.9zm-46.18 0v28.9h23.63v-28.9zm46.18 168.87v28.9h23.63v-28.9zm-46.18 0v28.9h23.63v-28.9zm46.18-56.29v28.9h23.63v-28.9zm-46.18 0v28.9h23.63v-28.9zm46.18-56.29v28.9h23.63v-28.9zm-46.18 0v28.9h23.63v-28.9z" clip-rule="evenodd" opacity="1" data-original="url(#a)"></path></g></svg>