<svg xmlns="http://www.w3.org/2000/svg" version="1.1" xmlns:xlink="http://www.w3.org/1999/xlink" width="512" height="512" x="0" y="0" viewBox="0 0 512 512" style="enable-background:new 0 0 512 512" xml:space="preserve"><rect width="512" height="512" rx="102.4" ry="102.4" fill="#bac8d3" shape="rounded"></rect><g transform="matrix(0.7,0,0,0.7,76.80015563964844,76.80000457763674)"><linearGradient id="a" x1="64" x2="448" y1="256" y2="256" gradientUnits="userSpaceOnUse"><stop offset="0" stop-color="#0ff"></stop><stop offset="1" stop-color="#0071bc"></stop></linearGradient><path fill="url(#a)" d="M227.908 77.508h16.736v68.357a6.754 6.754 0 1 0 13.508 0V77.508h18.283a6.753 6.753 0 1 0 0-13.508h-48.527a6.753 6.753 0 1 0 0 13.508zm-45.225 118.45c-3.396 0-6.156 2.77-6.156 6.157v17.675h158.946v-17.675c0-3.387-2.76-6.156-6.156-6.156H182.683zm122.819-43.356h50.052a6.754 6.754 0 1 0 0-13.508h-43.298v-24.03h38.473a6.754 6.754 0 1 0 0-13.508h-38.473V77.524h43.298a6.753 6.753 0 1 0 0-13.507h-50.052a6.754 6.754 0 0 0-6.754 6.754v75.077a6.754 6.754 0 0 0 6.754 6.754zm-131.377 0h9.09c15.017 0 27.234-12.217 27.234-27.235V91.252c0-15.018-12.217-27.235-27.234-27.235h-9.09c-15.017 0-27.234 12.217-27.234 27.235v34.115c0 15.018 12.217 27.235 27.234 27.235zm-13.727-61.35c0-7.57 6.158-13.728 13.727-13.728h9.09c7.569 0 13.727 6.158 13.727 13.728v34.115c0 7.57-6.158 13.727-13.727 13.727h-9.09c-7.57 0-13.727-6.158-13.727-13.727zm3.895 349.049c0 4.245 3.455 7.699 7.7 7.699h56.336v-37.098c0-3.8 3.454-6.888 7.69-6.888h15.64V448h8.683v-43.986h15.64c4.245 0 7.69 3.087 7.69 6.888V448h56.335c4.245 0 7.7-3.454 7.7-7.7V277.767H164.293zm122.552-137.96c0-5.568 4.535-10.102 10.102-10.102h20.05c5.566 0 10.1 4.534 10.1 10.101v20.05c0 5.567-4.534 10.101-10.1 10.101h-20.05c-5.567 0-10.102-4.534-10.102-10.101zm0 52.9c0-5.576 4.535-10.1 10.102-10.1h20.05c5.566 0 10.1 4.524 10.1 10.1v20.05c0 5.567-4.534 10.102-10.1 10.102h-20.05c-5.567 0-10.102-4.535-10.102-10.102zm-50.971-52.9c0-5.568 4.534-10.102 10.101-10.102h20.05c5.567 0 10.101 4.534 10.101 10.101v20.05c0 5.567-4.534 10.101-10.101 10.101h-20.05c-5.567 0-10.101-4.534-10.101-10.101zm0 52.9c0-5.576 4.534-10.1 10.101-10.1h20.05c5.567 0 10.101 4.524 10.101 10.1v20.05c0 5.567-4.534 10.102-10.101 10.102h-20.05c-5.567 0-10.101-4.535-10.101-10.102zm-50.972-52.9c0-5.568 4.535-10.102 10.102-10.102h20.049c5.567 0 10.102 4.534 10.102 10.101v20.05c0 5.567-4.535 10.101-10.102 10.101h-20.05c-5.566 0-10.1-4.534-10.1-10.101zm0 52.9c0-5.576 4.535-10.1 10.102-10.1h20.049c5.567 0 10.102 4.524 10.102 10.1v20.05c0 5.567-4.535 10.102-10.102 10.102h-20.05c-5.566 0-10.1-4.535-10.1-10.102zm179.969-126.767H147.129a6.16 6.16 0 0 0-6.155 6.155v28.298a6.16 6.16 0 0 0 6.155 6.156h217.742a6.16 6.16 0 0 0 6.155-6.156V234.63a6.16 6.16 0 0 0-6.155-6.155zm76.375-89.38H397.95V70.771a6.754 6.754 0 1 0-13.508 0v75.077a6.753 6.753 0 0 0 6.754 6.754h50.051a6.754 6.754 0 1 0 0-13.508zM120.805 64.017a6.754 6.754 0 0 0-6.754 6.754v30.755l-36.543.026V70.771a6.753 6.753 0 1 0-13.508 0v75.077a6.754 6.754 0 1 0 13.508 0V115.06l36.543-.026v30.814a6.754 6.754 0 1 0 13.508 0V70.771a6.753 6.753 0 0 0-6.754-6.754z" opacity="1" data-original="url(#a)"></path></g></svg>