<svg xmlns="http://www.w3.org/2000/svg" version="1.1" xmlns:xlink="http://www.w3.org/1999/xlink" width="512" height="512" x="0" y="0" viewBox="0 0 512 512" style="enable-background:new 0 0 512 512" xml:space="preserve"><rect width="512" height="512" rx="102.4" ry="102.4" fill="#bac8d3" shape="rounded"></rect><g transform="matrix(0.6199999999999999,0,0,0.6199999999999999,98.1103005218506,107.42249420166019)"><linearGradient id="a" x1="258.187" x2="258.187" y1="21.374" y2="491.375" gradientUnits="userSpaceOnUse"><stop offset="0" stop-color="#a03a8d"></stop><stop offset="1" stop-color="#1f3c8d"></stop></linearGradient><path fill="url(#a)" fill-rule="evenodd" d="M86.69 36.56v83.23c0 11.48 6.86 21.84 17.46 26.38 2.2.94 3.63 3.11 3.63 5.52V296.3c0 2.4-1.43 4.57-3.63 5.52-10.61 4.55-17.46 14.9-17.46 26.38v83.23c0 8.37 6.77 15.18 15.18 15.18h77.9c8.37 0 15.18-6.81 15.18-15.18V328.2c0-11.49-6.86-21.84-17.51-26.38a5.995 5.995 0 0 1-3.63-5.52V151.69c0-2.4 1.43-4.57 3.63-5.52 10.65-4.54 17.51-14.9 17.51-26.38V36.56c0-8.37-6.81-15.18-15.18-15.18h-77.9c-8.41-.01-15.18 6.81-15.18 15.18zM240.4 417.78h12v14.82c0 32.41-26.36 58.77-58.76 58.77-30.33 0-55.34-23.06-58.45-52.57h12.08c3.07 22.86 22.69 40.57 46.37 40.57 25.79 0 46.76-20.98 46.76-46.77zm153.58-219.72v19.93h33.13v-19.93zm-35.95 54.06H324.9v19.93h33.13zm-33.13-34.13h33.13v-19.93H324.9zm69.08 54.06h33.13v-19.93h-33.13zm0 54.06h33.13v-19.93h-33.13zm0 34.13v19.93h33.13v-19.93zm-104.99 19.93v-19.93h-33.17v19.93zm69.04-19.93H324.9v19.93h33.13zm-33.13-54.06v19.93h33.13v-19.93zm-35.91 0h-33.17v19.93h33.17zm0-54.06h-33.17v19.93h33.17zm0-54.06h-33.17v19.93h33.17zm-48.19-42.02V61.49c0-3.31 2.69-6 6-6h189.33c3.31 0 6 2.69 6 6v94.55c0 3.31-2.69 6-6 6H246.8c-3.3 0-6-2.69-6-6zm3.02 36.02c0-3.32 2.69-6 6-6h45.17c3.31 0 6 2.68 6 6v31.93c0 3.31-2.69 6-6 6h-45.17c-3.31 0-6-2.68-6-6zm6 48.06h45.17c3.31 0 6 2.68 6 6v31.93c0 3.31-2.69 6-6 6h-45.17c-3.31 0-6-2.69-6-6v-31.93c0-3.32 2.7-6 6-6zm63.09 37.93v-31.93c0-3.32 2.69-6 6-6h45.13c3.35 0 6 2.68 6 6v31.93c0 3.31-2.65 6-6 6H318.9c-3.3 0-5.99-2.69-5.99-6zm5.99 16.13h45.13c3.35 0 6 2.69 6 6v31.93c0 3.31-2.65 6-6 6H318.9c-3.31 0-6-2.69-6-6v-31.93c.01-3.32 2.7-6 6-6zm63.09 60.06c0-3.31 2.65-6 6-6h45.13c3.31 0 6 2.68 6 6v31.93c0 3.31-2.69 6-6 6h-45.13c-3.35 0-6-2.68-6-6zm-63.09-6h45.13c3.35 0 6 2.68 6 6v31.93c0 3.31-2.65 6-6 6H318.9c-3.31 0-6-2.68-6-6v-31.93c.01-3.32 2.7-6 6-6zm-69.08-54.06h45.17c3.31 0 6 2.69 6 6v31.93c0 3.31-2.69 6-6 6h-45.17c-3.31 0-6-2.69-6-6v-31.93c0-3.32 2.7-6 6-6zm0 54.06h45.17c3.31 0 6 2.68 6 6v31.93c0 3.31-2.69 6-6 6h-45.17c-3.31 0-6-2.68-6-6v-31.93c0-3.32 2.7-6 6-6zm132.17-48.06c0-3.31 2.65-6 6-6h45.13c3.31 0 6 2.69 6 6v31.93c0 3.31-2.69 6-6 6h-45.13c-3.35 0-6-2.69-6-6zm-69.08-76.19v-31.93c0-3.32 2.69-6 6-6h45.13c3.35 0 6 2.68 6 6v31.93c0 3.31-2.65 6-6 6H318.9c-3.3 0-5.99-2.68-5.99-6zm69.08 54.06v-31.93c0-3.32 2.65-6 6-6h45.13c3.31 0 6 2.68 6 6v31.93c0 3.31-2.69 6-6 6h-45.13c-3.35 0-6-2.69-6-6zm0-54.06v-31.93c0-3.32 2.65-6 6-6h45.13c3.31 0 6 2.68 6 6v31.93c0 3.31-2.69 6-6 6h-45.13c-3.35 0-6-2.68-6-6zm58.22 181.59H226.4V42.4h213.81c8.98 0 16.32 7.32 16.32 16.32v330.54c.01 9-7.34 16.32-16.32 16.32zM252.8 67.49v82.55h177.34V67.49zM95.79 292.55c-12.94 7.12-21.14 20.7-21.14 35.64v77.19c-8.36-1.2-14.81-8.4-14.81-17.1V59.7c0-8.7 6.45-15.9 14.81-17.1v77.19c0 14.94 8.2 28.53 21.14 35.64zm90.01-137.12c12.98-7.12 21.14-20.7 21.14-35.64V42.4h7.47v363.18h-7.47v-77.39c0-14.94-8.16-28.53-21.14-35.65z" clip-rule="evenodd" opacity="1" data-original="url(#a)"></path></g></svg>