<svg xmlns="http://www.w3.org/2000/svg" version="1.1" xmlns:xlink="http://www.w3.org/1999/xlink" width="512" height="512" x="0" y="0" viewBox="0 0 512 512" style="enable-background:new 0 0 512 512" xml:space="preserve" class=""><rect width="512" height="512" rx="102.4" ry="102.4" fill="#bac8d3" shape="rounded"></rect><g transform="matrix(0.6,0,0,0.6,102.40287170410156,107.4)"><linearGradient id="a" x1="256.005" x2="256.006" y1="511.997" y2="-.003" gradientUnits="userSpaceOnUse"><stop offset="0" stop-color="#6c54a3"></stop><stop offset="1" stop-color="#00b1d2"></stop></linearGradient><path fill="url(#a)" fill-rule="evenodd" d="m194.869 428.466 25.33-22.038a28.412 28.412 0 0 1 17.454-7.132l115.758-7a49.148 49.148 0 0 0 36.322-18.458L481.2 262.966c10.944-13.231 13.916-28.439 8.35-42.84l-.755-1.911a15.913 15.913 0 0 0-25.8-5.807L373.6 297.269a36.236 36.236 0 0 1-30.944 55.077h-95.239a4.154 4.154 0 1 1 0-8.307h95.239a27.921 27.921 0 1 0 0-55.841h-110.8a4.308 4.308 0 0 1-1.7-.363c-44.341-19.939-97.644 6.311-125.287 41.143-.047.07-.141.117-.188.179l90.191 99.309zM129.584 512 19.723 390.965l71.134-64.629 109.908 121.031zM252.842 56.357H360.77a8.607 8.607 0 0 1 1.792.2c0 .015.047.043.047.052a4.188 4.188 0 0 0 2.123.741 8.6 8.6 0 0 1-3.962 16.2H252.842a8.595 8.595 0 0 1 0-17.189zm-24.01-41.27L243.927 0 261.9 18.016a4.188 4.188 0 0 0 5.9 0L285.862 0l17.972 18.019a4.254 4.254 0 0 0 2.924 1.213 4.114 4.114 0 0 0 2.972-1.213L327.75 0l18.019 18.019a4.089 4.089 0 0 0 2.925 1.213 4.006 4.006 0 0 0 2.924-1.213L369.685 0l14.1 14.128a297.665 297.665 0 0 1-20.378 34.152 16.068 16.068 0 0 0-2.641-.241H252.842a16.211 16.211 0 0 0-3.915.491 298.25 298.25 0 0 1-20.095-33.44zm113.824 264.8H232.747c-21.038-9.189-45-9.689-69.672-1.529 17.265-79.054 47.879-145.122 91.041-196.5h103.918c33.491 39.869 59.529 88.71 77.455 145.211l-67.031 63.62a36.123 36.123 0 0 0-25.8-10.8z" opacity="1" data-original="url(#a)"></path></g></svg>