<svg xmlns="http://www.w3.org/2000/svg" version="1.1" xmlns:xlink="http://www.w3.org/1999/xlink" width="512" height="512" x="0" y="0" viewBox="0 0 1706.66 1706.66" style="enable-background:new 0 0 512 512" xml:space="preserve" fill-rule="evenodd"><rect width="1706.66" height="1706.66" rx="341.332" ry="341.332" fill="#bac8d3" shape="rounded"></rect><g transform="matrix(0.6499999999999998,0,0,0.6499999999999998,298.6637542724611,298.6655273437501)"><linearGradient id="a" x1="375.65" x2="1331.01" y1="853.33" y2="853.33" gradientUnits="userSpaceOnUse"><stop offset="0" stop-color="#ffb800"></stop><stop offset="1" stop-color="#ff5329"></stop></linearGradient><path fill="url(#a)" d="M1169.8 1706.66H536.83c-88.88 0-161.19-72.31-161.19-161.19V161.17C375.64 72.29 447.95 0 536.83 0h632.98c88.88 0 161.2 72.28 161.2 161.17v1384.3c0 88.89-72.32 161.19-161.21 161.19zM631.18 87.68l-9.6-15.76h-84.76c-49.19 0-89.26 40.05-89.26 89.24v1238.06h811.52l-.01-1238.06c0-49.2-40.06-89.24-89.26-89.24h-84.97c-21.52 41.03-61.49 68.68-108.48 68.68H730.18c-40.1 0-76.24-20.1-98.99-52.92zm322.28 1476.71H753.2c-25.82 0-25.82-39.23 0-39.23h200.26c25.82 0 25.82 39.23 0 39.23zm0 32.69H753.2c-68.5 0-69.26-104.62 0-104.62h200.26c68.51 0 69.26 104.62 0 104.62z" opacity="1" data-original="url(#a)"></path></g></svg>