<svg xmlns="http://www.w3.org/2000/svg" version="1.1" xmlns:xlink="http://www.w3.org/1999/xlink" width="512" height="512" x="0" y="0" viewBox="0 0 64 64" style="enable-background:new 0 0 512 512" xml:space="preserve" class=""><rect width="64" height="64" rx="12.8" ry="12.8" fill="#bac8d3" shape="rounded"></rect><g transform="matrix(0.6,0,0,0.6,12.8,12.8)"><linearGradient id="a" x1="4" x2="60" y1="32" y2="32" gradientUnits="userSpaceOnUse"><stop offset="0" stop-color="#00c0ff"></stop><stop offset="1" stop-color="#5558ff"></stop></linearGradient><path fill="url(#a)" d="M32 49c-6.607-.205-6.609-9.794 0-10 6.607.205 6.609 9.794 0 10zm22-12.13v14.26A4.01 4.01 0 0 0 51.13 54H12.87A4.01 4.01 0 0 0 10 51.13V36.87A4.01 4.01 0 0 0 12.87 34h38.26A4.01 4.01 0 0 0 54 36.87zM22.54 46H14a1 1 0 0 0 0 2h8.54a1 1 0 0 0 0-2zm0-6H14a1 1 0 0 0 0 2h8.54a1 1 0 0 0 0-2zM39 44c-.327-9.262-13.672-9.265-14 0a7 7 0 0 0 14 0zm11 2h-8.54a1 1 0 0 0 0 2H50a1 1 0 0 0 0-2zm0-6h-8.54a1 1 0 0 0 0 2H50a1 1 0 0 0 0-2zm10-9v26a3.009 3.009 0 0 1-3 3H7a3.009 3.009 0 0 1-3-3V31a3.009 3.009 0 0 1 3-3h50a3.009 3.009 0 0 1 3 3zm-4 5a1.003 1.003 0 0 0-1-1 2.006 2.006 0 0 1-2-2 1.003 1.003 0 0 0-1-1H12a1.003 1.003 0 0 0-1 1 2.006 2.006 0 0 1-2 2 1.003 1.003 0 0 0-1 1v16a1.003 1.003 0 0 0 1 1 2.006 2.006 0 0 1 2 2 1.003 1.003 0 0 0 1 1h40a1.003 1.003 0 0 0 1-1 2.006 2.006 0 0 1 2-2 1.003 1.003 0 0 0 1-1zM13.75 16H16v8a1.003 1.003 0 0 0 1 1h6a1.003 1.003 0 0 0 1-1v-8h2.25a1.008 1.008 0 0 0 .85-1.53l-6.25-10a1.048 1.048 0 0 0-1.7 0l-6.25 10a1.008 1.008 0 0 0 .85 1.53zm29.4 8.53a1.004 1.004 0 0 0 1.7 0l6.25-10a1.008 1.008 0 0 0-.85-1.53H48V5a1.003 1.003 0 0 0-1-1h-6a1.003 1.003 0 0 0-1 1v8h-2.25a1.008 1.008 0 0 0-.85 1.53z" opacity="1" data-original="url(#a)"></path></g></svg>