<svg xmlns="http://www.w3.org/2000/svg" version="1.1" xmlns:xlink="http://www.w3.org/1999/xlink" width="512" height="512" x="0" y="0" viewBox="0 0 450 450" style="enable-background:new 0 0 512 512" xml:space="preserve" class=""><rect width="450" height="450" rx="90" ry="90" fill="#bac8d3" shape="rounded"></rect><g transform="matrix(0.65,0,0,0.65,78.74999732971193,63.75431752204895)"><linearGradient id="a" x1="81.137" x2="379.7" y1="299.163" y2=".6" gradientTransform="matrix(1 0 0 -1 0 452)" gradientUnits="userSpaceOnUse"><stop offset="0" stop-color="#00dbde"></stop><stop offset="1" stop-color="#fc00ff"></stop></linearGradient><path fill="url(#a)" d="M319.3 209.3h43.4v17.5h-43.4zm-132.3 0h76v48.2h-76zm185.9 0v22.6c0 2.8-2.3 5.1-5.1 5.1h-6v175.2h6c2.8 0 5.1 2.3 5.1 5.1V440h18.2V209.3zM330.4 237h21.1v175.2h-21.1zm-11.1 185.5h43.4V440h-43.4zm-232 0h43.4V440H87.3zm78.8 3.9h117.8V440H166.1zm41-65.6h35.8v55.3h-35.8zm62.6 55.3v-72.8c0-24.6-20-44.7-44.7-44.7s-44.7 20-44.7 44.7v72.8h16.6v-60.4c0-2.8 2.3-5.1 5.1-5.1h46c2.8 0 5.1 2.3 5.1 5.1v60.4zM320.2 237h-6c-2.8 0-5.1-2.3-5.1-5.1v-22.6h-35.9v53.4c0 2.8-2.3 5.1-5.1 5.1h-86.2c-2.8 0-5.1-2.3-5.1-5.1v-53.4h-35.9v22.6c0 2.8-2.3 5.1-5.1 5.1h-6v175.2h6c2.8 0 5.1 2.3 5.1 5.1V440h14.9v-18.8c0-2.8 2.3-5.1 5.1-5.1h9.1v-72.8c0-30.3 24.6-54.9 54.9-54.9s54.9 24.6 54.9 54.9v72.8h9.1c2.8 0 5.1 2.3 5.1 5.1V440h15v-22.6c0-2.8 2.3-5.1 5.1-5.1h6zm-221.7 0h21.1v175.2H98.5zm-10.2 0h-6c-2.8 0-5.1-2.3-5.1-5.1v-22.6H58.9V440h18.2v-22.6c0-2.8 2.3-5.1 5.1-5.1h6zm-1-27.7h43.4v17.5H87.3zM348.5 167h-247c-3.1 10.2-4.9 20.9-5.3 32h257.6c-.4-11-2.3-21.8-5.3-32zm-28.2-49.5H129.7c-10.4 11.4-18.8 24.7-24.6 39.3h239.8c-5.8-14.6-14.1-27.9-24.6-39.3zM225 75.2c-32.5 0-62.2 12.1-84.9 32h169.8c-22.7-19.9-52.4-32-84.9-32zm-5.1-10.1c1.7-.1 3.4-.1 5.1-.1s3.4 0 5.1.1V38.3c4.4 1.1 8.5 4.1 12.3 6.8 3.8 2.8 8.2 5.9 10.7 5.2 1-.3 3.2-1.6 5.8-7.1l-.7-22.7c-1.2.7-2.4 1.3-3.6 1.6-7.3 1.9-13.7-2.7-19.4-6.8-3.8-2.7-8.1-5.8-10.6-5.2-1.4.4-3.1 2.1-4.7 4.9z" opacity="1" data-original="url(#a)"></path></g></svg>