<svg xmlns="http://www.w3.org/2000/svg" version="1.1" xmlns:xlink="http://www.w3.org/1999/xlink" width="512" height="512" x="0" y="0" viewBox="0 0 64 64" style="enable-background:new 0 0 512 512" xml:space="preserve"><rect width="64" height="64" rx="12.8" ry="12.8" fill="#bac8d3" shape="rounded"></rect><g transform="matrix(0.69,0,0,0.69,9.920000000000002,9.920000591278079)"><linearGradient id="a" x1="4" x2="60" y1="32" y2="32" gradientUnits="userSpaceOnUse"><stop offset="0" stop-color="#ffa68d"></stop><stop offset="1" stop-color="#fd3a84"></stop></linearGradient><path fill="url(#a)" d="M55 12.81H9a5.002 5.002 0 0 0-5 5v28.38a5.002 5.002 0 0 0 5 5h46a5.002 5.002 0 0 0 5-5V17.81a5.002 5.002 0 0 0-5-5zM11.74 29.55c.298-8.58 12.687-8.597 12.99 0a6.51 6.51 0 0 1-2.75 5.31 9.086 9.086 0 0 1 5.32 8.25v2.12a1.818 1.818 0 0 1-1.82 1.81H10.99a1.81 1.81 0 0 1-1.81-1.81v-2.12a9.077 9.077 0 0 1 5.31-8.25 6.51 6.51 0 0 1-2.75-5.31zM52 36.96a1 1 0 0 1 0 2H36a1 1 0 0 1 0-2zm-9-4.82a1.003 1.003 0 0 1 1-1h8a1 1 0 1 1 0 2h-8a1.003 1.003 0 0 1-1-1zm-2.58 1h-5.63a1 1 0 0 1 0-2h5.63a1 1 0 0 1 0 2zM52 42.78a1 1 0 0 1 0 2H32a1 1 0 0 1 0-2zM14.09 20a1.003 1.003 0 0 1 1-1h32a1 1 0 0 1 0 2h-32a1.003 1.003 0 0 1-1-1zM52 27.32H32a1 1 0 0 1 0-2h20a1 1 0 0 1 0 2zm-33.76-2.26a4.495 4.495 0 0 1 0 8.99 4.495 4.495 0 0 1 0-8.99zm-7.06 18.05a7.06 7.06 0 0 1 14.12 0v1.93H11.18z" opacity="1" data-original="url(#a)"></path></g></svg>