<svg xmlns="http://www.w3.org/2000/svg" version="1.1" xmlns:xlink="http://www.w3.org/1999/xlink" width="512" height="512" x="0" y="0" viewBox="0 0 64 64" style="enable-background:new 0 0 512 512" xml:space="preserve" class=""><rect width="64" height="64" rx="12.8" ry="12.8" fill="#bac8d3" shape="rounded"></rect><g transform="matrix(0.68,0,0,0.68,10.239999999999998,10.239999999999998)"><linearGradient id="a" x1="4" x2="60" y1="32" y2="32" gradientUnits="userSpaceOnUse"><stop offset="0" stop-color="#9cffac"></stop><stop offset="1" stop-color="#00b59c"></stop></linearGradient><path fill="url(#a)" d="M59.99 15.383H4.01a2.788 2.788 0 0 1 2.768-2.488h50.443a2.788 2.788 0 0 1 2.768 2.488zM4 22.793h56v25.533a2.785 2.785 0 0 1-2.778 2.779H6.778A2.785 2.785 0 0 1 4 48.326zM42.058 43.21h13.15a1.077 1.077 0 0 0 0-2.154h-13.15a1.077 1.077 0 0 0 0 2.154zM4 17.537v3.101h56v-3.101z" opacity="1" data-original="url(#a)"></path></g></svg>