<svg xmlns="http://www.w3.org/2000/svg" version="1.1" xmlns:xlink="http://www.w3.org/1999/xlink" width="512" height="512" x="0" y="0" viewBox="0 0 512 512" style="enable-background:new 0 0 512 512" xml:space="preserve" class=""><rect width="512" height="512" rx="102.4" ry="102.4" fill="#bac8d3" shape="rounded"></rect><g transform="matrix(0.6499999999999998,0,0,0.6499999999999998,89.60035514831543,89.59664077758791)"><linearGradient id="a" x1="256.001" x2="256.002" y1="511.995" y2=".003" gradientUnits="userSpaceOnUse"><stop offset="0" stop-color="#6c54a3"></stop><stop offset="1" stop-color="#00b1d2"></stop></linearGradient><path fill="url(#a)" fill-rule="evenodd" d="M331.522 442.227H180.48l-21.038 26.751H352.56zm-138.4-16H318.88l-18.774-23.841H211.9l-18.774 23.841zm22.265-80.384h81.228a8 8 0 1 0 0-16h-81.228a8 8 0 1 0 0 16zm-78.068-108.9h237.317V101.2A25.471 25.471 0 0 0 349.4 75.925H162.6a25.454 25.454 0 0 0-25.281 25.275zm245.337 16H129.347a8.006 8.006 0 0 1-8.019-8V101.2A41.537 41.537 0 0 1 162.6 59.924h186.8a41.523 41.523 0 0 1 41.275 41.276v143.743a8.006 8.006 0 0 1-8.019 8zm-24.907 28.288a38.379 38.379 0 1 0 27.171 11.255 38.268 38.268 0 0 0-27.171-11.255zM373.6 303.8a22.457 22.457 0 1 1-15.85-6.571 22.351 22.351 0 0 1 15.85 6.571zm-219.347-22.568a38.459 38.459 0 1 0 27.171 11.255 38.351 38.351 0 0 0-27.171-11.255zm15.9 22.572a22.457 22.457 0 1 1-15.9-6.571 22.347 22.347 0 0 1 15.9 6.571zm45.237 5.684h81.228a8 8 0 1 0 0-16h-81.231a8 8 0 1 0 0 16zm149.765 175.485H146.847l-18.915 23.968a7.983 7.983 0 0 1-12.548-9.873l76.134-96.682h-69.011A47.2 47.2 0 0 1 75.43 355.3V111.935A112.246 112.246 0 0 1 187.32 0h137.362a112.246 112.246 0 0 1 111.89 111.932V355.3a47.2 47.2 0 0 1-47.072 47.086h-69.063l76.181 96.682a7.983 7.983 0 0 1-12.547 9.873z" opacity="1" data-original="url(#a)"></path></g></svg>