<svg xmlns="http://www.w3.org/2000/svg" version="1.1" xmlns:xlink="http://www.w3.org/1999/xlink" width="512" height="512" x="0" y="0" viewBox="0 0 64 64" style="enable-background:new 0 0 512 512" xml:space="preserve"><rect width="64" height="64" rx="12.8" ry="12.8" fill="#bac8d3" shape="rounded"></rect><g transform="matrix(0.71,0,0,0.71,9.280000000000001,9.280000000000001)"><linearGradient id="a" x1="21.611" x2="42.389" y1="32" y2="32" gradientUnits="userSpaceOnUse"><stop offset="0" stop-color="#00c0ff"></stop><stop offset="1" stop-color="#5558ff"></stop></linearGradient><path fill="url(#a)" d="M26.458 10.971V6.897A2.899 2.899 0 0 1 29.354 4h5.291a2.899 2.899 0 0 1 2.897 2.897v4.074a.962.962 0 0 1-.965.966h-9.154a.962.962 0 0 1-.965-.966zm-3.824 18.634a15.056 15.056 0 0 1-1.023-5.02s20.317.014 20.778 0a15.022 15.022 0 0 1-1.023 5.02c-.976 1.893-1.922 4.722-.88 7.522.2.646.485 1.366.706 2.047-2.21-.004-16.407.004-18.384 0 .202-.63.528-1.43.686-1.99a9.444 9.444 0 0 0-.86-7.579zm5.263 3.447a4.104 4.104 0 0 0 8.206 0c0-2.365-3.04-5.764-3.389-6.14a1.008 1.008 0 0 0-1.429 0c-.347.376-3.388 3.775-3.388 6.14zm2.838 14.136a.966.966 0 0 1 0-1.931h11.519c.028-.68-.375-3.42-.483-4.152 0 0-19.195.002-19.542 0-.118.67-.486 3.491-.502 4.152h2.636a.966.966 0 0 1 0 1.93H21.63c-.01.976-.01 2.308-.01 4.143 0 0 20.184-.003 20.75 0 0-1.825 0-3.158-.02-4.142zM42.36 53.26H21.63c0 .55.01 2.916.01 2.916A3.849 3.849 0 0 0 25.483 60h13.034a3.849 3.849 0 0 0 3.843-3.823c-.014-.912.017-2.06 0-2.916zm-4.934-38.225a2.383 2.383 0 0 1-.975-1.168c-2.3.004-6.57-.004-8.892 0a2.404 2.404 0 0 1-.976 1.158 10.602 10.602 0 0 0-4.875 7.628h20.584a10.601 10.601 0 0 0-4.866-7.618zM32 35.225a2.176 2.176 0 0 0 2.172-2.173c0-.946-1.11-2.684-2.172-3.997-1.033 1.275-2.172 3.013-2.172 3.997A2.176 2.176 0 0 0 32 35.225z" opacity="1" data-original="url(#a)"></path></g></svg>