<svg xmlns="http://www.w3.org/2000/svg" version="1.1" xmlns:xlink="http://www.w3.org/1999/xlink" width="512" height="512" x="0" y="0" viewBox="0 0 32 32" style="enable-background:new 0 0 512 512" xml:space="preserve" class=""><rect width="32" height="32" rx="6.4" ry="6.4" fill="#bac8d3" shape="rounded"></rect><g transform="matrix(0.5499999999999999,0,0,0.5499999999999999,7.200000000000001,7.200000000000001)"><linearGradient id="a" x1="2" x2="30" y1="16" y2="16" gradientUnits="userSpaceOnUse"><stop offset="0" stop-color="#0fdcdd"></stop><stop offset="1" stop-color="#46a1e8"></stop></linearGradient><path fill="url(#a)" d="M27 25H5a3.003 3.003 0 0 1-3-3V10a3.003 3.003 0 0 1 3-3h22a3.003 3.003 0 0 1 3 3v12a3.003 3.003 0 0 1-3 3zM5 9a1.001 1.001 0 0 0-1 1v12a1.001 1.001 0 0 0 1 1h22a1.001 1.001 0 0 0 1-1V10a1.001 1.001 0 0 0-1-1zm21 7a1 1 0 0 0-1-1h-8a1 1 0 0 0 0 2h8a1 1 0 0 0 1-1zm0-4a1 1 0 0 0-1-1h-8a1 1 0 0 0 0 2h8a1 1 0 0 0 1-1zm0 8a1 1 0 0 0-1-1h-8a1 1 0 0 0 0 2h8a1 1 0 0 0 1-1zm-12.592-4.556a3.499 3.499 0 1 0-5.816 0A3.985 3.985 0 0 0 6 18.625V20a2.002 2.002 0 0 0 2 2h5a2.002 2.002 0 0 0 2-2v-1.375a3.985 3.985 0 0 0-1.592-3.18zM9.439 12.44a1.5 1.5 0 1 1 0 2.122 1.502 1.502 0 0 1 0-2.122zM13 20H8v-1.375a2 2 0 0 1 1.269-1.857 3.513 3.513 0 0 0 2.462 0A2 2 0 0 1 13 18.625z" opacity="1" data-original="url(#a)"></path></g></svg>