<svg xmlns="http://www.w3.org/2000/svg" version="1.1" xmlns:xlink="http://www.w3.org/1999/xlink" width="512" height="512" x="0" y="0" viewBox="0 0 64 64" style="enable-background:new 0 0 512 512" xml:space="preserve"><rect width="64" height="64" rx="12.8" ry="12.8" fill="#bac8d3" shape="rounded"></rect><g transform="matrix(0.5499999999999999,0,0,0.5499999999999999,14.400000000000002,14.400000000000002)"><linearGradient id="a" x1="12" x2="52" y1="32" y2="32" gradientUnits="userSpaceOnUse"><stop offset="0" stop-color="#00c0ff"></stop><stop offset="1" stop-color="#5558ff"></stop></linearGradient><path fill="url(#a)" d="M49 4H15a3.009 3.009 0 0 0-3 3v50a3.009 3.009 0 0 0 3 3h34a3.009 3.009 0 0 0 3-3V7a3.009 3.009 0 0 0-3-3zM25.78 43a2.006 2.006 0 0 1-2 2h-4.22a2 2 0 0 1-2-2v-4.22a1.993 1.993 0 0 1 2-2h4.22a2 2 0 0 1 2 2zm0-12.89a2.006 2.006 0 0 1-2 2h-4.22a2 2 0 0 1-2-2v-4.22a2 2 0 0 1 2-2h4.22a2.006 2.006 0 0 1 2 2zm0-12.89a2 2 0 0 1-2 2h-4.22a1.993 1.993 0 0 1-2-2V13a2 2 0 0 1 2-2h4.22a2.006 2.006 0 0 1 2 2zm15 27h-9.34a1 1 0 0 1 0-2h9.34a1 1 0 0 1 0 2zm4.66-4.66h-14a1 1 0 0 1 0-2h14a1 1 0 0 1 0 2zm-15-9.23a1.003 1.003 0 0 1 1-1h9.34a1 1 0 0 1 0 2h-9.34a.997.997 0 0 1-1-1zm15-3.66h-14a1 1 0 0 1 0-2h14a1 1 0 0 1 0 2zm-15-9.23a1.003 1.003 0 0 1 1-1h9.34a1 1 0 0 1 0 2h-9.34a.997.997 0 0 1-1-1zm15-3.66h-14a1 1 0 0 1 0-2h14a1 1 0 0 1 0 2zM19.56 13h4.22v4.22h-4.22zm0 12.89h4.22v4.22h-4.22zm0 12.89h4.22V43h-4.22z" opacity="1" data-original="url(#a)"></path></g></svg>