<svg xmlns="http://www.w3.org/2000/svg" version="1.1" xmlns:xlink="http://www.w3.org/1999/xlink" width="512" height="512" x="0" y="0" viewBox="0 0 512 512" style="enable-background:new 0 0 512 512" xml:space="preserve" class=""><rect width="512" height="512" rx="102.4" ry="102.4" fill="#bac8d3" shape="rounded"></rect><g transform="matrix(0.5499999999999999,0,0,0.5499999999999999,115.19932708740234,115.20104885101318)"><linearGradient id="a" x1="29.853" x2="482.147" y1="256" y2="256" gradientUnits="userSpaceOnUse"><stop offset=".016" stop-color="#e65233"></stop><stop offset="1" stop-color="#f9a82d"></stop></linearGradient><path fill="url(#a)" fill-rule="evenodd" d="m68.624 408.73-3.037 23.291 329.731 33.317 4.9-42.8c.012-.145.029-.289.05-.434l33.036-288.327-9.938 52.475a6.321 6.321 0 0 1-.161.846l-46.8 247.1a6.374 6.374 0 0 1-6.889 5.17zM427.253 97.211l-15.417 81.4-334.812-29.044a6.447 6.447 0 0 0-1.267.016l15.115-79.811 31.628 2.579-.338 2.585a24.013 24.013 0 0 0 20.661 26.864 24.012 24.012 0 0 0 26.867-20.66l.638-4.887 57.58 4.7-.2 1.513a24.013 24.013 0 0 0 20.663 26.866h.015a24.014 24.014 0 0 0 26.854-20.665l.5-3.816 56.817 4.635-.2 1.547a24.012 24.012 0 0 0 20.658 26.867 24.012 24.012 0 0 0 26.862-20.663l.5-3.85 46.868 3.824zM368.48 86.148l.007-.119a6.456 6.456 0 0 1 .11-.782l1.281-9.81a11.284 11.284 0 0 0-9.266-12.522 6.4 6.4 0 0 1-.835-.109 11.283 11.283 0 0 0-12.158 9.723l-1.5 11.515-.008.119a6.642 6.642 0 0 1-.109.781l-1.011 7.737a11.284 11.284 0 0 0 9.266 12.522 6.525 6.525 0 0 1 .835.109 11.285 11.285 0 0 0 12.159-9.723l1.233-9.441zm76.12 61.208c20.168 167.893 33.379 255.891 37.544 282.5L413.616 417.8zm-32.441 283.156 24.6 4.33-27.681 22.605 3.086-26.935zM263.833 77.607l.008-.114a6.357 6.357 0 0 1 .109-.776l1.286-9.851a11.284 11.284 0 0 0-9.266-12.522 6.548 6.548 0 0 1-.835-.108 11.283 11.283 0 0 0-12.159 9.722l-1.508 11.551-.007.118a6.451 6.451 0 0 1-.11.78l-1.006 7.7a11.286 11.286 0 0 0 9.266 12.523 6.352 6.352 0 0 1 .835.108 11.288 11.288 0 0 0 12.1-9.313 6.5 6.5 0 0 1 .131-.941l1.159-8.88zm-105.41-8.595.008-.118a6.231 6.231 0 0 1 .109-.78l1.146-8.775a11.284 11.284 0 0 0-9.266-12.522 6.374 6.374 0 0 1-.835-.108 11.285 11.285 0 0 0-12.159 9.723l-1.368 10.477-.008.119a6.411 6.411 0 0 1-.109.781l-1.146 8.775a11.284 11.284 0 0 0 9.266 12.522 6.374 6.374 0 0 1 .835.108 11.285 11.285 0 0 0 12.159-9.722zm-84.939 92.573a6.386 6.386 0 0 0 2.441.717l333.521 28.934-44.477 234.853-335.116-34.118zm56.189 189.844-32.354-4.224 4.809-36.835 32.354 4.224zm18.269-41.5-6.459 49.471a6.372 6.372 0 0 1-7.141 5.494l-44.989-5.874a6.371 6.371 0 0 1-5.494-7.141l6.459-49.47a6.37 6.37 0 0 1 7.141-5.493l44.989 5.873a6.372 6.372 0 0 1 5.494 7.142zm-5.242-46.976-31.641-4.131 4.707-36.05 31.641 4.131zm18.166-40.719-6.356 48.685a6.372 6.372 0 0 1-7.141 5.494l-44.269-5.781a6.371 6.371 0 0 1-5.5-7.142l6.356-48.684a6.372 6.372 0 0 1 7.142-5.494l44.275 5.781a6.37 6.37 0 0 1 5.493 7.141zm67.04 140.845-32.355-4.224 4.809-36.834 32.355 4.224zm18.268-41.5-6.458 49.469a6.372 6.372 0 0 1-7.142 5.494l-44.989-5.874a6.37 6.37 0 0 1-5.493-7.141l6.458-49.47a6.371 6.371 0 0 1 7.142-5.493l44.989 5.874a6.37 6.37 0 0 1 5.493 7.141zm-5.233-46.979-31.641-4.128 4.707-36.05 31.64 4.131-4.706 36.05zm18.166-40.718-6.356 48.684a6.372 6.372 0 0 1-7.142 5.494l-44.275-5.781a6.37 6.37 0 0 1-5.493-7.141l6.356-48.685a6.37 6.37 0 0 1 7.141-5.493l44.276 5.78a6.371 6.371 0 0 1 5.493 7.142zm60.167 138.536L286.92 368.2l4.809-36.835 32.354 4.224-4.809 36.835zm18.269-41.5-6.459 49.469a6.371 6.371 0 0 1-7.141 5.494l-44.989-5.874a6.372 6.372 0 0 1-5.494-7.141l6.459-49.47a6.372 6.372 0 0 1 7.141-5.494l44.989 5.874a6.372 6.372 0 0 1 5.494 7.142zm-5.238-46.973-31.64-4.131 4.706-36.05 31.641 4.131zm18.167-40.719-6.357 48.685a6.37 6.37 0 0 1-7.141 5.493l-44.275-5.78a6.372 6.372 0 0 1-5.494-7.142l6.356-48.684a6.372 6.372 0 0 1 7.139-5.498l44.275 5.781a6.372 6.372 0 0 1 5.497 7.145z" opacity="1" data-original="url(#a)"></path></g></svg>