<svg xmlns="http://www.w3.org/2000/svg" version="1.1" xmlns:xlink="http://www.w3.org/1999/xlink" width="512" height="512" x="0" y="0" viewBox="0 0 512 512" style="enable-background:new 0 0 512 512" xml:space="preserve" class=""><rect width="512" height="512" rx="102.4" ry="102.4" fill="#bac8d3" shape="rounded"></rect><g transform="matrix(0.48,0,0,0.48,133.11974113464356,123.12000743865968)"><linearGradient id="a" x1="256" x2="256" y1="8.317" y2="503.683" gradientUnits="userSpaceOnUse"><stop offset="0" stop-color="#fd4785"></stop><stop offset="1" stop-color="#ff9d8c"></stop></linearGradient><path fill="url(#a)" d="M399.522 8.317c-42.206 0-76.543 34.3-76.543 76.46 0 49.276 43.398 93.25 76.547 125.876 33.178-32.632 76.572-76.601 76.572-125.876 0-42.16-34.352-76.46-76.576-76.46zm0 105.38c-18.238 0-33.117-14.86-33.117-33.075s14.879-33.107 33.117-33.107 33.149 14.86 33.149 33.107-14.879 33.075-33.149 33.075zM286.555 352.223a64.522 64.522 0 0 0 9.034-32.981c0-12.714-3.688-24.578-10.031-34.606l41.85-44.006 134.848 130.098-78.253 75.501-97.447-94.006zm-20.966-32.981c0 19.288-15.72 34.98-35.043 34.98s-35.044-15.692-35.044-34.98 15.721-34.98 35.044-34.98 35.043 15.692 35.043 34.98zm-125.031 74.354-52.342-50.524V160.143h5.47L199.457 262.18c-20.212 11.035-33.954 32.474-33.954 57.062a64.56 64.56 0 0 0 11.168 36.368l-36.112 37.986zM35.683 419.254c-9.953 0-19.409 2.674-27.684 7.312V85.32c0-14.617 12.937-27.438 27.684-27.438h22.533v361.372zm198.918-164.853-97.707-94.258h180.182c5.942 9.539 12.622 18.617 19.614 27.195l-72.548 76.284a64.641 64.641 0 0 0-29.542-9.221zm247.397-94.258h22.001v209.172L348.083 218.89l8.542-8.982c8.544 9.037 16.967 17.319 24.552 24.777 2.688 2.643 5.288 5.199 7.77 7.666 2.926 2.908 6.75 4.362 10.575 4.362s7.646-1.453 10.57-4.357c2.465-2.448 5.045-4.983 7.713-7.604 19.941-19.592 45.661-44.866 64.193-74.609zM119.888 415.34l-83.984 88.343h-.892C20.117 503.683 8 491.575 8 476.692c0-14.617 12.937-27.438 27.684-27.438h37.533c8.284 0 15-6.716 15-15v-49.485zm363.972-23.769 20.14 19.43v92.681h-60.44l-37.951-36.611 78.252-75.5zM177.703 502.807l.845.876H77.296l121.472-127.776a64.675 64.675 0 0 0 31.779 8.315c12.967 0 25.049-3.826 35.205-10.385l22.814 22.009zm132.468-86.119 90.179 86.995H220.003z" opacity="1" data-original="url(#a)"></path></g></svg>