<svg xmlns="http://www.w3.org/2000/svg" version="1.1" xmlns:xlink="http://www.w3.org/1999/xlink" width="512" height="512" x="0" y="0" viewBox="0 0 64 64" style="enable-background:new 0 0 512 512" xml:space="preserve" class=""><rect width="64" height="64" rx="12.8" ry="12.8" fill="#bac8d3" shape="rounded"></rect><g transform="matrix(0.5499999999999999,0,0,0.5499999999999999,14.40000321865082,14.400012874603274)"><linearGradient id="a" x1="4" x2="60" y1="32" y2="32" gradientUnits="userSpaceOnUse"><stop offset="0" stop-color="#00c0ff"></stop><stop offset="1" stop-color="#5558ff"></stop></linearGradient><path fill="url(#a)" d="M60 29.26v21.81a5.884 5.884 0 0 1-.81 3L42.77 38.02 60 29.26zM33.36 42.81a3.05 3.05 0 0 1-2.72 0L23.1 39 6.28 55.77a5.901 5.901 0 0 0 3.72 1.3h44a5.929 5.929 0 0 0 3.91-1.45L40.89 38.98zM13 21.62l-8.14 5.92s6.872 3.491 8.14 4.12zm46.07 5.87L51 21.62v9.97c1.46-.742 6.709-3.41 8.07-4.1zM32 19.5a3.755 3.755 0 0 0 0 7.51 3.755 3.755 0 0 0 0-7.51zM4 29.35v21.72a5.892 5.892 0 0 0 .94 3.21c.725-.7 15.133-15.105 16.27-16.23C16.893 35.856 4 29.35 4 29.35zm11 3.32c-.005-1.78 0-22.74 0-22.74a3.009 3.009 0 0 1 3-3h28a3.009 3.009 0 0 1 3 3s.004 20.849 0 22.68c-4.733 2.43-11.759 5.965-16.55 8.42a1.017 1.017 0 0 1-.9 0c-2.919-1.48-15.554-7.863-16.55-8.36zm17 1.55a1 1 0 0 0 0-2c-10.693-.188-12.297-15.423-1.81-17.75a9.026 9.026 0 0 1 10.77 8.79v3.31a1.6 1.6 0 0 1-3.2 0v-3.31A5.768 5.768 0 0 0 32 17.5c-7.606.242-7.615 11.265 0 11.51a5.744 5.744 0 0 0 3.88-1.52 3.6 3.6 0 0 0 7.08-.92v-3.31c-.277-13.131-18.807-15.054-21.71-2.2A11.048 11.048 0 0 0 32 34.22z" opacity="1" data-original="url(#a)"></path></g></svg>