<svg xmlns="http://www.w3.org/2000/svg" version="1.1" xmlns:xlink="http://www.w3.org/1999/xlink" width="512" height="512" x="0" y="0" viewBox="0 0 512 512" style="enable-background:new 0 0 512 512" xml:space="preserve"><rect width="512" height="512" rx="102.4" ry="102.4" fill="#bac8d3" shape="rounded"></rect><g transform="matrix(0.5499999999999999,0,0,0.5499999999999999,115.20022659301759,115.19999957084656)"><linearGradient id="a" x1="129.74" x2="388.365" y1="475.628" y2="27.677" gradientUnits="userSpaceOnUse"><stop offset=".016" stop-color="#e65233"></stop><stop offset="1" stop-color="#f9a82d"></stop></linearGradient><path fill="url(#a)" fill-rule="evenodd" d="M379.086 496a79.147 79.147 0 0 0 0-158.294h-.012A79.147 79.147 0 0 0 379.086 496zm24.792-46.324a8.017 8.017 0 1 1 8.019-8.014 8.021 8.021 0 0 1-8.019 8.014zm-57.6-57.626a8.019 8.019 0 1 1 8.018 8.015 8.032 8.032 0 0 1-8.018-8.015zm59.546-10.868-43.6 75.52a5.7 5.7 0 1 1-9.869-5.694l43.6-75.524a5.7 5.7 0 0 1 9.866 5.7zm-70.943 10.868a19.411 19.411 0 1 1 19.412 19.407 19.436 19.436 0 0 1-19.412-19.407zm69 30.2a19.409 19.409 0 1 1-19.413 19.412 19.432 19.432 0 0 1 19.413-19.412zm2.3-371.853a5.784 5.784 0 0 1 5.745 5.8v274.035a91.39 91.39 0 0 0-26.082-5.774V50.4zM91.51 26.2v30.776a5.8 5.8 0 0 1-5.8 5.8H61.316zm7.6 430.844a5.8 5.8 0 0 1-5.8-5.8v-15.102H288.5a88.708 88.708 0 0 0 7.155 20.9zm7.212-335.811a9 9 0 1 1-9.013 9 9.025 9.025 0 0 1 9.017-8.998zm65.964 65.976a9.013 9.013 0 1 1-9.012-9 9.027 9.027 0 0 1 9.016 9.002zM59.513 422.651h227.131q-.166-2.882-.169-5.8a91.923 91.923 0 0 1 9.126-40.081H92.469a6.746 6.746 0 0 1 0-13.492H303.6a92.813 92.813 0 0 1 22.871-22.617h-234a6.746 6.746 0 0 1 0-13.492h241.154a6.77 6.77 0 0 1 6.648 5.589 91.772 91.772 0 0 1 32.109-8.3V21.792a5.8 5.8 0 0 0-5.8-5.792H104.973v40.976a19.287 19.287 0 0 1-19.265 19.289h-31.94v340.589a5.789 5.789 0 0 0 5.745 5.8zm46.869-215.589a6.765 6.765 0 0 1-2.479-9.215l50.08-86.736a6.761 6.761 0 0 1 11.717 6.75L115.621 204.6a6.786 6.786 0 0 1-9.239 2.467zm56.9-42.344a22.5 22.5 0 1 1-22.482 22.493 22.509 22.509 0 0 1 22.477-22.493zm-79.433-34.482a22.477 22.477 0 1 1 22.477 22.5 22.515 22.515 0 0 1-22.477-22.5zm133.056 46.93a6.746 6.746 0 1 1 0-13.491h116.72a6.746 6.746 0 1 1 0 13.491zm0-36.1a6.749 6.749 0 1 1 0-13.5h116.72a6.749 6.749 0 1 1 0 13.5zm123.48 93.054a6.766 6.766 0 0 1-6.76 6.748H92.469a6.748 6.748 0 0 1 0-13.5h241.156a6.763 6.763 0 0 1 6.76 6.748zm-6.76 29.361a6.746 6.746 0 1 1 0 13.491H92.469a6.746 6.746 0 0 1 0-13.491z" opacity="1" data-original="url(#a)"></path></g></svg>