<svg xmlns="http://www.w3.org/2000/svg" version="1.1" xmlns:xlink="http://www.w3.org/1999/xlink" width="512" height="512" x="0" y="0" viewBox="0 0 512 512" style="enable-background:new 0 0 512 512" xml:space="preserve" class=""><rect width="512" height="512" rx="102.4" ry="102.4" fill="#bac8d3" shape="rounded"></rect><g transform="matrix(0.5499999999999999,0,0,0.5499999999999999,115.19999313354492,115.22249450683597)"><linearGradient id="a" x1="57.945" x2="454.065" y1="454.06" y2="57.94" gradientTransform="matrix(1 0 0 -1 0 512)" gradientUnits="userSpaceOnUse"><stop offset="0" stop-color="#459dff"></stop><stop offset="1" stop-color="#0056b3"></stop></linearGradient><path fill="url(#a)" d="M204.8 135.3c0 12.1-9.8 21.9-21.9 21.9s-21.9-9.8-21.9-21.9 9.8-21.9 21.9-21.9 21.9 9.8 21.9 21.9zm51.2-21.9c-12.1 0-21.9 9.8-21.9 21.9s9.8 21.9 21.9 21.9 21.9-9.8 21.9-21.9-9.8-21.9-21.9-21.9zm73.1 0c-12.1 0-21.9 9.8-21.9 21.9s9.8 21.9 21.9 21.9 21.9-9.8 21.9-21.9-9.7-21.9-21.9-21.9zm-146.2 73.1c-12.1 0-21.9 9.8-21.9 21.9s9.8 21.9 21.9 21.9 21.9-9.8 21.9-21.9-9.8-21.9-21.9-21.9zm73.1 0c-12.1 0-21.9 9.8-21.9 21.9s9.8 21.9 21.9 21.9 21.9-9.8 21.9-21.9-9.8-21.9-21.9-21.9zm73.1 0c-12.1 0-21.9 9.8-21.9 21.9s9.8 21.9 21.9 21.9 21.9-9.8 21.9-21.9-9.7-21.9-21.9-21.9zm-146.2 73.1c-12.1 0-21.9 9.8-21.9 21.9s9.8 21.9 21.9 21.9 21.9-9.8 21.9-21.9-9.8-21.9-21.9-21.9zm73.1 0c-12.1 0-21.9 9.8-21.9 21.9s9.8 21.9 21.9 21.9 21.9-9.8 21.9-21.9-9.8-21.9-21.9-21.9zm0 73.2c-12.1 0-21.9 9.8-21.9 21.9s9.8 21.9 21.9 21.9 21.9-9.8 21.9-21.9-9.8-21.9-21.9-21.9zm73.1-73.2c-12.1 0-21.9 9.8-21.9 21.9s9.8 21.9 21.9 21.9 21.9-9.8 21.9-21.9-9.7-21.9-21.9-21.9zM384 0H128c-16.2 0-29.3 13.1-29.3 29.3v453.5c0 16.2 13.1 29.3 29.3 29.3h256c16.2 0 29.3-13.1 29.3-29.3V29.3C413.3 13.1 400.2 0 384 0zM223.1 25.6h65.8c4 0 7.3 3.3 7.3 7.3s-3.3 7.3-7.3 7.3h-65.8c-4 0-7.3-3.3-7.3-7.3s3.2-7.3 7.3-7.3zm54.8 468.1H234c-10.1 0-18.3-8.2-18.3-18.3s8.2-18.3 18.3-18.3h43.9c10.1 0 18.3 8.2 18.3 18.3s-8.2 18.3-18.3 18.3zm120.7-76.8c0 12.1-9.8 21.9-21.9 21.9H135.3c-12.1 0-21.9-9.8-21.9-21.9V36.6c0-12.1 9.8-21.9 21.9-21.9h40.2l15.6 25.9c4 6.6 11.1 10.6 18.8 10.6h92.2c7.7 0 14.9-4 18.8-10.7l15.5-25.9h40.2c12.1 0 21.9 9.8 21.9 21.9z" opacity="1" data-original="url(#a)"></path></g></svg>