<svg xmlns="http://www.w3.org/2000/svg" version="1.1" xmlns:xlink="http://www.w3.org/1999/xlink" width="512" height="512" x="0" y="0" viewBox="0 0 64 64" style="enable-background:new 0 0 512 512" xml:space="preserve" class=""><rect width="64" height="64" rx="12.8" ry="12.8" fill="#bac8d3" shape="rounded"></rect><g transform="matrix(0.5499999999999999,0,0,0.5499999999999999,14.399999678134918,14.400000858306889)"><linearGradient id="a" x1="4" x2="60" y1="32" y2="32" gradientUnits="userSpaceOnUse"><stop offset="0" stop-color="#00c0ff"></stop><stop offset="1" stop-color="#5558ff"></stop></linearGradient><path fill="url(#a)" d="M57 21.95c-5.085.008-35.242-.005-41 0a2.996 2.996 0 0 0-3 3c.001 5.415 0 17.9 0 23.15a2.996 2.996 0 0 0 3 3h41a3.002 3.002 0 0 0 3-3V24.95a3.002 3.002 0 0 0-3-3zm-38.73 6.93h10.16a1 1 0 0 1 0 2H18.27a1 1 0 0 1 0-2zm.11 6.65H29.9a1 1 0 0 1 0 2H18.38a1 1 0 0 1 0-2zM32 44.17H18.52a1 1 0 0 1 0-2H32a1 1 0 0 1 0 2zm23.48-7.58c.091 8.269-9.874 13-16.18 7.83-7.352-5.761-3.32-17.946 6.19-17.95a10.01 10.01 0 0 1 9.99 10.12zM16 19.95a5.002 5.002 0 0 0-5 5v17.1H7.25A3.258 3.258 0 0 1 4 38.79V16.16a3.258 3.258 0 0 1 3.25-3.26h40.52a3.258 3.258 0 0 1 3.25 3.26v3.79zm33.72 23.41a7.96 7.96 0 0 1-8.47 0 4.75 4.75 0 0 1 8.47 0zm1.58-1.29a6.782 6.782 0 0 0-2.89-2.65 3.89 3.89 0 1 0-5.84 0 6.664 6.664 0 0 0-2.89 2.65c-4.774-4.962-1.213-13.654 5.81-13.6 7.015-.053 10.587 8.636 5.81 13.6zm-7.7-5.22a1.89 1.89 0 0 1 3.78 0 1.89 1.89 0 0 1-3.78 0z" opacity="1" data-original="url(#a)"></path></g></svg>