<svg xmlns="http://www.w3.org/2000/svg" version="1.1" xmlns:xlink="http://www.w3.org/1999/xlink" width="512" height="512" x="0" y="0" viewBox="0 0 50 50" style="enable-background:new 0 0 512 512" xml:space="preserve" class=""><rect width="50" height="50" rx="10" ry="10" fill="#bac8d3" shape="rounded"></rect><g transform="matrix(0.5499999999999999,0,0,0.5499999999999999,11.25,11.25)"><linearGradient id="a" x1="25" x2="25" y1="49" y2="1" gradientUnits="userSpaceOnUse"><stop offset="0" stop-color="#0fb2d8"></stop><stop offset="1" stop-color="#1dffe4"></stop></linearGradient><path fill="url(#a)" d="M18 22.5h-6V14c0-7.18 5.82-13 13-13s13 5.82 13 13v8.5h-6V14c0-3.87-3.13-7-7-7s-7 3.13-7 7zM42 28v18c0 1.66-1.34 3-3 3H11c-1.66 0-3-1.34-3-3V28c0-1.66 1.34-3 3-3h28c1.66 0 3 1.34 3 3zm-15.75 9a1.25 1.25 0 0 0-2.5 0v4a1.25 1.25 0 0 0 2.5 0z" opacity="1" data-original="url(#a)"></path></g></svg>