<svg xmlns="http://www.w3.org/2000/svg" version="1.1" xmlns:xlink="http://www.w3.org/1999/xlink" width="512" height="512" x="0" y="0" viewBox="0 0 50 50" style="enable-background:new 0 0 512 512" xml:space="preserve" class=""><rect width="50" height="50" rx="10" ry="10" fill="#bac8d3" shape="rounded"></rect><g transform="matrix(0.5499999999999999,0,0,0.5499999999999999,11.250002574920655,11.25)"><linearGradient id="a" x1="25" x2="25" y1="49.5" y2=".5" gradientUnits="userSpaceOnUse"><stop offset="0" stop-color="#0fb2d8"></stop><stop offset="1" stop-color="#1dffe4"></stop></linearGradient><path fill="url(#a)" d="M47.5 44v4c0 .83-.67 1.5-1.5 1.5H4c-.83 0-1.5-.67-1.5-1.5v-4c0-8.09 4.3-15.37 11.05-19.35 2.91 2.99 6.96 4.85 11.45 4.85s8.54-1.86 11.45-4.85A22.431 22.431 0 0 1 47.5 44zM25 26.5c7.17 0 13-5.83 13-13S32.17.5 25 .5s-13 5.83-13 13 5.83 13 13 13z" opacity="1" data-original="url(#a)"></path></g></svg>