<svg xmlns="http://www.w3.org/2000/svg" version="1.1" xmlns:xlink="http://www.w3.org/1999/xlink" width="512" height="512" x="0" y="0" viewBox="0 0 64 64" style="enable-background:new 0 0 512 512" xml:space="preserve"><rect width="64" height="64" rx="12.8" ry="12.8" fill="#bac8d3" shape="rounded"></rect><g transform="matrix(0.5499999999999999,0,0,0.5499999999999999,14.400063943862914,14.400001287460327)"><linearGradient id="a" x1="4" x2="60" y1="32" y2="32" gradientUnits="userSpaceOnUse"><stop offset="0" stop-color="#ff81ff"></stop><stop offset="1" stop-color="#a93aff"></stop></linearGradient><path fill="url(#a)" d="M32 6.434c7.715.244 7.717 11.433 0 11.678-7.715-.244-7.717-11.432 0-11.678zM24.24 26.341H39.75a1.014 1.014 0 0 0 .97-1.27 9.055 9.055 0 0 0-17.438 0 1.003 1.003 0 0 0 .96 1.27zM12.763 49.337c7.717-.245 7.715-11.433 0-11.678-7.717.246-7.715 11.434 0 11.678zm0 .36a9.07 9.07 0 0 0-8.719 6.6.996.996 0 0 0 .96 1.269h15.518a1.007 1.007 0 0 0 .96-1.27 9.08 9.08 0 0 0-8.719-6.599zm38.474-.36c7.717-.245 7.715-11.433 0-11.678-7.717.246-7.715 11.434 0 11.678zm8.719 6.96a9.06 9.06 0 0 0-17.438 0 1.008 1.008 0 0 0 .96 1.269h15.518a.996.996 0 0 0 .96-1.27zm-39.438-8.84a.995.995 0 0 0 .483-.125l10.995-6.088L43 47.332a1 1 0 1 0 .968-1.75l-10.971-6.07V28.462a1 1 0 0 0-2 0v11.049l-10.963 6.07a1.006 1.006 0 0 0 .485 1.875z" opacity="1" data-original="url(#a)"></path></g></svg>