<svg xmlns="http://www.w3.org/2000/svg" version="1.1" xmlns:xlink="http://www.w3.org/1999/xlink" width="512" height="512" x="0" y="0" viewBox="0 0 128 128" style="enable-background:new 0 0 512 512" xml:space="preserve"><rect width="128" height="128" rx="25.6" ry="25.6" fill="#bac8d3" shape="rounded"></rect><g transform="matrix(0.6,0,0,0.6,25.6,20.598356628417967)"><linearGradient id="a" x1="8" x2="120" y1="64" y2="64" gradientUnits="userSpaceOnUse"><stop offset="0" stop-color="#82f4b1"></stop><stop offset="1" stop-color="#30c67c"></stop></linearGradient><path fill="url(#a)" d="M65.714 48.45a53.785 53.785 0 0 0 3.979 7.05q2.507 3.824 6.007 8.22a164.073 164.073 0 0 0 7.206 8.381c3.058-3.334 5.968-6.762 8.455-9.969a129.116 129.116 0 0 0 3.079-4.148c6.276-8.931 7.588-13.852 7.588-16.4a19.119 19.119 0 1 0-38.233 0 17.57 17.57 0 0 0 1.9 6.868zm17.2-19.82A11.963 11.963 0 1 1 70.952 40.6 11.977 11.977 0 0 1 82.91 28.63zM120 105.836H87.5l-2.932-6.825a2.731 2.731 0 0 1-.317-1.482c.243-2.434 5.323-5.862 14.54-7.725a33.23 33.23 0 0 0 10.994-4.455l3.863-2.412A55.905 55.905 0 0 1 120 105.836zM46.18 62.958a32.684 32.684 0 0 1-6.434-4.5 56.093 56.093 0 0 1 21.132-5.439 77.2 77.2 0 0 0 6.138 9.757 12.366 12.366 0 0 0-1.312.508l-3.376 1.587a12.927 12.927 0 0 1-8.487.974 32.685 32.685 0 0 1-7.661-2.887zm7.958 33.989c.825 1.45.8 3.09.783 5.175-.011.381-.011.762-.011 1.143v2.571H8a55.584 55.584 0 0 1 3.481-16.5L15.746 88c.878-.286 1.757-.593 2.646-.9a33 33 0 0 1 6.063-1.714c2.106-.3 4.074.063 5.016.91a2.916 2.916 0 0 1 .645.889 9.28 9.28 0 0 0 1.873 2.466c2.688 2.518 5.778 2.709 9.037 2.91 1.006.063 2.053.137 3.186.264 4.751.545 8.243 1.159 9.926 4.122zm23.8-.074a8.926 8.926 0 0 0 .846 4.73l1.81 4.233H61.259v-2.571c0-.36 0-.709.011-1.059.032-2.56.063-5.449-1.609-8.4-3.407-5.989-9.947-6.74-14.719-7.291a65.054 65.054 0 0 0-3.513-.285c-2.826-.18-4.117-.3-5.1-1.217a3.047 3.047 0 0 1-.667-.921 8.681 8.681 0 0 0-1.926-2.5c-3.386-3.069-8.232-2.773-10.169-2.5a37.356 37.356 0 0 0-7.27 2.011c-.391.127-.772.254-1.153.391A56.47 56.47 0 0 1 33.894 61.7a38.978 38.978 0 0 0 18.455 10.316 18.173 18.173 0 0 0 4.286.508 19.787 19.787 0 0 0 8.4-1.905l3.365-1.587a5.5 5.5 0 0 1 3.069-.466 160.998 160.998 0 0 0 7.439 8.55 5.49 5.49 0 0 0 8.021-.01c3.418-3.683 6.688-7.513 9.45-11.09.466-.6.931-1.206 1.365-1.788.032.021.053.042.085.063A55.52 55.52 0 0 1 110.381 77.5l-3.958 2.466a26.851 26.851 0 0 1-8.889 3.608c-11.834 2.4-18.973 7.246-19.597 13.299zM76.434 40.6a6.482 6.482 0 1 1 6.475 6.475 6.489 6.489 0 0 1-6.475-6.475z" data-name="20 globe" opacity="1" data-original="url(#a)"></path></g></svg>