<?xml version="1.0"?>
<svg xmlns="http://www.w3.org/2000/svg" height="512px" viewBox="-95 0 470 470.00602" width="512px"><g><path d="m222.003906 97.511719v-51.511719h14.539063c4.589843-.15625 8.277343-3.824219 8.460937-8.410156v-30c0-4.417969-4.042968-7.589844-8.460937-7.589844h-193.523438c-4.417969 0-8.015625 3.171875-8.015625 7.589844v30c0 4.417968 3.597656 8.410156 8.015625 8.410156h14.984375v51.519531c-32 .964844-57.99999975 27.300781-57.99999975 59.554688v213.441406c.02343755 23.011719 13.24218775 43.96875 33.99999975 53.898437v37.996094c0 4.417969 3.859375 7.589844 8.277344 7.589844h194.996094c2.050781.082031 4.042968-.6875 5.503906-2.125 1.464844-1.4375 2.269531-3.414062 2.222656-5.464844v-37.945312c21.300782-9.492188 35.015625-30.632813 35-53.953125v-213.441407c-.019531-32.28125-25.730468-58.683593-58-59.558593zm-171-81.511719h178v14h-178zm155 30v51h-37v-27.855469c.011719-4.445312-3.554687-8.074219-8-8.144531h-42c-4.445312.070312-8.011718 3.699219-8 8.144531v27.855469h-37v-51zm-53 51h-26v-20h26zm-137 129h248v64h-248zm213 228h-179v-24.636719c3.1875.460938 6.40625.671875 9.628906.636719h160.328126c3.027343.035156 6.050781-.171875 9.042968-.621094zm-9.042968-40h-160.324219c-24.046875.015625-43.570313-19.441406-43.632813-43.488281v-64.511719h248v64.445312c0 24.082032-19.964844 43.554688-44.042968 43.554688zm44.042968-204h-248v-52.917969c0-24.027343 19.605469-44.082031 43.628906-44.082031h160.734376c24.03125 0 43.636718 20.054688 43.636718 44.074219zm0 0" data-original="#000000" class="active-path" data-old_color="#000000" fill="#FFFFFF"/></g> </svg>
