<?xml version="1.0"?>
<svg xmlns="http://www.w3.org/2000/svg" height="512px" viewBox="-52 0 475 475.00629" width="512px" class=""><g><path d="m368.921875 307.703125c1.5-1.5 2.34375-3.539063 2.34375-5.660156 0-2.125-.84375-4.160157-2.34375-5.660157l-105.65625-105.570312-10.21875-61.308594 20.539063-20.539062c13.859374 8.175781 31.640624 4.761718 41.484374-7.96875 9.84375-12.730469 8.679688-30.796875-2.71875-42.15625-12.667968-12.074219-32.585937-12.074219-45.253906 0-10.347656 10.292968-12.332031 26.320312-4.800781 38.824218l-20.496094 20.496094-61.320312-10.21875-105.679688-105.597656c-3.125-3.125-8.1875-3.125-11.3125 0-8.351562 8.34375-15.988281 17.367188-22.839843 26.984375-60.945313 84.402344-52.574219 200.367187 19.863281 275.140625-.804688 3.457031-1.222657 6.988281-1.246094 10.539062.011719 1.871094.128906 3.738282.351563 5.597657l-23.847657 63.59375c-.335937.898437-.507812 1.847656-.503906 2.808593v29.597657l-14.65625 21.984375c-.871094 1.308594-1.335937 2.84375-1.34375 4.417968v24c0 4.417969 3.582031 8 8 8h160c4.417969 0 8-3.582031 8-8v-24c-.003906-1.582031-.472656-3.125-1.34375-4.441406l-14.65625-21.960937v-29.597657c0-.964843-.171875-1.917968-.511719-2.816406l-6.6875-17.738281c14.523438 3.027344 29.320313 4.554687 44.160156 4.554687 45.105469.121094 89.097657-14.035156 125.671876-40.441406 9.628906-6.851562 18.667968-14.5 27.023437-22.863281zm-90.503906-237.542969c4.015625-4.160156 9.964843-5.828125 15.558593-4.363281 5.59375 1.460937 9.964844 5.832031 11.425782 11.425781 1.464844 5.59375-.203125 11.542969-4.363282 15.558594-6.328124 6.046875-16.292968 6.046875-22.621093 0-6.246094-6.246094-6.246094-16.375 0-22.621094zm-34.632813 101.09375-16.257812-16.246094 11.609375-11.609374zm-15.929687-39.199218-11.640625 11.640624-16.300782-16.289062zm-176.589844 256.398437 17.0625-45.445313c15.109375 21.144532 44.332031 26.371094 65.832031 11.773438 6.402344 2.632812 12.71875 4.90625 18.976563 6.785156l10.128906 26.894532v22.546874h-112zm24-73.445313c0-17.675781 14.324219-32 32-32 17.671875 0 32 14.324219 32 32 0 17.671876-14.328125 32-32 32-17.675781 0-32-14.328124-32-32zm104 130.398438v13.601562h-144v-13.601562l12.277344-18.398438h119.441406zm36.960937-90.398438c-18.542968.007813-36.992187-2.5625-54.824218-7.632812-4.890625-1.351562-9.851563-3.039062-14.832032-4.898438 10.394532-14.128906 12.25-32.808593 4.839844-48.710937-7.40625-15.898437-22.902344-26.492187-40.40625-27.628906-17.507812-1.132813-34.238281 7.375-43.636718 22.191406-60.503907-66.917969-68.292969-166.214844-18.957032-241.746094l276.285156 276.207031c-32.246093 21.078126-69.945312 32.277344-108.46875 32.21875zm-158.5625-321.761718c3.632813-4.75 7.433594-9.414063 11.527344-13.855469l101.738282 101.664063 78.792968 78.792968c.117188.132813.238282.277344.367188.414063l101.742187 101.671875c-4.429687 4.089844-9.09375 7.878906-13.847656 11.519531zm0 0" data-original="#000000" class="active-path" data-old_color="#000000" fill="#FFFFFF"/><path d="m123.265625 315.007812c0 8.835938-7.164063 16-16 16s-16-7.164062-16-16c0-8.839843 7.164063-16 16-16s16 7.160157 16 16zm0 0" data-original="#000000" class="active-path" data-old_color="#000000" fill="#FFFFFF"/><path d="m99.265625 379.007812h16v16h-16zm0 0" data-original="#000000" class="active-path" data-old_color="#000000" fill="#FFFFFF"/><path d="m131.265625 379.007812h16v16h-16zm0 0" data-original="#000000" class="active-path" data-old_color="#000000" fill="#FFFFFF"/><path d="m67.265625 379.007812h16v16h-16zm0 0" data-original="#000000" class="active-path" data-old_color="#000000" fill="#FFFFFF"/><path d="m208.328125 323.007812c-10.210937-.179687-20.375-1.445312-30.320313-3.769531l-3.640624 15.585938c11.054687 2.578125 22.347656 3.980469 33.699218 4.183593zm0 0" data-original="#000000" class="active-path" data-old_color="#000000" fill="#FFFFFF"/><path d="m283.832031 321.503906-7.289062-14.242187c-14.246094 7.304687-29.617188 12.171875-45.46875 14.402343l2.222656 15.847657c17.621094-2.476563 34.703125-7.886719 50.535156-16.007813zm0 0" data-original="#000000" class="active-path" data-old_color="#000000" fill="#FFFFFF"/></g> </svg>
