<svg xmlns="http://www.w3.org/2000/svg" version="1.1" xmlns:xlink="http://www.w3.org/1999/xlink" width="512" height="512" x="0" y="0" viewBox="0 0 496 496" style="enable-background:new 0 0 512 512" xml:space="preserve"><rect width="496" height="496" rx="99.2" ry="99.2" fill="#bac8d3" shape="rounded"></rect><g transform="matrix(0.57,0,0,0.57,106.64000000000001,116.64000000000001)"><linearGradient id="a" x1="248" x2="248" y1="496" y2="0" gradientUnits="userSpaceOnUse"><stop offset="0" stop-color="#9f2fff"></stop><stop offset="1" stop-color="#0bb1d3"></stop></linearGradient><path fill="url(#a)" d="M464 336h-56v-16h40v-40h16zM32 280v56h56v-16H48v-40zm0-224h16V16h40V0H32zm432 0V0h-56v16h40v40zm16 88h16v48h-16v-16H368v16h-16v-16h-16v24c0 21-7.281 40.719-20.426 56.36a23.814 23.814 0 0 1 14.211 7.671c12.742-16.254 20.488-35.953 21.95-56.597l15.952 1.125c-1.632 23.074-10.07 45.066-23.917 63.457.085.007.152-.016.23-.016 13.23 0 24 10.77 24 24v108.777c0 9.047-3.121 17.918-8.77 24.993l-17.964 22.468A24.026 24.026 0 0 0 336 467.223V496H208v-28.777c0-5.43-1.863-10.75-5.266-14.993l-19.78-24.726a40.071 40.071 0 0 1-8.212-18.414l-14.398-86.363a26.149 26.149 0 0 1-.344-4.176v-5.567c-.008-6.671 2.586-12.945 7.305-17.664s10.992-7.32 17.664-7.32c12.75 0 23.312 8.785 25.511 20.871L221 366.855a11.178 11.178 0 0 0 2.992 5.786v-87.97c-14.496-4.105-27.672-11.862-38.426-22.694l11.364-11.266a71.764 71.764 0 0 0 27.062 17.137v-17.344c-16.398-7.793-28.191-23.063-31.222-41.184l15.78-2.64c1.723 10.242 7.372 19.191 15.45 25.258V176h-16v16h-16v-16h-16v24a71.83 71.83 0 0 0 10.063 36.68l-13.75 8.168A87.757 87.757 0 0 1 160 200v-24h-16v24c0 24.61 8.793 48.496 24.754 67.273l-12.188 10.36C138.145 255.977 128 228.406 128 200v-24H16v16H0v-48h16v16h112v-24c0-66.168 53.832-120 120-120s120 53.832 120 120v24h112zM312 272c-4.414 0-8 3.586-8 8v96h-16V264c0-4.414-3.586-8-8-8s-8 3.586-8 8v112h-16V168c0-4.414-3.586-8-8-8s-8 3.586-8 8v224h-8c-13.145 0-24.383-9.367-26.734-22.281l-10.532-57.985c-.812-4.488-4.75-7.734-9.367-7.734-2.8 0-5.047.93-6.742 2.625s-2.625 3.95-2.625 6.352v5.574c0 .52.04 1.05.129 1.562l14.398 86.352a24.015 24.015 0 0 0 4.922 11.039l19.79 24.726c5.64 7.075 8.761 15.946 8.761 24.993V480h96v-12.777c0-9.047 3.121-17.918 8.77-24.993l17.964-22.468A24.026 24.026 0 0 0 352 404.777V296c0-4.414-3.586-8-8-8s-8 3.586-8 8v80h-16v-96c0-4.414-3.586-8-8-8zm8-96h-16v24c0 9.887-2.61 19.602-7.55 28.105l-13.833-8.05C286.145 214 288 207.062 288 200v-24h-16v65.473c2.512-.899 5.184-1.473 8-1.473 8.055 0 15.16 4.023 19.52 10.129C312.594 236.769 320 219.047 320 200zm32-16v-24c0-57.344-46.656-104-104-104S144 78.656 144 136v24h16v-16h16v16h16v-24c0-18.809 9.36-36.246 25.031-46.664l8.856 13.328C214.687 110.105 208 122.56 208 136v24h17.473c3.312-9.29 12.113-16 22.527-16s19.215 6.71 22.527 16H288v-16h16v16h16v-24c0-12.64-3.336-25.09-9.656-35.992l13.84-8.016A87.883 87.883 0 0 1 336 136v24zm-191.559-32.8 15.918 1.593C180.04 91.848 210.832 64 248 64c19.457 0 37.695 7.672 51.367 21.602l11.426-11.204C294.078 57.375 271.785 48 248 48c-45.414 0-83.063 34.055-87.559 79.2zM248 80c-3.137 0-6.266.258-9.328.777l2.656 15.782A39.505 39.505 0 0 1 248 96c19.617 0 36.2 14.016 39.45 33.328l15.78-2.656C298.687 99.632 275.465 80 248 80zm0 0" opacity="1" data-original="url(#a)"></path></g></svg>