<svg xmlns="http://www.w3.org/2000/svg" version="1.1" xmlns:xlink="http://www.w3.org/1999/xlink" width="512" height="512" x="0" y="0" viewBox="0 0 512 512" style="enable-background:new 0 0 512 512" xml:space="preserve"><rect width="512" height="512" rx="102.4" ry="102.4" fill="#bac8d3" shape="rounded"></rect><g transform="matrix(0.6699999999999999,0,0,0.6699999999999999,84.48000000000002,74.47989048004155)"><linearGradient id="a" x1="68.634" x2="385.789" y1="450.671" y2="133.516" gradientUnits="userSpaceOnUse"><stop offset=".009" stop-color="#cc5b71"></stop><stop offset="1" stop-color="#1493f2"></stop></linearGradient><path fill="url(#a)" d="M38.526 319.782v78.311c0 23.134 18.825 41.954 41.954 41.954h8.196v26.307c0 5.808 4.704 10.517 10.517 10.517s10.517-4.709 10.517-10.517v-26.307h292.58v26.307c0 5.808 4.704 10.517 10.517 10.517s10.517-4.709 10.517-10.517v-26.307h8.196c23.129 0 41.954-18.82 41.954-41.954v-78.311c0-23.134-18.826-41.954-41.954-41.954H180.156l44.15-85.767c2.66-5.161.626-11.503-4.529-14.163-5.156-2.645-11.513-.632-14.163 4.539l-41.985 81.551L82.904 81.896c-2.352-5.31-8.555-7.734-13.875-5.351-5.31 2.352-7.703 8.565-5.351 13.875l83.077 187.408H80.48c-23.128 0-41.954 18.82-41.954 41.954zm413.914 0v78.311c0 11.534-9.387 20.921-20.921 20.921H80.48c-11.534 0-20.921-9.387-20.921-20.921v-78.311c0-11.534 9.387-20.921 20.921-20.921h351.04c11.533.001 20.92 9.388 20.92 20.921zm-328.239 39.156c0 5.808-4.704 10.517-10.517 10.517h-6.07c-5.813 0-10.517-4.709-10.517-10.517s4.704-10.517 10.517-10.517h6.07c5.813 0 10.517 4.709 10.517 10.517zm32.988-10.517h6.07c5.813 0 10.517 4.709 10.517 10.517s-4.704 10.517-10.517 10.517h-6.07c-5.813 0-10.517-4.709-10.517-10.517s4.704-10.517 10.517-10.517zm39.058 10.517c0-5.808 4.704-10.517 10.517-10.517h6.07c5.813 0 10.517 4.709 10.517 10.517s-4.704 10.517-10.517 10.517h-6.07c-5.813 0-10.517-4.709-10.517-10.517zm94.148-312.069c27.329 13.418 47.798 36.639 57.637 65.386 1.879 5.495-1.048 11.477-6.552 13.357-5.43 1.868-11.445-.998-13.351-6.547-8.021-23.437-24.71-42.37-46.997-53.313-22.287-10.938-47.439-12.55-70.855-4.55a10.527 10.527 0 0 1-13.362-6.547c-1.879-5.495 1.048-11.472 6.542-13.357 28.736-9.84 59.599-7.857 86.938 5.571zm-30.194 61.55c-10.876-5.341-23.149-6.126-34.539-2.229-5.505 1.879-11.482-1.048-13.362-6.547-1.879-5.495 1.048-11.477 6.542-13.357 16.73-5.71 34.714-4.56 50.633 3.256 15.909 7.821 27.833 21.357 33.563 38.108 1.879 5.495-1.048 11.477-6.552 13.357-5.428 1.867-11.445-.997-13.351-6.547-3.914-11.447-12.058-20.695-22.934-26.041zm-2.147 34.621c2.339 6.845-2.782 13.927-9.952 13.927a10.531 10.531 0 0 1-9.13-5.305c-4.776.657-9.623-2.218-11.277-7.025-1.879-5.495 1.048-11.477 6.542-13.357 4.755-1.638 9.849-1.284 14.348.94a18.777 18.777 0 0 1 9.469 10.82z" opacity="1" data-original="url(#a)"></path></g></svg>