<svg xmlns="http://www.w3.org/2000/svg" version="1.1" xmlns:xlink="http://www.w3.org/1999/xlink" width="512" height="512" x="0" y="0" viewBox="0 0 64 64" style="enable-background:new 0 0 512 512" xml:space="preserve"><rect width="64" height="64" rx="12.8" ry="12.8" fill="#bac8d3" shape="rounded"></rect><g transform="matrix(0.7299999999999999,0,0,0.7299999999999999,8.640000000000004,8.640000000000004)"><linearGradient id="a" x1="12.48" x2="51.52" y1="11.68" y2="50.721" gradientUnits="userSpaceOnUse"><stop offset="0" stop-color="#ef32d9"></stop><stop offset="1" stop-color="#3f5efb"></stop></linearGradient><path fill="url(#a)" d="M52.7 15h-1.928v-2a5.006 5.006 0 0 0-5-5H18.228a5.006 5.006 0 0 0-5 5v2H11.3A3.164 3.164 0 0 0 8 18v6a1 1 0 0 0 2 0v-6a1.2 1.2 0 0 1 1.3-1h1.928v32a2.993 2.993 0 0 0 2.777 2.977A.189.189 0 0 0 16 52v1a3 3 0 0 0 3 3h4a3 3 0 0 0 3-3v-1h12v1a3 3 0 0 0 3 3h4a3 3 0 0 0 3-3v-1a.189.189 0 0 0 0-.023A2.993 2.993 0 0 0 50.772 49V17H52.7a1.2 1.2 0 0 1 1.3 1v6a1 1 0 0 0 2 0v-6a3.164 3.164 0 0 0-3.3-3zm-9.9 30H21.205a7.015 7.015 0 0 0-5.977-4.962V38h33.544v2.038A7.015 7.015 0 0 0 42.8 45zM15.228 14h33.544v22H15.228zm3-4h27.544a3 3 0 0 1 2.816 2H15.412a3 3 0 0 1 2.816-2zm-3 39v-6.947A5.007 5.007 0 0 1 19.5 47v3h-3.272a1 1 0 0 1-1-1zM24 53a1 1 0 0 1-1 1h-4a1 1 0 0 1-1-1v-1h6zm-2.5-3v-3h21v3zM46 53a1 1 0 0 1-1 1h-4a1 1 0 0 1-1-1v-1h6zm2.772-4a1 1 0 0 1-1 1H44.5v-3a5.007 5.007 0 0 1 4.272-4.947z" opacity="1" data-original="url(#a)"></path></g></svg>