<svg xmlns="http://www.w3.org/2000/svg" version="1.1" xmlns:xlink="http://www.w3.org/1999/xlink" width="512" height="512" x="0" y="0" viewBox="0 0 512 512" style="enable-background:new 0 0 512 512" xml:space="preserve"><rect width="512" height="512" rx="102.4" ry="102.4" fill="#bac8d3" shape="rounded"></rect><g transform="matrix(0.6,0,0,0.6,102.40019989013672,102.40040283203126)"><linearGradient id="a" x1="256" x2="256" y1="440.362" y2="71.638" gradientUnits="userSpaceOnUse"><stop offset="0" stop-color="#3873f4"></stop><stop offset="1" stop-color="#e3547a"></stop></linearGradient><path fill="url(#a)" d="M462.637 71.638H49.363c-26.295 0-47.686 21.39-47.686 47.686v273.354c0 26.295 21.39 47.686 47.686 47.686h413.275c26.295 0 47.686-21.39 47.686-47.686V119.323c-.001-26.295-21.391-47.685-47.687-47.685zm31.791 321.039c0 17.533-14.258 31.79-31.79 31.79H49.363c-17.533 0-31.79-14.258-31.79-31.79V119.323c0-17.533 14.258-31.79 31.79-31.79h413.275c17.533 0 31.79 14.258 31.79 31.79zm-309.266-51.116h-74.641c-4.393 0-7.948-3.555-7.948-7.948s3.555-7.948 7.948-7.948h74.641c4.393 0 7.948 3.555 7.948 7.948s-3.555 7.948-7.948 7.948zm261.58-198.395a7.944 7.944 0 0 1-7.948 7.948h-164.92c-4.393 0-7.948-3.555-7.948-7.948s3.555-7.948 7.948-7.948h164.92a7.944 7.944 0 0 1 7.948 7.948zm0 56.417a7.944 7.944 0 0 1-7.948 7.948h-164.92c-4.393 0-7.948-3.555-7.948-7.948s3.555-7.948 7.948-7.948h164.92a7.944 7.944 0 0 1 7.948 7.948zm0 56.417a7.944 7.944 0 0 1-7.948 7.948h-164.92c-4.393 0-7.948-3.555-7.948-7.948s3.555-7.948 7.948-7.948h164.92a7.944 7.944 0 0 1 7.948 7.948zm0 56.417a7.944 7.944 0 0 1-7.948 7.948h-164.92c-4.393 0-7.948-3.555-7.948-7.948s3.555-7.948 7.948-7.948h164.92a7.944 7.944 0 0 1 7.948 7.948zm0 56.417a7.944 7.944 0 0 1-7.948 7.948H195.718c-4.393 0-7.948-3.555-7.948-7.948s3.555-7.948 7.948-7.948h243.077a7.943 7.943 0 0 1 7.947 7.948zM147.846 232.538c17.416 0 31.581-14.164 31.581-31.581s-14.164-31.589-31.581-31.589-31.589 14.172-31.589 31.589 14.173 31.581 31.589 31.581zm0-47.275c8.646 0 15.686 7.04 15.686 15.693 0 8.646-7.04 15.686-15.686 15.686-8.654 0-15.693-7.04-15.693-15.686 0-8.653 7.039-15.693 15.693-15.693zm50.79 113.409c17.533 0 31.79-14.258 31.79-31.79v-99.873c0-17.533-14.258-31.79-31.79-31.79H97.048c-17.533 0-31.79 14.258-31.79 31.79v99.873c0 17.533 14.258 31.79 31.79 31.79zm-82.247-15.895c3.555-14.056 16.307-24.487 31.457-24.487 15.142 0 27.894 10.431 31.449 24.487zm-35.236-15.896v-99.873c0-8.763 7.133-15.895 15.895-15.895h101.588c8.763 0 15.895 7.133 15.895 15.895v99.873c0 8.763-7.133 15.895-15.895 15.895h-3.171c-3.808-22.875-23.679-40.382-47.619-40.382s-43.817 17.508-47.626 40.382h-3.171c-8.763.001-15.896-7.132-15.896-15.895z" opacity="1" data-original="url(#a)"></path></g></svg>