<svg xmlns="http://www.w3.org/2000/svg" version="1.1" xmlns:xlink="http://www.w3.org/1999/xlink" width="512" height="512" x="0" y="0" viewBox="0 0 1706.66 1706.66" style="enable-background:new 0 0 512 512" xml:space="preserve" fill-rule="evenodd"><rect width="1706.66" height="1706.66" rx="341.332" ry="341.332" fill="#bac8d3" shape="rounded"></rect><g transform="matrix(0.5499999999999999,0,0,0.5499999999999999,383.99173049926765,369.0007530212403)"><linearGradient id="a" x1=".57" x2="1706.09" y1="853.33" y2="853.33" gradientUnits="userSpaceOnUse"><stop offset="0" stop-color="#ffb800"></stop><stop offset="1" stop-color="#ff5329"></stop></linearGradient><path fill="url(#a)" d="M1562.72 1551.13h-50.54v133.83c.04 11.05-8.92 20-19.96 20h-215.91c-7.81 0-14.91-4.56-18.17-11.67l-65.15-142.15H513.64l-65.15 142.16a19.995 19.995 0 0 1-18.17 11.66H214.41c-11.03 0-19.99-8.96-19.99-19.98v-133.84h-50.51c-79.04 0-143.36-64.33-143.36-143.37V530.94c0-79.05 64.3-143.37 143.36-143.37h488.8c12.08-23.18 27-43.3 43.98-60.41L502.26 152.72c-10.31 5.02-22.52 7.94-36.65 7.94-104.6 0-104.6-158.95 0-158.95 72.93 0 95 77.28 66.22 124.06l175.38 175.37c86.12-61.78 206.11-61.78 292.23.01l175.36-175.36C1146.02 79 1168.08 1.73 1241.03 1.73c104.63 0 104.61 158.95 0 158.95-14.13 0-26.34-2.92-36.65-7.94l-174.44 174.44c16.97 17.1 31.89 37.21 43.97 60.38h488.8c79.04 0 143.37 64.3 143.37 143.37v876.83c0 79.05-64.32 143.37-143.37 143.37zm-87.01-371.98c-17.64 0-26.78-21.51-14.15-34.13l58.13-58.14c-11.91-7.06-26.56-11.27-43.98-11.27-109.97 0-109.98 167.11 0 167.11 74.91 0 98.77-77.51 71.64-126.95l-57.51 57.52c-3.9 3.9-9.03 5.86-14.13 5.86zm0 103.54c-68.11 0-123.53-55.42-123.53-123.53s55.42-123.53 123.53-123.53 123.53 55.42 123.53 123.53-55.42 123.53-123.53 123.53zm0-483.18c-11.04 0-19.99-8.96-19.99-19.99V698c-89.5 18.95-82.87 165.07 19.99 165.07s109.48-146.12 19.98-165.07v81.52c0 11.06-8.95 19.99-19.98 19.99zm0 103.54c-68.11 0-123.53-55.42-123.53-123.53s55.42-123.53 123.53-123.53 123.53 55.42 123.53 123.53-55.42 123.53-123.53 123.53zm-3.5 648.07h-235.24l52.16 113.84h183.08zm-1002.52 0H234.41v113.85h183.1zm19.87-1437.87c1.17-1.28 2.48-2.43 3.91-3.41 21.34-21.65 12.06-68.17-27.84-68.17-51.99 0-51.99 79 0 79 9.84 0 17.81-2.83 23.93-7.43zm231.59 227.56c-6.2 7.54-21.31 14.96-42.16 46.75h348.66c-66.8-101.78-211.22-124.05-306.5-46.75zm492.06-230.95c6.88 4.73 11.02 10.85 27.85 10.85 52.01 0 51.96-79 0-79-39.89 0-49.17 46.51-27.85 68.16zm-53.64 1309.07H284.92c-69.33 0-125.74-56.41-125.74-125.75V645.47c0-69.33 56.41-125.74 125.74-125.74h874.64c69.33 0 125.75 56.41 125.75 125.74v647.71c0 69.35-56.41 125.75-125.73 125.75zM284.92 559.71c-47.29 0-85.77 38.47-85.77 85.76v647.71c0 47.29 38.48 85.76 85.77 85.76h874.64c47.29 0 85.76-38.46 85.76-85.76V645.47c0-47.29-38.46-85.76-85.76-85.76zM143.94 427.54c-57 0-103.39 46.37-103.39 103.39v876.83c0 57 46.37 103.39 103.39 103.39h1418.8c57 0 103.39-46.39 103.39-103.39V530.93c0-57-46.39-103.39-103.39-103.39z" opacity="1" data-original="url(#a)"></path></g></svg>