<svg xmlns="http://www.w3.org/2000/svg" version="1.1" xmlns:xlink="http://www.w3.org/1999/xlink" width="512" height="512" x="0" y="0" viewBox="0 0 1.707 1.707" style="enable-background:new 0 0 512 512" xml:space="preserve" fill-rule="evenodd"><rect width="1.707" height="1.707" rx="0.34140000000000004" ry="0.34140000000000004" fill="#bac8d3" shape="rounded"></rect><g transform="matrix(0.6,0,0,0.6,0.34139541314580124,0.3412000298500061)"><linearGradient id="a" x1=".157" x2="1.549" y1=".201" y2="1.506" gradientUnits="userSpaceOnUse"><stop offset="0" stop-color="#f06"></stop><stop offset="1" stop-color="#f96"></stop></linearGradient><path fill="url(#a)" d="M1.438 1.055h-.13c-.029 0-.029-.043 0-.043h.13c.028 0 .028.043 0 .043zm.247.404H.302a.022.022 0 0 1-.021-.021v-.159H.162a.022.022 0 0 1-.022-.022V1.1H.022A.022.022 0 0 1 0 1.077V.27C0 .257.01.247.022.247h1.382c.012 0 .022.01.022.022v.159h.119c.012 0 .021.01.021.021v.159h.119c.012 0 .022.01.022.022v.808c0 .012-.01.021-.022.021zM.324 1.416h1.34V.651H.323zm1.13-.069h-.92a.022.022 0 0 1-.022-.021.098.098 0 0 0-.098-.098.022.022 0 0 1-.021-.022V.868c0-.02.016-.021.029-.021A.098.098 0 0 0 .519.743C.52.731.53.72.541.72h.912c.012 0 .022.01.022.022 0 .054.044.098.098.098.012 0 .021.01.021.021v.345c0 .012-.01.022-.021.022a.098.098 0 0 0-.098.098c0 .012-.01.021-.022.021zm-.9-.043h.88a.141.141 0 0 1 .117-.118V.881a.141.141 0 0 1-.118-.118H.562A.141.141 0 0 1 .436.89v.297c.06.01.109.057.118.118zm.44-.072a.199.199 0 1 1 0-.397.199.199 0 0 1 0 .397zm0-.354a.156.156 0 1 0 0 .311.156.156 0 0 0 0-.31zm-.854.177C.14.995.138.452.142.442L.147.434S.152.428.162.428h1.22V.29H.044v.765H.14zm.044.18H.28V.63C.28.618.29.608.302.608h1.221V.47H.183v.765zm.496-.18H.55c-.03 0-.03-.043 0-.043h.13c.028 0 .028.043 0 .043z" opacity="1" data-original="url(#a)"></path></g></svg>