<svg xmlns="http://www.w3.org/2000/svg" version="1.1" xmlns:xlink="http://www.w3.org/1999/xlink" width="512" height="512" x="0" y="0" viewBox="0 0 1.707 1.707" style="enable-background:new 0 0 512 512" xml:space="preserve" fill-rule="evenodd" class=""><rect width="1.707" height="1.707" rx="0.34140000000000004" ry="0.34140000000000004" fill="#bac8d3" shape="rounded"></rect><g transform="matrix(0.61,0,0,0.61,0.33286499753586996,0.3326707962155343)"><linearGradient id="a" x1="-.049" x2="1.755" y1=".457" y2="1.25" gradientUnits="userSpaceOnUse"><stop offset="0" stop-color="#d33230"></stop><stop offset="1" stop-color="#fd8f04"></stop></linearGradient><path fill="url(#a)" d="M1.677.538H.03v.181h1.647zm-.52.416a.013.013 0 0 0-.014.013v.195c0 .007.006.013.013.013h.303a.013.013 0 0 0 .013-.013V.967A.013.013 0 0 0 1.46.954h-.303zm.302.251h-.303a.043.043 0 0 1-.043-.043V.967c0-.024.02-.043.043-.043h.303c.024 0 .043.02.043.043v.195c0 .024-.019.043-.043.043zM.853.945H.22a.015.015 0 1 1 0-.03h.634a.015.015 0 0 1 0 .03zm0 .135H.22a.015.015 0 1 1 0-.03h.634a.015.015 0 0 1 0 .03zm0 .135H.22a.015.015 0 1 1 0-.03h.634a.015.015 0 1 1 0 .03zM0 .523V.424C0 .354.057.296.128.296h1.45c.071 0 .129.058.129.129v.857c0 .07-.058.128-.128.128H.129A.128.128 0 0 1 0 1.282V.524zM.03.508h1.647V.425a.098.098 0 0 0-.098-.099H.129a.098.098 0 0 0-.1.099v.083zm0 .241v.533c0 .054.044.098.098.098h1.45a.098.098 0 0 0 .099-.098V.75H.03z" opacity="1" data-original="url(#a)"></path></g></svg>