<svg xmlns="http://www.w3.org/2000/svg" version="1.1" xmlns:xlink="http://www.w3.org/1999/xlink" width="512" height="512" x="0" y="0" viewBox="0 0 512 512" style="enable-background:new 0 0 512 512" xml:space="preserve" class=""><rect width="512" height="512" rx="102.4" ry="102.4" fill="#bac8d3" shape="rounded"></rect><g transform="matrix(0.5800000000000001,0,0,0.5800000000000001,107.51999999999998,97.51999999999998)"><linearGradient id="a" x1="256" x2="256" y1="512" y2="0" gradientUnits="userSpaceOnUse"><stop offset="0" style="stop-color:#009EFD" stop-color="#009efd"></stop><stop offset="1" style="stop-color:#2AF598" stop-color="#2af598"></stop></linearGradient><path d="M196 412V309.707M316 452c0-22.091-17.909-40-40-40H116c-22.091 0-40 17.909-40 40v40h240v-40zm60-372-79.999 79.999M168.72 32.72c-70.293 70.295-70.293 184.265 0 254.558 70.295 70.295 184.265 70.295 254.561 0L168.72 32.72zM436 80c0-33.137-26.863-60-60-60" style="fill:none;stroke:url(#a);stroke-width:40;stroke-miterlimit:10;" fill="none" stroke-width="40" stroke-miterlimit="10"></path></g></svg>