<svg xmlns="http://www.w3.org/2000/svg" version="1.1" xmlns:xlink="http://www.w3.org/1999/xlink" width="512" height="512" x="0" y="0" viewBox="0 0 512 512" style="enable-background:new 0 0 512 512" xml:space="preserve" class=""><rect width="512" height="512" rx="102.4" ry="102.4" fill="#bac8d3" shape="rounded"></rect><g transform="matrix(0.6,0,0,0.6,102.39999389648438,102.4)"><linearGradient id="a" x1="54.54" x2="474.28" y1="466.43" y2="46.68" gradientUnits="userSpaceOnUse"><stop offset="0" stop-color="#fff"></stop><stop offset="0" stop-color="#ededed"></stop><stop offset="0" stop-color="#2e3192"></stop><stop offset="1" stop-color="#ee2a7b"></stop></linearGradient><path fill="url(#a)" d="M432.29 8h-322a38.61 38.61 0 0 0-38.58 38.56v422.66A34.82 34.82 0 0 0 106.49 504h325.8a8 8 0 0 0 8-8V16a8 8 0 0 0-8-8zm-291 77.13h283v349.13h-283zM110.28 24h314v45.13h-314a22.57 22.57 0 1 1 0-45.13zM87.71 469.22V77.81a38.36 38.36 0 0 0 22.57 7.32h15V488h-18.79a18.8 18.8 0 0 1-18.78-18.78zM141.26 488v-37.74h283V488zm261.32-227.55V246a18.86 18.86 0 0 0-18.84-18.83h-1.52a25.83 25.83 0 0 0-9.65-7.32l-75.3-36.06c-11.62-5.57-27.54-6.34-37-1.79l-82.79 39.64c-5.75 2.75-9.05 7.42-9.05 12.79 0 3.71 1.66 10.73 12.79 16.06l19.57 9.37V304a18.18 18.18 0 0 0 11.68 17 177.63 177.63 0 0 0 128 0 18.18 18.18 0 0 0 11.68-17v-43.72l24.19-11.58a17 17 0 0 0 6.75-5.53h.67a2.87 2.87 0 0 1 2.84 2.83v14.45a20 20 0 0 0-12 18.33c0 9.41 7.07 27.73 20 27.73s20-18.32 20-27.73a20 20 0 0 0-12.02-18.33zM336.13 304a2.15 2.15 0 0 1-1.46 2.13 161.6 161.6 0 0 1-116.43 0 2.14 2.14 0 0 1-1.47-2.13v-36.48l39.74 19a52 52 0 0 0 21.8 4.74 36.07 36.07 0 0 0 15.22-3l42.6-20.4zm-49.51-30.06c-4.59 2.2-15.49 1.9-23.2-1.79l-75.31-36.06c-.68-.33-1.26-.65-1.75-.95l80.8-38.68c4.59-2.2 15.49-1.9 23.2 1.79l60.46 28.95h-73.93a8 8 0 0 0 0 16h73.93zm108 15.78c-1.82-2.37-4-7.72-4-10.91a4 4 0 0 1 8 0c-.03 3.19-2.22 8.51-4.04 10.88z" opacity="1" data-original="url(#a)"></path></g></svg>