<svg xmlns="http://www.w3.org/2000/svg" version="1.1" xmlns:xlink="http://www.w3.org/1999/xlink" width="512" height="512" x="0" y="0" viewBox="0 0 512 512" style="enable-background:new 0 0 512 512" xml:space="preserve" class=""><rect width="512" height="512" rx="102.4" ry="102.4" fill="#bac8d3" shape="rounded"></rect><g transform="matrix(0.68,0,0,0.68,81.92320190429686,81.91999999999999)"><linearGradient id="a" x1="104.39" x2="406.46" y1="375.15" y2="73.07" data-name="GradientFill 1" gradientUnits="userSpaceOnUse"><stop offset="0" stop-color="#3698d4"></stop><stop offset="1" stop-color="#64c18c"></stop></linearGradient><path fill="url(#a)" d="M255.63 83.41c-73.51 0-133.32 56.11-133.32 125.08 0 28.78 9.55 46.29 20.61 66.58 14.89 27.31 33.42 61.3 33.42 139.99 0 8.31 5.09 15.5 12.46 18.9v8.54c0 14.78 11.36 26.94 25.8 28.25v2.88c0 15.64 12.73 28.37 28.37 28.37h25.39c15.64 0 28.37-12.73 28.37-28.37v-2.88c14.44-1.3 25.8-13.47 25.8-28.25v-8.57c7.33-3.41 12.4-10.59 12.4-18.88 0-78.7 18.53-112.68 33.42-139.99 11.06-20.28 20.61-37.8 20.61-66.58 0-68.97-59.81-125.08-133.32-125.08zM268.35 490h-25.39c-9.03 0-16.37-7.34-16.37-16.37v-2.76h58.12v2.76c0 9.03-7.34 16.37-16.37 16.37zm25.8-31.13h-76.98c-9.03 0-16.37-7.34-16.37-16.37v-6.45h109.72v6.45c0 9.03-7.34 16.37-16.37 16.37zm18.74-34.82H198.37c-5.53 0-10.03-4.03-10.03-8.99 0-10.95-.35-21.05-.99-30.44H323.9c-.64 9.38-.99 19.49-.99 30.44 0 4.96-4.5 8.99-10.03 8.99zm44.92-154.73c-12.54 23-27.56 50.55-32.89 103.3H186.35c-5.33-52.75-20.35-80.3-32.89-103.3-10.7-19.62-19.14-35.11-19.14-60.83 0-62.35 54.42-113.08 121.32-113.08s121.32 50.73 121.32 113.08c0 25.72-8.45 41.21-19.14 60.83zm-33.42-46.2H269.1l28.82-78.42c.98-2.68-.05-5.68-2.49-7.18s-5.58-1.07-7.53 1.01L182.49 251.37a6.012 6.012 0 0 0-1.12 6.49 5.996 5.996 0 0 0 5.5 3.61h55.29l-28.82 78.42a6 6 0 0 0 2.49 7.18c.97.6 2.06.89 3.14.89a6 6 0 0 0 4.39-1.9l105.41-112.84a6.012 6.012 0 0 0 1.12-6.49 5.996 5.996 0 0 0-5.5-3.61zm-89.54 93.06 21.56-58.64c.68-1.84.41-3.9-.71-5.5a5.996 5.996 0 0 0-4.92-2.57h-50.07l75.73-81.06-21.56 58.64c-.68 1.84-.41 3.9.71 5.5a5.996 5.996 0 0 0 4.92 2.57h50.07zm15.66-258.69V16c0-3.31 2.69-6 6-6s6 2.69 6 6v41.5c0 3.31-2.69 6-6 6s-6-2.69-6-6zM143.69 45.63a6.002 6.002 0 0 1 10.21-6.31l22.19 35.94c1.74 2.82.87 6.52-1.95 8.26-.98.61-2.07.9-3.15.9-2.01 0-3.98-1.01-5.11-2.85zm-30.3 93.76a5.989 5.989 0 0 1-5.28 3.15 6 6 0 0 1-2.85-.72l-38.43-20.75c-2.92-1.57-4-5.21-2.43-8.13s5.21-4 8.13-2.43l38.43 20.75c2.92 1.57 4 5.21 2.43 8.13zM336.66 76.2l22.19-35.94a5.993 5.993 0 0 1 8.26-1.95 6.002 6.002 0 0 1 1.95 8.26l-22.19 35.94a5.986 5.986 0 0 1-8.26 1.95 6.002 6.002 0 0 1-1.95-8.26zm108.53 46.49-38.43 20.75c-.91.49-1.88.72-2.85.72-2.13 0-4.2-1.14-5.28-3.15-1.57-2.92-.49-6.56 2.43-8.13l38.43-20.75c2.92-1.57 6.56-.49 8.13 2.43s.49 6.56-2.43 8.13z" opacity="1" data-original="url(#a)"></path></g></svg>