<svg xmlns="http://www.w3.org/2000/svg" version="1.1" xmlns:xlink="http://www.w3.org/1999/xlink" width="512" height="512" x="0" y="0" viewBox="0 0 64 64" style="enable-background:new 0 0 512 512" xml:space="preserve" class=""><rect width="64" height="64" rx="12.8" ry="12.8" fill="#bac8d3" shape="rounded"></rect><g transform="matrix(0.6199999999999999,0,0,0.6199999999999999,12.160048923492432,12.160007429122924)"><linearGradient id="a" x1="4" x2="60" y1="32" y2="32" gradientUnits="userSpaceOnUse"><stop offset="0" stop-color="#ff81ff"></stop><stop offset="1" stop-color="#a93aff"></stop></linearGradient><path fill="url(#a)" d="M59.587 6.213a1.81 1.81 0 0 0-1.405-.666h-5.303a.999.999 0 0 0-.561.173l-14.453 9.798L9.358 5.603a.994.994 0 0 0-.988.192L4.338 9.323a1.008 1.008 0 0 0 .212 1.647c8.77 4.385 18.903 12.203 21.883 14.561l-8.325 8.325c-8.355-3.239-9.756-3.565-9.891-3.592a1.002 1.002 0 0 0-.977.356L4.216 34.4a1.007 1.007 0 0 0 .343 1.524c9.707 4.735 11.277 15.507 11.291 15.615a1.009 1.009 0 0 0 1.42.77l4.788-2.268a.999.999 0 0 0 .57-.845l.48-8.147 9.852-8.508c3.211 6.335 6.551 24.89 6.586 25.088a1 1 0 0 0 1.489.688l6.048-3.528a1 1 0 0 0 .492-.96l-2.967-30.905 13.866-9.244a.999.999 0 0 0 .426-.636l1.064-5.323a1.81 1.81 0 0 0-.377-1.508zm-2.567 6.033L43 21.592a1 1 0 0 0-.44.928l2.962 30.864-4.266 2.489c-.921-4.877-4.099-20.78-7.202-25.435a1.006 1.006 0 0 0-1.486-.202L21.48 39.812a1 1 0 0 0-.344.698l-.47 7.977-3.087 1.462c-.717-3.107-3.23-10.872-11.043-15.247l1.847-2.308c.988.317 3.525 1.197 9.608 3.563a1.001 1.001 0 0 0 1.07-.225l9.576-9.577a1.006 1.006 0 0 0-.075-1.481c-.119-.098-11.55-9.394-21.8-14.814L9.25 7.683l28.432 9.889a1 1 0 0 0 .89-.117l14.614-9.907h4.773z" opacity="1" data-original="url(#a)"></path></g></svg>