<svg xmlns="http://www.w3.org/2000/svg" version="1.1" xmlns:xlink="http://www.w3.org/1999/xlink" width="512" height="512" x="0" y="0" viewBox="0 0 512 512" style="enable-background:new 0 0 512 512" xml:space="preserve"><rect width="512" height="512" rx="102.4" ry="102.4" fill="#bac8d3" shape="rounded"></rect><g transform="matrix(0.65,0,0,0.65,89.60010964870455,89.60000667572021)"><linearGradient id="a" x1="6.016" x2="505.985" y1="256" y2="256" gradientUnits="userSpaceOnUse"><stop offset="0" stop-color="#ff58ff"></stop><stop offset="1" stop-color="#0075ce"></stop></linearGradient><path fill="url(#a)" d="m481.737 199.945-12.147-5.54v-36.883c0-21.944-17.828-39.795-39.743-39.795H301.475l-93.559-42.672a5.039 5.039 0 0 0-6.69 2.498 5.048 5.048 0 0 0 2.498 6.69l73.413 33.484H84.223l20.14-44.32c3.474-7.642 9.693-13.466 17.513-16.403 7.814-2.937 16.312-2.646 23.931.829l9.999 4.545a5.048 5.048 0 0 0 6.685-2.508 5.048 5.048 0 0 0-2.508-6.685l-9.994-4.545c-10.076-4.594-21.318-4.981-31.665-1.09-10.344 3.884-18.568 11.582-23.155 21.678l-22.598 49.727C55.3 123.28 42.45 138.905 42.45 157.522v27.718L9.777 257.137c-4.601 10.09-4.993 21.367-1.107 31.748 3.879 10.364 11.565 18.593 21.633 23.17l12.147 5.54v36.883c0 21.944 17.828 39.795 39.743 39.795h128.379L362.05 463.36c5.479 2.495 11.304 3.751 17.148 3.751 4.905 0 9.822-.885 14.549-2.658 10.352-3.884 18.566-11.565 23.125-21.628l22.617-49.785c17.262-4.331 30.101-19.952 30.101-38.561v-27.697l32.676-71.925c9.458-20.808.248-45.442-20.529-54.912zm-125.668-10.864h103.404v41.035H345.774c5.542-8.567 9.321-17.747 11.83-25.589a19.606 19.606 0 0 0-1.535-15.446zm-8.087 12.369c-4.414 13.799-13.037 32.187-29.051 41.422-10.41 6.005-22.532 7.321-33.655 6.668a29.62 29.62 0 0 0 .164-3.083c0-3.555-.664-6.95-1.821-10.108l17.965-10.359a5.049 5.049 0 0 0 1.852-6.897 5.046 5.046 0 0 0-6.897-1.852l-17.947 10.348a29.563 29.563 0 0 0-10.547-7.998c5.026-9.992 12.235-19.863 22.667-25.878 8.885-5.124 19.059-6.86 28.767-6.86 7.787 0 15.279 1.117 21.564 2.5 2.634.579 4.818 2.172 6.147 4.485 1.339 2.322 1.62 5.025.792 7.612zm-111.276 45.007c0-10.677 8.665-19.365 19.318-19.365 10.65 0 19.315 8.687 19.315 19.365s-8.665 19.362-19.315 19.362c-10.653 0-19.318-8.685-19.318-19.362zm1.043 23.047-29.84 29.899-2.303-12.946a8.527 8.527 0 0 0-6.868-6.88l-12.936-2.311 19.162-19.201c5.655 1.251 11.379 1.762 16.936 1.762 2.649 0 5.236-.138 7.775-.347a29.604 29.604 0 0 0 8.074 10.024zm44.634-10.051c2.536.21 5.11.375 7.764.375 5.556 0 11.28-.511 16.934-1.761l19.162 19.2-12.936 2.311a8.528 8.528 0 0 0-6.865 6.875l-2.306 12.948-29.838-29.897a29.63 29.63 0 0 0 8.085-10.051zm-59.109-131.608h65.497v55.479a54.32 54.32 0 0 0-3.105 1.641c-13.17 7.594-21.886 20.008-27.664 32.127-.657-.044-1.311-.1-1.979-.1-.671 0-1.327.056-1.987.101-5.776-12.12-14.487-24.535-27.656-32.128a54.39 54.39 0 0 0-3.107-1.642v-55.478zm20.787 91.719a29.567 29.567 0 0 0-10.606 8.026l-17.946-10.348a5.044 5.044 0 0 0-6.897 1.852 5.049 5.049 0 0 0 1.852 6.897l17.963 10.358c-1.157 3.159-1.821 6.553-1.821 10.109 0 1.037.057 2.06.162 3.07-11.129.65-23.248-.656-33.651-6.655-16.016-9.235-24.639-27.623-29.053-41.422-.829-2.587-.547-5.289.792-7.61 1.329-2.313 3.514-3.906 6.147-4.485 6.288-1.383 13.774-2.5 21.564-2.5 9.708 0 19.885 1.736 28.77 6.86 10.411 6.003 17.685 15.866 22.724 25.848zm-89.62-15.037c2.509 7.842 6.288 17.021 11.83 25.589H52.572v-41.035h103.404a19.601 19.601 0 0 0-1.535 15.446zM52.55 157.522c0-16.374 13.299-29.694 29.643-29.694h130.981v51.644c-14.545-4.114-29.892-2.883-41.879-.491H52.55zM34.488 302.865c-7.615-3.462-13.427-9.684-16.359-17.52-2.939-7.854-2.643-16.383.841-24.023l23.48-51.669v96.844zm178.686 81.307H82.193c-16.344 0-29.643-13.321-29.643-29.694V240.216h121.58c4.005 4.357 8.571 8.309 13.941 11.405 1.984 1.144 4.023 2.103 6.083 2.977L176.489 272.3a8.473 8.473 0 0 0-2.094 8.557 8.464 8.464 0 0 0 6.606 5.812l14.855 2.653 2.651 14.889a8.47 8.47 0 0 0 5.812 6.618 8.483 8.483 0 0 0 8.555-2.101l.301-.301v75.745zm10.1-85.865 23.76-23.806c2.836.914 5.854 1.419 8.99 1.419s6.153-.505 8.989-1.419l23.758 23.802v85.862h-65.497zm184.4 140.344c-3.447 7.605-9.652 13.41-17.473 16.344-7.834 2.934-16.344 2.641-23.961-.826l-131.33-59.897h192.925zm51.815-84.173c0 16.374-13.299 29.694-29.643 29.694H298.871v-75.75l.306.306a8.456 8.456 0 0 0 8.552 2.098 8.456 8.456 0 0 0 5.81-6.616l2.651-14.889 14.855-2.653a8.464 8.464 0 0 0 6.606-5.812 8.479 8.479 0 0 0-2.091-8.557l-17.666-17.701c2.061-.874 4.1-1.834 6.084-2.978 5.369-3.095 9.934-7.048 13.939-11.405h121.574v114.263zm0-175.498H340.751c-11.983-2.392-27.332-3.623-41.88.493v-51.645h130.976c16.344 0 29.643 13.321 29.643 29.694v21.458zm33.581 71.699-23.48 51.684v-96.857l7.957 3.629c15.715 7.162 22.681 25.799 15.523 41.544z" opacity="1" data-original="url(#a)"></path></g></svg>