<svg xmlns="http://www.w3.org/2000/svg" version="1.1" xmlns:xlink="http://www.w3.org/1999/xlink" width="512" height="512" x="0" y="0" viewBox="0 0 512 512" style="enable-background:new 0 0 512 512" xml:space="preserve" class=""><rect width="512" height="512" rx="102.4" ry="102.4" fill="#bac8d3" shape="rounded"></rect><g transform="matrix(0.8,0,0,0.8,51.19999694824216,51.20999908447263)"><linearGradient id="a" x1="154.865" x2="357.129" y1="279.429" y2="77.156" gradientTransform="matrix(1 0 0 -1 0 514.1)" gradientUnits="userSpaceOnUse"><stop offset="0" stop-color="#54bdff"></stop><stop offset="1" stop-color="#0042c7"></stop></linearGradient><path fill="url(#a)" d="M436.9 314.4 277.4 154.9c-5.7-5.7-13.3-8.8-21.4-8.8s-15.6 3.1-21.4 8.8L75.1 314.4c-8.8 8.8-11.3 21.4-6.5 32.9C73.3 358.8 84 366 96.5 366h47c8.1 0 15.6-3.1 21.4-8.8L256 266l91.1 91.1c5.7 5.7 13.3 8.8 21.4 8.8h47c12.5 0 23.1-7.1 27.9-18.6s2.3-24.1-6.5-32.9zM415.5 356h-47c-5.4 0-10.5-2.1-14.3-5.9L256 251.8 157.8 350c-3.8 3.8-8.9 5.9-14.3 5.9h-47c-18 0-27-21.8-14.3-34.5L241.7 162c7.9-7.9 20.7-7.9 28.6 0l159.5 159.5c12.7 12.7 3.7 34.5-14.3 34.5z" opacity="1" data-original="url(#a)"></path></g></svg>