<svg xmlns="http://www.w3.org/2000/svg" version="1.1" xmlns:xlink="http://www.w3.org/1999/xlink" width="512" height="512" x="0" y="0" viewBox="0 0 512 512" style="enable-background:new 0 0 512 512" xml:space="preserve"><rect width="512" height="512" rx="102.4" ry="102.4" fill="#bac8d3" shape="rounded"></rect><g transform="matrix(0.5499999999999999,0,0,0.5499999999999999,115.1999957084656,110.2002197265625)"><linearGradient id="a" x1="32.959" x2="479.041" y1="527.461" y2="81.379" gradientUnits="userSpaceOnUse"><stop offset="0" stop-color="#fcc60e"></stop><stop offset="1" stop-color="#e92e29"></stop></linearGradient><path fill="url(#a)" d="M186.164 191.852h39.823v39.823a6.736 6.736 0 0 0 6.736 6.736h46.554a6.736 6.736 0 0 0 6.736-6.736v-39.823h39.823a6.736 6.736 0 0 0 6.736-6.736V138.56a6.736 6.736 0 0 0-6.736-6.736h-39.823V92.001a6.736 6.736 0 0 0-6.736-6.736h-46.554a6.736 6.736 0 0 0-6.736 6.736v39.823h-39.823a6.736 6.736 0 0 0-6.736 6.736v46.556a6.738 6.738 0 0 0 6.736 6.736zm6.736-46.556h39.823a6.736 6.736 0 0 0 6.736-6.736V98.737h33.083v39.823a6.736 6.736 0 0 0 6.736 6.736H319.1v33.085h-39.823a6.736 6.736 0 0 0-6.736 6.736v39.823h-33.083v-39.823a6.736 6.736 0 0 0-6.736-6.736H192.9zm305.589 36.358a6.736 6.736 0 0 0 6.736-6.736v-26.16a6.736 6.736 0 0 0-6.736-6.736H384.901V46.408h16.747a6.736 6.736 0 0 0 6.736-6.736v-26.16a6.736 6.736 0 0 0-6.736-6.736H110.352a6.736 6.736 0 0 0-6.736 6.736v26.16a6.736 6.736 0 0 0 6.736 6.736h16.747v95.615H13.511a6.736 6.736 0 0 0-6.736 6.736v26.16a6.736 6.736 0 0 0 6.736 6.736h16.747v279.783H13.511a6.738 6.738 0 0 0-6.736 6.736v30.315a6.738 6.738 0 0 0 6.736 6.736h484.977a6.738 6.738 0 0 0 6.736-6.736v-30.315a6.738 6.738 0 0 0-6.736-6.736h-16.747V181.654zm-6.736-26.16v12.689H384.901v-12.689zM117.087 20.247h277.825v12.689H117.087zm254.342 26.161v415.03h-59.407v-99.335c0-30.89-25.132-56.022-56.022-56.022s-56.022 25.132-56.022 56.022v99.335h-59.407V46.408zM298.55 461.437h-85.1v-99.335c0-23.461 19.089-42.55 42.55-42.55s42.55 19.089 42.55 42.55zM20.247 155.494h106.852v12.689H20.247zm23.483 26.16h83.369v279.783H43.73zm448.023 310.099H20.247v-16.844h471.506zm-23.483-30.316h-83.369V181.654h83.369z" opacity="1" data-original="url(#a)"></path></g></svg>