<svg xmlns="http://www.w3.org/2000/svg" version="1.1" xmlns:xlink="http://www.w3.org/1999/xlink" width="512" height="512" x="0" y="0" viewBox="0 0 512 512" style="enable-background:new 0 0 512 512" xml:space="preserve"><rect width="512" height="512" rx="102.4" ry="102.4" fill="#bac8d3" shape="rounded"></rect><g transform="matrix(0.69,0,0,0.69,79.36021049499513,79.36028824806215)"><linearGradient id="a" x1="73.704" x2="387.94" y1="399.548" y2="85.311" gradientUnits="userSpaceOnUse"><stop offset="0" stop-color="#00bfe9"></stop><stop offset="1" stop-color="#006bff"></stop></linearGradient><path fill="url(#a)" d="M240.394 206.765c-19.539 6.731-32.895 24.861-33.496 45.522h-28.514a51.261 51.261 0 0 0-21.489-39.753c-8.087-5.689-17.79-8.634-27.68-8.481a47.764 47.764 0 0 0-33.963 13.983 50.788 50.788 0 0 0-14.424 34.197H51.874a199.605 199.605 0 0 1 51.439-144.928c36.521-41.108 82.951-63.465 138.176-68.627V8.082h29.262v30.05c78.464 9.623 136.167 47.886 170.677 118.45a185.141 185.141 0 0 1 18.471 95.599h-28.227c-3.86-29.082-19.379-46.457-49.302-48.02-12.781-.421-25.142 4.641-33.99 13.876a52.456 52.456 0 0 0-15.025 34.144h-28.354a49.047 49.047 0 0 0-18.284-37.088 147.664 147.664 0 0 0-15.025-9.182c-.234 3.806-.494 6.023-.494 8.16v220.367c.628 17.376-5.402 34.304-16.828 47.399a63.67 63.67 0 0 1-40.561 21.523 65.617 65.617 0 0 1-52.534-16.361c-14.27-12.881-22.15-31.379-21.602-50.604v-20.527c.16-.781.421-1.536.815-2.244h27.673c.394 1.85.627 3.706.755 5.609v20.033c1.723 45.963 69.856 45.963 71.579 0V212.329c.286-1.49.106-3.053-.101-5.564zm-47.579 0c16.427-20.033 36.855-31.739 63.098-31.793 26.237-.053 46.978 11.499 63.152 31.693 28.407-32.14 61.716-40.614 100.975-22.537-17.583-56.24-78.778-117.202-165.482-116.34-88.587.655-147.125 63.906-162.851 116.287 39.205-17.71 72.674-10.07 101.108 22.644zm0 0" opacity="1" data-original="url(#a)"></path></g></svg>