<svg xmlns="http://www.w3.org/2000/svg" version="1.1" xmlns:xlink="http://www.w3.org/1999/xlink" width="512" height="512" x="0" y="0" viewBox="0 0 512 512" style="enable-background:new 0 0 512 512" xml:space="preserve" class=""><rect width="512" height="512" rx="102.4" ry="102.4" fill="#bac8d3" shape="rounded"></rect><g transform="matrix(0.6399999999999999,0,0,0.6399999999999999,92.16016239166262,92.15998077392578)"><linearGradient id="a" x1="78.526" x2="448.057" y1="465.104" y2="95.573" gradientUnits="userSpaceOnUse"><stop offset="0" stop-color="#ff506a"></stop><stop offset="1" stop-color="#ffe28f"></stop></linearGradient><path fill="url(#a)" d="M106.486 273.715a3.25 3.25 0 0 1 .577-4.562l24.163-18.777a3.25 3.25 0 1 1 3.988 5.134l-24.168 18.783a3.251 3.251 0 0 1-4.56-.578zm41.861-28.348 6.861-5.301a3.252 3.252 0 0 0-3.968-5.152l-6.876 5.312a3.251 3.251 0 1 0 3.983 5.141zm338.227 170.054a3.24 3.24 0 0 0-3.676 2.76c-2.477 17.382-10.763 31.385-23.965 40.494a3.254 3.254 0 0 0-.831 4.523 3.253 3.253 0 0 0 4.524.829c14.525-10.021 24.01-25.978 26.708-44.929a3.249 3.249 0 0 0-2.76-3.677zm-43.517 51.031a63.348 63.348 0 0 1-10.207 2.379 3.242 3.242 0 0 0-2.934 3.238 3.266 3.266 0 0 0 3.734 3.218 69.833 69.833 0 0 0 11.2-2.581 3.245 3.245 0 0 0 2.469-3.16c0-2.136-2.235-3.747-4.262-3.094zM101.791 67.715a341.245 341.245 0 0 1 47.18-18.009 3.25 3.25 0 0 0 2.182-4.047 3.25 3.25 0 0 0-4.047-2.185 347.904 347.904 0 0 0-48.079 18.354 3.252 3.252 0 1 0 2.764 5.887zm63.755-22.573a323.64 323.64 0 0 1 8.759-2.035 3.25 3.25 0 0 0 2.479-3.873 3.258 3.258 0 0 0-3.871-2.481c-2.995.657-5.964 1.34-8.931 2.075a3.25 3.25 0 0 0-2.373 3.939 3.249 3.249 0 0 0 3.937 2.375zm337.115 146.221c-14.337 14.766-29.759 30.182-45.839 45.814-10.966 10.664-26.226 11.693-38.911 2.068-15.804-11.988-31.586-24.574-47.596-36.532-8.942-6.678-13.189-15.466-12.986-26.867.203-11.389-.109-23.13.157-34.654.089-3.737-.363-4.849-3.92-6.145a297.381 297.381 0 0 0-43.994-12.302v22.622l3.975-.008h.056c3.594 0 7.771.845 8.335 7.288 2.317 26.324 19.885 42.604 38.525 56.274 24.753 18.153 49.692 37.917 74.975 57.836 22.176 17.454 33.564 40.794 33.849 69.369.234 23.501.066 47.567.048 71.127-.018 29.044-18.846 47.961-47.967 48.193-8.684.07-314.108.037-329.975.015-31.603-.044-48.275-21.634-48.409-42.936-.169-26.584-.609-54.181.079-81.209.666-26.17 12.201-48.191 34.291-65.451 34.171-26.704 60.366-46.96 84.935-65.677 16.649-12.683 25.474-27.816 26.977-46.263.478-5.85 3.467-8.577 9.401-8.577h.056l3.81.009v-22.645a300.17 300.17 0 0 0-45.338 12.734c-3.272 1.202-3.589 1.961-3.434 4.435.696 11.049-.429 17.567.676 23.363 5.091 26.626-12.224 41.036-25.689 49.559-11.489 7.272-21.961 16.758-32.916 25.246-14.347 11.116-29.878 10.246-42.602-2.378-13.827-13.712-28.547-28.345-43.156-43.225-12.917-13.153-12.815-30.807.099-43.408 12.496-12.193 25.509-23.296 39.018-33.297 61.79-45.745 132.444-67.084 207.393-67.413 78.406-.344 150.841 24.749 215.93 74.928 10.842 8.36 20.993 17.451 30.17 27.022 11.848 12.359 11.84 28.869-.023 41.085zm-303.955-39.51h-.18c-2.444 0-2.578.173-2.776 2.602-1.664 20.39-11.319 37.043-29.518 50.906-24.549 18.701-50.723 38.942-84.874 65.628-20.482 16.006-31.179 36.358-31.791 60.492-.688 26.893-.247 54.389-.079 81.003.114 18.095 14.548 36.435 41.916 36.474 21.798.032 321.884.051 329.914-.015 25.59-.204 41.497-16.181 41.515-41.695.018-23.583.185-47.615-.048-71.057-.264-26.507-10.816-48.149-31.369-64.323-25.478-20.074-50.133-39.615-74.797-57.704-19.872-14.575-38.614-32.045-41.157-60.949-.076-.86-.218-1.205-.259-1.293-.015.052-.411-.061-1.595-.06h-.043a23428.7 23428.7 0 0 1-114.859-.009zm104.363-30.356a273.173 273.173 0 0 0-47.132-4.085c-15.635.009-31.276 1.372-46.9 4.084v23.878c29.628.064 60.593.066 94.032.006zm194.921 33.284c-8.952-9.337-18.861-18.21-29.449-26.374-64.071-49.398-135.39-74.033-212.603-73.563-73.025.444-142.469 21.173-203.605 66.669-13.015 9.686-25.562 20.416-37.618 32.181-10.541 10.288-10.166 23.848-.003 34.197 14.581 14.852 29.286 29.468 43.095 43.165 10.453 10.365 22.222 11.007 34.042 1.853 11.017-8.537 21.524-18.071 33.419-25.599 19.11-12.094 26.137-25.307 22.783-42.842v-.001c-1.282-6.711-.104-13.433-.777-24.177-.439-6.998 3.635-9.46 7.682-10.946 33.557-12.324 67.329-18.487 101.063-18.487 33.366 0 66.697 6.025 99.773 18.081 6.983 2.544 8.327 6.799 8.197 12.405-.265 11.304.045 23.191-.158 34.618-.165 9.286 3.13 16.131 10.374 21.541 16.058 11.993 31.72 24.487 47.637 36.563 9.991 7.58 21.656 6.991 30.447-1.55 16.034-15.591 31.413-30.96 45.707-45.682 9.393-9.672 9.39-22.254-.006-32.052zm-241.976 63.268c8.047 0 14.594 6.546 14.594 14.594 0 8.046-6.546 14.592-14.594 14.592-8.047 0-14.594-6.546-14.594-14.592 0-8.048 6.547-14.594 14.594-14.594zm-8.091 14.593c0 4.461 3.63 8.089 8.091 8.089s8.091-3.629 8.091-8.089-3.63-8.091-8.091-8.091-8.091 3.631-8.091 8.091zm-61.217 34.694c-5.69-5.689-5.69-14.947 0-20.637 5.698-5.698 14.939-5.698 20.637 0s5.704 14.934 0 20.638c-5.699 5.697-14.939 5.696-20.637-.001zm4.598-4.598c3.053 3.052 8.393 3.047 11.441 0 3.159-3.157 3.159-8.285 0-11.441-3.15-3.153-8.28-3.159-11.441 0-3.152 3.155-3.152 8.287 0 11.441zm-18.755 67.82c-8.047 0-14.594-6.546-14.594-14.594 0-8.046 6.546-14.592 14.594-14.592 8.047 0 14.594 6.546 14.594 14.592 0 8.048-6.546 14.594-14.594 14.594zm8.091-14.593c0-4.461-3.63-8.089-8.091-8.089s-8.091 3.629-8.091 8.089 3.63 8.091 8.091 8.091c4.461-.001 8.091-3.631 8.091-8.091zm26.604 48.671c5.688 5.69 5.688 14.947 0 20.637-5.698 5.698-14.939 5.698-20.637 0-5.688-5.69-5.688-14.947 0-20.637 5.698-5.699 14.939-5.698 20.637 0zm-4.598 4.598c-3.154-3.157-8.289-3.155-11.441 0-3.152 3.154-3.152 8.288 0 11.441 3.048 3.051 8.393 3.051 11.441 0 3.153-3.154 3.153-8.288 0-11.441zm67.819 30.195c0 8.047-6.546 14.594-14.591 14.594-8.047 0-14.594-6.546-14.594-14.594 0-8.046 6.546-14.592 14.594-14.592 8.045 0 14.591 6.546 14.591 14.592zm-6.503 0c0-4.461-3.627-8.089-8.088-8.089s-8.091 3.629-8.091 8.089 3.63 8.091 8.091 8.091 8.088-3.63 8.088-8.091zm61.218-34.694c5.698 5.698 5.704 14.934 0 20.638-5.69 5.69-14.949 5.686-20.637.001v-.001c-5.69-5.69-5.69-14.948 0-20.638 5.687-5.688 14.944-5.69 20.637 0zm-4.598 4.598c-3.152-3.15-8.284-3.154-11.441.001-3.152 3.154-3.152 8.286 0 11.441 3.158 3.155 8.289 3.152 11.441 0 3.159-3.157 3.159-8.286 0-11.442zm18.754-67.82c8.047 0 14.594 6.546 14.594 14.592 0 8.047-6.546 14.594-14.594 14.594-8.045 0-14.591-6.546-14.591-14.594 0-8.046 6.547-14.592 14.591-14.592zm-8.088 14.593c0 4.461 3.627 8.091 8.088 8.091s8.091-3.63 8.091-8.091-3.63-8.089-8.091-8.089-8.088 3.628-8.088 8.089zm-26.604-48.67c-5.698-5.698-5.704-14.934 0-20.638 5.7-5.697 14.939-5.696 20.637.001 5.69 5.689 5.69 14.947 0 20.637-5.698 5.698-14.938 5.698-20.637 0zm4.598-4.598c3.043 3.047 8.383 3.052 11.441 0 3.152-3.155 3.152-8.288 0-11.441-3.165-3.162-8.295-3.149-11.441 0-3.159 3.157-3.159 8.285 0 11.441zm-53.289-.429c29.563 0 53.617 24.054 53.617 53.618 0 29.582-24.053 53.649-53.617 53.649-29.581 0-53.647-24.066-53.647-53.649 0-29.565 24.066-53.618 53.647-53.618zm0 6.503c-25.994 0-47.144 21.136-47.144 47.115 0 25.996 21.15 47.146 47.144 47.146 25.979 0 47.114-21.15 47.114-47.146 0-25.979-21.135-47.115-47.114-47.115z" opacity="1" data-original="url(#a)"></path></g></svg>