<svg xmlns="http://www.w3.org/2000/svg" version="1.1" xmlns:xlink="http://www.w3.org/1999/xlink" width="512" height="512" x="0" y="0" viewBox="0 0 110 110" style="enable-background:new 0 0 512 512" xml:space="preserve"><rect width="110" height="110" rx="22" ry="22" fill="#bac8d3" shape="rounded"></rect><g transform="matrix(0.68,0,0,0.68,17.601622924804694,17.6)"><linearGradient id="a" x1="55" x2="55" y1="7.02" y2="102.98" gradientUnits="userSpaceOnUse"><stop offset="0" stop-color="#dd1200"></stop><stop offset="1" stop-color="#fba300"></stop></linearGradient><path fill="url(#a)" d="M77.37 7H32.63a5.44 5.44 0 0 0-5.43 5.43v34a4.15 4.15 0 0 0 4.13 4.15 2.13 2.13 0 0 1 2.15 2.12v21.98A5.44 5.44 0 0 0 37.8 80v19.77A3.21 3.21 0 0 0 41 103h28a3.21 3.21 0 0 0 3.21-3.21V80a5.44 5.44 0 0 0 4.32-5.31V52.75a2.13 2.13 0 0 1 2.15-2.12 4.15 4.15 0 0 0 4.13-4.15v-34A5.44 5.44 0 0 0 77.37 7zm-29.92 94H41a1.21 1.21 0 0 1-1.21-1.21V80.1h7.65zm6.89 0h-4.89V80.1h4.89zm15.86-1.23A1.21 1.21 0 0 1 69 101H56.34V80.1H70.2zm10.6-53.29a2.15 2.15 0 0 1-2.13 2.15 4.14 4.14 0 0 0-4.15 4.12v21.93a3.43 3.43 0 0 1-3.39 3.42H38.87a3.43 3.43 0 0 1-3.39-3.42V52.75a4.14 4.14 0 0 0-4.15-4.12 2.15 2.15 0 0 1-2.13-2.15v-34A3.44 3.44 0 0 1 32.63 9h44.74a3.44 3.44 0 0 1 3.43 3.43zm-7.13-31.33H36.33a1 1 0 0 0-1 1v16.09a1 1 0 0 0 1 1h37.34a1 1 0 0 0 1-1V16.15a1 1 0 0 0-1-1zm-1 16.09H37.33V17.15h35.34zm-28.94 8.09v-1.75a2.17 2.17 0 0 0-2.17-2.16h-4.07a2.17 2.17 0 0 0-2.17 2.16v1.75a2.17 2.17 0 0 0 2.17 2.16h4.07a2.17 2.17 0 0 0 2.17-2.16zm-6.41 0v-1.75a.17.17 0 0 1 .17-.16h4.07a.16.16 0 0 1 .17.16v1.75a.16.16 0 0 1-.17.16h-4.07a.17.17 0 0 1-.17-.16zm16.72 0v-1.75a2.16 2.16 0 0 0-2.16-2.16H47.8a2.16 2.16 0 0 0-2.16 2.16v1.75a2.16 2.16 0 0 0 2.16 2.16h4.08A2.16 2.16 0 0 0 54 39.33zm-6.4 0v-1.75a.16.16 0 0 1 .16-.16h4.08a.16.16 0 0 1 .16.16v1.75a.16.16 0 0 1-.16.16H47.8a.16.16 0 0 1-.16-.16zm16.72 0v-1.75a2.17 2.17 0 0 0-2.17-2.16h-4.07A2.17 2.17 0 0 0 56 37.58v1.75a2.17 2.17 0 0 0 2.17 2.16h4.07a2.17 2.17 0 0 0 2.12-2.16zm-2 0a.17.17 0 0 1-.17.16h-4.07a.17.17 0 0 1-.17-.16v-1.75a.17.17 0 0 1 .17-.16h4.07a.17.17 0 0 1 .17.16zm10.14-3.91h-4.07a2.16 2.16 0 0 0-2.16 2.16v1.75a2.16 2.16 0 0 0 2.16 2.16h4.07a2.17 2.17 0 0 0 2.17-2.16v-1.75a2.17 2.17 0 0 0-2.17-2.16zm.17 3.91a.16.16 0 0 1-.17.16h-4.07a.16.16 0 0 1-.16-.16v-1.75a.16.16 0 0 1 .16-.16h4.07a.16.16 0 0 1 .17.16zm-26.83 4.82h-6a1.64 1.64 0 0 0-1.64 1.64v5a1.64 1.64 0 0 0 1.64 1.64h6a1.65 1.65 0 0 0 1.64-1.64v-5a1.65 1.65 0 0 0-1.64-1.64zm-.36 6.31h-5.31v-4.31h5.31zM58 44.15h-6a1.64 1.64 0 0 0-1.63 1.64v5A1.64 1.64 0 0 0 52 52.46h6a1.64 1.64 0 0 0 1.63-1.64v-5A1.64 1.64 0 0 0 58 44.15zm-.37 6.31h-5.3v-4.31h5.3zm6.51 2h6a1.64 1.64 0 0 0 1.64-1.64v-5a1.64 1.64 0 0 0-1.64-1.64h-6a1.65 1.65 0 0 0-1.64 1.64v5a1.65 1.65 0 0 0 1.66 1.64zm.36-6.31h5.31v4.31h-5.29zm-18.68 9h-6a1.64 1.64 0 0 0-1.64 1.64v5a1.64 1.64 0 0 0 1.64 1.64h6a1.65 1.65 0 0 0 1.64-1.64v-5a1.65 1.65 0 0 0-1.62-1.66zm-.36 6.31h-5.29v-4.33h5.31zM58 55.13h-6a1.64 1.64 0 0 0-1.63 1.64v5A1.64 1.64 0 0 0 52 63.44h6a1.64 1.64 0 0 0 1.63-1.64v-5A1.64 1.64 0 0 0 58 55.13zm-.37 6.31h-5.3v-4.31h5.3zm-11.79 4.67h-6a1.64 1.64 0 0 0-1.64 1.64v5a1.64 1.64 0 0 0 1.64 1.64h6a1.65 1.65 0 0 0 1.64-1.64v-5a1.65 1.65 0 0 0-1.64-1.64zm-.36 6.31h-5.31v-4.31h5.31zM58 66.11h-6a1.64 1.64 0 0 0-1.63 1.64v5A1.64 1.64 0 0 0 52 74.42h6a1.64 1.64 0 0 0 1.63-1.64v-5A1.64 1.64 0 0 0 58 66.11zm-.37 6.31h-5.3v-4.31h5.3zM70.2 55.13h-6a1.64 1.64 0 0 0-1.63 1.64v16a1.64 1.64 0 0 0 1.63 1.64h6a1.65 1.65 0 0 0 1.64-1.64v-16a1.65 1.65 0 0 0-1.64-1.64zm-.36 17.29h-5.31V57.13h5.31z" opacity="1" data-original="url(#a)"></path></g></svg>