<svg xmlns="http://www.w3.org/2000/svg" version="1.1" xmlns:xlink="http://www.w3.org/1999/xlink" width="512" height="512" x="0" y="0" viewBox="0 0 512 512" style="enable-background:new 0 0 512 512" xml:space="preserve" class=""><rect width="512" height="512" rx="102.4" ry="102.4" fill="#bac8d3" shape="rounded"></rect><g transform="matrix(0.5499999999999999,0,0,0.5499999999999999,115.1999957084656,105.1999957084656)"><linearGradient id="a" x1="71.695" x2="476.588" y1="558.145" y2="153.252" gradientUnits="userSpaceOnUse"><stop offset="0" stop-color="#ff506a"></stop><stop offset="1" stop-color="#ffe28f"></stop></linearGradient><path fill="url(#a)" d="M279.582 262.749h22.877c4.839 0 8.774-3.934 8.774-8.771v-25.452c0-4.837-3.934-8.774-8.774-8.774h-22.877c-4.835 0-8.769 3.937-8.769 8.774v25.452c0 4.837 3.935 8.771 8.769 8.771zm.986-33.241h20.91v23.487h-20.91zm-71.027 33.241h22.877c4.835 0 8.769-3.934 8.769-8.771v-25.452c0-4.837-3.934-8.774-8.769-8.774h-22.877c-4.839 0-8.774 3.937-8.774 8.774v25.452c0 4.837 3.934 8.771 8.774 8.771zm.981-33.241h20.91v23.487h-20.91zM82.452 429.156h34.68c5.944 0 10.779-4.835 10.779-10.779v-62.273c0-5.944-4.835-10.779-10.779-10.779h-34.68c-5.944 0-10.779 4.835-10.779 10.779v62.273c0 5.944 4.834 10.779 10.779 10.779zm-1.025-73.052c0-.564.457-1.024 1.024-1.024h34.68c.567 0 1.024.46 1.024 1.024v62.273c0 .564-.457 1.024-1.024 1.024h-34.68c-.567 0-1.024-.46-1.024-1.024zm313.441 73.052h34.68c5.944 0 10.779-4.835 10.779-10.779v-62.273c0-5.944-4.835-10.779-10.779-10.779h-34.68c-5.944 0-10.779 4.835-10.779 10.779v62.273c0 5.944 4.835 10.779 10.779 10.779zm-1.024-73.052c0-.564.457-1.024 1.024-1.024h34.68c.567 0 1.024.46 1.024 1.024v62.273c0 .564-.457 1.024-1.024 1.024h-34.68c-.567 0-1.024-.46-1.024-1.024zm92.062 110.961h-8.993v-159.65h8.993c10.388 0 18.843-8.452 18.843-18.843s-8.454-18.845-18.843-18.845H354.73v-58.1c7.31-2.595 12.589-9.509 12.589-17.695 0-8.557-5.77-15.719-13.598-18.009-5.958-46.963-44.87-83.677-92.843-86.04V71.177h67.703a4.876 4.876 0 0 0 4.877-4.877V12.143a4.876 4.876 0 0 0-4.877-4.877l-72.58-.019c-2.666 0-4.892 2.177-4.892 4.896v.975-.033.311l.014 76.487c-47.973 2.363-86.885 39.077-92.843 86.04-7.828 2.29-13.598 9.452-13.598 18.009 0 8.186 5.279 15.1 12.589 17.695v58.1H26.094c-10.388 0-18.843 8.455-18.843 18.845 0 10.391 8.455 18.843 18.843 18.843h8.993v159.65h-8.993c-10.388 0-18.843 8.452-18.843 18.843s8.455 18.845 18.843 18.845h459.811c10.388 0 18.843-8.454 18.843-18.845s-8.454-18.843-18.842-18.843zM260.877 17.021h62.825v44.402h-62.825zm82.945 158.066h-46.925c-1.671-32.248-9.33-58.677-20.463-73.216 34.976 8.277 61.963 37.219 67.388 73.216zM256 99.401c13.628 0 28.608 30.508 31.13 75.686h-62.26c2.522-45.178 17.502-75.686 31.13-75.686zm-20.433 2.47c-11.133 14.539-18.792 40.968-20.463 73.216h-46.925c5.424-35.997 32.411-64.939 67.388-73.216zm-81.131 92.061c0-5.013 4.077-9.09 9.093-9.09h184.942c5.016 0 9.093 4.077 9.093 9.09s-4.077 9.09-9.093 9.09H163.529c-5.015 0-9.093-4.077-9.093-9.09zm190.539 18.845v56.95h-177.95v-56.95zM26.094 297.66c-5.011 0-9.088-4.077-9.088-9.088 0-5.013 4.077-9.09 9.088-9.09h459.811c5.011 0 9.088 4.077 9.088 9.09 0 5.011-4.077 9.088-9.088 9.088H26.094zm441.064 9.755v159.65H350.4v-159.65zm-126.513 0v159.65h-17.004v-159.65zM256 385.904c-21.358 0-38.734 17.376-38.734 38.734v42.427h-23.477v-159.65h120.097v159.65h-19.152v-42.427c0-21.358-17.376-38.734-38.734-38.734zm28.979 38.734v42.427h-57.957v-42.427c0-15.978 12.999-28.979 28.979-28.979s28.978 13.001 28.978 28.979zM184.034 307.415v159.65h-17.009v-159.65zm-26.764 0v159.65H44.842v-159.65zm328.636 187.583H26.094c-5.011 0-9.088-4.077-9.088-9.09 0-5.011 4.077-9.088 9.088-9.088h459.811c5.011 0 9.088 4.077 9.088 9.088.001 5.013-4.077 9.09-9.087 9.09zM251.109 13.009v.076-.322.246z" opacity="1" data-original="url(#a)" class=""></path></g></svg>