<svg xmlns="http://www.w3.org/2000/svg" version="1.1" xmlns:xlink="http://www.w3.org/1999/xlink" width="512" height="512" x="0" y="0" viewBox="0 0 512 512" style="enable-background:new 0 0 512 512" xml:space="preserve" class=""><rect width="512" height="512" rx="102.4" ry="102.4" fill="#bac8d3" shape="rounded"></rect><g transform="matrix(0.6,0,0,0.6,102.39979858398436,102.4)"><linearGradient id="a" x1="83.89" x2="428.11" y1="256" y2="256" gradientUnits="userSpaceOnUse"><stop offset="0" stop-color="#57ffd9"></stop><stop offset="1" stop-color="#2a6eff"></stop></linearGradient><path fill="url(#a)" d="M410.362 120.869a1613.745 1613.745 0 0 0-58.156-4.013V51.555h18.2a8 8 0 0 0 8-8V9a8 8 0 0 0-8-8H141.595a8 8 0 0 0-8 8v34.555a8 8 0 0 0 8 8h18.199v65.681a2378.033 2378.033 0 0 0-58.054 3.625h-.001c-10.176.76-17.85 8.681-17.85 18.423v272.695c0 31.638 25.739 57.377 57.377 57.377h4.473V503a8 8 0 0 0 8 8H358.26a8 8 0 0 0 8-8v-33.644h4.473c31.638 0 57.377-25.739 57.377-57.377V139.284c0-9.612-7.63-17.528-17.748-18.415zM99.89 181.444h312.22v208.334H99.89zm236.316-65.333c-4.473-.186-8.963-.352-13.465-.504V51.555h13.465zm-66.465-9.818 1.263 8.325c-9.929-.047-19.937-.013-30.024.099l1.279-8.424zm17.469 8.477-2.683-17.677a8 8 0 0 0-7.909-6.8H263.6V83.02h10.027a8 8 0 0 0 0-16h-36.055a8 8 0 0 0 0 16h10.027v7.273H235.38a8 8 0 0 0-7.909 6.799l-2.713 17.87c-6.466.125-12.966.282-19.501.471V51.555h101.482v63.586c-6.476-.159-12.987-.282-19.529-.371zM149.595 17h212.812v18.555H149.595zm26.199 34.555h13.465v64.405c-4.472.163-8.958.339-13.465.532zm-72.864 85.261c111.175-8.293 211.28-8.297 306.037-.008 1.264.11 3.144.861 3.144 2.476v26.16H99.89v-26.16c0-1.643 1.817-2.376 3.04-2.468zM350.261 495H161.739v-25.644H350.26V495zm20.472-41.644H141.267c-22.815 0-41.377-18.562-41.377-41.377v-6.201h312.22v6.201c0 22.816-18.561 41.377-41.377 41.377zm-53.567-178.88c-24.119-25.061-26.372-47.617-7.307-73.137a8 8 0 0 0-5.688-12.756c-19.227-1.743-35.505 3.263-47.081 14.47-14.155 13.703-21.063 36.602-19.447 64.477.07 1.212-.566 1.915-.87 2.108-.551-.324-2.165-1.966-3.392-6.552-1.739-6.503-.284-21.612 1.041-29.605a7.998 7.998 0 0 0-10.683-8.81c-20.288 7.552-36.062 31.226-41.164 61.783-4.546 27.219-.714 63.436 23.673 83.45 12.28 10.08 29.797 14.093 46.478 14.093 8.09 0 15.986-.945 22.987-2.6 24.901-5.884 45.017-25.324 52.496-50.734 6.312-21.439 2.184-42.444-11.043-56.187zm-42.959 60.26c4.124 4.285 5.484 11.027 3.552 17.597-2.201 7.476-7.945 12.823-15.761 14.67-7.766 1.834-19.094 1.264-24.791-3.412-8.084-6.636-7.479-20.376-6.843-25.976a58.646 58.646 0 0 1 2.454-11.366c.706 2.202 1.573 4.235 2.641 5.898 2.09 3.261 5.431 4.914 8.939 4.425 6.16-.86 7.834-6.41 9.954-13.437 2.942-9.756 6.351-19.373 12.344-25.022-2.291 11.922-2.218 26.513 7.511 36.623zm38.654-8.591c-2.906 9.874-9.239 20.951-19.346 29.141 2.875-11.594-.03-23.592-7.78-31.644-7.052-7.327-4.344-23.236.541-35.682.98-2.495.645-5.315-.893-7.511s-4.083-3.489-6.753-3.409c-18.049.449-27.797 12.654-33.484 24.699a8.003 8.003 0 0 0-10.956-4.114c-11.205 5.567-18.079 23.697-19.724 38.186-.868 7.642-.457 14.756 1.124 21.027-15.173-13.172-21.935-39.592-17.233-67.749 2.852-17.076 9.601-31.661 18.396-40.801-.344 6.579-.226 13.709 1.171 18.933 4.101 15.332 13.7 19.483 21.318 18.257 8.593-1.383 14.906-9.674 14.373-18.874-1.341-23.154 3.845-41.641 14.603-52.056 5.431-5.256 12.319-8.515 20.575-9.748-14.149 27.31-8.517 54.42 16.844 80.771 9.191 9.549 11.892 24.717 7.224 40.574z" opacity="1" data-original="url(#a)"></path></g></svg>