<svg xmlns="http://www.w3.org/2000/svg" version="1.1" xmlns:xlink="http://www.w3.org/1999/xlink" width="512" height="512" x="0" y="0" viewBox="0 0 512 512" style="enable-background:new 0 0 512 512" xml:space="preserve"><rect width="512" height="512" rx="102.4" ry="102.4" fill="#bac8d3" shape="rounded"></rect><g transform="matrix(0.58,0,0,0.58,92.5200028038025,107.52001281738282)"><linearGradient id="a" x1="115.777" x2="467.382" y1="467.382" y2="115.778" gradientUnits="userSpaceOnUse"><stop offset="0" stop-color="#ed71ad"></stop><stop offset="1" stop-color="#7277f1"></stop></linearGradient><path fill="url(#a)" d="M504.738 256.002c0-137.157-111.584-248.74-248.738-248.74S7.262 118.846 7.262 256.002c0 137.154 111.584 248.736 248.738 248.736h242.671a6.067 6.067 0 1 0 0-12.134H332.635c99.76-32.39 172.103-126.184 172.103-236.602zM256 492.604c-130.464 0-236.604-106.14-236.604-236.602 0-130.467 106.14-236.607 236.604-236.607s236.604 106.14 236.604 236.607c0 130.462-106.14 236.602-236.604 236.602zm0-442.517c-113.541 0-205.913 92.374-205.913 205.915 0 113.539 92.371 205.91 205.913 205.91s205.913-92.371 205.913-205.91c0-113.541-92.372-205.915-205.913-205.915zm0 399.692c-106.851 0-193.779-86.928-193.779-193.777C62.221 149.151 149.149 62.22 256 62.22s193.779 86.93 193.779 193.782c0 106.849-86.928 193.777-193.779 193.777zM294.185 256c0-21.056-17.129-38.185-38.185-38.185S217.815 234.944 217.815 256s17.129 38.185 38.185 38.185 38.185-17.129 38.185-38.185zM256 282.052c-14.366 0-26.052-11.686-26.052-26.052s11.686-26.052 26.052-26.052 26.052 11.686 26.052 26.052-11.686 26.052-26.052 26.052zm-69.071-23.682c20.506-20.815 20.263-54.217-.555-74.73-20.757-20.445-54.279-20.203-74.728.552h-.002c-20.506 20.814-20.263 54.219.555 74.728 20.786 20.49 54.216 20.268 74.73-.55zm-66.64-65.661h-.002c15.757-15.987 41.584-16.181 57.57-.424 16.037 15.797 16.232 41.527.427 57.568-15.846 16.087-41.596 16.172-57.568.424-16.038-15.797-16.233-41.527-.427-57.568zm44.363 106.775c-25.864 13.42-35.986 45.38-22.566 71.242 13.387 25.795 45.319 36.018 71.242 22.566 25.862-13.42 35.986-45.38 22.566-71.242s-45.38-35.984-71.242-22.566zm43.089 83.039c-19.928 10.34-44.546 2.538-54.885-17.385-10.369-19.983-2.603-44.514 17.385-54.885 20.034-10.383 44.534-2.564 54.885 17.385 10.337 19.923 2.538 44.546-17.385 54.885zm103.848-87.366c-28.744 4.771-48.247 32.038-43.475 60.782 4.778 28.787 32.098 48.257 60.779 43.477 28.823-4.78 48.263-31.951 43.477-60.782-4.77-28.744-32.042-48.281-60.781-43.477zm15.319 92.291c-22.17 3.666-43.148-11.352-46.826-33.495-3.676-22.146 11.349-43.152 33.493-46.828 22.184-3.67 43.156 11.38 46.828 33.495 3.682 22.211-11.28 43.14-33.495 46.828zm77.276-196.092c-27.662-37.491-87.729-23.253-94.779 23.499-4.344 28.812 15.563 55.786 44.373 60.132 28.918 4.354 55.779-15.503 60.13-44.37 2.106-13.966-1.347-27.908-9.724-39.261zm-2.273 37.45c-3.359 22.265-24.057 37.539-46.323 34.185-22.196-3.349-37.533-24.13-34.187-46.326 5.397-35.764 51.554-47.194 73.019-18.106 6.453 8.746 9.114 19.488 7.491 30.247zm-169.552-36.685c26.016 13.012 57.843 2.482 70.903-23.62 13.034-26.059 2.436-57.864-23.623-70.901-26.127-13.069-57.822-2.518-70.901 23.62-13.031 26.059-2.438 57.865 23.621 70.901zm-12.769-65.474c10.047-20.076 34.542-28.236 54.622-18.196v.002c20.075 10.041 28.239 34.543 18.198 54.62-10.046 20.073-34.547 28.237-54.625 18.193-20.072-10.04-28.234-34.542-18.195-54.619z" opacity="1" data-original="url(#a)"></path></g></svg>