<svg xmlns="http://www.w3.org/2000/svg" version="1.1" xmlns:xlink="http://www.w3.org/1999/xlink" width="512" height="512" x="0" y="0" viewBox="0 0 64 64" style="enable-background:new 0 0 512 512" xml:space="preserve"><rect width="64" height="64" rx="12.8" ry="12.8" fill="#bac8d3" shape="rounded"></rect><g transform="matrix(0.7,0,0,0.7,9.599969959259035,9.601629638671877)"><linearGradient id="a" x1="10.79" x2="53.21" y1="14.795" y2="57.214" gradientUnits="userSpaceOnUse"><stop offset="0" stop-color="#ef32d9"></stop><stop offset="1" stop-color="#3f5efb"></stop></linearGradient><path fill="url(#a)" d="M21 33h22a1 1 0 0 0 1-1V18a3 3 0 0 0-3-3H23a3 3 0 0 0-3 3v14a1 1 0 0 0 1 1zm21-15v13h-9V17h8a1 1 0 0 1 1 1zm-19-1h8v14h-9V18a1 1 0 0 1 1-1zm28.975 36.319c-.011-.012-.019-.024-.03-.035l-6.211-7.1A5 5 0 0 0 48 42.007V15c0-2.506-1.869-4-5-4h-4V9h6a1 1 0 0 0 0-2H19a1 1 0 0 0 0 2h6v2h-4a5 5 0 0 0-5 5v26.007a5 5 0 0 0 2.266 4.178l-6.211 7.1c-.011.011-.019.023-.03.035l-1.778 2.032a1 1 0 0 0 1.506 1.318l1.46-1.67h37.574l1.46 1.669a1 1 0 0 0 1.506-1.318zM27 9h10v2H27zm-9 7a3 3 0 0 1 3-3h22c3 0 3 1.505 3 2v27a3 3 0 0 1-3 3H21a3 3 0 0 1-3-3zm3 31h22a4.907 4.907 0 0 0 .731-.074L45.546 49H18.454l1.815-2.074A4.907 4.907 0 0 0 21 47zm-6.121 6 1.75-2h30.742l1.75 2zM24 43a4 4 0 1 0-4-4 4 4 0 0 0 4 4zm0-6a2 2 0 1 1-2 2 2 2 0 0 1 2-2zm16-2a4 4 0 1 0 4 4 4 4 0 0 0-4-4zm0 6a2 2 0 1 1 2-2 2 2 0 0 1-2 2z" opacity="1" data-original="url(#a)"></path></g></svg>