<svg xmlns="http://www.w3.org/2000/svg" version="1.1" xmlns:xlink="http://www.w3.org/1999/xlink" width="512" height="512" x="0" y="0" viewBox="0 0 128 128" style="enable-background:new 0 0 512 512" xml:space="preserve"><rect width="128" height="128" rx="25.6" ry="25.6" fill="#bac8d3" shape="rounded"></rect><g transform="matrix(0.6499999999999998,0,0,0.6499999999999998,22.40000066757203,22.400000000000013)"><linearGradient id="a" x1="105.274" x2="22.726" y1="109.692" y2="27.143" gradientUnits="userSpaceOnUse"><stop offset="0" stop-color="#24d3b5"></stop><stop offset="1" stop-color="#62a6fd"></stop></linearGradient><path fill="url(#a)" d="M90.925 39.5a1.8 1.8 0 0 0-.458-1.181L76.914 23.487v-8.98a4.745 4.745 0 0 0 4-4.674V4.75A4.755 4.755 0 0 0 76.167 0h-4.25a1.75 1.75 0 0 0 0 3.5h4.25a1.251 1.251 0 0 1 1.25 1.25v5.083a1.251 1.251 0 0 1-1.25 1.25H51.833a1.251 1.251 0 0 1-1.25-1.25V4.75a1.251 1.251 0 0 1 1.25-1.25h13.334a1.75 1.75 0 0 0 0-3.5H51.833a4.755 4.755 0 0 0-4.75 4.75v5.083a4.745 4.745 0 0 0 4 4.674v8.98L37.534 38.315a1.8 1.8 0 0 0-.458 1.181v27.337a1.85 1.85 0 0 0 .241.887l4.532 7.712a10.277 10.277 0 0 1-1.227 12.126 13.793 13.793 0 0 0-3.547 9.242v24.45a6.757 6.757 0 0 0 6.75 6.75h40.35a6.757 6.757 0 0 0 6.75-6.75V96.8a13.8 13.8 0 0 0-3.546-9.242 10.277 10.277 0 0 1-1.227-12.126l4.532-7.712a1.85 1.85 0 0 0 .241-.887zM73.414 14.583v7.833H54.586v-7.833zM53.608 25.917h20.784L85.2 37.746H42.8zm-13.033 84.152h46.85v5.69h-46.85zm46.85-3.5h-46.85v-5.69h46.85zm-3.25 17.931h-40.35a3.254 3.254 0 0 1-3.25-3.25v-1.991h46.85v1.991a3.254 3.254 0 0 1-3.25 3.25zM64 68.583h22.117l-2.982 5.076A13.764 13.764 0 0 0 84.777 89.9a10.3 10.3 0 0 1 2.648 6.9v.578h-46.85V96.8a10.3 10.3 0 0 1 2.648-6.9 13.764 13.764 0 0 0 1.643-16.241l-2.982-5.076h6.866a1.75 1.75 0 0 0 0-3.5h-8.175V41.246h46.85v23.837H64a1.75 1.75 0 1 0 0 3.5zm-5.188-1.75a1.75 1.75 0 0 1-1.75 1.75h-1.375a1.75 1.75 0 0 1 0-3.5h1.375a1.75 1.75 0 0 1 1.75 1.75zM71 54.25c0-3.472-4.824-8.257-5.791-9.182a1.75 1.75 0 0 0-2.418 0c-.967.925-5.791 5.71-5.791 9.182a7 7 0 0 0 14 0zm-10.5 0c0-1.055 1.649-3.4 3.5-5.415 1.851 2.012 3.5 4.36 3.5 5.415a3.5 3.5 0 0 1-7 0z" opacity="1" data-original="url(#a)"></path></g></svg>