<svg xmlns="http://www.w3.org/2000/svg" version="1.1" xmlns:xlink="http://www.w3.org/1999/xlink" width="512" height="512" x="0" y="0" viewBox="0 0 64 64" style="enable-background:new 0 0 512 512" xml:space="preserve" class=""><rect width="64" height="64" rx="12.8" ry="12.8" fill="#bac8d3" shape="rounded"></rect><g transform="matrix(0.5499999999999999,0,0,0.5499999999999999,14.400000000000002,14.400000000000002)"><linearGradient id="a" x1="4" x2="60" y1="32" y2="32" gradientUnits="userSpaceOnUse"><stop offset="0" stop-color="#ff81ff"></stop><stop offset="1" stop-color="#a93aff"></stop></linearGradient><path fill="url(#a)" d="M60 46.5V59a1 1 0 0 1-1 1H45.39a1 1 0 0 1 0-2H58V46.5a1 1 0 0 1 2 0zM18.61 58H6V46.5a1 1 0 0 0-2 0V59a1 1 0 0 0 1 1h13.61a1 1 0 0 0 0-2zM5 20.72a1 1 0 0 0 1-1V6h12.61a1 1 0 0 0 0-2H5a1 1 0 0 0-1 1v14.72a1 1 0 0 0 1 1zM59 4H45.39a1 1 0 0 0 0 2H58v13.72a1 1 0 0 0 2 0V5a1 1 0 0 0-1-1zM47.305 39.348c-.839 20.301-29.771 20.3-30.61 0V24.652c.839-20.301 29.771-20.3 30.61 0zm-2-14.696c-.73-17.649-25.88-17.646-26.61 0v14.696c.73 17.649 25.88 17.646 26.61 0zm-10.596 22.44a8.26 8.26 0 0 1-11.503-7.528V28.267a1 1 0 0 0-2 0v11.297c-.151 7.209 7.778 12.366 14.306 9.36a1 1 0 0 0-.803-1.832zm-1.905-33.168c-.87-.006-2.313-.023-2.19 1.205a1.007 1.007 0 0 0 1.12.864 8.238 8.238 0 0 1 9.283 8.144v16.94a1 1 0 1 0 2 0v-16.94a10.224 10.224 0 0 0-10.213-10.213zm4.37 10.304a1 1 0 0 0-1 1v13.598a4.192 4.192 0 0 1-5.14 4.062 1 1 0 0 0-.465 1.945 6.2 6.2 0 0 0 7.605-6.007V25.23a1 1 0 0 0-1-1zM27.098 38.82a1 1 0 0 0 1-1V26.233a4.19 4.19 0 0 1 4.96-4.1 1 1 0 0 0 .377-1.964 6.198 6.198 0 0 0-7.337 6.064V37.82a1 1 0 0 0 1 1zM31 27.435V37.82a1 1 0 0 0 2 0V27.435a1 1 0 0 0-2 0z" opacity="1" data-original="url(#a)"></path></g></svg>