<svg xmlns="http://www.w3.org/2000/svg" version="1.1" xmlns:xlink="http://www.w3.org/1999/xlink" width="512" height="512" x="0" y="0" viewBox="0 0 512 512" style="enable-background:new 0 0 512 512" xml:space="preserve"><rect width="512" height="512" rx="102.4" ry="102.4" fill="#bac8d3" shape="rounded"></rect><g transform="matrix(0.6399999999999998,0,0,0.6399999999999998,92.16001098632816,92.16000000000005)"><linearGradient id="a" x1="61.371" x2="450.629" y1="450.629" y2="61.371" gradientUnits="userSpaceOnUse"><stop offset="0" stop-color="#f803fe"></stop><stop offset="1" stop-color="#0ecbde"></stop></linearGradient><path fill="url(#a)" d="M55.428 424.332h401.144c27.138 0 49.215-22.077 49.215-49.215V136.883c0-27.138-22.077-49.215-49.215-49.215H55.428c-27.138 0-49.215 22.077-49.215 49.215v238.234c0 27.138 22.077 49.215 49.215 49.215zM21.351 136.883c0-18.79 15.286-34.077 34.077-34.077h401.144c18.79 0 34.077 15.286 34.077 34.077v238.234c0 18.79-15.286 34.077-34.077 34.077H55.428c-18.79 0-34.077-15.286-34.077-34.077zm294.415 14.732a7.57 7.57 0 0 1 7.569-7.569h120.542a7.57 7.57 0 0 1 0 15.138H323.335a7.568 7.568 0 0 1-7.569-7.569zm0 69.59a7.57 7.57 0 0 1 7.569-7.569h70.006a7.57 7.57 0 0 1 0 15.138h-70.006a7.57 7.57 0 0 1-7.569-7.569zm0 69.59a7.57 7.57 0 0 1 7.569-7.569h120.542a7.57 7.57 0 0 1 0 15.138H323.335a7.57 7.57 0 0 1-7.569-7.569zm0 69.59a7.57 7.57 0 0 1 7.569-7.569h96.706a7.57 7.57 0 0 1 0 15.138h-96.706a7.57 7.57 0 0 1-7.569-7.569zm-67.577-208.77a7.57 7.57 0 0 1 7.569-7.569h32.628a7.57 7.57 0 0 1 0 15.138h-32.628a7.569 7.569 0 0 1-7.569-7.569zm0 69.59a7.57 7.57 0 0 1 7.569-7.569h32.628a7.57 7.57 0 0 1 0 15.138h-32.628a7.57 7.57 0 0 1-7.569-7.569zm0 69.59a7.57 7.57 0 0 1 7.569-7.569h32.628a7.57 7.57 0 0 1 0 15.138h-32.628a7.57 7.57 0 0 1-7.569-7.569zm0 69.59a7.57 7.57 0 0 1 7.569-7.569h32.628a7.57 7.57 0 0 1 0 15.138h-32.628a7.57 7.57 0 0 1-7.569-7.569zM82.034 372.451h118.137c11.712 0 21.21-9.532 21.21-21.242V160.794c0-11.692-9.511-21.205-21.205-21.205H82.014c-11.694 0-21.205 9.513-21.205 21.205v190.415c0 11.586 9.414 21.242 21.225 21.242zm-6.066-21.205V320.9c15.435-20.095 39.534-32.034 64.987-32.117.029 0 .057.004.086.004.093 0 .183-.014.276-.014 25.372.031 49.457 11.987 64.921 32.126v30.334a6.068 6.068 0 0 1-6.061 6.039H82.014c-3.302.001-6.046-2.675-6.046-6.026zm31.992-110.682c0-18.302 14.838-33.192 33.081-33.192 18.302 0 33.195 14.89 33.195 33.192 0 18.139-14.726 32.9-32.884 33.068-.044 0-.089-.004-.133-.004-.119 0-.236.01-.355.011-18.161-.097-32.904-14.892-32.904-33.075zm-25.946-85.837h118.162a6.071 6.071 0 0 1 6.066 6.066v137.959a97.663 97.663 0 0 0-35.288-20.384c11.198-8.839 18.42-22.484 18.42-37.803 0-26.65-21.683-48.331-48.333-48.331-26.586 0-48.22 21.68-48.22 48.331 0 15.342 7.227 29.003 18.428 37.842a97.79 97.79 0 0 0-35.301 20.371V160.794a6.072 6.072 0 0 1 6.066-6.067z" opacity="1" data-original="url(#a)"></path></g></svg>