<svg xmlns="http://www.w3.org/2000/svg" version="1.1" xmlns:xlink="http://www.w3.org/1999/xlink" width="512" height="512" x="0" y="0" viewBox="0 0 512 512" style="enable-background:new 0 0 512 512" xml:space="preserve"><rect width="512" height="512" rx="102.4" ry="102.4" fill="#bac8d3" shape="rounded"></rect><g transform="matrix(0.5499999999999999,0,0,0.5499999999999999,115.19978027343751,120.19977340698242)"><linearGradient id="a" x1="487.449" x2="101.528" y1="23.777" y2="409.698" gradientUnits="userSpaceOnUse"><stop offset="0" stop-color="#e93528"></stop><stop offset="1" stop-color="#f8bc16"></stop></linearGradient><path fill="url(#a)" d="M330.77 285.987c6.978 0 12.654-5.677 12.654-12.654V66.891c0-6.978-5.677-12.654-12.654-12.654H60.094c-6.978 0-12.654 5.677-12.654 12.654v206.441c0 6.978 5.677 12.654 12.654 12.654H330.77zM61.439 68.237h267.984v203.75H61.439zm306.626 90.695h27.192a7 7 0 0 0 7-7V124.74a7 7 0 0 0-7-7h-27.192a7 7 0 0 0-7 7v27.192a7 7 0 0 0 7 7zm7-27.192h13.192v13.192h-13.192zm6.597-36.361c11.343 0 20.57-9.229 20.57-20.571s-9.228-20.571-20.57-20.571-20.571 9.228-20.571 20.571 9.228 20.571 20.571 20.571zm0-27.142a6.578 6.578 0 0 1 6.57 6.571c0 3.624-2.947 6.571-6.57 6.571s-6.571-2.948-6.571-6.571 2.948-6.571 6.571-6.571zm0 113.055c-11.343 0-20.571 9.228-20.571 20.571s9.229 20.571 20.571 20.571 20.57-9.229 20.57-20.571-9.227-20.571-20.57-20.571zm0 27.142c-3.623 0-6.571-2.948-6.571-6.571s2.948-6.571 6.571-6.571 6.57 2.948 6.57 6.571a6.577 6.577 0 0 1-6.57 6.571zm-13.597 77.553h27.192a7 7 0 0 0 7-7v-27.192a7 7 0 0 0-7-7h-27.192a7 7 0 0 0-7 7v27.192a7 7 0 0 0 7 7zm7-27.192h13.192v13.192h-13.192zm101.707 153.807V16a7 7 0 1 0-14 0v396.592H280.489V364.71H382.96a7 7 0 0 0 7-7v-26.487h26.773c13.214 0 23.964-10.75 23.964-23.964V32.964C440.697 19.751 429.947 9 416.733 9H32.964C19.75 9 9 19.751 9 32.964V307.26c0 13.214 10.75 23.964 23.964 23.964h26.773v26.487a7 7 0 0 0 7 7h199.752v47.882h-3c-14.67 0-26.605 11.936-26.605 26.605v37.197c0 14.67 11.936 26.604 26.605 26.604h212.905c14.67 0 26.605-11.935 26.605-26.604v-37.197c.001-14.543-11.731-26.392-26.227-26.596zM375.96 350.711h-95.471v-19.487h95.471zM23 307.26V32.964C23 27.47 27.47 23 32.964 23h383.77c5.494 0 9.964 4.47 9.964 9.964V307.26c0 5.494-4.47 9.964-9.964 9.964H280.489v-8.868a7 7 0 1 0-14 0v8.868H32.964c-5.494-.001-9.964-4.47-9.964-9.964zm50.737 43.451v-19.487h192.752v19.487zM489 476.395c0 6.95-5.654 12.604-12.605 12.604H263.489c-6.951 0-12.605-5.654-12.605-12.604v-37.197c0-6.951 5.654-12.605 12.605-12.605h3v6.167a7 7 0 1 0 14 0v-6.167h182.283v6.167a7 7 0 1 0 14 0v-6.148c6.775.202 12.228 5.763 12.228 12.586zm-48.01-40.097c-11.854 0-21.499 9.645-21.499 21.499s9.645 21.498 21.499 21.498 21.498-9.645 21.498-21.498c0-11.855-9.644-21.499-21.498-21.499zm0 28.997c-4.135 0-7.499-3.363-7.499-7.498s3.364-7.499 7.499-7.499 7.498 3.364 7.498 7.499-3.363 7.498-7.498 7.498zm-79-4.306a7 7 0 0 1-7 7h-70.594a7 7 0 1 1 0-14h70.594a7 7 0 0 1 7 7z" opacity="1" data-original="url(#a)"></path></g></svg>