<svg xmlns="http://www.w3.org/2000/svg" version="1.1" xmlns:xlink="http://www.w3.org/1999/xlink" width="512" height="512" x="0" y="0" viewBox="0 0 64 64" style="enable-background:new 0 0 512 512" xml:space="preserve"><rect width="64" height="64" rx="12.8" ry="12.8" fill="#bac8d3" shape="rounded"></rect><g transform="matrix(0.69,0,0,0.69,9.920000000000002,9.920000000000002)"><linearGradient id="a" x1="4" x2="60" y1="32" y2="32" gradientUnits="userSpaceOnUse"><stop offset="0" stop-color="#7f00ff"></stop><stop offset="1" stop-color="#e100ff"></stop></linearGradient><path fill="url(#a)" d="M56 13H8c-2.206 0-4 1.794-4 4v30c0 2.206 1.794 4 4 4h48c2.206 0 4-1.794 4-4V26c-.03-1.317-1.973-1.315-2 0v11c0 1.103-.897 2-2 2H8c-1.103 0-2-.897-2-2V17c0-1.103.897-2 2-2h48c1.103 0 2 .897 2 2v4a1 1 0 0 0 2 0v-4c0-2.206-1.794-4-4-4zM8 41h48c.732 0 1.41-.212 2-.556V42c0 1.103-.897 2-2 2h-4c-1.322.025-1.308 1.979 0 2h4c.732 0 1.41-.212 2-.556V47c0 1.103-.897 2-2 2H8c-1.103 0-2-.897-2-2v-1.556c.59.344 1.268.556 2 .556h39c1.308-.02 1.32-1.977 0-2H8c-1.103 0-2-.897-2-2v-1.556c.59.344 1.268.556 2 .556zm2-15v5.1a5.015 5.015 0 0 1 3.9 3.9h36.2a5.015 5.015 0 0 1 3.9-3.9v-8.2a5.015 5.015 0 0 1-3.9-3.9H13.9A5.009 5.009 0 0 1 9 23a1 1 0 0 1 0-2c1.654 0 3-1.346 3-3a1 1 0 0 1 1-1h38a1 1 0 0 1 1 1c0 1.654 1.346 3 3 3a1 1 0 0 1 1 1v10a1 1 0 0 1-1 1c-1.654 0-3 1.346-3 3a1 1 0 0 1-1 1H13a1 1 0 0 1-1-1c0-1.654-1.346-3-3-3a1 1 0 0 1-1-1v-6a1 1 0 0 1 2 0zm27 1c0-2.757-2.243-5-5-5-6.617.235-6.616 9.766 0 10 2.757 0 5-2.243 5-5zm-8 0c.104-3.956 5.897-3.955 6 0-.104 3.956-5.897 3.955-6 0zm-13 1c-1.315-.022-1.313-1.978 0-2h5c1.315.022 1.313 1.978 0 2zm27 0c-1.315-.022-1.313-1.978 0-2h5c1.315.022 1.313 1.978 0 2z" opacity="1" data-original="url(#a)"></path></g></svg>