<svg xmlns="http://www.w3.org/2000/svg" version="1.1" xmlns:xlink="http://www.w3.org/1999/xlink" width="512" height="512" x="0" y="0" viewBox="0 0 3873 3873" style="enable-background:new 0 0 512 512" xml:space="preserve"><rect width="3873" height="3873" rx="774.6" ry="774.6" fill="#bac8d3" shape="rounded"></rect><g transform="matrix(0.7,0,0,0.7,581.565023803711,582.6900329589844)"><linearGradient id="a" x1="650.738" x2="3226.369" y1="3219.513" y2="643.881" gradientTransform="matrix(1 0 0 -1 0 3874)" gradientUnits="userSpaceOnUse"><stop offset="0" stop-color="#ee0979"></stop><stop offset="1" stop-color="#ff6a00"></stop></linearGradient><path fill="url(#a)" fill-rule="evenodd" d="M3407.3 931.2H469.8c-127.7 0-231.6 103.9-231.6 231.6v1559c0 127.7 103.9 231.6 231.6 231.6h2937.5c127.7 0 231.6-103.9 231.6-231.5V1162.8c0-127.7-103.9-231.6-231.6-231.6zM355 1459.5h3167.1v236.2H355zM469.8 1048h2937.5c63.3 0 114.8 51.5 114.8 114.8v179.9H355v-179.9c0-63.3 51.5-114.8 114.8-114.8zm2937.5 1788.7H469.8c-63.3 0-114.8-51.5-114.8-114.8v-909.4h3167.1v909.4c0 63.3-51.5 114.8-114.8 114.8zm-1929.1-603.8H599.8c-32.3 0-58.4 26.2-58.4 58.4v322.6c0 32.3 26.2 58.4 58.4 58.4h878.4c32.3 0 58.4-26.1 58.4-58.4v-322.6c0-32.3-26.2-58.4-58.4-58.4zm-58.3 322.7H658.2v-205.8h761.7zM3295 2020.2h-464.2c-1.1-.1-2.2-.1-3.3-.1s-2.2 0-3.3.1h-192.4c-51.1 0-92.6 41.5-92.6 92.6v380c0 51.1 41.5 92.6 92.6 92.6H3295c51 0 92.6-41.6 92.6-92.6v-380c0-51.1-41.5-92.6-92.6-92.6zm-24.2 226h-384.9v-109.3h384.9zm-615-109.3h113.3v331.7h-113.3zm230.1 331.7V2363h384.9v105.6h-384.9z" clip-rule="evenodd" opacity="1" data-original="url(#a)"></path></g></svg>