<svg xmlns="http://www.w3.org/2000/svg" version="1.1" xmlns:xlink="http://www.w3.org/1999/xlink" width="512" height="512" x="0" y="0" viewBox="0 0 512 512" style="enable-background:new 0 0 512 512" xml:space="preserve" class=""><rect width="512" height="512" rx="102.4" ry="102.4" fill="#bac8d3" shape="rounded"></rect><g transform="matrix(0.63,0,0,0.63,94.72000370502474,90.03768081665038)"><linearGradient id="a" x1="444.476" x2="68.907" y1="154.727" y2="530.296" gradientUnits="userSpaceOnUse"><stop offset="0" stop-color="#faac1e"></stop><stop offset="1" stop-color="#eb1b45"></stop></linearGradient><path fill="url(#a)" d="M506.357 435.336H273.572v-6.7a17.773 17.773 0 0 0-17.753-17.753h-62.252v-87.306a29.57 29.57 0 0 0 5.11-3.945 177.92 177.92 0 0 0 103.462 33.1q6.286 0 12.6-.445a177.958 177.958 0 0 0 113.268-51.7 2.989 2.989 0 0 0 .751-2.941h.012l-50.247-176.03a17.48 17.48 0 1 0-23.333-23.333L179.164 48.034v.013a2.985 2.985 0 0 0-2.94.751 178.066 178.066 0 0 0-19.04 229.33 29.334 29.334 0 0 0 5.935 45.45v87.306h-62.256a17.773 17.773 0 0 0-17.753 17.753v6.7H5.643a3 3 0 0 0-3 3v24.452a3 3 0 0 0 3 3h500.714a3 3 0 0 0 3-3v-24.453a3 3 0 0 0-3-3zm-86.528-147.171-108.62-108.62 56.479-56.48a17.585 17.585 0 0 0 3.231.306 17.839 17.839 0 0 0 1.841-.1zm-61.27-169.914a17.52 17.52 0 0 0 3.042 2.417L306.967 175.3l-5.46-5.46 54.634-54.635a17.561 17.561 0 0 0 2.418 3.046zm4.241-20.479a11.48 11.48 0 0 1 16.235 16.236A11.48 11.48 0 1 1 362.8 97.772zm-9.057 11.349L297.265 165.6 188.644 56.98l164.9 47.069a17.839 17.839 0 0 0-.1 1.841 17.593 17.593 0 0 0 .3 3.231zM178.359 55.18l243.269 243.269c-59.1 57.058-152.2 64.1-219.053 16.592a29.355 29.355 0 0 0-40.806-40.809c-47.492-66.826-40.421-159.986 16.59-219.052zm-23.39 243.288a23.373 23.373 0 1 1 23.372 23.372 23.4 23.4 0 0 1-23.372-23.372zm14.146 27.879a29.253 29.253 0 0 0 18.452 0v84.537h-18.452zM89.11 428.637a11.766 11.766 0 0 1 11.753-11.753h154.956a11.766 11.766 0 0 1 11.753 11.753v6.7H89.11zm414.247 31.151H8.643v-18.452h494.714z" opacity="1" data-original="url(#a)"></path></g></svg>