<svg xmlns="http://www.w3.org/2000/svg" version="1.1" xmlns:xlink="http://www.w3.org/1999/xlink" width="512" height="512" x="0" y="0" viewBox="0 0 512 512" style="enable-background:new 0 0 512 512" xml:space="preserve"><rect width="512" height="512" rx="102.4" ry="102.4" fill="#bac8d3" shape="rounded"></rect><g transform="matrix(0.6399999999999998,0,0,0.6399999999999998,92.16014659881597,92.16011672973642)"><linearGradient id="a" x1="256" x2="256" y1="5.886" y2="506.114" gradientUnits="userSpaceOnUse"><stop offset="0" stop-color="#22bee7"></stop><stop offset="1" stop-color="#1b6db5"></stop></linearGradient><path fill="url(#a)" d="m497.931 198.177-7.47-51.174c0-.046.003-.09.003-.136 0-11.482-7.713-21.19-18.229-24.232V89.177l1.358-.395c6.36-1.85 10.553-7.543 10.433-14.167-.121-6.623-4.519-12.16-10.942-13.777L260.846 7.406a50.692 50.692 0 0 0-23.739-.218L25.062 56.446c-6.454 1.5-10.953 6.956-11.193 13.578-.241 6.622 3.849 12.39 10.177 14.354l51.616 16.025v52.619c0 .241.017.478.022.718-28.803 6.379-49.737 31.92-49.737 62.115 0 20.063 9.34 37.977 23.89 49.652H37.025a7.002 7.002 0 0 0-6.292 10.069c19.802 40.606 19.923 75.444.368 106.506a7 7 0 0 0 5.924 10.73h12.812c-14.55 11.675-23.89 29.589-23.89 49.652 0 35.098 28.554 63.651 63.651 63.651h385.38a6.999 6.999 0 0 0 5.924-10.73c-19.555-31.061-19.435-65.899.368-106.506a7 7 0 0 0-6.292-10.069h-12.812c14.55-11.675 23.89-29.589 23.89-49.652s-9.34-37.977-23.89-49.652h12.812a6.999 6.999 0 0 0 5.924-10.729c-9.3-14.774-14.143-30.78-14.458-47.644h11.638c5.83 0 11.361-2.529 15.174-6.939s5.517-10.248 4.675-16.017zm-21.467-51.31c0 6.191-5.037 11.229-11.229 11.229s-11.228-5.037-11.228-11.229 5.037-11.228 11.228-11.228 11.229 5.037 11.229 11.228zm-18.228-24.232c-10.328 2.989-17.944 12.41-18.212 23.624l-.859 5.943h-16.953v-48.468l36.024-10.483zm-22.314 51.998h-22.487a32.627 32.627 0 0 0 5.702-8.43h18.004zM27.859 70.532c.014-.367.126-.393.371-.45l212.045-49.257a36.523 36.523 0 0 1 8.248-.941c2.998 0 5.997.367 8.905 1.099l212.238 53.431c.244.062.355.09.362.457.007.366-.104.398-.345.469l-209.771 61.044a37.694 37.694 0 0 1-21.764-.194L28.196 71.008c-.24-.075-.35-.109-.337-.475zm206.139 79.027a51.728 51.728 0 0 0 15.353 2.335c4.864 0 9.731-.689 14.474-2.069l144.387-42.017v44.712c0 6.314-3.325 12.282-8.678 15.572-22.921 14.087-83.478 46.854-150.597 46.854-71.556 0-129.377-32.557-150.916-46.554-5.234-3.402-8.359-9.148-8.359-15.37v-48.273l144.337 44.811zM55.492 301.936h366.912c15.01 0 27.222 12.212 27.222 27.222s-12.212 27.222-27.222 27.222H56.91c3.957-17.158 3.483-35.34-1.418-54.444zm399.6 167.748H89.598c-15.01 0-27.222-12.211-27.222-27.222s12.212-27.223 27.222-27.223H456.51c-4.902 19.104-5.376 37.286-1.418 54.444zm9.024-76.874a176.302 176.302 0 0 0-3.279 8.43H89.598c-22.729 0-41.222 18.493-41.222 41.223s18.492 41.222 41.222 41.222h369.788a107.642 107.642 0 0 0 3.682 8.43H89.598c-27.378 0-49.651-22.273-49.651-49.651s22.273-49.652 49.651-49.652h374.519zm7.94-63.652c0 27.378-22.273 49.652-49.651 49.652H48.935a107.642 107.642 0 0 0 3.682-8.43h369.788c22.729 0 41.222-18.492 41.222-41.222s-18.492-41.222-41.222-41.222H51.165a175.655 175.655 0 0 0-3.279-8.43h374.519c27.378 0 49.651 22.274 49.651 49.652zM89.598 265.507c-27.378 0-49.651-22.274-49.651-49.652 0-23.652 16.459-43.645 39.063-48.516a32.178 32.178 0 0 0 5.266 7.649c-20.223 2.62-35.899 19.942-35.899 40.867 0 22.729 18.492 41.222 41.222 41.222h369.802a107.626 107.626 0 0 0 3.672 8.43zM455.1 243.076H89.598c-15.01 0-27.222-12.211-27.222-27.222s12.212-27.222 27.222-27.222h14.789c28.772 16.403 81.524 40.313 144.55 40.313 59.054 0 112.944-23.876 143.042-40.313h41.919l-1.384 9.573c-.833 5.765.876 11.597 4.688 16s9.34 6.928 15.164 6.928h.067a104.426 104.426 0 0 0 2.666 21.942zm27.565-38.038c-.677.783-2.172 2.096-4.583 2.096h-25.715c-2.409 0-3.903-1.311-4.58-2.093s-1.761-2.449-1.417-4.833l4.695-32.48a25.079 25.079 0 0 0 14.17 4.368 25.084 25.084 0 0 0 14.108-4.323l4.733 32.427c.349 2.386-.735 4.055-1.412 4.838z" opacity="1" data-original="url(#a)"></path></g></svg>