<svg xmlns="http://www.w3.org/2000/svg" version="1.1" xmlns:xlink="http://www.w3.org/1999/xlink" width="512" height="512" x="0" y="0" viewBox="0 0 512 512" style="enable-background:new 0 0 512 512" xml:space="preserve"><rect width="512" height="512" rx="102.4" ry="102.4" fill="#bac8d3" shape="rounded"></rect><g transform="matrix(0.5900000000000001,0,0,0.5900000000000001,94.96014232635497,114.96019550323484)"><linearGradient id="a" x1="256" x2="256" y1="510.99" y2="1.01" gradientUnits="userSpaceOnUse"><stop offset="0" stop-color="#923edc"></stop><stop offset=".682" stop-color="#3e63e3"></stop><stop offset="1" stop-color="#1675e7"></stop></linearGradient><path fill="url(#a)" d="M459.458 52.514c8.066 8.063 10.473 21.819 6.437 36.8-.77 2.861-3.724 4.512-6.51 3.745a5.31 5.31 0 0 1-3.75-6.51c2.993-11.095 1.577-21.259-3.688-26.524-5.254-5.257-15.421-6.655-26.495-3.662-2.811.76-5.747-.908-6.51-3.74a5.31 5.31 0 0 1 3.74-6.515c14.96-4.048 28.716-1.652 36.776 6.406zm30.459-30.458c34.51 34.505 23.993 92.983-12.542 129.518-6.894 6.895-23.347 21.612-45.705 40.742l5.846 26.362.297-.297c10.063-10.068 25.579-9.198 34.784-.003 9.586 9.593 9.586 25.196 0 34.787l-22.453 22.451 3.049 13.748 7.89-7.891c9.573-9.573 25.185-9.687 34.878 0 9.648 9.648 9.565 25.219-.047 34.831l-30.075 30.08 7.439 33.542a15.374 15.374 0 0 1-4.16 14.27v.003l-24.083 24.081c-7.588 7.595-20.466 5.316-24.965-4.479l-70.485-153.51c-19.649 15.792-40.212 31.989-60.743 47.694-29.044 22.216-53.497 40.031-74.177 54.33l26.648 120.209a15.368 15.368 0 0 1-4.16 14.267v.003l-9.674 9.671c-7.6 7.607-20.476 5.299-24.97-4.479l-46.927-102.21c-15.452 8.539-44.866 24.772-56.508 13.13-3.852-3.851-11.603-11.697 13.119-56.456L10.016 309.504c-9.767-4.491-12.074-17.365-4.471-24.968l9.674-9.674a15.367 15.367 0 0 1 14.275-4.157l120.165 26.656c14.312-20.696 32.101-45.125 54.353-74.208 15.699-20.517 31.887-41.066 47.674-60.703L98.211 91.946c-9.774-4.484-12.083-17.358-4.482-24.965l24.083-24.083a15.375 15.375 0 0 1 14.275-4.16l33.539 7.438 30.08-30.077c9.612-9.609 25.24-9.64 34.831-.047 9.445 9.444 9.786 25.081 0 34.878l-7.892 7.892 13.747 3.049 22.456-22.454c9.623-9.634 25.165-9.619 34.784 0 9.433 9.433 9.821 24.969 0 34.784l-.299.299 26.355 5.845c19.132-22.357 33.852-38.81 40.748-45.706C396.994-1.912 455.41-12.44 489.917 22.056zm-241.23 42.541 32.357 7.171 5.078-5.078c5.623-5.623 5.318-14.434 0-19.763-5.296-5.296-14.477-5.291-19.763 0zm-70.765-15.694 32.429 7.192 12.677-12.677c5.64-5.651 5.231-14.62 0-19.856-5.457-5.454-14.342-5.423-19.809.047zm80.6 104.997c21.744-26.897 40.231-48.974 53.354-64.408a198819.24 198819.24 0 0 1-182.091-40.386 4.815 4.815 0 0 0-4.461 1.305L101.24 74.489c-2.379 2.385-1.661 6.399 1.401 7.804zM117.424 347.162c7.458-12.728 17.573-28.308 25.759-40.358L27.19 281.074a4.805 4.805 0 0 0-4.461 1.297l-9.674 9.676c-2.384 2.389-1.661 6.398 1.401 7.804zm87.792 21.625c-13.111 8.88-26.882 17.77-40.366 25.714l47.316 103.051c1.414 3.081 5.432 3.765 7.801 1.401l9.674-9.669a4.803 4.803 0 0 0 1.297-4.461zm250.703-67.127 7.192 32.427 25.291-25.293c5.517-5.523 5.48-14.376.047-19.809-5.681-5.676-14.678-5.165-19.856.003zm-15.674-70.688 7.171 32.346 17.67-17.665c5.446-5.449 5.446-14.314 0-19.763-5.774-5.774-14.54-5.227-19.763 0zm-17.729-30.858a3622.35 3622.35 0 0 1-64.399 53.297l71.604 155.954c1.408 3.073 5.425 3.774 7.801 1.403l24.083-24.078a4.808 4.808 0 0 0 1.297-4.463l-9.587-43.23c-9.862-44.249-27.09-122.116-30.799-138.883zm59.89-170.547C451.855-.99 399.69 10.408 367.948 42.15 336.266 73.837 242.45 190.394 212.446 229.608c-27.079 35.392-64.799 86.565-87.007 124.949-24.468 42.123-19.879 49.813-18.855 50.838 1.01 1.011 8.482 5.443 48.751-17.647.015-.008.024-.024.039-.033 38.886-22.214 91.288-60.84 127.015-88.17 67.871-51.917 162.484-130.495 187.476-155.482 37.478-37.48 38.588-88.445 12.541-114.496zM210.028 294.472l-58.147 58.147c-2.075 2.075-2.075 5.436 0 7.511s5.436 2.075 7.511 0l58.147-58.147c2.075-2.075 2.075-5.436 0-7.511s-5.436-2.075-7.511 0z" opacity="1" data-original="url(#a)"></path></g></svg>