<svg xmlns="http://www.w3.org/2000/svg" version="1.1" xmlns:xlink="http://www.w3.org/1999/xlink" width="512" height="512" x="0" y="0" viewBox="0 0 512 512" style="enable-background:new 0 0 512 512" xml:space="preserve" class=""><rect width="512" height="512" rx="102.4" ry="102.4" fill="#bac8d3" shape="rounded"></rect><g transform="matrix(0.5900000000000001,0,0,0.5900000000000001,104.95999999999998,104.95999999999998)"><linearGradient id="a" x1="0" x2="512" y1="256" y2="256" gradientUnits="userSpaceOnUse"><stop offset="0" style="stop-color:#9DD6FC" stop-color="#9dd6fc"></stop><stop offset=".006" style="stop-color:#9DD6FC" stop-color="#9dd6fc"></stop><stop offset="1" style="stop-color:#D17FF7" stop-color="#d17ff7"></stop></linearGradient><path d="M452 456H60c-22.091 0-40-17.909-40-40V96c0-22.091 17.909-40 40-40h392c22.091 0 40 17.909 40 40v320c0 22.091-17.909 40-40 40zM176 216c0-22.091-17.909-40-40-40h0c-22.091 0-40 17.909-40 40v0c0 22.091 17.909 40 40 40h40v-40zm0 40h40c22.091 0 40-17.909 40-40v0c0-22.091-17.909-40-40-40h0c-22.091 0-40 17.909-40 40m0 80c0 22.091 17.909 40 40 40h0c22.091 0 40-17.909 40-40v0c0-22.091-17.909-40-40-40h-40v40zm0-40h-40c-22.091 0-40 17.909-40 40v0c0 22.091 17.909 40 40 40h0c22.091 0 40-17.909 40-40m0-240v400M20 256h472M336 376h76" style="fill:none;stroke:url(#a);stroke-width:40;stroke-linecap:round;stroke-linejoin:round;stroke-miterlimit:10;" fill="none" stroke-width="40" stroke-linecap="round" stroke-linejoin="round" stroke-miterlimit="10"></path></g></svg>