<svg xmlns="http://www.w3.org/2000/svg" version="1.1" xmlns:xlink="http://www.w3.org/1999/xlink" width="512" height="512" x="0" y="0" viewBox="0 0 63.65 63.65" style="enable-background:new 0 0 512 512" xml:space="preserve" fill-rule="evenodd" class=""><rect width="63.65" height="63.65" rx="12.73" ry="12.73" fill="#bac8d3" shape="rounded"></rect><g transform="matrix(0.7,0,0,0.7,9.54899997711182,9.54899997711182)"><linearGradient id="a" x1="31.83" x2="31.83" y1="0" y2="63.65" gradientUnits="userSpaceOnUse"><stop offset="0" stop-color="#2579ee"></stop><stop offset="1" stop-color="#b84cdb"></stop></linearGradient><path fill="url(#a)" d="M31.83 0c17.51 0 31.83 14.32 31.83 31.83S49.34 63.66 31.83 63.66 0 49.34 0 31.83 14.32 0 31.83 0zM18.96 41.32c-.66.66-.66 1.74 0 2.41.66.66 1.74.66 2.41 0l10.46-10.46 10.46 10.46c.66.66 1.74.66 2.41 0 .66-.66.66-1.74 0-2.41L33.03 29.65c-.66-.66-1.74-.66-2.41 0L18.95 41.32zm0-9.72c-.66.66-.66 1.74 0 2.41.66.66 1.74.66 2.41 0l10.46-10.46 10.46 10.46c.66.66 1.74.66 2.41 0 .66-.66.66-1.74 0-2.41L33.03 19.93c-.66-.66-1.74-.66-2.41 0L18.95 31.6zM31.83 3.41c15.63 0 28.42 12.79 28.42 28.42 0 15.63-12.79 28.42-28.42 28.42-15.63 0-28.42-12.79-28.42-28.42C3.41 16.2 16.2 3.41 31.83 3.41z" opacity="1" data-original="url(#a)" class=""></path></g></svg>