<svg xmlns="http://www.w3.org/2000/svg" version="1.1" xmlns:xlink="http://www.w3.org/1999/xlink" width="512" height="512" x="0" y="0" viewBox="0 0 64 64" style="enable-background:new 0 0 512 512" xml:space="preserve"><rect width="64" height="64" rx="12.8" ry="12.8" fill="#bac8d3" shape="rounded"></rect><g transform="matrix(0.53,0,0,0.53,15.04164768218994,15.04)"><linearGradient id="a" x1="32" x2="32" y1="64" y2="0" gradientUnits="userSpaceOnUse"><stop offset=".001" stop-color="#ffd255"></stop><stop offset=".999" stop-color="#ff78dc"></stop></linearGradient><path fill="url(#a)" d="M16 17h-4a1 1 0 0 0-1 1v6a1 1 0 0 0 1 1h4a1 1 0 0 0 1-1v-6a1 1 0 0 0-1-1zm-1 6h-2v-4h2zm1 5h-4a1 1 0 0 0-1 1v6a1 1 0 0 0 1 1h4a1 1 0 0 0 1-1v-6a1 1 0 0 0-1-1zm-1 6h-2v-4h2zm1 5h-4a1 1 0 0 0-1 1v6a1 1 0 0 0 1 1h4a1 1 0 0 0 1-1v-6a1 1 0 0 0-1-1zm-1 6h-2v-4h2zm1 5h-4a1 1 0 0 0-1 1v6a1 1 0 0 0 1 1h4a1 1 0 0 0 1-1v-6a1 1 0 0 0-1-1zm-1 6h-2v-4h2zm48 6h-4v-8.615c0-.892.424-1.69 1.163-2.191a2.604 2.604 0 0 1 2.465-.265 1 1 0 0 0 .743-1.857 4.637 4.637 0 0 0-3.98.26l.016-.11c.11-.77.527-1.435 1.174-1.87s1.42-.57 2.176-.382a1 1 0 1 0 .486-1.94 4.723 4.723 0 0 0-3.778.662A4.7 4.7 0 0 0 58 47.307a4.698 4.698 0 0 0-1.465-1.615 4.726 4.726 0 0 0-3.778-.662 1 1 0 0 0 .486 1.94 2.69 2.69 0 0 1 2.176.382 2.686 2.686 0 0 1 1.174 1.871l.016.108a4.642 4.642 0 0 0-3.98-.26 1 1 0 0 0 .743 1.858 2.607 2.607 0 0 1 2.465.265A2.61 2.61 0 0 1 57 53.385V62h-7V21a1 1 0 0 0-1-1h-8v-7a1 1 0 0 0-1-1h-2V7a1 1 0 0 0-1-1H17V3a1 1 0 0 0-2 0v3h-2V1a1 1 0 0 0-2 0v5H9a1 1 0 0 0-1 1v5H6a1 1 0 0 0-1 1v49H1a1 1 0 0 0 0 2h62a1 1 0 0 0 0-2zM10 8h26v4H10zm-3 6h32v6H21a1 1 0 0 0-1 1v41H7zm22.083 40c.478-2.834 2.95-5 5.917-5s5.439 2.166 5.917 5H29.083zM31 56h3v6h-3zm5 6v-6h3v6zm5 0v-6h1a1 1 0 0 0 1-1c0-4.411-3.589-8-8-8s-8 3.589-8 8a1 1 0 0 0 1 1h1v6h-7V22h26v40zM29 26h-4a1 1 0 0 0-1 1v6a1 1 0 0 0 1 1h4a1 1 0 0 0 1-1v-6a1 1 0 0 0-1-1zm-1 6h-2v-4h2zm9-6h-4a1 1 0 0 0-1 1v6a1 1 0 0 0 1 1h4a1 1 0 0 0 1-1v-6a1 1 0 0 0-1-1zm-1 6h-2v-4h2zm9-6h-4a1 1 0 0 0-1 1v6a1 1 0 0 0 1 1h4a1 1 0 0 0 1-1v-6a1 1 0 0 0-1-1zm-1 6h-2v-4h2zm-15 4h-4a1 1 0 0 0-1 1v6a1 1 0 0 0 1 1h4a1 1 0 0 0 1-1v-6a1 1 0 0 0-1-1zm-1 6h-2v-4h2zm9-6h-4a1 1 0 0 0-1 1v6a1 1 0 0 0 1 1h4a1 1 0 0 0 1-1v-6a1 1 0 0 0-1-1zm-1 6h-2v-4h2zm9-6h-4a1 1 0 0 0-1 1v6a1 1 0 0 0 1 1h4a1 1 0 0 0 1-1v-6a1 1 0 0 0-1-1zm-1 6h-2v-4h2z" opacity="1" data-original="url(#a)"></path></g></svg>