<svg xmlns="http://www.w3.org/2000/svg" version="1.1" xmlns:xlink="http://www.w3.org/1999/xlink" width="512" height="512" x="0" y="0" viewBox="0 0 512 512" style="enable-background:new 0 0 512 512" xml:space="preserve" class=""><rect width="512" height="512" rx="102.4" ry="102.4" fill="#bac8d3" shape="rounded"></rect><g transform="matrix(0.6,0,0,0.6,102.40923841893672,102.40019073486329)"><linearGradient id="a" x1="-.002" x2="512.045" y1="256.001" y2="256.001" gradientUnits="userSpaceOnUse"><stop offset="0" stop-color="#00c2f3"></stop><stop offset="1" stop-color="#4764af"></stop></linearGradient><path fill="url(#a)" fill-rule="evenodd" d="M487.6 265.811a4.582 4.582 0 0 1-4.492 2.989h-62.467a12 12 0 0 0-12 12v197.62a4.867 4.867 0 0 1-4.869 4.861h-75.35v-134.07a28.9 28.9 0 0 0-28.872-28.86h-87.058a28.9 28.9 0 0 0-28.873 28.86v134.07h-75.352a4.876 4.876 0 0 1-4.869-4.861V280.8a12 12 0 0 0-12-12H28.942a4.873 4.873 0 0 1-3.473-8.289L252.56 30.173a4.859 4.859 0 0 1 6.931 0l227.076 230.338a4.591 4.591 0 0 1 1.034 5.3zM276.578 13.321a28.862 28.862 0 0 0-41.11 0L8.377 243.671A28.869 28.869 0 0 0 28.942 292.8H79.4v185.62a28.9 28.9 0 0 0 28.868 28.861h87.354a12 12 0 0 0 12-12v-146.07a4.875 4.875 0 0 1 4.873-4.859h87.055a4.865 4.865 0 0 1 4.868 4.859V495.28a12 12 0 0 0 12 12h87.35a28.9 28.9 0 0 0 28.868-28.861V292.8h50.471a28.861 28.861 0 0 0 20.551-49.129z" opacity="1" data-original="url(#a)"></path></g></svg>