<svg xmlns="http://www.w3.org/2000/svg" version="1.1" xmlns:xlink="http://www.w3.org/1999/xlink" width="512" height="512" x="0" y="0" viewBox="0 0 512 512" style="enable-background:new 0 0 512 512" xml:space="preserve" class=""><rect width="512" height="512" rx="102.4" ry="102.4" fill="#bac8d3" shape="rounded"></rect><g transform="matrix(0.5599999999999999,0,0,0.5599999999999999,112.64000000000001,112.63900886535646)"><linearGradient id="a" x1=".001" x2="511.999" y1="256" y2="256" gradientUnits="userSpaceOnUse"><stop offset="0" stop-color="#617fc0"></stop><stop offset="1" stop-color="#20c4f4"></stop></linearGradient><path fill="url(#a)" fill-rule="evenodd" d="M390.95 347.342h-23V324.32h23zm6-35.006h-35a6 6 0 0 0-6 5.992v35.006a6 6 0 0 0 6 5.991h35a6 6 0 0 0 6-5.991v-35.006a6 6 0 0 0-6-5.992zM293.5 324.32h23v23.022h-23zm-6 35h35a6 6 0 0 0 6-5.991v-35.001a6 6 0 0 0-6-5.992h-35a6 6 0 0 0-6 5.992v35.006a6 6 0 0 0 6 5.991zm177.9-11.983h-23V324.32h23v23.022zm6-35.006h-35a6.006 6.006 0 0 0-6 5.992v35.006a6 6 0 0 0 6 5.991h35a6 6 0 0 0 6-5.991v-35.001a6.006 6.006 0 0 0-6-5.992zm-80.45-25.612h-23v-22.976h23zm6-35.006h-35a6.012 6.012 0 0 0-6 6.039v34.958a6.012 6.012 0 0 0 6 6.039h35a6.012 6.012 0 0 0 6-6.039v-34.958a6.012 6.012 0 0 0-6-6.039zm-103.45 12.03h23v22.976h-23zm-6 35.006h35a6.011 6.011 0 0 0 6-6.039v-34.958a6.011 6.011 0 0 0-6-6.039h-35a6.012 6.012 0 0 0-6 6.039v34.958a6.012 6.012 0 0 0 6 6.039zm177.9-12.03h-23v-22.976h23zm6-35.006h-35a6.015 6.015 0 0 0-6 6.039v34.958a6.015 6.015 0 0 0 6 6.039h35a6.015 6.015 0 0 0 6-6.039v-34.958a6.015 6.015 0 0 0-6-6.039zm-80.45-25.571h-23v-23.023h23zm6-35.006h-35a6 6 0 0 0-6 5.992v35.006a6 6 0 0 0 6 5.991h35a6 6 0 0 0 6-5.991v-35.006a6 6 0 0 0-6-5.992zM293.5 203.119h23v23.023h-23zm-6 35.006h35a6 6 0 0 0 6-5.991v-35.006a6 6 0 0 0-6-5.992h-35a6 6 0 0 0-6 5.992v35.006a6 6 0 0 0 6 5.991zm177.9-11.983h-23v-23.023h23zm6-35.006h-35a6.005 6.005 0 0 0-6 5.992v35.006a6 6 0 0 0 6 5.991h35a6 6 0 0 0 6-5.991v-35.006a6.005 6.005 0 0 0-6-5.992zM12 319.272a35.31 35.31 0 0 1 35.289-35.289h35.94v103.979a16.014 16.014 0 0 0 16 15.994h98.192V434.1a35.342 35.342 0 0 1-35.289 35.289H47.292A35.341 35.341 0 0 1 12 434.1zM95.23 82.155v305.807a4 4 0 0 0 4 4.011h98.192v-33.261a211.067 211.067 0 0 1-45.032-6.463 15.889 15.889 0 0 1-11.917-17.126 1386.272 1386.272 0 0 0 2.218-256.978H99.23a4 4 0 0 0-4 4.01zm57.17-29.014a1393.922 1393.922 0 0 1 0 283.209 3.947 3.947 0 0 0 2.991 4.293 203.607 203.607 0 0 0 99.941 0 3.935 3.935 0 0 0 2.982-4.293 1395.944 1395.944 0 0 1 0-283.209 3.935 3.935 0 0 0-2.982-4.293 203.584 203.584 0 0 0-99.941 0 3.947 3.947 0 0 0-2.991 4.293zm343.6 25H268.033a1385.009 1385.009 0 0 0 2.217 256.978 15.888 15.888 0 0 1-11.917 17.126 214.334 214.334 0 0 1-48.914 6.557v33.167H496a4 4 0 0 0 4-4.011V82.155a4 4 0 0 0-4-4.01zM47.292 481.375h114.841a47.314 47.314 0 0 0 47.286-47.275v-30.144H496a16.014 16.014 0 0 0 16-15.994V82.155a16.014 16.014 0 0 0-16-15.993H269.113c.368-3.916.727-7.879 1.137-11.8a15.887 15.887 0 0 0-11.917-17.125 215.352 215.352 0 0 0-105.943 0 15.888 15.888 0 0 0-11.917 17.125c.41 3.916.769 7.879 1.137 11.8H99.23a16.014 16.014 0 0 0-16 15.993v189.8H47.292A47.364 47.364 0 0 0 0 319.272V434.1a47.324 47.324 0 0 0 47.291 47.272zM293.5 121.219h171.9v36.421H293.5zm-6 48.4a6 6 0 0 1-6-5.991v-48.4a6.012 6.012 0 0 1 6-6.039h183.9a6.015 6.015 0 0 1 6 6.039v48.405a6 6 0 0 1-6 5.991z" opacity="1" data-original="url(#a)"></path></g></svg>