<svg xmlns="http://www.w3.org/2000/svg" version="1.1" xmlns:xlink="http://www.w3.org/1999/xlink" width="512" height="512" x="0" y="0" viewBox="0 0 512 512" style="enable-background:new 0 0 512 512" xml:space="preserve" class=""><rect width="512" height="512" rx="102.4" ry="102.4" fill="#bac8d3" shape="rounded"></rect><g transform="matrix(0.5499999999999999,0,0,0.5499999999999999,115.19999828338626,115.20000000000002)"><linearGradient id="a" x1="256" x2="256" y1="0" y2="512" gradientUnits="userSpaceOnUse"><stop offset="0" stop-color="#2af598"></stop><stop offset="1" stop-color="#009efd"></stop></linearGradient><path fill="url(#a)" d="M512 220c0-18.656-12.246-35.055-34.488-46.172C459.68 164.91 436.414 160 412 160s-47.68 4.91-65.512 13.828C324.246 184.945 312 201.344 312 220c0 1.008.043 2.008.113 3H312v101.71c-17.102-7.57-38.129-11.71-60-11.71-24.414 0-47.68 4.91-65.512 13.828C164.246 337.945 152 354.344 152 373c0 .336.012.668.02 1H152v78c0 18.656 12.246 35.055 34.488 46.172C204.32 507.09 227.586 512 252 512s47.68-4.91 65.512-13.828c5.441-2.719 10.277-5.758 14.488-9.063 4.21 3.309 9.047 6.344 14.488 9.063C364.32 507.09 387.586 512 412 512s47.68-4.91 65.512-13.828C499.754 487.055 512 470.656 512 452V223h-.113c.07-.992.113-1.992.113-3zm-147.625-10.395C376.582 203.5 393.941 200 412 200s35.418 3.5 47.625 9.605C469.848 214.715 472 219.31 472 220s-2.152 5.285-12.375 10.395C447.418 236.5 430.059 240 412 240s-35.418-3.5-47.625-9.605C354.152 225.285 352 220.69 352 220s2.152-5.285 12.375-10.395zm-160 153C216.582 356.5 233.941 353 252 353c17.848 0 35.117 3.637 47.379 9.98C309.008 367.96 312 372.8 312 374c0 .61-2.234 5-12.125 9.773C287.727 389.637 270.277 393 252 393c-18.059 0-35.418-3.5-47.625-9.605C194.152 378.285 192 373.69 192 373s2.152-5.285 12.375-10.395zm95.25 99.79C287.418 468.5 270.059 472 252 472s-35.418-3.5-47.625-9.605C194.152 457.285 192 452.69 192 452v-30.29c16.992 7.302 38.023 11.29 60 11.29 23.07 0 43.617-3.938 60-10.828V452c0 .691-2.152 5.285-12.375 10.395zm160 0C447.418 468.5 430.059 472 412 472s-35.418-3.5-47.625-9.605C354.152 457.28 352 452.69 352 452v-30.29c16.992 7.302 38.023 11.29 60 11.29s43.008-3.988 60-11.29V452c0 .691-2.152 5.281-12.375 10.395zm0-79C447.418 389.5 430.059 393 412 393s-35.418-3.5-47.625-9.605C354.152 378.285 352 373.69 352 373v-28.29c16.992 7.302 38.023 11.29 60 11.29s43.008-3.988 60-11.29V373c0 .691-2.152 5.285-12.375 10.395zm0-77C447.418 312.5 430.059 316 412 316s-35.418-3.5-47.625-9.605C354.152 301.285 352 296.69 352 296v-27.29c16.992 7.302 38.023 11.29 60 11.29s43.008-3.988 60-11.29V296c0 .691-2.152 5.285-12.375 10.395zM40 376c0-125.05 171.355-220.926 199.863-236h32.309c5.351 2.809 15.75 8.445 29.09 16.563 7.73-7.047 16.883-13.286 27.336-18.512.14-.07.285-.137.422-.207 39.46-4.434 81.984-16.715 111.386-45.895C464.023 68.512 476 37.574 476 0h-40c0 26.895-7.773 47.688-23.77 63.559-20.625 20.464-56.347 32.863-102.007 35.777L350 27.145V0H162v27.145l46.496 84.386c-20.82 11.746-57.187 34.035-93.879 64.918-32.715 27.543-58.89 56.27-77.797 85.375C12.39 299.437 0 337.855 0 376c0 52.871 16.164 89.059 49.422 110.633 24.465 15.87 56.058 21.738 86.941 24.031-11.883-12.383-19.695-26.93-22.82-42.77C63.903 459.7 40 436.907 40 376zM297.246 40l-33.058 60h-16.372l-33.062-60zm0 0" opacity="1" data-original="url(#a)"></path></g></svg>