<svg xmlns="http://www.w3.org/2000/svg" version="1.1" xmlns:xlink="http://www.w3.org/1999/xlink" width="512" height="512" x="0" y="0" viewBox="0 0 512 512" style="enable-background:new 0 0 512 512" xml:space="preserve"><rect width="512" height="512" rx="102.4" ry="102.4" fill="#bac8d3" shape="rounded"></rect><g transform="matrix(0.73,0,0,0.73,69.12026779174809,64.11986713409428)"><linearGradient id="a" x1="86.22" x2="369.293" y1="418.616" y2="135.544" gradientUnits="userSpaceOnUse"><stop offset="0" stop-color="#ff506a"></stop><stop offset="1" stop-color="#ffe28f"></stop></linearGradient><path fill="url(#a)" d="M134.192 455.985h172.905c14.136 0 25.635-11.501 25.635-25.636v-75.454h57.397c7.343 0 13.316-5.975 13.316-13.318V215.435c0-7.343-5.973-13.318-13.316-13.318h-57.397v-52.264c0-14.136-11.499-25.635-25.635-25.635h-34.586v-21.725h23.579a4.878 4.878 0 0 0 4.878-4.878V75.119c0-10.535-8.57-19.105-19.105-19.105h-93.989c-10.531 0-19.097 8.566-19.097 19.095v49.108h-34.584c-14.136 0-25.636 11.499-25.636 25.635v280.496c-.002 14.137 11.499 25.637 25.635 25.637zm255.936-244.113a3.566 3.566 0 0 1 3.561 3.563v126.142a3.566 3.566 0 0 1-3.561 3.563h-57.397V211.872zM291.212 75.119v17.619h-18.701V75.119c0-5.156 4.196-9.35 9.351-9.35 5.156.001 9.35 4.195 9.35 9.35zm-112.681-.009c0-5.15 4.19-9.34 9.342-9.34h77.43c-1.571 2.77-2.542 5.925-2.546 9.33l-.002.01v74.885h-84.224zm-60.22 74.743c0-8.755 7.124-15.879 15.881-15.879h34.584v16.02h-2.877a4.878 4.878 0 0 0 0 9.756H275.39a4.878 4.878 0 0 0 0-9.756h-2.879v-16.02h34.586c8.755 0 15.879 7.124 15.879 15.879v280.496c0 8.757-7.124 15.881-15.879 15.881H134.192c-8.757 0-15.881-7.124-15.881-15.881zm34.586 111.556h135.495c6.652 0 12.063-5.411 12.063-12.063v-64.479c0-6.652-5.411-12.063-12.063-12.063H152.897c-6.652 0-12.063 5.411-12.063 12.063v64.479c0 6.652 5.411 12.063 12.063 12.063zm-2.308-76.541a2.31 2.31 0 0 1 2.307-2.307h135.495a2.31 2.31 0 0 1 2.307 2.307v64.479a2.31 2.31 0 0 1-2.307 2.307H152.897a2.31 2.31 0 0 1-2.307-2.307v-64.479zm199.934 79.013h25.375c4.184 0 7.587-3.403 7.587-7.587v-25.375c0-4.184-3.403-7.587-7.587-7.587h-25.375c-4.184 0-7.587 3.403-7.587 7.587v25.375c0 4.184 3.403 7.587 7.587 7.587zm2.169-30.795h21.039v21.039h-21.039zm30.794 40.971v54.746a4.878 4.878 0 0 1-9.756 0v-54.746a4.878 4.878 0 0 1 9.756 0zm-20.073 0v36.954a4.878 4.878 0 0 1-9.756 0v-36.954a4.878 4.878 0 0 1 9.756 0zm-214.737 40.121h12.545c9.672 0 17.539-7.867 17.539-17.537 0-9.672-7.867-17.539-17.539-17.539h-12.545c-9.672 0-17.539 7.867-17.539 17.539.001 9.67 7.868 17.537 17.539 17.537zm0-25.32h12.545c4.291 0 7.783 3.492 7.783 7.783s-3.493 7.781-7.783 7.781h-12.545c-4.291 0-7.783-3.491-7.783-7.781 0-4.291 3.493-7.783 7.783-7.783zm78.242-9.756h-12.547c-9.67 0-17.537 7.867-17.537 17.539 0 9.67 7.867 17.537 17.537 17.537h12.547c9.67 0 17.537-7.867 17.537-17.537 0-9.671-7.868-17.539-17.537-17.539zm0 25.321h-12.547c-4.291 0-7.781-3.491-7.781-7.781 0-4.291 3.491-7.783 7.781-7.783h12.547c4.291 0 7.781 3.492 7.781 7.783 0 4.29-3.49 7.781-7.781 7.781zm53.148-25.321c-9.67 0-17.537 7.867-17.537 17.539 0 9.67 7.867 17.537 17.537 17.537h12.547c9.67 0 17.537-7.867 17.537-17.537 0-9.672-7.867-17.539-17.537-17.539zm20.328 17.539c0 4.291-3.491 7.781-7.781 7.781h-12.547c-4.291 0-7.781-3.491-7.781-7.781 0-4.291 3.491-7.783 7.781-7.783h12.547c4.29 0 7.781 3.492 7.781 7.783zm-151.718 70.913h12.545c9.672 0 17.539-7.867 17.539-17.537s-7.867-17.537-17.539-17.537h-12.545c-9.672 0-17.539 7.867-17.539 17.537s7.868 17.537 17.539 17.537zm0-25.318h12.545c4.291 0 7.783 3.491 7.783 7.781 0 4.291-3.493 7.781-7.783 7.781h-12.545c-4.291 0-7.783-3.491-7.783-7.781s3.493-7.781 7.783-7.781zm78.242-9.755h-12.547c-9.67 0-17.537 7.867-17.537 17.537s7.867 17.537 17.537 17.537h12.547c9.67 0 17.537-7.867 17.537-17.537s-7.868-17.537-17.537-17.537zm0 25.318h-12.547c-4.291 0-7.781-3.491-7.781-7.781 0-4.291 3.491-7.781 7.781-7.781h12.547c4.291 0 7.781 3.491 7.781 7.781s-3.49 7.781-7.781 7.781zm65.694-25.318h-12.547c-9.67 0-17.537 7.867-17.537 17.537s7.867 17.537 17.537 17.537h12.547c9.67 0 17.537-7.867 17.537-17.537s-7.867-17.537-17.537-17.537zm0 25.318h-12.547c-4.291 0-7.781-3.491-7.781-7.781 0-4.291 3.491-7.781 7.781-7.781h12.547c4.291 0 7.781 3.491 7.781 7.781.001 4.29-3.49 7.781-7.781 7.781zm-143.936 63.134h12.545c9.672 0 17.539-7.867 17.539-17.539 0-9.67-7.867-17.537-17.539-17.537h-12.545c-9.672 0-17.539 7.867-17.539 17.537.001 9.672 7.868 17.539 17.539 17.539zm0-25.32h12.545c4.291 0 7.783 3.491 7.783 7.781 0 4.291-3.493 7.783-7.783 7.783h-12.545c-4.291 0-7.783-3.492-7.783-7.783s3.493-7.781 7.783-7.781zm78.242-9.756h-12.547c-9.67 0-17.537 7.867-17.537 17.537 0 9.672 7.867 17.539 17.537 17.539h12.547c9.67 0 17.537-7.867 17.537-17.539 0-9.67-7.868-17.537-17.537-17.537zm0 25.32h-12.547c-4.291 0-7.781-3.492-7.781-7.783s3.491-7.781 7.781-7.781h12.547c4.291 0 7.781 3.491 7.781 7.781 0 4.291-3.49 7.783-7.781 7.783zm65.694-25.32h-12.547c-9.67 0-17.537 7.867-17.537 17.537 0 9.672 7.867 17.539 17.537 17.539h12.547c9.67 0 17.537-7.867 17.537-17.539 0-9.67-7.867-17.537-17.537-17.537zm0 25.32h-12.547c-4.291 0-7.781-3.492-7.781-7.783s3.491-7.781 7.781-7.781h12.547c4.291 0 7.781 3.491 7.781 7.781.001 4.291-3.49 7.783-7.781 7.783zM253.198 85.984a4.878 4.878 0 0 1-4.878 4.878h-53.224a4.878 4.878 0 0 1 0-9.756h53.224a4.877 4.877 0 0 1 4.878 4.878zm0 21.898a4.878 4.878 0 0 1-4.878 4.878h-53.224a4.878 4.878 0 0 1 0-9.756h53.224a4.877 4.877 0 0 1 4.878 4.878zm0 21.898a4.878 4.878 0 0 1-4.878 4.878h-53.224a4.878 4.878 0 0 1 0-9.756h53.224a4.877 4.877 0 0 1 4.878 4.878z" opacity="1" data-original="url(#a)"></path></g></svg>