<svg xmlns="http://www.w3.org/2000/svg" version="1.1" xmlns:xlink="http://www.w3.org/1999/xlink" width="512" height="512" x="0" y="0" viewBox="0 0 64 64" style="enable-background:new 0 0 512 512" xml:space="preserve"><rect width="64" height="64" rx="12.8" ry="12.8" fill="#bac8d3" shape="rounded"></rect><g transform="matrix(0.71,0,0,0.71,9.20285978317261,9.521134738922122)"><linearGradient id="a" x1="14.744" x2="48.724" y1="32.832" y2="32.832" gradientUnits="userSpaceOnUse"><stop offset="0" stop-color="#ff81ff"></stop><stop offset="1" stop-color="#a93aff"></stop></linearGradient><path fill="url(#a)" d="M25.194 10.059h13.074a1 1 0 0 1 0 2H25.195a1 1 0 0 1 0-2zm23.53-.297v46.14a4.936 4.936 0 0 1-4.93 4.93h-24.12a4.936 4.936 0 0 1-4.93-4.93V9.761a4.936 4.936 0 0 1 4.93-4.93h24.12a4.936 4.936 0 0 1 4.93 4.93zm-2 0a2.933 2.933 0 0 0-2.93-2.93h-24.12a2.933 2.933 0 0 0-2.93 2.93v46.14a2.933 2.933 0 0 0 2.93 2.93h24.12a2.933 2.933 0 0 0 2.93-2.93zM44.12 41.047l.106 3.137a3.602 3.602 0 0 1-4.018 3.675c-5.74-.713-19.27-4.177-20.95-20.904a3.612 3.612 0 0 1 3.564-3.952h3.413A3.567 3.567 0 0 1 29.8 26.24l.32 3.314c.218 1.419-.768 2.662-1.626 3.676a1.577 1.577 0 0 0-.058 1.876c.736.868 3.515 4.952 5.414 3.397l.792-.669a3.577 3.577 0 0 1 2.899-.796l3.589.598a3.592 3.592 0 0 1 2.99 3.411zm-1.892 3.204-.106-3.136a1.587 1.587 0 0 0-1.32-1.506l-3.59-.598c-.813-.194-1.52.544-2.072 1.02a3.572 3.572 0 0 1-4.217.297c-2.886-2.188-6.306-5.046-4.003-8.333l.88-1.12a1.575 1.575 0 0 0 .33-1.128l-.32-3.315a1.575 1.575 0 0 0-1.575-1.43h-3.413a1.595 1.595 0 0 0-1.574 1.752c1.48 14.745 12.669 18.308 19.206 19.121a1.581 1.581 0 0 0 1.774-1.624z" opacity="1" data-original="url(#a)"></path></g></svg>