<svg xmlns="http://www.w3.org/2000/svg" version="1.1" xmlns:xlink="http://www.w3.org/1999/xlink" width="512" height="512" x="0" y="0" viewBox="0 0 64 64" style="enable-background:new 0 0 512 512" xml:space="preserve"><rect width="64" height="64" rx="12.8" ry="12.8" fill="#bac8d3" shape="rounded"></rect><g transform="matrix(0.6,0,0,0.6,12.8,12.799944114685061)"><linearGradient id="a" x1="4" x2="60" y1="32" y2="32" gradientUnits="userSpaceOnUse"><stop offset="0" stop-color="#00c0ff"></stop><stop offset="1" stop-color="#5558ff"></stop></linearGradient><path fill="url(#a)" d="M7 23h50a1 1 0 0 0 1-1v-3a1 1 0 0 0-.567-.902l-25-12a1.003 1.003 0 0 0-.866 0l-25 12A1 1 0 0 0 6 19v3a1 1 0 0 0 1 1zm1-3.371 24-11.52 24 11.52v1.37H8zm11 7.37h-8a1 1 0 1 1 0-2h8a1 1 0 0 1 0 2zm34 0h-8a1 1 0 0 1 0-2h8a1 1 0 0 1 0 2zM10 49a1 1 0 0 1 1-1h8a1 1 0 1 1 0 2h-8a1 1 0 0 1-1-1zm34 0a1 1 0 0 1 1-1h8a1 1 0 0 1 0 2h-8a1 1 0 0 1-1-1zM13 29a1 1 0 0 1 1 1v15a1 1 0 0 1-2 0V30a1 1 0 0 1 1-1zm4 0a1 1 0 0 1 1 1v15a1 1 0 0 1-2 0V30a1 1 0 0 1 1-1zm34 0a1 1 0 0 1 1 1v15a1 1 0 1 1-2 0V30a1 1 0 0 1 1-1zm-4 0a1 1 0 0 1 1 1v15a1 1 0 1 1-2 0V30a1 1 0 0 1 1-1zM8 52h48a1 1 0 0 1 0 2H8a1 1 0 0 1 0-2zm52 5a1 1 0 0 1-1 1H5a1 1 0 0 1 0-2h54a1 1 0 0 1 1 1zM28.807 33.608l-.893.893H38.5a1 1 0 0 1 0 2h-13a1 1 0 0 1-.707-1.707l2.6-2.6a1 1 0 1 1 1.414 1.414zM24.5 39.5a1 1 0 0 1 1-1h13a1 1 0 0 1 .707 1.707l-2.6 2.6a1 1 0 0 1-1.414-1.415l.893-.892H25.5a1 1 0 0 1-1-1z" opacity="1" data-original="url(#a)"></path></g></svg>