<svg xmlns="http://www.w3.org/2000/svg" version="1.1" xmlns:xlink="http://www.w3.org/1999/xlink" width="512" height="512" x="0" y="0" viewBox="0 0 64 64" style="enable-background:new 0 0 512 512" xml:space="preserve" class=""><rect width="64" height="64" rx="12.8" ry="12.8" fill="#bac8d3" shape="rounded"></rect><g transform="matrix(0.6,0,0,0.6,12.8,12.8)"><linearGradient id="a" x1="4" x2="60" y1="32" y2="32" gradientUnits="userSpaceOnUse"><stop offset="0" stop-color="#ffa68d"></stop><stop offset="1" stop-color="#fd3a84"></stop></linearGradient><path fill="url(#a)" d="M59 40h-6c-.002-.01.004-8.002-.002-8.01-.039-.566-.453-.974-1.025-.99H45v-9h2a1 1 0 1 0 0-2h-2.05C44.46 13.63 39.37 8.54 33 8.05V5a1 1 0 1 0-2 0v3.05c-6.37.49-11.46 5.58-11.95 11.95H17c-1.308.027-1.322 1.972 0 2h26v9H21v-5a1 1 0 1 0-2 0v5h-7c-.556.04-.964.424-1 1v8H5a1 1 0 0 0-1 1v13c.033 1.31 1.97 1.322 2 0V42h41a1 1 0 1 0 0-2H36.66L51 33.547V41a1 1 0 0 0 1 1h6v16h-5v-7c0-2.757-2.243-5-5-5s-5 2.243-5 5v7h-6v-7c0-2.757-2.243-5-5-5s-5 2.243-5 5v7h-6v-7c0-2.757-2.243-5-5-5s-5 2.243-5 5v7H5c-1.289.003-1.332 1.984 0 2h54a1 1 0 0 0 1-1V41a1 1 0 0 0-1-1zM32 10c5.728 0 10.442 4.402 10.95 10h-21.9c.508-5.598 5.222-10 10.95-10zm15.34 23L32 39.903 16.66 33h30.68zM13 40v-6.453L27.34 40zm0 18v-7c0-1.654 1.346-3 3-3s3 1.346 3 3v7zm16 0v-7c0-1.654 1.346-3 3-3s3 1.346 3 3v7zm16 0v-7c0-1.654 1.346-3 3-3s3 1.346 3 3v7zM31 27.5v-2c.022-1.315 1.978-1.314 2 0v2c-.022 1.315-1.978 1.314-2 0zm-6.5 0v-2c.022-1.315 1.978-1.314 2 0v2c-.022 1.315-1.978 1.314-2 0zm13 0v-2c.022-1.315 1.978-1.314 2 0v2c-.022 1.315-1.978 1.314-2 0z" opacity="1" data-original="url(#a)"></path></g></svg>