<svg xmlns="http://www.w3.org/2000/svg" version="1.1" xmlns:xlink="http://www.w3.org/1999/xlink" width="512" height="512" x="0" y="0" viewBox="0 0 32 32" style="enable-background:new 0 0 512 512" xml:space="preserve" fill-rule="evenodd"><rect width="32" height="32" rx="6.4" ry="6.4" fill="#bac8d3" shape="rounded"></rect><g transform="matrix(0.7,0,0,0.7,4.799995422363281,4.5)"><linearGradient id="a" x1="0" x2="1" y1="0" y2="0" gradientTransform="matrix(32 32 -32 32 288 144)" gradientUnits="userSpaceOnUse"><stop offset="0" stop-color="#ae76da"></stop><stop offset="1" stop-color="#251ee5"></stop></linearGradient><path fill="url(#a)" d="M318 152.2a2.2 2.2 0 0 0-2.2-2.2h-23.6a2.2 2.2 0 0 0-2.2 2.2v13.6a2.2 2.2 0 0 0 2.2 2.2h23.6a2.2 2.2 0 0 0 2.2-2.2zm-2 0v13.6a.2.2 0 0 1-.2.2h-23.6a.2.2 0 0 1-.2-.2v-13.6c0-.11.09-.2.2-.2h23.6c.11 0 .2.09.2.2zm-19.712 6.396a4.537 4.537 0 0 0-2.288 3.94c0 .595.276 1.127.826 1.544.757.573 2.226.92 3.71.92s2.954-.347 3.711-.92c.549-.417.825-.949.825-1.544a4.535 4.535 0 0 0-2.288-3.94 3.251 3.251 0 1 0-5.498-2.346c0 .922.385 1.754 1.002 2.346zM306 164h7a1 1 0 0 0 0-2h-7a1 1 0 0 0 0 2zm-4.929-1.55a2.576 2.576 0 0 1-.449.246c-.568.209-1.328.304-2.086.304s-1.517-.095-2.086-.304a2.561 2.561 0 0 1-.448-.246 2.536 2.536 0 0 1 5.069 0zM306 160h7a1 1 0 0 0 0-2h-7a1 1 0 0 0 0 2zm-7.464-5a1.25 1.25 0 1 1 0 2.5 1.25 1.25 0 0 1 0-2.5zm7.464 1h7a1 1 0 0 0 0-2h-7a1 1 0 0 0 0 2z" transform="translate(-288 -144)" opacity="1" data-original="url(#a)"></path></g></svg>