<svg xmlns="http://www.w3.org/2000/svg" version="1.1" xmlns:xlink="http://www.w3.org/1999/xlink" width="512" height="512" x="0" y="0" viewBox="0 0 64 64" style="enable-background:new 0 0 512 512" xml:space="preserve"><rect width="64" height="64" rx="12.8" ry="12.8" fill="#bac8d3" shape="rounded"></rect><g transform="matrix(0.7,0,0,0.7,9.72045021057129,5.624649620056154)"><linearGradient id="a" x1="4.814" x2="59.989" y1="35.416" y2="35.416" gradientUnits="userSpaceOnUse"><stop offset="0" stop-color="#00c0ff"></stop><stop offset="1" stop-color="#5558ff"></stop></linearGradient><path fill="url(#a)" d="M54.99 18.12H9.813a5.006 5.006 0 0 0-5 5v24.592a5.006 5.006 0 0 0 5 5H54.99a5.006 5.006 0 0 0 5-5V23.119a5.006 5.006 0 0 0-5-5zm3 29.592a3.003 3.003 0 0 1-3 3H9.813a3.003 3.003 0 0 1-3-3V23.119a3.003 3.003 0 0 1 3-3H54.99a3.003 3.003 0 0 1 3 3zM24.281 33.416v-7.74a3.003 3.003 0 0 0-3-3h-7.738a3.003 3.003 0 0 0-3 3v7.74a3.003 3.003 0 0 0 3 3h7.738a3.003 3.003 0 0 0 3-3zm-11.738 0v-7.74a1 1 0 0 1 1-1h7.738a1 1 0 0 1 1 1v7.74a1 1 0 0 1-1 1h-7.738a1 1 0 0 1-1-1zM53 28.544a1 1 0 0 1-1 1H29.805a1 1 0 0 1 0-2H52a1 1 0 0 1 1 1zm0 5.478a1 1 0 0 1-1 1H29.805a1 1 0 0 1 0-2H52a1 1 0 0 1 1 1zm0 5.478a1 1 0 0 1-1 1H24.25a1 1 0 0 1 0-2H52a1 1 0 0 1 1 1zm0 5.479a1 1 0 0 1-1 1H17.413a1 1 0 1 1 0-2H52a1 1 0 0 1 1 1z" opacity="1" data-original="url(#a)"></path></g></svg>