<svg xmlns="http://www.w3.org/2000/svg" version="1.1" xmlns:xlink="http://www.w3.org/1999/xlink" width="512" height="512" x="0" y="0" viewBox="0 0 64 64" style="enable-background:new 0 0 512 512" xml:space="preserve"><rect width="64" height="64" rx="12.8" ry="12.8" fill="#bac8d3" shape="rounded"></rect><g transform="matrix(0.68,0,0,0.68,10.239694519042967,10.239995193481445)"><linearGradient id="a" x1="10.677" x2="53.323" y1="32" y2="32" gradientUnits="userSpaceOnUse"><stop offset="0" stop-color="#00c0ff"></stop><stop offset="1" stop-color="#5558ff"></stop></linearGradient><path fill="url(#a)" d="M18.328 12.82a.97.97 0 0 0-.965.97l.033 7.014a.965.965 0 0 0 .555.87A33.406 33.406 0 0 0 31.898 24.2c.276.005.549.01.82.01a33.471 33.471 0 0 0 13.17-2.537.965.965 0 0 0 .556-.869l.033-7.014a.97.97 0 0 0-.965-.97zm12.627 9.454a33.449 33.449 0 0 1-11.631-2.118l-.026-5.406h11.657zm13.562-2.118a33.572 33.572 0 0 1-11.632 2.118V14.75h11.657zM26.27 31.593a2.896 2.896 0 0 0-5.792 0 2.896 2.896 0 0 0 5.792 0zm-3.861 0a.965.965 0 0 1 1.93 0 .965.965 0 0 1-1.93 0zm18.055 2.896a2.896 2.896 0 0 0 0-5.792 2.896 2.896 0 0 0 0 5.792zm0-3.861a.965.965 0 0 1 0 1.93.965.965 0 0 1 0-1.93zM53.22 58.606l-5.377-10.86a.965.965 0 0 0-1.73.857L50.8 58.07h-4.707L40.088 41.33h2.43l1.887 3.807a.965.965 0 1 0 1.73-.857l-1.47-2.964a2.892 2.892 0 0 0 2.343-1.517l1.876-3.486a4.87 4.87 0 0 0 2.052-3.98c-.002-.023 0-12.915 0-12.915a.965.965 0 0 0-1.93 0v6.528h-34.17V14.053a2.965 2.965 0 0 1 2.962-2.974h28.244a2.988 2.988 0 0 1 2.964 2.974v1.505a.965.965 0 0 0 1.93 0v-1.505a4.93 4.93 0 0 0-2.952-4.488l-4.389-4.643c-.935-1.137-2.755-.897-4.05-.908a.965.965 0 0 0 0 1.93h1.941a.983.983 0 0 1 .708.306l2.74 2.899h-26.17L21.5 6.252a.983.983 0 0 1 .71-.308h13.475a.965.965 0 0 0 0-1.93H22.209a2.926 2.926 0 0 0-2.11.91l-4.492 4.757a4.889 4.889 0 0 0-2.702 4.372s.01 18.255 0 18.282a4.87 4.87 0 0 0 2.051 3.978l1.88 3.503a2.9 2.9 0 0 0 2.49 1.508l-8.548 17.282A.973.973 0 0 0 11.643 60h6.94c.7.006.931-.617 1.102-1.18h24.626l.195.543a.966.966 0 0 0 .909.637h6.94a.972.972 0 0 0 .865-1.393zm-12.487-9.759H23.26l.71-1.979h16.053zm-16.071-3.91 1.293-3.606h12.081l1.294 3.607zm-6.127-6.042c-.14-.205-.716-1.33-.898-1.668.054.002 4.177.011 4.177.011a.965.965 0 0 0 0-1.93h-4.016a2.97 2.97 0 0 1-2.963-2.973v-4.457h34.17v4.457a2.97 2.97 0 0 1-2.963 2.973H25.675a.965.965 0 0 0 0 1.93l20.525-.01-.892 1.657a.98.98 0 0 1-.849.516c-.401 0-23.27-.033-24.153-.001-.642.023-1.358.102-1.771-.505zm-.632 19.174h-4.705l8.278-16.738h2.428c-1.304 3.637-6 16.734-6 16.738zm2.475-1.181.708-1.976h3.43a.965.965 0 1 0 0-1.93h-2.738l.79-2.204h18.858l.791 2.204h-13.84a.965.965 0 0 0 0 1.93H42.91l.709 1.976z" opacity="1" data-original="url(#a)"></path></g></svg>