<svg xmlns="http://www.w3.org/2000/svg" version="1.1" xmlns:xlink="http://www.w3.org/1999/xlink" width="512" height="512" x="0" y="0" viewBox="0 0 512 512" style="enable-background:new 0 0 512 512" xml:space="preserve"><rect width="512" height="512" rx="102.4" ry="102.4" fill="#bac8d3" shape="rounded"></rect><g transform="matrix(0.6,0,0,0.6,102.39999694824218,97.39999542236328)"><linearGradient id="a" x1="107.882" x2="435.881" y1="415.903" y2="87.904" gradientUnits="userSpaceOnUse"><stop offset="0" stop-color="#696eff"></stop><stop offset="1" stop-color="#f8acff"></stop></linearGradient><path fill="url(#a)" d="M418.767 262.533c0 2.67-2.163 4.836-4.836 4.836s-4.836-2.165-4.836-4.836c0-30.588-24.886-55.475-55.472-55.475-2.673 0-4.836-2.165-4.836-4.836s2.163-4.836 4.836-4.836c35.923.001 65.144 29.225 65.144 65.147zM47.012 353.028V83.963c0-2.67 2.163-4.836 4.836-4.836s4.836 2.165 4.836 4.836v29.635h15.04c26.756 0 48.526 21.77 48.526 48.526v1.261h69.068c8.827-9.905 19.805-17.321 31.894-22.016V88.802c-2.384-2.248-4.543-4.731-6.378-7.459-16.407 11.408-36.582 23.174-50.091 23.174-26.227 0-47.563-21.338-47.563-47.567 0-26.227 21.335-47.565 47.563-47.565 13.509 0 33.685 11.766 50.09 23.172 7.875-11.709 21.243-19.43 36.384-19.43 15.138 0 28.504 7.718 36.38 19.423 16.405-11.403 36.593-23.165 50.094-23.165 26.227 0 47.567 21.338 47.567 47.565 0 26.23-21.34 47.567-47.567 47.567-13.511 0-33.68-11.771-50.086-23.181-1.835 2.729-3.993 5.213-6.378 7.461v52.4c15.94 6.145 29.728 17.175 39.407 32.01h32.985c49.253 0 89.326 40.071 89.326 89.324v60.698h7.683c7.919 0 14.36 6.439 14.36 14.356v30.888c0 7.917-6.441 14.358-14.36 14.358H344.679c-7.914 0-14.356-6.441-14.356-14.358v-30.888c0-7.917 6.441-14.356 14.356-14.356h7.688v-43.187c0-8.963-7.296-16.256-16.259-16.256h-15.475c-15.38 23.574-41.126 37.563-69.417 37.563-23.734 0-46.165-10.082-61.899-27.739h-69.068v1.261c0 26.756-21.77 48.524-48.526 48.524h-15.04v29.635a4.835 4.835 0 1 1-9.671-.002zM450.628 332.9H344.679a4.689 4.689 0 0 0-4.684 4.684v30.888a4.69 4.69 0 0 0 4.684 4.687h105.949a4.69 4.69 0 0 0 4.689-4.687v-30.888a4.69 4.69 0 0 0-4.689-4.684zM292.1 41.299c1.87 4.868 2.939 10.132 2.939 15.651 0 5.52-1.069 10.785-2.941 15.654 16.079 11.246 34.742 22.242 45.592 22.242 20.896 0 37.896-17 37.896-37.896 0-20.894-17-37.894-37.896-37.894-10.86 0-29.516 10.996-45.59 22.243zm-81.765 31.308c-1.872-4.87-2.942-10.136-2.942-15.657 0-5.52 1.069-10.785 2.941-15.655-16.079-11.245-34.741-22.239-45.592-22.239-20.891 0-37.891 17-37.891 37.894 0 20.896 17 37.896 37.891 37.896 10.861 0 29.519-10.994 45.593-22.239zm40.881 18.494c18.832 0 34.151-15.321 34.151-34.151s-15.319-34.151-34.151-34.151-34.151 15.321-34.151 34.151 15.319 34.151 34.151 34.151zm-20.334 47.17c6.587-1.664 13.389-2.625 20.334-2.625 6.974 0 13.791.858 20.339 2.492V95.732a43.52 43.52 0 0 1-20.339 5.04 43.514 43.514 0 0 1-20.334-5.038zm-110.633 34.785v90.882h71.273c1.426 0 2.777.628 3.698 1.717a73.11 73.11 0 0 0 55.997 26.022c25.802 0 49.211-13.173 62.617-35.24a4.833 4.833 0 0 1 4.132-2.323h18.143c14.299 0 25.93 11.631 25.93 25.928v43.187h71.235v-60.698c0-43.922-35.733-79.653-79.655-79.653h-35.653a4.835 4.835 0 0 1-4.132-2.323c-13.406-22.065-36.815-35.238-62.617-35.238a73.117 73.117 0 0 0-55.997 26.02 4.835 4.835 0 0 1-3.698 1.719zm-63.566-49.787v190.453h15.04c21.425 0 38.855-17.43 38.855-38.852V162.124c0-21.425-17.43-38.855-38.855-38.855zm340.971 379.346c-24.438 0-44.323-19.883-44.323-44.323 0-23.021 36.588-63.618 40.758-68.171 1.832-2.002 5.298-2.002 7.131 0 4.17 4.552 40.758 45.15 40.758 68.171-.001 24.44-19.887 44.323-44.324 44.323zm0-9.671c19.106 0 34.652-15.546 34.652-34.652 0-14.733-22.454-43.603-34.652-57.633-12.198 14.03-34.652 42.899-34.652 57.633 0 19.106 15.545 34.652 34.652 34.652z" opacity="1" data-original="url(#a)"></path></g></svg>