<svg xmlns="http://www.w3.org/2000/svg" version="1.1" xmlns:xlink="http://www.w3.org/1999/xlink" width="512" height="512" x="0" y="0" viewBox="0 0 64 64" style="enable-background:new 0 0 512 512" xml:space="preserve"><rect width="64" height="64" rx="12.8" ry="12.8" fill="#bac8d3" shape="rounded"></rect><g transform="matrix(0.6199999999999999,0,0,0.6199999999999999,12.153937835693363,12.161900315284733)"><linearGradient id="a" x1="11.47" x2="52.53" y1="32" y2="32" gradientUnits="userSpaceOnUse"><stop offset="0" stop-color="#e5c500"></stop><stop offset="1" stop-color="#ff7300"></stop></linearGradient><path fill="url(#a)" d="M20.93 53.22c.18.24.27.52.27.82V59c0 1.65 1.35 3 3 3h20.27a3.01 3.01 0 0 0 3-2.97v-.77c.01-.26.11-.51.3-.69l1.93-1.94a9.717 9.717 0 0 0 2.83-6.87v-7.5c0-3.88-3.15-7.03-7.03-7.03H33.63c-.76 0-1.37-.61-1.37-1.37v-5.5c3.41-1.52 5.65-4.92 5.65-8.67V11.5c0-2.53-.99-4.91-2.79-6.71-1.81-1.79-4.19-2.78-6.71-2.78-5.23 0-9.49 4.26-9.49 9.49v7.19c0 3.71 2.21 7.1 5.57 8.64v11.34c0 .53-.28.99-.76 1.23-.47.24-1 .19-1.43-.12-2.47-1.83-4.23-2.99-5.25-3.42-.84-.36-1.83-.45-2.92-.25-1.11.2-2.03.96-2.45 2.03-.44 1.11-.27 2.33.43 3.28l8.79 11.82zm0-34.54v-7.19c0-4.13 3.36-7.49 7.49-7.49 1.99 0 3.87.78 5.29 2.2s2.2 3.3 2.2 5.29v7.19c0 2.65-1.43 5.06-3.65 6.4v-9.96c0-2.14-1.74-3.88-3.88-3.88s-3.88 1.74-3.88 3.88v9.91c-2.18-1.35-3.57-3.74-3.57-6.35zm-7.36 20.17c.17-.43.51-.72.95-.8.27-.05.52-.07.75-.07.38 0 .72.06 1.01.19.6.26 1.93 1.02 4.85 3.19 1.03.76 2.37.88 3.52.3s1.86-1.73 1.86-3.01V15.12c0-1.04.84-1.88 1.88-1.88s1.88.84 1.88 1.88v17.73c0 1.86 1.51 3.37 3.37 3.37h11.87a5.04 5.04 0 0 1 5.03 5.03v7.5c0 2.06-.8 4-2.25 5.46l-1.93 1.94c-.55.56-.86 1.29-.87 2.08V59c-.01.55-.46.99-1.01.99H24.2c-.55 0-1-.45-1-1v-4.96c0-.73-.23-1.43-.67-2.01L13.74 40.2c-.29-.39-.36-.9-.18-1.35zm-1.68-30.3V5.03c0-1.65 1.35-3 3-3h3.79c.55 0 1 .45 1 1s-.45 1-1 1h-3.79c-.55 0-1 .45-1 1v3.52c0 .55-.45 1-1 1s-1-.45-1-1zm25.96-5.51c0-.55.45-1 1-1h3.57c1.65 0 3 1.35 3 3v3.52c0 .55-.45 1-1 1s-1-.45-1-1V5.04c0-.55-.45-1-1-1h-3.57c-.55 0-1-.45-1-1zm7.57 17.33v3.81c0 1.65-1.35 3-3 3h-3.57c-.55 0-1-.45-1-1s.45-1 1-1h3.57c.55 0 1-.45 1-1v-3.81c0-.55.45-1 1-1s1 .45 1 1zM11.9 24.18v-3.81c0-.55.45-1 1-1s1 .45 1 1v3.81c0 .55.45 1 1 1h3.79c.55 0 1 .45 1 1s-.45 1-1 1H14.9c-1.65 0-3-1.35-3-3z" opacity="1" data-original="url(#a)"></path></g></svg>