<svg xmlns="http://www.w3.org/2000/svg" version="1.1" xmlns:xlink="http://www.w3.org/1999/xlink" width="512" height="512" x="0" y="0" viewBox="0 0 512 512" style="enable-background:new 0 0 512 512" xml:space="preserve" class=""><rect width="512" height="512" rx="102.4" ry="102.4" fill="#bac8d3" shape="rounded"></rect><g transform="matrix(0.65,0,0,0.65,89.59981575012208,79.59997563362123)"><linearGradient id="a" x1="256" x2="256" y1="505.903" y2="6.097" gradientUnits="userSpaceOnUse"><stop offset="0" stop-color="#c9def7"></stop><stop offset="1" stop-color="#0c76f0"></stop></linearGradient><path fill="url(#a)" d="M82.743 462.463h25.877v35.631c0 4.313 3.493 7.809 7.809 7.809s7.809-3.497 7.809-7.809v-35.631h263.524v35.631c0 4.313 3.493 7.809 7.809 7.809s7.809-3.497 7.809-7.809v-35.631h25.876c18.57 0 33.678-15.108 33.678-33.682v-75.197c0-18.57-15.108-33.678-33.678-33.678h-13.232V102.224c0-15.546-12.645-28.191-28.195-28.191-15.543 0-28.187 12.645-28.187 28.191v217.681H82.743c-18.57 0-33.678 15.108-33.678 33.678v75.197c-.001 18.575 15.107 33.683 33.678 33.683zm292.519-360.239c0-6.932 5.636-12.572 12.568-12.572s12.576 5.64 12.576 12.572v217.681h-25.144zM64.683 353.584c0-9.956 8.099-18.059 18.059-18.059h346.515c9.96 0 18.059 8.103 18.059 18.059v75.197c0 9.96-8.099 18.063-18.059 18.063H82.743c-9.96 0-18.059-8.103-18.059-18.063v-75.197zm43.936 37.598a7.807 7.807 0 0 1 7.809-7.809h13.651a7.807 7.807 0 0 1 7.809 7.809 7.807 7.807 0 0 1-7.809 7.809h-13.651a7.806 7.806 0 0 1-7.809-7.809zm64.817 0a7.807 7.807 0 0 1 7.809-7.809h13.651a7.807 7.807 0 0 1 7.809 7.809 7.807 7.807 0 0 1-7.809 7.809h-13.651a7.806 7.806 0 0 1-7.809-7.809zm64.81 0a7.807 7.807 0 0 1 7.809-7.809h13.651a7.807 7.807 0 0 1 7.809 7.809 7.807 7.807 0 0 1-7.809 7.809h-13.651a7.806 7.806 0 0 1-7.809-7.809zm-6.59-160.151c-61.4-61.393-61.423-161.272-.053-222.646a7.806 7.806 0 0 1 11.043 0 7.806 7.806 0 0 1 0 11.043c-55.276 55.284-55.254 145.253.053 200.56a7.806 7.806 0 0 1 0 11.043 7.806 7.806 0 0 1-11.043 0zm28.95-193.643c3.051-3.051 7.992-3.051 11.043 0s3.051 7.993 0 11.043c-39.348 39.348-39.251 103.245.053 142.557a7.806 7.806 0 0 1 0 11.043 7.807 7.807 0 0 1-11.043 0c-45.451-45.451-45.475-119.221-.053-164.643zm28.996 29a7.806 7.806 0 0 1 11.043 0 7.806 7.806 0 0 1 0 11.043c-23.291 23.299-23.268 61.229.053 84.554a7.806 7.806 0 0 1 0 11.043 7.807 7.807 0 0 1-11.043 0c-29.415-29.411-29.438-77.252-.053-106.64zm29.057 77.637c-13.592-13.584-13.339-35.356-.053-48.634 3.051-3.051 7.993-3.051 11.043 0s3.051 7.996 0 11.043c-7.262 7.27-7.362 19.14.053 26.548a7.806 7.806 0 0 1 0 11.043 7.807 7.807 0 0 1-11.043 0z" opacity="1" data-original="url(#a)"></path></g></svg>