<svg xmlns="http://www.w3.org/2000/svg" version="1.1" xmlns:xlink="http://www.w3.org/1999/xlink" width="512" height="512" x="0" y="0" viewBox="0 0 512 512" style="enable-background:new 0 0 512 512" xml:space="preserve" class=""><rect width="512" height="512" rx="102.4" ry="102.4" fill="#bac8d3" shape="rounded"></rect><g transform="matrix(0.5599999999999999,0,0,0.5599999999999999,112.63954135894775,112.64164489746094)"><linearGradient id="a" x1="256" x2="256" y1="8.94" y2="503.071" gradientUnits="userSpaceOnUse"><stop offset="0" stop-color="#faac1e"></stop><stop offset="1" stop-color="#eb1b45"></stop></linearGradient><path fill="url(#a)" d="M500.393 81.479h-12.045v-5.05a3 3 0 0 0-1.71-2.708l-27.755-13.227V41.165a23.883 23.883 0 0 0-21.782-23.9 1987.305 1987.305 0 0 0-87.671-6.116 1973.799 1973.799 0 0 0-186.86 0c-29.3 1.4-58.8 3.452-87.671 6.116a23.883 23.883 0 0 0-21.782 23.9v19.366l-27.8 13.855a3 3 0 0 0-1.662 2.685v4.408H11.607a9.224 9.224 0 0 0-9.214 9.213v85a9.225 9.225 0 0 0 9.214 9.215H37.85a9.225 9.225 0 0 0 9.213-9.215v-85a9.224 9.224 0 0 0-9.213-9.213h-8.2v-2.551l23.467-11.694V444.9a18.665 18.665 0 0 0 16.573 18.522v27.81a11.852 11.852 0 0 0 11.839 11.839h32.041a11.853 11.853 0 0 0 11.84-11.839v-27.689h261.18v27.689a11.853 11.853 0 0 0 11.84 11.839h32.041a11.852 11.852 0 0 0 11.839-11.839v-27.81a18.665 18.665 0 0 0 16.573-18.522V67.14l23.465 11.182v3.157h-8.2a9.224 9.224 0 0 0-9.213 9.213v85a9.225 9.225 0 0 0 9.213 9.215h26.243a9.225 9.225 0 0 0 9.214-9.215v-85a9.224 9.224 0 0 0-9.212-9.213zm-462.543 6a3.216 3.216 0 0 1 3.213 3.213v85a3.217 3.217 0 0 1-3.213 3.215H11.607a3.218 3.218 0 0 1-3.214-3.215v-85a3.217 3.217 0 0 1 3.214-3.213h12.045v55.81a3 3 0 0 0 6 0v-55.81zm308.437-70.461v28.433H165.713V17.018a1967.918 1967.918 0 0 1 180.574 0zM59.117 41.165A17.91 17.91 0 0 1 75.45 23.243a1979.14 1979.14 0 0 1 84.263-5.945v31.153a3 3 0 0 0 3 3h186.574a3 3 0 0 0 3-3V17.3a1979.14 1979.14 0 0 1 84.263 5.945 17.91 17.91 0 0 1 16.333 17.922v18.221H59.117zm0 313.58 55.91 19.8a59.107 59.107 0 0 1 29.129 22.528l3.458 5.079h-88.5zm60.293 136.487a5.846 5.846 0 0 1-5.84 5.839H81.529a5.846 5.846 0 0 1-5.839-5.839v-27.689h43.72zm311.061 5.839H398.43a5.846 5.846 0 0 1-5.84-5.839v-27.689h43.72v27.689a5.846 5.846 0 0 1-5.839 5.839zm22.412-52.17a12.657 12.657 0 0 1-12.642 12.642H71.759A12.657 12.657 0 0 1 59.117 444.9v-36.748h393.766zm-88.5-42.749 3.458-5.079a59.094 59.094 0 0 1 29.12-22.524l55.919-19.8v47.407zm88.5-53.772-57.93 20.52a65.061 65.061 0 0 0-32.069 24.8l-5.757 8.456H154.873l-5.757-8.456a65.069 65.069 0 0 0-32.077-24.8l-57.922-20.52v-39.825a23.479 23.479 0 0 0 17.533 7.858h61.53l-5.877 6.072a3 3 0 1 0 4.312 4.172l9.913-10.244h210.649l18.408 15.821a3 3 0 0 0 3.912-4.551l-13.114-11.27h68.967a23.479 23.479 0 0 0 17.533-7.858zm0-55.5a17.553 17.553 0 0 1-17.533 17.534H359.4l-10.572-9.087a3.007 3.007 0 0 0-1.956-.724h-110.76a3 3 0 1 0 0 6h109.65l4.434 3.811H152.334l14.5-14.984H277.9a3 3 0 0 0 0-6H165.562a3 3 0 0 0-2.156.914l-19.42 20.07H76.65a17.553 17.553 0 0 1-17.533-17.534V101.333A17.553 17.553 0 0 1 76.65 83.8h358.7a17.553 17.553 0 0 1 17.533 17.533zM435.35 77.8H76.65a23.479 23.479 0 0 0-17.533 7.858v-20.27h393.766v20.27A23.479 23.479 0 0 0 435.35 77.8zm68.257 97.894a3.218 3.218 0 0 1-3.214 3.215H474.15a3.217 3.217 0 0 1-3.213-3.215v-85a3.216 3.216 0 0 1 3.213-3.213h8.2v55.81a3 3 0 0 0 6 0V87.479h12.045a3.217 3.217 0 0 1 3.214 3.213zm-70.428 189.13a18.108 18.108 0 1 0 18.107 18.107 18.128 18.128 0 0 0-18.107-18.107zm0 30.215a12.108 12.108 0 1 1 12.107-12.108 12.122 12.122 0 0 1-12.107 12.108zm-37.17-17.432a11.856 11.856 0 1 0 11.856 11.856 11.869 11.869 0 0 0-11.856-11.856zm0 17.712a5.856 5.856 0 1 1 5.856-5.856 5.863 5.863 0 0 1-5.856 5.856zm-317.188-30.5a18.108 18.108 0 1 0 18.108 18.107 18.128 18.128 0 0 0-18.108-18.102zm0 30.215a12.108 12.108 0 1 1 12.108-12.108 12.122 12.122 0 0 1-12.108 12.113zm37.17-17.432a11.856 11.856 0 1 0 11.856 11.856 11.869 11.869 0 0 0-11.856-11.851zm0 17.712a5.856 5.856 0 1 1 5.856-5.856 5.863 5.863 0 0 1-5.856 5.861z" opacity="1" data-original="url(#a)"></path></g></svg>