<svg xmlns="http://www.w3.org/2000/svg" version="1.1" xmlns:xlink="http://www.w3.org/1999/xlink" width="512" height="512" x="0" y="0" viewBox="0 0 512 512" style="enable-background:new 0 0 512 512" xml:space="preserve"><rect width="512" height="512" rx="102.4" ry="102.4" fill="#bac8d3" shape="rounded"></rect><g transform="matrix(0.6,0,0,0.6,102.3998031616211,97.39993286132812)"><linearGradient id="a" x1="61.1" x2="441.45" y1="496.001" y2="115.65" gradientUnits="userSpaceOnUse"><stop offset="0" stop-color="#b429f9"></stop><stop offset=".996" stop-color="#26c5f3"></stop></linearGradient><path fill="url(#a)" d="M65.455 452.79h27.948l-35.301 29.505a6.95 6.95 0 1 0 8.915 10.665l48.06-40.171h285.457l44.449 37.153c2.946 2.471 7.331 2.066 9.792-.876a6.95 6.95 0 0 0-.878-9.79l-31.69-26.487h24.337c26.517 0 48.088-21.573 48.088-48.09v-215.98c0-26.517-21.571-48.09-48.088-48.09H231.945L343.292 29.286a6.948 6.948 0 0 0 0-9.828 6.948 6.948 0 0 0-9.828 0L215.166 137.753l-86.387-86.385a6.948 6.948 0 0 0-9.828 0 6.948 6.948 0 0 0 0 9.828l79.437 79.435H65.455c-26.517 0-48.088 21.573-48.088 48.09v215.98c.001 26.516 21.572 48.089 48.088 48.089zM31.269 188.721c0-18.851 15.335-34.189 34.187-34.189h381.089c18.851 0 34.187 15.338 34.187 34.189v215.98c0 18.851-15.335 34.189-34.187 34.189H65.455c-18.851 0-34.187-15.338-34.187-34.189v-215.98zm58.282 222.367h266.131c16.806 0 30.481-13.675 30.481-30.481V212.814c0-16.806-13.675-30.481-30.481-30.481H89.551c-16.806 0-30.481 13.675-30.481 30.481v167.793c.001 16.806 13.675 30.481 30.481 30.481zm-16.58-198.274c0-9.143 7.439-16.58 16.58-16.58h266.131c9.141 0 16.58 7.437 16.58 16.58v167.793c0 9.143-7.439 16.58-16.58 16.58H89.551c-9.141 0-16.58-7.437-16.58-16.58zM432.182 401.82c17.399 0 31.553-14.136 31.553-31.51 0-17.399-14.154-31.553-31.553-31.553-17.376 0-31.512 14.154-31.512 31.553 0 17.374 14.136 31.51 31.512 31.51zm0-49.162c9.733 0 17.652 7.919 17.652 17.652 0 9.711-7.919 17.609-17.652 17.609-9.711 0-17.611-7.898-17.611-17.609 0-9.733 7.9-17.652 17.611-17.652zm-24.168-44.103a6.95 6.95 0 0 1 6.95-6.95h34.476a6.95 6.95 0 0 1 0 13.9h-34.476a6.95 6.95 0 0 1-6.95-6.95zm0-53.151a6.95 6.95 0 0 1 6.95-6.95h34.476a6.95 6.95 0 0 1 0 13.9h-34.476a6.95 6.95 0 0 1-6.95-6.95zm0-53.151a6.95 6.95 0 0 1 6.95-6.95h34.476a6.95 6.95 0 0 1 0 13.9h-34.476a6.95 6.95 0 0 1-6.95-6.95z" opacity="1" data-original="url(#a)"></path></g></svg>