<svg xmlns="http://www.w3.org/2000/svg" version="1.1" xmlns:xlink="http://www.w3.org/1999/xlink" width="512" height="512" x="0" y="0" viewBox="0 0 512 512" style="enable-background:new 0 0 512 512" xml:space="preserve"><rect width="512" height="512" rx="102.4" ry="102.4" fill="#bac8d3" shape="rounded"></rect><g transform="matrix(0.5499999999999999,0,0,0.5499999999999999,115.20089950561527,110.19948695858474)"><linearGradient id="a" x1="256" x2="256.001" y1="512.001" y2="-.001" gradientUnits="userSpaceOnUse"><stop offset="0" stop-color="#6c54a3"></stop><stop offset="1" stop-color="#00b1d2"></stop></linearGradient><path fill="url(#a)" fill-rule="evenodd" d="M450.963 431.69a8 8 0 0 1-8 8h-29.308a8 8 0 1 1 0-16h29.311a8 8 0 0 1 8 8zm-63.837 0a8 8 0 0 1-8 8h-29.313a8 8 0 0 1 0-16h29.312a8 8 0 0 1 8 8zm-63.841 0a8 8 0 0 1-8 8h-29.318a8 8 0 0 1 0-16h29.317a8 8 0 0 1 8 8zm-63.841 0a8 8 0 0 1-8 8h-29.318a8 8 0 0 1 0-16h29.321a8 8 0 0 1 8 8zm-107.542-8H94.944v-56.959H151.9v56.958zm8.006-72.961H86.943a8 8 0 0 0-8 8v72.961a8 8 0 0 0 8 8h72.965a8 8 0 0 0 8-8v-72.961a8 8 0 0 0-8-8zM36.646 496h438.708V287.25H36.646zm438.708-274.549v49.8H36.646v-49.8zM277.9 19.313l65.728 65.728-120.11 120.12a3.652 3.652 0 0 0-.269.287H91.774zm128.414 128.408 57.731 57.727H348.587zM395 136.413l-40.044-40.054-109.1 109.089h80.1zm92.8 70.387a9.473 9.473 0 0 0-.986-1.212L283.566 2.338a8 8 0 0 0-11.308 0L69.147 205.448h-40.5a8 8 0 0 0-8 8V504a8 8 0 0 0 8 8h454.71a8 8 0 0 0 8-8V213.45a8 8 0 0 0-3.557-6.65z" opacity="1" data-original="url(#a)"></path></g></svg>