<svg xmlns="http://www.w3.org/2000/svg" version="1.1" xmlns:xlink="http://www.w3.org/1999/xlink" width="512" height="512" x="0" y="0" viewBox="0 0 512 512" style="enable-background:new 0 0 512 512" xml:space="preserve" class=""><rect width="512" height="512" rx="102.4" ry="102.4" fill="#bac8d3" shape="rounded"></rect><g transform="matrix(0.6699999999999999,0,0,0.6699999999999999,89.48013092041018,74.47608182907106)"><linearGradient id="a" x1="50.118" x2="441.471" y1="458.194" y2="66.84" gradientUnits="userSpaceOnUse"><stop offset="0" stop-color="#696eff"></stop><stop offset="1" stop-color="#f8acff"></stop></linearGradient><path fill="url(#a)" d="M255.811 369.598c-36.268 0-71.813-14.745-97.525-40.455a4.637 4.637 0 0 1 6.557-6.558c23.986 23.984 57.14 37.737 90.963 37.737a4.638 4.638 0 0 1 .005 9.276zm39.569-163.866c52.103 56.869 91.837 119.868 72.167 139.542-33.213 33.235-73.232 46.928-108.408 47.725l11.517 48.192h3.691c17.784 0 32.251 14.465 32.251 32.249v9.791h9.875c2.561 0 4.637 2.074 4.637 4.637s-2.076 4.637-4.637 4.637H86.351c-2.561 0-4.637-2.074-4.637-4.637s2.076-4.637 4.637-4.637h9.875v-9.791c0-17.784 14.467-32.249 32.249-32.249h17.431l18.39-76.951c-7.863-5.474-15.381-11.679-22.405-18.703l-28.152-28.155c-59.425-59.421-67.402-157.917.263-225.659 19.469-19.479 81.451 19.293 137.885 70.649l42.348-20.131c-1.927-7.919-.701-16.459 3.801-23.537 5.797-9.103 15.599-14.532 26.219-14.532h.002c23.914 0 39.312 26.603 26.214 47.162-5.794 9.103-15.594 14.532-26.214 14.532-3.466 0-6.825-.633-10.006-1.728zm28.875-49.14c7.543 0 14.247-3.732 18.393-10.239 8.963-14.079-1.424-32.905-18.395-32.905-7.545 0-14.249 3.732-18.395 10.239-8.958 14.086 1.432 32.905 18.397 32.905zm-65.035 12.564a653.844 653.844 0 0 1 29.315 29.216l17.467-38.504c-3.277-2.411-5.964-5.308-8.235-9.038zm-8.245 112.014 33.427-73.687c-12.157-12.974-22.448-23.117-34.187-34.046l-72.468 34.451c21.825 25.503 47.705 51.401 73.228 73.282zM120.558 98.281c-10.161 10.167 8.716 51.173 51.014 102.273l71.278-33.885c-20.412-18.439-103.925-86.778-122.292-68.388zm27.89 240.698c55.417 55.42 142.11 59.752 200.258 11.112-66.078-7.726-231.549-171.254-239.521-239.528-48.643 58.155-44.306 144.846 11.111 200.261zm125.899 111.487c-28.289 0 52.481.006-145.873 0-12.669 0-22.974 10.307-22.974 22.974v9.791h191.823v-9.791c0-12.667-10.307-22.974-22.976-22.974zm-13.227-9.275-11.533-48.259c-26.698-1.017-53.28-8.811-77.046-23.297l-17.1 71.555H261.12zm30.112-226.313-32.893 72.51c51.283 42.526 92.473 61.521 102.651 51.329 11.558-11.563-14.458-63.017-69.758-123.839zm81.661-195.287a4.638 4.638 0 1 0-1.857 9.085c44.245 9.035 72.891 52.383 63.854 96.628a4.638 4.638 0 0 0 9.089 1.857c10.059-49.259-21.832-97.512-71.086-107.57zm-6.942 33.996c-2.527-.521-4.961 1.105-5.473 3.614s1.107 4.959 3.616 5.471c25.512 5.209 42.015 30.171 36.8 55.689a4.638 4.638 0 0 0 9.089 1.857c6.235-30.536-13.49-60.398-44.032-66.631zm-6.945 33.992a4.638 4.638 0 1 0-1.857 9.085c6.757 1.381 11.131 7.998 9.75 14.754a4.638 4.638 0 0 0 9.089 1.857c2.403-11.765-5.217-23.295-16.982-25.696z" opacity="1" data-original="url(#a)"></path></g></svg>