<svg xmlns="http://www.w3.org/2000/svg" version="1.1" xmlns:xlink="http://www.w3.org/1999/xlink" width="512" height="512" x="0" y="0" viewBox="0 0 512 512" style="enable-background:new 0 0 512 512" xml:space="preserve"><rect width="512" height="512" rx="102.4" ry="102.4" fill="#bac8d3" shape="rounded"></rect><g transform="matrix(0.7,0,0,0.7,83.00009441375732,71.99322433471681)"><linearGradient id="a" x1="75.878" x2="393.494" y1="460.42" y2="142.803" gradientUnits="userSpaceOnUse"><stop offset="0" stop-color="#41dfd0"></stop><stop offset="1" stop-color="#ee83ef"></stop></linearGradient><path fill="url(#a)" d="M274.8 408a8 8 0 0 1-8 8h-16a8 8 0 1 1 0-16h16a8 8 0 0 1 8 8zm-64-8h-128a8 8 0 1 0 0 16h128a8 8 0 0 0 0-16zm-80-48h16a8 8 0 0 0 0-16h-16a8 8 0 1 0 0 16zm56 0h128a8 8 0 0 0 0-16h-128a8 8 0 1 0 0 16zm299.994 30.788a8 8 0 0 1 .534 7.436 65.5 65.5 0 0 1-32.485 33.168l-8.9 4.122a96.8 96.8 0 0 1-43.909 20.986l-3.334.644a7.993 7.993 0 0 1-8.776-4.493L351.085 360.8a40.07 40.07 0 0 1-4.617 7.59A8 8 0 0 1 352 376v64a8 8 0 0 1-8 8H80a40 40 0 0 1-13.2-77.751V312a8 8 0 0 1 8-8H96V186.174l-32-16.762V208h8a8 8 0 0 1 8 8v8a23.9 23.9 0 0 1-6.131 16A23.9 23.9 0 0 1 80 256v24a8 8 0 0 1-8 8H40a8 8 0 0 1-8-8v-24a23.9 23.9 0 0 1 6.131-16A23.9 23.9 0 0 1 32 224v-8a8 8 0 0 1 8-8h8v-46.969l-3.712-1.944a8 8 0 0 1 .4-14.37l176-80a8 8 0 0 1 7.037.2L341.2 124.645a46 46 0 0 0 4.665-12.131 8 8 0 0 1 15.35-.867l49.841 142.271a22.977 22.977 0 0 1 13.484 28.78zM48 224a8 8 0 0 0 16 0zm16 32a8 8 0 0 0-16 0v16h16zm341.67 25.781a7.051 7.051 0 0 0-5.928-12.8L331.923 300.4a7.05 7.05 0 1 0 5.926 12.795zm-73.214.742 29.924-13.862-55.869-120.607a70.061 70.061 0 0 0-29.924 13.861zm20.421-146.289a62.26 62.26 0 0 1-1.987 2.85 8.009 8.009 0 0 1-1.329 1.743 62.548 62.548 0 0 1-20.852 17.082L376.9 261.936l16.12-7.467c.368-.171.739-.33 1.111-.48zM66.213 152.509l41.576 21.778.036.019 108.083 56.615 59.781-32.88-16.149-34.86a8 8 0 0 1 1.773-9.181 85.977 85.977 0 0 1 49.034-22.714 8.005 8.005 0 0 1 8.153 4.588l3.474 7.5a46.1 46.1 0 0 0 8.933-6.063L223.742 80.9zM112 194.555v103.363a399.983 399.983 0 0 0 200.974 1.813c.094-.289.166-.582.272-.869a22.951 22.951 0 0 1 5.3-8.3l-36.116-77.968-62.575 34.416a8 8 0 0 1-7.567.077zM82.8 336h16a8 8 0 0 1 0 16h-16v16h232a23.978 23.978 0 0 0 19.349-38.17 22.946 22.946 0 0 1-18.11-9.779c-.413-.022-.823-.051-1.239-.051h-19.266a415.951 415.951 0 0 1-79.526 7.676 416.031 416.031 0 0 1-79.922-7.754 8.062 8.062 0 0 1-1.06.078H82.8zM336 432v-16h-37.2a8 8 0 0 1 0-16H336v-16H80a24 24 0 0 0 0 48zm95.733-13.624-49.975-107.885-29.925 13.863 49.956 107.84a80.811 80.811 0 0 0 29.944-13.818zm39.141-30.89L413.726 295.6c-.439.238-.873.485-1.33.7l-16.121 7.467 49.247 106.31 2.6-1.2a49.517 49.517 0 0 0 22.752-21.391z" opacity="1" data-original="url(#a)"></path></g></svg>