<svg xmlns="http://www.w3.org/2000/svg" version="1.1" xmlns:xlink="http://www.w3.org/1999/xlink" width="512" height="512" x="0" y="0" viewBox="0 0 300 300" style="enable-background:new 0 0 512 512" xml:space="preserve"><rect width="300" height="300" rx="60" ry="60" fill="#bac8d3" shape="rounded"></rect><g transform="matrix(0.7399999999999999,0,0,0.7399999999999999,39.000000000000014,39.000000000000014)"><linearGradient id="a" x1="76.69" x2="222.347" y1="238.231" y2="92.575" gradientUnits="userSpaceOnUse"><stop offset="0" stop-color="#107eff"></stop><stop offset="1" stop-color="#8f16ff"></stop></linearGradient><path fill="url(#a)" d="M174 113.884V82c0-2.211-1.791-4-4-4h-4V50c0-2.211-1.791-4-4-4h-28c-2.209 0-4 1.789-4 4v28h-4.326c-2.209 0-4 1.789-4 4v32.84c-16.476 9.423-27.627 27.137-27.627 47.438 0 30.137 24.516 54.652 54.65 54.652s54.652-24.516 54.652-54.652c.001-21.003-11.927-39.248-29.349-48.394zM129.674 86H166v24.482c-5.445-1.824-11.251-2.853-17.303-2.853-6.697 0-13.089 1.27-19.023 3.484zm19.023 122.93c-25.723 0-46.65-20.93-46.65-46.652s20.928-46.648 46.65-46.648c25.725 0 46.652 20.926 46.652 46.648s-20.927 46.652-46.652 46.652zm36.975-46.653c0 2.211-1.791 4-4 4s-4-1.789-4-4c0-11.941-7.168-22.512-18.262-26.93a4 4 0 0 1-2.236-5.195 3.994 3.994 0 0 1 5.197-2.234c14.154 5.633 23.301 19.121 23.301 34.359zM250 162c0 2.211-1.791 4-4 4h-28c-2.209 0-4-1.789-4-4s1.791-4 4-4h28c2.209 0 4 1.789 4 4zm-168 4H54c-2.209 0-4-1.789-4-4s1.791-4 4-4h28c2.209 0 4 1.789 4 4s-1.791 4-4 4zm72 68v28c0 2.211-1.791 4-4 4s-4-1.789-4-4v-28c0-2.211 1.791-4 4-4s4 1.789 4 4zM79.955 97.82a4.003 4.003 0 0 1 .148-5.656 4.007 4.007 0 0 1 5.656.148l19.016 20.043a4.003 4.003 0 0 1-.148 5.656 3.993 3.993 0 0 1-2.754 1.098 3.991 3.991 0 0 1-2.902-1.246zm142.09 138.125a4.003 4.003 0 0 1-.148 5.656 3.993 3.993 0 0 1-2.754 1.098 3.991 3.991 0 0 1-2.902-1.246l-19.016-20.043a4.003 4.003 0 0 1 .148-5.656 4.007 4.007 0 0 1 5.656.148zM103.936 215.09a3.999 3.999 0 0 1 .066 5.656l-19.301 19.77a3.977 3.977 0 0 1-2.861 1.207 3.999 3.999 0 0 1-2.861-6.793l19.301-19.77a4.006 4.006 0 0 1 5.656-.07zm94.128-96.41a3.999 3.999 0 0 1-.066-5.656l19.301-19.77a3.999 3.999 0 1 1 5.722 5.586l-19.301 19.77a3.977 3.977 0 0 1-2.861 1.207 4.004 4.004 0 0 1-2.795-1.137zM130 38c0-2.211 1.791-4 4-4h28c2.209 0 4 1.789 4 4s-1.791 4-4 4h-28c-2.209 0-4-1.789-4-4z" opacity="1" data-original="url(#a)"></path></g></svg>