<svg xmlns="http://www.w3.org/2000/svg" version="1.1" xmlns:xlink="http://www.w3.org/1999/xlink" width="512" height="512" x="0" y="0" viewBox="0 0 128 128" style="enable-background:new 0 0 512 512" xml:space="preserve" class=""><rect width="128" height="128" rx="25.6" ry="25.6" fill="#bac8d3" shape="rounded"></rect><g transform="matrix(0.6199999999999999,0,0,0.6199999999999999,24.319170656204236,24.320309486389164)"><linearGradient id="a" x1="116.22" x2="25.216" y1="102.783" y2="11.779" gradientUnits="userSpaceOnUse"><stop offset="0" stop-color="#4a7acc"></stop><stop offset="1" stop-color="#aeef9b"></stop></linearGradient><path fill="url(#a)" d="M113.2 75.6a6.055 6.055 0 0 0-4.312 1.788l-5.194 5.194-.408-9.183 12.466-12.466a6.1 6.1 0 1 0-8.624-8.625l-4.576 4.576-.458-10.184 10.133-9.534a32.4 32.4 0 0 0 10.191-25 6.917 6.917 0 0 0-6.585-6.585A32.541 32.541 0 0 0 101.2 8.4a1.75 1.75 0 1 0 1.436 3.192 28.972 28.972 0 0 1 13.049-2.517 3.4 3.4 0 0 1 3.234 3.235 28.9 28.9 0 0 1-9.09 22.3l-55.81 52.518a54.6 54.6 0 0 1-15.144 10.223 51.276 51.276 0 0 0 2.34-2.183c8.532-8.532 8.887-15.186 8.9-15.465A1.747 1.747 0 0 0 49.6 78.4a1.708 1.708 0 0 0-1.306-.512c-.279.011-6.933.366-15.465 8.9a50.828 50.828 0 0 0-2.162 2.316 53.758 53.758 0 0 1 10.208-15.125l52.492-55.8c.2-.21.4-.42.609-.629a1.75 1.75 0 0 0-2.476-2.479c-.231.23-.451.461-.678.7l-9.531 10.135-10.17-.452 4.579-4.577a6.1 6.1 0 1 0-8.624-8.624l-12.47 12.466-9.182-.408 5.193-5.193a6.1 6.1 0 1 0-8.624-8.625L28.909 23.577l-11.582-.516a7.367 7.367 0 0 0-2.4 14.428l43.458 12.768-20.06 21.324a63.285 63.285 0 0 0-4.351 5.152l-20.929-2.044a6.826 6.826 0 0 0-4.47 12.464l15.782 10.592a51.5 51.5 0 0 0-3.718 7.356 1.75 1.75 0 0 0 2.259 2.258 51.309 51.309 0 0 0 7.36-3.721l10.59 15.789a6.828 6.828 0 0 0 12.463-4.477l-2.044-20.933a65.65 65.65 0 0 0 5.142-4.332l21.335-20.074 1.127 3.833a1.749 1.749 0 0 0 1.678 1.256 1.727 1.727 0 0 0 .494-.072 1.749 1.749 0 0 0 1.185-2.172L80.6 66.923l18.13-17.058 2.71 60.962a3.866 3.866 0 0 1-7.572 1.259l-.75-2.55a1.75 1.75 0 0 0-3.358.987l.748 2.546a7.367 7.367 0 0 0 14.429-2.4l-.515-11.58 13.084-13.085A6.1 6.1 0 0 0 113.2 75.6zM69.548 14.727a2.654 2.654 0 0 1 3.678 0 2.564 2.564 0 0 1 .759 1.826 2.592 2.592 0 0 1-.762 1.846l-6.841 6.84-7.038-.313zm-25.081-1.76a2.66 2.66 0 0 1 3.676 0 2.6 2.6 0 0 1 0 3.676L40.685 24.1l-7.038-.313zM15.914 34.131a3.867 3.867 0 0 1 1.258-7.573l60.956 2.711L61.074 47.4zm-5.889 45a3.3 3.3 0 0 1 2.675-.957l18.945 1.85c-2.662 4.051-5.426 9.466-6.252 14.2l-14.859-9.971a3.334 3.334 0 0 1-.509-5.124zm25.28 10.129c4.521-4.521 8.37-6.454 10.71-7.275-.823 2.343-2.756 6.191-7.275 10.71a55.107 55.107 0 0 1-12.783 9.348 55.158 55.158 0 0 1 9.348-12.785zm13.554 28.724a3.333 3.333 0 0 1-5.106-.506l-9.971-14.868c4.8-.838 10.131-3.589 14.2-6.264l1.85 18.943a3.329 3.329 0 0 1-.973 2.693zm60.738-63.2a2.658 2.658 0 0 1 3.675 0 2.594 2.594 0 0 1 0 3.676l-10.2 10.2-.313-7.037zm5.436 28.756-10.821 10.82-.312-7.038 7.458-7.458a2.654 2.654 0 0 1 3.678 0 2.6 2.6 0 0 1-.003 3.669zm-26.25 17.456a1.721 1.721 0 0 1-.494.071 1.75 1.75 0 0 1-1.678-1.267l-4.59-15.63a1.75 1.75 0 1 1 3.358-.986l4.59 15.63a1.75 1.75 0 0 1-1.186 2.175z" opacity="1" data-original="url(#a)"></path></g></svg>