<svg xmlns="http://www.w3.org/2000/svg" version="1.1" xmlns:xlink="http://www.w3.org/1999/xlink" width="512" height="512" x="0" y="0" viewBox="0 0 512 512" style="enable-background:new 0 0 512 512" xml:space="preserve"><rect width="512" height="512" rx="102.4" ry="102.4" fill="#bac8d3" shape="rounded"></rect><g transform="matrix(0.68,0,0,0.68,81.92016357421875,81.92000610351562)"><linearGradient id="a" x1="91.869" x2="420.133" y1="412.734" y2="84.47" gradientUnits="userSpaceOnUse"><stop offset="0" stop-color="#696eff"></stop><stop offset="1" stop-color="#f8acff"></stop></linearGradient><path fill="url(#a)" d="M114.297 200.339v205.667c0 33.553 24.496 61.426 56.528 66.855v12.381c0 8.597 6.996 15.591 15.591 15.591h139.169c8.595 0 15.591-6.993 15.591-15.591v-12.381c32.032-5.429 56.528-33.302 56.528-66.855V200.339c0-36.241-28.572-65.855-64.361-67.705V61.963h2.984c14.006 0 25.399-11.393 25.399-25.397 0-14.006-11.393-25.399-25.399-25.399H175.674c-14.001 0-25.394 11.393-25.394 25.399 0 14.004 11.393 25.397 25.394 25.397h2.984v70.672c-35.789 1.85-64.361 31.463-64.361 67.704zm217.132 284.903a5.851 5.851 0 0 1-5.844 5.844H186.416a5.851 5.851 0 0 1-5.844-5.844v-11.434c5.153.122 145.913.117 150.857 0zm56.528-284.903v205.667c0 29.872-22.653 54.529-51.678 57.756H175.721c-29.025-3.226-51.678-27.884-51.678-57.756V200.339c0-32.057 26.08-58.137 58.137-58.137h147.64c32.057.001 58.137 26.08 58.137 58.137zM297.244 61.963v70.493h-25.98V110.72c8.214-.75 14.696-7.597 14.696-16.003 0-8.904-7.248-16.147-16.152-16.147h-27.617c-8.904 0-16.152 7.243-16.152 16.147 0 8.407 6.485 15.256 14.701 16.003v21.736h-25.984V61.963zm-27.436 39.157h-27.617c-3.531 0-6.406-2.872-6.406-6.403 0-3.529 2.874-6.401 6.406-6.401h27.617c3.531 0 6.406 2.872 6.406 6.401a6.412 6.412 0 0 1-6.406 6.403zm-19.321 9.747h11.031v21.589h-11.031zm73.108 21.589h-16.604V61.963h16.604zm-163.568-95.89c0-8.631 7.02-15.653 15.648-15.653h160.651c8.633 0 15.652 7.022 15.652 15.653s-7.02 15.65-15.652 15.65H175.675c-8.629 0-15.648-7.019-15.648-15.65zm44.982 25.397v70.493h-16.604V61.963zM306.02 250.535a4.875 4.875 0 0 0-8.505.524l-5.216 10.92-31.957-52.176a4.87 4.87 0 0 0-4.112-2.327c-1.899-.052-3.255.838-4.155 2.256l-32.742 51.452-4.093-10.201a4.873 4.873 0 0 0-4.093-3.039c-1.827-.178-3.588.716-4.559 2.272-12.497 20-21.216 44.245-23.919 66.51-5.176 42.225 26.895 79.579 69.293 81.946 26.243 2.492 56.648-12.343 70.889-41.378 6.672-13.592 8.695-29.468 5.854-45.911-3.863-22.399-11.92-44.008-22.685-60.848zm-82.688 102.056c.971-8.024 3.517-16.573 7.21-24.485l.319.792c1.472 3.664 6.508 4.162 8.633.8l16.528-25.977 15.995 26.108c1.992 3.247 6.869 3.071 8.552-.445l.861-1.806c3.165 6.824 5.606 14.641 6.958 22.463 3.688 21.387-11.548 40.13-35.492 38.93-18.255-1.738-31.822-18.099-29.564-36.38zm90.774.412c-4.976 10.141-12.302 18.508-21.127 24.643 5.342-9.136 6.821-18.813 5.013-29.267-2.17-12.554-6.696-24.676-12.74-34.134a4.91 4.91 0 0 0-4.407-2.239 4.873 4.873 0 0 0-4.098 2.763l-1.109 2.318-15.381-25.113a4.87 4.87 0 0 0-4.112-2.327c-1.813-.186-3.255.835-4.155 2.258l-15.624 24.552-.642-1.601a4.873 4.873 0 0 0-4.093-3.039 4.866 4.866 0 0 0-4.559 2.272c-7.01 11.217-11.898 24.823-13.416 37.325-1.144 9.334.762 17.996 5.229 25.851-18.296-12.946-29.493-35.198-26.54-59.36 2.165-17.842 8.457-37.056 17.575-54.015l3.907 9.737a4.873 4.873 0 0 0 4.069 3.036 4.834 4.834 0 0 0 4.564-2.234l33.646-52.878 32.566 53.17a4.849 4.849 0 0 0 4.407 2.32 4.875 4.875 0 0 0 4.145-2.765l5.126-10.734c7.743 14.391 13.725 31.955 16.752 49.499v.002c2.49 14.406.762 28.224-4.996 39.96z" opacity="1" data-original="url(#a)"></path></g></svg>