<svg xmlns="http://www.w3.org/2000/svg" version="1.1" xmlns:xlink="http://www.w3.org/1999/xlink" width="512" height="512" x="0" y="0" viewBox="0 0 64 64" style="enable-background:new 0 0 512 512" xml:space="preserve" class=""><rect width="64" height="64" rx="12.8" ry="12.8" fill="#bac8d3" shape="rounded"></rect><g transform="matrix(0.5499999999999999,0,0,0.5499999999999999,14.400000000000002,14.399598097801203)"><linearGradient id="a" x1="6.59" x2="61.82" y1="62.83" y2="7.6" gradientUnits="userSpaceOnUse"><stop offset="0" stop-color="#f12711"></stop><stop offset="1" stop-color="#f5af19"></stop></linearGradient><path fill="url(#a)" d="M61 17.18V8.09a3.08 3.08 0 0 0-1.17-2.45 2.92 2.92 0 0 0-2.47-.57L1.79 17A1.08 1.08 0 0 0 1 18v38a3 3 0 0 0 3 3h33a1 1 0 0 0 0-2H19V31.09A16.12 16.12 0 0 1 21 40a1 1 0 0 0 1.55.83L25 39.2c.41.2 2.58 1.91 3 1.8a1 1 0 0 0 1-1 17.19 17.19 0 0 0-3.07-9.8l3.87.8a1 1 0 0 0 1.2-1 15.12 15.12 0 0 1-.87-3H61v29a1 1 0 0 1-1 1H40a1 1 0 0 0 0 2h20a3 3 0 0 0 3-3V20a3 3 0 0 0-2-2.82zM57.79 7A1 1 0 0 1 59 8.09V17H11.41zM3 19h14v2.14a3.9 3.9 0 0 0-2.28 1.59L6.2 21a1 1 0 0 0-1.09 1.43A8 8 0 0 1 5.87 25H3zm4.58 4.34L14 24.63v2.74l-6.44 1.3A10 10 0 0 0 7.94 26a9.92 9.92 0 0 0-.36-2.66zm7.13 5.93c.2.24.4.48.62.7A17.11 17.11 0 0 0 13 38.14c-.39-.2-1.55-1.2-2-1.14s-1.51.86-1.88 1a15.12 15.12 0 0 1 4-8.45zM17 57H4a1 1 0 0 1-1-1V27h2.87a8 8 0 0 1-.76 2.55 1 1 0 0 0 .1 1.06 1 1 0 0 0 1 .37l3.87-.78A17.19 17.19 0 0 0 7 40a1 1 0 0 0 .53.88 1 1 0 0 0 1-.05L11 39.2l2.45 1.63A1 1 0 0 0 15 40a16.12 16.12 0 0 1 2-8.91zm3-30a2 2 0 0 1-3.85.76A11 11 0 0 1 16 25a2 2 0 0 1 3.84-.77A10.58 10.58 0 0 1 20 27zm6.88 11-1.33-.88c-.81-.58-1.75.52-2.56 1A17.11 17.11 0 0 0 20.67 30c.22-.22.42-.46.62-.7l1.6.33a15.12 15.12 0 0 1 3.99 8.42zM22 27.37v-2.74l6.44-1.29a10 10 0 0 0 0 5.33zM61 25H30.13a8 8 0 0 1 .76-2.55A1 1 0 0 0 29.8 21l-8.52 1.71A3.89 3.89 0 0 0 19 21.14V19h41a1 1 0 0 1 1 1zM40 43h-2a1 1 0 0 1 0-2h2a1 1 0 0 1 0 2zm4 0a1 1 0 0 1 0-2h2a1 1 0 0 1 0 2zm6 0a1 1 0 0 1 0-2h2a1 1 0 0 1 0 2zm6 0a1 1 0 0 1 0-2h2a1 1 0 0 1 0 2z" data-name="gift card" opacity="1" data-original="url(#a)"></path></g></svg>