<svg xmlns="http://www.w3.org/2000/svg" version="1.1" xmlns:xlink="http://www.w3.org/1999/xlink" width="512" height="512" x="0" y="0" viewBox="0 0 512 512" style="enable-background:new 0 0 512 512" xml:space="preserve" fill-rule="evenodd"><rect width="512" height="512" rx="102.4" ry="102.4" fill="#bac8d3" shape="rounded"></rect><g transform="matrix(0.53,0,0,0.53,120.32,115.32)"><linearGradient id="a" x1="1.239" x2="510.761" y1="256" y2="256" gradientUnits="userSpaceOnUse"><stop offset="0" stop-color="#f071ab"></stop><stop offset="1" stop-color="#22abe2"></stop></linearGradient><path fill="url(#a)" d="M405 411v-32h-32v32zm-73-278v-20H180v20zm48-20v20h108c4 0 6 3 6 6v320h3c8 0 14 6 14 14v25c0 8-6 14-14 14H15c-8 0-14-6-14-14v-25c0-8 6-14 14-14h3V139c0-3 2-6 6-6h108v-20H99c-4 0-6-3-6-6V6c0-4 2-6 6-6h314c4 0 6 2 6 6v101c0 3-2 6-6 6zm-12 20v-20h-24v20zm-200 0v-20h-24v20zm314 326V145H30v314h142V326c0-4 3-6 6-6h156c3 0 6 2 6 6v133zm-298 0h66v-58h-12c-4 0-6-3-6-6s2-6 6-6h12v-57h-66zm78 0h66V332h-66v57h12c4 0 6 3 6 6s-2 6-6 6h-12zM15 471c-1 0-2 1-2 2v25c0 1 1 2 2 2h482c1 0 2-1 2-2v-25c0-1-1-2-2-2H178zm90-370h302V12H105zm184-20V30h1v-2h1v-1h2v-1h31c4 0 6 3 6 6s-2 6-6 6h-23v12h23c4 0 6 3 6 6 0 4-2 6-6 6h-23v13h23c4 0 6 2 6 6 0 3-2 6-6 6h-30l-1-1h-1l-1-1-1-1v-1h-1v-1zm-36 6c-4 0-6-3-6-6V38h-15c-3 0-6-3-6-6s3-6 6-6h41c4 0 7 3 7 6s-3 6-7 6h-14v43c0 3-3 6-6 6zm-116 0c-4 0-6-3-6-6V32c0-3 2-6 6-6 3 0 6 3 6 6v18h17V32c0-3 2-6 6-6 3 0 6 3 6 6v49c0 3-3 6-6 6-4 0-6-3-6-6V62h-17v19c0 3-3 6-6 6zm71 0h-13c-8 0-14-7-14-14V40c0-8 6-14 14-14h13c8 0 14 6 14 14v33c0 7-6 14-14 14zm-13-49c-1 0-2 1-2 2v33c0 1 1 2 2 2h13c1 0 2-1 2-2V40c0-1-1-2-2-2zm180 49h-29c-3 0-6-3-6-6V32c0-3 3-6 6-6 4 0 6 3 6 6v43h23c4 0 6 2 6 6 0 3-2 6-6 6zm-75 196h-88c-4 0-6-3-6-6v-89c0-3 2-6 6-6h88c4 0 6 3 6 6v89c0 3-2 6-6 6zm-82-12h32v-33h-32zm44 0h32v-33h-32zm32-45v-32h-32v32zm-44-32h-32v32h32zm-105 87H57c-4 0-6-3-6-6v-89c0-3 2-6 6-6h88c4 0 6 3 6 6v89c0 3-2 6-6 6zm-82-12h32v-32H63zm44 0h32v-32h-32zm32-44v-33h-32v33zm-44-33H63v33h32zm50 231H57c-4 0-6-2-6-6v-88c0-3 2-6 6-6h88c4 0 6 3 6 6v88c0 4-2 6-6 6zm-82-12h32v-32H63zm44 0h32v-32h-32zm32-44v-32h-32v32zm-44-32H63v32h32zm360-54h-88c-4 0-6-3-6-6v-89c0-3 2-6 6-6h88c4 0 6 3 6 6v89c0 3-3 6-6 6zm-82-12h32v-32h-32zm44 0h32v-32h-32zm32-44v-33h-32v33zm-44-33h-32v33h32zm-32 175h32v-32h-32zm44-32v32h32v-32zm32 44h-32v32h32zm6 44h-88c-4 0-6-2-6-6v-88c0-3 2-6 6-6h88c4 0 6 3 6 6v88c0 4-3 6-6 6z" opacity="1" data-original="url(#a)"></path></g></svg>