<svg xmlns="http://www.w3.org/2000/svg" version="1.1" xmlns:xlink="http://www.w3.org/1999/xlink" width="512" height="512" x="0" y="0" viewBox="0 0 512 512" style="enable-background:new 0 0 512 512" xml:space="preserve" class=""><rect width="512" height="512" rx="102.4" ry="102.4" fill="#bac8d3" shape="rounded"></rect><g transform="matrix(0.5499999999999999,0,0,0.5499999999999999,115.19977340698242,115.19977169036866)"><linearGradient id="a" x1="29.16" x2="487.016" y1="502.859" y2="45.003" gradientUnits="userSpaceOnUse"><stop offset="0" stop-color="#be53ff"></stop><stop offset="1" stop-color="#4958ff"></stop></linearGradient><path fill="url(#a)" d="M476.901 49.283H228c.935-22.976-17.321-41.513-39.694-41.513H148.31c-22.365 0-40.63 18.528-39.694 41.513h-5.135c-19.194 0-34.81 15.615-34.81 34.81v267.512H51.853c-28.431 0-51.564 23.133-51.564 51.564v49.496c0 28.431 23.133 51.564 51.564 51.564h70.217c28.431 0 51.564-23.133 51.564-51.564v-18.292H476.9c19.194 0 34.81-15.615 34.81-34.81V84.093c.001-19.194-15.615-34.81-34.809-34.81zM119.353 50.8c-1.826-16.925 11.214-32.375 28.957-32.375h39.996c17.72 0 30.785 15.43 28.957 32.375-10.943 101.247-10.943 203.918 0 305.162 1.823 16.899-11.179 32.377-28.957 32.377H148.31c-17.72 0-30.785-15.43-28.957-32.375 10.943-101.246 10.943-203.917 0-305.164zM79.325 84.093c0-13.318 10.837-24.155 24.155-24.155h6.035c10.013 97.898 9.818 197.054-.755 294.882-2.552 23.639 15.921 44.174 39.549 44.174h14.671v24.725h-59.5c-13.318 0-24.155-10.837-24.155-24.155zm83.655 368.572c0 22.558-18.352 40.909-40.909 40.909H51.853c-22.558 0-40.909-18.352-40.909-40.909v-49.496c0-22.558 18.352-40.909 40.909-40.909H68.67v37.304c0 19.194 15.615 34.81 34.81 34.81h59.5zm338.076-53.101c0 13.318-10.837 24.155-24.155 24.155H173.635v-24.725h14.671c23.733 0 42.09-20.64 39.549-44.177-10.573-97.826-10.768-196.982-.755-294.88h249.801c13.318 0 24.155 10.837 24.155 24.155zM308.719 228.365h-27.817c-6.529 0-11.841 5.312-11.841 11.841v10.447c0 6.529 5.312 11.841 11.841 11.841h27.817c6.529 0 11.841-5.312 11.841-11.841v-10.447c0-6.53-5.312-11.841-11.841-11.841zm1.186 22.287c0 .653-.533 1.186-1.186 1.186h-27.817a1.189 1.189 0 0 1-1.186-1.186v-10.447c0-.653.533-1.186 1.186-1.186h27.817c.653 0 1.186.533 1.186 1.186zm70.792-22.287H352.88c-6.529 0-11.841 5.312-11.841 11.841v10.447c0 6.529 5.312 11.841 11.841 11.841h27.817c6.529 0 11.841-5.312 11.841-11.841v-10.447c0-6.53-5.311-11.841-11.841-11.841zm1.187 22.287c0 .653-.533 1.186-1.186 1.186H352.88a1.189 1.189 0 0 1-1.186-1.186v-10.447c0-.653.533-1.186 1.186-1.186h27.817c.653 0 1.186.533 1.186 1.186v10.447zm70.792-22.287h-27.817c-6.529 0-11.841 5.312-11.841 11.841v10.447c0 6.529 5.312 11.841 11.841 11.841h27.817c6.529 0 11.841-5.312 11.841-11.841v-10.447c0-6.53-5.312-11.841-11.841-11.841zm1.186 22.287c0 .653-.533 1.186-1.186 1.186h-27.817a1.189 1.189 0 0 1-1.186-1.186v-10.447c0-.653.533-1.186 1.186-1.186h27.817c.653 0 1.186.533 1.186 1.186zm-145.143 23.213h-27.817c-6.529 0-11.841 5.312-11.841 11.841v10.447c0 6.529 5.312 11.841 11.841 11.841h27.817c6.529 0 11.841-5.312 11.841-11.841v-10.447c0-6.529-5.312-11.841-11.841-11.841zm1.186 22.287c0 .653-.533 1.186-1.186 1.186h-27.817a1.189 1.189 0 0 1-1.186-1.186v-10.447c0-.653.533-1.186 1.186-1.186h27.817c.653 0 1.186.533 1.186 1.186zm70.792-22.287H352.88c-6.529 0-11.841 5.312-11.841 11.841v10.447c0 6.529 5.312 11.841 11.841 11.841h27.817c6.529 0 11.841-5.312 11.841-11.841v-10.447c0-6.529-5.311-11.841-11.841-11.841zm1.187 22.287c0 .653-.533 1.186-1.186 1.186H352.88a1.189 1.189 0 0 1-1.186-1.186v-10.447c0-.653.533-1.186 1.186-1.186h27.817c.653 0 1.186.533 1.186 1.186v10.447zm70.792-22.287h-27.817c-6.529 0-11.841 5.312-11.841 11.841v10.447c0 6.529 5.312 11.841 11.841 11.841h27.817c6.529 0 11.841-5.312 11.841-11.841v-10.447c0-6.529-5.312-11.841-11.841-11.841zm1.186 22.287c0 .653-.533 1.186-1.186 1.186h-27.817a1.189 1.189 0 0 1-1.186-1.186v-10.447c0-.653.533-1.186 1.186-1.186h27.817c.653 0 1.186.533 1.186 1.186zm-145.143 23.214h-27.817c-6.529 0-11.841 5.312-11.841 11.841v10.447c0 6.529 5.312 11.841 11.841 11.841h27.817c6.529 0 11.841-5.312 11.841-11.841v-10.447c0-6.53-5.312-11.841-11.841-11.841zm1.186 22.287c0 .653-.533 1.186-1.186 1.186h-27.817a1.189 1.189 0 0 1-1.186-1.186v-10.447c0-.653.533-1.186 1.186-1.186h27.817c.653 0 1.186.533 1.186 1.186zm70.792-22.287H352.88c-6.529 0-11.841 5.312-11.841 11.841v10.447c0 6.529 5.312 11.841 11.841 11.841h27.817c6.529 0 11.841-5.312 11.841-11.841v-10.447c0-6.53-5.311-11.841-11.841-11.841zm1.187 22.287c0 .653-.533 1.186-1.186 1.186H352.88a1.189 1.189 0 0 1-1.186-1.186v-10.447c0-.653.533-1.186 1.186-1.186h27.817c.653 0 1.186.533 1.186 1.186v10.447zm70.792-22.287h-27.817c-6.529 0-11.841 5.312-11.841 11.841v10.447c0 6.529 5.312 11.841 11.841 11.841h27.817c6.529 0 11.841-5.312 11.841-11.841v-10.447c0-6.53-5.312-11.841-11.841-11.841zm1.186 22.287c0 .653-.533 1.186-1.186 1.186h-27.817a1.189 1.189 0 0 1-1.186-1.186v-10.447c0-.653.533-1.186 1.186-1.186h27.817c.653 0 1.186.533 1.186 1.186zm-145.143 23.213h-27.817c-6.529 0-11.841 5.312-11.841 11.841v10.447c0 6.529 5.312 11.841 11.841 11.841h27.817c6.529 0 11.841-5.312 11.841-11.841v-10.447c0-6.529-5.312-11.841-11.841-11.841zm1.186 22.288c0 .653-.533 1.186-1.186 1.186h-27.817a1.189 1.189 0 0 1-1.186-1.186v-10.447c0-.653.533-1.186 1.186-1.186h27.817c.653 0 1.186.533 1.186 1.186zm70.792-22.288H352.88c-6.529 0-11.841 5.312-11.841 11.841v10.447c0 6.529 5.312 11.841 11.841 11.841h27.817c6.529 0 11.841-5.312 11.841-11.841v-10.447c0-6.529-5.311-11.841-11.841-11.841zm1.187 22.288c0 .653-.533 1.186-1.186 1.186H352.88a1.189 1.189 0 0 1-1.186-1.186v-10.447c0-.653.533-1.186 1.186-1.186h27.817c.653 0 1.186.533 1.186 1.186v10.447zm70.792-22.288h-27.817c-6.529 0-11.841 5.312-11.841 11.841v10.447c0 6.529 5.312 11.841 11.841 11.841h27.817c6.529 0 11.841-5.312 11.841-11.841v-10.447c0-6.529-5.312-11.841-11.841-11.841zm1.186 22.288c0 .653-.533 1.186-1.186 1.186h-27.817a1.189 1.189 0 0 1-1.186-1.186v-10.447c0-.653.533-1.186 1.186-1.186h27.817c.653 0 1.186.533 1.186 1.186zm11.224-302.491H268.491c-6.188 0-11.224 5.036-11.224 11.224v96.505c0 6.188 5.036 11.224 11.224 11.224h196.595c6.188 0 11.222-5.036 11.222-11.224V95.887c0-6.188-5.033-11.224-11.222-11.224zm.567 107.729a.57.57 0 0 1-.567.57H268.491a.57.57 0 0 1-.57-.57V95.887a.57.57 0 0 1 .57-.57h196.595a.57.57 0 0 1 .567.57zm-55.465-84.144h-86.795c-6.188 0-11.224 5.036-11.224 11.224v49.332c0 6.188 5.036 11.224 11.224 11.224h86.795c6.188 0 11.224-5.036 11.224-11.224v-49.332c0-6.188-5.036-11.224-11.224-11.224zm.569 60.556a.57.57 0 0 1-.57.57h-86.795a.57.57 0 0 1-.57-.57v-49.332a.57.57 0 0 1 .57-.57h86.795a.57.57 0 0 1 .57.57zm44.884-45.139a5.327 5.327 0 0 1-5.327 5.327h-9.146a5.327 5.327 0 0 1 0-10.654h9.146a5.327 5.327 0 0 1 5.327 5.327zm0 20.475a5.327 5.327 0 0 1-5.327 5.327h-9.146a5.327 5.327 0 0 1 0-10.654h9.146a5.326 5.326 0 0 1 5.327 5.327zm0 20.471a5.327 5.327 0 0 1-5.327 5.327h-9.146a5.327 5.327 0 0 1 0-10.654h9.146a5.327 5.327 0 0 1 5.327 5.327zm-157.907-40.946a5.327 5.327 0 0 1-5.327 5.327h-9.146a5.327 5.327 0 0 1 0-10.654h9.146a5.327 5.327 0 0 1 5.327 5.327zm0 20.475a5.327 5.327 0 0 1-5.327 5.327h-9.146a5.327 5.327 0 0 1 0-10.654h9.146a5.326 5.326 0 0 1 5.327 5.327zm0 20.471a5.327 5.327 0 0 1-5.327 5.327h-9.146a5.327 5.327 0 0 1 0-10.654h9.146a5.327 5.327 0 0 1 5.327 5.327z" opacity="1" data-original="url(#a)"></path></g></svg>