<svg xmlns="http://www.w3.org/2000/svg" version="1.1" xmlns:xlink="http://www.w3.org/1999/xlink" width="512" height="512" x="0" y="0" viewBox="0 0 64 64" style="enable-background:new 0 0 512 512" xml:space="preserve"><rect width="64" height="64" rx="12.8" ry="12.8" fill="#bac8d3" shape="rounded"></rect><g transform="matrix(0.69,0,0,0.69,9.920746784210209,9.915213825702672)"><linearGradient id="a" x1="7.304" x2="56.701" y1="31.985" y2="31.985" gradientUnits="userSpaceOnUse"><stop offset="0" stop-color="#00c0ff"></stop><stop offset="1" stop-color="#5558ff"></stop></linearGradient><path fill="url(#a)" d="M14.099 42.351a1.879 1.879 0 0 0-2.656.002L7.866 45.94a1.873 1.873 0 0 0-.01 2.664l10.818 10.83a1.884 1.884 0 0 0 2.675.01l3.59-3.6a1.868 1.868 0 0 0 .204-2.393c2.758-.383 6.232-.864 9.181-1.267A11.506 11.506 0 0 0 45.2 60c10.816-.013 15.568-13.727 7.237-20.426l3.007-3.014a4.211 4.211 0 0 0 1.256-3.022 4.41 4.41 0 0 0-5.344-4.23c-1.333-5.01-5.011-9.7-7.978-12.845-.557-.792-1.752-1.367-1.806-2.126a2.848 2.848 0 0 0-.946-2.113l1.696-6.988c.298-2.57-4.849-.476-5.2-.226a6.61 6.61 0 0 1-3.365.813 6.61 6.61 0 0 1-3.364-.813c-.421-.315-5.499-2.293-5.202.226l1.697 6.988a2.848 2.848 0 0 0-.947 2.112c-.05.788-1.315 1.412-1.798 2.128a38.948 38.948 0 0 0-6.57 9.148 1 1 0 0 0 1.798.874 37.9 37.9 0 0 1 7.56-10.002 2.842 2.842 0 0 0 1.877.718h9.899a2.841 2.841 0 0 0 1.885-.725c.42.412.866.866 1.33 1.358 2.894 3.067 6.494 7.66 7.605 12.415-.07.06-.148.108-.216.174l-6.885 6.915c-1.237.573-.895-.507-1.729-1.166a4.235 4.235 0 0 0-3.016-1.243H24.14a5.039 5.039 0 0 0-3.489 1.464l-1.158 1.16a8.287 8.287 0 0 1-1.658-6.61 1 1 0 1 0-1.969-.35 10.258 10.258 0 0 0 2.213 8.375l-3.679 3.685zM27.458 6.094c2.536.521 3.007 1.753 6.299 1.729 3.292.024 3.762-1.208 6.299-1.73l-1.306 5.382c-.093-.006-9.892-.01-9.986 0zm11.249 9.108h-9.9a.866.866 0 0 1 0-1.731h9.9a.866.866 0 0 1 0 1.731zM50.725 31.84a2.367 2.367 0 0 1 3.975 1.702 2.234 2.234 0 0 1-.668 1.602l-3.282 3.29a11.42 11.42 0 0 0-5.182-1.415zm-28.658 5.967a3.017 3.017 0 0 1 2.083-.877h13.53a2.218 2.218 0 0 1 2.093 1.423 11.42 11.42 0 0 0-3.667 3.088l-6.577.01a1 1 0 0 0 .001 2l5.343-.009c-.354 1.016-1.715 3.05-.122 3.612a1.002 1.002 0 0 0 1.203-.745 9.444 9.444 0 0 1 5.325-6.472C47.34 36.96 54.855 41.736 54.7 48.5a9.5 9.5 0 0 1-18.71 2.336 1.169 1.169 0 0 0-.27-.446 1.05 1.05 0 0 0-.834-.3c-3.633.494-8.354 1.149-11.476 1.582l-4.773-4.773a1 1 0 1 0-1.41 1.417l6.206 6.206-3.392 3.45L9.356 47.278l3.416-3.425c.633.593 1.404 1.786 2.336.923l6.96-6.969zm18.677 11.4a1 1 0 0 1 1.414-1.414l1.793 1.793 4.293-4.293a1 1 0 1 1 1.414 1.414l-5 5a1 1 0 0 1-1.414 0z" opacity="1" data-original="url(#a)"></path></g></svg>