<svg xmlns="http://www.w3.org/2000/svg" version="1.1" xmlns:xlink="http://www.w3.org/1999/xlink" width="512" height="512" x="0" y="0" viewBox="0 0 512 512" style="enable-background:new 0 0 512 512" xml:space="preserve" class=""><rect width="512" height="512" rx="102.4" ry="102.4" fill="#bac8d3" shape="rounded"></rect><g transform="matrix(0.66,0,0,0.66,87.03830352783203,87.03999481201171)"><linearGradient id="a" x1="256" x2="256" y1="10" y2="502" gradientUnits="userSpaceOnUse"><stop offset="0" stop-color="#a03a8d"></stop><stop offset="1" stop-color="#1f3c8d"></stop></linearGradient><path fill="url(#a)" d="M351.96 174.16h-212.9c-3.31 0-6 2.69-6 6v55.29c0 3.31 2.69 6 6 6h212.9c3.31 0 6-2.69 6-6v-55.29c0-3.31-2.68-6-6-6zm-6 55.29h-200.9v-43.29h200.9zm-169.63 22.86h-36.97c-3.31 0-6 2.69-6 6v32.86c0 3.31 2.69 6 6 6h36.97c3.31 0 6-2.69 6-6v-32.86c0-3.31-2.68-6-6-6zm-6 32.86h-24.97v-20.86h24.97zm64.55-32.86H197.9c-3.31 0-6 2.69-6 6v32.86c0 3.31 2.69 6 6 6h36.97c3.31 0 6-2.69 6-6v-32.86c.01-3.31-2.68-6-5.99-6zm-6 32.86H203.9v-20.86h24.97v20.86zm64.54-32.86h-36.97c-3.31 0-6 2.69-6 6v32.86c0 3.31 2.69 6 6 6h36.97c3.31 0 6-2.69 6-6v-32.86c0-3.31-2.69-6-6-6zm-6 32.86h-24.97v-20.86h24.97zm64.54-32.86h-36.97c-3.31 0-6 2.69-6 6v32.86c0 3.31 2.69 6 6 6h36.97c3.31 0 6-2.69 6-6v-32.86c0-3.31-2.69-6-6-6zm-6 32.86h-24.97v-20.86h24.97zm-169.63 24.26h-36.97c-3.31 0-6 2.69-6 6v32.86c0 3.31 2.69 6 6 6h36.97c3.31 0 6-2.69 6-6v-32.86c0-3.31-2.68-6-6-6zm-6 32.86h-24.97v-20.86h24.97zm64.55-32.86H197.9c-3.31 0-6 2.69-6 6v32.86c0 3.31 2.69 6 6 6h36.97c3.31 0 6-2.69 6-6v-32.86c.01-3.31-2.68-6-5.99-6zm-6 32.86H203.9v-20.86h24.97v20.86zm64.54-32.86h-36.97c-3.31 0-6 2.69-6 6v32.86c0 3.31 2.69 6 6 6h36.97c3.31 0 6-2.69 6-6v-32.86c0-3.31-2.69-6-6-6zm-6 32.86h-24.97v-20.86h24.97zm64.54-32.86h-36.97c-3.31 0-6 2.69-6 6v32.86c0 3.31 2.69 6 6 6h36.97c3.31 0 6-2.69 6-6v-32.86c0-3.31-2.69-6-6-6zm-6 32.86h-24.97v-20.86h24.97zm-169.63 24.26h-36.97c-3.31 0-6 2.69-6 6v32.86c0 3.31 2.69 6 6 6h36.97c3.31 0 6-2.69 6-6v-32.86c0-3.31-2.68-6-6-6zm-6 32.87h-24.97v-20.86h24.97zm64.55-32.87H197.9c-3.31 0-6 2.69-6 6v32.86c0 3.31 2.69 6 6 6h36.97c3.31 0 6-2.69 6-6v-32.86c.01-3.31-2.68-6-5.99-6zm-6 32.87H203.9v-20.86h24.97v20.86zm64.54-32.87h-36.97c-3.31 0-6 2.69-6 6v32.86c0 3.31 2.69 6 6 6h36.97c3.31 0 6-2.69 6-6v-32.86c0-3.31-2.69-6-6-6zm-6 32.87h-24.97v-20.86h24.97zm64.54-32.87h-36.97c-3.31 0-6 2.69-6 6v32.86c0 3.31 2.69 6 6 6h36.97c3.31 0 6-2.69 6-6v-32.86c0-3.31-2.69-6-6-6zm-6 32.87h-24.97v-20.86h24.97zM189.91 53.92c0-3.31 2.69-6 6-6h99.21c3.31 0 6 2.69 6 6s-2.69 6-6 6h-99.21c-3.31 0-6-2.69-6-6zm0 31.85c0-3.31 2.69-6 6-6h99.21c3.31 0 6 2.69 6 6s-2.69 6-6 6h-99.21c-3.31 0-6-2.68-6-6zm0 31.85c0-3.31 2.69-6 6-6h99.21c3.31 0 6 2.69 6 6s-2.69 6-6 6h-99.21c-3.31 0-6-2.68-6-6zm203.11 45.4h-4.34v-11.06c0-28.33-22.57-51.47-50.67-52.43V88.69h60.69c3.31 0 6-2.69 6-6V49.34c0-21.69-17.65-39.34-39.34-39.34H197.88c-24.74 0-44.87 20.13-44.87 44.87v44.67c-27.96 1.11-50.37 24.19-50.37 52.42v242.47c0 26.71 20.06 48.8 45.9 52.05v35.21c0 11.2 9.11 20.31 20.31 20.31h153.61c11.2 0 20.31-9.11 20.31-20.31v-35.21c25.84-3.25 45.9-25.34 45.9-52.05v-11.06h4.34c9.01 0 16.34-7.33 16.34-16.34V179.36c.01-9.01-7.32-16.34-16.33-16.34zm-.32-113.68v27.34h-54.69V49.34c0-15.08 12.27-27.34 27.34-27.34s27.35 12.27 27.35 27.34zM197.88 22H337.1c-6.86 7.08-11.09 16.73-11.09 27.34v93.48h-161V54.87c0-18.12 14.75-32.87 32.87-32.87zm-37.34 459.69v-34.78h37.1v18.91c0 3.31 2.69 6 6 6s6-2.69 6-6v-18.91h49.97V490h-90.76c-4.58 0-8.31-3.73-8.31-8.31zm136.26-34.78V490h-25.18v-43.09zM322.46 490H308.8v-43.09h21.97v34.78c0 4.58-3.72 8.31-8.31 8.31zm54.22-95.57c0 22.32-18.16 40.48-40.48 40.48H155.12c-22.32 0-40.48-18.16-40.48-40.48V151.96c0-21.61 17.03-39.32 38.37-40.42v31.28h-13.95c-3.31 0-6 2.69-6 6s2.69 6 6 6h212.9c3.31 0 6-2.69 6-6s-2.69-6-6-6h-13.95v-31.29c21.48.95 38.67 18.72 38.67 40.43zm20.68-27.4c0 2.39-1.95 4.34-4.34 4.34h-4.34V175.02h4.34c2.39 0 4.34 1.95 4.34 4.34z" opacity="1" data-original="url(#a)"></path></g></svg>