<svg xmlns="http://www.w3.org/2000/svg" version="1.1" xmlns:xlink="http://www.w3.org/1999/xlink" width="512" height="512" x="0" y="0" viewBox="0 0 512 512" style="enable-background:new 0 0 512 512" xml:space="preserve" class=""><rect width="512" height="512" rx="102.4" ry="102.4" fill="#bac8d3" shape="rounded"></rect><g transform="matrix(0.62,0,0,0.62,97.28019134521486,97.28)"><linearGradient id="a" x1="118.379" x2="393.622" y1="255.997" y2="255.997" gradientUnits="userSpaceOnUse"><stop offset="0" stop-color="#00b8d1"></stop><stop offset="1" stop-color="#5b51a2"></stop></linearGradient><path fill="url(#a)" fill-rule="evenodd" d="M216.99 475.869a8 8 0 0 1 8-8h62.021a8 8 0 0 1 0 16H224.99a8 8 0 0 1-8-8zM134.379 33v446a17.019 17.019 0 0 0 17 17h209.242a17.016 17.016 0 0 0 17-17V33a17.015 17.015 0 0 0-17-17H327.4l-7.628 23.467a8 8 0 0 1-7.613 5.529h-112.32a8 8 0 0 1-7.609-5.529L184.6 16h-33.22a17.018 17.018 0 0 0-17 17zm17 479h209.242a33.033 33.033 0 0 0 33-33V33a33.039 33.039 0 0 0-33-33H151.38a33.039 33.039 0 0 0-33 33v446a33.033 33.033 0 0 0 33 33z" opacity="1" data-original="url(#a)"></path></g></svg>