<svg xmlns="http://www.w3.org/2000/svg" version="1.1" xmlns:xlink="http://www.w3.org/1999/xlink" width="512" height="512" x="0" y="0" viewBox="0 0 64 64" style="enable-background:new 0 0 512 512" xml:space="preserve"><rect width="64" height="64" rx="12.8" ry="12.8" fill="#bac8d3" shape="rounded"></rect><g transform="matrix(0.6199999999999999,0,0,0.6199999999999999,12.160000000000004,12.154300594329836)"><linearGradient id="a" x1="4" x2="60" y1="32" y2="32" gradientUnits="userSpaceOnUse"><stop offset="0" stop-color="#00c0ff"></stop><stop offset="1" stop-color="#5558ff"></stop></linearGradient><path fill="url(#a)" d="M57.22 51.92h-1.91v-18a2.78 2.78 0 0 0-2.78-2.77h-.77v-1.36A2.78 2.78 0 0 0 49 27a17.69 17.69 0 0 0-14.2-13.39v-1.79h4.26a2.23 2.23 0 0 0 2.22-2.22V6.43a2.23 2.23 0 0 0-2.22-2.22h-7.3A2.78 2.78 0 0 0 29 7v6.58a17.61 17.61 0 0 0-14.53 13.5 2.76 2.76 0 0 0-2.56 2.74v1.36H11a2.77 2.77 0 0 0-2.78 2.77v18H6.78A2.78 2.78 0 0 0 4 54.69V57a2.78 2.78 0 0 0 2.78 2.76h50.44A2.78 2.78 0 0 0 60 57v-2.31a2.78 2.78 0 0 0-2.78-2.77zM39.28 6.43V9.6a.22.22 0 0 1-.22.22H34.8V6.21h4.26a.22.22 0 0 1 .22.22zM31 7a.77.77 0 0 1 .78-.76h1v7.18c-.32 0-.64-.05-1-.05h-.85zm.84 8.37A15.68 15.68 0 0 1 46.88 27H16.51a15.82 15.82 0 0 1 15.31-11.66zM13.89 29.79a.78.78 0 0 1 .78-.77H49a.78.78 0 0 1 .78.77v1.36H13.89zm-3.68 4.13a.78.78 0 0 1 .78-.77h41.54a.78.78 0 0 1 .78.77v18h-3.74v-8.17a2.61 2.61 0 0 0-.21-1.06 5.37 5.37 0 0 0-4.48-3.28 5.43 5.43 0 0 0-5.38 3.26 2.72 2.72 0 0 0-.22 1.09v8.16h-2.44v-8.17a2.61 2.61 0 0 0-.21-1.06 5.34 5.34 0 0 0-9.86 0 2.56 2.56 0 0 0-.22 1.09v8.16H24.1v-8.19a2.78 2.78 0 0 0-.2-1.06 5.34 5.34 0 0 0-9.86 0 2.56 2.56 0 0 0-.22 1.09v8.16h-3.61zm31.07 18v-8.16a.7.7 0 0 1 0-.28 3.34 3.34 0 0 1 6.2 0 .91.91 0 0 1 0 .27v8.17zm-12.73 0v-8.16a.7.7 0 0 1 .05-.28 3.34 3.34 0 0 1 6.19 0 .65.65 0 0 1 .05.27v8.17zm-12.73 0v-8.16a.56.56 0 0 1 0-.28 3.34 3.34 0 0 1 6.19 0 .67.67 0 0 1 0 .27v8.17zM58 57a.77.77 0 0 1-.78.76H6.78A.77.77 0 0 1 6 57v-2.31a.78.78 0 0 1 .78-.77h50.44a.78.78 0 0 1 .78.77z" opacity="1" data-original="url(#a)"></path></g></svg>