<svg xmlns="http://www.w3.org/2000/svg" version="1.1" xmlns:xlink="http://www.w3.org/1999/xlink" width="512" height="512" x="0" y="0" viewBox="0 0 512 512" style="enable-background:new 0 0 512 512" xml:space="preserve"><rect width="512" height="512" rx="102.4" ry="102.4" fill="#bac8d3" shape="rounded"></rect><g transform="matrix(0.68,0,0,0.68,81.92000488281249,81.91999755859374)"><linearGradient id="a" x1="80.782" x2="431.218" y1="431.218" y2="80.782" gradientUnits="userSpaceOnUse"><stop offset="0" stop-color="#fc4422"></stop><stop offset="1" stop-color="#ffbb32"></stop></linearGradient><path fill="url(#a)" d="M412.951 92.724H99.049C58.77 92.724 26 125.494 26 165.773v180.454c0 40.279 32.77 73.049 73.049 73.049h313.902c40.279 0 73.049-32.77 73.049-73.049V165.773c0-40.279-32.77-73.049-73.049-73.049zM476 346.227c0 34.766-28.283 63.049-63.049 63.049H99.049C64.283 409.276 36 380.993 36 346.227V165.773c0-34.766 28.283-63.049 63.049-63.049h313.902c34.766 0 63.049 28.283 63.049 63.049zM193.544 243.588a42.715 42.715 0 0 0 7.555-24.296c0-23.689-19.272-42.962-42.961-42.962s-42.962 19.272-42.962 42.962a42.712 42.712 0 0 0 7.555 24.296c-25.585 9.621-40.093 29.822-40.093 56.381v30.701a5 5 0 0 0 5 5h141a5 5 0 0 0 5-5v-30.7c.001-26.559-14.507-46.761-40.094-56.382zm-35.405-57.258c18.175 0 32.961 14.786 32.961 32.962s-14.786 32.962-32.961 32.962c-18.176 0-32.962-14.786-32.962-32.962s14.786-32.962 32.962-32.962zm65.5 139.34h-131v-25.701c0-31.154 22.263-43.512 37.305-48.303 7.552 6.585 17.412 10.587 28.195 10.587s20.643-4.002 28.194-10.588c15.042 4.792 37.306 17.151 37.306 48.304zm87.712-137.394a5 5 0 0 1 5-5H407.1c2.762 0 5 2.238 5 5s-2.238 5-5 5h-90.749a5 5 0 0 1-5-5zm75.119 140.701a5 5 0 0 1-5 5h-82.382c-2.762 0-5-2.238-5-5s2.238-5 5-5h82.382a5 5 0 0 1 5 5zm42.891-70.351a5 5 0 0 1-5 5H299.088c-2.762 0-5-2.238-5-5s2.238-5 5-5h125.273a5 5 0 0 1 5 5zm0 35.176a5 5 0 0 1-5 5H299.088c-2.762 0-5-2.238-5-5s2.238-5 5-5h125.273a5 5 0 0 1 5 5z" opacity="1" data-original="url(#a)"></path></g></svg>