<svg xmlns="http://www.w3.org/2000/svg" version="1.1" xmlns:xlink="http://www.w3.org/1999/xlink" width="512" height="512" x="0" y="0" viewBox="0 0 64 64" style="enable-background:new 0 0 512 512" xml:space="preserve"><rect width="64" height="64" rx="12.8" ry="12.8" fill="#bac8d3" shape="rounded"></rect><g transform="matrix(0.7,0,0,0.7,9.600302982330323,9.600000572204593)"><linearGradient id="a" x1="17.595" x2="46.405" y1="32" y2="32" gradientUnits="userSpaceOnUse"><stop offset="0" stop-color="#00c0ff"></stop><stop offset="1" stop-color="#5558ff"></stop></linearGradient><path fill="url(#a)" d="M46.395 21.73a8.59 8.59 0 0 0-5.794-8.581V6h.938a1 1 0 0 0 0-2H22.453a1 1 0 0 0 0 2h.938v7.153a8.539 8.539 0 0 0-5.796 8.107v27.86a6.256 6.256 0 0 0 5.03 6.13v1.79a2.963 2.963 0 0 0 2.96 2.96h6.89a1 1 0 1 0 0-2h-6.89a.961.961 0 0 1-.96-.96v-1.67h14.74v1.67a.961.961 0 0 1-.96.96h-1.93a1 1 0 0 0 0 2h1.93a2.963 2.963 0 0 0 2.96-2.96v-1.789a6.254 6.254 0 0 0 5.03-6.13V30.17a1 1 0 0 0-2 0v15.14h-17.1a1 1 0 0 0 0 2h17.1v1.81a4.245 4.245 0 0 1-4.23 4.25h-16.33a4.25 4.25 0 0 1-4.24-4.25v-1.81h3.7a1 1 0 1 0 0-2h-3.7V21.26a6.602 6.602 0 0 1 6.59-6.58c.98.022 12.586-.154 13.186.193a6.527 6.527 0 0 1 4.98 5.867h-19.06a1 1 0 0 0 .001 2h19.103v3.43a1 1 0 1 0 2 0c-.007-.015.005-4.427 0-4.44zm-7.794-9.003c-.404-.097-5.073-.027-5.601-.047V9.47h1.48a1 1 0 0 0 0-2h-4.968a1 1 0 0 0 0 2H31v3.21c-.547.016-5.177-.043-5.609.047V6h13.21zm-3.518 18.636c.775-3.488-2.412-5.896-2.548-5.997a1.007 1.007 0 0 0-1.594.754 8.475 8.475 0 0 1-.37 2.804c-.785 1.833-3.034 3.52-4.175 5.32a4.838 4.838 0 0 0-.71 4.358 5.997 5.997 0 0 0 4.5 4.052 6.869 6.869 0 0 0 7.22-2.411c2.487-2.873.167-6.802.066-6.969a1.006 1.006 0 0 0-1.822.256c-.709 2.624-1.984 2.497-2.055 2.489-.334-.063-.148-.633-.054-.937a34.356 34.356 0 0 0 1.542-3.719zm1.413 5.06c.46 1.907-1.611 5.21-5.91 4.272a3.998 3.998 0 0 1-2.994-2.7c-.097-.33-.485-.879.44-2.601 1.495-2.258 4.2-4.01 4.713-6.777 1.089 2.063.035 2.903-1.04 5.675a3.298 3.298 0 0 0-.056 2.523c.893 1.63 3.235 1.722 4.847-.392zM23.149 21.74a.982.982 0 0 1-1.964 0 .982.982 0 0 1 1.964 0z" opacity="1" data-original="url(#a)"></path></g></svg>