<svg xmlns="http://www.w3.org/2000/svg" version="1.1" xmlns:xlink="http://www.w3.org/1999/xlink" width="512" height="512" x="0" y="0" viewBox="0 0 512 512" style="enable-background:new 0 0 512 512" xml:space="preserve"><rect width="512" height="512" rx="102.4" ry="102.4" fill="#bac8d3" shape="rounded"></rect><g transform="matrix(0.5800000000000002,0,0,0.5800000000000002,102.51978811264036,107.52000480651853)"><linearGradient id="a" x1="121.59" x2="531.741" y1="495.605" y2="85.454" gradientUnits="userSpaceOnUse"><stop offset="0" stop-color="#f803fe"></stop><stop offset="1" stop-color="#0ecbde"></stop></linearGradient><path fill="url(#a)" d="M502.792 68.079v375.842c0 15.452-12.593 28.022-28.072 28.022H247.67c-15.48 0-28.072-12.57-28.072-28.022v-145.76a5.142 5.142 0 0 1 10.283 0v145.76c0 9.781 7.981 17.739 17.789 17.739h227.05c9.811 0 17.789-7.958 17.789-17.739V68.079c0-9.781-7.978-17.739-17.789-17.739H247.67c-9.809 0-17.789 7.958-17.789 17.739v126.582a5.142 5.142 0 0 1-10.283 0V68.079c0-15.452 12.593-28.022 28.072-28.022h227.05c15.479 0 28.072 12.57 28.072 28.022zm-76.068 18.964v76.892c0 2.839-2.3 5.142-5.142 5.142h-56.888a5.14 5.14 0 0 1-5.141-5.142V87.043c0-2.839 2.3-5.142 5.141-5.142h56.888a5.142 5.142 0 0 1 5.142 5.142zm-10.283 5.142h-46.605v66.609h46.605zm46.735 168.143V87.043a5.141 5.141 0 1 0-10.283 0v173.285a5.141 5.141 0 1 0 10.283 0zM294.807 125.959a5.14 5.14 0 0 0 5.142-5.142V87.043a5.141 5.141 0 1 0-10.283 0v33.774a5.14 5.14 0 0 0 5.141 5.142zm-25.285 68.702V87.051c0-2.839-2.3-5.141-5.142-5.141s-5.141 2.302-5.141 5.141v107.61a5.141 5.141 0 1 0 10.283 0zm20.144-4.087a5.141 5.141 0 1 0 10.283 0V156.8a5.141 5.141 0 1 0-10.283 0zm98.18 215.484c-2.008-2.008-5.262-2.008-7.27 0s-2.008 5.262 0 7.27c22.353 22.358 58.743 22.351 81.094-.005 2.008-2.008 2.008-5.262 0-7.27s-5.262-2.008-7.27 0c-18.357 18.351-48.207 18.346-66.554.005zm51.189-15.37c-9.877 9.882-25.941 9.889-35.825.005-2.008-2.008-5.262-2.008-7.27 0s-2.008 5.262 0 7.27c13.895 13.895 36.469 13.902 50.366-.005a5.141 5.141 0 0 0-7.271-7.27zm-15.364-15.361c-1.371 1.366-3.736 1.363-5.096-.003a5.143 5.143 0 0 0-7.27 7.276c5.456 5.446 14.232 5.407 19.637-.003a5.143 5.143 0 0 0 0-7.273 5.145 5.145 0 0 0-7.271.003zm-134.005 9.017v40.612a5.141 5.141 0 1 0 10.283 0v-40.612a5.141 5.141 0 1 0-10.283 0zm-85.493 52.173h-22.469c-24.338 0-48.183-10.287-64.891-28.657-18.492-20.277-44.913-31.908-72.488-31.908H19.491v-94.965h44.526c33.892 0 47.474-23.755 68.215-38.955 16.007-13.968 36.608-21.663 58.008-21.663h91.468c11.448 0 20.204 9.224 20.204 20.257 0 9.726-6.909 18.088-16.429 19.886l-84.523 15.982a5.14 5.14 0 0 0-4.24 5.061c0 36.963-40.976 40.083-41.494 40.309a5.142 5.142 0 0 0 0 10.283c.514-.212 47.683-.191 51.593-46.271l80.572-15.261c14.37-2.711 24.804-15.324 24.804-29.988 0-16.904-13.581-30.54-30.487-30.54H190.24c-23.887 0-46.891 8.593-64.756 24.186-20.812 15.509-32.656 36.432-61.467 36.432H14.349a5.142 5.142 0 0 0-5.142 5.142v105.248a5.142 5.142 0 0 0 5.142 5.142h29.975c24.691 0 48.342 10.409 64.886 28.549 18.625 20.476 45.223 32.016 72.493 32.016h22.469a5.142 5.142 0 0 0 5.141-5.142 5.14 5.14 0 0 0-5.14-5.143z" opacity="1" data-original="url(#a)"></path></g></svg>