<svg xmlns="http://www.w3.org/2000/svg" version="1.1" xmlns:xlink="http://www.w3.org/1999/xlink" width="512" height="512" x="0" y="0" viewBox="0 0 512 512" style="enable-background:new 0 0 512 512" xml:space="preserve" class=""><rect width="512" height="512" rx="102.4" ry="102.4" fill="#bac8d3" shape="rounded"></rect><g transform="matrix(0.61,0,0,0.61,99.84019080162051,99.83980957031253)"><linearGradient id="a" x1="117.915" x2="379.673" y1="444.321" y2="182.562" gradientUnits="userSpaceOnUse"><stop offset="0" stop-color="#b429f9"></stop><stop offset=".996" stop-color="#26c5f3"></stop></linearGradient><path fill="url(#a)" d="M492.123 335.644H358.301c11.587-24.173 18.09-51.228 18.09-79.777 0-102.117-83.078-185.195-185.195-185.195S6.002 153.751 6.002 255.867c0 107.652 91.817 185.46 177.15 185.46h308.971c7.651 0 13.876-6.224 13.876-13.876v-77.935c-.001-7.648-6.225-13.872-13.876-13.872zM20.565 255.867c0-94.086 76.546-170.632 170.632-170.632s170.632 76.546 170.632 170.632-76.546 170.632-170.632 170.632S20.565 349.953 20.565 255.867zm243.707 170.139c27.052-11.664 50.793-29.584 69.378-51.946v52.704h-69.378zm83.941-72.111a187.402 187.402 0 0 0 2.26-3.688h67.123v76.558h-69.383zm143.222 72.87h-59.276v-76.558h59.276zM191.196 225.862c-16.545 0-30.008 13.461-30.008 30.005 0 16.547 13.463 30.008 30.008 30.008s30.008-13.461 30.008-30.008c0-16.544-13.463-30.005-30.008-30.005zm0 45.45c-8.514 0-15.445-6.928-15.445-15.445 0-8.514 6.931-15.442 15.445-15.442s15.445 6.928 15.445 15.442c0 8.517-6.93 15.445-15.445 15.445zm-2.721-71.329c25.267 0 45.822-20.572 45.822-45.858 0-25.265-20.555-45.82-45.822-45.82-25.262 0-45.818 20.555-45.818 45.82.001 25.286 20.556 45.858 45.818 45.858zm0-77.115c17.237 0 31.259 14.023 31.259 31.257 0 17.256-14.023 31.295-31.259 31.295-17.232 0-31.255-14.039-31.255-31.295.001-17.234 14.023-31.257 31.255-31.257zM141.44 230.282c20.285-35.131-12.252-77.725-51.573-67.186-24.46 6.554-38.953 31.638-32.397 56.114 10.519 39.274 63.646 46.263 83.97 11.072zm-47.804-53.118c26.963-7.239 48.984 21.941 35.194 45.837-13.848 23.962-50.106 19.262-57.294-7.559-4.473-16.685 5.403-33.804 22.1-38.278zm50.525 109.003c-12.634-21.885-40.736-29.396-62.623-16.751-10.6 6.115-18.18 15.997-21.347 27.82-6.554 24.47 7.931 49.561 32.397 56.114 39.264 10.535 71.892-31.997 51.573-67.183zm-47.804 53.118c-16.685-4.47-26.575-21.584-22.101-38.28 2.162-8.066 7.334-14.805 14.563-18.976v-.002c14.97-8.639 34.12-3.482 42.731 11.422 13.968 24.201-8.529 52.968-35.193 45.836zm143.378 18.327c0-25.289-20.555-45.86-45.818-45.86s-45.818 20.572-45.818 45.86c0 25.265 20.555 45.818 45.818 45.818s45.818-20.554 45.818-45.818zm-77.072 0c0-17.258 14.023-31.297 31.255-31.297s31.255 14.039 31.255 31.297c0 17.234-14.023 31.255-31.255 31.255s-31.255-14.021-31.255-31.255zm140.918-92.911c-21.892-12.629-49.989-5.132-62.628 16.751-12.634 21.88-5.091 49.968 16.805 62.611 22.011 12.705 49.985 5.068 62.59-16.77 12.664-21.928 5.161-49.93-16.767-62.592zm4.158 55.311c-8.618 14.93-27.766 20.053-42.698 11.441-14.942-8.63-20.091-27.794-11.477-42.72 8.618-14.926 27.789-20.048 42.736-11.42 14.954 8.635 20.072 27.737 11.439 42.699zm-69.507-94.442c12.657 21.917 40.759 29.367 62.628 16.751v-.002c10.595-6.115 18.175-15.997 21.347-27.82 3.167-11.825 1.541-24.172-4.579-34.77-12.653-21.923-40.655-29.425-62.59-16.77-21.897 12.643-29.439 40.731-16.806 62.611zm24.087-50.001c15.053-8.689 34.152-3.358 42.698 11.441 4.172 7.229 5.281 15.651 3.119 23.719-7.192 26.834-43.456 31.505-57.295 7.559-8.612-14.925-3.464-34.089 11.478-42.719z" opacity="1" data-original="url(#a)"></path></g></svg>