<svg xmlns="http://www.w3.org/2000/svg" version="1.1" xmlns:xlink="http://www.w3.org/1999/xlink" width="512" height="512" x="0" y="0" viewBox="0 0 512 512" style="enable-background:new 0 0 512 512" xml:space="preserve" class=""><rect width="512" height="512" rx="102.4" ry="102.4" fill="#bac8d3" shape="rounded"></rect><g transform="matrix(0.65,0,0,0.65,89.58250427246094,89.59999732971193)"><linearGradient id="a" x1="255.95" x2="255.95" y1="41" y2="471" gradientUnits="userSpaceOnUse"><stop offset="0" stop-color="#f704fe"></stop><stop offset="1" stop-color="#24bce3"></stop></linearGradient><path fill="url(#a)" d="M387.2 375.4H124.8c-14 0-27.1-5.6-36.9-15.6-9.8-10.1-14.9-23.4-14.4-37.4l8.4-241.5c.9-22.4 19-39.9 41.3-39.9h265.6c22.3 0 40.5 17.5 41.2 39.8l8.4 241.5c.5 14-4.6 27.3-14.3 37.4s-22.8 15.7-36.9 15.7zm-264-324.6c-17 0-30.9 13.4-31.6 30.5l-8.4 241.5c-.4 11.3 3.8 22.1 11.7 30.3s18.5 12.7 29.9 12.7h262.5c11.4 0 22-4.5 29.9-12.7s12-19 11.6-30.3l-8.4-241.5c-.6-17-14.4-30.4-31.5-30.4zm243.5 207.4H145.3c-8.8 0-17-3.5-23.1-9.8s-9.4-14.7-9.1-23.5l3.9-112.2c.2-5.9 4.9-10.5 10.8-10.5H384c5.9 0 10.7 4.6 10.8 10.5l3.9 112.2c.3 8.8-2.8 17.1-8.9 23.4-6 6.3-14.2 9.9-23.1 9.9zM127.9 112c-.6 0-1.1.5-1.1 1l-3.9 112.2c-.2 6.1 2.1 12 6.3 16.4s9.9 6.8 16.1 6.8h221.4c6.2 0 11.9-2.4 16.2-6.9 4.2-4.4 6.5-10.2 6.2-16.3L385.2 113c0-.6-.5-1-1.1-1zm198.8-30.6H185.3c-7.9 0-14.3-6.4-14.3-14.3V45.9c0-2.7 2.2-4.9 4.9-4.9s4.9 2.2 4.9 4.9v21.2c0 2.5 2 4.5 4.5 4.5h141.3c2.5 0 4.5-2 4.5-4.5V45.9c0-2.7 2.2-4.9 4.9-4.9s4.9 2.2 4.9 4.9v21.2c0 7.9-6.4 14.3-14.2 14.3zM106.7 471H79.1c-2.2 0-4.3-1.2-5.4-3.1s-1.2-4.2-.2-6.1l47.5-93.5c1.2-2.4 4.2-3.4 6.6-2.1 2.4 1.2 3.4 4.2 2.1 6.6l-44.9 88.5h19.8l47.2-92.9c1.2-2.4 4.2-3.4 6.6-2.1 2.4 1.2 3.4 4.2 2.1 6.6l-48.2 94.8c-.1.1-.1.2-.2.3-1.1 1.8-3.2 3-5.4 3zm326.2 0h-27.6c-2.2 0-4.3-1.2-5.5-3.2-.1-.1-.1-.2-.2-.3l-48.2-94.8c-1.2-2.4-.3-5.3 2.1-6.6 2.4-1.2 5.3-.3 6.6 2.1l47.2 92.9h19.8l-44.9-88.5c-1.2-2.4-.3-5.3 2.1-6.6 2.4-1.2 5.3-.3 6.6 2.1l47.5 93.5c1 1.9.9 4.2-.2 6.1-1 2.1-3.1 3.3-5.3 3.3zm-44.7-31.9H123.7c-2.7 0-4.9-2.2-4.9-4.9s2.2-4.9 4.9-4.9h264.5c2.7 0 4.9 2.2 4.9 4.9 0 2.8-2.2 4.9-4.9 4.9zm-16.1-31.8H139.9c-2.7 0-4.9-2.2-4.9-4.9s2.2-4.9 4.9-4.9h232.2c2.7 0 4.9 2.2 4.9 4.9s-2.2 4.9-4.9 4.9zM256 258.2c-2.7 0-4.9-2.2-4.9-4.9V107.2c0-2.7 2.2-4.9 4.9-4.9s4.9 2.2 4.9 4.9v146.1c0 2.7-2.2 4.9-4.9 4.9zm37.8 74.1h-75.7c-4.2 0-7.8-2.7-9-6.8 0-.1 0-.1-.1-.2l-5.6-22.3c-.7-2.8-.1-5.7 1.7-8s4.5-3.6 7.3-3.6h86.8c2.9 0 5.5 1.3 7.3 3.6s2.4 5.2 1.7 7.9l-5.5 22.2c-.8 4.2-4.6 7.2-8.9 7.2zm-75.4-9.7h74.9l5.3-21.3H213zm-80 15.3c-14.3 0-26-11.7-26-26s11.7-26 26-26 26 11.7 26 26-11.6 26-26 26zm0-42.2c-8.9 0-16.2 7.3-16.2 16.2s7.3 16.2 16.2 16.2 16.2-7.3 16.2-16.2c.1-8.9-7.2-16.2-16.2-16.2zm235.2 42.2c-14.3 0-26-11.7-26-26s11.7-26 26-26 26 11.7 26 26-11.7 26-26 26zm0-42.2c-8.9 0-16.2 7.3-16.2 16.2s7.3 16.2 16.2 16.2 16.2-7.3 16.2-16.2-7.3-16.2-16.2-16.2z" opacity="1" data-original="url(#a)"></path></g></svg>