<svg xmlns="http://www.w3.org/2000/svg" version="1.1" xmlns:xlink="http://www.w3.org/1999/xlink" width="512" height="512" x="0" y="0" viewBox="0 0 512 512" style="enable-background:new 0 0 512 512" xml:space="preserve" class=""><rect width="512" height="512" rx="102.4" ry="102.4" fill="#bac8d3" shape="rounded"></rect><g transform="matrix(-0.6699999999999999,-8.205133554287266e-17,8.205133554287266e-17,-0.6699999999999999,427.52,427.52)"><linearGradient id="a" x1="256" x2="256" y1="0" y2="512" gradientUnits="userSpaceOnUse"><stop offset="0" stop-color="#2af598"></stop><stop offset="1" stop-color="#009efd"></stop></linearGradient><path fill="url(#a)" d="M256 512c-68.379 0-132.668-26.629-181.02-74.98C26.63 388.668 0 324.379 0 256S26.629 123.332 74.98 74.98C123.332 26.63 187.621 0 256 0s132.668 26.629 181.02 74.98C485.37 123.332 512 187.621 512 256s-26.629 132.668-74.98 181.02C388.668 485.37 324.379 512 256 512zm0-472C136.898 40 40 136.898 40 256s96.898 216 216 216 216-96.898 216-216S375.102 40 256 40zm138.285 250L256 151.715 117.715 290 146 318.285l110-110 110 110zm0 0" opacity="1" data-original="url(#a)"></path></g></svg>