<svg xmlns="http://www.w3.org/2000/svg" version="1.1" xmlns:xlink="http://www.w3.org/1999/xlink" width="512" height="512" x="0" y="0" viewBox="0 0 64 64" style="enable-background:new 0 0 512 512" xml:space="preserve"><rect width="64" height="64" rx="12.8" ry="12.8" fill="#bac8d3" shape="rounded"></rect><g transform="matrix(0.6599999999999998,0,0,0.6599999999999998,10.879994974136359,10.88003153324128)"><linearGradient id="a" x1="7.873" x2="56.127" y1="32" y2="32" gradientUnits="userSpaceOnUse"><stop offset="0" stop-color="#ff81ff"></stop><stop offset="1" stop-color="#a93aff"></stop></linearGradient><path fill="url(#a)" d="M39.688 56.049a1 1 0 0 1-.397 1.357A21.246 21.246 0 0 1 7.873 38.744c0-11.434 19.673-33.493 20.511-34.427a1.032 1.032 0 0 1 1.489 0c.052.057 5.207 5.814 10.252 12.87a1 1 0 0 1-1.628 1.163c-3.853-5.39-7.771-10.01-9.368-11.848-3.627 4.183-19.256 22.76-19.256 32.242-.247 14.33 16.01 23.986 28.457 16.907a1.002 1.002 0 0 1 1.358.398zM28.32 53.464a13.737 13.737 0 0 1-12.67-8.392 1 1 0 1 0-1.842.78 15.734 15.734 0 0 0 14.512 9.613 1 1 0 0 0 0-2.001zm27.7-19.357-12.669 25.34a1 1 0 0 1-1.881-.612l2.972-17.84h-8.321a1.007 1.007 0 0 1-.949-1.317l6.336-19.005a1 1 0 0 1 .948-.684h9.503a1.007 1.007 0 0 1 .97 1.243L50.073 32.66h5.054a1 1 0 0 1 .894 1.448zm-2.513.553h-4.716a1.007 1.007 0 0 1-.97-1.243l2.856-11.427h-7.5L37.51 38.994h8.114a1.007 1.007 0 0 1 .987 1.165l-2.074 12.443z" opacity="1" data-original="url(#a)"></path></g></svg>