<?xml version="1.0" encoding="iso-8859-1"?>
<!-- Generator: Adobe Illustrator 19.0.0, SVG Export Plug-In . SVG Version: 6.00 Build 0)  -->
<svg version="1.1" id="Capa_1" xmlns="http://www.w3.org/2000/svg" xmlns:xlink="http://www.w3.org/1999/xlink" x="0px" y="0px"
	 viewBox="0 0 513.067 513.067" style="enable-background:new 0 0 513.067 513.067;" xml:space="preserve">
<path style="fill:#344A5E;" d="M265.6,391.479l-6.4,5.333l3.2,16l37.333-8.533l-1.067-4.267c0,0,10.667-1.067,13.867,1.067
	c4.267,2.133,13.867,0,13.867,0s27.733-5.333,41.6-14.933c0,0,6.4-5.333,1.067-7.467c-5.333-2.133-5.333-2.133-5.333-2.133
	L265.6,391.479z"/>
<path style="fill:#425A6B;" d="M266.667,371.212c0,0-10.667,17.067-6.4,25.6c0,0,8.533,5.333,29.867,0
	c0,0,13.867-2.133,21.333-1.067c7.467,1.067,24.533-2.133,24.533-2.133s22.4-5.333,32-12.8c0,0,5.333-5.333-2.133-7.467
	c0,0-5.333-2.133-14.933,1.067c0,0-16,0-24.533-4.267c-8.533-4.267-20.267-9.6-20.267-9.6s1.067,12.8-3.2,16
	c-5.333,3.2-10.667,5.333-19.2,3.2C274.133,378.679,266.667,371.212,266.667,371.212z"/>
<path style="fill:#48B9A5;" d="M174.933,212.279c0,0,28.8-3.2,68.267,5.333s45.867,17.067,46.933,19.2s36.267,115.2,36.267,115.2
	l-44.8,25.6l-1.067-124.8l-109.867-34.133L174.933,212.279z"/>
<path style="fill:#CED6E0;" d="M500.267,435.212l-59.733-258.133H403.2c0,2.133,0,4.267,1.067,7.467l80,254.933
	c1.067,4.267,5.333,6.4,9.6,5.333C498.133,444.812,501.333,440.546,500.267,435.212z"/>
<path style="fill:#E8EAE8;" d="M502.4,184.546H237.867c-5.333,0-9.6-4.267-9.6-9.6l0,0c0-5.333,4.267-9.6,9.6-9.6h265.6
	c5.333,0,9.6,4.267,9.6,9.6l0,0C512,180.279,507.733,184.546,502.4,184.546z"/>
<rect x="118.4" y="277.346" style="fill:#425A6B;" width="20.267" height="52.267"/>
<rect x="114.133" y="328.546" style="fill:#344A5E;" width="28.8" height="22.4"/>
<rect x="107.733" y="350.946" style="fill:#425A6B;" width="40.533" height="21.333"/>
<path style="fill:#344A5E;" d="M52.267,398.946H34.133c0-29.867,71.467-32,93.867-32s93.867,2.133,93.867,32h-18.133
	c-1.067-4.267-25.6-13.867-75.733-13.867C78.933,385.079,54.4,394.679,52.267,398.946z"/>
<g>
	<circle style="fill:#425A6B;" cx="42.667" cy="410.679" r="17.067"/>
	<circle style="fill:#425A6B;" cx="214.4" cy="410.679" r="17.067"/>
</g>
<path style="fill:#344A5E;" d="M138.667,408.546c1.067-10.667,1.067-21.333-1.067-33.067h-18.133
	c-2.133,10.667-2.133,21.333-1.067,33.067H138.667z"/>
<g>
	<circle style="fill:#425A6B;" cx="128" cy="410.679" r="17.067"/>
	<path style="fill:#425A6B;" d="M19.2,72.546c0,0,49.067,12.8,18.133,97.067"/>
	<path style="fill:#425A6B;" d="M35.2,150.412c0,0,52.267,6.4,21.333,81.067"/>
	<path style="fill:#425A6B;" d="M52.267,204.812c0,0,52.267,6.4,21.333,81.067"/>
	<path style="fill:#425A6B;" d="M73.6,273.079c0-2.133,120.533-58.667,133.333,4.267"/>
</g>
<path style="fill:#344A5E;" d="M0,69.346c0,0,23.467-6.4,26.667,8.533s7.467,62.933,12.8,75.733c5.333,12.8,22.4,61.867,22.4,61.867
	L80,269.879l112-13.867h6.4c13.867-1.067,25.6,8.533,26.667,22.4l0,0l-144,18.133C70.4,297.612,60.8,291.212,57.6,281.612
	L14.933,162.146c-4.267-10.667-6.4-22.4-7.467-33.067L0,69.346z"/>
<g>
	<path style="fill:#E8EAE8;" d="M302.933,349.879c0,0,2.133,13.867,7.467,16c5.333,3.2,4.267,12.8,4.267,12.8l-27.733,11.733
		l-18.133-6.4c0,0-3.2-19.2,2.133-25.6C275.2,352.012,302.933,349.879,302.933,349.879z"/>
	<path style="fill:#E8EAE8;" d="M283.733,381.879c0,0,2.133,13.867,7.467,17.067c5.333,3.2,4.267,12.8,4.267,12.8l-27.733,11.733
		l-18.133-6.4c0,0-3.2-19.2,2.133-25.6C257.067,384.012,283.733,381.879,283.733,381.879z"/>
</g>
<path style="fill:#344A5E;" d="M247.467,423.479l-6.4,5.333l3.2,16l37.333-8.533l-1.067-4.267c0,0,10.667-1.067,13.867,1.067
	c4.267,2.133,13.867,0,13.867,0s27.733-5.333,41.6-14.933c0,0,6.4-5.333,1.067-7.467c-5.333-2.133-5.333-2.133-5.333-2.133
	L247.467,423.479z"/>
<path style="fill:#425A6B;" d="M247.467,403.212c0,0-10.667,17.067-6.4,25.6c0,0,8.533,5.333,29.867,0
	c0,0,13.867-2.133,21.333-1.067c7.467,1.067,24.533-2.133,24.533-2.133s22.4-5.333,32-12.8c0,0,5.333-5.333-2.133-7.467
	c0,0-5.333-2.133-14.933,1.067c0,0-16,0-24.533-4.267c-8.533-4.267-20.267-9.6-20.267-9.6s1.067,12.8-3.2,16
	c-5.333,3.2-10.667,5.333-19.2,3.2C256,410.679,247.467,403.212,247.467,403.212z"/>
<path style="fill:#67C5B8;" d="M162.133,214.412c0,0,69.333,7.467,94.933,17.067c25.6,10.667,33.067,14.933,34.133,25.6
	c2.133,11.733,19.2,125.867,19.2,125.867l-25.6,8.533c0,0-30.933,13.867-40.533,10.667c0,0-1.067-89.6-3.2-108.8
	c0,0,1.067-7.467,4.267-9.6c0,0-1.067-3.2,0-5.333c0,0-7.467,0-7.467-3.2c0-3.2,0,1.067,0,1.067s-1.067-18.133-32-18.133
	C164.267,266.679,120.533,268.812,162.133,214.412z"/>
<path style="fill:#344A5E;" d="M244.267,73.612c0,0,2.133,6.4,1.067,13.867c-1.067,6.4-1.067,7.467-1.067,7.467l-12.8-1.067
	C231.467,93.879,235.733,72.546,244.267,73.612z"/>
<polygon style="fill:#F5B54C;" points="257.067,100.279 253.867,98.146 244.267,96.012 229.333,161.079 285.867,166.412 
	293.333,141.879 288,115.212 "/>
<path style="fill:#425A6B;" d="M274.133,99.212c-3.2,2.133-20.267-1.067-20.267-1.067l-1.067,7.467c0,0,21.333,9.6,23.467,13.867
	c2.133,3.2,4.267,7.467,1.067,12.8c-3.2,5.333-8.533,4.267-8.533,4.267l-11.733-3.2L256,137.612c0,0,24.533,3.2,25.6,16l25.6,9.6
	c0,0,11.733-3.2,16-21.333c0-1.067,0-1.067,0-2.133c2.133-16-7.467-32-22.4-38.4C292.267,97.079,283.733,96.012,274.133,99.212z"/>
<path style="fill:#F5B54C;" d="M261.333,131.212c0,0-3.2,0-3.2-3.2c0-3.2,3.2-5.333,3.2-5.333s5.333-6.4,12.8-5.333
	c7.467,1.067,5.333,10.667,5.333,10.667s-2.133,4.267-6.4,3.2C267.733,130.146,261.333,131.212,261.333,131.212z"/>
<path style="fill:#F3F3F3;" d="M237.867,88.546h9.6c1.067,13.867-1.067,25.6-5.333,36.267L237.867,88.546z"/>
<path style="fill:#FFD15C;" d="M326.4,165.346c0,0-1.067,3.2-7.467,1.067c0,0-4.267,1.067-6.4,0c0,0-2.133,2.133-5.333,2.133
	c0,0-3.2,4.267-19.2,4.267c-14.933,0-12.8-16-12.8-18.133l13.867-3.2c0,0,9.6-3.2,11.733,1.067c0,0,4.267,0,5.333,2.133
	c0,0,5.333-1.067,6.4,2.133h3.2c0,0,7.467,3.2,6.4,5.333C322.133,161.079,326.4,163.212,326.4,165.346z"/>
<path style="fill:#67C5B8;" d="M276.267,152.546c0,0,11.733,8.533,12.8,13.867c1.067,5.333,2.133,14.933,2.133,14.933l-37.333,2.133
	l-34.133,2.133c0,0-11.733,1.067-14.933-4.267c-2.133-5.333-2.133-5.333-2.133-5.333l-21.333,30.933c0,0,2.133,6.4-3.2,13.867
	c-4.267,7.467-5.333,18.133-5.333,18.133s-6.4,18.133-19.2,33.067c-12.8,14.933-20.267,21.333-32,18.133
	c-11.733-5.333-25.6-20.267-25.6-20.267l-2.133-3.2c-5.333-8.533-7.467-18.133-6.4-27.733c0-2.133,0-4.267-1.067-6.4
	c-4.267-8.533-1.067-18.133-1.067-18.133s18.133-54.4,39.467-78.933c22.4-24.533,56.533-49.067,56.533-49.067s17.067-22.4,41.6-16
	l8.533,2.133c0,0,2.133-1.067,6.4,0c0,0,5.333-1.067,6.4,2.133c0,0-4.267-1.067-4.267,8.533c-1.067,9.6,0,14.933,0,14.933
	s3.2,7.467,3.2,18.133c0,9.6-2.133,19.2-2.133,19.2s-3.2,12.8-5.333,16c0,0,9.6,0,13.867,2.133s10.667,0,10.667,0
	S273.067,154.679,276.267,152.546z"/>
<path style="fill:#425A6B;" d="M190.933,225.079c0-2.133-1.067-4.267-1.067-6.4c-6.4-20.267-20.267-33.067-45.867-35.2
	c-3.2,0-6.4,0-9.6,0l-75.733,6.4c-3.2,0-5.333,2.133-7.467,5.333l0,0c0,0-8.533,2.133-7.467,12.8
	c1.067,10.667,5.333,37.333,5.333,43.733c0,7.467,1.067,17.067,8.533,24.533c7.467,7.467,18.133,8.533,23.467,8.533
	c6.4-1.067,101.333-10.667,104.533-10.667c3.2,0,9.6-3.2,9.6-10.667C196.267,257.079,192,233.612,190.933,225.079z M60.8,205.879
	l76.8-6.4c1.067,0,2.133,0,4.267,0c1.067,0,2.133,0,3.2,0c18.133,1.067,28.8,9.6,34.133,25.6c0,1.067,1.067,2.133,1.067,4.267
	c3.2,17.067,4.267,30.933,5.333,35.2c-6.4,0-37.333,3.2-90.667,8.533c-7.467,1.067-11.733,1.067-13.867,1.067c0,0-1.067,0-2.133,0
	c-2.133,0-8.533,0-12.8-4.267s-5.333-10.667-5.333-16c0-4.267-1.067-14.933-3.2-28.8c-1.067-5.333-1.067-10.667-2.133-13.867v-1.067
	C55.467,208.012,57.6,205.879,60.8,205.879z"/>
<path style="fill:#67C5B8;" d="M88.533,253.879c1.067,4.267,3.2,8.533,5.333,12.8l2.133,3.2c0,0,14.933,13.867,26.667,18.133
	c11.733,4.267,19.2-3.2,32-18.133c4.267-5.333,8.533-11.733,11.733-16H88.533z"/>
<path style="fill:#425A6B;" d="M422.4,166.412l23.467-80c1.067-2.133-1.067-4.267-3.2-4.267c-2.133,0-3.2,1.067-3.2,2.133
	l-21.333,71.467h-64c-6.4,0-12.8,4.267-13.867,10.667H422.4z"/>
<path style="fill:#67C5B8;" d="M199.467,254.946c0,0,5.333,6.4,13.867,7.467c2.133,3.2,10.667,13.867,25.6,13.867
	c8.533-1.067,9.6,4.267,9.6,4.267v-12.8l-20.267-19.2l-28.8,8.533"/>
<path style="fill:#CED6E0;" d="M336,184.546l-80,254.933c-1.067,4.267-5.333,6.4-9.6,5.333s-7.467-5.333-6.4-9.6l57.6-250.667
	L336,184.546L336,184.546z"/>
<g>
</g>
<g>
</g>
<g>
</g>
<g>
</g>
<g>
</g>
<g>
</g>
<g>
</g>
<g>
</g>
<g>
</g>
<g>
</g>
<g>
</g>
<g>
</g>
<g>
</g>
<g>
</g>
<g>
</g>
</svg>
