<?xml version="1.0" encoding="iso-8859-1"?>
<!-- Generator: Adobe Illustrator 19.0.0, SVG Export Plug-In . SVG Version: 6.00 Build 0)  -->
<svg version="1.1" id="Layer_1" xmlns="http://www.w3.org/2000/svg" xmlns:xlink="http://www.w3.org/1999/xlink" x="0px" y="0px"
	 viewBox="0 0 511.999 511.999" style="enable-background:new 0 0 511.999 511.999;" xml:space="preserve">
<g>
	<g>
		<path d="M38.228,189.907c-9.056-0.001-17.155,4.168-22.483,10.687c1.067,0.28,2.119,0.679,3.129,1.237l83.617,46.216v-14.679
			c0-15.067,2.12-29.647,6.073-43.461H38.228z"/>
	</g>
</g>
<g>
	<g>
		<path d="M418.839,273.92l-0.001,24.726l21.435,63.573c1.395,4.136,0.712,8.691-1.835,12.236s-6.643,5.647-11.009,5.647H294.614
			c-4.107,14.899-17.747,25.846-33.951,25.846c-16.204,0-29.844-10.947-33.951-25.846H93.895c-4.364,0-8.462-2.102-11.008-5.647
			s-3.229-8.1-1.835-12.236l21.435-63.573v-19.63L9.194,227.451v255.516c0,16.009,13.024,29.032,29.034,29.032h435.543
			c16.009,0,29.034-13.024,29.034-29.032V227.453L418.839,273.92z"/>
	</g>
</g>
<g>
	<g>
		<path d="M473.771,189.905h-61.003v0.001c3.952,13.814,6.073,28.395,6.073,43.461v9.573l74.278-41.107
			c1.012-0.559,2.066-0.96,3.136-1.241C490.925,194.075,482.826,189.905,473.771,189.905z"/>
	</g>
</g>
<g>
	<g>
		<path d="M392.445,305.2c-0.445-1.321-0.676-2.702-0.701-4.094H133.087c-1.21,0-2.375-0.174-3.49-0.471v0.234
			c0,1.472-0.24,2.935-0.711,4.331l-16.117,47.797h295.792L392.445,305.2z"/>
	</g>
</g>
<g>
	<g>
		<path d="M260.665,102.3c-72.272,0-131.07,58.795-131.07,131.068v41.104c1.116-0.297,2.282-0.471,3.49-0.471h258.648l0.001-40.634
			C391.735,161.096,332.937,102.3,260.665,102.3z"/>
	</g>
</g>
<g>
	<g>
		<path d="M256.363,0c-7.485,0-13.553,6.068-13.553,13.553v32.49c0,7.485,6.068,13.553,13.553,13.553s13.553-6.068,13.553-13.553
			v-32.49C269.916,6.068,263.848,0,256.363,0z"/>
	</g>
</g>
<g>
	<g>
		<path d="M185.418,62.117l-22.973-22.974c-5.293-5.293-13.874-5.293-19.167,0c-5.292,5.293-5.293,13.874,0,19.166l22.974,22.976
			c2.646,2.646,6.115,3.97,9.583,3.97s6.937-1.323,9.583-3.97C190.71,75.991,190.711,67.41,185.418,62.117z"/>
	</g>
</g>
<g>
	<g>
		<path d="M369.447,39.144c-5.293-5.293-13.874-5.292-19.167,0l-22.973,22.974c-5.293,5.293-5.292,13.874,0,19.167
			c2.646,2.645,6.116,3.969,9.584,3.969s6.937-1.323,9.583-3.97l22.973-22.974C374.74,53.018,374.739,44.437,369.447,39.144z"/>
	</g>
</g>
<g>
</g>
<g>
</g>
<g>
</g>
<g>
</g>
<g>
</g>
<g>
</g>
<g>
</g>
<g>
</g>
<g>
</g>
<g>
</g>
<g>
</g>
<g>
</g>
<g>
</g>
<g>
</g>
<g>
</g>
</svg>
