<svg height="512pt" viewBox="0 0 512 512" width="512pt" xmlns="http://www.w3.org/2000/svg"><g fill-rule="evenodd"><path d="m219.238281 71.988281 34.761719 17.667969v-89.65625h-83v89.65625l34.726562-17.648438c4.097657-2.078124 9.09375-2.246093 13.511719-.019531zm0 0"/><path d="m425 181.238281v-166.238281c0-8.285156-6.714844-15-15-15h-126v114.0625c0 10.785156-11.507812 19.085938-22.746094 12.84375l-48.753906-24.773438-49.761719 25.289063c-9.988281 5.058594-21.710937-2.324219-21.703125-13.359375l-.035156-114.0625h-126c-8.285156 0-15 6.714844-15 15v395c0 8.285156 6.714844 15 15 15h166.238281c-18.503906-45.59375-18.308593-96.308594.515625-141.75 39.363282-95.035156 147.925782-140.695312 243.246094-102.011719zm0 0"/><path d="m465.941406 243.558594c-28.457031-28.457032-67.769531-46.058594-111.191406-46.058594s-82.734375 17.601562-111.191406 46.058594c-28.457032 28.457031-46.058594 67.769531-46.058594 111.191406s17.601562 82.734375 46.058594 111.191406c28.457031 28.457032 67.769531 46.058594 111.191406 46.058594s82.734375-17.601562 111.191406-46.058594c28.457032-28.457031 46.058594-67.769531 46.058594-111.191406s-17.601562-82.734375-46.058594-111.191406zm-47.957031 160.429687c-10.5 10.5-25.003906 17.011719-40.988281 17.011719h-69.996094c-8.285156 0-15-6.714844-15-15s6.714844-15 15-15h69.996094c15.40625 0 28.003906-12.597656 28.003906-28.003906 0-8.332032-2.601562-15.148438-8.226562-20.769532-5.074219-5.078124-12.074219-8.226562-19.777344-8.226562h-41.785156l8.910156 8.894531c5.859375 5.824219 5.886718 15.296875.0625 21.152344-5.824219 5.859375-15.296875 5.882813-21.152344.058594l-34.46875-34.402344c-5.859375-5.824219-5.882812-15.292969-.058594-21.152344l34.402344-34.464843c5.824219-5.855469 15.292969-5.882813 21.152344-.058594 5.855468 5.824218 5.882812 15.292968.058594 21.152344l-8.804688 8.820312h41.683594c31.96875 0 58.003906 26.035156 58.003906 58.003906 0 16.648438-5.976562 30.945313-17.015625 41.984375zm0 0"/></g></svg>