<svg xmlns="http://www.w3.org/2000/svg" height="512pt" version="1.1" viewBox="0 -43 512.00002 512" width="512pt">
<g id="surface1">
<path d="M 236.429688 67.691406 L 192.863281 13.90625 C 185.847656 5.292969 175.382812 0 164.308594 0 L 37.292969 0 C 16.863281 0 0 17.109375 0 37.539062 L 0 388.429688 C 0 408.738281 16.863281 425.96875 37.292969 425.96875 L 43.078125 425.96875 L 43.078125 124.183594 C 43.078125 92.921875 69.046875 67.691406 100.183594 67.691406 Z M 236.429688 67.691406 " style=" stroke:none;fill-rule:nonzero;fill:rgb(0%,0%,0%);fill-opacity:1;" />
<path d="M 474.707031 87.382812 L 100.183594 87.382812 C 79.875 87.382812 62.769531 103.875 62.769531 124.183594 L 62.769531 425.847656 L 474.707031 425.847656 C 495.015625 425.847656 512 408.738281 512 388.308594 L 512 124.183594 C 512 103.878906 495.136719 87.382812 474.707031 87.382812 Z M 313.847656 214.152344 L 333.414062 214.152344 C 338.832031 214.152344 343.261719 218.582031 343.261719 224 C 343.261719 229.414062 338.832031 233.847656 333.414062 233.847656 L 313.847656 233.847656 C 309.167969 257.230469 287.753906 275.691406 262.03125 275.691406 L 258.214844 275.691406 L 311.753906 326.523438 C 315.691406 330.214844 315.9375 336.738281 312.125 340.675781 C 310.152344 342.769531 307.570312 343.753906 304.984375 343.753906 C 302.523438 343.753906 300.183594 342.890625 298.214844 341.046875 L 226.707031 273.476562 C 223.753906 270.644531 222.894531 266.335938 224.371094 262.523438 C 225.847656 258.707031 229.539062 256.121094 233.476562 256.121094 L 262.03125 256.121094 C 276.800781 256.121094 289.355469 246.277344 293.539062 233.96875 L 233.351562 233.96875 C 227.9375 233.96875 223.507812 229.539062 223.507812 224.121094 C 223.507812 218.707031 227.9375 214.277344 233.351562 214.277344 L 293.539062 214.277344 C 289.351562 200.738281 276.800781 190.890625 262.03125 190.890625 L 233.476562 190.890625 C 228.0625 190.890625 223.628906 186.460938 223.628906 181.046875 C 223.628906 175.628906 228.0625 171.199219 233.476562 171.199219 L 333.414062 171.199219 C 338.832031 171.199219 343.261719 175.628906 343.261719 181.046875 C 343.261719 186.460938 338.832031 190.890625 333.414062 190.890625 L 303.136719 190.890625 C 308.429688 196.921875 312.125 205.539062 313.847656 214.152344 Z M 313.847656 214.152344 " style=" stroke:none;fill-rule:nonzero;fill:rgb(0%,0%,0%);fill-opacity:1;" />
</g>
</svg>