<?xml version="1.0"?>
<svg xmlns="http://www.w3.org/2000/svg" xmlns:xlink="http://www.w3.org/1999/xlink" version="1.1" id="Layer_1" x="0px" y="0px" viewBox="0 0 512 512" style="enable-background:new 0 0 512 512;" xml:space="preserve" width="512px" height="512px" class=""><g transform="matrix(0.9801 0 0 0.9801 5.0944 5.0944)"><g transform="translate(1 1)">
	<path style="fill:#D3C8C8" d="M33.133,127h443.733c14.507,0,25.6,11.093,25.6,25.6v204.8c0,14.507-11.093,25.6-25.6,25.6H33.133   c-14.507,0-25.6-11.093-25.6-25.6V152.6C7.533,138.093,18.627,127,33.133,127" data-original="#E0E0E0" class="active-path" data-old_color="#C4BBBB"/>
	<path style="fill:#F0F0F0;" d="M58.733,127h264.533c14.507,0,25.6,11.093,25.6,25.6v204.8c0,14.507-11.093,25.6-25.6,25.6H58.733   c-14.507,0-25.6-11.093-25.6-25.6V152.6C33.133,138.093,44.227,127,58.733,127" data-original="#F0F0F0" class=""/>
	<path style="fill:#DF2525" d="M272.067,127h204.8c14.507,0,25.6,11.093,25.6,25.6v204.8c0,14.507-11.093,25.6-25.6,25.6h-204.8   c-14.507,0-25.6-11.093-25.6-25.6V152.6C246.467,138.093,257.56,127,272.067,127" data-original="#CCCCCC" class="" data-old_color="#CCCCCC"/>
	<path style="fill:#B60606" d="M297.667,127h153.6c14.507,0,25.6,11.093,25.6,25.6v204.8c0,14.507-11.093,25.6-25.6,25.6h-153.6   c-14.507,0-25.6-11.093-25.6-25.6V152.6C272.067,138.093,283.16,127,297.667,127" data-original="#E2E3E5" class="" data-old_color="#AF0404"/>
	<path style="fill:#AF0404" d="M476.867,152.6v204.8c0,14.507-11.093,25.6-25.6,25.6h25.6c14.507,0,25.6-11.093,25.6-25.6V152.6   c0-14.507-11.093-25.6-25.6-25.6h-25.6C465.773,127,476.867,138.093,476.867,152.6" data-original="#FFFFFF" class="" data-old_color="#FFFFFF"/>
	<g>
		<path style="fill:#FCC0C0" d="M476.867,391.533H33.133C14.36,391.533-1,376.173-1,357.4V152.6    c0-18.773,15.36-34.133,34.133-34.133h443.733c18.773,0,34.133,15.36,34.133,34.133v204.8    C511,376.173,495.64,391.533,476.867,391.533z M33.133,135.533c-9.387,0-17.067,7.68-17.067,17.067v204.8    c0,9.387,7.68,17.067,17.067,17.067h443.733c9.387,0,17.067-7.68,17.067-17.067V152.6c0-9.387-7.68-17.067-17.067-17.067H33.133z" data-original="#B6B6B6" class="" data-old_color="#FCCFCF"/>
		<path style="fill:#FCC0C0" d="M476.867,391.533h-204.8c-18.773,0-34.133-15.36-34.133-34.133V152.6    c0-18.773,15.36-34.133,34.133-34.133h204.8c18.773,0,34.133,15.36,34.133,34.133v204.8    C511,376.173,495.64,391.533,476.867,391.533z M272.067,135.533c-9.387,0-17.067,7.68-17.067,17.067v204.8    c0,9.387,7.68,17.067,17.067,17.067h204.8c9.387,0,17.067-7.68,17.067-17.067V152.6c0-9.387-7.68-17.067-17.067-17.067H272.067z" data-original="#B6B6B6" class="" data-old_color="#FCCFCF"/>
		<path style="fill:#FCC0C0" d="M400.067,289.133c-5.12,0-8.533-3.413-8.533-8.533v-51.2c0-5.12,3.413-8.533,8.533-8.533    s8.533,3.413,8.533,8.533v51.2C408.6,285.72,405.187,289.133,400.067,289.133z" data-original="#B6B6B6" class="" data-old_color="#FCCFCF"/>
		<path style="fill:#FCC0C0" d="M374.467,289.133c-5.12,0-8.533-3.413-8.533-8.533v-51.2c0-5.12,3.413-8.533,8.533-8.533    c5.12,0,8.533,3.413,8.533,8.533v51.2C383,285.72,379.587,289.133,374.467,289.133z" data-original="#B6B6B6" class="" data-old_color="#FCCFCF"/>
		<path style="fill:#FCC0C0" d="M348.867,289.133c-5.12,0-8.533-3.413-8.533-8.533v-51.2c0-5.12,3.413-8.533,8.533-8.533    c5.12,0,8.533,3.413,8.533,8.533v51.2C357.4,285.72,353.987,289.133,348.867,289.133z" data-original="#B6B6B6" class="" data-old_color="#FCCFCF"/>
	</g>
</g></g> </svg>
