<?xml version="1.0"?>
<svg xmlns="http://www.w3.org/2000/svg" xmlns:xlink="http://www.w3.org/1999/xlink" version="1.1" id="Layer_1" x="0px" y="0px" viewBox="0 0 512 512" style="enable-background:new 0 0 512 512;" xml:space="preserve" width="512px" height="512px" class=""><g transform="matrix(0.9801 0 0 0.9801 5.0944 5.0944)"><g transform="translate(1 1)">
	<path style="fill:#D2E4D2" d="M476.867,383H33.133c-14.507,0-25.6-11.093-25.6-25.6V152.6c0-14.507,11.093-25.6,25.6-25.6h443.733   c14.507,0,25.6,11.093,25.6,25.6v204.8C502.467,371.907,491.373,383,476.867,383" data-original="#E0E0E0" class="" data-old_color="#91F88D"/>
	<path style="fill:#FAFDFA" d="M451.267,383H186.733c-14.507,0-25.6-11.093-25.6-25.6V152.6c0-14.507,11.093-25.6,25.6-25.6   h264.533c14.507,0,25.6,11.093,25.6,25.6v204.8C476.867,371.907,465.773,383,451.267,383" data-original="#F0F0F0" class="" data-old_color="#D2F6D2"/>
	<path style="fill:#10B209" d="M237.933,383h-204.8c-14.507,0-25.6-11.093-25.6-25.6V152.6c0-14.507,11.093-25.6,25.6-25.6h204.8   c14.507,0,25.6,11.093,25.6,25.6v204.8C263.533,371.907,252.44,383,237.933,383" data-original="#CCCCCC" class="" data-old_color="#7FE87B"/>
	<path style="fill:#0AFF00" d="M212.333,383h-153.6c-14.507,0-25.6-11.093-25.6-25.6V152.6c0-14.507,11.093-25.6,25.6-25.6h153.6   c14.507,0,25.6,11.093,25.6,25.6v204.8C237.933,371.907,226.84,383,212.333,383" data-original="#E2E3E5" class="" data-old_color="#E2E3E5"/>
	<path style="fill:#10A30A" d="M33.133,357.4V152.6c0-14.507,11.093-25.6,25.6-25.6h-25.6c-14.507,0-25.6,11.093-25.6,25.6v204.8   c0,14.507,11.093,25.6,25.6,25.6h25.6C44.227,383,33.133,371.907,33.133,357.4" data-original="#FFFFFF" class="" data-old_color="#0AFF00"/>
	<g>
		<path style="fill:#BAFBBA" d="M476.867,391.533H33.133C14.36,391.533-1,376.173-1,357.4V152.6    c0-18.773,15.36-34.133,34.133-34.133h443.733c18.773,0,34.133,15.36,34.133,34.133v204.8    C511,376.173,495.64,391.533,476.867,391.533z M33.133,135.533c-9.387,0-17.067,7.68-17.067,17.067v204.8    c0,9.387,7.68,17.067,17.067,17.067h443.733c9.387,0,17.067-7.68,17.067-17.067V152.6c0-9.387-7.68-17.067-17.067-17.067H33.133z" data-original="#B6B6B6" class="active-path" data-old_color="#ADFDAD"/>
		<path style="fill:#BAFBBA" d="M237.933,391.533h-204.8C14.36,391.533-1,376.173-1,357.4V152.6    c0-18.773,15.36-34.133,34.133-34.133h204.8c18.773,0,34.133,15.36,34.133,34.133v204.8    C272.067,376.173,256.707,391.533,237.933,391.533z M33.133,135.533c-9.387,0-17.067,7.68-17.067,17.067v204.8    c0,9.387,7.68,17.067,17.067,17.067h204.8c9.387,0,17.067-7.68,17.067-17.067V152.6c0-9.387-7.68-17.067-17.067-17.067H33.133z" data-original="#B6B6B6" class="active-path" data-old_color="#ADFDAD"/>
		<path style="fill:#BAFBBA" d="M109.933,289.133c-5.12,0-8.533-3.413-8.533-8.533v-51.2c0-5.12,3.413-8.533,8.533-8.533    s8.533,3.413,8.533,8.533v51.2C118.467,285.72,115.053,289.133,109.933,289.133z" data-original="#B6B6B6" class="active-path" data-old_color="#ADFDAD"/>
		<path style="fill:#BAFBBA" d="M135.533,289.133c-5.12,0-8.533-3.413-8.533-8.533v-51.2c0-5.12,3.413-8.533,8.533-8.533    s8.533,3.413,8.533,8.533v51.2C144.067,285.72,140.653,289.133,135.533,289.133z" data-original="#B6B6B6" class="active-path" data-old_color="#ADFDAD"/>
		<path style="fill:#BAFBBA" d="M161.133,289.133c-5.12,0-8.533-3.413-8.533-8.533v-51.2c0-5.12,3.413-8.533,8.533-8.533    c5.12,0,8.533,3.413,8.533,8.533v51.2C169.667,285.72,166.253,289.133,161.133,289.133z" data-original="#B6B6B6" class="active-path" data-old_color="#ADFDAD"/>
	</g>
</g></g> </svg>
