<?xml version="1.0"?>
<svg xmlns="http://www.w3.org/2000/svg" xmlns:xlink="http://www.w3.org/1999/xlink" version="1.1" id="Layer_1" x="0px" y="0px" viewBox="0 0 511.999 511.999" style="enable-background:new 0 0 511.999 511.999;" xml:space="preserve" width="512px" height="512px" class=""><g><polygon style="fill:#10100F" points="380.304,10.199 320.158,10.199 380.304,70.346 " data-original="#FFD890" class="" data-old_color="#1C1B1A"/><polygon style="fill:#E0E0DB" points="131.697,162.919 380.304,162.919 380.304,70.346 320.158,10.199 191.843,10.199   131.697,70.346 " data-original="#BDD169" class="active-path" data-old_color="#AAAAA5"/><polygon style="fill:#10100F" points="131.697,70.346 191.843,10.199 131.697,10.199 " data-original="#FFD890" class="" data-old_color="#1C1B1A"/><polygon style="fill:#C91B1B" points="103.628,403.159 256.001,501.801 408.373,403.159 408.373,163.722 103.628,163.722 " data-original="#947C7C" class="" data-old_color="#BF2222"/><g>
	<path style="fill:#131010" d="M131.697,0c-5.632,0-10.199,4.566-10.199,10.199v143.322h-17.87   c-5.632,0-10.199,4.566-10.199,10.199v239.439c0,3.459,1.753,6.683,4.656,8.562l152.372,98.641   c1.686,1.091,3.615,1.637,5.543,1.637c1.929,0,3.856-0.546,5.543-1.637l152.372-98.641c2.904-1.88,4.656-5.103,4.656-8.562V163.721   c0-5.633-4.567-10.199-10.199-10.199h-17.87V10.199C390.501,4.566,385.934,0,380.302,0H131.697z M370.105,74.571v78.149H141.896   V74.571l54.173-54.173h119.862L370.105,74.571z M370.105,45.723L344.78,20.398h25.325L370.105,45.723L370.105,45.723z    M167.221,20.398l-25.325,25.325V20.398H167.221z M398.173,397.613l-142.173,92.038l-142.173-92.039V173.92h284.347v223.693   H398.173z" data-original="#4C1D1D" class="" data-old_color="#4C1D1D"/>
	<path style="fill:#131010" d="M235.15,73.434c5.632,0,10.199-4.566,10.199-10.199v-5.72c0-5.633-4.567-10.199-10.199-10.199   s-10.199,4.566-10.199,10.199v5.72C224.951,68.868,229.517,73.434,235.15,73.434z" data-original="#4C1D1D" class="" data-old_color="#4C1D1D"/>
	<path style="fill:#131010" d="M235.15,141.495c5.632,0,10.199-4.566,10.199-10.199V97.612c0-5.633-4.567-10.199-10.199-10.199   s-10.199,4.566-10.199,10.199v33.683C224.951,136.928,229.517,141.495,235.15,141.495z" data-original="#4C1D1D" class="" data-old_color="#4C1D1D"/>
	<path style="fill:#131010" d="M276.851,141.495c5.632,0,10.199-4.566,10.199-10.199v-73.78c0-5.633-4.567-10.199-10.199-10.199   c-5.632,0-10.199,4.566-10.199,10.199v73.78C266.652,136.928,271.219,141.495,276.851,141.495z" data-original="#4C1D1D" class="" data-old_color="#4C1D1D"/>
	<path style="fill:#131010" d="M129.428,394.999l2.568,1.662c1.713,1.11,3.634,1.64,5.534,1.639c3.343,0,6.618-1.641,8.57-4.656   c2.624-4.052,2.007-9.269-1.199-12.606c-1.057-4.505-5.102-7.859-9.929-7.859c-5.632,0-10.199,4.566-10.199,10.199v3.06   C124.773,389.896,126.526,393.119,129.428,394.999z" data-original="#4C1D1D" class="" data-old_color="#4C1D1D"/>
	<path style="fill:#131010" d="M167.657,419.747l4.457,2.885c1.713,1.109,3.634,1.638,5.533,1.638c3.343,0,6.619-1.642,8.571-4.657   c3.061-4.728,1.709-11.044-3.019-14.104l-4.457-2.885c-4.729-3.062-11.044-1.708-14.104,3.019   C161.577,410.371,162.929,416.685,167.657,419.747z" data-original="#4C1D1D" class="" data-old_color="#4C1D1D"/>
	<path style="fill:#131010" d="M204.755,431.613c-3.061,4.728-1.709,11.044,3.019,14.104l4.457,2.885   c1.713,1.109,3.634,1.638,5.533,1.638c3.343,0,6.619-1.642,8.571-4.657c3.061-4.728,1.709-11.044-3.019-14.104l-4.457-2.885   C214.129,425.532,207.815,426.885,204.755,431.613z" data-original="#4C1D1D" class="" data-old_color="#4C1D1D"/>
	<path style="fill:#131010" d="M256.001,453.252c-4.141-1.076-8.679,0.544-11.13,4.332c-3.061,4.728-1.709,11.044,3.019,14.104   l2.569,1.662c1.686,1.091,3.615,1.637,5.543,1.637c1.929,0,3.856-0.546,5.543-1.637l2.569-1.662   c4.728-3.061,6.08-9.375,3.019-14.104C264.68,453.796,260.144,452.174,256.001,453.252z" data-original="#4C1D1D" class="" data-old_color="#4C1D1D"/>
	<path style="fill:#131010" d="M325.782,419.614c1.952,3.016,5.228,4.657,8.571,4.657c1.898,0,3.82-0.529,5.533-1.638l4.457-2.885   c4.728-3.061,6.08-9.376,3.019-14.104c-3.061-4.727-9.374-6.082-14.104-3.019l-4.457,2.885   C324.073,408.57,322.722,414.885,325.782,419.614z" data-original="#4C1D1D" class="" data-old_color="#4C1D1D"/>
	<path style="fill:#131010" d="M294.237,450.241c1.898,0,3.82-0.529,5.533-1.638l4.457-2.885c4.728-3.061,6.08-9.376,3.019-14.104   c-3.061-4.728-9.374-6.082-14.104-3.019l-4.457,2.885c-4.728,3.061-6.08,9.376-3.019,14.104   C287.618,448.599,290.894,450.241,294.237,450.241z" data-original="#4C1D1D" class="" data-old_color="#4C1D1D"/>
	<path style="fill:#131010" d="M377.028,373.179c-4.827,0-8.872,3.355-9.929,7.859c-3.207,3.336-3.824,8.554-1.199,12.606   c1.952,3.015,5.227,4.656,8.57,4.656c1.899,0,3.821-0.53,5.534-1.639l2.568-1.662c2.904-1.88,4.655-5.103,4.655-8.561v-3.06   C387.228,377.745,382.661,373.179,377.028,373.179z" data-original="#4C1D1D" class="" data-old_color="#4C1D1D"/>
	<path style="fill:#131010" d="M377.028,309.464c-5.632,0-10.199,4.566-10.199,10.199v7.079c0,5.633,4.567,10.199,10.199,10.199   c5.632,0,10.199-4.566,10.199-10.199v-7.079C387.228,314.03,382.661,309.464,377.028,309.464z" data-original="#4C1D1D" class="" data-old_color="#4C1D1D"/>
	<path style="fill:#131010" d="M377.028,245.75c-5.632,0-10.199,4.566-10.199,10.199v7.079c0,5.633,4.567,10.199,10.199,10.199   c5.632,0,10.199-4.566,10.199-10.199v-7.079C387.228,250.316,382.661,245.75,377.028,245.75z" data-original="#4C1D1D" class="" data-old_color="#4C1D1D"/>
	<path style="fill:#131010" d="M368.45,204.833c1.815,2.816,4.979,4.68,8.579,4.68c5.632,0,10.199-4.566,10.199-10.199v-3.06   c0-5.633-4.567-10.199-10.199-10.199h-3.06c-5.632,0-10.199,4.566-10.199,10.199C363.769,199.853,365.634,203.017,368.45,204.833z" data-original="#4C1D1D" class="" data-old_color="#4C1D1D"/>
	<path style="fill:#131010" d="M313.3,206.453h6.741c5.632,0,10.199-4.566,10.199-10.199c0-5.633-4.567-10.199-10.199-10.199H313.3   c-5.632,0-10.199,4.566-10.199,10.199C303.1,201.887,307.667,206.453,313.3,206.453z" data-original="#4C1D1D" class="" data-old_color="#4C1D1D"/>
	<path style="fill:#131010" d="M191.961,206.453h6.741c5.632,0,10.199-4.566,10.199-10.199c0-5.633-4.567-10.199-10.199-10.199   h-6.741c-5.632,0-10.199,4.566-10.199,10.199C181.762,201.887,186.328,206.453,191.961,206.453z" data-original="#4C1D1D" class="" data-old_color="#4C1D1D"/>
	<path style="fill:#131010" d="M252.63,206.453h6.741c5.632,0,10.199-4.566,10.199-10.199c0-5.633-4.567-10.199-10.199-10.199   h-6.741c-5.632,0-10.199,4.566-10.199,10.199C242.43,201.887,246.998,206.453,252.63,206.453z" data-original="#4C1D1D" class="" data-old_color="#4C1D1D"/>
	<path style="fill:#131010" d="M134.973,209.513c3.599,0,6.763-1.864,8.579-4.68c2.816-1.815,4.68-4.979,4.68-8.579   c0-5.633-4.567-10.199-10.199-10.199h-3.06c-5.632,0-10.199,4.566-10.199,10.199v3.06   C124.773,204.947,129.34,209.513,134.973,209.513z" data-original="#4C1D1D" class="" data-old_color="#4C1D1D"/>
	<path style="fill:#131010" d="M134.973,336.942c5.632,0,10.199-4.566,10.199-10.199v-7.079c0-5.633-4.567-10.199-10.199-10.199   s-10.199,4.566-10.199,10.199v7.079C124.773,332.376,129.34,336.942,134.973,336.942z" data-original="#4C1D1D" class="" data-old_color="#4C1D1D"/>
	<path style="fill:#131010" d="M134.973,273.227c5.632,0,10.199-4.566,10.199-10.199v-7.079c0-5.633-4.567-10.199-10.199-10.199   s-10.199,4.566-10.199,10.199v7.079C124.773,268.661,129.34,273.227,134.973,273.227z" data-original="#4C1D1D" class="" data-old_color="#4C1D1D"/>
</g></g> </svg>
