<svg xmlns="http://www.w3.org/2000/svg" version="1.1" xmlns:xlink="http://www.w3.org/1999/xlink" width="512" height="512" x="0" y="0" viewBox="0 0 512 512" style="enable-background:new 0 0 512 512" xml:space="preserve"><rect width="512" height="512" rx="102.4" ry="102.4" fill="#bac8d3" shape="rounded"></rect><g transform="matrix(0.66,0,0,0.66,87.04000194549562,87.04016925811766)"><linearGradient id="a" x1="256" x2="256" y1="495.012" y2="16.988" gradientUnits="userSpaceOnUse"><stop offset="0" stop-color="#9345ff"></stop><stop offset="0" stop-color="#8e4aff"></stop><stop offset="1" stop-color="#00c1ff"></stop></linearGradient><path fill="url(#a)" d="M426.29 215.989c-41.502 0-75.147 33.645-75.147 75.148s33.645 75.148 75.147 75.148 75.148-33.645 75.148-75.148-33.644-75.148-75.148-75.148zm39.38 57.086-48.514 48.513c-2.141 2.142-4.893 3.076-7.895 2.68-3.002-.395-5.418-2.009-6.933-4.632l-16.825-29.142c-2.444-4.233-.98-9.696 3.253-12.14 4.227-2.441 9.7-.974 12.14 3.253l11.385 19.72 40.821-40.82c3.456-3.456 9.112-3.456 12.568 0s3.456 9.112 0 12.568zM256.437 16.988c-67.252 0-121.77 54.518-121.77 121.77 0 47.526 27.23 88.687 66.937 108.748v-7.813c0-11.814 7.937-21.79 18.756-24.911a6.957 6.957 0 0 1 1.706-1.516c19.622-12.349 44.243-38.097 52.683-55.112 5.071-10.209 9.495-30.607 4.237-40.777-1.74-3.36-4.401-5.21-8.367-5.832-5.591-.877-11.549 2.025-15.559 7.543-4.362 6.02-8.001 15.651-12.214 26.8-7.278 19.28-16.33 43.269-34.671 61.648a6.997 6.997 0 0 1-9.9.024c-2.728-2.733-2.738-7.172-.01-9.905 16.209-16.258 24.322-37.745 31.484-56.717 4.569-12.089 8.507-22.538 13.978-30.072 7.119-9.799 18.249-14.836 29.05-13.149 8.401 1.311 14.85 5.89 18.649 13.231 8.319 16.089 1.88 41.322-4.141 53.44-7.966 16.045-27.728 38.085-46.713 52.9 7.709 4.499 12.902 12.854 12.902 22.407v20.798c.984.023 1.971.037 2.962.037 67.252 0 121.77-54.518 121.77-121.77S323.688 16.99 256.436 16.99zm-15.67 152.43c8.797-11.712 14.851-24.322 17.959-37.481.892-3.769 4.671-6.102 8.43-5.201 3.76.887 6.088 4.661 5.201 8.421-3.572 15.058-10.431 29.417-20.413 42.667a6.962 6.962 0 0 1-5.591 2.791 6.975 6.975 0 0 1-4.208-1.398c-3.089-2.333-3.711-6.719-1.378-9.799zm40.609-112.003a7.013 7.013 0 0 1 8.652-4.82c26.578 7.539 47.217 31.46 53.869 62.41a7.015 7.015 0 0 1-5.369 8.324c-3.799.73-7.489-1.527-8.319-5.384-5.562-25.879-22.423-45.761-44.002-51.878a7.02 7.02 0 0 1-4.83-8.652zm-27.267-5.548c3.48-.41 7.028-.578 10.508-.53 3.861.058 6.941 3.248 6.878 7.119a7.005 7.005 0 0 1-6.999 6.878h-.12a64.221 64.221 0 0 0-8.647.434 7.006 7.006 0 0 1-7.765-6.141c-.448-3.842 2.304-7.322 6.146-7.76zm-82.861 115.662a6.986 6.986 0 0 1-2.261-9.635c5.529-8.936 7.587-19.748 6.102-32.135-.463-3.842 2.28-7.322 6.117-7.785a6.996 6.996 0 0 1 7.78 6.122c1.87 15.622-.848 29.47-8.098 41.173-2.041 3.283-6.381 4.301-9.64 2.261zm17.709 21.946a7 7 0 0 1-9.799-1.407 7.007 7.007 0 0 1 1.407-9.799c19.439-14.542 18.359-31.451 17.121-51.03-1.451-22.861-3.099-48.76 31.759-68.011 3.394-1.86 7.649-.641 9.51 2.748 1.87 3.383.641 7.64-2.738 9.515-27.098 14.956-25.98 32.569-24.558 54.857 1.306 20.649 2.796 44.05-22.702 63.128zm105.679-89.436c-8.989-10.724-22.5-15.651-35.239-12.874-14.21 3.104-24.843 15.009-29.937 33.533-1.022 3.731-4.873 5.929-8.604 4.897a7.005 7.005 0 0 1-4.897-8.609c6.449-23.44 21.189-39.288 40.459-43.501 17.839-3.89 36.599 2.83 48.938 17.55 15.482 18.451 17.762 45.111 6.252 73.144a7.015 7.015 0 0 1-6.483 4.348 7.006 7.006 0 0 1-6.469-9.669c9.462-23.05 8.001-44.489-4.02-58.819zm-23.56 117.435c-3.143 2.191-7.561 1.37-9.727-1.808-2.193-3.181-1.383-7.538 1.808-9.732 5.22-3.591 18.08-13.11 24.558-24.047 1.962-3.331 6.252-4.43 9.582-2.463a6.996 6.996 0 0 1 2.458 9.592c-7.611 12.86-21.237 23.357-28.679 28.457zm64.381-44.648c-4.328 11.13-13.482 23.252-27.951 37.042-2.791 2.642-7.243 2.546-9.9-.241-2.671-2.791-2.559-7.23.241-9.891 12.961-12.349 20.991-22.808 24.572-31.99 1.398-3.601 5.456-5.379 9.057-3.981 3.601 1.403 5.394 5.461 3.981 9.061zm7.64-20.779a6.974 6.974 0 0 1-8.271 5.428c-3.779-.776-6.218-4.478-5.437-8.266a86.45 86.45 0 0 0 1.567-11.332c.279-3.846 3.634-6.758 7.49-6.478 3.851.279 6.762 3.63 6.478 7.49a99.599 99.599 0 0 1-1.827 13.159zM140.34 237.381c13.757 13.757 22.266 32.763 22.266 53.756 0 16.288-5.123 31.379-13.844 43.751a66.783 66.783 0 0 0-18.925-26.637 66.818 66.818 0 0 0-19.269-11.496c.364-.335.721-.677 1.071-1.026 6.413-6.412 10.379-15.271 10.379-25.055s-3.967-18.643-10.379-25.055-15.271-10.379-25.055-10.379-18.642 3.967-25.055 10.379S51.15 260.89 51.15 270.674s3.966 18.643 10.379 25.055c.35.35.707.692 1.071 1.027a66.815 66.815 0 0 0-19.269 11.495 66.764 66.764 0 0 0-18.925 26.637c-8.721-12.372-13.844-27.463-13.844-43.751 0-20.993 8.509-39.999 22.266-53.756s32.763-22.266 53.756-22.266 40 8.509 53.756 22.266zm-2.37 109.782c-13.53 12.417-31.573 19.997-51.386 19.997s-37.856-7.581-51.386-19.997c2.574-11.214 8.734-21.072 17.212-28.302 9.182-7.832 21.115-12.56 34.174-12.56s24.992 4.728 34.175 12.56c8.478 7.23 14.637 17.088 17.211 28.303zm-51.386-55.054c-5.92 0-11.279-2.399-15.157-6.277s-6.277-9.237-6.277-15.157 2.399-11.279 6.277-15.157 9.237-6.277 15.157-6.277 11.279 2.399 15.157 6.277 6.277 9.237 6.277 15.157-2.399 11.279-6.277 15.157-9.237 6.277-15.157 6.277zm332.705-146.35h-31.052v-14h38.051a7 7 0 0 1 7 7v66.731h-14v-59.731zM93.584 205.49h-14v-66.731a7 7 0 0 1 7-7h38.051v14H93.583v59.731zm240.58 112.625v87.816c0 9.586-2.854 21.098-6.119 30.062-1.67 4.584-3.595 8.893-5.951 13.166H218.201c-2.546-8.768-6.893-15.679-13.661-21.819l-15.432-14c-6.893-6.253-10.399-14.178-10.399-23.484v-62.969c0-6.87 5.589-12.469 12.461-12.469s12.466 5.596 12.466 12.469v26.146c0 2.994 1.644 5.345 3.893 6.576 1.738.951 3.696.917 5.4-.093s2.674-2.711 2.674-4.693V239.692c0-6.581 5.364-11.931 11.943-11.931s11.93 5.358 11.93 11.931v70.206c0 2.825 2.312 5.138 5.138 5.138s5.138-2.312 5.138-5.138v-2.12c0-6.188 5.063-11.25 11.25-11.25 5.875 0 11.25 4.942 11.25 10.913v4.515c0 2.461 2.014 4.476 4.476 4.476s4.476-2.013 4.476-4.476v-2.951c0-6.188 5.063-11.25 11.25-11.25s11.251 5.063 11.251 11.25v9.611c0 2.188 1.79 3.978 3.979 3.978s3.979-1.79 3.979-3.978c0-6.188 5.062-11.25 11.25-11.25 5.718 0 11.25 4.867 11.25 10.748zm-3.989 151.372v21.161a4.374 4.374 0 0 1-4.365 4.365H218.166a4.374 4.374 0 0 1-4.365-4.365v-21.161a4.374 4.374 0 0 1 4.365-4.365H325.81a4.374 4.374 0 0 1 4.365 4.365z" opacity="1" data-original="url(#a)"></path></g></svg>