<svg xmlns="http://www.w3.org/2000/svg" version="1.1" xmlns:xlink="http://www.w3.org/1999/xlink" width="512" height="512" x="0" y="0" viewBox="0 0 64 64" style="enable-background:new 0 0 512 512" xml:space="preserve"><rect width="64" height="64" rx="12.8" ry="12.8" fill="#bac8d3" shape="rounded"></rect><g transform="matrix(0.65,0,0,0.65,11.200001335144044,11.200875186920168)"><linearGradient id="a" x1="6.69" x2="57.31" y1="32" y2="32" gradientUnits="userSpaceOnUse"><stop offset="0" stop-color="#00c0ff"></stop><stop offset="1" stop-color="#5558ff"></stop></linearGradient><path fill="url(#a)" d="m18.73 56.06-.87 2.52A2.084 2.084 0 0 1 15.97 60h-2.14a1.72 1.72 0 0 1-1.7-1.74v-2.21c.16.01.31.01.47.01zm25.54 0 .87 2.52a2.097 2.097 0 0 0 1.9 1.42h2.14a1.718 1.718 0 0 0 1.69-1.74v-2.2zm13.04-17.73v9.82a5.915 5.915 0 0 1-5.91 5.91H12.6a5.915 5.915 0 0 1-5.91-5.91v-9.82a5.922 5.922 0 0 1 5.91-5.91h38.8a5.922 5.922 0 0 1 5.91 5.91zm-4.65 2.51a1 1 0 0 0-2 0v4.81a1 1 0 1 0 2 0zm-38.84 8.57h20.4a2.006 2.006 0 0 0 2-2v-8.33a2.006 2.006 0 0 0-2-2h-20.4a2.006 2.006 0 0 0-2 2v8.33a2.006 2.006 0 0 0 2 2zm32.57-9.57a1.003 1.003 0 0 0-1 1v4.81a1 1 0 0 0 2 0v-4.81a.997.997 0 0 0-1-1zm-5.26 0a1.003 1.003 0 0 0-1 1v4.81a1 1 0 0 0 2 0v-4.81a1.003 1.003 0 0 0-1-1zM52.4 9.68V7.16a3.155 3.155 0 1 0-6.31 0v2.52zm-1 20.74a8.266 8.266 0 0 1 1 .06v-18.8h-6.31v18.74zm-27.606-3.34h.005a1 1 0 0 0 .995-1.005 14.629 14.629 0 0 1 14.643-14.658 1 1 0 0 0 0-2 16.63 16.63 0 0 0-16.643 16.666 1 1 0 0 0 1 .996zm7.86-8.784a12.122 12.122 0 0 0-3.574 8.629 1 1 0 0 0 2 0 10.2 10.2 0 0 1 10.205-10.202.999.999 0 0 0 .686-.275l.01-.01a.998.998 0 0 0-.764-1.715 12.168 12.168 0 0 0-8.564 3.573zm9.47 1.713a7.758 7.758 0 0 0-5.481 2.276 7.653 7.653 0 0 0-2.257 5.491 1 1 0 0 0 1 .995h.006a1 1 0 0 0 .994-1.006 5.664 5.664 0 0 1 1.67-4.066 5.767 5.767 0 0 1 4.078-1.69 1 1 0 0 0-.005-2zm-1.684 6.066a1.625 1.625 0 1 0 2.298 0 1.625 1.625 0 0 0-2.298 0zM34.22 39.08h-20.4v8.33h20.4z" opacity="1" data-original="url(#a)"></path></g></svg>