<svg xmlns="http://www.w3.org/2000/svg" version="1.1" xmlns:xlink="http://www.w3.org/1999/xlink" width="512" height="512" x="0" y="0" viewBox="0 0 64 64" style="enable-background:new 0 0 512 512" xml:space="preserve"><rect width="64" height="64" rx="12.8" ry="12.8" fill="#bac8d3" shape="rounded"></rect><g transform="matrix(0.6,0,0,0.6,12.8,12.804934310913087)"><linearGradient id="a" x1="4" x2="60" y1="32.001" y2="32.001" gradientUnits="userSpaceOnUse"><stop offset="0" stop-color="#7f00ff"></stop><stop offset="1" stop-color="#e100ff"></stop></linearGradient><path fill="url(#a)" d="M59 16.5H5a1.003 1.003 0 0 0-1 1v36a1.003 1.003 0 0 0 1 1h54a1.003 1.003 0 0 0 1-1v-36a1.003 1.003 0 0 0-1-1zm-7.5 4c5.276.133 5.275 7.868 0 8-5.276-.133-5.275-7.868 0-8zm-8.5 26a3.999 3.999 0 0 1-4 4H12a3.999 3.999 0 0 1-4-4v-22a3.999 3.999 0 0 1 4-4h27a3.999 3.999 0 0 1 4 4zm4.5 4a1 1 0 0 1 0-2 1 1 0 0 1 0 2zm0-4a1 1 0 0 1 0-2 1 1 0 0 1 0 2zm4 4a1 1 0 0 1 0-2 1 1 0 0 1 0 2zm0-4a1 1 0 0 1 0-2 1 1 0 0 1 0 2zm0-6c-5.276-.133-5.275-7.868 0-8 5.276.133 5.275 7.868 0 8zm4 10a1 1 0 0 1 0-2 1 1 0 0 1 0 2zm0-4a1 1 0 0 1 0-2 1 1 0 0 1 0 2zM39 22.5H12a2.006 2.006 0 0 0-2 2v22a2.006 2.006 0 0 0 2 2h27a2.006 2.006 0 0 0 2-2v-22a2.006 2.006 0 0 0-2-2zm-30 36a1.003 1.003 0 0 0 1 1h44a1.003 1.003 0 0 0 1-1v-2H9zm42.5-32a2 2 0 0 0 0-4 2 2 0 0 0 0 4zm0 8a2 2 0 0 0 0 4 2 2 0 0 0 0-4zm-22.69-20h2.39l-6.37-9.55a.996.996 0 0 0-1.66 1.1zm12.02-8.45a.996.996 0 0 0-1.66-1.1L32.8 14.5h2.39z" opacity="1" data-original="url(#a)"></path></g></svg>