<svg xmlns="http://www.w3.org/2000/svg" version="1.1" xmlns:xlink="http://www.w3.org/1999/xlink" width="512" height="512" x="0" y="0" viewBox="0 0 75 75" style="enable-background:new 0 0 512 512" xml:space="preserve"><rect width="75" height="75" rx="15" ry="15" fill="#bac8d3" shape="rounded"></rect><g transform="matrix(0.84,0,0,0.84,6,6.3072000122070335)"><linearGradient id="a" x1="12" x2="63" y1="39.42" y2="39.42" gradientUnits="userSpaceOnUse"><stop offset="0" stop-color="#f8b133"></stop><stop offset="1" stop-color="#7d4e24"></stop></linearGradient><path fill="url(#a)" d="M12 32.8v21.09c0 .77.62 1.39 1.39 1.39h48.22c.77 0 1.39-.62 1.39-1.39V32.8zm14.27 17.14H16.8c-.55 0-1-.45-1-1s.45-1 1-1h9.47c.55 0 1 .45 1 1s-.45 1-1 1zm13.5 0H30.3c-.55 0-1-.45-1-1s.45-1 1-1h9.47c.55 0 1 .45 1 1s-.45 1-1 1zm14.43-5H16.8c-.55 0-1-.45-1-1s.45-1 1-1h37.4c.55 0 1 .45 1 1s-.45 1-1 1zm0-5H16.8c-.55 0-1-.45-1-1s.45-1 1-1h37.4c.55 0 1 .45 1 1s-.45 1-1 1zM63 29.11v1.69H12v-1.69zm0-4.16v2.16H12v-2.16c0-.77.62-1.39 1.39-1.39h48.22c.77 0 1.39.62 1.39 1.39z" opacity="1" data-original="url(#a)"></path></g></svg>