<svg xmlns="http://www.w3.org/2000/svg" version="1.1" xmlns:xlink="http://www.w3.org/1999/xlink" width="512" height="512" x="0" y="0" viewBox="0 0 512 512" style="enable-background:new 0 0 512 512" xml:space="preserve"><rect width="512" height="512" rx="102.4" ry="102.4" fill="#bac8d3" shape="rounded"></rect><g transform="matrix(0.5499999999999999,0,0,0.5499999999999999,115.19999227523803,110.25198249816896)"><linearGradient id="a" x1="6.08" x2="505.92" y1="256" y2="256" gradientUnits="userSpaceOnUse"><stop offset="0" stop-color="#a143b3"></stop><stop offset="1" stop-color="#de5092"></stop></linearGradient><path fill="url(#a)" d="M232.76 473.24H11.29a5.11 5.11 0 0 1-5.21-5V170.12a5.11 5.11 0 0 1 5.21-5h29.65v273a21 21 0 0 0 21.54 21c38.39-1 78.83-3 117 .61 14.04 1.27 38.17 4.36 53.28 13.51zM64.15 129c67.69 33.3 182.91-1.42 191.85 36.09v308.15C231.35 437 145.29 441 62.07 443.11a5 5 0 0 1-5.13-5V133.53a5 5 0 0 1 7.21-4.53zm22.35 61c24.44 13.71 53.17 13.38 78.89 13.08 22.56-.26 42.48-.48 51.18 9.28a8 8 0 0 0 11.94-10.63c-13.51-15.16-36.84-14.89-63.24-14.58-23.7.27-50.18.57-71-11.08A8 8 0 0 0 86.5 190zm0 41.65c24.44 13.7 53.17 13.37 78.89 13.08 22.56-.26 42.48-.49 51.18 9.27a8 8 0 0 0 11.94-10.63c-13.51-15.15-36.84-14.89-63.24-14.58-23.7.27-50.18.58-71-11.08a8 8 0 0 0-7.81 13.94zm0 41.64c24.44 13.7 53.17 13.37 78.89 13.08 22.56-.26 42.48-.49 51.18 9.27a8 8 0 1 0 11.94-10.62c-13.51-15.16-36.84-14.89-63.24-14.59-23.7.27-50.18.58-71-11.08a8 8 0 0 0-7.81 13.94zm0 41.64c24.44 13.71 53.17 13.38 78.89 13.08 22.56-.26 42.48-.49 51.18 9.27a8 8 0 1 0 11.94-10.62c-13.51-15.16-36.84-14.89-63.24-14.59-23.7.27-50.18.58-71-11.08A8 8 0 0 0 86.5 315zm0 41.64c24.44 13.71 53.17 13.38 78.89 13.08 22.56-.26 42.48-.49 51.18 9.27a8 8 0 1 0 11.94-10.62c-13.51-15.16-36.84-14.89-63.24-14.59-23.7.28-50.18.58-71-11.08a8 8 0 0 0-7.81 13.94zm0 41.64c24.44 13.71 53.17 13.38 78.89 13.08 22.56-.26 42.48-.49 51.18 9.28A8 8 0 0 0 228.51 410c-13.51-15.16-36.84-14.89-63.24-14.58-23.7.27-50.18.57-71-11.08a8 8 0 0 0-7.81 13.93zm414.21-233.08h-29.65v273a21 21 0 0 1-21.54 21c-38.39-1-78.83-3-117 .61-14 1.31-38.14 4.37-53.26 13.52h221.45a5.11 5.11 0 0 0 5.21-5V170.12a5.11 5.11 0 0 0-5.21-4.99zm-13.06-77.52a28.64 28.64 0 0 0-40.5-40.5l-16.34 16.33 40.5 40.5zM419.5 74.76 303.67 190.59l40.5 40.5L460 115.26zM285.89 255l47-12.59-40.5-40.5-12.58 47a5 5 0 0 0 6.08 6.09zM264 154.2v91.88c3.26-16.39 9.58-36 14-52.46l48.09-48.09c-27.16.16-50.24.89-62.09 8.67zm0 100.05a21 21 0 0 0 26 16.19l51.11-13.69 11.91-11.92c24 .19 50-.57 72.45-13.14a8 8 0 0 0-7.81-13.94c-14.39 8.07-31.51 10.41-48.54 11L397.86 200a94.82 94.82 0 0 0 27.64-10 8 8 0 0 0-2.78-14.87l32.34-32.34v295.33a5 5 0 0 1-5.13 5C374.11 441.18 296 437.7 264 464.5zm20.15 42.09a8 8 0 0 0 11.28-.66c8.7-9.76 28.62-9.53 51.18-9.27 25.71.29 54.45.62 78.89-13.08a8 8 0 0 0-7.81-13.94c-20.78 11.66-47.26 11.35-71 11.08-26.4-.3-49.74-.57-63.24 14.59a8 8 0 0 0 .7 11.28zm0 41.64a8 8 0 0 0 11.28-.66c8.7-9.76 28.62-9.53 51.18-9.27 25.71.3 54.45.63 78.89-13.08a8 8 0 0 0-7.81-13.97c-20.78 11.66-47.26 11.35-71 11.08-26.4-.3-49.74-.57-63.24 14.59a8 8 0 0 0 .7 11.33zm0 41.64a8 8 0 0 0 11.28-.66c8.7-9.76 28.62-9.53 51.18-9.27 25.71.3 54.45.63 78.89-13.08a8 8 0 0 0-7.81-13.94c-20.78 11.66-47.26 11.36-71 11.08-26.4-.3-49.74-.57-63.24 14.59a8 8 0 0 0 .7 11.28zm0 41.64a8 8 0 0 0 11.28-.65c8.7-9.77 28.62-9.54 51.18-9.28 25.71.3 54.45.63 78.89-13.08a8 8 0 1 0-7.81-13.93c-20.78 11.65-47.26 11.35-71 11.08-26.4-.31-49.74-.58-63.24 14.58a8 8 0 0 0 .7 11.28z" opacity="1" data-original="url(#a)"></path></g></svg>