<svg xmlns="http://www.w3.org/2000/svg" version="1.1" xmlns:xlink="http://www.w3.org/1999/xlink" width="512" height="512" x="0" y="0" viewBox="0 0 512 512" style="enable-background:new 0 0 512 512" xml:space="preserve"><rect width="512" height="512" rx="102.4" ry="102.4" fill="#bac8d3" shape="rounded"></rect><g transform="matrix(0.64,0,0,0.64,92.17581809163096,92.15964036941529)"><linearGradient id="a" x1=".003" x2="512.003" y1="255.999" y2="255.999" gradientUnits="userSpaceOnUse"><stop offset="0" stop-color="#00b8d1"></stop><stop offset="1" stop-color="#5b51a2"></stop></linearGradient><path fill="url(#a)" fill-rule="evenodd" d="M75.038 92.1a8.072 8.072 0 1 1 11.411-11.422l45.76 45.75a8.071 8.071 0 0 1-5.721 13.781 8.017 8.017 0 0 1-5.7-2.36zm-2.269 177.65h-64.7a8.071 8.071 0 0 1 0-16.141h64.7a8.071 8.071 0 1 1 0 16.141zm59.322 115.809a8.081 8.081 0 0 1 0 11.421L86.34 442.729a8.076 8.076 0 1 1-11.42-11.421l45.751-45.75a8.083 8.083 0 0 1 11.42 0zm304.867 45.861a8.075 8.075 0 0 1-11.42 11.419l-45.738-45.75a8.072 8.072 0 0 1 11.411-11.421l45.746 45.751zM512 261.839a8.069 8.069 0 0 1-8.071 8.069h-64.7a8.07 8.07 0 1 1 0-16.14h64.7a8.069 8.069 0 0 1 8.071 8.071zm-126.378-121.51a8.076 8.076 0 0 1-5.713-13.781L425.661 80.8a8.076 8.076 0 0 1 11.42 11.421l-45.751 45.737a8.034 8.034 0 0 1-5.708 2.371zM256.081 86.6a8.066 8.066 0 0 1-8.071-8.07v-64.7a8.071 8.071 0 1 1 16.142 0v64.7a8.069 8.069 0 0 1-8.071 8.07zm19.528 192.3v-12.41a12.411 12.411 0 1 1 12.4 12.41zm50.681 110.649a142.093 142.093 0 0 0 71.46-123.061c0-78.109-63.549-141.659-141.669-141.659s-141.669 63.55-141.669 141.659a142.092 142.092 0 0 0 71.459 123.061 40.274 40.274 0 0 1 19.307 24.57h31.383V295.048h-12.42a28.555 28.555 0 1 1 28.557-28.56V278.9h6.765v-12.41a28.555 28.555 0 1 1 28.548 28.56h-12.4v119.069h31.369a40.286 40.286 0 0 1 19.312-24.57zm-70.209 116.69a41.7 41.7 0 0 1-37.619-24.15H293.7a41.71 41.71 0 0 1-37.619 24.15zm42.4-40.291h-84.8a7.034 7.034 0 0 1-7.018-7.018v-1.92H305.5v1.92a7.029 7.029 0 0 1-7.024 7.018zm-39.015-51.829H252.7V295.048h6.765v119.071zM236.561 278.9h-12.42a12.41 12.41 0 1 1 12.42-12.41zM305.5 430.269v10.59h-98.84v-10.59z" opacity="1" data-original="url(#a)"></path></g></svg>