<svg xmlns="http://www.w3.org/2000/svg" version="1.1" xmlns:xlink="http://www.w3.org/1999/xlink" width="512" height="512" x="0" y="0" viewBox="0 0 450 450" style="enable-background:new 0 0 512 512" xml:space="preserve"><rect width="450" height="450" rx="90" ry="90" fill="#bac8d3" shape="rounded"></rect><g transform="matrix(0.5599999999999999,0,0,0.5599999999999999,94.00345764160156,103.99653732299805)"><linearGradient id="a" x1="98.875" x2="404.075" y1="406.175" y2="100.975" gradientTransform="matrix(1 0 0 -1 0 452)" gradientUnits="userSpaceOnUse"><stop offset="0" stop-color="#00dbde"></stop><stop offset="1" stop-color="#fc00ff"></stop></linearGradient><path fill="url(#a)" d="M354.8 160.3c-.5-2 .2-4.2 1.9-5.5.4-.3 17.9-13.5 36.7-33.3-15.8-3.4-30.4-11.4-41.9-22.9-11.6-11.6-19.5-26.2-23-42-19.8 18.8-33 36.3-33.3 36.7-1.3 1.7-3.4 2.4-5.5 1.9L100.3 44.4 63.7 81l156.4 90.3c1.3.8 2.3 2.1 2.5 3.6.3 1.5-.2 3.1-1.2 4.3L116.9 297.5c-1.3 1.5-3.3 2.1-5.2 1.6l-67-18L10 315.8l76.4 20.4c1.8.5 3.2 1.9 3.6 3.6.5 1.8 0 3.7-1.3 5L66.6 367c-4.5 4.5-4.5 11.9 0 16.5 2.2 2.2 5.1 3.4 8.2 3.4s6-1.2 8.2-3.4l22.1-22.1c1-1 2.3-1.5 3.6-1.5.4 0 .9.1 1.3.2 1.8.5 3.2 1.9 3.6 3.6L134 440l34.7-34.7-17.9-67c-.5-1.9.1-3.9 1.6-5.2l118.2-104.5c1.2-1 2.7-1.5 4.3-1.2 1.5.3 2.9 1.2 3.6 2.5l90.3 156.4 36.6-36.6zm46.8-47.8c-16.2-2.1-31.3-9.6-42.9-21.2s-19-26.7-21.2-42.9c28-24.4 65.5-47.4 99-34.9 12.5 33.5-10.5 71-34.9 99z" opacity="1" data-original="url(#a)"></path></g></svg>