<svg xmlns="http://www.w3.org/2000/svg" version="1.1" xmlns:xlink="http://www.w3.org/1999/xlink" width="512" height="512" x="0" y="0" viewBox="0 0 64 64" style="enable-background:new 0 0 512 512" xml:space="preserve"><rect width="64" height="64" rx="12.8" ry="12.8" fill="#bac8d3" shape="rounded"></rect><g transform="matrix(0.68,0,0,0.68,10.239999999999998,10.24080032348633)"><linearGradient id="a" x1="13.84" x2="50.16" y1="32.002" y2="32.002" gradientUnits="userSpaceOnUse"><stop offset="0" stop-color="#00c0ff"></stop><stop offset="1" stop-color="#5558ff"></stop></linearGradient><path fill="url(#a)" d="M42.16 14.91V5.685h2.902a1 1 0 0 0 0-2H19.038a1 1 0 0 0 0 2h2.712v9.225a8.011 8.011 0 0 0-7.91 8v6.61h36.32v-6.61a8.01 8.01 0 0 0-8-8zm-2 0h-7.29v-3.074h3.025a1 1 0 0 0 0-2h-8.057a1 1 0 0 0 0 2h3.032v3.074h-7.12V5.685h16.41zm10 24.74v6.18a8.01 8.01 0 0 1-8 8H21.84a8.01 8.01 0 0 1-8-8v-6.18zm0-8.13v6.13H13.84v-6.13zm-8 24.31a9.397 9.397 0 0 0 1.31-.09v.58a4.005 4.005 0 0 1-4 4H24.53a4.012 4.012 0 0 1-4-4v-.58a9.397 9.397 0 0 0 1.31.09z" opacity="1" data-original="url(#a)"></path></g></svg>