<svg xmlns="http://www.w3.org/2000/svg" version="1.1" xmlns:xlink="http://www.w3.org/1999/xlink" width="512" height="512" x="0" y="0" viewBox="0 0 64 64" style="enable-background:new 0 0 512 512" xml:space="preserve" class=""><rect width="64" height="64" rx="12.8" ry="12.8" fill="#bac8d3" shape="rounded"></rect><g transform="matrix(0.7,0,0,0.7,9.599552392959595,9.599014520645142)"><linearGradient id="a" x1="4" x2="60" y1="32" y2="32" gradientUnits="userSpaceOnUse"><stop offset="0" stop-color="#00c0ff"></stop><stop offset="1" stop-color="#5558ff"></stop></linearGradient><path fill="url(#a)" d="M19.222 28.593a14.016 14.016 0 0 1 3.01 2.26 2.964 2.964 0 0 0-.14.45 13.638 13.638 0 0 1-3.76.06 1.455 1.455 0 0 1 .89-2.77zm.76 7.838a1.453 1.453 0 0 0 2.35 1.71 13.19 13.19 0 0 0 1.11-3.59 3.73 3.73 0 0 1-.38-.28 12.817 12.817 0 0 0-3.08 2.16zm-.14-9.738a8.74 8.74 0 0 1 2.5 1.65 8.851 8.851 0 0 1-.79-2.89 3.443 3.443 0 0 1 2.45-3.289v-4.929H12.133a2.995 2.995 0 0 0-3 3v10.767h6.35a3.472 3.472 0 0 1 4.358-4.309zm1.31 14.047a3.472 3.472 0 0 1-2.79-5.478 7.992 7.992 0 0 1 2.31-1.86c-1.33.06-2.71.13-3.56-.4H9.136V43.77a3.002 3.002 0 0 0 2.999 3h11.867v-7.52a3.466 3.466 0 0 1-2.849 1.49zm3.85-9.737a1 1 0 0 0 0 2 1 1 0 0 0 0-2zm-1.45-5.55a13.875 13.875 0 0 0 1.22 3.57 1.137 1.137 0 0 1 .45 0 14.188 14.188 0 0 0 1.229-3.57 1.45 1.45 0 0 0-2.9 0zm3.009 9.099a13.105 13.105 0 0 0 1.11 3.599 1.456 1.456 0 0 0 2.35-1.72 13.232 13.232 0 0 0-3.08-2.16c-.12.1-.25.19-.38.28zm5.109-3.19a1.464 1.464 0 0 0 .21-2.679 1.403 1.403 0 0 0-1.1-.09 14.018 14.018 0 0 0-3.01 2.26 2.957 2.957 0 0 1 .14.45 13.637 13.637 0 0 0 3.76.06zm20.196-14.127H26v4.93a3.443 3.443 0 0 1 2.45 3.289 8.85 8.85 0 0 1-.79 2.89c2.45-1.87 2.9-2.26 5.139-1.44a3.443 3.443 0 0 1 1.71 4.099h20.355V20.235a3.002 3.002 0 0 0-3-3zM30.58 33.442c-.34 0-.76-.02-1.26-.04a7.964 7.964 0 0 1 2.32 1.86A3.454 3.454 0 1 1 26 39.25v7.518h25.865a3.008 3.008 0 0 0 2.999-3V33.003H32.88a4.022 4.022 0 0 1-2.3.44zm-24.945 2.87 1.5.76V26.772l-2.81 5.51a3.002 3.002 0 0 0 1.31 4.028zM20.002 8.136a3.01 3.01 0 0 0-4.039 1.31l-2.95 5.789H33.93zm23.995 47.72a3.007 3.007 0 0 0 4.04-1.31l2.949-5.778H30.08zm14.357-28.174-1.49-.76v10.298l2.81-5.509a3.003 3.003 0 0 0-1.32-4.029z" opacity="1" data-original="url(#a)"></path></g></svg>