<svg xmlns="http://www.w3.org/2000/svg" version="1.1" xmlns:xlink="http://www.w3.org/1999/xlink" width="512" height="512" x="0" y="0" viewBox="0 0 4335 4335" style="enable-background:new 0 0 512 512" xml:space="preserve" fill-rule="evenodd"><rect width="4335" height="4335" rx="867" ry="867" fill="#bac8d3" shape="rounded"></rect><g transform="matrix(0.6,0,0,0.6,867,796.2)"><linearGradient id="a" x1="4334.9" x2=".02" y1="2040.46" y2="2040.46" gradientUnits="userSpaceOnUse"><stop offset="0" stop-color="#f071ab"></stop><stop offset="1" stop-color="#22abe2"></stop></linearGradient><path fill="url(#a)" d="M3242 3935h-618v-588c0-28-23-51-51-51h-811c-28 0-51 23-51 51v588h-618c-28 0-50-23-50-51V1146c0-28 22-51 50-51h252c91 370 425 644 822 644 398 0 732-274 823-644h252c28 0 50 23 50 51v2738c0 28-22 51-50 51zM2167 1638c-411 0-745-335-745-746s334-746 745-746c412 0 746 335 746 746s-334 746-746 746zm106-369h-211c-28 0-51-23-51-51v-170h-170c-28 0-51-23-51-51V787c0-28 23-51 51-51h170V566c0-29 23-51 51-51h211c28 0 51 22 51 51v170h170c28 0 51 23 51 51v210c0 28-23 51-51 51h-170v170c0 28-23 51-51 51zm-160-101h109V997c0-28 23-51 51-51h170V837h-170c-28 0-51-22-51-50V616h-109v171c0 28-23 50-51 50h-170v109h170c28 0 51 23 51 51zM941 3935H51c-28 0-51-23-51-51V1746c0-28 23-51 51-51h890zM580 2427H361c-54 0-99-44-99-99v-221c0-54 45-99 99-99h219c54 0 99 45 99 99v221c0 55-45 99-99 99zm0 1195H361c-54 0-99-44-99-99v-221c0-55 45-99 99-99h219c54 0 99 44 99 99v221c0 55-45 99-99 99zm-216-102h213v-215H364zm216-495H361c-54 0-99-45-99-100v-220c0-55 45-99 99-99h219c54 0 99 44 99 99v220c0 55-45 100-99 100zm-216-102h213v-216H364zm0-597h213v-216H364zm3920 1609h-890V1695h890c28 0 51 23 51 51v2138c0 28-23 51-51 51zm-310-1508h-219c-54 0-99-44-99-99v-221c0-54 45-99 99-99h219c54 0 99 45 99 99v221c0 55-45 99-99 99zm0 1195h-219c-54 0-99-44-99-99v-221c0-55 45-99 99-99h219c54 0 99 44 99 99v221c0 55-45 99-99 99zm-216-102h213v-215h-213zm216-495h-219c-54 0-99-45-99-100v-220c0-55 45-99 99-99h219c54 0 99 44 99 99v220c0 55-45 100-99 100zm-216-102h213v-216h-213zm0-597h213v-216h-213zm-2097 112h-218c-55 0-100-44-100-99v-221c0-54 45-99 100-99h218c55 0 99 45 99 99v221c0 55-44 99-99 99zm1231 657h-218c-55 0-99-44-99-99v-221c0-54 44-99 99-99h218c55 0 99 45 99 99v221c0 55-44 99-99 99zm-216-101h214v-216h-214zm-399 101h-219c-54 0-99-44-99-99v-221c0-54 45-99 99-99h219c54 0 99 45 99 99v221c0 55-45 99-99 99zm-216-101h213v-216h-213zm-400 101h-218c-55 0-100-44-100-99v-221c0-54 45-99 100-99h218c55 0 99 45 99 99v221c0 55-44 99-99 99zm-216-101h214v-216h-214zm1447-556h-218c-55 0-99-44-99-99v-221c0-54 44-99 99-99h218c55 0 99 45 99 99v221c0 55-44 99-99 99zm-216-101h214v-216h-214zm-399 101h-219c-54 0-99-44-99-99v-221c0-54 45-99 99-99h219c54 0 99 45 99 99v221c0 55-45 99-99 99zm-216-101h213v-216h-213zm-616 0h214v-216h-214zm1077 1598h-304v-537h304zm-405 0h-304v-537h304z" opacity="1" data-original="url(#a)"></path></g></svg>