<svg xmlns="http://www.w3.org/2000/svg" version="1.1" xmlns:xlink="http://www.w3.org/1999/xlink" width="512" height="512" x="0" y="0" viewBox="0 0 64 64" style="enable-background:new 0 0 512 512" xml:space="preserve"><rect width="64" height="64" rx="12.8" ry="12.8" fill="#bac8d3" shape="rounded"></rect><g transform="matrix(0.65,0,0,0.65,11.200060164928441,11.199999332427979)"><linearGradient id="a" x1="4" x2="60" y1="32" y2="32" gradientUnits="userSpaceOnUse"><stop offset="0" stop-color="#7f00ff"></stop><stop offset="1" stop-color="#e100ff"></stop></linearGradient><path fill="url(#a)" d="M57.889 29.785h-5.841c-.23 0-.46-.08-.64-.23l-.36-.3-19.043-15.873-15.362 12.802-3.68 3.07c-.28.233-.597.556-1 .53H6.12c-.9 0-1.69-.55-1.99-1.4-.31-.85-.06-1.77.64-2.35L29.535 5.391c1.4-1.16 3.54-1.16 4.94 0L59.24 26.034c1.54 1.176.569 3.82-1.35 3.75zM28.855 51.478V36.166c0-1.14-.92-2.06-2.06-2.06h-8.472c-1.14 0-2.06.92-2.06 2.06v15.312h-5.3V31.785c1.017.042 2.205.015 2.97-.74l18.072-15.062 18.123 15.112c.79.702 1.91.733 2.92.69v19.693H28.855zm3.12-6.851c0 1.14.92 2.06 2.06 2.06h11.652c1.14 0 2.06-.92 2.06-2.06v-8.471c0-1.14-.92-2.06-2.06-2.06H34.036c-1.14 0-2.06.92-2.06 2.06zm21.193 8.851H10.842c-1.1 0-2 .9-2 2v2c0 1.1.9 2.001 2 2.001h42.326c1.1 0 2-.9 2-2v-2c0-1.1-.9-2-2-2zm-34.895-2h8.581V36.166l-8.53-.06zm27.474-15.322-11.711-.06c-.03 0-.06.03-.06.06v8.47l11.711.06.06-8.53z" opacity="1" data-original="url(#a)"></path></g></svg>