<svg xmlns="http://www.w3.org/2000/svg" version="1.1" xmlns:xlink="http://www.w3.org/1999/xlink" width="512" height="512" x="0" y="0" viewBox="0 0 64 64" style="enable-background:new 0 0 512 512" xml:space="preserve"><rect width="64" height="64" rx="12.8" ry="12.8" fill="#bac8d3" shape="rounded"></rect><g transform="matrix(0.7,0,0,0.7,9.60004906654358,9.599989843368533)"><linearGradient id="a" x1="4" x2="60" y1="32" y2="32" gradientUnits="userSpaceOnUse"><stop offset="0" stop-color="#ff81ff"></stop><stop offset="1" stop-color="#a93aff"></stop></linearGradient><path fill="url(#a)" d="M19.73 31.825c-6.954-5.555-13.82.069-14.105.315A.994.994 0 0 1 4 31.411c0-.236-.098-21.364 21.335-25.245a19.597 19.597 0 0 0-1.557 2.335c-.42.752-.78 1.57-1.132 2.374-2.138 5.16-2.798 11.455-2.926 16.232-.057 1.587-.05 3.29.01 4.718zm9.86-2.58a14 14 0 0 1 1.881.058 11.333 11.333 0 0 1 6.166 2.542c.106-7.674-.18-16.95-4.728-23.876-.864-1.1-1.637-2.48-3.162-2.325-1.586-.226-2.42 1.185-3.3 2.325a15.592 15.592 0 0 0-1.339 2.265c-2.502 5.024-3.24 11.82-3.398 16.902a78.234 78.234 0 0 0 .01 4.709 11.333 11.333 0 0 1 6.166-2.542 12 12 0 0 1 1.704-.059zm18.763-8.284a10.734 10.734 0 0 0 4.029-1.537c-2.768-5.585-8.097-11.406-18.37-13.258a19.41 19.41 0 0 1 2.699 4.709c2.747 6.968 3.07 14.175 2.916 20.95a10.315 10.315 0 0 1 6.628-2.443 17.722 17.722 0 0 1-.236-5.988 2.811 2.811 0 0 1 2.334-2.433zm-4.659 26.555a2.366 2.366 0 0 0-2.324 1.89c-.917 5.797-8.994 5.594-9.318-.61V31.382a15.107 15.107 0 0 0-4.757-.01v17.316a9.634 9.634 0 0 0 9.465 9.692c4.62 0 8.333-3.221 9.289-8.077a2.395 2.395 0 0 0-2.355-2.787zm10.55-11.87a.92.92 0 0 1-.65 0c-5.009-2.055-6.206-7.307-5.625-12.026a.846.846 0 0 1 .7-.719 12.55 12.55 0 0 0 4.806-1.832c.707-.445 1.352.4 1.99.63a11.925 11.925 0 0 0 3.703 1.202.836.836 0 0 1 .7.729c.404 3.418.226 9.534-5.624 12.017zm2.275-10.322c-.995.992-2.508 2.513-3.507 3.516-.093-.067-1.339-1.38-1.418-1.369a1.175 1.175 0 0 0-1.842.877 1.191 1.191 0 0 0 .335.936c.43.418 1.665 1.68 2.078 2.078a1.185 1.185 0 0 0 1.684 0l1.429-1.428c.841-.853 2.211-2.174 3.024-3.044a1.187 1.187 0 0 0-1.783-1.566z" opacity="1" data-original="url(#a)"></path></g></svg>