<svg xmlns="http://www.w3.org/2000/svg" version="1.1" xmlns:xlink="http://www.w3.org/1999/xlink" width="512" height="512" x="0" y="0" viewBox="0 0 3873 3873" style="enable-background:new 0 0 512 512" xml:space="preserve"><rect width="3873" height="3873" rx="774.6" ry="774.6" fill="#bac8d3" shape="rounded"></rect><g transform="matrix(0.7399999999999999,0,0,0.7399999999999999,504.0099841308602,505.01108886718794)"><linearGradient id="a" x1="707.669" x2="3169.331" y1="711.519" y2="3173.181" gradientUnits="userSpaceOnUse"><stop offset="0" stop-color="#fc00ff"></stop><stop offset="1" stop-color="#00dbde"></stop></linearGradient><path fill="url(#a)" fill-rule="evenodd" d="M1016.3 3400.1c0 109 88.4 197.3 197.3 197.3h1449.8c109 0 197.3-88.4 197.3-197.3v-129H1016.3zm785.8-11.3h272.8c25 0 45.3 20.3 45.3 45.3s-20.3 45.3-45.3 45.3h-272.8c-25 0-45.3-20.3-45.3-45.3s20.3-45.3 45.3-45.3zm-785.8-208.4h1844.4V704.3H1016.3zm996.5-2016.2c387.6-.1 704 313.2 703.8 703.8h-131.7c.1-315.6-256-572.2-572.1-572.1zm-47.1 203.1c302.9-.2 548.1 244.8 547.9 547.9h-131.7c.1-230.9-187.6-416.4-416.2-416.2zm-39 206.3c210.9-.2 380.7 170.4 380.5 380.5h-131.7c.1-136.7-110.9-248.9-248.8-248.8zm-511.5-299.9c48.5-29.4 111.4-16 143.5 30.8l150.9 219.7c31.1 45.2 22.8 106.6-19.1 142l-58.5 49.4c16.6 172.7 361.7 516.7 533.3 533.3l49.4-58.5c35.4-41.9 96.8-50.2 142-19.1l219.7 150.9c46.7 32.1 60.1 95 30.8 143.5-48.9 80.8-144.4 185.6-312.1 188.7 0 0-245.1 21.5-659.5-409.2-348.3-335.1-400.8-559.5-408.2-633.1-14-139.9 71.7-268.2 187.8-338.4zm1248.2-986.4H1213.6c-108.9 0-197.3 88.3-197.3 197.3v129h1844.4v-129c0-108.9-88.3-197.3-197.3-197.3zm-453.9 208.4h-541.9c-25 .1-45.3-20.2-45.3-45.3 0-25 20.3-45.3 45.3-45.3h541.9c25 0 45.3 20.3 45.3 45.3s-20.3 45.3-45.3 45.3z" clip-rule="evenodd" opacity="1" data-original="url(#a)"></path></g></svg>