<svg xmlns="http://www.w3.org/2000/svg" version="1.1" xmlns:xlink="http://www.w3.org/1999/xlink" width="512" height="512" x="0" y="0" viewBox="0 0 512 512" style="enable-background:new 0 0 512 512" xml:space="preserve"><rect width="512" height="512" rx="102.4" ry="102.4" fill="#bac8d3" shape="rounded"></rect><g transform="matrix(0.5999999999999998,0,0,0.5999999999999998,102.40000610351566,92.40000000000006)"><linearGradient id="a" x1="122.639" x2="405.588" y1="554.467" y2="64.386" gradientUnits="userSpaceOnUse"><stop offset="0" stop-color="#ff6100"></stop><stop offset="1" stop-color="#fdb82e"></stop></linearGradient><path fill="url(#a)" fill-rule="evenodd" d="M413.582 153.588H98.417c39.104-39.584 92.03-68.704 150.583-70.871V11h64.12l-12.375 20.092 12.375 20.092h-50.121v31.533c58.553 2.167 111.479 31.287 150.583 70.871zm53.963 52.946 28.358-38.946H16.097l28.357 38.946h423.092zm-5.097 14H49.551v14.375a4.684 4.684 0 0 0 4.671 4.671h403.556a4.685 4.685 0 0 0 4.671-4.671v-14.375zM84.239 414.458c-1.993 1.582-3.247 3.907-3.247 6.634v13.817h50.135v-13.817c0-2.726-1.254-5.052-3.248-6.634-4.39-3.483-6.677-8.083-6.677-13.427V287.457c0-5.344 2.288-9.946 6.677-13.427 1.992-1.581 3.248-3.91 3.248-6.634v-13.909H80.992v13.909c0 2.727 1.255 5.053 3.247 6.634 4.389 3.482 6.677 8.084 6.677 13.427v113.574c0 5.344-2.288 9.944-6.677 13.427zm99.961 0c-1.993 1.582-3.247 3.907-3.247 6.634v13.817h50.135v-13.817c0-2.726-1.253-5.052-3.248-6.634-4.389-3.483-6.677-8.083-6.677-13.427V287.457c0-5.344 2.288-9.945 6.677-13.427 1.993-1.581 3.248-3.91 3.248-6.634v-13.909h-50.135v13.909c0 2.727 1.255 5.053 3.247 6.634 4.388 3.483 6.677 8.084 6.677 13.427v113.574c0 5.344-2.288 9.945-6.677 13.427zm199.921 0c-1.993 1.582-3.248 3.907-3.248 6.634v13.817h50.135v-13.817c0-2.726-1.254-5.052-3.248-6.634-4.389-3.483-6.676-8.083-6.676-13.427V287.457c0-5.344 2.288-9.945 6.676-13.427 1.993-1.581 3.248-3.91 3.248-6.634v-13.909h-50.135v13.909c0 2.727 1.256 5.053 3.248 6.634 4.389 3.482 6.677 8.084 6.677 13.427v113.574c0 5.344-2.288 9.944-6.677 13.427zm-99.961 0c-1.993 1.582-3.247 3.907-3.247 6.634v13.817h50.135v-13.817c0-2.726-1.253-5.052-3.247-6.634-4.389-3.483-6.676-8.083-6.676-13.427V287.457c0-5.344 2.288-9.945 6.676-13.427 1.993-1.581 3.247-3.91 3.247-6.634v-13.909h-50.135v13.909c0 2.727 1.255 5.053 3.247 6.634 4.388 3.483 6.677 8.084 6.677 13.427v113.574c0 5.344-2.288 9.945-6.677 13.427zM49.551 453.58v14.375h412.898V453.58a4.685 4.685 0 0 0-4.671-4.671H54.223a4.685 4.685 0 0 0-4.671 4.671zm-22.946 42.749A4.684 4.684 0 0 0 31.276 501h449.447a4.684 4.684 0 0 0 4.671-4.671v-14.375H26.606v14.375z" opacity="1" data-original="url(#a)"></path></g></svg>