<svg xmlns="http://www.w3.org/2000/svg" version="1.1" xmlns:xlink="http://www.w3.org/1999/xlink" width="512" height="512" x="0" y="0" viewBox="0 0 64 64" style="enable-background:new 0 0 512 512" xml:space="preserve" class=""><rect width="64" height="64" rx="12.8" ry="12.8" fill="#bac8d3" shape="rounded"></rect><g transform="matrix(0.7,0,0,0.7,9.600000000000001,9.600000286102297)"><linearGradient id="a" x1="4" x2="60" y1="32" y2="32" gradientUnits="userSpaceOnUse"><stop offset="0" stop-color="#00c0ff"></stop><stop offset="1" stop-color="#5558ff"></stop></linearGradient><path fill="url(#a)" d="M54.94 14.06H9.06A5.066 5.066 0 0 0 4 19.12v25.76a5.066 5.066 0 0 0 5.06 5.06h45.88A5.066 5.066 0 0 0 60 44.88V19.12a5.066 5.066 0 0 0-5.06-5.06zm-46.8 10.5a4.185 4.185 0 0 1 4.18-4.18h16.5A4.185 4.185 0 0 1 33 24.56v14.88a4.185 4.185 0 0 1-4.18 4.18h-16.5a4.185 4.185 0 0 1-4.18-4.18zm27.74 16.21h15.58a1 1 0 0 1 0 2H35.88a1 1 0 0 1 0-2zm-1-8.77a.997.997 0 0 1 1-1h15.58a1 1 0 0 1 0 2H35.88a.997.997 0 0 1-1-1zm16.58-8.77H35.88a1 1 0 0 1 0-2h15.58a1 1 0 0 1 0 2zM10.14 39.44V24.56a2.185 2.185 0 0 1 2.18-2.18h16.5A2.185 2.185 0 0 1 31 24.56v14.88a2.19 2.19 0 0 1-1.62 2.11 7.486 7.486 0 0 0-4-5.4c3.247-3.815.234-10.013-4.81-9.9a6.148 6.148 0 0 0-6.17 6.11 5.993 5.993 0 0 0 1.35 3.8 7.506 7.506 0 0 0-4 5.38 2.19 2.19 0 0 1-1.61-2.1zm10.43-11.19a4.14 4.14 0 0 1 4.16 4.11 4.186 4.186 0 0 1-6.65 3.28 4.106 4.106 0 0 1 2.49-7.39zm6.78 13.37H13.77a5.856 5.856 0 0 1 3.61-4.05 6.19 6.19 0 0 0 6.37 0 5.814 5.814 0 0 1 3.6 4.05z" opacity="1" data-original="url(#a)"></path></g></svg>