<svg xmlns="http://www.w3.org/2000/svg" version="1.1" xmlns:xlink="http://www.w3.org/1999/xlink" width="512" height="512" x="0" y="0" viewBox="0 0 512 512" style="enable-background:new 0 0 512 512" xml:space="preserve" class=""><rect width="512" height="512" rx="102.4" ry="102.4" fill="#bac8d3" shape="rounded"></rect><g transform="matrix(0.65,0,0,0.65,89.60000534057619,89.5982536315918)"><linearGradient id="a" x1="81.987" x2="430.013" y1="430.013" y2="81.987" gradientUnits="userSpaceOnUse"><stop offset="0" stop-color="#294074"></stop><stop offset="1" stop-color="#f494be"></stop></linearGradient><path fill="url(#a)" fill-rule="evenodd" d="M461.6 134.94h12.2c12.23 0 22.2 9.97 22.2 22.2v242.11c0 12.23-9.97 22.2-22.2 22.2H82.6c-12.23 0-22.2-9.97-22.2-22.2v-12.2h369c17.75 0 32.2-14.45 32.2-32.2zM38.2 90.54c-12.23 0-22.2 9.97-22.2 22.2v242.11c0 12.23 9.97 22.2 22.2 22.2h391.2c12.23 0 22.2-9.97 22.2-22.2V112.74c0-12.23-9.97-22.2-22.2-22.2zM67.93 228.2H93.2v-8.4H62.94v3.4c0 1.37.56 2.62 1.47 3.53s2.15 1.47 3.52 1.47zm35.27 0h25.26c1.37 0 2.62-.56 3.53-1.47s1.47-2.16 1.47-3.53v-3.4H103.2zm30.26-18.4v-24.46c0-1.37-.56-2.62-1.47-3.53s-2.16-1.47-3.53-1.47h-12.68v29.46zm-27.69-29.46H90.62v29.46h15.15zm-25.15 0H67.93c-1.37 0-2.62.56-3.53 1.47s-1.47 2.16-1.47 3.53v4.73h17.68v-9.73zm-17.68 19.73v9.73h17.68v-9.73zm65.52 38.13c4.13 0 7.88-1.68 10.6-4.4s4.4-6.47 4.4-10.6v-37.86c0-4.13-1.68-7.88-4.4-10.6s-6.47-4.4-10.6-4.4H67.93c-4.13 0-7.88 1.68-10.6 4.4s-4.4 6.47-4.4 10.6v37.86c0 4.13 1.68 7.88 4.4 10.6s6.47 4.4 10.6 4.4zm52.33 60.41H57.93c-2.76 0-5 2.24-5 5s2.24 5 5 5h122.86c2.76 0 5-2.24 5-5s-2.24-5-5-5zm-40 33.29H57.93c-2.76 0-5 2.24-5 5s2.24 5 5 5h82.85c2.76 0 5-2.24 5-5 .01-2.76-2.23-5-4.99-5zm138.35-190.63h120.52c1.37 0 2.62-.56 3.53-1.47s1.47-2.16 1.47-3.53v-7.86c0-1.37-.56-2.62-1.47-3.53s-2.16-1.47-3.53-1.47H279.14c-1.37 0-2.62.56-3.53 1.47s-1.47 2.16-1.47 3.53v7.86c0 1.37.56 2.62 1.47 3.53s2.16 1.47 3.53 1.47zm120.52 10c4.13 0 7.88-1.68 10.6-4.4s4.4-6.47 4.4-10.6v-7.86c0-4.13-1.68-7.88-4.4-10.6s-6.47-4.4-10.6-4.4H279.14c-4.13 0-7.88 1.68-10.6 4.4s-4.4 6.47-4.4 10.6v7.86c0 4.13 1.68 7.88 4.4 10.6s6.47 4.4 10.6 4.4zm-80.52 192.92h80.52c1.37 0 2.62-.56 3.53-1.47s1.47-2.16 1.47-3.53v-37.86c0-1.37-.56-2.62-1.47-3.53s-2.16-1.47-3.53-1.47h-80.52c-1.37 0-2.62.56-3.53 1.47s-1.47 2.16-1.47 3.53v37.86c0 1.37.56 2.62 1.47 3.53.91.9 2.16 1.47 3.53 1.47zm80.52 10c4.13 0 7.88-1.68 10.6-4.4s4.4-6.47 4.4-10.6v-37.86c0-4.13-1.68-7.88-4.4-10.6s-6.47-4.4-10.6-4.4h-80.52c-4.13 0-7.88 1.68-10.6 4.4s-4.4 6.47-4.4 10.6v37.86c0 4.13 1.68 7.88 4.4 10.6s6.47 4.4 10.6 4.4zm-244.25-86.93h59.31c2.76 0 5-2.24 5-5s-2.24-5-5-5h-59.31c-2.76 0-5 2.24-5 5s2.24 5 5 5zm97.47 0h59.31c2.76 0 5-2.24 5-5s-2.24-5-5-5h-59.31c-2.76 0-5 2.24-5 5s2.24 5 5 5zm97.47 0h59.31c2.76 0 5-2.24 5-5s-2.24-5-5-5h-59.31c-2.76 0-5 2.24-5 5s2.24 5 5 5zm-292.42 0h59.31c2.76 0 5-2.24 5-5s-2.24-5-5-5H57.93c-2.76 0-5 2.24-5 5s2.24 5 5 5z" clip-rule="evenodd" opacity="1" data-original="url(#a)"></path></g></svg>