<svg xmlns="http://www.w3.org/2000/svg" version="1.1" xmlns:xlink="http://www.w3.org/1999/xlink" width="512" height="512" x="0" y="0" viewBox="0 0 512 512" style="enable-background:new 0 0 512 512" xml:space="preserve" fill-rule="evenodd" class=""><rect width="512" height="512" rx="102.4" ry="102.4" fill="#bac8d3" shape="rounded"></rect><g transform="matrix(0.58,0,0,0.58,117.51810026617721,96.47)"><linearGradient id="a" x1="481.181" x2="30.738" y1="253.211" y2="253.211" gradientUnits="userSpaceOnUse"><stop offset="0" stop-color="#f071ab"></stop><stop offset="1" stop-color="#22abe2"></stop></linearGradient><path fill="url(#a)" d="M283 471c-56-1-108-23-148-61l26-26c32 30 75 49 122 51zM6 482c-3 0-6-3-6-6 0-1-1-28 18-44 12-10 28-13 48-9 16 4 29 2 37-6 9-7 12-19 13-27-31-38-49-86-51-136h37c1 47 20 90 50 122l-26 25c-2 9-7 18-15 25-12 10-28 13-48 9-16-3-29-1-37 6-14 12-14 35-14 35 0 3-2 6-6 6zm108-234c0-97 78-175 175-175 96 0 175 78 175 175 0 96-79 175-175 175-97 0-175-79-175-175zm-12-6H65c2-56 23-108 62-148l25 26c-30 32-49 75-50 122zm59-131-26-25c40-38 92-60 148-61v36c-47 1-90 20-122 50zm134-50V25c55 1 107 23 147 61l-25 25c-33-30-75-49-122-50zm130 59 26-26c38 40 59 92 61 148h-36c-2-47-21-90-51-122zm51 134h36c-2 55-23 107-61 147l-26-25c30-32 49-75 51-122zm-59 130 25 26c-40 38-92 60-147 61v-36c47-2 89-21 122-51zM189 228c-7 0-14-1-19-5-19-10-25-34-14-52 6-12 19-19 33-19 6 0 13 2 19 5 18 10 24 34 14 52-7 12-20 19-33 19zm0-64c-10 0-18 5-23 13-7 12-3 29 10 36 4 2 8 3 13 3 9 0 18-5 22-13 8-12 3-28-9-36-4-2-9-3-13-3zm0 180c-14 0-27-8-33-19-6-9-7-20-4-29 2-10 9-19 18-24 5-3 12-5 19-5 13 0 26 8 33 19 5 9 6 19 4 29-3 10-9 18-18 24-6 3-13 5-19 5zm0-65c-5 0-9 1-13 4-6 3-11 9-13 16-1 6-1 14 3 20 5 8 13 13 23 13 4 0 9-1 13-4 6-3 10-9 12-16s1-14-3-20c-4-8-13-13-22-13zm100 122c-21 0-39-17-39-38s18-38 39-38 38 17 38 38-17 38-38 38zm0-64c-15 0-27 12-27 26 0 15 12 26 27 26 14 0 26-11 26-26 0-14-12-26-26-26zm100 7c-7 0-14-2-20-5-18-11-24-34-14-53 7-11 20-19 34-19 6 0 13 2 19 5 9 5 15 14 18 24 2 9 1 20-4 29-7 11-20 19-33 19zm0-65c-10 0-18 5-23 13-7 13-3 29 9 36 4 3 9 4 14 4 9 0 18-5 22-13 4-6 5-14 3-20-2-7-6-13-12-16-4-3-9-4-13-4zm0-51c-14 0-27-7-34-19-10-18-4-42 14-52 6-3 13-5 20-5 13 0 26 7 33 19 10 18 4 42-14 52-6 4-13 5-19 5zm0-64c-5 0-10 1-14 3-12 8-16 24-9 36 5 8 13 13 23 13 4 0 9-1 13-3 12-7 17-24 9-36-4-8-13-13-22-13zm-100 7c-21 0-39-18-39-39s18-38 39-38 38 17 38 38-17 39-38 39zm0-65c-15 0-27 12-27 26 0 15 12 27 27 27 14 0 26-12 26-27 0-14-12-26-26-26zm0 198c-31 0-56-25-56-56s25-56 56-56c30 0 55 25 55 56s-25 56-55 56zm0-100c-24 0-44 20-44 44s20 44 44 44 43-20 43-44-19-44-43-44z" opacity="1" data-original="url(#a)"></path></g></svg>