<svg xmlns="http://www.w3.org/2000/svg" version="1.1" xmlns:xlink="http://www.w3.org/1999/xlink" width="512" height="512" x="0" y="0" viewBox="0 0 3873 3873" style="enable-background:new 0 0 512 512" xml:space="preserve"><rect width="3873" height="3873" rx="774.6" ry="774.6" fill="#bac8d3" shape="rounded"></rect><g transform="matrix(0.68,0,0,0.68,620.3199853515623,621.5199609375)"><linearGradient id="a" x1="329.438" x2="3170.878" y1="709.982" y2="3551.422" gradientUnits="userSpaceOnUse"><stop offset="0" stop-color="#fc00ff"></stop><stop offset="1" stop-color="#00dbde"></stop></linearGradient><path fill="url(#a)" fill-rule="evenodd" d="M3752.2 2728.2V2970H124.8v-241.8H3329zm-6.3-483.6H124.8v120.9H3586c75.9 0 140.2-51.2 159.9-120.9zM427 2607.3h.3c78.7-.1 145.9-50.6 170.8-120.9h-342c25 70.3 92.1 120.9 170.9 120.9zm725.5 0h.3c78.7-.1 145.9-50.6 170.8-120.9h-342c25 70.3 92.1 120.9 170.9 120.9zm725.4 0h.3c78.7-.1 145.9-50.6 170.8-120.9h-342c25 70.3 92.2 120.9 170.9 120.9zm725.5 0h.2c78.7 0 145.9-50.6 170.9-120.9h-342c25 70.3 92.2 120.9 170.9 120.9zm725.5 0h.2c78.8 0 146-50.6 170.9-120.9h-342c25 70.4 92.2 120.9 170.9 120.9zm-641.5-1186.8c81.2 135.4 229.8 219.5 387.8 219.5h548.7c-93.7-193-234.3-359.2-407-483.6H2529zm987.7 340.4h-599.9c-200.2 0-388.4-106.6-491.4-278.2l-268.4-447.3h695.9c-165.2-77.5-349.5-120.9-543.8-120.9H124.8v120.9h1910l428.7 785.9H124.8v302.3h3625.1c-7.3-126.6-33.2-248.4-74.8-362.7zm-1415.2-60.4-296.8-544.1H1435l296.8 544.1zM571.7 1156.4H124.8v544.1h743.7zm137.8 0 296.8 544.1H1594l-296.8-544.1z" clip-rule="evenodd" opacity="1" data-original="url(#a)"></path></g></svg>