<svg xmlns="http://www.w3.org/2000/svg" version="1.1" xmlns:xlink="http://www.w3.org/1999/xlink" width="512" height="512" x="0" y="0" viewBox="0 0 512 512" style="enable-background:new 0 0 512 512" xml:space="preserve"><rect width="512" height="512" rx="102.4" ry="102.4" fill="#bac8d3" shape="rounded"></rect><g transform="matrix(0.69,0,0,0.69,84.36000000000001,79.36000236511234)"><linearGradient id="a" x1="256" x2="256" y1="50.8" y2="461.2" gradientUnits="userSpaceOnUse"><stop offset="0" stop-color="#f704fe"></stop><stop offset="1" stop-color="#24bce3"></stop></linearGradient><path fill="url(#a)" d="M449.8 153.4v127.8c-14.1-.6-25.3-9.8-25.3-21v-85.8c0-11.3 11.1-20.5 25.3-21zM362 186.3h52.7v61.9H362zm43-107.7c0 4.5-1.8 8.6-5.1 11.7s-7.6 4.6-12.1 4.3l-69.1-4.3c1.2-3.7 1.9-7.6 1.9-11.7s-.7-8-1.9-11.7l69.2-4.3h1.1c8.9 0 16 7.2 16 16zm-52.9 174.5v2.8c0 3.7-3 6.8-6.8 6.8H220.2c-3.7 0-6.7-3-6.7-6.7V182.4c.1-.3.1-.6.1-1 0-.3 0-.7-.1-1v-2c0-3.7 3-6.8 6.8-6.8h19.5c.3.1.6.1 1 .1.3 0 .7 0 1-.1h81.4c.4.1.9.2 1.4.2s1-.1 1.4-.2h19.3c3.7 0 6.8 3 6.8 6.8v3zm-17.7-19v-33.9c0-2.7-2.2-4.9-4.9-4.9s-4.9 2.2-4.9 4.9v33.9c0 2.7 2.2 4.9 4.9 4.9 2.6 0 4.9-2.2 4.9-4.9zm-31 0v-33.9c0-2.7-2.2-4.9-4.9-4.9s-4.9 2.2-4.9 4.9v33.9c0 2.7 2.2 4.9 4.9 4.9 2.6 0 4.9-2.2 4.9-4.9zm-31 0v-33.9c0-2.7-2.2-4.9-4.9-4.9s-4.9 2.2-4.9 4.9v33.9c0 2.7 2.2 4.9 4.9 4.9 2.6 0 4.9-2.2 4.9-4.9zm-31 0v-33.9c0-2.7-2.2-4.9-4.9-4.9s-4.9 2.2-4.9 4.9v33.9c0 2.7 2.2 4.9 4.9 4.9s4.9-2.2 4.9-4.9zm78.4-84.5v12.2h-74v-12.2c0-1.1 1-1.8 1.9-1.8H317.8c1.2 0 2 .8 2 1.8zm-8.9-71c0 4.8-1.2 9.3-3.4 13.2-.3.3-.5.7-.7 1.2-2 3.2-4.5 6-7.6 8.1-4.6 3.3-10.2 5.3-16.3 5.3s-11.7-2-16.3-5.3c-3.1-2.2-5.7-5.1-7.7-8.3-.1-.2-.2-.3-.3-.5-2.3-4-3.7-8.7-3.7-13.7 0-4.9 1.3-9.4 3.5-13.4 4.8-8.6 13.9-14.4 24.4-14.4 10.4 0 19.5 5.7 24.3 14.2 2.4 4 3.8 8.7 3.8 13.6zm-13.8 34.9v24.6h-28.5v-24.6c4.4 1.8 9.2 2.8 14.3 2.8s9.9-1 14.2-2.8zm-50-23.1L178 94.7c-4.6.3-8.9-1.3-12.2-4.4-3.2-3.1-5-7.2-5-11.6 0-8.8 7.2-16 16-16h1.1l69.2 4.4c-1.2 3.7-1.9 7.6-1.9 11.6 0 4.1.7 8 1.9 11.7zm-43.3 95.9v61.9H161c-7.6 0-13.7 6.2-13.7 13.7v32.7H69.4v-23.2c0-46.9 38.3-85.1 85.4-85.1zm-49.6 118.1v14.9h-92v-14.9h89.9zm-61.6 68.9c1.8 3.1 1.8 6.9 0 10s-5.1 5-8.7 5-6.9-1.9-8.7-5-1.8-6.9 0-10l8.7-15zm0 72.9c1.8 3.1 1.8 6.9 0 10s-5.1 5-8.7 5-6.9-1.9-8.7-5-1.8-6.9 0-10l8.7-15zm48.8-36.4c1.8 3.1 1.8 6.9 0 10s-5.1 5-8.7 5-6.9-1.9-8.7-5-1.8-6.9 0-10l8.7-15z" opacity="1" data-original="url(#a)"></path></g></svg>