<svg xmlns="http://www.w3.org/2000/svg" version="1.1" xmlns:xlink="http://www.w3.org/1999/xlink" width="512" height="512" x="0" y="0" viewBox="0 0 512 512" style="enable-background:new 0 0 512 512" xml:space="preserve"><rect width="512" height="512" rx="102.4" ry="102.4" fill="#bac8d3" shape="rounded"></rect><g transform="matrix(0.6,0,0,0.6,102.4,97.39959564208985)"><linearGradient id="a" x1="256.001" x2="256.002" y1="471.418" y2="40.581" gradientUnits="userSpaceOnUse"><stop offset="0" stop-color="#6c54a3"></stop><stop offset="1" stop-color="#00b1d2"></stop></linearGradient><path fill="url(#a)" fill-rule="evenodd" d="M178.919 388.585v-22.6H165.11v22.6zm-137.34-22.6v22.6h13.809v-22.6zm92.641 0v22.6h13.831v-22.6zm-47.949 22.6v-22.6H72.462v22.6zm17.066-22.6v22.6h13.824v-22.6zm84.126-17.074a8.528 8.528 0 0 1 8.523 8.53v39.676a8.525 8.525 0 0 1-8.523 8.538H33.042a8.533 8.533 0 0 1-8.537-8.538v-39.679a8.535 8.535 0 0 1 8.537-8.53zM465.2 382.5a5.215 5.215 0 1 0-5.215-5.215 5.227 5.227 0 0 0 5.215 5.215zm0-27.5a22.278 22.278 0 1 1-22.282 22.281A22.306 22.306 0 0 1 465.2 355zm-54.314 27.5a5.215 5.215 0 1 0-5.208-5.215 5.227 5.227 0 0 0 5.208 5.215zm0-27.5a22.278 22.278 0 1 1-22.268 22.281A22.308 22.308 0 0 1 410.887 355zm-54.308 27.5a5.215 5.215 0 1 0-5.208-5.215 5.219 5.219 0 0 0 5.208 5.215zm0-27.5a22.278 22.278 0 1 1-22.278 22.283A22.306 22.306 0 0 1 356.579 355zm-54.307 27.5a5.215 5.215 0 1 0-5.215-5.215 5.229 5.229 0 0 0 5.215 5.215zm0-27.5a22.278 22.278 0 1 1-22.282 22.281A22.293 22.293 0 0 1 302.272 355zm-54.315 27.5a5.215 5.215 0 1 0-5.215-5.215 5.23 5.23 0 0 0 5.215 5.215zm0-27.5a22.278 22.278 0 1 1-22.288 22.281A22.306 22.306 0 0 1 247.957 355zM512 411.416a23.494 23.494 0 0 1-23.46 23.461H23.47A23.5 23.5 0 0 1 0 411.416V343.15a23.492 23.492 0 0 1 23.47-23.467h465.07A23.49 23.49 0 0 1 512 343.15zm-47.278 58.051a1.989 1.989 0 0 1-1.964 1.951h-56.029a1.989 1.989 0 0 1-1.958-1.951v-17.516h59.951zm-357.5 0a1.982 1.982 0 0 1-1.95 1.951H49.237a1.976 1.976 0 0 1-1.943-1.951v-17.516h59.93v17.516zM50.009 294.458H149.4v8.158H50.009zm48.042-192.119c.536.028 1.1.05 1.658.05.542 0 1.1-.022 1.65-.05l8.141 175.052H89.9zm1.658-61.759A22.368 22.368 0 1 1 77.32 62.94a22.4 22.4 0 0 1 22.389-22.36z" opacity="1" data-original="url(#a)"></path></g></svg>