<svg xmlns="http://www.w3.org/2000/svg" version="1.1" xmlns:xlink="http://www.w3.org/1999/xlink" width="512" height="512" x="0" y="0" viewBox="0 0 64 64" style="enable-background:new 0 0 512 512" xml:space="preserve" class=""><rect width="64" height="64" rx="12.8" ry="12.8" fill="#bac8d3" shape="rounded"></rect><g transform="matrix(0.65,0,0,0.65,11.199999332427979,11.2)"><linearGradient id="a" x1="6.33" x2="57.67" y1="32" y2="32" gradientUnits="userSpaceOnUse"><stop offset="0" stop-color="#0759ff"></stop><stop offset="1" stop-color="#00175e"></stop></linearGradient><path fill="url(#a)" d="M11 21.4H9.33a1.003 1.003 0 0 0-1 1v5.2a1 1 0 1 1-2 0v-5.2a3.009 3.009 0 0 1 3-3H11v-2.6h20v19.6H11zM53 9a5.002 5.002 0 0 0-5-5H16a5.002 5.002 0 0 0-5 5v5.8h42zm1.67 10.4H53v-2.6H33v19.6h20v-15h1.67a1.003 1.003 0 0 1 1 1v5.2a1 1 0 0 0 2 0v-5.2a3.009 3.009 0 0 0-3-3zM38.2 57a3.009 3.009 0 0 0 3 3h3.2a3.009 3.009 0 0 0 3-3v-2.2h-9.2zm-21.6 0a3.009 3.009 0 0 0 3 3h3.2a3.009 3.009 0 0 0 3-3v-2.2h-9.2zM11 38.4h42v11.4a3.002 3.002 0 0 1-3 3H14a3.009 3.009 0 0 1-3-3zm33 11.2c5.275-.132 5.276-7.867 0-8-5.275.132-5.276 7.867 0 8zm-24 0c5.275-.132 5.276-7.867 0-8-5.275.132-5.276 7.867 0 8zm24-2a2 2 0 0 0 0-4 2 2 0 0 0 0 4zm-24 0a2 2 0 0 0 0-4 2 2 0 0 0 0 4z" opacity="1" data-original="url(#a)"></path></g></svg>