<svg xmlns="http://www.w3.org/2000/svg" version="1.1" xmlns:xlink="http://www.w3.org/1999/xlink" width="512" height="512" x="0" y="0" viewBox="0 0 128 128" style="enable-background:new 0 0 512 512" xml:space="preserve" class=""><rect width="128" height="128" rx="25.6" ry="25.6" fill="#bac8d3" shape="rounded"></rect><g transform="matrix(0.8,0,0,0.8,12.799999999999997,12.799999999999997)"><linearGradient id="a" x1="18" x2="110" y1="64" y2="64" gradientUnits="userSpaceOnUse"><stop offset="0" stop-color="#ff9100"></stop><stop offset="1" stop-color="#ffdd40"></stop></linearGradient><path fill="url(#a)" d="m46.073 67.066.438.89c.026.053.05.106.071.162.021-.056.045-.11.071-.164l.438-.888c-.143-.005-.283-.02-.427-.021h-.166c-.143.002-.282.017-.425.021zm59.462-32.329h-83.07A4.47 4.47 0 0 0 18 39.203v49.594a4.47 4.47 0 0 0 4.465 4.466h83.07A4.47 4.47 0 0 0 110 88.797V39.203a4.47 4.47 0 0 0-4.465-4.466zm-32.06 13.827h12.376a2 2 0 0 1 0 4H73.475a2 2 0 0 1 0-4zm-7.382 37.989H27.071a2 2 0 0 1-2-2c0-9.161 5.767-16.981 13.852-20.076-3.112-2.338-5.138-6.047-5.138-10.23 0-7.058 5.741-12.799 12.797-12.799 7.058 0 12.8 5.741 12.8 12.799 0 4.184-2.027 7.894-5.14 10.23 8.085 3.096 13.852 10.916 13.852 20.076a2.002 2.002 0 0 1-2.001 2zm32.136-7.116H73.475a2 2 0 0 1 0-4h24.754a2 2 0 0 1 0 4zm0-13.437H73.475a2 2 0 0 1 0-4h24.754a2 2 0 0 1 0 4zm-51.686-2.956.039-.002.039.002c4.834-.021 8.761-3.958 8.761-8.798 0-4.852-3.948-8.799-8.8-8.799-4.851 0-8.797 3.947-8.797 8.799 0 4.84 3.926 8.776 8.758 8.798zm4.706 4.638-.498 1.009.674 1.014a4 4 0 0 1 .452 3.553l-3.198 9.296h15.3c-.815-7.15-5.956-12.996-12.73-14.872zm-4.667 1.879a1.953 1.953 0 0 1-.199.385l-1.311 1.973 1.514 4.423 1.51-4.39-1.314-2.005a2.081 2.081 0 0 1-.2-.386zm-4.842.144.674-1.015-.497-1.01C35.142 69.556 30 75.403 29.184 82.552h15.3l-3.197-9.301a4.003 4.003 0 0 1 .453-3.546z" opacity="1" data-original="url(#a)"></path></g></svg>