<svg xmlns="http://www.w3.org/2000/svg" version="1.1" xmlns:xlink="http://www.w3.org/1999/xlink" width="512" height="512" x="0" y="0" viewBox="0 0 64 64" style="enable-background:new 0 0 512 512" xml:space="preserve"><rect width="64" height="64" rx="12.8" ry="12.8" fill="#bac8d3" shape="rounded"></rect><g transform="matrix(0.6,0,0,0.6,12.8,12.806440544128417)"><linearGradient id="a" x1="4" x2="60" y1="32" y2="32" gradientUnits="userSpaceOnUse"><stop offset="0" stop-color="#ffde00"></stop><stop offset="1" stop-color="#fd5900"></stop></linearGradient><path fill="url(#a)" d="M34.54 15.847h11.04v43.54H9a5.002 5.002 0 0 1-5-5v-33.54a5.008 5.008 0 0 1 5-5h20.46l-10.14-9.49a1.002 1.002 0 0 1 1.36-1.47L32 15.487l11.32-10.6a1.002 1.002 0 0 1 1.36 1.47zm25.46 5v33.54a5.002 5.002 0 0 1-5 5h-7.42v-43.54H55a5.008 5.008 0 0 1 5 5zm-6.21 11.78a3 3 0 0 0 0 6 3 3 0 0 0 0-6zm0-10a3 3 0 0 0 0 6 3 3 0 0 0 0-6zm0 2a1 1 0 0 0 0 2 1 1 0 0 0 0-2zm0 10a1 1 0 0 0 0 2 1 1 0 0 0 0-2z" opacity="1" data-original="url(#a)"></path></g></svg>