<svg xmlns="http://www.w3.org/2000/svg" version="1.1" xmlns:xlink="http://www.w3.org/1999/xlink" width="512" height="512" x="0" y="0" viewBox="0 0 64 64" style="enable-background:new 0 0 512 512" xml:space="preserve" class=""><rect width="64" height="64" rx="12.8" ry="12.8" fill="#bac8d3" shape="rounded"></rect><g transform="matrix(0.65,0,0,0.65,11.17644864320755,11.21583881378174)"><linearGradient id="a" x1="4" x2="59.88" y1="32.04" y2="32.04" gradientUnits="userSpaceOnUse"><stop offset="0" stop-color="#9cffac"></stop><stop offset="1" stop-color="#00b59c"></stop></linearGradient><path fill="url(#a)" d="M4 34.69V52.8a4.36 4.36 0 0 0 4.31 4.41h37.52a4.36 4.36 0 0 0 4.31-4.4V34.69zm36.64 13.19h4.86a1 1 0 1 1 0 2h-4.86a1 1 0 0 1 0-2zm-9.34 0h4.86a1 1 0 0 1 0 2H31.3a1 1 0 0 1 0-2zm-9.34 0h4.86a1 1 0 0 1 0 2H22a1 1 0 0 1 0-2zM8 47.36a3.21 3.21 0 0 1 2.87-1.75h4.75a3.27 3.27 0 0 1 0 6.54h-4.75A3.28 3.28 0 0 1 8 47.36zm42.14-16v1.38H4v-1.43a4.36 4.36 0 0 1 4.31-4.41h37.52a4.37 4.37 0 0 1 4.31 4.41zm8 .71-6 4.48v-5.24a6.37 6.37 0 0 0-6.31-6.41H30.29C31 24.33 47.7 11.27 48 11.1l11 14.73a4.43 4.43 0 0 1-.9 6.17zm-41-7.12L39.88 7.79C42.36 6 45.26 7 46.75 9.5L27 24.9zm-6.27 22.66h4.75a1.27 1.27 0 0 1 0 2.54h-4.75a1.27 1.27 0 0 1 0-2.54z" opacity="1" data-original="url(#a)"></path></g></svg>