<svg xmlns="http://www.w3.org/2000/svg" version="1.1" xmlns:xlink="http://www.w3.org/1999/xlink" width="512" height="512" x="0" y="0" viewBox="0 0 1.707 1.707" style="enable-background:new 0 0 512 512" xml:space="preserve" fill-rule="evenodd" class=""><rect width="1.707" height="1.707" rx="0.34140000000000004" ry="0.34140000000000004" fill="#bac8d3" shape="rounded"></rect><g transform="matrix(0.5700000000000001,0,0,0.5700000000000001,0.3670050365291535,0.36679002888500695)"><linearGradient id="a" x1=".156" x2="1.551" y1="-.016" y2="1.683" gradientUnits="userSpaceOnUse"><stop offset="0" stop-color="#f06"></stop><stop offset="1" stop-color="#f96"></stop></linearGradient><path fill="url(#a)" d="M1.685 1.64H.022c-.029 0-.029-.043 0-.043h.27V1.45c0-.012.01-.022.022-.022h.422v-.08a.583.583 0 0 0 .234 0v.08h.423c.012 0 .021.01.021.022v.147h.271c.029 0 .029.043 0 .043zM1.029.396a.022.022 0 0 1-.016-.007.226.226 0 0 0-.32 0C.673.41.643.38.663.36a.27.27 0 0 1 .381 0 .022.022 0 0 1-.015.037zm.049-.087a.022.022 0 0 1-.016-.006.295.295 0 0 0-.418 0c-.02.02-.05-.01-.03-.03a.339.339 0 0 1 .479 0 .022.022 0 0 1-.015.036zm.048-.086a.022.022 0 0 1-.015-.007.364.364 0 0 0-.515 0C.576.236.545.206.565.186c.16-.16.417-.16.577 0a.022.022 0 0 1-.016.037zM.853.555a.091.091 0 1 1 0-.183.091.091 0 0 1 0 .183zm.13.232L.891.593A.134.134 0 0 0 .93.574l.101.213H.983zM.875.597v.19H.832v-.19a.135.135 0 0 0 .043 0zM.815.592.725.787H.676l.1-.213a.134.134 0 0 0 .04.019zm.047.722H.845A.464.464 0 0 1 .38.852C.381.84.391.83.403.83h.9c.013 0 .022.01.022.022a.464.464 0 0 1-.463.463z" opacity="1" data-original="url(#a)"></path></g></svg>