<svg xmlns="http://www.w3.org/2000/svg" version="1.1" xmlns:xlink="http://www.w3.org/1999/xlink" width="512" height="512" x="0" y="0" viewBox="0 0 512 512" style="enable-background:new 0 0 512 512" xml:space="preserve"><rect width="512" height="512" rx="102.4" ry="102.4" fill="#bac8d3" shape="rounded"></rect><g transform="matrix(0.58,0,0,0.58,107.5216774749756,102.51961317387642)"><linearGradient id="a" x1="37.097" x2="474.908" y1="255.998" y2="255.998" gradientUnits="userSpaceOnUse"><stop offset="0" stop-color="#58c8df"></stop><stop offset="1" stop-color="#53a7dd"></stop></linearGradient><path fill="url(#a)" fill-rule="evenodd" d="M244.02 282.173V512H49.08a12 12 0 0 1-11.98-12V278.5a12 12 0 0 1 11.983-12h31.371v-30.161a12.005 12.005 0 0 1 11.039-11.958c58.471-4.713 109.659 5.918 152.527 31.6v26.19zm89.071-113.032v-24.59L262.608 191.2a11.907 11.907 0 0 1-13.21 0l-70.437-46.64v24.581L256 220.17l77.088-51.029zM160.326 185.59l89.074 58.98a11.911 11.911 0 0 0 13.21 0l89.072-58.98a12.014 12.014 0 0 0 5.378-10v-46.93l33.307-22.06a11.994 11.994 0 0 0 0-20.01L262.608 2A11.894 11.894 0 0 0 249.4 2L121.64 86.59c0 .012-.047.02-.047.02a11.626 11.626 0 0 0-1.085.82c-.095.091-.189.17-.283.26-.236.22-.472.441-.708.681-.094.11-.189.219-.283.338a6.557 6.557 0 0 0-.613.762c-.095.1-.142.189-.236.289a11.278 11.278 0 0 0-1.274 2.39.744.744 0 0 0-.094.31 7.188 7.188 0 0 0-.331.99c-.047.13-.047.25-.094.381a7.305 7.305 0 0 0-.188 1.01.976.976 0 0 0-.048.369 13.63 13.63 0 0 0-.094 1.391v57.409a11.983 11.983 0 1 0 23.966 0v-35.07l14.72 9.72v46.931a12.012 12.012 0 0 0 5.378 10zM450.9 488H299.548c34.487-15.669 74.305-21.79 119.03-18.2a12.008 12.008 0 0 0 12.974-11.96V290.5H450.9zM61.111 290.5V488h151.3c-34.44-15.669-74.258-21.79-118.982-18.2a12.006 12.006 0 0 1-12.974-11.96V290.5zm206.875 189.3V255.986c42.867-25.678 94.056-36.309 152.526-31.6a12.005 12.005 0 0 1 11.04 11.958V266.5h31.326a12.009 12.009 0 0 1 12.03 12V500a12.009 12.009 0 0 1-12.03 12H267.986z" opacity="1" data-original="url(#a)"></path></g></svg>