<svg xmlns="http://www.w3.org/2000/svg" version="1.1" xmlns:xlink="http://www.w3.org/1999/xlink" width="512" height="512" x="0" y="0" viewBox="0 0 48 48" style="enable-background:new 0 0 512 512" xml:space="preserve"><rect width="48" height="48" rx="9.6" ry="9.6" fill="#bac8d3" shape="rounded"></rect><g transform="matrix(0.7399999999999999,0,0,0.7399999999999999,6.240000495910653,6.379359693527231)"><linearGradient id="a" x1="24" x2="24" y1="45.01" y2="4.062" gradientUnits="userSpaceOnUse"><stop offset="0" stop-color="#d120e8"></stop><stop offset="1" stop-color="#3717fb"></stop></linearGradient><path fill="url(#a)" d="M23.99 9.68c-12.949.005-18.648 16.523-8.49 24.49a6.444 6.444 0 0 0 1.48 5.07 5.549 5.549 0 0 0 5.53 5.77h2.98a5.549 5.549 0 0 0 5.53-5.77 6.456 6.456 0 0 0 1.48-5.08c10.154-7.982 4.43-24.476-8.51-24.48zm-4.17 12.75 4.45-6.05a.998.998 0 0 1 1.61 1.18c-.738 1-2.528 3.44-3.28 4.47 1.014-.01 3.8.007 4.85 0a1.002 1.002 0 0 1 .8 1.6l-4.48 5.97a1 1 0 1 1-1.6-1.2l1.18-1.57 2.1-2.8h-4.83a1.009 1.009 0 0 1-.8-1.6zm8.99 18.26h-.01a3.528 3.528 0 0 1-3.31 2.32h-2.98a3.528 3.528 0 0 1-3.31-2.32h-.01a3.978 3.978 0 0 1-.17-.68h9.96a3.984 3.984 0 0 1-.17.68zm1.69-5.21a3.568 3.568 0 0 1-1.06 2.53H18.56a3.76 3.76 0 0 1-1.06-2.98h13zM25.006 7.687h-2V4.062h2zm-9.723 2.599-1.813-3.14 1.733-1 1.812 3.14zm-4.39 4.38-1 1.732-3.139-1.813 1-1.732zm30.353-.059-3.14 1.813-1-1.733 3.14-1.812zm-8.52-4.309-1.732-1 1.813-3.139 1.732 1z" opacity="1" data-original="url(#a)"></path></g></svg>