<svg xmlns="http://www.w3.org/2000/svg" version="1.1" xmlns:xlink="http://www.w3.org/1999/xlink" width="512" height="512" x="0" y="0" viewBox="0 0 3873 3873" style="enable-background:new 0 0 512 512" xml:space="preserve"><rect width="3873" height="3873" rx="774.6" ry="774.6" fill="#bac8d3" shape="rounded"></rect><g transform="matrix(0.72,0,0,0.72,542.7939965820315,543.8440136718752)"><linearGradient id="a" x1="758.061" x2="2939.861" y1="666.539" y2="2848.339" gradientUnits="userSpaceOnUse"><stop offset="0" stop-color="#fc00ff"></stop><stop offset="1" stop-color="#00dbde"></stop></linearGradient><path fill="url(#a)" fill-rule="evenodd" d="M3510.3 1972.8c-64 44.8-139.7 68.7-218.3 68.7-204.1 0-372-160.8-381.1-364.1H1067c-16.8.3-33.1-8.8-41.2-24.8l-266.9-524.4-462.8.3L701 2062.9c37.4 86.3 122.7 144.3 220.2 144.3H3581c-6.6-84.6-31.5-164.1-70.7-234.4zM1203.8 1922c0 25-20.3 45.3-45.3 45.3s-45.3-20.3-45.3-45.3v-65.7c0-25 20.3-45.3 45.3-45.3s45.3 20.3 45.3 45.3zm256.4 0c0 25-20.3 45.3-45.3 45.3s-45.3-20.3-45.3-45.3v-65.7c0-25 20.3-45.3 45.3-45.3s45.3 20.3 45.3 45.3zm256.4 0c0 25-20.3 45.3-45.3 45.3S1626 1947 1626 1922v-65.7c0-25 20.3-45.3 45.3-45.3s45.3 20.3 45.3 45.3zm256.4 0c0 25-20.3 45.3-45.3 45.3s-45.3-20.3-45.3-45.3v-65.7c0-25 20.3-45.3 45.3-45.3s45.3 20.3 45.3 45.3zm256.4 0c0 25-20.3 45.3-45.3 45.3s-45.3-20.3-45.3-45.3v-65.7c0-25 20.3-45.3 45.3-45.3s45.3 20.3 45.3 45.3zm256.4 0c0 25-20.3 45.3-45.3 45.3s-45.3-20.3-45.3-45.3v-65.7c0-25 20.3-45.3 45.3-45.3s45.3 20.3 45.3 45.3zm256.4 0c0 25-20.3 45.3-45.3 45.3s-45.3-20.3-45.3-45.3v-65.7c0-25 20.3-45.3 45.3-45.3s45.3 20.3 45.3 45.3zm-441.8-335.3-563-525.7h-165.9l307.9 525.7zm-728.9 1236.9h165.9l563-525.7h-421zm1720.4-872.8c61.2 0 119.4-18.9 168.1-53.4-187.2-238.2-454.4-219-458.4-220 9 152.8 135.8 273.4 290.3 273.4z" clip-rule="evenodd" opacity="1" data-original="url(#a)"></path></g></svg>