<svg xmlns="http://www.w3.org/2000/svg" version="1.1" xmlns:xlink="http://www.w3.org/1999/xlink" width="512" height="512" x="0" y="0" viewBox="0 0 491.5 491.5" style="enable-background:new 0 0 512 512" xml:space="preserve"><rect width="491.5" height="491.5" rx="98.3" ry="98.3" fill="#bac8d3" shape="rounded"></rect><g transform="matrix(0.6199999999999999,0,0,0.6199999999999999,93.40399971008301,88.38500579833985)"><linearGradient id="a" x1="245.8" x2="245.8" y1="38.3" y2="453.2" gradientUnits="userSpaceOnUse"><stop offset="0" stop-color="#f704fe"></stop><stop offset="1" stop-color="#24bce3"></stop></linearGradient><path fill="url(#a)" d="M104.5 396.6h17.2v17.2h-17.2zm310.6 0h17.2v17.2h-17.2zM104.5 295h17.2v17.2h-17.2zm0 50.8h17.2V363h-17.2zm310.6 0h17.2V363h-17.2zM203.3 106.3v17.9h84.9v-17.9zm116.6-68H171.7v58.5h148.2zM285.5 83H206c-2.6 0-4.7-2.1-4.7-4.7s2.1-4.7 4.7-4.7h79.5c2.6 0 4.7 2.1 4.7 4.7.1 2.6-2.1 4.7-4.7 4.7zm0-21.4H206c-2.6 0-4.7-2.1-4.7-4.7s2.1-4.7 4.7-4.7h79.5c2.6 0 4.7 2.1 4.7 4.7.1 2.6-2.1 4.7-4.7 4.7zM59.3 295h17.2v17.2H59.3zm110-40.1h17.2v17.2h-17.2zm-110 141.7h17.2v17.2H59.3zM415.1 295h17.2v17.2h-17.2zM59.3 345.8h17.2V363H59.3zm289.6-73.9v181.3h104.4V271.9zm42.9 151.3h-26.6c-2.6 0-4.7-2.1-4.7-4.7v-26.6c0-2.6 2.1-4.7 4.7-4.7h26.6c2.6 0 4.7 2.1 4.7 4.7v26.6c0 2.6-2.1 4.7-4.7 4.7zm0-50.8h-26.6c-2.6 0-4.7-2.1-4.7-4.7v-26.6c0-2.6 2.1-4.7 4.7-4.7h26.6c2.6 0 4.7 2.1 4.7 4.7v26.6c0 2.6-2.1 4.7-4.7 4.7zm0-50.7h-26.6c-2.6 0-4.7-2.1-4.7-4.7v-26.6c0-2.6 2.1-4.7 4.7-4.7h26.6c2.6 0 4.7 2.1 4.7 4.7V317c0 2.6-2.1 4.7-4.7 4.7zM437 423.2h-26.6c-2.6 0-4.7-2.1-4.7-4.7v-26.6c0-2.6 2.1-4.7 4.7-4.7H437c2.6 0 4.7 2.1 4.7 4.7v26.6c0 2.6-2.1 4.7-4.7 4.7zm0-50.8h-26.6c-2.6 0-4.7-2.1-4.7-4.7v-26.6c0-2.6 2.1-4.7 4.7-4.7H437c2.6 0 4.7 2.1 4.7 4.7v26.6c0 2.6-2.1 4.7-4.7 4.7zm0-50.7h-26.6c-2.6 0-4.7-2.1-4.7-4.7v-26.6c0-2.6 2.1-4.7 4.7-4.7H437c2.6 0 4.7 2.1 4.7 4.7V317c0 2.6-2.1 4.7-4.7 4.7zm-132-66.8h17.2v17.2H305zm-65.6-53.8v20.5h12.7v-20.5c0-2.6 2.1-4.7 4.7-4.7h20.5v-12.7h-20.5c-2.6 0-4.7-2.1-4.7-4.7v-20.5h-12.7V179c0 2.6-2.1 4.7-4.7 4.7h-20.5v12.7h20.5c2.6 0 4.7 2.1 4.7 4.7zm130.5 195.5h17.2v17.2h-17.2zM305 304h17.2v17.2H305zM152.1 453.2h57.2V375h-13.9c-2.6 0-4.7-2.1-4.7-4.7v-20.6c0-2.6 2.1-4.7 4.7-4.7h100.7c2.6 0 4.7 2.1 4.7 4.7v20.6c0 2.6-2.1 4.7-4.7 4.7h-13.9v78.2h57.2V133.7H152.1zm84.4-122.5h-26.6c-2.6 0-4.7-2.1-4.7-4.7v-26.6c0-2.6 2.1-4.7 4.7-4.7h26.6c2.6 0 4.7 2.1 4.7 4.7V326c0 2.6-2.1 4.7-4.7 4.7zm-31.4-53.9v-26.6c0-2.6 2.1-4.7 4.7-4.7h26.6c2.6 0 4.7 2.1 4.7 4.7v26.6c0 2.6-2.1 4.7-4.7 4.7h-26.6c-2.6 0-4.7-2.1-4.7-4.7zm76.6 53.9H255c-2.6 0-4.7-2.1-4.7-4.7v-26.6c0-2.6 2.1-4.7 4.7-4.7h26.7c2.6 0 4.7 2.1 4.7 4.7V326c0 2.6-2.1 4.7-4.7 4.7zm-31.4-53.9v-26.6c0-2.6 2.1-4.7 4.7-4.7h26.7c2.6 0 4.7 2.1 4.7 4.7v26.6c0 2.6-2.1 4.7-4.7 4.7H255c-2.6 0-4.7-2.1-4.7-4.7zm76.6 53.9h-26.6c-2.6 0-4.7-2.1-4.7-4.7v-26.6c0-2.6 2.1-4.7 4.7-4.7h26.6c2.6 0 4.7 2.1 4.7 4.7V326c.1 2.6-2.1 4.7-4.7 4.7zm-31.4-80.5c0-2.6 2.1-4.7 4.7-4.7h26.6c2.6 0 4.7 2.1 4.7 4.7v26.6c0 2.6-2.1 4.7-4.7 4.7h-26.6c-2.6 0-4.7-2.1-4.7-4.7zm-90.8-71.3c0-2.6 2.1-4.7 4.7-4.7h20.5v-20.5c0-2.6 2.1-4.7 4.7-4.7h22.2c2.6 0 4.7 2.1 4.7 4.7v20.5H282c2.6 0 4.7 2.1 4.7 4.7v22.2c0 2.6-2.1 4.7-4.7 4.7h-20.5v20.5c0 2.6-2.1 4.7-4.7 4.7h-22.2c-2.6 0-4.7-2.1-4.7-4.7v-20.5h-20.5c-2.6 0-4.7-2.1-4.7-4.7zm-13.4 151.8h-26.7c-2.6 0-4.7-2.1-4.7-4.7v-26.6c0-2.6 2.1-4.7 4.7-4.7h26.7c2.6 0 4.7 2.1 4.7 4.7V326c0 2.6-2.1 4.7-4.7 4.7zm-31.4-80.5c0-2.6 2.1-4.7 4.7-4.7h26.7c2.6 0 4.7 2.1 4.7 4.7v26.6c0 2.6-2.1 4.7-4.7 4.7h-26.7c-2.6 0-4.7-2.1-4.7-4.7zm210 95.6h17.2V363h-17.2zM169.3 304h17.2v17.2h-17.2zm49.5 149.2h53.9v-78.1h-53.9zm-18.6-98.7h91.2v11.1h-91.2zM38.3 271.9v181.3h104.4V271.9zm42.9 151.3H54.6c-2.6 0-4.7-2.1-4.7-4.7v-26.6c0-2.6 2.1-4.7 4.7-4.7h26.6c2.6 0 4.7 2.1 4.7 4.7v26.6c0 2.6-2.1 4.7-4.7 4.7zm0-50.8H54.6c-2.6 0-4.7-2.1-4.7-4.7v-26.6c0-2.6 2.1-4.7 4.7-4.7h26.6c2.6 0 4.7 2.1 4.7 4.7v26.6c0 2.6-2.1 4.7-4.7 4.7zm0-50.7H54.5c-2.6 0-4.7-2.1-4.7-4.7v-26.6c0-2.6 2.1-4.7 4.7-4.7h26.6c2.6 0 4.7 2.1 4.7 4.7V317c.1 2.6-2 4.7-4.6 4.7zm49.9 96.8c0 2.6-2.1 4.7-4.7 4.7H99.7c-2.6 0-4.7-2.1-4.7-4.7v-26.6c0-2.6 2.1-4.7 4.7-4.7h26.7c2.6 0 4.7 2.1 4.7 4.7zm0-50.8c0 2.6-2.1 4.7-4.7 4.7H99.7c-2.6 0-4.7-2.1-4.7-4.7v-26.6c0-2.6 2.1-4.7 4.7-4.7h26.7c2.6 0 4.7 2.1 4.7 4.7zm0-50.8c0 2.6-2.1 4.7-4.7 4.7H99.7c-2.6 0-4.7-2.1-4.7-4.7v-26.6c0-2.6 2.1-4.7 4.7-4.7h26.7c2.6 0 4.7 2.1 4.7 4.7zm83.5-12.9h17.2v17.2h-17.2zm45.2 0H277v17.2h-17.2zm-45.2-49.1h17.2v17.2h-17.2zm45.2 0H277v17.2h-17.2zM369.9 295h17.2v17.2h-17.2z" opacity="1" data-original="url(#a)"></path></g></svg>