<svg xmlns="http://www.w3.org/2000/svg" version="1.1" xmlns:xlink="http://www.w3.org/1999/xlink" width="512" height="512" x="0" y="0" viewBox="0 0 512 512" style="enable-background:new 0 0 512 512" xml:space="preserve"><rect width="512" height="512" rx="102.4" ry="102.4" fill="#bac8d3" shape="rounded"></rect><g transform="matrix(0.65,0,0,0.65,89.6,79.59999599456788)"><linearGradient id="a" x1="93.788" x2="418.163" y1="174.888" y2="499.263" gradientUnits="userSpaceOnUse"><stop offset="0" stop-color="#00dbde"></stop><stop offset="1" stop-color="#fc00ff"></stop></linearGradient><path fill="url(#a)" d="M216.5 90.8h79.2v18.3h-79.2zm94.9-18.9c0 5-4.1 9.2-9.2 9.2h-92.4c-5 0-9.2-4.1-9.2-9.2s4.1-9.2 9.2-9.2h92.5c4.9.1 9.1 4.2 9.1 9.2zm-170.7 192h17.2v17.2h-17.2zm176.5-145.1H194.8c-3 0-5.4 2.4-5.4 5.4v305.4h20.2v-88c0-2.7 2.2-4.9 4.9-4.9h83c2.7 0 4.9 2.2 4.9 4.9v88h20.2V124.2c0-2.9-2.4-5.4-5.4-5.4zm-14.8 187c0 2.7-2.2 4.9-4.9 4.9h-83c-2.7 0-4.9-2.2-4.9-4.9v-32.4c0-2.7 2.2-4.9 4.9-4.9h83c2.7 0 4.9 2.2 4.9 4.9zm0-61.8c0 2.7-2.2 4.9-4.9 4.9h-83c-2.7 0-4.9-2.2-4.9-4.9v-32.4c0-2.7 2.2-4.9 4.9-4.9h83c2.7 0 4.9 2.2 4.9 4.9zm0-61.7c0 2.7-2.2 4.9-4.9 4.9h-83c-2.7 0-4.9-2.2-4.9-4.9v-32.4c0-2.7 2.2-4.9 4.9-4.9h83c2.7 0 4.9 2.2 4.9 4.9zm-83 96h73.3V301h-73.3zm0-61.8h73.3v22.7h-73.3zm0-61.7h73.3v22.7h-73.3zm0 191.8h31.7v83.1h-31.7zm41.5 0h31.7v83.1h-31.7zM387.8 171h-55.4v258.8h60.8V176.4c-.1-3-2.6-5.4-5.4-5.4zm-6.7 226.3c0 2.7-2.2 4.9-4.9 4.9h-27c-2.7 0-4.9-2.2-4.9-4.9v-27c0-2.7 2.2-4.9 4.9-4.9h27c2.7 0 4.9 2.2 4.9 4.9zm0-55.6c0 2.7-2.2 4.9-4.9 4.9h-27c-2.7 0-4.9-2.2-4.9-4.9v-27c0-2.7 2.2-4.9 4.9-4.9h27c2.7 0 4.9 2.2 4.9 4.9zm0-55.7c0 2.7-2.2 4.9-4.9 4.9h-27c-2.7 0-4.9-2.2-4.9-4.9v-27c0-2.7 2.2-4.9 4.9-4.9h27c2.7 0 4.9 2.2 4.9 4.9zm0-55.6c0 2.7-2.2 4.9-4.9 4.9h-27c-2.7 0-4.9-2.2-4.9-4.9v-27c0-2.7 2.2-4.9 4.9-4.9h27c2.7 0 4.9 2.2 4.9 4.9zm-26.9-22.1h17.2v17.2h-17.2zm0 55.6h17.2v17.2h-17.2zm0 55.6h17.2v17.2h-17.2zm0 55.7h17.2v17.2h-17.2zM124.2 171c-3 0-5.4 2.4-5.4 5.4v253.4h60.8V171zm43.4 226.3c0 2.7-2.2 4.9-4.9 4.9h-27c-2.7 0-4.9-2.2-4.9-4.9v-27c0-2.7 2.2-4.9 4.9-4.9h27c2.7 0 4.9 2.2 4.9 4.9zm0-55.6c0 2.7-2.2 4.9-4.9 4.9h-27c-2.7 0-4.9-2.2-4.9-4.9v-27c0-2.7 2.2-4.9 4.9-4.9h27c2.7 0 4.9 2.2 4.9 4.9zm0-55.7c0 2.7-2.2 4.9-4.9 4.9h-27c-2.7 0-4.9-2.2-4.9-4.9v-27c0-2.7 2.2-4.9 4.9-4.9h27c2.7 0 4.9 2.2 4.9 4.9zm0-55.6c0 2.7-2.2 4.9-4.9 4.9h-27c-2.7 0-4.9-2.2-4.9-4.9v-27c0-2.7 2.2-4.9 4.9-4.9h27c2.7 0 4.9 2.2 4.9 4.9zm-26.9 144.8h17.2v17.2h-17.2zm0-55.7h17.2v17.2h-17.2zm0-111.2h17.2v17.2h-17.2zM471 444.4c0 2.7-2.2 4.9-4.9 4.9H45.9c-2.7 0-4.9-2.2-4.9-4.9s2.2-4.9 4.9-4.9h420.3c2.6 0 4.8 2.2 4.8 4.9zM77.9 399.7v29.9h-9.8v-29.9c1.6.4 3.2.7 4.9.7s3.4-.1 4.9-.7zm11.9-43.1c0 16-5.6 28.1-11.9 32.4v-32.4c0-2.7-2.2-4.9-4.9-4.9s-4.9 2.2-4.9 4.9V389c-6.3-4.3-11.9-16.4-11.9-32.4 0-20.1 8.8-34.1 16.8-34.1s16.8 13.9 16.8 34.1zm354.1 43.1v29.9h-9.8v-29.9c1.6.4 3.2.7 4.9.7 1.6 0 3.2-.1 4.9-.7zm11.8-43.1c0 16-5.6 28.1-11.9 32.4v-32.4c0-2.7-2.2-4.9-4.9-4.9s-4.9 2.2-4.9 4.9V389c-6.3-4.3-11.9-16.4-11.9-32.4 0-20.1 8.8-34.1 16.8-34.1s16.8 13.9 16.8 34.1z" opacity="1" data-original="url(#a)"></path></g></svg>