<svg xmlns="http://www.w3.org/2000/svg" version="1.1" xmlns:xlink="http://www.w3.org/1999/xlink" width="512" height="512" x="0" y="0" viewBox="0 0 64 64" style="enable-background:new 0 0 512 512" xml:space="preserve"><rect width="64" height="64" rx="12.8" ry="12.8" fill="#bac8d3" shape="rounded"></rect><g transform="matrix(0.6699999999999999,0,0,0.6699999999999999,10.559805507659917,10.559999370574953)"><linearGradient id="a" x1="4.001" x2="59.999" y1="32" y2="32" gradientUnits="userSpaceOnUse"><stop offset="0" stop-color="#00c0ff"></stop><stop offset="1" stop-color="#5558ff"></stop></linearGradient><path fill="url(#a)" d="m59.9 19.32-1.81 3.64a1.005 1.005 0 0 1-1.34.45c-2.507-1.235-13.345-6.575-16.04-7.9-1.343.674-33.5 16.9-33.58 16.94a1.003 1.003 0 0 1-1.36-.48L4.09 28.3a1.004 1.004 0 0 1 .46-1.31l35.7-18.01a1.05 1.05 0 0 1 .9-.01c1.426.695 18.29 9.01 18.29 9.01a1.008 1.008 0 0 1 .51.58 1.052 1.052 0 0 1-.05.76zM27.18 37.51c-1.236.006-17.871-.005-18.64 0v16.62a1.003 1.003 0 0 0 1 1h4.94V43.54a.997.997 0 0 1 1-1h6.75a.99.99 0 0 1 1 1c.003 1.455-.001 10.36 0 11.59h3.95c-.01-.318.008-16.627 0-17.62zm8.24 11.19h12.02v-5.4H35.42zm-18.94 6.43h4.75V44.54h-4.75zm10.7-30.55-11.85 5.98h11.85zm-18.64 9.4v1.53h18.64v-2.95H11.36zm32.18-16.23c1.293.622 13.44 6.632 14.36 7.06v10.7h-25.9V23.57zm7.72 4.96H34.42a.997.997 0 0 0-1 1v7.41a.997.997 0 0 0 1 1h14.02a1.003 1.003 0 0 0 1-1v-7.41a1.003 1.003 0 0 0-1-1zm-1 2H35.42v5.41h12.02zm7.64 12.8v16.62a1.003 1.003 0 0 1-1 1h-24.9c.006-.358-.007-16.585 0-17.62zm-5.64 4.79a1.003 1.003 0 0 0-1-1H34.42a.997.997 0 0 0-1 1v7.4a.997.997 0 0 0 1 1h14.02a1.003 1.003 0 0 0 1-1zm5.64-32.43a1.003 1.003 0 0 0-1-1h-4.23a1.003 1.003 0 0 0-1 1v.67l6.23 3.06z" opacity="1" data-original="url(#a)"></path></g></svg>