<svg xmlns="http://www.w3.org/2000/svg" version="1.1" xmlns:xlink="http://www.w3.org/1999/xlink" width="512" height="512" x="0" y="0" viewBox="0 0 64 64" style="enable-background:new 0 0 512 512" xml:space="preserve"><rect width="64" height="64" rx="12.8" ry="12.8" fill="#bac8d3" shape="rounded"></rect><g transform="matrix(0.68,0,0,0.68,10.237352294921873,10.240458831787109)"><linearGradient id="a" x1="2" x2="61.983" y1="32.001" y2="32.001" gradientUnits="userSpaceOnUse"><stop offset="0" stop-color="#00c0ff"></stop><stop offset="1" stop-color="#5558ff"></stop></linearGradient><path fill="url(#a)" d="M13.52 14.45c3.8-3.68 14.32-12.1 28.24-8.59-4.809 1.402-10.722 7.355-12.23 9.53-3.224-2.59-7.834-2.833-11.6-2.11-1.652.284-3.168.741-4.41 1.17zm-.84 3.26c.92.14 4.66.94 5.14 4.02 1.45-2.303 3.402-4.809 5.95-6.63-3.268-.477-6.762.284-9.23 1.15-1.13.37-2.05.75-2.63 1.01.07.11.597.42.77.45zm21.4 10.94c.483-1.111 3.898-8.824 4.47-10.12a14.754 14.754 0 0 0-1.25-.35c-2.938.986-6.11 6.723-7.72 10.24.8-.12 2.5-.27 4.5.23zm.26-10.96c-3.04-.311-4.084.272-5.01.08-1.042-.759-1.584-1.374-2.91-1.92-2.899 1.392-5.18 4.286-6.78 6.75 1.82-.03 6.53.37 8.15 4.92 1.497-3.242 3.678-7.335 6.55-9.83zm15.27-8.26c2.114 4.524 1.612 12.828.97 15.4 1.21.23 2.302.667 3.33 1.28 4.118 2.448 6.613 7.47 7.96 11.62.31-3.47.9-19.23-12.26-28.3zm10.23 28.56c-1.09-3.08-2.59-6.296-5.14-8.76.308 3.032-.145 5.956-.8 8.49 2.52-1.48 5.44.65 6.2 1.26.195.183-.219-.756-.26-.99zM49.3 26.67c-.27-.033-.54-.166-.7-.39-.69-1.04-1.932-2.602-2.94-3.52.087 3.661-1.278 7.966-2.55 11.33 4.44-1.58 7.82 1.86 8.86 3.1.139-.57.345-1.411.5-2.4.35-2.12.56-4.92-.15-7.26-.92-.46-1.92-.77-3.02-.86zm-8.23 7.13c-1.02-1.56-2.17-2.69-3.34-3.5 0 0-6.31 13.81-6.704 14.434-.75 4.283-3.216 8.081-6.956 10.456l-6.88 4.39c-.326.211-.748.21-1.08 0l-6.88-4.39C4.7 52.31 2 47.36 2 41.95V31.62c0-.53.41-.96.94-.99 4.723-.078 9.377-1.134 13.22-3.57.619-.43 1.506.34 2.02.59 3.529 2.056 7.916 2.885 12.18 2.98.53.03.94.46.94.99v8.29c.533-1.187 9.12-20.67 9.12-20.67.96.443 2.039.946 2.88 1.64 1.263 2.701-.913 9.617-2.23 12.92zM16.11 55.09c.33.2.755.2 1.08 0l4.87-3.11c.47-.3.61-.92.31-1.38-.3-.47-.92-.6-1.38-.31l-4.34 2.77-4.34-2.77c-2.71-1.73-4.33-4.69-4.33-7.93-.015-1.319-1.978-1.314-2 0 0 3.92 1.97 7.52 5.26 9.62l4.87 3.11zm6.62-14.63c.44-.34.52-.97.18-1.41a1 1 0 0 0-1.4-.17L14.92 44l-1.71-1.9c-.89-.962-2.361.362-1.49 1.34l2.34 2.59c.357.395.95.436 1.36.12l7.31-5.69zm2.59-4.47v6.37c.028 1.317 1.972 1.31 2 0v-7.32c0-.53-.41-.97-.94-1l-1.44-.08c-2.907-.143-5.454-.996-7.8-2.4-.3-.17-.68-.17-.98 0-2.34 1.404-4.89 2.258-7.8 2.4l-1.43.08a1.003 1.003 0 0 0 .11 2l1.43-.08c3.01-.158 5.73-.985 8.18-2.38a18.292 18.292 0 0 0 8.18 2.38l.49.03zm6.61-20.35c5.738-.273 12.679 2.23 16.88 7.58.56-3.503.744-10.994-2.21-15.25.092-.183.967-2.175 1.02-2.3.22-.51 0-1.1-.51-1.32-.5-.22-1.09 0-1.32.51-.045.117-1.02 2.29-1.02 2.29-5.129.661-10.602 5.73-12.84 8.49z" opacity="1" data-original="url(#a)"></path></g></svg>