<svg xmlns="http://www.w3.org/2000/svg" version="1.1" xmlns:xlink="http://www.w3.org/1999/xlink" width="512" height="512" x="0" y="0" viewBox="0 0 512 512" style="enable-background:new 0 0 512 512" xml:space="preserve" class=""><rect width="512" height="512" rx="102.4" ry="102.4" fill="#bac8d3" shape="rounded"></rect><g transform="matrix(0.7,0,0,0.7,76.80430297851564,76.81500091552735)"><linearGradient id="a" x1="256.014" x2="256.014" y1="76.9" y2="435.2" gradientUnits="userSpaceOnUse"><stop offset="0" stop-color="#f704fe"></stop><stop offset="1" stop-color="#24bce3"></stop></linearGradient><path fill="url(#a)" d="M461 187.8c.8 3.7-.2 7.4-2.5 10.3-2.4 2.9-6 4.6-9.8 4.6l-62.5.1c-6.9 0-12.5-5.5-12.5-12.5v-22.8c0-7.4-4.8-14.1-11.8-16.3-25.6-9-74.1-14.3-106-14.1-31.8 0-80.1 5.4-106.1 14.3-6.8 2.5-11.5 9-11.7 16.3v22.8c0 6.9-5.6 12.5-12.5 12.5H63.3c-3.8 0-7.4-1.8-9.8-4.7s-3.2-6.7-2.5-10.3c7.5-38.1 31.1-67 70-85.8 34.6-16.8 80.1-25.3 135.1-25.3h.5c54.7 0 100.1 8.5 134.6 25.2 38.8 18.8 62.3 47.7 69.8 85.7zm-38.8 226.8v19c0 .9-.7 1.6-1.6 1.6H91.4c-.9 0-1.6-.7-1.6-1.6v-19zM317.5 195.5v34.2h-17.6v-34.2c0-4.8 4-8.8 8.8-8.8s8.8 3.9 8.8 8.8zM256 264.4c31.8 0 57.7 25.9 57.7 57.7s-25.9 57.7-57.7 57.7-57.7-25.9-57.7-57.7 25.9-57.7 57.7-57.7zm47.6 57.8c0-.4 0-.6-.1-1l-.3-.9c-.1-.4-.3-.6-.4-.9-.2-.3-.4-.4-.6-.7s-.4-.4-.7-.6-.6-.4-.9-.4c-.3-.1-.5-.2-.9-.3-.6-.1-1.3-.1-1.9 0l-.9.3c-.4.1-.6.3-.9.4-.3.2-.4.4-.7.6s-.4.4-.6.7-.4.6-.4.9c-.1.3-.2.5-.3.9s-.1.6-.1 1 0 .6.1 1l.3.9c.1.4.3.6.4.9.2.3.4.4.6.7s.4.4.7.6.6.4.9.4c.3.1.5.2.9.3s.6.1 1 .1.6-.1 1-.1l.9-.3c.3-.1.6-.3.9-.4.3-.2.4-.4.7-.6s.4-.4.6-.7.4-.6.4-.9c.1-.3.2-.5.3-.9v-1zm-12.4 30.3c0-.4 0-.6-.1-1l-.3-.9c-.1-.3-.3-.6-.4-.9-.2-.3-.4-.4-.6-.7-.3-.3-.5-.4-.8-.6s-.6-.4-.9-.4c-.3-.1-.5-.2-.9-.3-.6-.1-1.3-.1-1.9 0l-.9.3c-.4.1-.6.3-.9.4-.3.2-.4.4-.7.6s-.4.4-.6.7-.4.6-.4.9c-.1.3-.2.5-.3.9s-.1.6-.1 1c0 .3 0 .6.1 1l.3.9c.1.4.3.6.4.9.2.3.4.4.6.7s.4.4.7.6.6.4.9.4c.3.1.5.2.9.3.3.1.6.1 1 .1.3 0 .6 0 1.1-.1l.9-.3c.4-.1.6-.3.9-.4.3-.2.4-.3.7-.6.3-.2.4-.4.6-.7s.3-.6.4-.9.2-.5.3-.9v-1zm-.1-60.6c0-.4 0-.6-.1-1l-.3-.9c-.1-.3-.3-.6-.4-.9-.2-.3-.4-.4-.6-.7-1.1-1.1-2.8-1.7-4.4-1.3l-.9.3c-.4.1-.6.3-.9.4-.3.2-.4.3-.7.6-.3.2-.4.4-.6.7s-.4.6-.4.9c-.1.3-.2.5-.3.9s-.1.6-.1 1 0 .6.1 1l.3.9c.1.4.3.6.4.9.2.3.4.4.6.7s.4.4.7.6.6.4.9.4c.3.1.5.2.9.3.3.1.6.1 1 .1 1.2 0 2.5-.5 3.4-1.4.3-.2.4-.4.6-.7s.3-.6.4-.9.2-.5.3-.9.1-.6.1-1zm-7.3 30.2c0-15.4-12.5-27.9-27.8-27.9-15.4 0-27.9 12.5-27.9 27.9s12.5 27.8 27.9 27.8c15.4.1 27.8-12.4 27.8-27.8zM260.9 365c0-.4 0-.6-.1-1l-.3-.9c-.1-.4-.3-.6-.4-.9-.2-.3-.4-.4-.6-.7s-.5-.4-.8-.6-.6-.4-.9-.4c-.3-.1-.5-.2-.9-.3-1.6-.3-3.3.2-4.4 1.3-.3.2-.4.4-.6.7s-.4.6-.4.9c-.1.3-.2.5-.3.9s-.1.6-.1 1c0 1.2.5 2.5 1.4 3.4s2.1 1.4 3.4 1.4c.3 0 .6-.1 1.1-.1l.9-.3c.3-.1.6-.3.9-.4.3-.2.4-.4.7-.6s.4-.4.6-.7.4-.6.4-.9c.1-.3.2-.5.3-.9.1-.3.1-.5.1-.9zm-.1-85.6c0-.4 0-.6-.1-1l-.3-.9c-.1-.3-.3-.6-.4-.9-.2-.3-.4-.4-.6-.7-1.1-1.1-2.8-1.7-4.4-1.3l-.9.3c-.3.1-.6.3-.9.4-.3.2-.4.4-.7.6s-.4.4-.6.7-.4.6-.4.9c-.1.3-.2.5-.3.9s-.1.6-.1 1 0 .6.1 1l.3.9c.1.4.3.6.4.9.2.3.4.4.6.7s.4.4.7.6.6.4.9.4c.3.1.5.2.9.3.3.1.6.1 1 .1.3 0 .6 0 1-.1l.9-.3c.3-.1.6-.3.9-.4.3-.2.5-.4.7-.6.3-.2.4-.4.6-.7s.4-.6.4-.9c.1-.3.2-.5.3-.9v-1zm-30.3 12.5c0-.4 0-.6-.1-1l-.3-.9c-.1-.3-.3-.6-.4-.9-.2-.3-.4-.4-.6-.7s-.4-.4-.7-.6-.6-.4-.9-.4c-.3-.1-.5-.2-.9-.3-.6-.1-1.3-.1-1.9 0l-.9.3c-.4.1-.6.3-.9.4-.3.2-.4.3-.7.6-.3.2-.4.4-.6.7s-.3.6-.4.9-.2.5-.3.9-.1.6-.1 1 0 .6.1 1l.3.9c.1.4.3.6.4.9.2.3.4.4.6.7s.4.4.7.6.6.4.9.4c.3.1.5.2.9.3.3.1.6.1 1 .1 1.3 0 2.5-.5 3.4-1.4.3-.2.4-.4.6-.7s.4-.6.4-.9c.1-.3.2-.5.3-.9s.1-.6.1-1zm0 60.6c0-.4 0-.6-.1-1l-.3-.9c-.1-.3-.3-.6-.4-.9-.2-.3-.4-.4-.6-.7s-.4-.4-.7-.6-.6-.4-.9-.4c-.3-.1-.5-.2-.9-.3-1.6-.4-3.2.2-4.4 1.3-.3.2-.4.4-.6.7s-.3.6-.4.9-.2.5-.3.9-.1.6-.1 1c0 .3 0 .6.1 1l.3.9c.1.4.3.6.4.9.2.3.4.4.6.7.9.9 2.1 1.4 3.4 1.4.3 0 .6 0 1-.1l.9-.3c.4-.1.6-.3.9-.4.3-.2.4-.3.7-.6.3-.2.4-.4.6-.7s.4-.6.4-.9c.1-.3.2-.5.3-.9s.1-.7.1-1zM218 322.2c0-.4 0-.6-.1-1l-.3-.9c-.1-.4-.3-.6-.4-.9-.2-.3-.3-.4-.6-.7-.2-.3-.4-.4-.7-.6s-.6-.4-.9-.4c-.3-.1-.5-.2-.9-.3-.6-.1-1.3-.1-1.9 0l-.9.3c-.3.1-.6.3-.9.4-.3.2-.4.4-.7.6s-.4.4-.6.7-.4.6-.4.9c-.1.3-.2.5-.3.9s-.1.6-.1 1 0 .6.1 1l.3.9c.1.4.3.6.4.9.2.3.4.4.6.7.9.9 2.1 1.4 3.4 1.4.3 0 .6-.1 1-.1l.9-.3c.4-.1.6-.3.9-.4.3-.2.4-.4.7-.6s.4-.4.6-.7.4-.6.4-.9c.1-.3.2-.5.3-.9.1-.3.1-.6.1-1zm38-18.2c9.9 0 18.1 8.2 18.1 18.1 0 10-8.2 18.1-18.1 18.1-10 0-18.1-8.2-18.1-18.1 0-10 8.2-18.1 18.1-18.1zm-43.9-108.5v34.2h-17.6v-34.2c0-4.8 3.9-8.8 8.8-8.8s8.8 3.9 8.8 8.8zm163.3 99.1 44.4 110.2H92.2l44.4-110.2c.3-.6.4-1.2.4-1.8v-48.4c0-2.7 2.2-4.9 4.9-4.9h46.8c.3.1.6.1.9.1s.6 0 .9-.1h25.6c.3.1.6.1.9.1s.7 0 1-.1h76.1c.3.1.6.1.9.1s.6 0 .9-.1h25.6c.3.1.6.1.9.1s.6 0 1-.1h46.8c2.7 0 4.9 2.2 4.9 4.9v48.4c0 .5.1 1.2.3 1.8zm-51.9 27.5c0-37.2-30.3-67.6-67.6-67.6-37.2 0-67.6 30.3-67.6 67.6 0 37.2 30.3 67.6 67.6 67.6s67.6-30.3 67.6-67.6z" opacity="1" data-original="url(#a)"></path></g></svg>