<svg xmlns="http://www.w3.org/2000/svg" version="1.1" xmlns:xlink="http://www.w3.org/1999/xlink" width="512" height="512" x="0" y="0" viewBox="0 0 64 64" style="enable-background:new 0 0 512 512" xml:space="preserve"><rect width="64" height="64" rx="12.8" ry="12.8" fill="#bac8d3" shape="rounded"></rect><g transform="matrix(0.6799999999999998,0,0,0.6799999999999998,10.237699279785161,10.237091064453129)"><linearGradient id="a" x1="4" x2="60" y1="32" y2="32" gradientUnits="userSpaceOnUse"><stop offset="0" stop-color="#00c0ff"></stop><stop offset="1" stop-color="#5558ff"></stop></linearGradient><path fill="url(#a)" d="m49.495 23.65-5.762 3.418a3.55 3.55 0 0 1-1.277.45s-9.593 1.297-11.256 1.544c-2.898.201-2.678-3.978-.34-4.723l7.489-2.903a1.286 1.286 0 0 0 .165-2.307l-2.784-1.571c-2.786-1.459-5.256.354-8.095 1.663h-11.55l15.51-9.464a3.65 3.65 0 0 1 3.115-.377l7.103 2.885a4.392 4.392 0 0 0 2.279.276c.538 1.096 5.403 11.109 5.403 11.109zm10.319-4.098L53.703 6.89a1.875 1.875 0 0 0-2.527-.846l-4.943 2.509a1.876 1.876 0 0 0-.827 2.48c.276.584 6.156 12.672 6.156 12.672a1.873 1.873 0 0 0 2.536.836l4.889-2.527a1.858 1.858 0 0 0 .827-2.462zm-26.335 15.41a.826.826 0 0 0 .826-.818l.01-.993a2.893 2.893 0 0 0-2.196 1.81zM9.23 31.312v-6.615a4.733 4.733 0 0 0 3.933-3.64c5.958.021 14.998.024 21.006.028l-3.979 1.544c-4.092 1.462-4.016 8.109.754 8.288.322.011 2.989-.378 3.381-.432v.8a4.732 4.732 0 0 0-4.117 3.675H13.162a4.743 4.743 0 0 0-3.932-3.648zm12.258 1.232a4.535 4.535 0 0 0 0-9.07 4.535 4.535 0 0 0 0 9.07zm-9.813-3.62h1.755a.919.919 0 0 0 0-1.838h-1.755a.919.919 0 1 0 0 1.837zm9.813 2.205a3.124 3.124 0 0 0 0-6.249 3.124 3.124 0 0 0 0 6.249zM9.23 33.188v.928a.825.825 0 0 0 .818.825l1.203.011a2.895 2.895 0 0 0-2.021-1.764zm2.021-12.13h-1.177a.826.826 0 0 0-.825.818l-.01.956a2.915 2.915 0 0 0 2.012-1.773zm27.423 18.174a2.264 2.264 0 0 0-3.064.394l-3.169 3.502a4.475 4.475 0 0 1 .505 1.647c.31 2.7-1.97 5.184-4.549 4.66l-4.497-.837a.743.743 0 0 1 .273-1.461c.071.004 5.021.974 4.885.88 2.837-.044 3.27-4.562.697-5.401-2.663-.924-7.066-2.105-9.223-3.807-3.027-2.181-6.159-1.743-8.911 1.254a11.095 11.095 0 0 1 1.335 3.013l3.272 9.03a6.041 6.041 0 0 1 .483 1.885c.304.148.608.282.92.408l5.906 2.493a4.227 4.227 0 0 0 4.074-.453 34.23 34.23 0 0 0 7.665-6.403 33.853 33.853 0 0 0 4.274-6.307 3.647 3.647 0 0 0-.876-4.497zm-27.758 2.553a2.301 2.301 0 0 0-3.184-1.425l-2.344 1.217a2.84 2.84 0 0 0-1.21 3.473L8.326 56.49a2.287 2.287 0 0 0 3.183 1.425l2.338-1.21a2.847 2.847 0 0 0 1.194-3.524c-.341-.935-3.905-10.807-4.125-11.397z" opacity="1" data-original="url(#a)"></path></g></svg>