<svg xmlns="http://www.w3.org/2000/svg" version="1.1" xmlns:xlink="http://www.w3.org/1999/xlink" width="512" height="512" x="0" y="0" viewBox="0 0 512 512" style="enable-background:new 0 0 512 512" xml:space="preserve"><rect width="512" height="512" rx="102.4" ry="102.4" fill="#bac8d3" shape="rounded"></rect><g transform="matrix(0.7,0,0,0.7,76.80008926391602,76.80074615478517)"><linearGradient id="a" x1="130.407" x2="381.593" y1="256" y2="256" gradientUnits="userSpaceOnUse"><stop offset="0" stop-color="#1ba2d8"></stop><stop offset="1" stop-color="#9635fd"></stop></linearGradient><path fill="url(#a)" d="M182.291 242.705v-79.91a5.243 5.243 0 0 1 5.17-5.17h137.05a5.179 5.179 0 0 1 5.18 5.17v79.91a5.225 5.225 0 0 1-5.18 5.14h-137.05a5.223 5.223 0 0 1-5.17-5.14zm199.25-100.65-17.23 314.2C363.081 478.905 346.171 496 325 496H187.011c-21.17 0-38.09-17.09-39.35-39.74l-17.2-314.2a35.045 35.045 0 0 1 9.91-26.17 40.663 40.663 0 0 1 29.4-12.69h9.71v8.68h-6.79a8.005 8.005 0 1 0 0 16.01h166.59a8.005 8.005 0 1 0 0-16.01h-6.76v-8.68h9.71a40.633 40.633 0 0 1 29.37 12.67 35.078 35.078 0 0 1 9.94 26.185zm-215.27 100.65a21.2 21.2 0 0 0 21.19 21.16h137.05a21.194 21.194 0 0 0 21.19-21.16v-79.91a21.213 21.213 0 0 0-21.19-21.19h-137.05a21.219 21.219 0 0 0-21.19 21.19zm47.59 158.26a12.323 12.323 0 0 0-12.31-12.32h-29.37a12.332 12.332 0 0 0-12.32 12.32v17.17a12.332 12.332 0 0 0 12.32 12.32h29.37a12.323 12.323 0 0 0 12.31-12.32zm0-54.37a12.33 12.33 0 0 0-12.31-12.32h-29.37a12.338 12.338 0 0 0-12.32 12.32v17.18a12.33 12.33 0 0 0 12.32 12.31h29.37a12.321 12.321 0 0 0 12.31-12.31zm0-54.4a12.31 12.31 0 0 0-12.31-12.29h-29.37a12.319 12.319 0 0 0-12.32 12.29V309.4a12.33 12.33 0 0 0 12.32 12.31h29.37a12.321 12.321 0 0 0 12.31-12.31zm69.11 108.77a12.313 12.313 0 0 0-12.29-12.32h-29.36A12.332 12.332 0 0 0 229 400.965v17.17a12.332 12.332 0 0 0 12.32 12.32h29.36a12.313 12.313 0 0 0 12.29-12.32zm0-54.37a12.319 12.319 0 0 0-12.29-12.32h-29.36A12.338 12.338 0 0 0 229 346.6v17.18a12.33 12.33 0 0 0 12.32 12.31h29.36a12.31 12.31 0 0 0 12.29-12.31zm0-54.4a12.3 12.3 0 0 0-12.29-12.29h-29.36A12.319 12.319 0 0 0 229 292.2v17.2a12.33 12.33 0 0 0 12.32 12.31h29.36a12.31 12.31 0 0 0 12.29-12.31zm69.14 108.77a12.313 12.313 0 0 0-12.29-12.32h-29.37a12.323 12.323 0 0 0-12.31 12.32v17.17a12.323 12.323 0 0 0 12.31 12.32h29.37a12.313 12.313 0 0 0 12.29-12.32zm0-54.37a12.319 12.319 0 0 0-12.29-12.32h-29.37a12.33 12.33 0 0 0-12.31 12.32v17.18a12.321 12.321 0 0 0 12.31 12.31h29.37a12.31 12.31 0 0 0 12.29-12.31zm0-54.4a12.3 12.3 0 0 0-12.29-12.29h-29.37a12.31 12.31 0 0 0-12.31 12.29V309.4a12.321 12.321 0 0 0 12.31 12.31h29.37a12.31 12.31 0 0 0 12.29-12.31zm-37.96 122.25h21.94v-9.78h-21.94zm-69.13 0h21.94v-9.78h-21.94zm-69.14 0h21.97v-9.78h-21.97zm0-54.37h21.97V350.3h-21.97zm69.14 0h21.94V350.3h-21.94zm69.13 0h21.94V350.3h-21.94zm0-54.37h21.94v-9.78h-21.94zm-69.13 0h21.94v-9.78h-21.94zm-69.14 0h21.97v-9.78h-21.97zm140.63-289.7h-108.44a12.6 12.6 0 0 0-12.58 12.6v83.27h121.02z" opacity="1" data-original="url(#a)"></path></g></svg>