<svg xmlns="http://www.w3.org/2000/svg" version="1.1" xmlns:xlink="http://www.w3.org/1999/xlink" width="512" height="512" x="0" y="0" viewBox="0 0 512 512" style="enable-background:new 0 0 512 512" xml:space="preserve"><rect width="512" height="512" rx="102.4" ry="102.4" fill="#bac8d3" shape="rounded"></rect><g transform="matrix(0.6399999999999998,0,0,0.6399999999999998,92.159994506836,92.1779956054688)"><linearGradient id="a" x1="57.945" x2="454.065" y1="454.06" y2="57.94" gradientTransform="matrix(1 0 0 -1 0 512)" gradientUnits="userSpaceOnUse"><stop offset="0" stop-color="#459dff"></stop><stop offset="1" stop-color="#0056b3"></stop></linearGradient><path fill="url(#a)" d="M314 347.8C231.8 350.5 84.2 204 152.7 124.4l11.6-10.1c12.2-11.8 31.7-11.6 43.7.5.3.3 19 24.6 19 24.6 11.5 12.1 11.5 31.1-.1 43.2l-10.5 12.5c-3.6 4.2-4.3 10.1-1.8 15.1 12.5 25 32.7 45.4 57.8 57.9 4.9 2.5 10.9 1.7 15.1-1.8l12.5-10.6c12.1-11.6 31.1-11.6 43.2-.1 0 0 24.3 18.7 24.6 19 12.2 12.2 12.2 32 0 44.2l-9.2 10.6c-11.8 11.8-27.8 18.5-44.6 18.4zm14-205.5-41 41c-3.4 3.4-3.4 9 0 12.4 3.4 3.4 9 3.4 12.4 0l41-41c3.4-3.4 3.4-9 0-12.4-3.4-3.5-9-3.5-12.4 0zm-60.3-27.4-15 56c-1.2 4.7 1.5 9.5 6.2 10.7 4.7 1.2 9.5-1.5 10.7-6.2l15-56c1.2-4.7-1.5-9.5-6.2-10.7-4.6-1.3-9.4 1.5-10.7 6.2zm106.2 89.3c-1.2-4.7-6.1-7.4-10.7-6.2l-56 15c-4.7 1.2-7.4 6.1-6.2 10.7 1.2 4.7 6.1 7.4 10.7 6.2l56-15c4.7-1.2 7.5-6.1 6.2-10.7zM384 0H128c-16.2 0-29.3 13.1-29.3 29.3v453.5c0 16.2 13.1 29.3 29.3 29.3h256c16.2 0 29.3-13.1 29.3-29.3V29.3C413.3 13.1 400.2 0 384 0zM223.1 25.6h65.8c4 0 7.3 3.3 7.3 7.3s-3.3 7.3-7.3 7.3h-65.8c-4 0-7.3-3.3-7.3-7.3s3.2-7.3 7.3-7.3zm54.8 468.1H234c-10.1 0-18.3-8.2-18.3-18.3s8.2-18.3 18.3-18.3h43.9c10.1 0 18.3 8.2 18.3 18.3s-8.2 18.3-18.3 18.3zm120.7-76.8c0 12.1-9.8 21.9-21.9 21.9H135.3c-12.1 0-21.9-9.8-21.9-21.9V36.6c0-12.1 9.8-21.9 21.9-21.9h40.2l15.6 25.9c4 6.6 11.1 10.6 18.8 10.6h92.2c7.7 0 14.9-4 18.8-10.7l15.5-25.9h40.2c12.1 0 21.9 9.8 21.9 21.9z" opacity="1" data-original="url(#a)"></path></g></svg>