<svg xmlns="http://www.w3.org/2000/svg" version="1.1" xmlns:xlink="http://www.w3.org/1999/xlink" width="512" height="512" x="0" y="0" viewBox="0 0 512 512" style="enable-background:new 0 0 512 512" xml:space="preserve"><rect width="512" height="512" rx="102.4" ry="102.4" fill="#bac8d3" shape="rounded"></rect><g transform="matrix(0.57,0,0,0.57,110.07958238722756,100.07999343872066)"><linearGradient id="a" x1="50.473" x2="461.527" y1="-9.1" y2="401.954" gradientTransform="matrix(1 0 0 -1 0 512)" gradientUnits="userSpaceOnUse"><stop offset="0" stop-color="#ff1572"></stop><stop offset="1" stop-color="#fec183"></stop></linearGradient><path fill="url(#a)" d="M377.374 300.655v52.176h-32.298v-52.176c0-8.883 7.246-16.113 16.149-16.113 9.149 0 16.149 7.465 16.149 16.113zm4.308-86.027c.105.413-1.62 18.343 14.699 28.407v154.671c-8.836 5.367-14.699 15.194-14.699 26.342v2.065h-72.917v-91.332c0-28.738-23.205-52.768-52.768-52.768-29.151 0-52.768 23.7-52.768 52.768v91.332h-72.835v-2.065c0-11.148-5.863-20.976-14.782-26.342V243.035c16.49-10.077 14.658-27.922 14.782-28.407zM179.28 300.676c0-15.773-12.799-28.489-28.489-28.489-16.02 0-28.573 13.048-28.573 28.489v58.384c0 3.386 2.808 6.193 6.194 6.193h44.675a6.186 6.186 0 0 0 6.194-6.193v-58.384zm181.922-58.963a6.185 6.185 0 0 0 6.193-6.193c0-3.468-2.726-6.194-6.193-6.194H150.79c-3.468 0-6.194 2.726-6.194 6.194a6.185 6.185 0 0 0 6.194 6.193zm0 30.472c-15.69 0-28.489 12.717-28.489 28.489v58.384a6.185 6.185 0 0 0 6.194 6.193h44.676c3.386 0 6.194-2.808 6.194-6.193v-58.384c-.003-15.523-12.555-28.489-28.575-28.489zM.008 160.518l.009.011.022-.011zm219.696 174.245v91.35h72.583v-91.35c0-19.76-16.03-36.209-36.289-36.209-20.012.001-36.294 16.242-36.294 36.209zm-68.923-50.221c-9.141 0-16.149 7.46-16.149 16.113v52.176h32.298v-52.176c0-8.883-7.245-16.113-16.149-16.113zm345.851 164.363h-9.662v-24.856a8.23 8.23 0 0 0-8.258-8.258h-6.44V224.95h6.44c4.542 0 8.258-3.716 8.258-8.258v-2.065h-82.496v2.065c0 4.542 3.716 8.258 8.258 8.258h6.441v190.841h-6.441a8.229 8.229 0 0 0-8.258 8.258v24.856H107.518v-24.856a8.258 8.258 0 0 0-8.258-8.258h-6.44V224.95h6.44c4.542 0 8.258-3.716 8.258-8.258v-2.065H25.022v2.065c0 4.542 3.716 8.258 8.258 8.258h6.524v190.841H33.28a8.229 8.229 0 0 0-8.258 8.258v24.856h-9.661c-8.483 0-15.36 6.877-15.36 15.36s6.877 15.36 15.36 15.36h481.271c8.483 0 15.36-6.877 15.36-15.36s-6.877-15.36-15.36-15.36zm15.354-288.369.006.002zm-255.99-77.54c-12.799 0-23.205 10.405-23.205 23.205s10.405 23.205 23.205 23.205 23.205-10.405 23.205-23.205-10.405-23.205-23.205-23.205zm255.988 77.542h.008l-25.021 31.215H25.022L.001 160.538h.024l-.007-.009.022-.011L255.996 32.375l255.957 128.143.034.018zm-216.267-54.337c0-21.883-17.837-39.72-39.72-39.72-21.884 0-39.72 17.837-39.72 39.72 0 21.884 17.837 39.721 39.72 39.721s39.72-17.838 39.72-39.721zm216.282 54.317h-.047l.034.018zm-511.982.011-.018.009z" opacity="1" data-original="url(#a)"></path></g></svg>