<svg xmlns="http://www.w3.org/2000/svg" version="1.1" xmlns:xlink="http://www.w3.org/1999/xlink" width="512" height="512" x="0" y="0" viewBox="0 0 64 64" style="enable-background:new 0 0 512 512" xml:space="preserve"><rect width="64" height="64" rx="12.8" ry="12.8" fill="#bac8d3" shape="rounded"></rect><g transform="matrix(0.7,0,0,0.7,9.600900506973268,9.965400123596194)"><linearGradient id="a" x1="4.002" x2="60.002" y1="33.218" y2="33.218" gradientUnits="userSpaceOnUse"><stop offset="0" stop-color="#9cffac"></stop><stop offset="1" stop-color="#00b59c"></stop></linearGradient><path fill="url(#a)" d="M54.943 15.348H9.063a5.066 5.066 0 0 0-5.06 5.06v25.62a5.066 5.066 0 0 0 5.06 5.06h45.88a5.066 5.066 0 0 0 5.06-5.06v-25.62a5.066 5.066 0 0 0-5.06-5.06zm-18.04 8.87h7.07a1 1 0 0 1 0 2h-7.07a1 1 0 0 1 0-2zm0 8h10.99a1 1 0 0 1 0 2h-10.99a1 1 0 0 1 0-2zm-9.19 9.19c-6.618 6.119-17.823 1.324-17.76-7.83a10.614 10.614 0 0 1 10.62-10.59c9.68-.011 14.263 12.035 7.14 18.42zm23.32.81h-14.13a1 1 0 0 1 0-2h14.13a1 1 0 0 1 0 2zm-30.46-11.92a3.317 3.317 0 0 1 3.35 3.28 3.376 3.376 0 0 1-5.24 2.71 3.281 3.281 0 0 1 1.89-5.99zm5.22 10.1a8.621 8.621 0 0 1-10.44 0 5.082 5.082 0 0 1 2.53-2.26 5.428 5.428 0 0 0 5.38 0 5.081 5.081 0 0 1 2.53 2.26zm1.49-1.44a6.962 6.962 0 0 0-2.42-2.24 5.124 5.124 0 0 0 1.06-3.14c-.224-6.976-10.476-6.977-10.7 0a5.124 5.124 0 0 0 1.06 3.14 6.96 6.96 0 0 0-2.42 2.24c-4.545-5.425-.437-14.075 6.71-13.97 7.138-.104 11.256 8.544 6.71 13.97z" opacity="1" data-original="url(#a)"></path></g></svg>