<svg xmlns="http://www.w3.org/2000/svg" version="1.1" xmlns:xlink="http://www.w3.org/1999/xlink" width="512" height="512" x="0" y="0" viewBox="0 0 64 64" style="enable-background:new 0 0 512 512" xml:space="preserve"><rect width="64" height="64" rx="12.8" ry="12.8" fill="#bac8d3" shape="rounded"></rect><g transform="matrix(0.71,0,0,0.71,9.280000000000001,9.280000000000001)"><linearGradient id="a" x1="13.155" x2="50.845" y1="32" y2="32" gradientUnits="userSpaceOnUse"><stop offset="0" stop-color="#ff81ff"></stop><stop offset="1" stop-color="#a93aff"></stop></linearGradient><path fill="url(#a)" d="M43.698 16.777h-1.06c-.004-1.209.003-9.43 0-10.832h1.37a.973.973 0 0 0 0-1.945h-2.341a1.202 1.202 0 0 0-.196.02A57.65 57.65 0 0 1 22.333 4h-2.34a.972.972 0 0 0 0 1.945h1.37c-.008 1.454.004 9.587 0 10.832a7.297 7.297 0 0 0-8.208 7.147V46.26a7.188 7.188 0 0 0 7.575 7.147h22.968a7.159 7.159 0 0 0 7.147-7.147V23.924a7.159 7.159 0 0 0-7.147-7.147zm-7.176 27.081c-1.685 1.432-3.677 2.42-5.913 1.877-3.716-.712-6.839-5.341-4.91-8.878 1.128-1.886 2.168-4.376 1.916-5.066a.975.975 0 0 1 1.604-1.021 12.228 12.228 0 0 1 2.013 2.781c.865-2.14 1.585-4.998.457-6.67a.979.979 0 0 1 1.167-1.45c3.701 2.083 5.704 6.003 6.593 8.733a8.789 8.789 0 0 1-2.927 9.694zm4.171-29.025v1.944h-7.72v-3.993h.727a.972.972 0 0 0 0-1.944h-3.4a.972.972 0 0 0 0 1.944h.728v3.993h-7.721c.005-1.194-.004-9.307 0-10.696a55.085 55.085 0 0 0 17.386 0zm-3.092 19.943c2.194 5.596-5.672 12.978-9.83 6.72-1.902-3.038.502-4.284 1.448-7.546a4.633 4.633 0 0 1 .778 2.333.978.978 0 0 0 1.809.516c.126-.224 2.48-4.24 2.401-7.877a15.328 15.328 0 0 1 3.394 5.854zm5.863 20.576v2.771A1.87 1.87 0 0 1 41.597 60H22.402a1.87 1.87 0 0 1-1.867-1.877v-2.77z" opacity="1" data-original="url(#a)"></path></g></svg>