<svg xmlns="http://www.w3.org/2000/svg" version="1.1" xmlns:xlink="http://www.w3.org/1999/xlink" width="512" height="512" x="0" y="0" viewBox="0 0 64 64" style="enable-background:new 0 0 512 512" xml:space="preserve"><rect width="64" height="64" rx="12.8" ry="12.8" fill="#bac8d3" shape="rounded"></rect><g transform="matrix(0.6499999999999998,0,0,0.6499999999999998,11.19989076852799,11.200002503395083)"><linearGradient id="a" x1="4" x2="60" y1="32" y2="32" gradientUnits="userSpaceOnUse"><stop offset="0" stop-color="#00c0ff"></stop><stop offset="1" stop-color="#5558ff"></stop></linearGradient><path fill="url(#a)" d="M58.904 34.333 21.377 54.639a2.127 2.127 0 0 1-1.6.167 2.054 2.054 0 0 1-1.235-1.014l-1.475-2.731 41.199-22.305 1.485 2.741a2.1 2.1 0 0 1-.847 2.836zM16.062 49.22l41.21-22.294-10.19-18.821a2.095 2.095 0 0 0-2.835-.848L6.72 27.564a2.098 2.098 0 0 0-.847 2.835zM43.86 54.9H5.046a1.046 1.046 0 0 0 0 2.093H43.86a1.046 1.046 0 0 0 0-2.092z" opacity="1" data-original="url(#a)"></path></g></svg>