<svg xmlns="http://www.w3.org/2000/svg" version="1.1" xmlns:xlink="http://www.w3.org/1999/xlink" width="512" height="512" x="0" y="0" viewBox="0 0 64 64" style="enable-background:new 0 0 512 512" xml:space="preserve" class=""><rect width="64" height="64" rx="12.8" ry="12.8" fill="#bac8d3" shape="rounded"></rect><g transform="matrix(0.61,0,0,0.61,12.480021572113039,12.479988098144531)"><linearGradient id="a" x1="4.063" x2="59.937" y1="32" y2="32" gradientUnits="userSpaceOnUse"><stop offset="0" stop-color="#7f00ff"></stop><stop offset="1" stop-color="#e100ff"></stop></linearGradient><path fill="url(#a)" d="M59.896 30.904C59.19 8.802 33.521-3.706 15.68 9.23-4.228 23.401 2.735 55.074 26.796 59.46c17.215 3.56 34.085-11 33.1-28.556zm-18.088-6.582c3.807-6.949 14.066-1.706 10.677 5.443-3.794 6.953-14.062 1.721-10.677-5.443zm-9.859-14.313c7.92.25 7.919 11.737 0 11.986-7.92-.25-7.918-11.738 0-11.986zM11.414 29.765c-3.389-7.156 6.868-12.391 10.677-5.443 3.385 7.168-6.886 12.394-10.677 5.443zm15.99 18.668c-4.84 6.27-14.149-.486-9.698-7.042 4.883-6.264 14.149.506 9.699 7.042zm4.545-12.455c-5.27-.132-5.268-7.859 0-7.99 5.27.132 5.269 7.858 0 7.99zm12.915 13.784c-6.556 4.47-13.307-4.868-7.042-9.699 6.553-4.443 13.302 4.832 7.042 9.699zm14.053 10.187h-16.21a28.246 28.246 0 0 0 4.185-1.997h12.025a.999.999 0 0 1 0 1.997zM31.95 12.006c5.269.132 5.27 7.858 0 7.991-5.268-.132-5.27-7.858 0-7.99zM14.94 23.483c4.751-2.278 8.262 4.616 3.626 7.121-4.76 2.27-8.262-4.608-3.626-7.121zm5.264 24.66c-4.179-3.205.357-9.45 4.705-6.462 4.184 3.199-.37 9.456-4.705 6.463zm20.516.71a3.993 3.993 0 0 1 .62-7.93c5.68.205 5.051 8.606-.62 7.93zm8.24-25.37c4.636 2.512 1.136 9.391-3.626 7.121-4.635-2.504-1.126-9.399 3.626-7.121zM31.95 33.98a1.998 1.998 0 0 1 0-3.995 1.998 1.998 0 0 1 0 3.995z" opacity="1" data-original="url(#a)"></path></g></svg>