<svg xmlns="http://www.w3.org/2000/svg" version="1.1" xmlns:xlink="http://www.w3.org/1999/xlink" width="512" height="512" x="0" y="0" viewBox="0 0 64 64" style="enable-background:new 0 0 512 512" xml:space="preserve" class=""><rect width="64" height="64" rx="12.8" ry="12.8" fill="#bac8d3" shape="rounded"></rect><g transform="matrix(0.7599999999999999,0,0,0.7599999999999999,7.765440673828131,7.6800638008117765)"><linearGradient id="a" x1="16.046" x2="48.666" y1="32" y2="32" gradientUnits="userSpaceOnUse"><stop offset="0" stop-color="#00c0ff"></stop><stop offset="1" stop-color="#5558ff"></stop></linearGradient><path fill="url(#a)" d="m47.116 9.15-3.73-3.66A5.13 5.13 0 0 0 39.756 4h-14.8a5.163 5.163 0 0 0-3.63 1.48l-3.73 3.67a5.207 5.207 0 0 0-1.55 3.7v24.16c0 .15.01.3.02.45h32.58c.01-.15.02-.3.02-.45V12.85a5.207 5.207 0 0 0-1.55-3.7zm-21.13 26.41c-1.669 1.268-5.41-3.43-3.81-4.77 1.67-1.263 5.412 3.436 3.81 4.77zm15.89-1.39c-2.556 3.111-4.96 1.205-2.49-1.99 2.564-3.106 4.96-1.204 2.49 1.99zm-9.52-3.87c-9.45-1.4-11.17-11.18-11.48-15.32a4.337 4.337 0 0 1 1.26-3.38c1.16-1.227 2.48-2.63 4.32-2.54h11.79c1.848-.08 3.169 1.307 4.33 2.54a4.336 4.336 0 0 1 1.26 3.38c-.31 4.14-2.03 13.92-11.48 15.32zm-15.68 9.16a4.746 4.746 0 0 0 .5.76l3.893 4.863-4.013 13.635a1 1 0 1 0 1.92.564l.52-1.769h25.202l.519 1.767a1 1 0 0 0 1.92-.56l-3.88-13.18c.384-.458 4.626-5.642 4.78-6.08zm6.25 6.4h18.34l.94 3.179H21.99zm21.18 9.65c.011.01-24.023 0-24.022.003l1.317-4.474h21.395z" opacity="1" data-original="url(#a)"></path></g></svg>