<svg xmlns="http://www.w3.org/2000/svg" version="1.1" xmlns:xlink="http://www.w3.org/1999/xlink" width="512" height="512" x="0" y="0" viewBox="0 0 64 64" style="enable-background:new 0 0 512 512" xml:space="preserve"><rect width="64" height="64" rx="12.8" ry="12.8" fill="#bac8d3" shape="rounded"></rect><g transform="matrix(0.7,0,0,0.7,9.600000000000001,9.599971246719363)"><linearGradient id="a" x1="13" x2="51" y1="32" y2="32" gradientUnits="userSpaceOnUse"><stop offset="0" stop-color="#9cffac"></stop><stop offset="1" stop-color="#00b59c"></stop></linearGradient><path fill="url(#a)" d="M33.69 4.92a2.012 2.012 0 0 0-3.38 0C26.25 11.15 13 32.18 13 41a19 19 0 0 0 38 0c0-8.82-13.25-29.85-17.31-36.08zM32 56a15.018 15.018 0 0 1-15-15 1 1 0 0 1 2 0 13.012 13.012 0 0 0 13 13 1 1 0 0 1 0 2zm6.86-19.69-7.8 13.2a.99.99 0 0 1-.86.49.745.745 0 0 1-.26-.04.985.985 0 0 1-.74-.96v-9.8H26a.997.997 0 0 1-.86-1.51l7.8-13.2a1.002 1.002 0 0 1 1.86.51v9.8H38a.997.997 0 0 1 .86 1.51zm-5.06.49h2.45l-5.05 8.54V38.2a1.003 1.003 0 0 0-1-1h-2.45l5.05-8.54v7.14a1.003 1.003 0 0 0 1 1z" opacity="1" data-original="url(#a)"></path></g></svg>