<svg xmlns="http://www.w3.org/2000/svg" version="1.1" xmlns:xlink="http://www.w3.org/1999/xlink" width="512" height="512" x="0" y="0" viewBox="0 0 512 512" style="enable-background:new 0 0 512 512" xml:space="preserve" class=""><g><path fill="#ffffff" d="M256 22C120.69 22 11 131.69 11 267c0 72.762 31.731 138.103 82.096 182.976h325.81C469.27 405.103 501 339.762 501 267c0-135.31-109.69-245-245-245z" opacity="1" data-original="#e80054" class=""></path><path fill="#ffa219" d="M245.807 18.284h20.386c2.193 0 4.332.223 6.401.643.093-.714.157-1.436.157-2.176C272.751 7.5 265.251 0 256 0c-9.252 0-16.751 7.5-16.751 16.751 0 .739.064 1.462.157 2.176a32.131 32.131 0 0 1 6.401-.643z" opacity="1" data-original="#ffa219" class=""></path><path fill="#ff9100" d="M256 0c-9.252 0-16.751 7.5-16.751 16.751 0 .739.064 1.462.157 2.175a32.146 32.146 0 0 1 6.401-.643h9.164c.601-.592 1.029-.911 1.029-.911C246.768 8.141 256 0 256 0z" opacity="1" data-original="#ff9100"></path><path fill="#ffb332" d="M241.942 37.707h28.116a43.984 43.984 0 0 1 28.114 10.104c-.824-16.949-14.826-30.438-31.979-30.438h-20.386c-17.154 0-31.155 13.489-31.979 30.438a43.976 43.976 0 0 1 28.114-10.104z" opacity="1" data-original="#ffb332" class=""></path><path fill="#ffa219" d="M254.613 37.707a4.472 4.472 0 0 0-.814-3.442C246.512 24.42 256 17.373 256 17.373h-10.193c-17.154 0-31.155 13.489-31.979 30.438a43.976 43.976 0 0 1 28.114-10.104z" opacity="1" data-original="#ffa219" class=""></path><path fill="#ffa219" d="M240.456 58.965h31.088c18.353 0 34.333 10.131 42.675 25.101v-3.109c0-24.389-19.771-44.16-44.161-44.16h-28.116c-24.389 0-44.161 19.771-44.161 44.16v3.109c8.341-14.97 24.321-25.101 42.675-25.101z" opacity="1" data-original="#ffa219" class=""></path><path fill="#ff9100" d="M254.496 58.965a4.542 4.542 0 0 0-.733-3.555c-4.605-6.59-1.986-12.753.211-16.07a4.322 4.322 0 0 0 .714-2.544h-12.746c-24.389 0-44.161 19.771-44.161 44.16v3.109c8.341-14.97 24.321-25.101 42.674-25.101h14.041z" opacity="1" data-original="#ff9100"></path><path fill="#ffb332" d="M194.163 127.907c4.357-4.355 10.393-2.173 14.69.425l1.382.836v-24.855c0-4.914 1.908-9.557 5.372-13.073 6.612-6.71 18.987-14.708 40.393-14.708s33.781 7.999 40.393 14.708c3.464 3.516 5.372 8.159 5.372 13.073v24.855l1.382-.836c4.296-2.6 10.333-4.781 14.69-.425 1.357 1.357 2.197 2.912 2.536 4.649v-25.674c0-26.967-21.861-48.828-48.829-48.828h-31.088c-26.967 0-48.829 21.861-48.829 48.828v25.674c.338-1.737 1.178-3.291 2.536-4.649z" opacity="1" data-original="#ffb332" class=""></path><path fill="#ffa219" d="M253.953 73.216c-3.8-5.381-1.965-10.028-.109-12.712a4.294 4.294 0 0 0 .756-2.45h-14.144c-26.967 0-48.829 21.861-48.829 48.828v25.674c.338-1.737 1.178-3.292 2.536-4.649 4.357-4.355 10.393-2.173 14.69.425l1.382.836v-24.855c0-4.914 1.909-9.557 5.372-13.073 6.473-6.569 18.493-14.353 39.081-14.677a4.41 4.41 0 0 0-.735-3.347z" opacity="1" data-original="#ffa219" class=""></path><path fill="#ffdd40" d="M318.733 156.642c-1.693-5.021-1.46-10.53.868-15.29 2.06-4.211 3.239-9.729-1.12-14.088-5.109-5.109-12.142-2.117-16.716.861v22.556c0 9.969-3.405 17.59-7.374 23.094 2.678 17.129 15.757 25.347 24.208 16.897 7.425-7.426 3.588-23.791.134-34.03zM193.266 156.642c1.693-5.021 1.46-10.53-.867-15.29-2.06-4.211-3.239-9.729 1.12-14.088 5.109-5.109 12.142-2.117 16.716.861v22.556c0 9.969 3.405 17.59 7.374 23.094-2.678 17.129-15.757 25.347-24.208 16.897-7.425-7.426-3.588-23.791-.135-34.03z" opacity="1" data-original="#ffdd40" class=""></path><path fill="#ffb332" d="M256 512c63.09 0 120.604-23.854 164.032-63.025-7.771-8.004-18.385-14.561-26.531-18.911-2.177 7.108-6.125 11.829-14.462 11.829-8.543 0-18.481-2.668-29.539-7.93l-.439-.208-.471.115c-13.58 3.302-23.299 5.464-34.665 7.71a27.397 27.397 0 0 0-8.034 2.928l-.167.092c-6.031 3.358-22.053 12.278-56.75 13.395a7.278 7.278 0 0 1-4.464-1.339l-.27-.189-.327-.045c-21.805-3.007-32.906-9.187-37.646-11.827l-.157-.087a27.431 27.431 0 0 0-8.035-2.928c-12.4-2.45-28.342-6.119-50.169-11.546l-.096-.02c-.184-.032-8.54-1.542-18.071-5.4-4.566 1.966-25.004 11.211-37.771 24.361C135.397 488.147 192.91 512 256 512z" opacity="1" data-original="#ffb332" class=""></path><path fill="#ffa219" d="M248.973 457.995a7.278 7.278 0 0 1-4.464-1.339l-.27-.189-.327-.045c-21.805-3.007-32.906-9.187-37.646-11.827l-.157-.087a27.431 27.431 0 0 0-8.035-2.928c-12.4-2.45-28.342-6.119-50.169-11.546l-.096-.02c-.184-.032-8.54-1.542-18.071-5.4-4.566 1.966-25.004 11.211-37.771 24.361 34.184 30.832 77.097 52.165 124.584 59.854C209.216 481.024 256 459.365 256 459.365l2.711-1.918c-3.071.249-6.31.438-9.738.548z" opacity="1" data-original="#ffa219" class=""></path><path fill="#ffb332" d="M391.788 351.587s-6.071-24.891-10.321-71.638c-3.773-41.504-39.85-60.037-47.894-63.672a10.632 10.632 0 0 1-2.729-1.765c-11.302-10.148-26.591-7.982-26.591-7.982l-.951.997.165.12c2.384 1.68 3.737 4.586 3.531 7.584-.804 11.711-4.38 42.223-20.2 72.546-19.585 37.54-50.667 62.01-92.38 72.729a7.651 7.651 0 0 1-8.594-3.71c-.455-.81-.725-1.712-.863-2.63l-.095-.631-1.241.933-17.55 8.416c-1.072 3.905-2.205 7.685-3.37 11.162-1.482 4.431-.13 9.211 3.448 12.177 7.211 5.98 18.084 13.832 26.122 17.894 5.711 2.887 12.36 3.244 18.241.983 6.811-2.619 17.064-4.576 21.681-4.576 1.571 0 3.596-.287 5.941-.619 5.121-.726 12.132-1.721 14.969.741.934.811 1.387 1.994 1.387 3.616 0 7.381-15.462 11.606-20.2 12.725a8.97 8.97 0 0 0-6.266 5.387 8.931 8.931 0 0 0 4.063 11.202c5.49 2.943 13.432 5.58 23.607 7.837l.296.065.295-.065c10.183-2.258 18.129-4.895 23.618-7.837a8.93 8.93 0 0 0 4.063-11.202 8.97 8.97 0 0 0-6.266-5.387c-4.738-1.119-20.199-5.344-20.199-12.725 0-1.622.453-2.805 1.387-3.616 2.836-2.461 9.849-1.467 14.969-.741 2.345.332 4.369.619 5.94.619 4.617 0 14.87 1.957 21.68 4.576 5.884 2.261 12.53 1.903 18.242-.983 5.868-2.966 10.85-6.166 14.809-9.51a2.175 2.175 0 0 1 2.422-.266 57.927 57.927 0 0 1 27.261 30.593v2.642c0 .317-.052.638-.197.92a4.429 4.429 0 0 1-2.863 2.27c-5.234 1.307-9.9 2.458-14.174 3.492 8.897 4.431 20.795 9.001 32.057 9.001 21.855 0 15.936-29.596 21.855-50.534 5.921-20.937-9.105-41.138-9.105-41.138z" opacity="1" data-original="#ffb332" class=""></path><path fill="#ffa219" d="M330.775 339.562c-33.999 10.25-33.751-15.529-33.751-15.529-20.25 0-19.736-18.006-19.736-18.006l-1.226-.606c-19.495 27.65-46.872 46.148-81.643 55.084a7.651 7.651 0 0 1-8.594-3.71c-.455-.81-.725-1.712-.863-2.63l-.095-.631-1.241.933-17.55 8.416c-1.072 3.905-2.205 7.685-3.37 11.162-1.482 4.43-.13 9.211 3.448 12.177 7.211 5.98 18.084 13.833 26.122 17.894 5.711 2.887 12.361 3.244 18.241.983 6.811-2.619 17.064-4.576 21.681-4.576 1.571 0 3.595-.287 5.941-.619 5.12-.726 12.132-1.721 14.969.741.934.811 1.387 1.994 1.387 3.616 0 7.381-15.462 11.606-20.2 12.725a8.97 8.97 0 0 0-6.266 5.387 8.931 8.931 0 0 0 4.063 11.202c5.49 2.943 13.432 5.58 23.607 7.837l.296.065.295-.065c10.183-2.258 18.129-4.895 23.618-7.837a8.93 8.93 0 0 0 4.063-11.202 8.97 8.97 0 0 0-6.266-5.387c-4.738-1.119-20.199-5.344-20.199-12.725 0-1.622.453-2.805 1.387-3.616 2.836-2.461 9.849-1.467 14.969-.741 2.345.332 4.369.619 5.94.619 4.617 0 14.87 1.957 21.68 4.576 5.134 1.973 10.848 1.951 16.016-.004-1.195-5.785-.995-13.514 5.442-19.951 12-12 11.913-41.504 11.913-41.504z" opacity="1" data-original="#ffa219" class=""></path><path fill="#ff9100" d="M185.825 356.796c-.455-.81-.725-1.712-.863-2.63l-.095-.631-1.241.933-17.55 8.416c-1.072 3.905-2.205 7.685-3.37 11.162-1.482 4.43-.13 9.211 3.448 12.177 7.211 5.98 18.084 13.833 26.122 17.894 5.711 2.887 12.361 3.244 18.241.983 6.482-2.492 16.069-4.381 20.962-4.559l.719-1.383C200.953 385.003 217 354.392 217 354.392l-1.449-.898a161.077 161.077 0 0 1-21.132 7.011 7.65 7.65 0 0 1-8.594-3.709zM338.681 218.839a78.01 78.01 0 0 0-5.107-2.562 10.632 10.632 0 0 1-2.729-1.765 29.607 29.607 0 0 0-5.702-4.007c.109 5.011-.037 22.384-6.012 45.372-6.515 25.062-21.514 62.171-55.971 96.627a6.83 6.83 0 1 0 9.659 9.66c36.825-36.825 52.783-76.577 59.685-103.441 4.355-16.952 5.768-30.94 6.177-39.884zM313.236 406.247c-.272-.829-6.487-20.428 8.313-32.805 5.864-4.904 9.226-11.831 9.226-19.005v-44.588a6.83 6.83 0 0 1 13.66 0v44.588c0 11.231-5.148 21.977-14.123 29.482-7.777 6.504-4.135 17.952-4.097 18.067a6.829 6.829 0 0 1-4.36 8.619 6.827 6.827 0 0 1-8.619-4.358z" opacity="1" data-original="#ff9100"></path><path fill="#fcea9d" d="M304.253 206.529c-8.184-5.767-15.718-13.892-18.414-25.038-1.745 1.435-3.357 3.024-4.757 4.8-5.39 6.838-14.911 10.224-20.544 11.706-2.977.783-6.1.783-9.077 0-5.633-1.481-15.154-4.868-20.544-11.706-1.4-1.776-3.012-3.365-4.757-4.8-6.902 28.542-45.542 37.292-45.542 37.292-45.432 12.749-57.472 57.371-57.472 57.371-11.281 23.815-15.517 61.643-17.062 82.919-.272 3.749-1.169 7.41-2.581 10.893-2.787 6.875-4.909 16.781-2.44 29.126 5.009 25.043 46.514 32.267 46.514 32.267 19.681 4.894 36.494 8.845 50.234 11.561a26.123 26.123 0 0 1 7.636 2.781c4.911 2.732 17.312 9.76 42.285 12.578v-.357a7.468 7.468 0 0 1-6.238-5.733c-.634-2.777.316-5.636 2.671-7.582.941-.777 2.105-1.229 3.307-1.441a202.683 202.683 0 0 0 11.692-2.412c-8.631-1.764-19.206-4.512-26.425-8.383-3.398-1.822-4.873-5.911-3.441-9.491a7.587 7.587 0 0 1 5.312-4.564c7.008-1.655 21.252-6.008 21.252-14.055 0-10.671-17.167-5.104-23.663-5.104-4.64 0-14.961 1.894-22.171 4.667-5.569 2.142-11.81 1.766-17.135-.926-8.212-4.15-19.218-12.213-25.865-17.726a9.817 9.817 0 0 1-3.025-10.691c5.309-15.85 9.893-37.291 10.823-50.117.184-2.535 3.848-2.677 4.228-.164l4.573 30.268c.796 5.265 5.975 8.686 11.133 7.361 98.913-25.419 111.889-121.533 113.602-146.506.235-3.445-1.285-6.804-4.109-8.794z" opacity="1" data-original="#fcea9d"></path><path fill="#ffdd40" d="M247.731 457.923a7.468 7.468 0 0 1-6.238-5.733c-.634-2.777.316-5.636 2.671-7.582.941-.777 2.105-1.229 3.307-1.441a202.683 202.683 0 0 0 11.692-2.412c-8.631-1.764-19.206-4.512-26.425-8.383-3.398-1.822-4.873-5.912-3.441-9.491a7.587 7.587 0 0 1 5.312-4.564c7.008-1.655 21.252-6.008 21.252-14.054 0-10.671-17.167-5.104-23.663-5.104-4.64 0-14.961 1.894-22.171 4.667-5.57 2.142-11.81 1.766-17.135-.926-8.212-4.15-19.218-12.213-25.865-17.726-3.128-2.594-4.315-6.838-3.025-10.691 5.309-15.85 9.893-37.291 10.823-50.117.184-2.535 3.848-2.677 4.228-.164l4.573 30.268c.796 5.265 5.975 8.686 11.133 7.361 36.837-9.466 61.748-28.74 78.605-50.49L256 287.334v-36.07c-6.829-6.83 0-14.151 0-14.151l-18.476-12.55c12.06-6.739 16.304-19.279 17.754-26.001a17.805 17.805 0 0 1-3.816-.564c-5.633-1.481-15.154-4.868-20.544-11.705-1.4-1.775-3.012-3.365-4.757-4.8-6.902 28.542-45.542 37.292-45.542 37.292-45.432 12.749-57.472 57.371-57.472 57.371-11.281 23.815-15.517 61.643-17.062 82.919-.272 3.749-1.169 7.41-2.581 10.893-2.787 6.875-4.91 16.781-2.44 29.126 5.008 25.043 46.513 32.267 46.513 32.267 19.681 4.894 36.494 8.845 50.234 11.561a26.107 26.107 0 0 1 7.635 2.781c4.911 2.732 17.312 9.76 42.285 12.578z" opacity="1" data-original="#ffdd40" class=""></path><path fill="#ffdd40" d="M361.487 432.092c-21.001 5.246-32.852 7.974-47.297 10.829a26.107 26.107 0 0 0-7.635 2.781c-5.823 3.24-22.177 12.52-57.538 13.658-4.21.135-7.918-2.76-8.856-6.867-1.126-4.926 2.093-9.793 7.069-10.672 9.171-1.621 23.145-4.685 32.032-9.45 3.398-1.822 4.873-5.911 3.441-9.491a7.587 7.587 0 0 0-5.311-4.564c-7.008-1.655-21.252-6.008-21.252-14.054 0-10.671 17.167-5.104 23.663-5.104 4.64 0 14.961 1.894 22.171 4.667 5.569 2.142 11.81 1.766 17.135-.926 4.604-2.327 9.982-5.481 14.544-9.335a3.547 3.547 0 0 1 3.935-.433 59.343 59.343 0 0 1 27.904 31.315c1.239 3.226-.652 6.81-4.005 7.646z" opacity="1" data-original="#ffdd40" class=""></path><path fill="#ffc839" d="M216.226 324.033c-8.003 0-16.153-1.745-24.283-5.245-13.762-5.926-22.612-14.859-22.982-15.237a6.83 6.83 0 0 1 9.745-9.573c1.233 1.245 29.248 28.885 60.541 9.551 6.121-3.78 9.922-10.604 9.922-17.807v-27.629a6.83 6.83 0 0 1 13.66 0v27.629c0 11.902-6.285 23.179-16.403 29.429-9.571 5.914-19.761 8.882-30.2 8.882z" opacity="1" data-original="#ffc839" class=""></path><path fill="#ffc839" d="M272.752 303.53c-6.12-3.78-9.922-10.604-9.922-17.807v-27.629a6.83 6.83 0 0 0-13.66 0v27.629c0 11.902 6.285 23.179 16.402 29.428a65.345 65.345 0 0 0 3.177 1.834 143.928 143.928 0 0 0 8.539-10.957 51.095 51.095 0 0 1-4.536-2.498zM291.88 103.218c-6.882-2.222-14.252-1.134-20.22 2.984-5.757 3.972-9.258 10.197-9.608 17.079-.399 7.856 1.624 17.147 5.154 23.671a.11.11 0 0 1-.002.124c-.042.069-.102.069-.125.069h-22.158c-.023 0-.084 0-.125-.069a.114.114 0 0 1-.002-.125c3.531-6.523 5.554-15.814 5.154-23.67-.349-6.882-3.852-13.107-9.608-17.079-3.936-2.715-8.48-4.113-13.093-4.113-2.382 0-4.783.373-7.127 1.13l-10.796 3.486v43.976c0 17.274 10.219 27.513 15.896 31.869 2.115 1.622 4.046 3.47 5.696 5.563 5.39 6.838 14.911 10.224 20.544 11.706 2.977.783 6.1.783 9.077 0 5.633-1.481 15.154-4.868 20.544-11.706 1.65-2.093 3.582-3.941 5.696-5.563 5.677-4.356 15.897-14.595 15.897-31.869v-43.976z" opacity="1" data-original="#ffc839" class=""></path><path fill="#ffb332" d="M244.921 147.146c-.023 0-.084 0-.125-.07a.114.114 0 0 1-.002-.125c3.531-6.523 5.554-15.814 5.154-23.67-.349-6.882-3.852-13.107-9.608-17.079-3.936-2.715-8.481-4.113-13.093-4.113-2.383 0-4.783.373-7.127 1.129l-10.796 3.486v43.976c0 17.274 10.219 27.513 15.896 31.869 2.115 1.622 4.046 3.47 5.697 5.563 5.39 6.838 14.911 10.225 20.544 11.706 2.977.783 6.1.783 9.077 0 2.417-.635 5.55-1.625 8.765-3.084-12.97-4.078-13.303-23.812-13.303-23.812v-25.776z" opacity="1" data-original="#ffb332" class=""></path><path fill="#ffdd40" d="M256 75.621c-22.035 0-34.617 8.46-41.042 14.98a19.534 19.534 0 0 0-5.634 13.713v3.826l11.215-3.621c13.239-4.274 27.339 4.938 28.045 18.832.357 7.034-1.345 16.211-4.992 22.95-.542 1.001.191 2.211 1.329 2.211h22.157c1.138 0 1.871-1.21 1.329-2.211-3.648-6.739-5.349-15.916-4.992-22.95.706-13.895 14.805-23.107 28.045-18.832l11.215 3.621v-3.826a19.533 19.533 0 0 0-5.635-13.713c-6.423-6.52-19.005-14.98-41.04-14.98z" opacity="1" data-original="#ffdd40" class=""></path><path fill="#ffc839" d="M261.99 102.089 256 88.475c-4.269-4.269-3.202-8.223-1.801-10.588a4.141 4.141 0 0 0 .563-2.236c-21.255.316-33.502 8.556-39.803 14.95a19.534 19.534 0 0 0-5.634 13.712v3.826l11.215-3.621c13.239-4.274 27.339 4.938 28.045 18.832.357 7.034-1.345 16.211-4.992 22.95-.542 1.001.191 2.211 1.329 2.211h22.157c1.139 0 1.871-1.21 1.329-2.211-3.648-6.739-5.349-15.916-4.992-22.95.27-5.311 2.501-9.934 5.888-13.385-8.596.001-7.314-7.876-7.314-7.876z" opacity="1" data-original="#ffc839" class=""></path><path fill="#ffb332" d="M256 105.636a6.83 6.83 0 0 1-6.83-6.83v-3.501a6.83 6.83 0 0 1 13.66 0v3.501a6.83 6.83 0 0 1-6.83 6.83zM268.581 166.092a6.83 6.83 0 0 1-6.83 6.83H250.25c-3.773 0-6.83-3.058-6.83-6.83s3.057-6.83 6.83-6.83h11.501a6.83 6.83 0 0 1 6.83 6.83z" opacity="1" data-original="#ffb332" class=""></path><path fill="#ffc839" d="M256 237.113c-8.641 0-16.978-2.528-24.778-7.516a6.83 6.83 0 0 1 7.358-11.508c5.567 3.559 11.428 5.364 17.42 5.364 5.991 0 11.853-1.805 17.42-5.364a6.83 6.83 0 1 1 7.358 11.508c-7.8 4.987-16.137 7.516-24.778 7.516zM316.998 179.201c0 3.467-2.811 6.278-6.279 6.278a6.279 6.279 0 1 1 6.279-6.278zM209.654 179.201a6.279 6.279 0 1 1-12.557-.001 6.279 6.279 0 0 1 12.557.001z" opacity="1" data-original="#ffc839" class=""></path><g fill="#ff4155"><path d="M375.42 53.053c-14.269 9.206-29.81 26.786-26.147 59.029v.001c10.092 39.141 2.3 75.298 53.003 126.001 51.874 51.874 2.928 138.819 58.693 163.133C486.27 362.665 501 316.558 501 267c0-91.945-50.66-172.042-125.58-213.947zM136.58 53.053c14.269 9.206 29.81 26.786 26.147 59.029v.001c-10.092 39.141-2.3 75.298-53.003 126.001-51.874 51.874-2.928 138.819-58.693 163.133C25.73 362.665 11 316.558 11 267c0-91.945 50.66-172.042 125.58-213.947z" fill="#f3f3f3" opacity="1" data-original="#ff4155" class=""></path></g></g></svg>