<svg height="512" viewBox="0 0 64 64" width="512" xmlns="http://www.w3.org/2000/svg"><g id="_02-Christmas_Day" data-name="02-Christmas Day"><path d="m41 13v7c-7 0-7 7-7 7a2.006 2.006 0 0 0 -2 2v2h-7v6h7v2a10.343 10.343 0 0 0 -1 4h-28a2.006 2.006 0 0 1 -2-2v-28zm-20 24v-6h-6v6zm-10 0v-6h-6v6z" fill="#cdd2e1"/><path d="m39 13v7c-7 0-7 7-7 7a2.006 2.006 0 0 0 -2 2v2h2v-2a2.006 2.006 0 0 1 2-2s0-7 7-7v-7z" fill="#9196aa"/><path d="m30 39a10.343 10.343 0 0 0 -1 4h2a10.343 10.343 0 0 1 1-4v-2h-2z" fill="#9196aa"/><path d="m35 5v2a2 2 0 0 1 -4 0v-4a2.006 2.006 0 0 1 2-2 1.955 1.955 0 0 1 1.41.59 1.955 1.955 0 0 1 .59 1.41z" fill="#cdd2e1"/><path d="m33 7a2.006 2.006 0 0 1 -2-2v2a2 2 0 0 0 4 0v-2a2.006 2.006 0 0 1 -2 2z" fill="#9196aa"/><path d="m23 5v2a2 2 0 0 1 -4 0v-4a2.006 2.006 0 0 1 2-2 1.955 1.955 0 0 1 1.41.59 1.955 1.955 0 0 1 .59 1.41z" fill="#cdd2e1"/><path d="m11 5v2a2 2 0 0 1 -4 0v-4a2.006 2.006 0 0 1 2-2 1.955 1.955 0 0 1 1.41.59 1.955 1.955 0 0 1 .59 1.41z" fill="#cdd2e1"/><path d="m32 33v4h-7v-6h7z" fill="#f29f69"/><path d="m15 31h6v6h-6z" fill="#f29f69"/><path d="m5 31h6v6h-6z" fill="#f29f69"/><path d="m27 35v-4h-2v6h7v-2z" fill="#fc9942"/><path d="m17 35v-4h-2v6h6v-2z" fill="#fc9942"/><path d="m7 35v-4h-2v6h6v-2z" fill="#fc9942"/><path d="m41 7v6h-40v-6a2.006 2.006 0 0 1 2-2h4v2a2 2 0 0 0 4 0v-2h8v2a2 2 0 0 0 4 0v-2h8v2a2 2 0 0 0 4 0v-2h4a2.006 2.006 0 0 1 2 2z" fill="#dc464f"/><path d="m11 5h8v2h-8z" fill="#90262a"/><path d="m21 9a2.006 2.006 0 0 1 -2-2v2a2 2 0 0 0 4 0v-2a2.006 2.006 0 0 1 -2 2z" fill="#90262a"/><path d="m9 9a2.006 2.006 0 0 1 -2-2v2a2 2 0 0 0 4 0v-2a2.006 2.006 0 0 1 -2 2z" fill="#90262a"/><path d="m3 5a2.006 2.006 0 0 0 -2 2v2a2.006 2.006 0 0 1 2-2h4v-2z" fill="#90262a"/><path d="m39 5h-4v2h4a2.006 2.006 0 0 1 2 2v-2a2.006 2.006 0 0 0 -2-2z" fill="#90262a"/><path d="m23 5h8v2h-8z" fill="#90262a"/><path d="m33 9a2.006 2.006 0 0 1 -2-2v2a2 2 0 0 0 4 0v-2a2.006 2.006 0 0 1 -2 2z" fill="#90262a"/><path d="m47 48.27v1.73a2.938 2.938 0 0 1 -3 3l-3-3a17.415 17.415 0 0 0 6-1.73z" fill="#90262a"/><path d="m41 50-3 3a2.938 2.938 0 0 1 -3-3v-1.73a17.415 17.415 0 0 0 6 1.73z" fill="#90262a"/><path d="m42.73 39a2 2 0 1 1 -1.73-1 1.995 1.995 0 0 1 1.73 1z" fill="#dc464f"/><path d="m40 41a2 2 0 0 1 2-2 1.958 1.958 0 0 1 .809.189 1.991 1.991 0 0 0 -3.809.811 2 2 0 0 0 1.181 1.819 1.974 1.974 0 0 1 -.181-.819z" fill="#ff5767"/><path d="m50.41 45.1a8.028 8.028 0 0 1 -3.41 3.17 17.415 17.415 0 0 1 -6 1.73 17.415 17.415 0 0 1 -6-1.73 8.028 8.028 0 0 1 -3.41-3.17 4.608 4.608 0 0 1 -.59-2.1 10.343 10.343 0 0 1 1-4v-6h3v4a2.006 2.006 0 0 0 2 2h2.27a2 2 0 1 0 3.46 0h2.27a2.006 2.006 0 0 0 2-2v-4h3v6a10.343 10.343 0 0 1 1 4 4.608 4.608 0 0 1 -.59 2.1z" fill="#f2f6fc"/><path d="m50.41 43.1a8.028 8.028 0 0 1 -3.41 3.17 17.415 17.415 0 0 1 -6 1.73 17.415 17.415 0 0 1 -6-1.73 8.028 8.028 0 0 1 -3.41-3.17 5.241 5.241 0 0 1 -.481-1.27 7.18 7.18 0 0 0 -.109 1.17 4.608 4.608 0 0 0 .59 2.1 8.028 8.028 0 0 0 3.41 3.17 17.415 17.415 0 0 0 6 1.73 17.415 17.415 0 0 0 6-1.73 8.028 8.028 0 0 0 3.41-3.17 4.608 4.608 0 0 0 .59-2.1 7.18 7.18 0 0 0 -.109-1.17 5.241 5.241 0 0 1 -.481 1.27z" fill="#cdd2e1"/><path d="m47 33v4a2.006 2.006 0 0 1 -2 2h-2.27a2 2 0 0 0 -3.46 0h-2.27a2.006 2.006 0 0 1 -2-2v-4z" fill="#ffcdbe"/><path d="m45 38h-2.27a2 2 0 0 0 -3.46 0h-2.27a2.006 2.006 0 0 1 -2-2v1a2.006 2.006 0 0 0 2 2h2.27a2 2 0 0 1 3.46 0h2.27a2.006 2.006 0 0 0 2-2v-1a2.006 2.006 0 0 1 -2 2z" fill="#faa68e"/><path d="m50 29v4h-18v-4a2.006 2.006 0 0 1 2-2h14a2.006 2.006 0 0 1 2 2z" fill="#f2f6fc"/><path d="m49 31h-13a2 2 0 0 1 -2-2v-2a2.006 2.006 0 0 0 -2 2v4h18v-2z" fill="#cdd2e1"/><path d="m54 20a3 3 0 0 1 0 6 2.915 2.915 0 0 1 -1.15-.23 12.44 12.44 0 0 0 1.15-2.77 10.337 10.337 0 0 1 -2.97-.41v-.01a3 3 0 0 1 2.97-2.58z" fill="#f2f6fc"/><path d="m55 25a2.915 2.915 0 0 1 -1.15-.23 12.44 12.44 0 0 0 1.15-2.77 10.337 10.337 0 0 1 -2.97-.41v-.01a3.012 3.012 0 0 1 .429-1.154 3.009 3.009 0 0 0 -1.429 2.154v.01a10.337 10.337 0 0 0 2.97.41 12.44 12.44 0 0 1 -1.15 2.77 2.915 2.915 0 0 0 1.15.23 2.984 2.984 0 0 0 2.555-1.445 2.974 2.974 0 0 1 -1.555.445z" fill="#cdd2e1"/><path d="m48 27h-14s0-7 7-7c5.37 0 7.21 1.76 10.03 2.58v.01a10.337 10.337 0 0 0 2.97.41 12.44 12.44 0 0 1 -1.15 2.77 9.194 9.194 0 0 1 -2.85 3.23 2.006 2.006 0 0 0 -2-2z" fill="#dc464f"/><path d="m42.824 20.075c-.561-.048-1.165-.075-1.824-.075-7 0-7 7-7 7h3s0-6.186 5.824-6.925z" fill="#aa3949"/><path d="m51 27h-3a2.006 2.006 0 0 1 2 2 8.078 8.078 0 0 0 1.881-1.785 1.969 1.969 0 0 0 -.881-.215z" fill="#aa3949"/><path d="m63 63h-6a21.5 21.5 0 0 0 -3-10l3.95-3.95a13.244 13.244 0 0 1 1.05.95c4 4 4 13 4 13z" fill="#90262a"/><path d="m24.05 49.05 3.95 3.95a21.5 21.5 0 0 0 -3 10h-6s0-9 4-13a13.244 13.244 0 0 1 1.05-.95z" fill="#90262a"/><path d="m57.95 49.05-3.95 3.95a21.5 21.5 0 0 1 3 10h-16v-13l3 3a2.938 2.938 0 0 0 3-3v-1.73a8.028 8.028 0 0 0 3.41-3.17 19.669 19.669 0 0 1 7.54 3.95z" fill="#aa3949"/><path d="m41 50v13h-16a21.5 21.5 0 0 1 3-10l-3.95-3.95a19.669 19.669 0 0 1 7.54-3.95 8.028 8.028 0 0 0 3.41 3.17v1.73a2.938 2.938 0 0 0 3 3z" fill="#dc464f"/><path d="m21 7a2.006 2.006 0 0 1 -2-2v2a2 2 0 0 0 4 0v-2a2.006 2.006 0 0 1 -2 2z" fill="#9196aa"/><path d="m9 7a2.006 2.006 0 0 1 -2-2v2a2 2 0 0 0 4 0v-2a2.006 2.006 0 0 1 -2 2z" fill="#9196aa"/><path d="m30 31h2v4h-2z" fill="#fc9942"/><path d="m37 35h2v2h-2z" fill="#707789"/><path d="m43 35h2v2h-2z" fill="#707789"/><path d="m44 55h2v2h-2z" fill="#90262a"/><path d="m44 59h2v2h-2z" fill="#90262a"/><path d="m36 55h2v2h-2z" fill="#90262a"/><path d="m36 59h2v2h-2z" fill="#90262a"/><g fill="#9196aa"><path d="m7 24h2a3 3 0 0 0 0-6h-2a3 3 0 0 0 -3 3h2a1 1 0 0 1 1-1h2a1 1 0 0 1 0 2h-2a3 3 0 0 0 0 6h5v-2h-5a1 1 0 0 1 0-2z"/><path d="m18 26h-5v2h5a3 3 0 0 0 0-6h-3v-2h6v-2h-7a1 1 0 0 0 -1 1v4a1 1 0 0 0 1 1h4a1 1 0 0 1 0 2z"/><path d="m36 16h2v2h-2z"/><path d="m24 16h10v2h-10z"/><path d="m24 20h9v2h-9z"/><path d="m24 24h7v2h-7z"/><path d="m45 9h6v2h-6z"/><path d="m44.172 4h5.657v2h-5.657z" transform="matrix(.707 -.707 .707 .707 10.23 34.698)"/><path d="m46 12.172h2v5.657h-2z" transform="matrix(.707 -.707 .707 .707 3.159 37.627)"/></g></g></svg>