<svg xmlns="http://www.w3.org/2000/svg" version="1.1" xmlns:xlink="http://www.w3.org/1999/xlink" width="512" height="512" x="0" y="0" viewBox="0 0 682.667 682.667" style="enable-background:new 0 0 512 512" xml:space="preserve" class=""><g><defs stroke-width="4" style="stroke-width: 4;"><clipPath id="a" clipPathUnits="userSpaceOnUse" stroke-width="4" style="stroke-width: 4;"><path d="M0 512h512V0H0Z" fill="#000000" opacity="1" data-original="#000000" stroke-width="4" style="stroke-width: 4;" class=""></path></clipPath></defs><g clip-path="url(#a)" transform="matrix(1.33333 0 0 -1.33333 0 682.667)" stroke-width="4" style="stroke-width: 4;"><path d="M0 0h-481.989a7.66 7.66 0 0 0-7.66 7.66v281.271H7.66V7.66A7.66 7.66 0 0 0 0 0" style="fill-opacity: 1; fill-rule: nonzero; stroke: none; stroke-width: 4;" transform="translate(496.995 42.84)" fill="#f8f6f6" data-original="#f8f6f6" stroke-width="4" class=""></path><path d="M0 0h-497.31v92.319a7.66 7.66 0 0 0 7.661 7.66H-7.66A7.66 7.66 0 0 0 0 92.319z" style="fill-opacity: 1; fill-rule: nonzero; stroke: none; stroke-width: 4;" transform="translate(504.655 331.772)" fill="#f75f5f" data-original="#a6e7f0" stroke-width="4" class="" opacity="1"></path><path d="M0 0v-281.27c0-4.23-3.42-7.66-7.66-7.66h-20.49a7.66 7.66 0 0 1 7.66 7.66V0Z" style="fill-opacity: 1; fill-rule: nonzero; stroke: none; stroke-width: 4;" transform="translate(504.65 331.77)" fill="#ececec" data-original="#ececec" stroke-width="4" class=""></path><path d="M0 0v-92.32h-20.49V0a7.66 7.66 0 0 1-7.66 7.66h20.49C-3.42 7.66 0 4.23 0 0" style="fill-opacity: 1; fill-rule: nonzero; stroke: none; stroke-width: 4;" transform="translate(504.65 424.09)" fill="#ff7777" data-original="#6bd9e7" stroke-width="4" class="" opacity="1"></path><path d="M0 0h149.989a7.66 7.66 0 0 0 7.66-7.66v-92.319H-339.66V-7.66A7.66 7.66 0 0 0-332 0h297.512" style="stroke-width: 4; stroke-linecap: round; stroke-linejoin: round; stroke-miterlimit: 10; stroke-dasharray: none; stroke-opacity: 1;" transform="translate(347.005 431.752)" fill="none" stroke="#000000" stroke-width="4" stroke-linecap="round" stroke-linejoin="round" stroke-miterlimit="10" stroke-dasharray="none" stroke-opacity="" data-original="#000000" class=""></path><path d="M0 0h-66.299a7.66 7.66 0 0 0-7.66 7.66v281.271H423.35V7.66A7.66 7.66 0 0 0 415.69 0H35.134" style="stroke-width: 4; stroke-linecap: round; stroke-linejoin: round; stroke-miterlimit: 10; stroke-dasharray: none; stroke-opacity: 1;" transform="translate(81.305 42.84)" fill="none" stroke="#000000" stroke-width="4" stroke-linecap="round" stroke-linejoin="round" stroke-miterlimit="10" stroke-dasharray="none" stroke-opacity="" data-original="#000000" class=""></path><path d="M0 0c-9.125 0-16.522 7.397-16.522 16.522v38.351c0 9.125 7.397 16.523 16.522 16.523 9.125 0 16.522-7.398 16.522-16.523V16.522C16.522 7.397 9.125 0 0 0" style="fill-opacity: 1; fill-rule: nonzero; stroke: none; stroke-width: 4;" transform="translate(113.7 397.764)" fill="#5a5a5a" data-original="#5a5a5a" stroke-width="4"></path><path d="M0 0c-9.125 0-16.522 7.397-16.522 16.522v38.351c0 9.125 7.397 16.523 16.522 16.523 9.125 0 16.522-7.398 16.522-16.523V16.522C16.522 7.397 9.125 0 0 0" style="fill-opacity: 1; fill-rule: nonzero; stroke: none; stroke-width: 4;" transform="translate(398.3 397.764)" fill="#5a5a5a" data-original="#5a5a5a" stroke-width="4"></path><path d="M0 0v-38.35c0-9.13-7.4-16.53-16.52-16.53-3.01 0-5.83.8-8.26 2.21 4.94 2.86 8.26 8.2 8.26 14.32V0c0 4.56-1.85 8.69-4.84 11.68-1.02 1.02-2.17 1.9-3.42 2.63 2.43 1.41 5.25 2.21 8.26 2.21 4.56 0 8.69-1.85 11.68-4.84C-1.85 8.69 0 4.56 0 0" style="fill-opacity: 1; fill-rule: nonzero; stroke: none; stroke-width: 4;" transform="translate(130.22 452.64)" fill="#444444" data-original="#444444" stroke-width="4" class=""></path><path d="M0 0v-38.35c0-9.13-7.39-16.53-16.52-16.53-3.01 0-5.83.81-8.26 2.22 4.94 2.85 8.26 8.19 8.26 14.31V0c0 4.56-1.85 8.69-4.84 11.68-1.02 1.02-2.17 1.9-3.42 2.62 2.43 1.41 5.25 2.22 8.26 2.22 4.56 0 8.7-1.85 11.68-4.84C-1.85 8.69 0 4.56 0 0" style="fill-opacity: 1; fill-rule: nonzero; stroke: none; stroke-width: 4;" transform="translate(414.82 452.64)" fill="#444444" data-original="#444444" stroke-width="4" class=""></path><path d="M0 0v0c-9.125 0-16.522 7.397-16.522 16.522v38.351c0 9.125 7.397 16.523 16.522 16.523 9.125 0 16.522-7.398 16.522-16.523V16.522C16.522 7.397 9.125 0 0 0Z" style="stroke-width: 4; stroke-linecap: round; stroke-linejoin: round; stroke-miterlimit: 10; stroke-dasharray: none; stroke-opacity: 1;" transform="translate(113.7 397.764)" fill="none" stroke="#000000" stroke-width="4" stroke-linecap="round" stroke-linejoin="round" stroke-miterlimit="10" stroke-dasharray="none" stroke-opacity="" data-original="#000000" class=""></path><path d="M0 0v0c-9.125 0-16.522 7.397-16.522 16.522v38.351c0 9.125 7.397 16.523 16.522 16.523 9.125 0 16.522-7.398 16.522-16.523V16.522C16.522 7.397 9.125 0 0 0Z" style="stroke-width: 4; stroke-linecap: round; stroke-linejoin: round; stroke-miterlimit: 10; stroke-dasharray: none; stroke-opacity: 1;" transform="translate(398.3 397.764)" fill="none" stroke="#000000" stroke-width="4" stroke-linecap="round" stroke-linejoin="round" stroke-miterlimit="10" stroke-dasharray="none" stroke-opacity="" data-original="#000000" class=""></path><path d="m0 0 21.783 57.194c.446 1.088 1.986 1.09 2.433.003L45.801 0" style="stroke-width: 4; stroke-linecap: round; stroke-linejoin: round; stroke-miterlimit: 10; stroke-dasharray: none; stroke-opacity: 1;" transform="translate(363.932 158.3)" fill="none" stroke="#000000" stroke-width="4" stroke-linecap="round" stroke-linejoin="round" stroke-miterlimit="10" stroke-dasharray="none" stroke-opacity="" data-original="#000000" class=""></path><path d="M0 0h32.324" style="stroke-width: 4; stroke-linecap: round; stroke-linejoin: round; stroke-miterlimit: 10; stroke-dasharray: none; stroke-opacity: 1;" transform="translate(370.725 172.545)" fill="none" stroke="#000000" stroke-width="4" stroke-linecap="round" stroke-linejoin="round" stroke-miterlimit="10" stroke-dasharray="none" stroke-opacity="" data-original="#000000" class=""></path><path d="M0 0v-57.962c.641-.11 20.314 0 20.314 0" style="stroke-width: 4; stroke-linecap: round; stroke-linejoin: round; stroke-miterlimit: 10; stroke-dasharray: none; stroke-opacity: 1;" transform="translate(208.53 216.312)" fill="none" stroke="#000000" stroke-width="4" stroke-linecap="round" stroke-linejoin="round" stroke-miterlimit="10" stroke-dasharray="none" stroke-opacity="" data-original="#000000" class=""></path><path d="M0 0v-58.011" style="stroke-width: 4; stroke-linecap: round; stroke-linejoin: round; stroke-miterlimit: 10; stroke-dasharray: none; stroke-opacity: 1;" transform="translate(261.396 216.312)" fill="none" stroke="#000000" stroke-width="4" stroke-linecap="round" stroke-linejoin="round" stroke-miterlimit="10" stroke-dasharray="none" stroke-opacity="" data-original="#000000" class=""></path><path d="M0 0v-58.011" style="stroke-width: 4; stroke-linecap: round; stroke-linejoin: round; stroke-miterlimit: 10; stroke-dasharray: none; stroke-opacity: 1;" transform="translate(45.269 216.312)" fill="none" stroke="#000000" stroke-width="4" stroke-linecap="round" stroke-linejoin="round" stroke-miterlimit="10" stroke-dasharray="none" stroke-opacity="" data-original="#000000" class=""></path><path d="M0 0v-58.011" style="stroke-width: 4; stroke-linecap: round; stroke-linejoin: round; stroke-miterlimit: 10; stroke-dasharray: none; stroke-opacity: 1;" transform="translate(85.414 216.312)" fill="none" stroke="#000000" stroke-width="4" stroke-linecap="round" stroke-linejoin="round" stroke-miterlimit="10" stroke-dasharray="none" stroke-opacity="" data-original="#000000" class=""></path><path d="M0 0h40.145" style="stroke-width: 4; stroke-linecap: round; stroke-linejoin: round; stroke-miterlimit: 10; stroke-dasharray: none; stroke-opacity: 1;" transform="translate(45.269 188.301)" fill="none" stroke="#000000" stroke-width="4" stroke-linecap="round" stroke-linejoin="round" stroke-miterlimit="10" stroke-dasharray="none" stroke-opacity="" data-original="#000000" class=""></path><path d="M0 0v-55.322" style="stroke-width: 4; stroke-linecap: round; stroke-linejoin: round; stroke-miterlimit: 10; stroke-dasharray: none; stroke-opacity: 1;" transform="translate(298.424 214.538)" fill="none" stroke="#000000" stroke-width="4" stroke-linecap="round" stroke-linejoin="round" stroke-miterlimit="10" stroke-dasharray="none" stroke-opacity="" data-original="#000000" class=""></path><path d="M0 0c0-15.511-8.609-27.785-22.268-28.023-4.546-.08-16.296-.124-16.296-.124s-.073 20.391-.073 28.209c0 6.422-.041 28.086-.041 28.086h15.944C-7.753 28.148 0 15.511 0 0Z" style="stroke-width: 4; stroke-linecap: round; stroke-linejoin: round; stroke-miterlimit: 10; stroke-dasharray: none; stroke-opacity: 1;" transform="translate(337.102 186.448)" fill="none" stroke="#000000" stroke-width="4" stroke-linecap="round" stroke-linejoin="round" stroke-miterlimit="10" stroke-dasharray="none" stroke-opacity="" data-original="#000000" class=""></path><path d="m0 0 18.53-28.378L36.908-.147" style="stroke-width: 4; stroke-linecap: round; stroke-linejoin: round; stroke-miterlimit: 10; stroke-dasharray: none; stroke-opacity: 1;" transform="translate(429.823 216.312)" fill="none" stroke="#000000" stroke-width="4" stroke-linecap="round" stroke-linejoin="round" stroke-miterlimit="10" stroke-dasharray="none" stroke-opacity="" data-original="#000000" class=""></path><path d="m0 0 .073 29.633" style="stroke-width: 4; stroke-linecap: round; stroke-linejoin: round; stroke-miterlimit: 10; stroke-dasharray: none; stroke-opacity: 1;" transform="translate(448.28 158.3)" fill="none" stroke="#000000" stroke-width="4" stroke-linecap="round" stroke-linejoin="round" stroke-miterlimit="10" stroke-dasharray="none" stroke-opacity="" data-original="#000000" class=""></path><path d="M0 0c0-16.019-12.986-29.005-29.006-29.005-16.019 0-29.005 12.986-29.005 29.005 0 16.02 12.986 29.006 29.005 29.006C-12.986 29.006 0 16.02 0 0Z" style="stroke-width: 4; stroke-linecap: round; stroke-linejoin: round; stroke-miterlimit: 10; stroke-dasharray: none; stroke-opacity: 1;" transform="translate(175.977 187.306)" fill="none" stroke="#000000" stroke-width="4" stroke-linecap="round" stroke-linejoin="round" stroke-miterlimit="10" stroke-dasharray="none" stroke-opacity="" data-original="#000000" class=""></path></g></g></svg>