<svg xmlns="http://www.w3.org/2000/svg" version="1.1" xmlns:xlink="http://www.w3.org/1999/xlink" width="512" height="512" x="0" y="0" viewBox="0 0 682.667 682.667" style="enable-background:new 0 0 512 512" xml:space="preserve" class=""><g><defs stroke-width="5" style="stroke-width: 5;"><clipPath id="a" clipPathUnits="userSpaceOnUse" stroke-width="5" style="stroke-width: 5;"><path d="M0 512h512V0H0Z" fill="#000000" opacity="1" data-original="#000000" stroke-width="5" style="stroke-width: 5;"></path></clipPath></defs><g clip-path="url(#a)" transform="matrix(1.33333 0 0 -1.33333 0 682.667)" stroke-width="5" style="stroke-width: 5;"><path d="M0 0c-17.663 0-31.983 14.222-31.983 31.765v256.551h-30.064c-17.664 0-31.983 14.222-31.983 31.766 0 17.543 14.319 31.765 31.983 31.765H0c17.663 0 31.982-14.222 31.982-31.765V31.765C31.982 14.222 17.663 0 0 0" style="fill-opacity: 1; fill-rule: nonzero; stroke: none; stroke-width: 5;" transform="translate(156.04 152.653)" fill="#fd9468" data-original="#fd9468" stroke-width="5" class=""></path><path d="M0 0h-30C-12.337 0 1.983-14.222 1.983-31.766v-288.316c0-12.158-6.88-22.716-16.983-28.056a32.015 32.015 0 0 1 15-3.709c17.663 0 31.983 14.222 31.983 31.765v288.316C31.983-14.222 17.663 0 0 0" style="fill-opacity: 1; fill-rule: nonzero; stroke: none; stroke-width: 5;" transform="translate(156.04 504.5)" fill="#fe7d43" data-original="#fe7d43" stroke-width="5" class=""></path><path d="M0 0c12.725 1.766 24.941-4.729 31.193-15.895C41.007-33.42 60.001-44.903 81.322-44.46c29.188.585 53.235 23.731 54.747 52.694.808 15.471-4.632 30.156-15.312 41.348-10.691 11.202-25.111 17.371-40.607 17.371-22.434 0-31.182-3.191-42.921-8.448a64.345 64.345 0 0 1-2.291-1.072C23.437 51.517 9.427 53.196-.436 61.882c-8.263 7.276-11.77 18.543-9.966 29.375L10.77 218.395c2.522 15.139 15.681 26.242 31.106 26.242h106.632c16.976 0 31.585-12.981 32.384-29.852.852-18.014-13.576-32.886-31.494-32.886H68.612l-8.839-53.066c6.148.566 12.869.858 20.377.858 32.482 0 63.95-13.454 86.336-36.912 22.707-23.793 34.269-54.973 32.557-87.797-3.217-61.653-54.368-110.923-116.45-112.168-.811-.016-1.626-.024-2.433-.024-44.747-.003-84.483 24.777-104.79 62.122C-34.839-26.313-22.771-3.16-1.521-.211z" style="fill-opacity: 1; fill-rule: nonzero; stroke: none; stroke-width: 5;" transform="translate(250.781 259.863)" fill="#fd9468" data-original="#fd9468" stroke-width="5" class=""></path><path d="M0 0c.853-18.015-13.575-32.887-31.493-32.887h30C16.425-32.887 30.853-18.015 30 0c-.799 16.871-15.407 29.852-32.384 29.852h-30C-15.407 29.852-.799 16.871 0 0" style="fill-opacity: 1; fill-rule: nonzero; stroke: none; stroke-width: 5;" transform="translate(401.673 474.648)" fill="#fe7d43" data-original="#fe7d43" stroke-width="5" class=""></path><path d="M0 0c-22.387 23.459-53.854 36.912-86.336 36.912-6.459 0-12.332-.218-17.762-.639C-76.053 33.354-49.56 20.496-30 0-7.293-23.793 4.269-54.974 2.557-87.797-.44-145.23-45.036-191.91-101.313-199.038a119.944 119.944 0 0 1 17.419-.927C-21.812-198.721 29.34-149.45 32.557-87.797 34.269-54.974 22.707-23.793 0 0" style="fill-opacity: 1; fill-rule: nonzero; stroke: none; stroke-width: 5;" transform="translate(417.268 352.643)" fill="#fe7d43" data-original="#fe7d43" stroke-width="5" class=""></path><path d="M0 0h-83.652a7 7 0 0 0-7 7v108.153H0a4 4 0 0 0 3.925-4.77l-9.987-50.88a9.99 9.99 0 0 1 0-3.853L3.925 4.771A4 4 0 0 0 0 0" style="fill-opacity: 1; fill-rule: nonzero; stroke: none; stroke-width: 5;" transform="translate(500.499 7.5)" fill="#4fd08d" data-original="#4f66d0" stroke-width="5" class="" opacity="1"></path><path d="M0 0h83.652a7 7 0 0 1 7 7v108.153H0a4 4 0 0 1-3.925-4.77l9.987-50.88a9.99 9.99 0 0 0 0-3.853L-3.925 4.771A4 4 0 0 1 0 0" style="fill-opacity: 1; fill-rule: nonzero; stroke: none; stroke-width: 5;" transform="translate(11.501 7.5)" fill="#4fd08d" data-original="#4f66d0" stroke-width="5" class="" opacity="1"></path><path d="M0 0h-375.514c-5.522 0-10 4.478-10 10v95.153c0 5.523 4.478 10 10 10H0c5.522 0 10-4.477 10-10V10C10 4.478 5.522 0 0 0" style="fill-opacity: 1; fill-rule: nonzero; stroke: none; stroke-width: 5;" transform="translate(443.757 37.5)" fill="#feffff" data-original="#6c7fd8" stroke-width="5" class="" opacity="1"></path><path d="M0 0v81.636h-30.063c-17.665 0-31.984 14.221-31.984 31.765 0 17.543 14.319 31.765 31.984 31.765h62.046c17.663 0 31.983-14.222 31.983-31.765v-288.317c0-17.543-14.32-31.765-31.983-31.765S0-192.459 0-174.916V-35" style="stroke-width: 5; stroke-linecap: round; stroke-linejoin: round; stroke-miterlimit: 10; stroke-dasharray: none; stroke-opacity: 1;" transform="translate(124.057 359.334)" fill="none" stroke="#000000" stroke-width="5" stroke-linecap="round" stroke-linejoin="round" stroke-miterlimit="10" stroke-dasharray="none" stroke-opacity="" data-original="#000000" class=""></path><path d="M0 0c12.725 1.766 24.941-4.729 31.193-15.895C41.007-33.42 60.001-44.903 81.322-44.46c29.188.585 53.235 23.731 54.747 52.694.808 15.471-4.632 30.156-15.312 41.348-10.691 11.202-25.111 17.371-40.607 17.371-22.434 0-31.182-3.191-42.921-8.448a64.345 64.345 0 0 1-2.291-1.072C23.437 51.517 9.427 53.196-.436 61.882c-8.263 7.276-11.77 18.543-9.966 29.375L10.77 218.395c2.522 15.139 15.681 26.242 31.106 26.242h106.632c16.976 0 31.585-12.981 32.384-29.852.852-18.014-13.576-32.886-31.494-32.886H68.612l-8.839-53.066c6.148.566 12.869.858 20.377.858 32.482 0 63.95-13.454 86.336-36.912 22.707-23.793 34.269-54.973 32.557-87.797-3.217-61.653-54.368-110.923-116.45-112.168-.811-.016-1.626-.024-2.433-.024-44.747-.003-84.483 24.777-104.79 62.122C-34.839-26.313-22.771-3.16-1.521-.211z" style="stroke-width: 5; stroke-linecap: round; stroke-linejoin: round; stroke-miterlimit: 10; stroke-dasharray: none; stroke-opacity: 1;" transform="translate(250.781 259.863)" fill="none" stroke="#000000" stroke-width="5" stroke-linecap="round" stroke-linejoin="round" stroke-miterlimit="10" stroke-dasharray="none" stroke-opacity="" data-original="#000000" class=""></path><path d="M0 0h46.74c2.52 0 4.41-2.301 3.92-4.771L40.681-55.65a9.975 9.975 0 0 1 0-3.85l9.979-50.881a3.993 3.993 0 0 0-3.92-4.769h-83.65c-3.869 0-7 3.129-7 7v23" style="stroke-width: 5; stroke-linecap: round; stroke-linejoin: round; stroke-miterlimit: 10; stroke-dasharray: none; stroke-opacity: 1;" transform="translate(453.76 122.65)" fill="none" stroke="#000000" stroke-width="5" stroke-linecap="round" stroke-linejoin="round" stroke-miterlimit="10" stroke-dasharray="none" stroke-opacity="" data-original="#000000" class=""></path><path d="M0 0v-23c0-3.87-3.131-7-7-7h-83.65c-2.52 0-4.411 2.3-3.92 4.77l9.979 50.88c.25 1.27.25 2.58 0 3.85l-9.979 50.88a3.993 3.993 0 0 0 3.92 4.77h46.74" style="stroke-width: 5; stroke-linecap: round; stroke-linejoin: round; stroke-miterlimit: 10; stroke-dasharray: none; stroke-opacity: 1;" transform="translate(102.15 37.5)" fill="none" stroke="#000000" stroke-width="5" stroke-linecap="round" stroke-linejoin="round" stroke-miterlimit="10" stroke-dasharray="none" stroke-opacity="" data-original="#000000" class=""></path><path d="M0 0h-246.939c-5.523 0-10 4.478-10 10v95.153c0 5.523 4.477 10 10 10h375.513c5.523 0 10-4.477 10-10V10c0-5.522-4.477-10-10-10H35" style="stroke-width: 5; stroke-linecap: round; stroke-linejoin: round; stroke-miterlimit: 10; stroke-dasharray: none; stroke-opacity: 1;" transform="translate(315.183 37.5)" fill="none" stroke="#000000" stroke-width="5" stroke-linecap="round" stroke-linejoin="round" stroke-miterlimit="10" stroke-dasharray="none" stroke-opacity="" data-original="#000000" class=""></path><path d="m0 0 19.097 50.142c.39.954 1.741.955 2.132.002L40.153 0" style="stroke-width: 5; stroke-linecap: round; stroke-linejoin: round; stroke-miterlimit: 10; stroke-dasharray: none; stroke-opacity: 1;" transform="translate(84.049 69.647)" fill="none" stroke="#000000" stroke-width="5" stroke-linecap="round" stroke-linejoin="round" stroke-miterlimit="10" stroke-dasharray="none" stroke-opacity="" data-original="#000000" class=""></path><path d="M0 0h28.338" style="stroke-width: 5; stroke-linecap: round; stroke-linejoin: round; stroke-miterlimit: 10; stroke-dasharray: none; stroke-opacity: 1;" transform="translate(90.005 82.136)" fill="none" stroke="#000000" stroke-width="5" stroke-linecap="round" stroke-linejoin="round" stroke-miterlimit="10" stroke-dasharray="none" stroke-opacity="" data-original="#000000" class=""></path><path d="M0 0a25.306 25.306 0 0 1-14.217 4.343c-14.044 0-25.429-11.385-25.429-25.429 0-14.044 11.385-25.429 25.429-25.429 14.044 0 21.951 11.385 21.951 25.429H-7.479" style="stroke-width: 5; stroke-linecap: round; stroke-linejoin: round; stroke-miterlimit: 10; stroke-dasharray: none; stroke-opacity: 1;" transform="translate(249.418 116.162)" fill="none" stroke="#000000" stroke-width="5" stroke-linecap="round" stroke-linejoin="round" stroke-miterlimit="10" stroke-dasharray="none" stroke-opacity="" data-original="#000000" class=""></path><path d="M0 0s-9.126 7.671-19.887 4.429c-9.882-2.977-11.263-14.37-4.115-19.032 0 0 7.015-3.128 14.796-5.999C9.522-27.51 1.455-45.63-13.622-45.63c-7.551 0-13.888 3.307-17.723 7.539" style="stroke-width: 5; stroke-linecap: round; stroke-linejoin: round; stroke-miterlimit: 10; stroke-dasharray: none; stroke-opacity: 1;" transform="translate(374.502 115.277)" fill="none" stroke="#000000" stroke-width="5" stroke-linecap="round" stroke-linejoin="round" stroke-miterlimit="10" stroke-dasharray="none" stroke-opacity="" data-original="#000000" class=""></path><path d="M0 0v-34.995c0-5.96 2.957-9.973 7.979-13.181 2.446-1.562 5.535-2.676 9.375-2.681 3.324-.004 6.103.765 8.4 1.922 5.853 2.948 9.585 7.423 9.585 13.977V0" style="stroke-width: 5; stroke-linecap: round; stroke-linejoin: round; stroke-miterlimit: 10; stroke-dasharray: none; stroke-opacity: 1;" transform="translate(149.184 120.505)" fill="none" stroke="#000000" stroke-width="5" stroke-linecap="round" stroke-linejoin="round" stroke-miterlimit="10" stroke-dasharray="none" stroke-opacity="" data-original="#000000" class=""></path><path d="M0 0v-34.995c0-5.96 2.957-9.973 7.979-13.181 2.446-1.562 5.535-2.676 9.375-2.681 3.324-.004 6.103.765 8.4 1.922 5.853 2.948 9.585 7.423 9.585 13.977V0" style="stroke-width: 5; stroke-linecap: round; stroke-linejoin: round; stroke-miterlimit: 10; stroke-dasharray: none; stroke-opacity: 1;" transform="translate(282.547 120.505)" fill="none" stroke="#000000" stroke-width="5" stroke-linecap="round" stroke-linejoin="round" stroke-miterlimit="10" stroke-dasharray="none" stroke-opacity="" data-original="#000000" class=""></path><path d="M0 0h28.087" style="stroke-width: 5; stroke-linecap: round; stroke-linejoin: round; stroke-miterlimit: 10; stroke-dasharray: none; stroke-opacity: 1;" transform="translate(399.864 120.505)" fill="none" stroke="#000000" stroke-width="5" stroke-linecap="round" stroke-linejoin="round" stroke-miterlimit="10" stroke-dasharray="none" stroke-opacity="" data-original="#000000" class=""></path><path d="M0 0v-49.233" style="stroke-width: 5; stroke-linecap: round; stroke-linejoin: round; stroke-miterlimit: 10; stroke-dasharray: none; stroke-opacity: 1;" transform="translate(413.85 118.88)" fill="none" stroke="#000000" stroke-width="5" stroke-linecap="round" stroke-linejoin="round" stroke-miterlimit="10" stroke-dasharray="none" stroke-opacity="" data-original="#000000" class=""></path></g></g></svg>