<svg xmlns="http://www.w3.org/2000/svg" version="1.1" xmlns:xlink="http://www.w3.org/1999/xlink" width="512" height="512" x="0" y="0" viewBox="0 0 682.667 682.667" style="enable-background:new 0 0 512 512" xml:space="preserve" class=""><g><defs stroke-width="1" style="stroke-width: 1;"><clipPath id="a" clipPathUnits="userSpaceOnUse" stroke-width="1" style="stroke-width: 1;"><path d="M0 512h512V0H0Z" fill="#000000" opacity="1" data-original="#000000" stroke-width="1" style="stroke-width: 1;"></path></clipPath></defs><g clip-path="url(#a)" transform="matrix(1.33333 0 0 -1.33333 0 682.667)" stroke-width="1" style="stroke-width: 1;"><path d="M0 0h24.374v79.396c0 6.678-5.414 12.091-12.092 12.091h-.19C5.414 91.487 0 86.074 0 79.396Z" style="fill-opacity: 1; fill-rule: nonzero; stroke: none; stroke-width: 1;" transform="translate(109.495 173.851)" fill="#b3dafe" data-original="#b3dafe" stroke-width="1" class=""></path><path d="M0 0c-2.313 0-4.468-.67-6.311-1.812A12.466 12.466 0 0 0-.436-12.434v-79.054h12.624v79.054C12.188-5.567 6.73 0 0 0" style="fill-opacity: 1; fill-rule: nonzero; stroke: none; stroke-width: 1;" transform="translate(121.682 265.339)" fill="#8ac9fe" data-original="#8ac9fe" stroke-width="1" class=""></path><path d="M0 0h24.374v56.758c0 6.678-5.414 12.092-12.092 12.092h-.19C5.414 68.85 0 63.436 0 56.758Z" style="fill-opacity: 1; fill-rule: nonzero; stroke: none; stroke-width: 1;" transform="translate(60.748 196.489)" fill="#b3dafe" data-original="#b3dafe" stroke-width="1" class=""></path><path d="M0 0c-2.313 0-4.469-.67-6.311-1.812A12.466 12.466 0 0 0-.436-12.434V-68.85h12.624v56.416C12.188-5.567 6.731 0 0 0" style="fill-opacity: 1; fill-rule: nonzero; stroke: none; stroke-width: 1;" transform="translate(72.935 265.339)" fill="#8ac9fe" data-original="#8ac9fe" stroke-width="1" class=""></path><path d="M0 0h41.009V102.909c11.474 3.306 20.392 13.173 22.236 25.716l.747 5.077V160.268c0 2.2-.946 4.29-2.588 5.717l-13.511 11.75a20.471 20.471 0 0 0 2.202 3.228 4.291 4.291 0 0 0 6.134.499l17.798-15.477a7.573 7.573 0 0 0 2.587-5.717v40.886H-20.88v-67.426c0-13.928 8.713-25.775 20.88-30.191z" style="fill-opacity: 1; fill-rule: nonzero; stroke: none; stroke-width: 1;" transform="translate(81.628 7.5)" fill="#b3dafe" data-original="#b3dafe" stroke-width="1" class=""></path><path d="m0 0-24.204 102.989L-126.468 0Z" style="fill-opacity: 1; fill-rule: nonzero; stroke: none; stroke-width: 1;" transform="translate(249.745 7.5)" fill="#60b8fe" data-original="#60b8fe" stroke-width="1" class=""></path><path d="M0 0v103.537l-.105-.006c10.504 3.827 18.502 13.285 20.238 25.094l.747 5.077V160.268c0 2.2-.945 4.29-2.587 5.717L.495 181.462a4.292 4.292 0 0 1-6.135-.499 20.54 20.54 0 0 1-2.202-3.228l13.512-11.75a7.574 7.574 0 0 0 2.588-5.717V133.702l-.747-5.077c-1.844-12.543-10.762-22.41-22.237-25.716V0Z" style="fill-opacity: 1; fill-rule: nonzero; stroke: none; stroke-width: 1;" transform="translate(137.362 7.5)" fill="#8ac9fe" data-original="#8ac9fe" stroke-width="1" class=""></path><path d="M0 0c-.161 18.435 15.919 18.584 15.758 37.019C15.597 55.45-.483 55.3-.646 73.731c-.161 18.433 15.919 18.582 15.758 37.015-.161 18.431-16.241 18.281-16.402 36.712h-189.153c-.161-18.431-16.242-18.281-16.404-36.712-.161-18.433 15.92-18.582 15.758-37.015-.161-18.431-16.241-18.281-16.402-36.712-.162-18.435 15.919-18.584 15.757-37.019-.162-18.434-16.242-18.284-16.403-36.717h224.54C16.241-18.284.161-18.434 0 0" style="fill-opacity: 1; fill-rule: nonzero; stroke: none; stroke-width: 1;" transform="translate(429.006 102.161)" fill="#5a5a5a" data-original="#5a5a5a" stroke-width="1"></path><path d="M0 0c-.161 18.435 15.919 18.584 15.758 37.019C15.597 55.45-.483 55.3-.646 73.731c-.161 18.433 15.919 18.582 15.758 37.015-.161 18.431-16.241 18.281-16.402 36.712h-23.142c.161-18.431 16.242-18.281 16.404-36.712.161-18.433-15.92-18.582-15.758-37.015C-23.625 55.3-7.545 55.45-7.384 37.019-7.223 18.584-23.303 18.435-23.142 0c.163-18.434 16.243-18.284 16.404-36.717h23.141C16.241-18.284.161-18.434 0 0" style="fill-opacity: 1; fill-rule: nonzero; stroke: none; stroke-width: 1;" transform="translate(445.836 102.161)" fill="#444444" data-original="#444444" stroke-width="1" class=""></path><path d="M0 0v102.989l-5.244 11.006-25.577 1.895-.004-.024-13.233-4.644-15.719 4.668c0 .061.004.121.004.182v14.97l-39.399 20.96-39.398-20.96v-14.97c0-.06.005-.12.005-.18v-.002l-12.564-7.887-16.382 7.887h-22.116c-17.763 0-32.162-14.69-32.162-32.813V0z" style="fill-opacity: 1; fill-rule: nonzero; stroke: none; stroke-width: 1;" transform="translate(440.726 7.5)" fill="#b3dafe" data-original="#b3dafe" stroke-width="1" class=""></path><path d="M0 0v103.537c4.93 1.789 9.275 4.814 12.722 8.687l-7.616 3.666H-17.01c-17.762 0-32.162-14.69-32.162-32.813V0Z" style="fill-opacity: 1; fill-rule: nonzero; stroke: none; stroke-width: 1;" transform="translate(268.108 7.5)" fill="#8ac9fe" data-original="#8ac9fe" stroke-width="1" class=""></path><path d="M0 0c-62.948 0-114.161 52.249-114.161 116.472 0 64.223 51.213 116.472 114.161 116.472 62.949 0 114.161-52.249 114.161-116.472C114.161 52.249 62.949 0 0 0" style="fill-opacity: 1; fill-rule: nonzero; stroke: none; stroke-width: 1;" transform="translate(341.554 271.556)" fill="#fee8c7" data-original="#fee8c7" stroke-width="1" class=""></path><path d="M0 0c0-44.51-35.367-80.593-78.994-80.593S-157.987-44.51-157.987 0c0 44.51 35.366 80.592 78.993 80.592C-35.367 80.592 0 44.51 0 0" style="fill-opacity: 1; fill-rule: nonzero; stroke: none; stroke-width: 1;" transform="translate(420.548 388.028)" fill="#fddba6" data-original="#fddba6" stroke-width="1" class=""></path><path d="M0 0c16.277 0 29.722-12.338 31.857-28.348v27.119C26.325.452 23.12 0 0 0" style="fill-opacity: 1; fill-rule: nonzero; stroke: none; stroke-width: 1;" transform="translate(408.868 123.39)" fill="#8ac9fe" data-original="#8ac9fe" stroke-width="1" class=""></path><path d="M0 0h-.001A90.403 90.403 0 0 1 11.26-.706h.62a89.383 89.383 0 0 1 39.216 9.018v75.993h-78.797V8.192A89.268 89.268 0 0 1 0 0" style="fill-opacity: 1; fill-rule: nonzero; stroke: none; stroke-width: 1;" transform="translate(329.856 130.35)" fill="#8ac9fe" data-original="#8ac9fe" stroke-width="1" class=""></path><path d="M0 0h-44.192c-17.283 0-31.292 14.01-31.292 31.292 0 19.222 14.833 32.118 31.292 32.118H0Z" style="fill-opacity: 1; fill-rule: nonzero; stroke: none; stroke-width: 1;" transform="translate(294.382 224.68)" fill="#8ac9fe" data-original="#8ac9fe" stroke-width="1" class=""></path><path d="M0 0h44.192c17.283 0 31.293-14.01 31.293-31.293v-.825c0-17.282-14.01-31.292-31.293-31.292H0Z" style="fill-opacity: 1; fill-rule: nonzero; stroke: none; stroke-width: 1;" transform="translate(388.726 288.09)" fill="#60b8fe" data-original="#60b8fe" stroke-width="1" class=""></path><path d="M0 0c45.078-5.661 79.981-44.861 79.981-92.382v-32.997c0-47.521-34.903-86.722-79.981-92.383a90.403 90.403 0 0 1 11.261-.705h.62c50.391 0 91.241 41.677 91.241 93.088v32.997C103.122-37.098 55.896 7.016 0 0" style="fill-opacity: 1; fill-rule: nonzero; stroke: none; stroke-width: 1;" transform="translate(329.856 365.282)" fill="#b3dafe" data-original="#b3dafe" stroke-width="1" class=""></path><path d="M0 0c45.077 5.662 79.98 44.862 79.98 92.382v32.997c0 47.522-34.903 86.722-79.98 92.383-43.161 0-86.293-39.391-86.293-92.383V92.382C-86.293 39.167-42.898 0 0 0" style="fill-opacity: 1; fill-rule: nonzero; stroke: none; stroke-width: 1;" transform="translate(336.168 147.52)" fill="#c4e2ff" data-original="#c4e2ff" stroke-width="1" class=""></path><path d="M0 0c.489.541 17.14 19.736 17.608 20.276 2.879 3.317 2.879 8.306 0 11.623L6.47 44.734c31.606 6.058 55.613 34.371 55.699 68.331H45.846C45.749 90.95 28.15 73.051 6.451 73.051s-39.297 17.899-39.393 40.014h-28.947c.086-33.873 23.97-62.131 55.457-68.286l-11.176-12.88c-2.879-3.317-2.88-8.306 0-11.623C-17.43 20.069-.19.196 0 0" style="fill-opacity: 1; fill-rule: nonzero; stroke: none; stroke-width: 1;" transform="translate(335.103 10.326)" fill="#ffe177" data-original="#ffe177" stroke-width="1" class=""></path><path d="M0 0h-10.031c-4.358 0-7.89-3.604-7.89-8.049 0-4.445 3.532-8.049 7.89-8.049H.33c4.439 0 8.02 3.739 7.886 8.297C8.086-3.396 4.319 0 0 0" style="fill-opacity: 1; fill-rule: nonzero; stroke: none; stroke-width: 1;" transform="translate(404.168 222.704)" fill="#fe8f83" data-original="#fe8f83" stroke-width="1"></path><path d="M0 0h-10.031c-4.358 0-7.89-3.604-7.89-8.049 0-4.445 3.532-8.049 7.89-8.049H.33c4.439 0 8.02 3.739 7.886 8.297C8.086-3.396 4.319 0 0 0" style="fill-opacity: 1; fill-rule: nonzero; stroke: none; stroke-width: 1;" transform="translate(288.64 222.704)" fill="#fe8f83" data-original="#fe8f83" stroke-width="1"></path><path d="M0 0h-12.623c1.743 0 3.156-1.442 3.156-3.22v-30.851c0-4.507-2.358-8.441-5.876-10.622a11.937 11.937 0 0 1 6.312-1.812c6.73 0 12.186 5.567 12.186 12.434V-3.22C3.155-1.442 1.743 0 0 0" style="fill-opacity: 1; fill-rule: nonzero; stroke: none; stroke-width: 1;" transform="translate(106.34 228.941)" fill="#b3dafe" data-original="#b3dafe" stroke-width="1" class=""></path><path d="M0 0c-56.272-7.288-93.087-54.189-93.087-106.123v-16.86H97.294v16.86C97.294-43.728 45.333 0 0 0" style="fill-opacity: 1; fill-rule: nonzero; stroke: none; stroke-width: 1;" transform="translate(329.983 433.358)" fill="#ffc344" data-original="#ffc344" stroke-width="1" class=""></path><path d="M0 0c52.354-5.875 93.087-51.143 93.087-106.123v-16.86h23.141v16.86C116.228-42.521 62.105 6.971 0 0" style="fill-opacity: 1; fill-rule: nonzero; stroke: none; stroke-width: 1;" transform="translate(329.983 433.358)" fill="#fdb541" data-original="#fdb541" stroke-width="1"></path><path d="M0 0c14.187-.455 26.085.923 37.963 11.544 9.872 8.827 15.579 21.896 15.579 35.674 0 10.01-3.012 19.657-8.461 27.575-7.185 10.443-14.357 20.895-20.862 31.793l-7.214 12.085c-2.629 4.405-7.318 7.093-12.374 7.093-5.055 0-9.744-2.688-12.373-7.093l-7.215-12.087c-6.505-10.897-13.678-21.349-20.862-31.792-5.449-7.918-8.46-17.564-8.46-27.574C-44.279 21.169-24.586.789 0 0" style="fill-opacity: 1; fill-rule: nonzero; stroke: none; stroke-width: 1;" transform="translate(448.685 332.734)" fill="#57be92" data-original="#57be92" stroke-width="1" class=""></path><path d="M0 0c-7.186 10.442-14.357 20.895-20.862 31.792l-7.214 12.085c-2.629 4.405-7.319 7.093-12.374 7.093-3.067 0-5.995-.994-8.414-2.756a14.655 14.655 0 0 0 3.958-4.337C-34.113 25.795-32.672 23.022-16.83 0c5.449-7.919 8.461-17.566 8.461-27.575 0-23.243-16.204-44.213-40.882-46.885a44.791 44.791 0 0 1 4.17-.333c14.186-.456 26.085.922 37.963 11.543C2.754-54.423 8.461-41.354 8.461-27.575 8.461-17.566 5.449-7.919 0 0" style="fill-opacity: 1; fill-rule: nonzero; stroke: none; stroke-width: 1;" transform="translate(493.767 407.528)" fill="#22b380" data-original="#22b380" stroke-width="1" class=""></path><path d="m0 0-11.177-12.879c-2.879-3.318-2.88-8.307 0-11.624.169-.196 17.428-20.09 17.609-20.276l10.381 2.252 15.641 18.024c2.88 3.317 2.88 8.306 0 11.624L21.316-.044c31.607 6.058 55.614 34.371 55.699 68.33H52.277c-.096-22.115-17.695-40.014-39.394-40.014-21.699 0-39.297 17.899-39.394 40.014h-18.058A31.9 31.9 0 0 0-54.69 58.109C-49.794 27.095-26.928 5.264 0 0" style="fill-opacity: 1; fill-rule: nonzero; stroke: none; stroke-width: 1;" transform="translate(328.67 55.105)" fill="#ffe177" data-original="#ffe177" stroke-width="1" class=""></path><path d="M0 0h-12.622c-.086-33.959-24.093-62.272-55.699-68.331l11.138-12.835c2.879-3.317 2.879-8.306 0-11.623-.47-.543-17.121-19.737-17.608-20.276a8.474 8.474 0 0 1 12.745.127l17.485 20.149c2.879 3.317 2.879 8.306 0 11.623l-11.138 12.835C-24.093-62.272-.086-33.959 0 0" style="fill-opacity: 1; fill-rule: nonzero; stroke: none; stroke-width: 1;" transform="translate(409.894 123.39)" fill="#ffd15c" data-original="#ffd15c" stroke-width="1" class=""></path><path d="M0 0c.009-3.458.278-6.853.767-10.177A31.89 31.89 0 0 1 10.888 0Z" style="fill-opacity: 1; fill-rule: nonzero; stroke: none; stroke-width: 1;" transform="translate(273.214 123.39)" fill="#ffd15c" data-original="#ffd15c" stroke-width="1" class=""></path><path d="M0 0c-.889 0-1.792.018-2.709.047-9.824.315-17.233 8.308-17.233 18.594 0 3.96 1.19 7.87 3.351 11.011C-9.901 39.376-5.33 46.087.246 55.423c5.593-9.375 10.355-16.347 16.838-25.771 2.161-3.14 3.351-7.051 3.351-11.011 0-5.517-2.209-10.656-6.062-14.1C10.53 1.104 7.036 0 0 0c-.001 0 0 0 0 0" style="fill-opacity: 1; fill-rule: nonzero; stroke: none; stroke-width: 1;" transform="translate(453.07 364.335)" fill="#ffe177" data-original="#ffe177" stroke-width="1" class=""></path><path d="M0 0h-301.825v-27.511c0-1.779 1.413-3.22 3.156-3.22H3.129v27.539C3.129-1.429 1.728 0 0 0" style="fill-opacity: 1; fill-rule: nonzero; stroke: none; stroke-width: 1;" transform="translate(311.594 207.176)" fill="#ffe177" data-original="#ffe177" stroke-width="1" class=""></path><path d="m0 0-4.67-7.679a80.267 80.267 0 0 0-15.22-18.262c-8.592-6.764-13.516-16.503-13.516-26.736 0-1.804.165-3.59.464-5.349h-62.426c-2.664 0-4.824-2.203-4.824-4.922v-34.725c0-2.719 2.16-4.923 4.824-4.923H99.575c2.665 0 4.824 2.204 4.824 4.923v34.725c0 2.719-2.159 4.922-4.824 4.922H37.15c.299 1.759.463 3.545.463 5.349 0 10.233-4.924 19.972-13.516 26.736A80.318 80.318 0 0 0 8.877-7.679L4.207 0Z" style="fill-opacity: 1; fill-rule: nonzero; stroke: none; stroke-width: 1;" transform="translate(329.983 390.685)" fill="#ffe177" data-original="#ffe177" stroke-width="1" class=""></path><path d="M0 0c0-8.887-5.411-16.091-12.085-16.091C-18.76-16.091-24.17-8.887-24.17 0s5.41 16.091 12.085 16.091C-5.411 16.091 0 8.887 0 0" style="fill-opacity: 1; fill-rule: nonzero; stroke: none; stroke-width: 1;" transform="translate(353.519 339.466)" fill="#fd8087" data-original="#fd8087" stroke-width="1" class=""></path><path d="M0 0a80.318 80.318 0 0 1 15.221-18.262c8.592-6.763 13.516-16.503 13.516-26.736 0-1.804-.165-3.59-.464-5.349h23.142c.299 1.759.463 3.545.463 5.349 0 10.233-4.923 19.973-13.516 26.736A80.314 80.314 0 0 0 23.142 0l-9.527 15.668c-3.09 5.082-10.337 5.082-13.427 0l-4.857-7.989Z" style="fill-opacity: 1; fill-rule: nonzero; stroke: none; stroke-width: 1;" transform="translate(334.652 383.006)" fill="#ffd15c" data-original="#ffd15c" stroke-width="1" class=""></path><path d="M0 0h-23.141c2.664 0 4.825-2.203 4.825-4.922v-34.725c0-2.719-2.161-4.923-4.825-4.923H0c2.665 0 4.824 2.204 4.824 4.923v34.725C4.824-2.203 2.665 0 0 0" style="fill-opacity: 1; fill-rule: nonzero; stroke: none; stroke-width: 1;" transform="translate(448.492 332.66)" fill="#ffd15c" data-original="#ffd15c" stroke-width="1" class=""></path><path d="M0 0h-315.499c-1.743 0-3.156-1.441-3.156-3.22v-7.512h297.618c1.727 0 3.128-1.429 3.128-3.191V-37.17H0c1.728 0 3.129 1.429 3.129 3.192v30.786C3.129-1.429 1.728 0 0 0" style="fill-opacity: 1; fill-rule: nonzero; stroke: none; stroke-width: 1;" transform="translate(328.424 213.615)" fill="#ffd15c" data-original="#ffd15c" stroke-width="1" class=""></path><path d="M0 0a12.466 12.466 0 0 1 5.875 10.622v30.851c0 1.778-1.413 3.22-3.155 3.22h-9.648c-1.743 0-3.155-1.442-3.155-3.22V10.622c0-4.507 2.357-8.441 5.875-10.622z" style="fill-opacity: 1; fill-rule: nonzero; stroke: none; stroke-width: 1;" transform="translate(143.952 184.249)" fill="#c4e2ff" data-original="#c4e2ff" stroke-width="1" class=""></path><path d="M0 0h-12.623c1.743 0 3.156-1.442 3.156-3.22v-30.851c0-4.507-2.358-8.441-5.876-10.622a11.937 11.937 0 0 1 6.312-1.812c6.73 0 12.186 5.567 12.186 12.434V-3.22C3.155-1.442 1.742 0 0 0" style="fill-opacity: 1; fill-rule: nonzero; stroke: none; stroke-width: 1;" transform="translate(155.087 228.941)" fill="#b3dafe" data-original="#b3dafe" stroke-width="1" class=""></path><path d="M0 0a12.466 12.466 0 0 1 5.875 10.622v30.851c0 1.778-1.412 3.22-3.155 3.22h-9.648c-1.743 0-3.155-1.442-3.155-3.22V10.622c0-4.507 2.357-8.441 5.875-10.622z" style="fill-opacity: 1; fill-rule: nonzero; stroke: none; stroke-width: 1;" transform="translate(95.205 184.249)" fill="#c4e2ff" data-original="#c4e2ff" stroke-width="1" class=""></path><path d="M0 0h-12.623c1.743 0 3.156-1.442 3.156-3.22v-30.851c0-4.507-2.358-8.441-5.876-10.622a11.937 11.937 0 0 1 6.312-1.812c6.73 0 12.186 5.567 12.186 12.434V-3.22C3.155-1.442 1.743 0 0 0" style="fill-opacity: 1; fill-rule: nonzero; stroke: none; stroke-width: 1;" transform="translate(106.34 228.941)" fill="#b3dafe" data-original="#b3dafe" stroke-width="1" class=""></path><path d="M0 0v-103.537h43.112V0c5.242 1.904 9.049 4.76 12.622 8.579v.001a32.321 32.321 0 0 1 8.258 21.611v75.11h-.027c-.142 2.24-1.949 4.018-4.181 4.018H3.494v32.549c0 6.867-5.457 12.434-12.187 12.434-6.73 0-12.187-5.567-12.187-12.434V30.191C-20.88 16.263-12.167 4.416 0 0" style="fill-opacity: 1; fill-rule: nonzero; stroke: none; stroke-width: 1;" transform="translate(201.3 111.037)" fill="#c4e2ff" data-original="#c4e2ff" stroke-width="1" class=""></path><path d="M0 0v103.537c12.167 4.416 20.88 16.263 20.88 30.191v75.109h-.027c-.141 2.241-1.95 4.019-4.181 4.019H-.157c2.23 0 4.039-1.778 4.179-4.019h.028v-75.109c0-13.635-8.536-25.711-20.88-30.191V0Z" style="fill-opacity: 1; fill-rule: nonzero; stroke: none; stroke-width: 1;" transform="translate(257.034 7.5)" fill="#b3dafe" data-original="#b3dafe" stroke-width="1" class=""></path><path d="M0 0v-32.549h12.623V0c0 6.866-5.456 12.434-12.187 12.434-2.313 0-4.468-.671-6.311-1.812A12.469 12.469 0 0 0 0 0" style="fill-opacity: 1; fill-rule: nonzero; stroke: none; stroke-width: 1;" transform="translate(192.17 252.905)" fill="#b3dafe" data-original="#b3dafe" stroke-width="1" class=""></path><path d="m0 0-33.646-101.503H9.549v83.077C9.549-11.595 7.501-5.252 4 0Z" style="fill-opacity: 1; fill-rule: nonzero; stroke: none; stroke-width: 1;" transform="translate(435.481 109.003)" fill="#fd8087" data-original="#fd8087" stroke-width="1" class=""></path><path d="M0 0h23.142v83.078c0 13.958-8.677 26.344-21.458 30.943-.301.109-2.64.867-2.796.867l-4.437-13.385C-2.048 96.251 0 89.909 0 83.077Z" style="fill-opacity: 1; fill-rule: nonzero; stroke: none; stroke-width: 1;" transform="translate(441.03 7.5)" fill="#fe646f" data-original="#fe646f" stroke-width="1" class=""></path><path d="M0 0c-2.667 4.469-7.42 7.093-12.374 7.093-3.271 0-6.522-1.242-8.414-2.756C-23.922 2.054-24.3.75-31.962-12.087c-18.895-31.657-29.323-37.488-29.323-59.366 0-25.867 19.508-46.411 44.28-47.218 14.122-.453 26.113.948 37.963 11.544 4.319 3.861 7.841 8.535 10.437 13.725 7.109 14.216 7.243 32.308-2.059 47.562C17.222-27.53 18.863-31.602 0 0Z" style="stroke-width: 1; stroke-linecap: round; stroke-linejoin: round; stroke-miterlimit: 10; stroke-dasharray: none; stroke-opacity: 1;" transform="translate(465.69 451.405)" fill="none" stroke="#000000" stroke-width="1" stroke-linecap="round" stroke-linejoin="round" stroke-miterlimit="10" stroke-dasharray="none" stroke-opacity="" data-original="#000000" class=""></path><path d="M0 0c0-32.421 22.72-61.886 55.457-68.287-12.327-14.205-11.823-13.475-12.493-14.9-2.657-5.649 1.324-9.612 2.661-11.154a14519.204 14519.204 0 0 1 16.264-18.724 8.474 8.474 0 0 1 12.745.126L92.119-92.79c2.879 3.318 2.879 8.307 0 11.624L80.98-68.332C112.587-62.273 136.594-33.96 136.68 0h-28.946c-.096-22.116-17.695-40.015-39.394-40.015-21.833 0-39.299 18.04-39.394 40.015Z" style="stroke-width: 1; stroke-linecap: round; stroke-linejoin: round; stroke-miterlimit: 10; stroke-dasharray: none; stroke-opacity: 1;" transform="translate(273.214 123.391)" fill="none" stroke="#000000" stroke-width="1" stroke-linecap="round" stroke-linejoin="round" stroke-miterlimit="10" stroke-dasharray="none" stroke-opacity="" data-original="#000000" class=""></path><path d="M0 0c-.889 0-1.792.018-2.709.047-9.824.315-17.233 8.308-17.233 18.594 0 3.96 1.19 7.87 3.351 11.011C-9.901 39.376-5.33 46.087.246 55.423c5.593-9.375 10.355-16.347 16.838-25.771 2.161-3.14 3.351-7.051 3.351-11.011 0-5.517-2.209-10.656-6.062-14.1C10.53 1.104 7.036 0 0 0c-.001 0 0 0 0 0Z" style="stroke-width: 1; stroke-linecap: round; stroke-linejoin: round; stroke-miterlimit: 10; stroke-dasharray: none; stroke-opacity: 1;" transform="translate(453.07 364.335)" fill="none" stroke="#000000" stroke-width="1" stroke-linecap="round" stroke-linejoin="round" stroke-miterlimit="10" stroke-dasharray="none" stroke-opacity="" data-original="#000000" class=""></path><path d="M0 0c0-8.887-5.411-16.091-12.085-16.091C-18.76-16.091-24.17-8.887-24.17 0s5.41 16.091 12.085 16.091C-5.411 16.091 0 8.887 0 0Z" style="stroke-width: 1; stroke-linecap: round; stroke-linejoin: round; stroke-miterlimit: 10; stroke-dasharray: none; stroke-opacity: 1;" transform="translate(353.519 339.466)" fill="none" stroke="#000000" stroke-width="1" stroke-linecap="round" stroke-linejoin="round" stroke-miterlimit="10" stroke-dasharray="none" stroke-opacity="" data-original="#000000" class=""></path><path d="M0 0h-62.425c.299 1.759.463 3.544.463 5.349 0 10.233-4.923 19.972-13.516 26.735v.001c-10.839 9.649-14.835 17.63-24.747 33.929-3.089 5.082-10.337 5.082-13.426 0-9.988-16.424-13.923-24.293-24.747-33.929v-.001c-9.91-7.799-15.15-19.755-13.053-32.084h-62.426c-2.664 0-4.824-2.203-4.824-4.922v-34.725c0-2.719 2.16-4.923 4.824-4.923H0c2.665 0 4.824 2.204 4.824 4.923v34.725C4.824-2.203 2.665 0 0 0Z" style="stroke-width: 1; stroke-linecap: round; stroke-linejoin: round; stroke-miterlimit: 10; stroke-dasharray: none; stroke-opacity: 1;" transform="translate(448.492 332.66)" fill="none" stroke="#000000" stroke-width="1" stroke-linecap="round" stroke-linejoin="round" stroke-miterlimit="10" stroke-dasharray="none" stroke-opacity="" data-original="#000000" class=""></path><path d="M0 0h-18.062c-1.744 0-3.156-1.442-3.156-3.219v-30.853c0-4.506 2.358-8.44 5.875-10.621v0c8.089-5.013 18.498.924 18.498 10.621v30.853C3.155-1.442 1.742 0 0 0Z" style="stroke-width: 1; stroke-linecap: round; stroke-linejoin: round; stroke-miterlimit: 10; stroke-dasharray: none; stroke-opacity: 1;" transform="translate(155.087 228.941)" fill="none" stroke="#000000" stroke-width="1" stroke-linecap="round" stroke-linejoin="round" stroke-miterlimit="10" stroke-dasharray="none" stroke-opacity="" data-original="#000000" class=""></path><path d="M0 0h-18.062c-1.744 0-3.156-1.442-3.156-3.219v-30.853c0-6.966 5.602-12.433 12.187-12.433 6.73 0 12.186 5.567 12.186 12.433v30.853C3.155-1.442 1.743 0 0 0Z" style="stroke-width: 1; stroke-linecap: round; stroke-linejoin: round; stroke-miterlimit: 10; stroke-dasharray: none; stroke-opacity: 1;" transform="translate(106.34 228.941)" fill="none" stroke="#000000" stroke-width="1" stroke-linecap="round" stroke-linejoin="round" stroke-miterlimit="10" stroke-dasharray="none" stroke-opacity="" data-original="#000000" class=""></path><path d="M0 0c-.142 2.24-1.949 4.019-4.181 4.019h-68.912v32.548c0 6.867-5.457 12.434-12.187 12.434-6.73 0-12.187-5.567-12.187-12.434V-75.109c0-10.447 4.902-19.722 12.485-25.57a31.163 31.163 0 0 1 8.395-4.621v-103.537h55.734V-105.3C-8.686-100.885.027-89.038.027-75.109V0z" style="stroke-width: 1; stroke-linecap: round; stroke-linejoin: round; stroke-miterlimit: 10; stroke-dasharray: none; stroke-opacity: 1;" transform="translate(277.887 216.337)" fill="none" stroke="#000000" stroke-width="1" stroke-linecap="round" stroke-linejoin="round" stroke-miterlimit="10" stroke-dasharray="none" stroke-opacity="" data-original="#000000" class=""></path><path d="m0 0-20.531 17.499a4.476 4.476 0 0 1-6.31-.503c-7.378-8.656-6.342-21.654 2.315-29.032h-.022a24.12 24.12 0 0 1-18.024-23.337" style="stroke-width: 1; stroke-linecap: round; stroke-linejoin: round; stroke-miterlimit: 10; stroke-dasharray: none; stroke-opacity: 1;" transform="translate(158.227 167.383)" fill="none" stroke="#000000" stroke-width="1" stroke-linecap="round" stroke-linejoin="round" stroke-miterlimit="10" stroke-dasharray="none" stroke-opacity="" data-original="#000000" class=""></path><path d="M0 0v-.825c0-16.407 12.81-31.292 32.198-31.292a95.535 95.535 0 0 0-1.221 15.222v32.998c0 5.173.42 10.246 1.216 15.189C12.927 31.292 0 16.506 0 0Z" style="stroke-width: 1; stroke-linecap: round; stroke-linejoin: round; stroke-miterlimit: 10; stroke-dasharray: none; stroke-opacity: 1;" transform="translate(218.898 256.797)" fill="none" stroke="#000000" stroke-width="1" stroke-linecap="round" stroke-linejoin="round" stroke-miterlimit="10" stroke-dasharray="none" stroke-opacity="" data-original="#000000" class=""></path><path d="M0 0c1.586-9.871 1.226-13.192 1.226-48.187 0-5.187-.44-10.267-1.239-15.223h1.179c17.282 0 31.293 14.01 31.293 31.293v.825C32.459-15.061 19.9 0 0 0Z" style="stroke-width: 1; stroke-linecap: round; stroke-linejoin: round; stroke-miterlimit: 10; stroke-dasharray: none; stroke-opacity: 1;" transform="translate(431.752 288.09)" fill="none" stroke="#000000" stroke-width="1" stroke-linecap="round" stroke-linejoin="round" stroke-miterlimit="10" stroke-dasharray="none" stroke-opacity="" data-original="#000000" class=""></path><path d="M0 0v39.632c0 6.678-5.414 12.092-12.092 12.092h-.19c-.074 0-.147-.01-.221-.012a10.943 10.943 0 0 1-.679-.034c-6.256-.461-11.192-5.672-11.192-12.046V0z" style="stroke-width: 1; stroke-linecap: round; stroke-linejoin: round; stroke-miterlimit: 10; stroke-dasharray: none; stroke-opacity: 1;" transform="translate(133.87 213.615)" fill="none" stroke="#000000" stroke-width="1" stroke-linecap="round" stroke-linejoin="round" stroke-miterlimit="10" stroke-dasharray="none" stroke-opacity="" data-original="#000000" class=""></path><path d="M0 0v39.632c0 6.678-5.414 12.092-12.092 12.092h-.19c-.074 0-.147-.01-.221-.012a10.943 10.943 0 0 1-.679-.034c-6.256-.461-11.192-5.672-11.192-12.046V0z" style="stroke-width: 1; stroke-linecap: round; stroke-linejoin: round; stroke-miterlimit: 10; stroke-dasharray: none; stroke-opacity: 1;" transform="translate(85.122 213.615)" fill="none" stroke="#000000" stroke-width="1" stroke-linecap="round" stroke-linejoin="round" stroke-miterlimit="10" stroke-dasharray="none" stroke-opacity="" data-original="#000000" class=""></path><path d="M0 0v-18.745c0-9.697-10.409-15.633-18.498-10.622v.001a12.466 12.466 0 0 0-5.875 10.621V0h-24.374v-18.745c0-6.867-5.456-12.434-12.187-12.434-6.593 0-12.186 5.478-12.186 12.434V0h-72.197c-1.744 0-3.157-1.441-3.157-3.22v-30.731c0-1.778 1.413-3.219 3.157-3.219H-31.03a20.472 20.472 0 0 0 4.174 7.935 4.475 4.475 0 0 0 6.309.502l9.9-8.437h32.825V0Z" style="stroke-width: 1; stroke-linecap: round; stroke-linejoin: round; stroke-miterlimit: 10; stroke-dasharray: none; stroke-opacity: 1;" transform="translate(158.242 213.615)" fill="none" stroke="#000000" stroke-width="1" stroke-linecap="round" stroke-linejoin="round" stroke-miterlimit="10" stroke-dasharray="none" stroke-opacity="" data-original="#000000" class=""></path><path d="m0 0-9.899 8.437a4.477 4.477 0 0 1-6.31-.502A20.499 20.499 0 0 1-20.383 0h-66.464v-35.217c0-13.929 8.713-25.775 20.88-30.191v-103.537H-10.231v103.537l-.107-.006C.167-61.587 8.165-52.129 9.901-40.32c1.066 7.254.746-.236.746 31.643V0z" style="stroke-width: 1; stroke-linecap: round; stroke-linejoin: round; stroke-miterlimit: 10; stroke-dasharray: none; stroke-opacity: 1;" transform="translate(147.595 176.445)" fill="none" stroke="#000000" stroke-width="1" stroke-linecap="round" stroke-linejoin="round" stroke-miterlimit="10" stroke-dasharray="none" stroke-opacity="" data-original="#000000" class=""></path><path d="M0 0c-.3 1.43-.574 2.871-.809 4.324h-.906a31.15 31.15 0 0 0-19.565 6.88C-24.152 7.968-27.064 4.78-28.612 0Z" style="stroke-width: 1; stroke-linecap: round; stroke-linejoin: round; stroke-miterlimit: 10; stroke-dasharray: none; stroke-opacity: 1;" transform="translate(251.904 220.356)" fill="none" stroke="#000000" stroke-width="1" stroke-linecap="round" stroke-linejoin="round" stroke-miterlimit="10" stroke-dasharray="none" stroke-opacity="" data-original="#000000" class=""></path><path d="M0 0a91.56 91.56 0 0 0-19.457 14.555c0-33.108 1.357-39.223-5.341-49.386H4.784v32.319" style="stroke-width: 1; stroke-linecap: round; stroke-linejoin: round; stroke-miterlimit: 10; stroke-dasharray: none; stroke-opacity: 1;" transform="translate(297.371 158.222)" fill="none" stroke="#000000" stroke-width="1" stroke-linecap="round" stroke-linejoin="round" stroke-miterlimit="10" stroke-dasharray="none" stroke-opacity="" data-original="#000000" class=""></path><path d="M0 0h-180.661a95.481 95.481 0 0 1-1.217-15.189v-32.998c0-6.706.701-13.244 2.022-19.547h21.81c2.232 0 4.039-1.778 4.181-4.018h.027v-43.568c19.637-19.247 46.742-28.804 75.083-25.249h-.001c45.078 5.66 79.982 44.861 79.982 92.382v32.998A95.59 95.59 0 0 1 0 0Z" style="stroke-width: 1; stroke-linecap: round; stroke-linejoin: round; stroke-miterlimit: 10; stroke-dasharray: none; stroke-opacity: 1;" transform="translate(431.752 288.09)" fill="none" stroke="#000000" stroke-width="1" stroke-linecap="round" stroke-linejoin="round" stroke-miterlimit="10" stroke-dasharray="none" stroke-opacity="" data-original="#000000" class=""></path><path d="M0 0v32.443a89.285 89.285 0 0 0-27.956-8.313l.001-.001c-17.396-2.181-34.957.525-50.842 8.19V0h-29.582c-3.724-5.648-9.145-10.034-15.539-12.354v-103.537H20.883L58.941-1.078C53.435.374 54.972 0 0 0Z" style="stroke-width: 1; stroke-linecap: round; stroke-linejoin: round; stroke-miterlimit: 10; stroke-dasharray: none; stroke-opacity: 1;" transform="translate(380.952 123.391)" fill="none" stroke="#000000" stroke-width="1" stroke-linecap="round" stroke-linejoin="round" stroke-miterlimit="10" stroke-dasharray="none" stroke-opacity="" data-original="#000000" class=""></path><path d="M0 0v-14.185h63.937v78.576Z" style="stroke-width: 1; stroke-linecap: round; stroke-linejoin: round; stroke-miterlimit: 10; stroke-dasharray: none; stroke-opacity: 1;" transform="translate(137.363 21.685)" fill="none" stroke="#000000" stroke-width="1" stroke-linecap="round" stroke-linejoin="round" stroke-miterlimit="10" stroke-dasharray="none" stroke-opacity="" data-original="#000000" class=""></path><path d="m0 0-38.059-114.813h62.337v83.284C24.278-16.401 13.973-3.682 0 0Z" style="stroke-width: 1; stroke-linecap: round; stroke-linejoin: round; stroke-miterlimit: 10; stroke-dasharray: 200, 35, 300, 0; stroke-dashoffset: 0; stroke-opacity: 1;" transform="translate(439.894 122.314)" fill="none" stroke="#000000" stroke-width="1" stroke-linecap="round" stroke-linejoin="round" stroke-miterlimit="10" stroke-dasharray="200, 35, 300, 0" stroke-dashoffset="0" stroke-opacity="" data-original="#000000" class=""></path><path d="M0 0c4.657 6.165 10.901 10.544 10.801 22.066C10.64 40.497-5.441 40.347-5.603 58.779c-.161 18.432 15.919 18.582 15.758 37.014-.082 9.415-4.317 13.981-8.464 18.653a31.152 31.152 0 0 0-19.566-6.88h-1.179c-4.522-28.026-20.893-53.1-50.787-68.845V6.277h50.612C-12.489 6.277-5.748 4.204 0 0Z" style="stroke-width: 1; stroke-linecap: round; stroke-linejoin: round; stroke-miterlimit: 10; stroke-dasharray: none; stroke-opacity: 1;" transform="translate(450.793 117.114)" fill="none" stroke="#000000" stroke-width="1" stroke-linecap="round" stroke-linejoin="round" stroke-miterlimit="10" stroke-dasharray="none" stroke-opacity="" data-original="#000000" class=""></path><path d="m0 0 5.421 9.083C-14.626 42.69-50.874 65.182-92.175 65.182c-62.948 0-114.161-52.249-114.161-116.472 0-17.189 3.672-33.519 10.253-48.22 6.281 54.31 51.625 94.203 103.908 94.203 27.131 0 51.844-10.537 70.436-27.813C-19.539-29.675-8.831-14.794 0 0z" style="stroke-width: 1; stroke-linecap: round; stroke-linejoin: round; stroke-miterlimit: 10; stroke-dasharray: 200, 35, 300, 0; stroke-dashoffset: 0; stroke-opacity: 1;" transform="translate(433.728 439.318)" fill="none" stroke="#000000" stroke-width="1" stroke-linecap="round" stroke-linejoin="round" stroke-miterlimit="10" stroke-dasharray="200, 35, 300, 0" stroke-dashoffset="0" stroke-opacity="" data-original="#000000" class=""></path><path d="M0 0c0 9.46 2.694 18.594 7.59 26.254-18.594 17.274-43.313 27.805-70.442 27.805-55.117 0-101.674-44.064-104.511-101.351h59.999c-2.097 12.329 3.143 24.285 13.052 32.084v0c10.825 9.636 14.76 17.506 24.748 33.93 3.089 5.082 10.336 5.082 13.426 0 9.911-16.3 13.908-24.281 24.747-33.93v0c8.593-6.763 13.516-16.502 13.516-26.736 0-1.804-.164-3.59-.463-5.348h60.011c-.004.081-.011.161-.015.241C18.146-44.935 0-24.946 0 0Z" style="stroke-width: 1; stroke-linecap: round; stroke-linejoin: round; stroke-miterlimit: 10; stroke-dasharray: none; stroke-opacity: 1;" transform="translate(404.405 379.952)" fill="none" stroke="#000000" stroke-width="1" stroke-linecap="round" stroke-linejoin="round" stroke-miterlimit="10" stroke-dasharray="none" stroke-opacity="" data-original="#000000" class=""></path><path d="M0 0h-50.422v-37.17H0c1.728 0 3.129 1.429 3.129 3.191v30.787C3.129-1.429 1.728 0 0 0Z" style="stroke-width: 1; stroke-linecap: round; stroke-linejoin: round; stroke-miterlimit: 10; stroke-dasharray: none; stroke-opacity: 1;" transform="translate(328.424 213.615)" fill="none" stroke="#000000" stroke-width="1" stroke-linecap="round" stroke-linejoin="round" stroke-miterlimit="10" stroke-dasharray="none" stroke-opacity="" data-original="#000000" class=""></path><path d="M0 0v-12.59c0-9.34-7.572-16.912-16.913-16.912-9.341 0-16.912 7.572-16.912 16.912V0" style="stroke-width: 1; stroke-linecap: round; stroke-linejoin: round; stroke-miterlimit: 10; stroke-dasharray: none; stroke-opacity: 1;" transform="translate(358.473 288.09)" fill="none" stroke="#000000" stroke-width="1" stroke-linecap="round" stroke-linejoin="round" stroke-miterlimit="10" stroke-dasharray="none" stroke-opacity="" data-original="#000000" class=""></path><path d="M0 0c0-10.621-8.609-19.231-19.23-19.231-2.859 0-5.572.624-8.01 1.743" style="stroke-width: 1; stroke-linecap: round; stroke-linejoin: round; stroke-miterlimit: 10; stroke-dasharray: none; stroke-opacity: 1;" transform="translate(360.651 210.625)" fill="none" stroke="#000000" stroke-width="1" stroke-linecap="round" stroke-linejoin="round" stroke-miterlimit="10" stroke-dasharray="none" stroke-opacity="" data-original="#000000" class=""></path><path d="M0 0v16.675" style="stroke-width: 1; stroke-linecap: round; stroke-linejoin: round; stroke-miterlimit: 10; stroke-dasharray: none; stroke-opacity: 1;" transform="translate(385.759 237.34)" fill="none" stroke="#000000" stroke-width="1" stroke-linecap="round" stroke-linejoin="round" stroke-miterlimit="10" stroke-dasharray="none" stroke-opacity="" data-original="#000000" class=""></path><path d="M0 0v16.675" style="stroke-width: 1; stroke-linecap: round; stroke-linejoin: round; stroke-miterlimit: 10; stroke-dasharray: none; stroke-opacity: 1;" transform="translate(297.36 237.34)" fill="none" stroke="#000000" stroke-width="1" stroke-linecap="round" stroke-linejoin="round" stroke-miterlimit="10" stroke-dasharray="none" stroke-opacity="" data-original="#000000" class=""></path></g></g></svg>