<svg id="Layer_1" enable-background="new 0 0 74 74" height="512" viewBox="0 0 74 74" width="512" xmlns="http://www.w3.org/2000/svg"><g><g><g><path d="m30.35 11.52c0 2.74-2.21 4.95-4.95 4.95-2.53 0-4.62-1.9-4.9-4.37.69.62 1.59 1 2.59 1 2.15 0 3.9-1.74 3.9-3.9 0-1.01-.38-1.91-1.01-2.6 2.47.29 4.37 2.38 4.37 4.92z" fill="#dfe7ef"/></g><g><path d="m25.4 16.97c-2.76 0-5.08-2.07-5.4-4.81-.02-.21.08-.41.27-.5.19-.1.41-.07.56.07.62.56 1.42.87 2.25.87 1.87 0 3.4-1.52 3.4-3.4 0-.84-.31-1.65-.88-2.26-.14-.15-.17-.38-.08-.57s.29-.3.5-.27c2.75.32 4.82 2.64 4.82 5.41.01 3.01-2.43 5.46-5.44 5.46zm-4.1-3.76c.67 1.63 2.27 2.75 4.11 2.75 2.45 0 4.45-2 4.45-4.45 0-1.84-1.12-3.45-2.76-4.12.25.56.39 1.17.39 1.8 0 2.42-1.97 4.4-4.4 4.4-.62.01-1.23-.12-1.79-.38z"/></g></g><g><path d="m37.94 9.93c0 2.45-1.98 4.43-4.43 4.43s-4.43-1.98-4.43-4.43 1.98-4.43 4.43-4.43 4.43 1.98 4.43 4.43z" fill="#565455"/></g><g opacity=".25"><path d="m30.87 6.29v7.77c1.01.04 1.12.09 1.83.12v-8.51c-.71.03-.82.58-1.83.62z" fill="#fff"/></g><g opacity=".1"><path d="m37.94 9.93c0 2.45-1.98 4.43-4.43 4.43-.37 0-.72-.04-1.06-.13 1.94-.47 3.37-2.21 3.37-4.3s-1.43-3.83-3.37-4.3c.34-.09.69-.13 1.06-.13 2.45 0 4.43 1.98 4.43 4.43z"/></g><g><path d="m33.51 14.85c-2.72 0-4.93-2.21-4.93-4.93.01-2.71 2.22-4.92 4.93-4.92s4.93 2.21 4.93 4.93c0 2.71-2.21 4.92-4.93 4.92zm0-8.85c-2.17 0-3.93 1.76-3.93 3.93s1.76 3.93 3.93 3.93 3.93-1.76 3.93-3.93-1.76-3.93-3.93-3.93z"/></g><g><path d="m40.68 16.83c0 1.88-1.53 3.41-3.41 3.41h-7.51c-1.88 0-3.41-1.53-3.41-3.41 0-1.88 1.53-3.41 3.41-3.41h7.51c1.88 0 3.41 1.53 3.41 3.41z" fill="#565455"/></g><g opacity=".25"><path d="m30.01 13.42h2.94v6.81h-2.94z" fill="#fff"/></g><g opacity=".1"><path d="m40.68 16.83c0 1.88-1.53 3.4-3.41 3.4h-3.16c1.88 0 3.41-1.52 3.41-3.4s-1.53-3.41-3.41-3.41h3.16c1.88 0 3.41 1.53 3.41 3.41z"/></g><g><path d="m37.27 20.73h-7.51c-2.15 0-3.91-1.75-3.91-3.91s1.75-3.91 3.91-3.91h7.51c2.15 0 3.91 1.75 3.91 3.91s-1.75 3.91-3.91 3.91zm-7.51-6.81c-1.6 0-2.91 1.3-2.91 2.91s1.3 2.91 2.91 2.91h7.51c1.6 0 2.91-1.3 2.91-2.91s-1.3-2.91-2.91-2.91z"/></g><g><path d="m64.58 47.25c-1.2 2.57-4.25 3.67-6.82 2.47-.69-.32-1.27-.78-1.73-1.33l-1.96.63-7.39 14.38-2.73-1.4 7.39-14.38-.4-1.85c-.71-.05-1.43-.25-2.09-.63-2.47-1.39-3.35-4.51-1.97-6.98 1.17-2.09 3.57-3.04 5.76-2.45-1.04.31-1.96 1.02-2.54 2.06-1.19 2.14-.43 4.84 1.71 6.03l.12.06 1.96-1.19.77-1.5-.15-3.15 7.12-7.06-1.6 9.91-2.64 1.7-.77 1.5.41 2.4.12.06c2.22 1.04 4.85.09 5.89-2.13.51-1.08.55-2.24.2-3.26 1.74 1.44 2.36 3.94 1.34 6.11z" fill="#ffd767"/></g><g opacity=".1"><path d="m61.62 30.95-1.6 9.91-2.64 1.7-.7 1.38-.21-1.2.77-1.51 1.75-1.17 1.25-7.73z"/></g><g opacity=".1"><path d="m63.32 41.23c0 .06 0 .12-.02.19-.02-.09-.05-.19-.08-.28.04.03.07.06.1.09z"/></g><g opacity=".1"><path d="m64.58 47.25c-1.2 2.57-4.25 3.67-6.82 2.47-.69-.32-1.27-.79-1.73-1.34l-1.96.64-7.39 14.37-2.72-1.4.51-.99 2.07 1.07 7.39-14.38 1.96-.63c.46.55 1.04 1.01 1.73 1.33 2.57 1.2 5.62.1 6.83-2.47.31-.66.47-1.35.48-2.03.26 1.08.17 2.26-.35 3.36z"/></g><g><path d="m46.68 63.89c-.08 0-.15-.02-.23-.06l-2.73-1.4c-.12-.06-.21-.17-.25-.29-.04-.13-.03-.26.03-.38l7.3-14.22-.29-1.32c-.68-.09-1.32-.31-1.92-.65-2.71-1.52-3.67-4.96-2.16-7.66 1.25-2.25 3.86-3.35 6.33-2.69.22.06.37.25.37.48 0 .22-.14.42-.36.49-.95.29-1.75.93-2.25 1.82-1.03 1.85-.41 4.18 1.38 5.27l1.59-.96.65-1.26-.14-3.02c-.01-.14.05-.28.15-.38l7.12-7.06c.15-.15.39-.19.58-.09s.3.31.27.52l-1.6 9.91c-.02.14-.1.26-.22.34l-2.53 1.63-.63 1.23.34 1.98c.91.4 1.94.43 2.89.09.99-.36 1.77-1.08 2.22-2.03.44-.93.5-1.95.18-2.89-.07-.21 0-.45.19-.57.18-.13.43-.12.6.02 1.98 1.62 2.59 4.38 1.5 6.71-1.32 2.81-4.68 4.03-7.49 2.71-.63-.29-1.2-.7-1.68-1.21l-1.46.47-7.29 14.19c-.1.18-.28.28-.46.28zm-2.05-2.11 1.84.94 7.16-13.93c.06-.12.17-.21.29-.25l1.96-.63c.2-.06.41 0 .54.16.43.52.95.92 1.55 1.2 2.31 1.08 5.08.08 6.16-2.23.66-1.41.56-3.01-.18-4.29-.03.64-.19 1.27-.47 1.87-.56 1.19-1.55 2.1-2.78 2.55-1.24.45-2.58.38-3.77-.18l-.13-.07c-.14-.07-.24-.21-.27-.36l-.41-2.4c-.02-.11 0-.22.05-.31l.77-1.5c.04-.08.1-.14.17-.19l2.46-1.58 1.32-8.17-5.87 5.82.14 2.92c0 .09-.01.17-.05.25l-.77 1.5c-.04.08-.11.15-.19.2l-1.96 1.19c-.15.09-.33.1-.49.02l-.12-.06c-2.39-1.33-3.24-4.34-1.91-6.72.32-.58.75-1.07 1.24-1.46-1.47.14-2.83.99-3.59 2.35-1.25 2.23-.45 5.06 1.77 6.31.58.33 1.21.52 1.88.57.22.02.41.18.45.39l.4 1.85c.02.11.01.23-.04.33z"/></g><g><path d="m19.51 34.87c0 3.08-2.36 6.88-5.29 6.88-2.92 0-5.29-3.8-5.29-6.88 0-3.09 2.37-4.32 5.29-4.32 2.93 0 5.29 1.22 5.29 4.32z" fill="#b7734e"/></g><g opacity=".1"><path d="m19.51 34.87c0 .74-.14 1.52-.38 2.27-.78-1.7-2.68-2.4-4.91-2.4-2.22 0-4.12.7-4.91 2.4-.24-.75-.38-1.53-.38-2.27 0-3.1 2.37-4.32 5.29-4.32 2.93 0 5.29 1.22 5.29 4.32z"/></g><g><path d="m14.22 42.25c-3.21 0-5.79-4.04-5.79-7.38 0-3.02 2.17-4.82 5.79-4.82s5.79 1.8 5.79 4.82c0 3.34-2.58 7.38-5.79 7.38zm0-11.2c-1.79 0-4.79.5-4.79 3.82 0 2.87 2.21 6.38 4.79 6.38s4.79-3.51 4.79-6.38c0-3.33-3-3.82-4.79-3.82z"/></g><g><path d="m35.77 18.19c4.16 0 7.59 3.06 8.33 7.16 0 .02.01.04.01.05.78 3.99.49 8.01.27 12.07-.36 6.73 1.72 13.56 5.77 18.95h-33.3c4.05-5.38 6.13-12.22 5.77-18.95-.22-4.06-.51-8.08.27-12.07 0-.02.01-.04.01-.05.74-4.1 4.17-7.16 8.33-7.16z" fill="#565455"/></g><g opacity=".25"><path d="m25.27 20.75v35.67h4.28v-38.05c-1.66.35-3.13 1.2-4.28 2.38z" fill="#fff"/></g><g opacity=".1"><path d="m50.16 56.43h-3.02c-4.06-5.39-6.14-12.22-5.78-18.95.22-4.06.51-8.08-.27-12.07 0-.02-.01-.04-.01-.06-.74-4.09-4.17-7.16-8.33-7.16h3.03c4.16 0 7.59 3.07 8.33 7.16 0 .02.01.04.01.06.78 3.99.49 8.01.27 12.07-.36 6.73 1.72 13.56 5.77 18.95z"/></g><g><path d="m50.16 56.93h-33.3c-.19 0-.36-.11-.45-.28-.08-.17-.07-.37.05-.52 3.96-5.26 6.03-12.05 5.67-18.62l-.04-.82c-.2-3.73-.42-7.59.32-11.37.8-4.43 4.51-7.62 8.83-7.62h4.52c4.32 0 8.03 3.19 8.83 7.57.75 3.83.54 7.69.33 11.42l-.04.82c-.35 6.57 1.72 13.36 5.67 18.62.11.15.13.35.05.52-.07.17-.25.28-.44.28zm-32.31-1h31.34c-3.72-5.32-5.64-12-5.29-18.48l.04-.82c.21-3.84.41-7.47-.31-11.13-.72-3.97-4.01-6.81-7.85-6.81h-4.52c-3.84 0-7.14 2.84-7.84 6.75-.73 3.72-.53 7.35-.32 11.19l.04.82c.35 6.48-1.58 13.15-5.29 18.48z"/></g><g><path d="m16.13 36.2.15 2.88.04.72.05.57c.06.35.12.71.24 1.05.45 1.38 1.48 2.57 2.79 3.24.33.16.68.31 1.04.4l.27.08.35.08.7.16 2.81.63 5.63 1.25c.77.17 1.26.94 1.09 1.71-.17.75-.9 1.23-1.64 1.1l-5.68-.99-2.84-.49-.71-.12-.36-.06-.43-.09c-.58-.12-1.13-.32-1.68-.55-2.16-.97-3.94-2.8-4.8-5.05-.22-.56-.37-1.14-.49-1.73l-.11-.87-.07-.72-.28-2.9c-.11-1.08.68-2.05 1.77-2.16 1.08-.11 2.05.68 2.16 1.77z" fill="#db976a"/></g><g opacity=".1"><path d="m31.3 48.94c-.17.75-.9 1.23-1.65 1.1l-5.68-.98-2.84-.49-.71-.13-.35-.06-.43-.09c-.58-.13-1.14-.33-1.68-.56-2.16-.96-3.94-2.8-4.8-5.05-.22-.56-.37-1.14-.49-1.73l-.11-.87-.07-.71-.29-2.87c-.02-.25 0-.49.06-.71l.23 2.27.07.72.11.86c.12.59.27 1.18.49 1.73.86 2.25 2.64 4.09 4.8 5.06.54.23 1.1.43 1.68.55l.43.09.35.07.71.12 2.84.49 5.68.99c.63.11 1.24-.21 1.52-.76.15.29.2.62.13.96z"/></g><g><path d="m29.9 50.56c-.11 0-.22-.01-.33-.03l-10.04-1.76c-.54-.11-1.1-.3-1.77-.58-2.32-1.04-4.17-2.98-5.07-5.33-.21-.52-.37-1.1-.51-1.81l-.19-1.63-.29-2.87c-.13-1.36.86-2.57 2.22-2.71.66-.06 1.3.13 1.81.55s.83 1.01.89 1.67c0 .01.01.11.01.12l.23 4.15c.04.28.11.61.22.92.41 1.27 1.34 2.34 2.55 2.96.29.13.61.28.93.36l1.31.31 8.44 1.88c1.04.23 1.7 1.27 1.47 2.31-.2.88-.99 1.49-1.88 1.49zm-15.74-15.73c-.05 0-.1 0-.15.01-.81.08-1.4.8-1.32 1.61l.47 4.44c.12.62.27 1.14.46 1.61.81 2.12 2.46 3.86 4.54 4.78.6.25 1.1.42 1.58.52l1.48.27 8.52 1.48c.49.08.96-.23 1.07-.72.11-.5-.21-1-.71-1.11l-9.79-2.19c-.4-.1-.77-.27-1.11-.43-1.46-.74-2.57-2.03-3.06-3.54-.13-.38-.21-.78-.26-1.13l-.09-1.34-.15-2.88.5-.03-.5-.03c-.09-.75-.73-1.32-1.48-1.32z"/></g><g><path d="m51.39 57.17v9.03c0 1.27-1.03 2.29-2.29 2.29h-31.17c-1.27 0-2.29-1.03-2.29-2.29v-9.03c0-2.78 1.82-5.25 4.5-6.06l7.17-2.17c.96-.3 1.63-1.18 1.63-2.19v-5.11h9.15v5.11c0 1.01.66 1.89 1.63 2.19l7.17 2.17c2.68.82 4.5 3.28 4.5 6.06z" fill="#5aed99"/></g><g opacity=".25"><path d="m22.67 50.35v18.15h4.08v-19.38z" fill="#fff"/></g><g opacity=".1"><path d="m51.39 57.18v9.03c0 1.26-1.02 2.29-2.29 2.29h-3.23c1.26 0 2.29-1.03 2.29-2.29v-9.03c0-2.79-1.82-5.25-4.5-6.07l-7.17-2.16c-.97-.3-1.63-1.18-1.63-2.19v-5.11h3.23v5.11c0 1.01.67 1.89 1.63 2.19l7.17 2.16c2.68.82 4.5 3.28 4.5 6.07z"/></g><g><path d="m49.1 69h-31.17c-1.54 0-2.79-1.25-2.79-2.79v-9.03c0-3.03 1.95-5.66 4.85-6.54l7.18-2.17c.76-.23 1.27-.92 1.27-1.71v-5.1c0-.28.22-.5.5-.5h9.15c.28 0 .5.22.5.5v5.1c0 .8.51 1.48 1.27 1.71l7.18 2.17c2.9.88 4.85 3.5 4.85 6.54v9.03c0 1.54-1.25 2.79-2.79 2.79zm-19.66-26.85v4.6c0 1.24-.8 2.31-1.98 2.67l-7.18 2.17c-2.48.75-4.14 2.99-4.14 5.58v9.03c0 .99.8 1.79 1.79 1.79h31.17c.99 0 1.79-.8 1.79-1.79v-9.03c0-2.59-1.66-4.83-4.14-5.58l-7.18-2.17c-1.19-.36-1.98-1.43-1.98-2.67v-4.6z"/></g><g><path d="m22.22 69c-.28 0-.5-.22-.5-.5v-5.45c0-.28.22-.5.5-.5s.5.22.5.5v5.45c0 .28-.22.5-.5.5z"/></g><g><path d="m27.04 68.23c-1.18 0-2.17-.28-2.98-.84-1.47-1.02-2.29-2.9-2.51-5.73-.02-.28.19-.52.46-.54.29-.02.52.19.54.46.19 2.48.89 4.16 2.08 4.99 1.14.79 2.83.88 5.02.24.27-.08.54.08.62.34s-.08.54-.34.62c-1.06.31-2.02.46-2.89.46z"/></g><g><path d="m26.91 65.1c-.11 0-.21-.03-.31-.1-.22-.17-.29-.5-.12-.72s.46-.28.67-.11l.05.04c.22.17.26.48.09.7-.08.13-.23.19-.38.19z"/></g><g><path d="m41.6 31.17v7.37c0 4.47-3.62 8.09-8.09 8.09-2.23 0-4.26-.91-5.72-2.37-1.47-1.47-2.37-3.48-2.37-5.72v-7.37c.01-1.76 1.89-3.17 4.22-3.17 1.74 0 3.23.79 3.87 1.92.64-1.13 2.13-1.92 3.87-1.92 2.33-.01 4.21 1.4 4.22 3.17z" fill="#5aed99"/></g><g opacity=".25"><path d="m29.64 27.99c-.23 0-.45.02-.67.05v17.16c.87.59 1.84 1.03 2.91 1.25v-17.97c-.65-.3-1.41-.49-2.24-.49z" fill="#fff"/></g><g opacity=".1"><path d="m41.6 31.17v7.37c0 4.46-3.62 8.09-8.09 8.09-.41 0-.82-.03-1.22-.09 3.89-.6 6.86-3.96 6.86-8v-7.37c-.02-1.44-1.26-2.65-2.99-3.04.39-.09.8-.14 1.23-.14 2.32 0 4.2 1.41 4.21 3.18z"/></g><g><path d="m33.51 47.12c-2.3 0-4.46-.9-6.07-2.52-1.62-1.62-2.52-3.78-2.52-6.07v-7.37c.01-2.06 2.08-3.67 4.72-3.67 1.57 0 3.01.6 3.87 1.57.87-.97 2.31-1.57 3.87-1.57 2.63 0 4.7 1.61 4.72 3.67v7.37c0 4.74-3.85 8.59-8.59 8.59zm-3.87-18.63c-2.04 0-3.71 1.2-3.72 2.68v7.36c0 2.02.79 3.93 2.23 5.36 1.42 1.44 3.33 2.23 5.36 2.23 4.18 0 7.59-3.4 7.59-7.59v-7.37c-.01-1.48-1.68-2.68-3.72-2.68-1.51 0-2.86.66-3.44 1.67-.18.31-.69.31-.87 0-.56-1-1.91-1.66-3.43-1.66z"/></g><g><path d="m37.04 36.73c-.6 0-1.19-.17-1.65-.52-.22-.17-.26-.48-.1-.7s.48-.27.7-.1c.57.43 1.53.43 2.11 0 .22-.17.53-.12.7.1.16.22.12.53-.1.7-.47.35-1.07.52-1.66.52z"/></g><g><path d="m33.51 42.7c-.89 0-1.78-.26-2.47-.78-.22-.17-.26-.48-.1-.7.17-.22.48-.26.7-.1 1.01.76 2.72.76 3.74 0 .22-.17.53-.12.7.1.16.22.12.53-.1.7-.69.52-1.58.78-2.47.78z"/></g><g><path d="m30.28 36.73c-.6 0-1.19-.17-1.65-.52-.22-.17-.26-.48-.1-.7.17-.22.48-.27.7-.1.57.43 1.53.43 2.11 0 .22-.17.54-.12.7.1s.12.53-.1.7c-.47.35-1.07.52-1.66.52z"/></g><g><path d="m34.73 63.73c-5.43 0-9.69-6.52-9.69-14.85 0-.66.54-1.2 1.2-1.2s1.2.54 1.2 1.2c0 6.75 3.34 12.45 7.29 12.45.66 0 1.2.54 1.2 1.2 0 .67-.53 1.2-1.2 1.2z" fill="#f36"/></g><g><path d="m34.73 64.23c-5.71 0-10.19-6.74-10.19-15.35 0-.94.76-1.7 1.7-1.7s1.7.76 1.7 1.7c0 6.48 3.11 11.95 6.79 11.95.94 0 1.7.76 1.7 1.7s-.76 1.7-1.7 1.7zm-8.49-16.04c-.39 0-.7.31-.7.7 0 8.04 4.04 14.35 9.19 14.35.39 0 .7-.31.7-.7s-.31-.7-.7-.7c-4.22 0-7.79-5.93-7.79-12.95 0-.39-.31-.7-.7-.7z"/></g><g><path d="m44.64 68.5c3.51-5.6 4.04-12.76 1.41-18.77l-6-.97c-1.4 3.66-2.81 7.34-4.77 10.76s-4.5 6.62-7.82 8.94z" fill="#ffd767"/></g><g opacity=".25"><path d="m43.81 49.04c-1.36 3.57-2.75 7.14-4.66 10.48-1.96 3.43-4.5 6.62-7.82 8.94h-1.82c3.33-2.32 5.87-5.51 7.82-8.94 1.96-3.43 3.37-7.1 4.77-10.76z" fill="#fff"/></g><g opacity=".1"><path d="m44.64 68.5h-2.03c2.64-4.22 3.59-9.33 2.77-14.16-.46-2.74-2.71-4.82-5.46-5.27.04-.1.08-.21.12-.31l6 .97c2.65 6.01 2.11 13.17-1.4 18.77z"/></g><g><path d="m44.64 69-17.18-.04c-.22 0-.41-.14-.48-.35s.01-.43.19-.56c2.93-2.04 5.51-4.99 7.67-8.77 1.94-3.4 3.36-7.11 4.74-10.69.09-.22.32-.35.55-.31l6 .97c.17.03.31.14.38.29 2.7 6.14 2.15 13.51-1.44 19.24-.1.13-.26.22-.43.22zm-15.68-1.04 15.4.04c3.23-5.34 3.74-12.11 1.33-17.82l-5.33-.86c-1.34 3.5-2.75 7.11-4.66 10.45-1.92 3.38-4.19 6.13-6.74 8.19z"/></g><g><path d="m44.47 36.23c0 1.59-1.29 2.87-2.87 2.87v-5.73c1.58-.01 2.87 1.27 2.87 2.86z" fill="#5aed99"/></g><g><path d="m41.6 39.59c-.28 0-.5-.22-.5-.5v-5.73c0-.28.22-.5.5-.5 1.86 0 3.37 1.51 3.37 3.37s-1.51 3.36-3.37 3.36zm.5-5.67v4.62c1.06-.23 1.87-1.18 1.87-2.31s-.8-2.08-1.87-2.31z"/></g><g><path d="m22.56 36.23c0 1.59 1.29 2.87 2.87 2.87v-5.73c-1.58-.01-2.87 1.27-2.87 2.86z" fill="#5aed99"/></g><g><path d="m25.43 39.59c-1.86 0-3.37-1.51-3.37-3.37s1.51-3.37 3.37-3.37c.28 0 .5.22.5.5v5.73c0 .29-.23.51-.5.51zm-.5-5.67c-1.06.23-1.87 1.18-1.87 2.31s.8 2.08 1.87 2.31z"/></g><g><path d="m35.2 66.7c-.11 0-.21-.03-.31-.1-.22-.17-.29-.5-.12-.72s.46-.28.67-.11l.05.04c.22.17.26.48.09.7-.09.13-.23.19-.38.19z"/></g><g><path d="m40.03 65.12c-.11 0-.21-.03-.31-.1-.22-.17-.29-.5-.12-.72s.46-.28.67-.11l.05.04c.22.17.26.48.09.7-.08.13-.23.19-.38.19z"/></g><g><path d="m44.67 63.55c-.11 0-.21-.03-.31-.1-.22-.17-.29-.5-.12-.72s.46-.28.67-.11l.05.04c.22.17.26.48.09.7-.08.12-.23.19-.38.19z"/></g><g><path d="m45.19 55.15c-.11 0-.21-.03-.31-.1-.22-.17-.29-.5-.12-.72s.46-.28.67-.11l.05.04c.22.17.26.48.09.7-.09.12-.23.19-.38.19z"/></g><g><path d="m42.92 59.39c-.11 0-.21-.03-.31-.1-.22-.17-.29-.5-.12-.72s.46-.28.67-.11l.05.04c.22.17.26.48.09.7-.08.12-.23.19-.38.19z"/></g><g><path d="m41.28 54.37c-.11 0-.21-.03-.31-.1-.22-.17-.29-.5-.12-.72s.46-.28.67-.11l.05.04c.22.17.26.48.09.7-.09.12-.23.19-.38.19z"/></g><g><path d="m43.2 66.72c-.11 0-.21-.03-.31-.1-.22-.17-.29-.5-.12-.72s.46-.28.67-.11l.05.04c.22.17.26.48.09.7-.09.13-.23.19-.38.19z"/></g><g><path d="m38.41 61.45c-.11 0-.21-.03-.31-.1-.22-.17-.29-.5-.12-.72s.46-.28.67-.11l.05.04c.22.17.26.48.09.7-.08.12-.23.19-.38.19z"/></g><g><g><path d="m40.84 48.75c-.49 2.15.07 4.68 1.6 6.51l.01.01c.31.38.26.93-.12 1.25-.34.28-.84.27-1.16-.03-2.18-1.98-3.44-5.01-3.22-8.14v-.04c.06-.81.76-1.41 1.56-1.35.81.06 1.41.76 1.35 1.56.01.08-.01.16-.02.23z" fill="#db976a"/></g><g><path d="m41.76 57.22c-.33 0-.67-.12-.93-.36-2.35-2.13-3.61-5.33-3.38-8.54.04-.56.28-1.04.68-1.38s.91-.52 1.43-.47c.52.04 1 .28 1.34.67.34.4.51.9.47 1.43-.01.1-.02.2-.04.29v.01c-.47 2.03.12 4.42 1.49 6.08.24.3.36.66.32 1.02-.03.37-.21.7-.5.94-.25.21-.56.31-.88.31zm-2.35-9.76c-.23 0-.45.08-.63.23-.19.17-.31.4-.33.66-.21 2.95.93 5.84 3.05 7.77.14.13.36.13.5.01.16-.14.19-.38.05-.54-1.6-1.93-2.25-4.59-1.71-6.95.01-.05.02-.1.02-.15.02-.26-.06-.5-.23-.7s-.4-.31-.66-.33c-.01 0-.04 0-.06 0z"/></g></g><g><g><path d="m33.52 51.7c-2.55 0-5.1-.97-7.04-2.91-.56-.56-.56-1.47 0-2.03s1.47-.56 2.03 0c2.76 2.76 7.25 2.76 10.02.01.56-.56 1.47-.56 2.03 0s.56 1.47 0 2.03c-1.95 1.94-4.5 2.9-7.04 2.9z" fill="#db976a"/></g></g><g opacity=".1"><path d="m40.55 48.81c-1.94 1.93-4.49 2.89-7.03 2.89-1.63 0-3.25-.39-4.72-1.19.93.27 1.88.41 2.84.41 2.54 0 5.09-.96 7.03-2.89.42-.42.53-1.05.31-1.56.52-.22 1.14-.12 1.57.31.56.56.56 1.47 0 2.03z"/></g><g><g><path d="m33.52 52.2c-2.8 0-5.42-1.09-7.39-3.06-.37-.37-.57-.85-.57-1.37s.2-1 .57-1.37c.73-.73 2-.73 2.73 0 2.56 2.56 6.74 2.57 9.31.01.36-.36.87-.55 1.37-.56.52 0 1 .2 1.37.57s.56.85.56 1.37-.2 1-.57 1.37c-1.97 1.96-4.59 3.04-7.38 3.04zm-6.02-5.35c-.25 0-.48.1-.66.27s-.27.41-.27.66.1.48.27.66c1.78 1.78 4.16 2.76 6.68 2.76s4.89-.98 6.67-2.75c.18-.18.27-.41.27-.66s-.1-.48-.27-.66c-.18-.18-.41-.27-.66-.27-.25 0-.48.1-.66.27-2.96 2.95-7.77 2.94-10.72-.01-.17-.17-.41-.27-.65-.27z"/></g></g><g><path d="m18.04 31.75-.19 2c-.18 1.87-1.75 3.3-3.63 3.3-1.88 0-3.45-1.43-3.63-3.3l-.19-2c-.1-1.01.7-1.89 1.72-1.89h4.2c1.02 0 1.81.88 1.72 1.89z" fill="#b7734e"/></g><g opacity=".1"><path d="m18.04 31.75-.19 2c-.18 1.87-1.75 3.31-3.63 3.31-.75 0-1.45-.23-2.04-.63.22.05.45.07.68.07 1.88 0 3.45-1.43 3.63-3.3l.19-2c.05-.51-.13-.98-.45-1.33h.09c1.02 0 1.81.87 1.72 1.88z"/></g><g><path d="m14.22 37.55c-2.15 0-3.93-1.62-4.13-3.76l-.19-2c-.06-.62.15-1.24.57-1.71.42-.46 1.02-.73 1.65-.73h4.2c.63 0 1.23.27 1.65.73s.63 1.08.57 1.71l-.19 2c-.2 2.15-1.98 3.76-4.13 3.76zm-2.1-7.19c-.35 0-.67.14-.91.4s-.35.59-.31.94l.19 2c.15 1.63 1.5 2.85 3.13 2.85s2.98-1.23 3.13-2.85l.19-2c.03-.35-.08-.68-.31-.94-.24-.26-.56-.4-.91-.4z"/></g><g><path d="m14.22 40.61c-.28 0-.5-.22-.5-.5v-3.05c0-.28.22-.5.5-.5s.5.22.5.5v3.05c0 .27-.22.5-.5.5z"/></g><g><g><path d="m15.58 33.98c-.11 0-.22-.03-.31-.11-.22-.17-.28-.5-.11-.72s.46-.27.68-.1l.05.04c.22.17.26.48.08.7-.09.12-.24.19-.39.19z"/></g><g><path d="m12.91 33.98c-.11 0-.21-.03-.31-.1-.22-.17-.28-.5-.11-.72s.46-.28.68-.11l.05.04c.22.17.26.48.09.7-.11.12-.25.19-.4.19z"/></g></g></g></svg>