<svg xmlns="http://www.w3.org/2000/svg" version="1.1" xmlns:xlink="http://www.w3.org/1999/xlink" width="512" height="512" x="0" y="0" viewBox="0 0 682.667 682.667" style="enable-background:new 0 0 512 512" xml:space="preserve" class=""><g><defs stroke-width="3" style="stroke-width: 3;"><clipPath id="a" clipPathUnits="userSpaceOnUse" stroke-width="3" style="stroke-width: 3;"><path d="M0 512h512V0H0Z" fill="#000000" opacity="1" data-original="#000000" stroke-width="3" style="stroke-width: 3;"></path></clipPath></defs><g clip-path="url(#a)" transform="matrix(1.33333 0 0 -1.33333 0 682.667)" stroke-width="3" style="stroke-width: 3;"><path d="M0 0v-98.7c0-5.52-4.48-10-10-10h-401.22c-5.52 0-10 4.48-10 10V0c0 4.86.29 9.67.87 14.399.6 5.021 1.52 9.961 2.73 14.801a119.905 119.905 0 0 0 49.39 70.25c4.43 2.98 9.08 5.68 13.93 8.06 5.66 2.79 11.59 5.15 17.76 7.04l36.58 11.22 14.35 4.4 5.75 1.76a29.542 29.542 0 0 1 20.87 28.24v47.13h96.76v-47.13c0-10.31 5.34-19.66 13.76-24.96a29.295 29.295 0 0 1 7.11-3.28l7.17-2.201 49.51-15.179c4.23-1.3 8.35-2.821 12.34-4.55 4.72-2.021 9.26-4.34 13.61-6.92a119.73 119.73 0 0 0 31.65-27.22c3.4-4.15 6.51-8.52 9.32-13.1A119.502 119.502 0 0 0 0 0" style="fill-opacity: 1; fill-rule: nonzero; stroke: none; stroke-width: 3;" transform="translate(466.61 108.7)" fill="#e8edf2" data-original="#e8edf2" stroke-width="3"></path><path d="M0 0c-18.02-20.76-47.45-49.49-90.43-72.75-8.06 2.89-24.4 9.97-38.93 26.181-14.95 16.67-20.15 34.239-22.06 42.609L-138.5 0a29.529 29.529 0 0 1 18.77 17.3 29.5 29.5 0 0 1 2.1 10.94v47.13h96.76V28.24c0-11.76 6.95-22.26 17.47-26.96C-2.3.79-1.17.36 0 0" style="fill-opacity: 1; fill-rule: nonzero; stroke: none; stroke-width: 3;" transform="translate(325.25 240.63)" fill="#ffcebf" data-original="#ffcebf" stroke-width="3"></path><path d="M0 0c-15.2-14.21-32.5-23.21-50.85-23.21-24.54 0-47.2 16.1-65.48 39.23a29.5 29.5 0 0 1 2.1 10.94v47.13h96.76V26.96C-17.47 15.2-10.52 4.7 0 0" style="fill-opacity: 1; fill-rule: nonzero; stroke: none; stroke-width: 3;" transform="translate(321.85 241.91)" fill="#ffaf9e" data-original="#ffaf9e" stroke-width="3"></path><path d="M0 0h23.547v54.025H0c-8.85 0-16.024-7.174-16.024-16.024V16.024C-16.024 7.174-8.85 0 0 0" style="fill-opacity: 1; fill-rule: nonzero; stroke: none; stroke-width: 3;" transform="translate(136.583 334.812)" fill="#ffaf9e" data-original="#ffaf9e" stroke-width="3"></path><path d="M0 0h-23.547v54.025H0c8.85 0 16.024-7.174 16.024-16.024V16.024C16.024 7.174 8.85 0 0 0" style="fill-opacity: 1; fill-rule: nonzero; stroke: none; stroke-width: 3;" transform="translate(375.398 334.812)" fill="#ffaf9e" data-original="#ffaf9e" stroke-width="3"></path><path d="M0 0c0-59.79-49.14-158.03-109.76-158.03-60.62 0-109.76 98.24-109.76 158.03 0 1.77.041 3.54.13 5.29.3 6.08 1.1 12.03 2.38 17.8v.01c10.73 48.69 54.67 85.14 107.25 85.14 52.86 0 96.99-36.84 107.42-85.91C-1.13 16.64-.37 10.79-.11 4.81-.04 3.22 0 1.61 0 0" style="fill-opacity: 1; fill-rule: nonzero; stroke: none; stroke-width: 3;" transform="translate(365.76 396.26)" fill="#ffcebf" data-original="#ffcebf" stroke-width="3"></path><path d="M0 0c0-15.305-12.407-27.712-27.711-27.712-15.305 0-27.712 12.407-27.712 27.712s12.407 27.711 27.712 27.711C-12.407 27.711 0 15.305 0 0" style="fill-opacity: 1; fill-rule: nonzero; stroke: none; stroke-width: 3;" transform="translate(329.137 355.048)" fill="#a79ba7" data-original="#a79ba7" stroke-width="3"></path><path d="M0 0a27.635 27.635 0 0 0 2.106-10.605c0-15.305-12.407-27.711-27.711-27.711-3.758 0-7.338.751-10.606 2.106 4.164-10.042 14.058-17.106 25.606-17.106 15.304 0 27.711 12.406 27.711 27.711C17.106-14.058 10.042-4.164 0 0" style="fill-opacity: 1; fill-rule: nonzero; stroke: none; stroke-width: 3;" transform="translate(312.031 380.653)" fill="#918291" data-original="#918291" stroke-width="3"></path><path d="M0 0c0-15.305-12.407-27.712-27.711-27.712-15.305 0-27.712 12.407-27.712 27.712s12.407 27.711 27.712 27.711C-12.407 27.711 0 15.305 0 0" style="fill-opacity: 1; fill-rule: nonzero; stroke: none; stroke-width: 3;" transform="translate(238.286 355.048)" fill="#a79ba7" data-original="#a79ba7" stroke-width="3"></path><path d="M0 0a27.635 27.635 0 0 0 2.106-10.605c0-15.305-12.407-27.711-27.711-27.711-3.758 0-7.338.751-10.606 2.106 4.164-10.042 14.058-17.106 25.606-17.106 15.304 0 27.711 12.406 27.711 27.711C17.106-14.058 10.041-4.164 0 0" style="fill-opacity: 1; fill-rule: nonzero; stroke: none; stroke-width: 3;" transform="translate(221.18 380.653)" fill="#918291" data-original="#918291" stroke-width="3"></path><path d="M0 0a29.536 29.536 0 0 0-19.614-19.697l-56.674-17.384c-50.326-15.436-84.683-61.912-84.683-114.552v-101.198" style="stroke-width: 3; stroke-linecap: round; stroke-linejoin: round; stroke-miterlimit: 10; stroke-dasharray: none; stroke-opacity: 1;" transform="translate(206.36 260.33)" fill="none" stroke="#000000" stroke-width="3" stroke-linecap="round" stroke-linejoin="round" stroke-miterlimit="10" stroke-dasharray="none" stroke-opacity="" data-original="#000000"></path><path d="M0 0v101.197c0 52.641-34.357 99.116-84.683 114.553l-56.674 17.384a29.533 29.533 0 0 0-19.63 19.75" style="stroke-width: 3; stroke-linecap: round; stroke-linejoin: round; stroke-miterlimit: 10; stroke-dasharray: none; stroke-opacity: 1;" transform="translate(466.61 7.5)" fill="none" stroke="#000000" stroke-width="3" stroke-linecap="round" stroke-linejoin="round" stroke-miterlimit="10" stroke-dasharray="none" stroke-opacity="" data-original="#000000"></path><path d="M0 0v-66.354" style="stroke-width: 3; stroke-linecap: round; stroke-linejoin: round; stroke-miterlimit: 10; stroke-dasharray: none; stroke-opacity: 1;" transform="translate(391.61 73.853)" fill="none" stroke="#000000" stroke-width="3" stroke-linecap="round" stroke-linejoin="round" stroke-miterlimit="10" stroke-dasharray="none" stroke-opacity="" data-original="#000000"></path><path d="M0 0c-53.362-15.231-99.249-13.434-123.174-11.188" style="stroke-width: 3; stroke-linecap: round; stroke-linejoin: round; stroke-miterlimit: 10; stroke-dasharray: none; stroke-opacity: 1;" transform="translate(170.559 141.698)" fill="none" stroke="#000000" stroke-width="3" stroke-linecap="round" stroke-linejoin="round" stroke-miterlimit="10" stroke-dasharray="none" stroke-opacity="" data-original="#000000"></path><path d="M0 0c-18.809-21.675-50.039-52.01-96.133-75.766a317.616 317.616 0 0 0-26.655-12.216" style="stroke-width: 3; stroke-linecap: round; stroke-linejoin: round; stroke-miterlimit: 10; stroke-dasharray: none; stroke-opacity: 1;" transform="translate(325.253 240.634)" fill="none" stroke="#000000" stroke-width="3" stroke-linecap="round" stroke-linejoin="round" stroke-miterlimit="10" stroke-dasharray="none" stroke-opacity="" data-original="#000000"></path><path d="M0 0c-23.409-27.763-56.807-60.924-102.45-90.401-101.254-65.394-203.056-74.096-253.467-74.761" style="stroke-width: 3; stroke-linecap: round; stroke-linejoin: round; stroke-miterlimit: 10; stroke-dasharray: none; stroke-opacity: 1;" transform="translate(401.306 215.4)" fill="none" stroke="#000000" stroke-width="3" stroke-linecap="round" stroke-linejoin="round" stroke-miterlimit="10" stroke-dasharray="none" stroke-opacity="" data-original="#000000"></path><path d="M0 0a209.448 209.448 0 0 0-29.851-44.268 209.405 209.405 0 0 0-37.608-33.579" style="stroke-width: 3; stroke-linecap: round; stroke-linejoin: round; stroke-miterlimit: 10; stroke-dasharray: none; stroke-opacity: 1;" transform="translate(444.095 178.608)" fill="none" stroke="#000000" stroke-width="3" stroke-linecap="round" stroke-linejoin="round" stroke-miterlimit="10" stroke-dasharray="none" stroke-opacity="" data-original="#000000"></path><path d="M0 0c1.91-8.369 7.104-25.946 22.056-42.617C36.587-58.819 52.923-65.9 60.985-68.794" style="stroke-width: 3; stroke-linecap: round; stroke-linejoin: round; stroke-miterlimit: 10; stroke-dasharray: none; stroke-opacity: 1;" transform="translate(173.833 236.673)" fill="none" stroke="#000000" stroke-width="3" stroke-linecap="round" stroke-linejoin="round" stroke-miterlimit="10" stroke-dasharray="none" stroke-opacity="" data-original="#000000"></path><path d="M0 0c.169-8.149 1.639-26.072 12.982-44.834 10.68-17.663 24.696-27.116 31.713-31.215" style="stroke-width: 3; stroke-linecap: round; stroke-linejoin: round; stroke-miterlimit: 10; stroke-dasharray: none; stroke-opacity: 1;" transform="translate(105.679 212.692)" fill="none" stroke="#000000" stroke-width="3" stroke-linecap="round" stroke-linejoin="round" stroke-miterlimit="10" stroke-dasharray="none" stroke-opacity="" data-original="#000000"></path><path d="M0 0c25.645 1.585 64.324 7.17 106.928 26.422 30.218 13.654 53.385 30.106 69.806 43.831" style="stroke-width: 3; stroke-linecap: round; stroke-linejoin: round; stroke-miterlimit: 10; stroke-dasharray: none; stroke-opacity: 1;" transform="translate(164.231 7.5)" fill="none" stroke="#000000" stroke-width="3" stroke-linecap="round" stroke-linejoin="round" stroke-miterlimit="10" stroke-dasharray="none" stroke-opacity="" data-original="#000000"></path><path d="M0 0h-9.889c-8.85 0-16.024-7.174-16.024-16.024v-21.977c0-8.85 7.174-16.024 16.024-16.024h22.26" style="stroke-width: 3; stroke-linecap: round; stroke-linejoin: round; stroke-miterlimit: 10; stroke-dasharray: none; stroke-opacity: 1;" transform="translate(146.473 388.837)" fill="none" stroke="#000000" stroke-width="3" stroke-linecap="round" stroke-linejoin="round" stroke-miterlimit="10" stroke-dasharray="none" stroke-opacity="" data-original="#000000"></path><path d="M0 0h9.641c8.849 0 16.024-7.174 16.024-16.024v-21.977c0-8.85-7.175-16.024-16.024-16.024h-22.197" style="stroke-width: 3; stroke-linecap: round; stroke-linejoin: round; stroke-miterlimit: 10; stroke-dasharray: none; stroke-opacity: 1;" transform="translate(365.757 388.837)" fill="none" stroke="#000000" stroke-width="3" stroke-linecap="round" stroke-linejoin="round" stroke-miterlimit="10" stroke-dasharray="none" stroke-opacity="" data-original="#000000"></path><path d="M0 0c0-59.782-49.14-158.028-109.757-158.028-60.618 0-109.758 98.246-109.758 158.028s49.14 108.244 109.758 108.244C-49.14 108.244 0 59.782 0 0Z" style="stroke-width: 3; stroke-linecap: round; stroke-linejoin: round; stroke-miterlimit: 10; stroke-dasharray: none; stroke-opacity: 1;" transform="translate(365.757 396.256)" fill="none" stroke="#000000" stroke-width="3" stroke-linecap="round" stroke-linejoin="round" stroke-miterlimit="10" stroke-dasharray="none" stroke-opacity="" data-original="#000000"></path><path d="M0 0c0-15.305-12.407-27.712-27.711-27.712-15.305 0-27.712 12.407-27.712 27.712s12.407 27.711 27.712 27.711C-12.407 27.711 0 15.305 0 0Z" style="stroke-width: 3; stroke-linecap: round; stroke-linejoin: round; stroke-miterlimit: 10; stroke-dasharray: none; stroke-opacity: 1;" transform="translate(329.137 355.048)" fill="none" stroke="#000000" stroke-width="3" stroke-linecap="round" stroke-linejoin="round" stroke-miterlimit="10" stroke-dasharray="none" stroke-opacity="" data-original="#000000"></path><path d="M0 0c0-15.305-12.407-27.712-27.711-27.712-15.305 0-27.712 12.407-27.712 27.712s12.407 27.711 27.712 27.711C-12.407 27.711 0 15.305 0 0Z" style="stroke-width: 3; stroke-linecap: round; stroke-linejoin: round; stroke-miterlimit: 10; stroke-dasharray: none; stroke-opacity: 1;" transform="translate(238.286 355.048)" fill="none" stroke="#000000" stroke-width="3" stroke-linecap="round" stroke-linejoin="round" stroke-miterlimit="10" stroke-dasharray="none" stroke-opacity="" data-original="#000000"></path><path d="M0 0c3.51 1.981 10.368 5.228 19.575 5.672 11.271.544 19.712-3.418 23.318-5.383" style="stroke-width: 3; stroke-linecap: round; stroke-linejoin: round; stroke-miterlimit: 10; stroke-dasharray: none; stroke-opacity: 1;" transform="translate(234.638 368.811)" fill="none" stroke="#000000" stroke-width="3" stroke-linecap="round" stroke-linejoin="round" stroke-miterlimit="10" stroke-dasharray="none" stroke-opacity="" data-original="#000000"></path><path d="m0 0-42.377-34.458" style="stroke-width: 3; stroke-linecap: round; stroke-linejoin: round; stroke-miterlimit: 10; stroke-dasharray: none; stroke-opacity: 1;" transform="translate(363.502 408.991)" fill="none" stroke="#000000" stroke-width="3" stroke-linecap="round" stroke-linejoin="round" stroke-miterlimit="10" stroke-dasharray="none" stroke-opacity="" data-original="#000000"></path><path d="m0 0 41.463-35.427" style="stroke-width: 3; stroke-linecap: round; stroke-linejoin: round; stroke-miterlimit: 10; stroke-dasharray: none; stroke-opacity: 1;" transform="translate(148.498 408.991)" fill="none" stroke="#000000" stroke-width="3" stroke-linecap="round" stroke-linejoin="round" stroke-miterlimit="10" stroke-dasharray="none" stroke-opacity="" data-original="#000000"></path><path d="M0 0c3.641.309 9.291.347 15.854-1.445a45.663 45.663 0 0 0 15.304-7.482 49.848 49.848 0 0 0 13.854 7.913 49.839 49.839 0 0 0 16.136 3.141" style="stroke-width: 3; stroke-linecap: round; stroke-linejoin: round; stroke-miterlimit: 10; stroke-dasharray: none; stroke-opacity: 1;" transform="translate(225.426 426.372)" fill="none" stroke="#000000" stroke-width="3" stroke-linecap="round" stroke-linejoin="round" stroke-miterlimit="10" stroke-dasharray="none" stroke-opacity="" data-original="#000000"></path><path d="M0 0a19.05 19.05 0 0 0 13.022-3.731A20.811 20.811 0 0 0 25.557.889" style="stroke-width: 3; stroke-linecap: round; stroke-linejoin: round; stroke-miterlimit: 10; stroke-dasharray: none; stroke-opacity: 1;" transform="translate(243.222 455.184)" fill="none" stroke="#000000" stroke-width="3" stroke-linecap="round" stroke-linejoin="round" stroke-miterlimit="10" stroke-dasharray="none" stroke-opacity="" data-original="#000000"></path><path d="M0 0c3.619-1.928 11.783-5.653 22.724-5.326C33.058-5.017 40.64-1.25 44.174.803" style="stroke-width: 3; stroke-linecap: round; stroke-linejoin: round; stroke-miterlimit: 10; stroke-dasharray: none; stroke-opacity: 1;" transform="translate(233.913 288.22)" fill="none" stroke="#000000" stroke-width="3" stroke-linecap="round" stroke-linejoin="round" stroke-miterlimit="10" stroke-dasharray="none" stroke-opacity="" data-original="#000000"></path></g></g></svg>