<svg clip-rule="evenodd" fill-rule="evenodd" height="45.153mm" image-rendering="optimizeQuality" shape-rendering="geometricPrecision" text-rendering="geometricPrecision" viewBox="0 0 3768 4480" width="37.978mm" xmlns="http://www.w3.org/2000/svg"><g id="Layer_x0020_1"><g id="_588578232"><path d="m2803 1634c-39 202-92 355-116 395-456 753-1149 754-1604 0-24-40-77-191-116-390-197 67-349-596 14-493l6-73 32-450c163-787 1576-781 1743-1l38 531c365-90 204 585 3 481z" fill="#ffdd6e"/><path d="m2830 1680c-16 74-33 141-49 196-25 85-50 146-64 171-131 215-280 371-439 467-127 77-260 115-393 115s-266-38-393-115c-159-96-309-252-439-467-15-25-39-85-63-169-17-56-35-124-50-199-58 1-108-41-146-103-36-57-60-135-67-209-6-77 7-153 46-204 37-47 94-73 176-60l3-33 32-449c0-2 0-5 1-7 49-234 204-401 404-502 148-74 322-112 496-112 175 0 349 37 499 110 204 101 362 269 413 505v5l35 491c123-15 188 53 212 149 11 46 11 99 4 151-8 51-24 102-47 145-40 80-102 134-171 124zm-116 177c18-63 38-141 55-229l3-9c9-18 30-24 47-16 44 23 89-17 120-78 19-37 33-80 39-124 7-44 7-88-2-125-17-68-67-113-167-90-2 1-4 2-7 2-19 1-36-14-37-33l-37-528c-46-211-190-363-375-454-140-69-304-104-468-103-163 0-326 35-465 105-182 91-322 242-367 453l-31 447-6 73c0 3 0 5-1 7-5 19-24 30-43 25-72-21-118-7-144 26-27 36-36 94-31 155 6 64 26 130 56 179 30 48 67 78 103 66 1-1 3-1 5-1 19-4 37 8 41 27 17 87 36 164 55 227 23 77 44 131 56 152 124 205 266 353 415 443 116 70 236 105 357 105 120 0 241-35 357-105 149-90 291-238 415-443 12-21 33-75 57-154z" fill-rule="nonzero"/><path d="m1397 2815c-1465 532-999 101-1356 1423-14 51-4 101 28 143 32 41 78 64 131 64l3369-7c53 0 98-23 130-64 32-42 42-92 28-143-342-1266-31-913-1310-1403l-60-412c-290 229-620 237-913 24z" fill="#ffdd6e"/><g><path d="m1407 2849c-276 100-485 166-643 216-246 79-366 117-430 184-59 62-78 159-113 349-29 151-67 358-146 649-6 20-6 40-3 59 4 19 12 37 25 53 13 17 28 30 45 38l2 1c16 8 35 12 56 12l3369-7c21 0 40-4 57-13 17-8 32-21 45-38 13-16 21-34 25-53 3-19 2-38-3-59-56-208-95-373-126-504-61-261-91-390-167-471-75-80-201-123-452-209-140-48-317-108-543-195-13-5-21-16-22-29l-52-353c-137 96-282 146-428 150-146 3-293-39-431-128l-40 318c-2 15-12 26-25 30zm-664 150c153-49 354-113 622-210l44-353c1-6 3-11 7-16 11-16 33-20 48-8 141 102 289 151 437 147s295-61 435-170c4-4 10-6 16-7 19-3 37 10 40 29l57 392c217 83 387 141 521 187 262 89 394 134 481 227 89 95 120 230 184 503 31 131 70 295 126 502 8 31 9 61 3 90-6 30-18 57-37 83-20 25-43 44-70 58-27 13-56 20-88 20l-3369 7c-31 0-61-7-87-19 0-1-1-1-2-1-27-13-50-33-70-58-19-25-32-53-37-83-6-29-5-59 3-90 79-290 117-495 145-644 38-203 58-307 131-384 77-80 202-120 460-202zm-599 1399c16 9 22 29 14 46z" fill-rule="nonzero"/></g><path d="m780 4436c0 20-15 35-34 35s-35-15-35-35v-434c0-20 16-35 35-35s34 15 34 35zm2277 0c0 20-16 35-35 35s-35-15-35-35v-434c0-20 16-35 35-35s35 15 35 35z" fill-rule="nonzero"/><path d="m2762 2955-1048 1487 1855-4c53 0 98-23 130-64 32-42 42-92 28-143-307-1136-88-968-965-1276z" fill="#ff984a"/><path d="m2776 2997-994 1410 1787-4c21 0 40-4 57-13 17-8 32-21 45-38 13-16 21-34 25-53 3-19 2-38-3-59-56-208-95-372-126-504-56-237-86-366-148-448-72-96-198-139-471-232-51-17-106-36-172-59zm-1090 1425 1048-1487c9-13 25-18 40-13 68 24 135 47 196 68 288 98 420 143 505 256 71 94 102 228 160 474 31 131 70 295 126 502 8 31 9 61 3 90-6 30-18 57-37 83-20 25-43 44-70 58-27 13-56 20-88 20l-1853 4c-7 0-15-2-22-7-16-11-20-33-8-48z" fill-rule="nonzero"/><path d="m1797 4442-54-41 571-810-1568 628v225z" fill="#ff984a"/><g fill-rule="nonzero"><path d="m1791 4393 27 21c8 6 13 16 13 28 0 19-15 34-34 34l-1048 2c-1 1-2 1-3 1-20 0-35-16-35-35v-225c0-14 8-27 22-32l1567-628c11-5 24-4 34 3 16 11 20 33 9 49zm-82 14c-2-9 0-19 6-27l503-713-1437 576v166z"/><path d="m912 4347c-18 7-39-1-46-19s2-39 20-46l673-270c18-7 38 2 45 20 7 17-1 38-19 45z"/><path d="m2786 3138c7-18 27-27 45-21 18 7 27 27 21 45l-461 1199c-6 18-27 27-45 20s-27-27-20-45z"/><path d="m2784 3653c-1-19 14-35 33-36s36 14 37 33l43 788c1 19-14 35-33 36-20 1-36-14-37-33z"/></g></g></g></svg>