<svg xmlns="http://www.w3.org/2000/svg" version="1.1" xmlns:xlink="http://www.w3.org/1999/xlink" width="512" height="512" x="0" y="0" viewBox="0 0 512 512" style="enable-background:new 0 0 512 512" xml:space="preserve" class=""><g><path fill="#ff2b63" d="M243.096 20H76.213v166.883l250.324 83.442z" opacity="1" data-original="#ff2b63"></path><path fill="#e5235f" d="M232 136a400.794 400.794 0 0 1-12.28 98.719l106.817 35.606L243.1 20h-28.186A400.011 400.011 0 0 1 232 136z" opacity="1" data-original="#e5235f" class=""></path><path fill="#b3b3b3" d="M208 424h96v48h-96z" opacity="1" data-original="#b3b3b3"></path><path fill="#ffba01" d="M352 456h-32a8 8 0 0 1 0-16h32a8 8 0 0 1 0 16zM192 456h-32a8 8 0 0 1 0-16h32a8 8 0 0 1 0 16z" opacity="1" data-original="#ffba01"></path><g fill="#8726e2"><path d="M428.94 424.019a30.338 30.338 0 0 1-17.133-4.8c-16.3-10.756-15.55-34.359-14.824-57.184.626-19.67 1.274-40.009-9.136-46.79-4.938-3.215-10.742-2.718-19.808-1.641-10.7 1.271-24.009 2.853-36.643-6.675-10.345-7.8-16.775-20.349-19.108-37.3a8 8 0 1 1 15.85-2.182c1.732 12.574 6.069 21.559 12.891 26.7 7.5 5.655 15.666 4.685 25.121 3.561 9.551-1.135 20.38-2.423 30.429 4.123 17.956 11.7 17.163 36.61 16.4 60.7-.586 18.432-1.194 37.491 7.644 43.322 6.966 4.595 21.11 1.621 39.823-8.379a8 8 0 1 1 7.541 14.112c-15.52 8.304-28.453 12.433-39.047 12.433zM326.816 62.547a42.048 42.048 0 0 1-17.979-3.834c-7.082-3.3-11.616-7.824-16-12.2-4.43-4.423-8.612-8.6-15.8-11.708C270.557 32 263.59 32 256.213 32h-14.925a8 8 0 0 1-4.478-15.246l.256-.109a7.993 7.993 0 0 1 3.147-.645h16c8.275 0 17.656 0 27.176 4.117 9.984 4.318 15.706 10.031 20.754 15.072 3.713 3.709 6.921 6.912 11.446 9.018 12.509 5.823 31.444.621 56.275-15.462a8 8 0 0 1 8.7 13.43c-21.027 13.616-38.791 20.372-53.748 20.372zM160.219 288a8 8 0 0 1-7.161-4.424l-8-16a8.125 8.125 0 0 1-.358-.831 49.21 49.21 0 0 0-13.725-20.7c-7.35-6.369-14.867-8.5-22.824-10.762-9.04-2.566-18.387-5.22-26-14.064-7.76-9.014-11.1-21.734-9.915-37.806a8 8 0 1 1 15.957 1.174c-.86 11.693 1.188 20.506 6.084 26.193 4.48 5.2 10.554 6.928 18.245 9.112 8.418 2.389 18.894 5.363 28.932 14.062a64.813 64.813 0 0 1 18.113 26.863l7.8 15.605A8 8 0 0 1 160.219 288z" fill="#8726e2" opacity="1" data-original="#8726e2"></path></g><path fill="#48bdff" d="M120 312a23.91 23.91 0 0 0-9.231 1.843 15.981 15.981 0 0 0-25.761-5.449A24 24 0 0 0 41.4 328.07c-.461-.039-.924-.07-1.4-.07a16 16 0 0 0 0 32h80a24 24 0 0 0 0-48z" opacity="1" data-original="#48bdff" class=""></path><path fill="#3ba4f2" d="M126.969 313.031A24.009 24.009 0 0 1 104 344H24a16 16 0 0 0 16 16h80a24 24 0 0 0 6.969-46.969z" opacity="1" data-original="#3ba4f2" class=""></path><path fill="#48bdff" d="M368 120a23.928 23.928 0 0 1 8.844 1.69 23.994 23.994 0 0 1 40.671-10.09A24 24 0 0 1 464 120a24 24 0 0 1 0 48h-96a24 24 0 0 1 0-48z" opacity="1" data-original="#48bdff" class=""></path><path fill="#3ba4f2" d="M470.969 121.031A24.009 24.009 0 0 1 448 152h-96a24.008 24.008 0 0 1-6.969-1.031A24.009 24.009 0 0 0 368 168h96a24 24 0 0 0 6.969-46.969z" opacity="1" data-original="#3ba4f2" class=""></path><rect width="32" height="80" x="288" y="408" fill="#703f16" rx="16" opacity="1" data-original="#703f16"></rect><rect width="32" height="80" x="192" y="408" fill="#703f16" rx="16" opacity="1" data-original="#703f16"></rect><path fill="#fdc47d" d="m325.87 258.343-169.8-169.8a295.335 295.335 0 0 1 87.03-57.078 8 8 0 0 0-6.293-14.711 309.883 309.883 0 0 0-91.991 60.536L85.87 18.343a8 8 0 1 0-11.314 11.314L133.5 88.6a309.9 309.9 0 0 0-60.646 92.26 8 8 0 1 0 14.717 6.28 295.346 295.346 0 0 1 57.18-87.288l169.8 169.8a8 8 0 0 0 11.314-11.314z" opacity="1" data-original="#fdc47d"></path><path fill="#e6e6e6" d="M256 480a8 8 0 0 1-8-8v-46.7L136.41 90.53a8 8 0 0 1 15.18-5.06l111.94 335.823a7.989 7.989 0 0 1 .47 2.686V472a8 8 0 0 1-8 8z" opacity="1" data-original="#e6e6e6"></path></g></svg>