<svg height="512" viewBox="0 0 64 64" width="512" xmlns="http://www.w3.org/2000/svg"><g id="_26-snake" data-name="26-snake"><path d="m52 42a7 7 0 0 1 -7 7h-34a7 7 0 1 1 0-14h34a6.985 6.985 0 0 1 7 7z" fill="#4a8a3e"/><path d="m50.82 38.1c-.76 2.23-3.75 3.9-7.32 3.9-4.14 0-7.5-2.24-7.5-5a3.627 3.627 0 0 1 .62-2h8.38a7.011 7.011 0 0 1 5.82 3.1z" fill="#b95a3a"/><path d="m54 56a6.838 6.838 0 0 1 -1.03 3.64v.01a6.721 6.721 0 0 1 -1.02 1.3 6.958 6.958 0 0 1 -4.95 2.05h-38a6.986 6.986 0 0 1 -6.85-5.56v-.01a6.736 6.736 0 0 1 -.15-1.43 7 7 0 0 1 7-7h38a7 7 0 0 1 7 7z" fill="#4a8a3e"/><path d="m48 49.071v.429c0 2.485-2.462 4.5-5.5 4.5s-5.5-2.015-5.5-4.5v-.5z" fill="#edbf2f"/><path d="m47 59h-38a7 7 0 0 1 -6.706-5 6.994 6.994 0 0 0 6.706 9h38a6.994 6.994 0 0 0 6.706-9 7 7 0 0 1 -6.706 5z" fill="#38682f"/><path d="m52.97 59.64v.01a6.721 6.721 0 0 1 -1.02 1.3 6.958 6.958 0 0 1 -4.95 2.05h-2v-.5a4.5 4.5 0 0 1 7.97-2.86z" fill="#ef8e2e"/><path d="m15 63h-6a6.986 6.986 0 0 1 -6.85-5.56v-.01a8.711 8.711 0 0 1 4.85-1.43c4.42 0 8 3.13 8 7z" fill="#edbf2f"/><path d="m45 45h-34a7 7 0 0 1 -6.706-5 6.994 6.994 0 0 0 6.706 9h34a6.994 6.994 0 0 0 6.706-9 7 7 0 0 1 -6.706 5z" fill="#38682f"/><path d="m23 49v-.5a4.77 4.77 0 0 1 5-4.5 4.77 4.77 0 0 1 5 4.5v.5z" fill="#ef8e2e"/><path d="m23 35a6.184 6.184 0 0 1 -6 6 6.226 6.226 0 0 1 -6.046-6z" fill="#edbf2f"/><path d="m24.04 26.01a34.153 34.153 0 0 1 -.6 6.99c-.13.67-.27 1.34-.44 2l-14 .29c-.19-.75-.35-1.52-.48-2.29a35.663 35.663 0 0 1 -.52-8 34.66 34.66 0 0 1 .79-6.05l.21-.95h14l.21.95a34.376 34.376 0 0 1 .83 7.06z" fill="#4a8a3e"/><path d="m16 31.6a9.818 9.818 0 0 1 -8.026-4.162 35.718 35.718 0 0 0 .546 5.562c.13.77.29 1.54.48 2.29l14-.29c.17-.66.31-1.33.44-2a34.047 34.047 0 0 0 .588-5.562 9.818 9.818 0 0 1 -8.028 4.162z" fill="#38682f"/><path d="m12 29a3.781 3.781 0 0 1 -3.48 4 35.663 35.663 0 0 1 -.52-8 4.191 4.191 0 0 1 4 4z" fill="#edbf2f"/><path d="m24.04 26.01a34.153 34.153 0 0 1 -.6 6.99c-2.46-.03-4.44-1.59-4.44-3.5 0-1.93 2.51-3.5 5-3.5z" fill="#ef8e2e"/><ellipse cx="16" cy="14.5" fill="#fad550" rx="8" ry="7.5"/><path d="m14 16.84v8.16l2-2 2 2v-8.16z" fill="#9f2491"/><ellipse cx="16" cy="9" fill="#4a8a3e" rx="10" ry="8"/><path d="m16 14c-4.881 0-8.94-2.8-9.818-6.5a6.449 6.449 0 0 0 -.182 1.5c0 4.418 4.477 8 10 8s10-3.582 10-8a6.449 6.449 0 0 0 -.182-1.5c-.878 3.7-4.937 6.5-9.818 6.5z" fill="#38682f"/><path d="m49 21.736a1.105 1.105 0 0 0 -2 0c-.1.215-.2.439-.316.7a5.332 5.332 0 0 1 -.051 6.238l-.036.054a1.389 1.389 0 1 0 2.495 1.136l.1-.368a13.388 13.388 0 0 0 .142-7.019c-.12-.277-.229-.516-.334-.741z" fill="#b95a3a"/><path d="m58.93 21.78a3.562 3.562 0 0 1 -.63.14 5.389 5.389 0 0 1 .25.6 4.135 4.135 0 0 1 -6.32 4.62 8.462 8.462 0 0 1 -2.54-3.85c-.29-.67-.49-1.13-.69-1.55a1.1 1.1 0 0 0 -2 0c-.2.42-.4.88-.69 1.55a8.462 8.462 0 0 1 -2.54 3.85 4.135 4.135 0 0 1 -6.32-4.62 5.389 5.389 0 0 1 .25-.6 3.562 3.562 0 0 1 -.63-.14 4.127 4.127 0 0 1 -2.71-5.17 4.174 4.174 0 0 1 4.66-2.8c1.5.17 2.49.32 3.57.48a1.1 1.1 0 0 0 1.04-1.76c-.26-.35-.56-.71-.94-1.18a8.526 8.526 0 0 1 -2.23-4.03 4.189 4.189 0 0 1 1.18-3.46 4.134 4.134 0 0 1 5.84 0 4.839 4.839 0 0 1 .42.5 1.059 1.059 0 0 1 .1-.12 2.8 2.8 0 0 1 .32-.38 4.134 4.134 0 0 1 5.84 0 4.187 4.187 0 0 1 .31 5.43c-.88 1.3-1.58 2.26-2.33 3.29a1.1 1.1 0 0 0 1.05 1.74c1.17-.17 2.26-.34 3.79-.51a4.174 4.174 0 0 1 4.66 2.8 4.127 4.127 0 0 1 -2.71 5.17z" fill="#7ac147"/><path d="m58.93 21.78a3.562 3.562 0 0 1 -.63.14 5.389 5.389 0 0 1 .25.6 4.135 4.135 0 0 1 -6.32 4.62 8.462 8.462 0 0 1 -2.54-3.85c-.29-.67-.49-1.13-.69-1.55a1.1 1.1 0 0 0 -2 0c-.2.42-.4.88-.69 1.55a15.757 15.757 0 0 1 -1.11 2.26 5.059 5.059 0 0 1 -1.43 1.59 4.135 4.135 0 0 1 -6.32-4.62 5.389 5.389 0 0 1 .25-.6 3.562 3.562 0 0 1 -.63-.14 4.127 4.127 0 0 1 -2.71-5.17 4.174 4.174 0 0 1 4.66-2.8c1.5.17 2.49.32 3.57.48a1.1 1.1 0 0 0 1.04-1.76c-.26-.35-.56-.71-.94-1.18a8.526 8.526 0 0 1 -2.23-4.03 4.189 4.189 0 0 1 1.18-3.46 4.134 4.134 0 0 1 5.84 0 4.839 4.839 0 0 1 .42.5 1.059 1.059 0 0 1 .1-.12 2.8 2.8 0 0 1 .32-.38 4.134 4.134 0 0 1 5.84 0 4.187 4.187 0 0 1 .31 5.43c-.88 1.3-1.58 2.26-2.33 3.29a1.1 1.1 0 0 0 1.05 1.74c1.17-.17 2.26-.34 3.79-.51a4.174 4.174 0 0 1 4.66 2.8 4.127 4.127 0 0 1 -2.71 5.17z" fill="#7ac147"/><path d="m58.93 21.78a3.562 3.562 0 0 1 -.63.14 5.389 5.389 0 0 1 .25.6 4.135 4.135 0 0 1 -6.32 4.62 8.462 8.462 0 0 1 -2.54-3.85c-.29-.67-.49-1.13-.69-1.55a1.1 1.1 0 0 0 -1-.64v-16.86a2.8 2.8 0 0 1 .32-.38 4.134 4.134 0 0 1 5.84 0 4.187 4.187 0 0 1 .31 5.43c-.88 1.3-1.58 2.26-2.33 3.29a1.1 1.1 0 0 0 1.05 1.74c1.17-.17 2.26-.34 3.79-.51a4.174 4.174 0 0 1 4.66 2.8 4.127 4.127 0 0 1 -2.71 5.17z" fill="#56b348"/><path d="m13 13a1 1 0 0 1 -1-1v-1a1 1 0 0 1 2 0v1a1 1 0 0 1 -1 1z" fill="#f88522"/><path d="m19 13a1 1 0 0 1 -1-1v-1a1 1 0 0 1 2 0v1a1 1 0 0 1 -1 1z" fill="#f88522"/><path d="m25.646 53.323.842.421a2.431 2.431 0 0 0 1.085.256h.764a2.691 2.691 0 0 1 2.407 1.488 2.431 2.431 0 0 1 .256 1.085 2.428 2.428 0 0 1 -2.427 2.427 13.345 13.345 0 0 1 -4.962-.956l-.358-.143a2.427 2.427 0 0 1 -1.353-3.154 2.723 2.723 0 0 1 3.746-1.424z" fill="#b95a3a"/></g></svg>