<svg xmlns="http://www.w3.org/2000/svg" version="1.1" xmlns:xlink="http://www.w3.org/1999/xlink" width="512" height="512" x="0" y="0" viewBox="0 0 512 512" style="enable-background:new 0 0 512 512" xml:space="preserve" class=""><g><path fill="#fff2e2" d="M472.875 511.995H39.124c-6.694 0-12.12-5.426-12.12-12.12V128.478L256 102.587l228.995 25.891v371.398c0 6.693-5.426 12.119-12.12 12.119z" opacity="1" data-original="#fff2e2" class=""></path><path fill="#7acaa6" d="M484.995 128.478H27.004V49.56c0-6.694 5.426-12.12 12.12-12.12h433.752c6.694 0 12.12 5.426 12.12 12.12v78.918z" opacity="1" data-original="#7acaa6" class=""></path><path fill="#fee8c7" d="M484.996 128.478v371.394c0 6.702-5.426 12.128-12.118 12.128h-20.247c6.692 0 12.118-5.426 12.118-12.128V128.478z" opacity="1" data-original="#fee8c7" class=""></path><path fill="#57be92" d="M484.996 49.565v78.913h-20.247V49.565c0-6.702-5.426-12.128-12.118-12.128h20.247c6.692 0 12.118 5.426 12.118 12.128z" opacity="1" data-original="#57be92"></path><g fill="#fed2a4"><path d="M147.143 323.536a20.19 20.19 0 0 0 12.726-4.508 20.19 20.19 0 0 0 12.726 4.508c11.192 0 20.297-9.106 20.297-20.297V286.06a7.57 7.57 0 1 0-15.142 0v17.178a5.162 5.162 0 0 1-5.155 5.156 5.162 5.162 0 0 1-5.156-5.156v-10.532a7.57 7.57 0 1 0-15.142 0v10.532c0 2.843-2.313 5.156-5.156 5.156s-5.156-2.313-5.156-5.156V286.06a7.57 7.57 0 1 0-15.142 0v17.178c.003 11.192 9.108 20.298 20.3 20.298zM144.842 269.421a7.59 7.59 0 0 0 2.083-.293l30.048-8.581a7.571 7.571 0 0 0-4.158-14.56l-30.048 8.581a7.571 7.571 0 0 0 2.075 14.853zM233.602 276.186c.688 0 1.388-.095 2.083-.293l30.048-8.58a7.57 7.57 0 1 0-4.158-14.56l-30.048 8.58a7.57 7.57 0 0 0-5.201 9.359 7.575 7.575 0 0 0 7.276 5.494zM291.12 222.782c3.777.67 8.095 1.033 11.914 1.033 16.809 0 29.387-6.885 34.071-18.869 2.625-6.717 1.865-14.174-2.035-19.946-3.717-5.502-9.754-8.697-16.564-8.765l-.186-.001c-9.345 0-17.99 6.912-20.156 16.149-1.266 5.404-.374 11.117 2.51 16.23a49.67 49.67 0 0 1-.968-.054c-2.243-.15-4.186-.375-5.941-.686a7.572 7.572 0 0 0-2.645 14.909zm21.786-26.943c.55-2.346 3.123-4.464 5.413-4.464l.035.001c4.296.018 6.059 4.447 4.647 8.057-1.004 2.568-2.801 4.437-4.982 5.792-1.506-.763-2.876-2.011-3.863-3.561-1.215-1.907-1.671-4.031-1.25-5.825zM369.654 226.071c11.819 0 21.434-9.615 21.434-21.434s-9.615-21.434-21.434-21.434-21.434 9.615-21.434 21.434 9.615 21.434 21.434 21.434zm0-27.726c3.469 0 6.292 2.822 6.292 6.292s-2.823 6.292-6.292 6.292-6.292-2.822-6.292-6.292 2.822-6.292 6.292-6.292zM405.022 282.246a7.57 7.57 0 0 0-7.571 7.571v101.084a7.57 7.57 0 1 0 15.142 0V289.817a7.57 7.57 0 0 0-7.571-7.571zM373.058 384.687a70302.448 70302.448 0 0 0-20.305-14.26V244.03a7.57 7.57 0 1 0-15.142 0v126.577c-6.47 4.902-12.96 9.732-14.307 10.583-18.463 10.171-40.838-20.336-52.867-36.734a423.456 423.456 0 0 0-4.17-5.623c-5.229-6.876-11.01-10.692-17.183-11.341-5.566-.58-11.007 1.371-16.168 5.817a7.571 7.571 0 0 0-.797 10.677 7.569 7.569 0 0 0 10.677.795c1.287-1.107 3.15-2.391 4.702-2.231 4.473.461 8.28 7.524 10.729 10.862 6.489 8.845 15.143 20.626 25.302 29.926h-48.345c-5.155-9.974-13.864-18.16-22.646-23.083a7.571 7.571 0 0 0-7.404 13.208c10.455 5.86 20.072 16.431 19.6 29.083-.386 10.355-7.034 21.812-17.348 29.902-13.233 10.379-29.402 10.126-38.538 4.513-7.444-4.575-12.516-11.991-14.281-20.884a7.571 7.571 0 0 0-14.852 2.948c2.558 12.888 10.287 24.127 21.206 30.836 6.705 4.121 14.594 6.134 22.729 6.134 11.41 0 23.302-3.963 33.081-11.633 13.931-10.925 22.579-26.346 23.134-41.252a36.331 36.331 0 0 0-.133-4.629s75.287-.018 75.56-.048c6.184.027 11.382-1.787 15.456-4.057 1.637-.912 8.163-5.764 14.609-10.64l18.996 13.342a7.535 7.535 0 0 0 4.345 1.376 7.56 7.56 0 0 0 6.202-3.221 7.569 7.569 0 0 0-1.842-10.546zM143.58 394.711a11.719 11.719 0 0 0-.334-11.922c-18.563-29.487-23.187-33.162-24.706-34.368-1.682-1.338-4.813-3.827-9.069-4.341-5.735-.68-11.499 2.443-14.676 7.988-2.232 3.897-2.768 7.991-3.197 11.28a7.572 7.572 0 0 0 15.013 1.964c.284-2.172.578-4.417 1.322-5.717.031-.053.063-.103.096-.149.418.294.882.662 1.086.825 1.435 1.169 6.783 7.848 17.979 25.328l-28.941-.079c-.102.005-.227.002-.342.007l-.155.007a24.004 24.004 0 0 0-22.981 24.024v46.768a7.57 7.57 0 1 0 15.142 0v-46.768a8.888 8.888 0 0 1 8.467-8.896l35.006.096h.032a11.73 11.73 0 0 0 10.258-6.047zM435.822 242.475c-2.96-7.065-9.789-11.468-17.823-11.49h-.054c-6.916 0-13.376 3.811-17.288 10.202-2.328 3.802-3.538 8.055-3.6 12.219-5.596-1.42-16.168-3.061-22.551 5.111a7.572 7.572 0 0 0 11.934 9.32c.116-.149 1.344-1.387 8.728.753 9.981 2.893 20.622 5.176 30.399.126a22.524 22.524 0 0 0 5.768-4.271c5.824-5.954 7.585-14.578 4.487-21.97zm-15.31 11.38a7.39 7.39 0 0 1-1.892 1.407c-1.791.925-3.783 1.444-5.669 1.483-.742-.216-.757-2.893-.725-3.439.087-1.482.573-2.949 1.346-4.213.915-1.496 2.392-2.844 4.221-2.967 4.57-.31 5.442 4.946 2.719 7.729z" fill="#858585" opacity="1" data-original="#fed2a4" class=""></path></g><path fill="#7a6d79" d="M109.127 67.974a7.593 7.593 0 0 1-7.593-7.593V7.593a7.593 7.593 0 1 1 15.186 0v52.789c0 4.193-3.4 7.592-7.593 7.592zM402.873 67.974a7.593 7.593 0 0 1-7.593-7.593V7.593a7.593 7.593 0 1 1 15.186 0v52.789c0 4.193-3.4 7.592-7.593 7.592z" opacity="1" data-original="#7a6d79" class=""></path></g></svg>