<svg xmlns="http://www.w3.org/2000/svg" version="1.1" xmlns:xlink="http://www.w3.org/1999/xlink" width="512" height="512" x="0" y="0" viewBox="0 0 510 510" style="enable-background:new 0 0 512 512" xml:space="preserve" class=""><g><path d="M31.531 163.332h446.937v183.337H31.531z" style="stroke-width: 10;" fill="#fdcb50" data-original="#fdcb50" class="" stroke-width="10"></path><path d="M246.83 346.67H31.53V163.33h66.08c-2.59 9.88-3.95 20.09-3.95 30.54 0 72.03 64.52 132.92 153.17 152.8z" style="stroke-width: 10;" fill="#fd8f01" data-original="#fd8f01" class="" stroke-width="10"></path><path d="M206.892 86.942 255 116.82l48.108-29.878V10h-96.216z" style="stroke-width: 10;" fill="#6864f7" data-original="#6864f7" stroke-width="10" class=""></path><path d="m51.627 116.82 48.108-20.993 48.108 20.993V10H51.627zM362.157 10v106.82l48.108-20.993 48.108 20.993V10z" style="stroke-width: 10;" fill="#fd6050" data-original="#fd6050" stroke-width="10" class=""></path><path d="m147.843 500-48.108-20.993L51.627 500V393.18h96.216zM458.373 500l-48.108-20.993L362.157 500V393.18h96.216z" style="stroke-width: 10;" fill="#6864f7" data-original="#6864f7" stroke-width="10" class=""></path><path d="M303.108 470.122 255 500l-48.108-29.878V393.18h96.216z" style="stroke-width: 10;" fill="#fd6050" data-original="#fd6050" stroke-width="10" class=""></path><path d="M147.843 116.82 99.735 95.827 51.627 116.82V10h96.216zM458.373 116.82l-48.108-20.993-48.108 20.993V10h96.216zM303.108 86.942 255 116.82l-48.108-29.878V10h96.216zM31.531 10h446.938M147.843 500l-48.108-20.993L51.627 500V393.18h96.216zM458.373 500l-48.108-20.993L362.157 500V393.18h96.216zM303.108 470.122 255 500l-48.108-29.878V393.18h96.216zM31.531 393.18h446.938" style="stroke-width: 10; stroke-linecap: round; stroke-linejoin: round; stroke-miterlimit: 10;" fill="none" stroke="#052a75" stroke-width="10" stroke-linecap="round" stroke-linejoin="round" stroke-miterlimit="10" data-original="#052a75" class=""></path><path d="m289.582 292.665 28.286-74.269c.578-1.413 2.579-1.415 3.159-.003l28.029 74.272M298.404 274.168h41.974M380.14 217.335v75.266c.833.143 26.378 0 26.378 0M154.629 217.335v75.33M438.336 217.335v75.33M71.664 219.639v71.838M121.888 256.114c0 20.142-11.179 36.08-28.915 36.39-5.904.103-21.161.161-21.161.161s-.095-26.478-.095-36.631c0-8.339-.053-36.47-.053-36.47h20.704c19.453 0 29.52 16.408 29.52 36.55zM189.363 217.335l14.677 74.198c.54 1.519 2.693 1.504 3.212-.022l22.917-74.038M230.169 217.335l22.858 74.198c.54 1.519 2.693 1.504 3.212-.022l14.735-74.038" style="stroke-width: 10; stroke-linecap: round; stroke-linejoin: round; stroke-miterlimit: 10;" fill="none" stroke="#ffffff" stroke-width="10" stroke-linecap="round" stroke-linejoin="round" stroke-miterlimit="10" data-original="#ffffff" class=""></path><path d="M31.531 163.332h446.937v183.337H31.531z" style="stroke-width: 10; stroke-linecap: round; stroke-linejoin: round; stroke-miterlimit: 10;" fill="none" stroke="#052a75" stroke-width="10" stroke-linecap="round" stroke-linejoin="round" stroke-miterlimit="10" data-original="#052a75" class=""></path></g></svg>