<svg xmlns="http://www.w3.org/2000/svg" version="1.1" xmlns:xlink="http://www.w3.org/1999/xlink" width="512" height="512" x="0" y="0" viewBox="0 0 512 512" style="enable-background:new 0 0 512 512" xml:space="preserve" class=""><g transform="matrix(-1,0,0,1,512,0)"><path d="M365.512 53.941C357.501 26.704 332.504 8 304.113 8H191.887c-28.391 0-53.388 18.704-61.399 45.941L104 144h288l-26.488-90.059z" style="stroke-width: 12;" fill="#fddcb3" data-original="#fddcb3" stroke-width="12" class=""></path><path d="M365.512 53.941C357.501 26.704 332.504 8 304.113 8H200c0 13.255 10.745 24 24 24h80.113c17.745 0 33.369 11.691 38.376 28.715l11.543 39.247c2.76 9.383 10.971 16.109 20.7 17.108 3.316.34 6.534.695 9.659 1.064l-18.879-64.193z" style="stroke-width: 12;" fill="#ffffff" data-original="#ffffff" stroke-width="12" class=""></path><path d="M256 136c-114.875 0-208 14.327-208 32 0 9.559 27.244 18.139 70.438 24.003l1.562.001v36.434c-9.525 5.543-16 15.748-16 27.562 0 17.673 14.327 32 32 32h9.261c1.985 16.864 7.181 32.692 14.739 47.081v44.115l-26.508 26.316a24.001 24.001 0 0 0-6.765 13.087l-4.736 28.417a15.999 15.999 0 0 0 8.97 17.107l81.501 38.354a15.999 15.999 0 0 0 19.423-4.63L256 466.964l19.186 24.57c5.206 6.667 14.706 8.134 21.677 3.342l35.633-24.493a15.999 15.999 0 0 0 5.648-19.475l-20.842-49.379C360.797 386.152 392 344.761 392 296V192.212c44.098-5.868 72-14.539 72-24.212 0-17.673-93.125-32-208-32z" style="stroke-width: 12;" fill="#e39b77" data-original="#e39b77" stroke-width="12" class=""></path><path d="m126.728 418.599-4.736 28.417a15.999 15.999 0 0 0 8.97 17.107l81.501 38.354a15.999 15.999 0 0 0 19.423-4.63L256 466.964l-126.976-55.306a23.975 23.975 0 0 0-2.296 6.941zM326.182 422.928 256 466.964l19.186 24.57c5.206 6.667 14.706 8.134 21.677 3.342l35.633-24.493a15.999 15.999 0 0 0 5.648-19.475l-11.962-27.98zM317.884 403.521 296 408.371v33.448l30.182-18.891z" style="stroke-width: 12;" fill="#fddcb3" data-original="#fddcb3" stroke-width="12" class=""></path><path d="m276.018 454.404 27.749 35.727 28.729-19.748a15.999 15.999 0 0 0 5.648-19.475l-11.962-27.98-50.164 31.476z" style="stroke-width: 12;" fill="#ffffff" data-original="#ffffff" stroke-width="12" class=""></path><path d="M377.826 174.071C343.587 170.254 301.516 168 256 168c-16.531 0-32.588.306-48 .867-27.021.985-52.02 2.772-73.822 5.203-8.103.903-14.178 7.76-14.178 15.913v38.455c-10.922 6.356-17.834 18.841-15.571 32.854C106.959 276.964 121.345 288 137.22 288h8.041A135.716 135.716 0 0 0 160 335.463v89.687l56.216 24.486c1.126-14.293 14.508-24.755 28.768-21.534A158.78 158.78 0 0 0 280 432c5.422 0 10.742-.407 16-1.027v-22.602S270.859 408 280 408l.031-.001C237.18 385.107 208 339.977 208 288v-55.947c0-21.988 17.725-39.877 39.713-40.025 2.755-.019 5.517-.028 8.287-.028 48.883 0 96.059 2.695 132.836 7.586 1.063.139 2.12.208 3.164.209v-9.812c0-8.151-6.074-15.009-14.174-15.912z" style="stroke-width: 12;" fill="#945f6a" data-original="#945f6a" stroke-width="12" class=""></path><path d="M176 192c-8.837 0-16 7.163-16 16v16h-8v16c0 8.837 7.163 16 16 16s16-7.163 16-16v-48h-8z" style="stroke-width: 12;" fill="#e39b77" data-original="#e39b77" stroke-width="12" class=""></path><path d="M272 256h-48a8 8 0 0 1-8-8v-24h56a8 8 0 0 1 8 8v16a8 8 0 0 1-8 8zM319.483 256h41.033a7.483 7.483 0 0 0 7.483-7.483V224h-48.517a7.483 7.483 0 0 0-7.483 7.483v17.033a7.484 7.484 0 0 0 7.484 7.484z" style="stroke-width: 12;" fill="#fddcb3" data-original="#fddcb3" stroke-width="12" class=""></path><path d="M360.517 256a7.483 7.483 0 0 0 7.483-7.483V224h-24v32h16.517zM272.517 256a7.483 7.483 0 0 0 7.483-7.483V232a8 8 0 0 0-8-8h-16v32h16.517z" style="stroke-width: 12;" fill="#ffffff" data-original="#ffffff" stroke-width="12" class=""></path><path d="M118.438 192.003C75.244 186.139 48 177.559 48 168c0-17.673 93.125-32 208-32s208 14.327 208 32c0 9.674-27.902 18.345-72 24.213" style="stroke-width: 12; stroke-linecap: round; stroke-linejoin: round; stroke-miterlimit: 10;" fill="none" stroke="#433450" stroke-width="12" stroke-linecap="round" stroke-linejoin="round" stroke-miterlimit="10" data-original="#433450" class=""></path><path d="M144.404 280C148.567 351.366 207.59 408 280 408h0c61.856 0 112-50.144 112-112V189.983c0-8.151-6.074-15.009-14.174-15.912C343.586 170.254 301.515 168 256 168s-87.586 2.254-121.826 6.071c-8.101.903-14.174 7.761-14.174 15.912v34.642" style="stroke-width: 12; stroke-linecap: round; stroke-linejoin: round; stroke-miterlimit: 10;" fill="none" stroke="#433450" stroke-width="12" stroke-linecap="round" stroke-linejoin="round" stroke-miterlimit="10" data-original="#433450" class=""></path><path d="M144.404 288H136c-17.673 0-32-14.327-32-32v0c0-17.673 14.327-32 32-32h0c8.837 0 16 7.163 16 16v0c0 8.837 7.163 16 16 16h0c8.837 0 16-7.163 16-16v-66.633M392 144l-26.488-90.059C357.501 26.704 332.504 8 304.113 8H191.887c-28.391 0-53.388 18.704-61.399 45.941L104 144M272 256h-48a8 8 0 0 1-8-8v-24h56a8 8 0 0 1 8 8v16a8 8 0 0 1-8 8zM360.517 256h-41.033a7.483 7.483 0 0 1-7.483-7.483v-17.033a7.483 7.483 0 0 1 7.483-7.483H368v24.517a7.482 7.482 0 0 1-7.483 7.482zM136 224h80M368 224h24M280 248c0-8.837 7.163-16 16-16s16 7.163 16 16M160 336.48v84.923M296 408.371v30.842M324.4 424.046 256 466.964 131.369 412.68" style="stroke-width: 12; stroke-linecap: round; stroke-linejoin: round; stroke-miterlimit: 10;" fill="none" stroke="#433450" stroke-width="12" stroke-linecap="round" stroke-linejoin="round" stroke-miterlimit="10" data-original="#433450" class=""></path><path d="m160 379.195-26.508 26.316a23.998 23.998 0 0 0-6.765 13.087l-4.736 28.416a16 16 0 0 0 8.97 17.108l81.501 38.353a16 16 0 0 0 19.424-4.63L256 466.964l19.186 24.57c5.206 6.667 14.706 8.133 21.677 3.342l35.633-24.493a15.999 15.999 0 0 0 5.648-19.475l-20.26-47.388M280.356 293.295c3.955 3.731 9.626 6.121 16 6.121s12.045-2.39 16-6.121M259.692 332.495c7.21-1.622 15.344-2.543 23.997-2.543s16.787.921 23.997 2.543M275.693 354.218c2.606-.175 5.275-.266 7.996-.266s5.39.091 7.996.266M212.034 195.955s35.755.504 61.957 12.597M385.991 191.785s-38.972.48-67.532 11.989" style="stroke-width: 12; stroke-linecap: round; stroke-linejoin: round; stroke-miterlimit: 10;" fill="none" stroke="#433450" stroke-width="12" stroke-linecap="round" stroke-linejoin="round" stroke-miterlimit="10" data-original="#433450" class=""></path></g></svg>