<svg id="Capa_1" enable-background="new 0 0 512 512" viewBox="0 0 512 512" xmlns="http://www.w3.org/2000/svg"><g><path d="m407.549 104.282c-14.229-14.23-10.369-52.569-27.903-62.714-17.285-10.001-48.515 12.404-68.258 7.126-19.081-5.1-34.873-40.269-55.562-40.269s-36.481 35.169-55.562 40.27c-19.742 5.276-50.97-17.129-68.255-7.128-17.532 10.144-13.672 48.483-27.901 62.711-14.23 14.229-52.569 10.369-62.714 27.902-10.001 17.286 12.404 48.515 7.126 68.258-5.098 19.082-40.268 34.873-40.268 55.562s35.169 36.481 40.27 55.562c5.277 19.742-17.129 50.97-7.128 68.255 10.144 17.532 48.482 13.672 62.711 27.901 4.52 4.521 7.209 11.475 9.344 19.184 197.695 111.051 415.324-150.885 313.28-313.277-7.559-2.118-14.734-4.896-19.18-9.343z" fill="#f95d83"/><path d="m463.132 200.438c-5.277-19.742 17.129-50.97 7.128-68.255-6.922-11.965-26.969-13.971-43.53-18.558 8.242 24.669 12.774 51.036 12.774 78.477 0 136.731-110.843 247.574-247.574 247.574-27.442 0-53.81-4.532-78.48-12.775 4.587 16.56 6.594 36.607 18.558 43.529 17.286 10.001 48.515-12.403 68.258-7.126 19.081 5.1 34.873 40.269 55.562 40.269s36.481-35.169 55.562-40.27c19.742-5.277 50.97 17.129 68.255 7.128 17.532-10.144 13.672-48.482 27.901-62.711 14.23-14.229 52.569-10.37 62.714-27.903 10.001-17.285-12.403-48.515-7.126-68.258 5.1-19.081 40.269-34.873 40.269-55.561-.002-20.687-35.171-36.479-40.271-55.56z" fill="#fa427d"/><g><path d="m299.015 284.453c-3.343-8.276-15.413-8.093-18.721.21l-30.181 79.253c-3.844 9.785 11.743 15.796 15.425 5.875l5.491-14.422h37.108l5.433 14.398c3.676 9.968 19.246 3.991 15.441-5.827zm-21.701 54.41 12.353-32.442 12.242 32.442z" fill="#fddd78"/><path d="m145.829 242.602c4.561 0 8.252-3.695 8.252-8.252v-53.758l39.215 56.784c2.498 3.602 6.665 5.13 10.533 3.917 3.997-1.253 6.576-5.041 6.576-9.731l-.749-77.673c-.04-4.553-3.828-8.039-8.333-8.172-4.553.044-8.212 3.776-8.172 8.333l.532 54.842-41.061-59.464c-4.427-6.553-15.125-3.138-15.046 4.69v80.232c0 4.557 3.691 8.252 8.253 8.252z" fill="#fff"/><path d="m236.63 242.235h33.566c10.562.091 10.562-16.596 0-16.505h-25.314v-23.319h22.839c10.562.091 10.562-16.596 0-16.505h-22.839v-23.319h25.314c10.562.091 10.562-16.596 0-16.505h-33.566c-4.561 0-8.252 3.695-8.252 8.252v79.648c0 4.558 3.691 8.253 8.252 8.253z" fill="#fff"/><path d="m232.157 295.086c10.562.091 10.562-16.596 0-16.505h-33.558c-4.561 0-8.252 3.695-8.252 8.252v79.652c0 4.557 3.691 8.252 8.252 8.252h33.558c10.562.091 10.562-16.596 0-16.505h-25.305v-23.319h22.831c10.562.091 10.562-16.596 0-16.505h-22.831v-23.323h25.305z" fill="#fddd78"/><path d="m162.833 282.172-18.56 28.509-18.761-28.727c-5.748-8.987-19.627.305-13.813 9.026l24.324 37.253-.099 38.598c-.008 4.557 3.675 8.261 8.228 8.273s8.269-3.669 8.277-8.232l.099-38.626 24.135-37.073c5.967-9.031-8.262-17.763-13.83-9.001z" fill="#fddd78"/><path d="m304.874 235.929c1.435 4.001 5.238 6.673 9.477 6.673h.097c4.279-.04 8.075-2.792 9.502-7.04l16.577-53.556 16.618 53.923c1.435 4.001 5.238 6.673 9.486 6.673h.073c4.271-.032 8.075-2.768 9.453-6.814.121-.347.21-.697.282-1.056l15.723-79.007c2.195-10.52-14.257-13.451-16.183-3.224l-10.702 53.778-16.86-54.741c-2.322-7.798-13.834-7.235-15.836.347l-16.843 54.391-10.654-53.907c-2.009-10.579-18.294-7.014-16.199 3.199l15.659 79.176c.08.403.193.798.33 1.185z" fill="#fff"/><path d="m375.549 335.933c13.927-2.632 24.47-14.43 24.47-28.573 0-16.07-13.604-29.146-30.326-29.146h-21.389c-4.561 0-8.252 3.695-8.252 8.252v80.385c-.095 10.543 16.599 10.573 16.505 0v-27.511l29.013 32.963c6.933 7.992 19.426-3.037 12.395-10.904zm-18.992-41.213h13.136c18.688 0 18.173 25.277 0 25.277-3.03 0-8.502.024-13.136.048z" fill="#fddd78"/></g><path d="m86.099 61.601c44.527 8.942 65.702-8.23 57.854-57.854-3.147 1.463-6.529 3.332-10.039 5.606-6.212 4.023-14.043 4.023-20.255 0-13.16-8.525-24.397-11.668-29.01-7.055s-1.471 15.85 7.054 29.01c4.024 6.212 4.024 14.044 0 20.255-2.272 3.51-4.141 6.892-5.604 10.038z" fill="#b5e87a"/><path d="m483.766 17.36c-2.99-10.402-7.859-17.187-13.375-17.187s-10.385 6.785-13.375 17.187c-1.475 5.131-5.57 9.225-10.7 10.7-10.402 2.99-17.187 7.858-17.187 13.375 0 5.516 6.785 10.385 17.187 13.375 1.914.55 3.684 1.465 5.227 2.662 27.229 3.209 39.665-7.621 35.212-34.479-1.358-1.635-2.39-3.548-2.989-5.633z" fill="#79d4ec"/><path d="m155.87 31.308c8.525-13.16 11.667-24.397 7.054-29.01-3.379-3.379-10.331-2.562-18.971 1.449-.765 31.631-26.224 57.089-57.854 57.854-4.011 8.64-4.828 15.593-1.449 18.972 4.612 4.613 15.849 1.471 29.01-7.054 6.212-4.024 14.043-4.024 20.255 0 13.16 8.525 24.397 11.667 29.01 7.054 4.613-4.612 1.471-15.85-7.054-29.01-4.025-6.211-4.025-14.044-.001-20.255z" fill="#95d87c"/><path d="m494.466 28.061c-3.047-.876-5.728-2.674-7.712-5.067-2.582 18.225-16.85 32.329-35.212 34.479 2.638 2.017 4.538 4.785 5.473 8.038 2.99 10.402 7.859 17.187 13.375 17.187s10.385-6.785 13.375-17.187c1.475-5.131 5.57-9.226 10.7-10.7 10.402-2.99 17.187-7.859 17.187-13.375.001-5.517-6.783-10.385-17.186-13.375z" fill="#4ec0ec"/><g><path d="m350.178 490.73c44.527 8.942 65.702-8.23 57.854-57.854-3.147 1.463-6.529 3.332-10.039 5.606-6.212 4.023-14.043 4.023-20.255 0-13.16-8.525-24.397-11.667-29.01-7.055-4.613 4.613-1.471 15.85 7.054 29.01 4.024 6.212 4.024 14.044 0 20.255-2.272 3.509-4.142 6.891-5.604 10.038z" fill="#fddd78"/><path d="m419.949 460.436c8.525-13.16 11.667-24.397 7.054-29.01-3.379-3.379-10.331-2.562-18.971 1.449-.765 31.631-26.224 57.089-57.854 57.854-4.011 8.64-4.828 15.593-1.449 18.972 4.612 4.613 15.849 1.471 29.01-7.054 6.212-4.024 14.043-4.024 20.255 0 13.16 8.525 24.397 11.667 29.01 7.054 4.613-4.612 1.471-15.85-7.054-29.01-4.025-6.211-4.025-14.043-.001-20.255z" fill="#fccd5d"/></g><path d="m54.637 446.489c-2.99-10.402-7.859-17.187-13.375-17.187s-10.385 6.785-13.375 17.187c-1.475 5.131-5.57 9.225-10.7 10.7-10.402 2.99-17.187 7.858-17.187 13.375 0 5.516 6.785 10.385 17.187 13.375 1.914.55 3.684 1.465 5.227 2.662 27.229 3.209 39.665-7.621 35.212-34.479-1.358-1.635-2.389-3.549-2.989-5.633z" fill="#c7acef"/><path d="m65.338 457.189c-3.047-.876-5.728-2.674-7.712-5.067-2.582 18.225-16.85 32.329-35.212 34.479 2.638 2.017 4.538 4.785 5.473 8.038 2.99 10.402 7.859 17.187 13.375 17.187s10.385-6.785 13.375-17.187c1.475-5.131 5.57-9.226 10.7-10.7 10.402-2.99 17.187-7.859 17.187-13.375.001-5.517-6.784-10.385-17.186-13.375z" fill="#b594e5"/><g><path d="m496.039 416.819c-3.651-3.651-9.572-3.651-13.223 0l-13.223 13.223c-3.651 3.651-3.651 9.571 0 13.223l6.552 6.551c17.89 3.199 33.799-14.854 21.452-31.439z" fill="#b5e87a"/><path d="m509.262 430.042-11.665-11.665c2.048 13.93-7.979 27.995-21.452 31.439l6.671 6.671c3.651 3.652 9.572 3.652 13.223 0l13.223-13.222c3.651-3.652 3.651-9.572 0-13.223z" fill="#95d87c"/></g><g><path d="m32.89 54.347c-3.243-3.243-8.501-3.243-11.744 0l-11.743 11.743c-3.243 3.243-3.243 8.5 0 11.744l5.819 5.818c15.888 2.841 30.017-13.192 19.052-27.921z" fill="#79d4ec"/><path d="m44.634 66.09-10.36-10.36c1.819 12.371-7.086 24.863-19.052 27.921l5.925 5.925c3.243 3.243 8.501 3.243 11.744 0l11.744-11.743c3.241-3.242 3.241-8.5-.001-11.743z" fill="#4ec0ec"/></g></g><g/><g/><g/><g/><g/><g/><g/><g/><g/><g/><g/><g/><g/><g/><g/></svg>