<svg id="Capa_1" enable-background="new 0 0 512 512" height="512" viewBox="0 0 512 512" width="512" xmlns="http://www.w3.org/2000/svg"><g><g><path d="m337.504 378.851h-165.207c-48.739 0-88.25 39.511-88.25 88.25v14.705c0 2.299 1.864 4.163 4.163 4.163h333.382c2.299 0 4.163-1.864 4.163-4.163v-14.705c-.001-48.739-39.512-88.25-88.251-88.25z" fill="#c9beb9"/></g><g><path d="m337.579 378.851h-43.839c48.698 0 88.175 39.477 88.175 88.175v18.944h39.679c2.297 0 4.159-1.862 4.159-4.159v-14.784c.001-48.698-39.476-88.176-88.174-88.176z" fill="#9e9595"/></g><g><g><path d="m120.923 289.476h29.974v196.494h-29.974z" fill="#766e6e"/></g></g><g><g><path d="m135.91 289.476h14.987v196.494h-14.987z" fill="#5b5353"/></g></g><g><path d="m481.711 289.476h-451.421c-8.451 0-15.302-6.851-15.302-15.302v-217.855c0-8.451 6.851-15.302 15.302-15.302h451.421c8.451 0 15.302 6.851 15.302 15.302v217.855c0 8.451-6.851 15.302-15.302 15.302z" fill="#da4a54"/></g><g><path d="m481.724 41.017h-49.386v175.495c0 8.444-6.845 15.289-15.289 15.289h-402.061v42.386c0 8.444 6.845 15.289 15.289 15.289h451.447c8.444 0 15.289-6.845 15.289-15.289v-217.881c0-8.444-6.845-15.289-15.289-15.289z" fill="#d82e3d"/></g><g><g><path d="m481.724 304.463h-451.447c-16.695 0-30.277-13.582-30.277-30.275v-217.882c0-16.694 13.582-30.276 30.277-30.276h451.447c16.694 0 30.276 13.582 30.276 30.276v217.882c0 16.693-13.582 30.275-30.276 30.275zm-451.447-248.459c-.167 0-.302.136-.302.302v217.882c0 .166.136.301.302.301h451.447c.166 0 .302-.136.302-.301v-217.882c0-.166-.136-.302-.302-.302z" fill="#766e6e"/></g></g><g><g><path d="m492.775 28.128c1.349 3.426 2.098 7.152 2.098 11.051v231.45c0 9.227-7.48 16.708-16.708 16.708h-465.015c-3.9 0-7.626-.749-11.052-2.098 4.425 11.243 15.384 19.225 28.179 19.225h451.447c16.721 0 30.276-13.555 30.276-30.276v-217.882c0-12.795-7.982-23.753-19.225-28.178z" fill="#5b5353"/></g></g><g><path d="m284.277 399.764h-58.752c-7.541 0-13.655-6.113-13.655-13.655v-47.889h86.062v47.889c0 7.541-6.114 13.655-13.655 13.655z" fill="#ffcbbe"/></g><g><path d="m275.74 338.22v47.9c0 7.535-6.108 13.643-13.643 13.643h22.191c7.535 0 13.643-6.108 13.643-13.643v-47.9z" fill="#ffa68d"/></g><g><g><path d="m288.123 192.312h-66.444c-17.673 0-32 14.327-32 32v45.945h130.444v-45.945c0-17.673-14.327-32-32-32z" fill="#ffe541"/></g><g><path d="m288.15 192.312h-16.082c16.474 0 29.828 13.354 29.828 29.828v48.116h18.227v-45.972c0-17.657-14.315-31.972-31.973-31.972z" fill="#ffc50d"/></g><g><path d="m331.133 268.021c-4.868-1.583-8.313.387-11.01 4.175v-4.625c0-20.04-16.246-36.286-36.286-36.286h-57.872c-20.04 0-36.286 16.246-36.286 36.286v4.625c-2.697-3.787-6.142-5.758-11.01-4.175-10.189 3.313-15.299 15.682-11.415 27.627 3.363 10.342 13.606 20.782 22.907 21.25 3.863 32.335 31.365 57.409 64.74 57.409 33.375 0 60.877-25.074 64.74-57.409 9.301-.468 19.544-10.908 22.907-21.25 3.884-11.944-1.227-24.314-11.415-27.627z" fill="#ffcbbe"/></g><g><g><circle cx="224.335" cy="283.218" fill="#873e2f" r="8.979"/></g><g><circle cx="285.466" cy="283.218" fill="#873e2f" r="8.979"/></g></g><g><path d="m267.228 331.235h-26.977c-4.139 0-7.494-3.355-7.494-7.494s3.355-7.494 7.494-7.494h26.977c4.139 0 7.494 3.355 7.494 7.494s-3.355 7.494-7.494 7.494z" fill="#da4a54"/></g></g><g><path d="m331.133 268.021c-4.868-1.583-8.313.387-11.01 4.175v-4.625c0-16.379-10.855-30.219-25.761-34.73 1.008 3.332 1.556 6.864 1.556 10.525v41.515c0 36.021-29.201 65.222-65.222 65.222-11.795 0-22.848-3.147-32.394-8.623 11.247 19.609 32.373 32.828 56.6 32.828 33.375 0 60.877-25.074 64.74-57.409 9.301-.468 19.544-10.908 22.907-21.25 3.883-11.945-1.228-24.315-11.416-27.628z" fill="#ffa68d"/></g><g fill="#eedfda"><path d="m164.964 99.255c-.026 0-.051 0-.076 0-4.244.041-7.651 3.515-7.61 7.758l.231 23.819-19.453-28.17c-1.91-2.767-5.397-3.968-8.61-2.97-3.21 1.001-5.397 3.973-5.397 7.336v47.972c0 4.244 3.44 7.684 7.684 7.684s7.684-3.44 7.684-7.684v-23.322l18.429 26.687c2.19 3.167 5.872 4.509 9.381 3.412 3.566-1.113 5.869-4.408 5.869-8.47l-.449-46.441c-.042-4.221-3.474-7.611-7.683-7.611z"/><path d="m392.57 130.03 18.307-16.828c3.125-2.871 3.33-7.733.457-10.857-2.87-3.126-7.733-3.329-10.857-.457l-12.97 11.922v-6.871c0-4.244-3.44-7.684-7.684-7.684s-7.684 3.44-7.684 7.684v48.061c0 4.244 3.44 7.684 7.684 7.684s7.684-3.44 7.684-7.684v-8.5l14.541 14.029c1.491 1.439 3.414 2.154 5.334 2.154 2.013 0 4.023-.786 5.531-2.349 2.947-3.054 2.859-7.918-.195-10.865z"/><path d="m355.504 99.255c-4.244 0-7.684 3.44-7.684 7.684v48.061c0 4.244 3.44 7.684 7.684 7.684s7.684-3.44 7.684-7.684v-48.061c0-4.244-3.439-7.684-7.684-7.684z"/><path d="m451.127 147.316h-12.382v-8.443h10.903c4.244 0 7.684-3.44 7.684-7.684s-3.44-7.684-7.684-7.684h-10.903v-8.442h12.382c4.244 0 7.684-3.44 7.684-7.684s-3.44-7.684-7.684-7.684h-20.066c-4.244 0-7.684 3.44-7.684 7.684v47.621c0 4.244 3.44 7.684 7.684 7.684h20.066c4.244 0 7.684-3.44 7.684-7.684 0-4.245-3.44-7.684-7.684-7.684z"/><path d="m228.572 124.14c-5.603-2.067-10.841-4.312-12.75-5.145-.456-.459-.495-1.031-.433-1.461.161-1.12 1.126-2.024 2.646-2.482 5.869-1.769 11.477 2.589 11.685 2.752 3.249 2.683 8.059 2.251 10.775-.981 2.73-3.249 2.311-8.096-.937-10.827-4.385-3.686-14.788-9.025-25.954-5.661-7.266 2.189-12.41 7.942-13.426 15.015-.958 6.676 1.937 13.1 7.558 16.764.339.222.695.416 1.066.581.28.125 6.948 3.093 14.452 5.861 2.625.969 5.571 2.774 5.232 4.675-.294 1.647-2.641 4.083-6.745 4.083-4.312 0-8.443-1.72-11.053-4.599-2.849-3.147-7.709-3.384-10.854-.536-3.146 2.849-3.385 7.709-.536 10.854 5.556 6.133 13.736 9.65 22.443 9.65 10.942 0 20.141-7.044 21.874-16.75 1.314-7.368-1.946-16.963-15.043-21.793z"/><path d="m282.727 99.255h-26.542c-4.244 0-7.684 3.44-7.684 7.684s3.44 7.684 7.684 7.684h5.533v40.377c0 4.244 3.44 7.684 7.684 7.684s7.684-3.44 7.684-7.684v-40.377h5.641c4.244 0 7.684-3.44 7.684-7.684s-3.44-7.684-7.684-7.684z"/><path d="m339.488 119.429c0-11.124-9.368-20.174-20.882-20.174h-12.772c-.003 0-.005 0-.008 0s-.005 0-.008 0c-4.244 0-7.684 3.44-7.684 7.684v48.061c0 4.244 3.44 7.684 7.684 7.684s7.684-3.44 7.684-7.684v-9.163l12.532 14.239c1.519 1.726 3.64 2.607 5.771 2.607 1.803 0 3.614-.631 5.074-1.916 3.186-2.803 3.495-7.659.691-10.845l-10.586-12.028c7.352-3.125 12.504-10.221 12.504-18.465zm-20.882-4.806c2.938 0 5.514 2.246 5.514 4.806s-2.576 4.806-5.514 4.806c-1.22 0-3.098.006-5.041.015-.009-1.867-.019-7.663-.024-9.628h5.065z"/><path d="m83.404 99.255c-17.487 0-31.714 14.227-31.714 31.714s14.227 31.714 31.714 31.714 31.714-14.227 31.714-31.714-14.227-31.714-31.714-31.714zm0 48.061c-9.014 0-16.346-7.333-16.346-16.346s7.333-16.346 16.346-16.346 16.346 7.333 16.346 16.346-7.333 16.346-16.346 16.346z"/></g></g></svg>