<svg id="Layer_1" height="512" viewBox="0 0 512 512" width="512" xmlns="http://www.w3.org/2000/svg" data-name="Layer 1"><path d="m464.2 381.544a6 6 0 0 1 -.361-11.988l8.578-.525a6 6 0 1 1 .732 11.978l-8.577.524c-.121.008-.245.011-.372.011z" fill="#ffdf8f"/><path d="m393.371 443.269h-6.461a6 6 0 0 1 0-12h6.461a6 6 0 0 1 0 12z" fill="#ffdf8f"/><path d="m362.7 476.265q-.286 0-.576-.027l-16.534-1.574a6 6 0 0 1 1.138-11.946l16.533 1.574a6 6 0 0 1 -.561 11.973z" fill="#ffdf8f"/><path d="m425.527 412.449a6 6 0 0 1 -.28-11.993l7.979-.38a6 6 0 0 1 .571 11.986l-7.979.38c-.097.005-.194.007-.291.007z" fill="#ffe3a6"/><path d="m359.482 323.944a6 6 0 0 1 -5.9-7.145l3.119-16.058a6 6 0 1 1 11.779 2.288l-3.118 16.058a6 6 0 0 1 -5.88 4.857z" fill="#ffdf8f"/><path d="m400.27 293.505a6.006 6.006 0 0 1 -5.684-7.926l2.863-8.456a6 6 0 1 1 11.366 3.849l-2.863 8.456a6 6 0 0 1 -5.682 4.077z" fill="#ffdf8f"/><path d="m469.773 301.339a6 6 0 0 1 -3.542-10.847l7.926-5.785a6 6 0 0 1 7.075 9.692l-7.926 5.786a5.983 5.983 0 0 1 -3.533 1.154z" fill="#ffe3a6"/><path d="m437.8 107.42c41.14-15.29 79.1 8.52 38.02 111.03 6-27.57-2.08-50.77-13.36-68.34a134.853 134.853 0 0 0 -36.34-37.22l-.01-.01c1.23-.74 2.49-1.43 3.76-2.05a84.256 84.256 0 0 1 7.92-3.4z" fill="#5fcda4"/><path d="m473.5 295.16v.08c-.73 25.56-15.25 48.25-39.2 53.5-11.23-2.67-23.21-.44-34.84 8.14 13.18-10.55 18.16-24.4 16.91-38.76 4.17-5.94 10.09-13.28 28.35-20.56a69.186 69.186 0 0 1 25.61-4.88 2.365 2.365 0 0 1 2.44.66 2.622 2.622 0 0 1 .73 1.82z" fill="#ffd86c"/><path d="m466.32 372.22c-8.95-12.23-20.07-20.64-32.02-23.48-11.23-2.67-23.21-.44-34.84 8.14l-45.42 34.4c18.55-10.26 42.14-10.36 59.39-.23 4.19 1.35 20.95 5.42 36.72-2.04 7.36-3.48 18.21-14 18.21-14z" fill="#d3b04f"/><path d="m450.54 51.06c8.03 20.14 3.98 34.76-1.6 44.05h-.01c-6.27-22.5-25.85-35.78-48.08-43.56-38.17-13.38-84.18-10.58-84.18-10.58 57.6-43.24 120.25-24.04 133.87 10.09z" fill="#5fcda4"/><path d="m448.93 95.11h.01a40.923 40.923 0 0 1 -11.14 12.31l-.01.01a84.256 84.256 0 0 0 -7.92 3.4c-1.27.62-2.53 1.31-3.76 2.05-17.31 10.4-30.3 31.36-30.3 31.36l-.05-.01a43.9 43.9 0 0 0 .05-18.12c32.68-45.43 5.04-74.56 5.04-74.56 22.23 7.78 41.81 21.06 48.08 43.56z" fill="#4ca987"/><path d="m462.46 150.11s-37.23-25.88-73.79 30.78c-4.68.57-8.75 1.23-11.82 1.79.43-.52 14.97-18.34 18.91-38.45l.05.01s12.99-20.96 30.3-31.36l.01.01a134.853 134.853 0 0 1 36.34 37.22z" fill="#489b79"/><path d="m427.49 403.66 2.04 2.79-2.81 2.26a47.469 47.469 0 0 1 -15.4 11.74c-15.5 7.33-31.06 3.61-35.56 2.2h-.01c-11.07-7.55-24.56-10.12-38.13-7.55a127.1 127.1 0 0 0 7.84-17.33l8.58-6.49c18.55-10.26 42.14-10.36 59.39-.23a46.457 46.457 0 0 1 14.06 12.61z" fill="#ffd86c"/><path d="m376.85 182.68c3.07-.56 7.14-1.22 11.82-1.79 36.2-4.41 108.94-3.39 38.49 93.34 6.61-74.9-44.93-79.99-44.93-79.99l-11.45-10.33v-.01s2.27-.53 6.07-1.22z" fill="#5fcda4"/><path d="m416.37 318.12c-.96-11.06-5.62-22.42-13.08-32.81l-2.02-2.81-2.91 2.13a47.466 47.466 0 0 0 -15.33 11.84c-11.41 13.39-11.61 34.77-11.54 39.35 4.31 15.28 3.7 36.44-19.17 56.44.57-.34 1.14-.67 1.72-.98l45.42-34.4c13.18-10.55 18.16-24.4 16.91-38.76z" fill="#f2d05a"/><path d="m395.81 126.11a43.9 43.9 0 0 1 -.05 18.12c-3.94 20.11-18.48 37.93-18.91 38.45-3.8.69-6.07 1.22-6.07 1.22-1.63-45.96-26.7-63.45-51.11-69.51a107.815 107.815 0 0 0 -27.75-2.87c-1.76-1.72-3.61-3.35-5.45-4.87 30.76-14.05 96.72-36.49 109.34 19.46z" fill="#5fcda4"/><path d="m382.23 194.24-22.91-20.67a4.239 4.239 0 0 0 -6.51 1c-5.77 9.81-20.83 33.09-40.88 46.19a22.262 22.262 0 0 0 -4.3 3.68l.09.08 29.51 26.63a22.347 22.347 0 0 0 3.2-4.67c10.88-21.38 32.37-38.85 41.49-45.63a4.279 4.279 0 0 0 .31-6.61z" fill="#50dd5a"/><path d="m370.78 183.9v.01l-11.46-10.34a4.239 4.239 0 0 0 -6.51 1c-7.48-30.64-10.5-41.8-33.14-60.17v-.01c24.41 6.06 49.48 23.55 51.11 69.51z" fill="#4ca987"/><path d="m337.61 453.71a52.11 52.11 0 0 1 12.5 12.19l2.05 2.79-2.82 2.26c-21.09 16.92-42.86 12.57-65.39-.93a161.341 161.341 0 0 0 23.44-17.28c2.76-2.45 5.41-5 7.96-7.62a51.492 51.492 0 0 1 22.26 8.59z" fill="#d3b04f"/><path d="m371.49 335.82c4.31 15.28 3.7 36.44-19.17 56.44-.01.01-.01.01-.02.01a58.222 58.222 0 0 0 -6.48 4.51 119.975 119.975 0 0 0 6.92-40.15q0-3.195-.17-6.34a118.874 118.874 0 0 0 -4.33-26.17h.01c4.11-3.74 12.23-10.18 12.23-10.18a64.789 64.789 0 0 1 11.01 21.88z" fill="#e9bc3f"/><path d="m307.72 224.52 29.51 26.63a22.766 22.766 0 0 1 -3.84 3.49c-4.11 2.97-10.47 7.8-17.51 14.05a154.868 154.868 0 0 0 -23.96-20.29 225.645 225.645 0 0 0 12.66-19.76 22.654 22.654 0 0 1 3.05-4.2z" fill="#49c160"/><path d="m334.17 292.23a125.75 125.75 0 0 1 14.07 31.89 118.874 118.874 0 0 1 4.33 26.17h-.02c-7.69 4.73-19.2 9.03-33.68 12.72l15.29-70.78z" fill="#e87187"/><path d="m334.17 292.23h-.01l-15.29 70.78v.01c-.15.03-.31.07-.47.11l-55.79-66.07v-.01c7.08-1.19 13.76-2.55 19.96-4.06 17.99-4.36 32.04-9.95 40.47-16.27a136.973 136.973 0 0 1 11.13 15.51z" fill="#5fa8ed"/><path d="m334.16 421.04q1.815-2.94 3.46-5.94c13.57-2.57 27.06 0 38.13 7.55h.01a51.824 51.824 0 0 1 12.63 12.31l2.05 2.79-2.82 2.26a47.475 47.475 0 0 1 -15.4 11.75c-15.6 7.37-30.24 3.35-34.61 1.95a51.492 51.492 0 0 0 -22.26-8.59 139.277 139.277 0 0 0 18.81-24.08z" fill="#f2d05a"/><path d="m318.4 363.13c.16-.04.32-.08.47-.11v-.01c14.48-3.69 25.99-7.99 33.68-12.72h.02q.165 3.15.17 6.34a119.975 119.975 0 0 1 -6.92 40.15l-.36.99a127.1 127.1 0 0 1 -7.84 17.33q-1.65 3-3.46 5.94c-13.58 4.65-31.31 8.62-52 11.63 11.28-30.84.97-59.85-.04-62.52a361.523 361.523 0 0 0 36.28-7.02z" fill="#c79a83"/><path d="m315.88 268.69q3.75 3.9 7.16 8.03c-8.43 6.32-22.48 11.91-40.47 16.27-3.57-33.99-29.09-47.81-29.09-47.81a139.893 139.893 0 0 0 26.13-7.46 41.822 41.822 0 0 0 9.73 8.94q1.305.855 2.58 1.74a154.868 154.868 0 0 1 23.96 20.29z" fill="#c79a83"/><path d="m158.22 438.49c9.27.34 18.78.52 28.48.52 11.07 0 21.91-.23 32.41-.68a620.034 620.034 0 0 0 63.05-5.66c20.69-3.01 38.42-6.98 52-11.63a139.277 139.277 0 0 1 -18.81 24.08c-2.55 2.62-5.2 5.17-7.96 7.62-31.58 6.7-74.02 10.8-120.69 10.8-44.62 0-85.38-3.75-116.48-9.94l-.01.01a143.7 143.7 0 0 1 -26.93-31.24l.01-.01c13.6 4.27 30.82 7.92 50.64 10.69a635.718 635.718 0 0 0 64.29 5.44z" fill="#daaa79"/><path d="m88.84 163.92a139.282 139.282 0 0 0 -7.03-18.54c-2.12-4.56-3.56-9.03-3.56-12.56a37.221 37.221 0 0 1 24.45-34.97 17.843 17.843 0 0 0 11.57-13.1c1.74-8.8 1.03-23.02 35.57-23.02 8.04 0 14.64-19.96 41.08-19.96a37.053 37.053 0 0 1 26.1 10.71 28.542 28.542 0 0 0 21.45 7.96c.44-.02.89-.03 1.33-.03 12.32 0 27.42 10.11 30.77 22.05a48.454 48.454 0 0 0 15.9 24.19c1.84 1.52 3.69 3.15 5.45 4.87 6.4 6.26 11.66 13.71 11.66 21.3 0 9.56-4.54 22.9-10.47 29.49-9.75 4.9-51.35 8.65-98.26 9.15a10.481 10.481 0 0 0 -10.33 10.91l.4 10.04c.01.23.01.46.01.68a16.851 16.851 0 0 1 -33.35 3.47 16.175 16.175 0 0 1 -.28-1.85l-.39-23.96-.01-.87a12.391 12.391 0 0 0 -24.76-.56 8.689 8.689 0 0 0 -.03 1.02c.15 6.93.31 15.8.39 24.23.08 7.79.09 15.21-.04 20.38a15.516 15.516 0 0 1 -19.46 14.77 15.34 15.34 0 0 1 -3.72-1.5 15.62 15.62 0 0 1 -7.94-13.36c-.04-2.95-.09-6.07-.13-9.26a154.28 154.28 0 0 0 -1.16-16.93 147.98 147.98 0 0 0 -5.21-24.75z" fill="#fae7e3"/><path d="m295.56 163.84v16.97c0 3.46-7.3 6.66-19.52 9.3-20.45 4.41-54.71 7.27-91.66 7.27a16.872 16.872 0 0 0 .55-4.29c0-.22 0-.45-.01-.68l-.4-10.04a10.481 10.481 0 0 1 10.33-10.91c46.91-.5 88.51-4.25 98.26-9.15a1.7 1.7 0 0 1 2.45 1.53z" fill="#e1b7a3"/><path d="m275.15 192.17a42.08 42.08 0 0 0 -4.36 24.19c-19.61 6.09-49.12 9.97-82.13 9.97-24.08 0-45.64-1.94-63.52-5.42a15.644 15.644 0 0 0 1.32-5.96c.13-5.17.12-12.59.04-20.38 8.04.91 15.34 1.46 25.08 1.99a16.846 16.846 0 0 0 32.8.82c36.95 0 71.21-2.86 91.66-7.27l.07.32s-.38.61-.96 1.74z" fill="#daaa79"/><path d="m282.57 292.99c-6.2 1.51-12.88 2.87-19.96 4.06-.1.02-.21.04-.32.06-6.2 1.04-12.72 1.96-19.5 2.74 7.49-26.53-16.88-50.73-16.88-50.73 9.98-.96 19.25-2.29 27.57-3.94 0 0 25.52 13.82 29.09 47.81z" fill="#ad8473"/><path d="m270.79 216.36a42.56 42.56 0 0 0 8.82 21.36 139.893 139.893 0 0 1 -26.13 7.46c-8.32 1.65-17.59 2.98-27.57 3.94-9.69.94-20.03 1.52-30.81 1.68q-3.195.045-6.44.05-5.43 0-10.73-.14c-11.1-.28-21.71-1.01-31.55-2.11-8.58-.96-16.58-2.2-23.81-3.68a136.931 136.931 0 0 1 -24.93-7.23 37.754 37.754 0 0 0 5.64-9.46v-.01a15.34 15.34 0 0 0 3.72 1.5 15.784 15.784 0 0 0 3.94.51 15.592 15.592 0 0 0 14.2-9.32c17.88 3.48 39.44 5.42 63.52 5.42 33.01 0 62.52-3.88 82.13-9.97z" fill="#e1b7a3"/><path d="m282.12 370.15c-14.63 2.13-30.75 3.79-47.92 4.87l28.09-77.91c.11-.02.22-.04.32-.06v.01l55.79 66.07a361.523 361.523 0 0 1 -36.28 7.02z" fill="#e87187"/><path d="m242.79 299.85c6.78-.78 13.3-1.7 19.5-2.74l-28.09 77.91a1.942 1.942 0 0 0 -.24.02l-44.96-72.12v-.01q10.65-.03 20.88-.48c11.48-.5 22.5-1.37 32.91-2.58z" fill="#5fa8ed"/><path d="m225.91 249.12s24.37 24.2 16.88 50.73c-10.41 1.21-21.43 2.08-32.91 2.58 7.5-26.53-14.78-51.63-14.78-51.63 10.78-.16 21.12-.74 30.81-1.68z" fill="#c79a83"/><path d="m234.2 375.02c17.17-1.08 33.29-2.74 47.92-4.87 1.01 2.67 11.32 31.68.04 62.52a620.034 620.034 0 0 1 -63.05 5.66c11.83-32.37-.17-62.51-.17-62.51v-.01q7.635-.315 15.02-.77a1.942 1.942 0 0 1 .24-.02z" fill="#ad8473"/><path d="m218.94 375.82s12 30.14.17 62.51c-10.5.45-21.34.68-32.41.68-9.7 0-19.21-.18-28.48-.52-11.83-32.38-.01-62.52-.01-62.52v-.01c9.27.34 18.79.52 28.49.52 11.01 0 21.79-.23 32.24-.67z" fill="#c79a83"/><path d="m195.1 250.8s22.28 25.1 14.78 51.63q-10.215.45-20.88.48c-.23.01-.46.01-.69.01h-1.1q-12.39 0-24.29-.6c-7.51-26.53 15.01-51.61 15.01-51.61q5.3.135 10.73.14 3.24 0 6.44-.05z" fill="#ad8473"/><path d="m189 302.92 44.96 72.12q-7.38.45-15.02.77c-10.45.44-21.23.67-32.24.67-9.7 0-19.22-.18-28.49-.52q-7.29-.27-14.35-.67l44.45-72.37c.23 0 .46 0 .69-.01z" fill="#e87187"/><path d="m188.31 302.92-44.45 72.37c-.13 0-.25-.01-.37-.02l-29.37-78.05q7.6 1.275 15.74 2.27v.01c10.47 1.29 21.55 2.26 33.06 2.82q11.88.6 24.29.6z" fill="#5fa8ed"/><path d="m177.93 250.71s-22.52 25.08-15.01 51.61c-11.51-.56-22.59-1.53-33.06-2.82v-.01c-7.5-26.53 16.52-50.89 16.52-50.89 9.84 1.1 20.45 1.83 31.55 2.11z" fill="#c79a83"/><path d="m143.49 375.27c.12.01.24.02.37.02q7.065.4 14.35.67v.01s-11.82 30.14.01 62.52a635.718 635.718 0 0 1 -64.29-5.44c-14.42-28.47-5.32-63.3-5.32-63.3 16.54 2.5 35.04 4.39 54.88 5.52z" fill="#ad8473"/><path d="m150.9 169.88.01.87c-8.45-.36-17.44-.84-24.77-1.43a12.391 12.391 0 0 1 24.76.56z" fill="#e2cfcc"/><path d="m122.57 244.92c7.23 1.48 15.23 2.72 23.81 3.68 0 0-24.02 24.36-16.52 50.89q-8.13-.99-15.74-2.27c-.29-.04-.59-.09-.88-.14-9.34-1.58-18.03-3.44-25.9-5.52 3.57-33.99 35.23-46.64 35.23-46.64z" fill="#ad8473"/><path d="m126.14 169.32c7.33.59 16.32 1.07 24.77 1.43l.39 23.96a16.175 16.175 0 0 0 .28 1.85c-9.74-.53-17.04-1.08-25.08-1.99-.08-8.43-.24-17.3-.39-24.23a8.689 8.689 0 0 1 .03-1.02z" fill="#e1b7a3"/><path d="m114.12 297.22 29.37 78.05c-19.84-1.13-38.34-3.02-54.88-5.52-10.84-1.64-20.84-3.55-29.81-5.69l54.44-66.98c.29.05.59.1.88.14z" fill="#e87187"/><path d="m113.24 297.08-54.44 66.98c-.19-.04-.39-.09-.58-.14l-14.24-74.1-.01-.01a138.344 138.344 0 0 1 8.77-12.07c7.92 5.18 19.82 9.9 34.6 13.82 7.87 2.08 16.56 3.94 25.9 5.52z" fill="#5fa8ed"/><path d="m122.57 244.92s-31.66 12.65-35.23 46.64c-14.78-3.92-26.68-8.64-34.6-13.82a153.419 153.419 0 0 1 35.43-31.66 41.037 41.037 0 0 0 9.47-8.39 136.931 136.931 0 0 0 24.93 7.23z" fill="#c79a83"/><path d="m88.84 163.92a147.98 147.98 0 0 1 5.21 24.75c-7.27-2.29-12.29-5.07-12.29-7.86v-16a2.326 2.326 0 0 1 3.27-2.12c.86.37 2.62.87 3.81 1.23z" fill="#e1b7a3"/><path d="m58.22 363.92c.19.05.39.1.58.14 8.97 2.14 18.97 4.05 29.81 5.69 0 0-9.1 34.83 5.32 63.3-19.82-2.77-37.04-6.42-50.64-10.69l-.01.01a122.333 122.333 0 0 1 -19.4-65.74c0-1.53.03-3.05.09-4.57 8.27 4.42 19.94 8.43 34.25 11.86z" fill="#c79a83"/><path d="m70.22 453.6c31.1 6.19 71.86 9.94 116.48 9.94 46.67 0 89.11-4.1 120.69-10.8a161.341 161.341 0 0 1 -23.44 17.28c-26.95 16.35-59.96 25.98-95.64 25.98-46.34 0-88.21-16.25-118.1-42.39z" fill="#c79a83"/><path d="m43.98 289.82 14.24 74.1c-14.31-3.43-25.98-7.44-34.25-11.86a122.859 122.859 0 0 1 20-62.25z" fill="#e87187"/><path d="m304.58 301.29a8.9 8.9 0 1 1 -8.88 8.9 8.888 8.888 0 0 1 8.88-8.9z" fill="#e87187"/><ellipse cx="229.05" cy="323.75" fill="#e87187" rx="8.87" ry="8.9"/><path d="m148.79 314.85a8.9 8.9 0 1 1 -8.87 8.9 8.89 8.89 0 0 1 8.87-8.9z" fill="#e87187"/><ellipse cx="72.9" cy="311.35" fill="#e87187" rx="8.87" ry="8.9"/><path d="m270.98 339.6a8.9 8.9 0 1 1 -8.88 8.9 8.881 8.881 0 0 1 8.88-8.9z" fill="#5fa8ed"/><path d="m189.51 342.8a8.9 8.9 0 1 1 -8.88 8.9 8.881 8.881 0 0 1 8.88-8.9z" fill="#5fa8ed"/><path d="m104.82 337.57a8.9 8.9 0 1 1 -8.88 8.9 8.888 8.888 0 0 1 8.88-8.9z" fill="#5fa8ed"/><path d="m125.34 214.86c-.04-2.95-.09-6.07-.13-9.26a154.28 154.28 0 0 0 -1.16-16.93 147.98 147.98 0 0 0 -5.21-24.75 139.282 139.282 0 0 0 -7.03-18.54c-2.12-4.56-3.56-9.03-3.56-12.56a37.221 37.221 0 0 1 24.45-34.97 17.843 17.843 0 0 0 11.57-13.1c1.74-8.8 1.03-23.02 35.57-23.02 6.134 0 11.44-11.61 25.347-17.119a37.033 37.033 0 0 0 -14.267-2.841c-26.44 0-33.04 19.96-41.08 19.96-34.54 0-33.83 14.22-35.57 23.02a17.843 17.843 0 0 1 -11.57 13.1 37.221 37.221 0 0 0 -24.45 34.97c0 3.53 1.44 8 3.56 12.56a139.282 139.282 0 0 1 7.03 18.54 147.98 147.98 0 0 1 5.21 24.75 154.28 154.28 0 0 1 1.16 16.93c.04 3.19.09 6.31.13 9.26a15.62 15.62 0 0 0 7.94 13.36 15.34 15.34 0 0 0 3.72 1.5 15.784 15.784 0 0 0 3.94.51 15.437 15.437 0 0 0 14.954-11.5 15.637 15.637 0 0 1 -.554-3.87z" fill="#e2cbc7"/><path d="m82.74 277.74a153.419 153.419 0 0 1 35.43-31.66c.8-.52 1.558-1.058 2.3-1.608a132.425 132.425 0 0 1 -22.83-6.782 41.037 41.037 0 0 1 -9.47 8.39 153.419 153.419 0 0 0 -35.43 31.66c5.617 3.674 13.245 7.114 22.473 10.2q3.519-5.24 7.527-10.2z" fill="#aa7f6b"/><path d="m73.97 289.81c.405-.627.827-1.245 1.243-1.866-9.228-3.09-16.856-6.53-22.473-10.2a138.344 138.344 0 0 0 -8.77 12.07l.01.01 10.52 54.745a123.608 123.608 0 0 1 19.47-54.759z" fill="#4d8dc1"/><path d="m53.88 356.63c0-1.53.03-3.05.09-4.57.095-2.515.281-5.011.531-7.491l-10.521-54.749-.01-.01a122.859 122.859 0 0 0 -20 62.25c7.453 3.983 17.674 7.632 30.092 10.824-.108-2.074-.182-4.157-.182-6.254z" fill="#c45f74"/><path d="m73.28 422.37a122.829 122.829 0 0 1 -19.218-59.486c-12.418-3.192-22.639-6.841-30.092-10.824-.06 1.52-.09 3.04-.09 4.57a122.333 122.333 0 0 0 19.4 65.74l.01-.01a284.382 284.382 0 0 0 35.71 8.351q-3.021-4.077-5.72-8.341z" fill="#aa7f6b"/><path d="m100.21 453.61a146.5 146.5 0 0 1 -21.21-22.899 284.382 284.382 0 0 1 -35.71-8.351l-.01.01a143.7 143.7 0 0 0 26.93 31.24l.01-.01c11.121 2.214 23.5 4.108 36.823 5.638q-3.509-2.738-6.833-5.628z" fill="#b78c65"/><path d="m107.043 459.238c-13.327-1.53-25.7-3.424-36.823-5.638l-.01.01c29.89 26.14 71.76 42.39 118.1 42.39 5.038 0 10.016-.213 14.939-.589-36.961-2.845-70.389-16.054-96.206-36.173z" fill="#aa7f6b"/><g fill="#ceb5b2"><path d="m97.74 133.1a6 6 0 0 1 -3.634-10.778l7.581-5.76a6 6 0 1 1 7.26 9.555l-7.582 5.76a5.969 5.969 0 0 1 -3.625 1.223z"/><path d="m151.191 146.681a5.982 5.982 0 0 1 -4.265-1.78l-6.7-6.769a6 6 0 0 1 8.529-8.44l6.7 6.768a6 6 0 0 1 -4.265 10.221z"/><path d="m162 92.9a6 6 0 0 1 -.472-11.981l9.489-.76a6 6 0 1 1 .958 11.962l-9.489.76c-.16.019-.322.019-.486.019z"/><path d="m210.641 136.421a5.979 5.979 0 0 1 -4.166-1.683l-6.851-6.614a6 6 0 0 1 8.335-8.634l6.85 6.614a6 6 0 0 1 -4.168 10.317z"/><path d="m229.2 96.1a6 6 0 0 1 -.817-11.944l9.429-1.308a6 6 0 0 1 1.649 11.885l-9.429 1.308a5.882 5.882 0 0 1 -.832.059z"/><path d="m270.626 147.87a5.978 5.978 0 0 1 -4.167-1.684l-6.851-6.613a6 6 0 0 1 8.335-8.633l6.851 6.614a6 6 0 0 1 -4.168 10.316z"/></g><path d="m18.5 302.513a6 6 0 0 1 -5.358-8.691 176.7 176.7 0 0 1 39.058-52.046 6 6 0 0 1 8.063 8.888 164.729 164.729 0 0 0 -36.4 48.537 6 6 0 0 1 -5.363 3.312z" fill="#d4e1f4"/><path d="m73.541 240.234a6 6 0 0 1 -3.172-11.1c3.324-2.065 6.76-4.015 10.212-5.8a6 6 0 1 1 5.503 10.666c-3.17 1.637-6.327 3.429-9.383 5.328a5.973 5.973 0 0 1 -3.16.906z" fill="#d4e1f4"/></svg>