<svg id="Layer_1" height="512" viewBox="0 0 512 512" width="512" xmlns="http://www.w3.org/2000/svg"><g><g><g><path d="m21.333 498.667c-2.047 0-4.095-.781-5.657-2.343-3.125-3.124-3.125-8.19 0-11.314l466.667-466.667c3.126-3.125 8.19-3.123 11.314 0 3.124 3.124 3.124 8.189 0 11.314l-466.667 466.666c-1.562 1.562-3.609 2.344-5.657 2.344z" fill="#faa019"/></g></g><g><g><circle cx="88" cy="424" fill="#f04b37" r="24"/></g></g><g><g><path d="m88 408v-8c-13.255 0-24 10.745-24 24h8c8.837 0 16-7.163 16-16z" fill="#f5826e"/></g></g><g><g><circle cx="424" cy="88" fill="#f04b37" r="24"/></g></g><g><g><g><circle cx="384" cy="128" fill="#23aae6" r="40"/></g></g><g><g><circle cx="384" cy="128" fill="#555a6e" r="24"/></g></g><g><g><path d="m352 136c-4.418 0-8-3.582-8-8 0-22.056 17.944-40 40-40 4.418 0 8 3.582 8 8s-3.582 8-8 8c-13.233 0-24 10.766-24 24 0 4.418-3.582 8-8 8z" fill="#5ad7ff"/></g></g></g><g><g><g><circle cx="128" cy="384" fill="#23aae6" r="40"/></g></g><g><g><circle cx="128" cy="384" fill="#555a6e" r="24"/></g></g><g><g><path d="m96 392c-4.418 0-8-3.582-8-8 0-22.056 17.944-40 40-40 4.418 0 8 3.582 8 8s-3.582 8-8 8c-13.234 0-24 10.766-24 24 0 4.418-3.582 8-8 8z" fill="#5ad7ff"/></g></g></g><g><g><circle cx="256" cy="256" fill="#f04b37" r="144"/></g></g><g><g><circle cx="256" cy="256" fill="#e1322d" r="128"/></g></g><g><g><circle cx="208" cy="208" fill="#ffd205" r="32"/></g></g><g><g><circle cx="208" cy="304" fill="#ffd205" r="32"/></g></g><g><g><circle cx="304" cy="304" fill="#ffd205" r="32"/></g></g><g><g><circle cx="304" cy="208" fill="#ffd205" r="32"/></g></g><g><g><circle cx="256" cy="176" fill="#faa019" r="48"/></g></g><g><g><circle cx="176" cy="256" fill="#faa019" r="48"/></g></g><g><g><circle cx="256" cy="336" fill="#faa019" r="48"/></g></g><g><g><circle cx="336" cy="256" fill="#faa019" r="48"/></g></g><path d="m256 128c4.418 0 8-3.582 8-8s-3.582-8-8-8c-79.529 0-144 64.471-144 144 0 4.418 3.582 8 8 8s8-3.582 8-8c0-70.692 57.308-128 128-128z" fill="#f5826e"/><g><g><path d="m296 184c-4.418 0-8-3.582-8-8 0-17.645-14.355-32-32-32s-32 14.355-32 32c0 4.418-3.582 8-8 8s-8-3.582-8-8c0-26.467 21.533-48 48-48 26.468 0 48 21.533 48 48 0 4.418-3.582 8-8 8z" fill="#ffd205"/></g></g><g><g><path d="m176 304c-26.467 0-48-21.533-48-48s21.533-48 48-48c4.418 0 8 3.582 8 8s-3.582 8-8 8c-17.645 0-32 14.355-32 32s14.355 32 32 32c4.418 0 8 3.582 8 8s-3.582 8-8 8z" fill="#ffd205"/></g></g><g><g><path d="m256 384c-26.467 0-48-21.533-48-48 0-4.418 3.582-8 8-8s8 3.582 8 8c0 17.645 14.355 32 32 32s32-14.355 32-32c0-4.418 3.582-8 8-8s8 3.582 8 8c0 26.467-21.532 48-48 48z" fill="#ffd205"/></g></g><g><g><path d="m336 304c-4.418 0-8-3.582-8-8s3.582-8 8-8c17.645 0 32-14.355 32-32s-14.355-32-32-32c-4.418 0-8-3.582-8-8s3.582-8 8-8c26.468 0 48 21.533 48 48s-21.532 48-48 48z" fill="#ffd205"/></g></g><g><g><circle cx="256" cy="256" fill="#23aae6" r="64"/></g></g><g><g><circle cx="256" cy="256" fill="#e1322d" r="24"/></g></g><g><g><circle cx="256" cy="256" fill="#f04b37" r="8"/></g></g><g><g><path d="m200 264c-4.418 0-8-3.582-8-8 0-35.29 28.71-64 64-64 4.418 0 8 3.582 8 8s-3.582 8-8 8c-26.467 0-48 21.533-48 48 0 4.418-3.582 8-8 8z" fill="#5ad7ff"/></g></g><g><g><circle cx="256" cy="216" fill="#d7e6f0" r="8"/></g></g><g><g><circle cx="227.716" cy="227.716" fill="#d7e6f0" r="8"/></g></g><g><g><circle cx="216" cy="256" fill="#d7e6f0" r="8"/></g></g><g><g><circle cx="227.716" cy="284.284" fill="#d7e6f0" r="8"/></g></g><g><g><circle cx="256" cy="296" fill="#d7e6f0" r="8"/></g></g><g><g><circle cx="284.284" cy="284.284" fill="#d7e6f0" r="8"/></g></g><g><g><circle cx="296" cy="256" fill="#d7e6f0" r="8"/></g></g><g><g><circle cx="284.284" cy="227.716" fill="#d7e6f0" r="8"/></g></g><g><g><circle cx="176" cy="176" fill="#f5826e" r="8"/></g></g><g><g><circle cx="336" cy="176" fill="#f5826e" r="8"/></g></g><g><g><circle cx="176" cy="336" fill="#f5826e" r="8"/></g></g><g><g><circle cx="336" cy="336" fill="#f5826e" r="8"/></g></g><g><g><path d="m424 72v-8c-13.255 0-24 10.745-24 24h8c8.837 0 16-7.163 16-16z" fill="#f5826e"/></g></g></g></svg>