<svg id="Capa_1" enable-background="new 0 0 510 510" height="512" viewBox="0 0 510 510" width="512" xmlns="http://www.w3.org/2000/svg" xmlns:xlink="http://www.w3.org/1999/xlink"><radialGradient id="SVGID_1_" cx="255" cy="139.919" gradientUnits="userSpaceOnUse" r="147.465"><stop offset="0" stop-color="#ffffa3"/><stop offset=".3843" stop-color="#fffea1"/><stop offset=".5612" stop-color="#fffb99"/><stop offset=".6956" stop-color="#fff68d"/><stop offset=".8086" stop-color="#ffef7a"/><stop offset=".907" stop-color="#ffe563"/><stop offset=".9958" stop-color="#ffda47"/><stop offset="1" stop-color="#ffd945"/></radialGradient><linearGradient id="lg1"><stop offset="0" stop-color="#f8f6fb"/><stop offset="1" stop-color="#efdcfb"/></linearGradient><linearGradient id="SVGID_2_" gradientTransform="matrix(.707 -.707 .707 .707 1010.1 5745.82)" gradientUnits="userSpaceOnUse" x1="3138.885" x2="3172.171" xlink:href="#lg1" y1="-4516.392" y2="-4516.392"/><linearGradient id="lg2"><stop offset="0" stop-color="#efdcfb" stop-opacity="0"/><stop offset=".4856" stop-color="#baaad6" stop-opacity=".486"/><stop offset="1" stop-color="#8679b2"/></linearGradient><linearGradient id="SVGID_3_" gradientTransform="matrix(.707 -.707 .707 .707 1010.1 5745.82)" gradientUnits="userSpaceOnUse" x1="3159.923" x2="3134.846" xlink:href="#lg2" y1="-4526.538" y2="-4463.454"/><linearGradient id="SVGID_4_" gradientTransform="matrix(.707 -.707 .707 .707 1010.1 5745.82)" gradientUnits="userSpaceOnUse" x1="3161.001" x2="3144.152" xlink:href="#lg2" y1="-4536.248" y2="-4480.217"/><linearGradient id="SVGID_5_" gradientTransform="matrix(.707 -.707 .707 .707 1010.1 5745.82)" gradientUnits="userSpaceOnUse" x1="3162.68" x2="3151.121" xlink:href="#lg2" y1="-4545.106" y2="-4492.798"/><linearGradient id="SVGID_6_" gradientTransform="matrix(-.707 .707 .707 .707 2088.269 4667.651)" gradientUnits="userSpaceOnUse" x1="-1686.04" x2="-1652.753" xlink:href="#lg1" y1="-4516.392" y2="-4516.392"/><linearGradient id="SVGID_7_" gradientTransform="matrix(-.707 .707 .707 .707 2088.269 4667.651)" gradientUnits="userSpaceOnUse" x1="-1665.001" x2="-1690.078" xlink:href="#lg2" y1="-4526.538" y2="-4463.454"/><linearGradient id="SVGID_8_" gradientTransform="matrix(-.707 .707 .707 .707 2088.269 4667.651)" gradientUnits="userSpaceOnUse" x1="-1663.924" x2="-1680.772" xlink:href="#lg2" y1="-4536.248" y2="-4480.217"/><linearGradient id="SVGID_9_" gradientTransform="matrix(-.707 .707 .707 .707 2088.269 4667.651)" gradientUnits="userSpaceOnUse" x1="-1662.244" x2="-1673.803" xlink:href="#lg2" y1="-4545.106" y2="-4492.798"/><linearGradient id="lg3"><stop offset="0" stop-color="#ffd945"/><stop offset=".3043" stop-color="#ffcd3e"/><stop offset=".8558" stop-color="#ffad2b"/><stop offset="1" stop-color="#ffa325"/></linearGradient><linearGradient id="SVGID_10_" gradientTransform="matrix(.707 -.707 .707 .707 -237.692 1073.7)" gradientUnits="userSpaceOnUse" x1="748.776" x2="758.177" xlink:href="#lg3" y1="-303.032" y2="-303.032"/><linearGradient id="SVGID_11_" gradientTransform="matrix(.707 -.707 .707 .707 1010.1 5745.82)" gradientUnits="userSpaceOnUse" x1="3186.838" x2="3220.125" xlink:href="#lg1" y1="-4513.056" y2="-4513.056"/><linearGradient id="SVGID_12_" gradientTransform="matrix(.707 -.707 .707 .707 1010.1 5745.82)" gradientUnits="userSpaceOnUse" x1="3207.876" x2="3182.8" xlink:href="#lg2" y1="-4523.202" y2="-4460.118"/><linearGradient id="SVGID_13_" gradientTransform="matrix(.707 -.707 .707 .707 1010.1 5745.82)" gradientUnits="userSpaceOnUse" x1="3208.954" x2="3192.106" xlink:href="#lg2" y1="-4532.912" y2="-4476.881"/><linearGradient id="SVGID_14_" gradientTransform="matrix(.707 -.707 .707 .707 1010.1 5745.82)" gradientUnits="userSpaceOnUse" x1="3210.633" x2="3199.075" xlink:href="#lg2" y1="-4541.771" y2="-4489.462"/><linearGradient id="SVGID_15_" gradientTransform="matrix(-.707 .707 .707 .707 2088.269 4667.651)" gradientUnits="userSpaceOnUse" x1="-1733.993" x2="-1700.707" xlink:href="#lg1" y1="-4513.056" y2="-4513.056"/><linearGradient id="SVGID_16_" gradientTransform="matrix(-.707 .707 .707 .707 2088.269 4667.651)" gradientUnits="userSpaceOnUse" x1="-1712.955" x2="-1738.031" xlink:href="#lg2" y1="-4523.202" y2="-4460.118"/><linearGradient id="SVGID_17_" gradientTransform="matrix(-.707 .707 .707 .707 2088.269 4667.651)" gradientUnits="userSpaceOnUse" x1="-1711.877" x2="-1728.726" xlink:href="#lg2" y1="-4532.912" y2="-4476.881"/><linearGradient id="SVGID_18_" gradientTransform="matrix(-.707 .707 .707 .707 2088.269 4667.651)" gradientUnits="userSpaceOnUse" x1="-1710.198" x2="-1721.757" xlink:href="#lg2" y1="-4541.771" y2="-4489.462"/><linearGradient id="SVGID_19_" gradientTransform="matrix(.707 -.707 .707 .707 -237.692 1073.7)" gradientUnits="userSpaceOnUse" x1="796.73" x2="806.132" xlink:href="#lg3" y1="-301.363" y2="-301.363"/><linearGradient id="SVGID_20_" gradientTransform="matrix(.707 -.707 .707 .707 1010.1 5745.82)" gradientUnits="userSpaceOnUse" x1="3165.078" x2="3198.365" xlink:href="#lg1" y1="-4523.037" y2="-4523.037"/><linearGradient id="SVGID_21_" gradientTransform="matrix(.707 -.707 .707 .707 1010.1 5745.82)" gradientUnits="userSpaceOnUse" x1="3186.117" x2="3161.04" xlink:href="#lg2" y1="-4533.183" y2="-4470.099"/><linearGradient id="SVGID_22_" gradientTransform="matrix(.707 -.707 .707 .707 1010.1 5745.82)" gradientUnits="userSpaceOnUse" x1="3187.194" x2="3170.346" xlink:href="#lg2" y1="-4542.893" y2="-4486.862"/><linearGradient id="SVGID_23_" gradientTransform="matrix(.707 -.707 .707 .707 1010.1 5745.82)" gradientUnits="userSpaceOnUse" x1="3188.874" x2="3177.315" xlink:href="#lg2" y1="-4551.752" y2="-4499.443"/><linearGradient id="SVGID_24_" gradientTransform="matrix(-.707 .707 .707 .707 2088.269 4667.651)" gradientUnits="userSpaceOnUse" x1="-1712.233" x2="-1678.947" xlink:href="#lg1" y1="-4523.037" y2="-4523.037"/><linearGradient id="SVGID_25_" gradientTransform="matrix(-.707 .707 .707 .707 2088.269 4667.651)" gradientUnits="userSpaceOnUse" x1="-1691.195" x2="-1716.272" xlink:href="#lg2" y1="-4533.183" y2="-4470.099"/><linearGradient id="SVGID_26_" gradientTransform="matrix(-.707 .707 .707 .707 2088.269 4667.651)" gradientUnits="userSpaceOnUse" x1="-1690.117" x2="-1706.966" xlink:href="#lg2" y1="-4542.893" y2="-4486.862"/><linearGradient id="SVGID_27_" gradientTransform="matrix(-.707 .707 .707 .707 2088.269 4667.651)" gradientUnits="userSpaceOnUse" x1="-1688.438" x2="-1699.997" xlink:href="#lg2" y1="-4551.752" y2="-4499.443"/><linearGradient id="SVGID_28_" gradientTransform="matrix(.707 -.707 .707 .707 -237.692 1073.7)" gradientUnits="userSpaceOnUse" x1="774.969" x2="784.371" xlink:href="#lg3" y1="-306.353" y2="-306.353"/><linearGradient id="SVGID_29_" gradientTransform="matrix(.707 -.707 .707 .707 -237.692 1073.7)" gradientUnits="userSpaceOnUse" x1="760.59" x2="781.728" xlink:href="#lg3" y1="-283.698" y2="-250.291"/><linearGradient id="SVGID_30_" gradientTransform="matrix(.707 -.707 .707 .707 -237.692 1073.7)" gradientUnits="userSpaceOnUse" x1="778.124" x2="778.124" xlink:href="#lg3" y1="-280.807" y2="-268.538"/><linearGradient id="SVGID_31_" gradientUnits="userSpaceOnUse" x1="359.5" x2="367" xlink:href="#lg1" y1="287.963" y2="287.963"/><linearGradient id="SVGID_32_" gradientTransform="matrix(0 1 -1 0 1588.184 -1936.247)" gradientUnits="userSpaceOnUse" x1="1994.291" x2="2446.247" xlink:href="#lg3" y1="1166.517" y2="1166.517"/><linearGradient id="SVGID_33_" gradientTransform="matrix(.707 .707 -.707 .707 894.41 -973.166)" gradientUnits="userSpaceOnUse" x1="454.486" x2="608.218" xlink:href="#lg3" y1="1293.956" y2="1218.47"/><linearGradient id="lg4"><stop offset="0" stop-color="#ffd945"/><stop offset=".2512" stop-color="#ffd442"/><stop offset=".5623" stop-color="#ffc439"/><stop offset=".9036" stop-color="#ffab2a"/><stop offset="1" stop-color="#ffa325"/></linearGradient><linearGradient id="SVGID_34_" gradientTransform="matrix(.988 -.155 .155 .988 -100.472 247.843)" gradientUnits="userSpaceOnUse" x1="563.906" x2="563.906" xlink:href="#lg4" y1="92.23" y2="105.373"/><linearGradient id="SVGID_35_" gradientTransform="matrix(.988 -.155 .155 .988 -100.472 247.843)" gradientUnits="userSpaceOnUse" x1="565.112" x2="565.112" xlink:href="#lg4" y1="99.884" y2="113.027"/><linearGradient id="SVGID_36_" gradientTransform="matrix(.988 .155 .155 -.988 -100.472 1285.667)" gradientUnits="userSpaceOnUse" x1="414.485" x2="414.485" xlink:href="#lg4" y1="1046.063" y2="1059.206"/><linearGradient id="SVGID_37_" gradientTransform="matrix(.988 .155 .155 -.988 -100.472 1285.667)" gradientUnits="userSpaceOnUse" x1="415.69" x2="415.69" xlink:href="#lg4" y1="1053.717" y2="1066.86"/><linearGradient id="lg5"><stop offset="0" stop-color="#ffd945"/><stop offset=".4169" stop-color="#ffd744"/><stop offset=".6278" stop-color="#ffcf3f"/><stop offset=".7926" stop-color="#ffc237"/><stop offset=".9326" stop-color="#ffaf2c"/><stop offset="1" stop-color="#ffa325"/></linearGradient><radialGradient id="SVGID_38_" cx="470.746" cy="276.687" gradientUnits="userSpaceOnUse" r="23.799" xlink:href="#lg5"/><linearGradient id="lg6"><stop offset="0" stop-color="#ffd945" stop-opacity="0"/><stop offset="1" stop-color="#fbed21"/></linearGradient><linearGradient id="SVGID_39_" gradientUnits="userSpaceOnUse" x1="479.566" x2="456.716" xlink:href="#lg6" y1="287.34" y2="264.491"/><linearGradient id="lg7"><stop offset="0" stop-color="#e87264" stop-opacity="0"/><stop offset="1" stop-color="#ff7044"/></linearGradient><linearGradient id="SVGID_40_" gradientUnits="userSpaceOnUse" x1="484.362" x2="519.943" xlink:href="#lg7" y1="284.74" y2="254.623"/><linearGradient id="lg8"><stop offset="0" stop-color="#fff" stop-opacity="0"/><stop offset="1" stop-color="#fff"/></linearGradient><linearGradient id="SVGID_41_" gradientUnits="userSpaceOnUse" x1="476.248" x2="476.248" xlink:href="#lg8" y1="278.148" y2="260.136"/><linearGradient id="lg9"><stop offset="0" stop-color="#8a7889"/><stop offset="1" stop-color="#6e566e"/></linearGradient><linearGradient id="SVGID_42_" gradientUnits="userSpaceOnUse" x1="253.095" x2="253.095" xlink:href="#lg9" y1="136.039" y2="354.864"/><linearGradient id="lg10"><stop offset="0" stop-color="#a3ffff"/><stop offset=".1214" stop-color="#9dfbfe"/><stop offset=".2901" stop-color="#8bf2fc"/><stop offset=".4867" stop-color="#6de1f7"/><stop offset=".7043" stop-color="#44caf2"/><stop offset=".9365" stop-color="#10aeea"/><stop offset="1" stop-color="#00a5e8"/></linearGradient><linearGradient id="SVGID_43_" gradientUnits="userSpaceOnUse" x1="156.195" x2="300.739" xlink:href="#lg10" y1="306.362" y2="547.564"/><linearGradient id="lg11"><stop offset="0" stop-color="#3f3ced" stop-opacity="0"/><stop offset="1" stop-color="#2f43bb"/></linearGradient><linearGradient id="SVGID_44_" gradientUnits="userSpaceOnUse" x1="244.402" x2="244.402" xlink:href="#lg11" y1="461.73" y2="571.606"/><linearGradient id="SVGID_45_" gradientUnits="userSpaceOnUse" x1="313.416" x2="265.416" xlink:href="#lg11" y1="425.923" y2="163.589"/><linearGradient id="SVGID_46_" gradientUnits="userSpaceOnUse" x1="370.778" x2="351.445" xlink:href="#lg4" y1="458.811" y2="469.144"/><linearGradient id="lg12"><stop offset="0" stop-color="#ff7044"/><stop offset="1" stop-color="#f92814"/></linearGradient><linearGradient id="SVGID_47_" gradientUnits="userSpaceOnUse" x1="355.133" x2="408.133" xlink:href="#lg12" y1="425.921" y2="472.921"/><linearGradient id="SVGID_48_" gradientUnits="userSpaceOnUse" x1="255" x2="255" xlink:href="#lg4" y1="359.299" y2="457.455"/><linearGradient id="SVGID_49_" gradientUnits="userSpaceOnUse" x1="255" x2="255" xlink:href="#lg4" y1="431.849" y2="450.55"/><linearGradient id="SVGID_50_" gradientUnits="userSpaceOnUse" x1="346.515" x2="234.49" xlink:href="#lg7" y1="426.931" y2="290.9"/><linearGradient id="SVGID_51_" gradientUnits="userSpaceOnUse" x1="204.734" x2="194.138" xlink:href="#lg4" y1="411.762" y2="396.739"/><linearGradient id="SVGID_52_" gradientUnits="userSpaceOnUse" x1="199.024" x2="211.658" xlink:href="#lg12" y1="405.191" y2="417.825"/><linearGradient id="lg13"><stop offset="0" stop-color="#ff7044" stop-opacity="0"/><stop offset="1" stop-color="#ffa425"/></linearGradient><linearGradient id="SVGID_53_" gradientUnits="userSpaceOnUse" x1="203.844" x2="197.825" xlink:href="#lg13" y1="410.5" y2="401.967"/><linearGradient id="lg14"><stop offset="0" stop-color="#f92814" stop-opacity="0"/><stop offset="1" stop-color="#c1272d"/></linearGradient><linearGradient id="SVGID_54_" gradientUnits="userSpaceOnUse" x1="203.012" x2="216.421" xlink:href="#lg14" y1="412.579" y2="387.641"/><linearGradient id="SVGID_55_" gradientUnits="userSpaceOnUse" x1="257.061" x2="246.464" xlink:href="#lg4" y1="421.364" y2="406.341"/><linearGradient id="SVGID_56_" gradientUnits="userSpaceOnUse" x1="251.35" x2="263.984" xlink:href="#lg12" y1="414.793" y2="427.427"/><linearGradient id="SVGID_57_" gradientUnits="userSpaceOnUse" x1="256.17" x2="250.152" xlink:href="#lg13" y1="420.102" y2="411.569"/><linearGradient id="SVGID_58_" gradientUnits="userSpaceOnUse" x1="255.339" x2="268.747" xlink:href="#lg14" y1="422.181" y2="397.243"/><linearGradient id="SVGID_59_" gradientUnits="userSpaceOnUse" x1="309.387" x2="298.79" xlink:href="#lg4" y1="411.762" y2="396.739"/><linearGradient id="SVGID_60_" gradientUnits="userSpaceOnUse" x1="303.677" x2="316.311" xlink:href="#lg12" y1="405.191" y2="417.825"/><linearGradient id="SVGID_61_" gradientUnits="userSpaceOnUse" x1="308.497" x2="302.478" xlink:href="#lg13" y1="410.5" y2="401.967"/><linearGradient id="SVGID_62_" gradientUnits="userSpaceOnUse" x1="307.665" x2="321.074" xlink:href="#lg14" y1="412.579" y2="387.641"/><linearGradient id="SVGID_63_" gradientUnits="userSpaceOnUse" x1="255" x2="255" xlink:href="#lg4" y1="371.337" y2="398.146"/><linearGradient id="SVGID_64_" gradientUnits="userSpaceOnUse" x1="225.27" x2="355.134" xlink:href="#lg10" y1="216.354" y2="314.061"/><linearGradient id="SVGID_65_" gradientUnits="userSpaceOnUse" x1="248.844" x2="264.869" xlink:href="#lg12" y1="201.901" y2="212.17"/><linearGradient id="SVGID_66_" gradientUnits="userSpaceOnUse" x1="200.551" x2="221.792" xlink:href="#lg9" y1="234.811" y2="256.053"/><linearGradient id="lg15"><stop offset="0" stop-color="#bdc2d1" stop-opacity="0"/><stop offset=".3183" stop-color="#c1c6d4" stop-opacity=".318"/><stop offset=".6082" stop-color="#ccd0dd" stop-opacity=".608"/><stop offset=".8861" stop-color="#dee2ec" stop-opacity=".886"/><stop offset="1" stop-color="#e8ecf4"/></linearGradient><linearGradient id="SVGID_67_" gradientUnits="userSpaceOnUse" x1="204.796" x2="192.899" xlink:href="#lg15" y1="238.222" y2="221.072"/><linearGradient id="lg16"><stop offset="0" stop-color="#6e566e" stop-opacity="0"/><stop offset=".0471" stop-color="#6e566e" stop-opacity=".047"/><stop offset="1" stop-color="#6e566e"/></linearGradient><linearGradient id="SVGID_68_" gradientUnits="userSpaceOnUse" x1="207.257" x2="229.8" xlink:href="#lg16" y1="247.233" y2="205.305"/><linearGradient id="SVGID_69_" gradientUnits="userSpaceOnUse" x1="293.37" x2="314.612" xlink:href="#lg9" y1="234.811" y2="256.053"/><linearGradient id="SVGID_70_" gradientUnits="userSpaceOnUse" x1="297.616" x2="285.719" xlink:href="#lg15" y1="238.222" y2="221.072"/><linearGradient id="SVGID_71_" gradientUnits="userSpaceOnUse" x1="300.076" x2="322.62" xlink:href="#lg16" y1="247.233" y2="205.305"/><linearGradient id="SVGID_72_" gradientUnits="userSpaceOnUse" x1="253.097" x2="253.097" xlink:href="#lg11" y1="274.291" y2="352.812"/><linearGradient id="SVGID_73_" gradientUnits="userSpaceOnUse" x1="253.095" x2="253.095" xlink:href="#lg9" y1="131.098" y2="345.178"/><linearGradient id="SVGID_74_" gradientTransform="matrix(-1 0 0 1 4010 0)" gradientUnits="userSpaceOnUse" x1="3875.093" x2="3893.234" xlink:href="#lg10" y1="396.281" y2="394.912"/><linearGradient id="SVGID_75_" gradientTransform="matrix(-1 0 0 1 4010 0)" gradientUnits="userSpaceOnUse" x1="3905.72" x2="3930.925" xlink:href="#lg10" y1="394.447" y2="394.793"/><linearGradient id="SVGID_76_" gradientTransform="matrix(-1 0 0 1 4010 0)" gradientUnits="userSpaceOnUse" x1="3917.915" x2="3939.876" xlink:href="#lg10" y1="395.529" y2="402.287"/><linearGradient id="SVGID_77_" gradientTransform="matrix(-1 0 0 1 4010 0)" gradientUnits="userSpaceOnUse" x1="3887.98" x2="3914.221" xlink:href="#lg10" y1="388.579" y2="389.96"/><linearGradient id="SVGID_78_" gradientTransform="matrix(0 -1 -1 0 2870.465 678.257)" gradientUnits="userSpaceOnUse" x1="258.937" x2="258.894" y1="2731.976" y2="2732.189"><stop offset="0" stop-color="#fcb37e"/><stop offset="1" stop-color="#8c6239"/></linearGradient><linearGradient id="SVGID_79_" gradientTransform="matrix(-1 0 0 1 1813.642 -2342.023)" gradientUnits="userSpaceOnUse" x1="1656.194" x2="1767.495" xlink:href="#lg10" y1="2758.067" y2="2847.107"/><linearGradient id="SVGID_80_" gradientUnits="userSpaceOnUse" x1="108.927" x2="156.37" xlink:href="#lg11" y1="450.735" y2="343.213"/><linearGradient id="SVGID_81_" gradientTransform="matrix(-1 0 0 1 1813.642 -2342.023)" gradientUnits="userSpaceOnUse" x1="1683.267" x2="1696.175" y1="2746.021" y2="2787.093"><stop offset="0" stop-color="#fff"/><stop offset="1" stop-color="#18cefb" stop-opacity="0"/></linearGradient><linearGradient id="SVGID_82_" gradientUnits="userSpaceOnUse" x1="108.117" x2="108.117" xlink:href="#lg11" y1="489.161" y2="470.719"/><linearGradient id="SVGID_83_" gradientTransform="matrix(-1 0 0 1 4010 0)" gradientUnits="userSpaceOnUse" x1="3901.094" x2="3902.475" xlink:href="#lg5" y1="464.514" y2="484.079"/><linearGradient id="SVGID_84_" gradientUnits="userSpaceOnUse" x1="108.117" x2="108.117" xlink:href="#lg11" y1="511.995" y2="498.677"/><linearGradient id="SVGID_85_" gradientTransform="matrix(-1 0 0 1 4010 0)" gradientUnits="userSpaceOnUse" x1="3901.093" x2="3902.474" xlink:href="#lg5" y1="488.06" y2="507.625"/><linearGradient id="SVGID_86_" gradientUnits="userSpaceOnUse" x1="240.296" x2="256.946" xlink:href="#lg4" y1="20.737" y2="66.526"/><linearGradient id="SVGID_87_" gradientUnits="userSpaceOnUse" x1="253.095" x2="253.095" xlink:href="#lg4" y1="47.734" y2="75.803"/><linearGradient id="SVGID_88_" gradientUnits="userSpaceOnUse" x1="253.095" x2="253.095" xlink:href="#lg4" y1="73.06" y2="181.522"/><linearGradient id="SVGID_89_" gradientUnits="userSpaceOnUse" x1="253.095" x2="253.095" xlink:href="#lg7" y1="63.547" y2="269.308"/><linearGradient id="SVGID_91_" gradientUnits="userSpaceOnUse" x1="253.095" x2="253.095" xlink:href="#lg4" y1="78.241" y2="136.478"/><linearGradient id="SVGID_92_" gradientUnits="userSpaceOnUse" x1="206.988" x2="348.194" xlink:href="#lg4" y1="153.671" y2="189.128"/><linearGradient id="SVGID_93_" gradientUnits="userSpaceOnUse" x1="253.095" x2="253.095" xlink:href="#lg7" y1="115.741" y2="182.559"/><linearGradient id="SVGID_94_" gradientUnits="userSpaceOnUse" x1="253.095" x2="253.095" xlink:href="#lg7" y1="113.795" y2="169.042"/><linearGradient id="SVGID_95_" gradientUnits="userSpaceOnUse" x1="207.237" x2="340.082" xlink:href="#lg9" y1="174.939" y2="208.296"/><linearGradient id="SVGID_96_" gradientUnits="userSpaceOnUse" x1="253.095" x2="253.095" xlink:href="#lg4" y1="155.28" y2="194.749"/><linearGradient id="SVGID_97_" gradientUnits="userSpaceOnUse" x1="254.435" x2="247.545" xlink:href="#lg4" y1="171.533" y2="161.765"/><linearGradient id="SVGID_98_" gradientUnits="userSpaceOnUse" x1="250.722" x2="258.937" xlink:href="#lg12" y1="167.261" y2="175.475"/><linearGradient id="SVGID_99_" gradientUnits="userSpaceOnUse" x1="253.856" x2="249.943" xlink:href="#lg13" y1="170.712" y2="165.164"/><linearGradient id="SVGID_100_" gradientUnits="userSpaceOnUse" x1="253.315" x2="262.033" xlink:href="#lg14" y1="172.064" y2="155.85"/><linearGradient id="SVGID_101_" gradientUnits="userSpaceOnUse" x1="247.862" x2="268.691" xlink:href="#lg3" y1="132.061" y2="152.89"/><linearGradient id="SVGID_102_" gradientUnits="userSpaceOnUse" x1="244.407" x2="265.63" y1="130.723" y2="146.776"><stop offset="0" stop-color="#91f27f"/><stop offset="1" stop-color="#00b302"/></linearGradient><linearGradient id="SVGID_103_" gradientUnits="userSpaceOnUse" x1="255.744" x2="246.916" y1="140.258" y2="130.047"><stop offset="0" stop-color="#91f27f" stop-opacity="0"/><stop offset="1" stop-color="#ffed82"/></linearGradient><linearGradient id="lg17"><stop offset="0" stop-color="#005a01" stop-opacity="0"/><stop offset="1" stop-color="#005a01"/></linearGradient><linearGradient id="SVGID_104_" gradientUnits="userSpaceOnUse" x1="254.645" x2="239.336" xlink:href="#lg17" y1="137.14" y2="112.141"/><linearGradient id="SVGID_105_" gradientUnits="userSpaceOnUse" x1="255.782" x2="244.562" xlink:href="#lg17" y1="142.065" y2="123.742"/><linearGradient id="lg18"><stop offset="0" stop-color="#ff819c"/><stop offset=".2026" stop-color="#ff7c9a"/><stop offset=".4565" stop-color="#fd6c93"/><stop offset=".7364" stop-color="#fb5387"/><stop offset="1" stop-color="#f83479"/></linearGradient><linearGradient id="SVGID_106_" gradientTransform="matrix(.748 -.664 .664 .748 2719.637 -574.346)" gradientUnits="userSpaceOnUse" x1="-2460.097" x2="-2429.332" xlink:href="#lg18" y1="-1160.886" y2="-1152.128"/><linearGradient id="SVGID_107_" gradientTransform="matrix(.748 -.664 .664 .748 2719.637 -574.346)" gradientUnits="userSpaceOnUse" x1="-2431.17" x2="-2489.331" xlink:href="#lg8" y1="-1151.815" y2="-1174.945"/><linearGradient id="SVGID_108_" gradientTransform="matrix(.944 -.331 .331 .944 1905.293 -209.505)" gradientUnits="userSpaceOnUse" x1="-1812.604" x2="-1781.839" xlink:href="#lg18" y1="-227.121" y2="-218.363"/><linearGradient id="SVGID_109_" gradientTransform="matrix(.944 -.331 .331 .944 1905.293 -209.505)" gradientUnits="userSpaceOnUse" x1="-1783.677" x2="-1841.838" xlink:href="#lg8" y1="-218.05" y2="-241.18"/><radialGradient id="SVGID_110_" cx="143.116" cy="196.55" gradientUnits="userSpaceOnUse" r="23.799" xlink:href="#lg5"/><linearGradient id="SVGID_111_" gradientUnits="userSpaceOnUse" x1="151.936" x2="129.086" xlink:href="#lg6" y1="207.204" y2="184.354"/><linearGradient id="SVGID_112_" gradientUnits="userSpaceOnUse" x1="156.732" x2="192.313" xlink:href="#lg7" y1="204.603" y2="174.486"/><linearGradient id="SVGID_113_" gradientUnits="userSpaceOnUse" x1="148.617" x2="148.617" xlink:href="#lg8" y1="198.011" y2="180"/><linearGradient id="SVGID_114_" gradientTransform="matrix(-.748 -.664 -.664 .748 191.266 -574.346)" gradientUnits="userSpaceOnUse" x1="-662.287" x2="-631.522" xlink:href="#lg18" y1="436.149" y2="444.907"/><linearGradient id="SVGID_115_" gradientTransform="matrix(-.748 -.664 -.664 .748 191.266 -574.346)" gradientUnits="userSpaceOnUse" x1="-633.36" x2="-691.521" xlink:href="#lg8" y1="445.22" y2="422.09"/><linearGradient id="SVGID_116_" gradientTransform="matrix(-.944 -.331 -.331 .944 1005.61 -209.505)" gradientUnits="userSpaceOnUse" x1="456.516" x2="487.281" xlink:href="#lg18" y1="568.955" y2="577.713"/><linearGradient id="SVGID_117_" gradientTransform="matrix(-.944 -.331 -.331 .944 1005.61 -209.505)" gradientUnits="userSpaceOnUse" x1="485.443" x2="427.282" xlink:href="#lg8" y1="578.025" y2="554.896"/><radialGradient id="SVGID_118_" cx="352.072" cy="196.55" gradientUnits="userSpaceOnUse" r="23.799" xlink:href="#lg5"/><linearGradient id="SVGID_119_" gradientUnits="userSpaceOnUse" x1="360.891" x2="338.042" xlink:href="#lg6" y1="207.204" y2="184.354"/><linearGradient id="SVGID_120_" gradientUnits="userSpaceOnUse" x1="365.687" x2="401.269" xlink:href="#lg7" y1="204.603" y2="174.486"/><linearGradient id="SVGID_121_" gradientUnits="userSpaceOnUse" x1="357.573" x2="357.573" xlink:href="#lg8" y1="198.011" y2="180"/><g><circle cx="255" cy="139.919" fill="url(#SVGID_1_)" r="139.919"/><g><g><g><g><g><g><path d="m87.89 337.483c-21.742 3.476-43.953-2.205-61.355-15.694l-5.436-4.213c-7.92-6.139-8.658-17.835-1.572-24.921 6.499-6.499 17.036-6.499 23.535 0z" fill="url(#SVGID_2_)"/><path d="m19.451 292.73c-.226.229-.445.463-.655.702-5.953 6.751-4.159 17.352 3.463 22.14 16.268 10.217 35.773 14.259 54.917 11.198l-33.811-33.811c-6.514-6.515-17.44-6.784-23.914-.229z" fill="url(#SVGID_3_)"/><path d="m19.68 292.503c-.074.073-.148.146-.221.219-5.234 5.292-3.175 14.24 3.772 16.912 12.967 4.988 27.141 6.553 41.127 4.317l-21.025-21.025c-6.484-6.484-17.087-6.826-23.653-.423z" fill="url(#SVGID_4_)"/><path d="m19.712 292.472c-.058.056-.115.113-.172.169-2.863 2.856-1.39 7.752 2.546 8.68 9.985 2.354 20.43 2.787 30.774 1.133l-9.528-9.528c-6.472-6.473-17.049-6.828-23.62-.454z" fill="url(#SVGID_5_)"/></g><g><path d="m91.668 333.704c3.476-21.742-2.205-43.953-15.694-61.355l-4.213-5.436c-6.139-7.92-17.835-8.658-24.921-1.572-6.499 6.499-6.499 17.036 0 23.535z" fill="url(#SVGID_6_)"/><path d="m46.916 265.266c.229-.226.463-.445.702-.655 6.751-5.953 17.352-4.159 22.14 3.463 10.217 16.268 14.259 35.773 11.198 54.917l-33.811-33.811c-6.515-6.514-6.784-17.44-.229-23.914z" fill="url(#SVGID_7_)"/><path d="m46.688 265.495c.073-.074.146-.148.219-.221 5.292-5.234 14.24-3.175 16.912 3.772 4.988 12.967 6.553 27.141 4.317 41.127l-21.025-21.025c-6.484-6.485-6.825-17.087-.423-23.653z" fill="url(#SVGID_8_)"/><path d="m46.657 265.527c.056-.058.113-.115.169-.172 2.856-2.863 7.752-1.39 8.68 2.546 2.354 9.985 2.787 20.43 1.133 30.774l-9.528-9.528c-6.473-6.473-6.827-17.05-.454-23.62z" fill="url(#SVGID_9_)"/></g></g><path d="m49.54 288.707 69.211 69.211c1.836 1.836 1.836 4.812 0 6.648-1.836 1.836-4.812 1.836-6.648 0l-69.112-69.112c-1.768-1.768-1.967-4.641-.318-6.52.943-1.074 2.243-1.606 3.543-1.606 1.204.001 2.404.459 3.324 1.379z" fill="url(#SVGID_10_)"/></g><g><g><g><path d="m124.156 305.933c-21.742 3.476-43.953-2.205-61.355-15.694l-5.436-4.213c-7.92-6.139-8.658-17.835-1.572-24.921 6.499-6.499 17.036-6.499 23.535 0z" fill="url(#SVGID_11_)"/><path d="m55.718 261.181c-.226.229-.445.463-.655.702-5.953 6.751-4.159 17.352 3.463 22.14 16.268 10.217 35.773 14.259 54.917 11.198l-33.81-33.811c-6.515-6.515-17.441-6.784-23.915-.229z" fill="url(#SVGID_12_)"/><path d="m55.947 260.954c-.074.073-.148.146-.221.219-5.234 5.292-3.175 14.24 3.772 16.912 12.967 4.988 27.141 6.553 41.127 4.317l-21.025-21.025c-6.485-6.485-17.087-6.826-23.653-.423z" fill="url(#SVGID_13_)"/><path d="m55.979 260.922c-.058.056-.115.113-.172.169-2.863 2.856-1.39 7.752 2.546 8.68 9.985 2.354 20.43 2.787 30.774 1.133l-9.528-9.528c-6.472-6.473-17.049-6.827-23.62-.454z" fill="url(#SVGID_14_)"/></g><g><path d="m127.935 302.155c3.476-21.742-2.205-43.953-15.694-61.355l-4.213-5.436c-6.139-7.92-17.835-8.658-24.921-1.572-6.499 6.499-6.499 17.036 0 23.535z" fill="url(#SVGID_15_)"/><path d="m83.183 233.716c.229-.226.463-.445.702-.655 6.751-5.953 17.352-4.159 22.14 3.463 10.217 16.268 14.259 35.773 11.198 54.917l-33.811-33.811c-6.515-6.514-6.784-17.44-.229-23.914z" fill="url(#SVGID_16_)"/><path d="m82.955 233.945c.073-.074.146-.148.219-.221 5.292-5.234 14.24-3.175 16.912 3.772 4.988 12.967 6.553 27.141 4.317 41.127l-21.025-21.025c-6.484-6.484-6.825-17.087-.423-23.653z" fill="url(#SVGID_17_)"/><path d="m82.924 233.977c.056-.058.113-.115.169-.172 2.856-2.863 7.752-1.39 8.68 2.546 2.354 9.985 2.787 20.43 1.133 30.774l-9.528-9.528c-6.473-6.472-6.827-17.049-.454-23.62z" fill="url(#SVGID_18_)"/></g></g><path d="m85.807 257.156 66.854 66.854c1.836 1.836 1.836 4.812 0 6.648-1.836 1.836-4.812 1.836-6.648 0l-66.748-66.748c-1.765-1.765-1.971-4.632-.331-6.513.94-1.078 2.244-1.614 3.549-1.614 1.203 0 2.406.455 3.324 1.373z" fill="url(#SVGID_19_)"/></g><g><g><g><path d="m101.713 314.262c-21.742 3.476-43.953-2.205-61.355-15.694l-5.436-4.213c-7.92-6.139-8.658-17.835-1.572-24.921 6.499-6.499 17.036-6.499 23.535 0z" fill="url(#SVGID_20_)"/><path d="m33.274 269.51c-.226.229-.445.463-.655.702-5.953 6.751-4.159 17.352 3.463 22.14 16.269 10.217 35.774 14.258 54.918 11.197l-33.811-33.811c-6.515-6.514-17.441-6.783-23.915-.228z" fill="url(#SVGID_21_)"/><path d="m33.503 269.283c-.074.073-.148.146-.221.219-5.234 5.292-3.175 14.24 3.772 16.912 12.967 4.988 27.141 6.553 41.127 4.317l-21.025-21.025c-6.484-6.485-17.087-6.826-23.653-.423z" fill="url(#SVGID_22_)"/><path d="m33.535 269.251c-.058.056-.115.113-.172.169-2.863 2.856-1.39 7.752 2.546 8.68 9.985 2.354 20.43 2.787 30.774 1.133l-9.528-9.528c-6.472-6.473-17.049-6.827-23.62-.454z" fill="url(#SVGID_23_)"/></g><g><path d="m105.491 310.484c3.476-21.742-2.205-43.953-15.694-61.355l-4.213-5.436c-6.139-7.92-17.835-8.658-24.921-1.572-6.499 6.499-6.499 17.036 0 23.535z" fill="url(#SVGID_24_)"/><path d="m60.739 242.045c.229-.226.463-.445.702-.655 6.751-5.953 17.352-4.159 22.14 3.463 10.217 16.268 14.259 35.773 11.198 54.917l-33.811-33.81c-6.515-6.515-6.784-17.441-.229-23.915z" fill="url(#SVGID_25_)"/><path d="m60.512 242.274c.073-.074.146-.148.219-.221 5.292-5.234 14.24-3.175 16.912 3.772 4.988 12.967 6.553 27.141 4.317 41.127l-21.025-21.025c-6.485-6.484-6.826-17.087-.423-23.653z" fill="url(#SVGID_26_)"/><path d="m60.48 242.306c.056-.058.113-.115.169-.172 2.856-2.863 7.752-1.39 8.68 2.546 2.354 9.985 2.787 20.43 1.133 30.774l-9.528-9.528c-6.473-6.472-6.827-17.049-.454-23.62z" fill="url(#SVGID_27_)"/></g></g><path d="m63.362 265.486 73.911 73.911c1.836 1.836 1.836 4.812 0 6.648-1.836 1.836-4.812 1.836-6.648 0l-73.81-73.81c-1.759-1.759-1.967-4.615-.338-6.495.941-1.086 2.251-1.633 3.561-1.633 1.204 0 2.407.462 3.324 1.379z" fill="url(#SVGID_28_)"/></g></g><path d="m166.37 333.64-43.688 43.689-26.025-26.025 43.688-43.688z" fill="url(#SVGID_29_)"/><path d="m143.296 316.069-38.185 38.185c-2.894 2.894-7.586 2.894-10.48 0-2.894-2.894-2.894-7.586 0-10.48l38.185-38.185c2.894-2.894 7.586-2.894 10.48 0 2.893 2.894 2.893 7.586 0 10.48z" fill="url(#SVGID_30_)"/></g><g><g><path d="m363.434 493.326c4.255 0 7.704-3.449 7.704-7.704v-395.319c0-4.255-3.449-7.704-7.704-7.704-4.255 0-7.704 3.449-7.704 7.704v395.319c0 4.255 3.449 7.704 7.704 7.704z" fill="url(#SVGID_31_)"/><g><path d="m356.967 504.481c-2.756-3.41-4.461-8.12-4.46-13.324 0-30.694 20.182-55.665 44.989-55.665h.662c11.337 0 8.958-5.513 16.91-15.524 7.978-10.045 12.377-23.438 12.388-37.712.009-11.959 1.891-23.628 5.594-34.683 3.711-11.081 9.063-20.995 15.91-29.466 7.359-9.105 11.411-21.21 11.411-34.085 0-12.874-4.052-24.979-11.411-34.084-6.846-8.471-12.2-18.386-15.911-29.468-3.711-11.083-5.593-22.779-5.593-34.764 0-14.197-4.468-27.545-12.582-37.584s-5.902-15.568-17.377-15.568c-24.807 0-44.989-24.971-44.989-55.665 0-10.407 6.818-18.843 15.229-18.843s15.229 8.436 15.229 18.842c0 9.914 6.519 17.981 14.532 17.98 19.61-.001 25.046 9.448 38.913 26.606 13.866 17.157 21.503 39.968 21.503 64.232 0 7.01 1.101 13.853 3.274 20.34 2.173 6.489 5.305 12.291 9.309 17.245 13.111 16.223 20.332 37.791 20.332 60.732 0 22.94-7.22 44.509-20.332 60.732-4.004 4.954-7.136 10.756-9.308 17.245-2.168 6.471-3.269 13.298-3.274 20.292-.018 24.203-7.519 46.965-21.122 64.091-13.724 17.279-19.061 26.795-38.633 26.795h-.662c-8.013 0-14.532 8.066-14.532 17.98 0 10.407-6.819 18.842-15.229 18.843-4.207-.002-8.014-2.111-10.77-5.52z" fill="url(#SVGID_32_)"/><path d="m385.829 473.177h.662c19.572 0 24.909-9.516 38.633-26.795 13.603-17.127 21.104-39.888 21.122-64.091.006-6.994 1.107-13.821 3.274-20.292 2.172-6.488 5.304-12.29 9.308-17.245 13.112-16.223 20.332-37.791 20.332-60.732s-7.221-44.509-20.332-60.732c-4.004-4.954-7.136-10.756-9.309-17.245-2.172-6.487-3.274-13.33-3.274-20.34 0-24.264-7.636-47.075-21.503-64.232-13.867-17.158-19.303-26.606-38.913-26.606-8.013.001-14.532-8.066-14.532-17.98 0-7.848-3.88-14.571-9.395-17.404-5.515 2.833-9.395 9.556-9.395 17.405 0 30.694 20.183 55.665 44.989 55.665 11.475 0 9.263 5.529 17.377 15.568s12.582 23.387 12.582 37.584c0 11.985 1.882 23.682 5.593 34.764 3.711 11.083 9.064 20.997 15.911 29.468 7.359 9.105 11.411 21.21 11.411 34.084 0 12.875-4.052 24.98-11.411 34.085-6.846 8.471-12.199 18.386-15.91 29.466-3.703 11.056-5.584 22.725-5.594 34.683-.011 14.274-4.41 27.667-12.388 37.712-7.951 10.01-5.573 15.524-16.91 15.524h-.662c-24.807 0-44.989 24.972-44.989 55.665 0 5.204 1.704 9.914 4.46 13.324 1.401 1.733 3.076 3.126 4.935 4.081 5.514-2.833 9.395-9.556 9.395-17.404.001-9.914 6.52-17.98 14.533-17.98z" fill="url(#SVGID_33_)"/></g></g><g><g><g><path d="m489.544 260.443c.919 5.865-5.878 11.801-15.181 13.259s-17.589-2.116-18.508-7.981 5.878-11.801 15.181-13.259 17.589 2.115 18.508 7.981z" fill="url(#SVGID_34_)"/><path d="m491.919 267.818c.919 5.865-5.878 11.801-15.181 13.259s-17.589-2.116-18.508-7.981 5.878-11.801 15.181-13.259 17.589 2.115 18.508 7.981z" fill="url(#SVGID_35_)"/></g><g><path d="m489.544 307.602c.919-5.865-5.878-11.801-15.181-13.259-9.303-1.457-17.589 2.116-18.508 7.981s5.878 11.801 15.181 13.259c9.303 1.457 17.589-2.116 18.508-7.981z" fill="url(#SVGID_36_)"/><path d="m491.919 300.227c.919-5.865-5.878-11.801-15.181-13.259-9.303-1.457-17.589 2.116-18.508 7.981s5.878 11.801 15.181 13.259c9.303 1.457 17.589-2.116 18.508-7.981z" fill="url(#SVGID_37_)"/></g></g><g><g><circle cx="476.247" cy="284.022" fill="url(#SVGID_38_)" r="19.101"/><path d="m493.297 284.022c0 9.416-7.634 17.05-17.05 17.05s-17.05-7.634-17.05-17.05 7.634-17.05 17.05-17.05c9.417 0 17.05 7.634 17.05 17.05z" fill="url(#SVGID_39_)"/><path d="m484.792 266.936c1.288 2.571 2.014 5.473 2.014 8.544 0 10.549-8.552 19.101-19.101 19.101-3.072 0-5.973-.726-8.544-2.014 3.136 6.259 9.609 10.556 17.086 10.556 10.549 0 19.101-8.552 19.101-19.101 0-7.477-4.297-13.95-10.556-17.086z" fill="url(#SVGID_40_)"/></g><path d="m489.163 275.847c0 4.901-5.782 8.875-12.915 8.875s-12.915-3.974-12.915-8.875c0-4.902 5.782-8.875 12.915-8.875 7.132 0 12.915 3.974 12.915 8.875z" fill="url(#SVGID_41_)"/></g></g></g></g><path d="m385.315 378.464c.776-2.366 1.201-4.89 1.201-7.515 0-9.305-5.274-17.373-12.992-21.394 4.577-4.389 7.432-10.56 7.432-17.403 0-9.887-5.953-18.38-14.469-22.101.136-7.556.347-13.909.63-18.455.171-2.747.258-65.815.258-68.609 0-67.944-51.164-116.989-114.279-116.989s-114.279 49.045-114.279 116.989c0 2.794.087 65.862.258 68.609.283 4.546.493 10.899.63 18.455-8.515 3.721-14.468 12.214-14.468 22.101 0 6.842 2.854 13.014 7.432 17.403-7.719 4.021-12.992 12.089-12.992 21.394 0 2.625.425 5.15 1.201 7.515-10.731 3.834-18.411 14.084-18.411 26.132 0 15.324 12.422 27.746 27.746 27.746 2.238 0 4.411-.272 6.495-.772-.404 4.421-.849 8.219-1.335 11.217l-3.161 19.492c-.849 5.234 3.015 10.166 8.888 11.345l51.941 10.428c39.527 7.935 80.585 7.935 120.112 0l51.941-10.428c5.873-1.179 9.737-6.111 8.888-11.345l-3.161-19.492c-.486-2.997-.93-6.795-1.335-11.217 2.084.5 4.257.772 6.495.772 15.324 0 27.746-12.422 27.746-27.746 0-12.048-7.681-22.298-18.412-26.132z" fill="url(#SVGID_42_)"/><path d="m333.001 384.752h-12.317c-20.378-.089-37.05-15.882-38.53-35.897-.036-.435-.062-.878-.071-1.312-.027-.523-.036-1.055-.036-1.587v-17.39h-28.95-.003-28.95v17.39c0 .532-.009 1.064-.035 1.587-.009.435-.036.878-.071 1.312-1.481 20.015-18.152 35.808-38.53 35.897h-12.317c-35.072 0-63.511 28.43-63.511 63.511v55.45c0 3.467 2.82 6.287 6.296 6.287h137.119.003 137.119c3.476 0 6.296-2.82 6.296-6.287v-55.45c-.001-35.081-28.44-63.511-63.512-63.511z" fill="url(#SVGID_43_)"/><path d="m134.148 430.588h220.508v79.412h-220.508z" fill="url(#SVGID_44_)"/><path d="m370.953 510h19.263c3.476 0 6.296-2.82 6.296-6.287v-55.45c0-35.081-28.439-63.511-63.511-63.511h-12.317c-20.378-.089-37.05-15.882-38.53-35.897-.035-.435-.062-.878-.071-1.312-.027-.523-.036-1.055-.036-1.587v-17.39h-28.95-.003-28.95v17.39c0 .532-.009 1.064-.035 1.587-.009.435-.035.878-.071 1.312-.3 4.055-1.233 7.932-2.685 11.545z" fill="url(#SVGID_45_)"/><path d="m394.478 508.328c-13.291-47.272-42.881-71.49-60.577-82.188-3.967-2.398-8.608-3.426-13.221-2.97v15.37c14.375 7.698 43.74 28.139 57.958 71.46h11.577c1.647 0 3.141-.637 4.263-1.672z" fill="url(#SVGID_46_)"/><path d="m320.684 423.174s53.081 18.826 69.532 86.826c3.517 0 6.427-2.727 6.658-6.236.742-11.29 2.757-35.765 7.203-55.391 4.869-21.491-6.072-43.496-26.254-52.342-14.42-6.321-33.322-11.279-57.14-11.279v38.422z" fill="url(#SVGID_47_)"/><g><path d="m367.458 389.439c-8.374-3.625-17.606-5.639-27.312-5.639h-13.365c-7.673-.033-14.862-2.12-21.045-5.738-3.453-2.02-7.813-1.455-10.622 1.394-9.002 9.13-23.615 15.068-40.114 15.068-17.093 0-32.158-6.374-41.059-16.068-2.891-3.149-7.604-3.71-11.193-1.387-6.529 4.226-14.3 6.695-22.648 6.731h-13.366c-8.144 0-15.955 1.418-23.204 4.016-8.505 3.048-11.181 13.578-5.216 20.364 18.766 21.35 64.165 42.161 117.193 42.161 51.953 0 96.579-19.974 116.015-40.862 5.863-6.3 3.834-16.621-4.064-20.04z" fill="url(#SVGID_48_)"/><path d="m255 454.627c-51.627 0-99.521-19.725-124.993-51.477-2.227-2.776-2.366-7.464-.311-10.472 2.054-3.007 5.525-3.196 7.752-.42 23.527 29.328 68.57 47.548 117.552 47.548s94.025-18.219 117.552-47.548c2.227-2.776 5.697-2.588 7.752.42s1.915 7.696-.311 10.472c-25.472 31.752-73.366 51.477-124.993 51.477z" fill="url(#SVGID_49_)"/></g><path d="m379.988 403.149c-.341.427-.683.843-1.035 1.27-16.014 19.311-40.414 34.045-68.848 42.41l-52.353-52.353c15.363-.619 28.86-6.401 37.363-15.022.896-.907 1.952-1.59 3.094-2.006 2.411-.939 5.174-.758 7.522.619 6.188 3.617 13.379 5.697 21.05 5.729h13.368c9.698 0 18.938 2.016 27.313 5.644 1.857.811 3.382 2.006 4.566 3.446.171-.213.352-.416.523-.629 2.23-2.774 5.697-2.582 7.756.427 2.05 3.007 1.911 7.691-.319 10.465z" fill="url(#SVGID_50_)"/><g><g><circle cx="202.674" cy="408.84" fill="url(#SVGID_51_)" r="14.333"/><g><g><circle cx="202.674" cy="408.84" fill="url(#SVGID_52_)" r="9.755"/><circle cx="202.674" cy="408.84" fill="url(#SVGID_53_)" r="8.141"/><path d="m207.037 400.114c.658 1.313 1.029 2.795 1.029 4.364 0 5.387-4.367 9.755-9.755 9.755-1.569 0-3.051-.371-4.364-1.029 1.602 3.197 4.907 5.391 8.726 5.391 5.387 0 9.755-4.367 9.755-9.755.001-3.818-2.194-7.124-5.391-8.726z" fill="url(#SVGID_54_)"/></g></g></g><g><circle cx="255" cy="418.443" fill="url(#SVGID_55_)" r="14.333"/><g><g><circle cx="255" cy="418.443" fill="url(#SVGID_56_)" r="9.755"/><circle cx="255" cy="418.443" fill="url(#SVGID_57_)" r="8.141"/><path d="m259.364 409.717c.658 1.313 1.029 2.795 1.029 4.364 0 5.387-4.367 9.755-9.755 9.755-1.569 0-3.051-.371-4.364-1.029 1.602 3.197 4.907 5.391 8.726 5.391 5.387 0 9.755-4.367 9.755-9.755 0-3.819-2.195-7.125-5.391-8.726z" fill="url(#SVGID_58_)"/></g></g></g><g><circle cx="307.326" cy="408.84" fill="url(#SVGID_59_)" r="14.333"/><g><g><circle cx="307.326" cy="408.84" fill="url(#SVGID_60_)" r="9.755"/><circle cx="307.326" cy="408.84" fill="url(#SVGID_61_)" r="8.141"/><path d="m311.69 400.114c.658 1.313 1.029 2.795 1.029 4.364 0 5.387-4.367 9.755-9.755 9.755-1.569 0-3.051-.371-4.364-1.029 1.602 3.197 4.907 5.391 8.726 5.391 5.387 0 9.755-4.367 9.755-9.755 0-3.818-2.194-7.124-5.391-8.726z" fill="url(#SVGID_62_)"/></g></g></g></g><path d="m303.082 371.337c-1.725 0-3.363.831-4.318 2.268-6.784 10.21-23.815 17.454-43.764 17.454s-36.98-7.244-43.764-17.454c-.955-1.437-2.592-2.268-4.318-2.268-4.615 0-6.978 5.508-3.821 8.874 10.02 10.684 29.501 17.935 51.903 17.935s41.883-7.25 51.903-17.935c3.157-3.366.794-8.874-3.821-8.874z" fill="url(#SVGID_63_)"/><path d="m253.097 364.083c-51.022 0-92.384-41.362-92.384-92.384v-68.819c0-51.022 41.362-92.384 92.384-92.384 51.022 0 92.384 41.362 92.384 92.384v68.819c0 51.023-41.362 92.384-92.384 92.384z" fill="url(#SVGID_64_)"/><path d="m262.086 190.338c-1.238.238-2.09 1.393-2.09 2.654v18.056c0 .505-.288 1.03-.794 1.494-.715.655-1.689.952-2.659.952h-3.086c-.97 0-1.944-.296-2.659-.952-.506-.464-.794-.989-.794-1.494v-18.056c0-1.261-.853-2.416-2.091-2.653-1.666-.319-3.122.949-3.122 2.557v18.153c0 3.836 3.182 6.964 7.603 7.86v4.664c0 1.26.852 2.416 2.09 2.654 1.666.32 3.123-.949 3.123-2.557v-4.762c4.42-.897 7.603-4.024 7.603-7.86v-18.153c-.001-1.608-1.458-2.877-3.124-2.557z" fill="url(#SVGID_65_)"/><g><g><g><path d="m223.088 240.948c0 9.058-7.343 16.401-16.401 16.401s-16.401-7.343-16.401-16.401 7.343-16.401 16.401-16.401 16.401 7.343 16.401 16.401z" fill="url(#SVGID_66_)"/><path d="m220.375 240.948c0 7.56-6.128 13.688-13.688 13.688s-13.688-6.128-13.688-13.688 6.128-13.688 13.688-13.688 13.688 6.128 13.688 13.688z" fill="url(#SVGID_67_)"/><path d="m214.024 226.276c1.106 2.208 1.73 4.699 1.73 7.337 0 9.058-7.343 16.401-16.401 16.401-2.637 0-5.129-.623-7.337-1.73 2.693 5.374 8.25 9.064 14.671 9.064 9.058 0 16.401-7.343 16.401-16.401 0-6.42-3.69-11.978-9.064-14.671z" fill="url(#SVGID_68_)"/></g></g><g><g><path d="m315.907 240.948c0 9.058-7.343 16.401-16.401 16.401s-16.401-7.343-16.401-16.401 7.343-16.401 16.401-16.401c9.059 0 16.401 7.343 16.401 16.401z" fill="url(#SVGID_69_)"/><path d="m313.195 240.948c0 7.56-6.128 13.688-13.688 13.688s-13.688-6.128-13.688-13.688 6.128-13.688 13.688-13.688c7.559 0 13.688 6.128 13.688 13.688z" fill="url(#SVGID_70_)"/><path d="m306.843 226.276c1.106 2.208 1.73 4.699 1.73 7.337 0 9.058-7.343 16.401-16.401 16.401-2.637 0-5.129-.623-7.336-1.73 2.693 5.374 8.25 9.064 14.671 9.064 9.058 0 16.401-7.343 16.401-16.401-.001-6.42-3.69-11.978-9.065-14.671z" fill="url(#SVGID_71_)"/></g></g></g><path d="m258.345 304.732h-10.496c-8.412 0-14.965-7.296-14.065-15.66l5.488-51.015h27.651l5.488 51.015c.899 8.364-5.654 15.66-14.066 15.66z" fill="url(#SVGID_72_)"/><path d="m368.38 310.98v23.45c0 9.53-5.15 15.21-12.49 15.21-2.61 0-5.49-.72-8.52-2.23-2.2-1.11-3.6-3.36-3.6-5.83v-60.95c0-4.69-1.86-9.19-5.18-12.5-3.31-3.32-5.18-7.81-5.18-12.5v-20.23c0-5.03-2.8-9.75-7.37-11.85-3.39-1.55-6.26-4.04-8.28-7.13-2.02-3.1-3.2-6.8-3.2-10.77v-9.844c0-12.5-10.14-22.64-22.65-22.64h-11.198c-5.357 0-10.586 1.633-14.992 4.68-7.594 5.253-17.647 5.255-25.243.005l-.007-.005c-4.41-3.05-9.64-4.68-15-4.68h-11.19c-12.51 0-22.65 10.14-22.65 22.64v9.844c0 7.95-4.7 14.79-11.48 17.9-4.57 2.1-7.37 6.82-7.37 11.85v20.23c0 4.69-1.87 9.18-5.18 12.5-3.32 3.31-5.18 7.81-5.18 12.5v58.08c0 1.63-.32 3.23-.94 4.71-1.233 2.992-3.651 5.493-6.923 6.76-9.102 3.524-16.747-2.112-16.747-11.873v-27.327c.62-.34 1.25-.65 1.89-.93-.13-7.56-.34-13.91-.63-18.45-.17-2.75-.25-63.094-.25-65.884 0-65.71 47.84-120.38 108.08-123.85h12.4c60.23 3.47 108.07 58.14 108.07 123.85 0 2.79-.08 63.134-.25 65.884-.29 4.54-.5 10.89-.63 18.45.65.28 1.28.59 1.89.93z" fill="url(#SVGID_73_)"/><g><g><g><path d="m134.944 353.49c-5.052-.151-9.307 4.626-9.503 10.671l-1.107 62.802c-.185 5.702 3.514 11.056 8.221 11.898 6.018 1.077 11.47-4.605 11.414-11.895l-.226-62.783c-.045-5.84-3.918-10.546-8.799-10.693z" fill="url(#SVGID_74_)"/><path d="m99.252 349.992c-5.052-.158-9.307 4.819-9.503 11.116l-1.107 65.421c-.185 5.939 3.514 11.517 8.221 12.395 6.018 1.122 11.47-4.797 11.414-12.391l-.226-65.402c-.045-6.085-3.918-10.987-8.799-11.139z" fill="url(#SVGID_75_)"/><path d="m81.4 358.874c-5.052-.151-9.307 4.626-9.503 10.67l-1.102 57.521c-.185 5.701 3.514 11.055 8.221 11.898 6.018 1.077 11.47-4.604 11.414-11.894l-.231-57.502c-.045-5.841-3.917-10.547-8.799-10.693z" fill="url(#SVGID_76_)"/><path d="m117.108 338.713c-5.052-.158-9.307 4.819-9.503 11.116l-1.117 76.667c-.185 5.94 3.514 11.517 8.221 12.395 6.018 1.122 11.47-4.797 11.414-12.391l-.216-76.647c-.045-6.086-3.917-10.988-8.799-11.14z" fill="url(#SVGID_77_)"/></g><path d="m138.516 419.338c-.068-.006-.135-.009-.2-.009.068.003.135.006.2.012z" fill="url(#SVGID_78_)"/><path d="m97.871 395.815h4.128 21.496c10.863 0 20.005 8.208 21.085 19.017.141 1.408.301 2.726.482 3.901.207 1.348.314 2.729.314 4.136v21.002.741l-.026.056c-.127 2.424-.825 4.788-2.052 6.891l-2.575 4.416c-2.29 3.927-3.496 8.391-3.496 12.937v36.648c0 2.452-1.988 4.439-4.439 4.439h-49.34c-2.452 0-4.439-1.988-4.439-4.439v-36.646c0-4.513-1.426-8.911-4.075-12.565-2.649-3.654-4.075-8.052-4.075-12.565v-20.956c-.001-14.918 12.093-27.013 27.012-27.013z" fill="url(#SVGID_79_)"/><path d="m70.857 422.828v20.957c0 2.259.357 4.485 1.045 6.604.688 2.122 1.708 4.136 3.03 5.962 2.648 3.653 4.075 8.048 4.075 12.563v36.644c0 2.453 1.989 4.442 4.439 4.442h49.343c2.45 0 4.439-1.989 4.439-4.442v-36.648c0-4.532 1.2-8.982 3.477-12.901-2.153 3.692-6.105 5.962-10.379 5.962h-5.56c-4.442 0-8.463-1.801-11.374-4.712s-4.712-6.932-4.712-11.374c0-4.266 1.693-8.358 4.712-11.377l6.867-6.863c1.589-1.592 1.38-4.23-.443-5.552l-12.811-9.281c-2.85-2.064-4.424-5.325-4.424-8.672 0-.913.118-1.833.358-2.738.147-.555 5.831-5.587 5.831-5.587h-10.899c-14.919 0-27.014 12.094-27.014 27.013z" fill="url(#SVGID_80_)"/><path d="m137.226 461.971 6.071-10.411c1.361-2.334 2.078-4.987 2.078-7.688v-21.002c0-5.666-3.139-10.866-8.153-13.505l-24.366-12.826c-3.46-1.821-7.738-.345-9.339 3.222-2.076 4.626-.621 10.075 3.486 13.05l12.812 9.282c1.823 1.321 2.032 3.959.441 5.551l-6.866 6.866c-3.017 3.017-4.712 7.108-4.712 11.375 0 8.884 7.202 16.087 16.087 16.087h12.461z" fill="url(#SVGID_81_)"/></g><path d="m79.007 475.386h58.22v25.956h-58.22z" fill="url(#SVGID_82_)"/><path d="m77.253 462.451h.753c.022.068.043.141.064.218 1.295 4.758 5.533 8.115 10.463 8.115h39.005c4.989 0 9.301-3.426 10.501-8.269.005-.022.011-.043.016-.064h1.494c5.095 0 9.226 4.131 9.226 9.226 0 5.095-4.131 9.226-9.226 9.226h-62.297c-5.095 0-9.226-4.131-9.226-9.226.001-5.095 4.131-9.226 9.227-9.226z" fill="url(#SVGID_83_)"/><path d="m137.226 499.442v6.115c0 2.453-1.989 4.442-4.439 4.442h-49.342c-2.45 0-4.439-1.989-4.439-4.442v-6.115z" fill="url(#SVGID_84_)"/><path d="m68.028 495.032c-.053 2.624.989 5.004 2.698 6.717 1.671 1.668 3.978 2.7 6.526 2.7h62.298c5.093 0 9.226-4.129 9.226-9.226 0-2.548-1.032-4.855-2.703-6.526-1.671-1.668-3.978-2.7-6.522-2.7h-2.324c0 4.411-3.576 7.986-7.986 7.986h-42.249c-4.411 0-7.986-3.576-7.986-7.986h-1.569c-5.052 0-9.307 3.984-9.409 9.035z" fill="url(#SVGID_85_)"/></g><g><path d="m253.095 79.16c-38.464 0-48.854-29.604-18.847-46.547 10.382-5.864 15.047-13.936 17.139-20.004-.004-.004-.004-.004 0-.004.029-.082.054-.165.083-.244.254-.559.887-.957 1.625-.957s1.371.398 1.625.957c.029.079.054.161.083.244.004 0 .004 0 0 .004 2.091 6.068 6.757 14.14 17.139 20.004 30.007 16.944 19.618 46.547-18.847 46.547z" fill="url(#SVGID_86_)"/><ellipse cx="253.095" cy="74.565" fill="url(#SVGID_87_)" rx="32.724" ry="18.511"/><g><ellipse cx="253.095" cy="117.918" fill="url(#SVGID_88_)" rx="68.86" ry="50.978"/><g fill="url(#SVGID_89_)"><ellipse cx="253.095" cy="117.918" rx="41.088" ry="50.978"/><ellipse cx="253.095" cy="117.918" rx="12.114" ry="50.978"/></g></g><ellipse cx="253.095" cy="133.909" fill="url(#SVGID_91_)" rx="79.286" ry="38.407"/><g><path d="m362.732 202.288h-20.519c-.342-.189-.683-.378-1.035-.567-13.459-7.388-28.45-13.123-44.507-16.836-13.821-3.222-28.45-4.941-43.575-4.941-15.126 0-29.754 1.72-43.575 4.941-16.057 3.713-31.048 9.448-44.507 16.836-.352.189-.694.378-1.035.567h-20.519c0-2.154.083-4.299.238-6.415 3.655-50.48 50.263-90.511 107.546-91.352.621-.009 1.232-.019 1.853-.019s1.232.009 1.853.019c57.282.841 103.891 40.872 107.545 91.352.154 2.117.237 4.261.237 6.415z" fill="url(#SVGID_92_)"/><path d="m341.177 201.722c-13.459-7.388-28.45-13.123-44.507-16.836-13.821-3.222-28.45-4.941-43.575-4.941-15.126 0-29.754 1.72-43.575 4.941-16.057 3.713-31.048 9.448-44.507 16.836.041-10.081 1.47-19.793 4.079-28.93 11.264-39.587 44.611-68.29 84.003-68.29s72.739 28.703 84.003 68.29c2.609 9.136 4.038 18.849 4.079 28.93z" fill="url(#SVGID_93_)"/><path d="m296.67 184.885c-13.821-3.222-28.45-4.941-43.575-4.941-15.126 0-29.754 1.72-43.575 4.941.797-9.835 2.257-19.151 4.286-27.72 7.382-31.292 22.207-52.663 39.289-52.663s31.908 21.371 39.289 52.663c2.029 8.569 3.489 17.885 4.286 27.72z" fill="url(#SVGID_94_)"/></g><path d="m356.694 207.793c0 1.099-.183 2.161-.542 3.195-3.604-7.004-9.266-12.946-16.339-17.045-24.313-14.088-54.287-22.401-86.718-22.401s-62.405 8.313-86.718 22.401c-7.073 4.099-12.735 10.04-16.339 17.045-.359-1.034-.542-2.096-.542-3.195 0-36.916 46.385-66.849 103.599-66.849s103.599 29.933 103.599 66.849z" fill="url(#SVGID_95_)"/><g><path d="m147.715 211.408c-.035.234-.069.468-.102.703-.535 3.782 3.855 6.308 6.944 4.003 25.86-19.296 60.485-31.093 98.537-31.093s72.678 11.797 98.537 31.093c3.089 2.305 7.479-.221 6.944-4.003-.033-.235-.067-.469-.102-.703-1.81-12.159-9.241-22.82-19.948-29.117-23.956-14.087-53.485-22.404-85.432-22.404s-61.476 8.317-85.432 22.404c-10.705 6.296-18.136 16.958-19.946 29.117z" fill="url(#SVGID_96_)"/></g><g><circle cx="253.095" cy="169.633" fill="url(#SVGID_97_)" r="9.319"/><g><g><circle cx="253.095" cy="169.633" fill="url(#SVGID_98_)" r="6.342"/><circle cx="253.095" cy="169.633" fill="url(#SVGID_99_)" r="5.293"/><path d="m255.932 163.96c.428.854.669 1.817.669 2.837 0 3.503-2.84 6.342-6.342 6.342-1.02 0-1.983-.241-2.837-.669 1.041 2.078 3.191 3.505 5.673 3.505 3.503 0 6.342-2.84 6.342-6.342.001-2.482-1.426-4.632-3.505-5.673z" fill="url(#SVGID_100_)"/></g></g></g><g><g><g><path d="m250.355 114.331-15.214 21.141c-.789 1.097-.789 2.549 0 3.646l15.214 21.141c1.325 1.842 4.156 1.842 5.481 0l15.214-21.141c.79-1.097.79-2.549 0-3.646l-15.214-21.141c-1.325-1.842-4.156-1.842-5.481 0z" fill="url(#SVGID_101_)"/><path d="m250.695 117.181-13.325 18.517c-.691.961-.691 2.233 0 3.194l13.325 18.517c1.161 1.613 3.64 1.613 4.801 0l13.325-18.517c.691-.961.691-2.233 0-3.194l-13.325-18.517c-1.161-1.613-3.641-1.613-4.801 0z" fill="url(#SVGID_102_)"/><path d="m256.824 119.028c-.963-1.338-3.026-1.514-4.109-.264-.056.065-.11.133-.162.205l-12.4 17.231c-1.248 1.735-1.248 4.031 0 5.766l11.83 16.439c1.208.475 2.69.146 3.511-.996l13.325-18.517c.691-.961.691-2.233 0-3.194z" fill="url(#SVGID_103_)"/></g><path d="m255.496 117.181c-.662-.919-1.752-1.313-2.782-1.184v42.594c1.03.129 2.12-.264 2.782-1.184l13.325-18.517c.691-.961.691-2.233 0-3.194z" fill="url(#SVGID_104_)"/><path d="m250.695 157.408c1.161 1.613 3.64 1.613 4.801 0l13.325-18.517c.346-.48.519-1.039.519-1.597h-32.488c0 .558.173 1.116.519 1.597z" fill="url(#SVGID_105_)"/></g></g><g><g><g><g><path d="m118.527 191.391c9.886 11.129 22.193 17.855 33.11 19.154 1.408.167 2.659-.944 2.659-2.362-.003-10.994-5.232-24.007-15.118-35.137s-22.193-17.855-33.11-19.154c-1.408-.167-2.659.944-2.659 2.362.003 10.994 5.232 24.008 15.118 35.137z" fill="url(#SVGID_106_)"/><path d="m154.295 208.184c-.003-10.994-5.232-24.007-15.118-35.137-9.886-11.129-22.193-17.855-33.11-19.154-.704-.084-1.368.152-1.857.586l49.284 55.48c.489-.434.802-1.067.801-1.775z" fill="url(#SVGID_107_)"/></g><g><path d="m128.179 179.519c4.928 14.047 13.765 24.937 23.374 30.279 1.239.689 2.818.135 3.355-1.177 4.166-10.174 4.262-24.198-.666-38.245s-13.765-24.937-23.374-30.279c-1.239-.689-2.818-.135-3.355 1.177-4.166 10.174-4.262 24.198.666 38.245z" fill="url(#SVGID_108_)"/><path d="m154.909 208.62c4.166-10.174 4.262-24.198-.666-38.245s-13.765-24.937-23.374-30.279c-.619-.344-1.324-.378-1.941-.162l24.567 70.024c.616-.216 1.145-.682 1.414-1.338z" fill="url(#SVGID_109_)"/></g></g><g><g><circle cx="148.617" cy="203.886" fill="url(#SVGID_110_)" r="19.101"/><path d="m165.667 203.886c0 9.416-7.634 17.05-17.05 17.05s-17.05-7.634-17.05-17.05 7.634-17.05 17.05-17.05c9.417 0 17.05 7.633 17.05 17.05z" fill="url(#SVGID_111_)"/><path d="m157.162 186.799c1.288 2.571 2.014 5.473 2.014 8.544 0 10.549-8.552 19.101-19.101 19.101-3.072 0-5.973-.726-8.544-2.014 3.136 6.259 9.609 10.556 17.086 10.556 10.549 0 19.101-8.552 19.101-19.101 0-7.477-4.297-13.95-10.556-17.086z" fill="url(#SVGID_112_)"/></g><path d="m161.533 195.711c0 4.901-5.782 8.875-12.915 8.875s-12.915-3.974-12.915-8.875c0-4.902 5.782-8.875 12.915-8.875 7.132 0 12.915 3.973 12.915 8.875z" fill="url(#SVGID_113_)"/></g></g><g><g><g><path d="m387.663 191.391c-9.886 11.129-22.193 17.855-33.11 19.154-1.408.167-2.659-.944-2.659-2.362.003-10.994 5.232-24.007 15.118-35.137 9.886-11.129 22.193-17.855 33.11-19.154 1.408-.167 2.659.944 2.659 2.362-.003 10.994-5.231 24.008-15.118 35.137z" fill="url(#SVGID_114_)"/><path d="m351.895 208.184c.003-10.994 5.232-24.007 15.118-35.137 9.886-11.129 22.193-17.855 33.11-19.154.704-.084 1.368.152 1.857.586l-49.284 55.48c-.488-.434-.801-1.067-.801-1.775z" fill="url(#SVGID_115_)"/></g><g><path d="m378.011 179.519c-4.928 14.047-13.765 24.937-23.374 30.279-1.239.689-2.818.135-3.355-1.177-4.166-10.174-4.262-24.198.666-38.245s13.765-24.937 23.374-30.279c1.239-.689 2.818-.135 3.355 1.177 4.166 10.174 4.262 24.198-.666 38.245z" fill="url(#SVGID_116_)"/><path d="m351.282 208.62c-4.166-10.174-4.262-24.198.666-38.245s13.765-24.937 23.374-30.279c.619-.344 1.324-.378 1.941-.162l-24.567 70.024c-.617-.216-1.146-.682-1.414-1.338z" fill="url(#SVGID_117_)"/></g></g><g><g><circle cx="357.573" cy="203.886" fill="url(#SVGID_118_)" r="19.101"/><path d="m374.623 203.886c0 9.416-7.634 17.05-17.05 17.05s-17.05-7.634-17.05-17.05 7.634-17.05 17.05-17.05 17.05 7.633 17.05 17.05z" fill="url(#SVGID_119_)"/><path d="m366.117 186.799c1.288 2.571 2.014 5.473 2.014 8.544 0 10.549-8.552 19.101-19.101 19.101-3.072 0-5.973-.726-8.544-2.014 3.136 6.259 9.609 10.556 17.086 10.556 10.549 0 19.101-8.552 19.101-19.101.001-7.477-4.297-13.95-10.556-17.086z" fill="url(#SVGID_120_)"/></g><path d="m370.488 195.711c0 4.901-5.782 8.875-12.915 8.875s-12.915-3.974-12.915-8.875c0-4.902 5.782-8.875 12.915-8.875s12.915 3.973 12.915 8.875z" fill="url(#SVGID_121_)"/></g></g></g></g></g></svg>