<svg xmlns="http://www.w3.org/2000/svg" version="1.1" xmlns:xlink="http://www.w3.org/1999/xlink" width="512" height="512" x="0" y="0" viewBox="0 0 682.667 682.667" style="enable-background:new 0 0 512 512" xml:space="preserve" class=""><g><defs><clipPath id="a" clipPathUnits="userSpaceOnUse"><path d="M0 512h512V0H0Z" fill="#000000" opacity="1" data-original="#000000"></path></clipPath></defs><g clip-path="url(#a)" transform="matrix(1.33333 0 0 -1.33333 0 682.667)"><path d="M0 0c27.744 39.712 44.031 88.021 44.031 140.139 0 135.31-109.69 245-245 245s-245-109.69-245-245c0-47.68 13.634-92.168 37.196-129.807z" style="fill-opacity:1;fill-rule:nonzero;stroke:none" transform="translate(456.97 104.86)" fill="#ebebeb" data-original="#f94a38" class="" opacity="1"></path><path d="M0 0c0-110.457-89.543-200-200-200S-400-110.457-400 0s89.543 200 200 200S0 110.457 0 0" style="fill-opacity:1;fill-rule:nonzero;stroke:none" transform="translate(456 270)" fill="#ffffff" data-original="#d82f1d" class="" opacity="1"></path><path d="M0 0c0 12.15-19.678 22-43.951 22-24.274 0-43.951-9.85-43.951-22s19.677-22 43.951-22C-19.678-22 0-12.15 0 0" style="fill-opacity:1;fill-rule:nonzero;stroke:none" transform="translate(299.951 490)" fill="#656565" data-original="#f2e1bb" class="" opacity="1"></path><path d="M0 0v15.119c0 55.228 44.771 100 100 100s100-44.772 100-100V0Z" style="fill-opacity:1;fill-rule:nonzero;stroke:none" transform="translate(156 359.881)" fill="#656565" data-original="#fcf1d4" class="" opacity="1"></path><path d="M0 0c-55.229 0-100-44.771-100-100v-15.119H0Z" style="fill-opacity:1;fill-rule:nonzero;stroke:none" transform="translate(256 475)" fill="#656565" data-original="#f2e1bb" class="" opacity="1"></path><path d="M0 0c-36.27 0-68.249-18.366-87.148-46.304a23.295 23.295 0 0 1-2.348-21.697l30.828-77.117H56.4l31.654 79.184c2.932 7.333 1.985 15.684-2.625 22.097C66.345-17.289 35.192 0 0 0" style="fill-opacity:1;fill-rule:nonzero;stroke:none" transform="translate(256.714 490)" fill="#656565" data-original="#fff9eb" class="" opacity="1"></path><path d="m0 0 141.388-28.381.008-.004c50.746 16.74 94.157 49.612 124.162 92.55l-.002.026c-8.255 22.709-16.99 42.685-24.722 51.911-.904 1.079-1.795 2.019-2.669 2.79-23.413 20.673-123.588 37.435-126.172 37.863v93.336H17.221v-93.336c-2.583-.428-102.759-17.19-126.172-37.863-.874-.771-1.764-1.711-2.668-2.79-7.081-8.449-15.002-25.915-22.627-46.238z" style="fill-opacity:1;fill-rule:nonzero;stroke:none" transform="translate(191.393 40.67)" fill="#ff988a" data-original="#ff988a" class=""></path><path d="m0 0 141.388-28.381C68.344 66.257 64.692 155.176 64.609 250.091H17.221v-93.336c-2.583-.428-102.759-17.19-126.172-37.863-.874-.771-1.764-1.711-2.668-2.79-7.081-8.449-15.002-25.915-22.627-46.238z" style="fill-opacity:1;fill-rule:nonzero;stroke:none" transform="translate(191.393 40.67)" fill="#f77f72" data-original="#f77f72" class=""></path><path d="M0 0s10.385 25.285 28.897 19.415c18.513-5.869-.447-60.663-36.573-64.116Z" style="fill-opacity:1;fill-rule:nonzero;stroke:none" transform="translate(331.058 352.433)" fill="#ff988a" data-original="#ff988a" class=""></path><path d="M0 0s-10.385 25.285-28.897 19.415c-18.513-5.869.447-60.663 36.573-64.116Z" style="fill-opacity:1;fill-rule:nonzero;stroke:none" transform="translate(180.942 352.433)" fill="#f77f72" data-original="#f77f72" class=""></path><path d="M0 0c-3.509 10.287-9.219 24.496-16.225 32.717-3.978 3.853-8.145 7.046-12.399 9.103-8.195 3.963-15.758 4.069-22.16 2.497a84.976 84.976 0 0 0-40.53 0c-6.402 1.572-13.966 1.466-22.161-2.497-4.253-2.057-8.421-5.25-12.399-9.103-7.006-8.221-12.716-22.43-16.225-32.717a31.291 31.291 0 0 0-16.484-18.295c-.031-1.23-.063-2.46-.063-3.705 0-64.505 39.218-140.155 87.597-140.155 48.378 0 87.597 75.65 87.597 140.155 0 1.245-.033 2.475-.064 3.705A31.291 31.291 0 0 0 0 0" style="fill-opacity:1;fill-rule:nonzero;stroke:none" transform="translate(327.05 387.245)" fill="#ffa88d" data-original="#ffa88d" class=""></path><path d="M0 0c0 25.925 6.339 48.917 17.057 67.152-3.755-.312-7.739-1.327-11.885-3.332-4.254-2.057-8.421-5.25-12.399-9.103-7.006-8.221-12.716-22.43-16.225-32.717A31.29 31.29 0 0 0-39.937 3.705C-39.968 2.475-40 1.245-40 0c0-64.505 39.219-140.155 87.597-140.155 6.881 0 13.576 1.534 20 4.346C28.856-118.856 0-55.33 0 0" style="fill-opacity:1;fill-rule:nonzero;stroke:none" transform="translate(208.403 365.246)" fill="#ff988a" data-original="#ff988a" class=""></path><path d="M0 0h-9.758c-11.217-24.285-18.063-43.159-22.214-56.688-3.071-10.01-15.155-13.808-23.485-7.465-8.492 6.466-19.913 12.155-33.812 12.155-13.898 0-25.319-5.689-33.812-12.155-8.33-6.343-20.414-2.545-23.485 7.465-4.151 13.529-10.997 32.403-22.213 56.688h-9.759c-15.874-113.231 33.971-180.211 89.269-180.211C-33.971-180.211 15.874-113.231 0 0" style="fill-opacity:1;fill-rule:nonzero;stroke:none" transform="translate(345.269 377.636)" fill="#656565" data-original="#fcf1d4" class="" opacity="1"></path><path d="m0 0 .001.002c-8.279-5.453-19.645-1.582-22.61 8.083-4.151 13.529-10.997 32.403-22.214 56.688h-9.758C-70.455-48.458-20.61-115.438 34.688-115.438-17.716-84.885-15.972-11.693 0 0" style="fill-opacity:1;fill-rule:nonzero;stroke:none" transform="translate(221.312 312.863)" fill="#656565" data-original="#f2e1bb" class="" opacity="1"></path><path d="m0 0 8.436 13.441c2.569 4.093 8.533 4.093 11.102 0L27.974 0c2.739-4.365-.398-10.038-5.552-10.038H5.551C.398-10.038-2.739-4.365 0 0" style="fill-opacity:1;fill-rule:nonzero;stroke:none" transform="translate(242.013 319.553)" fill="#f77f72" data-original="#f77f72" class=""></path><path d="M0 0h41.233a31.184 31.184 0 0 1 9.01 13.631c1.584 4.811-2.069 9.754-7.134 9.754H-1.876c-5.065 0-8.718-4.943-7.134-9.754A31.175 31.175 0 0 1 0 0" style="fill-opacity:1;fill-rule:nonzero;stroke:none" transform="translate(235.384 271.13)" fill="#3a082d" data-original="#3a082d"></path><path d="M0 0a31.059 31.059 0 0 0-20.616-7.798A31.06 31.06 0 0 0-41.233 0c5.5 4.849 12.714 7.798 20.617 7.798C-12.714 7.798-5.5 4.849 0 0" style="fill-opacity:1;fill-rule:nonzero;stroke:none" transform="translate(276.616 271.13)" fill="#ebebeb" data-original="#f94a38" class="" opacity="1"></path><path d="M0 0a12.468 12.468 0 0 1-4.242 9.539c-4.675 4.128-11.839 4.128-16.514 0A12.468 12.468 0 0 1-24.998 0c.055-4.538 5.629-6.716 8.838-3.507a5.177 5.177 0 0 0 7.322 0C-5.629-6.716-.055-4.538 0 0" style="fill-opacity:1;fill-rule:nonzero;stroke:none" transform="translate(311 349.915)" fill="#3a082d" data-original="#3a082d"></path><path d="M0 0a12.468 12.468 0 0 0 4.242 9.539c4.675 4.128 11.839 4.128 16.514 0A12.468 12.468 0 0 0 24.998 0c-.055-4.538-5.629-6.716-8.838-3.507a5.177 5.177 0 0 1-7.322 0C5.629-6.716.055-4.538 0 0" style="fill-opacity:1;fill-rule:nonzero;stroke:none" transform="translate(201 349.915)" fill="#3a082d" data-original="#3a082d"></path><path d="M0 0h-20a7.5 7.5 0 0 0 0 15H0A7.5 7.5 0 0 0 0 0" style="fill-opacity:1;fill-rule:nonzero;stroke:none" transform="translate(223.5 373.032)" fill="#656565" data-original="#fff9eb" class="" opacity="1"></path><path d="M0 0h-20a7.5 7.5 0 0 0 0 15H0A7.5 7.5 0 0 0 0 0" style="fill-opacity:1;fill-rule:nonzero;stroke:none" transform="translate(308.5 373.032)" fill="#656565" data-original="#fff9eb" class="" opacity="1"></path><path d="M0 0c14.994 0 29.671 1.353 43.922 3.933L-35.17 90.552l-35.216 112.753c-8.351-1.651-17.936-3.655-27.004-5.738a696.588 696.588 0 0 1-14.797-3.563c-35.348-8.935-57.594-17.749-68.01-26.945-5.248-4.634-13.717-15.087-27.607-51.867C-164.5 46.016-87.63 0 0 0" style="fill-opacity:1;fill-rule:nonzero;stroke:none" transform="translate(256)" fill="#fcb332" data-original="#fcb332" class=""></path><path d="M0 0c-32.59-8.517-53.311-16.944-63.25-25.72-5.249-4.634-13.717-15.086-27.607-51.866 43.303-69.177 120.174-115.193 207.803-115.193C10.942-159.822.663-36.878 0 0" style="fill-opacity:1;fill-rule:nonzero;stroke:none" transform="translate(139.054 192.779)" fill="#fb8b24" data-original="#fb8b24" class=""></path><path d="M0 0v-21.327a246.275 246.275 0 0 1 22.599-18.262L10.564 1.515C8.813 7.494 0 6.23 0 0" style="fill-opacity:1;fill-rule:nonzero;stroke:none" transform="translate(91.07 85.157)" fill="#f97306" data-original="#f97306" class=""></path><path d="M0 0v-21.327a246.275 246.275 0 0 0-22.599-18.262l12.035 41.104C-8.813 7.494 0 6.23 0 0" style="fill-opacity:1;fill-rule:nonzero;stroke:none" transform="translate(420.93 85.157)" fill="#f77f72" data-original="#f77f72" class=""></path><path d="M0 0c-80.549 29.757-123.89 123.947-123.89 185.136 0 5.321-4.811 9.344-10.047 8.396a859.508 859.508 0 0 1-13.23-2.516v-18.167c0-58.715 39.913-147.804 114.308-181.205A243.144 243.144 0 0 1 0 0" style="fill-opacity:1;fill-rule:nonzero;stroke:none" transform="translate(332.78 12.29)" fill="#ffc364" data-original="#ffc364" class=""></path><path d="M0 0a26.144 26.144 0 0 1-24.397 0c-3.778-1.991-8.415-1.257-11.365 1.832l-.126.132c-4.376 4.581-3.183 12.147 2.458 15.031 14.339 7.332 28.124 7.332 42.463 0 5.641-2.884 6.834-10.45 2.458-15.031l-.126-.132C8.415-1.257 3.779-1.991 0 0" style="fill-opacity:1;fill-rule:nonzero;stroke:none" transform="translate(268.198 396.68)" fill="#656565" data-original="#f2e1bb" class="" opacity="1"></path></g></g></svg>