<svg id="Capa_1" enable-background="new 0 0 512 512" height="512" viewBox="0 0 512 512" width="512" xmlns="http://www.w3.org/2000/svg"><g><g><g><path d="m329.143 297.147h36.571v73.143h-36.571z" fill="#ecbd83"/><path d="m409.077 338.263-25.287-10.115c-5.591-2.236-11.924-1.577-16.934 1.763l-9.285 6.189c-.329.219-.661.43-1 .626l-9.072 10.522-30.631-11.625-37.643 17.345v90.408l13.345 18.286h45.714l9.214-6.202 9.072 6.202h59.43l4.571-106.421c0-7.477-4.552-14.201-11.494-16.978z" fill="#dad8db"/><path d="m330.339 287.995v-18.285l7.946-18.286h18.286c10.099 0 18.286 8.187 18.286 18.286v18.286c0 11.865-7.534 21.971-18.08 25.794.001 0-26.438-2.062-26.438-25.795z" fill="#ffe09f"/><path d="m338.286 287.995v-36.571c-10.099 0-18.286 8.186-18.286 18.286v18.286c0 15.148 12.28 27.429 27.429 27.429 3.223 0 6.476-.613 9.349-1.635-10.629-3.779-18.492-13.869-18.492-25.795z" fill="#f6d190"/><path d="m338.286 336.57c-.34-.139-.686-.261-.999-.47l-9.285-6.19c-5.01-3.34-11.343-3.999-16.934-1.763l-25.287 10.116c-6.942 2.777-11.494 9.501-11.494 16.978l-23.287 88.135 41.571 18.286v-94.022c0-7.486 4.563-14.217 11.518-16.987l13.289-5.294c10.021-3.992 20.907 3.389 20.907 14.176v102.128h18.286v-124.937c-5.676 3.302-12.608 3.146-18.285-.156z" fill="#c8c5c9"/></g></g><g><g><path d="m146.286 297.147h36.571v73.143h-36.571z" fill="#e2a975"/><path d="m226.22 338.263-25.287-10.115c-5.591-2.236-11.924-1.577-16.934 1.763l-9.285 6.189c-.329.219-.661.43-1 .626l-9.072 10.522-30.631-11.625-37.643 17.345v90.408l13.345 18.286h45.714l9.214-6.202 9.072 6.202h84.619l-20.619-106.421c.001-7.477-4.551-14.201-11.493-16.978z" fill="#dad8db"/><path d="m147.482 287.995v-18.285l7.946-18.286h18.286c10.099 0 18.286 8.187 18.286 18.286v18.286c0 11.865-7.534 21.971-18.08 25.794 0 0-26.438-2.062-26.438-25.795z" fill="#f6d190"/><path d="m155.429 287.995v-36.571c-10.099 0-18.286 8.186-18.286 18.286v18.286c0 15.148 12.28 27.429 27.429 27.429 3.223 0 6.476-.613 9.349-1.635-10.63-3.779-18.492-13.869-18.492-25.795z" fill="#ecbd83"/><path d="m155.429 336.57c-.34-.139-.686-.261-.999-.47l-9.285-6.19c-5.01-3.34-11.343-3.999-16.934-1.763l-25.287 10.116c-6.942 2.777-11.494 9.501-11.494 16.978v88.135c0 10.099 8.187 18.286 18.286 18.286v-94.022c0-7.486 4.563-14.217 11.518-16.987l13.289-5.294c10.021-3.992 20.907 3.389 20.907 14.176v102.128h18.286v-124.937c-5.679 3.302-12.61 3.146-18.287-.156z" fill="#c8c5c9"/></g></g><path d="m246.857 77.71h18.286v256h-18.286z" fill="#f6d190"/><path d="m91.429 178.281h18.286v219.429h-18.286z" fill="#e2a975"/><path d="m192 178.281h-173.714c-5.049 0-9.143-4.093-9.143-9.143v-45.714c0-5.049 4.093-9.143 9.143-9.143h173.714c5.049 0 9.143 4.093 9.143 9.143v45.714c0 5.05-4.094 9.143-9.143 9.143z" fill="#ff8086"/><path d="m36.571 169.138c-10.099 0-18.286-8.187-18.286-18.286v-36.571h-9.142c-5.049 0-9.143 4.093-9.143 9.143v54.857c0 5.049 4.093 9.143 9.143 9.143h182.857c5.049 0 9.143-4.093 9.143-9.143v-9.143z" fill="#e5646e"/><path d="m402.286 178.281h18.286v219.429h-18.286z" fill="#e2a975"/><path d="m502.857 178.281h-173.714c-5.049 0-9.143-4.093-9.143-9.143v-45.714c0-5.049 4.093-9.143 9.143-9.143h173.714c5.049 0 9.143 4.093 9.143 9.143v45.714c0 5.05-4.093 9.143-9.143 9.143z" fill="#b3e59f"/><path d="m347.429 169.138c-10.099 0-18.286-8.187-18.286-18.286v-36.571h-9.143c-5.049 0-9.143 4.093-9.143 9.143v54.857c0 5.049 4.093 9.143 9.143 9.143h182.857c5.049 0 9.143-4.093 9.143-9.143v-9.143z" fill="#95d6a4"/><path d="m329.143 77.71h-137.143c-5.049 0-9.143-4.093-9.143-9.143v-27.429c0-5.049 4.093-9.143 9.143-9.143h137.143c5.049 0 9.143 4.093 9.143 9.143v27.429c0 5.049-4.094 9.143-9.143 9.143z" fill="#dad8db"/><path d="m210.286 68.567c-10.099 0-18.286-8.187-18.286-18.286v-18.286h-9.143c-5.049 0-9.143 4.093-9.143 9.143v36.572c0 5.049 4.093 9.143 9.143 9.143h146.286c5.049 0 9.143-4.093 9.143-9.143v-9.143z" fill="#c8c5c9"/><g><g><path d="m54.857 361.147h36.571v73.143h-36.571z" fill="#ecbd83"/><path d="m134.791 402.263-25.287-10.115c-5.591-2.236-11.924-1.577-16.934 1.763l-9.285 6.19c-.329.219-.661.43-1 .626l-9.071 10.522-30.631-11.625-37.643 17.345v44.75l13.345 18.286h45.715l9.214-6.202 9.072 6.202h45.714c10.099 0 18.286-8.187 18.286-18.286v-42.478c0-7.477-4.552-14.201-11.495-16.978z" fill="#95d6a4"/><path d="m56.054 351.995v-18.285l7.946-18.286h18.286c10.099 0 18.286 8.187 18.286 18.286v18.286c0 11.865-7.534 21.971-18.08 25.794 0 0-26.438-2.062-26.438-25.795z" fill="#ffe09f"/><path d="m64 351.995v-36.571c-10.099 0-18.286 8.186-18.286 18.286v18.286c0 15.148 12.28 27.429 27.429 27.429 3.223 0 6.476-.613 9.349-1.635-10.629-3.779-18.492-13.869-18.492-25.795z" fill="#f6d190"/><path d="m64 400.57c-.34-.139-.686-.261-.999-.47l-9.285-6.19c-5.01-3.34-11.343-3.999-16.934-1.763l-25.287 10.116c-6.943 2.778-11.495 9.501-11.495 16.978v42.478c0 10.099 8.187 18.286 18.286 18.286v-48.365c0-7.486 4.563-14.217 11.518-16.987l13.289-5.294c10.021-3.993 20.907 3.389 20.907 14.175v56.47h18.286v-79.278c-5.677 3.302-12.609 3.146-18.286-.156z" fill="#78c2a4"/></g></g><g><g><path d="m420.571 361.147h36.571v73.143h-36.571z" fill="#9f6e50"/><path d="m500.506 402.263-25.287-10.115c-5.591-2.236-11.924-1.577-16.934 1.763l-9.285 6.189c-.329.219-.661.43-1 .626l-9.071 10.522-30.631-11.625-37.643 17.345v44.75l13.345 18.287h45.714l9.214-6.202 9.072 6.202h45.714c10.099 0 18.286-8.187 18.286-18.286v-42.478c0-7.477-4.552-14.201-11.494-16.978z" fill="#8bb3ea"/><path d="m421.768 351.995v-18.285l7.946-18.286h18.286c10.099 0 18.286 8.187 18.286 18.286v18.286c0 11.865-7.534 21.971-18.08 25.794 0 0-26.438-2.062-26.438-25.795z" fill="#d19a6e"/><path d="m429.714 351.995v-36.571c-10.099 0-18.286 8.186-18.286 18.286v18.286c0 15.148 12.28 27.429 27.429 27.429 3.223 0 6.476-.613 9.349-1.635-10.629-3.779-18.492-13.869-18.492-25.795z" fill="#b57f5f"/><path d="m429.714 400.57c-.34-.139-.686-.261-.999-.47l-9.285-6.19c-5.01-3.34-11.343-3.999-16.934-1.763l-25.287 10.116c-6.942 2.777-11.494 9.501-11.494 16.978v42.478c0 10.099 8.187 18.286 18.286 18.286v-48.365c0-7.486 4.563-14.217 11.518-16.987l13.289-5.294c10.021-3.992 20.907 3.389 20.907 14.176v56.47h18.285v-79.278c-5.677 3.301-12.609 3.145-18.286-.157z" fill="#739ad6"/></g></g><g><path d="m296.169 379.608c-1.919-4.478-3.597-10.634-3.597-18.469v-18.286c0-5.799-1.8-11.178-4.871-15.608l-68.328 36.349c-.306 6.677-1.828 12.014-3.541 16.013-2.045 4.772.648 10.198 5.739 11.216l34.429 6.887 34.43-6.886c5.09-1.018 7.783-6.445 5.739-11.216z" fill="#4b3f4e"/><path d="m234.691 401.352-24.405 14.643 45.714 36.572 45.714-36.572-24.405-14.643z" fill="#b57f5f"/><path d="m256 406.853c7.741 0 14.92-2.105 21.309-5.501l-3.156-1.893c-2.754-1.652-4.439-4.628-4.439-7.84v-30.48h-27.429v30.48c0 3.211-1.685 6.188-4.439 7.84l-3.156 1.893c6.39 3.396 13.569 5.501 21.31 5.501z" fill="#9f6e50"/><path d="m256 387.579c-15.148 0-21.196-11.292-21.196-26.441v-18.286c0-10.099 8.187-18.286 18.286-18.286h12.054c10.099 0 18.286 8.187 18.286 18.286v18.286c0 11.871-7.541 21.98-18.094 25.799-2.915 1.055-6.058.642-9.336.642z" fill="#d19a6e"/><path d="m246.857 361.138v-36.571c-10.099 0-18.286 8.186-18.286 18.286v18.286c0 15.148 12.28 27.429 27.429 27.429 3.223 0 6.462-.608 9.335-1.629-10.629-3.78-18.478-13.875-18.478-25.801z" fill="#b57f5f"/><path d="m304.839 408.414-15.514-7.757c-3.52-1.76-7.771-1.07-10.554 1.712l-16.306 16.305c-3.57 3.57-9.359 3.57-12.929 0l-7.336-7.335-40.408 11.681v38.69l8.494 18.286h91.429c10.099 0 18.286-8.187 18.286-18.286v-28.764c-.001-10.389-5.87-19.886-15.162-24.532z" fill="#5d5360"/><path d="m246.857 315.424c-15.148 0-27.429 12.28-27.429 27.429v18.286c0 .882-.015 1.616-.056 2.456 33.581-13.134 55.583-26.893 68.328-36.349-4.952-7.142-13.209-11.821-22.558-11.821h-18.285z" fill="#5d5360"/><path d="m215.34 424.768 26.859-13.43-8.97-8.97c-2.782-2.782-7.033-3.472-10.554-1.712l-15.513 7.757c-9.292 4.647-15.162 14.144-15.162 24.534v28.763c0 10.099 8.187 18.286 18.286 18.286v-47.049c0-3.486 1.937-6.62 5.054-8.179z" fill="#4b3f4e"/></g></g></svg>