<svg xmlns="http://www.w3.org/2000/svg" version="1.1" xmlns:xlink="http://www.w3.org/1999/xlink" width="512" height="512" x="0" y="0" viewBox="0 0 682.667 682.667" style="enable-background:new 0 0 512 512" xml:space="preserve" class=""><g><defs stroke-width="7" style="stroke-width: 7;"><clipPath id="a" clipPathUnits="userSpaceOnUse" stroke-width="7" style="stroke-width: 7;"><path d="M0 512h512V0H0Z" fill="#000000" opacity="1" data-original="#000000" stroke-width="7" style="stroke-width: 7;"></path></clipPath></defs><g clip-path="url(#a)" transform="matrix(1.33333 0 0 -1.33333 0 682.667)" stroke-width="7" style="stroke-width: 7;"><path d="M0 0v-117.133c0-55.358-44.877-100.235-100.235-100.235-55.359 0-100.236 44.877-100.236 100.235V0Z" style="fill-opacity: 1; fill-rule: nonzero; stroke: none; stroke-width: 7;" transform="translate(356.257 401.643)" fill="#ffcaa7" data-original="#ffcaa7" stroke-width="7" class=""></path><path d="M0 0v-10.701C0-66.06-44.877-110.937-100.235-110.937c-55.359 0-100.236 44.877-100.236 100.236V0" style="stroke-width: 7; stroke-linecap: round; stroke-linejoin: round; stroke-miterlimit: 10; stroke-dasharray: none; stroke-opacity: 1;" transform="translate(356.257 295.21)" fill="none" stroke="#000000" stroke-width="7" stroke-linecap="round" stroke-linejoin="round" stroke-miterlimit="10" stroke-dasharray="none" stroke-opacity="" data-original="#000000" class=""></path><path d="M0 0c7.049-7.049 18.477-7.049 25.525 0" style="stroke-width: 7; stroke-linecap: round; stroke-linejoin: round; stroke-miterlimit: 10; stroke-dasharray: none; stroke-opacity: 1;" transform="translate(243.132 239.742)" fill="none" stroke="#000000" stroke-width="7" stroke-linecap="round" stroke-linejoin="round" stroke-miterlimit="10" stroke-dasharray="none" stroke-opacity="" data-original="#000000" class=""></path><path d="M0 0v35.605c0 37.66-27.406 69.717-64.607 75.574l-81.308 12.799h-146.072l-81.308-12.799c-37.201-5.857-64.607-37.914-64.607-75.574V0z" style="fill-opacity: 1; fill-rule: nonzero; stroke: none; stroke-width: 7;" transform="translate(474.951 10)" fill="#ffdb8c" data-original="#ffdb8c" stroke-width="7"></path><path d="m0 0-35.909-5.652" style="stroke-width: 7; stroke-linecap: round; stroke-linejoin: round; stroke-miterlimit: 10; stroke-dasharray: none; stroke-opacity: 1;" transform="translate(182.964 133.977)" fill="none" stroke="#000000" stroke-width="7" stroke-linecap="round" stroke-linejoin="round" stroke-miterlimit="10" stroke-dasharray="none" stroke-opacity="" data-original="#000000" class=""></path><path d="m0 0 81.308-12.799c37.201-5.856 64.607-37.914 64.607-75.573v-35.606" style="stroke-width: 7; stroke-linecap: round; stroke-linejoin: round; stroke-miterlimit: 10; stroke-dasharray: none; stroke-opacity: 1;" transform="translate(329.036 133.977)" fill="none" stroke="#000000" stroke-width="7" stroke-linecap="round" stroke-linejoin="round" stroke-miterlimit="10" stroke-dasharray="none" stroke-opacity="" data-original="#000000" class=""></path><path d="m0 0 73.036-12.283V14.46c0 19.437-14.038 36.034-33.207 39.258L0 60.416Z" style="fill-opacity: 1; fill-rule: nonzero; stroke: none; stroke-width: 7;" transform="translate(182.964 133.977)" fill="#ffce62" data-original="#ffce62" stroke-width="7"></path><path d="m0 0 73.036-12.283V14.46c0 19.437-14.038 36.034-33.207 39.258L0 60.416Z" style="stroke-width: 7; stroke-linecap: round; stroke-linejoin: round; stroke-miterlimit: 10; stroke-dasharray: none; stroke-opacity: 1;" transform="translate(182.964 133.977)" fill="none" stroke="#000000" stroke-width="7" stroke-linecap="round" stroke-linejoin="round" stroke-miterlimit="10" stroke-dasharray="none" stroke-opacity="" data-original="#000000" class=""></path><path d="m0 0-73.035-12.283V14.46c0 19.437 14.038 36.034 33.207 39.258L0 60.416Z" style="fill-opacity: 1; fill-rule: nonzero; stroke: none; stroke-width: 7;" transform="translate(329.083 133.977)" fill="#ffce62" data-original="#ffce62" stroke-width="7"></path><path d="m0 0-73.035-12.283V14.46c0 19.437 14.038 36.034 33.207 39.258L0 60.416Z" style="stroke-width: 7; stroke-linecap: round; stroke-linejoin: round; stroke-miterlimit: 10; stroke-dasharray: none; stroke-opacity: 1;" transform="translate(329.083 133.977)" fill="none" stroke="#000000" stroke-width="7" stroke-linecap="round" stroke-linejoin="round" stroke-miterlimit="10" stroke-dasharray="none" stroke-opacity="" data-original="#000000" class=""></path><path d="M0 0v-111.694" style="stroke-width: 7; stroke-linecap: round; stroke-linejoin: round; stroke-miterlimit: 10; stroke-dasharray: none; stroke-opacity: 1;" transform="translate(256 121.694)" fill="none" stroke="#000000" stroke-width="7" stroke-linecap="round" stroke-linejoin="round" stroke-miterlimit="10" stroke-dasharray="none" stroke-opacity="" data-original="#000000" class=""></path><path d="M0 0v-78.447h111.614V29.895c0 9.734-8.473 17.299-18.145 16.2l-58.228-6.62C15.165 37.192 0 20.205 0 0" style="fill-opacity: 1; fill-rule: nonzero; stroke: none; stroke-width: 7;" transform="translate(37.191 88.447)" fill="#ff7e99" data-original="#ff7e99" stroke-width="7" class=""></path><path d="M0 0v108.342c0 9.734-8.474 17.3-18.146 16.2l-58.227-6.62c-20.076-2.282-35.241-19.27-35.241-39.475V0" style="stroke-width: 7; stroke-linecap: round; stroke-linejoin: round; stroke-miterlimit: 10; stroke-dasharray: none; stroke-opacity: 1;" transform="translate(148.806 10)" fill="none" stroke="#000000" stroke-width="7" stroke-linecap="round" stroke-linejoin="round" stroke-miterlimit="10" stroke-dasharray="none" stroke-opacity="" data-original="#000000" class=""></path><path d="M0 0v29.262C0 55.464 6.924 81.2 20.069 103.865" style="stroke-width: 7; stroke-linecap: round; stroke-linejoin: round; stroke-miterlimit: 10; stroke-dasharray: none; stroke-opacity: 1;" transform="translate(401.993 10)" fill="none" stroke="#000000" stroke-width="7" stroke-linecap="round" stroke-linejoin="round" stroke-miterlimit="10" stroke-dasharray="none" stroke-opacity="" data-original="#000000" class=""></path><path d="M0 0c-38.099-7.218-73.159-23.018-103.094-45.317-21.26-15.838-32.093-42.088-28.4-68.341a252.77 252.77 0 0 1 23.453-76.237C-86.326-138.603-48.085-96.014 0-68.784z" style="fill-opacity: 1; fill-rule: nonzero; stroke: none; stroke-width: 7;" transform="translate(255.894 470.427)" fill="#ff7e99" data-original="#ff7e99" stroke-width="7" class=""></path><path d="M0 0a251.087 251.087 0 0 1-64.234-34.651c-21.261-15.838-32.093-42.088-28.401-68.341a252.797 252.797 0 0 1 23.453-76.237 250.688 250.688 0 0 0 15.53 30.639" style="stroke-width: 7; stroke-linecap: round; stroke-linejoin: round; stroke-miterlimit: 10; stroke-dasharray: none; stroke-opacity: 1;" transform="translate(217.035 459.76)" fill="none" stroke="#000000" stroke-width="7" stroke-linecap="round" stroke-linejoin="round" stroke-miterlimit="10" stroke-dasharray="none" stroke-opacity="" data-original="#000000" class=""></path><path d="M0 0a252.422 252.422 0 0 0 25.157 17.878" style="stroke-width: 7; stroke-linecap: round; stroke-linejoin: round; stroke-miterlimit: 10; stroke-dasharray: none; stroke-opacity: 1;" transform="translate(221.78 378.444)" fill="none" stroke="#000000" stroke-width="7" stroke-linecap="round" stroke-linejoin="round" stroke-miterlimit="10" stroke-dasharray="none" stroke-opacity="" data-original="#000000" class=""></path><path d="M0 0c38.098-7.218 73.159-23.018 103.094-45.317 21.26-15.838 32.093-42.088 28.399-68.341a252.74 252.74 0 0 0-23.453-76.237C86.326-138.603 48.085-96.014 0-68.784Z" style="fill-opacity: 1; fill-rule: nonzero; stroke: none; stroke-width: 7;" transform="translate(255.894 470.427)" fill="#ff7e99" data-original="#ff7e99" stroke-width="7" class=""></path><path d="M0 0a251.12 251.12 0 0 0 64.232-34.65c21.261-15.838 32.093-42.088 28.4-68.341a252.74 252.74 0 0 0-23.453-76.237C48.769-131.015 13.754-90.49-30.312-63.185" style="stroke-width: 7; stroke-linecap: round; stroke-linejoin: round; stroke-miterlimit: 10; stroke-dasharray: none; stroke-opacity: 1;" transform="translate(294.756 459.76)" fill="none" stroke="#000000" stroke-width="7" stroke-linecap="round" stroke-linejoin="round" stroke-miterlimit="10" stroke-dasharray="none" stroke-opacity="" data-original="#000000" class=""></path><path d="M0 0c-.852 2.938-30.249 81.755-34.966 94.397 14.565 6.772 31.848 10.56 48.968 10.56 18.048 0 34.061-4.209 49.221-11.687C57.41 77.688 29.507 2.86 28.679 0" style="fill-opacity: 1; fill-rule: nonzero; stroke: none; stroke-width: 7;" transform="translate(242.02 397.043)" fill="#ff7e99" data-original="#ff7e99" stroke-width="7" class=""></path><path d="M0 0c-.852 2.938-30.249 81.755-34.966 94.397 14.565 6.772 31.848 10.56 48.968 10.56 18.048 0 34.061-4.209 49.221-11.687C57.41 77.688 29.507 2.86 28.679 0Z" style="stroke-width: 7; stroke-linecap: round; stroke-linejoin: round; stroke-miterlimit: 10; stroke-dasharray: none; stroke-opacity: 1;" transform="translate(242.02 397.043)" fill="none" stroke="#000000" stroke-width="7" stroke-linecap="round" stroke-linejoin="round" stroke-miterlimit="10" stroke-dasharray="none" stroke-opacity="" data-original="#000000" class=""></path><path d="M0 0c26.793 36.669 61.195 67.426 100.884 89.948" style="stroke-width: 7; stroke-linecap: round; stroke-linejoin: round; stroke-miterlimit: 10; stroke-dasharray: none; stroke-opacity: 1;" transform="translate(128.02 338.965)" fill="none" stroke="#000000" stroke-width="7" stroke-linecap="round" stroke-linejoin="round" stroke-miterlimit="10" stroke-dasharray="none" stroke-opacity="" data-original="#000000" class=""></path><path d="M0 0c-26.794 36.669-61.196 67.426-100.884 89.948" style="stroke-width: 7; stroke-linecap: round; stroke-linejoin: round; stroke-miterlimit: 10; stroke-dasharray: none; stroke-opacity: 1;" transform="translate(384.022 338.965)" fill="none" stroke="#000000" stroke-width="7" stroke-linecap="round" stroke-linejoin="round" stroke-miterlimit="10" stroke-dasharray="none" stroke-opacity="" data-original="#000000" class=""></path><path d="M0 0v0" style="stroke-width: 7; stroke-linecap: round; stroke-linejoin: round; stroke-miterlimit: 10; stroke-dasharray: none; stroke-opacity: 1;" transform="translate(189.791 347.604)" fill="none" stroke="#000000" stroke-width="7" stroke-linecap="round" stroke-linejoin="round" stroke-miterlimit="10" stroke-dasharray="none" stroke-opacity="" data-original="#000000" class=""></path></g></g></svg>