<svg id="Layer_1" enable-background="new 0 0 512 512" viewBox="0 0 512 512" xmlns="http://www.w3.org/2000/svg"><g id="Layer_2_1_"><g id="Layer_1-2"><g id="Two_Sowrd_Sheild"><path d="m364.6 171.5s-.1.2-.3.5c-3.5 6-36.3 61.3-88.6 121.4-4.4 5.1-9 10.2-13.7 15.4-1.9 2.1-3.9 4.3-5.9 6.4-8.4 8.9-17.1 17.8-26.2 26.6-14.2 13.7-29 26.6-44.5 38.8-54.4 42.4-117.8 74.3-185.4 74.2 0 0 73.7-18.9 162.5-90.9 8.7-7.1 17.6-14.7 26.5-22.8 16.6-15.1 32.4-31 47.3-47.6 2-2.2 4-4.5 6-6.8 4.5-5.2 9.1-10.5 13.6-16 29.5-36 55.7-74.7 78.1-115.5.1-.2.2-.4.4-.7l20.9 11.8z" fill="#46454a"/><path d="m364.6 171.5s-.1.2-.3.5c-3.5 6-36.3 61.3-88.6 121.4-4.4 5.1-9 10.2-13.7 15.4-1.9 2.1-3.9 4.3-5.9 6.4-8.4 8.9-17.1 17.8-26.2 26.6-14.2 13.7-29 26.6-44.5 38.8-54.4 42.4-117.8 74.3-185.4 74.2 65.2-4 125.5-35.9 177.3-77.2 14.3-11.4 28-23.6 41-36 11.2-10.8 21.8-21.8 31.8-32.7 2-2.2 4-4.4 5.9-6.5 4.7-5.2 9.2-10.4 13.6-15.6 46.9-55.4 77.6-106.3 85.4-119.8l.3-.6z" fill="#ecf0f1"/><path d="m366.9 156.2 2.8-7.7 4.7-1.5 6.1-1.9-1.5-5.4-1.2-4.7 4.9-.7 6.1-.9-1.8-6.6-1.8-6.2 4-.9 7.3-1.8-3-10.8 10.9-13.2-22.9-13.1-7.6 15.3-6 2-3.8 1.3 3 11-6.9 1.6-5.1 1.2 2.3 7.1 1.5 4.8-4.4 1-6.2 1.4 1.9 6.1 1.5 4.7-7 5.3z" fill="#c9971b"/><ellipse cx="399.4" cy="75.9" fill="#f0c419" rx="18.6" ry="18.7" transform="matrix(.965 -.264 .264 .965 -5.862 108.09)"/><path d="m374.4 147 6.1-1.9-1.5-5.4-24.5-13.6-6.2 1.4 1.9 6.1z" fill="#aa8315"/><path d="m388.8 133.4-1.8-6.6-26.8-14.8-5.1 1.2 2.3 7.1 25.3 14z" fill="#aa8315"/><path d="m396.5 117.9-1.3-4.7-27.3-15.1-3.8 1.3 2.1 7.6 23 12.7z" fill="#aa8315"/><g fill="#f0c419"><path d="m324.7 149.9 49.3 27.6 6.8-13.4-46.8-26.5z"/><ellipse cx="323.7" cy="139.5" rx="11.3" ry="11.4" transform="matrix(.965 -.264 .264 .965 -25.327 90.35)"/><ellipse cx="383.7" cy="174.9" rx="11.3" ry="11.4" transform="matrix(.965 -.264 .264 .965 -32.54 107.457)"/></g><path d="m512 454.8c-68 .1-131.6-32.2-186.1-74.9-15-11.8-29.3-24.3-42.7-37.2-3.3-3.2-6.6-6.4-9.9-9.6s-6.5-6.5-9.8-9.9c-1.3-1.3-2.5-2.7-3.8-4-1.2-1.3-2.5-2.6-3.7-3.9-1.7-1.8-3.3-3.6-5-5.4-.3-.3-.6-.7-.9-1-.7-.8-1.4-1.5-2.1-2.3-2-2.2-4-4.4-5.9-6.6-2-2.2-3.8-4.3-5.6-6.4l-3-3.5c-1.9-2.2-3.7-4.4-5.6-6.5-.9-1.1-1.8-2.2-2.7-3.3-1.8-2.2-3.6-4.3-5.3-6.4-42.6-52-68.9-96.4-72-101.7l-.3-.5 9.2-5.2 20.9-11.8.4.7c22.4 40.8 48.5 79.5 78 115.5 4.5 5.5 9 10.8 13.6 16 2 2.3 4 4.6 6 6.8 15.7 17.5 32.3 34.1 49.8 49.8 7.1 6.4 14.2 12.5 21.2 18.2 89.4 73.3 164.4 92.8 165.3 93.1z" fill="#46454a"/><path d="m512 454.8c-68 .1-131.6-32.2-186.1-74.9-15-11.8-29.3-24.3-42.7-37.2-3.3-3.2-6.6-6.4-9.9-9.6s-6.5-6.5-9.8-9.9c-2.5-2.7-5-5.3-7.5-7.9-1.7-1.8-3.3-3.6-5-5.4-.3-.3-.6-.7-.9-1-.7-.8-1.4-1.6-2.1-2.3-2-2.2-4-4.4-5.9-6.6s-3.8-4.3-5.6-6.4l-3-3.5c-1.9-2.2-3.7-4.4-5.6-6.5-.9-1.1-1.8-2.2-2.7-3.3-1.8-2.2-3.6-4.3-5.3-6.4-42.6-52-68.9-96.4-72-101.7l-.3-.5 9.2-5.2.3.6c7.9 13.5 38.6 64.4 85.4 119.8 4.4 5.2 8.9 10.4 13.6 15.6 1.9 2.2 3.9 4.4 5.9 6.5 10.4 11.4 21.5 22.8 33.1 34 12.2 11.7 25 23 38.4 33.7 52 41.7 112.8 74.1 178.5 78.1z" fill="#ecf0f1"/><path d="m145.1 156.2-2.8-7.7-4.7-1.5-6-1.9 1.4-5.4 1.3-4.7-5-.7-6.1-.9 1.8-6.6 1.8-6.2-4-.9-7.3-1.8 3-10.8-10.9-13.2 22.9-13.1 7.6 15.3 6 2 3.8 1.3-3 11 6.9 1.6 5.1 1.2-2.3 7.1-1.5 4.8 4.5 1 6.1 1.4-1.9 6.1-1.5 4.7 7 5.3z" fill="#c9971b"/><ellipse cx="112.6" cy="75.9" fill="#f0c419" rx="18.7" ry="18.6" transform="matrix(.264 -.965 .965 .264 9.657 164.441)"/><path d="m137.6 147-6-1.9 1.4-5.4 24.6-13.6 6.1 1.4-1.9 6.1z" fill="#aa8315"/><path d="m123.2 133.4 1.8-6.6 26.8-14.8 5.1 1.2-2.3 7.1-25.3 14z" fill="#aa8315"/><path d="m115.5 117.9 1.3-4.7 27.3-15.1 3.8 1.3-2.1 7.6-23 12.7z" fill="#aa8315"/><path d="m187.3 149.9-49.3 27.6-6.8-13.4 46.8-26.5z" fill="#f0c419"/><ellipse cx="188.3" cy="139.5" fill="#f0c419" rx="11.4" ry="11.3" transform="matrix(.264 -.965 .965 .264 4.11 284.337)"/><ellipse cx="128.3" cy="174.9" fill="#f0c419" rx="11.4" ry="11.3" transform="matrix(.264 -.965 .965 .264 -74.264 252.473)"/><path d="m366 206.4c-97.8-3.9-110.4-36.9-110.4-36.9s-12.5 33-110.4 36.9c0 0-23.4 89-13.8 131.5 0 0 18.4 59.6 124.2 90.4 105.8-30.9 124.2-90.4 124.2-90.4 9.6-42.5-13.8-131.5-13.8-131.5z" fill="#46454a"/><path d="m352.3 218.7c-85.6-3.4-96.6-32.3-96.6-32.3s-11 28.9-96.6 32.3c0 0-20.5 77.9-12.1 115.1 0 0 16.1 52.1 108.7 79.1 92.6-27 108.7-79.1 108.7-79.1 8.4-37.2-12.1-115.1-12.1-115.1z" fill="#ecf0f1"/><path d="m354 352.3c-13 17.6-41 44-98.3 60.7-92.7-27-108.7-79.2-108.7-79.2-6.1-27.3 3.3-76.6 8.7-100.8 26.2 84.4 111.5 135.7 198.3 119.3z" fill="#46454a" opacity=".08"/></g></g></g></svg>