<svg id="Capa_1" enable-background="new 0 0 510 510" height="512" viewBox="0 0 510 510" width="512" xmlns="http://www.w3.org/2000/svg" xmlns:xlink="http://www.w3.org/1999/xlink"><linearGradient id="lg1"><stop offset="0" stop-color="#ffa325"/><stop offset="1" stop-color="#ff7044"/></linearGradient><linearGradient id="SVGID_1_" gradientUnits="userSpaceOnUse" x1="255" x2="255" xlink:href="#lg1" y1="209.747" y2="312.089"/><linearGradient id="lg2"><stop offset="0" stop-color="#f35227" stop-opacity="0"/><stop offset="1" stop-color="#f35227"/></linearGradient><linearGradient id="SVGID_2_" gradientUnits="userSpaceOnUse" x1="255" x2="255" xlink:href="#lg2" y1="215.596" y2="346.021"/><linearGradient id="SVGID_3_" gradientUnits="userSpaceOnUse" x1="382.944" x2="325.017" xlink:href="#lg2" y1="311.721" y2="311.721"/><linearGradient id="lg3"><stop offset="0" stop-color="#f8f6fb"/><stop offset="1" stop-color="#efdcfb"/></linearGradient><linearGradient id="SVGID_4_" gradientUnits="userSpaceOnUse" x1="193.907" x2="316.093" xlink:href="#lg3" y1="249.194" y2="249.194"/><linearGradient id="lg4"><stop offset="0" stop-color="#efdcfb" stop-opacity="0"/><stop offset=".4856" stop-color="#baaad6" stop-opacity=".486"/><stop offset="1" stop-color="#8679b2"/></linearGradient><linearGradient id="SVGID_5_" gradientUnits="userSpaceOnUse" x1="300.328" x2="255.676" xlink:href="#lg4" y1="274.381" y2="130.379"/><linearGradient id="SVGID_6_" gradientUnits="userSpaceOnUse" x1="226.979" x2="319.149" xlink:href="#lg3" y1="191.946" y2="191.946"/><linearGradient id="SVGID_7_" gradientUnits="userSpaceOnUse" x1="257.209" x2="262.505" xlink:href="#lg4" y1="154.771" y2="179.021"/><linearGradient id="lg5"><stop offset="0" stop-color="#ffd945"/><stop offset=".4169" stop-color="#ffd744"/><stop offset=".6278" stop-color="#ffcf3f"/><stop offset=".7926" stop-color="#ffc237"/><stop offset=".9326" stop-color="#ffaf2c"/><stop offset="1" stop-color="#ffa325"/></linearGradient><radialGradient id="SVGID_8_" cx="228.745" cy="53.52" gradientTransform="matrix(1.051 0 0 1.048 -13.077 0)" gradientUnits="userSpaceOnUse" r="75.992" xlink:href="#lg5"/><linearGradient id="SVGID_9_" gradientUnits="userSpaceOnUse" x1="245.594" x2="258.024" y1="137.985" y2="137.985"><stop offset="0" stop-color="#8a7889"/><stop offset="1" stop-color="#6e566e"/></linearGradient><linearGradient id="lg6"><stop offset="0" stop-color="#ffd945" stop-opacity="0"/><stop offset="1" stop-color="#fbed21"/></linearGradient><linearGradient id="SVGID_10_" gradientUnits="userSpaceOnUse" x1="257" x2="210.093" xlink:href="#lg6" y1="103.621" y2="37.029"/><linearGradient id="SVGID_11_" gradientUnits="userSpaceOnUse" x1="231.58" x2="289.033" xlink:href="#lg2" y1="93.596" y2="116.444"/><linearGradient id="SVGID_12_" gradientUnits="userSpaceOnUse" x1="272.589" x2="286.511" xlink:href="#lg1" y1="353.178" y2="396.615"/><linearGradient id="SVGID_13_" gradientUnits="userSpaceOnUse" x1="248.809" x2="300.672" y1="337.905" y2="358.144"><stop offset="0" stop-color="#ff7044"/><stop offset="1" stop-color="#f82814"/></linearGradient><linearGradient id="SVGID_14_" gradientUnits="userSpaceOnUse" x1="214.249" x2="267.377" y1="349.492" y2="378.902"><stop offset="0" stop-color="#91f27f"/><stop offset="1" stop-color="#00b302"/></linearGradient><radialGradient id="SVGID_15_" cx="119.012" cy="328.496" gradientTransform="matrix(1.051 0 0 1.048 -13.077 0)" gradientUnits="userSpaceOnUse" r="10.553" xlink:href="#lg5"/><linearGradient id="SVGID_16_" gradientUnits="userSpaceOnUse" x1="116.147" x2="105.512" xlink:href="#lg6" y1="349.227" y2="338.592"/><linearGradient id="lg7"><stop offset="0" stop-color="#e87264" stop-opacity="0"/><stop offset="1" stop-color="#ff7044"/></linearGradient><linearGradient id="SVGID_17_" gradientUnits="userSpaceOnUse" x1="118.384" x2="134.949" xlink:href="#lg7" y1="348.02" y2="333.999"/><linearGradient id="lg8"><stop offset="0" stop-color="#fff" stop-opacity="0"/><stop offset="1" stop-color="#fff"/></linearGradient><linearGradient id="SVGID_18_" gradientUnits="userSpaceOnUse" x1="114.603" x2="114.603" xlink:href="#lg8" y1="344.953" y2="336.582"/><radialGradient id="SVGID_19_" cx="163.529" cy="316.548" gradientTransform="matrix(1.051 0 0 1.048 -13.077 0)" gradientUnits="userSpaceOnUse" r="10.553" xlink:href="#lg5"/><linearGradient id="SVGID_20_" gradientUnits="userSpaceOnUse" x1="162.946" x2="152.311" xlink:href="#lg6" y1="336.704" y2="326.07"/><linearGradient id="SVGID_21_" gradientUnits="userSpaceOnUse" x1="165.183" x2="181.748" xlink:href="#lg7" y1="335.498" y2="321.477"/><linearGradient id="SVGID_22_" gradientUnits="userSpaceOnUse" x1="161.402" x2="161.402" xlink:href="#lg8" y1="332.43" y2="324.06"/><radialGradient id="SVGID_23_" cx="208.045" cy="299.82" gradientTransform="matrix(1.051 0 0 1.048 -13.077 0)" gradientUnits="userSpaceOnUse" r="10.553" xlink:href="#lg5"/><linearGradient id="SVGID_24_" gradientUnits="userSpaceOnUse" x1="209.745" x2="199.11" xlink:href="#lg6" y1="319.173" y2="308.539"/><linearGradient id="SVGID_25_" gradientUnits="userSpaceOnUse" x1="211.982" x2="228.547" xlink:href="#lg7" y1="317.967" y2="303.946"/><linearGradient id="SVGID_26_" gradientUnits="userSpaceOnUse" x1="208.201" x2="208.201" xlink:href="#lg8" y1="314.899" y2="306.529"/><radialGradient id="SVGID_27_" cx="252.561" cy="285.482" gradientTransform="matrix(1.051 0 0 1.048 -13.077 0)" gradientUnits="userSpaceOnUse" r="10.553" xlink:href="#lg5"/><linearGradient id="SVGID_28_" gradientUnits="userSpaceOnUse" x1="256.544" x2="245.91" xlink:href="#lg6" y1="304.147" y2="293.512"/><linearGradient id="SVGID_29_" gradientUnits="userSpaceOnUse" x1="258.781" x2="275.346" xlink:href="#lg7" y1="302.94" y2="288.919"/><linearGradient id="SVGID_30_" gradientUnits="userSpaceOnUse" x1="255" x2="255" xlink:href="#lg8" y1="299.873" y2="291.502"/><radialGradient id="SVGID_31_" cx="297.077" cy="299.82" gradientTransform="matrix(1.051 0 0 1.048 -13.077 0)" gradientUnits="userSpaceOnUse" r="10.553" xlink:href="#lg5"/><linearGradient id="SVGID_32_" gradientUnits="userSpaceOnUse" x1="303.343" x2="292.709" xlink:href="#lg6" y1="319.173" y2="308.539"/><linearGradient id="SVGID_33_" gradientUnits="userSpaceOnUse" x1="305.58" x2="322.145" xlink:href="#lg7" y1="317.967" y2="303.946"/><linearGradient id="SVGID_34_" gradientUnits="userSpaceOnUse" x1="301.799" x2="301.799" xlink:href="#lg8" y1="314.899" y2="306.529"/><radialGradient id="SVGID_35_" cx="341.593" cy="316.548" gradientTransform="matrix(1.051 0 0 1.048 -13.077 0)" gradientUnits="userSpaceOnUse" r="10.553" xlink:href="#lg5"/><linearGradient id="SVGID_36_" gradientUnits="userSpaceOnUse" x1="350.143" x2="339.508" xlink:href="#lg6" y1="336.704" y2="326.07"/><linearGradient id="SVGID_37_" gradientUnits="userSpaceOnUse" x1="352.379" x2="368.944" xlink:href="#lg7" y1="335.498" y2="321.477"/><linearGradient id="SVGID_38_" gradientUnits="userSpaceOnUse" x1="348.598" x2="348.598" xlink:href="#lg8" y1="332.43" y2="324.06"/><radialGradient id="SVGID_39_" cx="386.109" cy="328.496" gradientTransform="matrix(1.051 0 0 1.048 -13.077 0)" gradientUnits="userSpaceOnUse" r="10.553" xlink:href="#lg5"/><linearGradient id="SVGID_40_" gradientUnits="userSpaceOnUse" x1="396.942" x2="386.307" xlink:href="#lg6" y1="349.227" y2="338.592"/><linearGradient id="SVGID_41_" gradientUnits="userSpaceOnUse" x1="399.178" x2="415.743" xlink:href="#lg7" y1="348.02" y2="333.999"/><linearGradient id="SVGID_42_" gradientUnits="userSpaceOnUse" x1="395.397" x2="395.397" xlink:href="#lg8" y1="344.953" y2="336.582"/><linearGradient id="SVGID_43_" gradientUnits="userSpaceOnUse" x1="339.573" x2="222.932" xlink:href="#lg2" y1="351.702" y2="244.637"/><linearGradient id="lg9"><stop offset="0" stop-color="#ffdecf"/><stop offset="1" stop-color="#faa68e"/></linearGradient><linearGradient id="SVGID_44_" gradientTransform="matrix(.505 -.863 -.863 -.505 643.622 -6426.809)" gradientUnits="userSpaceOnUse" x1="-6062.763" x2="-6085.906" xlink:href="#lg9" y1="-2895.319" y2="-2872.176"/><linearGradient id="SVGID_45_" gradientTransform="matrix(.695 .719 .719 -.695 -292.061 -5495.407)" gradientUnits="userSpaceOnUse" x1="4497.97" x2="4512.085" xlink:href="#lg9" y1="-3805.627" y2="-3686.503"/><linearGradient id="lg10"><stop offset="0" stop-color="#ffdecf" stop-opacity="0"/><stop offset="1" stop-color="#fff"/></linearGradient><linearGradient id="SVGID_46_" gradientTransform="matrix(.695 .719 .719 -.695 -292.061 -5495.407)" gradientUnits="userSpaceOnUse" x1="4495.996" x2="4449.998" xlink:href="#lg10" y1="-3781.819" y2="-3903.344"/><linearGradient id="SVGID_47_" gradientTransform="matrix(-.707 -.707 -.707 .707 504.435 -5573.175)" gradientUnits="userSpaceOnUse" x1="-3923.88" x2="-3904.271" xlink:href="#lg10" y1="4463.975" y2="4515.506"/><linearGradient id="SVGID_48_" gradientTransform="matrix(-.505 -.863 .863 -.505 -333.219 -6426.809)" gradientUnits="userSpaceOnUse" x1="-6163.564" x2="-6186.706" xlink:href="#lg9" y1="-2723.04" y2="-2699.898"/><linearGradient id="SVGID_49_" gradientTransform="matrix(-.695 .719 -.719 -.695 602.463 -5495.407)" gradientUnits="userSpaceOnUse" x1="4359.289" x2="4373.403" xlink:href="#lg9" y1="-3949.178" y2="-3830.055"/><linearGradient id="SVGID_50_" gradientTransform="matrix(-.695 .719 -.719 -.695 602.463 -5495.407)" gradientUnits="userSpaceOnUse" x1="4357.315" x2="4311.317" xlink:href="#lg10" y1="-3925.37" y2="-4046.895"/><linearGradient id="SVGID_51_" gradientTransform="matrix(.707 -.707 .707 .707 -194.033 -5573.175)" gradientUnits="userSpaceOnUse" x1="-3782.742" x2="-3763.132" xlink:href="#lg10" y1="4605.113" y2="4656.645"/><linearGradient id="lg11"><stop offset="0" stop-color="#ffd945"/><stop offset=".3043" stop-color="#ffcd3e"/><stop offset=".8558" stop-color="#ffad2b"/><stop offset="1" stop-color="#ffa325"/></linearGradient><linearGradient id="SVGID_52_" gradientUnits="userSpaceOnUse" x1="204.026" x2="204.026" xlink:href="#lg11" y1="489.04" y2="509.563"/><linearGradient id="SVGID_53_" gradientUnits="userSpaceOnUse" x1="305.974" x2="305.974" xlink:href="#lg11" y1="489.04" y2="509.563"/><g><g><path d="m440 292.457c0 61.612-82.827 133.043-185 133.043s-185-71.431-185-133.043 82.827-90.084 185-90.084 185 28.472 185 90.084z" fill="url(#SVGID_1_)"/><path d="m426.998 293.212c0 57.282-77.006 123.693-171.998 123.693s-171.998-66.411-171.998-123.693 77.006-82.244 171.998-82.244 171.998 24.962 171.998 82.244z" fill="url(#SVGID_2_)"/><path d="m313.18 205.791v211.859c73.667-20.192 126.82-75.838 126.82-125.193s-52.59-76.647-126.82-86.666z" fill="url(#SVGID_3_)"/><g><path d="m316.093 132.744v239.523c-34.825 3.114-87.361 3.114-122.187 0v-196.107c0-8.857 6.701-16.283 15.536-17.229 14.133-1.498 29.392-4.864 44.903-10.18 18.156-6.22 34.389-14.349 47.691-23.391 5.97-4.052 14.057.176 14.057 7.384z" fill="url(#SVGID_4_)"/><path d="m316.09 132.74c0-7.205-8.084-11.436-14.056-7.377-13.297 9.037-29.531 17.165-47.686 23.388-11.29 3.87-22.443 6.69-33.129 8.526v53.354c0 5.039 2.276 9.542 5.853 12.562l89.019 88.744v-179.197z" fill="url(#SVGID_5_)"/><path d="m302.034 125.363c-13.297 9.037-29.531 17.165-47.686 23.388-11.29 3.87-22.443 6.69-33.129 8.526v53.354c0 9.093 7.394 16.464 16.516 16.464 9.121 0 16.516-7.371 16.516-16.464v-17.742c0-3.687 2.998-6.675 6.696-6.675 3.698 0 6.696 2.989 6.696 6.675v50.754c0 9.093 7.394 16.464 16.516 16.464 9.121 0 16.516-7.371 16.516-16.464v-31.021c0-4.244 3.451-7.685 7.709-7.685 4.258 0 7.709-3.441 7.709-7.685v-64.512c-.003-7.205-8.087-11.436-14.059-7.377z" fill="url(#SVGID_6_)"/><path d="m262.753 166.118c26.793-9.481 45.994-26.747 47.9-41.595-2.655-1.138-5.861-1.034-8.619.84-13.297 9.037-29.531 17.165-47.686 23.388-15.511 5.317-30.774 8.677-44.906 10.182-4.029.429-7.603 2.217-10.311 4.865 10.786 10.451 36.712 11.842 63.622 2.32z" fill="url(#SVGID_7_)"/><path d="m299.039 97.429c0 27.503-22.365 49.799-49.954 49.799s-49.954-22.296-49.954-49.799 22.365-97.429 49.954-97.429 49.954 69.926 49.954 97.429z" fill="url(#SVGID_8_)"/><path d="m259.31 112.334v54.944c-4.988 1.607-9.909 2.821-14.696 3.684v-58.627c0-4.044 3.292-7.325 7.348-7.325 2.024 0 3.863.82 5.198 2.143 1.327 1.33 2.15 3.163 2.15 5.181z" fill="url(#SVGID_9_)"/><path d="m286.183 102.602c0 20.425-16.609 36.983-37.098 36.983s-37.098-16.558-37.098-36.983 16.609-72.354 37.098-72.354 37.098 51.929 37.098 72.354z" fill="url(#SVGID_10_)"/><path d="m276.031 112.722c0 14.836-12.064 26.863-26.946 26.863s-26.946-12.027-26.946-26.863 12.064-52.555 26.946-52.555 26.946 37.719 26.946 52.555z" fill="url(#SVGID_11_)"/></g><path d="m272.03 273.367c-10.621-4.67-23.438-4.67-34.059 0-45.765 20.122-167.971 69.166-167.971 19.09 0 61.612 82.827 133.043 185 133.043s185-71.431 185-133.043c0 50.076-122.206 1.032-167.97-19.09z" fill="url(#SVGID_12_)"/><path d="m272.03 292.529c-10.621-4.67-23.438-4.67-34.059 0-38.327 16.852-130.253 53.975-159.124 36.187 5.169 10.87 12.48 21.557 21.599 31.639 39.269.113 106.245-27.137 137.526-40.89 10.621-4.67 23.438-4.67 34.059 0 31.281 13.754 98.257 41.003 137.526 40.89 9.119-10.082 16.429-20.769 21.598-31.639-28.873 17.788-120.798-19.335-159.125-36.187z" fill="url(#SVGID_13_)"/><path d="m237.97 328.193c-29.204 12.841-89.524 37.446-129.359 40.565 8.317 7.978 17.787 15.463 28.232 22.214 36.267-8.511 78.244-25.782 101.127-35.844 10.621-4.67 23.438-4.67 34.059 0 22.883 10.061 64.86 27.333 101.127 35.844 10.445-6.751 19.915-14.236 28.232-22.214-39.836-3.118-100.155-27.724-129.359-40.565-10.62-4.67-23.438-4.67-34.059 0z" fill="url(#SVGID_14_)"/><g><g><g><ellipse cx="114.603" cy="347.682" fill="url(#SVGID_15_)" rx="8.904" ry="8.876"/><path d="m122.551 347.682c0 4.376-3.558 7.923-7.948 7.923-4.389 0-7.948-3.547-7.948-7.923s3.558-7.923 7.948-7.923c4.389 0 7.948 3.547 7.948 7.923z" fill="url(#SVGID_16_)"/><path d="m118.586 339.742c.601 1.195.939 2.543.939 3.971 0 4.902-3.986 8.876-8.904 8.876-1.432 0-2.784-.337-3.983-.936 1.462 2.909 4.479 4.906 7.965 4.906 4.918 0 8.904-3.974 8.904-8.876 0-3.476-2.003-6.484-4.921-7.941z" fill="url(#SVGID_17_)"/></g><path d="m120.623 343.883c0 2.278-2.696 4.124-6.021 4.124s-6.021-1.847-6.021-4.124c0-2.278 2.695-4.124 6.021-4.124s6.021 1.847 6.021 4.124z" fill="url(#SVGID_18_)"/></g><g><g><ellipse cx="161.402" cy="335.16" fill="url(#SVGID_19_)" rx="8.904" ry="8.876"/><path d="m169.35 335.16c0 4.376-3.558 7.923-7.948 7.923-4.389 0-7.948-3.547-7.948-7.923s3.558-7.923 7.948-7.923c4.389 0 7.948 3.547 7.948 7.923z" fill="url(#SVGID_20_)"/><path d="m165.385 327.22c.601 1.195.939 2.543.939 3.971 0 4.902-3.986 8.876-8.904 8.876-1.432 0-2.784-.338-3.983-.936 1.462 2.909 4.479 4.906 7.965 4.906 4.918 0 8.904-3.974 8.904-8.876 0-3.476-2.003-6.484-4.921-7.941z" fill="url(#SVGID_21_)"/></g><path d="m167.422 331.361c0 2.278-2.696 4.124-6.021 4.124s-6.021-1.847-6.021-4.124c0-2.278 2.695-4.124 6.021-4.124s6.021 1.846 6.021 4.124z" fill="url(#SVGID_22_)"/></g><g><g><ellipse cx="208.201" cy="317.629" fill="url(#SVGID_23_)" rx="8.904" ry="8.876"/><path d="m216.149 317.629c0 4.376-3.558 7.923-7.948 7.923-4.389 0-7.948-3.547-7.948-7.923s3.558-7.923 7.948-7.923c4.389 0 7.948 3.547 7.948 7.923z" fill="url(#SVGID_24_)"/><path d="m212.184 309.689c.601 1.195.939 2.543.939 3.971 0 4.902-3.986 8.876-8.904 8.876-1.432 0-2.784-.337-3.983-.936 1.462 2.909 4.479 4.906 7.965 4.906 4.918 0 8.904-3.974 8.904-8.876 0-3.476-2.003-6.484-4.921-7.941z" fill="url(#SVGID_25_)"/></g><path d="m214.222 313.83c0 2.278-2.696 4.124-6.021 4.124s-6.021-1.847-6.021-4.124c0-2.278 2.695-4.124 6.021-4.124 3.325 0 6.021 1.846 6.021 4.124z" fill="url(#SVGID_26_)"/></g><g><g><ellipse cx="255" cy="302.602" fill="url(#SVGID_27_)" rx="8.904" ry="8.876"/><path d="m262.948 302.602c0 4.376-3.558 7.923-7.948 7.923-4.389 0-7.948-3.547-7.948-7.923s3.558-7.923 7.948-7.923c4.389 0 7.948 3.547 7.948 7.923z" fill="url(#SVGID_28_)"/><path d="m258.983 294.662c.601 1.195.939 2.543.939 3.971 0 4.902-3.986 8.876-8.904 8.876-1.432 0-2.784-.338-3.983-.936 1.462 2.909 4.479 4.906 7.965 4.906 4.918 0 8.904-3.974 8.904-8.876 0-3.476-2.003-6.484-4.921-7.941z" fill="url(#SVGID_29_)"/></g><path d="m261.021 298.803c0 2.278-2.696 4.124-6.021 4.124s-6.021-1.847-6.021-4.124c0-2.278 2.695-4.124 6.021-4.124 3.325 0 6.021 1.847 6.021 4.124z" fill="url(#SVGID_30_)"/></g><g><g><ellipse cx="301.799" cy="317.629" fill="url(#SVGID_31_)" rx="8.904" ry="8.876"/><path d="m309.747 317.629c0 4.376-3.558 7.923-7.948 7.923-4.389 0-7.948-3.547-7.948-7.923s3.558-7.923 7.948-7.923 7.948 3.547 7.948 7.923z" fill="url(#SVGID_32_)"/><path d="m305.782 309.689c.601 1.195.939 2.543.939 3.971 0 4.902-3.986 8.876-8.904 8.876-1.432 0-2.784-.337-3.983-.936 1.462 2.909 4.479 4.906 7.965 4.906 4.918 0 8.904-3.974 8.904-8.876 0-3.476-2.003-6.484-4.921-7.941z" fill="url(#SVGID_33_)"/></g><path d="m307.82 313.83c0 2.278-2.696 4.124-6.021 4.124s-6.021-1.847-6.021-4.124c0-2.278 2.695-4.124 6.021-4.124 3.325 0 6.021 1.846 6.021 4.124z" fill="url(#SVGID_34_)"/></g><g><g><ellipse cx="348.598" cy="335.16" fill="url(#SVGID_35_)" rx="8.904" ry="8.876"/><path d="m356.546 335.16c0 4.376-3.558 7.923-7.948 7.923-4.389 0-7.948-3.547-7.948-7.923s3.558-7.923 7.948-7.923 7.948 3.547 7.948 7.923z" fill="url(#SVGID_36_)"/><path d="m352.581 327.22c.601 1.195.939 2.543.939 3.971 0 4.902-3.986 8.876-8.904 8.876-1.432 0-2.784-.338-3.983-.936 1.462 2.909 4.479 4.906 7.965 4.906 4.918 0 8.904-3.974 8.904-8.876 0-3.476-2.003-6.484-4.921-7.941z" fill="url(#SVGID_37_)"/></g><path d="m354.619 331.361c0 2.278-2.696 4.124-6.021 4.124s-6.021-1.847-6.021-4.124c0-2.278 2.695-4.124 6.021-4.124 3.325 0 6.021 1.846 6.021 4.124z" fill="url(#SVGID_38_)"/></g><g><g><ellipse cx="395.397" cy="347.682" fill="url(#SVGID_39_)" rx="8.904" ry="8.876"/><path d="m403.345 347.682c0 4.376-3.558 7.923-7.948 7.923-4.389 0-7.948-3.547-7.948-7.923s3.558-7.923 7.948-7.923 7.948 3.547 7.948 7.923z" fill="url(#SVGID_40_)"/><path d="m399.38 339.742c.601 1.195.939 2.543.939 3.971 0 4.902-3.986 8.876-8.904 8.876-1.432 0-2.784-.337-3.983-.936 1.462 2.909 4.479 4.906 7.965 4.906 4.918 0 8.904-3.974 8.904-8.876 0-3.476-2.003-6.484-4.921-7.941z" fill="url(#SVGID_41_)"/></g><path d="m401.418 343.883c0 2.278-2.696 4.124-6.021 4.124s-6.021-1.847-6.021-4.124c0-2.278 2.695-4.124 6.021-4.124 3.325 0 6.021 1.847 6.021 4.124z" fill="url(#SVGID_42_)"/></g></g><path d="m440 292.457c0 50.076-122.206 1.032-167.97-19.09-5.31-2.335-11.17-3.502-17.03-3.502v155.635c102.173 0 185-71.431 185-133.043z" fill="url(#SVGID_43_)"/></g><g><g><g><path d="m37.033 231.655-.594 39.848c-.087 5.929.112 11.834.592 17.695 1.885 23.042 21.018 40.861 44.134 41.261-7.77-14.876-11.777-31.608-11.412-48.665l1.003-46.398c.125-5.712-2.098-10.951-5.789-14.772-3.657-3.786-8.764-6.187-14.441-6.294-1.33-.032-2.628.076-3.901.298-5.663 3.554-9.485 9.81-9.592 17.027z" fill="url(#SVGID_44_)"/><path d="m25.917 193.01c10.806.211 19.413 9.178 19.181 19.984l-.946 43.985c-.368 17.118 3.906 33.866 12.127 48.586 7.206-6.71 18.507-6.423 25.407.72l8.346 8.64c16.539 17.121 37.792 28.934 61.035 33.923 26.716 5.734 48.689 24.753 58.21 50.385l48.61 110.76s-76.484-.025-80.82 0c-5.809.033-11.576-2.782-15.008-8.17-.019-.029-.036-.057-.053-.083-21.236-33.23-45.744-64.269-73.158-92.65l-34.309-35.517c-32.045-33.174-49.658-77.662-48.963-123.679l.57-37.786c.163-10.757 9.014-19.308 19.771-19.098z" fill="url(#SVGID_45_)"/><path d="m257.887 509.993-48.608-110.76c-3.909-10.513-9.904-19.915-17.466-27.743-10.875-11.259-24.984-19.262-40.744-22.644-23.242-4.99-44.502-16.8-61.041-33.921l-8.343-8.637c-2.299-2.38-5.086-4.004-8.047-4.85-2.457-.714-5.032-.888-7.543-.533-3.563.486-7.004 2.043-9.818 4.66-8.217-14.72-12.494-31.469-12.125-48.583l.947-43.986c.201-9.223-6.042-17.105-14.6-19.34-7.171 2.753-12.296 9.644-12.417 17.804l-.576 37.788c-.693 46.016 16.922 90.504 48.965 123.675l34.312 35.52c28.324 29.321 53.548 67.071 75.266 101.552.008.014 81.838-.002 81.838-.002z" fill="url(#SVGID_46_)"/><path d="m56.279 305.565c7.206-6.71 18.507-6.423 25.407.72l8.346 8.64c16.539 17.121 37.792 28.934 61.035 33.923 26.716 5.734 48.689 24.753 58.21 50.385l.899 2.419-66.929-1.158-21.189-13.104c-20.967-12.967-40.238-28.496-57.366-46.228l-9.01-9.327c-6.968-7.214-6.99-18.939.223-25.908.081-.079.374-.362.374-.362z" fill="url(#SVGID_47_)"/></g><g><path d="m472.967 231.655.594 39.848c.087 5.929-.112 11.834-.592 17.695-1.885 23.042-21.018 40.861-44.134 41.261 7.77-14.876 11.777-31.608 11.412-48.665l-1.003-46.398c-.125-5.712 2.098-10.951 5.789-14.772 3.657-3.786 8.764-6.187 14.441-6.294 1.33-.032 2.628.076 3.901.298 5.663 3.554 9.485 9.81 9.592 17.027z" fill="url(#SVGID_48_)"/><path d="m484.083 193.01c-10.806.211-19.413 9.178-19.181 19.984l.946 43.985c.368 17.118-3.906 33.866-12.127 48.586-7.206-6.71-18.507-6.423-25.407.72l-8.346 8.64c-16.539 17.121-37.792 28.934-61.035 33.923-26.716 5.734-48.689 24.753-58.21 50.385l-48.61 110.76s76.484-.025 80.82 0c5.809.033 11.576-2.782 15.008-8.17.019-.029.036-.057.053-.083 21.236-33.23 45.744-64.269 73.158-92.65l34.309-35.517c32.045-33.173 49.657-77.662 48.963-123.678l-.57-37.786c-.163-10.758-9.014-19.309-19.771-19.099z" fill="url(#SVGID_49_)"/><path d="m252.113 509.993 48.608-110.76c3.909-10.513 9.904-19.915 17.466-27.743 10.875-11.259 24.984-19.262 40.744-22.644 23.242-4.99 44.502-16.8 61.041-33.921l8.343-8.637c2.299-2.38 5.086-4.004 8.047-4.85 2.457-.714 5.032-.888 7.543-.533 3.563.486 7.004 2.043 9.818 4.66 8.217-14.72 12.494-31.469 12.125-48.583l-.947-43.986c-.201-9.223 6.043-17.105 14.6-19.34 7.171 2.753 12.296 9.644 12.417 17.804l.576 37.788c.693 46.016-16.922 90.504-48.965 123.675l-34.312 35.52c-28.324 29.321-53.548 67.071-75.266 101.552-.008.014-81.838-.002-81.838-.002z" fill="url(#SVGID_50_)"/><path d="m453.721 305.565c-7.206-6.71-18.507-6.423-25.407.72l-8.346 8.64c-16.539 17.121-37.792 28.934-61.035 33.923-26.716 5.734-48.689 24.753-58.21 50.385l-.899 2.419 66.929-1.158 21.189-13.104c20.967-12.967 40.238-28.496 57.366-46.228l9.01-9.327c6.968-7.214 6.99-18.939-.223-25.908-.081-.079-.374-.362-.374-.362z" fill="url(#SVGID_51_)"/></g><g><path d="m253.216 510h-98.381c-7.261 0-13.147-5.886-13.147-13.147 0-7.261 5.886-13.147 13.147-13.147h98.381c7.261 0 13.147 5.886 13.147 13.147 0 7.261-5.886 13.147-13.147 13.147z" fill="url(#SVGID_52_)"/><path d="m355.164 510h-98.381c-7.261 0-13.147-5.886-13.147-13.147 0-7.261 5.886-13.147 13.147-13.147h98.381c7.261 0 13.147 5.886 13.147 13.147 0 7.261-5.886 13.147-13.147 13.147z" fill="url(#SVGID_53_)"/></g></g></g></g></svg>