<svg height="128" viewBox="0 0 128 128" width="128" xmlns="http://www.w3.org/2000/svg"><g><g><path d="m91.058 30.534a.5.5 0 0 1 -.5-.5v-8.4a.5.5 0 0 1 1 0v8.4a.5.5 0 0 1 -.5.5z" fill="#ffb045"/><path d="m83.324 43.345h15.467v60.621h-15.467z" fill="#ffdcab"/><g fill="#f0a660"><path d="m91.057 49.422a3.025 3.025 0 0 0 -3.025 3.024v4.954h6.05v-4.95a3.024 3.024 0 0 0 -3.025-3.028z"/><path d="m91.057 70.142a3.026 3.026 0 0 0 -3.025 3.025v4.95h6.05v-4.95a3.025 3.025 0 0 0 -3.025-3.025z"/><path d="m91.057 90.863a3.025 3.025 0 0 0 -3.025 3.025v4.949h6.05v-4.949a3.025 3.025 0 0 0 -3.025-3.025z"/></g><path d="m83.32 41h15.47v4.1h-15.47z" fill="#ffc475"/><g fill="#ffb045"><path d="m85.19 45.1v-2.05a.5.5 0 0 1 1 0v2.05z"/><path d="m91.56 43.05v2.05h-1v-2.05a.5.5 0 0 1 .5-.5.5.5 0 0 1 .5.5z"/><path d="m96.93 43.05v2.05h-1v-2.05a.5.5 0 0 1 .5-.5.5.5 0 0 1 .5.5z"/></g><path d="m95.171 29.735c-3.923-2.072-4.114-3.2-4.114-3.4 0 .2-.191 1.324-4.114 3.4-4.35 2.3-1.932 7.747-1.932 7.747h12.089s2.426-5.444-1.929-7.747z" fill="#ffb045"/><path d="m101.652 64.254h-21.19a1.5 1.5 0 0 1 0-3h21.19a1.5 1.5 0 0 1 0 3z" fill="#ffc475"/><path d="m94.187 22.322a2.986 2.986 0 1 1 -2.33-4.853 2.918 2.918 0 0 1 .85.125 2.482 2.482 0 0 0 1.48 4.728z" fill="#ffd92e"/><path d="m101.652 86.442h-21.19a1.5 1.5 0 0 1 0-3h21.19a1.5 1.5 0 0 1 0 3z" fill="#ffc475"/><path d="m97.19 37.482h-12.268l-1.598 3.518h15.464z" fill="#ffd69c"/></g><g><path d="m55.041 42.83a.525.525 0 0 1 -.5-.549v-3.455a.5.5 0 1 1 1 0v3.455a.526.526 0 0 1 -.5.549z" fill="#ffb045"/><path d="m69.863 72.727h-29.647s-6.391-6.692-3.471-15.265 18.3-12.262 18.3-16.7c0 4.437 15.369 8.126 18.289 16.7s-3.471 15.265-3.471 15.265z" fill="#ffb045"/><path d="m34.212 74.981h41.657v31.101h-41.657z" fill="#ffdcab"/><path d="m63.967 91.9v14.178h-19.257v-14.178a5.217 5.217 0 0 1 4.306-5c2.281-.462 4.251-1.406 5.323-3.773 1.071 2.373 3.041 3.312 5.322 3.773a5.216 5.216 0 0 1 4.306 5z" fill="#f0a660"/><path d="m54.54 79.2h-3.96-1-3.96-1-3.97-1-5.44v-4.22h41.66v4.22h-5.44-1-3.97-1-3.96-1-3.96z" fill="#ffc475"/><path d="m59.619 36.151a4.365 4.365 0 0 1 -2.65 2.731 4.434 4.434 0 0 1 -3.027-8.334 4.258 4.258 0 0 1 1.238-.248 3.688 3.688 0 0 0 3.651 6.255 3.6 3.6 0 0 0 .788-.404z" fill="#ffd92e"/><g fill="#ffb045"><path d="m39.65 79.2v-2.53a.5.5 0 0 1 .5-.5.5.5 0 0 1 .5.5v2.53z"/><path d="m44.62 79.2v-2.53a.5.5 0 0 1 .5-.5.5.5 0 0 1 .5.5v2.53z"/><path d="m49.58 79.2v-2.53a.5.5 0 0 1 .5-.5.5.5 0 0 1 .5.5v2.53z"/><path d="m54.54 79.2v-2.53a.5.5 0 0 1 1 0v2.53z"/><path d="m59.5 79.2v-2.53a.5.5 0 0 1 .5-.5.5.5 0 0 1 .5.5v2.53z"/><path d="m64.46 79.2v-2.53a.5.5 0 0 1 .5-.5.5.5 0 0 1 .5.5v2.53z"/><path d="m69.43 79.2v-2.53a.5.5 0 0 1 .5-.5.5.5 0 0 1 .5.5v2.53z"/></g><path d="m74.51 74.981h-38.939l1.495-2.823h35.948z" fill="#ffd69c"/></g><g fill="#ffd92e"><path d="m119.655 53.242a.607.607 0 0 0 -.1.047 9.435 9.435 0 0 0 -5.038 6.9 9.392 9.392 0 0 0 -5.038-6.9.643.643 0 0 0 -.095-.047c.039-.021.071-.034.1-.055a9.435 9.435 0 0 0 5.03-6.895 9.4 9.4 0 0 0 5.03 6.895c.039.021.071.034.111.055z"/><path d="m109.833 40.872a.359.359 0 0 0 -.062.031 6.136 6.136 0 0 0 -3.278 4.486 6.107 6.107 0 0 0 -3.278-4.486.326.326 0 0 0 -.062-.031c.026-.014.047-.022.068-.036a6.138 6.138 0 0 0 3.272-4.486 6.112 6.112 0 0 0 3.273 4.486.678.678 0 0 0 .067.036z"/><path d="m119.589 79.834a56.747 56.747 0 1 1 -60.053-72.468c-.258.121-.525.244-.79.377-28.132 13.832-41.497 44.248-29.846 67.917s43.882 31.665 72.014 17.834a65.728 65.728 0 0 0 18.675-13.66z"/></g></g></svg>