<svg id="Layer_1" enable-background="new 0 0 140 140" height="512" viewBox="0 0 140 140" width="512" xmlns="http://www.w3.org/2000/svg"><g><g><g><path d="m134 70.17-16.57 19.62-2.29 25.58-25.6 2.17-19.71 16.46-19.62-16.57-25.58-2.29-2.17-25.6-16.46-19.71 16.57-19.62 2.29-25.58 25.6-2.17 19.71-16.46 19.62 16.57 25.58 2.29 2.17 25.6z" fill="#ffd23c"/></g><g><g><path d="m22.52 53.33 2.23-25.59 25.58-2.22 19.67-15.52 19.67 15.52 25.59 2.23 2.22 25.58 15.26 18.17 1.26-1.5-16.52-19.67-2.22-25.58-25.59-2.23-19.67-16.52-19.67 16.52-25.58 2.22-2.23 25.59-16.52 19.67 1.26 1.5z" fill="#ffe693"/></g><g><path d="m22.52 86.67 2.23 25.59 25.58 2.22 19.67 15.52 19.67-15.52 25.59-2.23 2.22-25.58 15.26-18.17 1.26 1.5-16.52 19.67-2.22 25.58-25.59 2.23-19.67 16.52-19.67-16.52-25.58-2.22-2.23-25.59-16.52-19.67 1.26-1.5z" fill="#dfb835"/></g><g><path d="m70 135c-.23 0-.46-.08-.64-.23l-19.42-16.31-25.27-2.2c-.48-.04-.87-.43-.91-.91l-2.2-25.27-16.33-19.44c-.31-.37-.31-.91 0-1.29l16.31-19.42 2.2-25.27c.04-.48.43-.87.91-.91l25.27-2.2 19.44-16.32c.37-.31.91-.31 1.29 0l19.42 16.31 25.27 2.2c.48.04.87.43.91.91l2.2 25.27 16.31 19.42c.31.37.31.91 0 1.29l-16.31 19.42-2.2 25.27c-.04.48-.43.87-.91.91l-25.27 2.2-19.42 16.31c-.19.18-.42.26-.65.26zm-44.33-20.67 24.75 2.16c.2.02.4.1.56.23l19.02 15.97 19.02-15.98c.16-.13.35-.21.56-.23l24.75-2.16 2.16-24.75c.02-.2.1-.4.23-.56l15.97-19.01-15.98-19.02c-.13-.16-.21-.35-.23-.56l-2.16-24.75-24.75-2.16c-.2-.02-.4-.1-.56-.23l-19.01-15.97-19.02 15.97c-.16.13-.35.21-.56.23l-24.75 2.16-2.16 24.75c-.02.2-.1.4-.23.56l-15.97 19.02 15.98 19.02c.13.16.21.35.23.56z" fill="#231f20"/></g></g><g><path d="m69.85 127.16c-.23 0-.46-.08-.65-.24l-16.98-14.33-22.14-1.99c-.48-.04-.87-.43-.91-.91l-1.87-22.15-14.23-17.05c-.31-.37-.31-.92 0-1.29l14.33-16.98 1.99-22.14c.04-.48.43-.87.91-.91l22.15-1.87 17.05-14.25c.37-.31.92-.31 1.29 0l16.98 14.33 22.14 1.99c.48.04.87.43.91.91l1.87 22.15 14.25 17.05c.31.37.31.92 0 1.29l-14.33 16.98-1.99 22.14c-.04.48-.43.87-.91.91l-22.15 1.87-17.05 14.25c-.2.17-.43.24-.66.24zm-38.74-18.47 21.62 1.94c.2.02.4.1.56.23l16.58 14 16.65-13.91c.16-.13.35-.21.56-.23l21.63-1.83 1.94-21.62c.02-.2.1-.4.23-.56l14-16.58-13.91-16.65c-.13-.16-.21-.35-.23-.56l-1.83-21.63-21.62-1.94c-.2-.02-.4-.1-.56-.23l-16.58-14-16.66 13.93c-.16.13-.35.21-.56.23l-21.63 1.83-1.94 21.62c-.02.2-.1.4-.23.56l-14 16.58 13.91 16.65c.13.16.21.35.23.56z" fill="#231f20"/></g><g><path d="m52.63 111.63-22.45-2.02-1.9-22.46-14.44-17.3 14.53-17.22 2.02-22.45 22.46-1.9 17.3-14.44 17.22 14.53 22.45 2.02 1.9 22.46 14.44 17.3-14.53 17.22-2.02 22.45-22.46 1.9-17.3 14.44z" fill="#f2f2f3"/></g><g><path d="m18.84 72.8 14.53-17.22 2.02-22.46 22.46-1.89 16.53-13.82-4.23-3.57-17.3 14.44-22.46 1.9-2.02 22.45-14.53 17.22 7.7 9.23z" fill="#d4d4d5"/></g><g><path d="m69.85 127.16c-.23 0-.46-.08-.65-.24l-16.98-14.33-22.14-1.99c-.48-.04-.87-.43-.91-.91l-1.87-22.15-14.23-17.05c-.31-.37-.31-.92 0-1.29l14.33-16.98 1.99-22.14c.04-.48.43-.87.91-.91l22.15-1.87 17.05-14.25c.37-.31.92-.31 1.29 0l16.98 14.33 22.14 1.99c.48.04.87.43.91.91l1.87 22.15 14.25 17.05c.31.37.31.92 0 1.29l-14.33 16.98-1.99 22.14c-.04.48-.43.87-.91.91l-22.15 1.87-17.05 14.25c-.2.17-.43.24-.66.24zm-38.74-18.47 21.62 1.94c.2.02.4.1.56.23l16.58 14 16.65-13.91c.16-.13.35-.21.56-.23l21.63-1.83 1.94-21.62c.02-.2.1-.4.23-.56l14-16.58-13.91-16.65c-.13-.16-.21-.35-.23-.56l-1.83-21.63-21.62-1.94c-.2-.02-.4-.1-.56-.23l-16.58-14-16.66 13.93c-.16.13-.35.21-.56.23l-21.63 1.83-1.94 21.62c-.02.2-.1.4-.23.56l-14 16.58 13.91 16.65c.13.16.21.35.23.56z" fill="#231f20"/></g></g><g><g><path d="m134 116.53h-128l5.95-13.77-5.95-13.76h128l-5.95 13.76z" fill="#f05262"/></g><g><g><path d="m29.95 106.58c0 .15-.01.27-.02.37s-.03.18-.06.24-.06.1-.09.13c-.04.03-.08.04-.12.04h-4.91c-.17 0-.31-.05-.42-.15s-.17-.26-.17-.48v-8.53c0-.22.06-.38.17-.48s.25-.15.42-.15h4.88c.05 0 .09.01.12.04s.07.07.09.13c.03.06.04.14.06.24.01.1.02.22.02.37 0 .14-.01.26-.02.36s-.03.18-.06.24-.06.1-.09.13c-.04.03-.08.04-.12.04h-3.49v2.39h2.95c.05 0 .09.01.12.04.04.03.07.07.09.13s.04.14.06.23c.01.1.02.22.02.36 0 .15-.01.27-.02.36s-.03.17-.06.23-.06.1-.09.12c-.04.03-.08.04-.12.04h-2.95v2.76h3.52c.05 0 .09.01.12.04.04.03.07.07.09.13.03.06.04.14.06.24.01.12.02.24.02.39z" fill="#fff"/></g><g><path d="m33.7 107.08c0 .05-.02.1-.05.14s-.09.07-.16.1c-.08.03-.18.05-.3.06-.13.02-.29.02-.48.02s-.35-.01-.48-.02c-.13-.02-.23-.04-.31-.06-.08-.03-.13-.06-.16-.1s-.05-.09-.05-.14v-9.23c0-.05.02-.1.05-.14s.09-.07.17-.1.18-.05.31-.06c.13-.02.28-.02.48-.02s.36.01.48.02c.13.02.23.04.3.06.08.03.13.06.16.1s.05.09.05.14v9.23z" fill="#fff"/></g><g><path d="m43.95 102.32c0 .9-.12 1.66-.35 2.3s-.57 1.16-1.01 1.56-.97.7-1.6.89-1.37.28-2.24.28h-2.33c-.17 0-.31-.05-.42-.15s-.17-.26-.17-.48v-8.52c0-.22.06-.38.17-.48s.25-.15.42-.15h2.51c.87 0 1.61.1 2.22.31.61.2 1.12.51 1.53.91.42.4.73.9.95 1.48.21.59.32 1.28.32 2.05zm-2.05.07c0-.46-.05-.89-.16-1.29s-.28-.74-.52-1.04c-.24-.29-.55-.52-.92-.68-.38-.16-.87-.25-1.48-.25h-1v6.65h1.04c.54 0 1-.07 1.38-.21s.68-.35.93-.64c.25-.28.44-.64.56-1.06s.17-.92.17-1.48z" fill="#fff"/></g><g><path d="m60.48 107.08c0 .05-.01.1-.04.14s-.08.07-.15.1-.17.05-.29.06-.27.02-.46.02c-.18 0-.33-.01-.45-.02-.12-.02-.22-.04-.29-.06-.07-.03-.12-.06-.15-.1s-.05-.09-.05-.14v-7.96h-.02l-2.83 7.95c-.02.07-.05.12-.1.16s-.11.08-.19.1c-.08.03-.18.04-.3.05s-.27.01-.44.01-.32-.01-.44-.02-.22-.03-.3-.06-.14-.06-.19-.1-.08-.09-.09-.14l-2.74-7.95h-.02v7.96c0 .05-.01.1-.04.14s-.08.07-.15.1c-.08.03-.17.05-.29.06-.12.02-.27.02-.46.02-.18 0-.33-.01-.45-.02-.12-.02-.22-.04-.29-.06-.07-.03-.12-.06-.15-.1s-.04-.09-.04-.14v-8.71c0-.26.07-.45.2-.59.14-.14.32-.2.54-.2h1.3c.23 0 .43.02.6.06s.31.1.43.19.22.2.3.35c.08.14.15.32.21.53l2.12 5.83h.03l2.19-5.81c.07-.21.14-.39.22-.54s.17-.26.27-.36c.1-.09.23-.15.37-.19s.3-.06.49-.06h1.34c.14 0 .25.02.35.05s.18.09.24.15.11.15.14.25.05.21.05.34v8.71z" fill="#fff"/></g><g><path d="m70.59 103.71c0 .6-.09 1.14-.26 1.61-.18.47-.44.87-.78 1.2s-.77.58-1.27.75-1.08.26-1.74.26c-.61 0-1.17-.08-1.65-.23-.49-.15-.9-.39-1.24-.7s-.6-.7-.77-1.17c-.18-.47-.27-1.01-.27-1.64v-5.95c0-.05.02-.1.05-.14s.08-.07.16-.1.18-.05.31-.06c.13-.02.29-.02.48-.02s.35.01.48.02c.13.02.23.04.3.06.08.03.13.06.16.1s.05.09.05.14v5.77c0 .39.05.72.14 1.01.1.28.23.52.41.71s.39.33.64.42.53.14.83.14c.31 0 .59-.05.84-.14.25-.1.46-.24.63-.42s.3-.41.4-.68c.09-.27.14-.58.14-.92v-5.89c0-.05.02-.1.05-.14s.08-.07.16-.1.18-.05.31-.06c.13-.02.29-.02.48-.02s.35.01.47.02c.12.02.22.04.3.06s.13.06.16.1.05.09.05.14v5.87z" fill="#fff"/></g><g><path d="m79.79 104.42c0 .35-.05.66-.14.94-.1.28-.23.53-.4.75s-.37.4-.6.56-.49.28-.77.39-.58.18-.9.22c-.32.05-.68.07-1.07.07h-2.6c-.17 0-.31-.05-.42-.15s-.17-.26-.17-.48v-8.52c0-.22.06-.38.17-.48s.25-.15.42-.15h2.46c.6 0 1.11.05 1.52.15.42.1.77.25 1.05.46.28.2.5.46.65.77s.23.68.23 1.1c0 .24-.03.46-.09.67s-.15.4-.26.57c-.12.17-.26.32-.43.45s-.36.24-.58.32c.28.05.53.14.77.26.23.13.44.29.61.49s.31.43.41.7c.09.28.14.58.14.91zm-2.57-4.12c0-.2-.03-.37-.09-.53s-.15-.29-.27-.39-.27-.18-.46-.24c-.18-.06-.43-.08-.74-.08h-1v2.54h1.11c.29 0 .52-.03.69-.1s.31-.16.43-.28c.11-.12.2-.26.25-.42s.08-.32.08-.5zm.51 4.19c0-.23-.04-.43-.11-.61-.08-.18-.19-.33-.33-.45-.15-.12-.33-.21-.56-.28s-.52-.1-.88-.1h-1.18v2.78h1.44c.28 0 .51-.03.7-.09s.35-.14.49-.26c.14-.11.25-.25.32-.42.07-.16.11-.35.11-.57z" fill="#fff"/></g><g><path d="m89.25 106.61c.06.18.1.32.11.43s-.01.19-.06.24-.15.09-.29.1-.33.02-.58.02c-.26 0-.46 0-.6-.01s-.25-.02-.33-.05c-.08-.02-.13-.05-.16-.09s-.06-.09-.08-.16l-.66-1.96h-3.67l-.62 1.91c-.02.07-.05.13-.08.18s-.09.09-.16.11c-.07.03-.18.05-.31.06s-.31.02-.53.02c-.23 0-.41-.01-.54-.02-.13-.02-.22-.05-.27-.11s-.07-.14-.05-.25.05-.25.11-.42l3.01-8.67c.03-.09.07-.15.11-.21s.1-.09.19-.12.21-.05.37-.05.36-.01.62-.01c.3 0 .53 0 .71.01s.31.03.41.05c.1.03.17.07.21.12.04.06.08.13.11.23zm-4.49-7.17-1.39 4.16h2.77z" fill="#fff"/></g><g><path d="m97.87 107.1c0 .06-.01.1-.03.14s-.07.07-.14.09c-.08.03-.19.04-.33.05-.15.01-.35.02-.6.02-.21 0-.38-.01-.51-.02s-.23-.03-.3-.06-.12-.06-.15-.11-.06-.09-.08-.15l-.88-2.18c-.11-.25-.21-.47-.31-.66s-.21-.35-.34-.48c-.12-.13-.27-.23-.43-.29-.16-.07-.35-.1-.56-.1h-.61v3.73c0 .05-.02.1-.05.14s-.09.07-.16.1c-.08.03-.18.05-.3.06-.13.02-.29.02-.48.02s-.35-.01-.48-.02-.23-.04-.31-.06c-.08-.03-.13-.06-.16-.1s-.05-.09-.05-.14v-8.88c0-.22.06-.38.17-.48s.25-.15.42-.15h2.53c.26 0 .47.01.63.02.17.01.32.02.45.04.39.06.75.15 1.06.29s.58.31.8.53.39.48.5.78c.12.3.17.64.17 1.03 0 .33-.04.63-.12.9s-.21.51-.37.72-.36.4-.6.55c-.24.16-.51.28-.81.38.15.07.28.16.41.26s.25.22.36.37c.11.14.22.31.32.49s.2.39.29.62l.82 1.93c.08.19.13.33.15.42.07.08.08.15.08.2zm-2.56-6.64c0-.32-.07-.59-.22-.82-.15-.22-.39-.38-.72-.47-.1-.03-.22-.05-.34-.06-.13-.02-.31-.02-.53-.02h-.9v2.77h1.01c.28 0 .53-.03.74-.1s.39-.16.53-.29.25-.27.32-.44.11-.36.11-.57z" fill="#fff"/></g><g><path d="m107.34 106.61c.06.18.1.32.11.43s-.01.19-.06.24-.15.09-.29.1-.33.02-.58.02c-.26 0-.46 0-.6-.01s-.25-.02-.33-.05c-.08-.02-.13-.05-.16-.09s-.06-.09-.08-.16l-.66-1.96h-3.67l-.62 1.91c-.02.07-.05.13-.08.18s-.09.09-.16.11c-.07.03-.18.05-.31.06s-.31.02-.53.02c-.23 0-.41-.01-.54-.02-.13-.02-.22-.05-.27-.11s-.07-.14-.05-.25.05-.25.11-.42l3.01-8.67c.03-.09.07-.15.11-.21.04-.05.1-.09.19-.12s.21-.05.37-.05.36-.01.62-.01c.3 0 .53 0 .71.01s.31.03.41.05c.1.03.17.07.21.12.04.06.08.13.11.23zm-4.49-7.17-1.39 4.16h2.77z" fill="#fff"/></g><g><path d="m115.84 107.06c0 .06-.01.1-.04.15-.03.04-.08.08-.16.11s-.19.05-.32.06-.31.02-.51.02c-.33 0-.56-.01-.71-.04s-.25-.06-.31-.11-.11-.11-.15-.18l-2.95-4.64v4.64c0 .06-.02.1-.05.14s-.08.07-.16.1-.18.05-.3.06-.29.02-.48.02-.35-.01-.48-.02c-.13-.02-.23-.04-.31-.06-.08-.03-.13-.06-.16-.1s-.05-.09-.05-.14v-9.21c0-.06.02-.1.05-.14s.09-.07.16-.1c.08-.03.18-.05.31-.06.13-.02.29-.02.48-.02.2 0 .36.01.48.02.13.02.23.04.3.06.08.03.13.06.16.1s.05.09.05.14v4.16l2.86-4.16c.04-.07.08-.12.13-.16s.12-.08.2-.1c.08-.03.18-.04.31-.05s.29-.02.48-.02c.2 0 .37.01.5.02.13.02.24.04.31.06.08.03.13.06.16.1s.05.09.05.14c0 .09-.02.17-.07.26s-.13.23-.26.43l-2.68 3.51 2.92 4.42c.11.21.18.34.2.41.03.08.04.14.04.18z" fill="#fff"/></g></g><g><path d="m132.69 92.03 1.31-3.03h-128l1.31 3.03z" fill="#fcb2b2"/></g><g><path d="m7.31 113.5-1.31 3.03h128l-1.31-3.03z" fill="#dc8989"/></g><g><path d="m134 117.53h-128c-.34 0-.65-.17-.84-.45-.18-.28-.22-.64-.08-.95l5.78-13.37-5.78-13.36c-.13-.31-.1-.66.08-.95.19-.28.5-.45.84-.45h128c.34 0 .65.17.84.45.18.28.22.64.08.95l-5.78 13.37 5.78 13.37c.13.31.1.66-.08.95-.19.27-.5.44-.84.44zm-126.48-2h124.96l-5.35-12.37c-.11-.25-.11-.54 0-.79l5.35-12.37h-124.96l5.35 12.37c.11.25.11.54 0 .79z" fill="#231f20"/></g></g><g><g><path d="m55.78 49.67c1.25 0 2.26-1.01 2.26-2.26s-1.01-2.26-2.26-2.26h-13.89c-1.25 0-2.26 1.01-2.26 2.26v29.33c0 1.25 1.01 2.26 2.26 2.26h13.89c1.25 0 2.26-1.01 2.26-2.26s-1.01-2.26-2.26-2.26h-11.64v-10.15h6.12c1.25 0 2.26-1.01 2.26-2.26s-1.01-2.26-2.26-2.26h-6.12v-10.14z" fill="#f05262"/><path d="m55.78 80h-13.89c-1.8 0-3.26-1.46-3.26-3.26v-29.33c0-1.8 1.46-3.26 3.26-3.26h13.89c1.8 0 3.26 1.46 3.26 3.26s-1.46 3.26-3.26 3.26h-10.64v8.15h5.12c1.8 0 3.26 1.46 3.26 3.26s-1.46 3.26-3.26 3.26h-5.12v8.15h10.64c1.8 0 3.26 1.46 3.26 3.26s-1.46 3.25-3.26 3.25zm-13.89-33.84c-.69 0-1.26.56-1.26 1.26v29.33c0 .69.56 1.26 1.26 1.26h13.89c.69 0 1.26-.56 1.26-1.26 0-.69-.56-1.26-1.26-1.26h-11.64c-.55 0-1-.45-1-1v-10.16c0-.55.45-1 1-1h6.12c.69 0 1.26-.56 1.26-1.26s-.56-1.26-1.26-1.26h-6.12c-.55 0-1-.45-1-1v-10.14c0-.55.45-1 1-1h11.64c.69 0 1.26-.56 1.26-1.26 0-.69-.56-1.26-1.26-1.26h-13.89z" fill="#231f20"/></g><g><path d="m89.45 45.16h-3.38c-1.25 0-2.26 1.01-2.26 2.26v29.33c0 1.25 1.01 2.26 2.26 2.26h3.38c9.33 0 16.92-7.59 16.92-16.92s-7.59-16.93-16.92-16.93zm0 29.33h-1.13v-24.82h1.13c6.84 0 12.41 5.57 12.41 12.41s-5.57 12.41-12.41 12.41z" fill="#f05262"/><path d="m89.45 80h-3.38c-1.8 0-3.26-1.46-3.26-3.26v-29.33c0-1.8 1.46-3.26 3.26-3.26h3.38c9.88 0 17.92 8.04 17.92 17.92s-8.04 17.93-17.92 17.93zm-3.39-33.84c-.69 0-1.26.56-1.26 1.26v29.33c0 .69.56 1.26 1.26 1.26h3.38c8.78 0 15.92-7.14 15.92-15.92s-7.14-15.92-15.92-15.92h-3.38zm3.39 29.33h-1.13c-.55 0-1-.45-1-1v-24.82c0-.55.45-1 1-1h1.13c7.39 0 13.41 6.02 13.41 13.41s-6.02 13.41-13.41 13.41zm-.13-2h.13c6.29 0 11.41-5.12 11.41-11.41s-5.12-11.41-11.41-11.41h-.13z" fill="#231f20"/></g><g><path d="m74.78 49.67c1.25 0 2.26-1.01 2.26-2.26s-1.01-2.26-2.26-2.26h-9.02c-1.25 0-2.26 1.01-2.26 2.26s1.01 2.26 2.26 2.26h2.26v24.82h-2.26c-1.25 0-2.26 1.01-2.26 2.26s1.01 2.25 2.26 2.25h9.02c1.25 0 2.26-1.01 2.26-2.26s-1.01-2.26-2.26-2.26h-2.26v-24.81z" fill="#f05262"/><path d="m74.78 80h-9.02c-1.8 0-3.26-1.46-3.26-3.26s1.46-3.26 3.26-3.26h1.26v-22.81h-1.26c-1.8 0-3.26-1.46-3.26-3.26s1.46-3.26 3.26-3.26h9.02c1.8 0 3.26 1.46 3.26 3.26s-1.46 3.26-3.26 3.26h-1.26v22.82h1.26c1.8 0 3.26 1.46 3.26 3.26s-1.46 3.25-3.26 3.25zm-9.02-4.51c-.69 0-1.26.56-1.26 1.26 0 .69.56 1.26 1.26 1.26h9.02c.69 0 1.26-.56 1.26-1.26 0-.69-.56-1.26-1.26-1.26h-2.26c-.55 0-1-.45-1-1v-24.82c0-.55.45-1 1-1h2.26c.69 0 1.26-.56 1.26-1.26 0-.69-.56-1.26-1.26-1.26h-9.02c-.69 0-1.26.56-1.26 1.26 0 .69.56 1.26 1.26 1.26h2.26c.55 0 1 .45 1 1v24.82c0 .55-.45 1-1 1z" fill="#231f20"/></g></g></g></svg>