<svg xmlns="http://www.w3.org/2000/svg" version="1.1" xmlns:xlink="http://www.w3.org/1999/xlink" width="512" height="512" x="0" y="0" viewBox="0 0 256 256" style="enable-background:new 0 0 512 512" xml:space="preserve" class=""><g transform="matrix(1.1299999999999992,0,0,1.1299999999999992,-16.6399999999999,-16.639907264709336)"><path fill="#808285" d="M99.08 103.467c0-21.678-17.574-39.251-39.252-39.251s-39.252 17.573-39.252 39.251c0 15.093 8.519 28.196 21.011 34.765a28.473 28.473 0 0 0-.869 6.999c0 15.698 12.726 28.424 28.424 28.424s28.424-12.726 28.424-28.424a28.305 28.305 0 0 0-6.461-18.044 39.087 39.087 0 0 0 7.975-23.72z" opacity="1" data-original="#808285" class=""></path><path fill="#939598" d="M69.14 169.649a2 2 0 1 1 2-2c0 1.111-.89 2-2 2zm-7.83-1.409c-.24 0-.47-.04-.7-.12a24.493 24.493 0 0 1-11.42-8.82c-2.92-4.13-4.47-9-4.47-14.07 0-2.029.25-4.06.74-6.02l.78-3.05-2.79-1.471c-11.64-6.12-18.87-18.08-18.87-31.22 0-19.44 15.81-35.25 35.25-35.25a2 2 0 0 1 2 2c0 1.1-.9 1.99-2 1.99-8.33.01-16.18 3.26-22.09 9.17s-9.16 13.75-9.16 22.09c0 11.64 6.41 22.25 16.73 27.68l4.18 2.2c.83.43 1.24 1.36 1.01 2.26l-1.16 4.591a20.55 20.55 0 0 0-.62 5.029c-.01 8.471 5.34 16.17 13.29 19.141.5.189.9.56 1.12 1.04.22.489.24 1.029.05 1.529a2 2 0 0 1-1.87 1.301z" opacity="1" data-original="#939598" class=""></path><path fill="#808285" d="M235.424 103.467c0-21.678-17.574-39.251-39.252-39.251s-39.252 17.573-39.252 39.251c0 8.912 2.971 17.13 7.975 23.719a28.307 28.307 0 0 0-6.461 18.044c0 15.698 12.726 28.424 28.424 28.424s28.424-12.726 28.424-28.424c0-2.415-.302-4.76-.869-6.999 12.492-6.568 21.011-19.671 21.011-34.764z" opacity="1" data-original="#808285" class=""></path><path fill="#58595b" d="M91.671 117.818a29.041 29.041 0 0 0 3.694-14.22c0-16.112-13.061-29.173-29.173-29.173s-29.173 13.062-29.173 29.173c0 11.895 7.119 22.127 17.329 26.668a22.504 22.504 0 0 0-.345 3.938c0 12.37 10.028 22.398 22.398 22.398S98.8 146.575 98.8 134.204c0-6.469-2.743-12.297-7.129-16.386zM164.329 117.818a29.041 29.041 0 0 1-3.694-14.22c0-16.112 13.061-29.173 29.173-29.173s29.173 13.062 29.173 29.173c0 11.895-7.119 22.127-17.329 26.668.227 1.278.345 2.594.345 3.938 0 12.37-10.028 22.398-22.398 22.398S157.2 146.575 157.2 134.204c0-6.469 2.743-12.297 7.129-16.386z" opacity="1" data-original="#58595b" class=""></path><ellipse cx="128" cy="52.754" fill="#ffa91a" rx="21.215" ry="17.346" opacity="1" data-original="#ffa91a" class=""></ellipse><ellipse cx="128" cy="64.216" fill="#f79219" rx="25.644" ry="20.968" opacity="1" data-original="#f79219"></ellipse><path fill="#808285" d="M174.143 197.701h-10.585a4 4 0 0 0-4 4v1.583a4 4 0 0 1-4 4h-8.805a4 4 0 0 1-4-4v-32.013c18.103-6.145 31.72-23.492 31.597-43.969v-24.059c-.007-25.589-20.752-46.357-46.35-46.351-25.594 0-46.35 20.757-46.35 46.351v24.059c-.123 20.449 13.455 37.773 31.519 43.941v50.625c0 5.523 4.477 10 10 10l50.968-.025c5.526.004 10.007-4.475 10.007-10v-14.142c-.001-5.523-4.478-10-10.001-10z" opacity="1" data-original="#808285" class=""></path><path fill="#58595b" d="M174.143 197.701v14.142c0 5.525-4.481 10.004-10.007 10l-50.968.025c0 5.523 4.477 10 10 10l50.968-.025c5.526.004 10.007-4.475 10.007-10v-14.142c0-5.523-4.477-10-10-10zM141.753 207.284h5a4 4 0 0 1-4-4v-32.013c18.103-6.145 31.72-23.492 31.597-43.969v-24.059c-.004-14.069-6.278-26.681-16.18-35.184 6.966 8.112 11.177 18.659 11.18 30.184v24.059c.117 19.523-12.256 36.202-29.099 43.039a3.992 3.992 0 0 0-2.498 3.698v34.245a4 4 0 0 0 4 4z" opacity="1" data-original="#58595b" class=""></path><path fill="#414042" d="M178.26 198.585a9.959 9.959 0 0 1 .884 4.116v14.142c0 5.525-4.481 10.004-10.007 10l-50.968.025a9.959 9.959 0 0 1-4.116-.884 10.002 10.002 0 0 0 9.116 5.884l50.968-.025c5.526.004 10.007-4.475 10.007-10v-14.142a10.004 10.004 0 0 0-5.884-9.116z" opacity="1" data-original="#414042" class=""></path><circle cx="104.803" cy="105.957" r="5.98" fill="#d1d3d4" opacity="1" data-original="#d1d3d4"></circle><circle cx="151.197" cy="105.957" r="5.98" fill="#d1d3d4" opacity="1" data-original="#d1d3d4"></circle><path fill="#d10028" d="M126.05 86.587h3.897v11.486h-3.897z" opacity="1" data-original="#d10028" class=""></path><path fill="#e63950" d="M101.942 75.766c9.932 0 18.642 5.227 23.532 13.08 1.167 1.874 3.886 1.874 5.053 0 4.89-7.853 13.6-13.08 23.532-13.08 4.972 0 9.638 1.311 13.672 3.604-8.11-13.468-22.866-22.481-39.731-22.476-16.863 0-31.624 9.01-39.734 22.478a27.572 27.572 0 0 1 13.676-3.606z" opacity="1" data-original="#e63950" class=""></path><circle cx="128" cy="73.362" r="6.604" fill="#ffa91a" opacity="1" data-original="#ffa91a" class=""></circle><path fill="#f79219" d="M129.446 66.917a6.604 6.604 0 0 1-7.89 7.89 6.604 6.604 0 1 0 7.89-7.89z" opacity="1" data-original="#f79219"></path><path fill="#ffa91a" d="m133.202 104.771-4.03 6.96a1.357 1.357 0 0 1-2.348 0l-4.03-6.96a1.36 1.36 0 0 1 0-1.36l4.03-6.96a1.357 1.357 0 0 1 2.348 0l4.03 6.96c.243.421.243.94 0 1.36zM133.202 33.127l-4.03 6.96a1.357 1.357 0 0 1-2.348 0l-4.03-6.96a1.36 1.36 0 0 1 0-1.36l4.03-6.96a1.357 1.357 0 0 1 2.348 0l4.03 6.96c.243.421.243.94 0 1.36z" opacity="1" data-original="#ffa91a" class=""></path><path fill="#f79219" d="m133.202 103.412-4.03-6.959a1.345 1.345 0 0 0-1.233-.675l3.262 5.634c.243.42.243.939 0 1.359l-4.03 6.96c-.25.432-.679.656-1.115.675l.767 1.325a1.357 1.357 0 0 0 2.348 0l4.03-6.96c.244-.42.244-.939.001-1.359z" opacity="1" data-original="#f79219"></path><path fill="#d3d3d3" d="M113.416 154.599c4.341 4.342 4.475 11.744.029 17.015-10.326 12.244-24.217 18.037-42.151 16.516a5 5 0 0 1-3.114-1.436c-2.63-2.63-1.496-7.409 2.203-9.237 9.486-4.69 17.268-11.146 23.06-19.664 4.832-7.108 14.541-8.625 19.973-3.194z" opacity="1" data-original="#f1f2f2" class=""></path><path fill="#b8bdc4" d="M113.416 154.599a10.991 10.991 0 0 0-4.521-2.727c1.274 4.009.412 8.77-2.714 12.477-9.724 11.529-22.609 17.338-39.054 16.707-.72 1.949-.443 4.141 1.053 5.638a5 5 0 0 0 3.114 1.436c17.934 1.521 31.825-4.272 42.151-16.516 4.445-5.271 4.312-12.674-.029-17.015z" opacity="1" data-original="#e6e7e8" class=""></path><path fill="#d3d3d3" d="M142.584 154.599c-4.341 4.342-4.475 11.744-.029 17.015 10.326 12.244 24.217 18.037 42.151 16.516a5 5 0 0 0 3.114-1.436c2.63-2.63 1.496-7.409-2.203-9.237-9.486-4.69-17.268-11.146-23.06-19.664-4.832-7.108-14.541-8.625-19.973-3.194z" opacity="1" data-original="#f1f2f2" class=""></path><path fill="#b8bdc4" d="M142.584 154.599a10.991 10.991 0 0 1 4.521-2.727c-1.274 4.009-.412 8.77 2.714 12.477 9.724 11.529 22.609 17.338 39.054 16.707.72 1.949.443 4.141-1.053 5.638a5 5 0 0 1-3.114 1.436c-17.934 1.521-31.824-4.272-42.151-16.516-4.445-5.271-4.312-12.674.029-17.015z" opacity="1" data-original="#e6e7e8" class=""></path><path fill="#58595b" d="M133.106 178.147h-10.212a2.29 2.29 0 1 1 0-4.58h10.212a2.29 2.29 0 1 1 0 4.58zM133.104 193.604h-10.212a2.29 2.29 0 1 1 0-4.58h10.212a2.29 2.29 0 1 1 0 4.58zM133.104 209.264h-10.212a2.29 2.29 0 1 1 0-4.58h10.212a2.29 2.29 0 1 1 0 4.58zM133.104 162.763h-10.212a2.29 2.29 0 1 1 0-4.58h10.212a2.29 2.29 0 1 1 0 4.58zM133.104 147.343h-10.212a2.29 2.29 0 1 1 0-4.58h10.212a2.29 2.29 0 1 1 0 4.58z" opacity="1" data-original="#58595b" class=""></path></g></svg>