<svg xmlns="http://www.w3.org/2000/svg" version="1.1" xmlns:xlink="http://www.w3.org/1999/xlink" width="512" height="512" x="0" y="0" viewBox="0 0 512 512" style="enable-background:new 0 0 512 512" xml:space="preserve" class=""><g><path d="M179.679 136.899H44.73c-20.562 0-37.23 16.669-37.23 37.23v232.346c0 20.562 16.669 37.23 37.23 37.23h168.574a17.972 17.972 0 0 1 16.472 10.785l20.459 45.895c1.098 2.516 3.431 4.115 5.764 4.115s4.667-1.599 5.764-4.115l20.459-45.895a17.972 17.972 0 0 1 16.472-10.785h145.094l23.56-4.742c20.562 0 32.367-11.805 32.367-32.367l.991-229.474c0-20.562-12.466-35.737-33.028-35.737l-21.648-4.486H316.493" style="stroke-width: 2;" fill="#5f99d7" data-original="#5f99d7" stroke-width="2" class=""></path><path d="M467.27 136.899h-32.003c20.562 0 37.23 16.668 37.23 37.23v232.346c0 20.562-16.669 37.23-37.23 37.23h32.003c20.562 0 37.23-16.668 37.23-37.23V174.129c0-20.561-16.668-37.23-37.23-37.23z" style="stroke-width: 2;" fill="#3c87d0" data-original="#3c87d0" stroke-width="2"></path><path d="M327.798 74.155c-1.538-3.412-2.391-4.402-4.67-6.682a12.556 12.556 0 0 0-8.909-3.691l-37.536.155c-6.427 0-12.844-5.911-12.328-13.956-.003-.715.061-1.442.198-2.175l3.567-19.066c.008-.039.008-.085.016-.124C269.958 18.56 263.034 9 252.916 7.573a8.09 8.09 0 0 0-8.777 5.381l-10.242 29.68c-4.078 12.15-12.724 24.788-24.075 30.657l-7.226 35.907 7.335 33.285c0 8.699 7.614 15.864 26.137 16.825l55.725.101h15.949c5.634 0 10.3-4.15 11.099-9.567.079-.539-.826-.896-.826-1.457 0-3.101-1.69-5.704-3.722-7.735-2.024-2.032-3.458-3.687-6.551-3.687h7.459c6.869 0 12.448-5.487 12.596-12.313.002-.093-.661-.527-.661-.62 0-3.489-2.61-5.912-4.889-8.191-2.279-2.28-3.565-4.075-7.047-4.075h3.295c6.86 0 12.437-5.484 12.587-12.316 0 0-.683-.254-.683-.348 0-3.474-1.387-5.496-3.667-7.775a12.55 12.55 0 0 0-8.901-3.691l-2.632-1.061c6.963.002 12.599-5.463 12.599-12.418z" style="stroke-width: 2;" fill="#f0bdb1" data-original="#f0bdb1" stroke-width="2" class=""></path><path d="M180.915 70.178a8.802 8.802 0 0 1 8.802-8.802h5.651l3.287 1.44a8.802 8.802 0 0 1 8.802 8.802l.483 77.526a8.802 8.802 0 0 1-8.802 8.802l-3.77 1.468h-5.651a8.802 8.802 0 0 1-8.802-8.802V70.178z" style="stroke-width: 2;" fill="#f5f8f9" data-original="#f5f8f9" stroke-width="2"></path><path d="M209.821 150.611V70.176c0-4.861-3.947-8.8-8.808-8.8h-5.645v98.036h5.645c4.862 0 8.808-3.939 8.808-8.801z" style="stroke-width: 2;" fill="#e8edf2" data-original="#e8edf2" class="" stroke-width="2"></path><path d="M318.495 86.575h-20.287a6.44 6.44 0 0 0 0 12.878l32.874-.003c.002-.002-.002.002 0 0a12.555 12.555 0 0 0-3.686-9.185 12.554 12.554 0 0 0-8.901-3.69zM315.2 111.766h-16.992a6.44 6.44 0 0 0-6.439 6.439v.008a6.44 6.44 0 0 0 6.439 6.439h29.584l.005-.005a12.566 12.566 0 0 0-3.688-9.191 12.56 12.56 0 0 0-8.909-3.69zM327.791 74.162l.007-.007a12.557 12.557 0 0 0-3.69-9.088 12.556 12.556 0 0 0-8.909-3.691h-39.38c-6.699 0-11.855-5.676-11.436-12.173l-.397 3.244c-1.413 11.54 7.592 21.714 19.219 21.714l44.586.001zM307.741 136.965h-9.533a6.44 6.44 0 0 0 0 12.878h20.629a11.196 11.196 0 0 0-3.163-9.591 11.181 11.181 0 0 0-7.933-3.287z" style="stroke-width: 2;" fill="#eaa998" data-original="#eaa998" stroke-width="2"></path><path d="m314.603 387.706 30.473-80.012a2.515 2.515 0 0 1 2.35-1.62h0c1.046 0 1.984.648 2.353 1.627l30.193 80.005M324.298 367.376h46.134M208.415 306.075v81.631M106.555 306.075H73.47v81.631M74.076 346.117h29.851M297.547 346.935c0 22.517-12.497 40.424-32.324 40.771h-23.747v-81.632h23.07c21.747.001 33.001 18.344 33.001 40.861zM386.595 306.075l26.075 39.933 25.86-39.726M412.568 387.706l.102-41.698M143.139 348.612l34.291 39.094M133.346 348.612v39.094M177.43 327.29c0 11.717-10.274 21.322-22.416 21.322h-21.668v-42.537h21.668c12.142 0 22.416 9.498 22.416 21.215zM442.399 225.3c0 22.517-12.497 40.424-32.324 40.771h-23.747v-81.632h23.07c21.747 0 33.001 18.344 33.001 40.861zM133.237 191.41a40.624 40.624 0 0 0-22.82-6.971c-22.542 0-40.816 18.274-40.816 40.816s18.274 40.816 40.816 40.816 35.234-18.274 35.234-40.816h-24.42" style="stroke-width: 2; stroke-linecap: round; stroke-linejoin: round; stroke-miterlimit: 10;" fill="none" stroke="#000000" stroke-width="2" stroke-linecap="round" stroke-linejoin="round" stroke-miterlimit="10" data-original="#000000" class=""></path><circle cx="212.762" cy="225.255" r="40.816" style="stroke-width: 2; stroke-linecap: round; stroke-linejoin: round; stroke-miterlimit: 10;" fill="none" stroke="#000000" stroke-width="2" stroke-linecap="round" stroke-linejoin="round" stroke-miterlimit="10" data-original="#000000" class=""></circle><circle cx="319.69" cy="225.255" r="40.816" style="stroke-width: 2; stroke-linecap: round; stroke-linejoin: round; stroke-miterlimit: 10;" fill="none" stroke="#000000" stroke-width="2" stroke-linecap="round" stroke-linejoin="round" stroke-miterlimit="10" data-original="#000000" class=""></circle><path d="M504.5 274.61v131.87c0 20.56-16.67 37.23-37.23 37.23H298.7c-7.15 0-13.62 4.23-16.48 10.78l-20.46 45.9c-1.09 2.51-3.43 4.11-5.76 4.11-2.33 0-4.67-1.6-5.76-4.11l-20.46-45.9a17.978 17.978 0 0 0-16.48-10.78h-40.41M315.2 136.97l152.07-.07c20.56 0 37.23 16.67 37.23 37.23v65.48M179.68 136.9h-72.17M72.51 136.9H44.73c-20.56 0-37.23 16.67-37.23 37.23v232.35c0 20.56 16.67 37.23 37.23 37.23h93.16M315.196 86.576c6.964 0 12.601-5.644 12.601-12.601 0-3.478-1.411-6.625-3.69-8.911a12.557 12.557 0 0 0-8.911-3.69H275.82c-7.175 0-12.587-6.512-11.267-13.567l3.563-19.063.021-.127c1.82-10.054-5.108-19.614-15.225-21.039a8.09 8.09 0 0 0-8.777 5.376l-10.237 29.682c-3.951 11.75-12.165 23.962-22.97 30.056M297.932 86.576H318.491c3.478 0 6.625 1.411 8.904 3.69s3.69 5.426 3.69 8.904c0 6.964-5.637 12.601-12.594 12.601h-3.295" style="stroke-width: 2; stroke-linecap: round; stroke-linejoin: round; stroke-miterlimit: 10;" fill="none" stroke="#000000" stroke-width="2" stroke-linecap="round" stroke-linejoin="round" stroke-miterlimit="10" data-original="#000000" class=""></path><path d="M297.932 111.77h17.264c3.485 0 6.632 1.411 8.911 3.69s3.69 5.426 3.69 8.911c0 6.957-5.637 12.594-12.601 12.594h-7.457M297.932 136.965h9.807c3.097 0 5.905 1.256 7.93 3.288a11.193 11.193 0 0 1 3.288 7.937c0 6.202-5.023 11.225-11.218 11.225h-15.945l-55.73-.106c-18.52-.96-26.133-8.121-26.133-16.827M180.915 70.179a8.802 8.802 0 0 1 8.802-8.802h11.298a8.802 8.802 0 0 1 8.802 8.802v80.434a8.802 8.802 0 0 1-8.802 8.802h-11.298a8.802 8.802 0 0 1-8.802-8.802V70.179z" style="stroke-width: 2; stroke-linecap: round; stroke-linejoin: round; stroke-miterlimit: 10;" fill="none" stroke="#000000" stroke-width="2" stroke-linecap="round" stroke-linejoin="round" stroke-miterlimit="10" data-original="#000000" class=""></path></g></svg>