<svg id="a" height="512" viewBox="0 0 512 512" width="512" xmlns="http://www.w3.org/2000/svg"><path d="m265.61 335.03c-7.092.442-14.387.431-21.47-.07-82.8-5.75-148.18-74.87-148.18-159.29 0-88.18 71.35-159.67 159.37-159.67s159.38 71.49 159.38 159.67c0 84.73-65.86 154.05-149.1 159.36zm31.05-39.84c53.02-15.1 85.58-61.46 85.58-119.52 0-70.1-56.93-127.14-126.91-127.14s-126.9 57.04-126.9 127.14c0 55.16 42.36 106.65 92.56 118.57.92.22 1.88-.31 2.19-1.22 28.51-82.4-8.8-167.84-17.95-186.76-.94-1.93.13-4.25 2.21-4.79 9.76-2.5 34.3-10.68 46.47-31.67.14-.25.5-.24.63.02 2.13 4.43 16.45 31.56 47.1 32.68 2.51.09 4.1 2.7 2.96 4.93-9.35 18.29-37.65 85.53-10.25 186.44.27 1 1.32 1.6 2.31 1.32z" fill="#edb740"/><path d="m447.35 97c26.55 39.55 109.81 193.7-105.45 317.49-3.62 2.08-8.25.65-10.07-3.1l-10.04-20.64c-1.48-3.04-4.87-4.64-8.15-3.86l-48.6 11.9c-.31.08-.33.52-.02.61 11.41 3.2 57.87 17.03 60.47 68.3.03.63.4 1.21.98 1.47 2.9 1.3 4.44 3.88 5.06 6.71 1.79 8.21-5.08 12.51-10.57 12.4-14.82-.3-13.96-15.39-13.96-15.39-3.68-37.86-29.03-49.31-39.77-52.34-1.36-.38-2.7.64-2.69 2.05l.09 24.06c.02 5.6 2.24 10.93 6.09 14.98 3.47 3.65 5.6 8.58 5.6 14.01 0 11.23-9.07 20.33-20.28 20.35h-.03c-11.2-.02-20.28-9.12-20.28-20.35 0-5.41 2.12-10.33 5.56-13.97 3.87-4.08 6.09-9.43 6.09-15.06l.01-25.3c0-.92-.84-1.62-1.73-1.43-8.27 1.7-38.44 11.43-42.48 53 0 0 .86 15.09-13.96 15.39-5.49.11-12.36-4.19-10.57-12.4.62-2.83 2.16-5.41 5.06-6.71.58-.26.95-.84.98-1.47 2.7-53.25 51.71-66.11 60.54-68.63.41-.11.41-.7 0-.82l-41.59-12.63c-3.61-1.06-7.41.91-8.61 4.48l-8.2 24.3c-1.4 4.13-6.2 6.01-10.02 3.89-223.71-124.43-138.96-281.38-112.15-321.31 1.3-1.93 4.32-.61 3.75 1.66-11.25 45.39-41.21 212.55 171.01 273.36 2.37.68 4.72-1.08 4.72-3.55v-33.49c3.7.26 7.43.39 11.19.39 3.45 0 6.88-.11 10.28-.32l.1 34.15c0 2.73 2.62 4.68 5.24 3.93 211.63-60.99 183.89-229.07 172.64-274.45-.56-2.28 2.46-3.6 3.76-1.66z" fill="#d8a43d"/><path d="m186.83 414.4 1.173-3.476c-147.963-87.803-148.827-190.05-127.591-255.718.831-24.468 5.054-44.688 7.998-56.566.57-2.27-2.45-3.59-3.75-1.66-26.81 39.93-111.56 196.88 112.15 321.31 3.82 2.12 8.62.24 10.02-3.89z" fill="#b78225"/><g fill="#cc9932"><path d="m231.44 101.47c6.951-1.781 21.398-6.448 33.535-16.567-6.126-6.661-9.488-13.114-10.435-15.083-.13-.26-.49-.27-.63-.02-12.17 20.99-36.71 29.17-46.47 31.67-2.08.54-3.15 2.86-2.21 4.79 8.938 18.481 44.73 100.427 19.82 181.014 6.445 2.991 13.119 5.346 19.94 6.966.92.22 1.88-.31 2.19-1.22 28.51-82.4-8.8-167.84-17.95-186.76-.94-1.93.13-4.25 2.21-4.79z"/><path d="m119.96 175.67c0-84.136 64.956-153.074 147.371-159.221-3.962-.295-7.963-.449-12.001-.449-88.02 0-159.37 71.49-159.37 159.67 0 84.42 65.38 153.54 148.18 159.29 7.083.501 14.378.512 21.47.07.587-.037 1.169-.09 1.754-.133-82.431-6.127-147.404-75.071-147.404-159.227z"/></g></svg>