<svg xmlns="http://www.w3.org/2000/svg" version="1.1" xmlns:xlink="http://www.w3.org/1999/xlink" width="512" height="512" x="0" y="0" viewBox="0 0 512 512" style="enable-background:new 0 0 512 512" xml:space="preserve" class=""><g><path d="m186.842 231.636-57.06-34.488-63.858 19.17c-9.507 2.854-18.806-5.019-17.558-14.867L66.419 58.94c.872-6.883 7.158-11.756 14.041-10.884l134.262 17.008c6.883.872 11.756 7.158 10.884 14.041l-18.053 142.511c-1.247 9.849-12.215 15.155-20.711 10.02z" style="stroke-width: 7;" fill="#9be69d" data-original="#9be69d" stroke-width="7"></path><path d="m304.011 216.21 77.595 29.927a22.834 22.834 0 0 0 22.358-3.376l59.234-46.717L448.122 58.94c-.872-6.883-7.159-11.756-14.041-10.884L299.819 65.064c-6.883.872-11.756 7.158-10.884 14.041l15.076 137.105z" style="stroke-width: 7;" fill="#fe5694" data-original="#fe5694" stroke-width="7"></path><path d="m206.984 454.44-74.187 28.061a22.833 22.833 0 0 1-21.348-2.775l-63.652-45.452 16.539-132.067c.872-6.883 7.158-11.756 14.041-10.884l134.262 17.008c6.883.872 11.756 7.159 10.884 14.041L206.984 454.44z" style="stroke-width: 7;" fill="#8ac9fe" data-original="#8ac9fe" stroke-width="7"></path><path d="m214.722 65.064-23.228-2.943c2.959 2.661 4.612 6.676 4.074 10.923l-16.982 142.728c-.429 3.388-2.009 6.238-4.242 8.31l12.498 7.554c8.495 5.135 19.463-.171 20.711-10.019l18.053-142.512c.872-6.882-4.001-13.169-10.884-14.041z" style="stroke-width: 7;" fill="#6fd7a3" data-original="#6fd7a3" stroke-width="7"></path><path d="M448.122 58.94c-.872-6.883-7.159-11.756-14.042-10.884l-20.665 2.618a12.516 12.516 0 0 1 4.668 8.266l13.651 124.147a23.511 23.511 0 0 1-8.81 21.029l-48.999 38.645c-.12.095-.246.179-.368.271l8.049 3.104a22.834 22.834 0 0 0 22.358-3.376l59.234-46.717L448.122 58.94z" style="stroke-width: 7;" fill="#fe0364" data-original="#fe0364" stroke-width="7"></path><path d="m212.639 308.332-19.031-2.411a12.497 12.497 0 0 1 .804 6.249l-16.185 132.04a17.11 17.11 0 0 1-10.925 13.878l-56.322 21.304.469.335a22.833 22.833 0 0 0 21.348 2.775l74.187-28.061 16.539-132.067c.872-6.884-4.001-13.17-10.884-14.042z" style="stroke-width: 7;" fill="#60b7ff" data-original="#60b7ff" stroke-width="7"></path><path d="m325.616 474.904 57.06-34.488 63.858 19.17c9.507 2.854 18.806-5.019 17.558-14.867l-18.053-142.511c-.872-6.883-7.158-11.756-14.041-10.884l-134.262 17.008c-6.883.872-11.756 7.159-10.884 14.041l18.053 142.511c1.248 9.849 12.216 15.154 20.711 10.02z" style="stroke-width: 7;" fill="#fedba6" data-original="#fedba6" stroke-width="7"></path><path d="m446.53 459.582-15.35-4.61c2.2-2.74 3.37-6.34 2.87-10.25L416 302.212c-.43-3.4-2.17-6.3-4.66-8.27l20.66-2.62c6.88-.87 13.17 4 14.04 10.89l18.05 142.51c1.25 9.84-8.05 17.72-17.56 14.86z" style="stroke-width: 7;" fill="#fece85" data-original="#fece85" stroke-width="7"></path><path d="m131.759 339.199-9.272 75.465c.817.246 26.448 3.25 26.448 3.25M367.974 333.348l9.857 75.456M117.321 90.508l-9.397 75.515M169.578 97.011l-9.397 75.515M112.784 126.971l52.257 6.502" style="stroke-width: 7; stroke-linecap: round; stroke-linejoin: round; stroke-miterlimit: 10;" fill="none" stroke="#000000" stroke-width="7" stroke-linecap="round" stroke-linejoin="round" stroke-miterlimit="10" data-original="#000000" class=""></path><circle cx="377.831" cy="145.253" r="38.049" style="stroke-width: 7; stroke-linecap: round; stroke-linejoin: round; stroke-miterlimit: 10;" fill="none" stroke="#000000" stroke-width="7" stroke-linecap="round" stroke-linejoin="round" stroke-miterlimit="10" data-original="#000000" class=""></circle><path d="m140.113 55.613 74.609 9.451c6.883.872 11.756 7.158 10.884 14.041l-18.053 142.511c-1.248 9.848-12.216 15.154-20.711 10.019l-57.06-34.488-63.858 19.17c-9.507 2.854-18.806-5.019-17.558-14.867L66.419 58.94c.872-6.883 7.158-11.756 14.041-10.884l24.741 3.134M304.011 216.21l77.595 29.927a22.834 22.834 0 0 0 22.358-3.376l59.234-46.717L448.122 58.94c-.872-6.883-7.159-11.756-14.041-10.884L299.819 65.064c-6.883.872-11.756 7.158-10.884 14.041l15.076 137.105z" style="stroke-width: 7; stroke-linecap: round; stroke-linejoin: round; stroke-miterlimit: 10;" fill="none" stroke="#000000" stroke-width="7" stroke-linecap="round" stroke-linejoin="round" stroke-miterlimit="10" data-original="#000000" class=""></path><path d="M225.7 77.042c21.02 1 42.07.93 63.16-.21M442.12 49.742h.01c20.75-6.2 41.55-13.44 62.37-21.72M71.42 50.412c-21.34-6.36-42.65-13.82-63.92-22.39M206.984 454.44l-74.187 28.061a22.833 22.833 0 0 1-21.348-2.775l-63.652-45.452 16.539-132.067c.872-6.883 7.158-11.756 14.041-10.884l134.262 17.008c6.883.872 11.756 7.159 10.884 14.041L206.984 454.44zM456.312 383.298l-10.272-81.09c-.872-6.883-7.158-11.756-14.041-10.884l-134.262 17.008c-6.883.872-11.756 7.159-10.884 14.041l18.053 142.511c1.247 9.848 12.216 15.154 20.711 10.019l57.06-34.488 63.858 19.17c9.507 2.854 18.806-5.019 17.558-14.867l-3.361-26.533" style="stroke-width: 7; stroke-linecap: round; stroke-linejoin: round; stroke-miterlimit: 10;" fill="none" stroke="#000000" stroke-width="7" stroke-linecap="round" stroke-linejoin="round" stroke-miterlimit="10" data-original="#000000" class=""></path><path d="M223.61 320.212c21.02 1.06 42.06 1.07 63.15 0M440.7 293.442c21.23-6.3 42.5-13.68 63.8-22.15M69.96 293.252c-20.86-6.27-41.67-13.59-62.46-21.96M244.301 205.826h0M309.079 261.108H279.16M294.119 276.067v-29.919" style="stroke-width: 7; stroke-linecap: round; stroke-linejoin: round; stroke-miterlimit: 10;" fill="none" stroke="#000000" stroke-width="7" stroke-linecap="round" stroke-linejoin="round" stroke-miterlimit="10" data-original="#000000" class=""></path></g></svg>