<svg xmlns="http://www.w3.org/2000/svg" version="1.1" xmlns:xlink="http://www.w3.org/1999/xlink" width="512" height="512" x="0" y="0" viewBox="0 0 510 510" style="enable-background:new 0 0 512 512" xml:space="preserve" fill-rule="evenodd" class=""><rect width="510" height="510" rx="102" ry="102" fill="#bac8d3" shape="rounded"></rect><g transform="matrix(0.53,0,0,0.53,119.85,119.85)"><linearGradient id="a" x1="0" x2="1" y1="0" y2="0" gradientTransform="scale(714.527) rotate(-44.234 .858 .35)" gradientUnits="userSpaceOnUse"><stop offset="0" stop-color="#fcc60e"></stop><stop offset="1" stop-color="#e92e29"></stop></linearGradient><path fill="url(#a)" d="M365.243 129.764c-.278-4.406 3.074-8.21 7.48-8.487a8.004 8.004 0 0 1 8.488 7.48c1.665 26.403-.319 55.86-8.604 86.277a8.003 8.003 0 0 1-9.821 5.617c-4.26-1.161-6.777-5.561-5.616-9.821 7.784-28.58 9.637-56.259 8.073-81.066zm-68.953 79.044a8.002 8.002 0 0 1-10.227 4.837 8.004 8.004 0 0 1-4.838-10.227c7.897-22.074 10.934-45.475 9.464-68.966a8.003 8.003 0 0 1 7.484-8.484 8.003 8.003 0 0 1 8.484 7.485c1.607 25.667-1.738 51.234-10.367 75.355zm16.442-107.621a8.005 8.005 0 0 1-10.622 3.897 8.004 8.004 0 0 1-3.896-10.622c12.724-27.466 39.516-45.847 69.842-47.74a8.004 8.004 0 0 1 8.483 7.486 8.004 8.004 0 0 1-7.486 8.483 66.66 66.66 0 0 0-56.321 38.496zm84.663-34.104a8.004 8.004 0 0 1-4.557-10.355 8.003 8.003 0 0 1 10.355-4.558c29.966 11.65 50.573 39.661 52.591 71.918.276 4.407-3.078 8.209-7.484 8.484-4.407.276-8.209-3.078-8.484-7.484-1.629-26.018-18.251-48.609-42.421-58.005zm42.81 91.851c.176-4.412 3.901-7.85 8.313-7.674s7.85 3.9 7.674 8.312c-.953 23.893-4.379 47.61-10.352 70.763a8.004 8.004 0 0 1-9.745 5.748 8.004 8.004 0 0 1-5.748-9.745c5.69-22.054 8.95-44.645 9.858-67.404zM314.58 228.415a8.004 8.004 0 0 1-10.496 4.223 8.004 8.004 0 0 1-4.223-10.496 190.748 190.748 0 0 0 12.615-43.056c2.558-15.241 3.305-30.756 2.354-46.161-.271-4.407 3.086-8.205 7.493-8.477s8.205 3.085 8.477 7.492c1.025 16.619.214 33.356-2.546 49.798l-.001.006a206.75 206.75 0 0 1-13.673 46.671zm21.202-119.175c-2.096 3.886-6.953 5.339-10.839 3.242s-5.339-6.953-3.242-10.839c9.304-17.245 27.022-29.48 47.873-30.778 32.101-2.022 60.065 22.642 62.068 54.743a322.203 322.203 0 0 1-.078 41.818c-.296 4.405-4.114 7.741-8.519 7.445s-7.741-4.113-7.445-8.519a306.24 306.24 0 0 0 .073-39.743v-.003c-1.454-23.324-21.772-41.244-45.096-39.773h-.006c-15.161.944-28.024 9.869-34.789 22.407zm76.948 82.802a8.003 8.003 0 0 1 9.119-6.696 8.003 8.003 0 0 1 6.696 9.119 302.094 302.094 0 0 1-5.482 27.275 8.003 8.003 0 0 1-9.695 5.831 8.003 8.003 0 0 1-5.831-9.695 286.818 286.818 0 0 0 5.193-25.834zm-70.913 33.091c-1.492 4.155-6.077 6.318-10.232 4.826a8.005 8.005 0 0 1-4.827-10.233c4.266-11.882 7.451-24.149 9.557-36.635a8.003 8.003 0 0 1 9.218-6.559c4.354.735 7.293 4.865 6.559 9.219-2.264 13.423-5.689 26.609-10.275 39.382zm13.262-66.545a8.004 8.004 0 0 1-8.407 7.572 8.005 8.005 0 0 1-7.571-8.407c.459-8.774.404-17.565-.147-26.339v-.007c-1.164-18.816 13.295-35.231 32.136-36.419l.01-.001c18.816-1.163 35.23 13.296 36.419 32.137v.004c1.406 22.491.272 45.157-3.476 67.375a276.88 276.88 0 0 1-5.025 23.677 8.004 8.004 0 0 1-9.746 5.746 8.002 8.002 0 0 1-5.746-9.745 260.9 260.9 0 0 0 4.736-22.319l.003-.015c3.545-21.012 4.614-42.448 3.285-63.718-.635-10.066-9.405-17.791-19.458-17.172-10.066.637-17.791 9.408-17.169 19.462.589 9.383.647 18.786.156 28.169zM487 223.859c0-4.416 3.585-8 8-8s8 3.584 8 8v44.184a8 8 0 0 1-8 8h-44.185c-4.415 0-8-3.584-8-8 0-4.415 3.585-8 8-8H487zm-200.859 36.184c4.416 0 8 3.585 8 8 0 4.416-3.584 8-8 8h-44.184a8 8 0 0 1-8-8v-44.184c0-4.416 3.584-8 8-8 4.415 0 8 3.584 8 8v36.184zM450.815 23c-4.415 0-8-3.585-8-8s3.585-8 8-8H495a8 8 0 0 1 8 8v44.185c0 4.415-3.585 8-8 8s-8-3.585-8-8V23zM249.957 59.185c0 4.415-3.585 8-8 8-4.416 0-8-3.585-8-8V15a8 8 0 0 1 8-8h44.184c4.416 0 8 3.585 8 8s-3.584 8-8 8h-36.184zM51.926 280.714c4.487-12.552 16.5-21.597 30.545-21.597 6.75 0 13.024 2.073 18.228 5.621 5.943-10.875 17.515-18.281 30.675-18.281a34.721 34.721 0 0 1 18.363 5.228v-79.246c0-18.945 15.518-34.463 34.463-34.463 18.948 0 34.412 15.514 34.412 34.463v117.823l1.351.037c31.027.768 52.467 20.258 52.467 51.289 0 .237-.01.473-.031.709l-4.12 46.362c-1.772 20.182-14.156 35.906-31.648 46.081l-26.857 15.638c-4.371 2.547-6.851 6.89-6.851 11.954V495a8 8 0 0 1-8 8H25.873a8 8 0 0 1-8-8v-32.668c0-2.485-.571-4.789-1.703-6.802l-.008-.013C9.901 444.337 7 433.379 7 420.578V309.814c0-17.564 14.383-31.881 31.881-31.881 4.649 0 9.063.993 13.045 2.781zm136.019 173.618c1.973-7.438 6.744-13.682 13.774-17.778l26.865-15.643c12.89-7.498 22.45-18.781 23.756-33.651l.001-.009 4.088-46.008c-.162-21.385-15.404-34.423-36.878-34.95h-.021l-9.135-.249a8 8 0 0 1-7.783-7.997V172.439c0-10.145-8.268-18.463-18.412-18.463-10.15 0-18.463 8.314-18.463 18.463v103.317a8 8 0 0 1-15.819 1.691c-1.851-8.558-9.462-14.99-18.544-14.99-10.254 0-18.736 8.294-18.91 18.548a8 8 0 0 1-15.172 3.407c-2.712-5.491-8.325-9.295-14.821-9.295-9.052 0-16.426 7.424-16.426 16.476v3.972a8.001 8.001 0 0 1-14.413 4.783c-2.908-3.899-7.531-6.415-12.751-6.415-8.717 0-15.881 7.132-15.881 15.881v110.764c0 9.938 2.262 18.442 7.115 27.108a28.87 28.87 0 0 1 2.716 6.646zm-154.072 16V487h153.05v-16.668z" opacity="1" data-original="url(#a)"></path></g></svg>