<svg xmlns="http://www.w3.org/2000/svg" version="1.1" xmlns:xlink="http://www.w3.org/1999/xlink" width="512" height="512" x="0" y="0" viewBox="0 0 512 512" style="enable-background:new 0 0 512 512" xml:space="preserve"><rect width="512" height="512" rx="102.4" ry="102.4" fill="#bac8d3" shape="rounded"></rect><g transform="matrix(0.69,0,0,0.69,79.36003725051884,79.3598439025879)"><linearGradient id="a" x1="94.752" x2="415.137" y1="406.092" y2="85.707" gradientUnits="userSpaceOnUse"><stop offset=".049" stop-color="#00a683"></stop><stop offset="1" stop-color="#fff05d"></stop></linearGradient><path fill="url(#a)" d="M499.392 173.064c-5.795-12.673-18.76-20.861-33.026-20.861H75.567c-18.639 0-35.486 9.863-44.838 25.739H20.173c-11.08 0-20.095 9.015-20.095 20.095v13.845a5.332 5.332 0 0 0 10.664 0v-13.845c0-5.201 4.23-9.432 9.432-9.432h5.633C17.031 215.567 8.25 264.887 8.484 311.27c.07 11.507 9.468 20.868 20.952 20.868h35.875c2.566 15.658 16.174 27.658 32.57 27.658 16.373 0 29.96-12 32.521-27.658h195.059c2.566 15.658 16.174 27.658 32.57 27.658 16.37 0 29.957-12 32.518-27.658h17.492c2.45 0 4.889-.247 7.237-.729l73.573-14.943a27.606 27.606 0 0 0 22.175-25.846v-.008c1.924-43.673 1.846-88.143-11.634-117.548zm-26.518 25.919c2.115 8.405-4.165 16.529-12.772 16.529h-26.544v-52.645h26.554c4.83 9.387 9.018 21.243 12.762 36.116zm-98.318 16.528v-52.645h48.339v52.645zm-59.002 0v-52.645h48.339v52.645zm-59.052 0v-52.645h48.388v52.645zm-59.002 0v-52.645h48.339v52.645zm-58.625 0c-.127 0-.249-.017-.375-.018v-52.627h48.336v52.645zm-11.038-52.644v51.59c-25.005-4.839-44.334-25.797-46.696-51.59zM36.18 191.141l25.076 15.948c5.623 3.543 8.979 9.656 8.979 16.349v19.772a19.325 19.325 0 0 1-13.511 18.476l-35.974 11.45c2.554-29.458 10.911-68.997 15.43-81.995zm61.7 157.992c-12.34 0-22.378-10.015-22.378-22.326s10.038-22.326 22.378-22.326c12.311 0 22.329 10.015 22.329 22.326s-10.017 22.326-22.329 22.326zm124.719-27.658H157.64v-21.634c0-5.644 4.592-10.236 10.236-10.236h54.722v31.87zm10.663 0v-31.87h54.72c5.644 0 10.236 4.592 10.236 10.236v21.634zm124.768 27.658c-12.34 0-22.378-10.015-22.378-22.326s10.039-22.326 22.378-22.326c12.311 0 22.326 10.015 22.326 22.326s-10.015 22.326-22.326 22.326zm142.343-58.989a16.962 16.962 0 0 1-13.636 15.87l-73.597 14.948a25.296 25.296 0 0 1-5.1.513h-17.492c-2.561-15.658-16.148-27.658-32.518-27.658-16.396 0-30.004 12-32.57 27.658h-16.579v-21.634c0-11.525-9.375-20.9-20.9-20.9H167.876c-11.525 0-20.9 9.375-20.9 20.9v21.634H130.4c-2.561-15.658-16.148-27.658-32.521-27.658-16.396 0-30.004 12-32.57 27.658H29.436c-5.639 0-10.255-4.605-10.288-10.262-.046-9.284.247-18.004.786-26.626l40.024-12.737c12.525-3.988 20.941-15.498 20.941-28.639v-19.772c0-10.377-5.217-19.864-13.938-25.359l-25.989-16.527c6.739-10.207 17.473-16.87 29.552-18.335 2.743 33.238 29.231 59.805 62.438 62.658 11.76.472 31.811.179 327.141.3 15.56 0 26.924-14.67 23.113-29.795-3.245-12.892-6.849-23.708-10.928-32.78 7.639 1.76 14.16 6.796 17.41 13.903 12.536 27.349 12.539 70.299 10.675 112.64zm-432.548-5.87v7.3a5.332 5.332 0 0 1-10.664 0v-7.3a5.332 5.332 0 0 1 10.664 0zm111.67 21.266a5.332 5.332 0 0 1 5.332-5.332h10.585a5.332 5.332 0 0 1 0 10.664h-10.585a5.332 5.332 0 0 1-5.332-5.332zm96.871 0a5.332 5.332 0 0 1-5.332 5.332h-10.588a5.332 5.332 0 0 1 0-10.664h10.588a5.334 5.334 0 0 1 5.332 5.332z" opacity="1" data-original="url(#a)"></path></g></svg>