<svg xmlns="http://www.w3.org/2000/svg" version="1.1" xmlns:xlink="http://www.w3.org/1999/xlink" width="512" height="512" x="0" y="0" viewBox="0 0 1707 1707" style="enable-background:new 0 0 512 512" xml:space="preserve" class=""><rect width="1707" height="1707" rx="341.4" ry="341.4" fill="#bac8d3" shape="rounded"></rect><g transform="matrix(0.6,0,0,0.6,341.20000000000016,341.4000000000001)"><linearGradient id="a" x1=".315" x2="1706.35" y1="853.331" y2="853.331" gradientUnits="userSpaceOnUse"><stop offset="0" stop-color="#f071ab"></stop><stop offset="1" stop-color="#22abe2"></stop></linearGradient><path fill="url(#a)" d="M420 1010h-8c-5 0-10-1-15-1h-1c-105-8-199-70-249-166 0 0 0-1-1-2-21-41-33-88-33-138 0-170 138-307 307-307 170 0 308 137 308 307 0 50-12 97-34 139 0 0 0 1-1 1-49 96-143 158-249 166-5 0-10 1-15 1h-9zm1147 421H139c-76 0-139-62-139-139V415c0-77 63-139 139-139h1428c77 0 139 62 139 139v877c0 77-62 139-139 139zM139 315c-54 0-99 45-99 100v877c0 55 45 99 99 99h1428c55 0 99-44 99-99V415c0-55-44-100-99-100zm1375 996H198c-11 0-20-9-20-20v-187c0-11 9-20 20-20h1316c11 0 20 9 20 20v187c0 11-9 20-20 20zm-1296-40h1276v-147H218zm1355-835H867c-11 0-20-9-20-20s9-20 20-20h706c11 0 20 9 20 20s-9 20-20 20zm0 166h-511c-11 0-20-9-20-20s9-20 20-20h511c11 0 20 9 20 20s-9 20-20 20zm0 166h-353c-11 0-20-9-20-20s9-20 20-20h353c11 0 20 9 20 20s-9 20-20 20zm0 167h-210c-11 0-20-9-20-20s9-20 20-20h210c11 0 20 9 20 20s-9 20-20 20zM420 718c-63 0-115-52-115-115 0-64 52-115 115-115 64 0 115 51 115 115 0 63-51 115-115 115zm0-190c-41 0-75 33-75 75 0 41 34 75 75 75 42 0 75-34 75-75 0-42-33-75-75-75zM170 797c39-40 93-62 149-62h203c56 0 109 22 148 62 11-29 18-61 18-94 0-148-120-267-268-267-147 0-267 119-267 267 0 33 6 65 17 94zm19 39c43 74 120 126 210 133h8v1h27v-1h7c90-7 168-59 211-133-32-39-80-61-130-61H319c-50 0-98 22-130 61zm239 134h6" opacity="1" data-original="url(#a)"></path></g></svg>