<svg xmlns="http://www.w3.org/2000/svg" version="1.1" xmlns:xlink="http://www.w3.org/1999/xlink" width="512" height="512" x="0" y="0" viewBox="0 0 512 512" style="enable-background:new 0 0 512 512" xml:space="preserve"><rect width="512" height="512" rx="102.4" ry="102.4" fill="#bac8d3" shape="rounded"></rect><g transform="matrix(0.61,0,0,0.61,99.8399955368042,99.83999404907226)"><linearGradient id="a" x1="47.773" x2="464.227" y1="464.227" y2="47.773" gradientUnits="userSpaceOnUse"><stop offset="0" stop-color="#ff506a"></stop><stop offset="1" stop-color="#ffe28f"></stop></linearGradient><path fill="url(#a)" d="M469.445 66.269H172.541c-17.705 0-32.107 14.404-32.107 32.107v97.879H42.555c-17.703 0-32.107 14.404-32.107 32.107v185.262c0 17.703 14.404 32.107 32.107 32.107h296.904c17.705 0 32.107-14.404 32.107-32.107v-97.879h97.879c17.703 0 32.107-14.404 32.107-32.107V98.376c0-17.703-14.404-32.107-32.107-32.107zm-296.904 9.629h296.904c12.394 0 22.477 10.083 22.477 22.477v12.989H150.064V98.376c0-12.394 10.083-22.478 22.477-22.478zm319.382 87.921H150.064v-42.825h341.859zM42.555 205.885h296.904c12.394 0 22.477 10.083 22.477 22.477v12.987H20.077v-12.987c0-12.394 10.084-22.477 22.478-22.477zm-22.478 45.093h341.859v42.827H20.077zm319.382 185.124H42.555c-12.394 0-22.477-10.083-22.477-22.477v-110.19h341.859v110.189c-.001 12.394-10.084 22.478-22.478 22.478zm129.986-129.987h-97.879v-77.753c0-17.703-14.402-32.107-32.107-32.107H150.064v-22.807h341.859v110.189c0 12.395-10.084 22.478-22.478 22.478zm-350.668 52.506V344.99c0-10.067-8.188-18.255-18.253-18.255H69.238c-10.064 0-18.253 8.188-18.253 18.255v13.631c0 10.064 8.188 18.253 18.253 18.253h31.286c10.065 0 18.253-8.188 18.253-18.253zm-9.629 0c0 4.756-3.867 8.623-8.623 8.623H69.238c-4.756 0-8.623-3.867-8.623-8.623V344.99c0-4.756 3.867-8.626 8.623-8.626h31.286c4.756 0 8.623 3.87 8.623 8.626v13.631zm-22.835 43.53a4.815 4.815 0 0 1-4.815 4.815H55.172a4.815 4.815 0 0 1 0-9.63h26.326a4.817 4.817 0 0 1 4.815 4.815zm61.336 0a4.815 4.815 0 0 1-4.815 4.815h-26.326a4.815 4.815 0 0 1 0-9.63h26.326a4.816 4.816 0 0 1 4.815 4.815zm61.334 0a4.815 4.815 0 0 1-4.815 4.815h-26.324a4.815 4.815 0 0 1 0-9.63h26.324a4.816 4.816 0 0 1 4.815 4.815zm61.337 0a4.815 4.815 0 0 1-4.815 4.815h-26.326a4.815 4.815 0 0 1 0-9.63h26.326a4.817 4.817 0 0 1 4.815 4.815zm61.334 0a4.815 4.815 0 0 1-4.815 4.815h-26.324a4.815 4.815 0 0 1 0-9.63h26.324a4.817 4.817 0 0 1 4.815 4.815z" opacity="1" data-original="url(#a)"></path></g></svg>