<svg xmlns="http://www.w3.org/2000/svg" version="1.1" xmlns:xlink="http://www.w3.org/1999/xlink" width="512" height="512" x="0" y="0" viewBox="0 0 64 64" style="enable-background:new 0 0 512 512" xml:space="preserve" fill-rule="evenodd"><rect width="64" height="64" rx="12.8" ry="12.8" fill="#bac8d3" shape="rounded"></rect><g transform="matrix(0.6499999999999998,0,0,0.6499999999999998,11.672747802734381,11.199721205234539)"><linearGradient id="a" x1="0" x2="1" y1="0" y2="0" gradientTransform="matrix(-1 -57.994 57.994 -1 588 61)" gradientUnits="userSpaceOnUse"><stop offset="0" stop-color="#9e30ff"></stop><stop offset="1" stop-color="#0bb1d3"></stop></linearGradient><path fill="url(#a)" d="m576.814 55 5.55-11.396a6.491 6.491 0 0 1-1.893-4.589c0-1.526.525-2.93 1.405-4.041a29.138 29.138 0 0 1-7.578-19.635c0-4.175.877-8.147 2.456-11.741a.998.998 0 0 1 1.625-.303l9.554 9.623 16.65.08 4.088-3.65a1.862 1.862 0 1 1 3.69-.348 1.862 1.862 0 0 1-2.318 1.805L606 14.414V31l-.006.109 9.417 9.484a1 1 0 0 1-.314 1.623 29.127 29.127 0 0 1-11.549 2.372c-3.898 0-7.619-.764-11.02-2.15a6.54 6.54 0 0 1-.587.804L598.419 55H603a1 1 0 0 1 1 1v4a1 1 0 0 1-1 1h-31a1 1 0 0 1-1-1v-4a1 1 0 0 1 1-1zM602 57v2h-29v-2zm-5.864-2h-17.098l4.965-10.193a6.476 6.476 0 0 0 2.982.722 6.49 6.49 0 0 0 3.404-.959zm-9.151-20.5a4.517 4.517 0 0 1 4.515 4.515 4.517 4.517 0 0 1-4.515 4.514 4.517 4.517 0 0 1-4.514-4.514 4.517 4.517 0 0 1 4.514-4.515zm6.322 6.095a27.143 27.143 0 0 0 10.241 1.993 27.17 27.17 0 0 0 9.378-1.659L578.025 5.778l.001-.001a27.155 27.155 0 0 0-1.728 9.562 27.144 27.144 0 0 0 7.045 18.275 6.481 6.481 0 0 1 3.642-1.114 6.518 6.518 0 0 1 6.322 8.095zm-6.322-3.709a2.13 2.13 0 1 1 0 4.256 2.13 2.13 0 0 1 0-4.256zm10.224-14.625L604 29.1V16.199zm-1.411-1.421 6.556-5.853-12.426-.06z" transform="translate(-560)" opacity="1" data-original="url(#a)"></path></g></svg>