<svg xmlns="http://www.w3.org/2000/svg" version="1.1" xmlns:xlink="http://www.w3.org/1999/xlink" width="512" height="512" x="0" y="0" viewBox="0 0 128 128" style="enable-background:new 0 0 512 512" xml:space="preserve"><rect width="128" height="128" rx="25.6" ry="25.6" fill="#bac8d3" shape="rounded"></rect><g transform="matrix(0.6499999999999998,0,0,0.6499999999999998,22.400000000000013,22.400311422348032)"><linearGradient id="a" x1="76.079%" x2="23.977%" y1="0%" y2="99.892%"><stop offset="0" stop-color="#3b5af2"></stop><stop offset="1" stop-color="#44cce0"></stop></linearGradient><path fill="url(#a)" fill-rule="nonzero" d="M102 10a1 1 0 0 1 .993.883L103 11v102a1 1 0 0 1-.883.993L102 114H53v3c0 .54-.4.923-.86.991l-.099.01h-.1a.975.975 0 0 1-.472-.153l-.11-.08L46.838 114h-1.675l-4.522 3.768a.99.99 0 0 1-.506.225l-.105.009a1.006 1.006 0 0 1-1.002-.767l-.021-.122L39 117v-3h-5a9 9 0 0 1-8.985-8.471l-.011-.264L25 105c0-.254.01-.505.031-.753l-.023-.121L25 104V18c0-.118.02-.232.058-.337l.044-.103.019-.036.03-.17a9.006 9.006 0 0 1 7.371-7.233.995.995 0 0 1 .725-.09l.215-.015.271-.012L34 10zm-51 94H41v10.864l4.36-3.632a1 1 0 0 1 1.063-.138l.112.061.105.077 4.36 3.632zm50-6H34a7 7 0 0 0-.24 13.996L34 112l5-.001V104h-1a1 1 0 0 1-.117-1.993L38 102h52a1 1 0 0 1 .117 1.993L90 104H53v7.999l48 .001zM32 12.29a7.004 7.004 0 0 0-4.907 5.565l-.048.326-.012.056-.033.108v80.676l.216-.245A8.496 8.496 0 0 1 32 96.132zM101 96V12H34v83.999zM86 25a3 3 0 0 1 2.995 2.824L89 28v12a3 3 0 0 1-2.824 2.995L86 43H48a3 3 0 0 1-2.995-2.824L45 40V28a3 3 0 0 1 2.824-2.995L48 25zm0 2H48a1 1 0 0 0-.993.883L47 28v12a1 1 0 0 0 .883.993L48 41h38a1 1 0 0 0 .993-.883L87 40V28a1 1 0 0 0-.883-.993z" opacity="1" data-original="url(#a)"></path></g></svg>