<svg xmlns="http://www.w3.org/2000/svg" version="1.1" xmlns:xlink="http://www.w3.org/1999/xlink" width="512" height="512" x="0" y="0" viewBox="0 0 512 512" style="enable-background:new 0 0 512 512" xml:space="preserve"><rect width="512" height="512" rx="102.4" ry="102.4" fill="#bac8d3" shape="rounded"></rect><g transform="matrix(0.6499999999999998,0,0,0.6499999999999998,89.59275550842295,89.6111259691418)"><linearGradient id="a" x1="74.557" x2="437.443" y1="256" y2="256" gradientUnits="userSpaceOnUse"><stop offset="0" stop-color="#a3aa38"></stop><stop offset="1" stop-color="#096a37"></stop></linearGradient><path fill="url(#a)" d="M286.4 512h-56.6c-8.4 0-15.3-6.9-15.3-15.3v-17c-12.7-1.5-22.5-12.3-22.5-25.3v-42.6c-12-3.8-20.8-15.1-20.8-28.4v-32.6c0-5.4-2.8-10.4-7.4-13.1-56.4-33.4-90.6-94.8-89.2-160.3 1-46.1 19.5-89.8 52.2-123C159.3 21.3 202.5 2 248.4.2h.5c49.8-1.9 97 16.1 132.9 50.6s55.6 80.9 55.6 130.7c0 62.5-31.5 119.8-84.4 153.3-4.4 2.8-7 7.6-7 12.9v35.9c0 13.3-8.8 24.6-20.8 28.4v42.5c0 13.4-10.3 24.3-23.4 25.4v16.9c-.1 8.3-7 15.2-15.4 15.2zm-61.7-32.1v16.8c0 2.8 2.3 5.1 5.1 5.1h56.6c2.8 0 5.1-2.3 5.1-5.1v-16.8zm72.4-10.2h2.5c8.4 0 15.3-6.9 15.3-15.3v-41.2H202.2v25h42.7c2.8 0 5.1 2.3 5.1 5.1s-2.3 5.1-5.1 5.1h-42.7v6c0 8.4 6.9 15.3 15.3 15.3h79.1c.2-.1.3 0 .5 0zM249.7 10.2h-.5c-90.3 3.5-162.5 77-164.5 167.4-1.3 61.8 31 119.8 84.2 151.3 7.7 4.5 12.4 12.9 12.4 21.9v32.6c0 10.8 8.8 19.5 19.5 19.5h115.3c10.8 0 19.5-8.8 19.5-19.5v-35.9c0-8.8 4.4-16.8 11.8-21.5 49.9-31.6 79.6-85.7 79.6-144.7 0-47-18.6-90.8-52.5-123.3-33.6-32.5-77.9-49.5-124.8-47.8zm-21.2 321.2c-1.9 0-3.8-.4-5.7-1.3-6-2.8-8.9-9.2-7.1-15.5l25.8-89.1h-44c-4.2 0-8-1.9-10.5-5.2s-3.3-7.5-2.1-11.5l34.4-117.5c1.6-5.5 6.8-9.4 12.6-9.4h51.3c4.2 0 8 1.9 10.5 5.2s3.3 7.5 2.1 11.5l-21.2 73.6h44c4.9 0 9.3 2.7 11.6 7s2 9.5-.7 13.5l-90.3 133.1c-2.6 3.6-6.5 5.6-10.7 5.6zm3.3-239.5c-1.3 0-2.4.9-2.8 2.1l-34.4 117.5c-.4 1.2.1 2.1.5 2.6.3.4 1.1 1.2 2.3 1.2h50.8c1.6 0 3.1.8 4.1 2 1 1.3 1.3 2.9.8 4.5l-27.7 95.7c-.6 2.1.9 3.1 1.6 3.4.8.4 2.4.8 3.6-1l90.3-133.1c.9-1.3.4-2.5.1-3-.2-.5-1-1.5-2.6-1.5h-50.5c-1.6 0-3.1-.8-4.1-2-1-1.3-1.3-2.9-.8-4.5l23-80.1c.4-1.2-.1-2.1-.5-2.6-.3-.4-1.1-1.2-2.3-1.2z" opacity="1" data-original="url(#a)"></path></g></svg>