<svg xmlns="http://www.w3.org/2000/svg" version="1.1" xmlns:xlink="http://www.w3.org/1999/xlink" width="512" height="512" x="0" y="0" viewBox="0 0 512 512" style="enable-background:new 0 0 512 512" xml:space="preserve" class=""><rect width="512" height="512" rx="102.4" ry="102.4" fill="#bac8d3" shape="rounded"></rect><g transform="matrix(0.5900000000000001,0,0,0.5900000000000001,99.9602686214447,109.95980645179748)"><linearGradient id="a" x1="125.687" x2="472.7" y1="386.326" y2="39.313" gradientUnits="userSpaceOnUse"><stop offset="0" stop-color="#0061ff"></stop><stop offset="1" stop-color="#60efff"></stop></linearGradient><path fill="url(#a)" d="m446.629 274.311-5.195 5.195-14.944-64.641c10.812-8.976 19.079-16.254 23.766-20.941 34.825-34.823 60.15-116.905 22.443-154.612C434.995 1.601 352.91 26.93 318.088 61.756c-4.687 4.686-11.965 12.954-20.94 23.766l-64.64-14.945 5.193-5.193c12.947-12.944 12.952-33.91 0-46.858-12.926-12.926-33.882-12.974-46.856 0L156.392 52.98 89.236 37.453c-20.546-4.746-41.715 1.316-56.625 16.231L10.247 76.05a4.848 4.848 0 0 0 .964 7.602L210.112 201.03c-9.013 12.991-17.678 25.588-29.946 44.82l-99.707 5.136a38.629 38.629 0 0 0-25.365 11.281l-23.306 23.306a4.845 4.845 0 0 0 1.738 7.971l100.231 37.296c-10.32 25.635-11.175 41.759-2.757 50.175 11.355 11.36 35.104 3.317 50.176-2.751l37.295 100.225a4.847 4.847 0 0 0 7.969 1.735l23.304-23.306a38.62 38.62 0 0 0 11.282-25.366l5.136-99.704c17.609-11.233 31.432-20.624 44.819-29.949l117.381 198.904a4.847 4.847 0 0 0 7.602.962l22.364-22.362c14.912-14.912 20.979-36.079 16.228-56.627l-15.525-67.153 34.454-34.454c12.918-12.918 12.918-33.94 0-46.858-12.926-12.926-33.882-12.974-46.856 0zM197.698 25.381c9.163-9.163 23.988-9.161 33.149 0 9.158 9.158 9.161 23.99 0 33.151l-9.473 9.472-53.849-12.45zM39.464 60.538C51.997 48.008 69.788 42.9 87.052 46.901l242.457 56.053c-23.896 39.982-57.428 73.054-99.78 98.398L21.522 78.483zm4.515 226.552 17.968-17.97a28.967 28.967 0 0 1 19.011-8.453l92.906-4.786c-12.626 20.29-26.5 44.123-36.308 66.029zm207.366 143.963a28.938 28.938 0 0 1-8.455 19.011l-17.967 17.967-34.826-93.586c21.962-9.829 45.601-23.582 66.034-36.297zm-113.492-56.892c-20.601-20.601 64.07-144.386 80.606-168.206l8.812 5.2a4.85 4.85 0 0 0 4.916.006c46.987-27.569 83.672-64.263 109.032-109.06a4.852 4.852 0 0 0-3.126-7.113l-30.381-7.024c7.289-8.674 13.226-15.351 17.23-19.355 21.19-21.189 61.239-38.335 95.495-38.335 17.885 0 34.192 4.676 45.408 15.891 32.695 32.696 9.809 108.653-22.443 140.905-4.003 4.003-10.684 9.943-19.355 17.23l-7.024-30.382a4.848 4.848 0 0 0-7.109-3.127c-44.801 25.36-81.495 62.045-109.064 109.035a4.85 4.85 0 0 0 .006 4.916l5.185 8.786c-23.75 16.551-147.603 101.24-168.188 80.633zm313.621 98.389-17.942 17.939-122.87-208.204c25.343-42.352 58.415-75.884 98.397-99.78l56.053 242.455c3.991 17.266-1.106 35.057-13.638 47.59zm35.158-158.235-30.175 30.175-12.449-53.85 9.475-9.475c9.163-9.163 23.988-9.161 33.149 0 9.138 9.141 9.138 24.009 0 33.15zM382.008 69.067c.5-2.628 3.029-4.342 5.667-3.856 32.961 6.273 52.853 26.165 59.126 59.126a4.849 4.849 0 0 1-4.766 5.752 4.848 4.848 0 0 1-4.757-3.941c-5.531-29.064-22.348-45.883-51.414-51.414a4.846 4.846 0 0 1-3.856-5.667z" opacity="1" data-original="url(#a)"></path></g></svg>