<svg xmlns="http://www.w3.org/2000/svg" version="1.1" xmlns:xlink="http://www.w3.org/1999/xlink" width="512" height="512" x="0" y="0" viewBox="0 0 491.5 491.5" style="enable-background:new 0 0 512 512" xml:space="preserve" class=""><rect width="491.5" height="491.5" rx="98.3" ry="98.3" fill="#bac8d3" shape="rounded"></rect><g transform="matrix(0.71,0,0,0.71,71.26750000000004,71.2674977874756)"><linearGradient id="a" x1="245.75" x2="245.75" y1="28.8" y2="462.7" gradientUnits="userSpaceOnUse"><stop offset="0" stop-color="#f704fe"></stop><stop offset="1" stop-color="#24bce3"></stop></linearGradient><path fill="url(#a)" d="M378.8 206.7c-2.6 0-4.7-2.1-4.7-4.7v-11.8c0-21.8-55.2-38.3-128.3-38.3-73.2 0-128.3 16.5-128.3 38.3V202c0 2.6-2.1 4.7-4.7 4.7s-4.7-2.1-4.7-4.7v-11.8c0-33 69.2-47.8 137.8-47.8s137.8 14.8 137.8 47.8V202c-.1 2.6-2.3 4.7-4.9 4.7zM112.7 361.3c-2.6 0-4.7-2.1-4.7-4.7V225.2c0-2.6 2.1-4.7 4.7-4.7s4.7 2.1 4.7 4.7v131.4c0 2.6-2.1 4.7-4.7 4.7zm266.1 0c-2.6 0-4.7-2.1-4.7-4.7V225.2c0-2.6 2.1-4.7 4.7-4.7s4.7 2.1 4.7 4.7v131.4c.1 2.6-2.1 4.7-4.7 4.7zm-133 78.1c-68.6 0-137.8-14.8-137.8-47.8v-11.8c0-2.6 2.1-4.7 4.7-4.7s4.7 2.1 4.7 4.7v11.8c0 21.8 55.2 38.3 128.3 38.3 73.2 0 128.3-16.5 128.3-38.3v-11.8c0-2.6 2.1-4.7 4.7-4.7s4.7 2.1 4.7 4.7v11.8c.2 33-69 47.8-137.6 47.8zm84.9 23.3H160.8c-12.3 0-22.3-9-22.3-20.1v-22.4c0-2.6 2.1-4.7 4.7-4.7s4.7 2.1 4.7 4.7v22.4c0 5.8 5.9 10.7 12.8 10.7h169.9c7 0 12.9-4.9 12.9-10.7v-22.4c0-2.6 2.1-4.7 4.7-4.7s4.7 2.1 4.7 4.7v22.4c.2 11.1-9.9 20.1-22.2 20.1zM191.2 155.2c-2.6 0-4.7-2.1-4.7-4.7V63.4c0-2.6 2.1-4.8 4.7-4.8s4.7 2.1 4.7 4.8v87.1c.1 2.6-2 4.7-4.7 4.7zm-26.7 4.8c-2.6 0-4.7-2.1-4.7-4.7V63.4c0-2.6 2.1-4.8 4.7-4.8s4.7 2.1 4.7 4.8v91.8c.1 2.6-2.1 4.8-4.7 4.8zm135.8-4.8c-2.6 0-4.7-2.1-4.7-4.7V63.4c0-2.6 2.1-4.8 4.7-4.8s4.7 2.1 4.7 4.8v87.1c0 2.6-2.1 4.7-4.7 4.7zM327 160c-2.6 0-4.7-2.1-4.7-4.7V63.4c0-2.6 2.1-4.8 4.7-4.8s4.7 2.1 4.7 4.8v91.8c0 2.6-2.1 4.8-4.7 4.8zM157 38.3c-5.6 0-10.2 4.6-10.2 10.2s4.6 10.2 10.2 10.2h177.6c5.6 0 10.2-4.6 10.2-10.2s-4.6-10.2-10.2-10.2zm177.6 29.9H157c-10.8 0-19.7-8.8-19.7-19.7 0-10.8 8.8-19.7 19.7-19.7h177.6c10.9 0 19.7 8.8 19.7 19.7-.1 10.8-8.9 19.7-19.7 19.7zm-229 138.5c-3.8 0-6.9 3.1-6.9 6.9s3.1 6.9 6.9 6.9h280.3c3.8 0 6.9-3.1 6.9-6.9s-3.1-6.9-6.9-6.9zm280.3 23.2H105.6c-9 0-16.3-7.3-16.3-16.3s7.3-16.3 16.3-16.3h280.3c9 0 16.3 7.3 16.3 16.3s-7.3 16.3-16.3 16.3zM105.6 361.3c-3.8 0-6.9 3.1-6.9 6.9s3.1 6.9 6.9 6.9h280.3c3.8 0 6.9-3.1 6.9-6.9s-3.1-6.9-6.9-6.9zm280.3 23.2H105.6c-9 0-16.3-7.3-16.3-16.3s7.3-16.3 16.3-16.3h280.3c9 0 16.3 7.3 16.3 16.3 0 8.9-7.3 16.3-16.3 16.3zM236.7 151.9c-2.6 0-4.7-2.1-4.7-4.7V115c0-2.6 2.1-4.7 4.7-4.7s4.7 2.1 4.7 4.7v32.2c0 2.6-2.1 4.7-4.7 4.7zm18.1 0c-2.6 0-4.7-2.1-4.7-4.7V115c0-2.6 2.1-4.7 4.7-4.7s4.7 2.1 4.7 4.7v32.2c.1 2.6-2.1 4.7-4.7 4.7zm-26.7-50.5c-2.4 0-4.4 2-4.4 4.5 0 2.4 2 4.4 4.4 4.4h35.3c2.5 0 4.5-2 4.5-4.4 0-2.5-2-4.5-4.5-4.5zm35.3 18.3h-35.3c-7.7 0-13.9-6.2-13.9-13.9s6.2-13.9 13.9-13.9h35.3c7.7 0 13.9 6.2 13.9 13.9s-6.2 13.9-13.9 13.9zM223.8 279c.7 7.1-1.2 13.3-3 19-2.4 7.8-4.2 14 .6 21.5 5.1 7.9 13.8 12.6 23.2 12.6 13.4 0 24.8-9.6 27.1-22.8 0-.1.1-.3.1-.4 4.4-16-3-38.2-16.4-52.6 2 24.7-2.9 39.5-14.8 45.1-1.3.6-2.9.6-4.2 0-1.3-.7-2.2-1.9-2.5-3.3-1.7-9.6-4.1-14.7-10.1-19.1zm20.8 62.7c-12.7 0-24.3-6.4-31.1-17-7.2-11.2-4.3-20.9-1.7-29.4 2.4-8 4.5-14.9.1-23.9-.9-1.8-.5-4 .9-5.4s3.6-1.8 5.4-1c13.4 6.2 19.8 12.4 23.4 23.9 5.2-7.3 6.4-22.1 3.2-43.3-.3-1.9.6-3.7 2.2-4.7s3.6-1 5.2.1c21.9 15.1 35.1 47.3 29 70.4-3.4 17.5-18.7 30.3-36.6 30.3z" opacity="1" data-original="url(#a)"></path></g></svg>