<svg xmlns="http://www.w3.org/2000/svg" version="1.1" xmlns:xlink="http://www.w3.org/1999/xlink" width="512" height="512" x="0" y="0" viewBox="0 0 512 512" style="enable-background:new 0 0 512 512" xml:space="preserve"><rect width="512" height="512" rx="102.4" ry="102.4" fill="#bac8d3" shape="rounded"></rect><g transform="matrix(0.63,0,0,0.63,99.71809138298036,89.7213256931305)"><linearGradient id="a" x1="71.038" x2="458.488" y1="477.4" y2="89.95" gradientUnits="userSpaceOnUse"><stop offset="0" stop-color="#fcc60e"></stop><stop offset="1" stop-color="#e92e29"></stop></linearGradient><path fill="url(#a)" d="M498.904 303.667c-4.731-7.9-24.149-31.349-75.419-1.489l-90.435 52.673c-4.563 2.657-9.205 4.53-14.052 5.641 1.814-2.867 3.232-6.121 4.198-9.726 4.62-17.241-5.628-35.242-23.331-40.981a8.307 8.307 0 0 0-1.047-.263c-25.996-4.688-51.651-13.964-72.265-21.417-7.159-2.588-13.921-5.033-19.671-6.897-23.158-7.514-44.076 1.786-61.485 11.873l-67.29 38.986-4.877-8.617c-5.789-10.228-18.819-13.839-29.049-8.051l-25.375 14.36c-10.228 5.789-13.839 18.82-8.051 29.049l74.599 131.809c3.917 6.922 11.148 10.813 18.586 10.813 3.553 0 7.155-.889 10.462-2.761l25.374-14.36c4.942-2.797 8.503-7.364 10.027-12.861 1.523-5.496.822-11.245-1.975-16.188l-9.195-16.246L154 430.142l115.839 31.04c6.54 1.752 12.958 2.627 19.238 2.627 12.522 0 24.495-3.479 35.761-10.414l164.117-101.057c14.95-9.205 19.692-32.403 9.949-48.671zm-364.52 163.507a5.272 5.272 0 0 1-2.489 3.21l-25.374 14.36c-2.507 1.419-5.825.5-7.244-2.008L24.68 350.928c-1.419-2.508-.5-5.825 2.008-7.245l25.374-14.359a5.195 5.195 0 0 1 2.566-.669c1.87 0 3.713.971 4.678 2.676l74.599 131.811a5.277 5.277 0 0 1 .479 4.032zm346.182-128.461L316.449 439.77c-13.021 8.017-27.309 10.021-42.469 5.957L154.94 413.83a7.997 7.997 0 0 0-6.071.799l-18.117 10.46-44.766-79.098 67.43-39.067c15.08-8.737 31.394-16.057 48.529-10.498 5.497 1.783 11.832 4.073 19.167 6.726 21.03 7.604 47.169 17.053 74.287 22.011 9.465 3.306 14.756 12.448 12.341 21.463-3.136 11.709-13.025 13.148-20.894 12.242-14.105-2.836-26.912-6.469-40.311-10.269-6.009-1.704-12.224-3.467-18.759-5.218-4.268-1.14-8.654 1.39-9.798 5.657a8.001 8.001 0 0 0 5.657 9.798c6.423 1.721 12.58 3.467 18.534 5.155 17.582 4.986 35.26 9.803 53.327 12.695 16.812 2.688 31.731.069 45.604-8.01l90.435-52.673c26.044-15.17 46.098-16.71 53.64-4.116 5.201 8.681 2.874 22.219-4.609 26.826zM57.945 352.167c.724 4.951-2.703 9.551-7.654 10.274s-9.551-2.703-10.274-7.653 2.703-9.551 7.654-10.275a9.06 9.06 0 0 1 10.274 7.654zm248.122-57.737c1.785.311 3.648.833 5.467.833 1.81 0 3.689-.523 5.467-.833 32.001-5.578 61.231-22.442 82.305-47.484C420.389 221.891 432 190.201 432 157.714V66.775c0-3.2-1.907-6.093-4.849-7.354L314.686 11.223a8.013 8.013 0 0 0-6.303 0L195.917 59.422a8.002 8.002 0 0 0-4.849 7.354v90.938c0 32.487 11.611 64.177 32.694 89.231 21.074 25.042 50.304 41.907 82.305 47.485zM207.069 72.051 311.534 27.28 416 72.051v85.663c0 59.809-42.791 110.677-101.747 120.954l-2.718.474-2.719-.474c-58.956-10.277-101.747-61.146-101.747-120.954zm104.466 168.113c48.106 0 87.244-39.138 87.244-87.245 0-48.106-39.138-87.244-87.244-87.244-48.107 0-87.245 39.138-87.245 87.244 0 48.107 39.138 87.245 87.245 87.245zm0-158.489c39.284 0 71.244 31.96 71.244 71.244 0 39.285-31.96 71.245-71.244 71.245-39.285 0-71.245-31.96-71.245-71.245 0-39.284 31.96-71.244 71.245-71.244zm-25.218 108.937a18.886 18.886 0 0 0 13.395 5.539 18.894 18.894 0 0 0 13.395-5.539c13.252-13.253 40.485-40.899 48.194-48.686a18.79 18.79 0 0 0 5.502-13.388 18.785 18.785 0 0 0-5.576-13.357 18.81 18.81 0 0 0-13.39-5.503c-5.052.014-9.796 1.995-13.368 5.587l-34.801 35.119-11.065-11.065c-7.385-7.385-19.401-7.385-26.789 0-3.578 3.578-5.549 8.335-5.549 13.396s1.971 9.817 5.549 13.396zm-13.19-39.977a2.938 2.938 0 0 1 2.083-.861c.753 0 1.507.286 2.081.86l16.748 16.747a7.997 7.997 0 0 0 5.657 2.344h.018a8 8 0 0 0 5.665-2.369l40.448-40.818a2.9 2.9 0 0 1 2.058-.858h.008a2.9 2.9 0 0 1 2.055.848 2.915 2.915 0 0 1-.001 4.131c-7.733 7.81-34.94 35.432-48.15 48.641a2.946 2.946 0 0 1-4.163 0l-24.503-24.502c-.75-.75-.862-1.626-.862-2.081s.109-1.333.858-2.082z" opacity="1" data-original="url(#a)"></path></g></svg>