<svg xmlns="http://www.w3.org/2000/svg" version="1.1" xmlns:xlink="http://www.w3.org/1999/xlink" width="512" height="512" x="0" y="0" viewBox="0 0 512 512" style="enable-background:new 0 0 512 512" xml:space="preserve" class=""><rect width="512" height="512" rx="102.4" ry="102.4" fill="#bac8d3" shape="rounded"></rect><g transform="matrix(0.58,0,0,0.58,112.52000000000001,107.52000000000001)"><linearGradient id="a" x1="256" x2="256" y1="496" y2="16" gradientUnits="userSpaceOnUse"><stop offset="0" stop-color="#009efd"></stop><stop offset="1" stop-color="#2af598"></stop></linearGradient><path fill="url(#a)" d="M376 176h76c33.084 0 60-26.913 60-60 0-55.14-44.859-100-100-100H100C44.859 16 0 60.86 0 116.006 0 149.087 26.916 176 60 176h76c7.011 0 13.74-1.22 20-3.44V196c0 11.028-8.972 20-20 20-55.141 0-100 44.86-100 100v80c0 26.073 16.722 48.303 40 56.56V496h40v-40h280v40h40v-43.44c23.278-8.256 40-30.487 40-56.56v-80c0-55.14-44.859-100-100-100-11.028 0-20-8.972-20-20v-23.44a59.718 59.718 0 0 0 20 3.44zm0 80c33.084 0 60 26.916 60 60v80c0 11.028-8.972 20-20 20H96c-11.028 0-20-8.972-20-20v-80c0-33.084 26.916-60 60-60s60-26.916 60-60v-60h40v40h40v-40h40v60c0 33.084 26.916 60 60 60zM156 96v20c0 11.028-8.972 20-20 20H60c-11.028 0-20-8.969-20-20 0-33.084 26.916-60 60-60h312c33.084 0 60 26.916 60 60.006 0 11.025-8.972 19.994-20 19.994h-76c-11.028 0-20-8.972-20-20V96zm100 120c-44.112 0-80 35.888-80 80s35.888 80 80 80 80-35.888 80-80-35.888-80-80-80zm0 120c-22.056 0-40-17.944-40-40s17.944-40 40-40 40 17.944 40 40-17.944 40-40 40z" opacity="1" data-original="url(#a)"></path></g></svg>