<svg xmlns="http://www.w3.org/2000/svg" version="1.1" xmlns:xlink="http://www.w3.org/1999/xlink" width="512" height="512" x="0" y="0" viewBox="0 0 64 64" style="enable-background:new 0 0 512 512" xml:space="preserve" class=""><rect width="64" height="64" rx="12.8" ry="12.8" fill="#bac8d3" shape="rounded"></rect><g transform="matrix(0.65,0,0,0.65,11.201670598983764,11.200351142883303)"><linearGradient id="a" x1="4" x2="60.003" y1="32" y2="32" gradientUnits="userSpaceOnUse"><stop offset="0" stop-color="#00c0ff"></stop><stop offset="1" stop-color="#5558ff"></stop></linearGradient><path fill="url(#a)" d="m59.808 18.687-6.02-12.471a1.942 1.942 0 0 0-2.62-.883L46.3 7.81a1.945 1.945 0 0 0-.862 2.568l.19.389a4.304 4.304 0 0 1-2.475-.216l-7.011-2.847a3.709 3.709 0 0 0-3.16.387l-14.825 9.304H11.03a1.935 1.935 0 0 0-1.932 1.932V32.98a1.935 1.935 0 0 0 1.932 1.932h24.674a1.935 1.935 0 0 0 1.933-1.932v-5.579l6.233-.855a4.2 4.2 0 0 0 1.588-.559l5.876-3.488a2.007 2.007 0 0 0 2.806 1.238l4.817-2.494a1.923 1.923 0 0 0 .852-2.556zm-48.779.709h1.86a1.408 1.408 0 0 1-1.812 1.595zm1.862 13.516c-.44-.017-1.353.028-1.794.068v-1.661a1.46 1.46 0 0 1 1.794 1.593zm19.04 0H14.89c.003-.055.02-.109.02-.164a3.472 3.472 0 0 0-3.813-3.453v-6.277a3.472 3.472 0 0 0 3.813-3.453c0-.057-.018-.112-.02-.17l20.746-.067v.975L32 21.713c-3.088 1.046-3.255 6.24.403 6.38.18.027 2.981-.393 3.233-.417v1.61a3.447 3.447 0 0 0-3.705 3.626zm3.772-15.516h-4.497c1.603-.693 3.73-1.804 5.479-.766l2.737 1.543a.375.375 0 0 1-.04.677l-1.746.677a1.956 1.956 0 0 0-1.933-2.131zm-1.772 15.516a1.458 1.458 0 0 1 1.725-1.607l.047 1.607zm10.507-8.646a2.218 2.218 0 0 1-.835.298l-11.104 1.523c-1.46.004-.833-2.25.226-2.51l7.38-2.862a2.39 2.39 0 0 0 .31-4.277l-2.748-1.55c-3.22-2.063-8.454 1.182-10.44 2.507H21.92l12.127-7.61a1.693 1.693 0 0 1 1.402-.205l6.952 2.825a6.32 6.32 0 0 0 4.121.202l3.933 8.087zm8.873-2.275L47.266 9.563l4.72-2.479 6.05 12.383zm-25.019 5.733a5.173 5.173 0 1 1-1.02-4.962 1 1 0 0 1-1.505 1.316 3.174 3.174 0 1 0 .62 3.038 1 1 0 1 1 1.905.608zm-13.15-.57h-1.73a1 1 0 0 1 0-2h1.73a1 1 0 0 1 0 2zm23.56 21.8a1 1 0 0 1-1.563-1.248 33.405 33.405 0 0 0 3.35-5.127 2.131 2.131 0 0 0-.396-2.512.692.692 0 0 0-.954.167l-5.658 6.147a2.901 2.901 0 0 1-3.237 2.74l-6.118-1.133a4.657 4.657 0 0 0-3.306.65 1 1 0 0 1-1.04-1.707 6.732 6.732 0 0 1 4.707-.91l6.107 1.13c1.021.126 1.271-1.906.298-2.255-3.102-1.062-8-2.362-10.515-4.327-2.688-1.903-5.31-1.347-7.791 1.649l3.468 9.64c1.973.99 7.217 3.112 9.34 4.009a2.795 2.795 0 0 0 2.695-.315l2.563-1.722a27.894 27.894 0 0 0 3.894-3.22 1 1 0 0 1 1.408 1.42 29.82 29.82 0 0 1-4.18 3.456c-1.44.896-3.521 2.753-5.322 2.591a4.81 4.81 0 0 1-1.82-.361c-1.045-.445-6.942-2.843-7.836-3.309a3.221 3.221 0 0 1-1.763 2.96l-2.416 1.208A2.695 2.695 0 0 1 8.84 57.09l-2.442-6.814a1 1 0 0 1 1.883-.674l2.44 6.81a.683.683 0 0 0 1.002.373l2.42-1.21a1.216 1.216 0 0 0 .606-1.438l-4.67-12.978a.67.67 0 0 0-.992-.375l-2.432 1.21a1.217 1.217 0 0 0-.594 1.436l.72 2.012a1 1 0 0 1-1.883.674l-.72-2.01a3.21 3.21 0 0 1 1.585-3.901l2.431-1.21a2.66 2.66 0 0 1 3.594 1.121c3-3.093 6.429-3.528 9.748-1.178a17.193 17.193 0 0 0 4.671 2.299l5.299 1.755a2.708 2.708 0 0 1 1.39 1.072l4.769-5.182a2.688 2.688 0 0 1 3.57-.458c3.763 3.032-.588 7.781-2.534 10.53z" opacity="1" data-original="url(#a)"></path></g></svg>