<svg xmlns="http://www.w3.org/2000/svg" version="1.1" xmlns:xlink="http://www.w3.org/1999/xlink" width="512" height="512" x="0" y="0" viewBox="0 0 512 512" style="enable-background:new 0 0 512 512" xml:space="preserve" class=""><rect width="512" height="512" rx="102.4" ry="102.4" fill="#bac8d3" shape="rounded"></rect><g transform="matrix(0.5900000000000001,0,0,0.5900000000000001,104.95999999999998,104.95999530792236)"><linearGradient id="a" x1="256" x2="256" y1="511.982" y2=".018" gradientUnits="userSpaceOnUse"><stop offset="0" stop-color="#009efd"></stop><stop offset="1" stop-color="#2af598"></stop></linearGradient><path fill="url(#a)" d="M196 432.018h-40c0 22.037-17.933 39.964-39.975 39.964v40H396v-40H185.277C192.096 460.217 196 446.567 196 432.018zm60-236.036c-33.084 0-60 26.916-60 60s26.916 60 60 60 60-26.916 60-60-26.916-60-60-60zm0 80c-11.028 0-20-8.972-20-20s8.972-20 20-20 20 8.972 20 20-8.972 20-20 20zm140-240c-19.877 0-40-12.354-40-35.964h-40c0 12.932 3.103 25.181 8.965 35.964h-208.94v40H396zm-396 80v280h512v-280zm40 40h40v20c0 11.028-8.972 20-20 20H40zm40 200H40v-40h20c11.028 0 20 8.972 20 20zm392 0h-40v-20c0-11.028 8.972-20 20-20h20zm0-80h-20c-33.084 0-60 26.916-60 60v20H120v-20c0-33.084-26.916-60-60-60H40v-40h20c33.084 0 60-26.916 60-60v-20h272v20c0 33.084 26.916 60 60 60h20zm0-80h-20c-11.028 0-20-8.972-20-20v-20h40z" opacity="1" data-original="url(#a)"></path></g></svg>