<svg xmlns="http://www.w3.org/2000/svg" version="1.1" xmlns:xlink="http://www.w3.org/1999/xlink" width="512" height="512" x="0" y="0" viewBox="0 0 512 512" style="enable-background:new 0 0 512 512" xml:space="preserve"><rect width="512" height="512" rx="102.4" ry="102.4" fill="#bac8d3" shape="rounded"></rect><g transform="matrix(0.6199999999999999,0,0,0.6199999999999999,97.27983184814457,92.27943321228031)"><linearGradient id="a" x1="90.46" x2="443.038" y1="506.896" y2="154.318" gradientUnits="userSpaceOnUse"><stop offset="0" stop-color="#545aff"></stop><stop offset="1" stop-color="#03bdff"></stop></linearGradient><path fill="url(#a)" d="M460.704 221.813c1.132-4.376-.75-8.785-4.68-10.967L261.928 102.614v-25.17h49.264a5.93 5.93 0 0 0 4.323-9.985l-15.267-16.272 15.267-16.276a5.925 5.925 0 0 0 1.116-6.41 5.923 5.923 0 0 0-5.439-3.573h-49.264v-6.044a5.928 5.928 0 1 0-11.856 0v83.73l-72.695 40.558a5.93 5.93 0 0 0-2.29 8.065 5.927 5.927 0 0 0 8.065 2.29L256 112.882l187.175 104.372c-486.434-.016-319.517-.001-374.352 0l66.147-36.887a5.93 5.93 0 0 0-5.775-10.355L55.983 210.84c-3.939 2.188-5.821 6.597-4.687 10.974 1.13 4.365 4.914 7.296 9.415 7.296h10.274c-.473 1.546-.803 3.154-.803 4.853v29.561c0 8.668 6.652 15.732 15.107 16.558v155.957H76.11a5.928 5.928 0 0 0-5.928 5.928v35.889c0 11.682 9.503 21.185 21.185 21.185H420.63c11.682 0 21.185-9.503 21.185-21.185v-35.889a5.928 5.928 0 0 0-5.928-5.928h-9.179V280.083c8.454-.826 15.107-7.889 15.107-16.558v-29.561c0-1.699-.33-3.307-.803-4.853h10.274c4.502.001 8.288-2.933 9.418-7.298zM297.505 36.784l-9.707 10.348a5.926 5.926 0 0 0 0 8.111l9.705 10.344h-35.574V36.784zM429.96 477.858c0 5.145-4.184 9.329-9.329 9.329H91.368c-5.145 0-9.329-4.184-9.329-9.329v-29.961H429.961v29.961zm-258.821-41.817h-41.085v-51.399c0-11.328 9.216-20.544 20.541-20.544 11.328 0 20.544 9.216 20.544 20.544zm105.403 0h-41.085v-51.399c0-11.328 9.216-20.544 20.544-20.544 11.325 0 20.541 9.216 20.541 20.544zm105.403 0H340.86v-51.399c0-11.328 9.216-20.544 20.544-20.544 11.325 0 20.541 9.216 20.541 20.544zm11.855 0v-51.399c0-17.865-14.533-32.4-32.397-32.4-17.865 0-32.4 14.535-32.4 32.4v51.399h-40.606v-51.399c0-17.865-14.533-32.4-32.397-32.4s-32.4 14.535-32.4 32.4v51.399h-40.606v-51.399c0-17.865-14.535-32.4-32.4-32.4s-32.397 14.535-32.397 32.4v51.399H97.145V280.246h317.709V436.04H393.8zm36.16-202.076v29.561a4.869 4.869 0 0 1-4.865 4.865H86.903a4.87 4.87 0 0 1-4.865-4.865v-29.561c0-2.663 2.154-4.821 4.808-4.853h338.307c2.656.032 4.807 2.189 4.807 4.853z" opacity="1" data-original="url(#a)"></path></g></svg>