<svg xmlns="http://www.w3.org/2000/svg" version="1.1" xmlns:xlink="http://www.w3.org/1999/xlink" width="512" height="512" x="0" y="0" viewBox="0 0 48 48" style="enable-background:new 0 0 512 512" xml:space="preserve" fill-rule="evenodd"><rect width="48" height="48" rx="9.6" ry="9.6" fill="#bac8d3" shape="rounded"></rect><g transform="matrix(0.65,0,0,0.65,8.400000000000002,8.400000000000002)"><linearGradient id="a" x1="0" x2="1" y1="0" y2="0" gradientTransform="matrix(48 48 -48 48 0 432)" gradientUnits="userSpaceOnUse"><stop offset="0" stop-color="#79c5d4"></stop><stop offset="1" stop-color="#276dd7"></stop></linearGradient><path fill="url(#a)" d="M11.07 455.401a4.674 4.674 0 0 1-1.828-3.703c0-2.589 2.125-4.698 4.751-4.698 2.627 0 4.752 2.109 4.752 4.698a4.669 4.669 0 0 1-1.832 3.705c2.77 1.066 4.791 3.607 5.079 6.64l.001.008a1.932 1.932 0 0 1-.776 1.718 1.148 1.148 0 0 1-.104.067c-1.316.743-4.214 1.165-7.119 1.164-2.907-.001-5.804-.428-7.116-1.177a.887.887 0 0 1-.099-.065 1.915 1.915 0 0 1-.772-1.705v-.005c.275-3.034 2.294-5.577 5.063-6.647zm-3.065 6.758c1.183.591 3.59.84 5.99.841 2.402.001 4.813-.247 5.999-.834-.255-2.397-1.964-4.367-4.23-5.043-.305-.088-.623-.322-.86-.677-.255-.381-.428-.918-.459-1.023l-.007-.024a1 1 0 0 1 .591-1.201c1.004-.401 1.716-1.368 1.716-2.5 0-1.493-1.237-2.698-2.752-2.698-1.514 0-2.751 1.205-2.751 2.698 0 1.132.712 2.099 1.716 2.5a1 1 0 0 1 .589 1.206l-.007.024c-.031.103-.206.638-.46 1.016-.238.354-.556.587-.848.671-2.273.682-3.982 2.651-4.227 5.044zM46 446a1 1 0 0 1-2 0v-1a1 1 0 0 0-1-1H5a1 1 0 0 0-1 1v15a1 1 0 0 1-2 0v-15a3 3 0 0 1 3-3h38a3 3 0 0 1 3 3zM2 466a1 1 0 0 1 2 0v1a1 1 0 0 0 1 1h38a1 1 0 0 0 1-1v-18a1 1 0 0 1 2 0v18a3 3 0 0 1-3 3H5a3 3 0 0 1-3-3zm1-4a1 1 0 1 1 0 2 1 1 0 0 1 0-2zm22-11a1 1 0 0 1 0-2h15a1 1 0 0 1 0 2zm5 6a1 1 0 0 1 0-2h10a1 1 0 0 1 0 2zm-5 0a1 1 0 0 1 0-2h2a1 1 0 0 1 0 2zm0 6a1 1 0 0 1 0-2h15a1 1 0 0 1 0 2z" transform="translate(0 -432)" opacity="1" data-original="url(#a)"></path></g></svg>