<svg xmlns="http://www.w3.org/2000/svg" version="1.1" xmlns:xlink="http://www.w3.org/1999/xlink" width="512" height="512" x="0" y="0" viewBox="0 0 512 512" style="enable-background:new 0 0 512 512" xml:space="preserve" class=""><rect width="512" height="512" rx="102.4" ry="102.4" fill="#bac8d3" shape="rounded"></rect><g transform="matrix(0.58,0,0,0.58,97.51977569580077,107.5201986694336)"><linearGradient id="a" x1="115.278" x2="456.107" y1="462.02" y2="121.19" gradientUnits="userSpaceOnUse"><stop offset="0" stop-color="#4264da"></stop><stop offset="1" stop-color="#def3ff"></stop></linearGradient><path fill="url(#a)" d="M484.573 460.262h-106.58c67.948-42.686 113.236-118.243 113.236-204.217 0-132.976-108.184-241.16-241.16-241.16-132.928 0-241.071 108.184-241.071 241.16 0 132.928 108.143 241.071 241.071 241.071H484.572c10.162 0 18.429-8.267 18.429-18.429.001-10.158-8.266-18.425-18.428-18.425zM18.699 256.044c0-127.626 103.792-231.459 231.371-231.459 127.626 0 231.459 103.833 231.459 231.459 0 127.579-103.833 231.371-231.459 231.371-127.579 0-231.371-103.792-231.371-231.371zm465.874 231.371H317.642a239.567 239.567 0 0 0 43.412-17.453h123.519c4.895 0 8.728 3.833 8.728 8.725 0 4.895-3.833 8.728-8.728 8.728zm-20.497-231.377c0-117.999-95.999-213.999-214-213.999-117.957 0-213.924 96-213.924 213.999 0 117.957 95.967 213.924 213.924 213.924 118.002 0 214-95.967 214-213.924zm-418.224 0c0-112.651 91.616-204.298 204.224-204.298 112.652 0 204.3 91.647 204.3 204.298 0 112.608-91.647 204.224-204.3 204.224-112.608 0-204.224-91.616-204.224-204.224zm204.218-90.627c24.33 0 44.126-19.756 44.126-44.039 0-24.332-19.796-44.126-44.126-44.126-24.283 0-44.038 19.794-44.038 44.126 0 24.282 19.755 44.039 44.038 44.039zm0-9.701c-11.493 0-21.659-5.696-27.895-14.391 18.323-4.445 37.733-4.429 55.824.049-6.255 8.667-16.43 14.342-27.929 14.342zm-34.196-37.139c21.844-5.489 45.752-5.676 68.48.004a33.988 33.988 0 0 1-1.763 13.889c-21.538-5.784-44.176-5.539-64.989-.065a34.325 34.325 0 0 1-1.728-13.828zm34.196-31.625c14.273 0 26.542 8.735 31.753 21.138-20.865-4.462-42.7-4.458-63.42-.011 5.199-12.398 17.433-21.127 31.667-21.127zm39.668 284.568c-7.158-14.725-22.225-24.925-39.668-24.925-26.12 0-46.024 22.706-43.851 47.821 1.887 22.557 20.815 40.347 43.851 40.347 33.654 0 53.962-36.293 39.668-63.243zm-72.127 8.086c21.179 5.577 43.896 5.551 65.005 0a34.633 34.633 0 0 1 1.741 13.823c-22.393 5.59-46.284 5.584-68.488.003a34.609 34.609 0 0 1 1.742-13.826zm32.459-23.31c11.51 0 21.693 5.699 27.947 14.402-18.215 4.413-37.544 4.429-55.819-.004 6.238-8.701 16.393-14.398 27.872-14.398zm0 68.766c-14.254 0-26.501-8.736-31.687-21.131 10.36 2.234 20.978 3.41 31.694 3.41 10.705 0 21.348-1.178 31.766-3.419-5.198 12.4-17.48 21.14-31.773 21.14zM84.273 224.843c-8.333 8.336-12.925 19.417-12.921 31.202.01 39.423 47.935 58.456 75.271 31.12 8.33-8.327 12.915-19.382 12.912-31.126-.011-39.153-47.585-58.874-75.262-31.196zm42.219-1.361c-2.82 10.515-4.247 21.473-4.247 32.635 0 11.052 1.404 21.944 4.18 32.447-4.775 1.606-9.623 2.037-13.824 1.647a139.94 139.94 0 0 1-4.2-34.094c0-11.712 1.437-23.257 4.272-34.359 4.322-.362 9.174.136 13.819 1.724zm-45.44 32.562c0-9.195 3.578-17.838 10.08-24.34a34.393 34.393 0 0 1 11.023-7.416 149.07 149.07 0 0 0-3.454 31.828c0 10.653 1.17 21.224 3.394 31.554-12.351-5.219-21.039-17.43-21.043-31.626zm54.286 27.965c-2.213-9.055-3.393-18.398-3.393-27.892 0-9.593 1.202-18.993 3.454-28.065 8.718 6.249 14.431 16.452 14.435 27.986 0 10.794-4.995 21.193-14.496 27.971zm280.687 3.126c8.327-8.327 12.912-19.382 12.909-31.126-.003-11.782-4.588-22.859-12.918-31.195-27.655-27.686-75.272-7.919-75.262 31.205.005 38.878 47.562 58.825 75.271 31.116zm-28.517-65.414c2.813 11.079 4.24 22.634 4.24 34.395 0 11.547-1.413 23.004-4.203 34.104-4.92.375-9.537-.28-13.831-1.763a126.221 126.221 0 0 0 4.191-32.34c0-11.156-1.428-22.106-4.245-32.622 4.757-1.636 9.057-2.136 13.848-1.774zm31.725 34.288c0 14.551-9.031 26.682-21.196 31.735 2.235-10.354 3.412-20.95 3.412-31.628 0-10.867-1.184-21.561-3.44-31.926 12.31 5.107 21.224 17.325 21.224 31.819zm-54.463-27.895a116.442 116.442 0 0 1 3.434 28.003c0 9.404-1.18 18.697-3.391 27.736-19.006-13.668-19.268-41.83-.043-55.739zm-114.694 80.162c28.846 0 52.311-23.437 52.311-52.242 0-28.846-23.465-52.311-52.311-52.311s-52.311 23.465-52.311 52.311c0 28.806 23.465 52.242 52.311 52.242zm0-94.852c23.497 0 42.611 19.114 42.611 42.611 0 23.456-19.114 42.541-42.611 42.541s-42.611-19.085-42.611-42.541c.001-23.497 19.114-42.611 42.611-42.611zm0 75.038c17.911 0 32.481-14.554 32.481-32.443 0-17.911-14.57-32.481-32.481-32.481s-32.484 14.57-32.484 32.481c0 17.889 14.573 32.443 32.484 32.443zm0-55.223c12.561 0 22.78 10.218 22.78 22.78 0 12.539-10.218 22.742-22.78 22.742s-22.783-10.203-22.783-22.742c0-12.562 10.222-22.78 22.783-22.78z" opacity="1" data-original="url(#a)"></path></g></svg>