<svg xmlns="http://www.w3.org/2000/svg" version="1.1" xmlns:xlink="http://www.w3.org/1999/xlink" width="512" height="512" x="0" y="0" viewBox="0 0 24 24" style="enable-background:new 0 0 512 512" xml:space="preserve" fill-rule="evenodd"><rect width="24" height="24" rx="4.8" ry="4.8" fill="#bac8d3" shape="rounded"></rect><g transform="matrix(0.7,0,0,0.7,3.5999977111816417,3.5989505767822276)"><linearGradient id="a" x1="0" x2="1" y1="0" y2="0" gradientTransform="matrix(24 23.998 -24 23.998 102 44)" gradientUnits="userSpaceOnUse"><stop offset="0" stop-color="#ffa800"></stop><stop offset="1" stop-color="red"></stop></linearGradient><path fill="url(#a)" d="M108.965 61.903a3.256 3.256 0 0 1-2.465-3.159v-9.988a3.256 3.256 0 0 1 3.256-3.256h8.488a3.256 3.256 0 0 1 3.256 3.256v9.988a3.256 3.256 0 0 1-2.465 3.159l2.353 3.807-1.276.789-.926-1.499h-10.372l-.926 1.499-1.276-.789zm8.367.097h-6.664l-.927 1.5h8.518zm.912-15h-8.488c-.97 0-1.756.786-1.756 1.756v9.988c0 .97.786 1.756 1.756 1.756h8.488c.97 0 1.756-.786 1.756-1.756v-9.988c0-.97-.786-1.756-1.756-1.756zm-.869 9.75a1.125 1.125 0 1 1 0 2.25 1.125 1.125 0 0 1 0-2.25zm.717-1.5h-8.184s-.445.034-.819-.339c-.373-.374-.339-.819-.339-.819v-5.184s-.014-.465.339-.819c.354-.353.819-.339.819-.339h8.184s.465-.014.819.339c.353.354.339.819.339.819v5.184s.034.446-.339.819c-.374.373-.819.339-.819.339zm-.342-6h-7.5v4.5h7.5zm-7.125 7.5a1.125 1.125 0 1 1 0 2.25 1.125 1.125 0 0 1 0-2.25z" transform="translate(-102 -44.003)" opacity="1" data-original="url(#a)"></path></g></svg>