<svg xmlns="http://www.w3.org/2000/svg" version="1.1" xmlns:xlink="http://www.w3.org/1999/xlink" width="512" height="512" x="0" y="0" viewBox="0 0 512 512" style="enable-background:new 0 0 512 512" xml:space="preserve" class=""><rect width="512" height="512" rx="102.4" ry="102.4" fill="#bac8d3" shape="rounded"></rect><g transform="matrix(-0.6199999999999999,-7.592810154713588e-17,7.592810154713588e-17,-0.6199999999999999,414.7200988769531,419.7195457839965)"><linearGradient id="a" x1="85.414" x2="426.556" y1="492.203" y2="151.06" gradientUnits="userSpaceOnUse"><stop offset=".009" stop-color="#cc5b71"></stop><stop offset="1" stop-color="#1493f2"></stop></linearGradient><path fill="url(#a)" d="m168.016 242.526 87.946-87.935 87.935 87.935c23.939 23.916 62.827 24.358 87.074-.012 24.01-24.01 24.02-63.044-.012-87.051L299.464 23.968C275.4.043 236.35.043 212.425 23.991L81.069 155.463c-24.489 24.489-23.635 63.714-.023 87.039 23.943 24.088 62.866 24.128 86.97.024zm-70.113-70.229L229.258 40.825c14.683-14.671 38.643-14.66 53.396 0l131.472 131.472c14.72 14.72 14.723 38.673 0 53.396-.012.012-.023.012-.023.023-14.727 14.799-38.506 14.819-53.372-.023l-96.421-96.421c-2.22-2.22-5.255-3.371-8.359-3.371-3.576 0-6.676 1.501-8.928 3.941l-95.84 95.852c-14.563 14.563-38.341 15.011-53.337-.058-14.51-14.32-14.895-38.388.057-53.339zM81.046 487.833c23.645 23.812 62.576 24.417 86.97.023l87.946-87.935 87.935 87.935c24.21 24.21 63.127 24.104 87.074-.012 24.011-24.011 24.022-63.018-.012-87.051L299.464 269.299c-24.065-23.925-63.114-23.925-87.039.023L81.069 400.794c-24.489 24.489-23.635 63.714-.023 87.039zm16.857-70.205 131.355-131.472c14.683-14.671 38.643-14.648 53.396 0l131.472 131.472c14.692 14.692 14.752 38.643 0 53.396l-.035.035c-14.695 14.792-38.495 14.831-53.361-.035l-96.421-96.421c-2.22-2.22-5.255-3.371-8.359-3.371-3.576 0-6.676 1.501-8.928 3.941l-95.84 95.852c-14.71 14.71-38.484 14.892-53.337-.058-14.509-14.32-14.894-38.388.058-53.339z" opacity="1" data-original="url(#a)"></path></g></svg>