<svg xmlns="http://www.w3.org/2000/svg" version="1.1" xmlns:xlink="http://www.w3.org/1999/xlink" width="512" height="512" x="0" y="0" viewBox="0 0 450 450" style="enable-background:new 0 0 512 512" xml:space="preserve" class=""><rect width="450" height="450" rx="90" ry="90" fill="#bac8d3" shape="rounded"></rect><g transform="matrix(0.57,0,0,0.57,91.86179517745973,92.0682122039795)"><linearGradient id="a" x1="50.291" x2="425.799" y1="394.338" y2="18.829" gradientTransform="matrix(1 0 0 -1 0 452)" gradientUnits="userSpaceOnUse"><stop offset="0" stop-color="#00dbde"></stop><stop offset="1" stop-color="#fc00ff"></stop></linearGradient><path fill="url(#a)" d="M425.99 359.59c-2.76 0-5-2.24-5-5v-66.48c0-52.51-45.67-95.22-101.79-95.22h-62.53c-2.76 0-5-2.24-5-5s2.24-5 5-5h62.53c61.64 0 111.79 47.2 111.79 105.22v66.48c0 2.77-2.24 5-5 5zm-319.07-166.7H15.74c-2.76 0-5-2.24-5-5s2.24-5 5-5h91.18c2.76 0 5 2.24 5 5s-2.23 5-5 5zm240.93 166.7c-2.76 0-5-2.24-5-5v-43.63c0-14.84-12.07-26.91-26.91-26.91h-59.27c-2.76 0-5-2.24-5-5s2.24-5 5-5h59.27c20.35 0 36.91 16.56 36.91 36.91v43.63c0 2.77-2.24 5-5 5zm-240.93-75.54H15.74c-2.76 0-5-2.24-5-5s2.24-5 5-5h91.18c2.76 0 5 2.24 5 5s-2.23 5-5 5zm327.86 75.54h-95.72c-2.76 0-5-2.24-5-5s2.24-5 5-5h95.72c2.76 0 5 2.24 5 5s-2.24 5-5 5zM224.91 168.32h-86.23c-9.9 0-17.95-8.05-17.95-17.95s8.05-17.95 17.95-17.95h86.23c9.9 0 17.95 8.05 17.95 17.95s-8.05 17.95-17.95 17.95zm-86.23-25.9c-4.38 0-7.95 3.57-7.95 7.95s3.57 7.95 7.95 7.95h86.23c4.38 0 7.95-3.57 7.95-7.95s-3.57-7.95-7.95-7.95zm76.79 0c-2.28 0-4.34-1.57-4.87-3.89l-16.27-71.24c-.62-2.69 1.07-5.37 3.76-5.99a5.01 5.01 0 0 1 5.99 3.76l16.27 71.24c.62 2.69-1.07 5.37-3.76 5.99-.38.09-.75.13-1.12.13zm-67.35 0c-.37 0-.74-.04-1.12-.13-2.69-.62-4.38-3.3-3.76-5.99l16.27-71.24c.62-2.69 3.3-4.38 5.99-3.76 2.69.61 4.38 3.3 3.76 5.99l-16.27 71.24a5.002 5.002 0 0 1-4.87 3.89zm116.76-79.57h-57.42c-2.76 0-5-2.24-5-5s2.24-5 5-5h57.42c6.73 0 12.21-5.48 12.21-12.21s-5.48-12.21-12.21-12.21h-57.42c-2.76 0-5-2.24-5-5s2.24-5 5-5h57.42c12.25 0 22.21 9.96 22.21 22.21s-9.96 22.21-22.21 22.21zm-108.75 0H98.71c-12.25 0-22.21-9.96-22.21-22.21s9.96-22.21 22.21-22.21h57.42c2.76 0 5 2.24 5 5s-2.24 5-5 5H98.71c-6.73 0-12.21 5.48-12.21 12.21s5.48 12.21 12.21 12.21h57.42c2.76 0 5 2.24 5 5s-2.24 5-5 5zm25.66 13.69c-19.8 0-35.9-16.11-35.9-35.9s16.1-35.9 35.9-35.9 35.9 16.1 35.9 35.9-16.1 35.9-35.9 35.9zm0-61.8c-14.28 0-25.9 11.62-25.9 25.9s11.62 25.9 25.9 25.9 25.9-11.62 25.9-25.9c.01-14.28-11.61-25.9-25.9-25.9zm63.15 305.94h-126.3c-9.22 0-16.72-7.5-16.72-16.72V175.03c0-9.22 7.5-16.72 16.72-16.72h126.3c9.22 0 16.72 7.5 16.72 16.72v128.94c.01 9.21-7.5 16.71-16.72 16.71zM118.65 168.31c-3.71 0-6.72 3.01-6.72 6.72v128.94c0 3.71 3.01 6.72 6.72 6.72h126.3c3.71 0 6.72-3.02 6.72-6.72V175.03c0-3.71-3.02-6.72-6.72-6.72zm5.65 43.02c-2.76 0-5-2.24-5-5V192.7c0-8.99 7.31-16.31 16.31-16.31H152c2.76 0 5 2.24 5 5s-2.24 5-5 5h-16.4c-3.48 0-6.31 2.83-6.31 6.3v13.63a4.99 4.99 0 0 1-4.99 5.01zm287.84 224.13c-15.16 0-27.49-12.33-27.49-27.49 0-10.81 10.49-24.79 18.92-36.03 1.77-2.36 3.44-4.58 4.7-6.39.94-1.34 2.47-2.14 4.1-2.14s3.16.8 4.1 2.14c1.17 1.68 2.68 3.68 4.43 5.99 7.9 10.46 18.73 24.8 18.73 36.43 0 15.16-12.33 27.49-27.49 27.49zm.25-58.61c-.27.36-.54.72-.82 1.09-6.74 8.98-16.92 22.55-16.92 30.02 0 9.64 7.85 17.49 17.49 17.49s17.49-7.85 17.49-17.49c0-8.28-10.05-21.6-16.7-30.4-.18-.23-.36-.47-.54-.71zm-55.54 69.89c-11.52 0-20.9-9.38-20.9-20.9 0-8.13 7.58-18.23 13.67-26.35 1.24-1.66 2.42-3.22 3.3-4.48a5.013 5.013 0 0 1 4.1-2.14c1.63 0 3.16.8 4.1 2.14.82 1.17 1.88 2.57 3.1 4.19 5.71 7.56 13.54 17.92 13.54 26.64 0 11.52-9.38 20.9-20.91 20.9zm.18-40.47c-4.4 5.88-11.08 14.98-11.08 19.56 0 6.01 4.89 10.9 10.9 10.9s10.9-4.89 10.9-10.9c.01-5.04-6.37-13.79-10.72-19.56z" opacity="1" data-original="url(#a)"></path></g></svg>