<svg xmlns="http://www.w3.org/2000/svg" version="1.1" xmlns:xlink="http://www.w3.org/1999/xlink" width="512" height="512" x="0" y="0" viewBox="0 0 512 512" style="enable-background:new 0 0 512 512" xml:space="preserve"><rect width="512" height="512" rx="102.4" ry="102.4" fill="#bac8d3" shape="rounded"></rect><g transform="matrix(0.6299999999999999,0,0,0.6299999999999999,94.71999982357028,94.7201919555664)"><linearGradient id="a" x1="81.663" x2="421.06" y1="455.612" y2="116.216" gradientUnits="userSpaceOnUse"><stop offset="0" stop-color="#545aff"></stop><stop offset="1" stop-color="#03bdff"></stop></linearGradient><path fill="url(#a)" d="M179.3 339.669a8.03 8.03 0 0 1-8.03 8.03h-6.299a8.03 8.03 0 1 1 0-16.06h6.299a8.031 8.031 0 0 1 8.03 8.03zm202.971-8.029h-6.299a8.03 8.03 0 1 0 0 16.06h6.299a8.03 8.03 0 1 0 0-16.06zM506 376.623a8.03 8.03 0 0 1-8.03 8.03H14.03a8.03 8.03 0 1 1 0-16.06h119.674a44.827 44.827 0 0 1-9.836-20.894H74.406c-17.535 0-31.8-14.265-31.8-31.799V159.147c0-17.534 14.265-31.799 31.8-31.799h331.549c34.98 0 63.438 28.458 63.438 63.438V315.9c0 17.534-14.265 31.799-31.8 31.799h-14.221a44.827 44.827 0 0 1-9.836 20.894h84.433a8.03 8.03 0 0 1 8.031 8.03zm-303.465-8.03h142.17a44.827 44.827 0 0 1-9.836-20.894H212.371a44.817 44.817 0 0 1-9.836 20.894zm176.587 0c15.948 0 28.923-12.975 28.923-28.924 0-15.948-12.975-28.924-28.923-28.924s-28.924 12.975-28.924 28.924 12.975 28.924 28.924 28.924zm-.26-147.803h74.471v-30.005c0-26.124-21.254-47.378-47.378-47.378h-27.093zm-81.202 0h65.143v-77.383H297.66zm-81.203 0H281.6v-77.384h-65.143zm-81.203 0h65.143v-77.384h-65.143zm-76.588 0h60.528v-77.384H74.406c-8.679 0-15.74 7.061-15.74 15.74zm15.74 110.85h49.462c3.799-20.984 22.189-36.954 44.252-36.954 22.062 0 40.452 15.97 44.251 36.954H334.87c3.799-20.984 22.189-36.954 44.252-36.954 22.062 0 40.452 15.97 44.251 36.954h14.221c8.679 0 15.74-7.061 15.74-15.74v-79.05H58.667v79.05c-.001 8.679 7.06 15.74 15.739 15.74zm93.714 36.953c15.948 0 28.923-12.975 28.923-28.924 0-15.948-12.975-28.924-28.923-28.924s-28.924 12.975-28.924 28.924 12.976 28.924 28.924 28.924z" opacity="1" data-original="url(#a)"></path></g></svg>