<svg xmlns="http://www.w3.org/2000/svg" version="1.1" xmlns:xlink="http://www.w3.org/1999/xlink" width="512" height="512" x="0" y="0" viewBox="0 0 3872.98 3872.98" style="enable-background:new 0 0 512 512" xml:space="preserve"><rect width="3872.98" height="3872.98" rx="774.596" ry="774.596" fill="#bac8d3" shape="rounded"></rect><g transform="matrix(0.6,0,0,0.6,775.4019775390625,726.9570556640624)"><linearGradient id="a" x1="319.391" x2="3356.824" y1="2538.156" y2="-499.277" gradientTransform="matrix(1 0 0 -1 0 3382.983)" gradientUnits="userSpaceOnUse"><stop offset="0" stop-color="#d33230"></stop><stop offset="1" stop-color="#fd8f04"></stop></linearGradient><path fill="url(#a)" fill-rule="evenodd" d="M2635.44 1500.94H469.01c-21.96 0-39.75 17.79-39.75 39.75v1846.36c0 21.96 17.79 39.75 39.75 39.75h2166.43c21.96 0 39.75-17.79 39.75-39.75V1540.69c0-21.96-17.79-39.75-39.75-39.75zm-39.75 1846.36H508.76V1580.44h2086.92V3347.3zm1079.24-1920.12c0-84.54-68.72-153.34-153.34-153.34H1621.06l567.8-983.52c10.94-18.97 4.49-43.3-14.56-54.24-18.97-11.02-43.37-4.49-54.32 14.48l-567.8 983.52-567.8-983.52c-10.94-18.97-35.34-25.51-54.32-14.48-18.97 10.94-25.51 35.27-14.56 54.24l567.8 983.52H355.42c-84.54 0-153.34 68.72-153.34 153.34v2073.54c0 84.54 68.8 153.35 153.34 153.35h3166.16c84.54 0 153.34-68.72 153.34-153.35V1427.18zm-79.51 2073.46c0 40.7-33.06 73.76-73.76 73.76H355.42c-40.7 0-73.76-33.06-73.76-73.76V1427.1c0-40.7 33.06-73.76 73.84-73.76h3166.16c40.7 0 73.84 33.14 73.84 73.76zm-249.3-485.85H2924.5c-21.96 0-39.75 17.79-39.75 39.75v180.66c0 21.96 17.79 39.75 39.75 39.75h421.62c21.96 0 39.75-17.79 39.75-39.75v-180.66c0-21.96-17.79-39.75-39.75-39.75zm-39.76 180.66h-342.03V3094.3h342.03zm-171.05-1542.66c-170.82 0-309.92 139.02-309.92 309.92s139.02 310 309.92 310 310-139.02 310-310c-.01-170.83-139.03-309.92-310-309.92zm0 540.33c-127.05 0-230.33-103.36-230.33-230.41s103.36-230.33 230.33-230.33c127.05 0 230.41 103.36 230.41 230.33 0 127.13-103.36 230.41-230.41 230.41zm0-366.99c-75.33 0-136.58 61.32-136.58 136.58 0 75.33 61.24 136.58 136.58 136.58 75.33 0 136.58-61.24 136.58-136.58-.01-75.26-61.25-136.58-136.58-136.58zm0 193.65c-31.41 0-56.99-25.58-56.99-57.07 0-31.41 25.58-56.99 56.99-56.99 31.49 0 56.99 25.58 56.99 56.99 0 31.48-25.51 57.07-56.99 57.07zm210.81 493.8H2924.5c-21.96 0-39.75 17.79-39.75 39.75v180.74c0 21.96 17.79 39.75 39.75 39.75h421.62c21.96 0 39.75-17.79 39.75-39.75v-180.74c0-21.88-17.79-39.75-39.75-39.75zm-39.76 180.74h-342.03v-101.23h342.03z" clip-rule="evenodd" opacity="1" data-original="url(#a)"></path></g></svg>