<svg xmlns="http://www.w3.org/2000/svg" version="1.1" xmlns:xlink="http://www.w3.org/1999/xlink" width="512" height="512" x="0" y="0" viewBox="0 0 512 512" style="enable-background:new 0 0 512 512" xml:space="preserve"><rect width="512" height="512" rx="102.4" ry="102.4" fill="#bac8d3" shape="rounded"></rect><g transform="matrix(0.6599999999999998,0,0,0.6599999999999998,87.04045735359196,87.03951362609868)"><linearGradient id="a" x1="98.45" x2="393.356" y1="426.568" y2="131.662" gradientUnits="userSpaceOnUse"><stop offset="0" stop-color="#ff506a"></stop><stop offset="1" stop-color="#ffe28f"></stop></linearGradient><path fill="url(#a)" d="M465.004 304.277H270.827c21.41-11.155 41.907-26.702 61.429-46.663a4.902 4.902 0 0 0 1.301-4.382l-22.178-111.596.258-.185 24.105.75a19.358 19.358 0 0 1 18.168 15.594l.849 4.272c-8.892 3.828-14.246 13.473-12.282 23.348a20.823 20.823 0 0 0 5.597 10.588c-7.794 15.538-3.173 36.036-3.148 36.529.563 2.659 3.173 4.319 5.75 3.789l45.86-9.117c2.574-.512 4.219-3.382 3.813-5.975-.371-1.151-3.388-21.333-17.569-32.959 1.242-3.515 1.598-7.29.851-11.04-1.887-9.5-9.961-16.139-19.202-16.756l-.913-4.593c-2.626-13.217-13.867-22.87-27.4-23.473l-11.296-.352 35.534-25.322a4.896 4.896 0 0 0 1.961-4.946 4.895 4.895 0 0 0-3.702-3.817L169.9 54.404a4.92 4.92 0 0 0-3.946.785L8.239 167.606c-1.569 1.119-2.337 3.057-1.961 4.946s1.825 3.382 3.705 3.817l58.601 13.521 22.181 111.602a4.904 4.904 0 0 0 2.88 3.549c34.687 14.83 71.095 23.017 108.651 19.58 9.946 17.199 7.426 34.157-7.598 51.475h-48.219c-22.504 0-40.811 18.307-40.811 40.813 0 22.502 18.307 40.808 40.811 40.808h268.06a4.901 4.901 0 0 0 4.482-2.918 4.892 4.892 0 0 0-.861-5.276c-19.498-21.412-19.918-42.247-1.37-63.631h48.216c22.507 0 40.813-18.307 40.813-40.808s-18.309-40.807-40.815-40.807zm-75.293-85.702-36.044 7.166c-1.259-9.479-.132-18.295 2.698-24.556 7.641 2.588 15.559.569 21.051-4.618 6.202 5.56 10.153 13.96 12.295 22.008zm-15.685-39.431c1.205 6.046-2.741 11.949-8.792 13.155-6.023 1.195-11.935-2.693-13.15-8.797-1.37-6.899 3.927-13.365 10.973-13.365 5.224 0 9.912 3.693 10.969 9.007zM169.845 64.445l175.962 40.627-37.164 26.483-78.988-2.457c1.347-3.23 1.649-6.576.658-9.767-3.67-11.833-20.233-13.227-32.514-9.414-12.397 3.85-25.106 14.416-21.452 26.18 3.705 11.928 20.386 13.177 32.514 9.414 5.148-1.6 9.612-3.999 13.17-6.845l73.429 2.283-96.714 68.92-175.961-40.598zm36.109 71.71c-6.364 1.972-18.568 2.469-20.249-2.966-1.668-5.357 8.178-11.793 15.004-13.915 6.586-2.047 18.586-2.411 20.249 2.966 1.238 3.984-4.916 10.781-15.004 13.915zm-7.259 83.754a4.903 4.903 0 0 0 3.944-.785l99.992-71.255 12.589 63.336c-64.274 64.559-139.38 79.594-223.581 44.436l-12.587-63.336zm-98.828 77.125-5.936-29.868c84.283 33.089 159.64 17.155 223.578-44.434l5.936 29.864c-64.286 64.587-139.481 79.54-223.578 44.438zm148.805 17.039h177.446v26.113H217.775c-.62-5.624-2.308-11.238-5.051-16.817 12.234-1.839 24.216-4.951 35.948-9.296zm-30.879 35.91h208.326v26.113H207.203c6.115-8.612 9.634-17.353 10.59-26.113zm-71.315 97.938c-17.101 0-31.014-13.911-31.014-31.012s13.913-31.016 31.014-31.016h29.091v62.028zm257.804 0H185.366v-26.113h208.332c.961 8.759 4.467 17.499 10.584 26.113zm-10.585-35.91H185.366v-26.118h218.916c-6.118 8.615-9.624 17.357-10.585 26.118zm71.307-35.914h-29.089v-62.023h29.089c17.101 0 31.016 13.91 31.016 31.012s-13.915 31.011-31.016 31.011z" opacity="1" data-original="url(#a)"></path></g></svg>