<svg xmlns="http://www.w3.org/2000/svg" version="1.1" xmlns:xlink="http://www.w3.org/1999/xlink" width="512" height="512" x="0" y="0" viewBox="0 0 64 64" style="enable-background:new 0 0 512 512" xml:space="preserve"><rect width="64" height="64" rx="12.8" ry="12.8" fill="#bac8d3" shape="rounded"></rect><g transform="matrix(0.7,0,0,0.7,9.600271224975586,9.600000000000001)"><linearGradient id="a" x1="14.914" x2="49.088" y1="32" y2="32" gradientUnits="userSpaceOnUse"><stop offset="0" stop-color="#c0392b"></stop><stop offset="1" stop-color="#8e44ad"></stop></linearGradient><path fill="url(#a)" d="M21.66 60h20.68a1 1 0 0 0 1-1v-4.864a7.008 7.008 0 0 0 5.745-6.881v-7.786c-.02-4.22.014-12.791 0-16.98a7.006 7.006 0 0 0-6.894-6.994V6h3.596a1 1 0 0 0 0-2H18.213a1 1 0 0 0 0 2h3.596v9.495a7.006 7.006 0 0 0-6.894 6.994c-.005 4.179.003 12.773 0 16.98v7.786a7.007 7.007 0 0 0 5.745 6.88V59a1 1 0 0 0 1 1zm1-2v-3.745h18.68V58zm-5.745-26.725h30.17v7.194h-30.17zM40.191 6v9.49H33v-3.745h3.596a1 1 0 0 0 0-2h-9.192a1 1 0 0 0 0 2H31v3.744h-7.191V6zM21.915 17.49h20.17a5.006 5.006 0 0 1 5 5v6.785h-30.17V22.49a5.006 5.006 0 0 1 5-5zm-5 29.765v-6.786h30.17v6.786a5.006 5.006 0 0 1-5 5h-20.17a5.006 5.006 0 0 1-5-5z" opacity="1" data-original="url(#a)"></path></g></svg>