<svg xmlns="http://www.w3.org/2000/svg" version="1.1" xmlns:xlink="http://www.w3.org/1999/xlink" width="512" height="512" x="0" y="0" viewBox="0 0 48 48" style="enable-background:new 0 0 512 512" xml:space="preserve" fill-rule="evenodd" class=""><rect width="48" height="48" rx="9.6" ry="9.6" fill="#bac8d3" shape="rounded"></rect><g transform="matrix(0.65,0,0,0.65,8.400000000000002,8.4003231048584)"><linearGradient id="a" x1="0" x2="1" y1="0" y2="0" gradientTransform="matrix(48 48 -48 48 648 156)" gradientUnits="userSpaceOnUse"><stop offset="0" stop-color="#79c5d4"></stop><stop offset="1" stop-color="#276dd7"></stop></linearGradient><path fill="url(#a)" d="M657 188h-4.5a2.5 2.5 0 0 1-2.5-2.5v-1a2.5 2.5 0 0 1 2.5-2.5h3.529l-4.176-1.119a2.5 2.5 0 0 1-1.767-3.062l.258-.966a2.5 2.5 0 0 1 3.062-1.767l.853.228a1 1 0 0 1-.518 1.932l-.852-.229a.504.504 0 0 0-.613.354l-.259.966a.502.502 0 0 0 .354.612l11.258 3.017a.99.99 0 0 0 .259.034H687a1 1 0 0 1 0 2h-34.5a.504.504 0 0 0-.354.146.504.504 0 0 0-.146.354v1c0 .133.053.26.146.354a.504.504 0 0 0 .354.146h39c.133 0 .26-.053.354-.146a.504.504 0 0 0 .146-.354V184h-1a1 1 0 0 1 0-2h1v-1.5a.504.504 0 0 0-.146-.354.504.504 0 0 0-.354-.146h-27.085c-.262 0-.523-.034-.777-.102l-3.897-1.044a1 1 0 0 1 .518-1.932l3.897 1.044a.98.98 0 0 0 .259.034H691.5a2.5 2.5 0 0 1 2.5 2.5v5a2.5 2.5 0 0 1-2.5 2.5H687v6.171a3.001 3.001 0 1 1-4 2.829c0-1.305.835-2.417 2-2.829V192h-26v2.171a3.001 3.001 0 1 1-4 2.829c0-1.305.835-2.417 2-2.829zm28 0h-26v2h26zm1 8a1 1 0 1 0 0 2 1 1 0 0 0 0-2zm-28 0a1 1 0 1 0 0 2 1 1 0 0 0 0-2zm11-31v-2.5a2.5 2.5 0 0 1 2.5-2.5h1a2.5 2.5 0 0 1 2.5 2.5v2.5h2.5a2.5 2.5 0 0 1 2.5 2.5v1a2.5 2.5 0 0 1-2.5 2.5H675v2.5a2.5 2.5 0 0 1-2.5 2.5h-1a2.5 2.5 0 0 1-2.5-2.5V171h-2.5a2.5 2.5 0 0 1-2.5-2.5v-1a2.5 2.5 0 0 1 2.5-2.5zm0 2h-2.5a.504.504 0 0 0-.354.146.504.504 0 0 0-.146.354v1c0 .133.053.26.146.354a.504.504 0 0 0 .354.146h2.5a2 2 0 0 1 2 2v2.5c0 .133.053.26.146.354a.504.504 0 0 0 .354.146h1c.133 0 .26-.053.354-.146a.504.504 0 0 0 .146-.354V171a2 2 0 0 1 2-2h2.5c.133 0 .26-.053.354-.146a.504.504 0 0 0 .146-.354v-1a.504.504 0 0 0-.146-.354.504.504 0 0 0-.354-.146H675a2 2 0 0 1-2-2v-2.5a.504.504 0 0 0-.146-.354.504.504 0 0 0-.354-.146h-1a.504.504 0 0 0-.354.146.504.504 0 0 0-.146.354v2.5a2 2 0 0 1-2 2zm-11.999 9.092a1 1 0 1 1 0 2 1 1 0 0 1 0-2z" transform="translate(-648 -156)" opacity="1" data-original="url(#a)"></path></g></svg>