<svg xmlns="http://www.w3.org/2000/svg" version="1.1" xmlns:xlink="http://www.w3.org/1999/xlink" width="512" height="512" x="0" y="0" viewBox="0 0 450 450" style="enable-background:new 0 0 512 512" xml:space="preserve"><rect width="450" height="450" rx="90" ry="90" fill="#bac8d3" shape="rounded"></rect><g transform="matrix(0.58,0,0,0.58,94.49999719619751,84.49790756225585)"><linearGradient id="a" x1="43.13" x2="406.87" y1="358.41" y2="-5.33" gradientTransform="matrix(1 0 0 -1 0 452)" gradientUnits="userSpaceOnUse"><stop offset="0" stop-color="#009fff"></stop><stop offset="1" stop-color="#ec2f4b"></stop></linearGradient><path fill="url(#a)" d="M104.75 302.18H64.11c-2.76 0-5 2.24-5 5v43.84c0 2.76 2.24 5 5 5h40.64c2.76 0 5-2.24 5-5v-43.84c0-2.76-2.24-5-5-5zm-5 43.84H69.11v-33.84h30.64zm5-123.55H64.11c-2.76 0-5 2.24-5 5v43.83c0 2.76 2.24 5 5 5h40.64c2.76 0 5-2.24 5-5v-43.83c0-2.76-2.24-5-5-5zm-5 43.83H69.11v-33.83h30.64zm5-123.55H64.11c-2.76 0-5 2.24-5 5v43.83c0 2.76 2.24 5 5 5h40.64c2.76 0 5-2.24 5-5v-43.83c0-2.76-2.24-5-5-5zm-5 43.84H69.11v-33.83h30.64zm245.5 169.43h40.64c2.76 0 5-2.24 5-5v-43.84c0-2.76-2.24-5-5-5h-40.64c-2.76 0-5 2.24-5 5v43.84c0 2.76 2.24 5 5 5zm5-43.84h30.64v33.84h-30.64zm-5-35.88h40.64c2.76 0 5-2.24 5-5v-43.83c0-2.76-2.24-5-5-5h-40.64c-2.76 0-5 2.24-5 5v43.83c0 2.76 2.24 5 5 5zm5-43.83h30.64v33.83h-30.64zm-5-35.88h40.64c2.76 0 5-2.24 5-5v-43.83c0-2.76-2.24-5-5-5h-40.64c-2.76 0-5 2.24-5 5v43.83c0 2.76 2.24 5 5 5zm5-43.84h30.64v33.83h-30.64zm-171.03 63.66h91.57c2.76 0 5-2.24 5-5v-35.32c0-2.76-2.24-5-5-5h-91.57c-2.76 0-5 2.24-5 5v35.32c0 2.76 2.23 5 5 5zm5-35.32h81.57v25.32h-81.57zm-5-32.58h91.57c2.76 0 5-2.24 5-5v-35.32c0-2.76-2.24-5-5-5h-91.57c-2.76 0-5 2.24-5 5v35.32c0 2.76 2.23 5 5 5zm5-35.32h81.57v25.32h-81.57zm255.82 265.52h-13.78V115.05c0-2.76-2.24-5-5-5H314.89V71.28h7.42c2.76 0 5-2.24 5-5V32.9c0-2.76-2.24-5-5-5H127.69c-2.76 0-5 2.24-5 5v33.38c0 2.76 2.24 5 5 5h7.42v38.77H28.74c-2.76 0-5 2.24-5 5v263.66H9.96c-2.76 0-5 2.24-5 5v33.38c0 2.76 2.24 5 5 5h430.08c2.76 0 5-2.24 5-5v-33.38c0-2.76-2.24-5-5-5zm-23.78-258.66v258.66H314.89V120.05zM132.69 37.9H317.3v23.38H132.69zm172.2 33.39v307.43h-29.1v-125.4c0-2.76-2.24-5-5-5h-91.57c-2.76 0-5 2.24-5 5v125.4h-29.1V71.28h159.77zm-39.1 307.42h-81.57v-120.4h81.57zM33.74 120.05h101.37v258.66H33.74zm401.3 292.05H14.96v-23.38h420.07v23.38z" opacity="1" data-original="url(#a)"></path></g></svg>