<svg xmlns="http://www.w3.org/2000/svg" version="1.1" xmlns:xlink="http://www.w3.org/1999/xlink" width="512" height="512" x="0" y="0" viewBox="0 0 32 32" style="enable-background:new 0 0 512 512" xml:space="preserve" fill-rule="evenodd"><rect width="32" height="32" rx="6.4" ry="6.4" fill="#bac8d3" shape="rounded"></rect><g transform="matrix(0.72,0,0,0.72,4.48,4.4800566101074235)"><linearGradient id="a" x1="0" x2="1" y1="0" y2="0" gradientTransform="matrix(32 32 -32 32 0 96)" gradientUnits="userSpaceOnUse"><stop offset="0" stop-color="#ae76da"></stop><stop offset="1" stop-color="#251ee5"></stop></linearGradient><path fill="url(#a)" d="M16.55 98.165a1 1 0 0 0-1.1 0c-3.188 2.098-6.745 3.312-10.587 3.844A1 1 0 0 0 4 103c0 8.913 1.103 13.806 3.775 17.225 1.799 2.302 4.321 3.955 7.781 5.671.28.139.608.139.888 0 3.46-1.716 5.982-3.369 7.781-5.671C26.897 116.806 28 111.913 28 103a1 1 0 0 0-.863-.991c-3.842-.532-7.399-1.746-10.587-3.844zm-.55 2.022c3.051 1.897 6.402 3.076 9.997 3.672-.061 7.72-.959 12.078-3.348 15.134-1.555 1.991-3.732 3.412-6.649 4.888-2.917-1.476-5.094-2.897-6.649-4.888-2.389-3.056-3.287-7.414-3.348-15.134 3.595-.596 6.946-1.775 9.997-3.672zm-4.707 13.52 3 3a.999.999 0 0 0 1.555-.177l5-8a1 1 0 0 0-1.696-1.06l-4.334 6.934-2.111-2.111a1 1 0 0 0-1.414 1.414z" transform="translate(0 -96)" opacity="1" data-original="url(#a)"></path></g></svg>