<svg xmlns="http://www.w3.org/2000/svg" version="1.1" xmlns:xlink="http://www.w3.org/1999/xlink" width="512" height="512" x="0" y="0" viewBox="0 0 64 64" style="enable-background:new 0 0 512 512" xml:space="preserve"><rect width="64" height="64" rx="12.8" ry="12.8" fill="#bac8d3" shape="rounded"></rect><g transform="matrix(0.7,0,0,0.7,9.600000000000001,9.600000572204593)"><linearGradient id="a" x1="4" x2="60" y1="32" y2="32" gradientUnits="userSpaceOnUse"><stop offset="0" stop-color="#00c0ff"></stop><stop offset="1" stop-color="#5558ff"></stop></linearGradient><path fill="url(#a)" d="M60 19.12v25.76a5.07 5.07 0 0 1-5.06 5.06h-4.25a1 1 0 0 1 0-2h4.25A3.06 3.06 0 0 0 58 44.88V19.12a3.06 3.06 0 0 0-3.06-3.06H9.06A3.06 3.06 0 0 0 6 19.12v25.76a3.06 3.06 0 0 0 3.06 3.06h37.63a1 1 0 0 1 0 2H9.06A5.07 5.07 0 0 1 4 44.88V19.12a5.07 5.07 0 0 1 5.06-5.06h45.88A5.07 5.07 0 0 1 60 19.12zm-49.86 5.44v14.88a2.18 2.18 0 0 0 1.62 2.1 7.56 7.56 0 0 1 4-5.38 6 6 0 0 1-1.35-3.8 6.17 6.17 0 0 1 12.33 0 6 6 0 0 1-1.35 3.8 7.54 7.54 0 0 1 4 5.38 2.18 2.18 0 0 0 1.61-2.1V24.56a2.19 2.19 0 0 0-2.18-2.18h-9.73a1 1 0 0 1 0-2h9.73A4.18 4.18 0 0 1 33 24.56v14.88a4.18 4.18 0 0 1-4.18 4.18h-16.5a4.18 4.18 0 0 1-4.18-4.18V24.56a4.18 4.18 0 0 1 4.18-4.18h2.77a1 1 0 0 1 0 2h-2.77a2.19 2.19 0 0 0-2.18 2.18zm6.26 7.8a4.17 4.17 0 1 0 4.17-4.11 4.14 4.14 0 0 0-4.17 4.11zm-2.62 9.26h13.57a5.86 5.86 0 0 0-3.61-4 6.15 6.15 0 0 1-6.34 0 5.84 5.84 0 0 0-3.62 4zm22.1-18.39h15.58a1 1 0 0 0 0-2H35.88a1 1 0 0 0 0 2zm0 9.77h15.58a1 1 0 1 0 0-2H35.88a1 1 0 1 0 0 2zm0 9.77h15.58a1 1 0 0 0 0-2H35.88a1 1 0 0 0 0 2z" opacity="1" data-original="url(#a)"></path></g></svg>