<svg xmlns="http://www.w3.org/2000/svg" version="1.1" xmlns:xlink="http://www.w3.org/1999/xlink" width="512" height="512" x="0" y="0" viewBox="0 0 550 550" style="enable-background:new 0 0 512 512" xml:space="preserve"><rect width="550" height="550" rx="110" ry="110" fill="#bac8d3" shape="rounded"></rect><g transform="matrix(0.68,0,0,0.68,87.99999999999997,82.99999999999997)"><linearGradient id="a" x1="275" x2="275" y1="19" y2="531" gradientUnits="userSpaceOnUse"><stop offset="0" stop-color="#5d91f9"></stop><stop offset="1" stop-color="#c823ff"></stop></linearGradient><path fill="url(#a)" d="M363 499H187c-35.3 0-64-28.7-64-64V211c.1-53 43-95.9 96-96h112c53 .1 95.9 43 96 96v224c0 35.3-28.7 64-64 64zM219 131c-44.2.1-79.9 35.8-80 80v224c0 26.5 21.5 48 48 48h176c26.5 0 48-21.5 48-48V211c0-44.2-35.8-79.9-80-80zm176 400H155c-4.4 0-8-3.6-8-8v-42c0-4.4 3.6-8 8-8s8 3.6 8 8v34h224v-34c0-4.4 3.6-8 8-8s8 3.6 8 8v42c0 4.4-3.6 8-8 8zm-64-400H219c-4.4 0-8-3.6-8-8V27c0-4.4 3.6-8 8-8h112c4.4 0 8 3.6 8 8v96c0 4.4-3.6 8-8 8zm-104-16h96V35h-96zm72 16h-48c-4.4 0-8-3.6-8-8V75c0-4.4 3.6-8 8-8h48c4.4 0 8 3.6 8 8v48c0 4.4-3.6 8-8 8zm-40-16h32V83h-32zm160 312H131c-4.4 0-8-3.6-8-8V211c0-4.4 3.6-8 8-8h288c4.4 0 8 3.6 8 8v208c0 4.4-3.6 8-8 8zm-280-16h272V219H139zm132.8 16c-17.7 0-34.9-6.1-48.8-17.2l-9.4-7.6c-.2-.1-.4-.3-.5-.5-29.7-28.5-15.9-59.4-5.8-81.9 6-13.4 11.2-25 6.8-32-2.3-3.8-1.1-8.7 2.7-11 1.9-1.1 4.1-1.4 6.2-.9 10.4 3 15.9 11 18.6 19.9 9-16.6 9.6-33.7 9.9-44.1.3-8.7.5-15.6 7.5-17.8 8-2.5 13 4.4 26.5 22.9 6.3 8.7 11.2 18.2 14.7 28.3 5.4-5.9 13.1-9.1 22.1-9.2 4.4-.1 8.1 3.5 8.1 7.9 0 1.7-.5 3.5-1.6 4.9-4.5 6.2.1 15.8 8.2 31 12.2 22.8 29 54.1-6.9 82.9l-.2.1-11.4 8.5c-13.4 10.3-29.8 15.8-46.7 15.8zm-48-37 9.1 7.4c22.1 17.7 53.4 18.2 76 1.2l11.3-8.5c23.6-19 16.8-36.4 2.7-62.8-5.4-10.1-10.9-20.4-11.8-30.2-4 5.4-4.6 14.4-4.3 19.5 0 .5.1 1 .1 1.5.1 4.4-3.4 8.1-7.8 8.2-4 .1-7.5-2.8-8.1-6.8 0-.4-.1-.9-.1-1.6-1.8-20-8-37.3-18.3-51.5-1.2-1.7-3.2-4.4-5.3-7.2-.9 16.3-4.6 42.3-26.2 64.1-3.1 3.1-8.2 3.1-11.3 0-1.8-1.8-2.6-4.2-2.3-6.7 0 0 .2-1.5.2-3.8-1.7 4.5-3.7 9.1-5.8 13.6-10 22.1-19.3 43 1.9 63.6zm49.3 37c-17.7 0-32-14.3-32-32 0-14.6 20.9-52.5 25-59.9 2.2-3.9 7-5.2 10.9-3.1 1.3.7 2.3 1.8 3.1 3.1 4.2 7.5 25 45.3 25 59.9 0 17.7-14.3 32-32 32zm0-71.1c-8.6 16.6-16 33.7-16 39.1 0 8.8 7.2 16 16 16s16-7.2 16-16c0-5.4-7.4-22.5-16-39.1z" opacity="1" data-original="url(#a)"></path></g></svg>