<svg xmlns="http://www.w3.org/2000/svg" version="1.1" xmlns:xlink="http://www.w3.org/1999/xlink" width="512" height="512" x="0" y="0" viewBox="0 0 439.143 439" style="enable-background:new 0 0 512 512" xml:space="preserve"><rect width="439.143" height="439" rx="87.8286" ry="87.8286" fill="#bac8d3" shape="rounded"></rect><g transform="matrix(0.61,0,0,0.61,85.63274322509767,126.15745445251466)"><linearGradient id="a" x1="71.202" x2="331.202" y1="21.37" y2="248.37" gradientUnits="userSpaceOnUse"><stop offset="0" stop-color="#ff7676"></stop><stop offset="1" stop-color="#f54ea2"></stop></linearGradient><path fill="url(#a)" d="m424.281 95.559-42.504-8.536V18.57c0-10.199-8.297-18.5-18.5-18.5H18.5C8.3.07 0 8.371 0 18.57v211.14c0 10.204 8.3 18.5 18.5 18.5h4.594l-.192.962a18.38 18.38 0 0 0 2.735 13.894 18.378 18.378 0 0 0 11.761 7.887l338.036 67.883a18.56 18.56 0 0 0 3.652.363c8.773 0 16.394-6.25 18.125-14.86l41.566-207c2.012-10-4.492-19.769-14.496-21.78zM25.707 235.21H18.5a5.508 5.508 0 0 1-5.5-5.5V18.57c0-3.032 2.469-5.5 5.5-5.5h344.777c3.032 0 5.5 2.468 5.5 5.5v65.843L86.25 27.68a18.57 18.57 0 0 0-3.656-.364c-8.77 0-16.395 6.246-18.125 14.86zm358.762 86.57c-.516 2.559-2.778 4.418-5.383 4.418-.363 0-.73-.035-1.094-.11L39.957 258.208a5.457 5.457 0 0 1-3.496-2.344c-.813-1.222-1.102-2.687-.813-4.129l1.747-8.707c.003-.004.003-.007.003-.015L58.54 137.727l348.82 70.054zm25.433-126.746-348.8-70.05 9.425-46.93 348.801 70.05zm16.133-80.254-4.133 20.582L73.086 65.31l4.129-20.57c.515-2.563 2.777-4.423 5.379-4.423.363 0 .734.036 1.097.11l290.227 58.281c.035.008.074.012.11.02l47.695 9.578c2.972.597 4.91 3.504 4.312 6.476zm0 0" opacity="1" data-original="url(#a)"></path></g></svg>