<svg xmlns="http://www.w3.org/2000/svg" version="1.1" xmlns:xlink="http://www.w3.org/1999/xlink" width="512" height="512" x="0" y="0" viewBox="0 0 512 512" style="enable-background:new 0 0 512 512" xml:space="preserve"><rect width="512" height="512" rx="102.4" ry="102.4" fill="#bac8d3" shape="rounded"></rect><g transform="matrix(0.58,0,0,0.58,102.5199871826172,107.51999359130858)"><linearGradient id="a" x1="112.607" x2="427.683" y1="460.717" y2="145.641" gradientUnits="userSpaceOnUse"><stop offset="0" stop-color="#fcc60e"></stop><stop offset="1" stop-color="#e92e29"></stop></linearGradient><path fill="url(#a)" d="M222.896 197.633c33.203 0 60.214-27.011 60.214-60.212s-27.011-60.212-60.214-60.212c-33.2 0-60.212 27.011-60.212 60.212s27.012 60.212 60.212 60.212zm0-106.586c25.572 0 46.376 20.804 46.376 46.374s-20.804 46.374-46.376 46.374c-25.57 0-46.374-20.804-46.374-46.374s20.805-46.374 46.374-46.374zm118.509 225.097c33.203 0 60.214-27.011 60.214-60.214s-27.011-60.214-60.214-60.214-60.214 27.011-60.214 60.214 27.012 60.214 60.214 60.214zm0-106.59c25.572 0 46.376 20.804 46.376 46.376s-20.804 46.376-46.376 46.376-46.376-20.804-46.376-46.376 20.804-46.376 46.376-46.376zM283.11 374.439c0-33.203-27.011-60.214-60.214-60.214-33.2 0-60.212 27.011-60.212 60.214 0 33.2 27.011 60.212 60.212 60.212 33.203 0 60.214-27.011 60.214-60.212zm-106.587 0c0-25.572 20.804-46.376 46.374-46.376 25.572 0 46.376 20.804 46.376 46.376 0 25.57-20.804 46.374-46.376 46.374-25.57 0-46.374-20.804-46.374-46.374zm-72.136-178.723c-33.203 0-60.214 27.011-60.214 60.214s27.011 60.214 60.214 60.214c33.2 0 60.212-27.011 60.212-60.214s-27.011-60.214-60.212-60.214zm0 106.59c-25.572 0-46.376-20.804-46.376-46.376s20.804-46.376 46.376-46.376c25.57 0 46.374 20.804 46.374 46.376s-20.804 46.376-46.374 46.376zm93.843-46.376c0 13.599 11.065 24.664 24.667 24.664 13.601 0 24.667-11.065 24.667-24.664 0-13.601-11.065-24.669-24.667-24.669s-24.667 11.068-24.667 24.669zm35.495 0c0 5.971-4.858 10.827-10.829 10.827s-10.829-4.856-10.829-10.827c0-5.973 4.858-10.831 10.829-10.831s10.829 4.858 10.829 10.831zm276.496 207.471c-36.061-40.029-57.068-34.059-98.901-22.162-23.722 6.744-55.508 15.782-103.049 20.577 80.662-33.573 137.522-113.209 137.522-205.886 0-122.905-99.991-222.896-222.896-222.896S0 133.025 0 255.93s99.991 222.896 222.896 222.896h.022c5.288.095 10.448.14 15.487.14 90.811 0 142.124-14.588 176.698-24.417 40.813-11.604 54.55-15.505 84.838 18.113 2.556 2.84 6.937 3.068 9.77.509a6.915 6.915 0 0 0 .51-9.77zM13.838 255.93c0-115.275 93.784-209.059 209.059-209.059s209.059 93.784 209.059 209.059-93.784 209.059-209.059 209.059S13.838 371.205 13.838 255.93z" opacity="1" data-original="url(#a)"></path></g></svg>