<svg xmlns="http://www.w3.org/2000/svg" version="1.1" xmlns:xlink="http://www.w3.org/1999/xlink" width="512" height="512" x="0" y="0" viewBox="0 0 512 512" style="enable-background:new 0 0 512 512" xml:space="preserve"><rect width="512" height="512" rx="102.4" ry="102.4" fill="#bac8d3" shape="rounded"></rect><g transform="matrix(0.6299999999999999,0,0,0.6299999999999999,94.72655471801761,89.71999435424806)"><linearGradient id="a" x1="449.492" x2="62.509" y1="96.277" y2="483.26" gradientUnits="userSpaceOnUse"><stop offset="0" stop-color="#e93528"></stop><stop offset="1" stop-color="#f8bc16"></stop></linearGradient><path fill="url(#a)" d="m433.269 493.209-13.312-30.621a6.965 6.965 0 0 0-1.634-3.758l-42.421-97.587c13.685-4.315 23.737-18.24 23.737-34.719V76.604C399.639 39.327 372.497 9 339.135 9H172.866c-33.362 0-60.505 30.327-60.505 67.604v249.92c0 16.479 10.052 30.405 23.737 34.719L123.38 390.5c-.046.1-.09.2-.131.303l-30.263 69.616a5.185 5.185 0 0 0-.148.342l-14.106 32.448a7.001 7.001 0 0 0 12.84 5.582l12.352-28.414h304.154l12.352 28.414a7.002 7.002 0 0 0 9.211 3.629 7.002 7.002 0 0 0 3.628-9.211zM361.24 362.633l10.349 23.806H140.411l10.349-23.806zm-234.879-36.11V76.604c0-29.557 20.862-53.604 46.505-53.604h166.269c25.643 0 46.504 24.047 46.504 53.604v249.92c0 12.191-8.389 22.109-18.699 22.109H145.061c-10.311 0-18.7-9.918-18.7-22.11zm-16.352 129.854 24.316-55.938h243.35l24.316 55.938zm37.52-276.988h216.942a7 7 0 0 0 7-7V76.604c0-8.742-2.921-18.257-7.814-25.453-6.131-9.017-14.84-13.982-24.522-13.982H172.866c-9.683 0-18.392 4.966-24.522 13.982-4.894 7.196-7.814 16.712-7.814 25.453v95.785a6.998 6.998 0 0 0 6.999 7zm7-102.785c0-10.396 6.53-25.436 18.337-25.436h166.269c11.807 0 18.337 15.04 18.337 25.436v88.785H154.529zm15.687 217.093c16.368 0 29.686-13.317 29.686-29.687s-13.317-29.687-29.686-29.687-29.687 13.317-29.687 29.687 13.318 29.687 29.687 29.687zm0-45.373c8.649 0 15.686 7.037 15.686 15.687s-7.036 15.687-15.686 15.687-15.687-7.037-15.687-15.687 7.037-15.687 15.687-15.687zm171.569-14c-16.369 0-29.687 13.317-29.687 29.687s13.317 29.687 29.687 29.687 29.687-13.317 29.687-29.687-13.318-29.687-29.687-29.687zm0 45.373c-8.649 0-15.687-7.037-15.687-15.687s7.037-15.687 15.687-15.687 15.687 7.037 15.687 15.687-7.037 15.687-15.687 15.687z" opacity="1" data-original="url(#a)"></path></g></svg>