<svg xmlns="http://www.w3.org/2000/svg" version="1.1" xmlns:xlink="http://www.w3.org/1999/xlink" width="512" height="512" x="0" y="0" viewBox="0 0 512 512" style="enable-background:new 0 0 512 512" xml:space="preserve" class=""><rect width="512" height="512" rx="102.4" ry="102.4" fill="#bac8d3" shape="rounded"></rect><g transform="matrix(0.7,0,0,0.7,76.79984893798829,81.79992561340333)"><linearGradient id="a" x1="105.393" x2="388.68" y1="381.404" y2="98.117" gradientUnits="userSpaceOnUse"><stop offset="0" stop-color="#4264da"></stop><stop offset="1" stop-color="#def3ff"></stop></linearGradient><path fill="url(#a)" d="M267.97 489.721c72.372 0 131.248-58.855 131.248-131.201 0-22.735-12.732-57.1-30.118-93.492 33.035-2.474 59.175-30.072 59.175-63.715 0-33.82-57.721-120.021-60.178-123.674-1.71-2.534-5.909-2.534-7.61 0-1.736 2.585-31.128 46.509-48.169 83.957-21.306-35.196-38.653-61.113-40.543-63.922-1.71-2.534-5.909-2.534-7.61 0-5.202 7.738-127.398 190.287-127.398 260.846 0 72.345 58.858 131.201 131.203 131.201zm96.322-401.18c13.004 20.008 54.815 86.413 54.815 112.771 0 30.212-24.59 54.791-54.815 54.791-30.212 0-54.789-24.579-54.789-54.791.001-26.351 41.794-92.761 54.789-112.771zm-96.322 19.995c6.863 10.442 22.247 34.204 39.843 63.553-4.548 11.363-7.478 21.621-7.478 29.224 0 33.435 25.8 60.915 58.531 63.684 17.902 36.755 31.184 71.426 31.184 93.524 0 67.289-54.766 122.033-122.08 122.033-67.292 0-122.035-54.744-122.035-122.033 0-61.03 100.996-217.962 122.035-249.985zm-4.584 339.929a4.583 4.583 0 0 1 4.584-4.584c47.093 0 85.408-38.292 85.408-85.361 0-2.531 2.05-4.584 4.584-4.584s4.584 2.052 4.584 4.584c0 52.123-42.429 94.529-94.576 94.529a4.584 4.584 0 0 1-4.584-4.584zM141.342 192.547c31.784 0 57.64-25.848 57.64-57.62 0-30.36-51.637-107.48-53.835-110.748-1.71-2.534-5.909-2.534-7.61 0-2.198 3.268-53.813 80.388-53.813 110.748 0 31.773 25.848 57.62 57.618 57.62zm0-157.496c16.402 25.181 48.472 78.767 48.472 99.876 0 26.716-21.743 48.452-48.472 48.452-26.716 0-48.45-21.736-48.45-48.452 0-21.102 32.057-74.693 48.45-99.876z" opacity="1" data-original="url(#a)"></path></g></svg>