<?xml version="1.0" encoding="iso-8859-1"?>
<!-- Generator: Adobe Illustrator 19.0.0, SVG Export Plug-In . SVG Version: 6.00 Build 0)  -->
<svg version="1.1" id="Capa_1" xmlns="http://www.w3.org/2000/svg" xmlns:xlink="http://www.w3.org/1999/xlink" x="0px" y="0px"
	 viewBox="0 0 512 512" style="enable-background:new 0 0 512 512;" xml:space="preserve">
<circle style="fill:#E48C21;" cx="256" cy="256" r="256"/>
<path style="fill:#966117;" d="M257.065,511.986C397.958,511.411,512,397.029,512,256c0-7.395-0.332-14.711-0.946-21.947
	L383,105.999l-254,46.163l20,19.965l-20,17.578l20,19.964l-20,17.578l20,19.964l-20,17.578l20,19.964l-20,17.578l20,19.964
	l-20,17.578l20,19.965l-20,17.578l22.079,22v6.585L257.065,511.986z"/>
<polygon style="fill:#F1CB30;" points="383,105.999 267.04,105.999 255.311,256 267.04,406.001 383,406.001 "/>
<rect x="151.08" y="106" style="fill:#F9EB97;" width="115.96" height="300"/>
<g>
	<rect x="129" y="134.58" style="fill:#6C819F;" width="44.16" height="17.578"/>
	<rect x="129" y="172.13" style="fill:#6C819F;" width="44.16" height="17.578"/>
	<rect x="129" y="209.67" style="fill:#6C819F;" width="44.16" height="17.578"/>
	<rect x="129" y="247.21" style="fill:#6C819F;" width="44.16" height="17.578"/>
	<rect x="129" y="284.75" style="fill:#6C819F;" width="44.16" height="17.578"/>
	<rect x="129" y="322.3" style="fill:#6C819F;" width="44.16" height="17.578"/>
	<rect x="129" y="359.84" style="fill:#6C819F;" width="44.16" height="17.578"/>
</g>
<g>
	<path style="fill:#42B653;" d="M271.673,214.727c8.956,0,16.242,7.286,16.242,16.242h17.578c0-17.241-12.971-31.499-29.665-33.555
		v-19.508h-8.789l-5.864,26.532l5.864,10.29L271.673,214.727L271.673,214.727z"/>
	<path style="fill:#42B653;" d="M271.673,247.211h-4.634L261.175,256l5.864,8.789h4.634c8.956,0,16.242,7.286,16.242,16.242
		s-7.286,16.242-16.242,16.242h-4.634l-5.864,8.142l5.864,28.68h8.789v-19.508c16.694-2.056,29.665-16.315,29.665-33.555
		C305.493,262.382,290.322,247.211,271.673,247.211z"/>
</g>
<g>
	<path style="fill:#7CDA4D;" d="M262.406,247.211c-8.956,0-16.242-7.286-16.242-16.242s7.286-16.242,16.242-16.242h4.634v-36.821
		h-8.789v19.508c-16.694,2.056-29.665,16.315-29.665,33.555c0,18.649,15.172,33.82,33.82,33.82h4.634v-17.578H262.406z"/>
	<path style="fill:#7CDA4D;" d="M262.406,297.272c-8.956,0-16.242-7.286-16.242-16.242h-17.578
		c0,17.241,12.971,31.499,29.665,33.555v19.508h8.789v-36.822h-4.634V297.272z"/>
</g>
<g>
</g>
<g>
</g>
<g>
</g>
<g>
</g>
<g>
</g>
<g>
</g>
<g>
</g>
<g>
</g>
<g>
</g>
<g>
</g>
<g>
</g>
<g>
</g>
<g>
</g>
<g>
</g>
<g>
</g>
</svg>
