<svg id="Layer_1" enable-background="new 0 0 511 511" height="512" viewBox="0 0 511 511" width="512" xmlns="http://www.w3.org/2000/svg"><g><g><g><path d="m502.093 319.121c.236-.91.463-1.826.688-2.743-.222.917-.455 1.83-.688 2.743z" fill="#afe6ff"/></g><g><path d="m255 1c-98.131 0-158.574 55.347-158.741 55.441-3.787 17.481-10.374 42.85-10.374 61.465 0 140.833 118.763 254.972 259.596 254.972 60.017 0 115.159-27.944 158.719-62.639.178-1.087 5.8-23.477 5.8-54.239 0-140.833-114.167-255-255-255z" fill="#4070f6"/></g><g><path d="m448.483 422.054c25.154-29.292 43.784-64.352 53.61-102.933.233-.913.466-1.826.688-2.743.106-.436 1.068-4.522 1.418-6.139-43.559 34.696-98.724 55.441-158.741 55.441-140.833 0-255-114.167-255-255 0-18.615 2.013-36.757 5.8-54.239-.006.005-.011.01-.017.014-58.644 46.72-96.241 118.737-96.241 199.545 0 63.427 23.165 121.438 61.485 166.054z" fill="#3d4fc3"/></g></g><path d="m60.612 421.021c46.774 55.043 116.496 89.979 194.388 89.979s147.61-34.932 194.375-89.979z" fill="#ffe65a"/><g><path d="m187.043 244.722v161.787c0 32.025 25.961 57.986 57.986 57.986h117.847c14.95 0 27.902-10.368 31.174-24.956l32.997-147.116z" fill="#dd544f"/><g><path d="m437.746 244.722h-292.234-73.258l10.699 47.701 32.997 147.116c3.272 14.588 16.223 24.956 31.174 24.956h97.905c-14.95 0-27.902-10.368-31.174-24.956l-24.922-111.113c-4.141-18.463 9.901-36.004 28.823-36.004h209.29z" fill="#d80a61"/></g><g><path d="m426.443 201.989h-270.446v64.101h270.446c17.701 0 32.05-14.349 32.05-32.05 0-17.702-14.349-32.051-32.05-32.051z" fill="#df6b57"/></g><g><path d="m155.843 234.039c0-17.701 14.349-32.05 32.05-32.05h-104.336c-17.701 0-32.05 14.349-32.05 32.05 0 17.701 14.349 32.05 32.05 32.05h104.336c-17.701 0-32.05-14.349-32.05-32.05z" fill="#dd544f"/></g><g><path d="m255 426.99c-8.507 0-15.403-6.896-15.403-15.403v-96.659c0-8.507 6.896-15.403 15.403-15.403s15.403 6.896 15.403 15.403v96.659c0 8.506-6.896 15.403-15.403 15.403z" fill="#d80a61"/></g><g><path d="m330.709 426.993c-.883 0-1.778-.076-2.678-.234-8.379-1.469-13.981-9.452-12.512-17.832l16.945-96.659c1.469-8.378 9.455-13.982 17.832-12.512 8.379 1.469 13.981 9.452 12.512 17.832l-16.945 96.659c-1.311 7.478-7.814 12.746-15.154 12.746z" fill="#d80a61"/></g><g><path d="m178.607 426.993c-7.341 0-13.843-5.267-15.154-12.746l-16.945-96.659c-1.469-8.38 4.133-16.363 12.512-17.832 8.377-1.476 16.362 4.133 17.832 12.512l16.945 96.659c1.469 8.38-4.133 16.363-12.512 17.832-.9.158-1.795.234-2.678.234z" fill="#c10a54"/></g><g><circle cx="164.081" cy="234.039" fill="#d80a61" r="23.449"/></g><g><path d="m165.607 240.202c-2.708 0-5.45-.714-7.938-2.214-7.286-4.392-9.631-13.858-5.24-21.144l66.239-109.883c4.392-7.285 13.859-9.631 21.144-5.239 7.286 4.392 9.632 13.858 5.24 21.144l-66.239 109.883c-2.892 4.798-7.985 7.453-13.206 7.453z" fill="#dd544f"/></g><g><circle cx="342.428" cy="234.039" fill="#d80a61" r="23.449"/></g><g><path d="m340.902 240.202c-5.222 0-10.314-2.655-13.207-7.453l-66.239-109.883c-4.392-7.285-2.046-16.752 5.24-21.144 7.286-4.394 16.752-2.046 21.144 5.239l66.239 109.883c4.392 7.285 2.046 16.752-5.24 21.144-2.486 1.5-5.23 2.214-7.937 2.214z" fill="#dd544f"/></g></g><g><g><g><path d="m511 109.977c0 15.185-3.077 29.651-8.643 42.808-16.695 39.472-55.781 67.169-101.335 67.169-60.739 0-109.977-49.238-109.977-109.977 0-44.428 26.345-82.704 64.265-100.056 13.921-6.37 29.402-9.921 45.713-9.921 60.739 0 109.977 49.238 109.977 109.977z" fill="#ffe65a"/></g><g><path d="m456.255 163.607c-60.739 0-109.977-49.238-109.977-109.977 0-15.532 3.226-30.308 9.035-43.704-37.92 17.353-64.267 55.623-64.267 100.052 0 60.739 49.238 109.977 109.977 109.977 45.207 0 84.037-27.28 100.943-66.273-13.922 6.37-29.401 9.925-45.711 9.925z" fill="#f1d333"/></g></g><g><g><path d="m358.848 94.977h84.351v30h-84.351z" fill="#e27d47"/></g><g><path d="m386.023 67.802h30v84.351h-30z" fill="#e29375"/></g></g></g></g></svg>