<?xml version="1.0" encoding="windows-1252"?>
<!-- Generator: Adobe Illustrator 19.0.0, SVG Export Plug-In . SVG Version: 6.00 Build 0)  -->
<svg version="1.1" id="Capa_1" xmlns="http://www.w3.org/2000/svg" xmlns:xlink="http://www.w3.org/1999/xlink" x="0px" y="0px" viewBox="0 0 512 512" style="enable-background:new 0 0 512 512;" xml:space="preserve">
<g>
	<g>
		<path d="M482,331H30c-16.569,0-30,13.431-30,30c0,16.567,13.431,30,30,30h452c16.569,0,30-13.433,30-30    C512,344.431,498.569,331,482,331z" style="fill:#fff;"/>
	</g>
</g>
<g>
	<g>
		<path d="M30,421v76c0,8.291,6.709,15,15,15h422c8.291,0,15-6.709,15-15v-76H30z" style="fill:#fff;"/>
	</g>
</g>
<g>
	<g>
		<path d="M256,91c-33.091,0-60,26.909-60,60s26.909,60,60,60s60-26.909,60-60S289.091,91,256,91z" style="fill:#fff;"/>
	</g>
</g>
<g>
	<g>
		<path d="M415.409,34.541C395.545,12.598,366.156,0,336.552,0H175.448c-29.604,0-57.993,12.598-77.856,34.541    c-19.863,21.958-29.561,52.445-26.616,81.903L89.425,301H109.3c8.577-41.765,34.891-77.873,72.352-99.395    C171.797,187.172,166,169.759,166,151c0-49.629,40.371-90,90-90c49.629,0,90,40.371,90,90c0,18.759-5.797,36.172-15.652,50.605    c37.462,21.522,63.776,57.63,72.352,99.395h20.875l18.45-184.556C444.969,86.986,435.272,56.499,415.409,34.541z" style="fill:#fff;"/>
	</g>
</g>
<g>
	<g>
		<path d="M308.618,223.684C293.784,234.456,275.697,241,256,241c-19.697,0-37.784-6.544-52.619-17.316    c-31.007,15.274-54.578,43.268-63.45,77.316h232.137C363.197,266.952,339.625,238.958,308.618,223.684z" style="fill:#fff;"/>
	</g>
</g>
<g>
</g>
<g>
</g>
<g>
</g>
<g>
</g>
<g>
</g>
<g>
</g>
<g>
</g>
<g>
</g>
<g>
</g>
<g>
</g>
<g>
</g>
<g>
</g>
<g>
</g>
<g>
</g>
<g>
</g>
</svg>