<svg height="512" viewBox="0 0 64 64" width="512" xmlns="http://www.w3.org/2000/svg"><g id="Icons"><g><g><path d="m48 41.639v-13.639h-8.631c-1.426 0-2.712-.732-3.439-1.958-.728-1.226-.755-2.706-.072-3.958l5.232-9.593c-.974-.315-2.011-.491-3.09-.491v-1.748c0-3.285-2.532-6.15-5.815-6.249-3.398-.102-6.185 2.622-6.185 5.997v2c-5.523 0-10 4.477-10 10v19.639c0 1.552-.361 3.084-1.056 4.472l-2.944 5.889h40l-2.944-5.889c-.695-1.388-1.056-2.919-1.056-4.472zm-14-29.639h-4v-2c0-1.105.895-2 2-2s2 .895 2 2z" fill="#fab400"/></g><g><path d="m20 41.639v-19.639c0-5.523 4.477-10 10-10v-2c0-2.606 1.665-4.818 3.986-5.646-.565-.208-1.169-.332-1.802-.351-3.397-.102-6.184 2.622-6.184 5.997v2c-5.523 0-10 4.477-10 10v19.639c0 1.552-.361 3.084-1.056 4.472l-2.944 5.889h4l2.944-5.889c.695-1.388 1.056-2.919 1.056-4.472z" fill="#dc9600"/></g><g><path d="m40 52c0 4.418-3.582 8-8 8-4.418 0-8-3.582-8-8z" fill="#505050"/></g><g><path d="m28 52h-4c0 4.418 3.582 8 8 8 .692 0 1.36-.097 2-.262-3.449-.89-6-4.012-6-7.738z" fill="#3c3c3c"/></g><g><path d="m46.244 7.219-8.631 15.823c-.727 1.333.238 2.958 1.756 2.958h17.262c1.518 0 2.483-1.625 1.756-2.958l-8.631-15.823c-.758-1.39-2.754-1.39-3.512 0z" fill="#fa6450"/></g><g><path d="m38.98 23.042 8.63-15.823c.251-.459.641-.752 1.073-.908-.874-.315-1.931-.023-2.439.908l-8.631 15.823c-.727 1.333.238 2.958 1.756 2.958h1.366c-1.518 0-2.482-1.625-1.755-2.958z" fill="#dc4632"/></g><g><path d="m48 18c-.552 0-1-.448-1-1v-4c0-.552.448-1 1-1 .552 0 1 .448 1 1v4c0 .552-.448 1-1 1z" fill="#f0f0f0"/></g><g><path d="m48 22c-.552 0-1-.448-1-1 0-.552.448-1 1-1 .552 0 1 .448 1 1 0 .552-.448 1-1 1z" fill="#f0f0f0"/></g></g></g></svg>