<svg id="Layer_1_1_" enable-background="new 0 0 64 64" height="512" viewBox="0 0 64 64" width="512" xmlns="http://www.w3.org/2000/svg"><path d="m47.296 29c-3.341 0-5.014-4.039-2.652-6.402l1.205-1.205-4.243-4.243-1.205 1.205c-2.362 2.363-6.401.69-6.401-2.651v-1.704h-7v8.838c1.226-.536 2.577-.838 4-.838 5.523 0 10 4.477 10 10s-4.477 10-10 10c-1.423 0-2.774-.302-4-.838v8.838h7v-1.704c0-3.341 4.039-5.014 6.402-2.652l1.205 1.205 4.243-4.243-1.205-1.205c-2.363-2.362-.69-6.401 2.651-6.401h1.704v-3-3z" fill="#b5b2aa"/><path d="m27 41.162v8.838h4v-8c-1.423 0-2.774-.302-4-.838z" fill="#a6a39c"/><path d="m31 14h-4v8.838c1.226-.536 2.577-.838 4-.838z" fill="#a6a39c"/><g fill="#8c8a84"><path d="m38.264 19.422c-1.73-.239-3.264-1.66-3.264-3.718v-1.704h-1v1.704c0 2.451 2.173 3.996 4.264 3.718z"/><path d="m49 29v3 3h1v-3-3z"/><path d="m34 48.296v1.704h1v-1.704c0-2.058 1.534-3.479 3.264-3.718-2.091-.278-4.264 1.267-4.264 3.718z"/><path d="m48.296 35h-1c-3.341 0-5.014 4.039-2.652 6.402l1.205 1.205-3.743 3.743-.5.5h1l4.243-4.243-1.205-1.205c-2.362-2.363-.689-6.402 2.652-6.402z"/><path d="m45.644 22.598 1.205-1.205-4.243-4.243h-1l.5.5 3.743 3.743-1.205 1.205c-2.362 2.363-.689 6.402 2.652 6.402h1c-3.341 0-5.014-4.039-2.652-6.402z"/></g><path d="m56 33h-6c-.552 0-1-.448-1-1 0-.552.448-1 1-1h6c.552 0 1 .448 1 1 0 .552-.448 1-1 1z" fill="#ffd45a"/><path d="m37 10c-.553 0-1-.448-1-1v-4c0-.552.448-1 1-1h19c.552 0 1 .448 1 1 0 .552-.448 1-1 1h-17c-.552 0-1 .448-1 1v2c0 .552-.448 1-1 1z" fill="#ffd45a"/><path d="m48 20c-.442-.331-.531-.958-.2-1.4l2.4-3.201c.189-.252.485-.4.8-.4h5c.552 0 1 .448 1 1v.001c0 .552-.448 1-1 1h-4c-.315 0-.611.148-.8.4l-1.801 2.4c-.331.442-.957.531-1.399.2z" fill="#ffd45a"/><path d="m56 60h-19c-.552 0-1-.448-1-1v-4c0-.552.448-1 1-1 .552 0 1 .448 1 1v2c0 .552.448 1 1 1h17c.552 0 1 .448 1 1 0 .552-.448 1-1 1z" fill="#ffd45a"/><path d="m56 49h-5c-.315 0-.611-.148-.8-.4l-2.4-3.201c-.331-.442-.242-1.068.2-1.4.442-.331 1.068-.242 1.399.2l1.801 2.4c.189.252.485.4.8.4h4c.552 0 1 .448 1 1v.001c0 .552-.448 1-1 1z" fill="#ffd45a"/><circle cx="59" cy="32" fill="#2b67b3" r="3"/><circle cx="59" cy="16" fill="#2b67b3" r="3"/><circle cx="59" cy="5" fill="#2b67b3" r="3"/><circle cx="59" cy="48" fill="#2b67b3" r="3"/><circle cx="59" cy="59" fill="#2b67b3" r="3"/><path d="m11 14c0 1.105.895 2 2 2h4c1.105 0 2-.895 2-2s.895-2 2-2h-12c1.105 0 2 .895 2 2z" fill="#004eb1"/><path d="m27 22.838v-8.838c0-1.105-.895-2-2-2h-4c-1.105 0-2 .895-2 2s-.895 2-2 2h-4c-1.105 0-2-.895-2-2s-.895-2-2-2h-1-3c-1.105 0-2 .895-2 2v36c0 1.105.895 2 2 2h20c1.105 0 2-.895 2-2v-8.838z" fill="#2b67b3"/><path d="m7 18h16v4h-16z" fill="#ffd45a"/><path d="m7 22h16v25h-16z" fill="#fffcf5"/><path d="m12 29h-2c-.553 0-1-.447-1-1s.447-1 1-1h2c.553 0 1 .447 1 1s-.447 1-1 1z" fill="#ffd45a"/><path d="m18 29h-2c-.553 0-1-.447-1-1s.447-1 1-1h2c.553 0 1 .447 1 1s-.447 1-1 1z" fill="#ffd45a"/><path d="m20 43h-10c-.553 0-1-.447-1-1s.447-1 1-1h10c.553 0 1 .447 1 1s-.447 1-1 1z" fill="#ffd45a"/><path d="m9 31h12v7h-12z" fill="#ffedba"/></svg>