<?xml version="1.0" encoding="iso-8859-1"?>
<!-- Generator: Adobe Illustrator 19.0.0, SVG Export Plug-In . SVG Version: 6.00 Build 0)  -->
<svg version="1.1" id="Capa_1" xmlns="http://www.w3.org/2000/svg" xmlns:xlink="http://www.w3.org/1999/xlink" x="0px" y="0px"
	 viewBox="0 0 512 512" style="enable-background:new 0 0 512 512;" xml:space="preserve">
<path style="fill:#C6BDD6;" d="M512,118.5c0-24.853-20.147-45-45-45H45c-24.853,0-45,20.147-45,45v275c0,24.853,20.147,45,45,45h422
	c24.853,0,45-20.147,45-45V118.5z"/>
<path style="fill:#F5F2FC;" d="M263.5,73.5H45c-24.853,0-45,20.147-45,45v275c0,24.853,20.147,45,45,45h218.5V73.5z"/>
<path style="fill:#3594C7;" d="M512,118.5c0-24.853-20.147-45-45-45H45c-24.853,0-45,20.147-45,45v44h512V118.5z"/>
<path style="fill:#16DCFA;" d="M263.5,73.5H45c-24.853,0-45,20.147-45,45v44h263.5V73.5z"/>
<path style="fill:#FF9F4A;" d="M171.741,226.766c-26.749,0-48.512,21.762-48.512,48.512v65.461c0,8.284,6.716,15,15,15
	s15-6.716,15-15v-28.435h37.023v28.435c0,8.284,6.716,15,15,15s15-6.716,15-15v-65.461
	C220.253,248.528,198.49,226.766,171.741,226.766z M153.229,282.305v-7.026c0-10.208,8.305-18.512,18.512-18.512
	s18.512,8.304,18.512,18.512v7.026H153.229z"/>
<path style="fill:#EB724A;" d="M256,355.739c-8.284,0-15-6.716-15-15v-98.973c0-8.284,6.716-15,15-15h39.255
	c23.583,0,42.77,19.186,42.77,42.769s-19.187,42.77-42.77,42.77H271v28.435C271,349.023,264.284,355.739,256,355.739z M271,282.305
	h24.255c7.041,0,12.77-5.729,12.77-12.77s-5.729-12.769-12.77-12.769H271V282.305z"/>
<path style="fill:#FF9F4A;" d="M263.5,226.766H256c-8.284,0-15,6.716-15,15v98.973c0,8.284,6.716,15,15,15
	c2.734,0,5.296-0.734,7.502-2.013L263.5,226.766z"/>
<path style="fill:#EB724A;" d="M373.771,355.739c-8.284,0-15-6.716-15-15v-98.973c0-8.284,6.716-15,15-15s15,6.716,15,15v98.973
	C388.771,349.023,382.055,355.739,373.771,355.739z"/>
<g>
</g>
<g>
</g>
<g>
</g>
<g>
</g>
<g>
</g>
<g>
</g>
<g>
</g>
<g>
</g>
<g>
</g>
<g>
</g>
<g>
</g>
<g>
</g>
<g>
</g>
<g>
</g>
<g>
</g>
</svg>
