<svg height="512" viewBox="0 0 64 64" width="512" xmlns="http://www.w3.org/2000/svg"><g id="application"><rect fill="#00d7df" height="46" rx="2" width="26" x="3" y="15"/><path d="m29 17v42a2.006 2.006 0 0 1 -2 2h-5a2.006 2.006 0 0 0 2-2v-42a2.006 2.006 0 0 0 -2-2h5a2.006 2.006 0 0 1 2 2z" fill="#009698"/><path d="m8 23h16v16h-16z" fill="#c0ab91"/><path d="m20 23h4v16h-4z" fill="#a78966"/><path d="m18 23v8l-2-2-2 2v-8z" fill="#ff7956"/><path d="m18 23v8l-2-2v-6z" fill="#ff5023"/><path d="m39 45h16v16h-16z" fill="#c0ab91"/><path d="m51 45h4v16h-4z" fill="#a78966"/><path d="m49 45v8l-2-2-2 2v-8z" fill="#ff7956"/><path d="m49 45v8l-2-2v-6z" fill="#ff5023"/><g fill="#57a4ff"><path d="m57 21h-4.67a16.246 16.246 0 0 0 -.95-5.68 9.81 9.81 0 0 0 2.41-1.65 9.918 9.918 0 0 1 3.21 7.33z"/><path d="m52.33 21h4.67a9.918 9.918 0 0 1 -3.21 7.33 9.81 9.81 0 0 0 -2.41-1.65 16.246 16.246 0 0 0 .95-5.68z"/><path d="m52.33 21h-5.33v-4.67a9.894 9.894 0 0 0 4.38-1.01 16.246 16.246 0 0 1 .95 5.68z"/><path d="m47 21h5.33a16.246 16.246 0 0 1 -.95 5.68 9.894 9.894 0 0 0 -4.38-1.01z"/><path d="m53.79 13.67a9.81 9.81 0 0 1 -2.41 1.65c-.9-2.48-2.4-4.14-4.1-4.31a9.881 9.881 0 0 1 6.51 2.66z"/><path d="m51.38 26.68a9.81 9.81 0 0 1 2.41 1.65 9.881 9.881 0 0 1 -6.51 2.66c1.7-.17 3.2-1.83 4.1-4.31z"/><path d="m51.38 15.32a9.894 9.894 0 0 1 -4.38 1.01v-5.33a2.715 2.715 0 0 1 .28.01c1.7.17 3.2 1.83 4.1 4.31z"/><path d="m47 25.67a9.894 9.894 0 0 1 4.38 1.01c-.9 2.48-2.4 4.14-4.1 4.31a2.715 2.715 0 0 1 -.28.01z"/><path d="m47 25.67v5.33a2.715 2.715 0 0 1 -.28-.01c-1.7-.17-3.2-1.83-4.1-4.31a9.894 9.894 0 0 1 4.38-1.01z"/><path d="m47 21v4.67a9.894 9.894 0 0 0 -4.38 1.01 16.246 16.246 0 0 1 -.95-5.68z"/><path d="m47 16.33v4.67h-5.33a16.246 16.246 0 0 1 .95-5.68 9.894 9.894 0 0 0 4.38 1.01z"/><path d="m47 11v5.33a9.894 9.894 0 0 1 -4.38-1.01c.9-2.48 2.4-4.14 4.1-4.31a2.715 2.715 0 0 1 .28-.01z"/><path d="m46.72 11.01c-1.7.17-3.2 1.83-4.1 4.31a9.81 9.81 0 0 1 -2.41-1.65 9.881 9.881 0 0 1 6.51-2.66z"/><path d="m42.62 26.68c.9 2.48 2.4 4.14 4.1 4.31a9.881 9.881 0 0 1 -6.51-2.66 9.81 9.81 0 0 1 2.41-1.65z"/><path d="m42.62 15.32a16.246 16.246 0 0 0 -.95 5.68h-4.67a9.918 9.918 0 0 1 3.21-7.33 9.81 9.81 0 0 0 2.41 1.65z"/><path d="m41.67 21a16.246 16.246 0 0 0 .95 5.68 9.81 9.81 0 0 0 -2.41 1.65 9.918 9.918 0 0 1 -3.21-7.33z"/></g><path d="m24 15v2a2.006 2.006 0 0 1 -2 2h-12a2.006 2.006 0 0 1 -2-2v-2z" fill="#ffde55"/><path d="m7 43h6v6h-6z" fill="#57a4ff"/><path d="m7 50h6a1 1 0 0 0 1-1v-6a1 1 0 0 0 -1-1h-6a1 1 0 0 0 -1 1v6a1 1 0 0 0 1 1zm1-6h4v4h-4z"/><path d="m16 47h10v2h-10z"/><path d="m16 43h10v2h-10z"/><path d="m6 56h20v2h-20z"/><path d="m6 52h20v2h-20z"/><path d="m8 40h16a1 1 0 0 0 1-1v-16a1 1 0 0 0 -1-1h-16a1 1 0 0 0 -1 1v16a1 1 0 0 0 1 1zm7-16h2v4.586l-.293-.293a1 1 0 0 0 -1.414 0l-.293.293zm-6 0h4v7a1 1 0 0 0 1.707.707l1.293-1.293 1.293 1.293a1 1 0 0 0 .707.293.987.987 0 0 0 .383-.076 1 1 0 0 0 .617-.924v-7h4v14h-14z"/><path d="m55 44h-16a1 1 0 0 0 -1 1v16a1 1 0 0 0 1 1h16a1 1 0 0 0 1-1v-16a1 1 0 0 0 -1-1zm-9 2h2v4.586l-.293-.293a1 1 0 0 0 -1.414 0l-.293.293zm8 14h-14v-14h4v7a1 1 0 0 0 1.707.707l1.293-1.293 1.293 1.293a1 1 0 0 0 .707.293.987.987 0 0 0 .383-.076 1 1 0 0 0 .617-.924v-7h4z"/><path d="m27 14h-22a3 3 0 0 0 -3 3v42a3 3 0 0 0 3 3h22a3 3 0 0 0 3-3v-42a3 3 0 0 0 -3-3zm-18 2h14v1a1 1 0 0 1 -1 1h-12a1 1 0 0 1 -1-1zm19 43a1 1 0 0 1 -1 1h-22a1 1 0 0 1 -1-1v-42a1 1 0 0 1 1-1h2v1a3 3 0 0 0 3 3h12a3 3 0 0 0 3-3v-1h2a1 1 0 0 1 1 1z"/><path d="m47 32a11 11 0 1 0 -11-11 11.013 11.013 0 0 0 11 11zm-6.3-10a17.629 17.629 0 0 0 .7 4.21 10.987 10.987 0 0 0 -1.12.756 8.96 8.96 0 0 1 -2.221-4.966zm5.3 7.71a5.526 5.526 0 0 1 -2.067-2.5 8.95 8.95 0 0 1 2.067-.482zm-3.521-.94c-.232-.136-.458-.28-.677-.436.109-.078.218-.157.33-.23.111.23.226.453.347.666zm5.521.94v-2.982a8.95 8.95 0 0 1 2.067.484 5.526 5.526 0 0 1 -2.067 2.498zm3.868-1.61c.112.073.221.152.33.23-.219.156-.445.3-.677.436.121-.209.236-.432.347-.666zm-3.868-3.386v-2.714h3.305a15.584 15.584 0 0 1 -.539 3.339 10.9 10.9 0 0 0 -2.766-.625zm0-4.714v-2.714a10.9 10.9 0 0 0 2.766-.625 15.584 15.584 0 0 1 .539 3.339zm0-4.728v-2.982a5.526 5.526 0 0 1 2.067 2.5 8.95 8.95 0 0 1 -2.067.482zm3.521-2.042c.232.136.458.28.677.436-.109.078-.218.157-.33.23-.111-.23-.226-.453-.347-.666zm-5.521-.94v2.982a8.95 8.95 0 0 1 -2.067-.484 5.526 5.526 0 0 1 2.067-2.498zm-3.868 1.61c-.112-.073-.221-.152-.33-.23.219-.156.445-.3.677-.436-.121.209-.236.432-.347.666zm3.868 3.386v2.714h-3.3a15.584 15.584 0 0 1 .539-3.339 10.9 10.9 0 0 0 2.761.625zm0 4.714v2.714a10.9 10.9 0 0 0 -2.766.625 15.584 15.584 0 0 1 -.534-3.339zm7.72 4.966a10.987 10.987 0 0 0 -1.12-.756 17.629 17.629 0 0 0 .7-4.21h2.636a8.96 8.96 0 0 1 -2.216 4.966zm2.221-6.966h-2.636a17.629 17.629 0 0 0 -.7-4.21 10.987 10.987 0 0 0 1.12-.756 8.96 8.96 0 0 1 2.216 4.966zm-15.661-4.966a10.987 10.987 0 0 0 1.12.756 17.629 17.629 0 0 0 -.7 4.21h-2.641a8.96 8.96 0 0 1 2.221-4.966z"/><path d="m15 10h2v2h-2z"/><path d="m17 4h29v4h2v-5a1 1 0 0 0 -1-1h-31a1 1 0 0 0 -1 1v5h2z"/><path d="m46 34h2v8h-2z"/></g></svg>