<svg height="512pt" viewBox="0 0 512 512" width="512pt" xmlns="http://www.w3.org/2000/svg"><path d="m512 256c0 141.386719-114.613281 256-256 256s-256-114.613281-256-256 114.613281-256 256-256 256 114.613281 256 256zm0 0" fill="#ff4682"/><path d="m511.9375 260.792969-48.804688-48.808594-130.796874 61.21875-35.667969-35.667969-125.421875 61.160156-45.300782-45.300781-77.792968 64.785157 193.410156 193.40625c4.78125.265624 9.589844.414062 14.4375.414062 139.78125 0 253.382812-112.035156 255.9375-251.207031zm0 0" fill="#d72d73"/><path d="m41.46875 263.757812 84.472656-10.375 4.042969 32.929688-84.46875 10.375zm0 0" fill="#6205db"/><path d="m378.640625 222.347656 84.472656-10.375 4.042969 32.929688-84.472656 10.375zm0 0" fill="#340caf"/><path d="m44.105469 285.234375 422.359375-51.871094 4.042968 32.925781-422.355468 51.875zm0 0" fill="#f7d139"/><path d="m466.484375 233.371094-210.914063 25.90625v33.425781l214.957032-26.398437zm0 0" fill="#f2c230"/><path d="m317 395h-122v-112c0-33.6875 27.3125-61 61-61s61 27.3125 61 61zm0 0" fill="#6205db"/><path d="m317 283c0-33.6875-27.3125-61-61-61-.144531 0-.285156.011719-.429688.011719v172.988281h61.429688zm0 0" fill="#340caf"/><path d="m296.667969 286.332031c0 22.460938-18.207031 40.667969-40.667969 40.667969s-40.667969-18.207031-40.667969-40.667969c0-22.457031 18.207031-40.667969 40.667969-40.667969s40.667969 18.210938 40.667969 40.667969zm0 0" fill="#53edf5"/><path d="m256 245.667969c-.144531 0-.285156.007812-.429688.011719v81.308593c.144532.003907.285157.011719.429688.011719 22.460938 0 40.667969-18.207031 40.667969-40.664062 0-22.460938-18.207031-40.667969-40.667969-40.667969zm0 0" fill="#0ac0ea"/></svg>