<?xml version="1.0"?>
<svg xmlns="http://www.w3.org/2000/svg" xmlns:xlink="http://www.w3.org/1999/xlink" version="1.1" id="Capa_1" x="0px" y="0px" viewBox="0 0 480 480" style="enable-background:new 0 0 480 480;" xml:space="preserve" width="512px" height="512px"><g><g>
	<g>
		<path d="M402.512,63.592c-0.232-0.28-0.44-0.584-0.712-0.84c-20.248-18.496-43.264-33.144-68-43.648    c-0.456-0.192-0.92-0.384-1.384-0.576c-2.944-1.232-5.912-2.408-8.912-3.52c-0.888-0.328-1.784-0.648-2.672-0.968    c-2.592-0.928-5.2-1.816-7.824-2.656c-1.216-0.392-2.44-0.768-3.672-1.136c-2.336-0.704-4.688-1.376-7.048-2.008    c-1.464-0.392-2.936-0.784-4.408-1.144c-2.176-0.536-4.368-1.04-6.56-1.52c-1.624-0.352-3.248-0.712-4.88-1.032    c-2.12-0.416-4.256-0.784-6.392-1.144c-1.688-0.288-3.376-0.584-5.08-0.832c-2.184-0.32-4.376-0.576-6.568-0.84    c-1.664-0.2-3.32-0.416-4.992-0.584c-2.456-0.24-4.92-0.4-7.384-0.56c-1.416-0.096-2.824-0.224-4.248-0.296    C247.864,0.104,243.936,0,240,0c-3.936,0-7.864,0.104-11.776,0.296c-1.424,0.072-2.832,0.2-4.248,0.296    c-2.464,0.168-4.936,0.328-7.384,0.56c-1.672,0.16-3.328,0.384-4.992,0.584c-2.192,0.264-4.384,0.52-6.568,0.84    c-1.704,0.248-3.384,0.544-5.08,0.832c-2.136,0.36-4.272,0.728-6.392,1.144c-1.632,0.32-3.256,0.68-4.88,1.032    c-2.192,0.48-4.384,0.976-6.56,1.52c-1.48,0.368-2.944,0.752-4.408,1.144c-2.36,0.632-4.704,1.304-7.048,2.008    c-1.224,0.368-2.456,0.752-3.672,1.136c-2.624,0.84-5.232,1.728-7.824,2.656c-0.896,0.32-1.784,0.64-2.672,0.968    c-2.992,1.112-5.96,2.288-8.912,3.52c-0.456,0.192-0.92,0.376-1.384,0.576c-24.736,10.504-47.752,25.152-68,43.648    c-0.272,0.248-0.48,0.56-0.712,0.84C29.888,107.472,0,170.304,0,240s29.888,132.528,77.488,176.408    c0.232,0.28,0.44,0.584,0.712,0.84c20.248,18.496,43.264,33.144,68,43.648c0.456,0.192,0.92,0.384,1.384,0.576    c2.944,1.232,5.912,2.408,8.912,3.52c0.888,0.328,1.784,0.648,2.672,0.968c2.592,0.928,5.2,1.816,7.824,2.656    c1.216,0.392,2.44,0.768,3.672,1.136c2.336,0.704,4.688,1.376,7.048,2.008c1.464,0.392,2.936,0.784,4.408,1.144    c2.176,0.536,4.368,1.04,6.56,1.52c1.624,0.352,3.248,0.712,4.88,1.032c2.12,0.416,4.256,0.784,6.392,1.144    c1.688,0.288,3.376,0.584,5.08,0.832c2.184,0.32,4.376,0.576,6.568,0.84c1.664,0.2,3.32,0.416,4.992,0.584    c2.456,0.24,4.92,0.4,7.384,0.56c1.416,0.096,2.824,0.224,4.248,0.296c3.912,0.184,7.84,0.288,11.776,0.288    c3.936,0,7.864-0.104,11.776-0.296c1.424-0.072,2.832-0.2,4.248-0.296c2.464-0.168,4.936-0.328,7.384-0.56    c1.672-0.16,3.328-0.384,4.992-0.584c2.192-0.264,4.384-0.52,6.568-0.84c1.704-0.248,3.384-0.544,5.08-0.832    c2.136-0.36,4.272-0.728,6.392-1.144c1.632-0.32,3.256-0.68,4.88-1.032c2.192-0.48,4.384-0.976,6.56-1.52    c1.48-0.368,2.944-0.752,4.408-1.144c2.36-0.632,4.704-1.304,7.048-2.008c1.224-0.368,2.456-0.752,3.672-1.136    c2.624-0.84,5.232-1.728,7.824-2.656c0.896-0.32,1.784-0.64,2.672-0.968c2.992-1.112,5.96-2.288,8.912-3.52    c0.456-0.192,0.92-0.376,1.384-0.576c24.736-10.504,47.752-25.152,68-43.648c0.272-0.248,0.48-0.56,0.712-0.84    C450.112,372.528,480,309.696,480,240S450.112,107.472,402.512,63.592z M463.8,232h-55.944    c-1.272-55.088-15.56-105.536-38.656-145.216c8.864-2.64,17.272-5.592,25.248-8.8C435.44,117.088,461.656,171.512,463.8,232z     M330.152,35c1.568,0.696,3.144,1.408,4.712,2.144c4.28,2,8.496,4.136,12.648,6.408c1.792,0.984,3.552,2.032,5.32,3.064    c3.184,1.864,6.328,3.816,9.432,5.832c2.472,1.616,4.904,3.288,7.312,5c2.616,1.856,5.184,3.776,7.728,5.752    c1.248,0.968,2.496,1.928,3.72,2.92c-6.552,2.376-13.56,4.512-20.752,6.536c-10.56-15.48-22.56-28.92-35.696-39.904    C326.432,33.512,328.312,34.192,330.152,35z M248,16.344c0.136,0.008,0.272,0.016,0.408,0.016    c36.864,2.976,70.248,25.424,95.544,60.432C314.776,83.472,281.864,87.32,248,87.848V16.344z M231.592,16.36    c0.136-0.008,0.272-0.016,0.408-0.016v71.504c-33.864-0.528-66.776-4.376-95.952-11.056    C161.344,41.784,194.728,19.336,231.592,16.36z M102.704,63.2c2.536-1.976,5.112-3.896,7.728-5.752    c2.408-1.712,4.84-3.384,7.312-5c3.104-2.024,6.24-3.976,9.432-5.832c1.768-1.032,3.52-2.072,5.32-3.064    c4.152-2.272,8.368-4.408,12.648-6.408c1.568-0.736,3.144-1.44,4.736-2.144c1.832-0.808,3.72-1.496,5.568-2.248    c-13.136,10.984-25.144,24.424-35.696,39.904c-7.192-2.016-14.2-4.152-20.752-6.536C100.216,65.128,101.464,64.168,102.704,63.2z     M85.56,77.984c7.976,3.208,16.384,6.152,25.248,8.8C87.712,126.464,73.424,176.912,72.152,232H16.2    C18.344,171.512,44.56,117.088,85.56,77.984z M16.2,248h55.936c1.272,55.088,15.56,105.536,38.656,145.216    c-8.864,2.64-17.272,5.592-25.248,8.8C44.56,362.912,18.344,308.488,16.2,248z M149.872,444.992    c-1.584-0.688-3.168-1.4-4.736-2.136c-4.28-2-8.496-4.136-12.648-6.408c-1.792-0.984-3.544-2.024-5.304-3.056    c-3.192-1.864-6.336-3.816-9.44-5.848c-2.472-1.616-4.904-3.288-7.312-5c-2.616-1.856-5.184-3.776-7.728-5.752    c-1.248-0.968-2.496-1.928-3.72-2.92c6.552-2.376,13.56-4.512,20.752-6.536c10.56,15.48,22.56,28.92,35.696,39.904    C153.576,446.488,151.704,445.8,149.872,444.992z M232,463.656c-0.136-0.008-0.272-0.016-0.408-0.016    c-36.864-2.976-70.248-25.424-95.544-60.432c29.176-6.68,62.088-10.528,95.952-11.056V463.656z M126.6,388.952    C102.616,349.336,88,297.144,88,240c0-57.144,14.616-109.336,38.6-148.952C160.528,99.44,199.296,104,240,104    s79.472-4.56,113.4-12.952C377.384,130.664,392,182.856,392,240s-14.616,109.336-38.6,148.952C319.472,380.56,280.704,376,240,376    C199.296,376,160.528,380.56,126.6,388.952z M248.408,463.64c-0.136,0.008-0.272,0.016-0.408,0.016v-71.504    c33.864,0.528,66.776,4.376,95.952,11.056C318.656,438.216,285.272,460.664,248.408,463.64z M377.296,416.8    c-2.536,1.976-5.112,3.896-7.728,5.752c-2.4,1.712-4.832,3.384-7.312,5c-3.104,2.024-6.248,3.976-9.44,5.848    c-1.76,1.032-3.512,2.072-5.304,3.056c-4.152,2.272-8.368,4.408-12.648,6.408c-1.568,0.736-3.152,1.448-4.736,2.144    c-1.832,0.808-3.712,1.488-5.568,2.248c13.136-10.984,25.144-24.424,35.696-39.904c7.192,2.016,14.2,4.152,20.752,6.536    C379.784,414.872,378.536,415.832,377.296,416.8z M394.44,402.016c-7.976-3.208-16.384-6.152-25.248-8.8    c23.096-39.68,37.384-90.128,38.656-145.216h55.936C461.656,308.488,435.44,362.912,394.44,402.016z" data-original="#000000" class="active-path" data-old_color="#000000" fill="#555555"/>
	</g>
</g><g>
	<g>
		<path d="M344,240c4.424,0,8-3.576,8-8v-32c0-0.064-0.032-0.12-0.04-0.184c-0.024-0.976-0.208-1.928-0.568-2.824    c-0.088-0.216-0.24-0.384-0.344-0.584c-0.328-0.64-0.712-1.248-1.2-1.784c-0.24-0.264-0.52-0.456-0.792-0.688    c-0.296-0.248-0.528-0.544-0.864-0.752l-104-64c-2.576-1.576-5.816-1.576-8.392,0l-104,64c-0.336,0.208-0.568,0.504-0.864,0.752    c-0.272,0.224-0.552,0.424-0.792,0.688c-0.496,0.536-0.88,1.144-1.208,1.792c-0.104,0.2-0.256,0.368-0.336,0.576    c-0.36,0.896-0.544,1.848-0.568,2.824c0,0.064-0.032,0.12-0.032,0.184v32c0,4.424,3.576,8,8,8h16v64h-16c-4.424,0-8,3.576-8,8v32    c0,4.424,3.576,8,8,8h208c4.424,0,8-3.576,8-8v-32c0-4.424-3.576-8-8-8h-16v-64H344z M240,145.392L315.736,192H164.264    L240,145.392z M336,320v16H144v-16h16h32h32h32h32h32H336z M168,304v-64h16v64H168z M200,304v-64h16v64H200z M232,304v-64h16v64    H232z M264,304v-64h16v64H264z M296,304v-64h16v64H296z M320,224h-32h-32h-32h-32h-32h-16v-16h192v16H320z" data-original="#000000" class="active-path" data-old_color="#000000" fill="#555555"/>
	</g>
</g></g> </svg>
