<?xml version="1.0"?>
<svg xmlns="http://www.w3.org/2000/svg" xmlns:xlink="http://www.w3.org/1999/xlink" version="1.1" id="Capa_1" x="0px" y="0px" viewBox="0 0 512 512" style="enable-background:new 0 0 512 512;" xml:space="preserve" width="512px" height="512px" class=""><g><g>
	<g transform="translate(1 1)">
		<path style="fill:#CFD8DC;" d="M494.957,67.225c-6.968-6.98-17.341-9.308-26.624-5.973c-3.598,1.241-6.866,3.283-9.557,5.973    l-41.643,41.643l-51.2,51.2l-51.2,51.2l-70.827,70.827c3.328-1.621,36.693,35.669,36.693,35.669l34.133-34.133l51.2-51.2    l51.2-51.2l51.2-51.2l26.624-26.624c4.807-4.793,7.509-11.302,7.509-18.091S499.765,72.018,494.957,67.225z" data-original="#CFD8DC" class=""/>
		<g>
			<polygon style="fill:#E60000" points="365.933,160.068 365.933,232.431 314.733,283.631 314.733,211.268    " data-original="#E91E63" class="active-path" data-old_color="#E91E63"/>
			<path style="fill:#E60000" d="M468.333,61.252v68.779l-51.2,51.2v-72.363l41.643-41.643     C461.468,64.535,464.736,62.493,468.333,61.252z" data-original="#E91E63" class="active-path" data-old_color="#E91E63"/>
		</g>
		<polygon style="fill:#E60000" points="229.4,91.801 24.6,91.801 24.6,450.201 229.4,450.201 229.4,305.135   " data-original="#C52828" class="" data-old_color="#C52828"/>
		<polygon style="fill:#F44335;" points="195.267,91.801 24.6,91.801 24.6,450.201 195.267,450.201 195.267,305.135   " data-original="#F44335" class=""/>
		<path style="fill:#D84315;" d="M7.533,66.201h238.933v25.6c0,9.426-7.641,17.067-17.067,17.067H24.6    c-9.426,0-17.067-7.641-17.067-17.067V66.201z" data-original="#D84315"/>
		<path style="fill:#E60000" d="M7.533,66.201h213.333v25.6c0,9.426-7.641,17.067-17.067,17.067H24.6    c-9.426,0-17.067-7.641-17.067-17.067V66.201z" data-original="#FF5722" class="" data-old_color="#FF5722"/>
		<path style="fill:#B6DBF8" d="M67.267,143.001h119.467c4.713,0,8.533,3.82,8.533,8.533v128c0,4.713-3.821,8.533-8.533,8.533    H67.267c-4.713,0-8.533-3.821-8.533-8.533v-128C58.733,146.822,62.554,143.001,67.267,143.001z" data-original="#00BCD4" class="" data-old_color="#00BCD4"/>
		<g>
			<path style="fill:#E60000" d="M118.467,245.401h17.067c9.426,0,17.067,7.641,17.067,17.067v25.6h-51.2v-25.6     C101.4,253.042,109.041,245.401,118.467,245.401z" data-original="#FF5722" class="" data-old_color="#FF5722"/>
			<path style="fill:#E60000" d="M75.8,322.201h102.4c4.713,0,8.533,3.82,8.533,8.533v76.8c0,4.713-3.82,8.533-8.533,8.533H75.8     c-4.713,0-8.533-3.82-8.533-8.533v-76.8C67.267,326.022,71.087,322.201,75.8,322.201z" data-original="#FF5722" class="" data-old_color="#FF5722"/>
		</g>
		<path style="fill:#607D8B;" d="M280.6,305.135v145.067h-51.2V305.135c0-14.138,11.462-25.6,25.6-25.6    C269.139,279.535,280.6,290.996,280.6,305.135z" data-original="#607D8B" class=""/>
	</g>
	<g>
		<path d="M503.467,442.668H486.4c-4.713,0-8.533,3.82-8.533,8.533s3.82,8.533,8.533,8.533h17.067c4.713,0,8.533-3.821,8.533-8.533    S508.18,442.668,503.467,442.668z" data-original="#000000" class="" style="fill:#000000"/>
		<path d="M187.733,135.468H68.267c-9.422,0.009-17.057,7.645-17.067,17.067v128c0.009,9.422,7.645,17.057,17.067,17.067h119.467    c9.422-0.009,17.057-7.645,17.067-17.067v-128C204.791,143.113,197.155,135.477,187.733,135.468z M110.933,280.535v-17.067    c0.006-4.71,3.823-8.527,8.533-8.533h17.067c4.71,0.006,8.527,3.823,8.533,8.533v17.067H110.933z M162.133,280.535v-17.067    c-0.015-14.132-11.468-25.585-25.6-25.6h-17.067c-14.132,0.015-25.585,11.468-25.6,25.6v17.067h-25.6v-128h119.467l0.012,128    H162.133z" data-original="#000000" class="" style="fill:#000000"/>
		<path d="M179.2,314.668H76.8c-9.422,0.009-17.057,7.645-17.067,17.067v76.8c0.009,9.422,7.645,17.057,17.067,17.067h102.4    c9.422-0.009,17.057-7.645,17.067-17.067v-76.8C196.257,322.313,188.622,314.677,179.2,314.668z M76.8,408.535v-76.8h102.4    l0.012,76.8H76.8z" data-original="#000000" class="" style="fill:#000000"/>
		<path d="M153.6,348.801h-51.2c-4.713,0-8.533,3.82-8.533,8.533s3.821,8.533,8.533,8.533h51.2c4.713,0,8.533-3.82,8.533-8.533    S158.313,348.801,153.6,348.801z" data-original="#000000" class="" style="fill:#000000"/>
		<path d="M153.6,374.401h-51.2c-4.713,0-8.533,3.82-8.533,8.533s3.821,8.533,8.533,8.533h51.2c4.713,0,8.533-3.82,8.533-8.533    S158.313,374.401,153.6,374.401z" data-original="#000000" class="" style="fill:#000000"/>
		<path d="M466.28,54.335c-0.109,0.042-0.228,0.053-0.334,0.099c-4.581,1.675-8.744,4.322-12.204,7.759l-41.639,41.639l-0.005,0.005    l-51.195,51.195l-0.005,0.005l-51.195,51.195l-0.005,0.005l-70.212,70.212c-0.183,0.102-0.371,0.195-0.552,0.3V116.829    c10.199-3.593,17.033-13.215,17.066-24.028v-25.6c0-4.713-3.82-8.533-8.533-8.533H8.533C3.821,58.668,0,62.489,0,67.201v25.6    c0.033,10.813,6.868,20.435,17.067,24.027v325.84H8.533c-4.713,0-8.533,3.82-8.533,8.533s3.821,8.533,8.533,8.533h443.733    c4.713,0,8.533-3.821,8.533-8.533s-3.82-8.533-8.533-8.533H290.133V322.297l31.631-31.631l0.005-0.005l51.195-51.195l0.005-0.005    l51.195-51.195l0.005-0.005l51.195-51.195l0.005-0.005l26.622-26.622c6.382-6.409,9.979-15.076,10.008-24.12    c0.006-11.116-5.416-21.535-14.525-27.907C488.366,52.04,476.72,50.518,466.28,54.335L466.28,54.335z M460.8,79.268v48.229    l-34.133,34.133v-48.229L460.8,79.268z M266.304,273.764l40.896-40.896v48.229l-17.858,17.858    C286.718,287.043,277.934,277.439,266.304,273.764z M324.267,215.801l34.133-34.133v48.229l-34.133,34.133V215.801z     M375.467,164.601l34.133-34.133v48.229l-34.133,34.133V164.601z M17.067,75.735h221.867v17.067    c-0.006,4.71-3.823,8.527-8.533,8.533H25.6c-4.71-0.006-8.527-3.823-8.533-8.533V75.735z M34.133,118.401h187.733v324.267H34.133    V118.401z M238.933,442.668V306.135c0-9.426,7.641-17.067,17.067-17.067c9.426,0,17.067,7.641,17.067,17.067v136.533H238.933z     M489.925,98.372l-12.058,12.058V69.272c4.523-0.008,8.862,1.787,12.058,4.988c3.206,3.193,5.008,7.531,5.008,12.056    S493.131,95.179,489.925,98.372z" data-original="#000000" class="" style="fill:#000000"/>
		<path d="M263.85,311.422c-0.188-0.543-0.448-1.058-0.771-1.533c-0.338-0.429-0.679-0.854-1.021-1.279    c-2.453-2.425-6.125-3.133-9.304-1.796c-1.044,0.413-1.999,1.023-2.813,1.796c-0.341,0.425-0.683,0.85-1.025,1.279    c-0.323,0.475-0.582,0.991-0.771,1.533c-0.246,0.484-0.417,1.002-0.508,1.537c-0.1,0.564-0.157,1.136-0.171,1.709    c0.012,1.115,0.243,2.216,0.679,3.242c0.414,1.045,1.023,2.001,1.796,2.817c0.83,0.752,1.781,1.358,2.813,1.792    c1.027,0.438,2.13,0.67,3.246,0.683c0.571-0.016,1.141-0.073,1.704-0.171c0.535-0.095,1.053-0.267,1.537-0.512    c0.544-0.187,1.062-0.447,1.538-0.771c0.425-0.337,0.85-0.679,1.279-1.021c0.77-0.817,1.378-1.773,1.792-2.817    c0.437-1.026,0.669-2.127,0.683-3.242c-0.015-0.573-0.072-1.144-0.171-1.708C264.268,312.425,264.095,311.907,263.85,311.422z" data-original="#000000" class="" style="fill:#000000"/>
	</g>
</g></g> </svg>
