<svg id="Capa_1" enable-background="new 0 0 512 512" height="512" viewBox="0 0 512 512" width="512" xmlns="http://www.w3.org/2000/svg"><g><g><g><g><g><circle cx="256" cy="256" fill="#ffe377" r="256"/></g></g></g></g><path d="m511.75 266.97-70.998-70.998-10.436 13.044-136.846-136.846 26.371 89.71-78.869-78.869-100.431 152.276-44.208-8.954-16.969 13.62 87.583 87.583-44.564 82.291 99.97 99.971c11.012 1.445 22.241 2.202 33.647 2.202 137.708 0 250.002-108.736 255.75-245.03z" fill="#ffd944"/><g><g><g><g><path d="m256.124 409.827h-133.741l-33.79-183.075h167.531l29.91 96.372z" fill="#ff415b"/></g><path d="m389.617 409.827h-133.741v-183.075h167.531z" fill="#f9163d"/></g></g><g><g><path d="m256.214 307.176h-17.044v-40.135h17.044l3.236 20.693z" fill="#ffe377"/><path d="m256.187 267.041h17.044v40.135h-17.044z" fill="#ffd944"/></g><g><path d="m256.214 378.429h-17.044v-40.135h17.044l3.236 20.693z" fill="#ffe377"/><path d="m256.187 338.294h17.044v40.135h-17.044z" fill="#ffd944"/></g><path d="m308.529 267.041v40.135h34.061v-40.135zm0 111.388h34.061v-40.135h-34.061z" fill="#ffd944"/><path d="m169.811 267.041v40.135h34.061v-40.135zm0 111.388h34.061v-40.135h-34.061z" fill="#ffe377"/></g><path d="m274.773 239.953-18.911-43.981h-184.615l8.117 43.981z" fill="#f9163d"/><path d="m432.636 239.953 8.117-43.981h-184.891v43.981z" fill="#c8001c"/><path d="m352.252 186.629c-.819 0-1.628.04-2.432.099l-56.35-114.558-22.042 10.842 56.347 114.554c-5.217 5.818-8.394 13.503-8.394 21.933 0 18.153 14.716 32.869 32.87 32.869s32.869-14.716 32.869-32.869-14.715-32.87-32.868-32.87z" fill="#39326c"/><path d="m240.972 83.011-22.041-10.841-56.349 114.558c-.804-.059-1.613-.099-2.432-.099-18.153 0-32.87 14.716-32.87 32.87s14.716 32.869 32.87 32.869 32.87-14.716 32.87-32.869c0-8.43-3.177-16.115-8.394-21.933z" fill="#514899"/><ellipse cx="160.149" cy="219.498" fill="#8078be" rx="13.774" ry="13.774" transform="matrix(.383 -.924 .924 .383 -103.927 283.459)"/><ellipse cx="352.252" cy="219.498" fill="#514899" rx="13.774" ry="13.774" transform="matrix(.383 -.924 .924 .383 14.661 460.938)"/></g></g></svg>