<svg id="Capa_1" enable-background="new 0 0 512 512" height="512" viewBox="0 0 512 512" width="512" xmlns="http://www.w3.org/2000/svg"><g><g><g><g><g><g><g><circle cx="256" cy="256" fill="#ff6c52" r="256"/></g></g></g></g></g></g><path d="m511.237 275.909-223.245-223.245h-37.992l-125.998 346.092 112.514 112.514c6.431.484 12.929.73 19.484.73 134.685 0 245.077-104.01 255.237-236.091z" fill="#f43425"/><g><ellipse cx="256" cy="412.441" fill="#fdba12" rx="45.786" ry="45.786" transform="matrix(.155 -.988 .988 .155 -191.164 601.355)"/></g><g><path d="m256 366.655c-.061 0-.121.004-.182.004v91.563c.061 0 .121.005.182.005 25.287 0 45.786-20.5 45.786-45.786 0-25.287-20.499-45.786-45.786-45.786z" fill="#ff9500"/></g><g><path d="m256 126.541c-24.198 0-43.884-19.687-43.884-43.884 0-24.198 19.687-43.884 43.884-43.884s43.884 19.687 43.884 43.884-19.686 43.884-43.884 43.884zm0-57.769c-7.656 0-13.884 6.229-13.884 13.884 0 7.656 6.229 13.884 13.884 13.884 7.656 0 13.884-6.229 13.884-13.884s-6.228-13.884-13.884-13.884z" fill="#fdba12"/></g><g><path d="m256 38.772c-.061 0-.121.004-.182.005v30.004c.061-.001.12-.009.182-.009 7.656 0 13.884 6.229 13.884 13.884s-6.228 13.885-13.884 13.885c-.061 0-.121-.008-.182-.009v30.004c.061 0 .121.005.182.005 24.198 0 43.884-19.687 43.884-43.884s-19.686-43.885-43.884-43.885z" fill="#ff9500"/></g><g><path d="m387.998 398.756h-263.996l29.544-198.858c7.543-50.769 51.128-88.357 102.454-88.357 51.326 0 94.911 37.588 102.454 88.357z" fill="#ffce00"/></g><g><path d="m358.454 199.897c-7.543-50.769-51.128-88.356-102.454-88.356-.061 0-.121.004-.182.004v287.211h132.18z" fill="#fdba12"/></g></g></svg>