<svg id="Capa_1" enable-background="new 0 0 512 512" height="512" viewBox="0 0 512 512" width="512" xmlns="http://www.w3.org/2000/svg"><g><g><path d="m330.927 186.276v41.626h16.65c5.747 0 10.406-4.659 10.406-10.406v-20.813c0-5.747-4.659-10.406-10.406-10.406h-16.65z" fill="#fcd0a3"/><path d="m181.073 186.276v41.626h-16.65c-5.747 0-10.407-4.659-10.407-10.406v-20.813c0-5.747 4.659-10.406 10.407-10.406h16.65z" fill="#fcd0a3"/><path d="m292.418 320.651 34.897 6.318c51.734 9.366 89.354 54.408 89.354 106.983h-321.338c0-52.575 37.62-97.617 89.354-106.983l34.897-6.318z" fill="#7fd061"/><path d="m327.315 326.969-6.928-1.254c31.476 25.911 51.124 65.105 51.124 108.237h45.157c.001-52.576-37.619-97.618-89.353-106.983z" fill="#51be26"/><path d="m256 389.203c35.855 0 65.349-27.675 68.291-62.782l-31.873-5.77h-72.837l-31.873 5.77c2.943 35.107 32.437 62.782 68.292 62.782z" fill="#fff"/><path d="m256 357.069c-20.113 0-36.418-16.305-36.418-36.418v-25.707h72.837v25.707c-.001 20.113-16.306 36.418-36.419 36.418z" fill="#fcd0a3"/><path d="m219.582 318.857c11.242 4.604 23.538 7.15 36.418 7.15s25.176-2.546 36.418-7.15v-23.913h-72.837v23.913z" fill="#ffb983"/><path d="m181.038 164.423c-.01 0-.017-.027-.017-.017v65.199c0 41.599 33.877 75.286 75.548 74.977 41.342-.307 74.41-34.575 74.41-75.918v-64.241z" fill="#fcd0a3"/><path d="m304.201 229.605c0 36.837-26.573 67.447-61.59 73.763 4.347.784 8.816 1.216 13.389 1.216 41.41 0 74.979-33.569 74.979-74.979v-65.182h-26.778z" fill="#ffb983"/><path d="m181.073 141.528v44.748h83.252c11.495 0 20.813-9.318 20.813-20.813v-61.398c0-13.794-11.182-24.976-24.976-24.976h-16.65c-34.484 0-62.439 27.955-62.439 62.439z" fill="#595959"/><path d="m285.138 104.065v61.398c0 11.495 9.318 20.813 20.813 20.813h24.976v-40.585c0-22.989-18.637-41.626-41.626-41.626z" fill="#434343"/></g><path d="m357.771 0h-203.543c-2.732 0-5.353 1.085-7.284 3.017l-143.927 143.927c-1.932 1.932-3.017 4.552-3.017 7.284v203.543c0 2.732 1.085 5.353 3.017 7.284l143.927 143.927c1.932 1.932 4.552 3.017 7.284 3.017h203.543c2.732 0 5.353-1.085 7.284-3.017l143.927-143.927c1.932-1.932 3.017-4.552 3.017-7.284v-203.543c0-2.732-1.085-5.353-3.017-7.284l-143.926-143.927c-1.932-1.932-4.552-3.017-7.285-3.017zm-313.128 164.186 119.543-119.543c1.932-1.932 4.552-3.017 7.284-3.017h169.06c2.732 0 5.353 1.085 7.284 3.017l37.77 37.77c4.023 4.023 4.023 10.546 0 14.569l-288.602 288.602c-4.023 4.023-10.546 4.023-14.569 0l-37.77-37.77c-1.932-1.932-3.017-4.552-3.017-7.284v-169.06c0-2.732 1.085-5.352 3.017-7.284zm422.714 183.628-119.543 119.543c-1.932 1.932-4.552 3.017-7.284 3.017h-169.06c-2.732 0-5.353-1.085-7.284-3.017l-37.77-37.77c-4.023-4.023-4.023-10.546 0-14.569l288.602-288.602c4.023-4.023 10.546-4.023 14.569 0l37.77 37.77c1.932 1.932 3.017 4.552 3.017 7.285v169.059c0 2.732-1.085 5.352-3.017 7.284z" fill="#fb636f"/><path d="m403.275 41.237c16.632 28.368 28.515 59.857 34.522 93.389l29.56 29.56c1.932 1.932 3.017 4.552 3.017 7.284v169.06c0 2.732-1.085 5.353-3.017 7.284l-119.543 119.543c-1.932 1.932-4.552 3.017-7.284 3.017h-173.327s-6.758 0-10.065 0c-18.435 0-36.455-1.771-53.916-5.113l43.722 43.722c1.932 1.932 4.552 3.017 7.284 3.017h203.543c2.732 0 5.353-1.085 7.284-3.017l143.927-143.927c1.932-1.932 3.017-4.552 3.017-7.284v-203.544c0-2.732-1.085-5.353-3.017-7.284z" fill="#fa4954"/></g></svg>