<?xml version="1.0" encoding="iso-8859-1"?>
<!-- Generator: Adobe Illustrator 19.0.0, SVG Export Plug-In . SVG Version: 6.00 Build 0)  -->
<svg xmlns="http://www.w3.org/2000/svg" xmlns:xlink="http://www.w3.org/1999/xlink" version="1.1" id="Layer_1" x="0px" y="0px" viewBox="0 0 512 512" style="enable-background:new 0 0 512 512;" xml:space="preserve" width="512" height="512">
<g>
	<ellipse style="fill:#F36986;" cx="256" cy="256" rx="248.459" ry="248.5"/>
	<path style="fill:#F33759;" d="M408.548,59.851c32.798,42.112,52.343,95.057,52.343,152.573c0,137.243-111.239,248.5-248.46,248.5   c-57.506,0-110.443-19.548-152.548-52.352C105.347,466.947,176.286,504.5,256,504.5c137.22,0,248.46-111.257,248.46-248.5   C504.46,176.273,466.913,105.323,408.548,59.851z"/>
	<path style="fill:#FFD2E3;" d="M147.618,147.6c-59.858,59.868-59.858,156.932,0,216.8s156.907,59.868,216.765,0   s59.858-156.932,0-216.8S207.476,87.732,147.618,147.6z M182.087,329.925c-34.841-34.847-39.938-88.17-15.305-128.431   l143.715,143.738C270.242,369.87,216.928,364.772,182.087,329.925z M345.027,310.82L201.189,166.958   c40.291-24.856,93.792-19.821,128.724,15.117S369.879,270.522,345.027,310.82z"/>
	<g>
		<path style="fill:#FFBBD7;" d="M364.382,147.6c-35.674-35.68-84.557-50.09-130.905-43.241c31.42,4.643,61.676,19.053,85.86,43.241    c59.858,59.868,59.858,156.932,0,216.8c-24.184,24.188-54.44,38.598-85.86,43.241c46.348,6.849,95.231-7.561,130.905-43.241    C424.24,304.532,424.24,207.468,364.382,147.6z"/>
	</g>
</g>
<g>
	<path d="M436.991,74.981C388.646,26.629,324.369,0,256,0S123.354,26.629,75.009,74.981C26.665,123.333,0.041,187.62,0.041,256   s26.624,132.667,74.968,181.019C123.354,485.371,187.631,512,256,512c59.286,0,117.082-20.74,162.742-58.398   c3.195-2.636,3.649-7.363,1.014-10.558c-2.637-3.196-7.362-3.648-10.559-1.014C366.218,477.478,311.812,497,256,497   c-64.362,0-124.872-25.068-170.384-70.587C40.105,380.894,15.041,320.374,15.041,256S40.105,131.106,85.616,85.587   C131.128,40.068,191.638,15,256,15s124.872,25.068,170.384,70.587c45.511,45.519,70.575,106.04,70.575,170.413   c0,58.556-21.25,115.007-59.836,158.954c-2.733,3.112-2.426,7.851,0.688,10.584c3.111,2.732,7.851,2.424,10.584-0.688   c40.99-46.685,63.564-106.65,63.564-168.85C511.959,187.62,485.335,123.333,436.991,74.981z"/>
	<path d="M240.903,95.906c-37.149,3.484-72.162,19.959-98.589,46.392c-62.687,62.696-62.687,164.709,0,227.405   c30.366,30.372,70.74,47.098,113.686,47.098s83.319-16.727,113.686-47.098c62.687-62.696,62.687-164.709,0-227.405   c-24.383-24.388-55.235-40.03-89.221-45.236c-4.086-0.626-7.922,2.184-8.549,6.278c-0.628,4.095,2.183,7.922,6.277,8.549   c30.807,4.719,58.775,18.901,80.885,41.014c56.839,56.848,56.839,149.346,0,206.194c-27.533,27.538-64.141,42.704-103.078,42.704   s-75.545-15.166-103.078-42.704c-56.839-56.848-56.839-149.346,0-206.194c23.962-23.966,55.705-38.904,89.382-42.063   c4.124-0.387,7.154-4.043,6.767-8.167C248.685,98.548,245.038,95.519,240.903,95.906z"/>
	<path d="M215.975,261.303c2.929,2.929,7.678,2.931,10.606,0.001c2.93-2.929,2.93-7.677,0.001-10.606l-54.497-54.505   c-1.625-1.625-3.909-2.416-6.188-2.145c-2.282,0.271-4.314,1.573-5.514,3.534c-12.9,21.085-18.478,46.299-15.705,70.997   c2.857,25.455,13.959,48.502,32.104,66.651c18.146,18.149,41.19,29.252,66.642,32.11c4.144,0.465,8.298,0.695,12.448,0.695   c20.586,0,40.993-5.666,58.538-16.404c1.96-1.2,3.262-3.231,3.532-5.513c0.271-2.282-0.519-4.562-2.144-6.187l-64.204-64.215   c-2.93-2.929-7.679-2.931-10.606-0.001c-2.93,2.929-2.93,7.677-0.001,10.606l57.131,57.141   c-36.87,17.863-81.195,10.699-110.729-18.839c-29.534-29.54-36.698-73.87-18.838-110.749L215.975,261.303z"/>
	<path d="M345.027,318.32c0.289,0,0.58-0.017,0.871-0.051c2.277-0.266,4.309-1.56,5.513-3.512   c13.013-21.102,18.672-46.367,15.933-71.144c-2.782-25.165-14.191-48.903-32.127-66.841c-17.936-17.938-41.67-29.35-66.832-32.132   c-24.772-2.743-50.035,2.92-71.133,15.936c-1.952,1.204-3.245,3.234-3.512,5.512c-0.267,2.277,0.524,4.552,2.146,6.173   l143.838,143.862C341.139,317.538,343.05,318.32,345.027,318.32z M266.736,159.548c22.102,2.444,42.114,12.067,57.873,27.829   c15.76,15.762,25.381,35.778,27.825,57.884c2.019,18.257-1.222,36.814-9.165,53.193L213.552,168.715   C229.927,160.771,248.485,157.53,266.736,159.548z"/>
</g>















</svg>
