<svg id="Layer_5" enable-background="new 0 0 64 64" height="512" viewBox="0 0 64 64" width="512" xmlns="http://www.w3.org/2000/svg" xmlns:xlink="http://www.w3.org/1999/xlink"><linearGradient id="SVGID_1_" gradientUnits="userSpaceOnUse" x1="32" x2="32" y1="63" y2="1"><stop offset="0" stop-color="#9f2fff"/><stop offset="1" stop-color="#0bb1d3"/></linearGradient><path d="m56 25h-20c-1.958 0-3.728.81-5 2.111v-8.111-2-1c0-8.271-6.729-15-15-15s-15 6.729-15 15v1 2 44h33 2 20 2 5v-2h-2.184c.112-.314.184-.648.184-1v-3.184c1.161-.414 2-1.514 2-2.816v-22c0-3.86-3.141-7-7-7zm-15 16v-2h-6v2h2v2h-6v-10h14v10h-6v-2zm-10 19c0 .352.072.686.184 1h-.184zm8-31c0 .551-.448 1-1 1s-1-.449-1-1 .448-1 1-1 1 .449 1 1zm1.22-2h11.56c-.48.532-.78 1.229-.78 2s.301 1.468.78 2h-11.56c.48-.532.78-1.229.78-2s-.301-1.468-.78-2zm12.78 2c0-.551.448-1 1-1s1 .449 1 1-.448 1-1 1-1-.449-1-1zm-6 4h14v10h-14zm13.899-2h-4.679c.48-.532.78-1.229.78-2 0-.76-.293-1.447-.76-1.976 2.305.112 4.21 1.774 4.659 3.976zm-25.139-3.976c-.467.529-.76 1.216-.76 1.976 0 .771.301 1.468.78 2h-4.679c.449-2.202 2.354-3.864 4.659-3.976zm-6.76 4.976v22 7h-2v-42h2zm-20 15h-1c-.352 0-.686.072-1 .184v-14.184h1c.552 0 1 .449 1 1zm-2 3c0-.551.448-1 1-1h12c.552 0 1 .449 1 1v1h-14zm12 3v8h-2v-8zm2 0h2v-3c0-1.654-1.346-3-3-3h-9v-13c0-1.654-1.346-3-3-3h-1v-12h18v42h-4zm4-36h-18v-1c0-4.962 4.037-9 9-9s9 4.038 9 9zm-22-1c0-7.168 5.832-13 13-13s13 5.832 13 13v1h-2v-1c0-6.065-4.935-11-11-11s-11 4.935-11 11v1h-2zm2 45h-2v-42h2v12 17 2 3zm2-8h8v8h-8zm27 8c-.552 0-1-.449-1-1v-3h4v3c0 .551-.448 1-1 1zm15-10h-6v-2h6zm-6 2h6v2h-6zm10 4v3c0 .352.072.686.184 1h-14.368c.112-.314.184-.648.184-1v-3zm3 4c-.552 0-1-.449-1-1v-3h4v3c0 .551-.448 1-1 1zm4-6h-9v-8h-10v8h-9c-.552 0-1-.449-1-1v-9h30v9c0 .551-.448 1-1 1zm-4-8c-1.654 0-3 1.346-3 3s1.346 3 3 3 3-1.346 3-3-1.346-3-3-3zm0 4c-.552 0-1-.449-1-1s.448-1 1-1 1 .449 1 1-.448 1-1 1zm-20-4c-1.654 0-3 1.346-3 3s1.346 3 3 3 3-1.346 3-3-1.346-3-3-3zm0 4c-.552 0-1-.449-1-1s.448-1 1-1 1 .449 1 1-.448 1-1 1z" fill="url(#SVGID_1_)"/></svg>