<?xml version="1.0"?>
<svg xmlns="http://www.w3.org/2000/svg" height="512px" viewBox="-1 0 462 462.3012" width="512px"><g><path d="m344.851562 41.300781c-16.183593.074219-31.625 6.800781-42.699218 18.597657-23.203125 24-23.402344 63-.601563 86.902343l34.699219 36.398438c1.871094 1.980469 4.476562 3.101562 7.199219 3.101562 2.726562 0 5.328125-1.121093 7.203125-3.101562l35.199218-36.800781c23.199219-24 23.398438-63.097657.597657-87-10.753907-11.542969-25.820313-18.101563-41.597657-18.097657zm26.800782 91.199219-28 29.300781-27.5-28.800781c-15.5-16.199219-15.300782-42.898438.5-59.300781 7.289062-7.835938 17.492187-12.324219 28.199218-12.398438 10.34375.054688 20.214844 4.359375 27.300782 11.898438 15.5 16.199219 15.296875 42.902343-.5 59.300781zm0 0" data-original="#000000" class="active-path" data-old_color="#000000" fill="#555555"/><path d="m343.550781 69.699219c-17.285156 0-31.300781 14.015625-31.300781 31.300781s14.015625 31.300781 31.300781 31.300781c17.285157 0 31.300781-14.015625 31.300781-31.300781-.027343-17.277344-14.023437-31.273438-31.300781-31.300781zm0 42.699219c-6.242187 0-11.300781-5.058594-11.300781-11.296876 0-6.242187 5.058594-11.300781 11.300781-11.300781 6.242188 0 11.300781 5.058594 11.300781 11.300781-.03125 6.226563-5.070312 11.269532-11.300781 11.296876zm0 0" data-original="#000000" class="active-path" data-old_color="#000000" fill="#555555"/><path d="m343.851562 0c-40.429687.0390625-77.925781 21.101562-99 55.601562l-203-1.300781h-.199218c-10.933594.003907-21.425782 4.316407-29.203125 12-7.816407 7.667969-12.246094 18.148438-12.296875 29.097657v277.601562c0 15.300781 9 28.601562 21 35.699219v28.300781c.050781 6.753906 2.792968 13.210938 7.613281 17.9375 4.824219 4.730469 11.332031 7.34375 18.085937 7.261719h33.5c14.097657 0 25.800782-11.097657 25.800782-25.199219v-22.699219h172v22.800781c-.039063 6.710938 2.617187 13.160157 7.371094 17.894532 4.757812 4.738281 11.214843 7.371094 17.925781 7.304687h33.5c6.703125.0625 13.148437-2.574219 17.890625-7.3125 4.738281-4.738281 7.371094-11.1875 7.3125-17.886719v-28.300781c13.078125-7.085937 21.160156-20.828125 21-35.699219v-148c46.011718-16.539062 76.671875-60.207031 76.597656-109.101562 0-64-52-116-115.898438-116zm-317.300781 80.5c4.019531-3.976562 9.445313-6.207031 15.101563-6.199219h.097656l193.402344 1.199219c-3.925782 10.265625-6.347656 21.042969-7.203125 32l-207.796875-1.398438v-10.703124c.066406-5.617188 2.371094-10.980469 6.398437-14.898438zm-6.398437 164.898438v-119.296876l161 1.097657v118.902343zm66 191.703124c0 3.097657-2.800782 5.199219-5.800782 5.199219h-33.5c-1.449218.078125-2.867187-.429687-3.941406-1.40625-1.070312-.980469-1.703125-2.34375-1.757812-3.792969v-22.902343c.164062.042969.328125.078125.5.101562h44.5zm256 0c.058594 1.394532-.46875 2.753907-1.457032 3.742188-.988281.988281-2.347656 1.515625-3.746093 1.457031h-33.5c-1.40625.0625-2.777344-.460937-3.78125-1.445312-1.003907-.988281-1.554688-2.347657-1.515625-3.753907v-22.800781h43.898437c.054688 0 .101563-.046875.101563-.101562zm-.101563-42.800781h-300.398437c-11.773438-.066406-21.328125-9.53125-21.5-21.300781v-107.601562l166.097656.703124c1.472656.804688 3.125 1.21875 4.800781 1.199219 1.644531.019531 3.265625-.394531 4.699219-1.199219l167.402344.699219v106.199219c.046875 11.707031-9.394532 21.238281-21.101563 21.300781zm21.101563-147.5-162-.699219v-118.800781l27.296875.199219c6.003906 59.246094 55.851562 104.34375 115.402343 104.398438 6.5-.007813 12.984376-.542969 19.398438-1.597657v16.5zm-19.300782-34.902343c-53.019531 0-96-42.980469-96-96 0-53.019532 42.980469-96 96-96 53.019532 0 96 42.980468 96 96-.085937 52.984374-43.015624 95.917968-96 96zm0 0" data-original="#000000" class="active-path" data-old_color="#000000" fill="#555555"/><path d="m349.152344 315.300781c-.019532-5.515625-4.484375-9.984375-10-10h-54c-5.519532.015625-9.984375 4.484375-10 10v37c.015625 5.515625 4.480468 9.984375 10 10h54c5.515625-.015625 9.980468-4.484375 10-10zm-19 27h-35v-17h35zm0 0" data-original="#000000" class="active-path" data-old_color="#000000" fill="#555555"/><path d="m108.152344 315.300781c-.019532-5.515625-4.484375-9.984375-10-10h-54c-5.519532.015625-9.984375 4.484375-10 10v37c.015625 5.515625 4.480468 9.984375 10 10h54c5.515625-.015625 9.980468-4.484375 10-10zm-20 27h-34v-17h34zm0 0" data-original="#000000" class="active-path" data-old_color="#000000" fill="#555555"/><path d="m242.851562 344.300781h-101.902343c-5.519531 0-10 4.476563-10 10 0 5.523438 4.480469 10 10 10h101.902343c5.523438 0 10-4.476562 10-10 0-5.523437-4.476562-10-10-10zm0 0" data-original="#000000" class="active-path" data-old_color="#000000" fill="#555555"/><path d="m242.851562 309.300781h-101.902343c-5.519531 0-10 4.476563-10 10 0 5.523438 4.480469 10 10 10h101.902343c5.523438 0 10-4.476562 10-10 0-5.523437-4.476562-10-10-10zm0 0" data-original="#000000" class="active-path" data-old_color="#000000" fill="#555555"/></g> </svg>
