<?xml version="1.0" encoding="iso-8859-1"?>
<!-- Generator: Adobe Illustrator 19.0.0, SVG Export Plug-In . SVG Version: 6.00 Build 0)  -->
<svg version="1.1" id="Layer_1" xmlns="http://www.w3.org/2000/svg" xmlns:xlink="http://www.w3.org/1999/xlink" x="0px" y="0px"
	 viewBox="0 0 491.52 491.52" style="enable-background:new 0 0 491.52 491.52;" xml:space="preserve">
<path style="fill:#64798A;" d="M457.952,368.137c-2.979-10.948-10.341-20.181-20.352-25.52l-92.819-49.502L254.88,491.52h236.64
	L457.952,368.137z"/>
<polygon style="fill:#3A556A;" points="299.314,491.52 377.85,417.118 335.482,387.151 377.85,374.75 344.781,293.115 
	254.88,491.52 "/>
<path style="fill:#64798A;" d="M33.568,368.137c2.979-10.948,10.341-20.181,20.352-25.52l92.819-49.502L236.64,491.52H0
	L33.568,368.137z"/>
<polygon style="fill:#3A556A;" points="192.206,491.52 113.67,417.118 156.038,387.151 113.67,374.75 146.738,293.115 
	236.64,491.52 "/>
<circle style="fill:#DC8744;" cx="245.76" cy="157.686" r="157.686"/>
<circle style="fill:#FCD462;" cx="245.76" cy="157.686" r="128.41"/>
<path style="fill:#DC8744;" d="M240.981,247.847v-15.879c-19.879-2.027-37.722-9.93-53.512-23.703l15.879-18.923
	c12.178,10.586,24.711,16.887,37.633,18.923v-42.2c-16.392-3.913-28.394-9.064-36.005-15.445
	c-7.611-6.381-11.418-15.843-11.418-28.384c0-12.542,4.372-22.8,13.152-30.783c8.78-7.974,20.198-12.32,34.271-13.046V67.529h13.914
	v11.09c15.949,1.169,31.031,6.603,45.245,16.321l-14.143,20.012c-9.577-6.815-19.931-11.02-31.102-12.621v40.891h0.655
	c16.675,3.921,28.925,9.214,36.749,15.878c7.841,6.674,11.754,16.357,11.754,29.04c0,12.692-4.496,23.03-13.489,30.995
	c-8.992,7.984-20.87,12.329-35.668,13.056v15.657H240.981z M225.633,107.445c-3.7,3.257-5.541,7.32-5.541,12.179
	c0,4.859,1.451,8.701,4.354,11.524c2.886,2.832,8.409,5.55,16.534,8.16v-37.633C234.449,102.259,229.332,104.18,225.633,107.445z
	 M271.427,202.822c4.054-3.327,6.089-7.532,6.089-12.612c0-5.071-1.593-9.098-4.779-12.072c-3.204-2.974-9.152-5.762-17.843-8.374
	v39.147C261.85,208.194,267.355,206.159,271.427,202.822z"/>
<g>
</g>
<g>
</g>
<g>
</g>
<g>
</g>
<g>
</g>
<g>
</g>
<g>
</g>
<g>
</g>
<g>
</g>
<g>
</g>
<g>
</g>
<g>
</g>
<g>
</g>
<g>
</g>
<g>
</g>
</svg>
