<?xml version="1.0"?>
<svg xmlns="http://www.w3.org/2000/svg" id="Layer_1" data-name="Layer 1" viewBox="0 0 512 512" width="512" height="512"><title>Call center </title><path d="M363.244,469.962a79.605,79.605,0,0,1-65.406-125.071A79.63,79.63,0,1,0,408.649,455.7,79.193,79.193,0,0,1,363.244,469.962Z" style="fill:#d4e1f4"/><path d="M354.729,167H349v-1.379c0-11.746-9-21.53-20-23.506V120.646a110.65,110.65,0,1,0-221.294,1.222l.233,21.619a23.658,23.658,0,0,0-15.7,17.013,29.79,29.79,0,0,0,16.734,34.254L77.805,292.979a6,6,0,0,0,4.286,7.641c1.166.287,22.866,5.452,54.732,5.451,8.037,0,16.177-.337,26.177-1.155v6.611l-54.71,23.252c-.11.048-.333.1-.442.153a56.189,56.189,0,0,0-30.726,45.232c-.013.165-.122.332-.122.5v78A6.375,6.375,0,0,0,83.09,465H273V453H240V354.63a106.219,106.219,0,0,0,40.049-20.858l18.158,7.749,4.961-11.038L259,311.527V304.7c12,1.069,27.79,1.3,28.52,1.3h0a6.1,6.1,0,0,0,4.945-2.7l4.617-6.767,2.054,5.171a5.96,5.96,0,0,0,5.965,3.769c21.689-1.392,35.305-4.7,35.875-4.842a6.161,6.161,0,0,0,4.385-7.646L322,219.031V205h2.738C337.9,205,349,194.623,349,181.457V179h5.729a6,6,0,1,0,0-12ZM317,120.646V142H303.881A5.686,5.686,0,0,0,298,147.744v23.7a89.1,89.1,0,0,1-20.173-6.481c-16.3-7.635-26.645-19.274-30.75-34.621A94.9,94.9,0,0,0,267.391,107.7a6,6,0,0,0-10.107-6.486c-28.678,44.641-89.551,47.914-137.35,42.219l-.165-14.908c3.947.338,9.394.656,16,.656a210.162,210.162,0,0,0,34.469-2.849c42.511-7.109,77.819-27.22,102.1-58.157a6,6,0,1,0-9.44-7.41c-22.648,28.853-54.361,46.909-94.257,53.667a195.411,195.411,0,0,1-48.868,2.031,98.763,98.763,0,0,1,3.439-22.113c3.148.269,7.773.545,13.567.545a193.9,193.9,0,0,0,36.367-3.482c48.171-9.267,78.423-34.411,95.9-55.3A98.69,98.69,0,0,1,317,120.646Zm-7,86.909v28.219c0,8.579-7.181,15.226-15.759,15.226h-4.679A86.546,86.546,0,0,0,310,207.555ZM148.185,51.306a98.569,98.569,0,0,1,109.9-20.873c-22.169,25.69-51.328,42.2-86.786,49.112a179.508,179.508,0,0,1-44.029,3.047A98.46,98.46,0,0,1,148.185,51.306Zm-44.8,116.287a17.83,17.83,0,0,1,.508-4.239,11.817,11.817,0,0,1,9.023-8.786,6.044,6.044,0,0,0,.815.173,304.872,304.872,0,0,0,40.14,2.822c33.691,0,61.567-6.722,82.88-19.921,5.765,16.8,18.218,29.966,36.358,38.359A96.669,96.669,0,0,0,298,183.649v15.686a5.158,5.158,0,0,0,.416,2.178c-1.286,17.779-9,33.487-24.952,49.487h-.323a17.74,17.74,0,0,0-16.828-13H216.036A17.1,17.1,0,0,0,199,255.311v4.043C199,268.9,206.493,277,216.036,277h11.576a99.884,99.884,0,0,1-17.329,1.566c-48.124,0-87.283-39.321-87.283-87.445v-.142a6,6,0,0,0-4.958-5.91A17.7,17.7,0,0,1,103.385,167.593ZM247,311.849c-23,10.067-50,10.068-72,0V283.74a98.5,98.5,0,0,0,35.765,6.657A101.537,101.537,0,0,0,247,283.569Zm15-52.157A5.307,5.307,0,0,1,256.693,265H216.307A5.307,5.307,0,0,1,211,259.692v-4.384A5.307,5.307,0,0,1,216.307,250h40.386A5.307,5.307,0,0,1,262,255.308ZM147.332,293.857l3.142-13.673a6.042,6.042,0,0,0-11.759-2.78l-3.973,16.629a264.837,264.837,0,0,1-43.469-3.8L114.7,217.118A97.769,97.769,0,0,0,163,278.14v14.729C157,293.36,152.293,293.679,147.332,293.857ZM89,380.92c1-14.958,10.494-28.405,23.9-35.177L141,333.775a113.058,113.058,0,0,0,34,18.943V453H89ZM228,389H215.06a6,6,0,1,0,0,12H228v18H215.06a6,6,0,1,0,0,12H228v22H187V356.088c8,1.673,15.332,2.912,23.22,2.912h.3A112.843,112.843,0,0,0,228,357.246Zm39.417-60.621a98.04,98.04,0,0,1-113.776,0l14.564-6.216a101.51,101.51,0,0,0,84.638,0Zm41.263-35.211L304.1,281.589a6,6,0,0,0-10.525-1.194l-8.947,13.375c-5.375-.065-16.632-.3-25.632-1.115V277.909c1-.686,2.208-1.389,3.415-2.13.171-.105.212-.385.369-.5A16.61,16.61,0,0,0,273.141,263h21.1A27.433,27.433,0,0,0,318.6,248.469l13.2,41.691C326.726,291.072,318.775,292.358,308.68,293.168ZM337,181.457c0,6.55-5.713,11.543-12.262,11.543H310V154h14.738c6.549,0,12.262,5.072,12.262,11.621Z" style="fill:#0635c9"/><path d="M162,205.537a6,6,0,0,0,6-6V184.545a6,6,0,1,0-12,0v14.992A6,6,0,0,0,162,205.537Z" style="fill:#0635c9"/><path d="M258,205.537a6,6,0,0,0,6-6V184.545a6,6,0,1,0-12,0v14.992A6,6,0,0,0,258,205.537Z" style="fill:#0635c9"/><path d="M343.244,501.962A91.666,91.666,0,1,0,251.577,410.3,91.77,91.77,0,0,0,343.244,501.962Zm0-171.332A79.666,79.666,0,1,1,263.577,410.3,79.756,79.756,0,0,1,343.244,330.63Z" style="fill:#1ae5be"/><path d="M330.536,409.67c-.072,0-.144-.244-.216-.245L313.309,409h-.065a6.27,6.27,0,0,0-4.168,10.68l42.089,40.7a5.981,5.981,0,1,0,8.336-8.58l-31.237-30.155,1.927.023a31.312,31.312,0,0,0,22.379-8.988,30.74,30.74,0,0,0,8.832-15.994l11.5.316h.066a6.169,6.169,0,0,0,6-6.128,6.086,6.086,0,0,0-5.936-6.161l-11.512-.171a31.679,31.679,0,0,0-6.069-13.653L373.18,371h.065a5.96,5.96,0,1,0,.064-11.92l-42.442-.676-17.012-.4h-.065a6.206,6.206,0,0,0-6,6.17,6.1,6.1,0,0,0,5.936,6.182l17.011.241a19.574,19.574,0,0,1,18.41,13.748L313.582,384h-.065a5.992,5.992,0,0,0-.064,11.983l35.571.379a19.493,19.493,0,0,1-18.488,13.308Z" style="fill:#1ae5be"/></svg>
