<svg id="Capa_1" enable-background="new 0 0 512 512" height="512" viewBox="0 0 512 512" width="512" xmlns="http://www.w3.org/2000/svg"><g><g><g><g><g><g><g><circle cx="256" cy="256" fill="#ff6c52" r="256"/></g></g></g></g></g></g><path d="m511.523 271.75-218.114-218.115-37.409-8.225-49.104 39.932 49.524 49.524-15.42 25.806 22.385 22.385-22.385 18.914 29.782 29.782-145.385 24.247-54.351 128.419 119.006 119.005c21.041 5.595 43.146 8.576 65.948 8.576 136.096 0 247.387-106.201 255.523-240.25z" fill="#f92814"/><path d="m271 235.087v-19.216h-30v19.216h-136.74v77.601h30v-47.601h106.74v47.601h30v-47.601h106.74v54.117h30v-84.117z" fill="#555a66"/><path d="m271 235.087v-19.216h-14.879v96.817h14.879v-47.601h106.74v54.117h30v-84.117z" fill="#333940"/><g><g><path d="m205.815 383.798c-8.575-10.874-13.693-24.601-13.693-39.524 0-35.279 28.599-63.877 63.877-63.877s63.877 28.599 63.877 63.877c0 14.926-5.12 28.657-13.699 39.532z" fill="#7584f2"/></g><g><path d="m319.877 344.274c0-35.238-28.534-63.809-63.757-63.874v103.402l50.058.004c8.58-10.875 13.699-24.606 13.699-39.532z" fill="#606aea"/></g><g><g><path d="m289.849 395.225h-67.699v-74.411c0-18.694 15.155-33.849 33.849-33.849 18.694 0 33.849 15.155 33.849 33.849v74.411z" fill="#ffce00"/></g><g><path d="m289.849 320.813c0-18.654-15.09-33.781-33.729-33.846v108.257h33.729z" fill="#fdba12"/></g><g><g><path d="m267.197 354.077v-15.958h-22.395v15.958c0 2.664-1.034 5.155-2.786 7.019l13.984 28.165 13.983-28.165c-1.751-1.864-2.786-4.355-2.786-7.019z" fill="#e09380"/></g><g><path d="m267.197 354.077v-15.958h-11.197v50.899l13.983-27.922c-1.751-1.864-2.786-4.355-2.786-7.019z" fill="#d47f6c"/></g><g><path d="m256 373.802-13.983-12.706c-.995 1.059-2.22 1.917-3.623 2.484l-20.436 8.259c-5.511 2.227-9.861 6.556-12.136 11.967 11.698 14.828 29.826 24.346 50.178 24.346.354 0 .701-.025 1.053-.031v-35.276z" fill="#a3d4ff"/></g><g><path d="m306.178 383.805c-2.275-5.411-6.624-9.74-12.136-11.967l-20.436-8.259c-1.404-.567-2.628-1.425-3.624-2.484l-13.982 12.707.121 34.346c20.302-.038 38.383-9.544 50.057-24.343z" fill="#65b1fc"/></g><g><path d="m256 373.802-7.82 9.582-13.593-18.266 7.43-4.022z" fill="#dbeeff"/></g><g><path d="m256 373.802 7.82 9.582 13.593-18.266-7.43-4.022z" fill="#a3d4ff"/></g></g><g><path d="m263.826 308.951-33.387 16.853v5.59c0 14.117 11.444 25.561 25.561 25.561 14.117 0 25.561-11.444 25.561-25.561v-8.362z" fill="#faa68e"/></g><g><path d="m263.826 308.951-7.705 3.889-.121 44.115.121-.003c14.061-.065 25.44-11.481 25.44-25.558v-8.362z" fill="#e09380"/></g></g></g><g><g><g><path d="m71.047 384.42c-8.898-10.973-14.23-24.955-14.23-40.183 0-35.258 28.582-63.84 63.84-63.84s63.841 28.582 63.841 63.84c0 15.228-5.332 29.211-14.23 40.183z" fill="#7584f2"/></g><g><g><path d="m131.74 355.127v-15.795h-22.166v15.795c0 2.637-1.024 5.103-2.758 6.947l13.841 27.878 13.841-27.878c-1.734-1.844-2.758-4.31-2.758-6.947z" fill="#e09380"/></g><g><path d="m158.312 372.708-20.228-8.174c-1.389-.561-2.601-1.411-3.586-2.459l-13.841 12.577-13.841-12.577c-.985 1.048-2.197 1.897-3.586 2.459l-20.228 8.174c-5.41 2.186-9.689 6.418-11.956 11.712 11.704 14.433 29.58 23.658 49.611 23.658 20.03 0 37.906-9.225 49.611-23.658-2.267-5.294-6.546-9.526-11.956-11.712z" fill="#a3d4ff"/></g><g><g><g><g><g><path d="m120.657 357.976c-13.973 0-25.3-11.327-25.3-25.3v-13.319c0-13.973 11.327-25.3 25.3-25.3 13.973 0 25.3 11.327 25.3 25.3v13.319c0 13.973-11.327 25.3-25.3 25.3z" fill="#faa68e"/></g></g></g></g></g><g><path d="m120.657 374.651-7.74 9.485-13.455-18.08 7.354-3.982z" fill="#dbeeff"/></g><g><path d="m120.657 374.651 7.74 9.485 13.455-18.08-7.354-3.982z" fill="#dbeeff"/></g></g></g><g><g><path d="m341.732 384.42c-8.898-10.973-14.23-24.955-14.23-40.183 0-35.258 28.582-63.84 63.84-63.84s63.841 28.582 63.841 63.84c0 15.228-5.332 29.211-14.23 40.183z" fill="#606aea"/></g><g><g><path d="m402.426 355.127v-15.795h-22.166v15.795c0 2.637-1.024 5.103-2.758 6.947l13.841 27.878 13.841-27.878c-1.734-1.844-2.758-4.31-2.758-6.947z" fill="#cc6d58"/></g><g><path d="m428.998 372.708-20.228-8.174c-1.389-.561-2.601-1.411-3.586-2.459l-13.841 12.577-13.841-12.577c-.985 1.048-2.197 1.897-3.586 2.459l-20.228 8.174c-5.41 2.186-9.689 6.418-11.956 11.712 11.705 14.433 29.58 23.658 49.611 23.658 20.03 0 37.906-9.225 49.611-23.658-2.267-5.294-6.546-9.526-11.956-11.712z" fill="#65b1fc"/></g><g><g><g><g><g><path d="m391.343 357.976c-13.973 0-25.3-11.327-25.3-25.3v-13.319c0-13.973 11.327-25.3 25.3-25.3 13.973 0 25.3 11.327 25.3 25.3v13.319c0 13.973-11.327 25.3-25.3 25.3z" fill="#d47f6c"/></g></g></g></g></g><g><path d="m391.343 374.651-7.74 9.485-13.455-18.08 7.354-3.982z" fill="#a3d4ff"/></g><g><path d="m391.343 374.651 7.74 9.485 13.455-18.08-7.354-3.982z" fill="#a3d4ff"/></g></g></g></g><g><path d="m271 160.672h-30v-11.945c0-19.151 9.534-36.878 25.503-47.422 5.633-3.719 8.843-9.97 8.586-16.721-.376-9.904-8.427-17.955-18.329-18.331-5.26-.198-10.231 1.691-14.006 5.324-3.777 3.636-5.857 8.525-5.857 13.765h-30c0-13.469 5.345-26.033 15.05-35.377 9.702-9.341 22.453-14.202 35.952-13.691 25.482.968 46.202 21.688 47.169 47.17.659 17.313-7.578 33.349-22.034 42.895-7.536 4.975-12.034 13.344-12.034 22.387z" fill="#fff"/></g><g><path d="m305.067 83.444c-.967-25.483-21.687-46.202-47.169-47.17-.595-.023-1.186-.022-1.778-.023v30.009c.214.001.424-.016.639-.007 9.902.376 17.953 8.427 18.329 18.331.257 6.75-2.953 13.001-8.586 16.721-3.853 2.544-7.322 5.515-10.382 8.815v50.552h14.88v-11.946c0-9.043 4.498-17.412 12.033-22.387 14.456-9.546 22.694-25.582 22.034-42.895z" fill="#e9edf5"/></g><g><path d="m241 174.604h30v27.367h-30z" fill="#fff"/></g><g><path d="m256.121 174.604h14.879v27.366h-14.879z" fill="#e9edf5"/></g></g></svg>