<svg height="512pt" viewBox="0 -30 512.001 512" width="512pt" xmlns="http://www.w3.org/2000/svg"><path d="m442 226c0 102.726562-83.273438 186-186 186s-186-83.273438-186-186 83.273438-186 186-186 186 83.273438 186 186zm0 0" fill="#fac800"/><path d="m110.050781 236.691406c2.667969-.011718 5.179688-1.0625 7.058594-2.960937 1.878906-1.898438 2.902344-4.421875 2.890625-7.089844-.03125-5.492187-4.511719-9.949219-10-9.949219h-.050781c-2.667969.007813-5.167969 1.070313-7.050781 2.957032-1.878907 1.902343-2.910157 4.421874-2.898438 7.089843.03125 5.492188 4.511719 9.953125 10 9.953125zm0 0"/><path d="m112.578125 196.808594c5.273437 1.394531 10.84375-1.691406 12.300781-7 6.089844-22.148438 17.859375-42.570313 34.042969-59.058594 3.867187-3.929688 3.808594-10.28125-.132813-14.140625-3.910156-3.832031-10.304687-3.765625-14.140624.128906-9.417969 9.601563-17.558594 20.351563-24.179688 31.941407-6.4375 11.257812-11.4375 23.320312-14.878906 35.828124-1.460938 5.324219 1.679687 10.832032 6.988281 12.300782zm0 0"/><path d="m125.21875 263.429688c-1.496094-5.25-7.140625-8.328126-12.359375-6.878907-5.300781 1.507813-8.378906 7.058594-6.871094 12.359375 3.5625 12.480469 8.671875 24.480469 15.210938 35.679688 6.730469 11.53125 14.96875 22.199218 24.488281 31.71875 3.699219 3.699218 10.238281 3.90625 14.140625 0 3.902344-3.898438 3.902344-10.238282 0-14.136719-16.339844-16.351563-28.308594-36.660156-34.609375-58.742187zm0 0"/><path d="m401.949219 215.308594c-2.667969.011718-5.179688 1.0625-7.058594 2.960937-1.882813 1.902344-2.910156 4.421875-2.890625 7.089844.019531 5.480469 4.507812 9.949219 9.988281 9.949219h.050781c5.519532-.027344 9.980469-4.527344 9.960938-10.046875-.03125-5.480469-4.511719-9.953125-10-9.953125zm0 0"/><path d="m399.410156 255.199219c-.871094-.238281-1.761718-.359375-2.652344-.359375-4.441406 0-8.457031 3.054687-9.636718 7.351562-6.089844 22.148438-17.871094 42.570313-34.050782 59.058594-3.859374 3.929688-3.800781 10.277344.140626 14.140625 3.90625 3.828125 10.304687 3.765625 14.136718-.128906 9.421875-9.601563 17.5625-20.351563 24.183594-31.941407 6.429688-11.261718 11.4375-23.320312 14.878906-35.832031 1.460938-5.316406-1.679687-10.828125-7-12.289062zm0 0"/><path d="m352.171875 129.832031c16.339844 16.347657 28.308594 36.65625 34.609375 58.738281 1.492188 5.234376 7.136719 8.34375 12.347656 6.878907 5.3125-1.507813 8.390625-7.058594 6.882813-12.359375-3.5625-12.480469-8.671875-24.480469-15.210938-35.679688-6.730469-11.527344-14.96875-22.199218-24.492187-31.71875-3.859375-3.859375-10.285156-3.875-14.136719-.003906-3.859375 3.878906-3.886719 10.28125 0 14.144531zm0 0"/><path d="m280 325v36c0 5.523438 4.476562 10 10 10s10-4.476562 10-10v-36.9375c25.289062-4.710938 44.5-26.929688 44.5-53.5625 0-30.050781-24.449219-54.5-54.5-54.5h-65.5c-19.023438 0-34.5-15.476562-34.5-34.5s15.476562-34.5 34.5-34.5h55.472656c.109375 0 11.140625.117188 21.675782 4.5625 12.347656 5.207031 18.351562 13.855469 18.351562 26.4375 0 5.523438 4.480469 10 10 10 5.523438 0 10-4.476562 10-10 0-20.851562-11.082031-36.875-31.203125-45.125-6.78125-2.78125-13.53125-4.242188-18.796875-5.015625v-36.859375c0-5.523438-4.476562-10-10-10-5.519531 0-10 4.476562-10 10v36h-36v-36c0-5.523438-4.476562-10-10-10s-10 4.476562-10 10v37.027344c-25.042969 4.90625-44 27.015625-44 53.472656 0 30.050781 24.449219 54.5 54.5 54.5h65.5c19.023438 0 34.5 15.476562 34.5 34.5s-15.476562 34.5-34.5 34.5h-58c-.109375 0-11.273438-.125-22.105469-4.707031-13.386719-5.667969-19.894531-15.246094-19.894531-29.292969 0-5.523438-4.476562-10-10-10s-10 4.476562-10 10c0 22.007812 11.402344 38.953125 32.105469 47.710938 7.203125 3.046874 14.378906 4.617187 19.894531 5.425781v36.863281c0 5.523438 4.476562 10 10 10s10-4.476562 10-10v-36zm0 0"/><path d="m508.617188 404.503906-34-30c-4.140626-3.65625-10.460938-3.257812-14.113282.878906-3.65625 4.140626-3.261718 10.460938.878906 14.117188l14.167969 12.5h-133.359375c64.976563-31.949219 109.808594-98.832031 109.808594-176 0-108.074219-87.925781-196-196-196h-219.550781l14.167969-12.5c4.140624-3.65625 4.535156-9.976562.878906-14.117188-3.652344-4.140624-9.972656-4.535156-14.113282-.878906l-34 30c-2.152343 1.894532-3.382812 4.628906-3.382812 7.496094 0 2.871094 1.230469 5.601562 3.382812 7.5 0 0 33.964844 29.964844 34 30 3.972657 3.503906 10.480469 3.234375 14.117188-.882812 3.652344-4.140626 3.257812-10.460938-.882812-14.113282l-14.167969-12.503906h133.359375c-64.976563 31.953125-109.808594 98.835938-109.808594 176 0 108.074219 87.925781 196 196 196h219.550781l-14.167969 12.5c-4.140624 3.65625-4.535156 9.972656-.878906 14.113281 3.453125 3.914063 10.058594 4.460938 14.113282.886719l34-30c2.152343-1.898438 3.382812-4.628906 3.382812-7.5s-1.230469-5.601562-3.382812-7.496094zm-428.617188-178.503906c0-97.046875 78.953125-176 176-176s176 78.953125 176 176-78.953125 176-176 176-176-78.953125-176-176zm0 0"/></svg>