<?xml version="1.0"?>
<svg xmlns="http://www.w3.org/2000/svg" id="Capa_1" enable-background="new 0 0 512 512" height="512px" viewBox="0 0 512 512" width="512px"><g><g><path d="m512 174.527c0-93.384-75.974-169.358-169.359-169.358-93.384 0-169.358 75.974-169.358 169.358 0 8.341.612 16.482 1.809 24.57h-175.092v307.733l76.977-68.579h261.068v-94.438c1.533.041 3.066.073 4.595.073 21.29 0 41.981-3.888 61.602-11.567l85.931 39.711-12.573-95.182c22.229-29.312 34.4-65.387 34.4-102.321zm-203.99 233.689h-242.471l-35.503 31.629v-210.71h277.974zm96.724-108.758-6.193 2.716c-17.666 7.748-36.472 11.676-55.9 11.676-1.53 0-3.063-.027-4.595-.077v-84.639h64.443v-30.036h-196.961c-1.47-8.093-2.21-16.211-2.21-24.57 0-76.823 62.5-139.322 139.322-139.322 76.823 0 139.323 62.5 139.323 139.322 0 32.212-11.251 63.626-31.68 88.456l-4.146 5.039 7.115 53.858z" data-original="#000000" class="active-path" data-old_color="#000000" fill="#FFFFFF"/><path d="m90.924 310.189h30.037v30.036h-30.037z" data-original="#000000" class="active-path" data-old_color="#000000" fill="#FFFFFF"/><path d="m154.004 310.189h30.038v30.036h-30.038z" data-original="#000000" class="active-path" data-old_color="#000000" fill="#FFFFFF"/><path d="m217.083 310.189h30.038v30.036h-30.038z" data-original="#000000" class="active-path" data-old_color="#000000" fill="#FFFFFF"/><path d="m272.325 138.606h130.164v30.036h-130.164z" data-original="#000000" class="active-path" data-old_color="#000000" fill="#FFFFFF"/></g></g> </svg>
