<?xml version="1.0" encoding="iso-8859-1"?>
<!-- Generator: Adobe Illustrator 19.0.0, SVG Export Plug-In . SVG Version: 6.00 Build 0)  -->
<svg version="1.1" id="Capa_1" xmlns="http://www.w3.org/2000/svg" xmlns:xlink="http://www.w3.org/1999/xlink" x="0px" y="0px"
	 viewBox="0 0 512.001 512.001" style="enable-background:new 0 0 512.001 512.001;" xml:space="preserve">
<path style="fill:#FFE451;" d="M336.147,207.913c70.85,0,128.235,57.385,128.235,128.235s-57.385,128.235-128.235,128.235
	s-128.235-57.385-128.235-128.235S265.297,207.913,336.147,207.913z"/>
<path style="fill:#D9EEF7;" d="M295.993,172.729c12.824-3.205,26.288-4.889,40.154-4.889c2.645,0,5.21,0.08,7.774,0.24
	c89.364,4.007,160.533,77.742,160.533,168.067c0,92.971-75.338,168.307-168.307,168.307c-90.326,0-164.06-71.09-168.067-160.454
	c-0.16-2.565-0.24-5.21-0.24-7.855c0-13.866,1.683-27.33,4.889-40.154C187.555,235.323,235.322,187.555,295.993,172.729z
	 M464.381,336.147c0-70.85-57.385-128.235-128.235-128.235s-128.235,57.385-128.235,128.235s57.385,128.235,128.235,128.235
	S464.381,406.997,464.381,336.147z"/>
<path style="fill:#AAC4DA;" d="M260.809,90.899c21.079,20.998,34.383,49.851,35.184,81.829
	c-60.671,14.827-108.438,62.595-123.265,123.266c-29.895-0.721-57.145-12.423-77.742-31.257
	c-24.204-21.96-39.352-53.698-39.352-88.883c0-33.181,13.464-63.236,35.264-84.955c21.719-21.8,51.774-35.264,84.955-35.264
	S239.09,69.099,260.809,90.899z"/>
<g>
	<path style="fill:#D9EEF7;" d="M167.839,336.147c0,2.645,0.08,5.29,0.24,7.855h-0.24c-41.276-2.004-78.624-18.754-106.835-45.283
		l33.983-33.982c20.598,18.834,47.848,30.536,77.742,31.257C169.522,308.817,167.839,322.282,167.839,336.147z"/>
	<path style="fill:#D9EEF7;" d="M294.871,56.836l-34.062,34.062c-21.719-21.8-51.774-35.264-84.955-35.264V7.546
		C222.338,7.546,264.416,26.381,294.871,56.836z"/>
	<path style="fill:#D9EEF7;" d="M56.836,56.836l34.062,34.062c-21.8,21.72-35.264,51.775-35.264,84.956H7.546
		C7.546,129.369,26.381,87.292,56.836,56.836z"/>
</g>
<g>
	<path style="fill:#FD6149;" d="M343.921,168.08c-2.565-0.16-5.129-0.24-7.774-0.24c-13.865,0-27.33,1.683-40.154,4.889
		c-0.802-31.978-14.105-60.831-35.184-81.829l34.062-34.062C323.644,85.61,341.997,124.72,343.921,168.08z"/>
	<path style="fill:#FD6149;" d="M175.854,7.546v48.088c-33.181,0-63.236,13.464-84.955,35.264L56.836,56.836
		C87.291,26.381,129.369,7.546,175.854,7.546z"/>
	<path style="fill:#FD6149;" d="M94.986,264.736l-33.983,33.982c-32.94-30.615-53.457-74.375-53.457-122.863h48.088
		C55.634,211.038,70.781,242.776,94.986,264.736z"/>
</g>
<path style="fill:#AAC4DA;" d="M295.961,172.289c-0.614,0.334-1.25,0.631-1.858,0.972c0.637-0.163,1.252-0.376,1.891-0.532
	C295.989,172.58,295.965,172.437,295.961,172.289z"/>
<path style="fill:#9BB3C7;" d="M95.707,159.825c0-33.181,13.464-63.236,35.264-84.956c6.417-6.441,13.633-12.046,21.371-16.898
	c-23.751,4.719-44.994,16.416-61.445,32.928c-21.8,21.719-35.264,51.775-35.264,84.956c0,35.185,15.148,66.922,39.352,88.882
	c20.598,18.835,47.848,30.536,77.742,31.257c1.81-7.403,4.125-14.606,6.879-21.589c-16.733-5.296-31.902-14.135-44.548-25.697
	C110.855,226.747,95.707,195.009,95.707,159.825z"/>
<path style="fill:#FFC751;" d="M272.029,336.147c0-59.758,40.882-109.787,96.176-124.036c-10.264-2.644-20.967-4.199-32.059-4.199
	c-70.85,0-128.235,57.385-128.235,128.235s57.384,128.235,128.235,128.235c11.092,0,21.795-1.555,32.059-4.199
	C312.911,445.935,272.029,395.905,272.029,336.147z"/>
<path style="fill:#231F20;" d="M445.014,198.054l-9.348,11.848c38.921,30.707,61.243,76.722,61.243,126.246
	c0,88.644-72.117,160.762-160.763,160.762c-86.163,0-156.676-67.313-160.529-153.245l-0.007-0.134
	c-0.15-2.393-0.226-4.878-0.226-7.383c0-13.052,1.57-25.946,4.673-38.362c14.261-58.355,59.371-103.465,117.766-117.736
	c12.379-3.095,25.273-4.663,38.324-4.663c0.156,0,0.307,0.006,0.462,0.007c0.001,0.155,0.007,0.306,0.007,0.462h10.842
	c25.792,1.787,50.918,9.812,72.895,23.344l7.912-12.85c-23.335-14.368-49.911-23.065-77.246-25.356
	c-3.425-41.327-21.309-79.987-50.812-109.489C266.997,18.29,222.833,0.001,175.854,0.001S84.711,18.29,51.501,51.501
	C18.29,84.711,0,128.874,0,175.854c0,47.851,19.754,93.946,54.223,126.824l6.746,6.746l0.308-0.308
	c27.897,24.104,62.844,38.818,99.708,41.977c3.545,42.683,22.393,82.272,53.54,112.096C247.396,494.666,290.589,512,336.147,512
	c96.966,0,175.854-78.887,175.854-175.853C512,281.974,487.584,231.641,445.014,198.054z M60.938,288.114
	c-27.461-27.987-43.796-65.452-45.659-104.715H48.32c1.818,30.54,14.609,59.528,35.909,81.422L60.938,288.114z M48.314,168.308
	H15.269c1.725-37.609,16.328-72.868,41.692-100.675l23.417,23.417C61.174,112.545,49.982,139.513,48.314,168.308z M91.049,80.378
	L67.633,56.962C95.439,31.598,130.7,16.995,168.308,15.27v33.046C139.505,49.983,112.532,61.18,91.049,80.378z M183.4,15.27
	c37.609,1.725,72.869,16.328,100.675,41.692l-23.418,23.417c-21.495-19.204-48.462-30.396-77.257-32.064L183.4,15.27L183.4,15.27z
	 M294.746,67.632c23.423,25.712,37.779,58.124,41.064,92.668c-11.108,0.021-22.115,1.095-32.824,3.169
	c-2.582-26.974-13.609-52.201-31.659-72.418L294.746,67.632z M95.375,275.019c15.932,12.988,34.778,21.947,54.937,26.026
	l2.994-14.792c-19.834-4.014-38.24-13.38-53.25-27.105c-23.436-21.263-36.877-51.622-36.877-83.295
	c0-30.106,11.736-58.379,33.064-79.629c21.231-21.309,49.504-33.045,79.61-33.045s58.379,11.736,79.63,33.065
	c19.129,19.056,30.593,43.993,32.659,70.755c-28.746,8.132-55.021,23.546-76.31,44.834c-22.776,22.776-38.833,51.258-46.426,82.33
	c-3.372,13.488-5.089,27.522-5.11,41.714c-32.59-3.199-63.445-16.285-88.315-37.467L95.375,275.019z"/>
<path style="fill:#FFFFFF;" d="M328.601,264.015v16.498h-8.483c-13,0-23.576,10.576-23.576,23.576v16.029
	c0,13,10.576,23.576,23.576,23.576h32.058c4.678,0,8.484,3.806,8.484,8.483v16.029c0,4.678-3.806,8.484-8.484,8.484h-32.058
	c-4.678,0-8.484-3.806-8.484-8.484v-16.029h-15.091v16.029c0,13,10.576,23.576,23.576,23.576h8.483v16.498h15.091v-16.498h8.483
	c13,0,23.576-10.576,23.576-23.576v-16.029c0-12.999-10.576-23.575-23.576-23.575h-32.058c-4.678,0-8.484-3.806-8.484-8.484v-16.029
	c0-4.678,3.806-8.484,8.484-8.484h32.058c4.678,0,8.484,3.806,8.484,8.484v16.029h15.091v-16.029c0-13-10.576-23.576-23.576-23.576
	h-8.483v-16.498L328.601,264.015L328.601,264.015z"/>
<g>
	<path style="fill:#231F20;" d="M200.366,336.147c0,74.87,60.911,135.78,135.78,135.78s135.78-60.911,135.78-135.78
		s-60.911-135.781-135.78-135.781S200.366,261.278,200.366,336.147z M456.835,336.147c0,66.549-54.141,120.688-120.688,120.688
		s-120.688-54.141-120.688-120.688s54.141-120.689,120.688-120.689S456.835,269.6,456.835,336.147z"/>
	<rect x="408.28" y="328.599" style="fill:#231F20;" width="16.03" height="15.091"/>
	<rect x="247.991" y="328.599" style="fill:#231F20;" width="16.03" height="15.091"/>
</g>
<path style="fill:#FFFFFF;" d="M175.854,96.176c-43.934,0-79.677,35.743-79.677,79.677h15.091c0-35.612,28.973-64.586,64.586-64.586
	V96.176z"/>
<rect x="96.172" y="191.882" style="fill:#231F20;" width="15.091" height="16.029"/>
<g>
</g>
<g>
</g>
<g>
</g>
<g>
</g>
<g>
</g>
<g>
</g>
<g>
</g>
<g>
</g>
<g>
</g>
<g>
</g>
<g>
</g>
<g>
</g>
<g>
</g>
<g>
</g>
<g>
</g>
</svg>
