<svg xmlns="http://www.w3.org/2000/svg" height="512pt" version="1.1" viewBox="0 0 512 512" width="512pt">
<g id="surface1">
<path d="M 512 256 C 512 397.386719 397.386719 512 256 512 C 114.613281 512 0 397.386719 0 256 C 0 114.613281 114.613281 0 256 0 C 397.386719 0 512 114.613281 512 256 Z M 512 256 " style=" stroke:none;fill-rule:nonzero;fill:rgb(0%,93.72549%,81.960784%);fill-opacity:1;" />
<path d="M 512 256 C 512 231.800781 508.640625 208.390625 502.363281 186.199219 L 397.046875 81.332031 C 391.175781 74.847656 382.703125 70.753906 373.320312 70.753906 L 330.085938 70.753906 L 316.863281 57.082031 C 314.660156 54.390625 311.320312 52.667969 307.59375 52.667969 L 204.40625 52.667969 C 197.804688 52.667969 192.40625 58.066406 192.40625 64.667969 L 192.40625 70.753906 L 138.679688 70.753906 C 121.0625 70.753906 106.648438 85.171875 106.648438 102.789062 L 106.648438 412.523438 C 106.648438 421.882812 110.71875 430.339844 117.179688 436.207031 L 181.558594 500.992188 C 205.117188 508.140625 230.105469 512 256 512 C 397.386719 512 512 397.386719 512 256 Z M 512 256 " style=" stroke:none;fill-rule:nonzero;fill:rgb(0%,67.843137%,58.431373%);fill-opacity:1;" />
<path d="M 373.320312 444.554688 L 138.679688 444.554688 C 121.0625 444.554688 106.648438 430.140625 106.648438 412.523438 L 106.648438 102.789062 C 106.648438 85.171875 121.0625 70.753906 138.679688 70.753906 L 373.320312 70.753906 C 390.9375 70.753906 405.351562 85.171875 405.351562 102.789062 L 405.351562 412.523438 C 405.351562 430.140625 390.9375 444.554688 373.320312 444.554688 Z M 373.320312 444.554688 " style=" stroke:none;fill-rule:nonzero;fill:rgb(100%,38.823529%,24.313725%);fill-opacity:1;" />
<path d="M 405.351562 102.789062 L 405.351562 412.519531 C 405.351562 430.140625 390.941406 444.550781 373.320312 444.550781 L 256 444.550781 L 256 70.75 L 373.320312 70.75 C 390.941406 70.75 405.351562 85.171875 405.351562 102.789062 Z M 405.351562 102.789062 " style=" stroke:none;fill-rule:nonzero;fill:rgb(93.333333%,14.901961%,0%);fill-opacity:1;" />
<path d="M 131.925781 93.46875 L 380.074219 93.46875 L 380.074219 423.238281 L 131.925781 423.238281 Z M 131.925781 93.46875 " style=" stroke:none;fill-rule:nonzero;fill:rgb(100%,100%,100%);fill-opacity:1;" />
<path d="M 256 93.46875 L 380.070312 93.46875 L 380.070312 423.238281 L 256 423.238281 Z M 256 93.46875 " style=" stroke:none;fill-rule:nonzero;fill:rgb(100%,96.078431%,79.607843%);fill-opacity:1;" />
<path d="M 131.925781 405.332031 L 380.074219 405.332031 L 380.074219 423.238281 L 131.925781 423.238281 Z M 131.925781 405.332031 " style=" stroke:none;fill-rule:nonzero;fill:rgb(100%,90.196078%,43.921569%);fill-opacity:1;" />
<path d="M 307.59375 110.128906 L 204.40625 110.128906 C 197.804688 110.128906 192.40625 104.726562 192.40625 98.128906 L 192.40625 64.667969 C 192.40625 58.066406 197.804688 52.667969 204.40625 52.667969 L 307.59375 52.667969 C 314.195312 52.667969 319.59375 58.066406 319.59375 64.667969 L 319.59375 98.128906 C 319.59375 104.726562 314.195312 110.128906 307.59375 110.128906 Z M 307.59375 110.128906 " style=" stroke:none;fill-rule:nonzero;fill:rgb(57.647059%,19.215686%,69.803922%);fill-opacity:1;" />
<path d="M 319.589844 64.671875 L 319.589844 98.128906 C 319.589844 104.730469 314.191406 110.128906 307.589844 110.128906 L 256 110.128906 L 256 52.671875 L 307.589844 52.671875 C 314.191406 52.671875 319.589844 58.070312 319.589844 64.671875 Z M 319.589844 64.671875 " style=" stroke:none;fill-rule:nonzero;fill:rgb(36.078431%,10.588235%,43.529412%);fill-opacity:1;" />
<path d="M 203.628906 142.367188 L 276.296875 142.367188 L 276.296875 157.21875 L 203.628906 157.21875 Z M 203.628906 142.367188 " style=" stroke:none;fill-rule:nonzero;fill:rgb(99.607843%,75.294118%,0%);fill-opacity:1;" />
<path d="M 203.628906 170.484375 L 239.964844 170.484375 L 239.964844 179.285156 L 203.628906 179.285156 Z M 203.628906 170.484375 " style=" stroke:none;fill-rule:nonzero;fill:rgb(34.117647%,33.333333%,36.078431%);fill-opacity:1;" />
<path d="M 324.285156 170.484375 L 342.453125 170.484375 L 342.453125 179.285156 L 324.285156 179.285156 Z M 324.285156 170.484375 " style=" stroke:none;fill-rule:nonzero;fill:rgb(16.470588%,16.470588%,17.254902%);fill-opacity:1;" />
<path d="M 250.035156 170.484375 L 314.238281 170.484375 L 314.238281 179.285156 L 250.035156 179.285156 Z M 250.035156 170.484375 " style=" stroke:none;fill-rule:nonzero;fill:rgb(34.117647%,33.333333%,36.078431%);fill-opacity:1;" />
<path d="M 342.453125 199.921875 L 276.222656 199.921875 L 276.222656 191.121094 L 342.453125 191.121094 Z M 342.453125 199.921875 " style=" stroke:none;fill-rule:nonzero;fill:rgb(16.470588%,16.470588%,17.254902%);fill-opacity:1;" />
<path d="M 264.992188 199.921875 L 203.628906 199.921875 L 203.628906 191.121094 L 264.992188 191.121094 Z M 264.992188 199.921875 " style=" stroke:none;fill-rule:nonzero;fill:rgb(34.117647%,33.333333%,36.078431%);fill-opacity:1;" />
<path d="M 169.546875 138.335938 L 192.464844 138.335938 L 192.464844 161.253906 L 169.546875 161.253906 Z M 169.546875 138.335938 " style=" stroke:none;fill-rule:nonzero;fill:rgb(57.647059%,19.215686%,69.803922%);fill-opacity:1;" />
<path d="M 203.628906 225.96875 L 276.296875 225.96875 L 276.296875 240.816406 L 203.628906 240.816406 Z M 203.628906 225.96875 " style=" stroke:none;fill-rule:nonzero;fill:rgb(99.607843%,75.294118%,0%);fill-opacity:1;" />
<path d="M 203.628906 254.085938 L 239.964844 254.085938 L 239.964844 262.882812 L 203.628906 262.882812 Z M 203.628906 254.085938 " style=" stroke:none;fill-rule:nonzero;fill:rgb(34.117647%,33.333333%,36.078431%);fill-opacity:1;" />
<path d="M 324.285156 254.085938 L 342.453125 254.085938 L 342.453125 262.882812 L 324.285156 262.882812 Z M 324.285156 254.085938 " style=" stroke:none;fill-rule:nonzero;fill:rgb(16.470588%,16.470588%,17.254902%);fill-opacity:1;" />
<path d="M 250.035156 254.085938 L 314.238281 254.085938 L 314.238281 262.882812 L 250.035156 262.882812 Z M 250.035156 254.085938 " style=" stroke:none;fill-rule:nonzero;fill:rgb(34.117647%,33.333333%,36.078431%);fill-opacity:1;" />
<path d="M 342.453125 283.523438 L 276.222656 283.523438 L 276.222656 274.722656 L 342.453125 274.722656 Z M 342.453125 283.523438 " style=" stroke:none;fill-rule:nonzero;fill:rgb(16.470588%,16.470588%,17.254902%);fill-opacity:1;" />
<path d="M 264.992188 283.523438 L 203.628906 283.523438 L 203.628906 274.722656 L 264.992188 274.722656 Z M 264.992188 283.523438 " style=" stroke:none;fill-rule:nonzero;fill:rgb(34.117647%,33.333333%,36.078431%);fill-opacity:1;" />
<path d="M 169.546875 221.933594 L 192.464844 221.933594 L 192.464844 244.851562 L 169.546875 244.851562 Z M 169.546875 221.933594 " style=" stroke:none;fill-rule:nonzero;fill:rgb(57.647059%,19.215686%,69.803922%);fill-opacity:1;" />
<path d="M 203.628906 309.566406 L 276.296875 309.566406 L 276.296875 324.417969 L 203.628906 324.417969 Z M 203.628906 309.566406 " style=" stroke:none;fill-rule:nonzero;fill:rgb(99.607843%,75.294118%,0%);fill-opacity:1;" />
<path d="M 203.628906 337.683594 L 239.964844 337.683594 L 239.964844 346.484375 L 203.628906 346.484375 Z M 203.628906 337.683594 " style=" stroke:none;fill-rule:nonzero;fill:rgb(34.117647%,33.333333%,36.078431%);fill-opacity:1;" />
<path d="M 324.285156 337.683594 L 342.453125 337.683594 L 342.453125 346.484375 L 324.285156 346.484375 Z M 324.285156 337.683594 " style=" stroke:none;fill-rule:nonzero;fill:rgb(16.470588%,16.470588%,17.254902%);fill-opacity:1;" />
<path d="M 250.035156 337.683594 L 314.238281 337.683594 L 314.238281 346.484375 L 250.035156 346.484375 Z M 250.035156 337.683594 " style=" stroke:none;fill-rule:nonzero;fill:rgb(34.117647%,33.333333%,36.078431%);fill-opacity:1;" />
<path d="M 342.453125 367.121094 L 276.222656 367.121094 L 276.222656 358.320312 L 342.453125 358.320312 Z M 342.453125 367.121094 " style=" stroke:none;fill-rule:nonzero;fill:rgb(16.470588%,16.470588%,17.254902%);fill-opacity:1;" />
<path d="M 264.992188 367.121094 L 203.628906 367.121094 L 203.628906 358.320312 L 264.992188 358.320312 Z M 264.992188 367.121094 " style=" stroke:none;fill-rule:nonzero;fill:rgb(34.117647%,33.333333%,36.078431%);fill-opacity:1;" />
<path d="M 169.546875 305.535156 L 192.464844 305.535156 L 192.464844 328.453125 L 169.546875 328.453125 Z M 169.546875 305.535156 " style=" stroke:none;fill-rule:nonzero;fill:rgb(57.647059%,19.215686%,69.803922%);fill-opacity:1;" />
<path d="M 256 405.328125 L 380.070312 405.328125 L 380.070312 423.238281 L 256 423.238281 Z M 256 405.328125 " style=" stroke:none;fill-rule:nonzero;fill:rgb(99.607843%,75.294118%,0%);fill-opacity:1;" />
<path d="M 256 142.371094 L 276.300781 142.371094 L 276.300781 157.21875 L 256 157.21875 Z M 256 142.371094 " style=" stroke:none;fill-rule:nonzero;fill:rgb(100%,60.392157%,0%);fill-opacity:1;" />
<path d="M 256 170.480469 L 314.238281 170.480469 L 314.238281 179.289062 L 256 179.289062 Z M 256 170.480469 " style=" stroke:none;fill-rule:nonzero;fill:rgb(16.470588%,16.470588%,17.254902%);fill-opacity:1;" />
<path d="M 256 191.121094 L 264.988281 191.121094 L 264.988281 199.921875 L 256 199.921875 Z M 256 191.121094 " style=" stroke:none;fill-rule:nonzero;fill:rgb(16.470588%,16.470588%,17.254902%);fill-opacity:1;" />
<path d="M 256 225.96875 L 276.300781 225.96875 L 276.300781 240.820312 L 256 240.820312 Z M 256 225.96875 " style=" stroke:none;fill-rule:nonzero;fill:rgb(100%,60.392157%,0%);fill-opacity:1;" />
<path d="M 256 254.078125 L 314.238281 254.078125 L 314.238281 262.878906 L 256 262.878906 Z M 256 254.078125 " style=" stroke:none;fill-rule:nonzero;fill:rgb(16.470588%,16.470588%,17.254902%);fill-opacity:1;" />
<path d="M 256 274.71875 L 264.988281 274.71875 L 264.988281 283.519531 L 256 283.519531 Z M 256 274.71875 " style=" stroke:none;fill-rule:nonzero;fill:rgb(34.117647%,33.333333%,36.078431%);fill-opacity:1;" />
<path d="M 256 309.570312 L 276.300781 309.570312 L 276.300781 324.421875 L 256 324.421875 Z M 256 309.570312 " style=" stroke:none;fill-rule:nonzero;fill:rgb(100%,60.392157%,0%);fill-opacity:1;" />
<path d="M 256 337.679688 L 314.238281 337.679688 L 314.238281 346.480469 L 256 346.480469 Z M 256 337.679688 " style=" stroke:none;fill-rule:nonzero;fill:rgb(16.470588%,16.470588%,17.254902%);fill-opacity:1;" />
<path d="M 256 358.320312 L 264.988281 358.320312 L 264.988281 367.121094 L 256 367.121094 Z M 256 358.320312 " style=" stroke:none;fill-rule:nonzero;fill:rgb(16.470588%,16.470588%,17.254902%);fill-opacity:1;" />
</g>
</svg>