<svg height="512pt" viewBox="0 0 512 512.001" width="512pt" xmlns="http://www.w3.org/2000/svg"><path d="m501 304.25c-19.28125 58.625-63.34375 109.128906-120.894531 138.558594-37.621094 19.105468-80.519531 29.191406-124.105469 29.191406-34.476562 0-67.832031-6.191406-99.273438-18.414062l-128.65625 56.714843c-2.59375 1.144531-5.339843 1.699219-8.0625 1.699219-5.101562 0-10.117187-1.945312-13.925781-5.640625-5.847656-5.664063-7.675781-14.308594-4.621093-21.855469l45.410156-112.332031c-30.707032-39.917969-46.871094-86.746094-46.871094-136.171875 0-58.65625 23.480469-114.878906 66.121094-158.3125 41.894531-42.683594 99.003906-69.738281 160.808594-76.179688 10.972656-1.152343 20.820312 6.832032 21.964843 17.816407s-6.832031 20.820312-17.820312 21.964843c-108.929688 11.355469-191.074219 95.0625-191.074219 194.710938 0 43.78125 15.578125 85.199219 45.046875 119.773438 4.835937 5.671874 6.117187 13.5625 3.324219 20.46875l-31.367188 77.589843 91.34375-40.265625c5.066406-2.230468 10.828125-2.265625 15.917969-.09375 28.816406 12.292969 59.683594 18.527344 91.734375 18.527344 37.324219 0 73.957031-8.585938 105.945312-24.832031 48.191407-24.644531 85.042969-66.722657 101.058594-115.417969 3.449219-10.492188 14.757813-16.199219 25.246094-12.75 10.496094 3.453125 16.203125 14.757812 12.75 25.25zm-250-173.75c0-71.957031 58.542969-130.5 130.5-130.5 71.960938 0 130.5 58.542969 130.5 130.5s-58.539062 130.5-130.5 130.5c-71.957031 0-130.5-58.542969-130.5-130.5zm40 0c0 49.902344 40.601562 90.5 90.5 90.5 49.902344 0 90.5-40.597656 90.5-90.5s-40.597656-90.5-90.5-90.5-90.5 40.597656-90.5 90.5zm55.5 25.742188c-6.085938 5.570312-8.128906 14.308593-5.140625 22 2.988281 7.691406 10.390625 12.757812 18.640625 12.757812h48c11.046875 0 20-8.953125 20-20s-8.953125-20-20-20h-1.582031c14.164062-17.460938 20.582031-30.839844 20.582031-42.546875 0-23.960937-19.496094-43.453125-43.460938-43.453125-.09375 0-.183593.011719-.277343.015625-.09375-.003906-.183594-.015625-.277344-.015625-16.527344 0-31.414063 9.207031-38.855469 24.027344-4.953125 9.871094-.96875 21.890625 8.902344 26.847656 2.878906 1.445312 5.941406 2.128906 8.957031 2.128906 7.324219 0 14.378907-4.039062 17.890625-11.03125.457032-.910156 1.542969-1.972656 3.105469-1.972656.09375 0 .183594-.015625.277344-.015625s.183593.015625.277343.015625c1.679688 0 3.167969 1.335938 3.425782 2.964844-2.195313 7.917968-21.175782 30.609375-40.464844 48.277344zm0 0"/></svg>