<svg id="Filled" height="512" viewBox="0 0 512 512" width="512" xmlns="http://www.w3.org/2000/svg"><path d="m40 72h448v416h-448z" fill="#c3c6c7"/><path d="m24 56h432v400h-432z" fill="#e9eef2"/><path d="m24 56h432v96h-432z" fill="#eb423f"/><path d="m96 248h288v144h-288z" fill="#f89f00"/><path d="m352 248v144c0-17.67-25.07-32-56-32-20.37 0-38.21 6.22-48 15.51-5.08 4.81-8 10.46-8 16.49 0-6.03-2.92-11.68-8-16.49-9.79-9.29-27.63-15.51-48-15.51-30.93 0-56 14.33-56 32v-144c0-17.67 25.07-32 56-32 20.37 0 38.21 6.22 48 15.51 5.08 4.81 8 10.46 8 16.49 0-6.03 2.92-11.68 8-16.49 9.79-9.29 27.63-15.51 48-15.51 30.93 0 56 14.33 56 32z" fill="#f7cca9"/><path d="m488 64h-24v-8a8 8 0 0 0 -8-8h-56v-8a24 24 0 0 0 -48 0v8h-16v-8a24 24 0 0 0 -48 0v8h-96v-8a24 24 0 0 0 -48 0v8h-16v-8a24 24 0 0 0 -48 0v8h-56a8 8 0 0 0 -8 8v400a8 8 0 0 0 8 8h8v24a8 8 0 0 0 8 8h448a8 8 0 0 0 8-8v-416a8 8 0 0 0 -8-8zm-456 384v-288h416v288zm336-408a8 8 0 0 1 16 0v8h-16zm-64 0a8 8 0 0 1 16 0v8h-16zm-144 0a8 8 0 0 1 16 0v8h-16zm-64 0a8 8 0 0 1 16 0v8h-16zm-16 24v8a24.028 24.028 0 0 0 24 24 8 8 0 0 0 0-16 8.009 8.009 0 0 1 -8-8v-8h48v8a24.028 24.028 0 0 0 24 24 8 8 0 0 0 0-16 8.009 8.009 0 0 1 -8-8v-8h128v8a24.028 24.028 0 0 0 24 24 8 8 0 0 0 0-16 8.009 8.009 0 0 1 -8-8v-8h48v8a24.028 24.028 0 0 0 24 24 8 8 0 0 0 0-16 8.009 8.009 0 0 1 -8-8v-8h80v80h-416v-80zm400 416h-432v-16h408a8 8 0 0 0 8-8v-376h16z"/><path d="m384 240h-25.234c-5.776-18.47-31.275-32-62.766-32-24.39 0-45.176 8.12-56 20.361-10.824-12.241-31.61-20.361-56-20.361-31.491 0-56.99 13.53-62.766 32h-25.234a8 8 0 0 0 -8 8v144a8 8 0 0 0 8 8h288a8 8 0 0 0 8-8v-144a8 8 0 0 0 -8-8zm-88-16c28.287 0 48 12.648 48 24v117.274c-11.64-8.19-28.693-13.274-48-13.274s-36.36 5.093-48 13.287v-117.287c0-11.352 19.713-24 48-24zm44.893 160h-89.786c6.6-8.576 23.224-16 44.893-16s38.3 7.424 44.893 16zm-204.893-136c0-11.352 19.713-24 48-24s48 12.648 48 24v117.274c-11.64-8.19-28.694-13.274-48-13.274s-36.36 5.084-48 13.274zm92.893 136h-89.786c6.6-8.576 23.224-16 44.893-16s38.3 7.424 44.893 16zm-124.893-128h16v128h-16zm272 128h-16v-128h16z"/></svg>