<svg id="Capa_1" enable-background="new 0 0 512 512" height="512" viewBox="0 0 512 512" width="512" xmlns="http://www.w3.org/2000/svg"><g><g><g><g><g><g><g><g><g><circle cx="256" cy="256" fill="#ff6c52" r="256"/></g></g></g></g></g></g></g></g><path d="m512 256c0-11.126-.71-22.087-2.087-32.84l-85.433-85.433-153.087 151.952 36.481 36.48-63.332 12.531-61.548-61.548-121.198 97.708 128.691 128.691c20.91 5.519 42.868 8.459 65.513 8.459 141.385 0 256-114.615 256-256z" fill="#f92814"/><g><path d="m61.796 299.327h388.408v75.522h-388.408z" fill="#ffce00"/></g><g><path d="m256.12 299.327h194.084v75.522h-194.084z" fill="#ffa300"/></g><g><path d="m167.994 299.327h176.012v75.522h-176.012z" fill="#fa0"/></g><g><path d="m167.994 299.327h88.126v75.522h-88.126z" fill="#ffe89c"/><path d="m256.12 299.327h87.885v75.522h-87.885z" fill="#ffce00"/></g><g><path d="m152.994 277.143h30v119.892h-30z" fill="#fff"/></g><g><path d="m329.006 277.143h30v119.892h-30z" fill="#e9edf5"/></g><g><g><circle cx="344.006" cy="209.739" fill="#555a66" r="107.994"/></g><g><path d="m344.006 101.745c-.179 0-.357.006-.536.007v215.975c.179.001.357.007.536.007 59.644 0 107.994-48.351 107.994-107.994s-48.351-107.995-107.994-107.995z" fill="#333940"/></g><g><circle cx="344.006" cy="209.739" fill="#fff" r="76.655"/></g><g><path d="m344.006 133.084c-.18 0-.356.013-.536.014v153.283c.179.001.356.014.536.014 42.336 0 76.655-34.32 76.655-76.655s-34.32-76.656-76.655-76.656z" fill="#e9edf5"/></g><g><path d="m359.006 224.739h-55.676v-30h25.676v-44.803h30z" fill="#707789"/></g><g><path d="m343.47 149.936h15.536v74.803h-15.536z" fill="#555a66"/></g></g></g></svg>