<svg id="Layer_1_1_" enable-background="new 0 0 64 64" height="512" viewBox="0 0 64 64" width="512" xmlns="http://www.w3.org/2000/svg"><g fill="#4f2e00"><path d="m43 28h13v8h-13z"/><path d="m39 58h1c0-1.657 1.343-3 3-3s3 1.343 3 3c0 0 11.837.413 13 0v-14h-20z"/><path d="m55 44h3v-8h-2-13-4v8z"/></g><path d="m43 33h13v3h-13z" fill="#3b2200"/><path d="m39 41h19v3h-19z" fill="#3b2200"/><path d="m39 55h20v3h-20z" fill="#3b2200"/><path d="m40 57v-29h-1-1-5v3h5v27c0 .552.448 1 1 1h17v-2z" fill="#707070"/><path d="m16 13c-3.482 1.161-5.649 4.631-5.164 8.269l1.164 8.731h8l1.49-4.433 1.004-3.871c.284-3.999-2.381-7.782-6.494-8.696z" fill="#a3a3a3"/><path d="m5 61h5l5-15 5-16h-8l-1 12z" fill="#3449a3"/><path d="m33 28-15-9c-1.097 2.194-.173 4.86 2.046 5.904l1.439.677.005-.014-.005.014 11.515 5.419z" fill="#ffe5cf"/><path d="m36 3v9l-5 3 5 3v5h25v-20z" fill="#ffd45a"/><path d="m15 46-1.521 4.562.521 10.438h4l2-31z" fill="#2e4191"/><circle cx="49" cy="13" fill="#fff5b8" r="9"/><circle cx="43" cy="58" fill="#707070" r="3"/><path d="m53 58c0 1.657 1.343 3 3 3s3-1.343 3-3-1.343-3-3-3c-.353 0-.686.072-1 .184-1.163.413-2 1.512-2 2.816z" fill="#707070"/><path d="m56 59c-1.307 0-2.408-.842-2.819-2.009-.114.316-.181.653-.181 1.009 0 1.657 1.343 3 3 3s3-1.343 3-3c0-.353-.072-.686-.184-1-.413 1.163-1.512 2-2.816 2z" fill="#545454"/><path d="m43 59c-1.304 0-2.403-.837-2.816-2-.112.314-.184.647-.184 1 0 1.657 1.343 3 3 3s3-1.343 3-3c0-.353-.072-.686-.184-1-.413 1.163-1.512 2-2.816 2z" fill="#545454"/><path d="m21 9c0-.734-.167-1.425-.451-2.052l-9.549 2.052c0 2.761 2.239 5 5 5s5-2.239 5-5z" fill="#ffe5cf"/><path d="m16 4c-2.761 0-5 2.239-5 5l9.549-2.052c-.784-1.735-2.521-2.948-4.549-2.948z" fill="#3b2200"/><path d="m53 10.75v-.25c0-1.758-1.308-3.204-3-3.449v-2.051h-2v2.051c-1.692.245-3 1.691-3 3.449 0 1.93 1.57 3.5 3.5 3.5h1c.827 0 1.5.673 1.5 1.5s-.673 1.5-1.5 1.5h-1c-.827 0-1.5-.673-1.5-1.5v-.25h-2v.25c0 1.758 1.308 3.204 3 3.449v2.051h2v-2.051c1.692-.245 3-1.691 3-3.449 0-1.93-1.57-3.5-3.5-3.5h-1c-.827 0-1.5-.673-1.5-1.5s.673-1.5 1.5-1.5h1c.827 0 1.5.673 1.5 1.5v.25z" fill="#ffd45a"/></svg>