<svg id="Layer_1" enable-background="new 0 0 512 512" height="512" viewBox="0 0 512 512" width="512" xmlns="http://www.w3.org/2000/svg"><g><g><path d="m454.027 490.261c-.38 5.76-5.01 10.31-10.78 10.66-5.15.31-10.83.59-16.94.85-50.84 2.18-130.72 2.84-170.32 2.72-44.35.13-139.23-.71-187.26-3.57-5.76-.35-10.39-4.9-10.77-10.66-13.93-208.35-2.83-420.33.05-468.43.35-5.8 4.97-10.4 10.77-10.75 48.01-2.86 142.88-3.7 187.21-3.57 25.25-.07 66.88.17 106.91.92l.07.07 63.01 63.48v.01l31.88 32.12c3.39 91.89 5.95 239.91-3.83 386.15z" fill="#ffe07d"/><path d="m454.027 490.261c-.38 5.76-5.01 10.31-10.78 10.66-5.15.31-10.83.59-16.94.85 6.59-323.52-.25-428.53-.33-429.78l31.88 32.12c3.39 91.89 5.95 239.91-3.83 386.15z" fill="#ffd064"/><path d="m457.857 104.111c-.43.05-12.72 1.41-30.46 2.22-18.1.84-41.88 1.09-64.51-1.2-3.61-47.68 0-96.36 0-96.36l.08-.27 63.01 63.48v.01z" fill="#e9b585"/><path d="m457.857 104.111c-.43.05-12.72 1.41-30.46 2.22-.72-23.64-1.39-33.95-1.42-34.34z" fill="#e19d64"/></g><g><path d="m166.855 67.537c-34.917 0-63.325 28.425-63.325 63.364s28.408 63.364 63.325 63.364 63.325-28.425 63.325-63.364-28.408-63.364-63.325-63.364zm-7.5 111.146c-9.76-1.528-18.562-5.991-25.472-12.455 5.99-4.989 15.437-13.376 25.472-24.295zm0-59.843c-12.86 16.299-26.899 28.983-34.731 35.554-3.881-6.96-6.094-14.973-6.094-23.494 0-24.116 17.728-44.164 40.825-47.782zm15 59.843v-36.749c10.034 10.919 19.481 19.305 25.471 24.294-6.91 6.464-15.711 10.926-25.471 12.455zm34.728-24.284c-7.821-6.556-21.836-19.216-34.728-35.559v-35.721c23.098 3.617 40.825 23.666 40.825 47.782 0 8.523-2.215 16.537-6.097 23.498z"/><path d="m400.951 170.376c4.142 0 7.5-3.358 7.5-7.5s-3.358-7.5-7.5-7.5h-139.132c-4.142 0-7.5 3.358-7.5 7.5s3.358 7.5 7.5 7.5z"/><path d="m224.319 207.875c0 4.142 3.358 7.5 7.5 7.5h169.131c4.142 0 7.5-3.358 7.5-7.5s-3.358-7.5-7.5-7.5h-169.131c-4.142 0-7.5 3.358-7.5 7.5z"/><path d="m111.03 260.375h259.921c4.142 0 7.5-3.358 7.5-7.5s-3.358-7.5-7.5-7.5h-259.921c-4.142 0-7.5 3.358-7.5 7.5s3.358 7.5 7.5 7.5z"/><path d="m400.951 290.375h-195.054c-4.142 0-7.5 3.358-7.5 7.5s3.358 7.5 7.5 7.5h195.054c4.142 0 7.5-3.358 7.5-7.5s-3.358-7.5-7.5-7.5z"/><path d="m111.03 305.375h60.199c4.142 0 7.5-3.358 7.5-7.5s-3.358-7.5-7.5-7.5h-60.199c-4.142 0-7.5 3.358-7.5 7.5s3.358 7.5 7.5 7.5z"/><path d="m198.397 432.874c0 4.142 3.358 7.5 7.5 7.5h195.054c4.142 0 7.5-3.358 7.5-7.5s-3.358-7.5-7.5-7.5h-195.054c-4.142 0-7.5 3.358-7.5 7.5z"/><path d="m111.03 440.374h60.199c4.142 0 7.5-3.358 7.5-7.5s-3.358-7.5-7.5-7.5h-60.199c-4.142 0-7.5 3.358-7.5 7.5s3.358 7.5 7.5 7.5z"/><path d="m400.951 335.375h-259.921c-4.142 0-7.5 3.358-7.5 7.5s3.358 7.5 7.5 7.5h259.921c4.142 0 7.5-3.358 7.5-7.5s-3.358-7.5-7.5-7.5z"/><path d="m111.03 395.375h259.921c4.142 0 7.5-3.358 7.5-7.5s-3.358-7.5-7.5-7.5h-259.921c-4.142 0-7.5 3.358-7.5 7.5s3.358 7.5 7.5 7.5z"/><path d="m465.355 103.832c-.07-1.882-.845-3.67-2.172-5.007l-21.326-21.488c-2.918-2.941-7.667-2.957-10.606-.04-2.94 2.918-2.958 7.667-.04 10.606l10.029 10.105c-16.78 1.173-44.53 2.375-71.306.228-1.747-27.916-1.142-55.634-.441-72.519l34.76 35.024c2.918 2.941 7.667 2.958 10.606.04 2.94-2.918 2.958-7.667.04-10.606l-46.677-47.033c-1.374-1.384-3.233-2.179-5.183-2.215-42.053-.787-83.961-.98-107.025-.914-39.609-.121-137.6.597-187.683 3.581-9.581.57-17.237 8.216-17.81 17.785-.552 9.206-1.402 24.369-2.32 44.325-.19 4.138 3.01 7.647 7.147 7.837.118.005.234.008.351.008 3.983 0 7.301-3.135 7.486-7.155.914-19.871 1.76-34.96 2.309-44.119.119-1.994 1.722-3.588 3.728-3.707 49.729-2.963 147.286-3.675 186.791-3.555 21.601-.069 59.694.103 98.937.772-.847 15.671-2.317 53.266.463 89.911.275 3.623 3.107 6.527 6.722 6.895 13.509 1.371 27.328 1.856 40.14 1.856 20.542 0 38.487-1.25 48.377-2.107 3.384 96.419 5.237 237.638-4.108 377.416-.132 1.975-1.739 3.554-3.74 3.673-13.095.781-30.572 1.46-51.945 2.021-4.141.109-7.409 3.554-7.301 7.694.107 4.074 3.443 7.303 7.494 7.303.067 0 .134-.001.201-.002 21.538-.565 39.183-1.252 52.443-2.042 9.522-.567 17.18-8.154 17.814-17.647 9.648-144.315 7.416-290.067 3.845-386.924z"/><path d="m347.63 496.334c-36.948.574-71.549.717-91.663.653-39.467.118-137.049-.593-186.792-3.558-2-.119-3.607-1.698-3.739-3.673-.889-13.292-1.702-27.034-2.418-40.845-.214-4.137-3.75-7.316-7.878-7.102-4.137.214-7.316 3.742-7.102 7.878.72 13.885 1.538 27.703 2.431 41.069.634 9.493 8.292 17.08 17.814 17.647 50.096 2.986 148.113 3.706 187.684 3.584 2.825.008 5.935.013 9.3.013 20.618 0 50.744-.173 82.597-.668 4.142-.064 7.447-3.474 7.382-7.616-.064-4.141-3.482-7.407-7.616-7.382z"/><path d="m53.766 418.07c.099 0 .199-.002.298-.006 4.139-.162 7.363-3.648 7.201-7.787-4.655-119.052-2.371-232.267.364-306.279.153-4.139-3.078-7.619-7.218-7.772-4.121-.144-7.618 3.079-7.771 7.218-2.745 74.272-5.036 187.896-.363 307.419.157 4.039 3.482 7.207 7.489 7.207z"/><path d="m408.45 252.88c0-4.142-3.358-7.5-7.5-7.5s-7.5 3.358-7.5 7.5 3.358 7.5 7.5 7.5 7.5-3.358 7.5-7.5z"/><path d="m408.45 387.88c0-4.142-3.358-7.5-7.5-7.5s-7.5 3.358-7.5 7.5 3.358 7.5 7.5 7.5 7.5-3.358 7.5-7.5z"/><path d="m103.53 342.87c0 4.142 3.358 7.5 7.5 7.5s7.5-3.358 7.5-7.5-3.358-7.5-7.5-7.5-7.5 3.357-7.5 7.5z"/></g></g></svg>