<svg height="512" viewBox="0 0 64 64" width="512" xmlns="http://www.w3.org/2000/svg"><g id="Layer_11" data-name="Layer 11"><path d="m45 30h-7v-2h7a3 3 0 0 0 3-3v-18.46a2.54 2.54 0 0 0 -4.33-1.8l-1 1-1.38-1.45 1-1a4.47 4.47 0 0 1 3.17-1.29 4.54 4.54 0 0 1 4.54 4.54v18.46a5 5 0 0 1 -5 5z" fill="#c1c8d1"/><path d="m32 51h-2a6 6 0 0 1 -6-6v-17h2v17a4 4 0 0 0 4 4h2z" fill="#c1c8d1"/><rect fill="#a0a8b2" height="20" rx="2" width="30" x="32" y="34"/><path d="m36 38h22v12h-22z" fill="#c7e2fb"/><path d="m36 38v9.89a18.85 18.85 0 0 0 2 .11 18.07 18.07 0 0 0 16.39-10z" fill="#ebf7fe"/><path d="m2 56h20v6h-20z" fill="#c1c8d1"/><path d="m21 2a17 17 0 0 0 0 24 17 17 0 0 0 24 0z" fill="#a0a8b2"/><g fill="#c1c8d1"><path d="m35.86 16.89a4.05 4.05 0 0 0 -.06-5.69 4.11 4.11 0 0 0 -5.71-.08z"/><path d="m21 26a19.08 19.08 0 0 1 -1.4-1.6l-7.6 7.6a3 3 0 0 1 3 3l7.57-7.59a17.42 17.42 0 0 1 -1.57-1.41z"/><path d="m18.22 5.64 23.12 23.11a17.9 17.9 0 0 0 1.71-1.12l-23.71-23.71a16.85 16.85 0 0 0 -1.12 1.72z"/></g><circle cx="12" cy="35" fill="#a0a8b2" r="3"/><path d="m12 38a3 3 0 0 1 -2-.78v14.78h4v-14.78a3 3 0 0 1 -2 .78z" fill="#c1c8d1"/><path d="m6 52h12v4h-12z" fill="#a0a8b2"/><path d="m43 7-1.5 1.5a2.12 2.12 0 0 1 -3 0 2.12 2.12 0 0 1 0-3l1.5-1.5z" fill="#c1c8d1"/><path d="m40.5.55h2v9.9h-2z" fill="#a0a8b2" transform="matrix(.707 -.707 .707 .707 8.27 30.96)"/><path d="m42 58h10a2 2 0 0 1 2 2v2a0 0 0 0 1 0 0h-14a0 0 0 0 1 0 0v-2a2 2 0 0 1 2-2z" fill="#a0a8b2"/><path d="m44 54h6v4h-6z" fill="#c1c8d1"/><path d="m39.17 43h5.66v2h-5.66z" fill="#fff" transform="matrix(.707 -.707 .707 .707 -18.81 42.59)"/><path d="m44.17 43h5.66v2h-5.66z" fill="#fff" transform="matrix(.707 -.707 .707 .707 -17.35 46.12)"/><path d="m49.17 43h5.66v2h-5.66z" fill="#fff" transform="matrix(.707 -.707 .707 .707 -15.88 49.66)"/></g></svg>