<?xml version="1.0" encoding="iso-8859-1"?>
<!-- Generator: Adobe Illustrator 19.0.0, SVG Export Plug-In . SVG Version: 6.00 Build 0)  -->
<svg version="1.1" id="Capa_1" xmlns="http://www.w3.org/2000/svg" xmlns:xlink="http://www.w3.org/1999/xlink" x="0px" y="0px"
	 viewBox="0 0 512 512" style="enable-background:new 0 0 512 512;" xml:space="preserve">
<rect y="185.95" style="fill:#0040A0;" width="512" height="317.74"/>
<g>
	<rect x="256" y="185.95" style="fill:#00317E;" width="256" height="317.74"/>
	<polygon style="fill:#00317E;" points="512,503.69 0,503.69 256,328.852 	"/>
</g>
<g>
	<polygon style="fill:#00215A;" points="256,328.852 256,328.853 256,503.69 512,503.69 	"/>
	<polygon style="fill:#00215A;" points="256,8.31 0,185.951 256,378.345 512,185.951 	"/>
</g>
<polygon style="fill:#001035;" points="256,8.31 256,378.345 512,185.951 "/>
<polygon style="fill:#00AB94;" points="65.6,84.111 65.6,235.252 256,378.345 445.081,236.243 445.081,84.111 "/>
<polygon style="fill:#009985;" points="256,84.111 256,378.345 445.081,236.243 445.081,84.111 "/>
<path style="fill:#FFDA2D;" d="M254.598,159.459c-67.944,0-123.123,56.875-124.06,124.596L256,378.345l122.647-92.174
	c0.018-0.875,0.033-1.751,0.033-2.63C378.68,215.012,323.126,159.459,254.598,159.459z"/>
<path style="fill:#FDBF00;" d="M256,159.477v218.869l122.647-92.174c0.018-0.875,0.033-1.751,0.033-2.63
	C378.68,215.481,323.882,160.229,256,159.477z"/>
<path style="fill:#EC5569;" d="M258.482,267.707h-4.965c-4.443,0-8.058-3.614-8.058-8.058s3.615-8.058,8.058-8.058h4.965
	c4.443,0,8.058,3.614,8.058,8.058h30c0-16.601-10.687-30.743-25.54-35.933v-23.678h-30v23.678
	c-14.853,5.189-25.541,19.332-25.541,35.933c0,20.985,17.073,38.058,38.058,38.058h4.965c4.443,0,8.058,3.614,8.058,8.058
	s-3.614,8.058-8.058,8.058h-4.965c-4.443,0-8.058-3.614-8.058-8.058h-30c0,16.601,10.688,30.743,25.541,35.933v23.647h30v-23.647
	c14.853-5.189,25.54-19.332,25.54-35.933C296.54,284.779,279.468,267.707,258.482,267.707z"/>
<g>
	<path style="fill:#E63950;" d="M258.482,267.707H256v30h2.482c4.443,0,8.058,3.614,8.058,8.058s-3.614,8.058-8.058,8.058H256
		v51.522h15v-23.647c14.853-5.189,25.54-19.332,25.54-35.933C296.54,284.779,279.468,267.707,258.482,267.707z"/>
	<path style="fill:#E63950;" d="M258.482,251.592c4.443,0,8.058,3.614,8.058,8.058h30c0-16.601-10.687-30.743-25.54-35.933v-23.678
		h-15v51.553L258.482,251.592L258.482,251.592z"/>
</g>
<g>
</g>
<g>
</g>
<g>
</g>
<g>
</g>
<g>
</g>
<g>
</g>
<g>
</g>
<g>
</g>
<g>
</g>
<g>
</g>
<g>
</g>
<g>
</g>
<g>
</g>
<g>
</g>
<g>
</g>
</svg>
