<svg height="512pt" viewBox="0 0 512 512.00078" width="512pt" xmlns="http://www.w3.org/2000/svg"><path d="m511.945312 185.265625v277.585937c0 14.242188-6.058593 27.0625-15.734374 36.035157-8.773438 8.140625-20.519532 13.113281-33.421876 13.113281h-413.640624c-12.902344 0-24.644532-4.972656-33.410157-13.101562-9.675781-8.984376-15.73437475-21.804688-15.73437475-36.046876v-277.585937zm0 0" fill="#fec970"/><path d="m511.945312 185.265625-196.78125-163.847656c-34.292968-28.558594-84.089843-28.558594-118.386718 0l-196.777344 163.847656h.00390625l57.99609375 48.289063 138.777344 115.554687c34.300781 28.5625 84.09375 28.5625 118.386718 0l138.789063-115.554687z" fill="#fba028"/><path d="m453.953125 83.011719v150.542969l-138.789063 115.554687c-34.292968 28.5625-84.085937 28.5625-118.386718 0l-138.777344-115.554687v-150.542969c0-31.386719 25.449219-56.835938 56.847656-56.835938h282.265625c31.398438 0 56.839844 25.449219 56.839844 56.835938zm0 0" fill="#bfdadd"/><path d="m453.953125 83.011719v116.066406l-138.789063 115.550781c-34.292968 28.566406-84.085937 28.566406-118.386718 0l-138.777344-115.550781v-116.066406c0-31.386719 25.449219-56.835938 56.847656-56.835938h282.265625c31.398438 0 56.839844 25.449219 56.839844 56.835938zm0 0" fill="#e4f5f7"/><path d="m368.449219 202.894531v-38.984375l-28.28125-4.054687c-1.902344-6.8125-4.609375-13.292969-8.011719-19.332031l17.132812-22.867188-27.570312-27.566406-22.863281 17.128906c-6.042969-3.398438-12.519531-6.109375-19.332031-8.011719l-4.054688-28.277343h-38.984375l-4.054687 28.277343c-6.820313 1.902344-13.300782 4.613281-19.332032 8.011719l-22.875-17.128906-27.558594 27.566406 17.132813 22.867188c-3.402344 6.039062-6.113281 12.519531-8.015625 19.332031l-28.277344 4.054687v38.984375l28.277344 4.050781c1.902344 6.824219 4.613281 13.300782 8.015625 19.335938l-17.132813 22.871094 27.558594 27.5625 22.875-17.132813c6.03125 3.402344 12.511719 6.109375 19.332032 8.011719l4.054687 28.28125h38.984375l4.054688-28.28125c6.8125-1.902344 13.289062-4.609375 19.332031-8.011719l22.863281 17.132813 27.570312-27.5625-17.132812-22.871094c3.402344-6.035156 6.109375-12.511719 8.011719-19.335938zm-112.476563 14.269531c-18.648437 0-33.757812-15.113281-33.757812-33.757812 0-18.648438 15.113281-33.765625 33.757812-33.765625 18.652344 0 33.765625 15.117187 33.765625 33.765625 0 18.644531-15.113281 33.757812-33.765625 33.757812zm0 0" fill="#6ce7f3"/><g fill="#fba028"><path d="m464.226562 480.101562c-1.765624 0-3.542968-.59375-5.007812-1.816406l-124.945312-104.027344c-3.328126-2.769531-3.777344-7.710937-1.007813-11.035156 2.769531-3.328125 7.707031-3.777344 11.035156-1.007812l124.945313 104.027344c3.324218 2.769531 3.777344 7.707031 1.007812 11.035156-1.550781 1.863281-3.78125 2.824218-6.027344 2.824218zm0 0"/><path d="m177.429688 374.464844-102.679688 87.707031c-14.148438 12.085937-7.824219 35.183594 10.507812 38.371094 29.484376 5.125 63.945313 10.875 73.207032 11.457031h-109.3125c-12.902344 0-24.648438-4.972656-33.414063-13.101562-9.675781-8.984376-15.73437475-21.804688-15.73437475-36.042969v-277.589844h37.10156275v189.222656c.355469 38.246094 45.195312 58.777344 74.597656 34.308594l55.949219-46.585937c3.382812-2.8125 8.449218-2.300782 11.1875 1.199218 2.644531 3.375 1.878906 8.316406-1.410156 11.054688zm0 0"/></g></svg>