<?xml version="1.0"?>
<svg xmlns="http://www.w3.org/2000/svg" xmlns:xlink="http://www.w3.org/1999/xlink" version="1.1" id="Capa_1" x="0px" y="0px" viewBox="0 0 512 512" style="enable-background:new 0 0 512 512;" xml:space="preserve" width="512px" height="512px"><g><g>
	<g>
		<path d="M448,341.333h-64.736c0.246-3.556,0.736-7.047,0.736-10.667v-256C384,33.5,350.5,0,309.333,0H96    C54.833,0,21.333,33.5,21.333,74.667v256c0,99.99,81.344,181.333,181.333,181.333c62.228,0,120.223-32.661,153.299-85.333H448    c23.531,0,42.667-19.135,42.667-42.667S471.531,341.333,448,341.333z M256,74.667C256,68.771,260.771,64,266.667,64h42.667    C315.229,64,320,68.771,320,74.667v42.667c0,5.896-4.771,10.667-10.667,10.667h-42.667c-5.896,0-10.667-4.771-10.667-10.667    V74.667z M256,160c0-5.896,4.771-10.667,10.667-10.667h42.667c5.896,0,10.667,4.771,10.667,10.667v42.667    c0,5.896-4.771,10.667-10.667,10.667h-42.667c-5.896,0-10.667-4.771-10.667-10.667V160z M256,245.333    c0-5.896,4.771-10.667,10.667-10.667h42.667c5.896,0,10.667,4.771,10.667,10.667V288c0,5.896-4.771,10.667-10.667,10.667h-42.667    c-5.896,0-10.667-4.771-10.667-10.667V245.333z M170.667,74.667c0-5.896,4.771-10.667,10.667-10.667H224    c5.896,0,10.667,4.771,10.667,10.667v42.667c0,5.896-4.771,10.667-10.667,10.667h-42.667c-5.896,0-10.667-4.771-10.667-10.667    V74.667z M170.667,160c0-5.896,4.771-10.667,10.667-10.667H224c5.896,0,10.667,4.771,10.667,10.667v42.667    c0,5.896-4.771,10.667-10.667,10.667h-42.667c-5.896,0-10.667-4.771-10.667-10.667V160z M149.333,288    c0,5.896-4.771,10.667-10.667,10.667H96c-5.896,0-10.667-4.771-10.667-10.667v-42.667c0-5.896,4.771-10.667,10.667-10.667h42.667    c5.896,0,10.667,4.771,10.667,10.667V288z M149.333,202.667c0,5.896-4.771,10.667-10.667,10.667H96    c-5.896,0-10.667-4.771-10.667-10.667V160c0-5.896,4.771-10.667,10.667-10.667h42.667c5.896,0,10.667,4.771,10.667,10.667V202.667    z M149.333,117.333c0,5.896-4.771,10.667-10.667,10.667H96c-5.896,0-10.667-4.771-10.667-10.667V74.667    C85.333,68.771,90.104,64,96,64h42.667c5.896,0,10.667,4.771,10.667,10.667V117.333z M170.667,245.333    c0-5.896,4.771-10.667,10.667-10.667H224c5.896,0,10.667,4.771,10.667,10.667V288c0,5.896-4.771,10.667-10.667,10.667h-42.667    c-5.896,0-10.667-4.771-10.667-10.667V245.333z M448,405.333H255.76c-3.344,0-6.49,1.563-8.51,4.24    c-16.417,21.698-51.396,21.615-67.708,0.479c-8.167-10.573-10.844-24.313-7.344-37.719c3.615-13.885,14.906-25.365,28.75-29.25    c4.135-1.156,8.281-1.729,12.333-1.729c13.26,0,25.625,6.042,33.969,17.083c2.021,2.667,5.167,4.229,8.51,4.229H448    c11.76,0,21.333,9.573,21.333,21.333C469.333,395.76,459.76,405.333,448,405.333z" data-original="#000000" class="active-path" data-old_color="#000000" fill="#FFFFFF"/>
	</g>
</g></g> </svg>
