<svg id="Layer_1" enable-background="new 0 0 510 510" height="512" viewBox="0 0 510 510" width="512" xmlns="http://www.w3.org/2000/svg"><g id="XMLID_1_"><path id="XMLID_147_" d="m0 382.5c0 70.302 57.194 127.5 127.5 127.5l7.5-127.5-7.5-127.5c-70.302 0-127.5 57.194-127.5 127.5z" fill="#4e6ba6"/><path id="XMLID_79_" d="m127.5 255v127.5 127.5c70.302 0 127.5-57.194 127.5-127.5 0-70.302-57.194-127.5-127.5-127.5z" fill="#28487a"/><path id="XMLID_150_" d="m30 382.5c0 25.87 10.194 50.353 28.295 68.609l76.705-68.609-7.5-97.5c-53.761 0-97.5 43.737-97.5 97.5z" fill="#f9f9f9"/><path id="XMLID_149_" d="m127.5 285v97.5l69.205 68.609c18.069-18.224 28.295-42.695 28.295-68.609 0-53.76-43.736-97.5-97.5-97.5z" fill="#e2dff4"/><path id="XMLID_156_" d="m58.295 451.109c18.272 18.43 42.996 28.891 69.205 28.891l7.5-37.5-7.5-37.5c-15.361 0-29.657 4.643-41.561 12.599-12.21 8.162-21.904 19.81-27.644 33.51z" fill="#8493fb"/><path id="XMLID_155_" d="m127.5 405v75c26.162 0 50.899-10.428 69.205-28.891-5.74-13.7-15.434-25.348-27.645-33.51-11.903-7.956-26.199-12.599-41.56-12.599z" fill="#6666fa"/><path d="m503.033 334.394-53.033-53.034-53.033 53.034 21.213 21.212 16.82-16.82v111.214h-165v30h195v-141.214l16.82 16.82z" fill="#8493fb"/><path d="m240 62.574v-30h-195v141.213l-16.82-16.82-21.213 21.213 53.033 53.033 53.033-53.033-21.214-21.213-16.819 16.82v-111.213z" fill="#dd4e4e"/><path id="XMLID_154_" d="m82.5 382.5c0 12.406 5.047 23.656 13.195 31.805 8.149 8.148 19.399 13.195 31.805 13.195l7.5-45-7.5-45c-12.406 0-23.656 5.047-31.805 13.195-8.148 8.149-13.195 19.399-13.195 31.805z" fill="#edbba7"/><path id="XMLID_84_" d="m127.5 337.5v45 45c12.406 0 23.656-5.047 31.805-13.195 8.148-8.148 13.195-19.398 13.195-31.805 0-24.812-20.186-45-45-45z" fill="#e8a38b"/><path id="XMLID_373_" d="m255 127.5c0 70.302 57.194 127.5 127.5 127.5l7.5-127.5-7.5-127.5c-70.302 0-127.5 57.194-127.5 127.5z" fill="#4e6ba6"/><path id="XMLID_370_" d="m382.5 0v127.5 127.5c70.302 0 127.5-57.194 127.5-127.5 0-70.302-57.194-127.5-127.5-127.5z" fill="#28487a"/><path id="XMLID_367_" d="m313.295 196.109 76.705-68.609-7.5-97.5c-26.881 0-51.256 10.935-68.91 28.589-37.99 37.99-38.152 99.336-.295 137.52z" fill="#f9f9f9"/><path id="XMLID_363_" d="m382.5 30v97.5l69.205 68.609c18.069-18.224 28.295-42.695 28.295-68.609 0-53.76-43.736-97.5-97.5-97.5z" fill="#e2dff4"/><path id="XMLID_359_" d="m313.295 196.109c18.272 18.43 42.996 28.891 69.205 28.891l7.5-37.5-7.5-37.5c-30.693 0-57.699 18.651-69.205 46.109z" fill="#bfe85f"/><path id="XMLID_47_" d="m382.5 150v75c26.162 0 50.899-10.428 69.205-28.891-5.74-13.7-15.434-25.348-27.645-33.51-11.903-7.956-26.199-12.599-41.56-12.599z" fill="#00cb76"/><path id="XMLID_25_" d="m337.5 127.5c0 24.812 20.185 45 45 45l7.5-45-7.5-45c-12.406 0-23.656 5.047-31.805 13.195-8.148 8.149-13.195 19.399-13.195 31.805z" fill="#edbba7"/><path id="XMLID_24_" d="m382.5 82.5v45 45c12.406 0 23.656-5.047 31.805-13.195 8.148-8.148 13.195-19.398 13.195-31.805 0-24.812-20.186-45-45-45z" fill="#e8a38b"/></g></svg>