<?xml version="1.0"?>
<svg xmlns="http://www.w3.org/2000/svg" viewBox="0 0 512 512" width="512" height="512"><g id="Filled_outline" data-name="Filled outline"><ellipse cx="256" cy="344" rx="208" ry="144" style="fill:#fa9f0c"/><path d="M336,112v32h72a16,16,0,0,1,16,16v52.724a16,16,0,0,1-10.619,15.068L312,264v40l118.5-46.082A40,40,0,0,0,456,220.637V152a40,40,0,0,0-40-40Z" style="fill:#ffae1f"/><path d="M376,80a887.964,887.964,0,0,1-9.08,126.69A887.605,887.605,0,0,1,339.88,330.8L336,344H176l-3.88-13.2q-3.075-10.44-5.88-20.93A888.616,888.616,0,0,1,136,80Z" style="fill:#ffb531"/><path d="M376,80a887.964,887.964,0,0,1-9.08,126.69A887.605,887.605,0,0,1,339.88,330.8L336,344H176l-3.88-13.2q-3.075-10.44-5.88-20.93C249.36,268.3,324.08,196.13,374.6,80Z" style="fill:#ffae1f"/><path d="M376,80c0,8.59-4.14,16.72-11.55,24-19.26,18.92-60.58,32-108.45,32s-89.19-13.08-108.45-32C140.14,96.72,136,88.59,136,80c0-30.93,53.73-56,120-56S376,49.07,376,80Z" style="fill:#e0e0de"/><ellipse cx="256" cy="104" rx="108.45" ry="32" style="fill:#f98500"/><path d="M128,192h0a16,16,0,0,0-16,16h0a16,16,0,0,0-16-16h0a16,16,0,0,0-16,16V448a16,16,0,0,0,16,16h32a16,16,0,0,0,16-16V208A16,16,0,0,0,128,192Z" style="fill:#92563a"/><path d="M112,464V448a16,16,0,0,0-16-16h0a16,16,0,0,0-16,16h0a16,16,0,0,0,16,16h32a16,16,0,0,0,16-16h0a16,16,0,0,0-16-16h0a16,16,0,0,0-16,16v16" style="fill:#7a432a"/><ellipse cx="192" cy="400" rx="16" ry="24" style="fill:#92563a"/><ellipse cx="264" cy="412" rx="16.835" ry="26.313" transform="translate(-225.314 415.363) rotate(-57.743)" style="fill:#92563a"/><path d="M438.825,262.85A48.369,48.369,0,0,0,464,220.64V152a48.054,48.054,0,0,0-48-48H383.677c.214-7.941.323-15.981.323-24,0-18.244-14.123-34.882-39.766-46.849C320.532,22.091,289.2,16,256,16s-64.532,6.091-88.234,17.151C142.123,45.118,128,61.756,128,80a898.855,898.855,0,0,0,6.161,104.805A23.963,23.963,0,0,0,112,190.126,23.988,23.988,0,0,0,72,208V397.18C61.481,380.437,56,362.368,56,344a95.551,95.551,0,0,1,7.516-36.922l-14.768-6.156A111.453,111.453,0,0,0,40,344c0,28.374,11.053,55.911,32,79.823V448a24.028,24.028,0,0,0,24,24h32a23.885,23.885,0,0,0,8.188-1.44C171.682,487.2,213,496,256,496c57.172,0,111.023-15.483,151.634-43.6C449.141,423.665,472,385.168,472,344,472,314.908,460.568,287.064,438.825,262.85ZM448,152v68.64a32.212,32.212,0,0,1-20.394,29.822l-65.271,25.383q2.555-11.411,4.843-23.058l27.695-9.889c.073-.024.147-.048.22-.075l20.973-7.5A24.042,24.042,0,0,0,432,212.72V160a24.027,24.027,0,0,0-24-24H382.246c.335-5.347.622-10.693.858-16H416A32.036,32.036,0,0,1,448,152Zm-192-8c46.9,0,89.072-12.134,111.407-31.844-.372,10.306-.941,20.822-1.7,31.27C364.223,164.1,361.966,185,359,205.548c-.763,5.29-1.482,9.991-2.2,14.394-1.341,8.36-2.838,16.885-4.449,25.336-2.7,14.1-5.727,28.108-9.01,41.639-3.293,13.679-7.04,27.684-11.137,41.627L330.013,336H181.987l-2.193-7.459A881.237,881.237,0,0,1,144.6,112.164C166.938,131.869,209.1,144,256,144Zm-96-40c20.46-14.756,56.742-24,96-24s75.539,9.244,96,24c-20.46,14.756-56.742,24-96,24S180.46,118.756,160,104ZM374.838,207.832C377.5,189.362,379.6,170.615,381.1,152H408a8.009,8.009,0,0,1,8,8v52.72a8.013,8.013,0,0,1-5.313,7.537l-20.772,7.426c-.072.023-.144.047-.215.073l-19.134,6.832c.709-4.053,1.389-8.093,2.03-12.089C373.327,218.019,374.061,213.221,374.838,207.832ZM174.532,47.651C196.16,37.559,225.092,32,256,32s59.84,5.559,81.468,15.651C356.872,56.705,368,68.5,368,80a22.17,22.17,0,0,1-4.384,12.708C340.5,74.854,300.364,64,256,64S171.5,74.854,148.384,92.708A22.175,22.175,0,0,1,144,80C144,68.5,155.128,56.705,174.532,47.651ZM128,200a8.009,8.009,0,0,1,8,8V425.376a23.789,23.789,0,0,0-16,.019V208A8.009,8.009,0,0,1,128,200Zm-32,0a8.009,8.009,0,0,1,8,8V425.4a23.789,23.789,0,0,0-16-.019V208A8.009,8.009,0,0,1,96,200Zm0,256a8,8,0,1,1,8-8v8Zm24,0v-8a8,8,0,1,1,8,8Zm136,24c-38.1,0-74.725-7.272-106.651-21.058A23.844,23.844,0,0,0,152,448V286.047q5.6,23.724,12.445,47.009l3.88,13.2A8,8,0,0,0,176,352H336a8,8,0,0,0,7.675-5.744l3.88-13.2c3.768-12.822,7.226-25.686,10.333-38.315L423.05,269.4C444.623,291.615,456,317.313,456,344,456,418.99,366.28,480,256,480Z"/><path d="M179.705,159.254c-.494-5.273-.943-10.606-1.336-15.851L162.414,144.6c.4,5.344.857,10.778,1.36,16.149Z"/><path d="M178.439,257.644l15.658-3.288c-5.477-26.092-9.769-52.756-12.756-79.252l-15.9,1.792C168.485,203.892,172.857,231.059,178.439,257.644Z"/><path d="M424,360H412.687l7.6-7.6a8,8,0,0,0-11.313-11.314L400,350.059V336a8,8,0,0,0-16,0v14.059l-8.971-8.971A8,8,0,0,0,363.716,352.4l7.6,7.6H360a8,8,0,0,0,0,16h14.059l-10.343,10.343a8,8,0,1,0,11.313,11.314l8.971-8.97V400a8,8,0,0,0,16,0V388.687l8.971,8.97a8,8,0,1,0,11.313-11.314L409.941,376H424a8,8,0,0,0,0-16Z"/><path d="M192,368c-13.458,0-24,14.056-24,32s10.542,32,24,32,24-14.056,24-32S205.458,368,192,368Zm0,48c-3.262,0-8-6.233-8-16s4.738-16,8-16,8,6.233,8,16S195.262,416,192,416Z"/><path d="M282.433,394.762c-14.068-11.723-33.184-14.158-43.522-5.547A19.248,19.248,0,0,0,232,404.291c0,8.67,4.945,17.763,13.567,24.947,8.4,7,18.607,10.692,27.666,10.692,6.106,0,11.694-1.677,15.855-5.146A19.244,19.244,0,0,0,296,419.71C296,411.04,291.055,401.946,282.433,394.762Zm-3.587,27.731c-1.689,1.406-4.989,1.864-8.825,1.225a31.039,31.039,0,0,1-14.211-6.771c-5.765-4.8-7.81-9.82-7.81-12.656a3.251,3.251,0,0,1,1.154-2.784A8.852,8.852,0,0,1,254.726,400a20.04,20.04,0,0,1,3.253.283,31.051,31.051,0,0,1,14.211,6.772c5.765,4.8,7.81,9.82,7.81,12.656A3.253,3.253,0,0,1,278.846,422.493Z"/></g></svg>
