<?xml version="1.0"?>
<svg xmlns="http://www.w3.org/2000/svg" id="Layer_1" data-name="Layer 1" viewBox="0 0 512 512" width="512" height="512"><title>Financial report</title><path d="M387.46,262.53a117.239,117.239,0,1,1-130.81,66.95v-.01a117.5,117.5,0,0,1,130.81-66.95ZM457.03,377.4a93.31,93.31,0,1,0-93.31,93.31A93.315,93.315,0,0,0,457.03,377.4Z" style="fill:#6fe3ff"/><circle cx="363.72" cy="377.4" r="93.31" style="fill:#6fe3ff"/><path d="M363.72,476.71a99.31,99.31,0,1,1,99.31-99.31A99.422,99.422,0,0,1,363.72,476.71Zm0-186.62a87.31,87.31,0,1,0,87.31,87.31A87.409,87.409,0,0,0,363.72,290.09Z" style="fill:#2561a1"/><path d="M398.72,357.75H384.271a35.922,35.922,0,0,0-8.7-18.03H398.72a6,6,0,0,0,0-12h-70a6,6,0,0,0,0,12h20.03a24.073,24.073,0,0,1,23.271,18.03h-43.3a6,6,0,0,0,0,12h43.306a24.018,24.018,0,0,1-23.276,18.03H328.72a6,6,0,0,0-4.121,10.361l50.06,47.309a6,6,0,1,0,8.242-8.721L343.8,399.78h4.946a36,36,0,0,0,35.525-30.03H398.72a6,6,0,0,0,0-12Z" style="fill:#2561a1"/><polygon points="131.762 167.447 131.161 167.027 81.472 132.424 88.329 122.576 138.639 157.612 131.762 167.447" style="fill:#e48e66"/><path d="M187.513,172.06a6,6,0,0,1-3.871-10.586l50.08-42.241a6,6,0,0,1,7.736,9.173l-50.08,42.24A5.974,5.974,0,0,1,187.513,172.06Z" style="fill:#e48e66"/><polygon points="290.483 99.054 282.376 90.206 331.395 45.291 339.445 54.19 339.235 54.38 290.483 99.054" style="fill:#e48e66"/><path d="M387.46,120.14V262.52a118.233,118.233,0,0,0-49.46.44V120.14Z" style="fill:#e48e66"/><path d="M286.19,183.48V289.41a117.664,117.664,0,0,0-29.54,40.06v.01H236.73v-146Z" style="fill:#e48e66"/><rect x="135.47" y="248.51" width="49.45" height="80.96" style="fill:#e48e66"/><rect x="34.2" y="191.27" width="49.45" height="138.2" style="fill:#e48e66"/><path d="M58.93,81.84a33.93,33.93,0,1,0,33.92,33.93A33.969,33.969,0,0,0,58.93,81.84Z" style="fill:#f8ec7d"/><path d="M261.46,74.91a33.925,33.925,0,1,0,33.93,33.92A33.958,33.958,0,0,0,261.46,74.91Z" style="fill:#f8ec7d"/><path d="M362.73,11.32a33.958,33.958,0,0,0-33.92,33.92,32.893,32.893,0,0,0,.483,5.686A33.923,33.923,0,1,0,362.73,11.32Z" style="fill:#f8ec7d"/><path d="M160.19,139.35a33.925,33.925,0,1,0,33.93,33.93A33.9,33.9,0,0,0,160.19,139.35Z" style="fill:#f8ec7d"/></svg>
