<svg id="Capa_1" enable-background="new 0 0 512 512" height="512" viewBox="0 0 512 512" width="512" xmlns="http://www.w3.org/2000/svg"><g><path d="m120 76v205h-90v-205c0-8.28 6.72-15 15-15h60c8.28 0 15 6.72 15 15z" fill="#fedd33"/><path d="m241 106v175h-91v-175c0-8.28 6.72-15 15-15h61c8.28 0 15 6.72 15 15z" fill="#fbbd43"/><path d="m361 136.5v144.5h-90v-144.5c0-8.28 6.72-15 15-15h60c8.28 0 15 6.72 15 15z" fill="#f19637"/><path d="m482 226v55h-91v-55c0-8.28 6.72-15 15-15h61c8.28 0 15 6.72 15 15z" fill="#e5733c"/><path d="m481.6 105.901c-.054-8.251-6.759-14.901-14.997-14.901-8.32 0-15.056 6.771-15.001 15.099l.141 21.428c-103.775-101.314-261.778-127.473-406.738-127.527-.002 0-.003 0-.005 0-8.282 0-14.997 6.712-15 14.995-.003 8.284 6.71 15.002 14.995 15.005 177.734.066 308.272 41.025 388.681 121.819l-27.774.181c-8.284.054-14.956 6.813-14.901 15.098.055 8.484 7.089 15.019 15.098 14.901l61-.399c8.278-.054 14.956-6.814 14.901-15.098z" fill="#f97658"/><path d="m482 166.5c.05 8.29-6.62 15.05-14.9 15.1l-61 .4c-8.01.12-15.04-6.42-15.1-14.9-.05-8.29 6.62-15.05 14.9-15.1l27.78-.18c-44.22-44.44-103.61-76.82-177.68-96.98v-31.11c73.57 18.95 141.94 51.27 195.74 103.8l-.14-21.43c-.05-8.33 6.68-15.1 15-15.1 8.24 0 14.95 6.65 15 14.9z" fill="#e25c3d"/><path d="m497 271h-482c-8.284 0-15 6.716-15 15v211c0 8.284 6.716 15 15 15h482c8.284 0 15-6.716 15-15v-211c0-8.284-6.716-15-15-15z" fill="#46e8a2"/><g fill="#00c98b"><path d="m512 286v211c0 8.28-6.72 15-15 15h-241v-241h241c8.28 0 15 6.72 15 15z"/><path d="m15 271h75v15c0 41.46-33.54 75-75 75h-15v-75c0-8.28 6.72-15 15-15z"/><path d="m90 497v15h-75c-8.28 0-15-6.72-15-15v-75h15c41.46 0 75 33.54 75 75z"/></g><path d="m512 286v75h-15c-41.46 0-75-33.54-75-75v-15h75c8.28 0 15 6.72 15 15z" fill="#009679"/><path d="m497 422h15v75c0 8.28-6.72 15-15 15h-75v-15c0-41.46 33.54-75 75-75z" fill="#009679"/><circle cx="256" cy="391" fill="#00c98b" r="60"/><path d="m316 391c0 33.08-26.92 60-60 60v-120c33.08 0 60 26.92 60 60z" fill="#009679"/><path d="m151 376h-30c-8.284 0-15 6.716-15 15s6.716 15 15 15h30c8.284 0 15-6.716 15-15s-6.716-15-15-15z" fill="#00c98b"/><path d="m391 376h-30c-8.284 0-15 6.716-15 15s6.716 15 15 15h30c8.284 0 15-6.716 15-15s-6.716-15-15-15z" fill="#009679"/></g></svg>