<svg height="512" viewBox="0 0 60 60" width="512" xmlns="http://www.w3.org/2000/svg"><g id="Page-1" fill="none" fill-rule="evenodd"><g id="001---Mobile-Plane-Ticket" fill-rule="nonzero"><path id="Shape" d="m47 51v5c0 1.6568542-1.3431458 3-3 3h-28c-1.6568542 0-3-1.3431458-3-3v-5c0 1.6568542 1.3431458 3 3 3h28c1.6568542 0 3-1.3431458 3-3z" fill="#e7ecfc"/><path id="Shape" d="m44 54v2c0 1.6568542-1.3431458 3-3 3h3c1.6568542 0 3-1.3431458 3-3v-5c0 1.6568542-1.3431458 3-3 3z" fill="#c8d8fd"/><path id="Shape" d="m47 45v6c0 1.6568542-1.3431458 3-3 3h-28c-1.6568542 0-3-1.3431458-3-3v-6h24.13c.4698179-.0148296.8714131-.3426624.98-.8.3613716-1.2974718 1.5431435-2.1950776 2.89-2.1950776s2.5286284.8976058 2.89 2.1950776c.1085869.4573376.5101821.7851704.98.8z" fill="#a1c1f9"/><path id="Shape" d="m44 45v6c0 1.6568542-1.3431458 3-3 3h3c1.6568542 0 3-1.3431458 3-3v-6z" fill="#7bacfd"/><path id="Shape" d="m47 4v9h-2.13c-.4698179.0148296-.8714131.3426624-.98.8-.3613716 1.2974718-1.5431435 2.1950776-2.89 2.1950776s-2.5286284-.8976058-2.89-2.1950776c-.1085869-.4573376-.5101821-.7851704-.98-.8h-24.13v-9c0-1.65685425 1.3431458-3 3-3h4l2.86 3.05c.5663757.60708315 1.3597411.95123705 2.19.95h9.9c.8302589.00123705 1.6236243-.34291685 2.19-.95l2.86-3.05h4c1.6568542 0 3 1.34314575 3 3z" fill="#a1c1f9"/><path id="Shape" d="m44.87 13h2.13v-9c0-1.65685425-1.3431458-3-3-3h-3c1.6568542 0 3 1.34314575 3 3v9z" fill="#7bacfd"/><path id="Shape" d="m40 1-2.86 3.05c-.5663757.60708315-1.3597411.95123705-2.19.95h-9.9c-.8302589.00123705-1.6236243-.34291685-2.19-.95l-2.86-3.05z" fill="#e7ecfc"/><path id="Shape" d="m37 1-2.86 3.05c-.5663757.60708315-1.3597411.95123705-2.19.95000332l3-.00000332c.8302589.00123705 1.6236243-.34291685 2.19-.95l2.86-3.05z" fill="#c8d8fd"/><path id="Shape" d="m59 16v26c0 1.6568542-1.3431458 3-3 3h-11.13c-.4698179-.0148296-.8714131-.3426624-.98-.8-.3613716-1.2974718-1.5431435-2.1950776-2.89-2.1950776s-2.5286284.8976058-2.89 2.1950776c-.1085869.4573376-.5101821.7851704-.98.8h-33.13c-1.65685425 0-3-1.3431458-3-3v-26c0-1.6568542 1.34314575-3 3-3h33.13c.4698179.0148296.8714131.3426624.98.8.3613716 1.2974718 1.5431435 2.1950776 2.89 2.1950776s2.5286284-.8976058 2.89-2.1950776c.1085869-.4573376.5101821-.7851704.98-.8h11.13c.7956495 0 1.5587112.3160705 2.1213203.8786797.5626092.5626091.8786797 1.3256708.8786797 2.1213203z" fill="#e7ecfc"/><path id="Shape" d="m56 13h-3c1.6568542 0 3 1.3431458 3 3v26c0 1.6568542-1.3431458 3-3 3h3c1.6568542 0 3-1.3431458 3-3v-26c0-1.6568542-1.3431458-3-3-3z" fill="#c8d8fd"/><rect id="Rectangle-path" fill="#e7ecfc" height="6" rx="1" width="6" x="47" y="17"/><g fill="#7bacfd"><path id="Shape" d="m26 27-1.839-9.2c-.0951286-.4660347-.5053558-.8005727-.981-.8h-1.18c-.5522847 0-1 .4477153-1 1v9"/><path id="Shape" d="m13 27-1.749-4.371c-.1516748-.3796505-.5191728-.6287412-.928-.629h-1.323c-.55228475 0-1 .4477153-1 1v4"/><path id="Shape" d="m13 31-1.749 4.371c-.1516748.3796505-.5191728.6287412-.928.629h-1.323c-.55228475 0-1-.4477153-1-1v-4"/><path id="Shape" d="m26 31-1.839 9.2c-.0951286.4660347-.5053558.8005727-.981.8h-1.18c-.5522847 0-1-.4477153-1-1v-9"/></g><path id="Shape" d="m7 31h25.7c1.3723441.0001192 2.7140249-.4059341 3.856-1.167.2781551-.1854732.4452244-.4976789.4452244-.832s-.1670693-.6465268-.4452244-.832c-1.1417518-.7617726-2.4834496-1.1685269-3.856-1.169h-25.7c-1.1045695 0-2 .8954305-2 2s.8954305 2 2 2z" fill="#a1c1f9"/><path id="Shape" d="m36.555 28.168c-1.14158-.7612303-2.4828934-1.1676257-3.855-1.168h-3c1.3723441-.0001192 2.7140249.4059341 3.856 1.167.2781551.1854732.4452244.4976789.4452244.832s-.1670693.6465268-.4452244.832c-1.1417518.7617726-2.4834496 1.1685269-3.856 1.169h3c1.3723441.0001192 2.7140249-.4059341 3.856-1.167.278477-.1855665.4456761-.4981272.4454751-.8327679-.000201-.3346406-.1677754-.6470002-.4464751-.8322321z" fill="#7bacfd"/><path id="Shape" d="m16 4c0-1.65685425 1.3431458-3 3-3h-3c-1.6568542 0-3 1.34314575-3 3v9h3z" fill="#fff"/><path id="Shape" d="m4 45h3c-1.65685425 0-3-1.3431458-3-3v-26c0-1.6568542 1.34314575-3 3-3h-3c-1.65685425 0-3 1.3431458-3 3v26c0 1.6568542 1.34314575 3 3 3z" fill="#fff"/><path id="Shape" d="m13 45v11c0 1.6568542 1.3431458 3 3 3h3c-1.6568542 0-3-1.3431458-3-3v-11z" fill="#fff"/><path id="Rectangle-path" d="m0 34h2v8h-2z" fill="#fff"/><g fill="#388eff"><path id="Shape" d="m1.02 39c.55228475 0 1-.4477153 1-1s-.44771525-1-1-1h-.01c-.55228475.0027614-.99776142.4527153-.995 1.005s.45271525.9977614 1.005.995z"/><path id="Shape" d="m56 12h-8v-8c0-2.209139-1.790861-4-4-4h-28c-2.209139 0-4 1.790861-4 4v8h-8c-2.209139 0-4 1.790861-4 4v18c0 .5522847.44771525 1 1 1s1-.4477153 1-1v-18c0-1.1045695.8954305-2 2-2l33.143.063c.3838563 1.3758211 1.473216 2.4419219 2.857 2.796v.141c0 .5522847.4477153 1 1 1s1-.4477153 1-1v-.142c1.4011787-.3673045 2.4973404-1.4585027 2.871-2.858h11.129c1.1045695 0 2 .8954305 2 2v10h-11c-.5522847 0-1 .4477153-1 1s.4477153 1 1 1h11v2h-11c-.5522847 0-1 .4477153-1 1s.4477153 1 1 1h11v10c0 1.1045695-.8954305 2-2 2l-11.143-.063c-.3838563-1.3758211-1.473216-2.4419219-2.857-2.796v-.141c0-.5522847-.4477153-1-1-1s-1 .4477153-1 1v.142c-1.4011787.3673045-2.4973404 1.4585027-2.871 2.858h-33.129c-1.1045695 0-2-.8954305-2-2 0-.5522847-.44771525-1-1-1s-1 .4477153-1 1c0 2.209139 1.790861 4 4 4h8v10c0 2.209139 1.790861 4 4 4h28c2.209139 0 4-1.790861 4-4v-10h8c2.209139 0 4-1.790861 4-4v-26c0-2.209139-1.790861-4-4-4zm-18.308-10-1.282 1.368c-.378896.40269492-.907076.63133176-1.46.632h-9.9c-.5527743.00000995-1.0809024-.22876112-1.459-.632l-1.282-1.368zm8.308 10h-1.129c-.921326.0088762-1.7200207.6397709-1.942 1.534-.2379805.8691675-1.0278414 1.4718343-1.929 1.4718343s-1.6910195-.6026668-1.929-1.4718343c-.2219793-.8942291-1.020674-1.5251238-1.942-1.534h-23.129v-8c0-1.1045695.8954305-2 2-2h3.567l2.565 2.735c.7567936.80574999 1.8125738 1.2634477 2.918 1.265h9.9c1.1054015-.00208587 2.1611681-.45925919 2.919-1.264l2.564-2.736h3.567c1.1045695 0 2 .8954305 2 2zm0 44c0 1.1045695-.8954305 2-2 2h-28c-1.1045695 0-2-.8954305-2-2v-1.556c.6053465.3599241 1.2957468.5518554 2 .556h28c.7042532-.0041446 1.3946535-.1960759 2-.556zm0-5c0 1.1045695-.8954305 2-2 2h-28c-1.1045695 0-2-.8954305-2-2v-5h23.129c.921326-.0088762 1.7200207-.6397709 1.942-1.534.2379805-.8691675 1.0278414-1.4718343 1.929-1.4718343s1.6910195.6026668 1.929 1.4718343c.2219793.8942291 1.020674 1.5251238 1.942 1.534h1.129z"/><path id="Shape" d="m40 37c0 .5522847.4477153 1 1 1s1-.4477153 1-1v-1c0-.5522847-.4477153-1-1-1s-1 .4477153-1 1z"/><path id="Shape" d="m40 32c0 .5522847.4477153 1 1 1s1-.4477153 1-1v-1c0-.5522847-.4477153-1-1-1s-1 .4477153-1 1z"/><path id="Shape" d="m40 27c0 .5522847.4477153 1 1 1s1-.4477153 1-1v-1c0-.5522847-.4477153-1-1-1s-1 .4477153-1 1z"/><path id="Shape" d="m41 23c.5522847 0 1-.4477153 1-1v-1c0-.5522847-.4477153-1-1-1s-1 .4477153-1 1v1c0 .5522847.4477153 1 1 1z"/><path id="Shape" d="m48 40v-4c0-.5522847-.4477153-1-1-1s-1 .4477153-1 1v4c0 .5522847.4477153 1 1 1s1-.4477153 1-1z"/><path id="Shape" d="m52 40v-4c0-.5522847-.4477153-1-1-1s-1 .4477153-1 1v4c0 .5522847.4477153 1 1 1s1-.4477153 1-1z"/><path id="Shape" d="m56 40v-4c0-.5522847-.4477153-1-1-1s-1 .4477153-1 1v4c0 .5522847.4477153 1 1 1s1-.4477153 1-1z"/><path id="Shape" d="m48 24h4c1.1045695 0 2-.8954305 2-2v-4c0-1.1045695-.8954305-2-2-2h-4c-1.1045695 0-2 .8954305-2 2v4c0 1.1045695.8954305 2 2 2zm0-6h4v4h-4z"/><path id="Shape" d="m22 42h1.18c.9530648-.0000036 1.7737228-.6725163 1.961-1.607l1.679-8.393h5.88c1.5702102.0014272 3.1054632-.463569 4.411-1.336.5567433-.3708726.891199-.9955384.891199-1.6645s-.3344557-1.2936274-.891199-1.6645c-1.3057008-.8719676-2.840911-1.3366028-4.411-1.335h-5.88l-1.679-8.392c-.1868611-.9348813-1.007627-1.6079009-1.961-1.608h-1.18c-1.1045695 0-2 .8954305-2 2v8h-6.323l-1.5-3.743c-.3009012-.7602359-1.0363836-1.2588882-1.854-1.257h-1.323c-1.1045695 0-2 .8954305-2 2v3c-1.65685425 0-3 1.3431458-3 3s1.34314575 3 3 3v3c0 1.1045695.8954305 2 2 2h1.323c.8187101.0031241 1.5556987-.4957422 1.857-1.257l1.497-3.743h6.323v8c0 1.1045695.8954305 2 2 2zm1.18-2h-1.18v-8h2.78zm-1.18-22h1.18l1.6 8h-2.78zm-13 5h1.323l1.2 3h-2.523zm1.323 12h-1.323v-3h2.523zm-3.323-5c-.55228475 0-1-.4477153-1-1s.44771525-1 1-1h25.7c1.1747785-.0009608 2.3233626.347095 3.3 1-.9766374.652905-2.1252215 1.0009608-3.3 1z"/></g></g></g></svg>