<?xml version="1.0"?>
<svg xmlns="http://www.w3.org/2000/svg" xmlns:xlink="http://www.w3.org/1999/xlink" version="1.1" id="Capa_1" x="0px" y="0px" viewBox="0 0 512 512" style="enable-background:new 0 0 512 512;" xml:space="preserve" width="512px" height="512px" class=""><g><path style="fill:#D2CFC2" d="M469.333,145.067H42.667c-18.85,0-34.133,15.283-34.133,34.133v256  c0,18.85,15.283,34.133,34.133,34.133h426.667c18.85,0,34.133-15.283,34.133-34.133v-256  C503.467,160.35,488.184,145.067,469.333,145.067z M281.6,327.851v13.483h-51.2v-13.483c-34.953-14.14-51.823-53.931-37.683-88.883  c14.14-34.953,53.931-51.823,88.883-37.683s51.823,53.931,37.683,88.883C312.346,307.311,298.752,320.913,281.6,327.851z" data-original="#FFDA44" class="" data-old_color="#FFDA44"/><path style="fill:#9C9889" d="M469.333,93.867H274.261c-11.418,0.009-22.084-5.692-28.416-15.189l-13.824-20.821  c-6.332-9.498-16.998-15.198-28.416-15.189H42.667c-18.85,0-34.133,15.283-34.133,34.133v102.4c0-18.85,15.283-34.133,34.133-34.133  h426.667c18.85,0,34.133,15.283,34.133,34.133V128C503.467,109.15,488.184,93.867,469.333,93.867z" data-original="#FFCE00" class="active-path" data-old_color="#FFCE00"/><path style="fill:#D2CFC2" d="M256,196.267c-37.7-0.043-68.301,30.481-68.343,68.19c-0.034,27.878,16.887,52.975,42.743,63.394  v13.483h51.2v-13.483c34.97-14.097,51.891-53.871,37.794-88.841C308.975,213.154,283.878,196.233,256,196.267z" data-original="#FFDA44" class="" data-old_color="#FFDA44"/><g>
	<path style="fill:#555555" d="M469.333,85.333H274.261c-8.567,0.026-16.58-4.25-21.333-11.383l-13.833-20.821   c-7.902-11.878-21.222-19.012-35.49-18.995H42.667C19.115,34.159,0.026,53.248,0,76.8v358.4   c0.026,23.552,19.115,42.641,42.667,42.667h426.667c23.552-0.026,42.641-19.115,42.667-42.667V128   C511.974,104.448,492.885,85.359,469.333,85.333z M17.067,76.8c0-14.14,11.46-25.6,25.6-25.6h160.939   c8.567-0.026,16.58,4.25,21.333,11.383l13.833,20.821c7.902,11.878,21.222,19.012,35.49,18.995h195.072   c14.14,0,25.6,11.46,25.6,25.6v17.067c-0.333-0.256-0.717-0.435-1.058-0.674c-0.691-0.486-1.417-0.913-2.142-1.357   c-1.451-0.905-2.953-1.732-4.506-2.458c-0.853-0.384-1.647-0.742-2.492-1.075c-1.673-0.631-3.379-1.161-5.12-1.587   c-0.802-0.196-1.57-0.444-2.389-0.597c-2.603-0.512-5.239-0.768-7.893-0.785H42.667c-2.654,0.017-5.308,0.29-7.91,0.802   c-0.853,0.154-1.587,0.401-2.389,0.597c-1.741,0.418-3.447,0.947-5.12,1.587c-0.853,0.333-1.707,0.7-2.5,1.075   c-1.545,0.734-3.055,1.545-4.506,2.449c-0.717,0.452-1.451,0.853-2.142,1.365c-0.341,0.239-0.725,0.418-1.058,0.674L17.067,76.8z    M494.933,435.2c0,14.14-11.46,25.6-25.6,25.6H42.667c-14.14,0-25.6-11.46-25.6-25.6v-256c0-14.14,11.46-25.6,25.6-25.6h426.667   c14.14,0,25.6,11.46,25.6,25.6V435.2z" data-original="#231F20" class="" data-old_color="#231F20"/>
	<path style="fill:#555555" d="M256,187.733c-42.419-0.026-76.817,34.338-76.851,76.749c-0.017,29.21,16.538,55.902,42.718,68.873   v7.979c0,4.71,3.823,8.533,8.533,8.533h51.2c4.71,0,8.533-3.823,8.533-8.533v-7.979c38.007-18.825,53.564-64.896,34.739-102.903   C311.902,204.271,285.21,187.716,256,187.733z M278.391,319.94c-3.217,1.306-5.325,4.437-5.325,7.91v4.949h-34.133v-4.949   c0-3.473-2.108-6.605-5.325-7.91c-30.583-12.365-45.355-47.181-32.99-77.773c12.365-30.592,47.181-45.355,77.773-32.99   c30.583,12.365,45.355,47.181,32.99,77.773C305.306,301.969,293.402,313.873,278.391,319.94z" data-original="#231F20" class="" data-old_color="#231F20"/>
	<path style="fill:#555555" d="M281.6,401.067h-51.2c-4.71,0-8.533-3.823-8.533-8.533c0-4.71,3.823-8.533,8.533-8.533h51.2   c4.71,0,8.533,3.823,8.533,8.533C290.133,397.244,286.31,401.067,281.6,401.067z" data-original="#231F20" class="" data-old_color="#231F20"/>
	<path style="fill:#555555" d="M281.6,375.467h-51.2c-4.71,0-8.533-3.823-8.533-8.533c0-4.71,3.823-8.533,8.533-8.533h51.2   c4.71,0,8.533,3.823,8.533,8.533C290.133,371.644,286.31,375.467,281.6,375.467z" data-original="#231F20" class="" data-old_color="#231F20"/>
	<path style="fill:#555555" d="M264.533,426.667h-17.067c-4.71,0-8.533-3.823-8.533-8.533s3.823-8.533,8.533-8.533h17.067   c4.71,0,8.533,3.823,8.533,8.533S269.244,426.667,264.533,426.667z" data-original="#231F20" class="" data-old_color="#231F20"/>
</g></g> </svg>
