<?xml version="1.0"?>
<svg xmlns="http://www.w3.org/2000/svg" xmlns:xlink="http://www.w3.org/1999/xlink" xmlns:svgjs="http://svgjs.com/svgjs" version="1.1" width="512" height="512" x="0" y="0" viewBox="0 0 64 64" style="enable-background:new 0 0 512 512" xml:space="preserve" class=""><g><g xmlns="http://www.w3.org/2000/svg"><path d="m37.52 35.254c2.17 1.117 3.479 2.849 3.479 4.745 0 .469-.084.921-.229 1.356l2.23 2.23 8.855-8.856-.577-1.729h-11.769z" fill="#9da3ac" data-original="#000000" style="" class=""/><path d="m32 25.998c4.962 0 9-4.037 9-8.999 0-4.963-4.037-9-9-9s-9 4.037-9 9c0 4.962 4.037 8.999 9 8.999zm-3.708-8.291c-.39-.391-.39-1.024 0-1.414l1.293-1.293c.264-.264.415-.629.415-1 0-.913.355-1.771 1-2.416l.586-.585c1.291-1.289 3.54-1.287 4.829 0l2.585 2.585c.645.646 1 1.503 1 2.414 0 .913-.355 1.771-1 2.416l-.586.585c-.645.646-1.502 1-2.414 1-.378 0-.733.147-1 .415l-1.292 1.292c-.188.188-.442.293-.707.293-.266.001-.52-.104-.708-.292l-1.293-1.293-3.292 3.292-1.415-1.415 3.292-3.292z" fill="#9da3ac" data-original="#000000" style="" class=""/><path d="m32 38.487 10.498-11.897c2.258-2.56 3.501-5.849 3.501-9.263v-.328c0-7.72-6.28-14-13.999-14-7.72 0-14 6.28-14 14v.328c0 3.414 1.244 6.703 3.502 9.263zm0-32.488c6.065 0 11 4.935 11 11 0 6.064-4.935 10.999-11 10.999s-11-4.935-11-10.999c0-6.065 4.935-11 11-11z" fill="#9da3ac" data-original="#000000" style="" class=""/><path d="m38.585 47.998-2.606-2.605c-1.195.385-2.54.605-3.98.605-5.047 0-9-2.635-9-6 0-1.895 1.309-3.628 3.479-4.744l-1.99-2.256h-11.768l-.577 1.73 19.855 19.856z" fill="#9da3ac" data-original="#000000" style="" class=""/><path d="m33.585 19c.645-.646 1.502-1.001 2.414-1.001.377 0 .733-.146 1-.415l.586-.585c.264-.263.415-.628.415-.999 0-.379-.147-.734-.415-1.001l-2.585-2.585c-.535-.535-1.466-.534-2 0l-.586.585c-.267.267-.414.622-.414.999 0 .913-.355 1.771-1 2.416l-.585.585 2.585 2.586z" fill="#9da3ac" data-original="#000000" style="" class=""/><path d="m32.749 40.66c-.19.215-.463.338-.75.338s-.56-.123-.75-.338l-3.399-3.852c-1.771.764-2.85 1.949-2.85 3.19 0 2.169 3.206 4 7 4s7-1.831 7-4c0-1.241-1.08-2.427-2.851-3.19z" fill="#9da3ac" data-original="#000000" style="" class=""/><path d="m60.612 60.999-2.605-7.815c-.003.002-.005.004-.008.005v3.795c0 .339.207.663.554.866.932.543 1.446 1.307 1.447 2.146 0 .357-.113.69-.287 1.002h.899z" fill="#9da3ac" data-original="#000000" style="" class=""/><path d="m49 47.999c-.001-.58.085-1.157.255-1.715.017-.055.028-.114.044-.17l-6.854 6.854 7.654 7.653c-.065-.2-.099-.408-.099-.623-.001-.84.513-1.604 1.448-2.148.344-.203.552-.526.552-.867v-3.794c-1.842-1.063-3-3.035-3-5.19z" fill="#9da3ac" data-original="#000000" style="" class=""/><path d="m40.031 52.967c0-.265.105-.52.293-.707l9.602-9.601c.044-.544.074-1.094.074-1.659 0-.553.447-1 1-1h2.614l-1.05-3.15-8.856 8.856c-.195.195-.451.292-.707.292s-.512-.097-.708-.292l-2.583-2.583c-.477.53-1.071 1.004-1.764 1.406l2.761 2.761c.39.391.39 1.024 0 1.415l-8 8c-.195.195-.451.292-.708.292-.256 0-.512-.097-.707-.292l-19.856-19.855-.792 2.378 8.063 8.064c.286.286.372.717.217 1.09-.155.374-.52.618-.924.618l-10.613-.002-.667 2.001h15.28c.266 0 .52.104.708.292l7 7c.39.391.39 1.024 0 1.415l-1.293 1.293h3.17l5.708-5.708c.391-.39 1.024-.39 1.415 0l5.708 5.708h3.233l-7.324-7.324c-.189-.188-.294-.443-.294-.708z" fill="#9da3ac" data-original="#000000" style="" class=""/><path d="m57.543 59.577c-.968-.566-1.544-1.536-1.544-2.594l.001-4.407c0-.396.235-.756.599-.916 1.458-.639 2.401-2.075 2.401-3.661 0-.384-.058-.766-.169-1.132-.462-1.515-.734-3.147-.809-4.868h-6.043c-.076 1.721-.347 3.354-.81 4.869-.113.367-.169.747-.169 1.129 0 1.588.942 3.025 2.401 3.663.364.16.599.52.599.917v4.407c0 1.058-.577 2.026-1.542 2.592-.375.218-.458.398-.458.421 0 .25 1.064 1.001 3 1.001s3-.751 3-1c0-.022-.084-.204-.457-.421z" fill="#9da3ac" data-original="#000000" style="" class=""/><path d="m6.053 52.999-2.666 8h22.197l2.001-2-6-6z" fill="#9da3ac" data-original="#000000" style="" class=""/><path d="m9.936 41.35-1.882 5.648h7.531z" fill="#9da3ac" data-original="#000000" style="" class=""/><path d="m34.414 60.999h7.171l-3.585-3.586z" fill="#9da3ac" data-original="#000000" style="" class=""/></g></g></svg>
