<?xml version="1.0"?>
<svg xmlns="http://www.w3.org/2000/svg" xmlns:xlink="http://www.w3.org/1999/xlink" xmlns:svgjs="http://svgjs.com/svgjs" version="1.1" width="512" height="512" x="0" y="0" viewBox="0 0 64 64" style="enable-background:new 0 0 512 512" xml:space="preserve" class=""><g><g xmlns="http://www.w3.org/2000/svg" id="Book-pencil"><path d="M57,41H52V5a3.009,3.009,0,0,0-3-3H5A3.009,3.009,0,0,0,2,5V59a3.009,3.009,0,0,0,3,3H49a3.009,3.009,0,0,0,3-3V51h5a5,5,0,0,0,0-10ZM40,4h6v8.15L43.78,9.38a.991.991,0,0,0-1.56,0L40,12.15ZM8,60H5a1,1,0,0,1-1-1V5A1,1,0,0,1,5,4H8Zm42-1a1,1,0,0,1-1,1H10V4H38V15a1,1,0,0,0,.67.94.983.983,0,0,0,1.11-.32L43,11.6l3.22,4.02A.971.971,0,0,0,47,16a.96.96,0,0,0,.33-.06A1,1,0,0,0,48,15V4h1a1,1,0,0,1,1,1V41H27a.978.978,0,0,0-.41.09l-9,4a1,1,0,0,0,0,1.82l9,4A.978.978,0,0,0,27,51H50ZM29.71,47.29,28.41,46l1.3-1.29a1.008,1.008,0,0,0,0-1.42l-.3-.29H48v6H29.41l.3-.29A1.008,1.008,0,0,0,29.71,47.29Zm-3.42-.58L27.59,48l-.81.81L20.46,46l6.32-2.81.81.81-1.3,1.29A1.008,1.008,0,0,0,26.29,46.71ZM52,49H50V43h2Zm5,0H54V43h3a3,3,0,0,1,0,6Z" fill="#9da3ac" data-original="#000000" style="" class=""/></g></g></svg>
