<?xml version="1.0"?>
<svg xmlns="http://www.w3.org/2000/svg" xmlns:xlink="http://www.w3.org/1999/xlink" xmlns:svgjs="http://svgjs.com/svgjs" version="1.1" width="512" height="512" x="0" y="0" viewBox="0 0 388 388" style="enable-background:new 0 0 512 512" xml:space="preserve" class=""><g transform="matrix(1,0,0,1,35,0)"><path xmlns="http://www.w3.org/2000/svg" d="m39.484375 270.335938c.179687 0 .324219-.144532.324219-.324219 0-.179688-.144532-.324219-.324219-.324219s-.324219.144531-.324219.324219c0 .179687.144532.324219.324219.324219zm0 0" fill="#ffffff" data-original="#000000" style="" class=""/><path xmlns="http://www.w3.org/2000/svg" d="m157.558594 318.234375c0 1.011719-.820313 1.832031-1.832032 1.832031-1.015624 0-1.835937-.820312-1.835937-1.832031s.820313-1.832031 1.835937-1.832031c1.011719 0 1.832032.820312 1.832032 1.832031zm0 0" fill="#ffffff" data-original="#000000" style="" class=""/><path xmlns="http://www.w3.org/2000/svg" d="m97.605469 270.335938c.179687 0 .324219-.144532.324219-.324219 0-.179688-.148438-.324219-.324219-.324219-.179688 0-.328125.144531-.328125.324219 0 .085937.035156.167969.097656.230469.0625.058593.144531.09375.230469.09375zm0 0" fill="#ffffff" data-original="#000000" style="" class=""/><path xmlns="http://www.w3.org/2000/svg" d="m53.910156 58.691406v81.328125h9.5625v-81.328125c.03125-27.121094 22.007813-49.097656 49.125-49.128906h20.953125v-9.5625h-20.953125c-32.398437.0351562-58.652344 26.292969-58.6875 58.691406zm0 0" fill="#ffffff" data-original="#000000" style="" class=""/><path xmlns="http://www.w3.org/2000/svg" d="m145.550781 0h20.347657v9.5625h-20.347657zm0 0" fill="#ffffff" data-original="#000000" style="" class=""/><path xmlns="http://www.w3.org/2000/svg" d="m257.539062 140.019531v-81.328125c-.035156-32.398437-26.289062-58.6562498-58.6875-58.691406h-20.953124v9.5625h20.953124c27.121094.03125 49.09375 22.007812 49.125 49.128906v81.328125zm0 0" fill="#ffffff" data-original="#000000" style="" class=""/><path xmlns="http://www.w3.org/2000/svg" d="m75.472656 58.691406v81.328125h160.503906v-81.328125c-.019531-20.496094-16.628906-37.105468-37.125-37.128906h-86.253906c-20.496094.023438-37.101562 16.632812-37.125 37.128906zm0 0" fill="#ffffff" data-original="#000000" style="" class=""/><path xmlns="http://www.w3.org/2000/svg" d="m0 166.019531v207.980469c.0078125 7.726562 6.273438 13.992188 14 14h283.449219c7.730469-.007812 13.992187-6.273438 14-14v-207.980469c-.007813-7.726562-6.269531-13.988281-14-14h-283.449219c-7.726562.011719-13.9921875 6.273438-14 14zm155.726562 162.378907c-5.617187 0-10.167968-4.550782-10.167968-10.164063 0-5.617187 4.550781-10.167969 10.167968-10.167969 5.613282 0 10.164063 4.550782 10.164063 10.167969-.003906 5.609375-4.554687 10.160156-10.164063 10.164063zm116.238282-70.0625c6.449218 0 11.675781 5.226562 11.675781 11.671874 0 6.449219-5.226563 11.675782-11.675781 11.675782-6.445313 0-11.675782-5.226563-11.675782-11.675782.011719-6.441406 5.234376-11.664062 11.675782-11.671874zm-58.121094 0c6.449219-.003907 11.675781 5.222656 11.675781 11.671874 0 6.449219-5.226562 11.675782-11.671875 11.675782-6.449218 0-11.675781-5.226563-11.675781-11.675782.007813-6.441406 5.230469-11.664062 11.671875-11.671874zm-79.269531-38.382813c6.277343-5.90625 14.746093-8.902344 23.335937-8.261719 13.589844.957032 24.957032 10.671875 28.027344 23.941406 3.066406 13.269532-2.886719 26.988282-14.671875 33.8125-5.984375 3.589844-9.617187 10.085938-9.539063 17.066407v10.851562c0 3.3125-2.6875 6-6 6-3.316406 0-6-2.6875-6-6v-10.851562c-.070312-11.253907 5.835938-21.699219 15.515626-27.445313 7.976562-4.617187 11.492187-14.292968 8.332031-22.953125-3.15625-8.660156-12.074219-13.800781-21.152344-12.199219-9.078125 1.601563-15.695313 9.488282-15.695313 18.707032 0 3.3125-2.6875 6-6 6-3.316406 0-6-2.6875-6-6 .011719-8.59375 3.578126-16.796875 9.847657-22.667969zm-36.96875 38.382813c6.449219 0 11.675781 5.226562 11.675781 11.675781 0 6.445312-5.226562 11.675781-11.675781 11.675781s-11.675781-5.230469-11.675781-11.675781c.007812-6.445313 5.230468-11.667969 11.675781-11.675781zm-58.121094 0c6.449219 0 11.675781 5.226562 11.675781 11.675781 0 6.445312-5.226562 11.675781-11.675781 11.675781-6.445313 0-11.675781-5.226562-11.675781-11.675781.007812-6.445313 5.230468-11.667969 11.675781-11.675781zm0 0" fill="#ffffff" data-original="#000000" style="" class=""/><path xmlns="http://www.w3.org/2000/svg" d="m271.964844 270.335938c.179687 0 .324218-.144532.324218-.324219 0-.179688-.144531-.324219-.324218-.324219-.179688 0-.324219.144531-.324219.324219 0 .085937.035156.167969.09375.230469.0625.058593.144531.09375.230469.09375zm0 0" fill="#ffffff" data-original="#000000" style="" class=""/><path xmlns="http://www.w3.org/2000/svg" d="m213.84375 270.335938c.179688 0 .328125-.144532.328125-.324219 0-.179688-.148437-.324219-.328125-.324219s-.324219.144531-.324219.324219c0 .179687.144531.324219.324219.324219zm0 0" fill="#ffffff" data-original="#000000" style="" class=""/></g></svg>
