<svg viewBox="0 0 512 512" xmlns="http://www.w3.org/2000/svg"><path d="m511.914062 256c0-141.386719-114.59375-256-255.957031-256-141.359375 0-255.957031 114.613281-255.957031 256s114.597656 256 255.957031 256c141.363281 0 255.957031-114.613281 255.957031-256zm0 0" fill="#66d15f"/><path d="m412.972656 53.824219c33.722656 43.363281 53.816406 97.851562 53.816406 157.042969 0 141.386718-114.59375 256-255.957031 256-59.179687 0-113.660156-20.097657-157.015625-53.828126 46.832032 60.214844 119.960938 98.960938 202.140625 98.960938 141.363281 0 255.957031-114.613281 255.957031-256 0-82.195312-38.738281-155.335938-98.941406-202.175781zm0 0" fill="#53bc77"/><path d="m359.144531 323.597656h-228.632812c-9.582031 0-17.347657-7.765625-17.347657-17.34375v-95.5625c0-9.578125 7.765626-17.34375 17.347657-17.34375h228.632812c9.578125 0 17.34375 7.765625 17.34375 17.34375v95.5625c0 9.578125-7.765625 17.34375-17.34375 17.34375zm0 0" fill="#d4ffdf"/><path d="m359.144531 193.34375h-35.03125c9.578125 0 17.34375 7.765625 17.34375 17.347656v95.558594c0 9.578125-7.765625 17.347656-17.34375 17.347656h35.03125c9.578125 0 17.34375-7.769531 17.34375-17.347656v-95.558594c0-9.578125-7.765625-17.347656-17.34375-17.347656zm0 0" fill="#b1ffc5"/><path d="m393.832031 292.1875h-17.34375v-67.433594h17.34375c9.578125 0 17.34375 7.765625 17.34375 17.34375v32.746094c0 9.578125-7.765625 17.34375-17.34375 17.34375zm0 0" fill="#d4ffdf"/><path d="m230.964844 284.808594c-2.058594 0-4.035156-.816406-5.492188-2.273438l-21.167968-21.171875c-3.03125-3.035156-3.03125-7.953125 0-10.984375 3.03125-3.035156 7.949218-3.035156 10.980468 0l15.679688 15.679688 38.65625-38.664063c3.03125-3.035156 7.949218-3.035156 10.984375 0 3.03125 3.03125 3.03125 7.949219 0 10.984375l-44.148438 44.15625c-1.457031 1.457032-3.433593 2.273438-5.492187 2.273438zm0 0" fill="#53bc77"/></svg>