<svg id="Capa_1" enable-background="new 0 0 512 512" height="512" viewBox="0 0 512 512" width="512" xmlns="http://www.w3.org/2000/svg"><g><path d="m0 256c0-141.2 114.316-255.701 255.447-255.999 141.753-.3 256.113 113.436 256.552 255.189.285 91.933-47.892 172.635-120.43 218.007-10.651 6.662-23.486 8.82-35.732 6.019-31.58-7.223-65.103-11.11-99.836-11.11-34.697 0-68.185 3.878-99.735 11.086-12.165 2.78-24.966.783-35.554-5.821-72.482-45.206-120.712-125.656-120.712-217.371z" fill="#3d4ec6"/><path d="m442 252.471c0 104.674-84.855 189.529-189.529 189.529s-189.529-84.855-189.529-189.529 84.855-189.529 189.529-189.529 189.529 84.855 189.529 189.529z" fill="#5766ce"/><path d="m409.01 134.984c6.691 5.302 10.99 13.498 10.99 22.678v41.87c0 2.762-2.238 5-5 5s-5-2.238-5-5v-41.87c0-10.354-8.358-18.793-18.682-18.924h-130.318v76.348c0 2.762-2.238 5-5 5s-5-2.238-5-5v-76.348l-137.467-.001c-10.436 0-18.926 8.49-18.926 18.926v41.87c0 2.762-2.238 5-5 5s-5-2.238-5-5v-41.87c0-10.777 5.924-20.195 14.686-25.172-6.691-5.302-10.99-13.498-10.99-22.678v-41.87c0-2.762 2.238-5 5-5s5 2.238 5 5v41.87c0 10.354 8.358 18.793 18.682 18.924h134.015v-60.795c0-2.762 2.238-5 5-5s5 2.238 5 5v60.794l133.771.001c10.436 0 18.926-8.49 18.926-18.926v-41.87c0-2.762 2.238-5 5-5s5 2.238 5 5v41.87c-.001 10.778-5.925 20.197-14.687 25.173z" fill="#8c96dd"/><path d="m390 56c0-14.359 11.641-26 26-26s26 11.641 26 26-11.641 26-26 26-26-11.641-26-26zm-294-26c-14.359 0-26 11.641-26 26s11.641 26 26 26 26-11.641 26-26-11.641-26-26-26zm0 150c-14.359 0-26 11.641-26 26s11.641 26 26 26 26-11.641 26-26-11.641-26-26-26zm320 0c-14.359 0-26 11.641-26 26s11.641 26 26 26 26-11.641 26-26-11.641-26-26-26zm-160-150c-14.359 0-26 11.641-26 26s11.641 26 26 26 26-11.641 26-26-11.641-26-26-26z" fill="#ff9f22"/><path d="m282 56c0 3.323-.624 6.5-1.76 9.421-2.921 1.136-6.098 1.76-9.421 1.76-14.359 0-26-11.641-26-26 0-3.323.624-6.5 1.76-9.421 2.921-1.136 6.098-1.76 9.421-1.76 14.359 0 26 11.641 26 26zm-186-26c-3.323 0-6.5.624-9.421 1.76-1.136 2.921-1.76 6.098-1.76 9.421 0 14.359 11.641 26 26 26 3.323 0 6.5-.624 9.421-1.76 1.136-2.921 1.76-6.098 1.76-9.421 0-14.359-11.641-26-26-26zm334.819 37.181c3.323 0 6.5-.624 9.421-1.76 1.136-2.921 1.76-6.098 1.76-9.421 0-14.359-11.641-26-26-26-3.323 0-6.5.624-9.421 1.76-1.136 2.921-1.76 6.098-1.76 9.421 0 14.36 11.64 26 26 26zm-334.819 112.819c-3.323 0-6.5.624-9.421 1.76-1.136 2.921-1.76 6.098-1.76 9.421 0 14.359 11.641 26 26 26 3.323 0 6.5-.624 9.421-1.76 1.136-2.921 1.76-6.098 1.76-9.421 0-14.359-11.641-26-26-26zm320 0c-3.323 0-6.5.624-9.421 1.76-1.136 2.921-1.76 6.098-1.76 9.421 0 14.359 11.641 26 26 26 3.323 0 6.5-.624 9.421-1.76 1.136-2.921 1.76-6.098 1.76-9.421 0-14.359-11.641-26-26-26z" fill="#ffc14f"/><path d="m363.161 277.16c0 59.183-47.977 107.161-107.161 107.161s-107.161-47.977-107.161-107.161 47.978-107.16 107.161-107.16 107.161 47.977 107.161 107.16z" fill="#ffc14f"/><path d="m347.552 332.882c-18.814 30.846-52.778 51.439-91.552 51.439-59.183 0-107.161-47.978-107.161-107.161 0-38.774 20.593-72.738 51.439-91.552-9.903 16.236-15.609 35.312-15.609 55.721 0 59.183 47.977 107.161 107.161 107.161 20.41 0 39.486-5.705 55.722-15.608z" fill="#ffb52d"/><path d="m328.943 261.255c0 31.501-25.537 57.038-57.038 57.038s-57.038-25.537-57.038-57.038 25.537-57.038 57.038-57.038 57.038 25.537 57.038 57.038z" fill="#ffcd71"/><path d="m256 194.494c-45.583 0-82.667 37.084-82.667 82.667 0 45.582 37.084 82.667 82.667 82.667s82.667-37.084 82.667-82.667-37.084-82.667-82.667-82.667zm0 153.086c-38.829 0-70.42-31.591-70.42-70.42s31.591-70.42 70.42-70.42 70.42 31.591 70.42 70.42c0 38.83-31.591 70.42-70.42 70.42zm8.84-80.668c-1.494-.528-3.021-1.079-4.545-1.652v-25.204c3.571 1.004 5.691 2.788 5.901 2.97 2.488 2.25 6.328 2.078 8.607-.392 2.293-2.486 2.136-6.36-.35-8.653-.317-.293-5.56-5.019-14.157-6.454v-4.898c0-3.382-2.742-6.124-6.123-6.124s-6.123 2.742-6.123 6.124v5.348c-.697.163-1.405.351-2.123.568-8.16 2.458-14.257 9.436-15.91 18.21-1.511 8.018 1.07 15.759 6.736 20.203 2.887 2.264 6.447 4.338 11.298 6.518v32.401c-4.062-.37-6.77-1.47-11.291-4.427-2.831-1.849-6.624-1.057-8.477 1.773-1.851 2.83-1.057 6.626 1.773 8.477 7.026 4.595 11.877 6.051 17.994 6.454v5.49c0 3.382 2.742 6.124 6.123 6.124s6.123-2.742 6.123-6.124v-6c12.469-2.652 19.755-13.03 21.386-22.728 2.124-12.644-4.486-23.637-16.842-28.004zm-20.531-9.589c-2.023-1.586-2.91-4.844-2.259-8.299.56-2.974 2.424-6.51 5.998-8.209v18.97c-1.394-.792-2.657-1.613-3.739-2.462zm25.294 35.565c-.791 4.707-3.95 9.696-9.308 11.939v-26.532c.154.055.307.109.463.164 9.871 3.49 9.266 11.926 8.845 14.429z" fill="#ff9100"/><path d="m370.466 470h-228.932c-5.523 0-10-4.477-10-10v-115.255c0-5.523 4.477-10 10-10h228.932c5.523 0 10 4.477 10 10v115.255c0 5.523-4.477 10-10 10z" fill="#954c35"/><path d="m150.064 470h-8.53c-5.523 0-10-4.477-10-10v-115.255c0-5.523 4.477-10 10-10h8.53c5.523 0 10 4.477 10 10v115.255c0 5.523-4.477 10-10 10z" fill="#7c3f2c"/><path d="m392 472.927c-39.404 24.756-86.03 39.073-136 39.073s-96.596-14.317-136-39.073v-3.544c0-5.523 4.477-10 10-10h252c5.523 0 10 4.477 10 10z" fill="#ae583e"/><path d="m80.795 300.16c0 2.761-2.239 5-5 5h-25.454c-2.761 0-5-2.239-5-5 0-2.762 2.239-5 5-5h25.455c2.761 0 4.999 2.239 4.999 5zm22.773-28h-53.227c-2.761 0-5 2.238-5 5 0 2.761 2.239 5 5 5h53.227c2.761 0 5-2.239 5-5s-2.238-5-5-5zm-53.227-13h36.227c2.761 0 5-2.239 5-5 0-2.762-2.239-5-5-5h-36.227c-2.761 0-5 2.238-5 5s2.239 5 5 5zm403.364 41c0 2.761-2.239 5-5 5h-25.455c-2.761 0-5-2.239-5-5 0-2.762 2.239-5 5-5h25.455c2.761 0 5 2.239 5 5zm22.773-28h-53.228c-2.761 0-5 2.238-5 5 0 2.761 2.239 5 5 5h53.227c2.761 0 5-2.239 5-5 .001-2.761-2.238-5-4.999-5zm-53.228-13h36.227c2.761 0 5-2.239 5-5 0-2.762-2.239-5-5-5h-36.227c-2.761 0-5 2.238-5 5s2.239 5 5 5z" fill="#a6aee5"/><path d="m392 469.383v3.544c-39.404 24.756-86.03 39.073-136 39.073-9.516 0-18.911-.52-28.158-1.531-12.997-1.423-22.842-12.398-22.842-25.472 0-14.146 11.468-25.614 25.614-25.614h151.386c5.523 0 10 4.477 10 10zm-150.904-130.973v-2.535c0-4.142-3.358-7.5-7.5-7.5h-117.392c-4.142 0-7.5 3.358-7.5 7.5v2.535c0 4.142 3.358 7.5 7.5 7.5h117.391c4.143 0 7.501-3.358 7.501-7.5zm154.7-10.035h-42.045c-4.142 0-7.5 3.358-7.5 7.5v2.535c0 4.142 3.358 7.5 7.5 7.5h42.045c4.142 0 7.5-3.358 7.5-7.5v-2.535c0-4.142-3.358-7.5-7.5-7.5z" fill="#c0694e"/><path d="m374.085 335.875v2.535c0 4.142-3.358 7.5-7.5 7.5h-136.006c-4.142 0-7.5-3.358-7.5-7.5v-2.535c0-4.142 3.358-7.5 7.5-7.5h136.006c4.142 0 7.5 3.358 7.5 7.5z" fill="#c97e67"/><path d="m281.363 418.708-21.827 21.827c-1.953 1.953-5.118 1.953-7.071 0l-21.827-21.827c-1.953-1.952-1.953-5.118 0-7.07.977-.977 2.256-1.465 3.536-1.465s2.559.488 3.536 1.465l13.006 13.006v-58.57c0-2.762 2.239-5 5-5s5 2.238 5 5v59.14l13.577-13.576c1.953-1.953 5.118-1.953 7.071 0 1.951 1.952 1.951 5.118-.001 7.07z" fill="#ffde91"/></g></svg>