<?xml version="1.0"?>
<svg xmlns="http://www.w3.org/2000/svg" id="Layer_1" data-name="Layer 1" viewBox="0 0 512 512" width="512" height="512"><title>Fund managers Dollar</title><polygon points="344.822 357.863 338.617 362.353 328.868 337.655 344.822 357.863" style="fill:#d4e1f4"/><path d="M319.89,172.446c2.134,7.279,4.461,13.526,7.549,18.816a57.452,57.452,0,0,0-21.781,21.869l-.067-1.053A51.683,51.683,0,0,1,319.89,172.446Z" style="fill:#d4e1f4"/><path d="M318.151,334.31c-.038-.1-.077-.194-.108-.291l-8.559,3.345a33.43,33.43,0,0,1,8.9,20.392c.009.129-.064.259-.064.389V379H332.7v-7.856Z" style="fill:#d4e1f4"/><path d="M354.165,337.1l0-22.164q-1.442.106-2.891.107a40.756,40.756,0,0,1-11.488-1.68l.006,23.737,11.478,14.536,7.189-9.105Z" style="fill:#d4e1f4"/><path d="M396.221,208.444a4.427,4.427,0,0,0-3.924-3.552c-21.974-1.461-33.317-5.756-40.42-14.636a4.381,4.381,0,0,0-.284-.361c-4.453-5.736-7.223-13.342-9.956-23.276a62.68,62.68,0,0,1,12.828-5.527,52.512,52.512,0,0,1,5.937-1.414c-6.21-1.244-13-.778-20.316,1.414a62.73,62.73,0,0,0-12.828,5.527c2.734,9.934,5.5,17.54,9.957,23.276.1.114.194.235.284.361,7.1,8.88,18.445,13.175,40.42,14.636a4.428,4.428,0,0,1,3.924,3.552c.141.6,3.324,13.612,14.213,17.651l.891-14.017c.024-.369.038-.738.053-1.107A24.713,24.713,0,0,1,396.221,208.444Z" style="fill:#d4e1f4"/><path d="M335.886,290.105a58.071,58.071,0,0,1-13.261-34.719,4.361,4.361,0,0,0-4.311-4.381h-.851c-4.268,0-7.741-3.929-7.741-8.563a9.829,9.829,0,0,1,.222-2.09,4.853,4.853,0,0,1,4.787-3.932c.335,0,.668-.179.989-.113.264.054.533-.131.8-.131h.382a3.982,3.982,0,0,0,3.153-1.295,4.485,4.485,0,0,0,1.046-2.037c4.17-14.181,11.088-23.148,18.083-28.832a37.085,37.085,0,0,1-6.225-5.314c-9.262,4.732-20.421,14.369-26.236,34.146a4.485,4.485,0,0,1-1.046,2.037,3.982,3.982,0,0,1-3.153,1.295h-.382c-.269,0-.538.185-.8.131-.322-.066-.654.113-.989.113a4.855,4.855,0,0,0-4.788,3.932,9.894,9.894,0,0,0-.221,2.09c0,4.634,3.473,8.563,7.741,8.563h.85a4.362,4.362,0,0,1,4.312,4.381,58.065,58.065,0,0,0,13.261,34.719c8.324,10.053,18.894,15.608,29.761,15.608a32.61,32.61,0,0,0,7.206-.826C350.2,303.009,342.362,297.925,335.886,290.105Z" style="fill:#d4e1f4"/><path d="M319.922,301.441a58.683,58.683,0,0,1-4.777-5.094,67.068,67.068,0,0,1-8.462-13.04l-1.1,17.251a52.85,52.85,0,0,0,4.967,26.4l7.046-2.8v-2.239c0-.008.134-.016.134-.025a4.822,4.822,0,0,1,2.8-4.357l.873-.389A54.463,54.463,0,0,1,319.922,301.441Z" style="fill:#d4e1f4"/><path d="M307.507,350.246a21.921,21.921,0,0,0-7.158-8.86A23.179,23.179,0,0,0,291,358.349V379h14.378V358.349A24.354,24.354,0,0,1,307.507,350.246Z" style="fill:#d4e1f4"/><path d="M115.021,214.142l-.972-6.647a50.676,50.676,0,0,1,3.391-21.815,62.619,62.619,0,0,1,9.165,3.881,74.656,74.656,0,0,0-7.447,27.411Z" style="fill:#d4e1f4"/><path d="M136.768,343.929a32.833,32.833,0,0,0-10.028-20.864l5.648-2.04-1.69-2.254-11.889,4.294a32.838,32.838,0,0,1,10.028,20.864c.011.131.059.264.059.4v39.522h7.931V344.324C136.827,344.193,136.779,344.06,136.768,343.929Z" style="fill:#d4e1f4"/><path d="M152.643,337.463c.079.1.166.2.251.3l.1-.579-.359.271Z" style="fill:#d4e1f4"/><path d="M159.828,309.634V297.647A54.328,54.328,0,0,1,151.9,296.4v13.232l12.667,8.539,3.966-2.673Z" style="fill:#d4e1f4"/><path d="M146.088,184.848c-7.974-4.246-15.507-8.257-22.572-9.364a18.98,18.98,0,0,1-6.125-2.085c11.5-4.334,24.8-10.41,29.86-12.833.673-.322,1.341-.648,2.008-.972a57.877,57.877,0,0,1,10.149-4.186,50.369,50.369,0,0,1,9.013-1.558c-1.313-.1-2.633-.168-3.966-.168a50.079,50.079,0,0,0-12.978,1.726,57.877,57.877,0,0,0-10.149,4.186c-.667.324-1.335.65-2.008.972-5.062,2.423-18.355,8.5-29.86,12.833a18.974,18.974,0,0,0,6.124,2.085c7.066,1.107,14.6,5.118,22.573,9.364,12.122,6.454,25.5,13.571,39.806,12.065C166.625,195.777,155.941,190.094,146.088,184.848Z" style="fill:#d4e1f4"/><path d="M127.519,228.8,129,229.81a4.759,4.759,0,0,0,7.445-3.992l-.035-2.538a65.1,65.1,0,0,1,5.047-25.971c-2.2-1.1-4.336-2.232-6.414-3.336l-.023.031a65.053,65.053,0,0,0-6.542,29.276l.035,2.538A4.748,4.748,0,0,1,127.519,228.8Z" style="fill:#d4e1f4"/><path d="M124.9,240.752a4.761,4.761,0,0,0-4.016-4.7c-.786-.275-2.489-.968-3.108-1.248a8.548,8.548,0,0,1-3.626-9.193c.038-.155.091-.3.139-.441l-4.755-3.251a5.107,5.107,0,0,0-3.315,3.692,8.548,8.548,0,0,0,3.626,9.193c.619.28,2.322.973,3.107,1.248a4.761,4.761,0,0,1,4.017,4.7,47.662,47.662,0,0,0,47.608,47.569c1.337,0,2.657-.069,3.966-.178A47.659,47.659,0,0,1,124.9,240.752Z" style="fill:#d4e1f4"/><path d="M112.627,330.316a22.772,22.772,0,0,0-3.956-3.194,23.313,23.313,0,0,0-10.708,17.41v39.314H105.9V344.532A23.179,23.179,0,0,1,112.627,330.316Z" style="fill:#d4e1f4"/><path d="M99,342.644a21.328,21.328,0,0,1,8.994-15.523c5.119,3.548,9.006,9.255,9.006,15.523V381h12V342.378c0-.166.1-.332.09-.5a33.381,33.381,0,0,0-8.672-19.777l8.8-3.166,13.155,17.522a5.969,5.969,0,0,0,7.106,1.93l-7.755,41.237,11.794,2.219,9.787-52.028.161.108,9.756,51.919,11.793-2.216-7.692-40.94a5.9,5.9,0,0,0,6.161-2.229l13.142-17.522L205.4,322.1a33.238,33.238,0,0,0-8.554,19.777c-.014.166.153.332.153.5V381h12V342.644c0-6.269,3.887-11.975,9.006-15.523,5.115,3.548,7.994,9.258,8.994,15.523V381h12V342.378c0-.166-.07-.332-.084-.5a33.534,33.534,0,0,0-18.326-27.021c-.209-.1-.658-.2-.879-.276L200,307.553v-6.191a5.807,5.807,0,0,0-2.952-5.29,4.205,4.205,0,0,0-.442-.248l.058-.01-8.607-3.556a57.351,57.351,0,0,0,31.756-46.968,19.077,19.077,0,0,0,10.373-21.758,15.65,15.65,0,0,0-7.937-10.225l.523-3.642c.02-.145.036-.291.047-.438a60.06,60.06,0,0,0-75.491-62.236,65.727,65.727,0,0,0-11.85,4.813q-.947.46-1.9.921c-6,2.871-24.109,11.122-35.73,14.772a6,6,0,0,0-3.04,9.273,28.9,28.9,0,0,0,11.161,8.584,60.416,60.416,0,0,0-3.171,23.873c.01.152.027.3.049.455l.526,3.6a15.652,15.652,0,0,0-7.982,10.25,19.04,19.04,0,0,0,8.447,20.7,12.543,12.543,0,0,0,1.931.928,57.288,57.288,0,0,0,31.82,47.125l-8.433,3.473.022.054c-.191.078-.6.157-.788.256a6.213,6.213,0,0,0-3.389,5.29v6.191l-19.259,7.03a4.38,4.38,0,0,0-.536.276A33.438,33.438,0,0,0,86.966,341.88c-.014.166.034.332.034.5V381H99Zm75-35-11.022,7.5L152,307.675V297.093a50.7,50.7,0,0,0,10.849,1.079A50.174,50.174,0,0,0,174,297.025Zm-32.492,7.64,10.612,7.075-3.537,2.358Zm35.783,9.433-3.538-2.358,10.612-7.075Zm-38.532-161.17q.99-.474,1.97-.954a55.772,55.772,0,0,1,9.711-4.014,48.123,48.123,0,0,1,60.422,49.608l-.318,2.217a24.619,24.619,0,0,0-18.971-17.736,5.994,5.994,0,0,0-3.8.5c-18.079,8.838-34.359.169-50.1-8.213-7.915-4.215-15.392-8.2-22.537-9.315a17.266,17.266,0,0,1-2.687-.644C122.973,170.869,134.224,165.719,138.759,163.548Zm-23.146,50.511-.859-5.88a47.563,47.563,0,0,1,2.784-19.563,61.738,61.738,0,0,1,6.42,2.754,74.484,74.484,0,0,0-6.659,23.842Zm2,26.844A6,6,0,0,0,112.681,235c-.725-.262-2.117-.827-2.734-1.1a7.032,7.032,0,0,1-2.9-7.512,3.667,3.667,0,0,1,1.821-2.4l10.681,7.305a6,6,0,0,0,9.386-5.036l-.034-2.484a62.388,62.388,0,0,1,5.718-26.851c15.713,8.308,34.817,17.384,56.345,7.992a12.6,12.6,0,0,1,8.4,11.047l.595,9.044a6,6,0,0,0,9.656,4.353l7.023-5.427a3.614,3.614,0,0,1,1.9,2.46,7.111,7.111,0,0,1,.2,1.683,7.012,7.012,0,0,1-5.789,6.922,6.087,6.087,0,0,0-4.954,5.99,45.188,45.188,0,1,1-90.375-.078Z" style="fill:#0635c9"/><path d="M291,356.069a23.053,23.053,0,0,1,9-14.986,23.052,23.052,0,0,1,9,14.986V381h12V355.8c0-.166-.248-.332-.262-.5a33.163,33.163,0,0,0-8.512-19.287l5.718-2.085,15.073,35.24a5.972,5.972,0,0,0,8.817,2.629l12.176-8.118,12.177,8.118a6,6,0,0,0,8.842-2.629l15.138-35.322,6.779,2.446a32.9,32.9,0,0,0-8.028,19.008c-.014.166.082.332.082.5V381h12V356.069c0-5.8,3.445-11.105,8-14.608a20.91,20.91,0,0,1,8,14.608V381h12V355.8q0-.249-.021-.5a33.074,33.074,0,0,0-18.063-26.68,5.921,5.921,0,0,0-.646-.277l-2.363-.853a59.029,59.029,0,0,0,5.338-28.875L412,279.729v-19.9a18.711,18.711,0,0,0,11.577-22.1,15.722,15.722,0,0,0-11.265-11.415l.888-12.978a59.111,59.111,0,0,0-12.636-40.854c-5.018-6.346-11.845-11.812-20.869-16.71-24.923-13.531-51.456.071-58.854,4.5A6.03,6.03,0,0,0,319.5,161a59,59,0,0,0-24.669,52.338l.9,13.027a15.633,15.633,0,0,0-11.29,11.368A18.547,18.547,0,0,0,296,259.839V279.8l-1.235,18.823a58.952,58.952,0,0,0,5.342,28.959l-2.114.769a5.733,5.733,0,0,0-.639.277,33.224,33.224,0,0,0-18.2,26.68c-.014.166-.156.332-.156.5V381h12Zm73.8-42.342.007,20.93-10.8,12.6L343.2,334.646,343.2,313.72a48.019,48.019,0,0,0,21.6.007Zm-23.623,44.089-6.082-14.191,9.953,11.611Zm25.665,0-3.87-2.58,9.953-11.611ZM391,321.4v-1.116a5.854,5.854,0,0,0-.055-.839c-.008-.055-.012-.109-.021-.163a5.978,5.978,0,0,0-.183-.786c-.009-.03-.02-.057-.029-.086a6.076,6.076,0,0,0-.272-.676c-.025-.053-.048-.105-.074-.157a6.109,6.109,0,0,0-.4-.679c-.024-.035-.051-.068-.076-.1a5.839,5.839,0,0,0-.463-.569c-.026-.029-.05-.059-.077-.087a5.96,5.96,0,0,0-.6-.544c-.04-.031-.081-.06-.122-.091a5.849,5.849,0,0,0-.6-.4c-.037-.022-.073-.046-.111-.067a4.461,4.461,0,0,0-.507-.294L377,310.417v-1.136a60.059,60.059,0,0,0,16.664-13.119,65.755,65.755,0,0,0,6.753-9.042l.824,12.325a47.05,47.05,0,0,1-4.67,23.958ZM373.969,166.318c7.569,4.109,13.189,8.56,17.181,13.608a47.081,47.081,0,0,1,10.071,32.584l-.815,11.81c-9.465-4.328-12.353-15.1-12.487-15.612a6,6,0,0,0-5.458-4.552c-37.111-2.273-45.066-11.677-52.311-35.391C338.176,164.74,357.24,157.235,373.969,166.318Zm-53.988,10.036a77.929,77.929,0,0,0,6.695,15.3A60.1,60.1,0,0,0,306.7,209.285,46.933,46.933,0,0,1,319.981,176.354ZM296.1,240.583a3.617,3.617,0,0,1,3.726-2.74,4.3,4.3,0,0,1,.791.062,6.032,6.032,0,0,0,1.115.095h.406a5.98,5.98,0,0,0,5.831-4.574c5.873-18.34,16.936-27.576,26.346-32.221.486.452.983.9,1.5,1.333,9.06,7.654,21.727,11.707,41.915,13.314,2.842,6.945,10.369,20.076,27.166,22.039a6.108,6.108,0,0,0,1,.109h.366a6.059,6.059,0,0,0,1.115-.129,3.8,3.8,0,0,1,4.518,2.724,6.672,6.672,0,0,1,.2,1.6,6.812,6.812,0,0,1-6.83,6.8h-.869a6.021,6.021,0,0,0-6,5.829,53.388,53.388,0,0,1-13.753,33.3c-8.589,9.553-19.466,14.821-30.627,14.821s-22.037-5.259-30.626-14.812a53.417,53.417,0,0,1-13.753-33.308,6.02,6.02,0,0,0-6-5.828h-.905a6.817,6.817,0,0,1-6.83-6.806A6.672,6.672,0,0,1,296.1,240.583Zm10.7,58.862.85-12.338a65.468,65.468,0,0,0,6.715,9.055A59.894,59.894,0,0,0,331,309.264v1.111l-10.387,4.317a5.953,5.953,0,0,0-3.662,5.575c0,.008.049.016.049.025v1.2l-5.509,1.987A46.976,46.976,0,0,1,306.8,299.445Z" style="fill:#0635c9"/><path d="M497.739,436l-40.606-52.355A25.984,25.984,0,0,0,435.5,372H80.831a25.924,25.924,0,0,0-19.979,9.389L8.684,435.5A5.657,5.657,0,0,0,7.02,440H7v19.6c0,3.314,2.686,6.4,6,6.4H37v31a6,6,0,0,0,6,6H463a6,6,0,0,0,6-6V466h24c3.314,0,6-3.094,6-6.407V440h-.006A5.26,5.26,0,0,0,497.739,436ZM69.647,389.787c.116-.12.228-.375.334-.5A14.069,14.069,0,0,1,80.831,384H435.5a13.978,13.978,0,0,1,11.725,6.378c.09.138.186.489.287.619l33.23,43H27.137ZM457,491H49V466H457ZM19,454v-8H487v8Z" style="fill:#1ae5be"/><path d="M434,9a71,71,0,1,0,71,71A71.081,71.081,0,0,0,434,9Zm0,130a59,59,0,1,1,59-59A59.066,59.066,0,0,1,434,139Z" style="fill:#1ae5be"/><path d="M434,54.162a11.012,11.012,0,0,1,11,11,6,6,0,1,0,12,0,23.037,23.037,0,0,0-17-22.2v-4.14a6,6,0,0,0-12,0v4.14a23,23,0,0,0,6,45.2,11,11,0,0,1,.121,21.994c-.041,0-.08-.007-.121-.007s-.08.006-.121.007A11.01,11.01,0,0,1,423,99.162a6,6,0,0,0-12,0,23.039,23.039,0,0,0,17,22.2v4.912a6,6,0,0,0,12,0v-4.912a23,23,0,0,0-6-45.2,11,11,0,1,1,0-22Z" style="fill:#1ae5be"/></svg>
