<?xml version="1.0"?>
<svg xmlns="http://www.w3.org/2000/svg" id="Capa_1" enable-background="new 0 0 512 512" height="512px" viewBox="0 0 512 512" width="512px" class=""><g><g><g><path d="m158.5 32.5h45v95h-45z" fill="#f9f6f6" data-original="#F9F6F6" class=""/><path d="m308.5 32.5h45v95h-45z" fill="#f9f6f6" data-original="#F9F6F6" class=""/><path d="m323.5 32.5h30v95h-30z" fill="#efe7e4" data-original="#EFE7E4"/><path d="m173.5 32.5h30v95h-30z" fill="#efe7e4" data-original="#EFE7E4"/><path d="m349.5 504.5h-187c-8.284 0-15-6.716-15-15v-30h217v30c0 8.284-6.716 15-15 15z" fill="#f9f6f6" data-original="#F9F6F6" class=""/><path d="m404.5 424.5c0 27.61-22.39 50-50 50h-197c-27.61 0-50-22.39-50-50v-262c0-27.61 22.39-50 50-50h1 45 52.5 52.5 45 1c27.61 0 50 22.39 50 50z" fill="#b3e59f" data-original="#B3E59F" class="" style="fill:#EE1639" data-old_color="#b3e59f"/><path d="m360.551 112.878c8.632 8.986 13.949 21.181 13.949 34.622v91.189c0 121.95-98.86 220.811-220.811 220.811h-26.189c-2.05 0-4.066-.138-6.051-.378 9.099 9.472 21.882 15.378 36.051 15.378h197c27.614 0 50-22.386 50-50v-262c0-25.56-19.194-46.633-43.949-49.622z" fill="#95d6a4" data-original="#95D6A4" class="active-path" style="fill:#9E0101" data-old_color="#95d6a4"/><path d="m367 47.5h-222c-11.046 0-20-8.954-20-20 0-11.046 8.954-20 20-20h222c11.046 0 20 8.954 20 20 0 11.046-8.954 20-20 20z" fill="#b3e59f" data-original="#B3E59F" class="" style="fill:#EE1639" data-old_color="#b3e59f"/><path d="m367 7.5h-30c11.046 0 20 8.954 20 20s-8.954 20-20 20h30c11.046 0 20-8.954 20-20s-8.954-20-20-20z" fill="#95d6a4" data-original="#95D6A4" class="active-path" style="fill:#9E0101" data-old_color="#95d6a4"/><g><circle cx="256" cy="293.5" fill="#fff" r="61.086" data-original="#FFF" class=""/><path d="m274.81 300.079c0 10.173-8.421 18.42-18.81 18.42-10.388 0-18.809-8.247-18.809-18.42 0-7.945 11.472-22.74 16.498-28.84 1.2-1.457 3.424-1.457 4.624 0 5.024 6.1 16.497 20.895 16.497 28.84z" fill="#b3e59f" data-original="#B3E59F" class="" style="fill:#EE1639" data-old_color="#b3e59f"/></g><g><path d="m404.5 203.5h-297c-8.284 0-15-6.716-15-15 0-8.284 6.716-15 15-15h297c8.284 0 15 6.716 15 15 0 8.284-6.716 15-15 15z" fill="#f9f6f6" data-original="#F9F6F6" class=""/><path d="m374.5 173.5v30h30c8.284 0 15-6.716 15-15 0-8.284-6.716-15-15-15z" fill="#efe7e4" data-original="#EFE7E4"/><path d="m404.5 413.5h-297c-8.284 0-15-6.716-15-15 0-8.284 6.716-15 15-15h297c8.284 0 15 6.716 15 15 0 8.284-6.716 15-15 15z" fill="#f9f6f6" data-original="#F9F6F6" class=""/><path d="m320.383 383.5c-9.578 11.016-20.235 21.065-31.797 30h115.914c8.284 0 15-6.716 15-15 0-8.284-6.716-15-15-15z" fill="#efe7e4" data-original="#EFE7E4"/></g></g><path d="m412 377.29v-108.357c0-4.143-3.357-7.5-7.5-7.5s-7.5 3.357-7.5 7.5v107.067h-154c-4.143 0-7.5 3.357-7.5 7.5s3.357 7.5 7.5 7.5h161.5c4.136 0 7.5 3.364 7.5 7.5s-3.364 7.5-7.5 7.5h-297c-4.136 0-7.5-3.364-7.5-7.5s3.364-7.5 7.5-7.5h100.5c4.143 0 7.5-3.357 7.5-7.5s-3.357-7.5-7.5-7.5h-93v-165h282v22.933c0 4.143 3.357 7.5 7.5 7.5s7.5-3.357 7.5-7.5v-24.223c8.729-3.096 15-11.433 15-21.21s-6.271-18.114-15-21.21c1.732-31.439-20.089-58.425-51-61.913v-50.377h6c15.163 0 27.5-12.337 27.5-27.5s-12.337-27.5-27.5-27.5h-222c-15.163 0-27.5 12.337-27.5 27.5s12.337 27.5 27.5 27.5h6v50.378c-30.552 3.401-53.144 30.79-51 61.913-8.729 3.096-15 11.433-15 21.21s6.271 18.114 15 21.21v167.58c-8.729 3.096-15 11.433-15 21.21s6.271 18.114 15 21.21c-2.786 26.606 15.846 51.945 40 59.558v10.231c0 12.406 10.094 22.5 22.5 22.5h187c12.406 0 22.5-10.094 22.5-22.5v-10.232c24.659-7.925 41.994-32.45 40-59.558 8.729-3.096 15-11.433 15-21.21s-6.271-18.114-15-21.21zm-267-337.29c-6.893 0-12.5-5.607-12.5-12.5s5.607-12.5 12.5-12.5h222c6.893 0 12.5 5.607 12.5 12.5s-5.607 12.5-12.5 12.5zm201 15v50h-30v-50zm-69.5 18h-41c-4.143 0-7.5 3.357-7.5 7.5s3.357 7.5 7.5 7.5h13v17h-37.5v-50h90v50h-37.5v-17h13c4.143 0 7.5-3.357 7.5-7.5s-3.357-7.5-7.5-7.5zm-80.5-18v50h-30v-50zm-38.5 65h197c24.437-.102 44.497 21.319 42.5 46h-282c-1.641-24.74 17.619-46.018 42.5-46zm-50 61h297c4.136 0 7.5 3.364 7.5 7.5s-3.364 7.5-7.5 7.5h-297c-4.136 0-7.5-3.364-7.5-7.5s3.364-7.5 7.5-7.5zm249.5 308.5c0 4.136-3.364 7.5-7.5 7.5h-187c-4.136 0-7.5-3.364-7.5-7.5v-7.563c4.277.18 197.627.179 202 0zm-2.5-22.5h-197c-25.089.001-44.051-21.302-42.5-46h282c1.022 24.354-17.167 46.112-42.5 46zm-167.086-173.5c0 37.818 30.768 68.586 68.586 68.586s68.586-30.768 68.586-68.586-30.768-68.586-68.586-68.586-68.586 30.768-68.586 68.586zm122.172 0c0 29.548-24.038 53.586-53.586 53.586s-53.586-24.038-53.586-53.586 24.038-53.586 53.586-53.586 53.586 24.038 53.586 53.586zm-61.686-27.03c-12.083 14.663-18.21 25.971-18.21 33.608 0 14.293 11.803 25.921 26.31 25.921s26.31-11.628 26.31-25.921c0-7.638-6.127-18.945-18.207-33.605-2.002-2.432-4.955-3.826-8.103-3.826s-6.101 1.394-8.1 3.823zm19.41 33.608c0 6.021-5.073 10.921-11.31 10.921s-11.31-4.899-11.31-10.921c0-2.179 3.082-9.039 11.31-19.712 8.227 10.672 11.31 17.533 11.31 19.712z" data-original="#000000" class="" style="fill:#000000"/></g></g> </svg>
