<?xml version="1.0"?>
<svg xmlns="http://www.w3.org/2000/svg" xmlns:xlink="http://www.w3.org/1999/xlink" xmlns:svgjs="http://svgjs.com/svgjs" version="1.1" width="512" height="512" x="0" y="0" viewBox="0 0 512 512" style="enable-background:new 0 0 512 512" xml:space="preserve" class=""><g><g xmlns="http://www.w3.org/2000/svg"><path d="m230.269 191.28c0-23.589-19.191-42.78-42.78-42.78-10.597 0-20.299 3.882-27.78 10.287-7.481-6.405-17.183-10.287-27.78-10.287-23.589 0-42.78 19.191-42.78 42.78 0 4.45.685 8.743 1.951 12.78h-20.184v159.44h177.584v-159.439h-20.183c1.267-4.038 1.952-8.331 1.952-12.781zm-85.561 142.22h-43.792v-99.439h43.792zm0-129.439h-12.78c-7.047 0-12.78-5.733-12.78-12.78s5.733-12.78 12.78-12.78 12.78 5.733 12.78 12.78zm30-12.781c0-7.047 5.733-12.78 12.78-12.78s12.78 5.733 12.78 12.78-5.733 12.78-12.78 12.78h-12.78zm43.792 142.22h-43.792v-99.439h43.792z" fill="#ffffff" data-original="#000000" style=""/><path d="m278.5 333.5h147.584v30h-147.584z" fill="#ffffff" data-original="#000000" style=""/><path d="m278.5 273.5h147.584v30h-147.584z" fill="#ffffff" data-original="#000000" style=""/><path d="m467 76.241h-422c-24.813 0-45 20.187-45 45v269.518c0 24.813 20.187 45 45 45h422c24.813 0 45-20.187 45-45v-269.518c0-24.813-20.187-45-45-45zm15 314.518c0 8.271-6.729 15-15 15h-422c-8.271 0-15-6.729-15-15v-269.518c0-8.271 6.729-15 15-15h422c8.271 0 15 6.729 15 15z" fill="#ffffff" data-original="#000000" style=""/></g></g></svg>
