<svg id="Layer_1" enable-background="new 0 0 480 480" height="512" viewBox="0 0 480 480" width="512" xmlns="http://www.w3.org/2000/svg"><path d="m32.004 325.5c-17.674 0-32.004-14.323-32.004-32v-62c0-17.673 14.327-32 32-32 3.319 0 6.011 2.684 6.008 6.005-.019 21.253-.011 92.741.004 113.99.002 3.32-2.689 6.005-6.008 6.005zm363.325-181.55c-7.367-79.224-74.219-141.45-155.329-141.45s-147.962 62.226-155.329 141.451c-.427 4.592 3.216 8.547 7.828 8.548 4.732.001 7.764-3.364 8.112-7.1 6.623-71.082 66.606-126.899 139.389-126.899s132.766 55.817 139.389 126.899c.351 3.763 3.407 7.101 8.112 7.1 4.612-.001 8.255-3.957 7.828-8.549zm52.671 55.55c-3.336 0-6.014 2.696-6.011 6.005.015 21.249.022 92.737.004 113.99-.003 3.32 2.688 6.005 6.008 6.005 17.649 0 32-14.302 32-32v-62c-.001-17.673-14.328-32-32.001-32zm-136.32 70.407c1.237-4.242-1.199-8.684-5.44-9.92-4.24-1.24-8.683 1.198-9.92 5.439-7.253 24.87-30.413 42.24-56.32 42.24s-49.066-17.37-56.32-42.24c-1.237-4.24-5.678-6.682-9.92-5.439-4.242 1.236-6.677 5.678-5.44 9.92 9.232 31.653 38.708 53.76 71.68 53.76s62.448-22.106 71.68-53.76zm-122.35-78.077c-8.73 0-15.83 7.11-15.83 15.84s7.1 15.83 15.83 15.83 15.84-7.1 15.84-15.83-7.11-15.84-15.84-15.84zm101.34.5c-8.46 0-15.34 6.88-15.34 15.34 0 8.45 6.88 15.33 15.34 15.33 8.45 0 15.33-6.88 15.33-15.33 0-8.46-6.88-15.34-15.33-15.34zm-188.67-23.83h-16c-17.65 0-32 14.36-32 32v124c0 17.64 14.35 32 32 32h16c17.65 0 32-14.36 32-32v-124c0-17.64-14.35-32-32-32zm292 0h-16c-17.65 0-32 14.36-32 32v124c0 17.64 14.35 32 32 32h16c17.65 0 32-14.36 32-32v-124c0-17.64-14.35-32-32-32zm54.78 172.987c-4.318.092-7.78 3.603-7.78 7.923v6.091c0 44.183-35.817 80-80 80h-14.95c-3.61-14.9-17.05-26-33.05-26-19.561 0-35.312 16.597-33.914 36.45 1.166 16.556 14.453 30.04 30.992 31.427 17.265 1.448 32.144-10.079 35.972-25.877h14.95c53.019 0 96-42.981 96-96v-6.094c0-4.234-3.375-8.024-8.22-7.92z"/></svg>