<?xml version="1.0" encoding="UTF-8"?>
<svg xmlns="http://www.w3.org/2000/svg" viewBox="0 0 512 512" width="512" height="512"><g id="_04-hold" data-name="04-hold"><g id="linear_color" data-name="linear color"><path d="M488,148H472a44.049,44.049,0,0,0-44,44v91.561l-24,28v-23.02A36.992,36.992,0,0,0,392.952,262.3a35.444,35.444,0,0,0-25.643-10.3A36.18,36.18,0,0,0,332,288V496a12,12,0,0,0,24,0V288a12.057,12.057,0,0,1,11.764-12c6.607-.27,12.365,6.042,12.236,12.539V344a12,12,0,0,0,21.111,7.81l48-56A12,12,0,0,0,452,288V192a20.023,20.023,0,0,1,20-20h4V324.6L413.78,425.711A12,12,0,0,0,412,432v64a12,12,0,0,0,24,0V435.4l62.22-101.107A12,12,0,0,0,500,328V160A12,12,0,0,0,488,148Z"/><path d="M144.691,252.006a35.561,35.561,0,0,0-25.643,10.3A36.992,36.992,0,0,0,108,288.541v23.02l-24-28V192a44.049,44.049,0,0,0-44-44H24a12,12,0,0,0-12,12V328a12,12,0,0,0,1.78,6.289L76,435.4V496a12,12,0,0,0,24,0V432a12,12,0,0,0-1.78-6.289L36,324.6V172h4a20.023,20.023,0,0,1,20,20v96a12,12,0,0,0,2.889,7.81l48,56A12,12,0,0,0,132,344V288.541c-.126-6.5,5.621-12.806,12.236-12.539A12.057,12.057,0,0,1,156,288V496a12,12,0,0,0,24,0V288A36.18,36.18,0,0,0,144.691,252.006Z"/><path d="M258,263c54.6.5,104.814-36.718,120.93-88.2A126.5,126.5,0,0,0,385,136C385.052,66.257,328.206,8.993,258,9a127.226,127.226,0,0,0-122.273,92.639c-.075.247-.144.494-.2.743A126.687,126.687,0,0,0,131,136C130.617,206.422,189.616,263.5,258,263Zm35.052-30.145V212.6l14.733-29.466a12.012,12.012,0,0,0,1.1-7.336l-6.325-38.026a12,12,0,0,0-8.043-9.415L258.055,116.2a12.155,12.155,0,0,0-1.451-.384l-25.768-5.133-3.709-3.563,15.65-12.52,36.989-3.7a12,12,0,0,0,10.8-11.555l1.306-40.618a103.2,103.2,0,0,1,38.335,23.9L318.318,86.4a12.007,12.007,0,0,0-1.033,7.721l8,40a11.991,11.991,0,0,0,4.014,6.805l16.316,13.812,8.777,17.555A103.534,103.534,0,0,1,293.052,232.855ZM361,136.313l-13-11L341.626,93.45l4.966-9.932A102.365,102.365,0,0,1,361,136C361,136.1,361,136.209,361,136.313ZM258,33c3.383,0,6.726.169,10.026.489l-1.111,34.577-30.058,3.006a12,12,0,0,0-6.3,2.57L213.583,87.221h-12a12,12,0,0,0-8.313,20.654l23.467,22.545a12.012,12.012,0,0,0,5.969,3.115l28.472,5.672,28.9,9.632,4.5,27.049L270.318,204.4a12,12,0,0,0-1.266,5.367v28.64a103.378,103.378,0,0,1-23.167-.122c-.158-4.1,1-11.767-1.466-15.354L230.2,198.039l3.556-28.447a12,12,0,0,0-5.178-11.424L185.73,129.151,171.036,107.11a12,12,0,0,0-3.624-3.52l-5.882-3.676A103.17,103.17,0,0,1,258,33ZM155,136c0-3.057.142-6.081.4-9.072l11.663,17.494a12.011,12.011,0,0,0,3.255,3.28l38.7,26.213-3.139,25.116a11.994,11.994,0,0,0,1.488,7.442L221.961,232l-.006.485A103.171,103.171,0,0,1,155,136Z"/></g></g></svg>
