<svg height="512" viewBox="0 0 58 58" width="512" xmlns="http://www.w3.org/2000/svg"><g id="Page-1" fill="none" fill-rule="evenodd"><g id="012---Hotel" fill-rule="nonzero"><path id="Shape" d="m42 27.51v-26.51c0-.55228475.4477153-1 1-1h14c.5522847 0 1 .44771525 1 1v51c0 .5522847-.4477153 1-1 1h-15z" fill="#fac176"/><path id="Shape" d="m16 53h-15c-.55228475 0-1-.4477153-1-1v-51c0-.55228475.44771525-1 1-1h14c.5522847 0 1 .44771525 1 1z" fill="#fac176"/><path id="Shape" d="m42 13v14.51c-2.59-2.7-7.44-4.51-13-4.51s-10.41 1.81-13 4.51v-14.51h7.47l.92.87-.73 4.15c-.068636.3746292.0814936.7557207.3872014.9828785.3057077.2271579.7139094.2609375 1.0527986.0871215l3.9-1.99 3.9 1.99c.3388892.173816.7470909.1400364 1.0527986-.0871215.3057078-.2271578.4558374-.6082493.3872014-.9828785l-.73-4.15.92-.87z" fill="#f29c1f"/><path id="Shape" d="m29 25.1c-.5522847 0-1-.4477153-1-1v-8.1c0-.5522847.4477153-1 1-1s1 .4477153 1 1v8.1c0 .5522847-.4477153 1-1 1z" fill="#d25627"/><path id="Shape" d="m16 38v19c0 .5522847-.4477153 1-1 1h-3c-.5522847 0-1-.4477153-1-1v-19z" fill="#e57e25"/><path id="Shape" d="m47 38v19c0 .5522847-.4477153 1-1 1h-3c-.5522847 0-1-.4477153-1-1v-19z" fill="#e57e25"/><path id="Rectangle-path" d="m16 38h26v15h-26z" fill="#d25627"/><rect id="Rectangle-path" fill="#f29c1f" height="6" rx="2" width="44" x="7" y="32"/><path id="Shape" d="m29 43v10h-5v-9c0-.5522847.4477153-1 1-1z" fill="#3f5c6c"/><path id="Shape" d="m34 44v9h-5v-10h4c.5522847 0 1 .4477153 1 1z" fill="#35495e"/><path id="Shape" d="m20 45v8h-4v-9h3c.5522847 0 1 .4477153 1 1z" fill="#3f5c6c"/><path id="Shape" d="m42 44v9h-4v-8c0-.5522847.4477153-1 1-1z" fill="#3f5c6c"/><path id="Shape" d="m44 32h-30c.0532649-1.7007557.7713294-3.3128103 2-4.49 2.59-2.7 7.44-4.51 13-4.51s10.41 1.81 13 4.51c1.2286706 1.1771897 1.9467351 2.7892443 2 4.49z" fill="#f3d55b"/><g fill="#a56a43"><path id="Shape" d="m7 9h-3c-.55228475 0-1-.44771525-1-1s.44771525-1 1-1h3c.55228475 0 1 .44771525 1 1s-.44771525 1-1 1z"/><path id="Shape" d="m12 9h-1c-.5522847 0-1-.44771525-1-1s.4477153-1 1-1h1c.5522847 0 1 .44771525 1 1s-.4477153 1-1 1z"/><path id="Shape" d="m7 13h-3c-.55228475 0-1-.4477153-1-1s.44771525-1 1-1h3c.55228475 0 1 .4477153 1 1s-.44771525 1-1 1z"/><path id="Shape" d="m12 13h-1c-.5522847 0-1-.4477153-1-1s.4477153-1 1-1h1c.5522847 0 1 .4477153 1 1s-.4477153 1-1 1z"/><path id="Shape" d="m7 17h-3c-.55228475 0-1-.4477153-1-1s.44771525-1 1-1h3c.55228475 0 1 .4477153 1 1s-.44771525 1-1 1z"/><path id="Shape" d="m12 17h-1c-.5522847 0-1-.4477153-1-1s.4477153-1 1-1h1c.5522847 0 1 .4477153 1 1s-.4477153 1-1 1z"/><path id="Shape" d="m7 21h-3c-.55228475 0-1-.4477153-1-1s.44771525-1 1-1h3c.55228475 0 1 .4477153 1 1s-.44771525 1-1 1z"/><path id="Shape" d="m12 21h-1c-.5522847 0-1-.4477153-1-1s.4477153-1 1-1h1c.5522847 0 1 .4477153 1 1s-.4477153 1-1 1z"/><path id="Shape" d="m7 25h-3c-.55228475 0-1-.4477153-1-1s.44771525-1 1-1h3c.55228475 0 1 .4477153 1 1s-.44771525 1-1 1z"/><path id="Shape" d="m12 25h-1c-.5522847 0-1-.4477153-1-1s.4477153-1 1-1h1c.5522847 0 1 .4477153 1 1s-.4477153 1-1 1z"/><path id="Shape" d="m7 29h-3c-.55228475 0-1-.4477153-1-1s.44771525-1 1-1h3c.55228475 0 1 .4477153 1 1s-.44771525 1-1 1z"/><path id="Shape" d="m7 44h-3c-.55228475 0-1-.4477153-1-1s.44771525-1 1-1h3c.55228475 0 1 .4477153 1 1s-.44771525 1-1 1z"/><path id="Shape" d="m7 48h-3c-.55228475 0-1-.4477153-1-1s.44771525-1 1-1h3c.55228475 0 1 .4477153 1 1s-.44771525 1-1 1z"/><path id="Shape" d="m54 44h-3c-.5522847 0-1-.4477153-1-1s.4477153-1 1-1h3c.5522847 0 1 .4477153 1 1s-.4477153 1-1 1z"/><path id="Shape" d="m54 48h-3c-.5522847 0-1-.4477153-1-1s.4477153-1 1-1h3c.5522847 0 1 .4477153 1 1s-.4477153 1-1 1z"/><path id="Shape" d="m12 29h-1c-.5522847 0-1-.4477153-1-1s.4477153-1 1-1h1c.5522847 0 1 .4477153 1 1s-.4477153 1-1 1z"/><path id="Shape" d="m54 9h-3c-.5522847 0-1-.44771525-1-1s.4477153-1 1-1h3c.5522847 0 1 .44771525 1 1s-.4477153 1-1 1z"/><path id="Shape" d="m47 9h-1c-.5522847 0-1-.44771525-1-1s.4477153-1 1-1h1c.5522847 0 1 .44771525 1 1s-.4477153 1-1 1z"/><path id="Shape" d="m7 5h-3c-.55228475 0-1-.44771525-1-1s.44771525-1 1-1h3c.55228475 0 1 .44771525 1 1s-.44771525 1-1 1z"/><path id="Shape" d="m12 5h-1c-.5522847 0-1-.44771525-1-1s.4477153-1 1-1h1c.5522847 0 1 .44771525 1 1s-.4477153 1-1 1z"/><path id="Shape" d="m54 5h-3c-.5522847 0-1-.44771525-1-1s.4477153-1 1-1h3c.5522847 0 1 .44771525 1 1s-.4477153 1-1 1z"/><path id="Shape" d="m47 5h-1c-.5522847 0-1-.44771525-1-1s.4477153-1 1-1h1c.5522847 0 1 .44771525 1 1s-.4477153 1-1 1z"/><path id="Shape" d="m54 13h-3c-.5522847 0-1-.4477153-1-1s.4477153-1 1-1h3c.5522847 0 1 .4477153 1 1s-.4477153 1-1 1z"/><path id="Shape" d="m47 13h-1c-.5522847 0-1-.4477153-1-1s.4477153-1 1-1h1c.5522847 0 1 .4477153 1 1s-.4477153 1-1 1z"/><path id="Shape" d="m54 17h-3c-.5522847 0-1-.4477153-1-1s.4477153-1 1-1h3c.5522847 0 1 .4477153 1 1s-.4477153 1-1 1z"/><path id="Shape" d="m47 17h-1c-.5522847 0-1-.4477153-1-1s.4477153-1 1-1h1c.5522847 0 1 .4477153 1 1s-.4477153 1-1 1z"/><path id="Shape" d="m54 21h-3c-.5522847 0-1-.4477153-1-1s.4477153-1 1-1h3c.5522847 0 1 .4477153 1 1s-.4477153 1-1 1z"/><path id="Shape" d="m47 21h-1c-.5522847 0-1-.4477153-1-1s.4477153-1 1-1h1c.5522847 0 1 .4477153 1 1s-.4477153 1-1 1z"/><path id="Shape" d="m54 25h-3c-.5522847 0-1-.4477153-1-1s.4477153-1 1-1h3c.5522847 0 1 .4477153 1 1s-.4477153 1-1 1z"/><path id="Shape" d="m47 25h-1c-.5522847 0-1-.4477153-1-1s.4477153-1 1-1h1c.5522847 0 1 .4477153 1 1s-.4477153 1-1 1z"/><path id="Shape" d="m54 29h-3c-.5522847 0-1-.4477153-1-1s.4477153-1 1-1h3c.5522847 0 1 .4477153 1 1s-.4477153 1-1 1z"/><path id="Shape" d="m47 29h-1c-.5522847 0-1-.4477153-1-1s.4477153-1 1-1h1c.5522847 0 1 .4477153 1 1s-.4477153 1-1 1z"/></g><path id="Shape" d="m14 36v2h-2v-2c0-.5522847.4477153-1 1-1s1 .4477153 1 1z" fill="#d25627"/><path id="Shape" d="m46 36v2h-2v-2c0-.5522847.4477153-1 1-1s1 .4477153 1 1z" fill="#d25627"/><path id="Shape" d="m20.578 30c-.4525881-.0000199-.8487411-.3040116-.9658809-.7411777-.1171399-.4371661.0739396-.8985084.4658809-1.1248223 2.7414008-1.4656949 5.8140907-2.2006332 8.922-2.134.5522847 0 1 .4477153 1 1s-.4477153 1-1 1c-2.755217-.0582788-5.480301.5823103-7.921 1.862-.1519211.0893459-.324757.1369534-.501.138z" fill="#fff"/><path id="Shape" d="m36.7 10.95-2.17 2.05-.92.87.73 4.15c.068636.3746292-.0814936.7557207-.3872014.9828785-.3057077.2271579-.7139094.2609375-1.0527986.0871215l-3.9-1.99-3.9 1.99c-.3388892.173816-.7470909.1400364-1.0527986-.0871215-.3057078-.2271578-.4558374-.6082493-.3872014-.9828785l.73-4.15-.92-.87-2.17-2.05c-.2812341-.2640126-.3855435-.6662391-.2680569-1.03365191.1174867-.36741277.4358184-.63449248.8180569-.68634809l4.3-.6 1.96-3.84c.171096-.33396622.5147571-.54403948.89-.54403948s.718904.21007326.89.54403948l1.96 3.84 4.3.6c.3822385.05185561.7005702.31893532.8180569.68634809.1174866.36741281.0131772.76963931-.2680569 1.03365191z" fill="#f0c419"/></g></g></svg>