<svg height="480pt" viewBox="0 0 480 480" width="480pt" xmlns="http://www.w3.org/2000/svg"><path d="m40 280h-32v192h336v-32h-304zm0 0" fill="#9bc9ff"/><path d="m392 88h80l-80-80zm0 0" fill="#9bc9ff"/><path d="m376 408h-304v-160h-32v192h336zm0 0" fill="#9bc9ff"/><path d="m376 408h32v-192h-336v192zm-272-136c13.253906 0 24-10.746094 24-24h224c0 13.253906 10.746094 24 24 24v80c-13.253906 0-24 10.746094-24 24h-224c0-13.253906-10.746094-24-24-24zm0 0" fill="#9bc9ff"/><path d="m352 248h-224c0 13.253906-10.746094 24-24 24v80c13.253906 0 24 10.746094 24 24h224c0-13.253906 10.746094-24 24-24v-80c-13.253906 0-24-10.746094-24-24zm-109.992188 95.9375c-17.636718 1.109375-32.835937-12.292969-33.945312-29.929688-1.109375-17.640624 12.289062-32.835937 29.929688-33.945312 17.636718-1.109375 32.835937 12.289062 33.945312 29.929688 1.105469 17.636718-12.292969 32.835937-29.929688 33.945312zm0 0" fill="#9bc9ff"/><path d="m261.167969 287.996094c13.253906 11.6875 14.523437 31.910156 2.835937 45.167968-11.6875 13.253907-31.910156 14.523438-45.164062 2.835938-13.257813-11.6875-14.527344-31.910156-2.839844-45.164062 11.6875-13.257813 31.910156-14.527344 45.167969-2.839844zm0 0" fill="#9bc9ff"/><g fill="#1e81ce"><path d="m395.3125 0h-251.3125v192h16v-176h224v80h80v368h-96.199219v16h112.199219v-395.3125zm4.6875 27.3125 52.6875 52.6875h-52.6875zm0 0"/><path d="m384 448v-32h32v-208h-352v32h-32v32h-32v208h352v-32zm-304-224h320v176h-320zm-32 32h16v160h304v16h-320zm288 208h-320v-176h16v160h304zm0 0"/><path d="m360 248v-8h-240v8c0 8.835938-7.164062 16-16 16h-8v96h8c8.835938 0 16 7.164062 16 16v8h240v-8c0-8.835938 7.164062-16 16-16h8v-96h-8c-8.835938 0-16-7.164062-16-16zm8 97.015625c-11.257812 2.933594-20.050781 11.726563-22.984375 22.984375h-210.03125c-2.933594-11.257812-11.726563-20.050781-22.984375-22.984375v-66.03125c11.257812-2.933594 20.050781-11.726563 22.984375-22.984375h210.03125c2.933594 11.257812 11.726563 20.050781 22.984375 22.984375zm0 0"/><path d="m237.496094 272.078125c-21.539063 1.367187-38.113282 19.574219-37.453125 41.148437.660156 21.570313 18.316406 38.730469 39.902343 38.773438.855469 0 1.703126 0 2.558594-.078125 14.355469-.777344 27.1875-9.191406 33.621094-22.046875 6.429688-12.855469 5.46875-28.171875-2.519531-40.125-7.984375-11.949219-21.773438-18.695312-36.109375-17.671875zm20.503906 55.792969c-7.183594 8.148437-18.945312 10.457031-28.675781 5.625-9.730469-4.828125-15.003907-15.59375-12.851563-26.242188 2.148438-10.648437 11.179688-18.527344 22.023438-19.207031.511718-.03125 1.011718-.046875 1.503906-.046875 9.425781.011719 17.972656 5.542969 21.847656 14.140625 3.871094 8.59375 2.355469 18.660156-3.878906 25.730469zm0 0"/><path d="m296 304h48v16h-48zm0 0"/><path d="m136 304h48v16h-48zm0 0"/><path d="m192 96h32v16h-32zm0 0"/><path d="m248 96h112v16h-112zm0 0"/><path d="m192 128h32v16h-32zm0 0"/><path d="m248 128h184v16h-184zm0 0"/><path d="m192 160h32v16h-32zm0 0"/><path d="m248 160h184v16h-184zm0 0"/></g></svg>