<svg height="420pt" viewBox="-8 0 420 420.00085" width="420pt" xmlns="http://www.w3.org/2000/svg"><path d="m51.800781 361.160156v-355.238281h346.21875v408.160156h-346.21875zm0 0" fill="#00efd1"/><g fill="#083863"><path d="m117.308594 282h105.230468c3.316407 0 6-2.6875 6-6s-2.683593-6-6-6h-105.230468c-3.3125 0-6 2.6875-6 6s2.6875 6 6 6zm0 0"/><path d="m117.308594 337h215.203125c3.3125 0 6-2.6875 6-6s-2.6875-6-6-6h-215.203125c-3.3125 0-6 2.6875-6 6s2.6875 6 6 6zm0 0"/><path d="m174.441406 139c0 3.3125 2.683594 6 6 6h57.046875c-1.035156 6.378906-4.144531 12.234375-8.847656 16.664062-6.03125 6.027344-14.222656 9.386719-22.75 9.335938h-25.449219c-2.484375.089844-4.675781 1.652344-5.574218 3.96875-.894532 2.320312-.324219 4.949219 1.453124 6.6875l63.609376 60.15625c1.148437 1.101562 2.691406 1.703125 4.28125 1.664062 1.59375-.039062 3.105468-.707031 4.199218-1.863281 2.277344-2.480469 2.171875-6.320312-.238281-8.671875l-52.644531-49.941406h10.363281c11.710937.0625 22.957031-4.566406 31.234375-12.851562 6.917969-6.710938 11.332031-15.582032 12.515625-25.148438h19.738281c3.316406 0 6-2.6875 6-6s-2.683594-6-6-6h-19.746094c-1.488281-9.929688-6.25-19.082031-13.527343-26h33.273437c3.316406 0 6-2.6875 6-6s-2.683594-6-6-6h-88.9375c-3.316406 0-6 2.6875-6 6s2.683594 6 6 6h25.449219c15.425781-.097656 28.71875 10.84375 31.589844 26h-57.039063c-3.316406 0-6 2.6875-6 6zm0 0"/><path d="m27.5 312c-15.1875 0-27.5 12.3125-27.5 27.5s12.3125 27.5 27.5 27.5h18.539062v47.082031c-.050781 1.554688.535157 3.066407 1.621094 4.183594 1.085938 1.117187 2.582032 1.742187 4.140625 1.734375h346.21875c1.585938.019531 3.113281-.59375 4.242188-1.707031 1.132812-1.109375 1.769531-2.628907 1.777343-4.210938v-408.160156c-.007812-1.585937-.644531-3.101563-1.777343-4.214844-1.128907-1.109375-2.65625-1.7265622-4.242188-1.707031h-346.21875c-1.558593-.0078125-3.054687.617188-4.140625 1.734375-1.085937 1.117187-1.671875 2.628906-1.621094 4.1875v36.078125h-18.539062c-7.253906-.101562-14.242188 2.710938-19.398438 7.8125-5.160156 5.003906-8.0624995 11.890625-8.0429682 19.078125.0273437 7.238281 2.9335942 14.171875 8.0859372 19.261719 5.148438 5.085937 12.117188 7.910156 19.355469 7.847656h18.539062v36h-18.539062c-7.269531-.054688-14.253906 2.804688-19.398438 7.9375-7.84375 7.882812-10.1875 19.703125-5.949218 29.980469 4.238281 10.28125 14.230468 17.015625 25.347656 17.082031h18.539062v35h-18.539062c-15.1875 0-27.5 12.3125-27.5 27.5s12.3125 27.5 27.5 27.5h18.539062v35zm0 43c-4.082031.015625-8.003906-1.59375-10.902344-4.472656-2.894531-2.878906-4.527344-6.792969-4.539062-10.875-.007813-8.566406 6.875-15.546875 15.441406-15.652344h18.539062v31zm0-271c-4.070312.042969-7.988281-1.539062-10.886719-4.394531-2.898437-2.859375-4.539062-6.753907-4.554687-10.824219-.007813-4 1.628906-7.824219 4.523437-10.582031 2.925781-2.8125 6.863281-4.328125 10.917969-4.199219h18.539062v30zm0 91c-8.550781-.085938-15.441406-7.042969-15.441406-15.59375.003906-4.09375 1.632812-8.015625 4.527344-10.902344 2.898437-2.890625 6.824218-4.511718 10.914062-4.503906h18.539062v31zm0 90c-8.558594 0-15.5-6.9375-15.5-15.5 0-8.558594 6.941406-15.5 15.5-15.5h18.539062v31zm53.539062 23.199219c3.316407 0 6-2.683594 6-6v-22.558594c0-3.3125-2.683593-6-6-6-3.3125 0-6 2.6875-6 6v5.359375h-17v-78h17v4.949219c0 3.316406 2.6875 6 6 6 3.316407 0 6-2.683594 6-6v-22.558594c0-3.3125-2.683593-6-6-6-3.3125 0-6 2.6875-6 6v5.609375h-17v-79h17v5.699219c0 3.316406 2.6875 6 6 6 3.316407 0 6-2.683594 6-6v-22.558594c0-3.3125-2.683593-6-6-6-3.3125 0-6 2.6875-6 6v4.859375h-17v-72h334v396h-334v-41h17v5.441406c0 3.3125 2.6875 6 6 6 3.316407 0 6-2.6875 6-6v-22.5625c0-3.3125-2.683593-6-6-6-3.3125 0-6 2.6875-6 6v5.121094h-17v-78h17v5.199219c0 3.316406 2.6875 6 6 6zm0 0"/></g></svg>