<?xml version="1.0"?>
<svg xmlns="http://www.w3.org/2000/svg" height="512px" viewBox="0 0 58 58" width="512px" class=""><g><g id="Page-1" fill="none" fill-rule="evenodd"><g id="029---Landline-Phone" fill="rgb(0,0,0)" fill-rule="nonzero"><path id="Shape" d="m54.73 3.8-.043 9.564c.0267695 1.0313314-.731613 1.9154627-1.755 2.046l-7.109.882-2.748.343c-.9246745.1145583-1.805959-.4245804-2.125-1.3l-1.533-4.2c-.222119-.5990495-.7134228-1.0584889-1.326-1.24-3.8571225-1.00748249-7.9351815-.75698316-11.64.715-3.7820067 1.2615695-7.062563 3.6974632-9.364 6.953-.3507672.5327952-.4304107 1.199578-.215 1.8l1.533 4.2c.3199634.8748288-.00639 1.8547185-.787 2.363l-2.324 1.508-6 3.906c-.8665807.5597643-2.01628409.3721812-2.66-.434l-6.199-7.286c-.51859843-.6539739-.57832652-1.5606463-.15-2.277 2.458-4.027 9.256-13.077 23.422-18.249s25.2-2.63 29.67-1.134c.7898525.27215789 1.3286775 1.00492794 1.353 1.84z" data-original="#000000" class="active-path" data-old_color="#000000" fill="#00AF80"/><path id="Shape" d="m24.674 37.9999995-2.674.0000005c-.3405084-.0003327-.657785.1726245-.842.459l-.99 1.541h3.932z" data-original="#000000" class="active-path" data-old_color="#000000" fill="#00AF80"/><path id="Shape" d="m14.729 48.459c-.1980246.3078428-.2120346.6992788-.0365248 1.0204909.1755097.3212121.5124909.520867.8785248.5205091h5.674l.857-3h-6.435z" data-original="#000000" class="active-path" data-old_color="#000000" fill="#00AF80"/><path id="Shape" d="m18.882 42-1.929 3h5.721l.857-3z" data-original="#000000" class="active-path" data-old_color="#000000" fill="#00AF80"/><path id="Shape" d="m35.245 38h-3.245v2h3.817z" data-original="#000000" class="active-path" data-old_color="#000000" fill="#00AF80"/><path id="Shape" d="m23.326 50h6.674v-3h-5.817z" data-original="#000000" class="active-path" data-old_color="#000000" fill="#00AF80"/><path id="Rectangle-path" d="m24 27h14v5h-14z" data-original="#000000" class="active-path" data-old_color="#000000" fill="#00AF80"/><path id="Shape" d="m41.833 40-.991-1.541c-.184215-.2863755-.5014916-.4593327-.842-.459l-2.674-.0000005.572 2.0000005z" data-original="#000000" class="active-path" data-old_color="#000000" fill="#00AF80"/><path id="Shape" d="m36.388 42h-4.388v3h5.245z" data-original="#000000" class="active-path" data-old_color="#000000" fill="#00AF80"/><path id="Shape" d="m46.333 47h-6.433l.857 3h5.674c.3660339.0003579.7030151-.199297.8785248-.5205091.1755098-.3212121.1614998-.7126481-.0365248-1.0204909z" data-original="#000000" class="active-path" data-old_color="#000000" fill="#00AF80"/><path id="Shape" d="m57.69 48.51-10-15.83c-.2776545-.4486387-.7248551-.7660069-1.24-.88l-1.9-.44c-.9077944-.2096287-1.5505974-1.0183163-1.55-1.95v-1.69c-.3181558-.1473617-.6285618-.310909-.93-.49-.7649607-.4421828-1.294903-1.2003475-1.4473529-2.0706632-.15245-.8703157.088237-1.7634688.6573529-2.4393368-3.1017541-1.8575874-6.6654423-2.8005088-10.28-2.72-3.9946129-.1142882-7.9204555 1.0564541-11.2 3.34-.5072709.3746434-.8046478.9693972-.8 1.6v4.47c.0005974.9316837-.6422056 1.7403713-1.55 1.95l-1.9.44c-.5151449.1139931-.9623455.4313613-1.24.88l-10 15.83c-.20158314.3205596-.30900175.691327-.31 1.07v6.42c.0032948 1.1032019.89679813 1.9967052 2 2h50c1.1032019-.0032948 1.9967052-.8967981 2-2v-6.42c-.0009983-.378673-.1084169-.7494404-.31-1.07zm-35.69-21.51c.0032948-1.1032019.8967981-1.9967052 2-2h14c1.1032019.0032948 1.9967052.8967981 2 2v5c-.0032948 1.1032019-.8967981 1.9967052-2 2h-14c-1.1032019-.0032948-1.9967052-.8967981-2-2zm27.06 23.44c-.5178768.969075-1.5312738 1.5701774-2.63 1.56h-30.86c-1.0960419-.001824-2.1038516-.6012278-2.6286943-1.5634395-.5248427-.9622116-.4831706-2.1340601.1086943-3.0565605l6.43-10c.5480178-.8614426 1.4990191-1.3822291 2.52-1.38h18c1.0209809-.0022291 1.9719822.5185574 2.52 1.38l6.43 10c.6037038.9199094.6460937 2.0991175.11 3.06z" data-original="#000000" class="active-path" data-old_color="#000000" fill="#00AF80"/><path id="Shape" d="m43.118 42h-4.649l.857 3h5.721z" data-original="#000000" class="active-path" data-old_color="#000000" fill="#00AF80"/><path id="Shape" d="m32 47v3h6.674l-.857-3z" data-original="#000000" class="active-path" data-old_color="#000000" fill="#00AF80"/><path id="Shape" d="m24.755 45h5.245v-3h-4.388z" data-original="#000000" class="active-path" data-old_color="#000000" fill="#00AF80"/><path id="Shape" d="m26.183 40h3.817v-2h-3.245z" data-original="#000000" class="active-path" data-old_color="#000000" fill="#00AF80"/><path id="Shape" d="m48.589 23c-1.3450512.0001457-2.6612546-.3899563-3.789-1.123-.3221177-.1834273-.5163439-.5299892-.5046668-.9004875.0116771-.3704984.2273416-.7041417.5603707-.8669205.3330292-.1627788.7287796-.1279843 1.0282961.090408 2.320062 1.4974605 5.4145256.8334663 6.916-1.484.3001668-.4639192.9195808-.5966667 1.3835-.2965.4639192.3001668.5966667.9195808.2965 1.3835-1.2934688 1.9967833-3.5118843 3.2007002-5.891 3.197z" data-original="#000000" class="active-path" data-old_color="#000000" fill="#00AF80"/><path id="Shape" d="m48.615 27.012c-1.9480827-.0007752-3.8606245-.5217185-5.54-1.509-.4678287-.2828495-.621807-.888963-.3457012-1.3608032.2761057-.4718401.8799468-.6345019 1.3557012-.3651968 4.1480569 2.4336938 9.4776161 1.1585719 12.075-2.889.3055088-.4482498.9126875-.5711837 1.3684994-.2770765.4558118.2941072.5940191.8979925.3115006 1.3610765-2.0161537 3.1412567-5.4923912 5.0404693-9.225 5.04z" data-original="#000000" class="active-path" data-old_color="#000000" fill="#00AF80"/></g></g></g> </svg>
