<svg height="512pt" viewBox="0 0 512 512" width="512pt" xmlns="http://www.w3.org/2000/svg" xmlns:xlink="http://www.w3.org/1999/xlink"><linearGradient id="a" gradientUnits="userSpaceOnUse" x1="0" x2="512" y1="256" y2="256"><stop offset="0" stop-color="#00f38d"/><stop offset="1" stop-color="#009eff"/></linearGradient><path d="m512 256c0 141.386719-114.613281 256-256 256s-256-114.613281-256-256 114.613281-256 256-256 256 114.613281 256 256zm0 0" fill="url(#a)"/><g fill="#fff"><path d="m256 378.265625c-7.367188-6.335937-16.878906-10.164063-27.261719-10.164063h-147.199219v30h147.199219c6.53125 0 12.261719 6.046876 12.261719 12.9375h30c0-6.894531 5.726562-12.9375 12.257812-12.9375h147.203126v-30h-147.203126c-10.378906 0-19.894531 3.828126-27.257812 10.164063zm0 0"/><path d="m283.257812 100.960938c-10.378906 0-19.894531 3.769531-27.257812 10.003906-7.363281-6.234375-16.878906-10.003906-27.257812-10.003906h-148.570313v242.621093h148.566406c6.761719 0 12.261719 5.5 12.261719 12.261719h30c0-6.761719 5.5-12.261719 12.257812-12.261719h148.570313v-242.621093zm-54.519531 212.621093h-118.566406v-182.621093h118.566406c6.761719 0 12.261719 5.5 12.261719 12.257812v172.175781c-3.882812-1.179687-8-1.8125-12.261719-1.8125zm173.089844 0h-118.570313c-4.261718 0-8.375.640625-12.257812 1.816407v-172.179688c0-6.757812 5.5-12.257812 12.257812-12.257812h118.570313zm0 0"/><path d="m320.664062 293.824219h30v-16.347657h2.785157c19.171875 0 34.765625-15.59375 34.765625-34.761718 0-9.773438-4.058594-18.609375-10.570313-24.929688 1.96875-4.332031 3.074219-9.136718 3.074219-14.195312 0-17.5-13.128906-31.980469-30.054688-34.136719v-17.375h-30v17.089844h-29.226562v30h12.941406v48.308593h-12.941406v30h29.226562zm25.632813-94.65625c2.4375 0 4.421875 1.984375 4.421875 4.421875 0 2.234375-1.671875 4.066406-3.828125 4.363281h-12.511719v-8.785156zm-11.917969 38.785156h11.917969v.058594c.660156 0 1.316406-.023438 1.96875-.058594h5.1875c2.625 0 4.761719 2.136719 4.761719 4.761719s-2.136719 4.761718-4.761719 4.761718h-19.074219zm0 0"/></g></svg>