<?xml version="1.0"?>
<svg xmlns="http://www.w3.org/2000/svg" height="512px" viewBox="0 0 512 512" width="512px"><g><g id="User_Block" data-name="User Block"><g id="Glyph"><path d="m163.7 424.239a191.6 191.6 0 0 0 182.957.688c-9.75-12.382-213.467-217.795-213.467-217.795a126.952 126.952 0 0 0 -2.14 21.389l-25.419 50.831a15.293 15.293 0 0 0 -.746 12.043 15.521 15.521 0 0 0 8.163 8.9l19.232 8.742 11.087 41.625a22.791 22.791 0 0 0 22.17 17.338h42.463v21a175.244 175.244 0 0 0 -44.3 35.239z" data-original="#000000" class="active-path" data-old_color="#000000" fill="#FFFFFF"/><path d="m354.136 141.529a128.466 128.466 0 0 0 -91.412-37.861h-4.917a125.983 125.983 0 0 0 -63.254 16.945l179.278 179.276c11.907-21.678 18.169-44.589 18.169-66.946a128.468 128.468 0 0 0 -37.864-91.414z" data-original="#000000" class="active-path" data-old_color="#000000" fill="#FFFFFF"/><path d="m436.853 74.814a256 256 0 1 0 -362.039 362.039 256 256 0 0 0 362.039-362.039zm26.98 181.019a206.822 206.822 0 0 1 -37.579 119.107l-289.529-289.528a206.838 206.838 0 0 1 119.108-37.579c114.692 0 208 93.309 208 208zm-416 0a206.834 206.834 0 0 1 37.579-119.107l289.529 289.528a206.835 206.835 0 0 1 -119.108 37.579c-114.691 0-208-93.309-208-208z" data-original="#000000" class="active-path" data-old_color="#000000" fill="#FFFFFF"/></g></g></g> </svg>
