<?xml version="1.0"?>
<svg xmlns="http://www.w3.org/2000/svg" id="Capa_1" enable-background="new 0 0 511.194 511.194" height="512px" viewBox="0 0 511.194 511.194" width="512px"><g><path d="m452.167 0h-393.14c-24.813 0-45 20.187-45 45v352.388c0 24.813 20.187 45 45 45h142.667l41.423 62.134c5.92 8.879 19.019 8.913 24.961 0l41.423-62.134h142.667c24.813 0 45-20.187 45-45v-352.388c-.001-24.813-20.187-45-45.001-45zm15 397.388c0 8.271-6.729 15-15 15h-150.694c-5.016 0-9.699 2.506-12.48 6.68l-33.395 50.092-33.396-50.092c-2.781-4.173-7.465-6.68-12.48-6.68h-150.695c-8.271 0-15-6.729-15-15v-352.388c0-8.271 6.729-15 15-15h393.141c8.271 0 15 6.729 15 15v352.388z" data-original="#000000" class="active-path" data-old_color="#000000" fill="#FFFFFF"/><path d="m385.39 79.388-249.652 84.405c-13.249 4.48-13.655 23.153-.606 28.2l112.975 43.693 43.692 112.974c5.055 13.072 23.709 12.678 28.2-.606l84.406-249.652c3.995-11.833-7.353-22.946-19.015-19.014zm-129.386 127.187-71.429-27.625 149.649-50.595zm21.213 21.214 78.22-78.22-50.596 149.649z" data-original="#000000" class="active-path" data-old_color="#000000" fill="#FFFFFF"/><path d="m168.658 248.727c-5.856-5.858-15.354-5.858-21.213 0l-40.387 40.386c-5.858 5.857-5.858 15.355 0 21.213 5.857 5.858 15.355 5.858 21.213 0l40.387-40.386c5.859-5.858 5.859-15.356 0-21.213z" data-original="#000000" class="active-path" data-old_color="#000000" fill="#FFFFFF"/><path d="m230.78 274.225c5.858-5.858 5.858-15.355 0-21.213-5.857-5.858-15.355-5.858-21.213 0l-57.837 57.837c-5.858 5.858-5.858 15.355 0 21.213 5.857 5.858 15.355 5.859 21.213 0z" data-original="#000000" class="active-path" data-old_color="#000000" fill="#FFFFFF"/><path d="m213.853 315.134-40.387 40.386c-5.858 5.857-5.858 15.355 0 21.213 5.857 5.858 15.355 5.858 21.213 0l40.387-40.386c5.858-5.857 5.858-15.355 0-21.213-5.857-5.858-15.355-5.859-21.213 0z" data-original="#000000" class="active-path" data-old_color="#000000" fill="#FFFFFF"/></g> </svg>
