<?xml version="1.0"?>
<svg xmlns="http://www.w3.org/2000/svg" xmlns:xlink="http://www.w3.org/1999/xlink" xmlns:svgjs="http://svgjs.com/svgjs" version="1.1" width="512" height="512" x="0" y="0" viewBox="0 0 512 512" style="enable-background:new 0 0 512 512" xml:space="preserve" class=""><g><g xmlns="http://www.w3.org/2000/svg"><path d="m286 151h58.484c-7.192-42.477-43.991-75-88.484-75s-81.292 32.523-88.484 75h58.484c8.284 0 15-6.716 15-15v-15h30v15c0 8.284 6.716 15 15 15z" fill="#ffffff" data-original="#000000" style="" class=""/><path d="m346 181h-60c-11.567 0-22.02-4.508-30-11.704-7.98 7.196-18.433 11.704-30 11.704h-60v43.885c0 48.604 38.103 89.296 86.675 91.055 51.138 1.851 93.325-39.207 93.325-89.94z" fill="#ffffff" data-original="#000000" style="" class=""/><path d="m134.996 270.088c-10.716-.359-21.046-2.958-30.453-7.524-8.755 10.425-14.044 23.853-14.044 38.503 0 7.264 1.299 14.229 3.674 20.678 19.959-12.592 43.426-20.107 68.577-20.704-7.508-9.349-13.527-19.665-17.946-30.625z" fill="#ffffff" data-original="#000000" style="" class=""/><path d="m377 270h-9.325c-4.393 11.125-10.469 21.579-18.096 31.048 24.676.646 47.72 7.952 67.409 20.173 2.267-6.308 3.51-13.094 3.51-20.155 0-14.174-4.945-27.21-13.196-37.485-9.273 4.115-19.521 6.419-30.302 6.419z" fill="#ffffff" data-original="#000000" style="" class=""/><path d="m211 421h90v91h-90z" fill="#ffffff" data-original="#000000" style="" class=""/><path d="m211 336.647v54.353h90v-54.353c-13.903 5.848-28.984 9.353-45 9.353s-31.097-3.505-45-9.353z" fill="#ffffff" data-original="#000000" style="" class=""/><path d="m346 331h-15v181h120v-76c0-57.99-47.01-105-105-105z" fill="#ffffff" data-original="#000000" style="" class=""/><path d="m61 436v76h120v-181h-15c-57.99 0-105 47.01-105 105z" fill="#ffffff" data-original="#000000" style="" class=""/><path d="m136 240.105v-89.955c-4.285.143-8.337 1.071-12.241 2.329 6.427-68.505 63.578-122.479 133.735-122.479 70.117 0 127.242 53.917 133.724 122.366-4.354-1.408-8.908-2.366-13.724-2.366h-1.494v90h1c24.814 0 45-20.186 45-45 0-3.697 0-33.704 0-30 0-90.981-74.019-165-165-165s-165 74.019-165 165c0 11.837 0 33.455 0 29.745 0 24.58 19.615 44.543 44 45.36z" fill="#ffffff" data-original="#000000" style="" class=""/></g></g></svg>
