<svg id="Capa_1" enable-background="new 0 0 512 512" height="512" viewBox="0 0 512 512" width="512" xmlns="http://www.w3.org/2000/svg" xmlns:xlink="http://www.w3.org/1999/xlink"><linearGradient id="SVGID_1_" gradientUnits="userSpaceOnUse" x1="256" x2="256" y1="512" y2="0"><stop offset="0" stop-color="#ffbef9"/><stop offset="1" stop-color="#fff1ff"/></linearGradient><linearGradient id="SVGID_2_" gradientUnits="userSpaceOnUse" x1="255.995" x2="255.995" y1="406.992" y2="105.005"><stop offset="0" stop-color="#ff81ff"/><stop offset="1" stop-color="#a93aff"/></linearGradient><g><g><circle cx="256" cy="256" fill="url(#SVGID_1_)" r="256"/></g><g><g><path d="m404.387 249.704-17.755-17.755c-3.47-3.47-9.091-3.47-12.561 0s-3.47 9.091 0 12.561l2.602 2.602h-23.42c-1.839-20.278-9.867-38.786-22.22-53.596l16.571-16.572v3.678c0 4.91 3.973 8.883 8.883 8.883s8.883-3.973 8.883-8.883v-25.121c0-4.859-3.984-8.883-8.883-8.883h-25.121c-4.91 0-8.883 3.973-8.883 8.883s3.973 8.883 8.883 8.883h3.678l-16.571 16.571c-14.811-12.352-33.319-20.381-53.596-22.219v-23.42l2.602 2.602c3.47 3.47 9.091 3.47 12.561 0s3.47-9.091 0-12.561l-17.754-17.754c-3.429-3.438-9.1-3.492-12.582 0l-17.754 17.754c-3.47 3.47-3.47 9.091 0 12.561s9.091 3.47 12.561 0l2.602-2.602v23.42c-20.278 1.839-38.786 9.867-53.596 22.219l-16.571-16.571h3.678c4.91 0 8.883-3.973 8.883-8.883s-3.973-8.883-8.883-8.883h-25.121c-4.86 0-8.883 3.984-8.883 8.883v25.121c0 4.91 3.973 8.883 8.883 8.883s8.883-3.973 8.883-8.883v-3.678l16.571 16.572c-12.352 14.811-20.381 33.319-22.22 53.596h-23.42l2.602-2.602c3.47-3.47 3.47-9.091 0-12.561s-9.091-3.47-12.561 0l-17.754 17.755c-3.477 3.467-3.455 9.136 0 12.582l17.754 17.755c3.47 3.469 9.091 3.47 12.561 0s3.47-9.091 0-12.561l-2.602-2.602h23.42c1.839 20.278 9.867 38.786 22.22 53.596l-16.571 16.572v-3.678c0-4.91-3.973-8.883-8.883-8.883s-8.883 3.973-8.883 8.883v25.121c0 4.898 4.021 8.883 8.883 8.883h25.121c4.91 0 8.883-3.973 8.883-8.883s-3.973-8.883-8.883-8.883h-3.678l16.571-16.571c14.811 12.352 33.319 20.38 53.596 22.219v23.42l-2.602-2.602c-3.47-3.47-9.091-3.47-12.561 0s-3.47 9.091 0 12.561l17.754 17.754c3.544 3.554 9.198 3.394 12.582 0l17.754-17.754c3.47-3.47 3.47-9.091 0-12.561s-9.091-3.47-12.561 0l-2.602 2.602v-23.42c20.278-1.839 38.786-9.867 53.596-22.219l16.571 16.571h-3.678c-4.91 0-8.883 3.973-8.883 8.883s3.973 8.883 8.883 8.883h25.121c4.898 0 8.883-4.021 8.883-8.883v-25.121c0-4.91-3.973-8.883-8.883-8.883s-8.883 3.973-8.883 8.883v3.678l-16.571-16.572c12.352-14.811 20.381-33.319 22.22-53.596h23.42l-2.602 2.602c-3.47 3.47-3.47 9.091 0 12.561 3.47 3.469 9.091 3.47 12.561 0l17.755-17.755c3.477-3.467 3.455-9.136 0-12.582zm-139.509 49.068v10.519c0 4.91-3.973 8.883-8.883 8.883s-8.883-3.973-8.883-8.883v-10.607c-4.869-1.744-9.272-4.718-12.43-8.928-2.941-3.929-2.151-9.499 1.77-12.439 3.947-2.932 9.507-2.151 12.439 1.77 1.692 2.264 4.285 3.557 7.104 3.557 4.901 0 8.883-3.982 8.883-8.883 0-5.829-1.128-6.766-10.956-9.125-9.195-2.212-24.575-5.907-24.575-26.405 0-11.565 7.448-21.333 17.765-25.011v-10.519c0-4.91 3.973-8.883 8.883-8.883s8.883 3.973 8.883 8.883v10.607c4.869 1.744 9.272 4.718 12.43 8.928 2.941 3.929 2.151 9.499-1.77 12.439-3.921 2.941-9.481 2.16-12.439-1.77-4.632-6.202-15.996-2.394-15.987 5.326 0 5.829 1.128 6.766 10.956 9.126 9.195 2.212 24.575 5.907 24.575 26.405 0 11.564-7.448 21.331-17.765 25.01z" fill="url(#SVGID_2_)"/></g></g></g></svg>