<svg height="512" viewBox="0 0 128 128" width="512" xmlns="http://www.w3.org/2000/svg"><g id="number"><text fill="#24253a" font-family="MyriadPro-Regular, Myriad Pro" font-size="40" letter-spacing=".002em" transform="translate(53.681 -54.265)">1<tspan x="-10.3" y="228">11</tspan><tspan x="-10.3" y="456">21</tspan><tspan x="-10.3" y="684">31</tspan><tspan x="-10.3" y="912">41</tspan><tspan x="-10.3" y="1140">51</tspan><tspan x="-10.3" y="1368">61</tspan><tspan x="-10.3" y="1596">71</tspan><tspan x="-10.3" y="1824">81</tspan><tspan x="-10.3" y="2052">91</tspan><tspan x="-20.599" y="2280">101</tspan><tspan x="-20.599" y="2508">111</tspan><tspan x="-20.599" y="2736">121</tspan><tspan x="-20.599" y="2964">131</tspan><tspan x="-20.599" y="3192">141</tspan><tspan x="-20.599" y="3420">151</tspan><tspan x="-20.599" y="3648">161</tspan><tspan x="-20.599" y="3876">171</tspan><tspan x="-20.599" y="4104">181</tspan><tspan x="-20.599" y="4332">191</tspan><tspan x="-20.599" y="4560">201</tspan><tspan x="-20.599" y="4788">211</tspan><tspan x="-20.599" y="5016">221</tspan><tspan x="-20.599" y="5244">231</tspan><tspan x="-20.599" y="5472">241</tspan></text></g><g id="Circle_Grid" data-name="Circle Grid"><circle cx="64" cy="64" fill="#ea8953" r="64"/></g><g id="icon"><path d="m33.768 33.357h60.464v68.181h-60.464z" fill="#dbd8dd"/><path d="m46.976 23h34.047v78.537h-34.047z" fill="#eeefee"/><path d="m36.494 36.463h7.767v9.166h-7.767z" fill="#69b0ee"/><path d="m36.494 49.666h7.767v9.166h-7.767z" fill="#69b0ee"/><path d="m36.494 62.868h7.767v9.166h-7.767z" fill="#69b0ee"/><path d="m36.494 76.071h7.767v9.166h-7.767z" fill="#69b0ee"/><path d="m36.494 89.273h7.767v9.166h-7.767z" fill="#69b0ee"/><path d="m83.435 36.463h7.767v9.166h-7.767z" fill="#69b0ee"/><path d="m83.435 49.666h7.767v9.166h-7.767z" fill="#69b0ee"/><path d="m83.435 62.868h7.767v9.166h-7.767z" fill="#69b0ee"/><path d="m83.435 76.071h7.767v9.166h-7.767z" fill="#69b0ee"/><path d="m83.435 89.273h7.767v9.166h-7.767z" fill="#69b0ee"/><path d="m50.468 26.888h27.063v5.056h-27.063z" fill="#69b0ee"/><path d="m50.465 35.984h27.07v5.056h-27.07z" fill="#69b0ee"/><path d="m50.465 45.085h27.07v5.056h-27.07z" fill="#69b0ee"/><path d="m50.465 54.186h27.07v5.056h-27.07z" fill="#69b0ee"/><path d="m50.465 63.287h27.07v5.056h-27.07z" fill="#69b0ee"/><path d="m50.465 72.388h27.07v5.056h-27.07z" fill="#69b0ee"/><path d="m51.917 81.451h24.167v20.086h-24.167z" fill="#575b6d"/><g fill="#eeefee"><path d="m84.95 98.439h-.291l3.272-9.166h.292z" opacity=".5"/><path d="m87.107 98.439h-1.695l3.272-9.166h1.695z" opacity=".5"/><path d="m84.95 85.236h-.291l3.272-9.165h.292z" opacity=".5"/><path d="m87.107 85.236h-1.695l3.272-9.165h1.695z" opacity=".5"/><path d="m84.95 72.034h-.291l3.272-9.166h.292z" opacity=".5"/><path d="m87.107 72.034h-1.695l3.272-9.166h1.695z" opacity=".5"/><path d="m84.95 58.832h-.291l3.272-9.166h.292z" opacity=".5"/><path d="m87.107 58.832h-1.695l3.272-9.166h1.695z" opacity=".5"/><path d="m84.95 45.629h-.291l3.272-9.166h.292z" opacity=".5"/><path d="m87.107 45.629h-1.695l3.272-9.166h1.695z" opacity=".5"/><path d="m64.343 26.888-2.946 5.056h-.916l2.929-5.056z" opacity=".5"/><path d="m70.887 26.888-2.928 5.056h-4.615l2.929-5.056z" opacity=".5"/><path d="m64.343 35.985-2.946 5.055h-.916l2.929-5.055z" opacity=".5"/><path d="m70.887 35.985-2.928 5.055h-4.615l2.929-5.055z" opacity=".5"/><path d="m64.343 45.081-2.946 5.056h-.916l2.929-5.056z" opacity=".5"/><path d="m70.887 45.081-2.928 5.056h-4.615l2.929-5.056z" opacity=".5"/><path d="m64.343 54.177-2.946 5.056h-.916l2.929-5.056z" opacity=".5"/><path d="m70.887 54.177-2.928 5.056h-4.615l2.929-5.056z" opacity=".5"/><path d="m64.343 63.274-2.946 5.055h-.916l2.929-5.055z" opacity=".5"/><path d="m70.887 63.274-2.928 5.055h-4.615l2.929-5.055z" opacity=".5"/><path d="m64.343 72.37-2.946 5.056h-.916l2.929-5.056z" opacity=".5"/><path d="m70.887 72.37-2.928 5.056h-4.615l2.929-5.056z" opacity=".5"/><path d="m37.809 98.439h-.291l3.272-9.166h.292z" opacity=".5"/><path d="m39.966 98.439h-1.695l3.272-9.166h1.695z" opacity=".5"/><path d="m37.809 85.236h-.291l3.272-9.165h.292z" opacity=".5"/><path d="m39.966 85.236h-1.695l3.272-9.165h1.695z" opacity=".5"/><path d="m37.809 72.034h-.291l3.272-9.166h.292z" opacity=".5"/><path d="m39.966 72.034h-1.695l3.272-9.166h1.695z" opacity=".5"/><path d="m37.809 58.832h-.291l3.272-9.166h.292z" opacity=".5"/><path d="m39.966 58.832h-1.695l3.272-9.166h1.695z" opacity=".5"/><path d="m37.809 45.629h-.291l3.272-9.166h.292z" opacity=".5"/><path d="m39.966 45.629h-1.695l3.272-9.166h1.695z" opacity=".5"/></g><path d="m30.18 100.779h67.64v4.221h-67.64z" fill="#bbbbcd"/><path d="m62.737 80.654h2.526v20.098h-2.526z" fill="#eeefee"/></g></svg>