<svg id="Layer_1" enable-background="new 0 0 512 512" height="512" viewBox="0 0 512 512" width="512" xmlns="http://www.w3.org/2000/svg"><g><g id="XMLID_112_"><g><g id="XMLID_1196_"><g id="XMLID_1200_"><g id="XMLID_1202_"><g id="XMLID_1203_"><g id="XMLID_1204_"><g id="XMLID_1205_"><g id="XMLID_1206_"><g id="XMLID_1207_"><g id="XMLID_1208_"><g id="XMLID_1209_"><g id="XMLID_1210_"><g id="XMLID_1211_"><g id="XMLID_1277_"><g id="XMLID_1316_"><circle cx="256" cy="256" fill="#005fd2" r="256"/></g></g></g></g></g></g></g></g></g></g></g></g></g></g></g></g><path d="m512 256c0-11.747-.808-23.303-2.34-34.63l-129.232-129.232s-132.338-78.478-251.383 2.692l126.434 126.191-163.945 201.479 72.786 72.575c28.466 10.923 59.37 16.925 91.68 16.925 141.385 0 256-114.615 256-256z" fill="#00459f"/><g><g><g><path d="m359.338 116.422c-26.462-28.945-64.127-45.547-103.338-45.547s-76.876 16.602-103.338 45.547l-23.617-21.592c32.509-35.56 78.782-55.955 126.955-55.955s94.446 20.395 126.955 55.955z" fill="#fff"/></g><g><g><path d="m382.96 94.83-23.62 21.59c-26.46-28.94-64.13-45.54-103.34-45.54v-32c48.17 0 94.45 20.39 126.96 55.95z" fill="#e9edf5"/></g></g><g><path d="m297.151 152.883c-11.814-9.371-26.044-14.324-41.151-14.324s-29.338 4.953-41.151 14.324l-19.887-25.07c17.279-13.706 38.956-21.254 61.038-21.254s43.759 7.548 61.038 21.254z" fill="#fff"/></g><g><path d="m317.04 127.81-19.89 25.07c-11.81-9.37-26.04-14.32-41.15-14.32v-32c22.08 0 43.76 7.55 61.04 21.25z" fill="#e9edf5"/></g></g><g><path d="m399.742 431.542h-287.484c-15.616 0-28.392-12.776-28.392-28.392v-118.685l14.73-23.782-14.73-23.782v-18.957c0-15.616 12.776-28.392 28.392-28.392h287.483c15.616 0 28.392 12.776 28.392 28.392v18.957l-14.73 23.782 14.73 23.782v118.685c.001 15.616-12.776 28.392-28.391 28.392z" fill="#fedd55"/><path d="m428.13 236.9-14.73 23.78 14.73 23.78v118.69c0 15.62-12.77 28.39-28.39 28.39h-143.74v-241.99h143.74c15.62 0 28.39 12.78 28.39 28.39z" fill="#ffc627"/><g><ellipse cx="355.925" cy="360.268" fill="#ff8900" rx="30.915" ry="30.915" transform="matrix(.23 -.973 .973 .23 -76.48 623.899)"/><ellipse cx="307.756" cy="360.268" fill="#e4186b" rx="30.915" ry="30.915" transform="matrix(.208 -.978 .978 .208 -108.593 586.455)"/></g><path d="m83.866 236.901h344.267v47.563h-344.267z" fill="#436375"/><path d="m256 236.9h172.13v47.56h-172.13z" fill="#274a59"/></g></g></g></svg>