<?xml version="1.0" encoding="iso-8859-1"?>
<!-- Generator: Adobe Illustrator 21.0.0, SVG Export Plug-In . SVG Version: 6.00 Build 0)  -->
<svg xmlns="http://www.w3.org/2000/svg" xmlns:xlink="http://www.w3.org/1999/xlink" version="1.1" id="Capa_1" x="0px" y="0px" viewBox="0 0 512 512" style="enable-background:new 0 0 512 512;" xml:space="preserve" width="512" height="512">
<g>
	<g>
		<g>
			<g>
				<g>
					<g>
						<g>
							<g>
								<g>
									<g>
										<g>
											<g>
												<g>
													<g>
														<g>
															<g>
																<g>
																	<g>
																		<g>
																			<g>
																				<circle style="fill:#3897FF;" cx="256" cy="256" r="256"/>
																			</g>
																		</g>
																	</g>
																</g>
															</g>
														</g>
													</g>
												</g>
											</g>
										</g>
									</g>
								</g>
							</g>
						</g>
					</g>
				</g>
			</g>
		</g>
	</g>
	<path style="fill:#1C7DC6;" d="M511.965,258.735L362.23,109L109,307.68l28.711,28V403l108.807,108.807   c3.148,0.115,6.306,0.193,9.482,0.193C396.47,512,510.496,398.858,511.965,258.735z"/>
	<g>
		<path style="fill:#A3B1C4;" d="M362.23,273.227H149.195V109H362.23V273.227z"/>
		<path style="fill:#8799B3;" d="M362.23,273.227H256V109h106.23V273.227z"/>
		<path style="fill:#243145;" d="M189.391,403h-51.68V290.453h51.68V403z"/>
		<path style="fill:#466288;" d="M288.156,307.68H109V256h179.156V307.68z"/>
		<path style="fill:#FFFFFF;" d="M310.099,238.773H201.901l-16.53-16.53v-62.26l16.53-16.53h108.198l16.53,16.53v62.26    L310.099,238.773z"/>
		<path style="fill:#243145;" d="M288.156,307.68H256V256h32.156V307.68z"/>
		<polygon style="fill:#DAE0E7;" points="256,143.453 256,238.773 310.099,238.773 326.629,222.243 326.629,159.983     310.099,143.453   "/>
		<g>
			<path style="fill:#E4187A;" d="M370.442,403h-66.955l-13.56-112.547h94.075L370.442,403z"/>
			<polygon style="fill:#880E48;" points="336.965,403 370.442,403 384.003,290.453 336.965,290.453    "/>
			<path style="fill:#FFDE55;" d="M336.965,195.133c-23.747,0-43.066-19.319-43.066-43.066S313.218,109,336.965,109     s43.066,19.319,43.066,43.066S360.712,195.133,336.965,195.133z"/>
			<path style="fill:#FF9811;" d="M336.965,109v86.133c23.747,0,43.066-19.319,43.066-43.066S360.712,109,336.965,109z"/>
			<path style="fill:#FF728B;" d="M403,307.68H270.93v-75.223c0-20.58,16.744-37.324,37.324-37.324h57.422     c20.58,0,37.324,16.744,37.324,37.324V307.68z"/>
			<path style="fill:#EA348B;" d="M403,232.457c0-20.58-16.744-37.324-37.324-37.324h-28.711V307.68H403V232.457z"/>
		</g>
	</g>
</g>















</svg>
