<svg id="Capa_1" enable-background="new 0 0 512 512" height="512" viewBox="0 0 512 512" width="512" xmlns="http://www.w3.org/2000/svg"><g><path d="m512 256.123c-.027 56.535-18.563 108.928-49.873 151.388h-134.094c-56.773 0-110.185 24.969-146.549 67.455-5.579 6.519-47.056 7.026-61.484-2.039-22.933-14.408-43.42-32.352-60.696-53.067-3.649-4.375-.536-11.025 5.161-11.025h9.947c130.112-.001 235.588-105.477 235.588-235.588v-151.885c0-8.105 7.741-14 15.542-11.803 107.629 30.31 186.513 129.23 186.458 246.564z" fill="#51489a"/><path d="m326 9.688v410.312h-266.579c-12.781-15.304-23.809-32.123-32.774-50.149-3.397-6.83 1.63-14.851 9.259-14.851h225.094v-340.477c0-8.031 6.835-14.379 14.843-13.765 17.254 1.323 34.03 4.356 50.157 8.93z" fill="#6a61b4"/><path d="m276.217.787v359.213c0 5.523-4.477 10-10 10h-239.496c-5.664-11.369-10.506-23.218-14.451-35.47-7.869-24.441-8.313-130.189-.702-154.53 2.833-9.06 6.157-17.907 9.943-26.509.708-1.609 10.919-8.551 11.659-10.143 22.492-48.38 54.097-79.424 100.183-105.807 2.17-1.242.451-6.361 2.66-7.541 35.709-19.076 76.419-29.932 119.575-30 6.945-.011 13.824.255 20.629.787z" fill="#76b6fa"/><path d="m237.38 41.577v100.336c0 6.394-6.931 11.577-15.481 11.577h-200.388c23.24-52.817 63.838-96.425 114.502-123.49h85.886c8.55 0 15.481 5.183 15.481 11.577z" fill="#a7d0fc"/><path d="m107.5 91.096v26.318c0 4.142-3.358 7.5-7.5 7.5-4.142 0-7.5-3.358-7.5-7.5v-26.318c0-4.142 3.358-7.5 7.5-7.5 4.142 0 7.5 3.358 7.5 7.5zm48.877-7.5c-4.142 0-7.5 3.358-7.5 7.5v26.318c0 4.142 3.358 7.5 7.5 7.5 4.142 0 7.5-3.358 7.5-7.5v-26.318c0-4.142-3.358-7.5-7.5-7.5zm56.376 0c-4.142 0-7.5 3.358-7.5 7.5v26.318c0 4.142 3.358 7.5 7.5 7.5 4.142 0 7.5-3.358 7.5-7.5v-26.318c0-4.142-3.358-7.5-7.5-7.5z" fill="#76b6fa"/><path d="m136.946 105.473v11.94c0 4.142-3.358 7.5-7.5 7.5-4.142 0-7.5-3.358-7.5-7.5v-11.94c0-4.142 3.358-7.5 7.5-7.5 4.142 0 7.5 3.358 7.5 7.5z" fill="#55a4f9"/><path d="m227.894 120c0 4.142-3.358 7.5-7.5 7.5h-185.626c2.987-5.114 6.146-10.117 9.469-15h18.709v-24.258c4.427-5.086 9.05-9.997 13.858-14.721.723 1.153 1.142 2.517 1.142 3.979v35h99.118v-56.081c0-4.142 3.358-7.5 7.5-7.5s7.5 3.358 7.5 7.5v56.081h28.329c4.143 0 7.501 3.358 7.501 7.5z" fill="#86befb"/><path d="m237.38 193.55v127.43c0 7.483-7.515 13.549-16.786 13.549h-177.951c-18.737 0-34.964-13.277-38.37-31.702-.02-.109-.04-.219-.06-.328-2.708-14.759-4.151-29.961-4.211-45.488-.104-26.794 3.956-52.67 11.566-77.011h209.026c9.271 0 16.786 6.066 16.786 13.55z" fill="#55a4f9"/><path d="m237.38 270v50.98c0 7.483-7.515 13.549-16.786 13.549h-208.324c-1.801-5.595-3.415-11.273-4.834-17.029-.613-2.486 3.034-7.615 4.521-7.839 6.371-.96 12.313-3.933 16.925-8.543l22.238-22.237c5.685-5.686 13.398-8.881 21.44-8.881h14.88c8.042 0 15.754-3.195 21.441-8.881l12.238-12.237c5.687-5.687 13.399-8.881 21.441-8.881h14.88c8.042 0 15.754 3.195 21.441 8.881l12.238 12.237c5.687 5.687 13.399 8.881 21.441 8.881z" fill="#1380e2"/><path d="m237.38 262.5v15h-24.82c-10.103 0-19.601-3.934-26.744-11.077l-12.238-12.238c-4.31-4.311-10.041-6.685-16.137-6.685h-14.881c-6.096 0-11.827 2.374-16.137 6.685l-12.238 12.238c-7.144 7.144-16.642 11.077-26.744 11.077h-14.881c-6.096 0-11.827 2.374-16.137 6.685l-22.238 22.238c-7.144 7.143-16.642 11.077-26.745 11.077h-.004c-1.219-4.945-2.295-9.946-3.223-15h3.227c6.096 0 11.827-2.374 16.137-6.685l22.238-22.238c7.144-7.144 16.642-11.077 26.744-11.077h14.881c6.096 0 11.827-2.374 16.137-6.685l12.238-12.238c7.144-7.144 16.642-11.077 26.744-11.077h14.881c10.103 0 19.601 3.934 26.744 11.077l12.238 12.238c4.31 4.311 10.041 6.685 16.137 6.685zm-144.88-36.787h-14.263c-4.142 0-7.5 3.357-7.5 7.5 0 4.142 3.358 7.5 7.5 7.5h14.263c4.142 0 7.5-3.358 7.5-7.5 0-4.143-3.358-7.5-7.5-7.5zm-47.143-10.713h47.143c4.142 0 7.5-3.358 7.5-7.5s-3.358-7.5-7.5-7.5h-47.143c-4.142 0-7.5 3.358-7.5 7.5s3.358 7.5 7.5 7.5z" fill="#a7d0fc"/><path d="m180 243.283c0 8.285-6.716 15-15 15s-15-6.715-15-15c0-8.284 6.716-15 15-15s15 6.716 15 15z" fill="#e9f3fe"/><path d="m180 324.791c0 .784-.09 1.546-.261 2.278.172 1.299.261 2.624.261 3.97v30h-60v-30c0-16.569 13.431-30 30-30 3.506 0 6.872.602 10 1.707v-24.14c0-5.523 4.477-10 10-10s10 4.477 10 10z" fill="#eac23f"/><path d="m160 361.039v121.811c0 5.035-5.203 8.421-9.787 6.339-10.467-4.756-20.557-10.196-30.213-16.263v-111.887z" fill="#d1462a"/><path d="m180 361.039v126.489c0 6.496-6.476 10.983-12.57 8.736-5.916-2.181-11.729-4.575-17.43-7.172v-128.053z" fill="#ea552d"/><path d="m190 358.539c0 4.142-3.358 7.5-7.5 7.5h-65c-4.142 0-7.5-3.358-7.5-7.5s3.358-7.5 7.5-7.5h65c4.142 0 7.5 3.358 7.5 7.5z" fill="#f76937"/><path d="m461 265v10c0 13.807-11.193 25-25 25-2.468 0-4.853-.358-7.105-1.024-12.254 32.333-39.309 57.384-72.895 66.883v64.141h-60v-64.141c-33.586-9.499-60.641-34.551-72.895-66.883-2.252.666-4.637 1.024-7.105 1.024-13.807 0-25-11.193-25-25v-10c0-13.807 11.193-25 25-25v-20c0-60.751 49.249-110 110-110 60.751 0 110 49.249 110 110v20c13.807 0 25 11.193 25 25z" fill="#faa68e"/><path d="m436 220v40c0 50.792-34.425 93.543-81.216 106.195-9.023 2.439-18.545 2.439-27.568 0-46.791-12.652-81.216-55.403-81.216-106.195v-40c0-55.663 41.345-101.669 95-108.985 53.655 7.316 95 53.322 95 108.985z" fill="#ffbeaa"/><path d="m444.872 209.076v43.226c0 32.578-13.105 62.095-34.332 83.567-6.277 6.349-16.524 6.38-22.837.067-6.284-6.284-16.473-6.284-22.757 0l-2.405 2.405c-6.284 6.284-16.473 6.284-22.757 0l-2.405-2.405c-6.284-6.284-16.473-6.284-22.757 0l-2.405 2.405c-6.284 6.284-16.473 6.284-22.757 0l-2.405-2.405c-6.284-6.284-16.473-6.284-22.757 0-6.313 6.313-16.561 6.282-22.837-.067-21.226-21.472-34.332-50.989-34.332-83.567v-43.226c0-65.652 53.221-118.872 118.872-118.872 65.651 0 118.871 53.22 118.871 118.872z" fill="#a65d4e"/><path d="m326 90.204c65.652 0 118.872 53.221 118.872 118.873v13.93c-5.501 20.61-16.569 39.053-31.558 53.734-6.483 6.349-17.067 6.38-23.587.067-6.49-6.284-17.013-6.284-23.504 0l-2.484 2.405c-6.49 6.284-17.014 6.284-23.504 0l-2.484-2.405c-6.49-6.284-17.014-6.284-23.504 0l-2.484 2.405c-6.49 6.284-17.013 6.284-23.504 0l-2.484-2.405c-6.49-6.284-17.014-6.284-23.504 0-6.52 6.313-17.104 6.282-23.587-.067-14.989-14.681-26.057-33.124-31.558-53.734v-13.93c.002-65.653 53.222-118.873 118.874-118.873z" fill="#915041"/><path d="m326 90.204c65.652 0 118.872 53.221 118.872 118.873v6.041c-3.864 4.016-8.042 7.831-12.507 11.42-7.897 6.349-20.79 6.38-28.733.067-7.906-6.284-20.726-6.284-28.632 0l-3.026 2.405c-7.906 6.284-20.726 6.284-28.632 0l-3.026-2.405c-7.906-6.284-20.726-6.284-28.632 0l-3.026 2.405c-7.907 6.284-20.726 6.284-28.632 0l-3.026-2.406c-7.907-6.284-20.726-6.284-28.632 0-7.943 6.313-20.836 6.282-28.733-.067-4.464-3.589-8.643-7.404-12.507-11.42v-6.041c0-65.652 53.22-118.872 118.872-118.872z" fill="#784132"/><path d="m446.405 191.622h-240.81l-.338-40.602c-.328-39.313 25.458-74.076 63.175-85.169l32.55-9.574c16.329-4.802 33.699-4.768 50.009.101l32.23 9.622c37.026 11.052 62.512 44.962 62.834 83.601z" fill="#e9cc5a"/><path d="m250.003 151.02.338 40.602h-44.747l-.338-40.602c-.328-39.313 25.458-74.076 63.175-85.169l32.55-9.574c9.22-2.712 18.773-3.881 28.279-3.508 6.368.25 1.114 8.024 1.114 8.024l-17.196 5.058c-37.717 11.093-63.502 45.856-63.175 85.169z" fill="#eac23f"/><path d="m456.216 183.378c0 7.389-5.99 13.378-13.378 13.378h-233.676c-7.389 0-13.378-5.99-13.378-13.378s5.989-13.378 13.378-13.378h233.676c7.389 0 13.378 5.99 13.378 13.378z" fill="#e9cc5a"/><path d="m326 147.027c-7.389 0-13.378-5.99-13.378-13.378v-80.27c0-7.389 5.989-13.379 13.378-13.379 7.389 0 13.378 5.99 13.378 13.378v80.27c0 7.389-5.989 13.379-13.378 13.379zm-41.027-13.378v-71.352c0-7.389-5.99-13.378-13.378-13.378-7.389 0-13.378 5.99-13.378 13.378v71.351c0 7.389 5.99 13.378 13.378 13.378 7.388.001 13.378-5.989 13.378-13.377zm107.027 0v-71.352c0-7.389-5.99-13.378-13.378-13.378-7.389 0-13.378 5.99-13.378 13.378v71.351c0 7.389 5.99 13.378 13.378 13.378 7.388.001 13.378-5.989 13.378-13.377z" fill="#fff04a"/><path d="m456.216 183.378c0 7.389-5.99 13.378-13.378 13.378h-189.892c-7.389 0-13.378-5.99-13.378-13.378s5.989-13.378 13.378-13.378h189.892c7.389 0 13.378 5.99 13.378 13.378z" fill="#fff04a"/><path d="m280 390c-38.66 0-70 31.34-70 70v34.193c0 7.168-6.695 12.48-13.668 10.816-10.37-2.476-20.495-5.583-30.332-9.277v-35.732c0-38.66 31.34-70 70-70z" fill="#f76937"/><path d="m462.349 407.542c-11.236 15.273-24.126 29.254-38.408 41.678-1.285 1.118-9.548 2.223-10.856 3.315-11.917 9.958-21.018 15.621-34.628 23.306-1.49.842.241 4.9-1.267 5.713-36.076 19.424-77.346 30.446-121.19 30.446-20.663 0-40.754-2.448-60-7.07v-44.93c0-38.66 31.34-70 70-70h150c17.775 0 34.003 6.626 46.349 17.542z" fill="#ff7c48"/><path d="m369.517 389.127c0 5.523-4.477 10-10 10h-67.843c-5.523 0-10-4.477-10-10 0-5.522 4.477-10 10-10h67.843c5.523 0 10 4.478 10 10z" fill="#ea552d"/><path d="m210.869 448.939c-.572 3.603-.869 7.297-.869 11.061v21.553h-44v-21.553c0-3.764.297-7.458.869-11.061z" fill="#e9cc5a"/><path d="m196 481.553v-21.553c0-3.764.297-7.458.869-11.061h227.393c-14.367 12.54-30.148 23.501-47.072 32.614z" fill="#fff36c"/></g></svg>