<svg height="512" viewBox="0 0 64 64" width="512" xmlns="http://www.w3.org/2000/svg" xmlns:xlink="http://www.w3.org/1999/xlink"><linearGradient id="New_Gradient_Swatch" gradientUnits="userSpaceOnUse" x1="31" x2="31" y1="65.137" y2="-.195"><stop offset="0" stop-color="#e93e3a"/><stop offset=".35" stop-color="#ed683c"/><stop offset=".7" stop-color="#f3903f"/><stop offset="1" stop-color="#fdc70c"/></linearGradient><linearGradient id="New_Gradient_Swatch-2" x1="29" x2="29" xlink:href="#New_Gradient_Swatch" y1="65.137" y2="-.195"/><linearGradient id="New_Gradient_Swatch-4" x1="33" x2="33" xlink:href="#New_Gradient_Swatch" y1="65.137" y2="-.195"/><linearGradient id="New_Gradient_Swatch-5" x1="41" x2="41" xlink:href="#New_Gradient_Swatch" y1="65.137" y2="-.195"/><linearGradient id="New_Gradient_Swatch-6" x1="17" x2="17" xlink:href="#New_Gradient_Swatch" y1="65.137" y2="-.195"/><linearGradient id="New_Gradient_Swatch-7" x1="25" x2="25" xlink:href="#New_Gradient_Swatch" y1="65.137" y2="-.195"/><linearGradient id="New_Gradient_Swatch-8" x1="19" x2="19" xlink:href="#New_Gradient_Swatch" y1="65.137" y2="-.195"/><linearGradient id="New_Gradient_Swatch-10" x1="39" x2="39" xlink:href="#New_Gradient_Swatch" y1="65.137" y2="-.195"/><g id="Password-Pin_Code" data-name="Password-Pin Code"><path d="m53 42a2.966 2.966 0 0 0 -1 .184v-35.184a5.006 5.006 0 0 0 -5-5h-36a5.006 5.006 0 0 0 -5 5v50a5.006 5.006 0 0 0 5 5h42a1 1 0 0 0 .948-.684l2-6a1 1 0 0 0 .052-.316v-10a3 3 0 0 0 -3-3zm-45 15v-50a3 3 0 0 1 3-3h36a3 3 0 0 1 3 3v34.184a2.863 2.863 0 0 0 -2.471.217 2.94 2.94 0 0 0 -3.529-1.217v-6.184a2.985 2.985 0 0 0 -1-2.22v-1.78a1 1 0 0 0 -1-1h-6a1 1 0 0 0 -1 1v6a1 1 0 0 0 1 1h2v2h-2a1 1 0 0 0 -1 1v2.78a2.985 2.985 0 0 0 -1 2.22v5h-22v2h22v3a1 1 0 0 0 .1.447l2.282 4.553h-25.382a3 3 0 0 1 -3-3zm30-14.816a2.966 2.966 0 0 0 -1-.184v-1h1zm0-8.184v1h-1v-4h4a3 3 0 0 0 -3 3zm16 20.838-1.721 5.162h-13.661l-2.618-5.236v-9.764a1 1 0 0 1 2 0v6h2v-17a1 1 0 0 1 2 0v13h2v-4a1 1 0 0 1 2 0v4h2v-3a1 1 0 0 1 2 0v3h2v-2a1 1 0 0 1 2 0z" fill="url(#New_Gradient_Swatch)"/><path d="m28 6h2v2h-2z" fill="url(#New_Gradient_Swatch-2)"/><path d="m29 53a3 3 0 1 0 3 3 3 3 0 0 0 -3-3zm0 4a1 1 0 1 1 1-1 1 1 0 0 1 -1 1z" fill="url(#New_Gradient_Swatch-2)"/><path d="m33 17a3 3 0 1 0 -3-3 3 3 0 0 0 3 3zm0-4a1 1 0 1 1 -1 1 1 1 0 0 1 1-1z" fill="url(#New_Gradient_Swatch-4)"/><path d="m41 17a3 3 0 1 0 -3-3 3 3 0 0 0 3 3zm0-4a1 1 0 1 1 -1 1 1 1 0 0 1 1-1z" fill="url(#New_Gradient_Swatch-5)"/><path d="m17 17a3 3 0 1 0 -3-3 3 3 0 0 0 3 3zm0-4a1 1 0 1 1 -1 1 1 1 0 0 1 1-1z" fill="url(#New_Gradient_Swatch-6)"/><path d="m25 17a3 3 0 1 0 -3-3 3 3 0 0 0 3 3zm0-4a1 1 0 1 1 -1 1 1 1 0 0 1 1-1z" fill="url(#New_Gradient_Swatch-7)"/><path d="m15 20v6a1 1 0 0 0 1 1h6a1 1 0 0 0 1-1v-6a1 1 0 0 0 -1-1h-6a1 1 0 0 0 -1 1zm2 1h4v4h-4z" fill="url(#New_Gradient_Swatch-8)"/><path d="m32 19h-6a1 1 0 0 0 -1 1v6a1 1 0 0 0 1 1h6a1 1 0 0 0 1-1v-6a1 1 0 0 0 -1-1zm-1 6h-4v-4h4z" fill="url(#New_Gradient_Swatch-2)"/><path d="m42 19h-6a1 1 0 0 0 -1 1v6a1 1 0 0 0 1 1h6a1 1 0 0 0 1-1v-6a1 1 0 0 0 -1-1zm-1 6h-4v-4h4z" fill="url(#New_Gradient_Swatch-10)"/><path d="m22 29h-6a1 1 0 0 0 -1 1v6a1 1 0 0 0 1 1h6a1 1 0 0 0 1-1v-6a1 1 0 0 0 -1-1zm-1 6h-4v-4h4z" fill="url(#New_Gradient_Swatch-8)"/><path d="m32 29h-6a1 1 0 0 0 -1 1v6a1 1 0 0 0 1 1h6a1 1 0 0 0 1-1v-6a1 1 0 0 0 -1-1zm-1 6h-4v-4h4z" fill="url(#New_Gradient_Swatch-2)"/><path d="m22 39h-6a1 1 0 0 0 -1 1v6a1 1 0 0 0 1 1h6a1 1 0 0 0 1-1v-6a1 1 0 0 0 -1-1zm-1 6h-4v-4h4z" fill="url(#New_Gradient_Swatch-8)"/><path d="m32 39h-6a1 1 0 0 0 -1 1v6a1 1 0 0 0 1 1h6a1 1 0 0 0 1-1v-6a1 1 0 0 0 -1-1zm-1 6h-4v-4h4z" fill="url(#New_Gradient_Swatch-2)"/></g></svg>