<svg id="Capa_1" enable-background="new 0 0 512 512" height="512" viewBox="0 0 512 512" width="512" xmlns="http://www.w3.org/2000/svg"><g><circle cx="256" cy="256" fill="#9dcfff" r="256"/><g><path d="m507.427 304.316-149.872-149.871 23.471 94.1-58.786-58.786.794 70.186-35.49-35.49-38.184 6.639-40.703-40.703-58.087 42.395 128.852 153.012-31.133 10.529 98.925 98.925c81.774-31.195 143.433-103.095 160.213-190.936z" fill="#72bbff"/></g><g><path d="m208.659 190.391-61.234-61.233-57.698 57.698c-40.266 40.266 195.151 275.684 235.418 235.418l57.698-57.698-61.233-61.233-34.152 34.152-112.952-112.952z" fill="#5a5a5a"/><g fill="#ffd300"><path d="m248.291 109.113v30c34.351 0 65.5 13.973 88.062 36.535l21.203-21.203c-27.994-27.994-66.643-45.332-109.265-45.332z"/><path d="m357.555 154.445-3.345 17.687-17.858 3.516"/><path d="m372.887 263.709h30"/><path d="m248.291 159.079v30c20.576 0 39.233 8.37 52.747 21.884l18.136-1.885 3.067-19.318c-18.946-18.947-45.104-30.681-73.95-30.681z"/><path d="m248.291 208.169v30c7.042 0 13.427 2.864 18.052 7.489l16.35-4.74 4.853-16.463c-10.058-10.058-23.943-16.286-39.255-16.286z"/></g><g><path d="m287.457 337.494-56.475-56.475-53.745 53.745c58.854 58.854 127.776 107.642 147.909 87.509l57.698-57.698-61.233-61.233z" fill="#32393f"/></g><g fill="#ffb600"><path d="m336.352 175.648c22.561 22.561 36.535 53.71 36.535 88.061h30c0-42.622-17.338-81.271-45.331-109.265z"/><path d="m301.038 210.962c13.514 13.514 21.884 32.171 21.884 52.747h30c0-28.847-11.734-55.005-30.68-73.95z"/><path d="m266.342 245.658c4.625 4.625 7.489 11.01 7.489 18.051h30c0-15.313-6.229-29.198-16.286-39.255z"/></g></g></g></svg>