<svg enable-background="new 0 0 140 140" height="512" viewBox="0 0 140 140" width="512" xmlns="http://www.w3.org/2000/svg"><circle cx="70" cy="70" fill="#efc84a" r="64"/><path d="m97.0853195 46.238308-23.3099975-23.3099957-.0100098.0100098c-.2000122-.1900024-.4699707-.3200073-.8299561-.3400269-.6000366-.0299683-1.5100098-.0799561-2.4500122-.039978-.9400024-.039978-1.8500366.0100098-2.4500122.039978-1.4199829.0599976-1.4199829 1.9100342-1.4199829 1.9100342s-.7700195.3999634-.9899902 2.5599976c-.1000366 1 .0699463 2.039978.2699585 2.8800049-.0800171-.0300293-.1699829-.0499878-.25-.0300293-.3300171.0900269-.4599609.6900024-.2799683 1.3400269.0899658.3300171.2299805.5999756.3999634.7799664l.9200439.9299927c.1699829.8000488.4599609 1.5100098.8499756 2.1000366v1.3999634l-.5200195.9200439-.8299561.7699585-3.4900513 1.9200439c-.5499878.289978-1.039978.6799927-1.4499512 1.1399536-.9300537 1.0200195-1.4500122 2.3600464-1.4500122 3.7400513v1.8499756l-9.9800414-9.9899904v.0299683c-.2099609-.2299805-.5-.3999634-.9099731-.4199829-.6799927-.0299683-1.7199707-.0899658-2.789978-.0299683 0 0-.0300293 0-.0700073.0099487-.1900024.0100098-.3800049.0300293-.5700073.0500488-.9199829.0700073-2.6600342.1499634-3.6699829-.1700439-.2300415-.0799561-.4700317.0500488-.5200195.2900391-.210022.9299927-.5800171 3.0299683-.1500244 4.3200073.0500488.9099731.1799927 2.1199951.3800049 3h-.0299683c-.3400269.0899658-.4700317.6999512-.2900391 1.3599854.0800171.3099976.210022.5599976.3699951.75h-.0099487l.0299683.0299683c.0100098.0100098.0300293.0300293.0499878.0400391l.8699951.8599854c.1800537.8400269.4900513 1.5999756.9000244 2.2199707v1.4100342l-.5299683.9299927-.8400269.789978-3.5599976 1.9500122c-.5599976.3099976-1.0599976.7000122-1.4799805 1.1699829-.9500122 1.0400391-1.4700317 2.4000244-1.4700317 3.8099976v6.700016c0 .4700317.1699829.9000244.4400024 1.25l.0499878.0599976c.0700073.0800171.1500244.1500244.2300415.2200317l4.2199707 4.2000122c-2.9299927.3699951-4.8699951 1.0099487-4.8699951 1.7399902v33.5599976c0 .1799927.1400146.3599854.3699951.5299683l26.065979 26.0101318c2.6126709.3247681 5.2681274.5115356 7.968689.5115356 31.2338257 0 57.2265015-22.3794556 62.8555984-51.9744873l-35.3802566-35.3871499c-.0900269-.1600342-.2299805-.2900391-.3900147-.4000244z" opacity=".1"/><path d="m35.5964279 73.3852234v33.5603485c0 1.1401291 4.7317505 2.0644531 10.5686378 2.0644531 5.8369484 0 10.5687523-.924324 10.5687523-2.0644531v-33.5603485z" fill="#27a2db"/><path d="m83.7535019 80.6557617v26.2898102c0 1.1401291 4.7318039 2.0644531 10.5686951 2.0644531 5.8369446 0 10.5687561-.924324 10.5687561-2.0644531v-26.2898102z" fill="#44c4a1"/><ellipse cx="94.322" cy="80.656" fill="#3ea69b" rx="10.569" ry="2.064"/><ellipse cx="46.165" cy="73.385" fill="#2d93ba" rx="10.569" ry="2.064"/><path d="m59.6749382 58.2790108v48.6665611c0 1.1401291 4.7318077 2.0644531 10.5686913 2.0644531 5.8369522 0 10.5687561-.924324 10.5687561-2.0644531v-48.6665611z" fill="#e56353"/><ellipse cx="70.244" cy="58.279" fill="#d15241" rx="10.569" ry="2.064"/><path d="m91.66114 54.573265h5.321827v7.24016h-5.321827z" fill="#e69871"/><path d="m98.6117477 74.7334213v-14.0178375l-.8548507-.4681625-3.4348374.679512-3.4348373-.679512-.1470108.0805015v14.4054985z" fill="#d5d6db"/><path d="m103.1697388 63.5543785c-.4091339-.450222-.8905716-.8297882-1.4245987-1.1222725l-3.427597-1.878109-.5603256-.3072815-.3269882.0640945c-.2251053 1.8025322-1.0918503 5.5036659-3.1063614 11.473217-2.0144806-5.9679031-2.8812561-9.6674118-3.1063538-11.4715729l-.3302841-.0657387-.5520935.3023453-3.4374542 1.8830452c-.5340271.2924843-1.0154648.6720505-1.422966 1.1222725-.9152374 1.0072289-1.4213257 2.31847-1.4213257 3.678997v6.4659653c0 1.0761719.872406 1.9485779 1.9485703 1.9485779h16.6405258c1.0761719 0 1.9485703-.872406 1.9485703-1.9485779v-6.4659653c-.0000002-1.3605269-.5060808-2.671768-1.4213182-3.6789969z" fill="#2f4859"/><path d="m95.7504425 62.181385-.7132797-1.2354507-.7151032-.019001-.7114639.019001-.713295 1.2354507.6991425 1.2109375-.6991425 5.7056466 1.4265671 2.686058 1.4265747-2.5873947-.6993179-5.803978z" fill="#27a2db"/><path d="m96.9829712 58.8884048-2.6609192 2.0385285 2.2117233 2.8539429 1.2231217-3.5334511z" fill="#ebf0f3"/><path d="m91.6611404 58.8884048 2.6609116 2.0385285-2.2117157 2.8539429-1.2231216-3.5334511z" fill="#ebf0f3"/><path d="m94.4109726 73.3456726c-.2505341 0-.4536057.2030869-.4536057.4536209 0 .2505188.2030716.4536057.4536057.4536057.2505264 0 .453598-.2030869.453598-.4536057 0-.250534-.2030716-.4536209-.453598-.4536209z" fill="#3a556a"/><path d="m97.8673706 63.6038284.7443695-.7459831-.29422-2.3038559-.8248444-.7706375s-.0197296.1856766-.0624542.5274506c-.2250748 1.8025284-1.0914536 4.9170723-3.1059875 10.8866081-2.0144882-5.9679031-2.8816452-9.0807915-3.10672-10.8849754-.0427246-.341774-.0624542-.5290833-.0624542-.5290833l-.8199387.7657127-.0048981.0049248-.0738525 2.3038559.6341629.7459831-.2744217 1.2570114c.5253448 2.381752 2.8968887 5.7975235 3.5429382 6.6970139l-1.0274506 2.2414169 2.325676-3.6047974s2.31427-3.655098 2.6845169-5.3336334z" fill="#3a556a"/><g fill="#f0a67a"><ellipse cx="97.779" cy="54.167" rx="1.265" ry=".529" transform="matrix(.186 -.983 .983 .186 26.413 140.199)"/><ellipse cx="90.461" cy="54.167" rx=".529" ry="1.265" transform="matrix(.983 -.186 .186 .983 -8.478 17.722)"/><path d="m94.119751 48.3223381c-1.1115341 0-3.0314941.913723-3.6708145 2.0853462-.4696045.8605957.1798782 2.626339.1798782 3.8081169 0 2.7906837 1.5629501 5.0529785 3.4909439 5.0529785s3.4909286-2.2622948 3.4909286-5.0529785c0-.8445168.4552002-3.4355164.2021332-4.2425613-.5831909-1.8597984-2.348526-1.6509018-3.6930694-1.6509018z"/></g><path d="m98.6893616 50.1269188c-.1969833-1.9698677-.9005051-2.3356934-.9005051-2.3356934s0-1.6884575-1.294487-1.7447395c-1.2944794-.056282-4.1085739-.2532692-5.3467712.7879448-1.2381973 1.0412178-1.5196152 1.6884537-1.6040344 2.110569-.0844193.4221115.0844193 3.4331894.5628204 4.4744034l.2485657.8031006c.0353165.1141014.1619415.1722107.2714767.1245804.0763245-.0331917.1241989-.1096077.1203384-.192749-.0249176-.5373802-.0982285-2.5095444.1194229-3.3801765.253273-1.013073 1.2100601-.9567909 2.9266586-1.1537781s3.4613266-.7598038 3.4613266-.0844231c0 .6378708.276123 3.2587967.3305054 4.5436745.0050278.1189232.1031036.2121429.2221375.2121429.0921631 0 .1745148-.0564117.2075729-.1424408.1986237-.5167962.8421479-2.3506775.6749726-4.0224152z" fill="#2f4859"/><path d="m43.407368 46.096527h5.515155v7.503176h-5.515155z" fill="#e69871"/><path d="m50.6104698 66.9890518v-14.5270767l-.8859024-.4851685-3.5596161.704197-3.5596199-.704197-.1523437.0834275v14.9288177z" fill="#d5d6db"/><path d="m55.3340416 55.4038963c-.4239922-.4665756-.9229164-.8599281-1.4763451-1.1630402l-3.5521126-1.9463348-.5806808-.3184433-.338871.0664215c-.2332764 1.8680153-1.1315155 5.7036018-3.2192039 11.890007-2.0876656-6.1847-2.9859238-10.0186005-3.2192001-11.8883018l-.3422852-.0681267-.5721474.3133278-3.5623283 1.9514503c-.5534286.303112-1.0523529.6964645-1.4746628 1.1630402-.9484863 1.0438271-1.4729538 2.4026985-1.4729538 3.812645v6.7008629c0 1.1152649.9040947 2.0193558 2.0193596 2.0193558h17.2450294c1.1152611 0 2.0193596-.9040909 2.0193596-2.0193558v-6.7008629c0-1.4099465-.5244713-2.7688179-1.4729576-3.812645z" fill="#2f4859"/><path d="m47.6452255 53.9810295-.7391891-1.2803345-.7410851-.0196914-.7373085.0196914-.7392082 1.2803345.7245407 1.2549286-.7245407 5.9129181 1.4783936 2.7836304 1.4783973-2.6813889-.72472-6.0148201z" fill="#44c4a1"/><path d="m48.9225235 50.5684242-2.757576 2.1125832 2.2920685 2.9576149 1.2675476-3.6618118z" fill="#ebf0f3"/><path d="m43.4073677 50.5684242 2.7575798 2.1125832-2.2920685 2.9576149-1.2675514-3.6618118z" fill="#ebf0f3"/><path d="m46.2570915 65.5508804c-.2596359 0-.4700813.2104721-.4700813.470108 0 .259613.2104454.4700775.4700813.4700775s.4700813-.2104645.4700813-.4700775c.0000001-.2596359-.2104454-.470108-.4700813-.470108z" fill="#3a556a"/><path d="m49.8390579 55.455143.7714119-.7730827-.3049164-2.3875465-.854805-.7986298s-.020443.1924171-.064724.546608c-.2332458 1.8680115-1.1311035 5.0956955-3.2188148 11.282093-2.0876732-6.1847038-2.9863319-9.410675-3.2195816-11.2803993-.0442772-.3541908-.064724-.5483017-.064724-.5483017l-.8497238.7935257-.0050812.0051041-.0765343 2.3875465.6571999.7730827-.2843857 1.3026733c.5444298 2.468277 3.002121 6.0081367 3.6716385 6.9403038l-1.0647697 2.3228455 2.4101562-3.7357521s2.3983459-3.7878799 2.7820396-5.5273972z" fill="#3a556a"/><g fill="#f0a67a"><ellipse cx="50.699" cy="45.092" rx="1.238" ry=".636" transform="matrix(.26 -.966 .966 .26 -6.021 82.328)"/><ellipse cx="41.806" cy="45.092" rx=".636" ry="1.238" transform="matrix(.966 -.26 .26 .966 -10.284 12.416)"/><path d="m46.252182 38.9760742c-1.2429161 0-3.3898163.9953461-4.104702 2.2716331-.5251045.9374657.2011414 2.8609467.2011414 4.1482925 0 3.0399742 1.7476883 5.5043602 3.9035683 5.5043602s3.9035568-2.464386 3.9035568-5.5043602c0-.9199562.5090027-3.7424126.2260208-4.6215515-.6521225-2.0259322-2.6261215-1.7983741-4.1295853-1.7983741z"/></g><path d="m51.3619232 40.9941673c-.2202759-2.2027321-1.0069313-2.611824-1.0069313-2.611824s0-1.8879929-1.4474907-1.9509277c-.678257-.0294724-1.7308807-.08881-2.7991524-.0287857l.0037689-.0044556s-.0252419.0028572-.0623093.0069122c-.1915512.0115929-.3795624.0318108-.5696869.0524826-.9296036.0731049-2.6668243.1509476-3.6730156-.1740761-.2321014-.0749855-.4726524.0554581-.5247383.2937279-.2044601.936058-.5769997 3.0345078-.1456947 4.3251686.0001144.0003433.0002861.000515.0004005.0008583.0664787 1.2245293.2687683 2.9920731.6273727 3.7725601l.2779617.8980217c.039463.1275864.1810989.1925812.3035469.1392937.0853806-.0371208.1388931-.1225586.1345558-.215538-.0278702-.600872-.1098289-2.8061752.1335831-3.7796974.2831573-1.1328087 1.9415054.2761345 3.8609695.0558548 1.9195175-.2202797 3.2820282-2.1955986 3.2820282-1.4404106 0 .7132645.3087997 3.644001.3695679 5.0806999.0056534.1330109.1153069.2372398.248436.2372398.1030273 0 .1950912-.0630493.2321014-.1592827.2220499-.5778541.9416544-2.6285019.7547266-4.4978218z" fill="#2f4859"/><path d="m67.536758 32.081104h5.413449v7.364808h-5.413449z" fill="#e69871"/><path d="m74.6070328 52.5883446v-14.2591744l-.8695679-.476223-3.4939728.6912117-3.4939728-.6912117-.1495361.0818901v14.6535073z" fill="#d5d6db"/><path d="m79.2434921 41.2168388c-.4161758-.4579735-.905899-.8440742-1.4491196-1.1415939l-3.4866104-1.9104424-.5699692-.3125725-.3326187.065197c-.228981 1.8335686-1.1106491 5.5984192-3.1598358 11.670742-2.0491714-6.0706482-2.9308624-9.833847-3.1598434-11.6690674l-.335968-.0668716-.5615997.3075485-3.4966316 1.9154663c-.5432205.2975197-1.0329475.6836205-1.4474678 1.1415939-.9309959 1.0245743-1.4457932 2.358387-1.4457932 3.7423325v6.5772896c0 1.094696.8874245 1.9821205 1.9821205 1.9821205h16.9270134c1.094696 0 1.9821167-.8874245 1.9821167-1.9821205v-6.5772896c0-1.3839454-.514801-2.7177581-1.4457932-3.7423324z" fill="#2f4859"/><path d="m71.6964645 39.8202095-.7255554-1.2567215-.727417-.0193291-.7237091.0193291-.7255783 1.2567215.711174 1.2317848-.711174 5.8038788 1.4511337 2.732296 1.4511261-2.6319428-.7113494-5.9038963z" fill="#e56353"/><path d="m72.9502106 36.4705353-2.7067261 2.0736236 2.2498016 2.9030762 1.2441712-3.5942841z" fill="#ebf0f3"/><path d="m67.5367584 36.4705353 2.7067261 2.0736236-2.249794 2.9030762-1.2441788-3.5942841z" fill="#ebf0f3"/><path d="m70.333931 51.1767006c-.2548447 0-.4614105.2065849-.4614105.4614334 0 .2548256.2065659.4614143.4614105.4614143s.4614182-.2065887.4614182-.4614143c-.0000001-.2548485-.2065736-.4614334-.4614182-.4614334z" fill="#3a556a"/><path d="m73.8498459 41.2671394.7571793-.7588272-.2992859-2.3435211-.8390427-.7839012s-.0200729.1888695-.06353.5365295c-.2289505 1.8335648-1.1102448 5.0017281-3.159462 11.0740395-2.0491714-6.070652-2.9312592-9.2371292-3.160202-11.0723763-.0434647-.3476601-.0635376-.5381927-.0635376-.5381927l-.834053.7788963-.004982.0050049-.0751266 2.3435211.6450806.7588272-.2791367 1.2786484c.5343857 2.42276 2.9467545 5.8973427 3.6039276 6.8123169l-1.0451355 2.2800102 2.3657074-3.6668587s2.3541183-3.718029 2.7307358-5.4254684z" fill="#3a556a"/><ellipse cx="74.694" cy="31.096" fill="#f0a67a" rx="1.215" ry=".625" transform="matrix(.26 -.966 .966 .26 25.253 95.14)"/><ellipse cx="65.965" cy="31.096" fill="#f0a67a" rx=".625" ry="1.215" transform="matrix(.966 -.26 .26 .966 -5.815 18.214)"/><path d="m70.3291168 25.0919628c-1.2200012 0-3.3273087.9769897-4.0290146 2.2297401-.515419.9201813.1974335 2.8081894.1974335 4.0717964 0 2.9839115 1.7154617 5.4028492 3.8315811 5.4028492 2.116127 0 3.8315735-2.4189377 3.8315735-5.4028492 0-.9029942.4996185-3.673399.2218552-4.5363255-.6400986-1.988573-2.5776902-1.765211-4.0534287-1.765211z" fill="#f0a67a"/><path d="m75.3446426 27.0728321c-.2162323-2.1621132-.9883652-2.5636654-.9883652-2.5636654s0-1.8531952-1.420784-1.9149685c-.6020432-.0261326-1.5070801-.0718002-2.4496841-.0376148-.9425964-.0341854-1.8476334.0114822-2.4496765.0376148-1.420784.0617733-1.420784 1.9149685-1.420784 1.9149685s-.7721329.4015522-.9883652 2.5636654c-.1834488 1.834856.5228577 3.8476543.7408066 4.4148865.0363159.0944519.1267166.1563282.2278214.1563282.130661 0 .2383118-.1022968.243866-.2328568.0596466-1.4101849.3627472-4.2869244.3627472-4.9870033 0-.7412777 1.3373947 1.1976414 3.2215042 1.4138222.0208817.0023899.0412521.0020256.0620804.0040531.0208359-.0020275.0412064-.0016632.062088-.0040531 1.8841095-.2161808 3.2215042-2.1550999 3.2215042-1.4138222 0 .700079.3031006 3.5768185.3627472 4.9870033.0055542.1305599.113205.2328568.243866.2328568.1011047 0 .1915054-.0618763.2278214-.1563282.2179488-.5672321.9242552-2.5800305.7408064-4.4148865z" fill="#2f4859"/></svg>