<svg height="511pt" viewBox="1 -2 511.99998 511" width="511pt" xmlns="http://www.w3.org/2000/svg"><path d="m339.277344.5h-306.117188c-18.3125 0-33.160156 14.847656-33.160156 33.160156v440.492188c0 18.3125 14.847656 33.160156 33.160156 33.160156h306.117188c18.3125 0 33.160156-14.847656 33.160156-33.160156v-440.492188c0-18.3125-14.847656-33.160156-33.160156-33.160156zm0 0" fill="#41476b"/><path d="m47.613281 48.113281h277.210938v377.726563h-277.210938zm0 0" fill="#94dc7e"/><path d="m202.265625 466.574219c0 8.863281-7.183594 16.046875-16.046875 16.046875s-16.046875-7.183594-16.046875-16.046875 7.183594-16.046875 16.046875-16.046875 16.046875 7.183594 16.046875 16.046875zm0 0" fill="#efedee"/><path d="m193.261719 24.304688c0 3.890624-3.15625 7.042968-7.042969 7.042968-3.890625 0-7.042969-3.152344-7.042969-7.042968 0-3.886719 3.152344-7.039063 7.042969-7.039063 3.886719 0 7.042969 3.152344 7.042969 7.039063zm0 0" fill="#efedee"/><path d="m324.824219 63.273438h-179.558594c-33.582031 0-60.902344 27.320312-60.902344 60.902343v225.601563c0 33.582031 27.320313 60.902344 60.902344 60.902344h179.558594zm0 0" fill="#80c56e"/><path d="m311.058594 128.878906-200.941406 19.632813v52.671875l200.941406 20.097656 200.941406-20.097656v-52.671875zm0 0" fill="#4f648f"/><path d="m141.023438 201.179688v-52.667969l185.488281-18.125-15.453125-1.507813-200.941406 19.632813v52.667969l200.941406 20.101562 15.453125-1.546875zm0 0" fill="#41476b"/><path d="m512 201.183594v148.59375c0 19.414062-15.734375 35.148437-35.148438 35.148437h-331.585937c-19.414063 0-35.148437-15.734375-35.148437-35.148437v-148.59375zm0 0" fill="#fd747f"/><path d="m141.023438 349.777344v-148.597656h-30.90625v148.597656c0 19.414062 15.734374 35.148437 35.148437 35.148437h30.90625c-19.414063 0-35.148437-15.734375-35.148437-35.148437zm0 0" fill="#f25759"/><path d="m512 124.175781v24.335938h-401.882812v-24.335938c0-19.414062 15.734374-35.148437 35.148437-35.148437h331.585937c19.414063 0 35.148438 15.734375 35.148438 35.148437zm0 0" fill="#fd747f"/><path d="m176.171875 89.027344h-30.90625c-19.414063 0-35.148437 15.734375-35.148437 35.148437v24.335938h30.90625v-24.335938c0-19.414062 15.734374-35.148437 35.148437-35.148437zm0 0" fill="#f25759"/><path d="m229.980469 279.628906c-4.269531 0-7.726563-3.460937-7.726563-7.726562v-14.675782c0-4.265624 3.457032-7.726562 7.726563-7.726562 4.265625 0 7.726562 3.460938 7.726562 7.726562v14.675782c0 4.265625-3.460937 7.726562-7.726562 7.726562zm0 0" fill="#3a484a"/><path d="m392.136719 279.628906c-4.265625 0-7.726563-3.460937-7.726563-7.726562v-14.675782c0-4.265624 3.460938-7.726562 7.726563-7.726562 4.269531 0 7.726562 3.460938 7.726562 7.726562v14.675782c0 4.265625-3.457031 7.726562-7.726562 7.726562zm0 0" fill="#3a484a"/><path d="m311.058594 287.460938c-10.03125 0-19.441406-4.191407-25.828125-11.496094-2.808594-3.214844-2.480469-8.09375.730469-10.902344 3.214843-2.808594 8.09375-2.480469 10.902343.730469 3.453125 3.949219 8.625 6.214843 14.195313 6.214843 5.570312 0 10.742187-2.265624 14.195312-6.214843 2.804688-3.210938 7.6875-3.539063 10.902344-.730469 3.210938 2.808594 3.539062 7.6875.730469 10.902344-6.386719 7.304687-15.800781 11.496094-25.828125 11.496094zm0 0" fill="#3a484a"/><g fill="#efedee"><path d="m205.804688 345.746094h-45.136719c-4.265625 0-7.726563-3.457032-7.726563-7.726563 0-4.265625 3.460938-7.726562 7.726563-7.726562h45.136719c4.269531 0 7.726562 3.460937 7.726562 7.726562 0 4.269531-3.457031 7.726563-7.726562 7.726563zm0 0"/><path d="m291.019531 345.746094h-45.136719c-4.265624 0-7.726562-3.457032-7.726562-7.726563 0-4.265625 3.460938-7.726562 7.726562-7.726562h45.136719c4.265625 0 7.726563 3.460937 7.726563 7.726562 0 4.269531-3.460938 7.726563-7.726563 7.726563zm0 0"/><path d="m376.234375 345.746094h-45.136719c-4.265625 0-7.726562-3.457032-7.726562-7.726563 0-4.265625 3.460937-7.726562 7.726562-7.726562h45.136719c4.265625 0 7.726563 3.460937 7.726563 7.726562 0 4.269531-3.460938 7.726563-7.726563 7.726563zm0 0"/><path d="m461.449219 345.746094h-45.136719c-4.269531 0-7.726562-3.457032-7.726562-7.726563 0-4.265625 3.457031-7.726562 7.726562-7.726562h45.136719c4.265625 0 7.726562 3.460937 7.726562 7.726562 0 4.269531-3.460937 7.726563-7.726562 7.726563zm0 0"/></g></svg>