<svg height="461pt" viewBox="-34 0 461 461.25" width="461pt" xmlns="http://www.w3.org/2000/svg"><path d="m227.058594 133.617188c0-14.730469-13.222656-26.714844-29-26.714844-15.773438 0-29 11.984375-29 26.714844v10.007812h58zm0 0"/><path d="m251.058594 157.625h-10v24.128906c0 3.867188-3.132813 7-7 7-3.863282 0-7-3.132812-7-7v-24.128906h-58v24.128906c0 3.867188-3.132813 7-7 7-3.863282 0-7-3.132812-7-7v-24.128906h-12l-11.105469 96.476562c-.484375 4.328126.902344 8.660157 3.808594 11.902344 3.394531 3.671875 8.199219 5.71875 13.199219 5.621094h96.210937c5.007813.066406 9.808594-2.007812 13.191406-5.699219 2.90625-3.183593 4.292969-7.464843 3.808594-11.742187zm0 0"/><path d="m197.058594 51.445312c-78.238282 0-141.890625 63.652344-141.890625 141.890626 0 78.242187 63.652343 141.894531 141.890625 141.894531 78.242187 0 141.894531-63.652344 141.894531-141.894531 0-78.238282-63.652344-141.890626-141.894531-141.890626zm71.75 223.792969c-6.039063 6.675781-14.640625 10.453125-23.644532 10.386719h-96.203124c-9.007813.046875-17.609376-3.75-23.644532-10.433594-5.578125-6.109375-8.230468-14.339844-7.265625-22.558594l11.808594-102.71875c.398437-3.550781 3.382813-6.25 6.957031-6.289062h18.242188v-10.007812c0-22.449219 19.5-40.714844 43-40.714844s43 18.265625 43 40.714844v10.007812h16.242187c3.566407.023438 6.550781 2.707031 6.957031 6.25l11.816407 102.730469c.964843 8.238281-1.683594 16.492187-7.265625 22.632812zm0 0"/><path d="m197.058594 0c-108.589844 0-196.933594 84.320312-196.933594 187.964844 0 33.242187 10.386719 68.316406 30.871094 104.25 16.582031 29.082031 39.757812 58.761718 68.878906 88.210937 29.808594 29.910157 62.34375 56.96875 97.183594 80.824219 34.84375-23.855469 67.378906-50.914062 97.1875-80.824219 29.121094-29.449219 52.300781-59.128906 68.875-88.210937 20.488281-35.9375 30.875-71.011719 30.875-104.253906 0-103.636719-88.347656-187.960938-196.9375-187.960938zm0 349.230469c-85.957032 0-155.890625-69.933594-155.890625-155.894531 0-85.957032 69.933593-155.890626 155.890625-155.890626 85.960937 0 155.894531 69.933594 155.894531 155.890626 0 85.960937-69.933594 155.894531-155.894531 155.894531zm0 0"/></svg>