<svg height="512pt" viewBox="-47 0 511 512" width="512pt" xmlns="http://www.w3.org/2000/svg"><path d="m282.035156 512h-239.964844c-22.957031 0-41.570312-18.613281-41.570312-41.570312v-428.859376c0-22.957031 18.613281-41.570312 41.570312-41.570312h239.964844c22.957032 0 41.570313 18.613281 41.570313 41.570312v428.855469c.003906 22.960938-18.609375 41.574219-41.570313 41.574219zm0 0" fill="#6770e6"/><path d="m282.035156 0h-239.964844c-22.957031 0-41.570312 18.613281-41.570312 41.570312v14c0-22.957031 18.613281-41.570312 41.570312-41.570312h239.964844c22.957032 0 41.570313 18.613281 41.570313 41.570312v-14c.003906-22.957031-18.609375-41.570312-41.570313-41.570312zm0 0" fill="#8f95e6"/><path d="m42.070312 512h239.964844c22.957032 0 41.570313-18.613281 41.570313-41.570312v-14c0 22.957031-18.613281 41.570312-41.570313 41.570312h-239.964844c-22.957031 0-41.570312-18.613281-41.570312-41.570312v14c0 22.957031 18.613281 41.570312 41.570312 41.570312zm0 0" fill="#5861c7"/><path d="m42.070312 492c-11.890624 0-21.570312-9.679688-21.570312-21.570312v-402.859376c0-11.890624 9.679688-21.570312 21.570312-21.570312h239.964844c11.894532 0 21.570313 9.679688 21.570313 21.570312v402.859376c0 11.890624-9.675781 21.570312-21.570313 21.570312zm0 0" fill="#a1f1fc"/><path d="m203.328125 31.828125h-112.546875c-4.972656 0-9-4.03125-9-9s4.027344-9 9-9h112.546875c4.96875 0 9 4.03125 9 9s-4.03125 9-9 9zm0 0" fill="#5861c7"/><path d="m242.328125 22.828125c0 4.96875-4.03125 9-9 9s-9-4.03125-9-9 4.03125-9 9-9 9 4.03125 9 9zm0 0" fill="#5861c7"/><path d="m120.132812 143.058594v251.882812c0 3.300782 2.675782 5.976563 5.976563 5.976563h251.882813c3.304687 0 5.980468-2.675781 5.980468-5.976563v-251.882812c0-3.300782-2.675781-5.980469-5.980468-5.980469h-251.878907c-3.304687 0-5.980469 2.679687-5.980469 5.980469zm0 0" fill="#ffefe4"/><g fill="#5861c7"><path d="m131.324219 147.476562v75.492188h75.492187v-75.492188zm59.601562 59.597657h-43.707031v-43.703125h43.707031zm0 0"/><path d="m177.019531 177.277344v15.894531h-15.894531v-15.894531zm0 0"/><path d="m297.289062 147.476562v75.492188h75.492188v-75.492188zm59.597657 59.597657h-43.703125v-43.703125h43.703125zm0 0"/><path d="m342.980469 177.277344v15.894531h-15.890625v-15.894531zm0 0"/><path d="m131.324219 315.03125v75.492188h75.492187v-75.492188zm59.601562 59.597656h-43.707031v-43.703125h43.707031zm0 0"/><path d="m177.015625 344.832031v15.890625h-15.894531v-15.890625zm0 0"/><path d="m297.289062 315.03125v75.492188h75.492188v-75.492188zm59.597657 59.597656h-43.703125v-43.703125h43.703125zm0 0"/><path d="m342.980469 344.828125v15.894531h-15.894531v-15.894531zm0 0"/><path d="m131.324219 293.304688h24.144531v24.304687h-24.144531zm0 0"/><path d="m276.199219 366.21875h24.144531v24.304688h-24.144531zm0 0"/><path d="m276.199219 341.914062h24.144531v-48.609374h-48.292969v24.304687h24.148438zm0 0"/><path d="m203.761719 366.21875v24.304688h48.289062v-24.304688zm0 0"/><path d="m227.90625 317.609375h24.144531v24.304687h-24.144531zm0 0"/><path d="m324.488281 269v24.304688h24.148438v24.304687h24.144531v-48.609375zm0 0"/><path d="m206.816406 244.695312v-24.304687h-27.199218v24.304687h-48.292969v24.304688h72.4375v24.304688h-24.144531v24.304687h48.289062v-48.609375h-21.089844zm0 0"/><path d="m348.636719 220.390625h24.144531v24.304687h-24.144531zm0 0"/><path d="m252.050781 147.476562h-24.144531v72.914063h24.144531v-48.609375h48.292969v-24.304688zm0 0"/><path d="m227.90625 244.695312v24.304688h72.4375v-72.914062h-24.144531v24.304687h-24.148438v24.304687zm0 0"/><path d="m339.804688 123h58.25v58.25h20v-78.25h-78.25zm0 0"/><path d="m106.050781 181.25v-58.25h58.25v-20h-78.25v78.25zm0 0"/><path d="m164.300781 415h-58.25v-58.25h-20v78.25h78.25zm0 0"/><path d="m398.054688 356.75v58.25h-58.25v20h78.25v-78.25zm0 0"/></g></svg>