<svg id="Layer_1" enable-background="new 0 0 512 512" height="512" viewBox="0 0 512 512" width="512" xmlns="http://www.w3.org/2000/svg"><g><path d="m416 128v280c0 26.51-21.49 48-48 48-24.007 0-43.898-17.624-47.439-40.64-.651-4.231-4.28-7.36-8.561-7.36-4.281 0-7.91 3.129-8.561 7.36-3.541 23.016-23.432 40.64-47.439 40.64s-43.898-17.624-47.439-40.64c-.651-4.231-4.28-7.36-8.561-7.36-4.281 0-7.91 3.129-8.561 7.36-3.541 23.016-23.432 40.64-47.439 40.64-26.51 0-48-21.49-48-48v-280z" fill="#f8e9d2"/><path d="m416 128v280c0 26.51-21.49 48-48 48-7.14 0-13.91-1.56-20-4.35 16.52-7.58 28-24.28 28-43.65v-280z" fill="#e4d5c1"/><path d="m496 104c0 13.26-5.37 25.26-14.06 33.94-8.68 8.69-20.68 14.06-33.94 14.06h-32v-24h-320v24h-32c-26.51 0-48-21.49-48-48 0-13.26 5.37-25.26 14.06-33.94 8.68-8.69 20.68-14.06 33.94-14.06h384c26.51 0 48 21.49 48 48z" fill="#e2e0e0"/><path d="m496 104c0 13.26-5.37 25.26-14.06 33.94-8.68 8.69-20.68 14.06-33.94 14.06h-32v-.67c10.05-1.68 19.04-6.49 25.94-13.39 8.69-8.68 14.06-20.68 14.06-33.94 0-26.51-21.49-48-48-48h40c26.51 0 48 21.49 48 48z" fill="#cecccc"/><path d="m448 40h-384c-17.106 0-33.181 6.66-45.248 18.74-12.093 12.08-18.752 28.153-18.752 45.26 0 35.29 28.71 64 64 64h16v240c0 35.29 28.71 64 64 64 15.379 0 30.246-5.537 41.864-15.59 5.743-4.97 10.513-10.881 14.136-17.419 3.623 6.538 8.393 12.449 14.136 17.419 11.618 10.053 26.485 15.59 41.864 15.59s30.246-5.537 41.864-15.59c5.743-4.97 10.513-10.881 14.136-17.419 3.623 6.538 8.393 12.449 14.136 17.419 11.618 10.053 26.485 15.59 41.864 15.59 35.29 0 64-28.71 64-64v-240h16c17.106 0 33.181-6.66 45.248-18.74 12.093-12.08 18.752-28.153 18.752-45.26 0-35.29-28.71-64-64-64zm22.621 86.632c-6.035 6.041-14.068 9.368-22.621 9.368h-16v-8c0-8.836-7.163-16-16-16s-16 7.164-16 16v280c0 17.645-14.355 32-32 32-15.654 0-29.25-11.639-31.626-27.074-1.866-12.126-12.117-20.926-24.374-20.926s-22.508 8.8-24.374 20.926c-2.376 15.435-15.972 27.074-31.626 27.074s-29.25-11.639-31.626-27.074c-1.866-12.126-12.117-20.926-24.374-20.926s-22.508 8.8-24.374 20.926c-2.376 15.435-15.972 27.074-31.626 27.074-17.645 0-32-14.355-32-32v-280c0-8.836-7.163-16-16-16s-16 7.164-16 16v8h-16c-17.645 0-32-14.355-32-32 0-8.553 3.327-16.586 9.379-22.632 6.035-6.041 14.068-9.368 22.621-9.368h384c17.645 0 32 14.355 32 32 0 8.553-3.327 16.586-9.379 22.632z"/><path d="m312 336h-112c-8.837 0-16-7.164-16-16s7.163-16 16-16h112c8.837 0 16 7.164 16 16s-7.163 16-16 16z"/><path d="m312 256h-112c-8.837 0-16-7.164-16-16s7.163-16 16-16h112c8.837 0 16 7.164 16 16s-7.163 16-16 16z"/></g></svg>