<svg height="512" viewBox="0 0 64 64" width="512" xmlns="http://www.w3.org/2000/svg"><path d="m61 28v8h-6.36a22.65 22.65 0 0 1 -3.8 9.18l-5.66 5.66a22.65 22.65 0 0 1 -9.18 3.8v6.36h-8v-6.36a22.65 22.65 0 0 1 -9.18-3.8l-4.5 4.49-5.65-5.65 4.49-4.5a22.65 22.65 0 0 1 -3.8-9.18h-6.36v-8h6.36a22.65 22.65 0 0 1 3.8-9.18l-4.49-4.5 5.65-5.65 4.5 4.49a22.65 22.65 0 0 1 9.18-3.8v-6.36h8v6.36a22.65 22.65 0 0 1 9.18 3.8l4.5-4.49 5.65 5.65-4.49 4.5a22.65 22.65 0 0 1 3.8 9.18z" fill="#ff9811"/><circle cx="32" cy="32" fill="#ebbf00" r="17"/><circle cx="32" cy="32" fill="#ffcd00" r="15"/><path d="m59.577 53.92-13.064-13.064-6.083-6.083a4.031 4.031 0 0 1 -1.13-3.341 8.992 8.992 0 0 0 -12.808-9.186l5.508 5.511v4.243h-4.243l-5.511-5.511a8.992 8.992 0 0 0 9.186 12.811 4.034 4.034 0 0 1 3.341 1.132l6.083 6.083 13.064 13.062a4 4 0 0 0 5.657-5.657z" fill="#ff3051"/><g fill="#d80027"><path d="m38.364 36.95a1 1 0 1 0 -1.414 1.414l.707.707a1 1 0 0 0 1.414-1.414z"/><path d="m52.506 53.92a1 1 0 0 0 1.414-1.414l-12.02-12.021a1 1 0 0 0 -1.415 1.415z"/><path d="m56.042 57.456a1 1 0 0 0 1.414-1.414l-.707-.708a1 1 0 1 0 -1.415 1.415z"/></g></svg>