<svg id="Layer_3" enable-background="new 0 0 64 64" height="512" viewBox="0 0 64 64" width="512" xmlns="http://www.w3.org/2000/svg"><g><path d="m19.998 47.999h1.001v7h-1.001zm3 0h4.002l-.001 7h-4.001zm6.001.001h26l-.001 7h-25.999zm26.001-2h-2.002v-10.653l2.001.38zm-1.414-28c0 1.199-.973 2.176-2.172 2.176h-.002l-.002-4.353c1.201.001 2.176.976 2.176 2.177zm-21.252-9.947c.759-1.267 2.148-2.053 3.625-2.053 1.568 0 3.023.779 3.894 2.083l.313.471 1.665-1.109-.314-.471c-.901-1.352-2.247-2.302-3.771-2.724 2.264-1.403 5.199-1.631 7.634-.523l2.79 1.271c1.126.513 2.057 1.344 2.693 2.404 1.004 1.674 1.143 3.743.369 5.535l-.068.158-1.271-2.542c-.132-.266-.376-.458-.664-.526-.289-.064-.593-.003-.83.173l-1.6 1.2c-1.375 1.032-3.08 1.6-4.8 1.6s-3.425-.568-4.8-1.6l-1.601-1.2c-.237-.177-.538-.239-.83-.173-.288.068-.532.261-.664.526l-1.356 2.711-.572-1.145c-.65-1.299-.591-2.82.158-4.066zm.251 12.123c-1.199 0-2.174-.975-2.174-2.176 0-1.199.975-2.174 2.176-2.176zm1.414.824v-5.765l1.358-2.717.642.482c1.719 1.29 3.851 2 6.001 2 2.149 0 4.28-.71 5.999-2l.641-.481 1.359 2.717.001 5.764c0 4.411-3.59 8-8.001 8-4.412 0-8-3.589-8-8zm8.001 10c1.044 0 2.051-.163 2.998-.461v1.461c0 1.654-1.346 2.999-2.999 2.999-1.654 0-3-1.345-3-2.999v-1.461c.948.298 1.956.461 3.001.461zm-4.515 3.115c.8 1.698 2.516 2.884 4.515 2.884 1.998 0 3.712-1.186 4.512-2.884l4.487.853v11.032h-17.999l-.001-11.032zm-33.485 11.884c-.553 0-1.001-.448-1.001-1v-13.999c0-.552.448-1 1.001-1h25.998c.552 0 1 .448 1 1l.001 15h-11.001v-8c0-.553-.447-1-1-1h-3.999c-.553 0-1 .447-1 1v8zm11.999-6.999h1.999v16h-1.999zm38.999 21.999h-51.999v-4h51.999zm2 .001v-5l.002-9-.002-10.883c2.323.475 4 2.509 4 4.891l.001 19.992z" style="fill:#fff;"/></g></svg>