<?xml version="1.0"?>
<svg xmlns="http://www.w3.org/2000/svg" xmlns:xlink="http://www.w3.org/1999/xlink" version="1.1" id="Capa_1" x="0px" y="0px" viewBox="0 0 405.6 405.6" style="enable-background:new 0 0 405.6 405.6;" xml:space="preserve" width="512px" height="512px"><g><g>
	<g>
		<path d="M202.6,92c-61.2,0-110.8,49.6-110.8,110.8s49.6,110.8,110.8,110.8S313.4,264,313.4,202.8S263.8,92,202.6,92z M222.5,157.7    c2.8,4.3,4.7,9,5.8,14h13.4c5.5,0,10,4.5,10,10s-4.5,10-10,10h-13.4c-1.8,7.9-5.8,15.1-11.6,20.7c-7.5,7.5-17.5,12-28.1,12.6    l37.8,35.7c4,3.8,4.2,10.1,0.4,14.1c-3.8,4-10.1,4.2-14.1,0.4l-55.9-52.9c-1.9-1.8-3.1-4.4-3.1-7.1c-0.1-5.7,4.4-10.3,10-10.4    h22.4c6.2,0.1,12.2-2.2,16.6-6.6c1.9-1.9,3.4-4.1,4.7-6.4h-43.7c-5.5,0-10-4.5-10-10s4.5-10,10-10h43.6c-3.8-8-11.9-14-21.3-14    h-22.4c-5.5,0-10-4.5-10-10s4.5-10,10-10h78.1c5.5,0,10,4.5,10,10s-4.5,10-10,10v-0.1H222.5z" data-original="#000000" class="active-path" data-old_color="#000000" fill="#FFFFFF"/>
	</g>
</g><g>
	<g>
		<path d="M367.9,177.1c-4.3-0.4-7.8-3.6-8.6-7.8c-4.2-19-11.8-37.1-22.5-53.3c-2.5-3.7-2.2-8.5,0.6-11.9l23.7-28.7l-30.7-31    l-28.6,23.7c-3.4,2.8-8.1,3.1-11.8,0.7c-16.3-10.6-34.4-18.3-53.5-22.6c-4.2-1-7.4-4.6-7.8-8.9L225.1,0h-44.2l-3.6,37.3    c-0.4,4.3-3.5,7.9-7.8,8.9c-19,4.1-37.1,11.8-53.4,22.5c-3.7,2.5-8.5,2.2-11.9-0.6L75.6,44.4L44.5,75.5l23.7,28.6    c2.8,3.4,3.1,8.1,0.7,11.8c-10.7,16.3-18.3,34.4-22.5,53.4c-0.9,4.2-4.4,7.4-8.7,7.8l-37,3.6v44.1l37,3.6c4.3,0.4,7.8,3.6,8.6,7.8    c4.2,19,11.8,37.1,22.5,53.3c2.5,3.7,2.2,8.5-0.6,11.9l-23.7,28.7l31.1,31.1l28.6-23.7c3.4-2.8,8.1-3.1,11.8-0.7    c16.3,10.6,34.4,18.3,53.5,22.6c4.2,1,7.4,4.6,7.8,8.9l3.6,37.3h44.2l3.6-37.3c0.4-4.3,3.5-7.9,7.8-8.9    c19-4.1,37.1-11.8,53.4-22.5c3.7-2.5,8.5-2.2,11.9,0.6l28.6,23.7l31.1-31.1l-23.8-28.6c-2.8-3.3-3.1-8.1-0.7-11.8    c10.7-16.3,18.3-34.4,22.5-53.4c0.9-4.2,4.4-7.4,8.7-7.8l36.4-3.6h0.3v-44.2L367.9,177.1z M202.6,333.6    c-72.1,0-130.8-58.7-130.8-130.8C71.8,130.7,130.5,72,202.6,72s130.8,58.7,130.8,130.8S274.7,333.6,202.6,333.6z" data-original="#000000" class="active-path" data-old_color="#000000" fill="#FFFFFF"/>
	</g>
</g></g> </svg>
