<svg id="Capa_1" enable-background="new 0 0 512 512" height="512" viewBox="0 0 512 512" width="512" xmlns="http://www.w3.org/2000/svg" xmlns:xlink="http://www.w3.org/1999/xlink"><linearGradient id="SVGID_1_" gradientUnits="userSpaceOnUse" x1="256" x2="256" y1="480.963" y2="30.963"><stop offset="0" stop-color="#00b59c"/><stop offset="1" stop-color="#9cffac"/></linearGradient><linearGradient id="SVGID_2_" gradientUnits="userSpaceOnUse" x1="256" x2="256" y1="481.037" y2="53.163"><stop offset="0" stop-color="#c3ffe8"/><stop offset=".9973" stop-color="#f0fff4"/></linearGradient><g><path d="m503.599 62.463c-2.399-1.199-64.898-31.5-127.599-31.5-41.1 0-81.301 12.9-105 22.2l-15 101.396-15-101.396c-23.699-9.3-63.9-22.2-105-22.2-62.701 0-125.2 30.3-127.599 31.5-5.101 2.7-8.401 7.8-8.401 13.5v390c0 5.099 2.701 9.899 7.2 12.599 4.2 2.999 9.901 2.999 14.399.901.601-.3 58.902-28.5 114.401-28.5 42.9 0 87.001 16.8 105 24.899l15-109.953 15 109.953c17.999-8.099 62.1-24.899 105-24.899 55.499 0 113.8 28.2 114.401 28.5 4.983 2.135 9.558 2.124 14.399-.901 4.499-2.701 7.2-7.5 7.2-12.599v-390c0-5.7-3.3-10.8-8.401-13.5z" fill="url(#SVGID_1_)"/><g><g><path d="m241 53.163v422.699c5.1 2.101 8.401 3.602 8.401 3.602 4.199 2.098 9 2.098 13.198 0 0 0 3.301-1.501 8.401-3.602v-422.699c-6.301 2.4-11.4 4.799-15 6.301-3.6-1.502-8.699-3.901-15-6.301zm-41.265 286.604c-45.41-11.689-82.061-11.689-127.471 0-8.027 2.065-12.861 10.254-10.796 18.267 2.08 8.042 10.356 12.92 18.267 10.796 40.547-10.43 71.982-10.43 112.529 0 7.86 2.034 16.167-2.644 18.267-10.796 2.066-8.013-2.768-16.202-10.796-18.267zm0-60c-45.41-11.689-82.061-11.689-127.471 0-8.027 2.065-12.861 10.254-10.796 18.267 2.08 8.027 10.356 12.876 18.267 10.796 40.547-10.43 71.982-10.43 112.529 0 7.86 2.034 16.167-2.644 18.267-10.796 2.066-8.013-2.768-16.202-10.796-18.267zm240 60c-45.41-11.689-82.061-11.689-127.471 0-8.027 2.065-12.861 10.254-10.796 18.267 2.08 8.042 10.43 12.92 18.267 10.796 40.547-10.43 71.982-10.43 112.529 0 7.86 2.034 16.167-2.644 18.267-10.796 2.066-8.013-2.768-16.202-10.796-18.267zm-120-30.938c40.547-10.43 71.982-10.43 112.529 0 7.86 2.034 16.167-2.644 18.267-10.796 2.065-8.013-2.769-16.201-10.796-18.267-45.41-11.689-82.061-11.689-127.471 0-8.027 2.065-12.861 10.254-10.796 18.267 2.081 8.028 10.43 12.876 18.267 10.796zm56.265-67.866c33.091 0 60-26.909 60-60s-26.909-60-60-60-60 26.909-60 60 26.909 60 60 60zm-285 0h90c8.291 0 15-6.709 15-15v-90c0-8.291-6.709-15-15-15h-90c-8.291 0-15 6.709-15 15v90c0 8.291 6.709 15 15 15z" fill="url(#SVGID_2_)"/></g></g></g></svg>