<svg id="Capa_1" enable-background="new 0 0 512 512" height="512" viewBox="0 0 512 512" width="512" xmlns="http://www.w3.org/2000/svg"><g><g><ellipse cx="465" cy="270" fill="#121416" rx="12" ry="10"/><path d="m426 256 34-5 6 23-32 9z" fill="#373e48"/><path d="m466 274 16-8-8-186-17 6 3 165z" fill="#6d7784"/><ellipse cx="463" cy="262" fill="#121416" rx="7" ry="6"/></g><g><ellipse cx="46" cy="279" fill="#121416" rx="12" ry="10"/><path d="m93 265-46-9-6 24 46 16z" fill="#373e48"/><path d="m47 256-6 24-14-12 10-176 16 6z" fill="#6d7784"/><ellipse cx="45" cy="268" fill="#121416" rx="7" ry="6"/></g><g><path d="m348 0 16 4 9 226h-24z" fill="#373e48"/><path d="m354 229 1-20h11l4 20z" fill="#121416"/></g><g><path d="m146 236-1-231 16-5 12 236z" fill="#373e48"/><path d="m152 231 1-20h11l4 20z" fill="#121416"/></g><g><path d="m79 227-26 285 432-12-56-276z" fill="#dfe2e8"/><path d="m119.448 226.653 6.552 18.347 264-3 12.256-17.771z" fill="#6d7784"/><g><path d="m109 441-8 43 336-11-13-37z" fill="#373e48"/><g><path d="m198 451v18h12l-4-18z" fill="#9fe368"/><path d="m130 455 34-1 1 15-36 1z" fill="#9fe368"/><g fill="#121416"><path d="m238 450 1 18h11l-3-18z"/><path d="m279 449-1 18h10l-1-18z"/><path d="m316 448v18h10l-2-18z"/><path d="m354 447v18h10l-3-18z"/><path d="m392 446v17h10l-3-18z"/></g></g></g><g><path d="m148 297-12 112 244-8-18-114z" fill="#373e48"/><g fill="#f5db48"><path d="m249 369 20-2-2-6-18 2z"/><path d="m249 357 16-1-2-6-14 1z"/><path d="m249 344h13l-3-6h-10z"/></g><g fill="#9fe368"><path d="m179 372c-4.565-4.982-7-11.71-7-19 0-15.464 12.536-28 28-28s28 12.536 28 28c0 5.636-2.135 10.607-5 15l14-1c1.848-4.373 3-8.999 3-14 0-20.987-17.909-38-40-38s-40 17.013-40 38c0 7.344 2.202 14.188 6 20z"/><path d="m188 343 16-6-2 17 12-1-13 12-15-8 10-2z"/></g><g fill="#e4883c"><path d="m337 370c4.565-4.982 7-11.71 7-19 0-15.464-12.536-28-28-28s-28 12.536-28 28c0 5.636 2.135 10.607 5 15l-14-1c-1.848-4.373-3-8.999-3-14 0-20.987 17.909-38 40-38s40 17.013 40 38c0 7.344-2.202 14.188-6 20z"/><path d="m328 357-16 6 2-17-12 1 13-12 15 8-10 2z"/></g><path d="m173 384 56-3 2 9-60 3z" fill="#9fe368"/><path d="m289 377-2 10 56-1-4-9z" fill="#e4883c"/></g></g></g></svg>