<svg id="Layer_1" enable-background="new 0 0 512 512" height="512" viewBox="0 0 512 512" width="512" xmlns="http://www.w3.org/2000/svg"><g><g><g id="XMLID_1_"><g id="XMLID_2_"><g id="XMLID_3_"><g id="XMLID_4_"><g id="XMLID_5_"><g id="XMLID_6_"><g id="XMLID_7_"><g id="XMLID_8_"><g id="XMLID_9_"><g id="XMLID_10_"><g id="XMLID_11_"><g id="XMLID_12_"><g id="XMLID_13_"><g id="XMLID_14_"><circle id="XMLID_15_" cx="256" cy="256" fill="#364dd6" r="256"/></g></g></g></g></g></g></g></g></g></g></g></g></g></g></g><path d="m498.646 174.191-103.858-103.858-29.288 88.667-90.075-88.667-26.425 86.667-92.939-86.667-60.091 145.71 32.03 31.957-10.788 193.667 56.979 56.979c25.689 8.658 53.2 13.354 81.809 13.354 141.385 0 256-114.615 256-256 0-28.609-4.696-56.12-13.354-81.809z" fill="#082faf"/><g><g><g><path d="m117.212 70.333h38.849v371.333h-38.849z" fill="#f2f2f2"/></g><g><g><path d="m136.64 70.33h19.42v371.34h-19.42z" fill="#d8d8d8"/></g></g><path d="m95.97 119.377h81.333v96.667h-81.333z" fill="#ffa836"/><path d="m136.64 119.38h40.66v96.66h-40.66z" fill="#fc840d"/></g><g><g><path d="m236.575 70.333h38.849v371.333h-38.849z" fill="#f2f2f2"/></g><g><g><path d="m256 70.33h19.42v371.34h-19.42z" fill="#d8d8d8"/></g></g><path d="m215.333 297.562h81.333v96.667h-81.333z" fill="#40dbff"/><path d="m256 297.56h40.67v96.67h-40.67z" fill="#1eb4f7"/></g><g><g><path d="m355.939 70.333h38.849v371.333h-38.849z" fill="#f2f2f2"/></g><g><g><path d="m375.36 70.33h19.43v371.34h-19.43z" fill="#d8d8d8"/></g></g><path d="m334.697 167.709h81.333v96.667h-81.333z" fill="#ffec7b"/><path d="m375.36 167.71h40.67v96.67h-40.67z" fill="#fcda4f"/></g></g></g></svg>