<svg id="Capa_1" enable-background="new 0 0 512 512" height="512" viewBox="0 0 512 512" width="512" xmlns="http://www.w3.org/2000/svg"><g><path d="m188.5 15h44.999v-15h-59.999v90h15z"/><path d="m323.5 165h15v-165h-90.001v15h75.001z"/><path d="m293.5 180v59.999h15v-44.999h128.5v287h15v-302h-71.75v-77.501h-15v77.501z"/><path d="m293.5 254.999h15v227.001h-15z"/><path d="m218.5 209.998h-15v15h-56.75v15h56.75v44.999h-128.5v-44.999h56.75v-15h-56.75v-45h128.5v15h15v-89.998h-88.5v-25h15v-15h-85v15h15v25h-15v392h-45v-105.001h-15v120.001h131.75v-15h-56.75v-77.004h128.5v77.004h-56.75v15h218.5v-15h-146.75zm-15-44.999h-128.5v-44.999h128.5zm-113.5-84.999h25v25h-25zm-15 324.996v-44.999h56.75v-15h-56.75v-45h128.5v45h-56.75v15h56.75v44.999z"/><path d="m15 332h30v-15h-45v59.999h15z"/><path d="m497 497h-116.75v15h131.75v-60h-15z"/><path d="m467 287v15h30v135h15v-150z"/><path d="m263.499 180h15v22.5h-15z"/><path d="m263.499 142.5h15v22.5h-15z"/><path d="m293.499 67.5h15v22.5h-15z"/><path d="m293.499 105h15v22.5h-15z"/><path d="m293.499 142.5h15v22.5h-15z"/><path d="m263.499 404.998h15v22.5h-15z"/><path d="m263.499 217.5h15v22.5h-15z"/><path d="m263.499 254.999h15v22.5h-15z"/><path d="m263.499 367.499h15v22.5h-15z"/><path d="m263.499 329.999h15v22.5h-15z"/><path d="m323.5 239.999h71.75v15h-71.75z"/><path d="m263.499 442.498h15v22.5h-15z"/><path d="m410.25 419.996h15v15h-15z"/><path d="m323.5 329.998h71.75v15h-71.75z"/><path d="m467 347h15v15h-15z"/><path d="m323.5 269.998h15v15h-15z"/><path d="m323.5 419.996h71.75v15h-71.75z"/><path d="m467 437h15v15h-15z"/><path d="m323.5 359.997h15v15h-15z"/><path d="m410.25 239.999h15v15h-15z"/><path d="m467 407h15v15h-15z"/><path d="m263.499 67.5h15v22.5h-15z"/><path d="m410.25 329.998h15v15h-15z"/><path d="m353.5 269.998h71.75v15h-71.75z"/><path d="m353.5 359.997h71.75v15h-71.75z"/><path d="m203.5 30h15v22.5h-15z"/><path d="m233.499 67.5h15v22.5h-15z"/><path d="m233.499 105h15v22.5h-15z"/><path d="m233.499 142.5h15v22.5h-15z"/><path d="m203.5 67.5h15v22.5h-15z"/><path d="m30 377h15v15h-15z"/><path d="m90 194.999h15v15h-15z"/><path d="m90 314.997h15v15h-15z"/><path d="m30 437h15v15h-15z"/><path d="m233.499 179.999h15v22.5h-15z"/><path d="m233.499 292.499h15v22.5h-15z"/><path d="m233.499 404.998h15v22.5h-15z"/><path d="m233.499 329.999h15v22.5h-15z"/><path d="m263.499 30h15v22.5h-15z"/><path d="m233.499 254.999h15v22.5h-15z"/><path d="m323.5 449.996h15v15h-15z"/><path d="m323.5 299.998h71.75v15h-71.75z"/><path d="m173.5 374.996h15v15h-15z"/><path d="m323.5 209.999h71.75v15h-71.75z"/><path d="m101.75 134.999h45v15h-45z"/><path d="m173.5 254.998h15v15h-15z"/><path d="m467 377h15v15h-15z"/><path d="m161.75 134.999h15v15h-15z"/><path d="m131.75 464.995h45v15h-45z"/><path d="m467 317h15v15h-15z"/><path d="m467 467h15v15h-15z"/><path d="m101.75 464.995h15v15h-15z"/><path d="m30 407h15v15h-15z"/><path d="m263.499 292.499h15v22.5h-15z"/><path d="m30 347h15v15h-15z"/><path d="m410.25 209.999h15v15h-15z"/><path d="m293.499 30h15v22.5h-15z"/><path d="m263.499 105h15v22.5h-15z"/><path d="m410.25 299.998h15v15h-15z"/><path d="m233.499 30h15v22.5h-15z"/><path d="m233.499 367.499h15v22.5h-15z"/><path d="m353.5 449.996h71.75v15h-71.75z"/><path d="m233.499 442.498h15v22.5h-15z"/><path d="m323.5 389.997h71.75v15h-71.75z"/><path d="m233.499 217.5h15v22.5h-15z"/><path d="m410.25 389.997h15v15h-15z"/><path d="m30 467h15v15h-15z"/></g></svg>