<svg id="Layer_1" enable-background="new 0 0 256 256" height="512" viewBox="0 0 256 256" width="512" xmlns="http://www.w3.org/2000/svg"><g><g><circle cx="197.094" cy="197.094" fill="#526faa" r="54.906"/></g><g><circle cx="197.094" cy="58.906" fill="#8852a8" r="54.906"/></g><g><circle cx="58.906" cy="197.094" fill="#8852a8" r="54.906"/></g><g><path d="m75.737 223.709h-32.45c-5.35 0-9.688-4.337-9.688-9.688v-32.45c0-5.35 4.337-9.688 9.688-9.688h32.45c5.35 0 9.688 4.337 9.688 9.688v32.45c0 5.351-4.338 9.688-9.688 9.688z" fill="#f4efed"/></g><g><circle cx="58.906" cy="58.906" fill="#526faa" r="54.906"/></g><g><path d="m65.154 38.737h6.067v-9.823h-6.067c-7.222 0-13.098 5.876-13.098 13.098v4.718h-9.34v9.823h9.34v30.408h9.823v-30.408h9.341v-9.823h-9.34v-4.718c0-1.806 1.468-3.275 3.274-3.275z" fill="#f4efed"/></g><g><path d="m61.88 88.961h-9.823c-1.104 0-2-.896-2-2v-28.408h-7.341c-1.104 0-2-.896-2-2v-9.823c0-1.104.896-2 2-2h7.341v-2.718c0-8.325 6.772-15.099 15.098-15.099h6.066c1.104 0 2 .896 2 2v9.823c0 1.104-.896 2-2 2h-6.066c-.703 0-1.274.572-1.274 1.275v2.718h7.341c1.104 0 2 .896 2 2v9.823c0 1.104-.896 2-2 2h-7.342v28.408c0 1.105-.896 2.001-2 2.001zm-7.823-4h5.823v-28.408c0-1.104.896-2 2-2h7.341v-5.823h-7.341c-1.104 0-2-.896-2-2v-4.718c0-2.909 2.366-5.275 5.274-5.275h4.066v-5.823h-4.066c-6.119 0-11.098 4.979-11.098 11.099v4.718c0 1.104-.896 2-2 2h-7.341v5.823h7.341c1.104 0 2 .896 2 2v28.407z" fill="#690589"/></g><g><path d="m197.094 4c-1.634 0-3.247.085-4.844.225 28.053 2.454 50.062 25.991 50.062 54.681s-22.009 52.227-50.062 54.681c1.597.14 3.21.225 4.844.225 30.324 0 54.906-24.582 54.906-54.906 0-30.324-24.582-54.906-54.906-54.906z" fill="#6a348a"/></g><g><path d="m197.094 142.188c-1.634 0-3.247.085-4.844.225 28.053 2.454 50.062 25.991 50.062 54.681s-22.009 52.227-50.062 54.681c1.597.14 3.21.225 4.844.225 30.324 0 54.906-24.582 54.906-54.906 0-30.323-24.582-54.906-54.906-54.906z" fill="#34518c"/></g><g><path d="m58.906 252c1.634 0 3.247-.085 4.844-.225-28.053-2.454-50.062-25.991-50.062-54.681s22.009-52.227 50.062-54.681c-1.597-.139-3.21-.225-4.844-.225-30.324 0-54.906 24.582-54.906 54.906s24.582 54.906 54.906 54.906z" fill="#a670c6"/></g><g><path d="m58.906 113.812c1.634 0 3.247-.085 4.844-.225-28.053-2.454-50.062-25.991-50.062-54.681s22.009-52.227 50.062-54.681c-1.598-.14-3.211-.225-4.844-.225-30.324 0-54.906 24.582-54.906 54.906 0 30.323 24.582 54.906 54.906 54.906z" fill="#708dc8"/></g><g><path d="m169.586 75.757s11.278 1.344 15.515-4.761c-6.355-1.246-9.346-7.601-9.346-7.601h3.24s-5.981-3.614-7.85-11.09c4.361 1.121 4.361 1.121 4.361 1.121s-5.234-5.233-1.371-14.704c4.611 7.352 15.202 11.464 21.682 11.713-1.869-10.342 11.339-17.321 19.937-8.847 5.483-1.371 7.103-3.24 7.103-3.24l-1.62 5.981 3.364.498s-1.994 3.24-5.607 5.234c-1.619 12.586-10.974 40.582-49.408 25.696z" fill="#f4efed"/></g><g><path d="m189.432 82.013c-6.14 0-13.011-1.464-20.568-4.391-.939-.364-1.462-1.371-1.218-2.349.243-.977 1.183-1.609 2.175-1.503 2.278.265 7.925.273 11.523-1.962-4.944-2.459-7.281-7.316-7.397-7.562-.292-.619-.246-1.345.121-1.923.07-.111.15-.213.238-.306-1.914-2.036-4.068-5.095-5.102-9.228-.171-.685.031-1.407.531-1.904.464-.461 1.124-.668 1.76-.55-.975-2.866-1.384-7.043.789-12.369.283-.694.932-1.172 1.679-1.236.765-.066 1.469.294 1.867.93 3.841 6.124 12.123 9.624 17.815 10.542.106-4.496 2.627-8.568 6.858-10.802 5.148-2.721 11.229-1.925 15.792 1.972 3.81-1.101 5.076-2.363 5.09-2.377.609-.704 1.606-.872 2.432-.434.823.438 1.214 1.409.971 2.31l-1.032 3.81 1.139.169c.665.099 1.235.524 1.52 1.134s.243 1.32-.109 1.893c-.085.14-1.991 3.195-5.463 5.412-.964 6.411-4.327 19.858-15.858 26.718-4.492 2.67-9.689 4.006-15.553 4.006zm-9.639-5.167c9.281 2.11 17.04 1.354 23.146-2.277 10.938-6.508 13.536-20.599 14.072-24.762.081-.633.459-1.188 1.018-1.496 1.083-.598 2.005-1.332 2.745-2.035-.495-.118-.929-.421-1.209-.85-.313-.479-.407-1.067-.258-1.618l.365-1.348c-.959.369-2.094.733-3.432 1.068-.681.169-1.393-.027-1.89-.516-4.091-4.032-8.87-3.716-11.979-2.075-2.753 1.453-5.403 4.618-4.586 9.143.108.597-.061 1.209-.458 1.667-.397.457-.967.707-1.587.687-5.632-.216-14.985-3.282-20.799-9.438-1.049 5.771 1.846 8.877 1.992 9.029.619.645.743 1.63.292 2.401-.45.771-1.35 1.157-2.218.937l-.66-.17c2.183 4.297 5.646 6.467 5.688 6.493.763.469 1.125 1.389.881 2.25-.197.698-.749 1.223-1.428 1.396 1.321 1.512 3.321 3.176 5.997 3.7.663.13 1.215.586 1.469 1.211.254.626.175 1.338-.21 1.893-1.706 2.459-4.291 3.889-6.951 4.71z" fill="#690589"/></g><g><path d="m58.906 254c-31.378 0-56.906-25.528-56.906-56.906s25.528-56.905 56.906-56.905 56.905 25.527 56.905 56.905-25.527 56.906-56.905 56.906zm0-109.812c-29.173 0-52.906 23.734-52.906 52.906 0 29.173 23.733 52.906 52.906 52.906 29.172 0 52.905-23.733 52.905-52.906.001-29.172-23.733-52.906-52.905-52.906z" fill="#690589"/></g><g><path d="m58.906 115.812c-31.378 0-56.906-25.528-56.906-56.906s25.528-56.906 56.906-56.906 56.905 25.528 56.905 56.906-25.527 56.906-56.905 56.906zm0-109.812c-29.173 0-52.906 23.733-52.906 52.906 0 29.172 23.733 52.905 52.906 52.905 29.172 0 52.905-23.733 52.905-52.905.001-29.173-23.733-52.906-52.905-52.906z" fill="#690589"/></g><g><path d="m12.547 61.995c-1.104 0-2-.896-2-2 0-4.139.347-8.289 1.031-12.334.184-1.088 1.212-1.825 2.306-1.638 1.089.184 1.822 1.216 1.638 2.306-.646 3.824-.975 7.75-.975 11.666 0 1.105-.896 2-2 2z" fill="#690589"/></g><g><path d="m197.094 115.812c-31.378 0-56.905-25.527-56.905-56.905s25.527-56.907 56.905-56.907 56.906 25.528 56.906 56.906-25.528 56.906-56.906 56.906zm0-109.812c-29.172 0-52.905 23.733-52.905 52.906 0 29.172 23.733 52.905 52.905 52.905 29.173 0 52.906-23.733 52.906-52.905 0-29.173-23.733-52.906-52.906-52.906z" fill="#690589"/></g><g><path d="m197.094 254c-31.378 0-56.905-25.528-56.905-56.906s25.527-56.905 56.905-56.905 56.906 25.527 56.906 56.905-25.528 56.906-56.906 56.906zm0-109.812c-29.172 0-52.905 23.733-52.905 52.905 0 29.173 23.733 52.906 52.905 52.906 29.173.001 52.906-23.732 52.906-52.905 0-29.172-23.733-52.906-52.906-52.906z" fill="#690589"/></g><g><path d="m204.336 214.776c-2.652 0-4.803-2.15-4.803-4.803v-16.133h15.015v-11.625h-15.015v-14.428h-11.625v7.422c0 3.869-3.137 7.006-7.006 7.006h-2.435v11.625h9.441v19.292c0 7.328 5.94 13.268 13.268 13.268h4.764c3.355 0 6.678-.658 9.78-1.938v-11.625c-3.102 1.279-6.425 1.938-9.78 1.938h-1.604z" fill="#f4efed"/></g><g><path d="m205.94 228.401h-4.764c-8.419 0-15.269-6.85-15.269-15.269v-17.292h-7.44c-1.104 0-2-.896-2-2v-11.625c0-1.104.896-2 2-2h2.435c2.76 0 5.006-2.245 5.006-5.005v-7.423c0-1.104.896-2 2-2h11.625c1.104 0 2 .896 2 2v12.428h13.015c1.104 0 2 .896 2 2v11.625c0 1.104-.896 2-2 2h-13.015v14.133c0 1.546 1.257 2.804 2.803 2.804h1.604c3.107 0 6.142-.602 9.019-1.786.616-.256 1.319-.185 1.874.187s.888.995.888 1.662v11.625c0 .811-.489 1.54-1.238 1.849-3.363 1.384-6.91 2.087-10.543 2.087zm-25.472-36.561h7.44c1.104 0 2 .896 2 2v19.293c0 6.214 5.055 11.269 11.269 11.269h4.764c2.665 0 5.276-.442 7.78-1.315v-7.425c-2.521.741-5.128 1.115-7.78 1.115h-1.604c-3.751 0-6.803-3.052-6.803-6.804v-16.133c0-1.104.896-2 2-2h13.015v-7.625h-13.015c-1.104 0-2-.896-2-2v-12.428h-7.625v5.423c0 4.965-4.04 9.005-9.006 9.005h-.435z" fill="#690589"/></g><g><path d="m75.737 225.709h-32.45c-6.444 0-11.688-5.243-11.688-11.688v-32.45c0-6.444 5.243-11.688 11.688-11.688h32.45c6.444 0 11.688 5.243 11.688 11.688v32.45c0 6.445-5.243 11.688-11.688 11.688zm-32.45-51.825c-4.239 0-7.688 3.448-7.688 7.688v32.45c0 4.239 3.448 7.688 7.688 7.688h32.45c4.239 0 7.688-3.448 7.688-7.688v-32.45c0-4.239-3.448-7.688-7.688-7.688z" fill="#690589"/></g><g><path d="m59.512 211.639c-7.633 0-13.842-6.21-13.842-13.843s6.209-13.842 13.842-13.842 13.843 6.209 13.843 13.842-6.21 13.843-13.843 13.843zm0-23.685c-5.427 0-9.842 4.415-9.842 9.842 0 5.428 4.415 9.843 9.842 9.843 5.428 0 9.843-4.415 9.843-9.843-.001-5.427-4.416-9.842-9.843-9.842z" fill="#690589"/></g><g><path d="m74.634 179.395c1.811 0 3.279 1.468 3.279 3.279 0 1.811-1.468 3.279-3.279 3.279-1.811 0-3.279-1.468-3.279-3.279-.001-1.811 1.467-3.279 3.279-3.279z" fill="#690589"/></g><g><path d="m175.99 136.038v-16.076h-8.896c-1.034-5.053-3.028-9.753-5.775-13.914l6.299-6.299-11.368-11.367-6.299 6.299c-4.16-2.747-8.861-4.742-13.914-5.775v-8.896h-16.076v8.896c-5.053 1.033-9.753 3.028-13.914 5.775l-6.299-6.299-11.366 11.367 6.299 6.299c-2.747 4.16-4.742 8.861-5.775 13.914h-8.896v16.076h8.896c1.033 5.053 3.028 9.753 5.775 13.914l-6.299 6.299 11.368 11.368 6.299-6.299c4.161 2.746 8.861 4.741 13.914 5.775v8.896h16.076v-8.896c5.053-1.033 9.753-3.029 13.914-5.775l6.298 6.299 11.368-11.368-6.299-6.299c2.747-4.16 4.741-8.861 5.775-13.914zm-47.99 16.02c-13.287 0-24.058-10.771-24.058-24.058s10.772-24.058 24.058-24.058c13.287 0 24.059 10.771 24.059 24.058s-10.772 24.058-24.059 24.058z" fill="#fcc24c"/></g><g><path d="m136.038 177.99h-16.076c-1.104 0-2-.896-2-2v-7.296c-4.099-1.008-7.998-2.627-11.631-4.829l-5.168 5.167c-.781.781-2.047.781-2.828 0l-11.367-11.367c-.781-.781-.781-2.047 0-2.828l5.167-5.168c-2.202-3.631-3.821-7.531-4.829-11.631h-7.296c-1.104 0-2-.896-2-2v-16.076c0-1.104.896-2 2-2h7.296c1.008-4.1 2.627-8 4.829-11.631l-5.167-5.168c-.781-.781-.781-2.047 0-2.828l11.367-11.367c.781-.781 2.047-.781 2.828 0l5.168 5.167c3.633-2.202 7.533-3.821 11.631-4.828v-7.297c0-1.104.896-2 2-2h16.076c1.104 0 2 .896 2 2v7.297c4.098 1.007 7.998 2.626 11.631 4.828l5.167-5.167c.75-.75 2.078-.75 2.828 0l11.368 11.367c.375.375.586.884.586 1.414s-.211 1.039-.586 1.414l-5.167 5.168c2.202 3.633 3.821 7.533 4.828 11.631h7.297c1.104 0 2 .896 2 2v16.076c0 1.104-.896 2-2 2h-7.297c-1.007 4.098-2.626 7.998-4.828 11.631l5.167 5.168c.375.375.586.884.586 1.414s-.211 1.039-.586 1.414l-11.368 11.367c-.375.375-.884.586-1.414.586-.53 0-1.039-.211-1.414-.586l-5.167-5.167c-3.633 2.202-7.532 3.821-11.631 4.829v7.296c0 1.105-.895 2-2 2zm-14.076-4h12.076v-6.896c0-.95.668-1.769 1.599-1.959 4.715-.966 9.161-2.811 13.214-5.485.793-.524 1.846-.418 2.516.255l4.884 4.885 8.54-8.539-4.885-4.885c-.672-.672-.778-1.723-.255-2.516 2.675-4.054 4.52-8.499 5.484-13.213.189-.931 1.009-1.6 1.959-1.6h6.896v-12.076h-6.896c-.95 0-1.77-.669-1.959-1.6-.965-4.714-2.81-9.159-5.484-13.213-.523-.793-.417-1.844.255-2.516l4.885-4.885-8.54-8.539-4.884 4.885c-.67.673-1.722.78-2.516.255-4.054-2.675-8.499-4.52-13.213-5.484-.931-.189-1.6-1.009-1.6-1.959v-6.895h-12.076v6.896c0 .95-.669 1.77-1.6 1.959-4.714.965-9.159 2.81-13.213 5.484-.795.524-1.844.417-2.516-.255l-4.885-4.885-8.539 8.539 4.885 4.885c.672.672.778 1.724.255 2.516-2.674 4.051-4.52 8.497-5.485 13.214-.19.931-1.009 1.599-1.959 1.599h-6.895v12.076h6.896c.95 0 1.769.668 1.959 1.599.966 4.717 2.812 9.163 5.485 13.214.523.792.417 1.844-.255 2.516l-4.885 4.885 8.539 8.539 4.885-4.885c.673-.672 1.723-.778 2.516-.255 4.053 2.675 8.499 4.52 13.214 5.485.931.19 1.599 1.009 1.599 1.959v6.895zm6.038-19.931c-14.369 0-26.059-11.689-26.059-26.059s11.689-26.059 26.059-26.059 26.059 11.689 26.059 26.059-11.69 26.059-26.059 26.059zm0-48.118c-12.163 0-22.059 9.896-22.059 22.059s9.896 22.059 22.059 22.059 22.059-9.896 22.059-22.059-9.896-22.059-22.059-22.059z" fill="#690589"/></g><g><path d="m160.481 101.111-3.829 3.829c-.629.629-.77 1.612-.307 2.373 2.076 3.414 3.657 7.162 4.635 11.147.215.874.978 1.503 1.878 1.503h4.235c-1.034-5.053-3.028-9.753-5.775-13.914l6.299-6.299-11.367-11.368-2.888 2.888 7.119 7.119c.752.751.752 1.97 0 2.722z" fill="#dea42e"/></g><g><path d="m170.215 119.962h5.775v16.076h-5.775z" fill="#dea42e"/></g><g><path d="m167.094 136.038h-4.235c-.9 0-1.663.628-1.878 1.503-.979 3.985-2.56 7.733-4.635 11.147-.462.76-.322 1.743.307 2.373l3.829 3.829c.752.752.752 1.971 0 2.723l-7.119 7.119 2.888 2.888 11.368-11.368-6.299-6.299c2.746-4.162 4.741-8.862 5.774-13.915z" fill="#dea42e"/></g><g><path d="m95.518 101.111 3.829 3.829c.63.629.77 1.612.308 2.373-2.076 3.414-3.657 7.162-4.636 11.147-.215.874-.978 1.503-1.878 1.503h-4.235c1.034-5.053 3.028-9.753 5.775-13.914l-6.299-6.299 11.368-11.368 2.888 2.888-7.119 7.119c-.752.751-.752 1.97-.001 2.722z" fill="#fce06a"/></g><g><path d="m80.01 119.962h5.775v16.076h-5.775z" fill="#fce06a"/></g><g><path d="m88.906 136.038h4.235c.9 0 1.663.628 1.878 1.503.979 3.985 2.56 7.733 4.636 11.147.462.76.322 1.743-.308 2.373l-3.829 3.829c-.752.752-.752 1.971 0 2.723l7.119 7.119-2.888 2.888-11.368-11.368 6.299-6.299c-2.746-4.162-4.741-8.862-5.774-13.915z" fill="#fce06a"/></g><g><path d="m136.038 177.99h-16.076c-1.104 0-2-.896-2-2v-7.296c-4.099-1.008-7.998-2.627-11.631-4.829l-5.168 5.167c-.781.781-2.047.781-2.828 0l-11.367-11.367c-.781-.781-.781-2.047 0-2.828l5.167-5.168c-2.202-3.631-3.821-7.531-4.829-11.631h-7.296c-1.104 0-2-.896-2-2v-16.076c0-1.104.896-2 2-2h7.296c1.008-4.1 2.627-8 4.829-11.631l-5.167-5.168c-.781-.781-.781-2.047 0-2.828l11.367-11.367c.781-.781 2.047-.781 2.828 0l5.168 5.167c3.633-2.202 7.533-3.821 11.631-4.828v-7.297c0-1.104.896-2 2-2h16.076c1.104 0 2 .896 2 2v7.297c4.098 1.007 7.998 2.626 11.631 4.828l5.167-5.167c.75-.75 2.078-.75 2.828 0l11.368 11.367c.375.375.586.884.586 1.414s-.211 1.039-.586 1.414l-5.167 5.168c2.202 3.633 3.821 7.533 4.828 11.631h7.297c1.104 0 2 .896 2 2v16.076c0 1.104-.896 2-2 2h-7.297c-1.007 4.098-2.626 7.998-4.828 11.631l5.167 5.168c.375.375.586.884.586 1.414s-.211 1.039-.586 1.414l-11.368 11.367c-.375.375-.884.586-1.414.586-.53 0-1.039-.211-1.414-.586l-5.167-5.167c-3.633 2.202-7.532 3.821-11.631 4.829v7.296c0 1.105-.895 2-2 2zm-14.076-4h12.076v-6.896c0-.95.668-1.769 1.599-1.959 4.715-.966 9.161-2.811 13.214-5.485.793-.524 1.846-.418 2.516.255l4.884 4.885 8.54-8.539-4.885-4.885c-.672-.672-.778-1.723-.255-2.516 2.675-4.054 4.52-8.499 5.484-13.213.189-.931 1.009-1.6 1.959-1.6h6.896v-12.076h-6.896c-.95 0-1.77-.669-1.959-1.6-.965-4.714-2.81-9.159-5.484-13.213-.523-.793-.417-1.844.255-2.516l4.885-4.885-8.54-8.539-4.884 4.885c-.67.673-1.722.78-2.516.255-4.054-2.675-8.499-4.52-13.213-5.484-.931-.189-1.6-1.009-1.6-1.959v-6.895h-12.076v6.896c0 .95-.669 1.77-1.6 1.959-4.714.965-9.159 2.81-13.213 5.484-.795.524-1.844.417-2.516-.255l-4.885-4.885-8.539 8.539 4.885 4.885c.672.672.778 1.724.255 2.516-2.674 4.051-4.52 8.497-5.485 13.214-.19.931-1.009 1.599-1.959 1.599h-6.895v12.076h6.896c.95 0 1.769.668 1.959 1.599.966 4.717 2.812 9.163 5.485 13.214.523.792.417 1.844-.255 2.516l-4.885 4.885 8.539 8.539 4.885-4.885c.673-.672 1.723-.778 2.516-.255 4.053 2.675 8.499 4.52 13.214 5.485.931.19 1.599 1.009 1.599 1.959v6.895zm6.038-19.931c-14.369 0-26.059-11.689-26.059-26.059s11.689-26.059 26.059-26.059 26.059 11.689 26.059 26.059-11.69 26.059-26.059 26.059zm0-48.118c-12.163 0-22.059 9.896-22.059 22.059s9.896 22.059 22.059 22.059 22.059-9.896 22.059-22.059-9.896-22.059-22.059-22.059z" fill="#690589"/></g></g></svg>