<?xml version="1.0"?>
<svg xmlns="http://www.w3.org/2000/svg" height="512px" viewBox="0 -40 511.99994 511" width="512px" class=""><g><path d="m215.832031 241.503906c-30.421875 0-55.167969 24.746094-55.167969 55.167969v120.5c0 8.285156 6.714844 15 15 15h80.332032c8.285156 0 15-6.714844 15-15v-120.5c.003906-30.421875-24.746094-55.167969-55.164063-55.167969zm0 0" fill="#a8ebfa" data-original="#A8EBFA" class="" data-old_color="#a8ebfa" style="fill:#24C891"/><path d="m95.328125 432.171875c-8.28125 0-15-6.714844-15-15v-321.335937c0-8.285157 6.71875-15 15-15 8.285156 0 15 6.714843 15 15v321.335937c0 8.285156-6.714844 15-15 15zm0 0" fill="#00d8e0" data-original="#00D8E0" class="" data-old_color="#00d8e0" style="fill:#0DB980"/><path d="m95.328125 80.835938v351.335937c8.285156 0 15-6.714844 15-15v-321.335937c0-8.285157-6.714844-15-15-15zm0 0" fill="#00acb3" data-original="#00ACB3" class="" data-old_color="#00acb3" style="fill:#01A26C"/><path d="m189.484375 20.3125c-3.039063-9.039062-12.648437-19.8125-41.175781-19.8125h-105.957032c-28.523437 0-38.136718 10.773438-41.175781 19.8125-2.296875 6.832031-3.195312 20.535156 16.597657 35.542969l68.496093 51.933593c2.679688 2.03125 5.867188 3.046876 9.058594 3.046876s6.382813-1.015626 9.066406-3.046876l68.492188-51.933593c19.792969-15.007813 18.894531-28.710938 16.597656-35.542969zm0 0" fill="#0065a3" data-original="#0065A3" class="" data-old_color="#0065a3" style="fill:#24C891"/><path d="m296.164062 161.171875c-30.417968 0-55.167968 24.746094-55.167968 55.164063v200.835937c0 8.285156 6.71875 15 15 15h80.335937c8.285157 0 15-6.714844 15-15v-200.835937c0-30.417969-24.746093-55.164063-55.167969-55.164063zm0 0" fill="#76e2f8" data-original="#76E2F8" class="active-path" style="fill:#18C38A" data-old_color="#76e2f8"/><path d="m376.5 80.835938c-30.417969 0-55.167969 24.746093-55.167969 55.167968v281.167969c0 8.285156 6.71875 15 15 15h80.332031c8.285157 0 15-6.714844 15-15v-281.167969c0-30.421875-24.746093-55.167968-55.164062-55.167968zm0 0" fill="#00d8e0" data-original="#00D8E0" class="" data-old_color="#00d8e0" style="fill:#0DB980"/><path d="m456.832031.5c-30.417969 0-55.167969 24.75-55.167969 55.167969v361.503906c0 8.285156 6.71875 15 15 15h80.335938c8.285156 0 15-6.714844 15-15v-361.503906c0-30.417969-24.746094-55.167969-55.167969-55.167969zm0 0" fill="#00acb3" data-original="#00ACB3" class="" data-old_color="#00acb3" style="fill:#01A26C"/><path d="m189.484375 20.3125c-3.039063-9.039062-12.648437-19.8125-41.175781-19.8125h-52.980469v110.335938c3.191406 0 6.382813-1.015626 9.066406-3.046876l68.492188-51.933593c19.792969-15.007813 18.894531-28.710938 16.597656-35.542969zm0 0" fill="#005183" data-original="#005183" class="" data-old_color="#005183" style="fill:#24C891"/></g> </svg>
