<svg id="Layer_1" enable-background="new 0 0 511.29 511.29" height="512" viewBox="0 0 511.29 511.29" width="512" xmlns="http://www.w3.org/2000/svg"><g><path d="m511.29 157.865c0-79.219-64.448-143.667-143.666-143.667-75.033 0-136.805 57.821-143.124 131.245h-193.146v247.7h-7.203c-8.424 0-16.097 4.278-20.525 11.444s-4.823 15.942-1.057 23.476l15.567 31.136c11.687 23.373 35.18 37.893 61.313 37.893h307.067c26.132 0 49.625-14.52 61.313-37.893l15.566-31.135c3.768-7.534 3.373-16.311-1.056-23.477s-12.102-11.444-20.526-11.444h-7.202v-108.217c45.561-24.118 76.679-72.02 76.679-127.061zm-143.666-113.667c62.676 0 113.666 50.991 113.666 113.667s-50.99 113.667-113.666 113.667-113.667-50.991-113.667-113.667 50.991-113.667 113.667-113.667zm53.372 401.584c-6.572 13.145-19.784 21.31-34.479 21.31h-307.068c-14.696 0-27.907-8.165-34.479-21.309l-11.32-22.64h398.665zm-16.385-52.639h-343.257v-217.7h163.679c8.696 70.957 69.322 126.089 142.59 126.089 12.785 0 25.181-1.688 36.987-4.836v96.447z"/><path d="m312.473 191.803-13.837 13.837 21.213 21.213 13.837-13.837c5.776 3.567 12.152 6.243 18.937 7.858v19.554h30v-19.554c6.785-1.615 13.161-4.291 18.937-7.858l13.837 13.837 21.213-21.213-13.837-13.837c3.567-5.776 6.243-12.152 7.858-18.937h19.554v-30h-19.554c-1.615-6.785-4.291-13.162-7.858-18.937l13.837-13.837-21.213-21.213-13.837 13.837c-5.775-3.567-12.152-6.242-18.937-7.858v-19.555h-30v19.554c-6.785 1.615-13.162 4.291-18.937 7.858l-13.837-13.837-21.213 21.213 13.837 13.837c-3.567 5.776-6.243 12.152-7.859 18.938h-19.553v30h19.553c1.616 6.784 4.292 13.161 7.859 18.937zm55.151-68.718c19.178 0 34.78 15.603 34.78 34.78s-15.603 34.78-34.78 34.78c-19.179 0-34.781-15.603-34.781-34.78s15.602-34.78 34.781-34.78z"/></g></svg>