<svg id="Capa_1" enable-background="new 0 0 512 512" height="512" viewBox="0 0 512 512" width="512" xmlns="http://www.w3.org/2000/svg"><circle cx="256" cy="256" fill="#f0f7ff" r="150"/><path d="m406 256c0-82.71-67.29-150-150-150v300c82.71 0 150-67.29 150-150z" fill="#dfe7f4"/><g><path d="m256 91c-90.901 0-165 74.099-165 165s74.099 165 165 165 165-74.099 165-165-74.099-165-165-165zm0 300c-74.399 0-135-60.601-135-135s60.601-135 135-135 135 60.601 135 135-60.601 135-135 135z" fill="#ff80aa"/><path d="m421 256c0 90.901-74.099 165-165 165v-30c74.399 0 135-60.601 135-135s-60.601-135-135-135v-30c90.901 0 165 74.099 165 165z" fill="#f37"/><path d="m256 31c-124.2 0-225 100.8-225 225s100.8 225 225 225 225-100.8 225-225-100.8-225-225-225zm0 420c-107.401 0-195-87.599-195-195s87.599-195 195-195 195 87.599 195 195-87.599 195-195 195z" fill="#47568c"/><path d="m481 256c0 124.2-100.8 225-225 225v-30c107.401 0 195-87.599 195-195s-87.599-195-195-195v-30c124.2 0 225 100.8 225 225z" fill="#29376d"/><path d="m0 241h151v30h-151z" fill="#ff80aa"/><path d="m361 241h151v30h-151z" fill="#f37"/><path d="m317.699 251.737-9.258-28.535-37.441 12.155v-39.357h-15-15v39.357l-37.441-12.155-9.258 28.535 37.428 12.151-23.131 31.824 24.257 17.637 23.145-31.841 23.145 31.841 24.257-17.637-23.131-31.824z" fill="#fabe2c"/><path d="m303.402 295.712-23.131-31.824 37.428-12.151-9.258-28.535-37.441 12.155v-39.357h-15v85.508l23.145 31.841z" fill="#ff9100"/><path d="m241 361h30v151h-30z" fill="#ff80aa"/><path d="m256 361h15v151h-15z" fill="#f37"/><path d="m241 0h30v151h-30z" fill="#ff80aa"/><path d="m256 0h15v151h-15z" fill="#f37"/></g></svg>