<?xml version="1.0" encoding="iso-8859-1"?>
<!-- Generator: Adobe Illustrator 19.0.0, SVG Export Plug-In . SVG Version: 6.00 Build 0)  -->
<svg version="1.1" id="Capa_1" xmlns="http://www.w3.org/2000/svg" xmlns:xlink="http://www.w3.org/1999/xlink" x="0px" y="0px"
	 viewBox="0 0 512.001 512.001" style="enable-background:new 0 0 512.001 512.001;" xml:space="preserve">
<path id="SVGCleanerId_0" style="fill:#FFE2C0;" d="M288.706,289.442c-5.066-1.018-8.711-6.895-8.711-12.062v-23.027H256l0,0
	h-23.996v23.027c0,5.167-3.645,11.044-8.711,12.062l-5.847,1.651v38.793H256l0,0h38.553v-38.793L288.706,289.442z"/>
<g>
	<path id="SVGCleanerId_0_1_" style="fill:#FFE2C0;" d="M288.706,289.442c-5.066-1.018-8.711-6.895-8.711-12.062v-23.027H256l0,0
		h-23.996v23.027c0,5.167-3.645,11.044-8.711,12.062l-5.847,1.651v38.793H256l0,0h38.553v-38.793L288.706,289.442z"/>
</g>
<path style="fill:#45748C;" d="M331.839,300.19l-34.581-10.782c-1.925-0.6-3.996,0.226-4.99,1.981
	c-4.78,8.441-19.206,16.6-36.268,16.6s-31.488-8.16-36.268-16.6c-0.993-1.754-3.065-2.581-4.99-1.981l-34.581,10.782
	c-19.576,5.764-33.017,23.733-33.017,44.14v10.658c0,5.656,4.585,10.241,10.241,10.241h197.23c5.656,0,10.241-4.585,10.241-10.241
	V344.33C364.856,323.923,351.415,305.954,331.839,300.19z"/>
<path style="fill:#2D5872;" d="M331.839,300.19l-34.581-10.782c-1.925-0.6-3.996,0.226-4.99,1.981
	c-4.596,8.116-18.118,15.95-34.319,16.543l32.167,10.03c19.576,5.764,33.017,11.744,33.017,32.151v15.117h31.482
	c5.656,0,10.241-4.585,10.241-10.241v-10.658C364.856,323.923,351.415,305.954,331.839,300.19z"/>
<path style="fill:#FFE2C0;" d="M301.05,203.398L301.05,203.398v-4.281v-8.622c0-12.173-4.998-23.969-14.222-31.912
	c-7.232-6.228-17.398-11.663-30.828-11.813c-13.429,0.15-23.595,5.585-30.828,11.813c-9.225,7.943-14.222,19.739-14.222,31.912
	v8.622v4.281l0,0c-5.082,0-9.203,4.12-9.203,9.203v6.263c0,5.082,4.12,9.203,9.203,9.203h0.012
	c0.254,11.833,5.227,23.223,14.21,30.958c7.232,6.227,17.399,11.663,30.828,11.813c13.429-0.15,23.596-5.585,30.828-11.813
	c8.983-7.735,13.956-19.125,14.21-30.958h0.012c5.083,0,9.203-4.12,9.203-9.203v-6.263
	C310.253,207.518,306.133,203.398,301.05,203.398z"/>
<path style="fill:#F4D3A6;" d="M301.05,203.398v-4.281v-8.621c0-12.173-4.998-23.969-14.222-31.912
	c-7.232-6.228-17.398-11.663-30.828-11.813c-8.067,0.09-14.949,2.095-20.732,5.026c3.844,1.948,7.208,4.301,10.095,6.787
	c9.225,7.943,14.222,19.739,14.222,31.912l-0.012,37.571c-0.254,11.833-5.227,23.223-14.21,30.958
	c-2.888,2.486-6.251,4.839-10.095,6.787c5.784,2.931,12.665,4.936,20.732,5.026c13.429-0.15,23.596-5.585,30.828-11.813
	c8.983-7.735,13.956-19.125,14.21-30.958h0.012c5.082,0,9.203-4.12,9.203-9.203v-6.263
	C310.253,207.518,306.133,203.398,301.05,203.398z"/>
<path style="fill:#FF4C4C;" d="M472.641,240.362c-7.649-107.493-93.51-193.353-201.002-201.002V6.536
	c0-3.61-2.926-6.536-6.536-6.536h-18.205c-3.61,0-6.536,2.926-6.536,6.536V39.36C132.869,47.009,47.009,132.87,39.36,240.362H6.536
	c-3.61,0-6.536,2.926-6.536,6.536v18.205c0,3.61,2.926,6.536,6.536,6.536H39.36c7.649,107.493,93.51,193.353,201.002,201.002v32.824
	c0,3.61,2.926,6.536,6.536,6.536h18.205c3.61,0,6.536-2.926,6.536-6.536V472.64c107.493-7.649,193.353-93.509,201.002-201.002
	h32.824c3.61,0,6.536-2.926,6.536-6.536v-18.205c0-3.61-2.926-6.536-6.536-6.536h-32.824V240.362z M400.072,271.638h42.317
	c-7.52,90.826-79.925,163.231-170.751,170.751v-42.317c0-3.61-2.926-6.536-6.536-6.536h-18.205c-3.61,0-6.536,2.926-6.536,6.536
	v42.317c-90.826-7.52-163.231-79.925-170.751-170.751h42.317c3.61,0,6.536-2.926,6.536-6.536v-18.205
	c0-3.61-2.926-6.536-6.536-6.536H69.611c7.52-90.826,79.925-163.231,170.751-170.751v42.317c0,3.61,2.926,6.536,6.536,6.536h18.205
	c3.61,0,6.536-2.926,6.536-6.536V69.611c90.826,7.52,163.231,79.925,170.751,170.751h-42.317c-3.61,0-6.536,2.926-6.536,6.536
	v18.205C393.537,268.712,396.463,271.638,400.072,271.638z"/>
<path style="fill:#F4D3A6;" d="M256.394,307.47l1.626,0.459c16.17-0.613,29.659-8.436,34.248-16.54
	c0.163-0.288,0.364-0.541,0.58-0.777l-4.142-1.169c-5.066-1.018-8.711-6.895-8.711-12.062v-13.385
	c-6.4,3.895-14.352,6.734-23.996,6.842c-2.929-0.033-5.694-0.33-8.317-0.819v25.39C247.683,300.575,251.328,306.452,256.394,307.47z
	"/>
<g>
	<path style="fill:#1D4859;" d="M192.861,365.229v-30.478c0-4.268-3.459-7.726-7.726-7.726s-7.726,3.459-7.726,7.726v30.478H192.861
		z"/>
	<path style="fill:#1D4859;" d="M334.592,365.229v-30.478c0-4.268-3.459-7.726-7.726-7.726s-7.726,3.459-7.726,7.726v30.478H334.592
		z"/>
</g>
<g>
</g>
<g>
</g>
<g>
</g>
<g>
</g>
<g>
</g>
<g>
</g>
<g>
</g>
<g>
</g>
<g>
</g>
<g>
</g>
<g>
</g>
<g>
</g>
<g>
</g>
<g>
</g>
<g>
</g>
</svg>
