<?xml version="1.0" encoding="iso-8859-1"?>
<!-- Generator: Adobe Illustrator 19.0.0, SVG Export Plug-In . SVG Version: 6.00 Build 0)  -->
<svg version="1.1" id="Capa_1" xmlns="http://www.w3.org/2000/svg" xmlns:xlink="http://www.w3.org/1999/xlink" x="0px" y="0px"
	 viewBox="0 0 512 512" style="enable-background:new 0 0 512 512;" xml:space="preserve">
<circle style="fill:#0CC27C;" cx="256" cy="256" r="256"/>
<path style="fill:#0DA366;" d="M512,256c0-17.874-1.838-35.317-5.324-52.157L390.667,87.834L121.333,424.167l82.51,82.51
	C220.683,510.162,238.126,512,256,512C397.385,512,512,397.385,512,256z"/>
<rect x="121.33" y="87.83" style="fill:#FFFFFF;" width="269.33" height="336.33"/>
<rect x="255.95" y="87.83" style="fill:#DFDFDF;" width="134.71" height="336.33"/>
<path style="fill:#AFBDC4;" d="M361.736,362.082v-1.768c0-5.563-4.508-10.09-10.062-10.128v-3.585h-9.238v3.585
	c-5.554,0.037-10.062,4.564-10.062,10.128v5.091c0,5.586,4.545,10.131,10.131,10.131h9.1c0.493,0,0.893,0.401,0.893,0.893v5.216
	c0,0.493-0.4,0.893-0.893,0.893h-9.1c-0.493,0-0.893-0.401-0.893-0.893v-1.157h-9.238v1.157c0,5.563,4.508,10.09,10.062,10.128
	v3.585h9.238v-3.585c5.554-0.038,10.062-4.565,10.062-10.128v-5.216c0-5.586-4.545-10.131-10.131-10.131h-9.1
	c-0.493,0-0.893-0.401-0.893-0.893v-5.091c0-0.493,0.4-0.893,0.893-0.893h9.1c0.493,0,0.893,0.401,0.893,0.893v1.768H361.736z"/>
<g>
	<path style="fill:#455A64;" d="M219.462,120.722H198.03v55.854h-13.086v-55.854h-21.526v-11.474h56.044V120.722z"/>
	<path style="fill:#455A64;" d="M224.185,176.576l26.552-67.328h10.621l26.458,67.328H273.97l-6.164-16.785h-23.612l-6.164,16.785
		H224.185z M256.047,123.377l-9.672,27.216h19.061L256.047,123.377z"/>
</g>
<g>
	<polygon style="fill:#37474F;" points="261.357,109.248 255.952,109.248 255.952,123.644 256.047,123.377 265.435,150.593 
		255.952,150.593 255.952,159.792 267.806,159.792 273.97,176.576 287.815,176.576 	"/>
	<path style="fill:#37474F;" d="M309.311,109.248l16.785,25.034l16.69-25.034h14.129l-23.991,34.138l23.233,33.19h-14.129
		l-15.932-24.087l-16.025,24.087h-14.224l23.233-33.19l-23.992-34.138H309.311z"/>
</g>
<g>
	<rect x="148.5" y="203.5" style="fill:#CED7DB;" width="64.5" height="23"/>
	<rect x="223.75" y="203.5" style="fill:#CED7DB;" width="64.5" height="23"/>
</g>
<g>
	<rect x="255.95" y="203.5" style="fill:#AFBDC4;" width="32.3" height="23"/>
	<rect x="299" y="203.5" style="fill:#AFBDC4;" width="64.5" height="23"/>
</g>
<g>
	<rect x="148.5" y="238.87" style="fill:#CED7DB;" width="64.5" height="23"/>
	<rect x="223.75" y="238.87" style="fill:#CED7DB;" width="64.5" height="23"/>
</g>
<g>
	<rect x="255.95" y="238.87" style="fill:#AFBDC4;" width="32.3" height="23"/>
	<rect x="299" y="238.87" style="fill:#AFBDC4;" width="64.5" height="23"/>
</g>
<g>
	<rect x="148.5" y="274.25" style="fill:#CED7DB;" width="64.5" height="23"/>
	<rect x="223.75" y="274.25" style="fill:#CED7DB;" width="64.5" height="23"/>
</g>
<g>
	<rect x="255.95" y="274.25" style="fill:#AFBDC4;" width="32.3" height="23"/>
	<rect x="299" y="274.25" style="fill:#AFBDC4;" width="64.5" height="23"/>
</g>
<g>
	<rect x="148.5" y="309.62" style="fill:#CED7DB;" width="64.5" height="23"/>
	<rect x="223.75" y="309.62" style="fill:#CED7DB;" width="64.5" height="23"/>
</g>
<g>
	<rect x="255.95" y="309.62" style="fill:#AFBDC4;" width="32.3" height="23"/>
	<rect x="299" y="309.62" style="fill:#AFBDC4;" width="64.5" height="23"/>
</g>
<g>
	<rect x="148.5" y="345" style="fill:#CED7DB;" width="64.5" height="23"/>
	<rect x="223.75" y="345" style="fill:#CED7DB;" width="64.5" height="23"/>
</g>
<rect x="255.95" y="345" style="fill:#AFBDC4;" width="32.3" height="23"/>
<g>
</g>
<g>
</g>
<g>
</g>
<g>
</g>
<g>
</g>
<g>
</g>
<g>
</g>
<g>
</g>
<g>
</g>
<g>
</g>
<g>
</g>
<g>
</g>
<g>
</g>
<g>
</g>
<g>
</g>
</svg>
