<svg height="512" viewBox="0 0 58 58" width="512" xmlns="http://www.w3.org/2000/svg"><g id="Page-1" fill="none" fill-rule="evenodd"><g id="031---Online-Travel-Cover" fill-rule="nonzero"><rect id="Rectangle-path" fill="#add2f1" height="58" rx="5" width="58"/><path id="Rectangle-path" d="m28 24h2v19.59h-2z" fill="#527580"/><path id="Shape" d="m58 5v7h-58v-7c0-2.76142375 2.23857625-5 5-5h48c1.3260824 0 2.597852.5267842 3.5355339 1.46446609.9376819.9376819 1.4644661 2.20945146 1.4644661 3.53553391z" fill="#3197d6"/><circle id="Oval" cx="6" cy="6" fill="#e84b34" r="2"/><circle id="Oval" cx="14" cy="6" fill="#f1c200" r="2"/><circle id="Oval" cx="22" cy="6" fill="#5ddcb6" r="2"/><path id="Shape" d="m54 7h-12c-.5522847 0-1-.44771525-1-1s.4477153-1 1-1h12c.5522847 0 1 .44771525 1 1s-.4477153 1-1 1z" fill="#1d80bd"/><path id="Shape" d="m29.55 52h19.75c1.1481358.0022963 2.1721507-.7217599 2.5527424-1.8049824s.0345085-2.2886645-.8627424-3.0050176l-3.17-2.53c-.5290669-.4281789-1.1893772-.6612296-1.87-.66h-31.27c-.4098038.0003967-.7783727-.249279-.93-.63l-1.5-3.74c-.1516273-.380721-.5201962-.6303967-.93-.63h-1.32c-.55228475 0-1 .4477153-1 1v8c0 2.209139 1.790861 4 4 4z" fill="#f1c200"/><path id="Shape" d="m12 48h-7c-.55228475 0-1-.4477153-1-1s.44771525-1 1-1h7c.5522847 0 1 .4477153 1 1s-.4477153 1-1 1z" fill="#3197d6"/><path id="Shape" d="m26 48-2.964 4.445c-.2048322.3070079-.2239138.7018785-.0496385 1.0272063.1742753.3253279.5135722.5282182.8826385.5277937h2.636c.213298.0002311.4210818-.0677454.593-.194l7.902-5.806" fill="#f4d347"/><path id="Shape" d="m25.33 44-2.295-3.446c-.2041777-.3068254-.2230382-.7010866-.0490814-1.0260011s.5125297-.5278085.8810814-.5279989h2.633c.2129562-.000018.4203573.0679479.592.194l6.548 4.806z" fill="#f49a00"/><path id="Shape" d="m47.94 28.46c-1.6800239-.8802373-3.5435382-1.352967-5.44-1.38-2.2111929.0381646-4.3708513.6739681-6.25 1.84-.0738712.050225-.1606942.0780083-.25.08 0-5-1-9-7-12 9.5 0 17.46 4.61 19.65 10.84.0671421.1956751.0091746.4125227-.1466497.5485947-.1558244.1360719-.3785046.1642969-.5633503.0714053z" fill="#e84b34"/><path id="Shape" d="m36 29.0000863c-.0915431.0016425-.1816989-.0226302-.26-.0700863-2.0416454-1.2160993-4.3641157-1.8811391-6.74-1.93-2.3758843.0488609-4.6983546.7139007-6.74 1.93-.0783011.0474561-.1684569.0717288-.26.0700863 0-5.0000863 1-9.0000863 7-12.0000863 6 3 7 7 7 12.0000863z" fill="#ebeff0"/><path id="Shape" d="m29 17c-6 3-7 7-7 12-.0893058-.0019917-.1761288-.029775-.25-.08-1.8791487-1.1660319-4.0388071-1.8018354-6.25-1.84-1.8964618.027033-3.7599761.4997627-5.44 1.38-.18484573.0928916-.40752595.0646666-.56335028-.0714053-.15582433-.136072-.2137918-.3529196-.14664972-.5485947 2.19-6.23 10.15-10.84 19.65-10.84z" fill="#e84b34"/><path id="Shape" d="m51.67 48h-7.67c-1.1032019-.0032948-1.9967052-.8967981-2-2v-2.0000048l3.95.0000048c.6806228-.0012296 1.3409331.2318211 1.87.66l3.17 2.53c.2787888.2215676.5100604.4970528.68.81z" fill="#1ea7ce"/></g></g></svg>