<?xml version="1.0"?>
<svg xmlns="http://www.w3.org/2000/svg" xmlns:xlink="http://www.w3.org/1999/xlink" xmlns:svgjs="http://svgjs.com/svgjs" version="1.1" width="512" height="512" x="0" y="0" viewBox="0 0 512 512" style="enable-background:new 0 0 512 512" xml:space="preserve" class=""><g><g xmlns="http://www.w3.org/2000/svg"><circle cx="440" cy="465" r="47" fill="#ffffff" data-original="#000000" style="" class=""/><path d="m326.469 221.32c4.624 8.734 8.377 17.998 11.125 27.68h94.406c8.284 0 15 6.716 15 15s-6.716 15-15 15h-89.292c.186 2.978.292 26 .292 26h89c8.284 0 15 6.716 15 15s-6.716 15-15 15h-89v128h20.051c1.068-41.535 35.162-75 76.949-75 31.902 0 59.331 19.503 71 47.21v-229.79l-11.278 2.889c-55.889 13.972-116.467 17.058-173.253 13.011z" fill="#ffffff" data-original="#000000" style="" class=""/><path d="m200 260c-13.785 0-24.975 12.215-24.975 26 .23 0 51.519 0 49.95 0 0-15.455-11.466-26-24.975-26z" fill="#ffffff" data-original="#000000" style="" class=""/><path d="m200 175c-62.309 0-113 50.691-113 113v223h226v-223c0-62.309-50.691-113-113-113zm56 245h-65v9c0 8.284-6.716 15-15 15s-15-6.716-15-15v-9h-17c-8.284 0-15-6.716-15-15s6.716-15 15-15h112c8.284 0 15 6.716 15 15s-6.716 15-15 15zm8-104h-128c-8.284 0-15-6.716-15-15s6.716-15 15-15c.125 0 9.126 0 9.025 0 0-30.327 24.647-56 54.975-56 29.458 0 54.975 23.457 54.975 56h9.025c8.284 0 15 6.716 15 15s-6.716 15-15 15z" fill="#ffffff" data-original="#000000" style="" class=""/><path d="m186.045 145.682c-7.789-11.192.228-26.682 13.955-26.682 13.733 0 21.74 15.496 13.955 26.682 10.447 1.017 20.566 3.166 30.238 6.316 11.113-30.604-11.72-62.998-44.193-62.998-32.464 0-55.31 32.383-44.193 62.998 9.672-3.15 19.791-5.299 30.238-6.316z" fill="#ffffff" data-original="#000000" style="" class=""/><path d="m1 404v32c0 34.792 23.816 64.121 56 72.556v-177.112c-32.184 8.435-56 37.764-56 72.556z" fill="#ffffff" data-original="#000000" style="" class=""/><path d="m496 89h-49v-59h25c8.284 0 15-6.716 15-15s-6.716-15-15-15h-208c-8.284 0-15 6.716-15 15s6.716 15 15 15h17v59h-20.071c17.205 22.251 20.316 50.936 10.67 75.274 11.614 6.748 22.205 15.068 31.457 24.692 48.049 5.365 119.026 7.83 189.306-9.74l18.638-4.774v-70.452c0-8.284-6.716-15-15-15zm-79 0h-106v-59h106z" fill="#ffffff" data-original="#000000" style="" class=""/></g></g></svg>
