<?xml version="1.0"?>
<svg xmlns="http://www.w3.org/2000/svg" xmlns:xlink="http://www.w3.org/1999/xlink" version="1.1" id="Capa_1" x="0px" y="0px" viewBox="0 0 480.048 480.048" style="enable-background:new 0 0 480.048 480.048;" xml:space="preserve" width="512px" height="512px"><g><g>
	<g>
		<path d="M467.248,230.434c-5.545-4.143-12.278-6.388-19.2-6.4v-120c0-4.418-3.582-8-8-8h-76.736L269.544,2.37    c-3.074-3.087-8.052-3.148-11.2-0.136l-31.096,29.632L197.88,2.434c-1.487-1.526-3.525-2.391-5.656-2.4    c-2.138-0.069-4.203,0.781-5.672,2.336l-93.76,93.664H31.856c-17.63,0.049-31.887,14.37-31.856,32c0,0.248,0.04,0.488,0.048,0.736    v311.264c0.026,22.08,17.92,39.974,40,40h400c4.418,0,8-3.582,8-8v-104c17.673,0,32-14.327,32-32v-80    C480.094,245.951,475.342,236.447,467.248,230.434z M432.048,112.034v32h-24c0.002-2.124-0.842-4.162-2.344-5.664l-26.368-26.336    H432.048z M369.624,124.954l19.096,19.08h-23.272C365.446,137.447,366.87,130.938,369.624,124.954z M263.744,19.234L284,39.466    c-12.533,7.938-28.579,7.693-40.864-0.624L263.744,19.234z M231.352,50.01c18.757,14.66,44.982,15.037,64.152,0.92l62.28,62.2    c-5.437,9.393-8.304,20.051-8.312,30.904H285.88c-17.54-25.312-52.278-31.613-77.591-14.073    c-5.497,3.809-10.264,8.576-14.073,14.073h-61.728L231.352,50.01z M263.96,144.034h-47.824    C230.293,133.367,249.803,133.367,263.96,144.034z M192.2,19.394l21.488,21.6c-12.908,9.244-30.261,9.273-43.2,0.072L192.2,19.394    z M159.008,52.514c9.396,7.461,21.042,11.522,33.04,11.52c0.48,0,0.96-0.056,1.432-0.064l-84.216,80.064h-41.88L159.008,52.514z     M23.76,114.298c2.441-1.48,5.241-2.263,8.096-2.264h44.92l-32,32h-12.92c-2.858-0.001-5.661-0.787-8.104-2.272    c-4.702-2.825-7.614-7.875-7.704-13.36v-0.368H16C15.977,122.405,18.927,117.183,23.76,114.298z M432.048,464.034h-392    c-13.255,0-24-10.745-24-24V155.762c4.803,2.787,10.255,4.26,15.808,4.272h400.192v112h-80c-26.51,0-48,21.49-48,48    c0,26.51,21.49,48,48,48h80V464.034z M464.048,336.034c0,8.837-7.163,16-16,16h-96c-17.673,0-32-14.327-32-32    c0-17.673,14.327-32,32-32h96c5.617-0.01,11.133-1.491,16-4.296V336.034z M464.048,256.29c-0.14,8.736-7.262,15.745-16,15.744v-32    c8.837,0,16,7.163,16,16V256.29z" data-original="#000000" class="active-path" data-old_color="#000000" fill="#FFFFFF"/>
	</g>
</g><g>
	<g>
		<circle cx="352.048" cy="320.034" r="16" data-original="#000000" class="active-path" data-old_color="#000000" fill="#FFFFFF"/>
	</g>
</g><g>
	<g>
		<path d="M408.048,400.034h-144c-4.418,0-8,3.582-8,8v32c0,4.418,3.582,8,8,8h144c4.418,0,8-3.582,8-8v-32    C416.048,403.616,412.466,400.034,408.048,400.034z M400.048,432.034h-128v-16h128V432.034z" data-original="#000000" class="active-path" data-old_color="#000000" fill="#FFFFFF"/>
	</g>
</g></g> </svg>
