<svg id="Capa_1" enable-background="new 0 0 506.124 506.124" height="512" viewBox="0 0 506.124 506.124" width="512" xmlns="http://www.w3.org/2000/svg"><g><path d="m475.487 172.415-.224 290.184c-.02 19.44-15.707 35.198-35.045 35.178l-393.79-.306c-19.328-.02-34.994-15.799-34.974-35.239l.224-290.174c.01-19.45 15.697-35.208 35.045-35.188l393.78.316c19.328.01 34.995 15.789 34.984 35.229z" fill="#7a6d79"/><path d="m506.124 302.352-.03 40.91c-.01 19.28-15.65 34.89-34.93 34.88l-48.01-.04-24.59-.02h-.31c-.2 0-.39 0-.59-.01-18.86-.49-33.99-15.94-33.98-34.92l.04-40.91c.01-18.96 15.15-34.38 33.99-34.86.22-.01.43-.01.64-.01l29.4.02 43.5.03c19.27.02 34.89 15.66 34.87 34.93z" fill="#a79ba7"/><path d="m60.544 497.481-14.116-.01c-19.328-.02-34.994-15.799-34.974-35.239l.224-290.174c.01-19.45 15.697-35.208 35.045-35.188l29.354.02c-18.767.642-33.791 16.319-33.801 35.576l-.224 293.581c-.01 13.605 7.476 25.437 18.492 31.434z" fill="#685e68"/><ellipse cx="89.745" cy="98.591" fill="#ffe177" rx="89.745" ry="90.242"/><ellipse cx="91.065" cy="97.074" fill="#ffc344" rx="53.364" ry="53.66"/><path d="m105.044 187.52c-4.988.877-10.128 1.316-15.371 1.316-49.559-.041-89.714-40.481-89.673-90.316.041-49.834 40.247-90.214 89.816-90.173 5.191 0 10.281.449 15.228 1.316-42.256 7.292-74.405 44.286-74.446 88.857-.041 44.612 32.149 81.698 74.446 89z" fill="#ffd064"/><path d="m423.154 378.102c.02 0 .03.01.05.01l-24.64-.03h-.31c-.2 0-.39 0-.59-.01-18.86-.49-33.99-15.94-33.98-34.92l.04-40.91c.01-18.96 15.15-34.38 33.99-34.86.22-.01.43-.01.64-.01l29.4.02c-19.1.61-34.41 16.29-34.42 35.56l-.03 39.98c-.02 17.71 12.91 32.42 29.85 35.17z" fill="#8c818f"/><path d="m213.852 237.528-36.228 51.752c-1.438 2.05-3.774 3.264-6.273 3.264h-159.764l.01-15.299h155.776l33.944-48.499c2.427-3.458 7.191-4.294 10.658-1.877 3.457 2.428 4.294 7.191 1.877 10.659z" fill="#433f43"/><path d="m264.961 333.301c0 4.222-3.427 7.65-7.65 7.65h-245.765l.01-15.299h245.755c4.223-.001 7.65 3.416 7.65 7.649z" fill="#433f43"/><path d="m206.008 413.611c0 4.233-3.427 7.65-7.65 7.65h-186.873l.01-15.299h186.864c4.222-.001 7.649 3.427 7.649 7.649z" fill="#433f43"/><g fill="#ffe177"><circle cx="288.366" cy="333.299" r="30.02"/><circle cx="217.99" cy="414.894" r="30.02"/><circle cx="221.05" cy="205.806" r="30.02"/></g></g></svg>