<svg id="Capa_1" enable-background="new 0 0 512 512" height="512" viewBox="0 0 512 512" width="512" xmlns="http://www.w3.org/2000/svg"><g><g><g><g><g><g><g><circle cx="256" cy="256" fill="#2fddd0" r="256"/></g></g></g></g></g></g><path d="m512 256c0-29.838-5.105-58.484-14.489-85.113l-66.917-66.917-331.583 313.457 84.024 84.024c23.124 6.864 47.614 10.549 72.965 10.549 141.385 0 256-114.615 256-256z" fill="#11bfae"/><g><g fill="#ffce00"><path d="m155.771 187.636h274.823v109.737h-274.823z"/><path d="m155.771 103.971h274.823v32.842h-274.823z"/></g><g fill="#fdba12"><path d="m291.758 103.971h138.837v32.842h-138.837z"/><path d="m291.758 187.636h138.837v109.737h-138.837z"/></g><g><path d="m155.771 135.633h274.824v53.45h-274.824z" fill="#555a66"/></g><g><path d="m291.758 135.633h138.837v53.45h-138.837z" fill="#333940"/></g></g><g><path d="m99.011 206.315h276.271v211.113h-276.271z" fill="#fe6a16"/></g><g><path d="m236 206.315h139.282v211.113h-139.282z" fill="#f24500"/></g><g><path d="m270.866 276.685h123.801v70.371h-123.801z" fill="#d13400"/></g><g><circle cx="307.517" cy="311.871" fill="#333940" r="22.317"/></g></g></svg>