<svg id="Layer_1" enable-background="new 0 0 512.029 512.029" height="512" viewBox="0 0 512.029 512.029" width="512" xmlns="http://www.w3.org/2000/svg"><path d="m417.548 459.683c.001-.004.002-.007.002-.01-19.585-19.352-90.999-16.696-90.999-16.696-.036.207-6.803-1.339-12.76 4.619-6.249 6.248-6.249 16.379 0 22.627 26.696 26.695 67.407 33.465 101.336 16.627 10.708-5.313 11.988-20.074 2.421-27.167z"/><path d="m502.584 88.73c-10.46-4.71-23.59-9.45-38.63-13.82 1.691-40.529-30.878-74.91-71.94-74.91-36.77 0-62.6 25.38-69.92 55.38-93.709.453-126.14 34.124-207.35 31.75-59.19-1.71-92.5-14.55-92.79-14.66-10.498-4.195-21.94 3.532-21.94 14.85v336c0 6.55 3.98 12.43 10.06 14.86 20.688 8.281 56.779 13.728 79.22 15.84 2.06 10.52 6.61 20.89 14 30.33 43.145 55.144 132.163 22.06 128.63-47.94 25.85-6.92 54.31-13.09 96.09-13.09 91.16 0 160.82 30.33 161.5 30.62 10.575 4.7 22.5-3.044 22.5-14.62v-336c0-6.29-3.69-12-9.43-14.59zm-329.64 388.97c-33.944 11.698-64.413-23.152-48.74-55.31 6.83-14.02 20.22-22.39 35.81-22.39 22.06 0 40 17.94 40 40 0 18.433-11.31 32.271-27.07 37.7zm179.07-245.7h-17.814c-7.298 32.022-35.985 56-70.186 56h-28.101c18.601 24.487 45.329 41.529 79.238 48.311 8.665 1.733 14.284 10.162 12.552 18.827-1.744 8.719-10.218 14.273-18.827 12.552-87.712-17.542-114.736-87.118-115.844-90.071-3.918-10.452 3.821-21.619 14.982-21.619h56c16.369 0 30.465-9.887 36.65-24h-20.65c-8.837 0-16-7.164-16-16s7.163-16 16-16h20.65c-6.185-14.113-20.281-24-36.65-24h-56c-8.836 0-16-7.164-16-16s7.164-16 16-16h56c34.201 0 62.888 23.978 70.186 56h17.814c8.837 0 16 7.164 16 16s-7.163 16-16 16zm14.81-128.92c-29.172-23.694-12.177-71.08 25.19-71.08 21.866 0 40 17.745 40 40 0 34.02-39.45 51.95-65.19 31.08z"/></svg>