<svg height="512pt" viewBox="0 0 512 512" width="512pt" xmlns="http://www.w3.org/2000/svg"><path d="m512 256c0 141.386719-114.613281 256-256 256s-256-114.613281-256-256 114.613281-256 256-256 256 114.613281 256 256zm0 0" fill="#23e886"/><path d="m512 256c0-18.347656-1.945312-36.238281-5.613281-53.488281l-71.71875-71.71875-357.335938 250.449219 125.132813 125.132812c17.265625 3.675781 35.171875 5.625 53.535156 5.625 141.386719 0 256-114.613281 256-256zm0 0" fill="#09cc66"/><path d="m77.332031 130.757812h357.335938v250.484376h-357.335938zm0 0" fill="#414952"/><path d="m255.574219 130.757812h179.09375v250.484376h-179.09375zm0 0" fill="#23272b"/><path d="m77.332031 130.792969h357.335938v38.558593h-357.335938zm0 0" fill="#fff"/><path d="m255.574219 130.792969h179.09375v38.558593h-179.09375zm0 0" fill="#e9edf5"/><path d="m108.375 150.074219c0 6.28125-5.09375 11.375-11.375 11.375s-11.375-5.09375-11.375-11.375c0-6.285157 5.09375-11.375 11.375-11.375s11.375 5.089843 11.375 11.375zm0 0" fill="#ff6c52"/><path d="m139.375 150.074219c0 6.28125-5.09375 11.375-11.375 11.375s-11.375-5.09375-11.375-11.375c0-6.285157 5.09375-11.375 11.375-11.375s11.375 5.089843 11.375 11.375zm0 0" fill="#ffce00"/><path d="m91 202.832031h98v30.332031h-98zm0 0" fill="#87c7ff"/><path d="m91 256h98v30.332031h-98zm0 0" fill="#87c7ff"/><path d="m91 309.167969h98v30.332031h-98zm0 0" fill="#87c7ff"/><g fill="#fff"><path d="m207.667969 202.832031h172.4375v30.332031h-172.4375zm0 0"/><path d="m207.667969 256h113.332031v30.332031h-113.332031zm0 0"/><path d="m207.667969 309.167969h205.332031v30.332031h-205.332031zm0 0"/></g><path d="m255.574219 202.832031h124.53125v30.332031h-124.53125zm0 0" fill="#e9edf5"/><path d="m255.574219 256h65.425781v30.332031h-65.425781zm0 0" fill="#e9edf5"/><path d="m255.574219 309.167969h157.425781v30.332031h-157.425781zm0 0" fill="#e9edf5"/></svg>