<?xml version="1.0" encoding="iso-8859-1"?>
<!-- Generator: Adobe Illustrator 19.0.0, SVG Export Plug-In . SVG Version: 6.00 Build 0)  -->
<svg version="1.1" id="Capa_1" xmlns="http://www.w3.org/2000/svg" xmlns:xlink="http://www.w3.org/1999/xlink" x="0px" y="0px"
	 viewBox="0 0 512 512" style="enable-background:new 0 0 512 512;" xml:space="preserve">
<g>
	<g>
		<path d="M185.379,229.517h-70.621c-4.873,0-8.828,3.955-8.828,8.828v211.862c0,4.873,3.955,8.828,8.828,8.828h70.621
			c4.873,0,8.828-3.955,8.828-8.828V238.345C194.207,233.472,190.252,229.517,185.379,229.517z M176.552,441.379h-52.966V247.172
			h52.966V441.379z"/>
	</g>
</g>
<g>
	<g>
		<path d="M291.31,141.241H220.69c-4.873,0-8.828,3.955-8.828,8.828v300.138c0,4.873,3.955,8.828,8.828,8.828h70.621
			c4.873,0,8.828-3.955,8.828-8.828V150.069C300.138,145.196,296.183,141.241,291.31,141.241z M282.483,441.379h-52.966V158.897
			h52.966V441.379z"/>
	</g>
</g>
<g>
	<g>
		<path d="M397.241,52.966h-70.621c-4.873,0-8.828,3.955-8.828,8.828v388.414c0,4.873,3.955,8.828,8.828,8.828h70.621
			c4.873,0,8.828-3.955,8.828-8.828V61.793C406.069,56.92,402.114,52.966,397.241,52.966z M388.414,441.379h-52.966V70.621h52.966
			V441.379z"/>
	</g>
</g>
<g>
	<g>
		<path d="M503.172,441.379h-70.621c-4.873,0-8.828,3.955-8.828,8.828s3.955,8.828,8.828,8.828h70.621
			c4.873,0,8.828-3.955,8.828-8.828S508.045,441.379,503.172,441.379z"/>
	</g>
</g>
<g>
	<g>
		<path d="M79.448,317.793H8.828c-4.873,0-8.828,3.955-8.828,8.828v123.586c0,4.873,3.955,8.828,8.828,8.828h70.621
			c4.873,0,8.828-3.955,8.828-8.828V326.621C88.276,321.748,84.321,317.793,79.448,317.793z M70.621,441.379H17.655V335.448h52.966
			V441.379z"/>
	</g>
</g>
<g>
</g>
<g>
</g>
<g>
</g>
<g>
</g>
<g>
</g>
<g>
</g>
<g>
</g>
<g>
</g>
<g>
</g>
<g>
</g>
<g>
</g>
<g>
</g>
<g>
</g>
<g>
</g>
<g>
</g>
</svg>
