<?xml version="1.0" encoding="iso-8859-1"?>
<!-- Generator: Adobe Illustrator 21.0.0, SVG Export Plug-In . SVG Version: 6.00 Build 0)  -->
<svg xmlns="http://www.w3.org/2000/svg" xmlns:xlink="http://www.w3.org/1999/xlink" version="1.1" id="Capa_1" x="0px" y="0px" viewBox="0 0 512 512" style="enable-background:new 0 0 512 512;" xml:space="preserve" width="512" height="512">
<g>
	<path d="M467,73.608H45c-24.813,0-45,20.187-45,45v110c0,24.813,20.187,45,45,45h117.582   c-9.819,16.349-15.473,35.472-15.473,55.892c0,60.043,48.849,108.892,108.892,108.892S364.892,389.543,364.892,329.5   c0-20.42-5.655-39.542-15.473-55.892H467c24.813,0,45-20.187,45-45v-110C512,93.795,491.813,73.608,467,73.608z M256,408.392   c-43.501,0-78.892-35.391-78.892-78.892s35.391-78.892,78.892-78.892s78.892,35.391,78.892,78.892S299.501,408.392,256,408.392z    M482,228.608c0,8.271-6.729,15-15,15H325.25c-0.738,0-1.458,0.071-2.168,0.174c-18.502-14.512-41.799-23.174-67.083-23.174   c-25.181,0-48.39,8.595-66.855,23H45c-8.271,0-15-6.729-15-15v-110c0-8.271,6.729-15,15-15h422c8.271,0,15,6.729,15,15V228.608z"/>
	<path d="M134.641,153.608c-3.99-6.911-12.644-9.427-19.687-5.901c-0.469-7.862-6.975-14.099-14.954-14.099   c-7.98,0-14.486,6.236-14.954,14.098c-7.043-3.526-15.696-1.009-19.686,5.902c-3.99,6.911-1.842,15.663,4.732,20   c-6.574,4.337-8.722,13.089-4.732,20c2.778,4.813,7.82,7.502,13.004,7.502c2.259,0,4.545-0.514,6.682-1.583   c0.477,7.854,6.98,14.081,14.954,14.081c7.974,0,14.476-6.227,14.954-14.081c2.138,1.07,4.423,1.584,6.683,1.584   c5.184,0,10.227-2.69,13.004-7.502c3.99-6.911,1.842-15.663-4.732-20C136.483,169.272,138.631,160.519,134.641,153.608z"/>
	<path d="M238.641,153.608c-3.99-6.911-12.644-9.427-19.687-5.901c-0.469-7.862-6.975-14.099-14.954-14.099   c-7.98,0-14.486,6.236-14.954,14.098c-7.044-3.526-15.696-1.009-19.686,5.902c-3.99,6.911-1.842,15.663,4.732,20   c-6.574,4.337-8.722,13.089-4.732,20c2.778,4.813,7.82,7.502,13.004,7.502c2.259,0,4.545-0.514,6.682-1.583   c0.477,7.854,6.98,14.081,14.954,14.081c7.974,0,14.476-6.227,14.954-14.081c2.138,1.07,4.423,1.584,6.683,1.584   c5.184,0,10.227-2.69,13.004-7.502c3.99-6.911,1.842-15.663-4.732-20C240.483,169.272,242.631,160.519,238.641,153.608z"/>
	<path d="M342.641,153.608c-3.99-6.911-12.644-9.427-19.687-5.901c-0.469-7.862-6.975-14.099-14.954-14.099   c-7.98,0-14.486,6.236-14.954,14.098c-7.043-3.526-15.696-1.009-19.686,5.902c-3.99,6.911-1.842,15.663,4.732,20   c-6.574,4.337-8.722,13.089-4.732,20c2.778,4.813,7.82,7.502,13.004,7.502c2.259,0,4.545-0.514,6.682-1.583   c0.477,7.854,6.98,14.081,14.954,14.081c7.974,0,14.476-6.227,14.954-14.081c2.138,1.07,4.423,1.584,6.683,1.584   c5.184,0,10.227-2.69,13.004-7.502c3.99-6.911,1.842-15.663-4.732-20C344.483,169.272,346.631,160.519,342.641,153.608z"/>
	<path d="M446.641,153.608c-3.99-6.911-12.643-9.427-19.687-5.901c-0.469-7.862-6.975-14.099-14.954-14.099   c-7.98,0-14.486,6.236-14.954,14.098c-7.043-3.526-15.697-1.009-19.686,5.902c-3.99,6.911-1.842,15.663,4.732,20   c-6.574,4.337-8.722,13.089-4.732,20c2.778,4.813,7.82,7.502,13.004,7.502c2.259,0,4.545-0.514,6.682-1.583   c0.477,7.854,6.98,14.081,14.954,14.081c7.974,0,14.476-6.227,14.954-14.081c2.138,1.07,4.423,1.584,6.683,1.584   c5.184,0,10.227-2.69,13.004-7.502c3.99-6.911,1.842-15.663-4.732-20C448.483,169.272,450.631,160.519,446.641,153.608z"/>
	<path d="M292.606,292.894c-5.858-5.858-15.355-5.858-21.213,0L256,308.287l-15.394-15.393c-5.857-5.858-15.355-5.858-21.213,0   c-5.858,5.858-5.858,15.355,0,21.213l15.393,15.393l-15.393,15.393c-5.858,5.857-5.858,15.355,0,21.213   c2.929,2.929,6.767,4.394,10.606,4.394c3.838,0,7.678-1.465,10.606-4.394L256,350.713l15.394,15.393   c2.929,2.929,6.768,4.394,10.606,4.394s7.678-1.464,10.606-4.394c5.858-5.858,5.858-15.355,0-21.213L277.213,329.5l15.393-15.393   C298.464,308.249,298.464,298.751,292.606,292.894z"/>
</g>















</svg>
