<?xml version="1.0"?>
<svg xmlns="http://www.w3.org/2000/svg" xmlns:xlink="http://www.w3.org/1999/xlink" xmlns:svgjs="http://svgjs.com/svgjs" version="1.1" width="512" height="512" x="0" y="0" viewBox="0 0 512.375 512.375" style="enable-background:new 0 0 512 512" xml:space="preserve" class=""><g><g xmlns="http://www.w3.org/2000/svg"><circle cx="301.682" cy="65.92" r="46.09" fill="#ffffff" data-original="#000000" style=""/><path d="m241.663 352.58 6.949-4.777h-58.024l17.879 115.61c2.1 13.576 14.808 22.878 28.381 20.779 13.576-2.099 22.879-14.806 20.779-28.381z" fill="#ffffff" data-original="#000000" style=""/><path d="m340.572 353.909-15.758 101.901c-2.323 15.021 9.282 28.683 24.611 28.676 12.058-.001 22.649-8.788 24.549-21.074l17.878-115.61h-61.782z" fill="#ffffff" data-original="#000000" style=""/><path d="m156.462 42.615h9.05c.874 0 1.539.785 1.395 1.648l-4.274 25.564c-.244 1.458 1.63 2.265 2.522 1.088l27.117-35.769c.706-.932.042-2.269-1.127-2.269h-6.527c-.934 0-1.611-.889-1.364-1.789l8.047-29.298c.247-.9-.43-1.789-1.364-1.789h-29.674c-.729 0-1.339.554-1.408 1.28l-3.801 39.786c-.079.829.574 1.548 1.408 1.548z" fill="#ffffff" data-original="#000000" style=""/><path d="m440.602 180.527c5.846 1.193 11.621-2.559 12.828-8.481l9.193-45.06c.711-3.482-.338-6.907-2.525-9.379.381-1.866 3.187-15.621 3.53-17.3 1.693.135 3.228-1.095 3.392-2.833l2.274-24.068c.152-1.606-.932-3.068-2.512-3.391l-6.974-1.423c-1.581-.323-3.15.598-3.64 2.136l-7.337 23.035c-.53 1.664.4 3.397 2.011 3.935-1.02 5-2.466 12.084-3.53 17.301-2.98 1.417-5.288 4.157-5.998 7.639l-9.193 45.06c-1.2 5.884 2.597 11.628 8.481 12.829z" fill="#ffffff" data-original="#000000" style=""/><path d="m445.403 283.56h-40.839c7.496-1.591 13.795-6.975 16.389-14.437l27.179-78.176c-3.254.83-6.515.885-9.704.234-11.77-2.401-19.364-13.888-16.963-25.657l3.488-17.094c-6.282 2.123-11.562 7-13.909 13.749l-9.878 28.413-8.815-28.463c-6.563-21.191-25.878-35.429-48.062-35.429-26.077 0-56.678 0-82.542 0 2.453 3.98 3.872 8.662 3.872 13.671v83.388h17.009c21.02 0 38.06 17.04 38.06 38.06 0 8.085-2.529 15.576-6.827 21.74h-26.571c10.042-2.144 17.576-11.059 17.576-21.74 0-12.282-9.957-22.238-22.238-22.238h-17.008v1.383c0 14.411-11.724 26.135-26.136 26.135h-43.403v16.46h-13.049v-29.509h56.453c7.227 0 13.086-5.859 13.086-13.086v-100.593c0-7.227-5.859-13.086-13.086-13.086h-168.125c-7.227 0-13.086 5.859-13.086 13.086v100.593c0 7.227 5.859 13.086 13.086 13.086h56.453v29.509h-13.049-47.792c-14.073 0-25.481 11.408-25.481 25.481s11.408 25.481 25.481 25.481h.057v161.542c0 9.009 7.303 16.312 16.312 16.312s16.312-7.303 16.312-16.312v-161.541h55.77 258.651v161.542c0 9.009 7.303 16.312 16.312 16.312s16.312-7.303 16.312-16.312v-161.574c13.472-.674 24.188-11.809 24.188-25.449-.002-14.073-11.41-25.481-25.483-25.481zm-289.981-72.624c-10.153 0-18.383-8.23-18.383-18.383s8.23-18.383 18.383-18.383 18.383 8.23 18.383 18.383-8.23 18.383-18.383 18.383zm212.324 72.624v-50.543l10.959 35.382c2.416 7.799 8.86 13.514 16.636 15.161z" fill="#ffffff" data-original="#000000" style=""/></g></g></svg>
