<?xml version="1.0" encoding="UTF-8"?>
<!-- Generator: visioncortex VTracer 0.6.3 -->
<svg version="1.1" xmlns="http://www.w3.org/2000/svg" width="1280" height="1280">
<path d="M0 0 C0.33 0.66 0.66 1.32 1 2 C1.78 1.68 2.57 1.35 3.38 1.02 C8 -0.28 12.22 -0.27 17 -0.24 C17.99 -0.24 18.98 -0.25 20 -0.25 C23.26 -0.25 26.53 -0.24 29.79 -0.23 C32.06 -0.23 34.34 -0.23 36.61 -0.23 C41.36 -0.23 46.11 -0.22 50.87 -0.21 C56.97 -0.19 63.07 -0.18 69.17 -0.19 C73.85 -0.19 78.54 -0.18 83.23 -0.17 C85.48 -0.17 87.73 -0.17 89.98 -0.17 C93.11 -0.16 96.25 -0.16 99.39 -0.15 C100.32 -0.15 101.26 -0.15 102.22 -0.15 C103.5 -0.14 103.5 -0.14 104.81 -0.13 C105.55 -0.13 106.29 -0.13 107.05 -0.13 C109 0 109 0 112 1 C113.57 1.19 115.15 1.34 116.73 1.46 C117.67 1.54 118.61 1.62 119.58 1.7 C120.58 1.78 121.59 1.86 122.62 1.94 C136.87 3.13 150.89 4.68 164.95 7.27 C169.84 8.17 174.74 8.88 179.66 9.57 C182 10 182 10 183 11 C185.54 11.47 188.07 11.9 190.62 12.31 C200.09 13.9 209.19 16.3 218.41 19 C223.07 20.3 227.78 21.36 232.51 22.41 C237.8 23.62 242.87 25.23 248 27 C249.66 27.55 251.32 28.1 252.98 28.65 C279.35 37.38 279.35 37.38 292.1 42.8 C297.65 45.1 303.31 47.1 309 49 C309 49.66 309 50.32 309 51 C310.49 50.51 310.49 50.51 312 50 C312 50.66 312 51.32 312 52 C314.64 52.66 317.28 53.32 320 54 C320 54.66 320 55.32 320 56 C320.64 56.08 321.28 56.16 321.94 56.25 C326.22 57.3 330.01 59.14 334 61 C335.68 61.77 335.68 61.77 337.4 62.56 C346.36 66.68 346.36 66.68 349 68 C349 68.66 349 69.32 349 70 C349.7 70.1 350.4 70.21 351.12 70.31 C354.39 71.09 357.05 72.42 360 74 C360 74.66 360 75.32 360 76 C360.74 76.12 361.49 76.25 362.25 76.38 C364.8 76.95 366.73 77.74 369 79 C369 79.66 369 80.32 369 81 C370.49 80.5 370.49 80.5 372 80 C372.33 80.99 372.66 81.98 373 83 C375.13 84.04 375.13 84.04 378 85 C379.61 85.7 381.21 86.41 382.81 87.12 C383.6 87.48 384.39 87.83 385.21 88.2 C385.8 88.46 386.39 88.73 387 89 C387 89.66 387 90.32 387 91 C387.74 91.29 388.49 91.58 389.25 91.88 C391.57 92.82 393.78 93.85 396 95 C396 95.66 396 96.32 396 97 C396.93 97.1 397.86 97.21 398.81 97.31 C402.18 98.04 402.83 98.53 405 101 C405.66 101.33 406.32 101.66 407 102 C409 103 409 103 410.5 104.56 C412.27 106.26 413.61 106.59 416 107 C416 107.66 416 108.32 416 109 C416.66 109 417.32 109 418 109 C418 109.66 418 110.32 418 111 C418.99 111 419.98 111 421 111 C423 113 423 113 424 115 C425.31 115.7 426.65 116.36 428 117 C437.05 122.11 437.05 122.11 439 126 C439.66 126 440.32 126 441 126 C441 126.66 441 127.32 441 128 C441.56 128.08 442.11 128.16 442.69 128.25 C445.71 129.23 447.59 130.96 450 133 C450.99 133.66 451.98 134.32 453 135 C453 135.66 453 136.32 453 137 C454.65 137.33 456.3 137.66 458 138 C458 138.99 458 139.98 458 141 C460.01 142.02 462.02 143.01 464.07 143.93 C464.75 144.24 465.43 144.55 466.12 144.88 C466.81 145.18 467.49 145.49 468.2 145.8 C470.41 147.27 470.87 148.63 472 151 C473.66 152.73 473.66 152.73 475.62 154.31 C476.34 154.92 477.05 155.52 477.79 156.14 C478.88 157.06 478.88 157.06 480 158 C481.36 159.18 482.71 160.37 484.06 161.56 C485.96 163.23 487.86 164.89 489.81 166.49 C493.75 169.74 497.07 173.23 500.32 177.17 C502.07 179.08 503.91 180.49 506 182 C508 184 508 184 510.38 186.88 C514.8 192.07 519.72 196.8 524.58 201.59 C525.93 202.93 527.27 204.27 528.61 205.62 C530.11 207.11 531.61 208.59 533.13 210.06 C534.12 211.02 534.12 211.02 535.12 212 C536.12 212.96 536.12 212.96 537.13 213.94 C539 216 539 216 540.4 218.4 C542.36 221.59 544.83 224.04 547.5 226.62 C547.99 227.1 548.47 227.58 548.97 228.07 C550.9 229.96 552.84 231.85 554.81 233.7 C556.32 235.35 556.5 236.85 557 239 C557.66 239.33 558.32 239.66 559 240 C559 240.66 559 241.32 559 242 C559.66 242 560.32 242 561 242 C562.25 243.68 562.25 243.68 563.56 245.88 C564 246.59 564.43 247.31 564.88 248.05 C565.62 249.35 566.33 250.66 567 252 C567.99 252.66 568.98 253.32 570 254 C570.66 254.99 571.32 255.98 572 257 C572.98 258.27 573.95 259.54 574.94 260.81 C577.4 264.06 579.21 267.33 581 271 C581.98 272.02 582.98 273.02 584 274 C584.33 274.68 584.66 275.36 585 276.06 C585.97 278.33 585.97 278.33 589 280 C589.68 281.66 590.35 283.33 591 285 C591.52 285.52 592.03 286.03 592.56 286.56 C594.29 288.29 594.59 289.62 595 292 C595.66 292 596.32 292 597 292 C597 292.99 597 293.98 597 295 C597.66 295.33 598.32 295.66 599 296 C599.93 297.67 599.93 297.67 600.88 299.75 C602.54 303.25 604.57 305.98 607 309 C607.33 310.33 607.67 311.67 608 313 C609.33 314.67 610.66 316.34 612 318 C613.25 320.81 613.25 320.81 614 323 C614.66 323 615.32 323 616 323 C616 324.65 616 326.3 616 328 C616.99 328 617.98 328 619 328 C619.45 329.22 619.91 330.43 620.38 331.69 C620.92 333.13 621.46 334.56 622 336 C622.33 336.89 622.66 337.77 623 338.69 C623.99 341.12 623.99 341.12 625.62 343.69 C627 346 627 346 627 348 C627.66 348 628.32 348 629 348 C629.45 349.22 629.91 350.43 630.38 351.69 C630.65 352.42 630.93 353.15 631.22 353.91 C631.8 355.47 632.35 357.04 632.88 358.62 C634 361.26 634 361.26 636.56 364 C638.99 366.99 639.61 368.28 640 372 C640.63 374.95 641.62 377.32 643 380 C643.33 380.99 643.66 381.98 644 383 C644.66 383 645.32 383 646 383 C645.94 383.78 645.88 384.57 645.81 385.38 C645.87 386.24 645.94 387.11 646 388 C646.99 388.66 647.98 389.32 649 390 C649.39 392.32 649.72 394.66 650 397 C650.89 399.12 650.89 399.12 652 401 C652.68 402.66 653.35 404.33 654 406 C654.66 406 655.32 406 656 406 C655.98 407.09 655.96 408.19 655.94 409.31 C655.81 412.94 655.81 412.94 657 416 C657.66 416 658.32 416 659 416 C659.99 419.96 660.98 423.92 662 428 C662.66 428 663.32 428 664 428 C664.05 428.58 664.1 429.16 664.15 429.76 C664.6 434.44 665.3 438.57 667 443 C667.66 443 668.32 443 669 443 C669.04 443.6 669.07 444.21 669.11 444.83 C669.51 449.66 670.05 452.11 673 456 C672.67 458 672.34 460 672 462 C673.27 463.86 673.27 463.86 675 465 C677.34 467.34 676.33 473.31 676.43 476.48 C676.7 480.06 676.7 480.06 679 482.37 C681.9 486.18 681.67 489.64 681.75 494.31 C681.78 495.15 681.81 495.98 681.84 496.85 C681.91 498.9 681.96 500.95 682 503 C682.99 503.33 683.98 503.66 685 504 C684.94 505.2 684.88 506.39 684.81 507.62 C684.78 511.76 686.01 514.37 688 518 C687.67 518.66 687.34 519.32 687 520 C686.75 523.5 686.75 523.5 687 527 C687.66 527.66 688.32 528.32 689 529 C689.34 531.86 689.34 531.86 689.5 535.31 C689.7 539.67 690.15 543.03 692 547 C692.33 547 692.66 547 693 547 C693.89 551.35 694.03 555.4 693.97 559.81 C694.01 562.61 694.44 565.26 695 568 C695.33 568 695.66 568 696 568 C696.04 568.85 696.04 568.85 696.08 569.71 C696.19 572.27 696.31 574.82 696.44 577.38 C696.5 578.71 696.5 578.71 696.56 580.07 C696.6 580.92 696.64 581.77 696.68 582.65 C696.72 583.43 696.76 584.22 696.79 585.03 C696.89 587.08 696.89 587.08 698 589 C698.1 590.35 698.14 591.71 698.14 593.07 C698.15 594.34 698.15 594.34 698.16 595.64 C698.16 596.58 698.16 597.52 698.16 598.48 C698.17 599.46 698.17 600.45 698.18 601.46 C698.19 604.73 698.2 607.99 698.2 611.26 C698.21 613.53 698.21 615.8 698.22 618.06 C698.23 622.82 698.24 627.58 698.24 632.35 C698.25 638.44 698.27 644.54 698.3 650.63 C698.32 655.32 698.32 660 698.32 664.69 C698.33 666.94 698.33 669.18 698.35 671.43 C698.36 674.58 698.36 677.73 698.36 680.87 C698.37 681.8 698.37 682.72 698.38 683.68 C698.35 689.26 697.48 693 695 698 C694.53 700.67 694.53 700.67 694.52 703.24 C694.49 704.16 694.46 705.08 694.43 706.03 C694.4 707.44 694.4 707.44 694.38 708.88 C694.32 710.77 694.27 712.66 694.21 714.55 C694.19 715.38 694.18 716.21 694.16 717.07 C694 719 694 719 693 720 C692.81 721.7 692.68 723.41 692.56 725.12 C692.3 728.41 691.96 731.14 691 734.31 C689.69 739.13 689.56 743.82 689.34 748.79 C689.02 751.86 688.39 753.34 687 756 C686.58 758.78 686.58 758.78 686.44 761.69 C686.1 766.9 686.1 766.9 685 768 C685.03 770.03 685.07 772.06 685.16 774.09 C685 776 685 776 683 778 C681.75 782.74 681 787.54 681 792.44 C681 795.27 680.38 796.57 679 799 C678.65 800.33 678.31 801.66 678 803 C677.47 804.45 677.47 804.45 676.94 805.94 C675.86 808.88 675.86 808.88 676.06 811.62 C676 814 676 814 674.62 815.75 C672.55 818.63 672.15 821.24 671.47 824.68 C670.51 829.41 669.4 834.56 667 838.75 C665.82 841.13 665.82 841.13 665.5 844.5 C665.05 847.63 664.56 849.34 663 852 C661.53 854.78 660.44 857.5 659.5 860.5 C658.77 862.83 658.03 864.94 656.91 867.11 C655.76 869.5 655.85 871.38 656 874 C655.01 874.33 654.02 874.66 653 875 C651.9 877.63 651.9 877.63 651 881 C650.51 882.5 650.01 884 649.5 885.5 C648.62 888.14 647.74 890.79 646.88 893.44 C646 896 646 896 645 898 C644.01 898.33 643.02 898.66 642 899 C640.78 901.5 640.78 901.5 640 904 C640.99 904.5 640.99 904.5 642 905 C641.01 907.31 640.02 909.62 639 912 C638.34 912 637.68 912 637 912 C637 912.66 637 913.32 637 914 C636.34 914 635.68 914 635 914 C635.33 914.99 635.66 915.98 636 917 C635.03 918.36 634.02 919.68 633 921 C631.97 923.32 630.96 925.65 630 928 C629.35 929.34 628.69 930.68 628 932 C627.67 932.66 627.34 933.32 627 934 C626.34 934 625.68 934 625 934 C625.33 934.99 625.66 935.98 626 937 C625.02 938.35 624.02 939.68 623 941 C622.47 942.58 622.47 942.58 621.94 944.19 C621 947 621 947 619 948 C618.34 947.67 617.68 947.34 617 947 C617.33 947.99 617.66 948.98 618 950 C617.19 951.81 617.19 951.81 616 954 C615.31 955.99 614.64 957.99 614 960 C612.68 959.67 611.36 959.34 610 959 C610.33 959.99 610.66 960.98 611 962 C610.03 963.36 609.03 964.69 608 966 C607.21 967.89 606.48 969.81 605.81 971.75 C605.47 972.73 605.12 973.72 604.77 974.73 C604.39 975.86 604.39 975.86 604 977 C603.01 977 602.02 977 601 977 C600.9 977.95 600.79 978.9 600.69 979.88 C600 983 600 983 597 985 C596.34 984.67 595.68 984.34 595 984 C595.33 984.99 595.66 985.98 596 987 C595.19 989.63 595.19 989.63 594 992 C593.34 992.33 592.68 992.66 592 993 C591.34 992.67 590.68 992.34 590 992 C590.33 992.99 590.66 993.98 591 995 C590.06 997.69 590.06 997.69 589 1000 C587.68 999.67 586.36 999.34 585 999 C585.33 999.99 585.66 1000.98 586 1002 C584.56 1005.19 584.56 1005.19 583 1008 C582.01 1007.67 581.02 1007.34 580 1007 C580.33 1007.99 580.66 1008.98 581 1010 C580.55 1010.39 580.09 1010.78 579.62 1011.19 C577.83 1012.97 577.83 1012.97 577 1015.62 C576.67 1016.41 576.34 1017.19 576 1018 C575.01 1018.33 574.02 1018.66 573 1019 C571.84 1020.83 571.84 1020.83 570.94 1023 C569.2 1026.9 569.2 1026.9 567 1028 C566.34 1027.67 565.68 1027.34 565 1027 C565.33 1027.99 565.66 1028.98 566 1030 C564.87 1032.69 564.87 1032.69 563 1035 C560.31 1035.31 560.31 1035.31 558 1035 C557.77 1035.99 557.55 1036.98 557.31 1038 C555.25 1045.09 551.35 1050.19 545.55 1054.68 C543.73 1056.11 543.73 1056.11 542 1059 C541.34 1059 540.68 1059 540 1059 C539.77 1059.88 539.55 1060.75 539.32 1061.65 C537.77 1065.57 535.92 1067.58 532.94 1070.55 C532.43 1071.06 531.91 1071.58 531.38 1072.12 C529.69 1073.81 527.99 1075.5 526.28 1077.18 C525.1 1078.36 523.92 1079.54 522.74 1080.72 C520.27 1083.18 517.8 1085.64 515.31 1088.1 C512.13 1091.25 508.96 1094.41 505.79 1097.58 C503.36 1100.01 500.92 1102.44 498.48 1104.87 C497.31 1106.03 496.14 1107.2 494.97 1108.37 C493.34 1109.99 491.7 1111.61 490.06 1113.23 C489.13 1114.15 488.2 1115.08 487.24 1116.03 C485 1118 485 1118 483 1118 C482.67 1118.99 482.34 1119.98 482 1121 C480.36 1122.04 478.69 1123.03 477 1124 C475.43 1125.3 473.88 1126.63 472.38 1128 C471.24 1129.02 471.24 1129.02 470.09 1130.06 C468.35 1131.67 466.66 1133.31 465 1135 C464.01 1134.67 463.02 1134.34 462 1134 C462 1134.99 462 1135.98 462 1137 C460.39 1138.82 460.39 1138.82 458.25 1140.69 C457.55 1141.31 456.86 1141.93 456.14 1142.57 C454 1144 454 1144 450 1144 C449.75 1144.62 449.51 1145.24 449.25 1145.88 C447.79 1148.35 446.62 1148.95 444 1150 C444 1150.66 444 1151.32 444 1152 C441 1151 441 1151 440 1150 C439.9 1150.64 439.79 1151.28 439.69 1151.94 C439.46 1152.62 439.23 1153.3 439 1154 C438.01 1154.33 437.02 1154.66 436 1155 C436 1155.99 436 1156.98 436 1158 C434.68 1157.67 433.36 1157.34 432 1157 C432 1157.66 432 1158.32 432 1159 C431.34 1159 430.68 1159 430 1159 C429.34 1160.32 428.68 1161.64 428 1163 C427.01 1162.67 426.02 1162.34 425 1162 C425.33 1162.99 425.66 1163.98 426 1165 C423.13 1166.47 420.33 1167.88 417.31 1169 C414.95 1170.02 413.67 1171.07 412 1173 C411.34 1172.67 410.68 1172.34 410 1172 C410.33 1172.99 410.66 1173.98 411 1175 C410.01 1175 409.02 1175 408 1175 C406.42 1176.42 406.42 1176.42 405 1178 C404.34 1178.33 403.68 1178.66 403 1179 C402.67 1179.66 402.34 1180.32 402 1181 C401.2 1181.12 400.39 1181.25 399.56 1181.38 C398.72 1181.58 397.87 1181.79 397 1182 C396.69 1182.64 396.38 1183.28 396.06 1183.94 C395 1186 395 1186 392 1187.31 C389 1188 389 1188 387 1187 C387 1187.66 387 1188.32 387 1189 C386.4 1189.1 385.8 1189.21 385.19 1189.31 C382.69 1190.1 381.74 1191.1 380 1193 C379.34 1193.33 378.68 1193.66 378 1194 C378 1194.66 378 1195.32 378 1196 C376.21 1196.7 374.42 1197.38 372.62 1198.06 C371.13 1198.64 371.13 1198.64 369.6 1199.22 C367 1200 367 1200 365 1199 C364.34 1200.32 363.68 1201.64 363 1203 C362.01 1202.67 361.02 1202.34 360 1202 C360.33 1202.99 360.66 1203.98 361 1205 C360.42 1205.1 359.85 1205.21 359.25 1205.31 C356.93 1205.88 356.93 1205.88 355.12 1207.44 C352.56 1209.33 350.01 1210 347 1211 C345.66 1211.99 344.32 1212.99 343 1214 C340.88 1214.75 340.88 1214.75 339 1215 C338.34 1214.67 337.68 1214.34 337 1214 C336.79 1214.62 336.59 1215.24 336.38 1215.88 C334.43 1218.88 332.41 1219.22 329 1220 C328.34 1219.67 327.68 1219.34 327 1219 C327 1219.66 327 1220.32 327 1221 C325.33 1221.67 323.67 1222.33 322 1223 C320.67 1223.59 320.67 1223.59 319.31 1224.19 C318.55 1224.46 317.79 1224.72 317 1225 C316.34 1224.67 315.68 1224.34 315 1224 C314.79 1224.6 314.59 1225.2 314.38 1225.81 C311.78 1229.95 307.26 1231.02 302.75 1232.25 C299 1233 299 1233 297 1232 C297 1232.66 297 1233.32 297 1234 C296.01 1234.33 295.02 1234.66 294 1235 C293.34 1234.67 292.68 1234.34 292 1234 C292 1234.66 292 1235.32 292 1236 C289.31 1237.11 286.65 1238.11 283.88 1239 C280.85 1239.92 280.85 1239.92 278 1242 C276.13 1242.56 276.13 1242.56 274.12 1243 C270.93 1243.75 268.03 1244.72 265 1246 C263 1246.68 261 1247.35 259 1248 C258.07 1248.31 257.14 1248.62 256.19 1248.94 C255.14 1249.29 254.08 1249.64 253 1250 C251.96 1250.36 251.96 1250.36 250.9 1250.72 C247.18 1251.99 243.52 1253.14 239.69 1254 C236.21 1254.94 234.77 1255.9 232 1258 C229.38 1258.12 229.38 1258.12 227 1258 C226.34 1258.33 225.68 1258.66 225 1259 C223.33 1259.19 223.33 1259.19 221.62 1259.38 C218.07 1259.69 218.07 1259.69 216 1261.56 C213.07 1263.67 210.52 1263.13 207 1263 C206.34 1263.33 205.68 1263.66 205 1264 C203.91 1263.96 202.81 1263.92 201.69 1263.88 C198.04 1263.7 198.04 1263.7 195.5 1265.5 C192.23 1267.46 189.75 1267.14 186 1267 C185.67 1267.33 185.34 1267.66 185 1268 C181.45 1268.54 177.89 1268.97 174.32 1269.4 C170.88 1269.79 170.88 1269.79 168 1272 C165.22 1272.16 165.22 1272.16 162.06 1272.06 C158.44 1271.96 155.48 1272.05 152 1273 C148.34 1273.53 144.68 1274.02 141.02 1274.5 C138.13 1274.68 138.13 1274.68 137 1276 C135.35 1276.12 133.7 1276.18 132.05 1276.21 C131.03 1276.24 130.02 1276.27 128.98 1276.3 C126.84 1276.35 124.7 1276.39 122.57 1276.43 C121.55 1276.46 120.53 1276.49 119.48 1276.52 C118.55 1276.54 117.62 1276.56 116.66 1276.58 C113.94 1276.8 113.94 1276.8 111.95 1278.5 C107.7 1280.66 103.88 1280.42 99.18 1280.39 C98.2 1280.39 97.21 1280.4 96.2 1280.4 C92.95 1280.42 89.7 1280.41 86.45 1280.4 C84.18 1280.4 81.92 1280.4 79.66 1280.41 C74.91 1280.41 70.17 1280.41 65.43 1280.39 C59.36 1280.37 53.29 1280.38 47.21 1280.4 C42.54 1280.41 37.87 1280.41 33.19 1280.4 C30.95 1280.4 28.72 1280.4 26.48 1280.41 C23.34 1280.42 20.21 1280.4 17.08 1280.39 C16.16 1280.39 15.24 1280.4 14.29 1280.41 C8.73 1280.35 4.98 1279.46 0 1277 C-2.64 1276.55 -2.64 1276.55 -5.17 1276.56 C-6.54 1276.52 -6.54 1276.52 -7.93 1276.48 C-8.86 1276.46 -9.79 1276.45 -10.75 1276.44 C-12.62 1276.4 -14.49 1276.36 -16.36 1276.31 C-17.59 1276.29 -17.59 1276.29 -18.84 1276.27 C-21 1276 -21 1276 -24 1274 C-26.35 1273.91 -28.71 1273.92 -31.06 1274 C-33.37 1274.08 -35.69 1274.09 -38 1274 C-38.66 1273.34 -39.32 1272.68 -40 1272 C-42.53 1271.57 -42.53 1271.57 -45.38 1271.44 C-48.73 1271.22 -51.75 1270.84 -55 1270 C-57.27 1269.62 -59.54 1269.27 -61.81 1268.94 C-62.99 1268.76 -64.18 1268.58 -65.39 1268.4 C-68.96 1268 -72.41 1267.93 -76 1268 C-76.33 1267.34 -76.66 1266.68 -77 1266 C-79.99 1264.11 -82.19 1263.79 -85.69 1263.94 C-87.12 1263.99 -88.56 1264.02 -90 1264 C-90.33 1263.67 -90.66 1263.34 -91 1263 C-91.93 1263.02 -92.86 1263.04 -93.81 1263.06 C-98.09 1262.98 -100.02 1261.98 -103 1259 C-105.33 1258.96 -107.67 1258.96 -110 1259 C-110.33 1258.67 -110.66 1258.34 -111 1258 C-112.67 1257.96 -114.33 1257.96 -116 1258 C-116.33 1257.01 -116.66 1256.02 -117 1255 C-117.79 1254.88 -118.57 1254.76 -119.38 1254.63 C-134.11 1252.28 -134.11 1252.28 -141 1248 C-142.9 1247.4 -142.9 1247.4 -145 1247 C-146.13 1246.67 -147.27 1246.34 -148.44 1246 C-151.81 1244.97 -151.81 1244.97 -154.56 1244.62 C-157 1244 -157 1244 -159.5 1242.06 C-164.19 1238.65 -170.4 1238.63 -176 1238 C-176.33 1237.01 -176.66 1236.02 -177 1235 C-178.64 1234.46 -180.29 1233.94 -181.97 1233.53 C-186.59 1232.33 -190.94 1230.54 -195.19 1228.38 C-197.85 1227.07 -200.08 1226.43 -203 1226 C-203.33 1225.01 -203.66 1224.02 -204 1223 C-207.3 1222.34 -210.6 1221.68 -214 1221 C-214 1220.34 -214 1219.68 -214 1219 C-214.68 1218.92 -215.36 1218.84 -216.06 1218.75 C-219.87 1217.78 -222.64 1216.04 -226 1214 C-226 1213.34 -226 1212.68 -226 1212 C-226.99 1212.33 -227.98 1212.66 -229 1213 C-231 1211.62 -231 1211.62 -233 1210 C-233.99 1209.67 -234.98 1209.34 -236 1209 C-236 1208.34 -236 1207.68 -236 1207 C-236.99 1207.33 -237.98 1207.66 -239 1208 C-240.36 1207.03 -241.68 1206.02 -243 1205 C-244.15 1204.53 -245.31 1204.05 -246.5 1203.56 C-249.91 1202.04 -251.46 1200.63 -254 1198 C-255.98 1197.34 -255.98 1197.34 -258 1197 C-259.33 1196.33 -260.67 1195.67 -262 1195 C-262.66 1195 -263.32 1195 -264 1195 C-264 1194.01 -264 1193.02 -264 1192 C-265.32 1192.33 -266.64 1192.66 -268 1193 C-268.33 1191.68 -268.66 1190.36 -269 1189 C-269.74 1188.9 -270.49 1188.79 -271.25 1188.69 C-274.2 1187.95 -275.69 1186.91 -278 1185 C-278.66 1184.67 -279.32 1184.34 -280 1184 C-280.99 1183.34 -281.98 1182.68 -283 1182 C-283.99 1181.51 -284.98 1181.01 -286 1180.5 C-289.42 1178.79 -292.05 1176.95 -294.94 1174.44 C-297.67 1172.26 -298.75 1171.58 -302 1171 C-302.66 1170.34 -303.32 1169.68 -304 1169 C-304.99 1168.34 -305.98 1167.68 -307 1167 C-308.02 1166.02 -309.02 1165.02 -310 1164 C-309.67 1163.34 -309.34 1162.68 -309 1162 C-309.99 1162.33 -310.98 1162.66 -312 1163 C-314.6 1161.98 -316.01 1160.99 -318 1159 C-318.99 1158.34 -319.98 1157.68 -321 1157 C-321.45 1156.34 -321.91 1155.68 -322.38 1155 C-324.38 1152.53 -326.07 1152.16 -329 1151 C-331.04 1149.38 -333.04 1147.71 -335 1146 C-336.66 1144.66 -338.33 1143.33 -340 1142 C-350 1134 -350 1134 -352.62 1131.88 C-355.05 1129.91 -355.05 1129.91 -358 1128 C-358.78 1127.03 -359.57 1126.06 -360.38 1125.06 C-362.62 1122.28 -364.85 1120.73 -368 1119 C-371.23 1116.7 -373.76 1114.19 -376.31 1111.19 C-378.72 1108.37 -381.17 1105.89 -384 1103.5 C-386.56 1101.34 -388.8 1099.16 -390.94 1096.59 C-394.19 1092.82 -397.62 1089.31 -401.15 1085.82 C-401.7 1085.28 -402.25 1084.73 -402.82 1084.17 C-405.11 1081.91 -407.4 1079.65 -409.7 1077.39 C-411.4 1075.73 -413.09 1074.06 -414.78 1072.38 C-415.3 1071.87 -415.83 1071.36 -416.37 1070.83 C-417.62 1069.59 -418.81 1068.3 -420 1067 C-420 1066.34 -420 1065.68 -420 1065 C-420.99 1064.67 -421.98 1064.34 -423 1064 C-423 1063.34 -423 1062.68 -423 1062 C-423.66 1061.67 -424.32 1061.34 -425 1061 C-425.99 1059.92 -426.94 1058.81 -427.88 1057.69 C-429.65 1055.57 -431.39 1053.62 -433.38 1051.69 C-435 1050 -435 1050 -435 1048 C-435.99 1047.67 -436.98 1047.34 -438 1047 C-438.33 1046.01 -438.66 1045.02 -439 1044 C-439.66 1043.67 -440.32 1043.34 -441 1043 C-442 1041.33 -443 1039.67 -444 1038 C-446.09 1035.41 -448.22 1032.88 -450.43 1030.39 C-454 1026.31 -454 1026.31 -454 1023 C-454.66 1023 -455.32 1023 -456 1023 C-456 1022.34 -456 1021.68 -456 1021 C-456.66 1020.67 -457.32 1020.34 -458 1020 C-458.66 1019.67 -459.32 1019.34 -460 1019 C-460.62 1016.44 -460.62 1016.44 -461 1014 C-461.66 1014 -462.32 1014 -463 1014 C-463 1013.34 -463 1012.68 -463 1012 C-463.66 1011.67 -464.32 1011.34 -465 1011 C-466.1 1009.24 -467.04 1007.43 -468 1005.59 C-468.92 1003.82 -468.92 1003.82 -471 1003 C-471 1002.01 -471 1001.02 -471 1000 C-471.64 999.79 -472.28 999.59 -472.94 999.38 C-473.96 998.69 -473.96 998.69 -475 998 C-475.33 996 -475.67 994 -476 992 C-477.97 990.85 -477.97 990.85 -480 990 C-480.35 988.67 -480.69 987.34 -481 986 C-482.31 984.65 -483.65 983.31 -485 982 C-486.25 979.9 -486.96 978.19 -487.5 975.81 C-487.67 975.21 -487.83 974.62 -488 974 C-488.66 973.67 -489.32 973.34 -490 973 C-490.62 970.94 -490.62 970.94 -491 969 C-491.66 969 -492.32 969 -493 969 C-496 963.38 -496 963.38 -496 960 C-496.66 959.67 -497.32 959.34 -498 959 C-499.37 957.03 -500.71 955.03 -502 953 C-501.67 952.34 -501.34 951.68 -501 951 C-501.66 950.67 -502.32 950.34 -503 950 C-503.5 948.51 -503.5 948.51 -504 947 C-504.66 946.67 -505.32 946.34 -506 946 C-506.7 944.35 -507.36 942.68 -508 941 C-509.54 938.15 -511.15 935.34 -512.76 932.52 C-514 930 -514 930 -514 927 C-514.99 926.67 -515.98 926.34 -517 926 C-517.71 923.69 -518.01 921.42 -518.38 919.03 C-518.58 918.36 -518.79 917.69 -519 917 C-519.99 916.67 -520.98 916.34 -522 916 C-522.91 914.11 -522.91 914.11 -523.62 911.75 C-523.99 910.54 -523.99 910.54 -524.37 909.3 C-525.03 906.88 -525.6 904.48 -526 902 C-526.66 902 -527.32 902 -528 902 C-528.51 900.73 -529 899.46 -529.5 898.19 C-529.78 897.48 -530.06 896.77 -530.34 896.04 C-531 894 -531 894 -531 891 C-531.66 891 -532.32 891 -533 891 C-533.24 890.25 -533.48 889.5 -533.73 888.73 C-535.7 882.73 -537.79 876.86 -540.27 871.06 C-541 869 -541 869 -541 866 C-541.66 866 -542.32 866 -543 866 C-543.25 865.15 -543.51 864.31 -543.77 863.44 C-545.91 856.25 -545.91 856.25 -548.44 849.19 C-550.23 844.58 -551.64 839.85 -553.09 835.13 C-554.36 831 -555.71 826.9 -557.12 822.81 C-558.87 817.64 -560.14 812.44 -561.29 807.11 C-561.91 804.41 -562.64 801.78 -563.41 799.12 C-564.75 794.28 -565.89 789.38 -567.06 784.5 C-567.47 782.85 -567.47 782.85 -567.88 781.16 C-569.17 775.78 -570.29 770.49 -571 765 C-571.46 763.42 -571.46 763.42 -571.94 761.81 C-574.09 754.08 -575.1 746.14 -575.75 738.16 C-575.95 736.04 -575.95 736.04 -576.47 734.16 C-577.47 730.08 -577.93 725.9 -578.5 721.75 C-578.63 720.77 -578.77 719.8 -578.91 718.79 C-579.87 711.54 -580.47 704.33 -580.79 697.02 C-580.88 693.95 -580.88 693.95 -582 691 C-582.09 689.61 -582.13 688.21 -582.13 686.81 C-582.13 685.96 -582.13 685.11 -582.14 684.23 C-582.13 683.3 -582.13 682.37 -582.13 681.41 C-582.13 680.42 -582.13 679.44 -582.13 678.43 C-582.14 675.16 -582.14 671.9 -582.13 668.64 C-582.13 666.37 -582.13 664.11 -582.14 661.84 C-582.14 657.09 -582.14 652.33 -582.13 647.58 C-582.12 641.49 -582.13 635.4 -582.13 629.32 C-582.14 624.63 -582.14 619.95 -582.13 615.27 C-582.13 613.03 -582.13 610.78 -582.14 608.54 C-582.14 605.4 -582.13 602.25 -582.13 599.11 C-582.13 598.19 -582.13 597.26 -582.14 596.31 C-582.12 591.43 -581.81 586.82 -581 582 C-580.88 580.67 -580.79 579.33 -580.72 577.99 C-580.68 577.32 -580.64 576.64 -580.61 575.94 C-580.53 574.56 -580.46 573.17 -580.39 571.79 C-580.19 568.09 -579.75 564.62 -579 561 C-578.52 557.3 -578.14 553.59 -577.75 549.89 C-577.11 544.11 -577.11 544.11 -576 543 C-575.77 540.82 -575.59 538.63 -575.44 536.44 C-575.35 535.24 -575.27 534.04 -575.18 532.81 C-575.12 531.88 -575.06 530.95 -575 530 C-574.34 530 -573.68 530 -573 530 C-573.18 529.46 -573.37 528.91 -573.55 528.35 C-574.11 525.44 -573.69 523.27 -573.12 520.38 C-572.94 519.41 -572.76 518.45 -572.57 517.46 C-572 515 -572 515 -571 513 C-570.82 511.59 -570.68 510.17 -570.56 508.75 C-570.17 504.91 -569.32 501.64 -568 498 C-566.68 493.07 -565.6 488.12 -564.56 483.12 C-563.51 478.16 -562.28 473.34 -560.75 468.5 C-559.89 465.65 -559.2 462.77 -558.5 459.88 C-557.49 455.74 -556.27 451.84 -554.7 447.89 C-553.51 444.66 -552.78 441.35 -552 438 C-551.34 438 -550.68 438 -550 438 C-550.08 437.2 -550.16 436.39 -550.25 435.56 C-549.97 431.51 -548.75 428.92 -547.01 425.3 C-546.05 423.11 -545.45 421.08 -544.94 418.75 C-544 415 -544 415 -542.58 412.66 C-540.84 409.74 -539.84 406.92 -538.81 403.69 C-538.47 402.62 -538.12 401.55 -537.77 400.45 C-537.52 399.64 -537.26 398.83 -537 398 C-536.34 398 -535.68 398 -535 398 C-535.1 396.73 -535.1 396.73 -535.21 395.43 C-534.96 391.38 -533.59 388.55 -531.69 385.06 C-528.49 379.01 -525.68 372.99 -523.31 366.56 C-522.88 365.39 -522.45 364.21 -522 363 C-521.34 363 -520.68 363 -520 363 C-518.51 358.05 -518.51 358.05 -517 353 C-516.34 353 -515.68 353 -515 353 C-514.88 352.28 -514.75 351.56 -514.62 350.81 C-514.01 348.04 -513.12 345.6 -512 343 C-511.34 343 -510.68 343 -510 343 C-509.88 342.28 -509.75 341.56 -509.62 340.81 C-508.11 333.99 -508.11 333.99 -505.66 331.8 C-503.23 329.16 -501.85 326.02 -500.31 322.81 C-499.99 322.16 -499.67 321.5 -499.34 320.83 C-498.56 319.22 -497.78 317.61 -497 316 C-496.34 316 -495.68 316 -495 316 C-493.92 313.35 -492.91 310.72 -492 308 C-491.34 308 -490.68 308 -490 308 C-489.69 307.05 -489.38 306.1 -489.06 305.12 C-488 302 -488 302 -487 300 C-486.34 300 -485.68 300 -485 300 C-484.73 299.28 -484.46 298.57 -484.19 297.83 C-482.98 294.96 -481.59 292.37 -480 289.69 C-479.48 288.8 -478.97 287.92 -478.44 287.01 C-477.73 286.02 -477.73 286.02 -477 285 C-476.34 285 -475.68 285 -475 285 C-474.92 284.28 -474.83 283.56 -474.75 282.81 C-473.82 279.34 -472.34 277.72 -470 275 C-465.92 269.73 -462.12 264.32 -458.53 258.7 C-457.74 257.49 -457.74 257.49 -456.94 256.25 C-456.45 255.49 -455.97 254.73 -455.46 253.95 C-454 252 -454 252 -451 250 C-450.07 248.33 -449.14 246.67 -448.23 244.99 C-446.41 242.04 -444.11 239.59 -441.78 237.03 C-440.1 235.11 -438.61 233.14 -437.12 231.06 C-434.16 227.01 -430.7 223.62 -427.05 220.18 C-424.95 218.11 -424.95 218.11 -423.7 215.71 C-421.72 212.55 -419.32 210.04 -416.69 207.43 C-415.9 206.63 -415.9 206.63 -415.09 205.82 C-413.35 204.07 -411.6 202.33 -409.85 200.59 C-408.63 199.37 -407.42 198.15 -406.2 196.93 C-403.65 194.38 -401.1 191.83 -398.55 189.29 C-395.28 186.03 -392.02 182.77 -388.77 179.5 C-386.26 176.98 -383.74 174.47 -381.23 171.96 C-380.02 170.76 -378.82 169.55 -377.62 168.35 C-375.94 166.67 -374.26 164.99 -372.57 163.31 C-372.08 162.81 -371.59 162.32 -371.08 161.81 C-368.25 159.02 -365.44 156.97 -362 155 C-360.19 153.25 -358.42 151.45 -356.69 149.62 C-353.04 145.86 -349.5 142.75 -344.91 140.19 C-341.87 138.29 -339.36 135.82 -336.76 133.36 C-335 132 -335 132 -332 132 C-332 131.34 -332 130.68 -332 130 C-323.18 122 -323.18 122 -319 122 C-319 121.34 -319 120.68 -319 120 C-317.95 119.42 -316.9 118.84 -315.81 118.25 C-312.61 116.42 -309.85 114.35 -307 112 C-305.8 111.07 -304.59 110.15 -303.38 109.25 C-302.81 108.82 -302.24 108.39 -301.65 107.95 C-300 107 -300 107 -297 107 C-297 106.34 -297 105.68 -297 105 C-294.09 102.96 -292.6 102 -289 102 C-289 101.34 -289 100.68 -289 100 C-284.62 97 -284.62 97 -282 97 C-282 96.34 -282 95.68 -282 95 C-276.25 92 -276.25 92 -274 92 C-274 91.34 -274 90.68 -274 90 C-273.13 89.59 -272.27 89.17 -271.38 88.75 C-268.71 87.37 -266.37 85.88 -263.92 84.18 C-260.28 81.94 -256.37 80.2 -252.51 78.37 C-249.89 77.25 -249.89 77.25 -249 75 C-246.71 74.15 -246.71 74.15 -243.94 73.38 C-243.02 73.11 -242.1 72.85 -241.15 72.59 C-240.09 72.3 -240.09 72.3 -239 72 C-239 71.34 -239 70.68 -239 70 C-235.7 69.01 -232.4 68.02 -229 67 C-229 66.34 -229 65.68 -229 65 C-225.7 64.01 -222.4 63.02 -219 62 C-219 61.34 -219 60.68 -219 60 C-218.32 59.8 -217.64 59.61 -216.94 59.41 C-209.76 57.19 -203.28 54.31 -196.7 50.73 C-192.39 48.46 -188.86 47.42 -184 47 C-184 46.34 -184 45.68 -184 45 C-182.11 44.35 -180.21 43.71 -178.31 43.06 C-177.26 42.7 -176.2 42.34 -175.11 41.97 C-172.41 41.13 -169.79 40.49 -167 40 C-167 39.34 -167 38.68 -167 38 C-164.48 37.18 -161.96 36.37 -159.44 35.56 C-158.73 35.33 -158.03 35.1 -157.3 34.87 C-152.86 33.45 -148.63 32.53 -144 32 C-144 31.34 -144 30.68 -144 30 C-142.99 29.73 -141.97 29.47 -140.93 29.2 C-139.58 28.84 -138.23 28.48 -136.88 28.12 C-136.21 27.95 -135.54 27.78 -134.86 27.6 C-130.85 26.54 -126.93 25.32 -123 24 C-120.67 23.33 -118.33 22.66 -116 22 C-114.63 21.58 -113.25 21.17 -111.88 20.75 C-111.17 20.53 -110.46 20.32 -109.73 20.1 C-108.29 19.66 -106.85 19.21 -105.4 18.77 C-100.59 17.32 -96 16.55 -91 16 C-88.66 15.37 -86.32 14.71 -84 14 C-80.24 12.88 -80.24 12.88 -78 14 C-78 13.34 -78 12.68 -78 12 C-77.29 11.95 -76.57 11.9 -75.84 11.85 C-70.29 11.42 -65.35 10.61 -60 9 C-58.55 8.79 -57.09 8.6 -55.62 8.44 C-52.2 8.4 -52.2 8.4 -51 7 C-47.9 6.68 -44.8 6.49 -41.69 6.28 C-39.08 6.29 -39.08 6.29 -38 5 C-36.54 4.79 -35.07 4.63 -33.6 4.5 C-32.71 4.42 -31.82 4.33 -30.9 4.25 C-29.5 4.13 -29.5 4.13 -28.06 4 C-26.22 3.84 -24.38 3.67 -22.54 3.5 C-21.71 3.43 -20.89 3.36 -20.05 3.28 C-17.94 3.1 -17.94 3.1 -16 2 C-13.28 1.93 -10.59 1.91 -7.88 1.94 C-7.12 1.94 -6.37 1.95 -5.59 1.95 C-3.73 1.96 -1.86 1.98 0 2 C0 1.34 0 0.68 0 0 Z M692 558 C693 560 693 560 693 560 Z M645 892 C646 894 646 894 646 894 Z M575 1014 C576 1016 576 1016 576 1016 Z " fill="#FCFDFF" transform="translate(582,0)"/>
<path d="M0 0 C0.33 0.66 0.66 1.32 1 2 C1.78 1.68 2.57 1.35 3.38 1.02 C8 -0.28 12.22 -0.27 17 -0.24 C17.99 -0.24 18.98 -0.25 20 -0.25 C23.26 -0.25 26.53 -0.24 29.79 -0.23 C32.06 -0.23 34.34 -0.23 36.61 -0.23 C41.36 -0.23 46.11 -0.22 50.87 -0.21 C56.97 -0.19 63.07 -0.18 69.17 -0.19 C73.85 -0.19 78.54 -0.18 83.23 -0.17 C85.48 -0.17 87.73 -0.17 89.98 -0.17 C93.11 -0.16 96.25 -0.16 99.39 -0.15 C100.32 -0.15 101.26 -0.15 102.22 -0.15 C103.5 -0.14 103.5 -0.14 104.81 -0.13 C105.55 -0.13 106.29 -0.13 107.05 -0.13 C109 0 109 0 112 1 C113.57 1.19 115.15 1.34 116.73 1.46 C117.67 1.54 118.61 1.62 119.58 1.7 C120.58 1.78 121.59 1.86 122.62 1.94 C136.87 3.13 150.89 4.68 164.95 7.27 C169.84 8.17 174.74 8.88 179.66 9.57 C182 10 182 10 183 11 C185.54 11.47 188.07 11.9 190.62 12.31 C200.09 13.9 209.19 16.3 218.41 19 C223.07 20.3 227.78 21.36 232.51 22.41 C237.8 23.62 242.87 25.23 248 27 C249.66 27.55 251.32 28.1 252.98 28.65 C279.35 37.38 279.35 37.38 292.1 42.8 C297.65 45.1 303.31 47.1 309 49 C309 49.66 309 50.32 309 51 C310.49 50.51 310.49 50.51 312 50 C312 50.66 312 51.32 312 52 C314.64 52.66 317.28 53.32 320 54 C320 54.66 320 55.32 320 56 C320.64 56.08 321.28 56.16 321.94 56.25 C326.22 57.3 330.01 59.14 334 61 C335.68 61.77 335.68 61.77 337.4 62.56 C346.36 66.68 346.36 66.68 349 68 C349 68.66 349 69.32 349 70 C349.7 70.1 350.4 70.21 351.12 70.31 C354.39 71.09 357.05 72.42 360 74 C360 74.66 360 75.32 360 76 C360.74 76.12 361.49 76.25 362.25 76.38 C364.8 76.95 366.73 77.74 369 79 C369 79.66 369 80.32 369 81 C370.49 80.5 370.49 80.5 372 80 C372.33 80.99 372.66 81.98 373 83 C375.13 84.04 375.13 84.04 378 85 C379.61 85.7 381.21 86.41 382.81 87.12 C383.6 87.48 384.39 87.83 385.21 88.2 C385.8 88.46 386.39 88.73 387 89 C387 89.66 387 90.32 387 91 C387.74 91.29 388.49 91.58 389.25 91.88 C391.57 92.82 393.78 93.85 396 95 C396 95.66 396 96.32 396 97 C396.93 97.1 397.86 97.21 398.81 97.31 C402.18 98.04 402.83 98.53 405 101 C405.66 101.33 406.32 101.66 407 102 C409 103 409 103 410.5 104.56 C412.27 106.26 413.61 106.59 416 107 C416 107.66 416 108.32 416 109 C416.66 109 417.32 109 418 109 C418 109.66 418 110.32 418 111 C418.99 111 419.98 111 421 111 C423 113 423 113 424 115 C425.31 115.7 426.65 116.36 428 117 C437.05 122.11 437.05 122.11 439 126 C439.66 126 440.32 126 441 126 C441 126.66 441 127.32 441 128 C441.56 128.08 442.11 128.16 442.69 128.25 C445.71 129.23 447.59 130.96 450 133 C450.99 133.66 451.98 134.32 453 135 C453 135.66 453 136.32 453 137 C454.65 137.33 456.3 137.66 458 138 C458 138.99 458 139.98 458 141 C460.01 142.02 462.02 143.01 464.07 143.93 C464.75 144.24 465.43 144.55 466.12 144.88 C466.81 145.18 467.49 145.49 468.2 145.8 C470.41 147.27 470.87 148.63 472 151 C473.66 152.73 473.66 152.73 475.62 154.31 C476.34 154.92 477.05 155.52 477.79 156.14 C478.88 157.06 478.88 157.06 480 158 C481.36 159.18 482.71 160.37 484.06 161.56 C485.96 163.23 487.86 164.89 489.81 166.49 C493.75 169.74 497.07 173.23 500.32 177.17 C502.07 179.08 503.91 180.49 506 182 C508 184 508 184 510.38 186.88 C514.8 192.07 519.72 196.8 524.58 201.59 C525.93 202.93 527.27 204.27 528.61 205.62 C530.11 207.11 531.61 208.59 533.13 210.06 C534.12 211.02 534.12 211.02 535.12 212 C536.12 212.96 536.12 212.96 537.13 213.94 C539 216 539 216 540.4 218.4 C542.36 221.59 544.83 224.04 547.5 226.62 C547.99 227.1 548.47 227.58 548.97 228.07 C550.9 229.96 552.84 231.85 554.81 233.7 C556.32 235.35 556.5 236.85 557 239 C557.66 239.33 558.32 239.66 559 240 C559 240.66 559 241.32 559 242 C559.66 242 560.32 242 561 242 C562.25 243.68 562.25 243.68 563.56 245.88 C564 246.59 564.43 247.31 564.88 248.05 C565.62 249.35 566.33 250.66 567 252 C567.99 252.66 568.98 253.32 570 254 C570.66 254.99 571.32 255.98 572 257 C572.98 258.27 573.95 259.54 574.94 260.81 C577.4 264.06 579.21 267.33 581 271 C581.98 272.02 582.98 273.02 584 274 C584.33 274.68 584.66 275.36 585 276.06 C585.97 278.33 585.97 278.33 589 280 C589.68 281.66 590.35 283.33 591 285 C591.52 285.52 592.03 286.03 592.56 286.56 C594.29 288.29 594.59 289.62 595 292 C595.66 292 596.32 292 597 292 C597 292.99 597 293.98 597 295 C597.66 295.33 598.32 295.66 599 296 C599.93 297.67 599.93 297.67 600.88 299.75 C602.54 303.25 604.57 305.98 607 309 C607.33 310.33 607.67 311.67 608 313 C609.33 314.67 610.66 316.34 612 318 C613.25 320.81 613.25 320.81 614 323 C614.66 323 615.32 323 616 323 C616 324.65 616 326.3 616 328 C616.99 328 617.98 328 619 328 C619.45 329.22 619.91 330.43 620.38 331.69 C620.92 333.13 621.46 334.56 622 336 C622.33 336.89 622.66 337.77 623 338.69 C623.99 341.12 623.99 341.12 625.62 343.69 C627 346 627 346 627 348 C627.66 348 628.32 348 629 348 C629.45 349.22 629.91 350.43 630.38 351.69 C630.65 352.42 630.93 353.15 631.22 353.91 C631.8 355.47 632.35 357.04 632.88 358.62 C634 361.26 634 361.26 636.56 364 C638.99 366.99 639.61 368.28 640 372 C640.63 374.95 641.62 377.32 643 380 C643.33 380.99 643.66 381.98 644 383 C644.66 383 645.32 383 646 383 C645.94 383.78 645.88 384.57 645.81 385.38 C645.87 386.24 645.94 387.11 646 388 C646.99 388.66 647.98 389.32 649 390 C649.39 392.32 649.72 394.66 650 397 C650.89 399.12 650.89 399.12 652 401 C652.68 402.66 653.35 404.33 654 406 C654.66 406 655.32 406 656 406 C655.98 407.09 655.96 408.19 655.94 409.31 C655.81 412.94 655.81 412.94 657 416 C657.66 416 658.32 416 659 416 C659.99 419.96 660.98 423.92 662 428 C662.66 428 663.32 428 664 428 C664.05 428.58 664.1 429.16 664.15 429.76 C664.6 434.44 665.3 438.57 667 443 C667.66 443 668.32 443 669 443 C669.04 443.6 669.07 444.21 669.11 444.83 C669.51 449.66 670.05 452.11 673 456 C672.67 458 672.34 460 672 462 C673.27 463.86 673.27 463.86 675 465 C677.34 467.34 676.33 473.31 676.43 476.48 C676.7 480.06 676.7 480.06 679 482.37 C681.9 486.18 681.67 489.64 681.75 494.31 C681.78 495.15 681.81 495.98 681.84 496.85 C681.91 498.9 681.96 500.95 682 503 C682.99 503.33 683.98 503.66 685 504 C684.94 505.2 684.88 506.39 684.81 507.62 C684.78 511.76 686.01 514.37 688 518 C687.67 518.66 687.34 519.32 687 520 C686.75 523.5 686.75 523.5 687 527 C687.66 527.66 688.32 528.32 689 529 C689.34 531.86 689.34 531.86 689.5 535.31 C689.7 539.67 690.15 543.03 692 547 C692.33 547 692.66 547 693 547 C693.89 551.35 694.03 555.4 693.97 559.81 C694.01 562.61 694.44 565.26 695 568 C695.33 568 695.66 568 696 568 C696.04 568.85 696.04 568.85 696.08 569.71 C696.19 572.27 696.31 574.82 696.44 577.38 C696.5 578.71 696.5 578.71 696.56 580.07 C696.6 580.92 696.64 581.77 696.68 582.65 C696.72 583.43 696.76 584.22 696.79 585.03 C696.89 587.08 696.89 587.08 698 589 C698.1 590.35 698.14 591.71 698.14 593.07 C698.15 594.34 698.15 594.34 698.16 595.64 C698.16 596.58 698.16 597.52 698.16 598.48 C698.17 599.46 698.17 600.45 698.18 601.46 C698.19 604.73 698.2 607.99 698.2 611.26 C698.21 613.53 698.21 615.8 698.22 618.06 C698.23 622.82 698.24 627.58 698.24 632.35 C698.25 638.44 698.27 644.54 698.3 650.63 C698.32 655.32 698.32 660 698.32 664.69 C698.33 666.94 698.33 669.18 698.35 671.43 C698.36 674.58 698.36 677.73 698.36 680.87 C698.37 681.8 698.37 682.72 698.38 683.68 C698.35 689.26 697.48 693 695 698 C694.53 700.67 694.53 700.67 694.52 703.24 C694.49 704.16 694.46 705.08 694.43 706.03 C694.4 707.44 694.4 707.44 694.38 708.88 C694.32 710.77 694.27 712.66 694.21 714.55 C694.19 715.38 694.18 716.21 694.16 717.07 C694 719 694 719 693 720 C692.81 721.7 692.68 723.41 692.56 725.12 C692.3 728.41 691.96 731.14 691 734.31 C689.69 739.13 689.56 743.82 689.34 748.79 C689.02 751.86 688.39 753.34 687 756 C686.58 758.78 686.58 758.78 686.44 761.69 C686.1 766.9 686.1 766.9 685 768 C685.03 770.03 685.07 772.06 685.16 774.09 C685 776 685 776 683 778 C681.75 782.74 681 787.54 681 792.44 C681 795.27 680.38 796.57 679 799 C678.65 800.33 678.31 801.66 678 803 C677.47 804.45 677.47 804.45 676.94 805.94 C675.86 808.88 675.86 808.88 676.06 811.62 C676 814 676 814 674.62 815.75 C672.55 818.63 672.15 821.24 671.47 824.68 C670.51 829.41 669.4 834.56 667 838.75 C665.82 841.13 665.82 841.13 665.5 844.5 C665.05 847.63 664.56 849.34 663 852 C661.53 854.78 660.44 857.5 659.5 860.5 C658.77 862.83 658.03 864.94 656.91 867.11 C655.76 869.5 655.85 871.38 656 874 C655.01 874.33 654.02 874.66 653 875 C651.9 877.63 651.9 877.63 651 881 C650.51 882.5 650.01 884 649.5 885.5 C648.62 888.14 647.74 890.79 646.88 893.44 C646 896 646 896 645 898 C644.01 898.33 643.02 898.66 642 899 C640.78 901.5 640.78 901.5 640 904 C640.99 904.5 640.99 904.5 642 905 C641.01 907.31 640.02 909.62 639 912 C638.34 912 637.68 912 637 912 C637 912.66 637 913.32 637 914 C636.34 914 635.68 914 635 914 C635.33 914.99 635.66 915.98 636 917 C635.03 918.36 634.02 919.68 633 921 C631.97 923.32 630.96 925.65 630 928 C629.35 929.34 628.69 930.68 628 932 C627.67 932.66 627.34 933.32 627 934 C626.34 934 625.68 934 625 934 C625.33 934.99 625.66 935.98 626 937 C625.02 938.35 624.02 939.68 623 941 C622.47 942.58 622.47 942.58 621.94 944.19 C621 947 621 947 619 948 C618.34 947.67 617.68 947.34 617 947 C617.33 947.99 617.66 948.98 618 950 C617.19 951.81 617.19 951.81 616 954 C615.31 955.99 614.64 957.99 614 960 C612.68 959.67 611.36 959.34 610 959 C610.33 959.99 610.66 960.98 611 962 C610.03 963.36 609.03 964.69 608 966 C607.21 967.89 606.48 969.81 605.81 971.75 C605.47 972.73 605.12 973.72 604.77 974.73 C604.39 975.86 604.39 975.86 604 977 C603.01 977 602.02 977 601 977 C600.9 977.95 600.79 978.9 600.69 979.88 C600 983 600 983 597 985 C596.34 984.67 595.68 984.34 595 984 C595.33 984.99 595.66 985.98 596 987 C595.19 989.63 595.19 989.63 594 992 C593.34 992.33 592.68 992.66 592 993 C591.34 992.67 590.68 992.34 590 992 C590.33 992.99 590.66 993.98 591 995 C590.06 997.69 590.06 997.69 589 1000 C587.68 999.67 586.36 999.34 585 999 C585.33 999.99 585.66 1000.98 586 1002 C584.56 1005.19 584.56 1005.19 583 1008 C582.01 1007.67 581.02 1007.34 580 1007 C580.33 1007.99 580.66 1008.98 581 1010 C580.55 1010.39 580.09 1010.78 579.62 1011.19 C577.83 1012.97 577.83 1012.97 577 1015.62 C576.67 1016.41 576.34 1017.19 576 1018 C575.01 1018.33 574.02 1018.66 573 1019 C571.84 1020.83 571.84 1020.83 570.94 1023 C569.2 1026.9 569.2 1026.9 567 1028 C566.34 1027.67 565.68 1027.34 565 1027 C565.33 1027.99 565.66 1028.98 566 1030 C564.87 1032.69 564.87 1032.69 563 1035 C560.31 1035.31 560.31 1035.31 558 1035 C557.77 1035.99 557.55 1036.98 557.31 1038 C555.25 1045.09 551.35 1050.19 545.55 1054.68 C543.73 1056.11 543.73 1056.11 542 1059 C541.34 1059 540.68 1059 540 1059 C539.77 1059.88 539.55 1060.75 539.32 1061.65 C537.77 1065.57 535.92 1067.58 532.94 1070.55 C532.43 1071.06 531.91 1071.58 531.38 1072.12 C529.69 1073.81 527.99 1075.5 526.28 1077.18 C525.1 1078.36 523.92 1079.54 522.74 1080.72 C520.27 1083.18 517.8 1085.64 515.31 1088.1 C512.13 1091.25 508.96 1094.41 505.79 1097.58 C503.36 1100.01 500.92 1102.44 498.48 1104.87 C497.31 1106.03 496.14 1107.2 494.97 1108.37 C493.34 1109.99 491.7 1111.61 490.06 1113.23 C489.13 1114.15 488.2 1115.08 487.24 1116.03 C485 1118 485 1118 483 1118 C482.67 1118.99 482.34 1119.98 482 1121 C480.36 1122.04 478.69 1123.03 477 1124 C475.43 1125.3 473.88 1126.63 472.38 1128 C471.24 1129.02 471.24 1129.02 470.09 1130.06 C468.35 1131.67 466.66 1133.31 465 1135 C464.01 1134.67 463.02 1134.34 462 1134 C462 1134.99 462 1135.98 462 1137 C460.39 1138.82 460.39 1138.82 458.25 1140.69 C457.55 1141.31 456.86 1141.93 456.14 1142.57 C454 1144 454 1144 450 1144 C449.75 1144.62 449.51 1145.24 449.25 1145.88 C447.79 1148.35 446.62 1148.95 444 1150 C444 1150.66 444 1151.32 444 1152 C441 1151 441 1151 440 1150 C439.9 1150.64 439.79 1151.28 439.69 1151.94 C439.46 1152.62 439.23 1153.3 439 1154 C438.01 1154.33 437.02 1154.66 436 1155 C436 1155.99 436 1156.98 436 1158 C434.68 1157.67 433.36 1157.34 432 1157 C432 1157.66 432 1158.32 432 1159 C431.34 1159 430.68 1159 430 1159 C429.34 1160.32 428.68 1161.64 428 1163 C427.01 1162.67 426.02 1162.34 425 1162 C425.33 1162.99 425.66 1163.98 426 1165 C423.13 1166.47 420.33 1167.88 417.31 1169 C414.95 1170.02 413.67 1171.07 412 1173 C411.34 1172.67 410.68 1172.34 410 1172 C410.33 1172.99 410.66 1173.98 411 1175 C410.01 1175 409.02 1175 408 1175 C406.42 1176.42 406.42 1176.42 405 1178 C404.34 1178.33 403.68 1178.66 403 1179 C402.67 1179.66 402.34 1180.32 402 1181 C401.2 1181.12 400.39 1181.25 399.56 1181.38 C398.72 1181.58 397.87 1181.79 397 1182 C396.69 1182.64 396.38 1183.28 396.06 1183.94 C395 1186 395 1186 392 1187.31 C389 1188 389 1188 387 1187 C387 1187.66 387 1188.32 387 1189 C386.4 1189.1 385.8 1189.21 385.19 1189.31 C382.69 1190.1 381.74 1191.1 380 1193 C379.34 1193.33 378.68 1193.66 378 1194 C378 1194.66 378 1195.32 378 1196 C376.21 1196.7 374.42 1197.38 372.62 1198.06 C371.13 1198.64 371.13 1198.64 369.6 1199.22 C367 1200 367 1200 365 1199 C364.34 1200.32 363.68 1201.64 363 1203 C362.01 1202.67 361.02 1202.34 360 1202 C360.33 1202.99 360.66 1203.98 361 1205 C360.42 1205.1 359.85 1205.21 359.25 1205.31 C356.93 1205.88 356.93 1205.88 355.12 1207.44 C352.56 1209.33 350.01 1210 347 1211 C345.66 1211.99 344.32 1212.99 343 1214 C340.88 1214.75 340.88 1214.75 339 1215 C338.34 1214.67 337.68 1214.34 337 1214 C336.79 1214.62 336.59 1215.24 336.38 1215.88 C334.43 1218.88 332.41 1219.22 329 1220 C328.34 1219.67 327.68 1219.34 327 1219 C327 1219.66 327 1220.32 327 1221 C325.33 1221.67 323.67 1222.33 322 1223 C320.67 1223.59 320.67 1223.59 319.31 1224.19 C318.55 1224.46 317.79 1224.72 317 1225 C316.34 1224.67 315.68 1224.34 315 1224 C314.79 1224.6 314.59 1225.2 314.38 1225.81 C311.78 1229.95 307.26 1231.02 302.75 1232.25 C299 1233 299 1233 297 1232 C297 1232.66 297 1233.32 297 1234 C296.01 1234.33 295.02 1234.66 294 1235 C293.34 1234.67 292.68 1234.34 292 1234 C292 1234.66 292 1235.32 292 1236 C289.31 1237.11 286.65 1238.11 283.88 1239 C280.85 1239.92 280.85 1239.92 278 1242 C276.13 1242.56 276.13 1242.56 274.12 1243 C270.93 1243.75 268.03 1244.72 265 1246 C263 1246.68 261 1247.35 259 1248 C258.07 1248.31 257.14 1248.62 256.19 1248.94 C255.14 1249.29 254.08 1249.64 253 1250 C251.96 1250.36 251.96 1250.36 250.9 1250.72 C247.18 1251.99 243.52 1253.14 239.69 1254 C236.21 1254.94 234.77 1255.9 232 1258 C229.38 1258.12 229.38 1258.12 227 1258 C226.34 1258.33 225.68 1258.66 225 1259 C223.33 1259.19 223.33 1259.19 221.62 1259.38 C218.07 1259.69 218.07 1259.69 216 1261.56 C213.07 1263.67 210.52 1263.13 207 1263 C206.34 1263.33 205.68 1263.66 205 1264 C203.91 1263.96 202.81 1263.92 201.69 1263.88 C198.04 1263.7 198.04 1263.7 195.5 1265.5 C192.23 1267.46 189.75 1267.14 186 1267 C185.67 1267.33 185.34 1267.66 185 1268 C181.45 1268.54 177.89 1268.97 174.32 1269.4 C170.88 1269.79 170.88 1269.79 168 1272 C165.22 1272.16 165.22 1272.16 162.06 1272.06 C158.44 1271.96 155.48 1272.05 152 1273 C148.34 1273.53 144.68 1274.02 141.02 1274.5 C138.13 1274.68 138.13 1274.68 137 1276 C135.35 1276.12 133.7 1276.18 132.05 1276.21 C131.03 1276.24 130.02 1276.27 128.98 1276.3 C126.84 1276.35 124.7 1276.39 122.57 1276.43 C121.55 1276.46 120.53 1276.49 119.48 1276.52 C118.55 1276.54 117.62 1276.56 116.66 1276.58 C113.94 1276.8 113.94 1276.8 111.95 1278.5 C107.7 1280.66 103.88 1280.42 99.18 1280.39 C98.2 1280.39 97.21 1280.4 96.2 1280.4 C92.95 1280.42 89.7 1280.41 86.45 1280.4 C84.18 1280.4 81.92 1280.4 79.66 1280.41 C74.91 1280.41 70.17 1280.41 65.43 1280.39 C59.36 1280.37 53.29 1280.38 47.21 1280.4 C42.54 1280.41 37.87 1280.41 33.19 1280.4 C30.95 1280.4 28.72 1280.4 26.48 1280.41 C23.34 1280.42 20.21 1280.4 17.08 1280.39 C16.16 1280.39 15.24 1280.4 14.29 1280.41 C8.73 1280.35 4.98 1279.46 0 1277 C-2.64 1276.55 -2.64 1276.55 -5.17 1276.56 C-6.54 1276.52 -6.54 1276.52 -7.93 1276.48 C-8.86 1276.46 -9.79 1276.45 -10.75 1276.44 C-12.62 1276.4 -14.49 1276.36 -16.36 1276.31 C-17.59 1276.29 -17.59 1276.29 -18.84 1276.27 C-21 1276 -21 1276 -24 1274 C-26.35 1273.91 -28.71 1273.92 -31.06 1274 C-33.37 1274.08 -35.69 1274.09 -38 1274 C-38.66 1273.34 -39.32 1272.68 -40 1272 C-42.53 1271.57 -42.53 1271.57 -45.38 1271.44 C-48.73 1271.22 -51.75 1270.84 -55 1270 C-57.27 1269.62 -59.54 1269.27 -61.81 1268.94 C-62.99 1268.76 -64.18 1268.58 -65.39 1268.4 C-68.96 1268 -72.41 1267.93 -76 1268 C-76.33 1267.34 -76.66 1266.68 -77 1266 C-79.99 1264.11 -82.19 1263.79 -85.69 1263.94 C-87.12 1263.99 -88.56 1264.02 -90 1264 C-90.33 1263.67 -90.66 1263.34 -91 1263 C-91.93 1263.02 -92.86 1263.04 -93.81 1263.06 C-98.09 1262.98 -100.02 1261.98 -103 1259 C-105.33 1258.96 -107.67 1258.96 -110 1259 C-110.33 1258.67 -110.66 1258.34 -111 1258 C-112.67 1257.96 -114.33 1257.96 -116 1258 C-116.33 1257.01 -116.66 1256.02 -117 1255 C-117.79 1254.88 -118.57 1254.76 -119.38 1254.63 C-134.11 1252.28 -134.11 1252.28 -141 1248 C-142.9 1247.4 -142.9 1247.4 -145 1247 C-146.13 1246.67 -147.27 1246.34 -148.44 1246 C-151.81 1244.97 -151.81 1244.97 -154.56 1244.62 C-157 1244 -157 1244 -159.5 1242.06 C-164.19 1238.65 -170.4 1238.63 -176 1238 C-176.33 1237.01 -176.66 1236.02 -177 1235 C-178.64 1234.46 -180.29 1233.94 -181.97 1233.53 C-186.59 1232.33 -190.94 1230.54 -195.19 1228.38 C-197.85 1227.07 -200.08 1226.43 -203 1226 C-203.33 1225.01 -203.66 1224.02 -204 1223 C-207.3 1222.34 -210.6 1221.68 -214 1221 C-214 1220.34 -214 1219.68 -214 1219 C-214.68 1218.92 -215.36 1218.84 -216.06 1218.75 C-219.87 1217.78 -222.64 1216.04 -226 1214 C-226 1213.34 -226 1212.68 -226 1212 C-226.99 1212.33 -227.98 1212.66 -229 1213 C-231 1211.62 -231 1211.62 -233 1210 C-233.99 1209.67 -234.98 1209.34 -236 1209 C-236 1208.34 -236 1207.68 -236 1207 C-236.99 1207.33 -237.98 1207.66 -239 1208 C-240.36 1207.03 -241.68 1206.02 -243 1205 C-244.15 1204.53 -245.31 1204.05 -246.5 1203.56 C-249.91 1202.04 -251.46 1200.63 -254 1198 C-255.98 1197.34 -255.98 1197.34 -258 1197 C-259.33 1196.33 -260.67 1195.67 -262 1195 C-262.66 1195 -263.32 1195 -264 1195 C-264 1194.01 -264 1193.02 -264 1192 C-265.32 1192.33 -266.64 1192.66 -268 1193 C-268.33 1191.68 -268.66 1190.36 -269 1189 C-269.74 1188.9 -270.49 1188.79 -271.25 1188.69 C-274.2 1187.95 -275.69 1186.91 -278 1185 C-278.66 1184.67 -279.32 1184.34 -280 1184 C-280.99 1183.34 -281.98 1182.68 -283 1182 C-283.99 1181.51 -284.98 1181.01 -286 1180.5 C-289.42 1178.79 -292.05 1176.95 -294.94 1174.44 C-297.67 1172.26 -298.75 1171.58 -302 1171 C-302.66 1170.34 -303.32 1169.68 -304 1169 C-304.99 1168.34 -305.98 1167.68 -307 1167 C-308.02 1166.02 -309.02 1165.02 -310 1164 C-309.67 1163.34 -309.34 1162.68 -309 1162 C-309.99 1162.33 -310.98 1162.66 -312 1163 C-314.6 1161.98 -316.01 1160.99 -318 1159 C-318.99 1158.34 -319.98 1157.68 -321 1157 C-321.45 1156.34 -321.91 1155.68 -322.38 1155 C-324.38 1152.53 -326.07 1152.16 -329 1151 C-331.04 1149.38 -333.04 1147.71 -335 1146 C-336.66 1144.66 -338.33 1143.33 -340 1142 C-350 1134 -350 1134 -352.62 1131.88 C-355.05 1129.91 -355.05 1129.91 -358 1128 C-358.78 1127.03 -359.57 1126.06 -360.38 1125.06 C-362.62 1122.28 -364.85 1120.73 -368 1119 C-371.23 1116.7 -373.76 1114.19 -376.31 1111.19 C-378.72 1108.37 -381.17 1105.89 -384 1103.5 C-386.56 1101.34 -388.8 1099.16 -390.94 1096.59 C-394.19 1092.82 -397.62 1089.31 -401.15 1085.82 C-401.7 1085.28 -402.25 1084.73 -402.82 1084.17 C-405.11 1081.91 -407.4 1079.65 -409.7 1077.39 C-411.4 1075.73 -413.09 1074.06 -414.78 1072.38 C-415.3 1071.87 -415.83 1071.36 -416.37 1070.83 C-417.62 1069.59 -418.81 1068.3 -420 1067 C-420 1066.34 -420 1065.68 -420 1065 C-420.99 1064.67 -421.98 1064.34 -423 1064 C-423 1063.34 -423 1062.68 -423 1062 C-423.66 1061.67 -424.32 1061.34 -425 1061 C-425.99 1059.92 -426.94 1058.81 -427.88 1057.69 C-429.65 1055.57 -431.39 1053.62 -433.38 1051.69 C-435 1050 -435 1050 -435 1048 C-435.99 1047.67 -436.98 1047.34 -438 1047 C-438.33 1046.01 -438.66 1045.02 -439 1044 C-439.66 1043.67 -440.32 1043.34 -441 1043 C-442 1041.33 -443 1039.67 -444 1038 C-446.09 1035.41 -448.22 1032.88 -450.43 1030.39 C-454 1026.31 -454 1026.31 -454 1023 C-454.66 1023 -455.32 1023 -456 1023 C-456 1022.34 -456 1021.68 -456 1021 C-456.66 1020.67 -457.32 1020.34 -458 1020 C-458.66 1019.67 -459.32 1019.34 -460 1019 C-460.62 1016.44 -460.62 1016.44 -461 1014 C-461.66 1014 -462.32 1014 -463 1014 C-463 1013.34 -463 1012.68 -463 1012 C-463.66 1011.67 -464.32 1011.34 -465 1011 C-466.1 1009.24 -467.04 1007.43 -468 1005.59 C-468.92 1003.82 -468.92 1003.82 -471 1003 C-471 1002.01 -471 1001.02 -471 1000 C-471.64 999.79 -472.28 999.59 -472.94 999.38 C-473.96 998.69 -473.96 998.69 -475 998 C-475.33 996 -475.67 994 -476 992 C-477.97 990.85 -477.97 990.85 -480 990 C-480.35 988.67 -480.69 987.34 -481 986 C-482.31 984.65 -483.65 983.31 -485 982 C-486.25 979.9 -486.96 978.19 -487.5 975.81 C-487.67 975.21 -487.83 974.62 -488 974 C-488.66 973.67 -489.32 973.34 -490 973 C-490.62 970.94 -490.62 970.94 -491 969 C-491.66 969 -492.32 969 -493 969 C-496 963.38 -496 963.38 -496 960 C-496.66 959.67 -497.32 959.34 -498 959 C-499.37 957.03 -500.71 955.03 -502 953 C-501.67 952.34 -501.34 951.68 -501 951 C-501.66 950.67 -502.32 950.34 -503 950 C-503.5 948.51 -503.5 948.51 -504 947 C-504.66 946.67 -505.32 946.34 -506 946 C-506.7 944.35 -507.36 942.68 -508 941 C-509.54 938.15 -511.15 935.34 -512.76 932.52 C-514 930 -514 930 -514 927 C-514.99 926.67 -515.98 926.34 -517 926 C-517.71 923.69 -518.01 921.42 -518.38 919.03 C-518.58 918.36 -518.79 917.69 -519 917 C-519.99 916.67 -520.98 916.34 -522 916 C-522.91 914.11 -522.91 914.11 -523.62 911.75 C-523.99 910.54 -523.99 910.54 -524.37 909.3 C-525.03 906.88 -525.6 904.48 -526 902 C-526.66 902 -527.32 902 -528 902 C-528.51 900.73 -529 899.46 -529.5 898.19 C-529.78 897.48 -530.06 896.77 -530.34 896.04 C-531 894 -531 894 -531 891 C-531.66 891 -532.32 891 -533 891 C-533.24 890.25 -533.48 889.5 -533.73 888.73 C-535.7 882.73 -537.79 876.86 -540.27 871.06 C-541 869 -541 869 -541 866 C-541.66 866 -542.32 866 -543 866 C-543.25 865.15 -543.51 864.31 -543.77 863.44 C-545.91 856.25 -545.91 856.25 -548.44 849.19 C-550.23 844.58 -551.64 839.85 -553.09 835.13 C-554.36 831 -555.71 826.9 -557.12 822.81 C-558.87 817.64 -560.14 812.44 -561.29 807.11 C-561.91 804.41 -562.64 801.78 -563.41 799.12 C-564.75 794.28 -565.89 789.38 -567.06 784.5 C-567.47 782.85 -567.47 782.85 -567.88 781.16 C-569.17 775.78 -570.29 770.49 -571 765 C-571.46 763.42 -571.46 763.42 -571.94 761.81 C-574.09 754.08 -575.1 746.14 -575.75 738.16 C-575.95 736.04 -575.95 736.04 -576.47 734.16 C-577.47 730.08 -577.93 725.9 -578.5 721.75 C-578.63 720.77 -578.77 719.8 -578.91 718.79 C-579.87 711.54 -580.47 704.33 -580.79 697.02 C-580.88 693.95 -580.88 693.95 -582 691 C-582.09 689.61 -582.13 688.21 -582.13 686.81 C-582.13 685.96 -582.13 685.11 -582.14 684.23 C-582.13 683.3 -582.13 682.37 -582.13 681.41 C-582.13 680.42 -582.13 679.44 -582.13 678.43 C-582.14 675.16 -582.14 671.9 -582.13 668.64 C-582.13 666.37 -582.13 664.11 -582.14 661.84 C-582.14 657.09 -582.14 652.33 -582.13 647.58 C-582.12 641.49 -582.13 635.4 -582.13 629.32 C-582.14 624.63 -582.14 619.95 -582.13 615.27 C-582.13 613.03 -582.13 610.78 -582.14 608.54 C-582.14 605.4 -582.13 602.25 -582.13 599.11 C-582.13 598.19 -582.13 597.26 -582.14 596.31 C-582.12 591.43 -581.81 586.82 -581 582 C-580.88 580.67 -580.79 579.33 -580.72 577.99 C-580.68 577.32 -580.64 576.64 -580.61 575.94 C-580.53 574.56 -580.46 573.17 -580.39 571.79 C-580.19 568.09 -579.75 564.62 -579 561 C-578.52 557.3 -578.14 553.59 -577.75 549.89 C-577.11 544.11 -577.11 544.11 -576 543 C-575.77 540.82 -575.59 538.63 -575.44 536.44 C-575.35 535.24 -575.27 534.04 -575.18 532.81 C-575.12 531.88 -575.06 530.95 -575 530 C-574.34 530 -573.68 530 -573 530 C-573.18 529.46 -573.37 528.91 -573.55 528.35 C-574.11 525.44 -573.69 523.27 -573.12 520.38 C-572.94 519.41 -572.76 518.45 -572.57 517.46 C-572 515 -572 515 -571 513 C-570.82 511.59 -570.68 510.17 -570.56 508.75 C-570.17 504.91 -569.32 501.64 -568 498 C-566.68 493.07 -565.6 488.12 -564.56 483.12 C-563.51 478.16 -562.28 473.34 -560.75 468.5 C-559.89 465.65 -559.2 462.77 -558.5 459.88 C-557.49 455.74 -556.27 451.84 -554.7 447.89 C-553.51 444.66 -552.78 441.35 -552 438 C-551.34 438 -550.68 438 -550 438 C-550.08 437.2 -550.16 436.39 -550.25 435.56 C-549.97 431.51 -548.75 428.92 -547.01 425.3 C-546.05 423.11 -545.45 421.08 -544.94 418.75 C-544 415 -544 415 -542.58 412.66 C-540.84 409.74 -539.84 406.92 -538.81 403.69 C-538.47 402.62 -538.12 401.55 -537.77 400.45 C-537.52 399.64 -537.26 398.83 -537 398 C-536.34 398 -535.68 398 -535 398 C-535.1 396.73 -535.1 396.73 -535.21 395.43 C-534.96 391.38 -533.59 388.55 -531.69 385.06 C-528.49 379.01 -525.68 372.99 -523.31 366.56 C-522.88 365.39 -522.45 364.21 -522 363 C-521.34 363 -520.68 363 -520 363 C-518.51 358.05 -518.51 358.05 -517 353 C-516.34 353 -515.68 353 -515 353 C-514.88 352.28 -514.75 351.56 -514.62 350.81 C-514.01 348.04 -513.12 345.6 -512 343 C-511.34 343 -510.68 343 -510 343 C-509.88 342.28 -509.75 341.56 -509.62 340.81 C-508.11 333.99 -508.11 333.99 -505.66 331.8 C-503.23 329.16 -501.85 326.02 -500.31 322.81 C-499.99 322.16 -499.67 321.5 -499.34 320.83 C-498.56 319.22 -497.78 317.61 -497 316 C-496.34 316 -495.68 316 -495 316 C-493.92 313.35 -492.91 310.72 -492 308 C-491.34 308 -490.68 308 -490 308 C-489.69 307.05 -489.38 306.1 -489.06 305.12 C-488 302 -488 302 -487 300 C-486.34 300 -485.68 300 -485 300 C-484.73 299.28 -484.46 298.57 -484.19 297.83 C-482.98 294.96 -481.59 292.37 -480 289.69 C-479.48 288.8 -478.97 287.92 -478.44 287.01 C-477.73 286.02 -477.73 286.02 -477 285 C-476.34 285 -475.68 285 -475 285 C-474.92 284.28 -474.83 283.56 -474.75 282.81 C-473.82 279.34 -472.34 277.72 -470 275 C-465.92 269.73 -462.12 264.32 -458.53 258.7 C-457.74 257.49 -457.74 257.49 -456.94 256.25 C-456.45 255.49 -455.97 254.73 -455.46 253.95 C-454 252 -454 252 -451 250 C-450.07 248.33 -449.14 246.67 -448.23 244.99 C-446.41 242.04 -444.11 239.59 -441.78 237.03 C-440.1 235.11 -438.61 233.14 -437.12 231.06 C-434.16 227.01 -430.7 223.62 -427.05 220.18 C-424.95 218.11 -424.95 218.11 -423.7 215.71 C-421.72 212.55 -419.32 210.04 -416.69 207.43 C-415.9 206.63 -415.9 206.63 -415.09 205.82 C-413.35 204.07 -411.6 202.33 -409.85 200.59 C-408.63 199.37 -407.42 198.15 -406.2 196.93 C-403.65 194.38 -401.1 191.83 -398.55 189.29 C-395.28 186.03 -392.02 182.77 -388.77 179.5 C-386.26 176.98 -383.74 174.47 -381.23 171.96 C-380.02 170.76 -378.82 169.55 -377.62 168.35 C-375.94 166.67 -374.26 164.99 -372.57 163.31 C-372.08 162.81 -371.59 162.32 -371.08 161.81 C-368.25 159.02 -365.44 156.97 -362 155 C-360.19 153.25 -358.42 151.45 -356.69 149.62 C-353.04 145.86 -349.5 142.75 -344.91 140.19 C-341.87 138.29 -339.36 135.82 -336.76 133.36 C-335 132 -335 132 -332 132 C-332 131.34 -332 130.68 -332 130 C-323.18 122 -323.18 122 -319 122 C-319 121.34 -319 120.68 -319 120 C-317.95 119.42 -316.9 118.84 -315.81 118.25 C-312.61 116.42 -309.85 114.35 -307 112 C-305.8 111.07 -304.59 110.15 -303.38 109.25 C-302.81 108.82 -302.24 108.39 -301.65 107.95 C-300 107 -300 107 -297 107 C-297 106.34 -297 105.68 -297 105 C-294.09 102.96 -292.6 102 -289 102 C-289 101.34 -289 100.68 -289 100 C-284.62 97 -284.62 97 -282 97 C-282 96.34 -282 95.68 -282 95 C-276.25 92 -276.25 92 -274 92 C-274 91.34 -274 90.68 -274 90 C-273.13 89.59 -272.27 89.17 -271.38 88.75 C-268.71 87.37 -266.37 85.88 -263.92 84.18 C-260.28 81.94 -256.37 80.2 -252.51 78.37 C-249.89 77.25 -249.89 77.25 -249 75 C-246.71 74.15 -246.71 74.15 -243.94 73.38 C-243.02 73.11 -242.1 72.85 -241.15 72.59 C-240.09 72.3 -240.09 72.3 -239 72 C-239 71.34 -239 70.68 -239 70 C-235.7 69.01 -232.4 68.02 -229 67 C-229 66.34 -229 65.68 -229 65 C-225.7 64.01 -222.4 63.02 -219 62 C-219 61.34 -219 60.68 -219 60 C-218.32 59.8 -217.64 59.61 -216.94 59.41 C-209.76 57.19 -203.28 54.31 -196.7 50.73 C-192.39 48.46 -188.86 47.42 -184 47 C-184 46.34 -184 45.68 -184 45 C-182.11 44.35 -180.21 43.71 -178.31 43.06 C-177.26 42.7 -176.2 42.34 -175.11 41.97 C-172.41 41.13 -169.79 40.49 -167 40 C-167 39.34 -167 38.68 -167 38 C-164.48 37.18 -161.96 36.37 -159.44 35.56 C-158.73 35.33 -158.03 35.1 -157.3 34.87 C-152.86 33.45 -148.63 32.53 -144 32 C-144 31.34 -144 30.68 -144 30 C-142.99 29.73 -141.97 29.47 -140.93 29.2 C-139.58 28.84 -138.23 28.48 -136.88 28.12 C-136.21 27.95 -135.54 27.78 -134.86 27.6 C-130.85 26.54 -126.93 25.32 -123 24 C-120.67 23.33 -118.33 22.66 -116 22 C-114.63 21.58 -113.25 21.17 -111.88 20.75 C-111.17 20.53 -110.46 20.32 -109.73 20.1 C-108.29 19.66 -106.85 19.21 -105.4 18.77 C-100.59 17.32 -96 16.55 -91 16 C-88.66 15.37 -86.32 14.71 -84 14 C-80.24 12.88 -80.24 12.88 -78 14 C-78 13.34 -78 12.68 -78 12 C-77.29 11.95 -76.57 11.9 -75.84 11.85 C-70.29 11.42 -65.35 10.61 -60 9 C-58.55 8.79 -57.09 8.6 -55.62 8.44 C-52.2 8.4 -52.2 8.4 -51 7 C-47.9 6.68 -44.8 6.49 -41.69 6.28 C-39.08 6.29 -39.08 6.29 -38 5 C-36.54 4.79 -35.07 4.63 -33.6 4.5 C-32.71 4.42 -31.82 4.33 -30.9 4.25 C-29.5 4.13 -29.5 4.13 -28.06 4 C-26.22 3.84 -24.38 3.67 -22.54 3.5 C-21.71 3.43 -20.89 3.36 -20.05 3.28 C-17.94 3.1 -17.94 3.1 -16 2 C-13.28 1.93 -10.59 1.91 -7.88 1.94 C-7.12 1.94 -6.37 1.95 -5.59 1.95 C-3.73 1.96 -1.86 1.98 0 2 C0 1.34 0 0.68 0 0 Z M28 72 C27.02 72.06 27.02 72.06 26.02 72.12 C-7.74 74.22 -41.13 78.9 -74 87 C-75.61 87.39 -75.61 87.39 -77.26 87.78 C-107.16 95.01 -136.15 104.8 -164.42 116.9 C-167.17 118.07 -169.91 119.22 -172.66 120.37 C-174.55 121.16 -176.43 121.96 -178.31 122.75 C-179.63 123.3 -179.63 123.3 -180.97 123.85 C-185.7 125.86 -189.8 128.05 -194 131 C-195.62 131.71 -197.25 132.43 -198.89 133.1 C-207.32 136.71 -215.21 141.22 -223 146 C-226.02 147.77 -229.06 149.5 -232.15 151.14 C-236.79 153.64 -240.95 156.38 -245.11 159.6 C-247.32 161.24 -249.65 162.57 -252.05 163.9 C-260.93 168.91 -269.02 174.91 -277.12 181.07 C-280.38 183.54 -283.68 185.94 -287 188.31 C-290.88 191.12 -294.49 194.09 -298.05 197.29 C-300.09 199.08 -302.21 200.73 -304.38 202.38 C-308.65 205.65 -312.63 209.19 -316.6 212.82 C-318.68 214.71 -320.8 216.55 -322.94 218.38 C-326.79 221.72 -330.36 225.32 -333.93 228.95 C-336.53 231.58 -339.17 234.07 -342 236.44 C-345.93 239.79 -349.34 243.55 -352.79 247.38 C-355.8 250.72 -358.9 253.92 -362.12 257.06 C-366.41 261.29 -370.22 265.78 -373.98 270.48 C-375.64 272.55 -377.32 274.56 -379.06 276.56 C-382.84 280.94 -386.42 285.46 -390 290 C-390.75 290.94 -391.5 291.89 -392.28 292.86 C-399.13 301.6 -405.36 310.72 -411.58 319.92 C-413.33 322.49 -415.13 325.03 -416.94 327.56 C-419.68 331.45 -422.13 335.47 -424.54 339.57 C-425.94 341.91 -427.45 344.14 -429 346.38 C-431.93 350.7 -434.15 355.25 -436.42 359.94 C-438.02 363.03 -439.79 365.9 -441.69 368.81 C-444.27 372.77 -446.23 376.6 -448 381 C-448.9 382.84 -449.82 384.67 -450.75 386.5 C-454.03 393 -457.1 399.57 -460.15 406.18 C-460.95 407.88 -461.76 409.58 -462.57 411.28 C-466.18 418.91 -469.26 426.67 -472.13 434.6 C-473.08 437.21 -474.05 439.81 -475.03 442.42 C-490.29 480.33 -490.29 480.33 -497 520 C-497.66 520.33 -498.32 520.66 -499 521 C-499.42 522.84 -499.42 522.84 -499.54 525.04 C-499.95 529.53 -500.59 533.93 -501.34 538.38 C-501.6 539.95 -501.86 541.53 -502.12 543.11 C-502.53 545.54 -502.93 547.97 -503.34 550.4 C-504.92 559.83 -506.36 569.24 -507.36 578.75 C-507.9 583.8 -507.9 583.8 -509 586 C-509.07 588.76 -509 591.51 -508.94 594.27 C-508.99 597.37 -509.2 600.34 -509.49 603.41 C-510.05 609.98 -510.18 616.51 -510.2 623.1 C-510.21 624.32 -510.22 625.55 -510.22 626.81 C-510.24 630.75 -510.25 634.69 -510.25 638.62 C-510.25 639.3 -510.25 639.97 -510.25 640.66 C-510.26 661.93 -509.68 682.88 -507 704 C-506.86 705.22 -506.71 706.44 -506.56 707.69 C-500.06 762.21 -485.09 814.42 -464 865 C-463.59 865.99 -463.18 866.99 -462.76 868.01 C-458.32 878.71 -453.63 889.09 -447.98 899.21 C-446.97 901.06 -445.98 902.93 -445 904.8 C-441.22 912.04 -437.22 919.02 -432.87 925.94 C-431.12 928.81 -429.51 931.71 -427.94 934.69 C-425.55 939.14 -422.85 943.2 -419.9 947.29 C-417.75 950.36 -415.75 953.52 -413.75 956.69 C-408.86 964.39 -403.5 971.72 -398 979 C-397.57 979.58 -397.13 980.15 -396.68 980.75 C-388.66 991.34 -380.36 1001.6 -371.34 1011.37 C-369.22 1013.75 -367.28 1016.19 -365.38 1018.75 C-362.61 1022.41 -359.58 1025.22 -356.07 1028.15 C-353.83 1030.15 -351.91 1032.29 -349.94 1034.56 C-345.43 1039.69 -340.52 1044.3 -335.49 1048.91 C-332.39 1051.76 -329.34 1054.64 -326.38 1057.64 C-323.57 1060.48 -320.64 1063.03 -317.5 1065.5 C-314.32 1068.06 -311.31 1070.6 -308.5 1073.56 C-304.97 1077.22 -300.96 1080.03 -296.82 1082.96 C-294.14 1084.9 -291.57 1086.91 -289 1089 C-248.98 1121.3 -202.4 1146.45 -155 1166 C-153.66 1166.55 -153.66 1166.55 -152.29 1167.12 C-109.83 1184.56 -65.3 1195.27 -20 1202 C-18.49 1202.23 -18.49 1202.23 -16.94 1202.47 C48.14 1212.48 116.92 1208.33 181 1194 C182.2 1193.73 183.4 1193.47 184.63 1193.2 C219.71 1185.34 254.41 1174.27 287 1159 C288.77 1158.21 290.54 1157.41 292.31 1156.62 C294.21 1155.75 296.11 1154.88 298 1154 C298.71 1153.67 299.42 1153.35 300.15 1153.01 C310.51 1148.22 320.72 1143.2 330.75 1137.75 C331.64 1137.27 332.53 1136.78 333.45 1136.29 C338.45 1133.54 343.21 1130.58 347.93 1127.38 C350.29 1125.81 352.71 1124.43 355.18 1123.05 C368.3 1115.5 380.7 1106.57 392.86 1097.58 C394.96 1096.03 397.08 1094.48 399.19 1092.94 C407.53 1086.8 415.48 1080.33 423.27 1073.5 C425.02 1071.98 426.79 1070.49 428.56 1069 C435.4 1063.25 441.87 1057.31 448.09 1050.89 C450.25 1048.68 452.52 1046.66 454.87 1044.65 C459.11 1040.98 462.94 1036.99 466.75 1032.88 C467.44 1032.13 468.13 1031.39 468.84 1030.63 C470.24 1029.13 471.64 1027.63 473.03 1026.12 C474.81 1024.21 476.6 1022.3 478.39 1020.39 C483.67 1014.75 488.77 1009.01 493.61 1002.98 C495.38 1000.77 497.17 998.58 498.99 996.39 C507.11 986.57 514.66 976.42 522 966 C522.42 965.41 522.83 964.82 523.26 964.22 C533.59 949.64 542.97 934.59 551.81 919.08 C553.37 916.36 555 913.68 556.62 911 C560.49 904.39 563.65 897.46 566.88 890.52 C568.51 887.02 570.22 883.56 572 880.12 C576.45 871.29 580.21 862.14 584 853 C584.37 852.11 584.74 851.22 585.12 850.3 C601.66 810.19 612.61 767.87 619 725 C619.26 723.25 619.26 723.25 619.53 721.47 C629.45 653.66 626.95 583.88 612 517 C611.77 515.94 611.53 514.87 611.29 513.78 C602.62 474.56 589.49 436.16 572 400 C571.28 398.47 570.57 396.94 569.86 395.41 C565.2 385.43 560.37 375.61 555 366 C554.41 364.94 554.41 364.94 553.81 363.86 C535.92 332.04 515.34 300.7 491.05 273.34 C489.38 271.43 487.72 269.5 486.07 267.57 C485.54 266.95 485.02 266.33 484.48 265.7 C483.43 264.47 482.39 263.24 481.35 262.01 C478.37 258.51 475.27 255.24 472 252 C470.82 250.74 469.64 249.48 468.47 248.21 C461.63 240.84 454.79 233.6 447.25 226.93 C444.77 224.72 442.51 222.49 440.43 219.91 C438.2 217.24 436.07 215.28 433.31 213.19 C428.92 209.77 424.79 206.16 420.71 202.37 C416.94 199.07 412.97 196.05 409 193 C407.79 192.06 407.79 192.06 406.55 191.1 C396.66 183.44 386.74 175.93 376.24 169.11 C372.53 166.7 368.93 164.16 365.34 161.57 C362.94 159.96 360.46 158.53 357.95 157.12 C354.33 155.04 350.8 152.82 347.25 150.62 C336.11 143.79 324.69 137.78 312.99 131.99 C311.13 131.06 309.28 130.12 307.43 129.18 C301.53 126.18 295.6 123.32 289.54 120.68 C288.84 120.38 288.15 120.08 287.44 119.76 C280.16 116.61 272.82 113.6 265.44 110.69 C264.39 110.27 264.39 110.27 263.32 109.85 C218.66 92.29 170.85 79.57 123 75 C121.87 74.89 120.73 74.78 119.56 74.66 C89.03 71.72 58.66 70.07 28 72 Z M692 558 C693 560 693 560 693 560 Z M645 892 C646 894 646 894 646 894 Z M575 1014 C576 1016 576 1016 576 1016 Z " fill="#21273C" transform="translate(582,0)"/>
<path d="M0 0 C17.48 15.02 25.07 32.35 27.36 55 C27.45 57.42 27.49 59.84 27.49 62.26 C27.49 62.95 27.49 63.64 27.49 64.35 C27.5 66.64 27.5 68.94 27.49 71.23 C27.49 72.9 27.5 74.56 27.5 76.23 C27.51 80.8 27.51 85.37 27.5 89.93 C27.5 94.87 27.51 99.8 27.51 104.73 C27.52 114.39 27.53 124.05 27.53 133.71 C27.53 141.56 27.53 149.41 27.53 157.27 C27.54 179.55 27.55 201.84 27.54 224.12 C27.54 225.32 27.54 226.52 27.54 227.76 C27.54 228.96 27.54 230.16 27.54 231.4 C27.54 250.88 27.55 270.35 27.57 289.83 C27.58 309.84 27.59 329.85 27.59 349.86 C27.59 361.09 27.59 372.32 27.6 383.55 C27.61 393.11 27.61 402.68 27.61 412.24 C27.6 417.11 27.6 421.99 27.61 426.86 C27.62 431.34 27.62 435.81 27.61 440.28 C27.61 441.89 27.61 443.5 27.61 445.11 C27.7 470.66 23.8 494.08 5.61 513.12 C-7.75 526.1 -24.31 530.41 -42.57 530.15 C-61.25 529.62 -76.86 521.42 -89.64 508 C-98.4 496.83 -102.15 483.77 -104.64 470 C-104.81 469.09 -104.99 468.18 -105.17 467.24 C-105.68 463.76 -105.77 460.44 -105.77 456.92 C-105.77 456.23 -105.78 455.54 -105.78 454.82 C-105.78 452.5 -105.78 450.18 -105.78 447.87 C-105.78 446.19 -105.79 444.51 -105.79 442.83 C-105.8 438.21 -105.8 433.59 -105.8 428.97 C-105.8 423.99 -105.81 419.02 -105.82 414.04 C-105.83 403.14 -105.84 392.25 -105.84 381.36 C-105.84 374.56 -105.85 367.75 -105.85 360.95 C-105.86 342.1 -105.87 323.25 -105.88 304.41 C-105.88 303.2 -105.88 301.99 -105.88 300.75 C-105.88 299.54 -105.88 298.33 -105.88 297.09 C-105.88 294.64 -105.88 292.19 -105.88 289.74 C-105.88 288.52 -105.88 287.31 -105.88 286.05 C-105.89 266.38 -105.9 246.7 -105.93 227.03 C-105.95 206.82 -105.96 186.6 -105.96 166.39 C-105.96 155.05 -105.97 143.7 -105.99 132.36 C-106 122.7 -106.01 113.03 -106 103.37 C-106 98.44 -106 93.52 -106.01 88.59 C-106.02 84.07 -106.02 79.55 -106.01 75.03 C-106.01 73.41 -106.01 71.78 -106.02 70.16 C-106.13 48.62 -103.04 23.68 -87.58 7.43 C-85.34 5.2 -83.01 3.09 -80.64 1 C-80.08 0.48 -79.52 -0.04 -78.94 -0.58 C-58.08 -17.83 -20.78 -15.74 0 0 Z " fill="#21273C" transform="translate(678.640625,484)"/>
<path d="M0 0 C0.92 0 1.84 0 2.78 0 C20.51 0.32 36.99 7.27 49.94 19.38 C63.03 33.58 66.84 51.79 66.3 70.57 C65.73 80.62 63.07 90.24 58.94 99.38 C58.28 99.38 57.62 99.38 56.94 99.38 C56.83 99.96 56.73 100.54 56.62 101.14 C55.32 105.37 51.95 108.24 48.94 111.38 C48.29 112.05 47.64 112.73 46.96 113.43 C33.3 126.58 14.93 130.86 -3.54 130.59 C-22.79 129.93 -39.14 121.85 -53.06 108.88 C-65.65 95.21 -67.93 76.64 -67.24 58.8 C-65.93 41.05 -56.79 27.23 -44 15.56 C-31.67 5.26 -16.03 -0.03 0 0 Z " fill="#21273C" transform="translate(640.0625,279.625)"/>
<path d="M0 0 C0.99 0.33 1.98 0.66 3 1 C-12.51 16.51 -28.02 32.02 -44 48 C-44.66 47.34 -45.32 46.68 -46 46 C-30.82 30.82 -15.64 15.64 0 0 Z " fill="#383E53" transform="translate(209,164)"/>
<path d="M0 0 C0 0.33 0 0.66 0 1 C-10.3 2.42 -20.71 2.65 -31 1 C-31 0.67 -31 0.34 -31 0 C-20.78 -1.95 -10.28 -1.18 0 0 Z " fill="#000002" transform="translate(656,1208)"/>
<path d="M0 0 C0 3 0 3 -1.97 5.26 C-2.8 6.06 -3.64 6.86 -4.5 7.69 C-5.34 8.5 -6.17 9.3 -7.03 10.14 C-8.01 11.06 -8.01 11.06 -9 12 C-9.99 11.67 -10.98 11.34 -12 11 C-8.39 6.44 -5.01 2.98 0 0 Z " fill="#323749" transform="translate(232,145)"/>
<path d="M0 0 C0.66 0.33 1.32 0.66 2 1 C0.59 4.22 -1.1 6.32 -3.62 8.75 C-4.57 9.67 -4.57 9.67 -5.54 10.61 C-6.02 11.07 -6.5 11.53 -7 12 C-7.66 11.67 -8.32 11.34 -9 11 C-6.22 7.14 -3.11 3.59 0 0 Z " fill="#373D52" transform="translate(155,220)"/>
<path d="M0 0 C1.79 -0.05 3.58 -0.09 5.38 -0.12 C6.37 -0.15 7.37 -0.17 8.4 -0.2 C11 0 11 0 13 2 C8.71 1.67 4.42 1.34 0 1 C0 0.67 0 0.34 0 0 Z " fill="#000002" transform="translate(547,1274)"/>
<path d="M0 0 C5.28 0 10.56 0 16 0 C16 0.33 16 0.66 16 1 C10.72 1 5.44 1 0 1 C0 0.67 0 0.34 0 0 Z " fill="#000002" transform="translate(696,1277)"/>
<path d="M0 0 C0.8 0.02 1.6 0.04 2.42 0.05 C3.03 0.08 3.63 0.1 4.25 0.12 C4.25 0.45 4.25 0.79 4.25 1.12 C-2.18 1.62 -2.18 1.62 -8.75 2.12 C-5.01 0.25 -3.91 -0.11 0 0 Z " fill="#000002" transform="translate(728.75,1273.875)"/>
<path d="M0 0 C4.62 0 9.24 0 14 0 C14 0.33 14 0.66 14 1 C9.38 1 4.76 1 0 1 C0 0.67 0 0.34 0 0 Z " fill="#000002" transform="translate(568,1277)"/>
<path d="M0 0 C0.33 0 0.66 0 1 0 C1 4.62 1 9.24 1 14 C0.67 14 0.34 14 0 14 C0 9.38 0 4.76 0 0 Z " fill="#000002" transform="translate(1277,698)"/>
<path d="M0 0 C2 2 2 2 2.12 5.12 C2.08 6.07 2.04 7.02 2 8 C1.34 7.67 0.68 7.34 0 7 C0 4.69 0 2.38 0 0 Z " fill="#000002" transform="translate(1269,520)"/>
<path d="M0 0 C-3.4 2.09 -6.05 2.18 -10 2 C-6.6 -0.09 -3.95 -0.18 0 0 Z " fill="#000002" transform="translate(763,1269)"/>
<path d="M0 0 C0.33 0 0.66 0 1 0 C0.67 3.3 0.34 6.6 0 10 C-0.33 10 -0.66 10 -1 10 C-1.12 3.38 -1.12 3.38 0 0 Z " fill="#000002" transform="translate(1270,753)"/>
<path d="M0 0 C2.31 0 4.62 0 7 0 C7.33 0.66 7.66 1.32 8 2 C5.36 1.67 2.72 1.34 0 1 C0 0.67 0 0.34 0 0 Z " fill="#000002" transform="translate(494,1264)"/>
<path d="M0 0 C1.43 2.35 2.09 3.48 1.62 6.25 C1.42 6.83 1.21 7.4 1 8 C0 7 0 7 -0.06 3.44 C-0.04 2.3 -0.02 1.17 0 0 Z " fill="#000002" transform="translate(1264,494)"/>
<path d="M0 0 C3.3 0 6.6 0 10 0 C10 0.33 10 0.66 10 1 C6.7 1 3.4 1 0 1 C0 0.67 0 0.34 0 0 Z " fill="#000002" transform="translate(738,1272)"/>
<path d="M0 0 C2.97 0.33 5.94 0.66 9 1 C9 1.33 9 1.66 9 2 C6.03 1.67 3.06 1.34 0 1 C0 0.67 0 0.34 0 0 Z " fill="#000002" transform="translate(518,1269)"/>
<path d="M0 0 C-2.35 1.43 -3.48 2.09 -6.25 1.62 C-6.83 1.42 -7.4 1.21 -8 1 C-5.29 -0.35 -2.99 -0.07 0 0 Z " fill="#000002" transform="translate(786,1264)"/>
<path d="M0 0 C2 3 2 3 1.62 5.19 C1.32 6.08 1.32 6.08 1 7 C0 6 0 6 -0.06 2.94 C-0.04 1.97 -0.02 1 0 0 Z " fill="#000002" transform="translate(1259,474)"/>
<path d="M0 0 C2.97 0 5.94 0 9 0 C9 0.33 9 0.66 9 1 C6.03 1 3.06 1 0 1 C0 0.67 0 0.34 0 0 Z " fill="#000002" transform="translate(533,1272)"/>
<path d="M0 0 C0.33 0 0.66 0 1 0 C1 2.97 1 5.94 1 9 C0.67 9 0.34 9 0 9 C0 6.03 0 3.06 0 0 Z " fill="#000002" transform="translate(1272,738)"/>
<path d="M0 0 C0.33 0 0.66 0 1 0 C1 2.97 1 5.94 1 9 C0.67 9 0.34 9 0 9 C0 6.03 0 3.06 0 0 Z " fill="#000002" transform="translate(1272,533)"/>
<path d="M0 0 C1.65 0 3.3 0 5 0 C5.33 0.66 5.66 1.32 6 2 C3.03 1.51 3.03 1.51 0 1 C0 0.67 0 0.34 0 0 Z " fill="#000002" transform="translate(474,1259)"/>
<path d="M0 0 C2.12 0.38 2.12 0.38 4 1 C2.02 1.33 0.04 1.66 -2 2 C-1.34 1.34 -0.68 0.68 0 0 Z " fill="#000002" transform="translate(802,1259)"/>
<path d="M0 0 C2.12 0.38 2.12 0.38 4 1 C2.02 1.33 0.04 1.66 -2 2 C-1.34 1.34 -0.68 0.68 0 0 Z " fill="#000002" transform="translate(820,1254)"/>
<path d="M0 0 C0.33 0 0.66 0 1 0 C1 2.31 1 4.62 1 7 C0.67 7 0.34 7 0 7 C0 4.69 0 2.38 0 0 Z " fill="#000002" transform="translate(1275,720)"/>
<path d="M0 0 C1.98 0 3.96 0 6 0 C6 0.33 6 0.66 6 1 C4.02 1 2.04 1 0 1 C0 0.67 0 0.34 0 0 Z " fill="#000002" transform="translate(768,1267)"/>
<path d="M0 0 C2.48 0.49 2.48 0.49 5 1 C4.01 1.49 4.01 1.49 3 2 C2.01 1.34 1.02 0.68 0 0 Z " fill="#000002" transform="translate(457,1254)"/>
<path d="M0 0 C0.33 0 0.66 0 1 0 C1 1.98 1 3.96 1 6 C0.67 6 0.34 6 0 6 C0 4.02 0 2.04 0 0 Z " fill="#000002" transform="translate(1267,768)"/>
<path d="M0 0 C0.33 0 0.66 0 1 0 C1 1.98 1 3.96 1 6 C0.67 6 0.34 6 0 6 C0 4.02 0 2.04 0 0 Z " fill="#000002" transform="translate(1267,506)"/>
<path d="M0 0 C1 4 1 4 1 4 Z " fill="#000002" transform="translate(1254,820)"/>
<path d="M0 0 C1 4 1 4 1 4 Z " fill="#000002" transform="translate(1265,778)"/>
<path d="M0 0 C1 4 1 4 1 4 Z " fill="#000002" transform="translate(1255,459)"/>
<path d="M0 0 C3 1 3 1 3 1 Z " fill="#000002" transform="translate(828,1252)"/>
<path d="M0 0 C3 1 3 1 3 1 Z " fill="#000002" transform="translate(449,1252)"/>
<path d="M0 0 C3 1 3 1 3 1 Z " fill="#000002" transform="translate(843,1247)"/>
<path d="M0 0 C3 1 3 1 3 1 Z " fill="#000002" transform="translate(434,1247)"/>
<path d="M0 0 C3 1 3 1 3 1 Z " fill="#000002" transform="translate(426,1244)"/>
<path d="M0 0 C3 1 3 1 3 1 Z " fill="#000002" transform="translate(871,1237)"/>
<path d="M0 0 C3 1 3 1 3 1 Z " fill="#000002" transform="translate(883,1232)"/>
<path d="M0 0 C3 1 3 1 3 1 Z " fill="#000002" transform="translate(394,1232)"/>
<path d="M0 0 C3 1 3 1 3 1 Z " fill="#000002" transform="translate(906,1222)"/>
<path d="M0 0 C0.99 0.49 0.99 0.49 2 1 C1.01 1.49 1.01 1.49 0 2 C0 1.34 0 0.68 0 0 Z " fill="#161A29" transform="translate(1141,1036)"/>
<path d="" fill="#000002" transform="translate(0,0)"/>
<path d="" fill="#000002" transform="translate(0,0)"/>
<path d="" fill="#000002" transform="translate(0,0)"/>
<path d="" fill="#000002" transform="translate(0,0)"/>
<path d="" fill="#000002" transform="translate(0,0)"/>
<path d="" fill="#000002" transform="translate(0,0)"/>
<path d="" fill="#000002" transform="translate(0,0)"/>
<path d="M0 0 C0.66 0 1.32 0 2 0 C1.67 0.66 1.34 1.32 1 2 C0.67 1.34 0.34 0.68 0 0 Z " fill="#000002" transform="translate(1189,311)"/>
<path d="M0 0 C2 1 2 1 2 1 Z " fill="#000002" transform="translate(443,1250)"/>
<path d="M0 0 C2 1 2 1 2 1 Z " fill="#000002" transform="translate(837,1249)"/>
<path d="M0 0 C2 1 2 1 2 1 Z " fill="#000002" transform="translate(850,1245)"/>
<path d="M0 0 C2 1 2 1 2 1 Z " fill="#000002" transform="translate(852,1244)"/>
<path d="M0 0 C2 1 2 1 2 1 Z " fill="#000002" transform="translate(858,1242)"/>
<path d="M0 0 C2 1 2 1 2 1 Z " fill="#000002" transform="translate(420,1242)"/>
<path d="M0 0 C2 1 2 1 2 1 Z " fill="#000002" transform="translate(863,1240)"/>
<path d="M0 0 C2 1 2 1 2 1 Z " fill="#000002" transform="translate(415,1240)"/>
<path d="M0 0 C2 1 2 1 2 1 Z " fill="#000002" transform="translate(413,1239)"/>
<path d="M0 0 C2 1 2 1 2 1 Z " fill="#696F85" transform="translate(867,1238)"/>
<path d="M0 0 C2 1 2 1 2 1 Z " fill="#000002" transform="translate(896,1227)"/>
<path d="M0 0 C2 1 2 1 2 1 Z " fill="#000002" transform="translate(900,1225)"/>
<path d="M0 0 C2 1 2 1 2 1 Z " fill="#696F85" transform="translate(902,1223)"/>
<path d="M0 0 C2 1 2 1 2 1 Z " fill="#696F85" transform="translate(376,1223)"/>
<path d="M0 0 C2 1 2 1 2 1 Z " fill="#000002" transform="translate(372,1222)"/>
<path d="M0 0 C2 1 2 1 2 1 Z " fill="#000002" transform="translate(366,1219)"/>
<path d="M0 0 C2 1 2 1 2 1 Z " fill="#000002" transform="translate(928,1212)"/>
<path d="M0 0 C2 1 2 1 2 1 Z " fill="#000002" transform="translate(946,1202)"/>
<path d="M0 0 C2 1 2 1 2 1 Z " fill="#000002" transform="translate(964,1192)"/>
<path d="M0 0 C2 1 2 1 2 1 Z " fill="#000002" transform="translate(282,1172)"/>
<path d="M0 0 C2 1 2 1 2 1 Z " fill="#696F85" transform="translate(997,1170)"/>
<path d="" fill="#000002" transform="translate(0,0)"/>
<path d="" fill="#000002" transform="translate(0,0)"/>
<path d="" fill="#696F85" transform="translate(0,0)"/>
<path d="" fill="#696F85" transform="translate(0,0)"/>
<path d="" fill="#000002" transform="translate(0,0)"/>
<path d="" fill="#696F85" transform="translate(0,0)"/>
<path d="" fill="#000002" transform="translate(0,0)"/>
<path d="" fill="#000002" transform="translate(0,0)"/>
<path d="" fill="#000002" transform="translate(0,0)"/>
<path d="" fill="#000002" transform="translate(0,0)"/>
<path d="" fill="#000002" transform="translate(0,0)"/>
<path d="" fill="#000002" transform="translate(0,0)"/>
<path d="" fill="#000002" transform="translate(0,0)"/>
<path d="" fill="#000002" transform="translate(0,0)"/>
<path d="" fill="#696F85" transform="translate(0,0)"/>
<path d="" fill="#696F85" transform="translate(0,0)"/>
<path d="" fill="#696F85" transform="translate(0,0)"/>
<path d="" fill="#696F85" transform="translate(0,0)"/>
<path d="" fill="#000002" transform="translate(0,0)"/>
<path d="" fill="#000002" transform="translate(0,0)"/>
<path d="" fill="#000002" transform="translate(0,0)"/>
<path d="" fill="#696F85" transform="translate(0,0)"/>
<path d="" fill="#696F85" transform="translate(0,0)"/>
<path d="" fill="#696F85" transform="translate(0,0)"/>
<path d="" fill="#000002" transform="translate(0,0)"/>
<path d="" fill="#000002" transform="translate(0,0)"/>
<path d="" fill="#696F85" transform="translate(0,0)"/>
<path d="" fill="#696F85" transform="translate(0,0)"/>
<path d="" fill="#000002" transform="translate(0,0)"/>
<path d="" fill="#696F85" transform="translate(0,0)"/>
<path d="" fill="#696F85" transform="translate(0,0)"/>
<path d="" fill="#000002" transform="translate(0,0)"/>
<path d="" fill="#696F85" transform="translate(0,0)"/>
<path d="" fill="#696F85" transform="translate(0,0)"/>
<path d="" fill="#000002" transform="translate(0,0)"/>
<path d="" fill="#000002" transform="translate(0,0)"/>
<path d="" fill="#696F85" transform="translate(0,0)"/>
<path d="" fill="#000002" transform="translate(0,0)"/>
<path d="" fill="#000002" transform="translate(0,0)"/>
<path d="" fill="#696F85" transform="translate(0,0)"/>
<path d="" fill="#696F85" transform="translate(0,0)"/>
<path d="" fill="#000002" transform="translate(0,0)"/>
<path d="" fill="#000002" transform="translate(0,0)"/>
<path d="" fill="#000002" transform="translate(0,0)"/>
<path d="" fill="#696F85" transform="translate(0,0)"/>
<path d="" fill="#000002" transform="translate(0,0)"/>
<path d="" fill="#696F85" transform="translate(0,0)"/>
<path d="" fill="#000002" transform="translate(0,0)"/>
<path d="" fill="#696F85" transform="translate(0,0)"/>
<path d="" fill="#696F85" transform="translate(0,0)"/>
<path d="" fill="#000002" transform="translate(0,0)"/>
<path d="" fill="#696F85" transform="translate(0,0)"/>
<path d="" fill="#000002" transform="translate(0,0)"/>
<path d="" fill="#000002" transform="translate(0,0)"/>
<path d="" fill="#696F85" transform="translate(0,0)"/>
<path d="" fill="#696F85" transform="translate(0,0)"/>
<path d="" fill="#696F85" transform="translate(0,0)"/>
<path d="" fill="#000002" transform="translate(0,0)"/>
<path d="" fill="#696F85" transform="translate(0,0)"/>
<path d="" fill="#000002" transform="translate(0,0)"/>
<path d="" fill="#000002" transform="translate(0,0)"/>
<path d="" fill="#696F85" transform="translate(0,0)"/>
<path d="" fill="#000002" transform="translate(0,0)"/>
<path d="" fill="#000002" transform="translate(0,0)"/>
<path d="" fill="#696F85" transform="translate(0,0)"/>
<path d="" fill="#000002" transform="translate(0,0)"/>
<path d="" fill="#696F85" transform="translate(0,0)"/>
<path d="" fill="#000002" transform="translate(0,0)"/>
<path d="" fill="#696F85" transform="translate(0,0)"/>
<path d="" fill="#000002" transform="translate(0,0)"/>
<path d="" fill="#696F85" transform="translate(0,0)"/>
<path d="" fill="#000002" transform="translate(0,0)"/>
<path d="" fill="#000002" transform="translate(0,0)"/>
<path d="" fill="#696F85" transform="translate(0,0)"/>
<path d="" fill="#696F85" transform="translate(0,0)"/>
<path d="" fill="#000002" transform="translate(0,0)"/>
<path d="" fill="#000002" transform="translate(0,0)"/>
<path d="" fill="#696F85" transform="translate(0,0)"/>
<path d="" fill="#000002" transform="translate(0,0)"/>
<path d="" fill="#696F85" transform="translate(0,0)"/>
<path d="" fill="#696F85" transform="translate(0,0)"/>
<path d="" fill="#000002" transform="translate(0,0)"/>
<path d="" fill="#22283D" transform="translate(0,0)"/>
<path d="" fill="#696F85" transform="translate(0,0)"/>
<path d="" fill="#000002" transform="translate(0,0)"/>
<path d="" fill="#696F85" transform="translate(0,0)"/>
<path d="" fill="#696F85" transform="translate(0,0)"/>
<path d="" fill="#000002" transform="translate(0,0)"/>
<path d="" fill="#696F85" transform="translate(0,0)"/>
<path d="" fill="#000002" transform="translate(0,0)"/>
<path d="" fill="#696F85" transform="translate(0,0)"/>
<path d="" fill="#000002" transform="translate(0,0)"/>
<path d="" fill="#696F85" transform="translate(0,0)"/>
<path d="" fill="#696F85" transform="translate(0,0)"/>
<path d="" fill="#000002" transform="translate(0,0)"/>
<path d="" fill="#000002" transform="translate(0,0)"/>
<path d="" fill="#000002" transform="translate(0,0)"/>
<path d="" fill="#696F85" transform="translate(0,0)"/>
<path d="" fill="#696F85" transform="translate(0,0)"/>
<path d="" fill="#000002" transform="translate(0,0)"/>
<path d="" fill="#000002" transform="translate(0,0)"/>
<path d="" fill="#000002" transform="translate(0,0)"/>
<path d="" fill="#000002" transform="translate(0,0)"/>
<path d="" fill="#696F85" transform="translate(0,0)"/>
<path d="" fill="#000002" transform="translate(0,0)"/>
<path d="" fill="#000002" transform="translate(0,0)"/>
<path d="" fill="#000002" transform="translate(0,0)"/>
<path d="" fill="#696F85" transform="translate(0,0)"/>
<path d="" fill="#000002" transform="translate(0,0)"/>
<path d="" fill="#000002" transform="translate(0,0)"/>
<path d="" fill="#000002" transform="translate(0,0)"/>
<path d="" fill="#000002" transform="translate(0,0)"/>
<path d="" fill="#000002" transform="translate(0,0)"/>
<path d="" fill="#696F85" transform="translate(0,0)"/>
<path d="" fill="#22283D" transform="translate(0,0)"/>
<path d="" fill="#696F85" transform="translate(0,0)"/>
<path d="" fill="#696F85" transform="translate(0,0)"/>
<path d="" fill="#000002" transform="translate(0,0)"/>
<path d="" fill="#696F85" transform="translate(0,0)"/>
<path d="" fill="#696F85" transform="translate(0,0)"/>
<path d="" fill="#000002" transform="translate(0,0)"/>
<path d="" fill="#696F85" transform="translate(0,0)"/>
<path d="" fill="#000002" transform="translate(0,0)"/>
<path d="" fill="#696F85" transform="translate(0,0)"/>
<path d="" fill="#000002" transform="translate(0,0)"/>
<path d="" fill="#000002" transform="translate(0,0)"/>
<path d="" fill="#696F85" transform="translate(0,0)"/>
<path d="" fill="#000002" transform="translate(0,0)"/>
<path d="" fill="#696F85" transform="translate(0,0)"/>
<path d="" fill="#000002" transform="translate(0,0)"/>
<path d="" fill="#696F85" transform="translate(0,0)"/>
<path d="" fill="#000002" transform="translate(0,0)"/>
<path d="" fill="#000002" transform="translate(0,0)"/>
<path d="" fill="#696F85" transform="translate(0,0)"/>
<path d="" fill="#000002" transform="translate(0,0)"/>
<path d="" fill="#696F85" transform="translate(0,0)"/>
<path d="" fill="#000002" transform="translate(0,0)"/>
<path d="" fill="#696F85" transform="translate(0,0)"/>
<path d="" fill="#000002" transform="translate(0,0)"/>
<path d="" fill="#000002" transform="translate(0,0)"/>
<path d="" fill="#696F85" transform="translate(0,0)"/>
<path d="" fill="#000002" transform="translate(0,0)"/>
<path d="" fill="#696F85" transform="translate(0,0)"/>
<path d="" fill="#000002" transform="translate(0,0)"/>
<path d="" fill="#696F85" transform="translate(0,0)"/>
<path d="" fill="#696F85" transform="translate(0,0)"/>
<path d="" fill="#000002" transform="translate(0,0)"/>
<path d="" fill="#696F85" transform="translate(0,0)"/>
<path d="" fill="#696F85" transform="translate(0,0)"/>
<path d="" fill="#000002" transform="translate(0,0)"/>
<path d="" fill="#696F85" transform="translate(0,0)"/>
<path d="" fill="#696F85" transform="translate(0,0)"/>
<path d="" fill="#696F85" transform="translate(0,0)"/>
<path d="" fill="#000002" transform="translate(0,0)"/>
<path d="" fill="#696F85" transform="translate(0,0)"/>
<path d="" fill="#696F85" transform="translate(0,0)"/>
<path d="" fill="#696F85" transform="translate(0,0)"/>
<path d="" fill="#696F85" transform="translate(0,0)"/>
<path d="" fill="#696F85" transform="translate(0,0)"/>
<path d="" fill="#000002" transform="translate(0,0)"/>
<path d="" fill="#696F85" transform="translate(0,0)"/>
<path d="" fill="#000002" transform="translate(0,0)"/>
<path d="" fill="#696F85" transform="translate(0,0)"/>
<path d="" fill="#696F85" transform="translate(0,0)"/>
<path d="" fill="#696F85" transform="translate(0,0)"/>
<path d="" fill="#696F85" transform="translate(0,0)"/>
<path d="" fill="#696F85" transform="translate(0,0)"/>
<path d="" fill="#696F85" transform="translate(0,0)"/>
<path d="" fill="#696F85" transform="translate(0,0)"/>
<path d="" fill="#000002" transform="translate(0,0)"/>
<path d="" fill="#000002" transform="translate(0,0)"/>
<path d="" fill="#000002" transform="translate(0,0)"/>
<path d="" fill="#000002" transform="translate(0,0)"/>
<path d="" fill="#000002" transform="translate(0,0)"/>
<path d="" fill="#000002" transform="translate(0,0)"/>
<path d="" fill="#696F85" transform="translate(0,0)"/>
<path d="" fill="#000002" transform="translate(0,0)"/>
<path d="" fill="#696F85" transform="translate(0,0)"/>
<path d="" fill="#000002" transform="translate(0,0)"/>
<path d="" fill="#696F85" transform="translate(0,0)"/>
<path d="" fill="#000002" transform="translate(0,0)"/>
<path d="" fill="#696F85" transform="translate(0,0)"/>
<path d="" fill="#000002" transform="translate(0,0)"/>
<path d="" fill="#000002" transform="translate(0,0)"/>
<path d="" fill="#000002" transform="translate(0,0)"/>
<path d="" fill="#696F85" transform="translate(0,0)"/>
<path d="" fill="#000002" transform="translate(0,0)"/>
<path d="" fill="#000002" transform="translate(0,0)"/>
<path d="" fill="#000002" transform="translate(0,0)"/>
<path d="" fill="#696F85" transform="translate(0,0)"/>
<path d="" fill="#000002" transform="translate(0,0)"/>
<path d="" fill="#696F85" transform="translate(0,0)"/>
<path d="" fill="#000002" transform="translate(0,0)"/>
<path d="" fill="#000002" transform="translate(0,0)"/>
<path d="" fill="#000002" transform="translate(0,0)"/>
<path d="" fill="#000002" transform="translate(0,0)"/>
<path d="" fill="#696F85" transform="translate(0,0)"/>
<path d="" fill="#696F85" transform="translate(0,0)"/>
<path d="" fill="#000002" transform="translate(0,0)"/>
<path d="" fill="#000002" transform="translate(0,0)"/>
<path d="" fill="#000002" transform="translate(0,0)"/>
<path d="" fill="#000002" transform="translate(0,0)"/>
<path d="" fill="#000002" transform="translate(0,0)"/>
<path d="" fill="#000002" transform="translate(0,0)"/>
<path d="" fill="#000002" transform="translate(0,0)"/>
<path d="" fill="#000002" transform="translate(0,0)"/>
<path d="" fill="#000002" transform="translate(0,0)"/>
<path d="" fill="#000002" transform="translate(0,0)"/>
<path d="" fill="#000002" transform="translate(0,0)"/>
</svg>
