<svg xmlns="http://www.w3.org/2000/svg" version="1.1" xmlns:xlink="http://www.w3.org/1999/xlink" width="512" height="512" x="0" y="0" viewBox="0 0 48 48" style="enable-background:new 0 0 512 512" xml:space="preserve" fill-rule="evenodd"><rect width="48" height="48" rx="9.6" ry="9.6" fill="#bac8d3" shape="rounded"></rect><g transform="matrix(0.6,0,0,0.6,9.800000000000002,9.600000000000003)"><linearGradient id="a" x1="0" x2="1" y1="0" y2="0" gradientTransform="matrix(48 48 -48 48 648 648)" gradientUnits="userSpaceOnUse"><stop offset="0" stop-color="#b985de"></stop><stop offset="1" stop-color="#251ee5"></stop></linearGradient><path fill="url(#a)" d="m655.779 689 .43 1.291a2.502 2.502 0 0 0 2.372 1.709h1.838a2.502 2.502 0 0 0 2.372-1.709l.43-1.291h18.558l.43 1.291a2.502 2.502 0 0 0 2.372 1.709h1.838a2.502 2.502 0 0 0 2.372-1.709l.43-1.291H692a2.5 2.5 0 0 0 2.5-2.5v-9a2.5 2.5 0 0 0-2.5-2.5h-3.5v-20.5a2.5 2.5 0 0 0-2.5-2.5h-1a2.5 2.5 0 0 0-2.5 2.5V675h-20v-20.5a2.5 2.5 0 0 0-2.5-2.5h-1a2.5 2.5 0 0 0-2.5 2.5V675H653a2.5 2.5 0 0 0-2.5 2.5v9a2.5 2.5 0 0 0 2.5 2.5zm2.108 0 .22.658a.5.5 0 0 0 .474.342h1.838a.5.5 0 0 0 .474-.342l.22-.658zm26 0 .22.658a.5.5 0 0 0 .474.342h1.838a.5.5 0 0 0 .474-.342l.22-.658zm3.613-10a3.001 3.001 0 0 0 0 6 3.001 3.001 0 0 0 0-6zm-6 1.75a1.25 1.25 0 1 1 0 2.5 1.25 1.25 0 0 1 0-2.5zm-4 .25h-15a1 1 0 0 0 0 2h15a1 1 0 0 0 0-2zm10 0a1 1 0 1 1 0 2 1 1 0 0 1 0-2zm-1-6v-20.5a.504.504 0 0 0-.146-.354A.504.504 0 0 0 686 654h-1a.504.504 0 0 0-.354.146.504.504 0 0 0-.146.354V675zm-26 0v-20.5a.504.504 0 0 0-.146-.354A.504.504 0 0 0 660 654h-1a.504.504 0 0 0-.354.146.504.504 0 0 0-.146.354V675z" transform="translate(-648 -648)" opacity="1" data-original="url(#a)"></path></g></svg>