<svg xmlns="http://www.w3.org/2000/svg" version="1.1" xmlns:xlink="http://www.w3.org/1999/xlink" width="512" height="512" x="0" y="0" viewBox="0 0 1707 1707" style="enable-background:new 0 0 512 512" xml:space="preserve" fill-rule="evenodd" class=""><rect width="1707" height="1707" rx="341.4" ry="341.4" fill="#bac8d3" shape="rounded"></rect><g transform="matrix(0.58,0,0,0.58,358.26000000000005,358.26000000000005)"><linearGradient id="a" x1="810.177" x2="896.484" y1="-1" y2="1707.66" gradientUnits="userSpaceOnUse"><stop offset="0" stop-color="#a96f44"></stop><stop offset="1" stop-color="#f2ecb6"></stop></linearGradient><path fill="url(#a)" d="M1281 1684h-150c-36 0-66-32-66-71v-114c51 0 245 4 283-3v117c0 39-30 71-67 71zM163 788H20c-11 0-20-9-20-20V575c0-25 31-20 52-20V452c0-57 46-103 103-103h1397c57 0 103 46 103 103v103c21 0 51-5 51 20v193c0 11-9 20-20 20h-142c-11 0-20-9-20-20V575c0-25 31-20 52-20 1-41 2-111-7-120-7-7-48-7-75-6v429l-230 134h-20l-169-170 24-24c19-19-10-47-28-29l-78 78c-18 19 10 46 29 28l24-24 141 141H707L538 822l25-24c18-19-10-47-29-29l-77 78c-19 19 10 46 28 28l25-24 141 141H443L212 827V429c-94-2-82-12-81 126 21 0 52-5 52 20v193c0 11-9 20-20 20zm405-625 37-126c2-9 10-15 19-15h459c9 0 17 6 19 15l36 126zm740 1303H399c-76 0-142-46-171-111l193-14c10-1 19-9 19-20v-206c0-9-7-17-16-19l-212-53V876l213 152c4 2 8 4 12 4h833c7 0 125-69 224-127v138l-212 53c-9 2-15 10-15 19v206c0 11 8 19 19 20l192 14c-29 65-94 111-170 111zM228 309c28-66 94-113 171-113h909c76 0 142 47 171 113zm919 1056H560c-11 0-20-9-20-20v-229c0-11 9-20 20-20h587c11 0 20 9 20 20v229c0 11-9 20-20 20zm-567-40h547v-189H580zm398-20c-11 0-20-9-20-20v-109c0-26 40-26 40 0v109c0 11-9 20-20 20zm-125 0c-11 0-20-9-20-20v-109c0-26 40-26 40 0v109c0 11-9 20-20 20zm-124 0c-12 0-20-9-20-20v-109c0-26 40-26 40 0v109c0 11-9 20-20 20zm652-64c-53 0-53-80 0-80 52 0 52 80 0 80zm-1055 0c-53 0-53-80 0-80s53 80 0 80zm1168-157c0 44 3 198-3 231l-184-13v-171zM216 1315c-7-33-4-187-4-231l188 47v171zm359 369H426c-37 0-67-32-67-71v-117c38 7 232 3 283 3v114c0 39-30 71-67 71z" opacity="1" data-original="url(#a)"></path></g></svg>