<svg xmlns="http://www.w3.org/2000/svg" version="1.1" xmlns:xlink="http://www.w3.org/1999/xlink" width="512" height="512" x="0" y="0" viewBox="0 0 64 64" style="enable-background:new 0 0 512 512" xml:space="preserve"><rect width="64" height="64" rx="12.8" ry="12.8" fill="#bac8d3" shape="rounded"></rect><g transform="matrix(0.68,0,0,0.68,10.24013641357422,10.240158996582032)"><linearGradient id="a" x1="4" x2="60" y1="32" y2="32" gradientUnits="userSpaceOnUse"><stop offset="0" stop-color="#ffde00"></stop><stop offset="1" stop-color="#fd5900"></stop></linearGradient><path fill="url(#a)" d="M17.06 33.66a2.315 2.315 0 0 1 0 4.63 2.315 2.315 0 0 1 0-4.63zm27.48-.445h-14.7v1.833h14.7zm7.428-7.62H4.038c-.335-3.072 1.61-5.831 4.822-5.865h38.285c3.212.038 5.153 2.791 4.823 5.865zm-11.209-3.897a.965.965 0 0 0 0 1.93.965.965 0 0 0 0-1.93zm4.09 0a.965.965 0 0 0 0 1.93.965.965 0 0 0 0-1.93zM4.037 27.524h47.931v19.939a4.83 4.83 0 0 1-4.823 4.823H8.86a4.825 4.825 0 0 1-4.823-4.823zm15.627 18.212-.27-3.887a.962.962 0 0 0-1.92.135l.241 3.472-.656.685-.646-.685.241-3.472a.962.962 0 0 0-1.92-.135l-.27 3.887a.943.943 0 0 0 .251.723l1.64 1.756a.988.988 0 0 0 .704.309.971.971 0 0 0 .704-.31l1.64-1.755a.95.95 0 0 0 .26-.723zm9.211.386a.94.94 0 0 0 0 1.88.94.94 0 0 0 0-1.88zm0-3.617a.94.94 0 0 0 0 1.88.94.94 0 0 0 0-1.88zm.936-2.672a.936.936 0 0 0-1.871 0 .936.936 0 0 0 1.871 0zm8.749 6.27h-6.347a.965.965 0 0 0 0 1.929h6.347a.965.965 0 0 0 0-1.93zm0-3.618h-6.347a.965.965 0 0 0 0 1.93h6.347a.965.965 0 0 0 0-1.93zm0-3.617h-6.347a.965.965 0 1 0 0 1.93h6.347a.965.965 0 0 0 0-1.93zm-10.65-3.82a1.935 1.935 0 0 0 1.93 1.93h14.7a1.935 1.935 0 0 0 1.93-1.93v-1.833a1.935 1.935 0 0 0-1.93-1.929h-14.7a1.935 1.935 0 0 0-1.93 1.93zm-6.607 5.576a2.773 2.773 0 0 1 1.36 2.382v4.543a.965.965 0 0 0 1.93 0v-4.543a4.725 4.725 0 0 0-2.306-4.042.965.965 0 0 0-.984 1.66zm-4.244-.406a4.244 4.244 0 0 0 0-8.488 4.244 4.244 0 0 0 0 8.488zM9.535 47.55a.965.965 0 0 0 1.93 0v-4.543a2.785 2.785 0 0 1 1.35-2.382.962.962 0 1 0-.974-1.66 4.725 4.725 0 0 0-2.306 4.042zm45.732-35.835H16.77a4.716 4.716 0 0 0-4.717 4.708v1.38h35.092a6.76 6.76 0 0 1 6.752 6.751v14.064h6.039c.14.127 0-22.205.048-22.195a4.716 4.716 0 0 0-4.717-4.708zm-1.37 28.832v3.733h1.37a4.717 4.717 0 0 0 4.61-3.733c-1.266-.004-4.67.003-5.98 0z" opacity="1" data-original="url(#a)"></path></g></svg>