<svg xmlns="http://www.w3.org/2000/svg" version="1.1" xmlns:xlink="http://www.w3.org/1999/xlink" width="512" height="512" x="0" y="0" viewBox="0 0 512 512" style="enable-background:new 0 0 512 512" xml:space="preserve"><rect width="512" height="512" rx="102.4" ry="102.4" fill="#bac8d3" shape="rounded"></rect><g transform="matrix(0.5499999999999999,0,0,0.5499999999999999,115.20000000000002,105.19707102775575)"><linearGradient id="a" x1="256" x2="256.001" y1="499.841" y2="12.159" gradientUnits="userSpaceOnUse"><stop offset="0" stop-color="#6c54a3"></stop><stop offset="1" stop-color="#00b1d2"></stop></linearGradient><path fill="url(#a)" fill-rule="evenodd" d="M484.4 411.273a8.005 8.005 0 0 1-8.019 8H432.42a8 8 0 1 1 0-16h43.963a8.005 8.005 0 0 1 8.019 8zm0-29.4a8.005 8.005 0 0 1-8.019 8H432.42a8 8 0 1 1 0-16h43.963a8.005 8.005 0 0 1 8.019 8zm0-29.4a8.005 8.005 0 0 1-8.019 8H432.42a8 8 0 1 1 0-16h43.963a8.005 8.005 0 0 1 8.019 8zm-30-103.7a30.2 30.2 0 1 0 30.19 30.2 30.225 30.225 0 0 0-30.19-30.2zm0-69a30.2 30.2 0 1 0 30.19 30.2 30.23 30.23 0 0 0-30.19-30.2zm-49.623-18.217H45.994a7.964 7.964 0 0 0-7.972 8v284.3a7.971 7.971 0 0 0 7.972 8h358.784a8.011 8.011 0 0 0 8.019-8v-284.3a8 8 0 0 0-8.019-8zm91.229 311.3v-322.3a11.02 11.02 0 0 0-10.991-11H26.984a11.019 11.019 0 0 0-10.991 11v322.3a11.017 11.017 0 0 0 10.991 10.986h458.032a11.017 11.017 0 0 0 10.991-10.986zm-10.991-349.3H317.653A62.667 62.667 0 0 0 301.662 93.4l67.6-67.587A8 8 0 0 0 357.937 14.5l-68.729 68.755a62.736 62.736 0 0 0-66.417 0L154.063 14.5a8 8 0 1 0-11.321 11.311l67.6 67.587a62.659 62.659 0 0 0-15.991 30.152H26.984A27.032 27.032 0 0 0 0 150.553v322.3a27.029 27.029 0 0 0 26.982 26.986h458.034A27.029 27.029 0 0 0 512 472.855v-322.3a27.032 27.032 0 0 0-26.982-27zm-250.1 134.1A8.01 8.01 0 0 1 249.4 250.8l48.11 101.674L345.672 250.8a7.988 7.988 0 1 1 14.434 6.85l-55.331 116.942a8.021 8.021 0 0 1-14.482 0l-55.379-116.941zM208.5 244.235a8 8 0 1 1 0 16h-47.314v108.8a8 8 0 1 1-15.991 0v-108.8H97.882a8 8 0 0 1 0-16z" opacity="1" data-original="url(#a)"></path></g></svg>