<svg xmlns="http://www.w3.org/2000/svg" version="1.1" xmlns:xlink="http://www.w3.org/1999/xlink" width="512" height="512" x="0" y="0" viewBox="0 0 512 512" style="enable-background:new 0 0 512 512" xml:space="preserve" class=""><rect width="512" height="512" rx="102.4" ry="102.4" fill="#bac8d3" shape="rounded"></rect><g transform="matrix(0.65,0,0,0.65,89.6,84.6)"><linearGradient id="a" x1="77.435" x2="434.565" y1="485.435" y2="128.304" gradientUnits="userSpaceOnUse"><stop offset="0" stop-color="#41dfd0"></stop><stop offset="1" stop-color="#ee83ef"></stop></linearGradient><path fill="url(#a)" d="M48 440h144v16H48zm0-16h144v-16H48zm0-32h144v-16H48zm0-32h144v-16H48zm254.289-188.8h71.387a36.922 36.922 0 0 0 27.924 27.924v62.552a36.922 36.922 0 0 0-27.924 27.924h-71.387a75.066 75.066 0 0 0 0-118.4zM352 230.4a9.6 9.6 0 1 0 9.6-9.6 9.6 9.6 0 0 0-9.6 9.6zm-241.6 31.276v-62.552a36.922 36.922 0 0 0 27.924-27.924h71.387a75.066 75.066 0 0 0 0 118.4h-71.387a36.922 36.922 0 0 0-27.924-27.924zm30.4-31.276a9.6 9.6 0 1 0 9.6-9.6 9.6 9.6 0 0 0-9.6 9.6zm-68.8 96v-192a1.6 1.6 0 0 1 1.6-1.6h364.8a1.6 1.6 0 0 1 1.6 1.6v192a1.6 1.6 0 0 1-1.6 1.6H73.6a1.6 1.6 0 0 1-1.6-1.6zm22.4-57.6a8 8 0 0 0 8 8 20.824 20.824 0 0 1 20.8 20.8 8 8 0 0 0 8 8h249.6a8 8 0 0 0 8-8 20.824 20.824 0 0 1 20.8-20.8 8 8 0 0 0 8-8V192a8 8 0 0 0-8-8 20.824 20.824 0 0 1-20.8-20.8 8 8 0 0 0-8-8H131.2a8 8 0 0 0-8 8 20.824 20.824 0 0 1-20.8 20.8 8 8 0 0 0-8 8zM256 289.6a59.2 59.2 0 1 0-59.2-59.2 59.267 59.267 0 0 0 59.2 59.2zM320 424h144v-16H320zm0-32h144v-16H320zm0-48v16h144v-16zM208 456h96v-16h-96zm112 0h144v-16H320zm-112-64h96v-16h-96zm0 32h96v-16h-96zm0-64h96v-16h-96zm48-256a8 8 0 0 0 8-8V64a8 8 0 0 0-16 0v32a8 8 0 0 0 8 8zm-46.656-3.562a8 8 0 0 0 13.312-8.876l-16-24a8 8 0 1 0-13.312 8.876zm82.218 2.218a8 8 0 0 0 11.094-2.218l16-24a8 8 0 1 0-13.312-8.876l-16 24a8 8 0 0 0 2.218 11.094z" opacity="1" data-original="url(#a)"></path></g></svg>