<svg xmlns="http://www.w3.org/2000/svg" version="1.1" xmlns:xlink="http://www.w3.org/1999/xlink" width="512" height="512" x="0" y="0" viewBox="0 0 64 64" style="enable-background:new 0 0 512 512" xml:space="preserve"><rect width="64" height="64" rx="12.8" ry="12.8" fill="#bac8d3" shape="rounded"></rect><g transform="matrix(0.6699999999999999,0,0,0.6699999999999999,10.560000000000002,10.560000000000002)"><linearGradient id="a" x1="4" x2="60" y1="32" y2="32" gradientUnits="userSpaceOnUse"><stop offset="0" stop-color="#9cffac"></stop><stop offset="1" stop-color="#00b59c"></stop></linearGradient><path fill="url(#a)" d="M60 16.5v4H4v-4a3.009 3.009 0 0 1 3-3h50a3.009 3.009 0 0 1 3 3zm-56 8h56v-2H4zm0 2h56v21a3.009 3.009 0 0 1-3 3H7a3.009 3.009 0 0 1-3-3zm37 18a2.006 2.006 0 0 0 2 2h11a2.006 2.006 0 0 0 2-2v-6a2.006 2.006 0 0 0-2-2H43a2.006 2.006 0 0 0-2 2zm-9 0a1.003 1.003 0 0 0 1 1h4a1 1 0 0 0 0-2h-4a1.003 1.003 0 0 0-1 1zm-8 0a1.003 1.003 0 0 0 1 1h4a1 1 0 0 0 0-2h-4a1.003 1.003 0 0 0-1 1zm-8 0a1.003 1.003 0 0 0 1 1h4a1 1 0 0 0 0-2h-4a1.003 1.003 0 0 0-1 1zm-8 0a1.003 1.003 0 0 0 1 1h4a1 1 0 0 0 0-2H9a1.003 1.003 0 0 0-1 1zm46-6H43v6h11z" opacity="1" data-original="url(#a)"></path></g></svg>