<svg xmlns="http://www.w3.org/2000/svg" version="1.1" xmlns:xlink="http://www.w3.org/1999/xlink" width="512" height="512" x="0" y="0" viewBox="0 0 512 512" style="enable-background:new 0 0 512 512" xml:space="preserve" class=""><rect width="512" height="512" rx="102.4" ry="102.4" fill="#bac8d3" shape="rounded"></rect><g transform="matrix(0.68,0,0,0.68,81.42640380859373,81.71310180664062)"><linearGradient id="a" x1="55.428" x2="444.989" y1="72.328" y2="461.889" gradientUnits="userSpaceOnUse"><stop offset="0" stop-color="#009fff"></stop><stop offset="1" stop-color="#ec2f4b"></stop></linearGradient><path fill="url(#a)" d="M311.2 276.27c-56.64 56.63-147.93 58-206.21 4l210.25-210.2c53.93 58.27 52.58 149.57-4.04 206.2zM376 301.5a39.365 39.365 0 0 1-11.59 28c-.49.48-1 .95-1.48 1.41-15.65 14.1-39.61 13.48-54.51-1.41L287.94 309a161.09 161.09 0 0 0 56-56l20.49 20.49c7.44 7.42 11.6 17.5 11.57 28.01zm62.37 166.14A13.804 13.804 0 0 1 426 475H201.8c-7.73-.02-13.99-6.3-13.97-14.03.01-2.72.81-5.39 2.3-7.66l89.75-135.89 20.32 20.32c17.44 17.44 44.82 19.98 65.18 6.06l72.34 109.51a13.79 13.79 0 0 1 .65 14.33zM244.3 124.53l-112.86-21.21c-3.14-.72-5.09-3.85-4.37-6.99.68-2.96 3.52-4.89 6.52-4.46l120.68 22.68zm-84.85 84.84L141.72 115l56 56 8.25-8.24-69.34-69.29a5.815 5.815 0 0 0-8.23.01 5.8 5.8 0 0 0-1.6 5.19l22.68 120.68zM137.5 102.28c-.05.05-.1.1-.14.15-14.97 15.96-40.04 16.76-56 1.79s-16.76-40.04-1.79-56 40.04-16.76 56-1.79c15.9 14.91 16.76 39.87 1.93 55.85z" opacity="1" data-original="url(#a)"></path></g></svg>