<svg xmlns="http://www.w3.org/2000/svg" version="1.1" xmlns:xlink="http://www.w3.org/1999/xlink" width="512" height="512" x="0" y="0" viewBox="0 0 512 512" style="enable-background:new 0 0 512 512" xml:space="preserve" class=""><rect width="512" height="512" rx="102.4" ry="102.4" fill="#bac8d3" shape="rounded"></rect><g transform="matrix(0.5499999999999999,0,0,0.5499999999999999,120.1999948501587,115.20000858306886)"><linearGradient id="a" x1="359.26" x2="108.25" y1="74.45" y2="509.21" gradientUnits="userSpaceOnUse"><stop offset="0" stop-color="#2aa3ff"></stop><stop offset="1" stop-color="#ce3fff"></stop></linearGradient><path fill="url(#a)" fill-rule="evenodd" d="M53.34 337.47h381.91v32.51H53.71c-2.81 0-5.19 2.24-5.19 4.82v59.61c0 2.61 2.38 4.85 5.19 4.85h381.54v32.51H53.34c-20.52 0-37.33-16.81-37.33-37.36V374.8c0-20.52 16.81-37.33 37.33-37.33zm133.71 60.15h225.69v-13.66H62.49v41.3h350.25v-13.63H187.05c-3.88 0-7-3.15-7-7s3.12-7 7-7zm172.06-74.15v-18.51H94.01c-2.78 0-5.19-2.24-5.19-4.82V240.5c0-2.58 2.41-4.82 5.19-4.82h47.57l-50.8-32.4c-19.22 1.47-34.47 17.66-34.47 37.22v59.64c0 8.79 3.09 16.92 8.25 23.33zm-256.28-32.51h125.46l-64.74-41.27h-60.72zm274.93-17.66 20.86-77.9-57.12 4.31-10.03 37.5c-1.02 3.74-4.85 5.95-8.56 4.96-3.74-1.02-5.95-4.85-4.96-8.56l8.79-32.8-71.23 5.39-118.57-80.93-20.86 77.9 119.85 76.08 141.85-5.95zm-47.23-86.8-56.18-65.91c-2.49-2.95-2.15-7.34.77-9.84a6.948 6.948 0 0 1 9.84.77l58.62 68.74a7.023 7.023 0 0 1 1.64 5.13l150.77-11.37L299.98 40.23 63.31 58.08l196.02 133.8 71.21-5.39z" opacity="1" data-original="url(#a)"></path></g></svg>