<svg xmlns="http://www.w3.org/2000/svg" version="1.1" xmlns:xlink="http://www.w3.org/1999/xlink" width="512" height="512" x="0" y="0" viewBox="0 0 64 64" style="enable-background:new 0 0 512 512" xml:space="preserve" class=""><rect width="64" height="64" rx="12.8" ry="12.8" fill="#bac8d3" shape="rounded"></rect><g transform="matrix(0.71,0,0,0.71,9.279963769912722,9.279996197223667)"><linearGradient id="a" x1="13.973" x2="50.027" y1="32" y2="32" gradientUnits="userSpaceOnUse"><stop offset="0" stop-color="#ff81ff"></stop><stop offset="1" stop-color="#a93aff"></stop></linearGradient><path fill="url(#a)" d="M49.922 18.58a.98.98 0 0 1-.1 1.04l-30.46 39.99a1.004 1.004 0 0 1-.8.39 1.03 1.03 0 0 1-.45-.11 1.001 1.001 0 0 1-.5-1.18l7.82-25.62h-10.46a.995.995 0 0 1-.84-.47.97.97 0 0 1-.06-.96l12.94-27.09a.982.982 0 0 1 .9-.57h21.12a.987.987 0 0 1 .86.5 1.012 1.012 0 0 1 0 1.01l-7.34 12.51h6.48a.98.98 0 0 1 .89.56z" opacity="1" data-original="url(#a)"></path></g></svg>