<svg xmlns="http://www.w3.org/2000/svg" version="1.1" xmlns:xlink="http://www.w3.org/1999/xlink" width="512" height="512" x="0" y="0" viewBox="0 0 64 64" style="enable-background:new 0 0 512 512" xml:space="preserve"><rect width="64" height="64" rx="12.8" ry="12.8" fill="#bac8d3" shape="rounded"></rect><g transform="matrix(0.7,0,0,0.7,9.598548173904419,9.599851512908938)"><linearGradient id="a" x1="4" x2="60" y1="32" y2="32" gradientUnits="userSpaceOnUse"><stop offset="0" stop-color="#00c0ff"></stop><stop offset="1" stop-color="#5558ff"></stop></linearGradient><path fill="url(#a)" d="M26.06 18.343a1.005 1.005 0 0 1 .94-1.34h4.999a1 1 0 0 1 .81.41l4.538 6.229c-2.198.446-6.525 1.36-8.708 1.81zM59.763 28.89a3.098 3.098 0 0 0-2.91-1.89 1.093 1.093 0 0 1-.76-.32l-1.399-1.4a6.993 6.993 0 0 0-5.699-2.01c-10.287 2.134-24.454 5.073-34.883 7.23a2.021 2.021 0 0 1-2-1.01l-1.67-2.96a2.981 2.981 0 0 0-2.609-1.53h-2.83a1.01 1.01 0 0 0-.919 1.4l3.07 6.959a8.021 8.021 0 0 0 8.278 5.089l13.617-1.41-2.99 8.628a1.005 1.005 0 0 0 .94 1.33h5a.985.985 0 0 0 .79-.39l8.368-10.838 15.997-2.62a3.119 3.119 0 0 0 2.61-4.258z" opacity="1" data-original="url(#a)"></path></g></svg>