<svg xmlns="http://www.w3.org/2000/svg" version="1.1" xmlns:xlink="http://www.w3.org/1999/xlink" width="512" height="512" x="0" y="0" viewBox="0 0 64 64" style="enable-background:new 0 0 512 512" xml:space="preserve"><rect width="64" height="64" rx="12.8" ry="12.8" fill="#bac8d3" shape="rounded"></rect><g transform="matrix(0.69,0,0,0.69,9.920000000000002,9.920000000000002)"><linearGradient id="a" x1="4" x2="60" y1="32" y2="32" gradientUnits="userSpaceOnUse"><stop offset="0" stop-color="#ffa68d"></stop><stop offset="1" stop-color="#fd3a84"></stop></linearGradient><path fill="url(#a)" d="M55.84 14.82H8.16A4.155 4.155 0 0 0 4 18.97v26.06a4.155 4.155 0 0 0 4.16 4.15h47.68A4.155 4.155 0 0 0 60 45.03V18.97a4.155 4.155 0 0 0-4.16-4.15zm-19.85 7h9.15a1 1 0 0 1 0 2h-9.15a1 1 0 0 1 0-2zm-24.1-1.76c2.472-2.341 6.734.793 7.56 2.63.803-1.838 5.089-4.975 7.54-2.63a2.63 2.63 0 0 1 .73 2.29c-.788 3.368-4.112 4.647-8.21 4.45-4.1.216-7.507-1.017-8.33-4.38a2.639 2.639 0 0 1 .71-2.36zm18.34 12.12a2.17 2.17 0 0 1-2.47 2.11v8.38a2.11 2.11 0 0 1-2.11 2.11H13.24a2.104 2.104 0 0 1-2.11-2.11v-8.38h-.37a2.108 2.108 0 0 1-2.1-2.11V29.9a2.102 2.102 0 0 1 2.1-2.11h17.36a2.11 2.11 0 0 1 2.11 2.11zm24.11 10H35.99a1 1 0 0 1 0-2h18.35a1 1 0 0 1 0 2zm0-6.12H35.99a1 1 0 0 1 0-2h18.35a1 1 0 0 1 0 2zm0-6.12H35.99a1 1 0 0 1 0-2h18.35a1 1 0 0 1 0 2zm-40.36-8.72a5.108 5.108 0 0 1 4.24 3.62 6.675 6.675 0 0 1-4.19-1.34c-.759-.519-1.498-2.288-.05-2.28zm10.88 2.28a6.699 6.699 0 0 1-4.19 1.34 5.108 5.108 0 0 1 4.24-3.62c.465-.008.904.23.83.84a2.422 2.422 0 0 1-.88 1.44zM13.13 34.29h5.31v8.49h-5.2a.111.111 0 0 1-.11-.11zm7.31 0h5.32v8.38a.111.111 0 0 1-.11.11h-5.21zm-9.68-4.5h7.68v2.5h-7.68a.103.103 0 0 1-.1-.11V29.9a.103.103 0 0 1 .1-.11zm17.47.11v2.28a.111.111 0 0 1-.11.11h-7.68v-2.5h7.68a.111.111 0 0 1 .11.11z" opacity="1" data-original="url(#a)"></path></g></svg>