<svg xmlns="http://www.w3.org/2000/svg" version="1.1" xmlns:xlink="http://www.w3.org/1999/xlink" width="512" height="512" x="0" y="0" viewBox="0 0 1706.66 1706.66" style="enable-background:new 0 0 512 512" xml:space="preserve" fill-rule="evenodd"><rect width="1706.66" height="1706.66" rx="341.332" ry="341.332" fill="#bac8d3" shape="rounded"></rect><g transform="matrix(0.6,0,0,0.6,341.33198632784183,331.331997680664)"><linearGradient id="a" x1=".01" x2="1706.65" y1="853.33" y2="853.33" gradientUnits="userSpaceOnUse"><stop offset="0" stop-color="#ffb800"></stop><stop offset="1" stop-color="#ff5329"></stop></linearGradient><path fill="url(#a)" d="M32.64 804.88h289.83V704.19H-.01v100.69h32.64zm427.69-627.33h786.01v-58.29H460.33zm-116.87 99.24c101.61 0 1006.99-2.01 1026.22 1.02h18.3v-58.29H318.69v58.29zm1040.73 526.78h322.48V702.88h-322.48zM832.35 1587.4v-257.49H680.94c-.87 0-1.6.73-1.6 1.6v255.89zm194.82 0v-255.89c0-.87-.73-1.6-1.6-1.6H874.31v257.49zm357.02-741.86v740.54h268.71V845.54zM1578 1402.77h-118.91c-11.51 0-20.98-9.47-20.98-20.98v-93.55c0-11.51 9.47-20.98 20.98-20.98H1578c11.51 0 20.98 9.47 20.98 20.98v93.55c0 11.51-9.33 20.98-20.98 20.98zm0-301.79h-118.91c-11.51 0-20.98-9.47-20.98-20.98v-93.55c0-11.51 9.47-20.98 20.98-20.98H1578c11.51 0 20.98 9.47 20.98 20.98V1080c0 11.51-9.33 20.98-20.98 20.98zM613.63 762.33c-11.65 0-20.98-9.35-20.98-20.98V579.6c0-12 9.84-21 20.98-20.98l137.7.44V420.77c0-11.66 9.33-20.98 20.98-20.98H934.2c11.51 0 20.98 9.33 20.98 20.98v137.7l137.85.15c11.51 0 20.98 9.47 20.98 20.98v161.9c0 11.51-9.33 20.98-20.98 20.98l-137.85.15v137.56c0 11.66-9.33 20.99-20.98 20.99H772.31c-11.65 0-20.98-9.47-20.98-20.98V762.35h-137.7zm67.31 525.61h344.63c24.04 0 43.57 19.53 43.57 43.57v255.89h273.08V319.79H364.44V1587.4h272.93v-255.89c0-24.04 19.52-43.57 43.57-43.57zm-46.33-687.36v119.78h137.7c11.65 0 20.98 9.35 20.98 20.98v137.85h119.92V741.63c0-11.51 9.33-20.98 20.98-20.98l137.85-.15V600.57l-137.85-.14c-11.51 0-20.98-9.47-20.98-20.98v-137.7H793.29v138.29c0 11.61-9.35 21-20.98 20.98zM322.47 846.85H53.62v740.55h268.85zM128.66 965.46h118.91c11.66 0 20.98 9.47 20.98 20.98v93.55c0 11.51-9.47 20.98-20.98 20.98H128.66c-11.66 0-20.98-9.47-20.98-20.98v-93.55c0-11.51 9.33-20.98 20.98-20.98zm0 301.79h118.91c11.66 0 20.98 9.47 20.98 20.98v93.55c0 11.51-9.47 20.98-20.98 20.98H128.66c-11.66 0-20.98-9.47-20.98-20.98v-93.55c0-11.51 9.33-20.98 20.98-20.98z" opacity="1" data-original="url(#a)"></path></g></svg>