<svg xmlns="http://www.w3.org/2000/svg" version="1.1" xmlns:xlink="http://www.w3.org/1999/xlink" width="512" height="512" x="0" y="0" viewBox="0 0 64 64" style="enable-background:new 0 0 512 512" xml:space="preserve"><rect width="64" height="64" rx="12.8" ry="12.8" fill="#bac8d3" shape="rounded"></rect><g transform="matrix(0.6599999999999999,0,0,0.6599999999999999,10.88735413551331,10.88044162750245)"><linearGradient id="a" x1="7.84" x2="56.203" y1="32.001" y2="32.001" gradientUnits="userSpaceOnUse"><stop offset="0" stop-color="#ffa68d"></stop><stop offset="1" stop-color="#fd3a84"></stop></linearGradient><path fill="url(#a)" d="M52.58 13.24c-9.47-2.26-19.93-9.01-20.04-9.08a1.005 1.005 0 0 0-1.08 0c-.11.07-10.56 6.82-20.04 9.08a4.677 4.677 0 0 0-3.58 4.59v11.18c.01.23 1.13 23.07 22.62 30.73A4.788 4.788 0 0 0 32 60c21.607-5.052 24.629-31.205 24.16-31.02V17.83a4.677 4.677 0 0 0-3.58-4.59zM33.23 52.79a3.706 3.706 0 0 1-2.46 0C14.69 47.06 13.85 29.97 13.84 29.8v-8.29a3.741 3.741 0 0 1 2.86-3.66c6.96-1.66 14.68-6.64 14.76-6.69a1.005 1.005 0 0 1 1.08 0c.08.05 7.8 5.03 14.76 6.69a3.741 3.741 0 0 1 2.86 3.66v8.25c-.01.21-.85 17.3-16.93 23.03zM46.84 19.8c-6.29-1.51-12.91-5.42-14.84-6.62-1.93 1.2-8.55 5.11-14.84 6.62a1.742 1.742 0 0 0-1.32 1.71v8.25c.03.61.82 15.88 15.6 21.14a1.657 1.657 0 0 0 1.12 0c14.78-5.26 15.57-20.53 15.6-21.18v-8.21a1.742 1.742 0 0 0-1.32-1.71zm-7.98 8.82-8.18 8.18a1.009 1.009 0 0 1-.7.29 1.033 1.033 0 0 1-.71-.29l-4.13-4.13a1 1 0 0 1 1.41-1.42l3.43 3.43 7.47-7.48a1 1 0 0 1 1.41 1.42z" opacity="1" data-original="url(#a)"></path></g></svg>