<svg xmlns="http://www.w3.org/2000/svg" version="1.1" xmlns:xlink="http://www.w3.org/1999/xlink" width="512" height="512" x="0" y="0" viewBox="0 0 512 512" style="enable-background:new 0 0 512 512" xml:space="preserve"><rect width="512" height="512" rx="102.4" ry="102.4" fill="#bac8d3" shape="rounded"></rect><g transform="matrix(0.6,0,0,0.6,102.39999084472657,102.40020141601562)"><linearGradient id="a" x1="66.718" x2="445.305" y1="461.911" y2="83.323" gradientUnits="userSpaceOnUse"><stop offset="0" stop-color="#5580ff"></stop><stop offset="1" stop-color="#acdbff"></stop></linearGradient><path fill="url(#a)" d="M471.793 375.084v55.897c0 5.953-4.826 10.779-10.779 10.779H51.031c-5.953 0-10.779-4.826-10.779-10.779v-55.897c0-5.953 4.826-10.779 10.779-10.779h409.984c5.952 0 10.778 4.826 10.778 10.779zM220.459 270.268c0-6.914-5.671-12.585-12.639-12.585s-12.585 5.671-12.585 12.585c0 6.968 5.617 12.639 12.585 12.639 6.967 0 12.639-5.671 12.639-12.639zm-7.454 25.171c-4.915 4.915-4.915 12.909 0 17.825 4.915 4.915 12.909 4.915 17.825 0a12.52 12.52 0 0 0 0-17.825c-4.916-4.916-12.856-4.916-17.825 0zm0-68.166a12.683 12.683 0 0 0 0 17.879c4.97 4.915 12.964 4.915 17.879 0s4.915-12.909-.054-17.825c-4.916-4.915-12.91-4.915-17.825-.054zM256 305.863c-6.968 0-12.585 5.617-12.585 12.585s5.618 12.639 12.585 12.639 12.585-5.671 12.585-12.639A12.563 12.563 0 0 0 256 305.863zm0-71.136a12.563 12.563 0 0 0 12.585-12.585c0-7.022-5.618-12.639-12.585-12.639s-12.585 5.617-12.585 12.639A12.563 12.563 0 0 0 256 234.727zm0 14.692c-11.505 0-20.849 9.345-20.849 20.85 0 11.559 9.344 20.849 20.849 20.849s20.849-9.291 20.849-20.849c0-11.506-9.344-20.85-20.849-20.85zm25.17 46.02a12.52 12.52 0 0 0 0 17.825c4.915 4.915 12.909 4.915 17.825 0 4.915-4.915 4.915-12.909 0-17.825-4.969-4.916-12.909-4.916-17.825 0zm17.825-50.287a12.683 12.683 0 0 0 0-17.879c-4.915-4.861-12.909-4.861-17.825.054-4.969 4.915-4.969 12.909-.054 17.825 4.916 4.915 12.91 4.915 17.879 0zm-7.454 25.116c0 6.968 5.671 12.639 12.639 12.639s12.585-5.671 12.585-12.639c0-6.914-5.617-12.585-12.585-12.585-6.967 0-12.639 5.671-12.639 12.585zm56.445-122.504v32.138c0 5.347 2.701 10.317 7.13 13.396 57.039 39.214 80.373 78.428 100.088 160.205H56.85c19.715-81.939 43.211-121.207 100.52-160.53 4.429-3.079 7.13-8.048 7.13-13.449v-31.868a491.464 491.464 0 0 1 42.509-6.212l9.02 35.811c2.269 6.482 8.372 10.911 15.286 10.911h49.855c6.914 0 13.018-4.429 15.286-10.911l9.02-35.757c14.26 1.459 28.412 3.512 42.51 6.266zm-22.632 122.504c0-38.242-31.058-69.354-69.354-69.354s-69.354 31.112-69.354 69.354c0 38.35 31.058 69.354 69.354 69.354s69.354-31.004 69.354-69.354zM464.71 110.873c-133.739-54.176-283.682-54.176-417.42 0-38.728 15.664-55.689 60.495-38.404 97.441 37.27-21.984 77.24-38.944 118.885-50.287-1.134-4.051-2.268-8.102-3.349-12.207a498.93 498.93 0 0 1 263.156 0c-1.08 4.105-2.214 8.156-3.349 12.207 41.645 11.343 81.615 28.303 118.885 50.287 17.285-36.946.324-81.777-38.404-97.441zm-342.281 93.254c9.231-2.916 14.475-12.614 11.921-21.952l-3.755-13.729a475.07 475.07 0 0 0-116.567 49.368l7.244 12.25c4.925 8.327 15.543 11.317 24.055 6.72a443.031 443.031 0 0 1 77.102-32.657zm255.221-21.951c-2.554 9.337 2.691 19.035 11.922 21.951a443.064 443.064 0 0 1 77.102 32.657c8.512 4.597 19.13 1.607 24.054-6.72l7.245-12.25a475.07 475.07 0 0 0-116.567-49.368c-1.253 4.577-2.505 9.153-3.756 13.73z" opacity="1" data-original="url(#a)"></path></g></svg>