<svg xmlns="http://www.w3.org/2000/svg" version="1.1" xmlns:xlink="http://www.w3.org/1999/xlink" width="512" height="512" x="0" y="0" viewBox="0 0 64 64" style="enable-background:new 0 0 512 512" xml:space="preserve"><rect width="64" height="64" rx="12.8" ry="12.8" fill="#bac8d3" shape="rounded"></rect><g transform="matrix(0.6599999999999998,0,0,0.6599999999999998,10.880000000000006,10.880000000000006)"><linearGradient id="a" x1="2" x2="62" y1="32" y2="32" gradientUnits="userSpaceOnUse"><stop offset="0" stop-color="#ffde00"></stop><stop offset="1" stop-color="#fd5900"></stop></linearGradient><path fill="url(#a)" d="m30.35 12.203-.053-.929c2.248.15 3.678-.475 5.81-1.887a2.327 2.327 0 0 1 2.57 0c2.112 1.375 3.54 2.082 5.759 1.843a5.722 5.722 0 0 1-2.274 5.349h-9.547a5.334 5.334 0 0 1-2.266-4.376zm2.169 5.862c-.985.03-.918 1.663.022 1.679h9.718a.81.81 0 0 0 .728-.951.726.726 0 0 0-.713-.728zm-20.38 28.648v2.645c.224.58 3.203 1.642 8.173 1.642 4.978 0 7.957-1.07 8.173-1.642v-2.645c-2.029 1.003-5.691 1.315-8.173 1.315s-6.144-.312-8.172-1.315zm0-4.458V44.9c.224.58 3.203 1.642 8.173 1.642 4.978 0 7.957-1.07 8.173-1.642v-2.645c-2.029 1.003-5.691 1.315-8.173 1.315s-6.144-.312-8.172-1.315zm0-4.457v2.645c.224.58 3.203 1.642 8.173 1.642 4.978 0 7.957-1.07 8.173-1.642v-2.645c-2.029 1.003-5.691 1.315-8.173 1.315s-6.144-.312-8.172-1.315zm0-4.465v2.652c.224.58 3.203 1.642 8.173 1.642 4.978 0 7.957-1.07 8.173-1.642v-2.652c-2.029 1.01-5.691 1.322-8.173 1.322s-6.144-.312-8.172-1.322zm21.71-.706a1.125 1.125 0 1 0-1.126-1.125 1.128 1.128 0 0 0 1.125 1.125zm7.5 5.25a1.125 1.125 0 1 0 1.124 1.125 1.123 1.123 0 0 0-1.125-1.125zm9.487 5.385c-.413 1.433-1.89 2.88-.795 4.365l.562.848a.846.846 0 0 1-.87 1.305c-5.002-.915-6.075 1.147-12.315.817a34.215 34.215 0 0 1-7.477-.9l.03-.075V31.247c-.525-1.545-2.685-2.1-5.235-2.512a20.386 20.386 0 0 1 2.557-4.155 14.834 14.834 0 0 1 3.863-3.848 2.206 2.206 0 0 0 1.387.495h9.713a2.206 2.206 0 0 0 1.387-.495 20.261 20.261 0 0 1 7.193 22.53zm-19.613-11.76a2.625 2.625 0 1 0 2.625-2.625 2.628 2.628 0 0 0-2.625 2.625zm12.15-.967a.75.75 0 1 0-1.057-1.065l-10.5 10.5a.756.756 0 0 0 0 1.065.768.768 0 0 0 .532.217.75.75 0 0 0 .525-.217zm.6 8.467a2.625 2.625 0 1 0-2.625 2.625 2.628 2.628 0 0 0 2.625-2.625zm-23.66-5.833c4.932 0 7.904-1.047 8.164-1.627-.26-.587-3.232-1.634-8.165-1.634-4.987.004-7.965 1.062-8.172 1.656.215.535 3.187 1.605 8.172 1.605zM62 32A30 30 0 1 1 32 2a30.034 30.034 0 0 1 30 30zm-1.709 0A28.291 28.291 0 1 0 32 60.291 28.323 28.323 0 0 0 60.291 32z" opacity="1" data-original="url(#a)"></path></g></svg>