<svg xmlns="http://www.w3.org/2000/svg" version="1.1" xmlns:xlink="http://www.w3.org/1999/xlink" width="512" height="512" x="0" y="0" viewBox="0 0 512 512" style="enable-background:new 0 0 512 512" xml:space="preserve"><rect width="512" height="512" rx="102.4" ry="102.4" fill="#bac8d3" shape="rounded"></rect><g transform="matrix(0.72,0,0,0.72,71.68,71.6799989318848)"><linearGradient id="a" x1="256" x2="256" y1="50.8" y2="461.2" gradientUnits="userSpaceOnUse"><stop offset="0" stop-color="#f704fe"></stop><stop offset="1" stop-color="#24bce3"></stop></linearGradient><path fill="url(#a)" d="M385 382.8v69.3c0 5-4.1 9.1-9.1 9.1H136.2c-5.2 0-9.2-4-9.2-9.2v-69.2zm-17.6 55.9v-33.4c0-2.7-2.2-4.9-4.9-4.9H149.6c-2.7 0-4.9 2.2-4.9 4.9v33.4c0 2.7 2.2 4.9 4.9 4.9h212.9c2.7 0 4.9-2.2 4.9-4.9zm-212.9-28.5h203.2v23.7H154.5zm163.1-89.1h34.6V338h-34.6zm0-59.2h34.6v16.9h-34.6zM352.2 87v131.4c0 .6-.4 1.2-1.2 1.2H161.1c-.7 0-1.3-.5-1.3-1.2V87c0-.6.4-1.2 1.2-1.2h190c.6 0 1.2.4 1.2 1.2zm-13.6 91.2v-50.9c0-2.1-1.3-3.9-3.2-4.6s-4.1-.2-5.4 1.4L312.9 144l-17.2-19.9c-1.3-1.6-3.5-2.1-5.4-1.4s-3.2 2.6-3.2 4.6v50.9c0 2.7 2.2 4.9 4.9 4.9s4.9-2.2 4.9-4.9v-37.8l12.3 14.3c.9 1.1 2.3 1.7 3.7 1.7s2.8-.6 3.7-1.7l12.2-14.2v37.7c0 2.7 2.2 4.9 4.9 4.9s4.9-2.2 4.9-4.9zm-65.3-50.9c0-2.7-2.2-4.9-4.9-4.9h-38.8c-2.7 0-4.9 2.2-4.9 4.9s2.2 4.9 4.9 4.9h14.5v46c0 2.7 2.2 4.9 4.9 4.9s4.8-2.2 4.9-4.9v-46h14.5c2.7 0 4.9-2.2 4.9-4.9zM222 182.8c2.5-1 3.7-3.9 2.7-6.4l-5.2-12.7c-.1-.9-.4-1.7-1-2.4l-14.8-35.8c-.7-1.8-2.5-3-4.5-3s-3.7 1.2-4.5 3l-15.2 36.9-5.8 14c-1 2.5.2 5.4 2.7 6.4s5.4-.2 6.4-2.7l4.5-10.9h24l4.5 10.9c.8 1.9 2.6 3 4.5 3 .7 0 1.3-.1 1.7-.3zm16.7 138.3h34.6V338h-34.6zm0-59.2h34.6v16.9h-34.6zm-39.4-121.8 8 19.3h-16zm-39.5 181h34.6V338h-34.6zm0-59.2h34.6v16.9h-34.6zM385 60v313H127V60c0-5.2 4-9.2 9.2-9.2h239.6c5.2 0 9.2 4 9.2 9.2zm-23 282.9v-26.7c0-2.7-2.2-4.9-4.9-4.9h-44.4c-2.7 0-4.9 2.2-4.9 4.9v26.7c0 2.7 2.2 4.9 4.9 4.9h44.4c2.6 0 4.8-2.2 4.9-4.9zm0-59.2V257c0-2.7-2.2-4.9-4.9-4.9h-44.4c-2.7 0-4.9 2.2-4.9 4.9v26.6c0 2.7 2.2 4.9 4.9 4.9h44.4c2.6 0 4.8-2.1 4.9-4.8zm-.1-65.3V87c0-6-4.9-10.9-10.9-10.9H161c-6 0-10.9 4.9-10.9 10.9v131.5c0 5.9 4.7 10.7 10.8 10.9H351c6 0 10.9-4.9 10.9-11zm-78.8 124.5v-26.7c0-2.7-2.2-4.9-4.9-4.9h-44.4c-2.7 0-4.9 2.2-4.9 4.9v26.7c0 2.7 2.2 4.9 4.9 4.9h44.4c2.7 0 4.9-2.2 4.9-4.9zm0-59.2V257c0-2.7-2.2-4.9-4.9-4.9h-44.4c-2.7 0-4.9 2.2-4.9 4.9v26.6c0 2.7 2.2 4.9 4.9 4.9h44.4c2.7 0 4.9-2.1 4.9-4.8zm-78.8 59.2v-26.7c0-2.7-2.2-4.9-4.9-4.9H155c-2.7 0-4.9 2.2-4.9 4.9v26.7c0 2.7 2.2 4.9 4.9 4.9h44.3c2.7 0 4.9-2.2 5-4.9zm0-59.2V257c0-2.7-2.2-4.9-4.9-4.9H155c-2.7 0-4.9 2.2-4.9 4.9v26.6c0 2.7 2.2 4.9 4.9 4.9h44.3c2.7 0 4.9-2.1 5-4.8z" opacity="1" data-original="url(#a)"></path></g></svg>