<svg xmlns="http://www.w3.org/2000/svg" version="1.1" xmlns:xlink="http://www.w3.org/1999/xlink" width="512" height="512" x="0" y="0" viewBox="0 0 100 100" style="enable-background:new 0 0 512 512" xml:space="preserve" class=""><rect width="100" height="100" rx="20" ry="20" fill="#bac8d3" shape="rounded"></rect><g transform="matrix(0.6599999999999998,0,0,0.6599999999999998,17.00000778198244,16.999992623329177)"><linearGradient id="a" x1="-.04" x2="91.977" y1="-4.861" y2="95.979" gradientUnits="userSpaceOnUse"><stop offset="0" stop-color="#97e0ff"></stop><stop offset="1" stop-color="#1075ff"></stop></linearGradient><path fill="url(#a)" d="M70.583 2.5H29.417c-4.872 0-8.891 4.02-8.891 8.891V88.61c0 4.872 4.019 8.891 8.89 8.891h41.167c4.872 0 8.891-4.02 8.891-8.891V11.39a8.862 8.862 0 0 0-8.89-8.891zm-4.628 4.506c.853 0 1.462.61 1.462 1.462 0 .853-.61 1.462-1.462 1.462s-1.461-.61-1.461-1.462c0-.73.609-1.462 1.461-1.462zm-23.263.61h14.616c.487 0 .852.365.852.852a.833.833 0 0 1-.852.853H42.692a.833.833 0 0 1-.852-.853c0-.487.365-.853.852-.853zm12.423 84.647c-.365.365-.852.609-1.34.73-.243 0-.365.122-.608.122h-6.82a2.747 2.747 0 0 1-2.193-2.68c0-.73.365-1.46.852-1.948.366-.365.853-.609 1.462-.73h6.82c.244 0 .366 0 .61.121 1.217.244 2.07 1.34 2.07 2.68a4.45 4.45 0 0 1-.853 1.705zm21.193-9.256H23.814V12.73h52.494z" opacity="1" data-original="url(#a)"></path></g></svg>