<svg xmlns="http://www.w3.org/2000/svg" version="1.1" xmlns:xlink="http://www.w3.org/1999/xlink" width="512" height="512" x="0" y="0" viewBox="0 0 100 100" style="enable-background:new 0 0 512 512" xml:space="preserve"><rect width="100" height="100" rx="20" ry="20" fill="#bac8d3" shape="rounded"></rect><g transform="matrix(0.68,0,0,0.68,15.999999847412113,16.000000610351563)"><linearGradient id="a" x1="6.78" x2="86.033" y1="6.098" y2="86.596" gradientUnits="userSpaceOnUse"><stop offset=".184" stop-color="#29abe2"></stop><stop offset=".821" stop-color="#6200d2"></stop></linearGradient><path fill="url(#a)" d="M90.147 21.937H9.872c-4.066 0-7.372 3.306-7.372 7.353v41.401a7.379 7.379 0 0 0 7.372 7.372h80.275c4.047 0 7.353-3.306 7.353-7.372V29.29c0-4.047-3.306-7.353-7.353-7.353zM28.663 35.218c4.959 0 9.006 4.047 9.006 9.006s-4.047 8.987-9.006 8.987-8.987-4.028-8.987-8.987 4.028-9.006 8.987-9.006zm11.552 29.545H17.13c-1.064 0-1.9-.855-1.9-1.9 0-1.93.41-3.76 1.144-5.416 1.05-2.369 3.968-3.19 6.248-1.957a12.668 12.668 0 0 0 6.041 1.521c2.19 0 4.254-.552 6.06-1.525 2.38-1.283 5.319-.265 6.363 2.229a13.3 13.3 0 0 1 1.029 5.21c-.005 1.024-.876 1.838-1.9 1.838zm29.674-1.178H51.463c-1.045 0-1.9-.836-1.9-1.9 0-1.045.855-1.9 1.9-1.9h18.426c1.045 0 1.9.855 1.9 1.9 0 1.064-.855 1.9-1.9 1.9zm13-10.374H51.463c-1.045 0-1.9-.855-1.9-1.9s.855-1.9 1.9-1.9h31.426c1.045 0 1.9.855 1.9 1.9s-.855 1.9-1.9 1.9zm0-10.374H51.463c-1.045 0-1.9-.855-1.9-1.9 0-1.064.855-1.9 1.9-1.9h31.426c1.045 0 1.9.836 1.9 1.9 0 1.045-.855 1.9-1.9 1.9z" opacity="1" data-original="url(#a)"></path></g></svg>