<svg xmlns="http://www.w3.org/2000/svg" version="1.1" xmlns:xlink="http://www.w3.org/1999/xlink" width="512" height="512" x="0" y="0" viewBox="0 0 24 24" style="enable-background:new 0 0 512 512" xml:space="preserve" fill-rule="evenodd"><rect width="24" height="24" rx="4.8" ry="4.8" fill="#bac8d3" shape="rounded"></rect><g transform="matrix(0.7,0,0,0.7,3.5999977111816417,3.5989505767822276)"><linearGradient id="a" x1="0" x2="1" y1="0" y2="0" gradientTransform="matrix(15 20.999 -21 14.999 106.5 45.5)" gradientUnits="userSpaceOnUse"><stop offset="0" stop-color="#00deff"></stop><stop offset="1" stop-color="#009eff"></stop></linearGradient><path fill="url(#a)" d="M108.965 61.903a3.256 3.256 0 0 1-2.465-3.159v-9.988a3.256 3.256 0 0 1 3.256-3.256h8.488a3.256 3.256 0 0 1 3.256 3.256v9.988a3.256 3.256 0 0 1-2.465 3.159l2.353 3.807-1.276.789-.926-1.499h-10.372l-.926 1.499-1.276-.789zm1.285-4.404a1.125 1.125 0 1 0 0 2.25 1.125 1.125 0 0 0 0-2.25zm7.831-9.749h-8.162c-.646 0-1.169.523-1.169 1.168v5.164c0 .645.523 1.168 1.169 1.168h8.162c.646 0 1.169-.523 1.169-1.168v-5.164c0-.645-.523-1.168-1.169-1.168zm-.331 9.749a1.125 1.125 0 1 0 0 2.25 1.125 1.125 0 0 0 0-2.25zM117.332 62h-6.664l-.927 1.5h8.518z" transform="translate(-102 -44.003)" opacity="1" data-original="url(#a)"></path></g></svg>