<svg xmlns="http://www.w3.org/2000/svg" version="1.1" xmlns:xlink="http://www.w3.org/1999/xlink" width="512" height="512" x="0" y="0" viewBox="0 0 20 20" style="enable-background:new 0 0 512 512" xml:space="preserve" class=""><rect width="20" height="20" rx="4" ry="4" fill="#bac8d3" shape="rounded"></rect><g transform="matrix(0.6199999999999998,0,0,0.6199999999999998,3.797623586654665,3.7999594116210957)"><linearGradient id="a" x1="1.869" x2="1.869" y1="-11.838" y2="33.568" gradientUnits="userSpaceOnUse"><stop offset="0" stop-color="#a3a3ff"></stop><stop offset="1" stop-color="#1f1fff"></stop></linearGradient><path fill="url(#a)" fill-rule="evenodd" d="M16.707 10.293a1 1 0 0 1 0 1.414l-6 6a1 1 0 0 1-1.414 0l-6-6a1 1 0 1 1 1.414-1.414L9 14.586V3a1 1 0 0 1 2 0v11.586l4.293-4.293a1 1 0 0 1 1.414 0z" clip-rule="evenodd" opacity="1" data-original="url(#a)"></path></g></svg>