<svg xmlns="http://www.w3.org/2000/svg" version="1.1" xmlns:xlink="http://www.w3.org/1999/xlink" width="512" height="512" x="0" y="0" viewBox="0 0 64 64" style="enable-background:new 0 0 512 512" xml:space="preserve"><rect width="64" height="64" rx="12.8" ry="12.8" fill="#bac8d3" shape="rounded"></rect><g transform="matrix(0.72,0,0,0.72,8.96,8.960072498321534)"><linearGradient id="a" x1="4" x2="60" y1="32" y2="32" gradientUnits="userSpaceOnUse"><stop offset="0" stop-color="#00c0ff"></stop><stop offset="1" stop-color="#5558ff"></stop></linearGradient><path fill="url(#a)" d="M60 41.94c-.79 18.905-55.219 18.896-56 0 0-5.1 5.01-9.64 13.27-12.19a12.687 12.687 0 0 0 .4 5.54 26.792 26.792 0 0 0-3.97 1.76C2.26 43.113 16.015 50.769 32 50.82c13.8 0 22.6-5.26 22.6-8.88-.546-3.97-6.097-5.855-9.43-7.03a12.29 12.29 0 0 0 .23-5.53C54.36 31.83 60 36.6 60 41.94zm-40.56-12.8c1.79-7.3 10.69-20.24 11.1-20.85a1.043 1.043 0 0 1 1.65 0c.472.8 10.725 15.313 11.41 22.68a12.267 12.267 0 0 1-12.23 12.64c-7.537.081-13.687-7.203-11.93-14.47zm10.93 8.07a.997.997 0 0 0 1 1 6.852 6.852 0 0 0 6.84-6.85 1 1 0 0 0-2 0 4.846 4.846 0 0 1-4.84 4.85.997.997 0 0 0-1 1zM11.4 41.94c0 1.76 7.08 6.88 20.6 6.88s20.6-5.12 20.6-6.88c0-1.07-2.69-3.47-8.07-5.13a14.244 14.244 0 0 1-26.17.36c-4.83 1.69-6.96 3.86-6.96 4.77z" opacity="1" data-original="url(#a)"></path></g></svg>